%TF.GenerationSoftware,KiCad,Pcbnew,9.0.2*%
%TF.CreationDate,2026-03-06T16:03:30+01:00*%
%TF.ProjectId,PDNode_Baseboard,50444e6f-6465-45f4-9261-7365626f6172,rev?*%
%TF.SameCoordinates,Original*%
%TF.FileFunction,Soldermask,Bot*%
%TF.FilePolarity,Negative*%
%FSLAX46Y46*%
G04 Gerber Fmt 4.6, Leading zero omitted, Abs format (unit mm)*
G04 Created by KiCad (PCBNEW 9.0.2) date 2026-03-06 16:03:30*
%MOMM*%
%LPD*%
G01*
G04 APERTURE LIST*
G04 Aperture macros list*
%AMRoundRect*
0 Rectangle with rounded corners*
0 $1 Rounding radius*
0 $2 $3 $4 $5 $6 $7 $8 $9 X,Y pos of 4 corners*
0 Add a 4 corners polygon primitive as box body*
4,1,4,$2,$3,$4,$5,$6,$7,$8,$9,$2,$3,0*
0 Add four circle primitives for the rounded corners*
1,1,$1+$1,$2,$3*
1,1,$1+$1,$4,$5*
1,1,$1+$1,$6,$7*
1,1,$1+$1,$8,$9*
0 Add four rect primitives between the rounded corners*
20,1,$1+$1,$2,$3,$4,$5,0*
20,1,$1+$1,$4,$5,$6,$7,0*
20,1,$1+$1,$6,$7,$8,$9,0*
20,1,$1+$1,$8,$9,$2,$3,0*%
G04 Aperture macros list end*
%ADD10C,0.150000*%
%ADD11C,1.026200*%
%ADD12C,0.010000*%
%ADD13C,2.350000*%
%ADD14RoundRect,0.102000X-0.604000X0.604000X-0.604000X-0.604000X0.604000X-0.604000X0.604000X0.604000X0*%
%ADD15C,1.412000*%
%ADD16R,1.000000X1.000000*%
%ADD17C,1.000000*%
%ADD18C,0.800000*%
%ADD19C,6.400000*%
%ADD20C,0.650000*%
%ADD21O,1.000000X2.100000*%
%ADD22O,1.000000X1.600000*%
%ADD23C,3.250000*%
%ADD24RoundRect,0.102000X-0.704000X-0.704000X0.704000X-0.704000X0.704000X0.704000X-0.704000X0.704000X0*%
%ADD25C,1.612000*%
%ADD26C,1.734000*%
%ADD27C,2.604000*%
%ADD28R,1.500000X1.500000*%
%ADD29C,1.500000*%
%ADD30C,3.500000*%
%ADD31C,2.006600*%
%ADD32C,1.650000*%
%ADD33C,1.150000*%
%ADD34RoundRect,0.250000X-0.650000X0.325000X-0.650000X-0.325000X0.650000X-0.325000X0.650000X0.325000X0*%
G04 APERTURE END LIST*
D10*
X199300000Y21525000D02*
X200825000Y21525000D01*
X200825000Y14125000D01*
X199300000Y14125000D01*
X199300000Y21525000D01*
G36*
X199300000Y21525000D02*
G01*
X200825000Y21525000D01*
X200825000Y14125000D01*
X199300000Y14125000D01*
X199300000Y21525000D01*
G37*
D11*
%TO.C,J22*%
X19113100Y111050000D02*
G75*
G02*
X18086900Y111050000I-513100J0D01*
G01*
X18086900Y111050000D02*
G75*
G02*
X19113100Y111050000I513100J0D01*
G01*
X23313100Y116550000D02*
G75*
G02*
X22286900Y116550000I-513100J0D01*
G01*
X22286900Y116550000D02*
G75*
G02*
X23313100Y116550000I513100J0D01*
G01*
X23313100Y111050000D02*
G75*
G02*
X22286900Y111050000I-513100J0D01*
G01*
X22286900Y111050000D02*
G75*
G02*
X23313100Y111050000I513100J0D01*
G01*
X27513100Y116550000D02*
G75*
G02*
X26486900Y116550000I-513100J0D01*
G01*
X26486900Y116550000D02*
G75*
G02*
X27513100Y116550000I513100J0D01*
G01*
X27513100Y111050000D02*
G75*
G02*
X26486900Y111050000I-513100J0D01*
G01*
X26486900Y111050000D02*
G75*
G02*
X27513100Y111050000I513100J0D01*
G01*
X31713100Y116550000D02*
G75*
G02*
X30686900Y116550000I-513100J0D01*
G01*
X30686900Y116550000D02*
G75*
G02*
X31713100Y116550000I513100J0D01*
G01*
X31713100Y111050000D02*
G75*
G02*
X30686900Y111050000I-513100J0D01*
G01*
X30686900Y111050000D02*
G75*
G02*
X31713100Y111050000I513100J0D01*
G01*
D12*
X19626200Y115523800D02*
X17573800Y115523800D01*
X17573800Y117576200D01*
X19626200Y117576200D01*
X19626200Y115523800D01*
G36*
X19626200Y115523800D02*
G01*
X17573800Y115523800D01*
X17573800Y117576200D01*
X19626200Y117576200D01*
X19626200Y115523800D01*
G37*
%TD*%
D13*
%TO.C,J6*%
X121737322Y127810219D03*
X121737322Y118660219D03*
D14*
X122987322Y139460219D03*
D15*
X124987322Y138460219D03*
X122987322Y137460219D03*
X124987322Y136460219D03*
X122987322Y135460219D03*
X124987322Y134460219D03*
X122987322Y133460219D03*
X124987322Y132460219D03*
X122987322Y131460219D03*
X124987322Y130460219D03*
X122987322Y129460219D03*
X124987322Y126460219D03*
X122987322Y125460219D03*
X124987322Y124460219D03*
X122987322Y123460219D03*
X124987322Y122460219D03*
X122987322Y121460219D03*
X124987322Y120460219D03*
D14*
X120487322Y139460219D03*
D15*
X118487322Y138460219D03*
X120487322Y137460219D03*
X118487322Y136460219D03*
X120487322Y135460219D03*
X118487322Y134460219D03*
X120487322Y133460219D03*
X118487322Y132460219D03*
X120487322Y131460219D03*
X118487322Y130460219D03*
X120487322Y129460219D03*
X118487322Y126460219D03*
X120487322Y125460219D03*
X118487322Y124460219D03*
X120487322Y123460219D03*
X118487322Y122460219D03*
X120487322Y121460219D03*
X118487322Y120460219D03*
%TD*%
D16*
%TO.C,J14*%
X157720000Y83800000D03*
D17*
X156450000Y83800000D03*
%TD*%
D16*
%TO.C,J17*%
X157750000Y93400000D03*
D17*
X156480000Y93400000D03*
%TD*%
D13*
%TO.C,J5*%
X137737322Y127810219D03*
X137737322Y118660219D03*
D14*
X138987322Y139460219D03*
D15*
X140987322Y138460219D03*
X138987322Y137460219D03*
X140987322Y136460219D03*
X138987322Y135460219D03*
X140987322Y134460219D03*
X138987322Y133460219D03*
X140987322Y132460219D03*
X138987322Y131460219D03*
X140987322Y130460219D03*
X138987322Y129460219D03*
X140987322Y126460219D03*
X138987322Y125460219D03*
X140987322Y124460219D03*
X138987322Y123460219D03*
X140987322Y122460219D03*
X138987322Y121460219D03*
X140987322Y120460219D03*
D14*
X136487322Y139460219D03*
D15*
X134487322Y138460219D03*
X136487322Y137460219D03*
X134487322Y136460219D03*
X136487322Y135460219D03*
X134487322Y134460219D03*
X136487322Y133460219D03*
X134487322Y132460219D03*
X136487322Y131460219D03*
X134487322Y130460219D03*
X136487322Y129460219D03*
X134487322Y126460219D03*
X136487322Y125460219D03*
X134487322Y124460219D03*
X136487322Y123460219D03*
X134487322Y122460219D03*
X136487322Y121460219D03*
X134487322Y120460219D03*
%TD*%
D16*
%TO.C,J16*%
X157720000Y90200000D03*
D17*
X156450000Y90200000D03*
%TD*%
D13*
%TO.C,J10*%
X57434650Y127799309D03*
X57434650Y118649309D03*
D14*
X58684650Y139449309D03*
D15*
X60684650Y138449309D03*
X58684650Y137449309D03*
X60684650Y136449309D03*
X58684650Y135449309D03*
X60684650Y134449309D03*
X58684650Y133449309D03*
X60684650Y132449309D03*
X58684650Y131449309D03*
X60684650Y130449309D03*
X58684650Y129449309D03*
X60684650Y126449309D03*
X58684650Y125449309D03*
X60684650Y124449309D03*
X58684650Y123449309D03*
X60684650Y122449309D03*
X58684650Y121449309D03*
X60684650Y120449309D03*
D14*
X56184650Y139449309D03*
D15*
X54184650Y138449309D03*
X56184650Y137449309D03*
X54184650Y136449309D03*
X56184650Y135449309D03*
X54184650Y134449309D03*
X56184650Y133449309D03*
X54184650Y132449309D03*
X56184650Y131449309D03*
X54184650Y130449309D03*
X56184650Y129449309D03*
X54184650Y126449309D03*
X56184650Y125449309D03*
X54184650Y124449309D03*
X56184650Y123449309D03*
X54184650Y122449309D03*
X56184650Y121449309D03*
X54184650Y120449309D03*
%TD*%
D18*
%TO.C,H3*%
X139047056Y6352944D03*
X139750000Y8050000D03*
X139750000Y4655888D03*
X141447056Y8752944D03*
D19*
X141447056Y6352944D03*
D18*
X141447056Y3952944D03*
X143144112Y8050000D03*
X143144112Y4655888D03*
X143847056Y6352944D03*
%TD*%
%TO.C,H5*%
X4075000Y101475000D03*
X4777944Y103172056D03*
X4777944Y99777944D03*
X6475000Y103875000D03*
D19*
X6475000Y101475000D03*
D18*
X6475000Y99075000D03*
X8172056Y103172056D03*
X8172056Y99777944D03*
X8875000Y101475000D03*
%TD*%
D16*
%TO.C,J21*%
X157750000Y106200000D03*
D17*
X156480000Y106200000D03*
%TD*%
D18*
%TO.C,H2*%
X4047056Y149102944D03*
X4750000Y150800000D03*
X4750000Y147405888D03*
X6447056Y151502944D03*
D19*
X6447056Y149102944D03*
D18*
X6447056Y146702944D03*
X8144112Y150800000D03*
X8144112Y147405888D03*
X8847056Y149102944D03*
%TD*%
D16*
%TO.C,J19*%
X157750000Y99800000D03*
D17*
X156480000Y99800000D03*
%TD*%
D13*
%TO.C,J4*%
X153737322Y127810219D03*
X153737322Y118660219D03*
D14*
X154987322Y139460219D03*
D15*
X156987322Y138460219D03*
X154987322Y137460219D03*
X156987322Y136460219D03*
X154987322Y135460219D03*
X156987322Y134460219D03*
X154987322Y133460219D03*
X156987322Y132460219D03*
X154987322Y131460219D03*
X156987322Y130460219D03*
X154987322Y129460219D03*
X156987322Y126460219D03*
X154987322Y125460219D03*
X156987322Y124460219D03*
X154987322Y123460219D03*
X156987322Y122460219D03*
X154987322Y121460219D03*
X156987322Y120460219D03*
D14*
X152487322Y139460219D03*
D15*
X150487322Y138460219D03*
X152487322Y137460219D03*
X150487322Y136460219D03*
X152487322Y135460219D03*
X150487322Y134460219D03*
X152487322Y133460219D03*
X150487322Y132460219D03*
X152487322Y131460219D03*
X150487322Y130460219D03*
X152487322Y129460219D03*
X150487322Y126460219D03*
X152487322Y125460219D03*
X150487322Y124460219D03*
X152487322Y123460219D03*
X150487322Y122460219D03*
X152487322Y121460219D03*
X150487322Y120460219D03*
%TD*%
D20*
%TO.C,J3*%
X176610000Y7130000D03*
X182390000Y7130000D03*
D21*
X175180000Y7630000D03*
D22*
X175180000Y3450000D03*
D21*
X183820000Y7630000D03*
D22*
X183820000Y3450000D03*
%TD*%
D23*
%TO.C,J1*%
X152645000Y10135000D03*
X164075000Y10135000D03*
D24*
X153915000Y16485000D03*
D25*
X155185000Y19025000D03*
X156455000Y16485000D03*
X157725000Y19025000D03*
X158995000Y16485000D03*
X160265000Y19025000D03*
X161535000Y16485000D03*
X162805000Y19025000D03*
D26*
X152035000Y5055000D03*
X154602000Y6755000D03*
X162118000Y5055000D03*
X164685000Y6755000D03*
D27*
X150610000Y13185000D03*
X166110000Y13185000D03*
%TD*%
D16*
%TO.C,J15*%
X157720000Y87000000D03*
D17*
X156450000Y87000000D03*
%TD*%
D28*
%TO.C,J13*%
X172250002Y143800000D03*
D29*
X169750002Y143800000D03*
X167750002Y143800000D03*
X165250002Y143800000D03*
X172250002Y141180000D03*
X169750002Y141180000D03*
X167750002Y141180000D03*
X165250002Y141180000D03*
D30*
X175320002Y146510000D03*
X162180002Y146510000D03*
X175320002Y140830000D03*
X162180002Y140830000D03*
%TD*%
D13*
%TO.C,J8*%
X89444650Y127799309D03*
X89444650Y118649309D03*
D14*
X90694650Y139449309D03*
D15*
X92694650Y138449309D03*
X90694650Y137449309D03*
X92694650Y136449309D03*
X90694650Y135449309D03*
X92694650Y134449309D03*
X90694650Y133449309D03*
X92694650Y132449309D03*
X90694650Y131449309D03*
X92694650Y130449309D03*
X90694650Y129449309D03*
X92694650Y126449309D03*
X90694650Y125449309D03*
X92694650Y124449309D03*
X90694650Y123449309D03*
X92694650Y122449309D03*
X90694650Y121449309D03*
X92694650Y120449309D03*
D14*
X88194650Y139449309D03*
D15*
X86194650Y138449309D03*
X88194650Y137449309D03*
X86194650Y136449309D03*
X88194650Y135449309D03*
X86194650Y134449309D03*
X88194650Y133449309D03*
X86194650Y132449309D03*
X88194650Y131449309D03*
X86194650Y130449309D03*
X88194650Y129449309D03*
X86194650Y126449309D03*
X88194650Y125449309D03*
X86194650Y124449309D03*
X88194650Y123449309D03*
X86194650Y122449309D03*
X88194650Y121449309D03*
X86194650Y120449309D03*
%TD*%
D18*
%TO.C,H4*%
X198350000Y6050000D03*
X199052944Y7747056D03*
X199052944Y4352944D03*
X200750000Y8450000D03*
D19*
X200750000Y6050000D03*
D18*
X200750000Y3650000D03*
X202447056Y7747056D03*
X202447056Y4352944D03*
X203150000Y6050000D03*
%TD*%
D31*
%TO.C,F1*%
X28750001Y101800000D03*
X28750001Y104300000D03*
X25250000Y101800000D03*
X25250000Y104300000D03*
X19449999Y101800000D03*
X19449999Y104300000D03*
X15949996Y101800000D03*
X15949996Y104300000D03*
%TD*%
D18*
%TO.C,H1*%
X198350000Y149800000D03*
X199052944Y151497056D03*
X199052944Y148102944D03*
X200750000Y152200000D03*
D19*
X200750000Y149800000D03*
D18*
X200750000Y147400000D03*
X202447056Y151497056D03*
X202447056Y148102944D03*
X203150000Y149800000D03*
%TD*%
D13*
%TO.C,J11*%
X41434650Y127799309D03*
X41434650Y118649309D03*
D14*
X42684650Y139449309D03*
D15*
X44684650Y138449309D03*
X42684650Y137449309D03*
X44684650Y136449309D03*
X42684650Y135449309D03*
X44684650Y134449309D03*
X42684650Y133449309D03*
X44684650Y132449309D03*
X42684650Y131449309D03*
X44684650Y130449309D03*
X42684650Y129449309D03*
X44684650Y126449309D03*
X42684650Y125449309D03*
X44684650Y124449309D03*
X42684650Y123449309D03*
X44684650Y122449309D03*
X42684650Y121449309D03*
X44684650Y120449309D03*
D14*
X40184650Y139449309D03*
D15*
X38184650Y138449309D03*
X40184650Y137449309D03*
X38184650Y136449309D03*
X40184650Y135449309D03*
X38184650Y134449309D03*
X40184650Y133449309D03*
X38184650Y132449309D03*
X40184650Y131449309D03*
X38184650Y130449309D03*
X40184650Y129449309D03*
X38184650Y126449309D03*
X40184650Y125449309D03*
X38184650Y124449309D03*
X40184650Y123449309D03*
X38184650Y122449309D03*
X40184650Y121449309D03*
X38184650Y120449309D03*
%TD*%
D32*
%TO.C,J2*%
X176300000Y39625000D03*
D33*
X196300000Y39625000D03*
%TD*%
D16*
%TO.C,J18*%
X157750000Y96600000D03*
D17*
X156480000Y96600000D03*
%TD*%
D28*
%TO.C,J12*%
X192820000Y143800000D03*
D29*
X190320000Y143800000D03*
X188320000Y143800000D03*
X185820000Y143800000D03*
X192820000Y141180000D03*
X190320000Y141180000D03*
X188320000Y141180000D03*
X185820000Y141180000D03*
D30*
X195890000Y146510000D03*
X182750000Y146510000D03*
X195890000Y140830000D03*
X182750000Y140830000D03*
%TD*%
D16*
%TO.C,J20*%
X157750000Y103000000D03*
D17*
X156480000Y103000000D03*
%TD*%
D13*
%TO.C,J7*%
X105737322Y127810219D03*
X105737322Y118660219D03*
D14*
X106987322Y139460219D03*
D15*
X108987322Y138460219D03*
X106987322Y137460219D03*
X108987322Y136460219D03*
X106987322Y135460219D03*
X108987322Y134460219D03*
X106987322Y133460219D03*
X108987322Y132460219D03*
X106987322Y131460219D03*
X108987322Y130460219D03*
X106987322Y129460219D03*
X108987322Y126460219D03*
X106987322Y125460219D03*
X108987322Y124460219D03*
X106987322Y123460219D03*
X108987322Y122460219D03*
X106987322Y121460219D03*
X108987322Y120460219D03*
D14*
X104487322Y139460219D03*
D15*
X102487322Y138460219D03*
X104487322Y137460219D03*
X102487322Y136460219D03*
X104487322Y135460219D03*
X102487322Y134460219D03*
X104487322Y133460219D03*
X102487322Y132460219D03*
X104487322Y131460219D03*
X102487322Y130460219D03*
X104487322Y129460219D03*
X102487322Y126460219D03*
X104487322Y125460219D03*
X102487322Y124460219D03*
X104487322Y123460219D03*
X102487322Y122460219D03*
X104487322Y121460219D03*
X102487322Y120460219D03*
%TD*%
D13*
%TO.C,J9*%
X73434650Y127799309D03*
X73434650Y118649309D03*
D14*
X74684650Y139449309D03*
D15*
X76684650Y138449309D03*
X74684650Y137449309D03*
X76684650Y136449309D03*
X74684650Y135449309D03*
X76684650Y134449309D03*
X74684650Y133449309D03*
X76684650Y132449309D03*
X74684650Y131449309D03*
X76684650Y130449309D03*
X74684650Y129449309D03*
X76684650Y126449309D03*
X74684650Y125449309D03*
X76684650Y124449309D03*
X74684650Y123449309D03*
X76684650Y122449309D03*
X74684650Y121449309D03*
X76684650Y120449309D03*
D14*
X72184650Y139449309D03*
D15*
X70184650Y138449309D03*
X72184650Y137449309D03*
X70184650Y136449309D03*
X72184650Y135449309D03*
X70184650Y134449309D03*
X72184650Y133449309D03*
X70184650Y132449309D03*
X72184650Y131449309D03*
X70184650Y130449309D03*
X72184650Y129449309D03*
X70184650Y126449309D03*
X72184650Y125449309D03*
X70184650Y124449309D03*
X72184650Y123449309D03*
X70184650Y122449309D03*
X72184650Y121449309D03*
X70184650Y120449309D03*
%TD*%
D34*
%TO.C,C49*%
X177250000Y137650000D03*
X177250000Y134700000D03*
%TD*%
%TO.C,C42*%
X198150000Y137575000D03*
X198150000Y134625000D03*
%TD*%
M02*
