M48
; DRILL file {KiCad 9.0.7} date 2026-03-01T13:00:01+0100
; FORMAT={-:-/ absolute / inch / decimal}
; #@! TF.CreationDate,2026-03-01T13:00:01+01:00
; #@! TF.GenerationSoftware,Kicad,Pcbnew,9.0.7
; #@! TF.FileFunction,NonPlated,1,6,NPTH
FMAT,2
INCH
; #@! TA.AperFunction,NonPlated,NPTH,ComponentDrill
T1C0.0256
; #@! TA.AperFunction,NonPlated,NPTH,ComponentDrill
T2C0.0453
; #@! TA.AperFunction,NonPlated,NPTH,ComponentDrill
T3C0.0650
; #@! TA.AperFunction,NonPlated,NPTH,ComponentDrill
T4C0.0925
; #@! TA.AperFunction,NonPlated,NPTH,ComponentDrill
T5C0.0960
; #@! TA.AperFunction,NonPlated,NPTH,ComponentDrill
T6C0.1280
%
G90
G05
T1
X6.9531Y0.2807
X7.1807Y0.2807
T2
X7.7283Y1.56
T3
X6.9409Y1.56
T4
X1.6313Y5.0315
X1.6313Y4.6712
X2.2612Y5.0315
X2.2612Y4.6712
X2.8911Y5.0315
X2.8911Y4.6712
X3.5214Y5.0315
X3.5214Y4.6712
X4.1629Y5.0319
X4.1629Y4.6717
X4.7928Y5.0319
X4.7928Y4.6717
X5.4227Y5.0319
X5.4227Y4.6717
X6.0527Y5.0319
X6.0527Y4.6717
T5
X0.8799Y4.057
T6
X6.0096Y0.3986
X6.4596Y0.3986
M30
