M48
; DRILL file {KiCad 9.0.7} date 2026-03-01T13:00:01+0100
; FORMAT={-:-/ absolute / inch / decimal}
; #@! TF.CreationDate,2026-03-01T13:00:01+01:00
; #@! TF.GenerationSoftware,Kicad,Pcbnew,9.0.7
; #@! TF.FileFunction,Plated,1,6,PTH
FMAT,2
INCH
; #@! TA.AperFunction,Plated,PTH,ViaDrill
T1C0.0079
; #@! TA.AperFunction,Plated,PTH,ComponentDrill
T2C0.0079
; #@! TA.AperFunction,Plated,PTH,ViaDrill
T3C0.0098
; #@! TA.AperFunction,Plated,PTH,ViaDrill
T4C0.0118
; #@! TA.AperFunction,Plated,PTH,ComponentDrill
T5C0.0118
; #@! TA.AperFunction,Plated,PTH,ComponentDrill
T6C0.0197
; #@! TA.AperFunction,Plated,PTH,ComponentDrill
T7C0.0236
; #@! TA.AperFunction,Plated,PTH,ComponentDrill
T8C0.0256
; #@! TA.AperFunction,Plated,PTH,ComponentDrill
T9C0.0276
; #@! TA.AperFunction,Plated,PTH,ComponentDrill
T10C0.0350
; #@! TA.AperFunction,Plated,PTH,ComponentDrill
T11C0.0362
; #@! TA.AperFunction,Plated,PTH,ComponentDrill
T12C0.0402
; #@! TA.AperFunction,Plated,PTH,ComponentDrill
T13C0.0551
; #@! TA.AperFunction,Plated,PTH,ComponentDrill
T14C0.0590
; #@! TA.AperFunction,Plated,PTH,ComponentDrill
T15C0.0642
; #@! TA.AperFunction,Plated,PTH,ComponentDrill
T16C0.0906
; #@! TA.AperFunction,Plated,PTH,ComponentDrill
T17C0.1260
; #@! TA.AperFunction,Plated,PTH,ComponentDrill
T18C0.1457
%
G90
G05
T1
X0.3476Y5.435
X0.3476Y5.3937
X0.3476Y5.3523
X0.3476Y5.3129
X0.3476Y5.2736
X0.3476Y5.2342
X0.3496Y5.1948
X0.3496Y5.1555
X0.3654Y5.6633
X0.4106Y5.2736
X0.413Y5.435
X0.4402Y5.0393
X0.4638Y5.1181
X0.5335Y5.2913
X0.5335Y5.248
X0.5394Y5.0374
X0.5445Y5.6594
X0.5563Y5.2677
X0.5768Y5.2913
X0.5768Y5.248
X0.578Y4.985
X0.6016Y5.1732
X0.6094Y5.0118
X0.6232Y5.2047
X0.6311Y5.4114
X0.65Y4.9348
X0.65Y4.8915
X0.6783Y5.6633
X0.6783Y5.3188
X0.6843Y5.2696
X0.6914Y4.982
X0.7236Y5.2992
X0.7512Y5.2421
X0.7531Y5.2696
X0.763Y5.4409
X0.8043Y5.5216
X0.8142Y5.0078
X0.8161Y5.25
X0.8378Y5.6633
X0.8378Y5.1692
X0.8654Y5.248
X0.889Y5.2027
X0.8904Y5.6703
X0.8909Y5.6948
X0.9087Y5.248
X0.9146Y5.2027
X0.916Y5.6703
X0.9165Y5.6948
X0.9415Y5.6703
X0.9421Y5.6948
X0.9421Y5.2027
X0.9508Y5.248
X0.9657Y5.6633
X1.352Y3.9244
X1.4028Y3.9272
X1.45Y3.933
X1.4898Y3.9425
X1.503Y5.6043
X1.5354Y5.6762
X1.5413Y4.5354
X1.5728Y4.4675
X1.5778Y5.7293
X1.6339Y5.5374
X1.7008Y4.5738
X1.7244Y5.6909
X1.7244Y5.6565
X1.7382Y4.5246
X1.7461Y4.2805
X1.749Y4.2421
X1.7559Y4.498
X1.7598Y5.5738
X1.7805Y4.2106
X1.7982Y4.4685
X1.8474Y5.2159
X1.8729Y4.0977
X1.8976Y4.1004
X1.8985Y4.4685
X1.9241Y4.498
X1.9488Y4.1457
X1.9754Y4.5138
X2.0315Y4.128
X2.0689Y4.4823
X2.0699Y4.5226
X2.1122Y5.6772
X2.1319Y5.6043
X2.1535Y5.6772
X2.1604Y4.4528
X2.1604Y4.3248
X2.1988Y4.5354
X2.2077Y5.7323
X2.2126Y4.2047
X2.2323Y4.44
X2.2323Y4.2992
X2.2323Y4.2303
X2.2648Y5.5374
X2.2687Y4.5098
X2.3573Y5.6909
X2.3573Y5.6565
X2.3907Y5.5738
X2.4272Y4.3632
X2.4754Y5.2185
X2.689Y4.4577
X2.7382Y5.6752
X2.7638Y5.6043
X2.7933Y5.6772
X2.8051Y4.4892
X2.8071Y4.3346
X2.8081Y4.5266
X2.8415Y5.7313
X2.8927Y5.5374
X2.9656Y4.565
X2.9902Y5.6929
X2.9902Y5.6585
X3.0059Y4.5157
X3.0187Y5.5738
X3.0394Y4.4646
X3.0443Y4.2825
X3.0443Y4.2431
X3.0787Y4.4882
X3.0787Y4.2077
X3.1122Y5.2165
X3.1693Y3.9528
X3.194Y4.4646
X3.1949Y3.9764
X3.2196Y4.4902
X3.2707Y4.1427
X3.3209Y4.122
X3.3474Y4.5177
X3.3583Y4.1476
X3.3898Y4.5246
X3.3927Y4.4862
X3.3937Y5.6043
X3.4222Y5.6772
X3.4724Y5.7303
X3.4823Y4.3278
X3.4843Y4.4498
X3.5207Y5.5374
X3.5541Y4.5669
X3.5541Y4.4518
X3.5541Y4.3022
X3.5935Y4.5118
X3.627Y5.6919
X3.627Y5.6575
X3.6486Y5.5738
X3.7047Y4.2697
X3.7106Y4.1496
X3.7146Y4.2402
X3.7283Y4.1083
X3.752Y5.2146
X3.8022Y4.0571
X3.8031Y4.2972
X3.8228Y4.0394
X3.8248Y4.313
X3.8455Y4.3317
X3.8455Y4.0246
X3.8652Y4.3504
X3.8652Y4.0089
X3.8858Y4.3701
X3.8996Y4.0098
X3.9085Y4.4045
X3.9232Y4.0246
X3.9341Y4.3878
X3.9429Y4.0433
X3.9626Y4.062
X3.9882Y4.3976
X4.0197Y4.0799
X4.0207Y4.2827
X4.0207Y4.1673
X4.0325Y5.6043
X4.0325Y4.3366
X4.0454Y4.5314
X4.0463Y4.4937
X4.0492Y4.2185
X4.0679Y5.6762
X4.1102Y4.1772
X4.1152Y5.7323
X4.1673Y5.5374
X4.2539Y4.5197
X4.2657Y5.6919
X4.2657Y5.6575
X4.2913Y5.5738
X4.313Y4.2362
X4.315Y4.2776
X4.3228Y4.4646
X4.3406Y4.4921
X4.3878Y5.2165
X4.437Y3.9528
X4.4641Y4.4646
X4.4665Y3.9764
X4.4843Y4.0945
X4.4897Y4.4902
X4.498Y4.0709
X4.5118Y4.0472
X4.5276Y4.0246
X4.5335Y4.1073
X4.5945Y4.0827
X4.622Y4.1063
X4.6624Y5.6043
X4.6713Y4.4941
X4.6722Y4.5305
X4.6949Y5.6801
X4.7441Y5.7352
X4.7589Y4.323
X4.7618Y4.4537
X4.7992Y5.5374
X4.8317Y4.2974
X4.8327Y4.4537
X4.875Y4.5197
X4.8819Y4.5453
X4.8917Y5.6949
X4.8917Y5.6604
X4.9134Y4.128
X4.9222Y5.5738
X4.998Y4.2441
X5.0177Y5.2165
X5.0276Y5.435
X5.0354Y5.4754
X5.0462Y5.3819
X5.0886Y5.4843
X5.1181Y5.6693
X5.1398Y5.6949
X5.1713Y5.7087
X5.2923Y4.5325
X5.2923Y4.4951
X5.2933Y5.6043
X5.3268Y5.6801
X5.376Y5.7352
X5.3868Y4.4606
X5.4232Y5.5374
X5.4567Y4.5699
X5.498Y3.752
X5.5079Y4.4961
X5.5256Y5.6939
X5.5256Y5.6594
X5.5276Y4.5217
X5.5335Y3.752
X5.5492Y5.5738
X5.5571Y4.128
X5.5721Y4.6112
X5.5758Y4.2372
X5.5768Y4.2766
X5.5787Y4.5807
X5.6417Y5.2165
X5.728Y3.9537
X5.7288Y4.4616
X5.7343Y2.0413
X5.7362Y2.0689
X5.7382Y2.1811
X5.7382Y2.0965
X5.7421Y2.124
X5.747Y0.7549
X5.7544Y4.4951
X5.7677Y2.1516
X5.7717Y4.6122
X5.7736Y4.5827
X5.8051Y0.8012
X5.811Y3.9764
X5.8612Y0.7549
X5.8933Y4.0976
X5.9242Y5.6014
X5.9242Y4.5325
X5.9242Y4.4941
X5.9695Y5.6801
X6.0167Y5.7372
X6.0217Y4.4557
X6.0217Y4.3209
X6.0492Y2.7018
X6.0531Y5.5374
X6.0551Y1.7047
X6.0748Y2.8583
X6.0807Y1.687
X6.0876Y4.2953
X6.0896Y4.5738
X6.0896Y4.4577
X6.095Y1.2298
X6.0965Y1.2047
X6.1063Y1.6673
X6.1117Y1.2466
X6.124Y5.937
X6.124Y5.9035
X6.1299Y4.5197
X6.1339Y1.6476
X6.1368Y0.8071
X6.1378Y1.2451
X6.1516Y3.063
X6.1585Y1.0896
X6.1594Y1.6299
X6.1673Y5.6939
X6.1673Y5.6594
X6.1736Y1.1105
X6.1801Y5.5748
X6.1811Y1.6102
X6.1831Y2.4567
X6.187Y2.366
X6.1979Y1.1102
X6.1988Y2.4134
X6.2028Y1.5906
X6.2126Y1.0906
X6.2146Y1.0522
X6.2146Y0.8789
X6.2156Y0.9902
X6.2188Y5.9378
X6.2205Y1.1358
X6.2239Y1.1597
X6.2303Y1.5709
X6.2332Y1.0719
X6.2417Y1.1777
X6.2578Y1.072
X6.2677Y2.6713
X6.2677Y2.6378
X6.2697Y3.0354
X6.2697Y3.0039
X6.2697Y2.9724
X6.2697Y2.9409
X6.2697Y2.8839
X6.2697Y2.8524
X6.2697Y2.8209
X6.2697Y2.7894
X6.2697Y2.7323
X6.2697Y2.7008
X6.2697Y1.1821
X6.2717Y3.185
X6.2717Y3.1535
X6.2717Y3.122
X6.2717Y3.0906
X6.2756Y5.876
X6.2776Y5.2165
X6.2846Y1.0469
X6.2972Y2.4114
X6.2972Y2.3661
X6.2992Y2.5037
X6.2992Y2.459
X6.3327Y5.937
X6.3327Y5.9055
X6.3642Y3.4902
X6.3839Y2.5039
X6.3839Y2.4587
X6.3839Y2.4114
X6.3839Y2.3661
X6.3898Y4.313
X6.4294Y4.9235
X6.4311Y4.313
X6.4311Y3.5197
X6.4646Y3.8465
X6.4724Y4.6496
X6.4862Y5.313
X6.4862Y5.2854
X6.4865Y5.0042
X6.4865Y4.8428
X6.4961Y3.3858
X6.5Y3.939
X6.5177Y3.2106
X6.5236Y4.8228
X6.5354Y4.9235
X6.5394Y3.937
X6.5448Y3.3563
X6.5453Y3.189
X6.5492Y4.4685
X6.563Y4.8209
X6.563Y4.6476
X6.5846Y3.8622
X6.5887Y4.3327
X6.6024Y4.8228
X6.6024Y4.4685
X6.6063Y0.753
X6.6206Y4.3333
X6.622Y3.3484
X6.6437Y3.7618
X6.6634Y4.3563
X6.6673Y0.8012
X6.6831Y3.7717
X6.7008Y3.3898
X6.7019Y4.3556
X6.7185Y3.7254
X6.7274Y0.752
X6.7283Y4.6516
X6.7323Y3.8622
X6.7333Y0.252
X6.7345Y4.9294
X6.7776Y4.8248
X6.7913Y5.3228
X6.7913Y5.2933
X6.7913Y2.9803
X6.7913Y0.3012
X6.7916Y5.0101
X6.7916Y4.8487
X6.8012Y3.9862
X6.8051Y4.4705
X6.815Y2.9016
X6.8169Y2.8602
X6.8169Y2.8209
X6.8189Y4.8248
X6.8189Y4.6457
X6.8268Y3.437
X6.8406Y4.9294
X6.8425Y3.9882
X6.8543Y3.4154
X6.8563Y4.4705
X6.8602Y4.8248
X6.8799Y1.3829
X6.8858Y3.939
X6.9055Y0.4114
X6.9232Y3.939
X6.9272Y1.3081
X6.9301Y2.3563
X6.9309Y0.3781
X6.9311Y0.439
X6.9469Y2.3799
X6.9557Y1.625
X6.9567Y1.6752
X6.9567Y1.6496
X6.9616Y2.4104
X6.9687Y0.4411
X6.9705Y5.9331
X6.9705Y5.8996
X6.9724Y0.3701
X6.9774Y5.247
X6.9783Y5.3484
X6.9902Y1.4094
X6.9902Y1.2854
X6.9911Y1.7037
X6.9911Y1.6014
X6.9951Y0.4675
X7.0197Y1.7057
X7.0256Y5.8701
X7.0394Y1.5945
X7.0425Y4.6521
X7.0492Y1.2854
X7.0502Y1.4094
X7.0512Y0.4124
X7.0591Y0.5108
X7.0735Y0.5418
X7.0748Y0.1831
X7.0846Y5.8701
X7.0906Y3.9783
X7.0917Y4.8254
X7.0985Y0.1831
X7.0992Y0.5416
X7.1004Y2.4941
X7.1142Y0.5108
X7.1161Y2.4547
X7.126Y0.4124
X7.1291Y4.4671
X7.1299Y3.9783
X7.1311Y4.8254
X7.1311Y4.6502
X7.1378Y1.5925
X7.1398Y5.9331
X7.1398Y5.8996
X7.1398Y1.2795
X7.1575Y2.1496
X7.1634Y1.2559
X7.1673Y0.3661
X7.1704Y4.8254
X7.1732Y3.9331
X7.1752Y0.4754
X7.1772Y2.2343
X7.1803Y4.4671
X7.1831Y1.2323
X7.188Y0.3868
X7.1969Y2.2146
X7.2057Y1.252
X7.2067Y0.4469
X7.2106Y3.9331
X7.2165Y2.1949
X7.2185Y4.9351
X7.2254Y1.2717
X7.2362Y2.1752
X7.2392Y3.6969
X7.2441Y0.4449
X7.2443Y0.3781
X7.2559Y2.1535
X7.2579Y1.2874
X7.2736Y5.3209
X7.2736Y5.2953
X7.2756Y5.0157
X7.2756Y1.7057
X7.2795Y0.4154
X7.2835Y1.2913
X7.2913Y2.3996
X7.2953Y1.5935
X7.3041Y1.2756
X7.3086Y1.5713
X7.3139Y2.3406
X7.3245Y4.935
X7.3248Y1.0945
X7.3346Y1.7087
X7.3415Y2.3661
X7.3445Y1.1161
X7.3445Y0.2982
X7.3504Y3.8031
X7.3642Y1.1299
X7.3799Y3.7697
X7.3839Y1.1457
X7.3937Y1.7087
X7.4016Y0.251
X7.4035Y1.1614
X7.4232Y1.1772
X7.4429Y1.1929
X7.4469Y0.2825
X7.4626Y1.5
X7.4626Y1.2087
X7.4744Y1.5276
X7.4783Y0.25
X7.4793Y3.8543
X7.4803Y3.9459
X7.4852Y0.1969
X7.4902Y2.5512
X7.4902Y1.2776
X7.4921Y1.5935
X7.498Y1.7795
X7.502Y1.563
X7.5059Y1.4764
X7.5217Y1.4488
X7.5335Y2.5689
X7.5335Y1.7913
X7.5436Y4.9314
X7.5492Y3.9764
X7.5531Y1.4173
X7.561Y1.7087
X7.5728Y1.4331
X7.5807Y1.6024
X7.5886Y3.9783
X7.5984Y5.3268
X7.5984Y5.2874
X7.6004Y1.7087
X7.6004Y1.2766
X7.6006Y5.0121
X7.6006Y4.8506
X7.6122Y1.4291
X7.628Y3.9252
X7.6319Y1.4488
X7.6496Y4.9314
X7.6496Y2.6201
X7.6555Y1.4685
X7.6673Y3.9272
X7.6683Y2.5984
X7.6791Y1.4882
X7.683Y4.6629
X7.689Y1.5945
X7.6998Y1.2766
X7.7322Y4.8283
X7.7421Y1.3091
X7.7431Y1.4557
X7.7598Y4.4759
X7.7716Y4.8283
X7.7716Y4.6511
X7.7874Y1.3829
X7.8002Y5.252
X7.8012Y5.3465
X7.8109Y4.8283
X7.8109Y4.4759
T2
X6.5974Y3.9782
X6.5974Y3.9357
X6.6339Y3.9782
X6.6339Y3.9357
X6.6703Y3.9782
X6.6703Y3.9357
X7.3455Y3.9705
X7.3455Y3.928
X7.3819Y3.9705
X7.3819Y3.928
X7.4183Y3.9705
X7.4183Y3.928
T3
X6.4272Y5.4646
X6.4272Y5.4252
X6.4272Y5.3858
X6.4665Y5.4646
X6.4665Y5.4252
X6.4665Y5.3858
X6.5059Y5.4646
X6.5059Y5.4252
X6.5059Y5.3858
X6.5453Y5.4646
X6.5453Y5.4252
X6.5453Y5.3858
X6.5846Y5.4646
X6.5846Y5.4252
X6.5846Y5.3858
X6.6831Y5.4252
X6.6831Y5.3858
X6.7224Y5.4252
X6.7224Y5.3858
X6.7618Y5.4252
X6.7618Y5.3858
X6.8012Y5.4252
X6.8012Y5.3858
X6.8406Y5.4252
X6.8406Y5.3858
X6.8799Y5.4252
X6.8799Y5.3858
X7.2539Y5.4646
X7.2539Y5.4252
X7.2539Y5.3858
X7.2933Y5.4646
X7.2933Y5.4252
X7.2933Y5.3858
X7.3327Y5.4646
X7.3327Y5.4252
X7.3327Y5.3858
X7.372Y5.4646
X7.372Y5.4252
X7.372Y5.3858
X7.4114Y5.4646
X7.4114Y5.4252
X7.4114Y5.3858
X7.5098Y5.4252
X7.5098Y5.3858
X7.5492Y5.4252
X7.5492Y5.3858
X7.5886Y5.4252
X7.5886Y5.3858
X7.628Y5.4252
X7.628Y5.3858
X7.6673Y5.4252
X7.6673Y5.3858
X7.7067Y5.4252
X7.7067Y5.3858
T4
X0.2264Y4.5591
X0.2264Y4.5197
X0.2264Y4.4803
X0.2264Y4.4409
X0.2264Y4.4016
X0.2264Y4.3622
X0.2264Y4.3228
X0.2264Y4.2835
X0.2264Y4.2441
X0.2264Y4.2047
X0.2264Y4.1654
X0.2657Y4.5591
X0.2657Y4.5197
X0.2657Y4.4803
X0.2657Y4.4409
X0.2657Y4.4016
X0.2657Y4.3622
X0.2657Y4.3228
X0.2657Y4.2835
X0.2657Y4.2441
X0.2657Y4.2047
X0.2657Y4.1654
X0.2953Y4.874
X0.2953Y4.8346
X0.2953Y4.7953
X0.2953Y4.7559
X0.2953Y4.7165
X0.3051Y4.5591
X0.3051Y4.5197
X0.3051Y4.4803
X0.3051Y4.4409
X0.3051Y4.4016
X0.3051Y4.3622
X0.3051Y4.3228
X0.3051Y4.2835
X0.3051Y4.2441
X0.3051Y4.2047
X0.3051Y4.1654
X0.3346Y4.874
X0.3346Y4.8346
X0.3346Y4.7953
X0.3346Y4.7559
X0.3346Y4.7165
X0.3445Y4.5591
X0.3445Y4.5197
X0.3445Y4.4803
X0.3445Y4.4409
X0.3445Y4.4016
X0.3445Y4.3622
X0.3445Y4.3228
X0.3445Y4.2835
X0.3445Y4.2441
X0.3445Y4.2047
X0.3445Y4.1654
X0.374Y4.874
X0.374Y4.8346
X0.374Y4.7953
X0.374Y4.7559
X0.374Y4.7165
X0.3839Y4.5591
X0.3839Y4.5197
X0.3839Y4.4803
X0.3839Y4.4409
X0.3839Y4.4016
X0.3839Y4.3622
X0.3839Y4.3228
X0.3839Y4.2835
X0.3839Y4.2441
X0.3839Y4.2047
X0.3839Y4.1654
X0.3839Y4.126
X0.4232Y4.5591
X0.4232Y4.5197
X0.4232Y4.4803
X0.4232Y4.4409
X0.4232Y4.4016
X0.4232Y4.3622
X0.4232Y4.3228
X0.4232Y4.2835
X0.4232Y4.2441
X0.4232Y4.2047
X0.4232Y4.1654
X0.4232Y4.126
X0.4232Y4.0866
X0.4232Y4.0472
X0.4622Y4.0481
X0.4626Y4.5591
X0.4626Y4.5197
X0.4626Y4.4803
X0.4626Y4.4409
X0.4626Y4.4016
X0.4626Y4.3622
X0.4626Y4.3228
X0.4626Y4.2835
X0.4626Y4.2441
X0.4626Y4.2047
X0.4626Y4.1654
X0.4626Y4.0866
X0.4626Y4.0079
X0.4626Y3.9291
X0.4627Y3.9668
X0.4631Y4.1262
X0.4707Y5.8391
X0.4707Y5.7604
X0.5016Y4.0481
X0.502Y4.1654
X0.502Y4.0866
X0.502Y4.0079
X0.502Y3.9291
X0.502Y3.9668
X0.5025Y4.1262
X0.5101Y5.7997
X0.5413Y4.0866
X0.5413Y4.0079
X0.5413Y3.9291
X0.5436Y4.0485
X0.544Y4.1657
X0.544Y3.9671
X0.5445Y4.1266
X0.5494Y5.8391
X0.5494Y5.7604
X0.5807Y4.1654
X0.5807Y4.0472
X0.5807Y3.9685
X0.5807Y3.9291
X0.6004Y4.6772
X0.6004Y4.6378
X0.6004Y4.5984
X0.6004Y4.5591
X0.6004Y4.5197
X0.6004Y4.4803
X0.6201Y4.1654
X0.6201Y3.9291
X0.6398Y4.6772
X0.6398Y4.6378
X0.6398Y4.5984
X0.6398Y4.5591
X0.6398Y4.5197
X0.6398Y4.4803
X0.6594Y4.1654
X0.6594Y3.9291
X0.6764Y5.1299
X0.6791Y4.6772
X0.6791Y4.5197
X0.6791Y4.4803
X0.6988Y4.1654
X0.6988Y4.126
X0.6988Y4.0866
X0.6988Y4.0472
X0.6988Y4.0079
X0.6988Y3.9685
X0.6988Y3.9291
X0.7103Y5.8377
X0.7103Y5.7589
X0.7185Y4.6772
X0.7185Y4.5197
X0.7185Y4.4803
X0.7382Y4.1654
X0.7382Y3.9291
X0.7496Y5.7983
X0.7579Y4.6772
X0.7579Y4.5197
X0.7579Y4.4803
X0.7642Y4.9309
X0.7642Y4.8915
X0.7642Y4.8521
X0.7776Y4.1654
X0.7776Y3.9291
X0.789Y5.8377
X0.789Y5.7589
X0.7972Y4.6772
X0.7972Y4.5197
X0.7972Y4.4803
X0.8169Y4.6378
X0.8169Y4.5984
X0.8169Y4.5591
X0.8169Y4.1654
X0.8169Y4.126
X0.8169Y3.9685
X0.8169Y3.9291
X0.8366Y4.6772
X0.8366Y4.5197
X0.8366Y4.4803
X0.8535Y5.8385
X0.8535Y5.7598
X0.8563Y4.6378
X0.8563Y4.1654
X0.8563Y4.126
X0.8563Y3.9685
X0.8563Y3.9291
X0.8635Y4.9534
X0.8635Y4.9141
X0.8635Y4.8747
X0.8654Y5.4468
X0.8654Y5.4074
X0.8654Y5.3681
X0.8654Y5.3287
X0.876Y4.6772
X0.876Y4.5197
X0.876Y4.4803
X0.8929Y5.7992
X0.9029Y4.9534
X0.9029Y4.9141
X0.9029Y4.8747
X0.9047Y5.4468
X0.9047Y5.4074
X0.9047Y5.3681
X0.9047Y5.3287
X0.9154Y4.6772
X0.9154Y4.5197
X0.9154Y4.4803
X0.9323Y5.8385
X0.9323Y5.7598
X0.935Y4.6378
X0.9423Y4.9534
X0.9423Y4.9141
X0.9423Y4.8747
X0.9441Y5.4468
X0.9441Y5.4074
X0.9441Y5.3681
X0.9441Y5.3287
X0.9547Y4.6772
X0.9547Y4.5197
X0.9547Y4.4803
X0.9744Y4.6378
X0.9744Y4.5984
X0.9744Y4.5591
X0.9941Y4.6772
X0.9941Y4.5197
X0.9941Y4.4803
X1.0138Y4.6378
X1.015Y5.0314
X1.015Y4.9921
X1.015Y4.9527
X1.0335Y4.6772
X1.0335Y4.5197
X1.0335Y4.4803
X1.0543Y5.0314
X1.0543Y4.9921
X1.0543Y4.9527
X1.0728Y4.6772
X1.0728Y4.5197
X1.0728Y4.4803
X1.0898Y5.8405
X1.0898Y5.7618
X1.0925Y4.6378
X1.0937Y5.0314
X1.0937Y4.9921
X1.0937Y4.9527
X1.1122Y4.6772
X1.1122Y4.5197
X1.1122Y4.4803
X1.1292Y5.8011
X1.1319Y4.6378
X1.1319Y4.5984
X1.1319Y4.5591
X1.1516Y4.6772
X1.1516Y4.5197
X1.1516Y4.4803
X1.1686Y5.8405
X1.1686Y5.7618
X1.1909Y4.6772
X1.1909Y4.5197
X1.1909Y4.4803
X1.2197Y5.622
X1.2197Y5.5433
X1.2197Y5.4646
X1.2303Y4.6772
X1.2303Y4.5197
X1.2303Y4.4803
X1.2579Y5.2736
X1.2579Y5.1949
X1.2579Y5.1161
X1.2579Y5.0374
X1.2579Y4.9587
X1.2591Y5.5827
X1.2591Y5.5039
X1.2697Y4.5197
X1.2697Y4.4803
X1.2894Y5.8878
X1.2894Y5.8484
X1.2894Y5.8091
X1.2894Y5.7697
X1.2894Y5.7303
X1.2984Y5.622
X1.2984Y5.5433
X1.2984Y5.4646
X1.3287Y5.8878
X1.3287Y5.8484
X1.3287Y5.8091
X1.3287Y5.7697
X1.3287Y5.7303
X1.3366Y5.2736
X1.3366Y5.1949
X1.3366Y5.1161
X1.3366Y5.0374
X1.3366Y4.9587
X1.3378Y5.5827
X1.3378Y5.5039
X1.3681Y5.8878
X1.3681Y5.8484
X1.3681Y5.8091
X1.3681Y5.7697
X1.3681Y5.7303
X1.4075Y4.3228
X1.4075Y4.2441
X1.4075Y4.1654
X1.4075Y4.0866
X1.4862Y4.5197
X1.4862Y4.3228
X1.4862Y4.2441
X1.4862Y4.1654
X1.4862Y4.0866
X1.4862Y4.0079
X1.565Y4.3228
X1.565Y4.2441
X1.565Y4.1654
X1.565Y4.0866
X1.565Y4.0079
X1.6305Y5.3758
X1.6317Y5.2114
X1.6437Y4.4409
X1.6437Y4.2441
X1.6437Y4.1654
X1.6437Y4.0866
X1.6437Y4.0079
X1.7224Y4.4409
X1.7224Y4.1654
X1.7224Y4.0866
X1.7224Y4.0079
X1.8012Y4.1654
X1.8012Y4.0866
X1.8012Y4.0079
X1.8307Y5.8976
X1.8307Y5.8583
X1.8307Y5.8189
X1.8406Y5.5039
X1.8406Y5.3858
X1.8701Y5.8976
X1.8701Y5.8583
X1.8701Y5.8189
X1.8799Y4.0079
X1.9094Y5.8976
X1.9094Y5.8583
X1.9094Y5.8189
X1.9488Y5.8976
X1.9488Y5.8583
X1.9488Y5.8189
X1.9587Y4.0866
X1.9882Y5.8976
X1.9882Y5.8583
X1.9882Y5.8189
X2.0374Y4.0866
X2.0374Y4.0079
X2.0768Y5.5039
X2.0768Y5.4252
X2.1161Y4.0866
X2.1161Y4.0079
X2.262Y5.3699
X2.262Y5.215
X2.2736Y4.2441
X2.2736Y4.1654
X2.2736Y4.0866
X2.2736Y4.0079
X2.3524Y4.5197
X2.3524Y4.2441
X2.3524Y4.1654
X2.3524Y4.0866
X2.3524Y4.0079
X2.4311Y4.3228
X2.4311Y4.2441
X2.4311Y4.1654
X2.4311Y4.0866
X2.4311Y4.0079
X2.4705Y5.5039
X2.4705Y5.3858
X2.4803Y5.8976
X2.4803Y5.8583
X2.4803Y5.8189
X2.5098Y4.3228
X2.5098Y4.2441
X2.5098Y4.1654
X2.5098Y4.0866
X2.5098Y4.0079
X2.5197Y5.8976
X2.5197Y5.8583
X2.5197Y5.8189
X2.5591Y5.8976
X2.5591Y5.8583
X2.5591Y5.8189
X2.5886Y5.0807
X2.5886Y5.0413
X2.5886Y5.002
X2.5886Y4.9626
X2.5886Y4.9232
X2.5886Y4.8839
X2.5886Y4.8445
X2.5886Y4.8051
X2.5886Y4.7657
X2.5886Y4.7264
X2.5886Y4.687
X2.5886Y4.6378
X2.5886Y4.3228
X2.5886Y4.2441
X2.5886Y4.1654
X2.5886Y4.0866
X2.5886Y4.0079
X2.5984Y5.8976
X2.5984Y5.8583
X2.5984Y5.8189
X2.628Y5.0807
X2.628Y5.0413
X2.628Y5.002
X2.628Y4.9626
X2.628Y4.9232
X2.628Y4.8839
X2.628Y4.8445
X2.628Y4.8051
X2.628Y4.7657
X2.628Y4.7264
X2.628Y4.687
X2.6349Y4.5225
X2.6378Y5.8976
X2.6378Y5.8583
X2.6378Y5.8189
X2.6673Y5.5039
X2.6673Y5.3858
X2.6673Y4.3228
X2.6673Y4.2441
X2.6673Y4.1654
X2.6673Y4.0866
X2.6673Y4.0079
X2.7461Y4.2441
X2.7461Y4.1654
X2.7461Y4.0866
X2.7461Y4.0079
X2.7854Y4.6378
X2.8248Y4.1654
X2.8248Y4.0866
X2.8248Y4.0079
X2.8899Y5.2185
X2.8911Y5.3794
X2.9035Y4.2441
X2.9035Y4.0866
X2.9035Y4.0079
X2.9823Y4.6378
X2.9823Y4.0079
X3.061Y4.0079
X3.0906Y5.8976
X3.0906Y5.8583
X3.0906Y5.8189
X3.1004Y5.5039
X3.1004Y5.3858
X3.1299Y5.8976
X3.1299Y5.8583
X3.1299Y5.8189
X3.1398Y4.0079
X3.1693Y5.8976
X3.1693Y5.8583
X3.1693Y5.8189
X3.2087Y5.8976
X3.2087Y5.8583
X3.2087Y5.8189
X3.2087Y5.0512
X3.2087Y5.0118
X3.2087Y4.9724
X3.2087Y4.9331
X3.2087Y4.8937
X3.2087Y4.8543
X3.2087Y4.815
X3.2087Y4.7756
X3.2087Y4.7362
X3.2087Y4.6969
X3.2087Y4.6575
X3.248Y5.8976
X3.248Y5.8583
X3.248Y5.8189
X3.248Y5.0512
X3.248Y5.0118
X3.248Y4.9724
X3.248Y4.9331
X3.248Y4.8937
X3.248Y4.8543
X3.248Y4.815
X3.248Y4.7756
X3.248Y4.7362
X3.248Y4.6969
X3.248Y4.6575
X3.2579Y4.0079
X3.3366Y5.5039
X3.3366Y5.3858
X3.3366Y4.0079
X3.376Y4.6378
X3.5203Y5.3687
X3.5203Y5.2138
X3.5728Y4.2047
X3.6516Y4.4803
X3.6713Y4.6378
X3.6909Y5.5039
X3.6909Y4.2047
X3.7303Y5.3858
X3.75Y5.8976
X3.75Y5.8583
X3.75Y5.8189
X3.7894Y5.8976
X3.7894Y5.8583
X3.7894Y5.8189
X3.8287Y5.8976
X3.8287Y5.8583
X3.8287Y5.8189
X3.8386Y5.0709
X3.8386Y5.0315
X3.8386Y4.9921
X3.8386Y4.9528
X3.8386Y4.9134
X3.8386Y4.874
X3.8386Y4.8346
X3.8386Y4.7953
X3.8386Y4.7559
X3.8386Y4.7165
X3.8386Y4.6772
X3.8484Y4.5197
X3.8484Y4.4409
X3.8681Y5.8976
X3.8681Y5.8583
X3.8681Y5.8189
X3.8681Y4.6378
X3.878Y5.0709
X3.878Y5.0315
X3.878Y4.9921
X3.878Y4.9528
X3.878Y4.9134
X3.878Y4.874
X3.878Y4.8346
X3.878Y4.7953
X3.878Y4.7559
X3.878Y4.7165
X3.878Y4.6772
X3.9075Y5.8976
X3.9075Y5.8583
X3.9075Y5.8189
X3.9665Y5.5039
X3.9665Y5.3858
X4.0846Y4.0079
X4.1634Y5.4252
X4.1634Y5.3465
X4.1634Y5.2677
X4.1634Y5.2283
X4.1634Y5.189
X4.1634Y5.1496
X4.1634Y4.2441
X4.1634Y4.0866
X4.2028Y4.4016
X4.2028Y4.0079
X4.2421Y4.2835
X4.2815Y4.126
X4.3209Y4.4016
X4.3602Y5.5039
X4.3602Y5.3858
X4.3799Y5.8976
X4.3799Y5.8583
X4.3799Y5.8189
X4.4193Y5.8976
X4.4193Y5.8583
X4.4193Y5.8189
X4.4587Y5.8976
X4.4587Y5.8583
X4.4587Y5.8189
X4.4685Y5.0413
X4.4685Y5.002
X4.4685Y4.9626
X4.4685Y4.9232
X4.4685Y4.8839
X4.4685Y4.8445
X4.4685Y4.8051
X4.4685Y4.7657
X4.4685Y4.7264
X4.4685Y4.687
X4.4685Y4.6476
X4.498Y5.8976
X4.498Y5.8583
X4.498Y5.8189
X4.5079Y5.0413
X4.5079Y5.002
X4.5079Y4.9626
X4.5079Y4.9232
X4.5079Y4.8839
X4.5079Y4.8445
X4.5079Y4.8051
X4.5079Y4.7657
X4.5079Y4.7264
X4.5079Y4.687
X4.5079Y4.6476
X4.5374Y5.8976
X4.5374Y5.8583
X4.5374Y5.8189
X4.5965Y5.5039
X4.5965Y5.3858
X4.7933Y5.3465
X4.7933Y5.2283
X4.7933Y5.1496
X4.7933Y4.4016
X4.872Y4.4016
X4.872Y4.2441
X4.872Y4.1654
X4.9114Y4.4803
X4.9508Y4.2441
X4.9508Y4.1654
X4.9902Y5.5039
X4.9902Y5.3858
X5.0098Y5.8976
X5.0098Y5.8583
X5.0098Y5.8189
X5.0295Y4.3228
X5.0492Y5.8976
X5.0492Y5.8583
X5.0492Y5.8189
X5.0845Y5.3677
X5.0886Y5.8976
X5.0886Y5.8583
X5.0886Y5.8189
X5.1083Y4.3228
X5.1083Y4.1654
X5.128Y5.8976
X5.128Y5.8583
X5.128Y5.8189
X5.1673Y5.8976
X5.1673Y5.8583
X5.1673Y5.8189
X5.187Y4.1654
X5.2199Y4.2443
X5.2253Y5.3586
X5.2264Y5.5039
X5.2657Y4.1654
X5.3839Y4.4016
X5.4232Y5.3858
X5.4232Y5.2283
X5.4232Y5.1496
X5.4626Y4.4016
X5.4957Y4.189
X5.5413Y4.4016
X5.5413Y4.2835
X5.5413Y2.0787
X5.5413Y2.0
X5.5413Y1.9213
X5.5413Y1.8425
X5.5413Y1.7638
X5.5413Y1.685
X5.5413Y1.6063
X5.5413Y1.5276
X5.5413Y1.4488
X5.5413Y1.3701
X5.5413Y1.2913
X5.5413Y1.2126
X5.5413Y1.1339
X5.5413Y1.0551
X5.5413Y0.9764
X5.5413Y0.8976
X5.5413Y0.8189
X5.5413Y0.7402
X5.5413Y0.6614
X5.5413Y0.5827
X5.5413Y0.5039
X5.5413Y0.4252
X5.6201Y4.1654
X5.6201Y2.0
X5.6201Y1.9213
X5.6201Y1.8425
X5.6201Y1.7638
X5.6201Y1.685
X5.6201Y1.6063
X5.6201Y1.5276
X5.6201Y1.4488
X5.6201Y1.3701
X5.6201Y1.2913
X5.6201Y1.2126
X5.6201Y1.1339
X5.6201Y1.0551
X5.6201Y0.9764
X5.6201Y0.8976
X5.6201Y0.8189
X5.6201Y0.7402
X5.6201Y0.6614
X5.6201Y0.5827
X5.6201Y0.5039
X5.6201Y0.4252
X5.6285Y5.4547
X5.6327Y5.3716
X5.6496Y5.8976
X5.6496Y5.8583
X5.6496Y5.8189
X5.6814Y2.7306
X5.6826Y2.6349
X5.6826Y2.5509
X5.689Y5.8976
X5.689Y5.8583
X5.689Y5.8189
X5.6897Y2.3049
X5.6988Y1.9213
X5.6988Y1.8425
X5.6988Y1.7638
X5.6988Y1.685
X5.6988Y1.6063
X5.6988Y1.5276
X5.6988Y1.4488
X5.6988Y1.3701
X5.6988Y1.2913
X5.6988Y1.2126
X5.6988Y1.1339
X5.6988Y1.0551
X5.6988Y0.9764
X5.6988Y0.8976
X5.6988Y0.8189
X5.6988Y0.7402
X5.6988Y0.6614
X5.6988Y0.5827
X5.6988Y0.5039
X5.6988Y0.4252
X5.7283Y5.8976
X5.7283Y5.8583
X5.7283Y5.8189
X5.7382Y2.2362
X5.7677Y5.8976
X5.7677Y5.8583
X5.7677Y5.8189
X5.7776Y1.9213
X5.7776Y1.8425
X5.7776Y1.7638
X5.7776Y1.685
X5.7776Y1.6063
X5.7776Y1.5276
X5.7776Y1.4488
X5.7776Y1.3701
X5.7776Y1.2913
X5.7776Y1.2126
X5.7776Y1.1339
X5.7776Y1.0551
X5.7776Y0.9764
X5.7776Y0.8976
X5.7776Y0.5827
X5.7776Y0.5039
X5.7776Y0.4252
X5.7776Y0.3465
X5.7776Y0.2677
X5.7776Y0.189
X5.8071Y5.8976
X5.8071Y5.8583
X5.8071Y5.8189
X5.8563Y5.5039
X5.8563Y5.3858
X5.8563Y2.6299
X5.8563Y2.5512
X5.8563Y2.4724
X5.8563Y1.9213
X5.8563Y1.8425
X5.8563Y1.7638
X5.8563Y1.685
X5.8563Y1.6063
X5.8563Y1.5276
X5.8563Y1.4488
X5.8563Y1.3701
X5.8563Y1.2913
X5.8563Y1.2126
X5.8563Y1.1339
X5.8563Y1.0551
X5.8563Y0.9764
X5.8563Y0.8976
X5.8563Y0.5827
X5.8563Y0.5039
X5.8563Y0.4252
X5.8563Y0.3465
X5.8563Y0.2677
X5.8563Y0.189
X5.935Y4.6378
X5.935Y2.5512
X5.935Y2.4724
X5.935Y2.315
X5.935Y1.9213
X5.935Y1.8425
X5.935Y1.7638
X5.935Y1.685
X5.935Y1.6063
X5.935Y1.5276
X5.935Y1.4488
X5.935Y1.3701
X5.935Y1.2913
X5.935Y1.2126
X5.935Y1.1339
X5.935Y1.0551
X5.935Y0.9764
X5.935Y0.8976
X5.9941Y5.7992
X6.0138Y2.4724
X6.0138Y2.315
X6.0138Y2.2362
X6.0138Y1.9213
X6.0138Y1.8425
X6.0138Y1.7638
X6.0138Y1.685
X6.0138Y1.6063
X6.0138Y1.5276
X6.0138Y1.4488
X6.0138Y1.3701
X6.0138Y1.2913
X6.0138Y1.2126
X6.0138Y1.1339
X6.0138Y1.0551
X6.0138Y0.9764
X6.0138Y0.8976
X6.0531Y5.3858
X6.0531Y5.2283
X6.0531Y4.4016
X6.0555Y4.8202
X6.0925Y2.315
X6.0925Y2.2362
X6.0925Y1.6063
X6.0925Y1.5276
X6.0925Y1.4488
X6.0925Y1.3701
X6.0925Y1.2913
X6.0925Y1.1339
X6.0925Y1.0551
X6.0925Y0.9764
X6.1319Y4.4016
X6.1713Y4.6378
X6.1713Y4.4409
X6.1713Y2.315
X6.1713Y2.2362
X6.1713Y1.5276
X6.1713Y1.4488
X6.1713Y1.3701
X6.1713Y1.2913
X6.25Y5.8386
X6.25Y5.7992
X6.25Y5.7598
X6.25Y5.7205
X6.25Y5.6811
X6.25Y5.6417
X6.25Y2.315
X6.25Y2.2362
X6.25Y1.5276
X6.25Y1.4488
X6.25Y1.3701
X6.25Y1.2913
X6.2894Y5.8386
X6.2894Y5.7992
X6.2894Y5.7598
X6.2894Y5.7205
X6.2894Y5.6811
X6.2894Y5.6417
X6.2894Y4.2441
X6.2894Y4.1654
X6.2894Y4.0866
X6.2894Y4.0079
X6.2894Y3.811
X6.2894Y2.0
X6.2894Y1.9213
X6.2894Y1.8425
X6.2894Y1.7638
X6.3287Y3.8504
X6.3287Y3.7717
X6.3287Y3.5748
X6.3287Y3.4961
X6.3287Y3.4173
X6.3287Y3.2992
X6.3287Y2.2362
X6.3287Y1.5276
X6.3287Y1.4488
X6.3287Y1.3701
X6.3681Y4.126
X6.3681Y4.0472
X6.3681Y3.8898
X6.3681Y3.811
X6.3681Y2.0
X6.3681Y1.9213
X6.3681Y1.8425
X6.3681Y1.7638
X6.3878Y4.6014
X6.3878Y4.5591
X6.3878Y4.5197
X6.4075Y3.5748
X6.4075Y3.2598
X6.4075Y1.5276
X6.4075Y1.4488
X6.4075Y0.9764
X6.4075Y0.8976
X6.4469Y2.0
X6.4469Y1.9213
X6.4469Y1.8425
X6.4469Y1.7638
X6.4862Y4.3228
X6.4862Y4.2441
X6.4862Y4.1654
X6.4862Y4.0866
X6.5256Y2.5118
X6.5256Y2.4331
X6.5256Y2.3543
X6.5256Y2.0
X6.5256Y1.9213
X6.5256Y1.8425
X6.5256Y1.7638
X6.565Y1.0551
X6.565Y0.9764
X6.565Y0.8976
X6.6043Y2.5118
X6.6043Y2.4331
X6.6043Y2.3543
X6.6043Y2.0
X6.6043Y1.9213
X6.6043Y1.8425
X6.6043Y1.7638
X6.6043Y1.685
X6.6437Y1.1339
X6.6437Y1.0551
X6.6437Y0.9764
X6.6437Y0.8976
X6.6437Y0.5039
X6.6437Y0.4252
X6.6437Y0.3465
X6.6437Y0.2677
X6.6437Y0.189
X6.6634Y4.5984
X6.6634Y4.5591
X6.6634Y4.5197
X6.6831Y2.5118
X6.6831Y2.4331
X6.6831Y2.3543
X6.6831Y2.0
X6.6831Y1.9213
X6.6831Y1.8425
X6.6831Y1.7638
X6.6831Y1.685
X6.6831Y1.6063
X6.7224Y2.7087
X6.7224Y1.1339
X6.7224Y1.0551
X6.7224Y0.9764
X6.7224Y0.8976
X6.7224Y0.8189
X6.7224Y0.5039
X6.7224Y0.4252
X6.7224Y0.3465
X6.7436Y4.3627
X6.7436Y4.2822
X6.7618Y2.0
X6.7618Y1.9213
X6.7618Y1.8425
X6.7618Y1.7638
X6.7618Y1.685
X6.7618Y1.6063
X6.765Y3.3585
X6.8012Y2.7087
X6.8012Y2.4724
X6.8012Y2.3937
X6.8012Y2.315
X6.8012Y1.1339
X6.8012Y1.0551
X6.8012Y0.9764
X6.8012Y0.8976
X6.8012Y0.8189
X6.8012Y0.7402
X6.8012Y0.6614
X6.8012Y0.5827
X6.8012Y0.5039
X6.8012Y0.4252
X6.8012Y0.3465
X6.8406Y2.0
X6.8406Y1.9213
X6.8406Y1.8425
X6.8406Y1.7638
X6.8406Y1.685
X6.8406Y1.6063
X6.8799Y4.3622
X6.8799Y4.2835
X6.8799Y4.2047
X6.8799Y4.126
X6.8799Y4.0472
X6.8799Y2.7087
X6.8799Y2.4724
X6.8799Y2.3937
X6.8799Y2.315
X6.9193Y3.5748
X6.9193Y3.4961
X6.9193Y3.4173
X6.9193Y3.3386
X6.9193Y2.0
X6.9193Y1.9213
X6.9193Y1.8425
X6.9193Y1.7638
X6.9979Y3.1008
X6.998Y4.5787
X6.998Y4.5394
X6.998Y4.5
X6.998Y4.2835
X6.998Y4.2047
X6.998Y4.126
X6.998Y4.0472
X6.998Y3.9685
X6.998Y3.8898
X6.998Y3.5748
X6.998Y3.4961
X6.998Y3.4173
X6.998Y3.3386
X6.998Y3.2598
X6.998Y3.0236
X6.998Y2.9449
X6.998Y2.7087
X6.998Y2.0
X6.998Y1.9213
X6.998Y1.8425
X6.998Y1.7638
X7.0374Y0.8189
X7.0374Y0.7402
X7.0374Y0.6614
X7.0374Y0.5827
X7.0768Y4.4409
X7.0768Y3.4961
X7.0768Y3.4173
X7.0768Y3.3386
X7.0768Y3.2598
X7.0768Y3.1811
X7.0768Y1.0551
X7.0768Y0.9764
X7.1555Y4.3622
X7.1555Y3.5748
X7.1555Y3.4173
X7.1555Y3.3386
X7.1555Y3.2598
X7.1555Y3.1811
X7.1555Y3.1024
X7.1555Y3.0236
X7.1555Y2.9449
X7.1555Y2.8661
X7.1555Y2.7874
X7.1555Y2.7087
X7.1555Y2.5118
X7.1555Y2.4331
X7.1555Y1.0551
X7.1555Y0.9764
X7.1555Y0.8976
X7.1555Y0.8189
X7.1555Y0.7402
X7.1555Y0.6614
X7.2343Y2.5118
X7.2343Y2.4331
X7.2343Y1.0551
X7.2343Y0.9764
X7.2343Y0.8976
X7.2343Y0.8189
X7.2343Y0.7402
X7.2343Y0.6614
X7.2343Y0.5827
X7.2736Y4.5197
X7.2736Y4.4409
X7.2736Y4.3622
X7.2736Y4.2835
X7.313Y3.7323
X7.313Y3.5748
X7.313Y3.4961
X7.313Y3.4173
X7.313Y3.3386
X7.313Y3.2598
X7.313Y3.1811
X7.313Y3.1024
X7.313Y3.0236
X7.313Y2.9449
X7.313Y2.8661
X7.313Y2.7874
X7.313Y2.7087
X7.313Y2.5118
X7.313Y2.4331
X7.313Y1.0551
X7.313Y0.9764
X7.313Y0.8976
X7.313Y0.8189
X7.313Y0.7402
X7.313Y0.6614
X7.313Y0.5827
X7.3524Y4.5197
X7.3524Y4.4409
X7.3524Y2.0
X7.3524Y1.9213
X7.3524Y1.8425
X7.3524Y1.7638
X7.3654Y4.8942
X7.3917Y3.7323
X7.3917Y3.5748
X7.3917Y3.4961
X7.3917Y3.4173
X7.3917Y3.3386
X7.3917Y3.2598
X7.3917Y3.1811
X7.3917Y3.1024
X7.3917Y3.0236
X7.3917Y2.9449
X7.3917Y2.8661
X7.3917Y2.7874
X7.3917Y2.7087
X7.3917Y2.4331
X7.3917Y2.3543
X7.3917Y2.2756
X7.3917Y2.1969
X7.3917Y1.0551
X7.3917Y0.9764
X7.3917Y0.8976
X7.3917Y0.8189
X7.3917Y0.7402
X7.3917Y0.6614
X7.3917Y0.5827
X7.3917Y0.5039
X7.3971Y4.8946
X7.4311Y4.5197
X7.4311Y2.5118
X7.4705Y3.7323
X7.4705Y3.5748
X7.4705Y3.4961
X7.4705Y3.4173
X7.4705Y3.3386
X7.4705Y3.2598
X7.4705Y3.1811
X7.4705Y3.1024
X7.4705Y3.0236
X7.4705Y2.9449
X7.4705Y2.8661
X7.4705Y2.7874
X7.4705Y2.7087
X7.4705Y1.1339
X7.4705Y1.0551
X7.4705Y0.9764
X7.4705Y0.8976
X7.4705Y0.8189
X7.4705Y0.7402
X7.4705Y0.6614
X7.4705Y0.5827
X7.4705Y0.5039
X7.5492Y4.3622
X7.5492Y4.2835
X7.5492Y4.2047
X7.5492Y4.126
X7.5492Y3.5748
X7.5492Y3.4961
X7.5492Y3.4173
X7.5492Y3.3386
X7.5492Y3.2598
X7.5492Y3.1811
X7.5492Y3.1024
X7.5492Y3.0236
X7.5492Y2.9449
X7.5492Y2.8661
X7.5492Y2.7874
X7.5492Y2.7087
X7.5492Y1.1339
X7.5492Y1.0551
X7.5492Y0.9764
X7.5492Y0.8976
X7.5492Y0.8189
X7.5492Y0.7402
X7.5492Y0.6614
X7.5492Y0.5827
X7.5492Y0.5039
X7.5492Y0.4252
X7.5492Y0.3465
X7.5492Y0.2677
X7.5885Y2.2118
X7.5886Y2.5118
X7.5886Y2.4331
X7.5886Y2.3543
X7.5886Y1.9606
X7.5886Y1.8819
X7.5886Y1.8031
X7.628Y4.5787
X7.628Y4.5394
X7.628Y4.5
X7.628Y4.4409
X7.628Y4.3622
X7.628Y4.2835
X7.628Y4.2047
X7.628Y3.5748
X7.628Y3.4961
X7.628Y3.4173
X7.628Y3.3386
X7.628Y3.2598
X7.628Y3.1811
X7.628Y3.1024
X7.628Y1.2126
X7.628Y1.1339
X7.628Y1.0551
X7.628Y0.9764
X7.628Y0.8976
X7.628Y0.8189
X7.628Y0.7402
X7.628Y0.6614
X7.628Y0.5827
X7.628Y0.5039
X7.628Y0.4252
X7.628Y0.3465
X7.628Y0.2677
X7.628Y0.189
X7.6673Y4.126
X7.7067Y4.4409
X7.7067Y4.3622
X7.7067Y4.2835
X7.7067Y3.6535
X7.7067Y3.5748
X7.7067Y3.4961
X7.7067Y3.4173
X7.7067Y3.3386
X7.7067Y3.2598
X7.7067Y3.1811
X7.7067Y3.1024
X7.7067Y3.0236
X7.7067Y2.9449
X7.7067Y2.8661
X7.7067Y2.7874
X7.7067Y2.7087
X7.7067Y2.6299
X7.7067Y2.5512
X7.7067Y2.4724
X7.7067Y2.3937
X7.7067Y2.315
X7.7067Y2.2362
X7.7067Y2.1575
X7.7067Y2.0787
X7.7067Y2.0
X7.7067Y1.9213
X7.7067Y1.8425
X7.7067Y1.7638
X7.7067Y1.2126
X7.7067Y1.1339
X7.7067Y1.0551
X7.7067Y0.9764
X7.7067Y0.8976
X7.7067Y0.8189
X7.7067Y0.7402
X7.7067Y0.6614
X7.7067Y0.5827
X7.7067Y0.5039
X7.7067Y0.4252
X7.7067Y0.3465
X7.7067Y0.2677
X7.7067Y0.189
X7.7831Y4.205
X7.7831Y3.7325
X7.7854Y4.4409
X7.7854Y4.3622
X7.7854Y4.126
X7.7854Y4.0472
X7.7854Y3.9685
X7.7854Y3.8898
X7.7854Y3.811
X7.7854Y3.6535
X7.7854Y3.5748
X7.7854Y3.4961
X7.7854Y3.4173
X7.7854Y3.3386
X7.7854Y3.2598
X7.7854Y3.1811
X7.7854Y3.1024
X7.7854Y3.0236
X7.7854Y2.9449
X7.7854Y2.8661
X7.7854Y2.7874
X7.7854Y2.7087
X7.7854Y2.6299
X7.7854Y2.5512
X7.7854Y2.4724
X7.7854Y2.3937
X7.7854Y2.315
X7.7854Y2.2362
X7.7854Y2.1575
X7.7854Y2.0787
X7.7854Y2.0
X7.7854Y1.9213
X7.7854Y1.8425
X7.7854Y1.7638
X7.7854Y1.685
X7.7854Y1.6063
X7.7854Y1.5276
X7.7854Y1.2913
X7.7854Y1.2126
X7.7854Y1.1339
X7.7854Y1.0551
X7.7854Y0.9764
X7.7854Y0.8976
X7.7854Y0.8189
X7.7854Y0.7402
X7.7854Y0.6614
X7.7854Y0.5827
X7.7854Y0.5039
X7.7854Y0.4252
X7.8248Y5.189
X7.8248Y5.1102
X7.8248Y5.0315
X7.8248Y4.9528
X7.8248Y4.874
X7.8642Y4.2835
X7.8642Y4.2047
X7.8642Y4.126
X7.8642Y4.0472
X7.8642Y3.9685
X7.8642Y3.8898
X7.8642Y3.811
X7.8642Y3.7323
X7.8642Y3.6535
X7.8642Y3.5748
X7.8642Y3.4961
X7.8642Y3.4173
X7.8642Y3.3386
X7.8642Y3.2598
X7.8642Y3.1811
X7.8642Y3.1024
X7.8642Y3.0236
X7.8642Y2.9449
X7.8642Y2.8661
X7.8642Y2.7874
X7.8642Y2.7087
X7.8642Y2.6299
X7.8642Y2.5512
X7.8642Y2.4724
X7.8642Y2.3937
X7.8642Y2.315
X7.8642Y2.2362
X7.8642Y2.1575
X7.8642Y2.0787
X7.8642Y2.0
X7.8642Y1.9213
X7.8642Y1.8425
X7.8642Y1.7638
X7.8642Y1.685
X7.8642Y1.6063
X7.8642Y1.5276
X7.8642Y1.4488
X7.8642Y1.3701
X7.8642Y1.2913
X7.8642Y1.2126
X7.8642Y1.1339
X7.8642Y1.0551
X7.8642Y0.9764
X7.8642Y0.8976
X7.8642Y0.5039
X7.8642Y0.4252
X7.9035Y5.6614
X7.9035Y5.5827
X7.9035Y5.5039
X7.9035Y5.4252
X7.9035Y5.3465
X7.9035Y5.2677
X7.9035Y5.189
X7.9035Y5.1102
X7.9035Y5.0315
X7.9035Y4.9528
X7.9035Y4.874
X7.9035Y4.7953
X7.9035Y4.7165
X7.9035Y4.6378
X7.9035Y4.5591
X7.9035Y4.4803
X7.9035Y4.4016
T5
X1.8936Y4.3553
X1.8936Y4.3179
X1.8936Y4.2805
X1.8936Y4.2431
X1.931Y4.3553
X1.931Y4.3179
X1.931Y4.2805
X1.931Y4.2431
X1.9684Y4.3553
X1.9684Y4.3179
X1.9684Y4.2805
X1.9684Y4.2431
X2.0058Y4.3553
X2.0058Y4.3179
X2.0058Y4.2805
X2.0058Y4.2431
X3.1891Y4.3583
X3.1891Y4.3209
X3.1891Y4.2835
X3.1891Y4.2461
X3.2265Y4.3583
X3.2265Y4.3209
X3.2265Y4.2835
X3.2265Y4.2461
X3.2639Y4.3583
X3.2639Y4.3209
X3.2639Y4.2835
X3.2639Y4.2461
X3.3013Y4.3583
X3.3013Y4.3209
X3.3013Y4.2835
X3.3013Y4.2461
X3.8238Y4.199
X3.8238Y4.1596
X3.8632Y4.199
X3.8632Y4.1596
X3.9026Y4.199
X3.9026Y4.1596
X4.4592Y4.3535
X4.4592Y4.3161
X4.4592Y4.2787
X4.4592Y4.2413
X4.4966Y4.3535
X4.4966Y4.3161
X4.4966Y4.2787
X4.4966Y4.2413
X4.534Y4.3535
X4.534Y4.3161
X4.534Y4.2787
X4.534Y4.2413
X4.5714Y4.3535
X4.5714Y4.3161
X4.5714Y4.2787
X4.5714Y4.2413
X5.7239Y4.3514
X5.7239Y4.314
X5.7239Y4.2766
X5.7239Y4.2392
X5.7613Y4.3514
X5.7613Y4.314
X5.7613Y4.2766
X5.7613Y4.2392
X5.7987Y4.3514
X5.7987Y4.314
X5.7987Y4.2766
X5.7987Y4.2392
X5.8361Y4.3514
X5.8361Y4.314
X5.8361Y4.2766
X5.8361Y4.2392
X6.5399Y3.5591
X6.5399Y3.5217
X6.5399Y3.4843
X6.5399Y3.4469
X6.5773Y3.5591
X6.5773Y3.5217
X6.5773Y3.4843
X6.5773Y3.4469
X6.6147Y3.5591
X6.6147Y3.5217
X6.6147Y3.4843
X6.6147Y3.4469
X6.6521Y3.5591
X6.6521Y3.5217
X6.6521Y3.4843
X6.6521Y3.4469
T6
X0.1593Y5.8702
X0.1604Y3.9951
X0.187Y5.937
X0.187Y5.8034
X0.1881Y4.0619
X0.1881Y3.9283
X0.2538Y5.9647
X0.2538Y5.7757
X0.2549Y4.0896
X0.2549Y3.9006
X0.3206Y5.937
X0.3206Y5.8034
X0.3217Y4.0619
X0.3217Y3.9283
X0.3483Y5.8702
X0.3494Y3.9951
X5.4743Y0.2501
X5.502Y0.3169
X5.502Y0.1833
X5.5688Y0.3446
X5.5688Y0.1556
X5.6356Y0.3169
X5.6356Y0.1833
X5.6633Y0.2501
X7.8091Y5.8976
X7.8091Y0.2382
X7.8367Y5.9645
X7.8367Y5.8308
X7.8367Y0.305
X7.8367Y0.1714
X7.9035Y5.9921
X7.9035Y5.8031
X7.9035Y0.3327
X7.9035Y0.1437
X7.9704Y5.9645
X7.9704Y5.8308
X7.9704Y0.305
X7.9704Y0.1714
X7.998Y5.8976
X7.998Y0.2382
T8
X6.1594Y3.5512
X6.1594Y3.4252
X6.1594Y3.2992
X6.1606Y4.1811
X6.1606Y4.0551
X6.1606Y3.9291
X6.1606Y3.8031
X6.1606Y3.6772
X6.2094Y3.5512
X6.2094Y3.4252
X6.2094Y3.2992
X6.2106Y4.1811
X6.2106Y4.0551
X6.2106Y3.9291
X6.2106Y3.8031
X6.2106Y3.6772
T9
X1.5033Y5.4508
X1.5033Y5.372
X1.5033Y5.2933
X1.5033Y5.2145
X1.5033Y5.1358
X1.5033Y4.9783
X1.5033Y4.8996
X1.5033Y4.8208
X1.5033Y4.7421
X1.5821Y5.4901
X1.5821Y5.4114
X1.5821Y5.3326
X1.5821Y5.2539
X1.5821Y5.1752
X1.5821Y5.0964
X1.5821Y4.9389
X1.5821Y4.8602
X1.5821Y4.7815
X1.6805Y5.4901
X1.6805Y5.4114
X1.6805Y5.3326
X1.6805Y5.2539
X1.6805Y5.1752
X1.6805Y5.0964
X1.6805Y4.9389
X1.6805Y4.8602
X1.6805Y4.7815
X1.7592Y5.4508
X1.7592Y5.372
X1.7592Y5.2933
X1.7592Y5.2145
X1.7592Y5.1358
X1.7592Y4.9783
X1.7592Y4.8996
X1.7592Y4.8208
X1.7592Y4.7421
X2.1333Y5.4508
X2.1333Y5.372
X2.1333Y5.2933
X2.1333Y5.2145
X2.1333Y5.1358
X2.1333Y4.9783
X2.1333Y4.8996
X2.1333Y4.8208
X2.1333Y4.7421
X2.212Y5.4901
X2.212Y5.4114
X2.212Y5.3326
X2.212Y5.2539
X2.212Y5.1752
X2.212Y5.0964
X2.212Y4.9389
X2.212Y4.8602
X2.212Y4.7815
X2.3104Y5.4901
X2.3104Y5.4114
X2.3104Y5.3326
X2.3104Y5.2539
X2.3104Y5.1752
X2.3104Y5.0964
X2.3104Y4.9389
X2.3104Y4.8602
X2.3104Y4.7815
X2.3892Y5.4508
X2.3892Y5.372
X2.3892Y5.2933
X2.3892Y5.2145
X2.3892Y5.1358
X2.3892Y4.9783
X2.3892Y4.8996
X2.3892Y4.8208
X2.3892Y4.7421
X2.7632Y5.4508
X2.7632Y5.372
X2.7632Y5.2933
X2.7632Y5.2145
X2.7632Y5.1358
X2.7632Y4.9783
X2.7632Y4.8996
X2.7632Y4.8208
X2.7632Y4.7421
X2.8419Y5.4901
X2.8419Y5.4114
X2.8419Y5.3326
X2.8419Y5.2539
X2.8419Y5.1752
X2.8419Y5.0964
X2.8419Y4.9389
X2.8419Y4.8602
X2.8419Y4.7815
X2.9403Y5.4901
X2.9403Y5.4114
X2.9403Y5.3326
X2.9403Y5.2539
X2.9403Y5.1752
X2.9403Y5.0964
X2.9403Y4.9389
X2.9403Y4.8602
X2.9403Y4.7815
X3.0191Y5.4508
X3.0191Y5.372
X3.0191Y5.2933
X3.0191Y5.2145
X3.0191Y5.1358
X3.0191Y4.9783
X3.0191Y4.8996
X3.0191Y4.8208
X3.0191Y4.7421
X3.3935Y5.4508
X3.3935Y5.372
X3.3935Y5.2933
X3.3935Y5.2145
X3.3935Y5.1358
X3.3935Y4.9783
X3.3935Y4.8996
X3.3935Y4.8208
X3.3935Y4.7421
X3.4722Y5.4901
X3.4722Y5.4114
X3.4722Y5.3326
X3.4722Y5.2539
X3.4722Y5.1752
X3.4722Y5.0964
X3.4722Y4.9389
X3.4722Y4.8602
X3.4722Y4.7815
X3.5707Y5.4901
X3.5707Y5.4114
X3.5707Y5.3326
X3.5707Y5.2539
X3.5707Y5.1752
X3.5707Y5.0964
X3.5707Y4.9389
X3.5707Y4.8602
X3.5707Y4.7815
X3.6494Y5.4508
X3.6494Y5.372
X3.6494Y5.2933
X3.6494Y5.2145
X3.6494Y5.1358
X3.6494Y4.9783
X3.6494Y4.8996
X3.6494Y4.8208
X3.6494Y4.7421
X4.0349Y5.4512
X4.0349Y5.3724
X4.0349Y5.2937
X4.0349Y5.215
X4.0349Y5.1362
X4.0349Y4.9787
X4.0349Y4.9
X4.0349Y4.8213
X4.0349Y4.7425
X4.1137Y5.4906
X4.1137Y5.4118
X4.1137Y5.3331
X4.1137Y5.2543
X4.1137Y5.1756
X4.1137Y5.0969
X4.1137Y4.9394
X4.1137Y4.8606
X4.1137Y4.7819
X4.2121Y5.4906
X4.2121Y5.4118
X4.2121Y5.3331
X4.2121Y5.2543
X4.2121Y5.1756
X4.2121Y5.0969
X4.2121Y4.9394
X4.2121Y4.8606
X4.2121Y4.7819
X4.2908Y5.4512
X4.2908Y5.3724
X4.2908Y5.2937
X4.2908Y5.215
X4.2908Y5.1362
X4.2908Y4.9787
X4.2908Y4.9
X4.2908Y4.8213
X4.2908Y4.7425
X4.6649Y5.4512
X4.6649Y5.3724
X4.6649Y5.2937
X4.6649Y5.215
X4.6649Y5.1362
X4.6649Y4.9787
X4.6649Y4.9
X4.6649Y4.8213
X4.6649Y4.7425
X4.7436Y5.4906
X4.7436Y5.4118
X4.7436Y5.3331
X4.7436Y5.2543
X4.7436Y5.1756
X4.7436Y5.0969
X4.7436Y4.9394
X4.7436Y4.8606
X4.7436Y4.7819
X4.842Y5.4906
X4.842Y5.4118
X4.842Y5.3331
X4.842Y5.2543
X4.842Y5.1756
X4.842Y5.0969
X4.842Y4.9394
X4.842Y4.8606
X4.842Y4.7819
X4.9208Y5.4512
X4.9208Y5.3724
X4.9208Y5.2937
X4.9208Y5.215
X4.9208Y5.1362
X4.9208Y4.9787
X4.9208Y4.9
X4.9208Y4.8213
X4.9208Y4.7425
X5.2948Y5.4512
X5.2948Y5.3724
X5.2948Y5.2937
X5.2948Y5.215
X5.2948Y5.1362
X5.2948Y4.9787
X5.2948Y4.9
X5.2948Y4.8213
X5.2948Y4.7425
X5.3735Y5.4906
X5.3735Y5.4118
X5.3735Y5.3331
X5.3735Y5.2543
X5.3735Y5.1756
X5.3735Y5.0969
X5.3735Y4.9394
X5.3735Y4.8606
X5.3735Y4.7819
X5.4719Y5.4906
X5.4719Y5.4118
X5.4719Y5.3331
X5.4719Y5.2543
X5.4719Y5.1756
X5.4719Y5.0969
X5.4719Y4.9394
X5.4719Y4.8606
X5.4719Y4.7819
X5.5507Y5.4512
X5.5507Y5.3724
X5.5507Y5.2937
X5.5507Y5.215
X5.5507Y5.1362
X5.5507Y4.9787
X5.5507Y4.9
X5.5507Y4.8213
X5.5507Y4.7425
X5.9247Y5.4512
X5.9247Y5.3724
X5.9247Y5.2937
X5.9247Y5.215
X5.9247Y5.1362
X5.9247Y4.9787
X5.9247Y4.9
X5.9247Y4.8213
X5.9247Y4.7425
X6.0034Y5.4906
X6.0034Y5.4118
X6.0034Y5.3331
X6.0034Y5.2543
X6.0034Y5.1756
X6.0034Y5.0969
X6.0034Y4.9394
X6.0034Y4.8606
X6.0034Y4.7819
X6.1019Y5.4906
X6.1019Y5.4118
X6.1019Y5.3331
X6.1019Y5.2543
X6.1019Y5.1756
X6.1019Y5.0969
X6.1019Y4.9394
X6.1019Y4.8606
X6.1019Y4.7819
X6.1806Y5.4512
X6.1806Y5.3724
X6.1806Y5.2937
X6.1806Y5.215
X6.1806Y5.1362
X6.1806Y4.9787
X6.1806Y4.9
X6.1806Y4.8213
X6.1806Y4.7425
T10
X6.0594Y0.6486
X6.1094Y0.7486
X6.1594Y0.6486
X6.2094Y0.7486
X6.2594Y0.6486
X6.3094Y0.7486
X6.3594Y0.6486
X6.4094Y0.7486
T11
X6.5059Y5.6614
X6.5059Y5.5583
X6.6043Y5.6614
X6.6043Y5.5583
X6.6831Y5.6614
X6.6831Y5.5583
X6.7815Y5.6614
X6.7815Y5.5583
X7.3157Y5.6614
X7.3157Y5.5583
X7.4142Y5.6614
X7.4142Y5.5583
X7.4929Y5.6614
X7.4929Y5.5583
X7.5913Y5.6614
X7.5913Y5.5583
T12
X5.9738Y0.2057
X6.0738Y0.2057
X6.3955Y0.2057
X6.4955Y0.2057
T13
X0.7323Y4.5886
X0.7323Y4.372
X0.8976Y4.5886
X0.8976Y4.372
X1.063Y4.5886
X1.063Y4.372
X1.2283Y4.5886
X1.2283Y4.372
T14
X0.628Y4.1063
X0.628Y4.0079
X0.7657Y4.1063
X0.7657Y4.0079
X0.9941Y4.1063
X0.9941Y4.0079
X1.1319Y4.1063
X1.1319Y4.0079
T15
X5.9297Y0.5187
X6.5396Y0.5187
T16
X6.385Y5.7681
X6.385Y5.5445
X6.9024Y5.7681
X6.9024Y5.5445
X7.1949Y5.7681
X7.1949Y5.5445
X7.7122Y5.7681
X7.7122Y5.5445
T17
X0.2538Y5.8702
X0.2549Y3.9951
X5.5688Y0.2501
X7.9035Y5.8976
X7.9035Y0.2382
T18
X7.3366Y4.6703
T7
G00X6.8969Y0.322
M15
G01X6.8969Y0.2787
M16
G05
G00X6.8969Y0.1476
M15
G01X6.8969Y0.124
M16
G05
G00X7.237Y0.322
M15
G01X7.237Y0.2787
M16
G05
G00X7.237Y0.1476
M15
G01X7.237Y0.124
M16
G05
M30
