M48
; DRILL file {KiCad 9.0.7} date 2026-02-17T10:47:16+0100
; FORMAT={-:-/ absolute / inch / decimal}
; #@! TF.CreationDate,2026-02-17T10:47:16+01:00
; #@! TF.GenerationSoftware,Kicad,Pcbnew,9.0.7
; #@! TF.FileFunction,NonPlated,1,6,NPTH
FMAT,2
INCH
; #@! TA.AperFunction,NonPlated,NPTH,ComponentDrill
T1C0.0256
; #@! TA.AperFunction,NonPlated,NPTH,ComponentDrill
T2C0.0453
; #@! TA.AperFunction,NonPlated,NPTH,ComponentDrill
T3C0.0650
; #@! TA.AperFunction,NonPlated,NPTH,ComponentDrill
T4C0.0925
; #@! TA.AperFunction,NonPlated,NPTH,ComponentDrill
T5C0.1280
%
G90
G05
T1
X11.2543Y-8.6878
X11.4819Y-8.6878
T2
X12.0295Y-7.4085
T3
X11.2421Y-7.4085
T4
X5.9325Y-3.937
X5.9325Y-4.2973
X5.9331Y-3.937
X5.9331Y-4.2972
X6.5624Y-3.937
X6.5624Y-4.2973
X6.563Y-3.937
X6.563Y-4.2972
X7.1919Y-3.937
X7.1919Y-4.2972
X7.1923Y-3.937
X7.1923Y-4.2973
X7.8226Y-3.937
X7.8226Y-4.2973
X7.8228Y-3.937
X7.8228Y-4.2972
X8.4641Y-3.9366
X8.4641Y-4.2968
X8.4646Y-3.937
X8.4646Y-4.2972
X9.0935Y-3.937
X9.0935Y-4.2972
X9.094Y-3.9366
X9.094Y-4.2968
X9.7234Y-3.937
X9.7234Y-4.2972
X9.7239Y-3.9366
X9.7239Y-4.2968
X10.3538Y-3.9366
X10.3538Y-4.2968
X10.3543Y-3.937
X10.3543Y-4.2972
T5
X10.3108Y-8.5699
X10.7608Y-8.5699
M30
