%TF.GenerationSoftware,KiCad,Pcbnew,9.0.7*%
%TF.CreationDate,2026-03-01T13:00:01+01:00*%
%TF.ProjectId,PDNode_Baseboard,50444e6f-6465-45f4-9261-7365626f6172,rev?*%
%TF.SameCoordinates,Original*%
%TF.FileFunction,Soldermask,Top*%
%TF.FilePolarity,Negative*%
%FSLAX46Y46*%
G04 Gerber Fmt 4.6, Leading zero omitted, Abs format (unit mm)*
G04 Created by KiCad (PCBNEW 9.0.7) date 2026-03-01 13:00:01*
%MOMM*%
%LPD*%
G01*
G04 APERTURE LIST*
G04 Aperture macros list*
%AMRoundRect*
0 Rectangle with rounded corners*
0 $1 Rounding radius*
0 $2 $3 $4 $5 $6 $7 $8 $9 X,Y pos of 4 corners*
0 Add a 4 corners polygon primitive as box body*
4,1,4,$2,$3,$4,$5,$6,$7,$8,$9,$2,$3,0*
0 Add four circle primitives for the rounded corners*
1,1,$1+$1,$2,$3*
1,1,$1+$1,$4,$5*
1,1,$1+$1,$6,$7*
1,1,$1+$1,$8,$9*
0 Add four rect primitives between the rounded corners*
20,1,$1+$1,$2,$3,$4,$5,0*
20,1,$1+$1,$4,$5,$6,$7,0*
20,1,$1+$1,$6,$7,$8,$9,0*
20,1,$1+$1,$8,$9,$2,$3,0*%
%AMFreePoly0*
4,1,15,0.140000,-0.355000,0.137310,-0.355000,0.137310,-0.369813,0.116406,-0.420280,0.077780,-0.458906,0.027313,-0.479810,-0.027313,-0.479810,-0.077780,-0.458906,-0.116406,-0.420280,-0.137310,-0.369813,-0.137310,-0.355000,-0.140000,-0.355000,-0.140000,0.355000,0.140000,0.355000,0.140000,-0.355000,0.140000,-0.355000,$1*%
%AMFreePoly1*
4,1,15,0.355000,0.137310,0.382313,0.137310,0.432780,0.116406,0.471406,0.077780,0.492310,0.027313,0.492310,-0.027313,0.471406,-0.077780,0.432780,-0.116406,0.382313,-0.137310,0.355000,-0.137310,0.355000,-0.140000,-0.355000,-0.140000,-0.355000,0.140000,0.355000,0.140000,0.355000,0.137310,0.355000,0.137310,$1*%
%AMFreePoly2*
4,1,15,0.355000,0.137310,0.369813,0.137310,0.420280,0.116406,0.458906,0.077780,0.479810,0.027313,0.479810,-0.027313,0.458906,-0.077780,0.420280,-0.116406,0.369813,-0.137310,0.355000,-0.137310,0.355000,-0.140000,-0.355000,-0.140000,-0.355000,0.140000,0.355000,0.140000,0.355000,0.137310,0.355000,0.137310,$1*%
%AMFreePoly3*
4,1,15,0.077780,0.458906,0.116406,0.420280,0.137310,0.369813,0.137310,0.355000,0.140000,0.355000,0.140000,-0.355000,-0.140000,-0.355000,-0.140000,0.355000,-0.137310,0.355000,-0.137310,0.369813,-0.116406,0.420280,-0.077780,0.458906,-0.027313,0.479810,0.027313,0.479810,0.077780,0.458906,0.077780,0.458906,$1*%
%AMFreePoly4*
4,1,15,0.355000,-0.140000,-0.355000,-0.140000,-0.355000,-0.137310,-0.369813,-0.137310,-0.420280,-0.116406,-0.458906,-0.077780,-0.479810,-0.027313,-0.479810,0.027313,-0.458906,0.077780,-0.420280,0.116406,-0.369813,0.137310,-0.355000,0.137310,-0.355000,0.140000,0.355000,0.140000,0.355000,-0.140000,0.355000,-0.140000,$1*%
G04 Aperture macros list end*
%ADD10C,0.010000*%
%ADD11C,1.026200*%
%ADD12RoundRect,0.075000X-0.437500X-0.075000X0.437500X-0.075000X0.437500X0.075000X-0.437500X0.075000X0*%
%ADD13RoundRect,0.075000X-0.075000X-0.437500X0.075000X-0.437500X0.075000X0.437500X-0.075000X0.437500X0*%
%ADD14R,4.250000X4.250000*%
%ADD15RoundRect,0.135000X-0.185000X0.135000X-0.185000X-0.135000X0.185000X-0.135000X0.185000X0.135000X0*%
%ADD16RoundRect,0.250000X-0.625000X0.312500X-0.625000X-0.312500X0.625000X-0.312500X0.625000X0.312500X0*%
%ADD17RoundRect,0.135000X-0.135000X-0.185000X0.135000X-0.185000X0.135000X0.185000X-0.135000X0.185000X0*%
%ADD18RoundRect,0.140000X-0.170000X0.140000X-0.170000X-0.140000X0.170000X-0.140000X0.170000X0.140000X0*%
%ADD19RoundRect,0.102000X-0.604000X0.604000X-0.604000X-0.604000X0.604000X-0.604000X0.604000X0.604000X0*%
%ADD20C,1.412000*%
%ADD21RoundRect,0.250000X-0.250000X-0.475000X0.250000X-0.475000X0.250000X0.475000X-0.250000X0.475000X0*%
%ADD22RoundRect,0.102000X-0.425000X-0.325000X0.425000X-0.325000X0.425000X0.325000X-0.425000X0.325000X0*%
%ADD23R,1.000000X1.000000*%
%ADD24C,1.000000*%
%ADD25RoundRect,0.250000X-0.475000X0.250000X-0.475000X-0.250000X0.475000X-0.250000X0.475000X0.250000X0*%
%ADD26RoundRect,0.135000X0.135000X0.185000X-0.135000X0.185000X-0.135000X-0.185000X0.135000X-0.185000X0*%
%ADD27RoundRect,0.135000X0.185000X-0.135000X0.185000X0.135000X-0.185000X0.135000X-0.185000X-0.135000X0*%
%ADD28RoundRect,0.100000X0.400000X0.100000X-0.400000X0.100000X-0.400000X-0.100000X0.400000X-0.100000X0*%
%ADD29RoundRect,0.250000X-0.550000X1.412500X-0.550000X-1.412500X0.550000X-1.412500X0.550000X1.412500X0*%
%ADD30R,0.800000X0.500000*%
%ADD31R,0.800000X0.400000*%
%ADD32RoundRect,0.102000X1.200000X1.450000X-1.200000X1.450000X-1.200000X-1.450000X1.200000X-1.450000X0*%
%ADD33RoundRect,0.102000X0.425000X0.325000X-0.425000X0.325000X-0.425000X-0.325000X0.425000X-0.325000X0*%
%ADD34RoundRect,0.250000X0.250000X0.475000X-0.250000X0.475000X-0.250000X-0.475000X0.250000X-0.475000X0*%
%ADD35RoundRect,0.050000X0.500000X-0.500000X0.500000X0.500000X-0.500000X0.500000X-0.500000X-0.500000X0*%
%ADD36RoundRect,0.050000X0.500000X-0.300000X0.500000X0.300000X-0.500000X0.300000X-0.500000X-0.300000X0*%
%ADD37RoundRect,0.102000X-0.175000X0.250000X-0.175000X-0.250000X0.175000X-0.250000X0.175000X0.250000X0*%
%ADD38R,1.000000X1.500000*%
%ADD39C,0.800000*%
%ADD40C,6.400000*%
%ADD41RoundRect,0.250000X0.650000X-0.325000X0.650000X0.325000X-0.650000X0.325000X-0.650000X-0.325000X0*%
%ADD42FreePoly0,270.000000*%
%ADD43FreePoly1,270.000000*%
%ADD44FreePoly2,270.000000*%
%ADD45FreePoly3,270.000000*%
%ADD46FreePoly4,270.000000*%
%ADD47R,4.100000X2.100000*%
%ADD48RoundRect,0.140000X0.170000X-0.140000X0.170000X0.140000X-0.170000X0.140000X-0.170000X-0.140000X0*%
%ADD49RoundRect,0.140000X-0.140000X-0.170000X0.140000X-0.170000X0.140000X0.170000X-0.140000X0.170000X0*%
%ADD50RoundRect,0.140000X0.140000X0.170000X-0.140000X0.170000X-0.140000X-0.170000X0.140000X-0.170000X0*%
%ADD51RoundRect,0.102000X1.335000X1.605000X-1.335000X1.605000X-1.335000X-1.605000X1.335000X-1.605000X0*%
%ADD52RoundRect,0.250000X0.625000X-0.312500X0.625000X0.312500X-0.625000X0.312500X-0.625000X-0.312500X0*%
%ADD53RoundRect,0.150000X0.150000X-0.512500X0.150000X0.512500X-0.150000X0.512500X-0.150000X-0.512500X0*%
%ADD54RoundRect,0.147500X-0.147500X-0.172500X0.147500X-0.172500X0.147500X0.172500X-0.147500X0.172500X0*%
%ADD55RoundRect,0.150000X-0.150000X-0.500000X0.150000X-0.500000X0.150000X0.500000X-0.150000X0.500000X0*%
%ADD56RoundRect,0.075000X-0.075000X-0.575000X0.075000X-0.575000X0.075000X0.575000X-0.075000X0.575000X0*%
%ADD57O,1.000000X2.100000*%
%ADD58O,1.000000X1.600000*%
%ADD59RoundRect,0.102000X0.699000X0.699000X-0.699000X0.699000X-0.699000X-0.699000X0.699000X-0.699000X0*%
%ADD60C,1.602000*%
%ADD61C,1.734000*%
%ADD62C,2.649000*%
%ADD63RoundRect,0.162500X-0.162500X0.337500X-0.162500X-0.337500X0.162500X-0.337500X0.162500X0.337500X0*%
%ADD64RoundRect,0.100000X-0.100000X0.400000X-0.100000X-0.400000X0.100000X-0.400000X0.100000X0.400000X0*%
%ADD65R,1.500000X1.500000*%
%ADD66C,1.500000*%
%ADD67C,3.500000*%
%ADD68RoundRect,0.250000X1.000000X-1.950000X1.000000X1.950000X-1.000000X1.950000X-1.000000X-1.950000X0*%
%ADD69RoundRect,0.102000X-1.335000X-1.605000X1.335000X-1.605000X1.335000X1.605000X-1.335000X1.605000X0*%
%ADD70RoundRect,0.053000X-0.464000X-0.159000X0.464000X-0.159000X0.464000X0.159000X-0.464000X0.159000X0*%
%ADD71RoundRect,0.053000X-0.159000X-0.464000X0.159000X-0.464000X0.159000X0.464000X-0.159000X0.464000X0*%
%ADD72RoundRect,0.102000X-0.875000X-0.875000X0.875000X-0.875000X0.875000X0.875000X-0.875000X0.875000X0*%
%ADD73C,2.006600*%
%ADD74C,6.000000*%
%ADD75RoundRect,0.102000X0.150000X0.775000X-0.150000X0.775000X-0.150000X-0.775000X0.150000X-0.775000X0*%
%ADD76RoundRect,0.102000X0.600000X1.375000X-0.600000X1.375000X-0.600000X-1.375000X0.600000X-1.375000X0*%
%ADD77RoundRect,0.062500X-0.062500X0.375000X-0.062500X-0.375000X0.062500X-0.375000X0.062500X0.375000X0*%
%ADD78RoundRect,0.062500X-0.375000X0.062500X-0.375000X-0.062500X0.375000X-0.062500X0.375000X0.062500X0*%
%ADD79R,2.100000X2.100000*%
%ADD80RoundRect,0.250000X-0.650000X0.325000X-0.650000X-0.325000X0.650000X-0.325000X0.650000X0.325000X0*%
%ADD81RoundRect,0.062500X-0.062500X0.350000X-0.062500X-0.350000X0.062500X-0.350000X0.062500X0.350000X0*%
%ADD82R,2.350000X1.580000*%
G04 APERTURE END LIST*
D10*
%TO.C,T2*%
X24275000Y138355000D02*
X24650000Y138355000D01*
X24650000Y137730000D01*
X24275000Y137730000D01*
X24275000Y136580000D01*
X24225000Y136580000D01*
X24225000Y136280000D01*
X23625000Y136280000D01*
X23625000Y136580000D01*
X23575000Y136580000D01*
X23575000Y136280000D01*
X22975000Y136280000D01*
X22975000Y136580000D01*
X22925000Y136580000D01*
X22925000Y136280000D01*
X22325000Y136280000D01*
X22325000Y136580000D01*
X22275000Y136580000D01*
X22275000Y136280000D01*
X21700000Y136280000D01*
X21700000Y136580000D01*
X21625000Y136580000D01*
X21625000Y137705000D01*
X21250000Y137705000D01*
X21250000Y138355000D01*
X21625000Y138355000D01*
X21625000Y138755000D01*
X24275000Y138755000D01*
X24275000Y138355000D01*
G36*
X24275000Y138355000D02*
G01*
X24650000Y138355000D01*
X24650000Y137730000D01*
X24275000Y137730000D01*
X24275000Y136580000D01*
X24225000Y136580000D01*
X24225000Y136280000D01*
X23625000Y136280000D01*
X23625000Y136580000D01*
X23575000Y136580000D01*
X23575000Y136280000D01*
X22975000Y136280000D01*
X22975000Y136580000D01*
X22925000Y136580000D01*
X22925000Y136280000D01*
X22325000Y136280000D01*
X22325000Y136580000D01*
X22275000Y136580000D01*
X22275000Y136280000D01*
X21700000Y136280000D01*
X21700000Y136580000D01*
X21625000Y136580000D01*
X21625000Y137705000D01*
X21250000Y137705000D01*
X21250000Y138355000D01*
X21625000Y138355000D01*
X21625000Y138755000D01*
X24275000Y138755000D01*
X24275000Y138355000D01*
G37*
%TO.C,JP1*%
G36*
X153325000Y145000000D02*
G01*
X154925000Y145000000D01*
X154925000Y143500000D01*
X153325000Y143500000D01*
X153325000Y145000000D01*
G37*
%TO.C,JP5*%
G36*
X88775000Y144950000D02*
G01*
X90375000Y144950000D01*
X90375000Y143450000D01*
X88775000Y143450000D01*
X88775000Y144950000D01*
G37*
%TO.C,T4*%
X24275000Y142773750D02*
X24650000Y142773750D01*
X24650000Y142148750D01*
X24275000Y142148750D01*
X24275000Y140998750D01*
X24225000Y140998750D01*
X24225000Y140698750D01*
X23625000Y140698750D01*
X23625000Y140998750D01*
X23575000Y140998750D01*
X23575000Y140698750D01*
X22975000Y140698750D01*
X22975000Y140998750D01*
X22925000Y140998750D01*
X22925000Y140698750D01*
X22325000Y140698750D01*
X22325000Y140998750D01*
X22275000Y140998750D01*
X22275000Y140698750D01*
X21700000Y140698750D01*
X21700000Y140998750D01*
X21625000Y140998750D01*
X21625000Y142123750D01*
X21250000Y142123750D01*
X21250000Y142773750D01*
X21625000Y142773750D01*
X21625000Y143173750D01*
X24275000Y143173750D01*
X24275000Y142773750D01*
G36*
X24275000Y142773750D02*
G01*
X24650000Y142773750D01*
X24650000Y142148750D01*
X24275000Y142148750D01*
X24275000Y140998750D01*
X24225000Y140998750D01*
X24225000Y140698750D01*
X23625000Y140698750D01*
X23625000Y140998750D01*
X23575000Y140998750D01*
X23575000Y140698750D01*
X22975000Y140698750D01*
X22975000Y140998750D01*
X22925000Y140998750D01*
X22925000Y140698750D01*
X22325000Y140698750D01*
X22325000Y140998750D01*
X22275000Y140998750D01*
X22275000Y140698750D01*
X21700000Y140698750D01*
X21700000Y140998750D01*
X21625000Y140998750D01*
X21625000Y142123750D01*
X21250000Y142123750D01*
X21250000Y142773750D01*
X21625000Y142773750D01*
X21625000Y143173750D01*
X24275000Y143173750D01*
X24275000Y142773750D01*
G37*
%TO.C,D3*%
X157045000Y23790000D02*
X156705000Y23790000D01*
X156705000Y24495000D01*
X157045000Y24495000D01*
X157045000Y23790000D01*
G36*
X157045000Y23790000D02*
G01*
X156705000Y23790000D01*
X156705000Y24495000D01*
X157045000Y24495000D01*
X157045000Y23790000D01*
G37*
X157045000Y22955000D02*
X156705000Y22955000D01*
X156705000Y23660000D01*
X157045000Y23660000D01*
X157045000Y22955000D01*
G36*
X157045000Y22955000D02*
G01*
X156705000Y22955000D01*
X156705000Y23660000D01*
X157045000Y23660000D01*
X157045000Y22955000D01*
G37*
X157545000Y23790000D02*
X157205000Y23790000D01*
X157205000Y24495000D01*
X157545000Y24495000D01*
X157545000Y23790000D01*
G36*
X157545000Y23790000D02*
G01*
X157205000Y23790000D01*
X157205000Y24495000D01*
X157545000Y24495000D01*
X157545000Y23790000D01*
G37*
X157545000Y22955000D02*
X157205000Y22955000D01*
X157205000Y23660000D01*
X157545000Y23660000D01*
X157545000Y22955000D01*
G36*
X157545000Y22955000D02*
G01*
X157205000Y22955000D01*
X157205000Y23660000D01*
X157545000Y23660000D01*
X157545000Y22955000D01*
G37*
X158145000Y23790000D02*
X157605000Y23790000D01*
X157605000Y24495000D01*
X158145000Y24495000D01*
X158145000Y23790000D01*
G36*
X158145000Y23790000D02*
G01*
X157605000Y23790000D01*
X157605000Y24495000D01*
X158145000Y24495000D01*
X158145000Y23790000D01*
G37*
X158145000Y22955000D02*
X157605000Y22955000D01*
X157605000Y23660000D01*
X158145000Y23660000D01*
X158145000Y22955000D01*
G36*
X158145000Y22955000D02*
G01*
X157605000Y22955000D01*
X157605000Y23660000D01*
X158145000Y23660000D01*
X158145000Y22955000D01*
G37*
X158545000Y23790000D02*
X158205000Y23790000D01*
X158205000Y24495000D01*
X158545000Y24495000D01*
X158545000Y23790000D01*
G36*
X158545000Y23790000D02*
G01*
X158205000Y23790000D01*
X158205000Y24495000D01*
X158545000Y24495000D01*
X158545000Y23790000D01*
G37*
X158545000Y22955000D02*
X158205000Y22955000D01*
X158205000Y23660000D01*
X158545000Y23660000D01*
X158545000Y22955000D01*
G36*
X158545000Y22955000D02*
G01*
X158205000Y22955000D01*
X158205000Y23660000D01*
X158545000Y23660000D01*
X158545000Y22955000D01*
G37*
X159045000Y23790000D02*
X158705000Y23790000D01*
X158705000Y24495000D01*
X159045000Y24495000D01*
X159045000Y23790000D01*
G36*
X159045000Y23790000D02*
G01*
X158705000Y23790000D01*
X158705000Y24495000D01*
X159045000Y24495000D01*
X159045000Y23790000D01*
G37*
X159045000Y22955000D02*
X158705000Y22955000D01*
X158705000Y23660000D01*
X159045000Y23660000D01*
X159045000Y22955000D01*
G36*
X159045000Y22955000D02*
G01*
X158705000Y22955000D01*
X158705000Y23660000D01*
X159045000Y23660000D01*
X159045000Y22955000D01*
G37*
%TO.C,JP7*%
G36*
X56575000Y144925000D02*
G01*
X58175000Y144925000D01*
X58175000Y143425000D01*
X56575000Y143425000D01*
X56575000Y144925000D01*
G37*
%TO.C,JP2*%
G36*
X137025000Y145017500D02*
G01*
X138625000Y145017500D01*
X138625000Y143517500D01*
X137025000Y143517500D01*
X137025000Y145017500D01*
G37*
%TO.C,JP6*%
G36*
X72650000Y144950000D02*
G01*
X74250000Y144950000D01*
X74250000Y143450000D01*
X72650000Y143450000D01*
X72650000Y144950000D01*
G37*
%TO.C,JP8*%
G36*
X40575000Y144925000D02*
G01*
X42175000Y144925000D01*
X42175000Y143425000D01*
X40575000Y143425000D01*
X40575000Y144925000D01*
G37*
%TO.C,JP3*%
G36*
X120975000Y144992500D02*
G01*
X122575000Y144992500D01*
X122575000Y143492500D01*
X120975000Y143492500D01*
X120975000Y144992500D01*
G37*
%TO.C,T1*%
X24250000Y125873750D02*
X24625000Y125873750D01*
X24625000Y125248750D01*
X24250000Y125248750D01*
X24250000Y124098750D01*
X24200000Y124098750D01*
X24200000Y123798750D01*
X23600000Y123798750D01*
X23600000Y124098750D01*
X23550000Y124098750D01*
X23550000Y123798750D01*
X22950000Y123798750D01*
X22950000Y124098750D01*
X22900000Y124098750D01*
X22900000Y123798750D01*
X22300000Y123798750D01*
X22300000Y124098750D01*
X22250000Y124098750D01*
X22250000Y123798750D01*
X21675000Y123798750D01*
X21675000Y124098750D01*
X21600000Y124098750D01*
X21600000Y125223750D01*
X21225000Y125223750D01*
X21225000Y125873750D01*
X21600000Y125873750D01*
X21600000Y126273750D01*
X24250000Y126273750D01*
X24250000Y125873750D01*
G36*
X24250000Y125873750D02*
G01*
X24625000Y125873750D01*
X24625000Y125248750D01*
X24250000Y125248750D01*
X24250000Y124098750D01*
X24200000Y124098750D01*
X24200000Y123798750D01*
X23600000Y123798750D01*
X23600000Y124098750D01*
X23550000Y124098750D01*
X23550000Y123798750D01*
X22950000Y123798750D01*
X22950000Y124098750D01*
X22900000Y124098750D01*
X22900000Y123798750D01*
X22300000Y123798750D01*
X22300000Y124098750D01*
X22250000Y124098750D01*
X22250000Y123798750D01*
X21675000Y123798750D01*
X21675000Y124098750D01*
X21600000Y124098750D01*
X21600000Y125223750D01*
X21225000Y125223750D01*
X21225000Y125873750D01*
X21600000Y125873750D01*
X21600000Y126273750D01*
X24250000Y126273750D01*
X24250000Y125873750D01*
G37*
D11*
%TO.C,J22*%
X19113100Y111050000D02*
G75*
G02*
X18086900Y111050000I-513100J0D01*
G01*
X18086900Y111050000D02*
G75*
G02*
X19113100Y111050000I513100J0D01*
G01*
X23313100Y116550000D02*
G75*
G02*
X22286900Y116550000I-513100J0D01*
G01*
X22286900Y116550000D02*
G75*
G02*
X23313100Y116550000I513100J0D01*
G01*
X23313100Y111050000D02*
G75*
G02*
X22286900Y111050000I-513100J0D01*
G01*
X22286900Y111050000D02*
G75*
G02*
X23313100Y111050000I513100J0D01*
G01*
X27513100Y116550000D02*
G75*
G02*
X26486900Y116550000I-513100J0D01*
G01*
X26486900Y116550000D02*
G75*
G02*
X27513100Y116550000I513100J0D01*
G01*
X27513100Y111050000D02*
G75*
G02*
X26486900Y111050000I-513100J0D01*
G01*
X26486900Y111050000D02*
G75*
G02*
X27513100Y111050000I513100J0D01*
G01*
X31713100Y116550000D02*
G75*
G02*
X30686900Y116550000I-513100J0D01*
G01*
X30686900Y116550000D02*
G75*
G02*
X31713100Y116550000I513100J0D01*
G01*
X31713100Y111050000D02*
G75*
G02*
X30686900Y111050000I-513100J0D01*
G01*
X30686900Y111050000D02*
G75*
G02*
X31713100Y111050000I513100J0D01*
G01*
D10*
X19626200Y115523800D02*
X17573800Y115523800D01*
X17573800Y117576200D01*
X19626200Y117576200D01*
X19626200Y115523800D01*
G36*
X19626200Y115523800D02*
G01*
X17573800Y115523800D01*
X17573800Y117576200D01*
X19626200Y117576200D01*
X19626200Y115523800D01*
G37*
%TO.C,JP4*%
G36*
X105050000Y144950000D02*
G01*
X106650000Y144950000D01*
X106650000Y143450000D01*
X105050000Y143450000D01*
X105050000Y144950000D01*
G37*
%TO.C,T3*%
X24250000Y130273750D02*
X24625000Y130273750D01*
X24625000Y129648750D01*
X24250000Y129648750D01*
X24250000Y128498750D01*
X24200000Y128498750D01*
X24200000Y128198750D01*
X23600000Y128198750D01*
X23600000Y128498750D01*
X23550000Y128498750D01*
X23550000Y128198750D01*
X22950000Y128198750D01*
X22950000Y128498750D01*
X22900000Y128498750D01*
X22900000Y128198750D01*
X22300000Y128198750D01*
X22300000Y128498750D01*
X22250000Y128498750D01*
X22250000Y128198750D01*
X21675000Y128198750D01*
X21675000Y128498750D01*
X21600000Y128498750D01*
X21600000Y129623750D01*
X21225000Y129623750D01*
X21225000Y130273750D01*
X21600000Y130273750D01*
X21600000Y130673750D01*
X24250000Y130673750D01*
X24250000Y130273750D01*
G36*
X24250000Y130273750D02*
G01*
X24625000Y130273750D01*
X24625000Y129648750D01*
X24250000Y129648750D01*
X24250000Y128498750D01*
X24200000Y128498750D01*
X24200000Y128198750D01*
X23600000Y128198750D01*
X23600000Y128498750D01*
X23550000Y128498750D01*
X23550000Y128198750D01*
X22950000Y128198750D01*
X22950000Y128498750D01*
X22900000Y128498750D01*
X22900000Y128198750D01*
X22300000Y128198750D01*
X22300000Y128498750D01*
X22250000Y128498750D01*
X22250000Y128198750D01*
X21675000Y128198750D01*
X21675000Y128498750D01*
X21600000Y128498750D01*
X21600000Y129623750D01*
X21225000Y129623750D01*
X21225000Y130273750D01*
X21600000Y130273750D01*
X21600000Y130673750D01*
X24250000Y130673750D01*
X24250000Y130273750D01*
G37*
%TD*%
D12*
%TO.C,IC27*%
X164700000Y90925000D03*
X164700000Y90275000D03*
X164700000Y89625000D03*
X164700000Y88975000D03*
X164700000Y88325000D03*
X164700000Y87675000D03*
X164700000Y87025000D03*
D13*
X165587500Y86137500D03*
X166237500Y86137500D03*
X166887500Y86137500D03*
X167537500Y86137500D03*
X168187500Y86137500D03*
X168837500Y86137500D03*
X169487500Y86137500D03*
D12*
X170375000Y87025000D03*
X170375000Y87675000D03*
X170375000Y88325000D03*
X170375000Y88975000D03*
X170375000Y89625000D03*
X170375000Y90275000D03*
X170375000Y90925000D03*
D13*
X169487500Y91812500D03*
X168837500Y91812500D03*
X168187500Y91812500D03*
X167537500Y91812500D03*
X166887500Y91812500D03*
X166237500Y91812500D03*
X165587500Y91812500D03*
D14*
X167537500Y88975000D03*
%TD*%
D15*
%TO.C,R72*%
X167722757Y115225590D03*
X167722757Y114205590D03*
%TD*%
D16*
%TO.C,R1*%
X147450000Y19162500D03*
X147450000Y16237500D03*
%TD*%
D17*
%TO.C,R30*%
X130643011Y106719900D03*
X131663011Y106719900D03*
%TD*%
D18*
%TO.C,C24*%
X78207500Y108755000D03*
X78207500Y107795000D03*
%TD*%
D19*
%TO.C,J6*%
X122987322Y139460219D03*
D20*
X124987322Y138460219D03*
X122987322Y137460219D03*
X124987322Y136460219D03*
X122987322Y135460219D03*
X124987322Y134460219D03*
X122987322Y133460219D03*
X124987322Y132460219D03*
X122987322Y131460219D03*
X124987322Y130460219D03*
X122987322Y129460219D03*
X124987322Y126460219D03*
X122987322Y125460219D03*
X124987322Y124460219D03*
X122987322Y123460219D03*
X124987322Y122460219D03*
X122987322Y121460219D03*
X124987322Y120460219D03*
D19*
X120487322Y139460219D03*
D20*
X118487322Y138460219D03*
X120487322Y137460219D03*
X118487322Y136460219D03*
X120487322Y135460219D03*
X118487322Y134460219D03*
X120487322Y133460219D03*
X118487322Y132460219D03*
X120487322Y131460219D03*
X118487322Y130460219D03*
X120487322Y129460219D03*
X118487322Y126460219D03*
X120487322Y125460219D03*
X118487322Y124460219D03*
X120487322Y123460219D03*
X118487322Y122460219D03*
X120487322Y121460219D03*
X118487322Y120460219D03*
%TD*%
D15*
%TO.C,R85*%
X169750000Y97570000D03*
X169750000Y96550000D03*
%TD*%
D21*
%TO.C,C2*%
X17150000Y131898750D03*
X19050000Y131898750D03*
%TD*%
D22*
%TO.C,D8*%
X159414692Y150831453D03*
X159414692Y149981453D03*
X160864692Y150831453D03*
X160864692Y149981453D03*
%TD*%
D18*
%TO.C,C8*%
X20450000Y143940000D03*
X20450000Y142980000D03*
%TD*%
D23*
%TO.C,J14*%
X157720000Y83800000D03*
D24*
X156450000Y83800000D03*
%TD*%
D25*
%TO.C,C3*%
X24150000Y135248750D03*
X24150000Y133348750D03*
%TD*%
D26*
%TO.C,R10*%
X10460000Y131948750D03*
X9440000Y131948750D03*
%TD*%
D23*
%TO.C,J17*%
X157750000Y93400000D03*
D24*
X156480000Y93400000D03*
%TD*%
D27*
%TO.C,R49*%
X143325000Y131490000D03*
X143325000Y132510000D03*
%TD*%
D28*
%TO.C,IC10*%
X75337500Y114040000D03*
X75337500Y114690000D03*
X75337500Y115340000D03*
X73562500Y115340000D03*
X73562500Y114690000D03*
X73562500Y114040000D03*
%TD*%
D29*
%TO.C,C46*%
X172500000Y130337500D03*
X172500000Y125262500D03*
%TD*%
D30*
%TO.C,R26*%
X158050000Y74700000D03*
D31*
X158050000Y75500000D03*
X158050000Y76300000D03*
D30*
X158050000Y77100000D03*
X156250000Y77100000D03*
D31*
X156250000Y76300000D03*
X156250000Y75500000D03*
D30*
X156250000Y74700000D03*
%TD*%
D27*
%TO.C,R55*%
X46925000Y131465000D03*
X46925000Y132485000D03*
%TD*%
%TO.C,R77*%
X192772500Y98962500D03*
X192772500Y99982500D03*
%TD*%
D19*
%TO.C,J5*%
X138987322Y139460219D03*
D20*
X140987322Y138460219D03*
X138987322Y137460219D03*
X140987322Y136460219D03*
X138987322Y135460219D03*
X140987322Y134460219D03*
X138987322Y133460219D03*
X140987322Y132460219D03*
X138987322Y131460219D03*
X140987322Y130460219D03*
X138987322Y129460219D03*
X140987322Y126460219D03*
X138987322Y125460219D03*
X140987322Y124460219D03*
X138987322Y123460219D03*
X140987322Y122460219D03*
X138987322Y121460219D03*
X140987322Y120460219D03*
D19*
X136487322Y139460219D03*
D20*
X134487322Y138460219D03*
X136487322Y137460219D03*
X134487322Y136460219D03*
X136487322Y135460219D03*
X134487322Y134460219D03*
X136487322Y133460219D03*
X134487322Y132460219D03*
X136487322Y131460219D03*
X134487322Y130460219D03*
X136487322Y129460219D03*
X134487322Y126460219D03*
X136487322Y125460219D03*
X134487322Y124460219D03*
X136487322Y123460219D03*
X134487322Y122460219D03*
X136487322Y121460219D03*
X134487322Y120460219D03*
%TD*%
D23*
%TO.C,J16*%
X157720000Y90200000D03*
D24*
X156450000Y90200000D03*
%TD*%
D27*
%TO.C,R82*%
X180075000Y99202500D03*
X180075000Y100222500D03*
%TD*%
D32*
%TO.C,C11*%
X28730000Y147318750D03*
X22630000Y147318750D03*
%TD*%
D33*
%TO.C,D7*%
X178479350Y149879112D03*
X178479350Y150729112D03*
X177029350Y149879112D03*
X177029350Y150729112D03*
%TD*%
D18*
%TO.C,C32*%
X87000000Y114925000D03*
X87000000Y113965000D03*
%TD*%
D19*
%TO.C,J10*%
X58684650Y139449309D03*
D20*
X60684650Y138449309D03*
X58684650Y137449309D03*
X60684650Y136449309D03*
X58684650Y135449309D03*
X60684650Y134449309D03*
X58684650Y133449309D03*
X60684650Y132449309D03*
X58684650Y131449309D03*
X60684650Y130449309D03*
X58684650Y129449309D03*
X60684650Y126449309D03*
X58684650Y125449309D03*
X60684650Y124449309D03*
X58684650Y123449309D03*
X60684650Y122449309D03*
X58684650Y121449309D03*
X60684650Y120449309D03*
D19*
X56184650Y139449309D03*
D20*
X54184650Y138449309D03*
X56184650Y137449309D03*
X54184650Y136449309D03*
X56184650Y135449309D03*
X54184650Y134449309D03*
X56184650Y133449309D03*
X54184650Y132449309D03*
X56184650Y131449309D03*
X54184650Y130449309D03*
X56184650Y129449309D03*
X54184650Y126449309D03*
X56184650Y125449309D03*
X54184650Y124449309D03*
X56184650Y123449309D03*
X54184650Y122449309D03*
X56184650Y121449309D03*
X54184650Y120449309D03*
%TD*%
D30*
%TO.C,R47*%
X160475000Y69425000D03*
D31*
X160475000Y68625000D03*
X160475000Y67825000D03*
D30*
X160475000Y67025000D03*
X162275000Y67025000D03*
D31*
X162275000Y67825000D03*
X162275000Y68625000D03*
D30*
X162275000Y69425000D03*
%TD*%
D34*
%TO.C,C5*%
X19480000Y123198750D03*
X17580000Y123198750D03*
%TD*%
D35*
%TO.C,D4*%
X181200000Y12075000D03*
D36*
X181200000Y13775000D03*
X178800000Y13775000D03*
X178800000Y11875000D03*
%TD*%
D37*
%TO.C,T2*%
X23925000Y139430000D03*
X23275000Y139430000D03*
X22625000Y139430000D03*
X21975000Y139430000D03*
%TD*%
D26*
%TO.C,R7*%
X10460000Y135948750D03*
X9440000Y135948750D03*
%TD*%
D27*
%TO.C,R84*%
X170250000Y105425000D03*
X170250000Y106445000D03*
%TD*%
%TO.C,R89*%
X167250000Y105445000D03*
X167250000Y106465000D03*
%TD*%
D38*
%TO.C,JP1*%
X152825000Y144250000D03*
X154125000Y144250000D03*
X155425000Y144250000D03*
%TD*%
D27*
%TO.C,R86*%
X168750000Y96550000D03*
X168750000Y97570000D03*
%TD*%
D25*
%TO.C,C4*%
X22050000Y135248750D03*
X22050000Y133348750D03*
%TD*%
D30*
%TO.C,R25*%
X158050000Y78500000D03*
D31*
X158050000Y79300000D03*
X158050000Y80100000D03*
D30*
X158050000Y80900000D03*
X156250000Y80900000D03*
D31*
X156250000Y80100000D03*
X156250000Y79300000D03*
D30*
X156250000Y78500000D03*
%TD*%
%TO.C,R28*%
X158050000Y67025000D03*
D31*
X158050000Y67825000D03*
X158050000Y68625000D03*
D30*
X158050000Y69425000D03*
X156250000Y69425000D03*
D31*
X156250000Y68625000D03*
X156250000Y67825000D03*
D30*
X156250000Y67025000D03*
%TD*%
D39*
%TO.C,H3*%
X139047056Y6352944D03*
X139750000Y8050000D03*
X139750000Y4655888D03*
X141447056Y8752944D03*
D40*
X141447056Y6352944D03*
D39*
X141447056Y3952944D03*
X143144112Y8050000D03*
X143144112Y4655888D03*
X143847056Y6352944D03*
%TD*%
D38*
%TO.C,JP5*%
X88275000Y144200000D03*
X89575000Y144200000D03*
X90875000Y144200000D03*
%TD*%
D37*
%TO.C,T4*%
X23925000Y143848750D03*
X23275000Y143848750D03*
X22625000Y143848750D03*
X21975000Y143848750D03*
%TD*%
D41*
%TO.C,C23*%
X172500000Y3450000D03*
X172500000Y6400000D03*
%TD*%
D12*
%TO.C,IC15*%
X111850000Y111105000D03*
X111850000Y110455000D03*
X111850000Y109805000D03*
X111850000Y109155000D03*
X111850000Y108505000D03*
X111850000Y107855000D03*
X111850000Y107205000D03*
D13*
X112737500Y106317500D03*
X113387500Y106317500D03*
X114037500Y106317500D03*
X114687500Y106317500D03*
X115337500Y106317500D03*
X115987500Y106317500D03*
X116637500Y106317500D03*
D12*
X117525000Y107205000D03*
X117525000Y107855000D03*
X117525000Y108505000D03*
X117525000Y109155000D03*
X117525000Y109805000D03*
X117525000Y110455000D03*
X117525000Y111105000D03*
D13*
X116637500Y111992500D03*
X115987500Y111992500D03*
X115337500Y111992500D03*
X114687500Y111992500D03*
X114037500Y111992500D03*
X113387500Y111992500D03*
X112737500Y111992500D03*
D14*
X114687500Y109155000D03*
%TD*%
D39*
%TO.C,H5*%
X4075000Y101475000D03*
X4777944Y103172056D03*
X4777944Y99777944D03*
X6475000Y103875000D03*
D40*
X6475000Y101475000D03*
D39*
X6475000Y99075000D03*
X8172056Y103172056D03*
X8172056Y99777944D03*
X8875000Y101475000D03*
%TD*%
D42*
%TO.C,IC2*%
X100920000Y106905000D03*
D43*
X100375000Y107950000D03*
D44*
X99875000Y107950000D03*
X99375000Y107950000D03*
X98875000Y107950000D03*
X98375000Y107950000D03*
X97875000Y107950000D03*
X97375000Y107950000D03*
X96875000Y107950000D03*
X96375000Y107950000D03*
X95875000Y107950000D03*
D45*
X95330000Y106905000D03*
X95330000Y105405000D03*
D46*
X95875000Y104360000D03*
X96375000Y104360000D03*
X96875000Y104360000D03*
X97375000Y104360000D03*
X97875000Y104360000D03*
X98375000Y104360000D03*
X98875000Y104360000D03*
X99375000Y104360000D03*
X99875000Y104360000D03*
X100375000Y104360000D03*
D42*
X100920000Y105405000D03*
D47*
X98125000Y106155000D03*
%TD*%
D12*
%TO.C,IC9*%
X79590000Y111225000D03*
X79590000Y110575000D03*
X79590000Y109925000D03*
X79590000Y109275000D03*
X79590000Y108625000D03*
X79590000Y107975000D03*
X79590000Y107325000D03*
D13*
X80477500Y106437500D03*
X81127500Y106437500D03*
X81777500Y106437500D03*
X82427500Y106437500D03*
X83077500Y106437500D03*
X83727500Y106437500D03*
X84377500Y106437500D03*
D12*
X85265000Y107325000D03*
X85265000Y107975000D03*
X85265000Y108625000D03*
X85265000Y109275000D03*
X85265000Y109925000D03*
X85265000Y110575000D03*
X85265000Y111225000D03*
D13*
X84377500Y112112500D03*
X83727500Y112112500D03*
X83077500Y112112500D03*
X82427500Y112112500D03*
X81777500Y112112500D03*
X81127500Y112112500D03*
X80477500Y112112500D03*
D14*
X82427500Y109275000D03*
%TD*%
D48*
%TO.C,C17*%
X13850000Y142218750D03*
X13850000Y143178750D03*
%TD*%
D23*
%TO.C,J21*%
X157750000Y106200000D03*
D24*
X156480000Y106200000D03*
%TD*%
D18*
%TO.C,C35*%
X39950000Y115200000D03*
X39950000Y114240000D03*
%TD*%
%TO.C,C30*%
X119450000Y115100000D03*
X119450000Y114140000D03*
%TD*%
D28*
%TO.C,IC7*%
X106762500Y114147500D03*
X106762500Y114797500D03*
X106762500Y115447500D03*
X104987500Y115447500D03*
X104987500Y114797500D03*
X104987500Y114147500D03*
%TD*%
D48*
%TO.C,C45*%
X172161314Y120818419D03*
X172161314Y121778419D03*
%TD*%
D39*
%TO.C,H2*%
X4047056Y149102944D03*
X4750000Y150800000D03*
X4750000Y147405888D03*
X6447056Y151502944D03*
D40*
X6447056Y149102944D03*
D39*
X6447056Y146702944D03*
X8144112Y150800000D03*
X8144112Y147405888D03*
X8847056Y149102944D03*
%TD*%
D21*
%TO.C,C52*%
X164250000Y114715590D03*
X166150000Y114715590D03*
%TD*%
D49*
%TO.C,C64*%
X171502500Y73700000D03*
X172462500Y73700000D03*
%TD*%
D27*
%TO.C,R90*%
X172772500Y99302500D03*
X172772500Y100322500D03*
%TD*%
%TO.C,R2*%
X12780000Y129988750D03*
X12780000Y131008750D03*
%TD*%
D49*
%TO.C,C21*%
X183045000Y10525000D03*
X184005000Y10525000D03*
%TD*%
D50*
%TO.C,C55*%
X194752500Y99037500D03*
X193792500Y99037500D03*
%TD*%
D51*
%TO.C,L2*%
X32390000Y140748750D03*
X26750000Y140748750D03*
%TD*%
D18*
%TO.C,C34*%
X53435000Y114832500D03*
X53435000Y113872500D03*
%TD*%
D23*
%TO.C,J19*%
X157750000Y99800000D03*
D24*
X156480000Y99800000D03*
%TD*%
D27*
%TO.C,R91*%
X173847500Y99302500D03*
X173847500Y100322500D03*
%TD*%
D18*
%TO.C,C7*%
X20475000Y131847500D03*
X20475000Y130887500D03*
%TD*%
D15*
%TO.C,R65*%
X174222757Y121825590D03*
X174222757Y120805590D03*
%TD*%
D52*
%TO.C,R58*%
X193000000Y133337500D03*
X193000000Y136262500D03*
%TD*%
D16*
%TO.C,R59*%
X184750000Y136300000D03*
X184750000Y133375000D03*
%TD*%
D30*
%TO.C,R46*%
X160475000Y73250000D03*
D31*
X160475000Y72450000D03*
X160475000Y71650000D03*
D30*
X160475000Y70850000D03*
X162275000Y70850000D03*
D31*
X162275000Y71650000D03*
X162275000Y72450000D03*
D30*
X162275000Y73250000D03*
%TD*%
D16*
%TO.C,R67*%
X164750000Y136050000D03*
X164750000Y133125000D03*
%TD*%
D53*
%TO.C,IC17*%
X196447934Y117060211D03*
X197397934Y117060211D03*
X198347934Y117060211D03*
X198347934Y119335211D03*
X197397934Y119335211D03*
X196447934Y119335211D03*
%TD*%
D15*
%TO.C,R24*%
X189125000Y6360000D03*
X189125000Y5340000D03*
%TD*%
D17*
%TO.C,R12*%
X158461192Y60095232D03*
X159481192Y60095232D03*
%TD*%
%TO.C,R13*%
X158497568Y63593832D03*
X159517568Y63593832D03*
%TD*%
D30*
%TO.C,R27*%
X158050000Y70850000D03*
D31*
X158050000Y71650000D03*
X158050000Y72450000D03*
D30*
X158050000Y73250000D03*
X156250000Y73250000D03*
D31*
X156250000Y72450000D03*
X156250000Y71650000D03*
D30*
X156250000Y70850000D03*
%TD*%
D48*
%TO.C,C16*%
X9250000Y142218750D03*
X9250000Y143178750D03*
%TD*%
D15*
%TO.C,R63*%
X182379204Y115164358D03*
X182379204Y114144358D03*
%TD*%
D54*
%TO.C,D5*%
X189132500Y4050000D03*
X190102500Y4050000D03*
%TD*%
D22*
%TO.C,D6*%
X179929350Y150729112D03*
X179929350Y149879112D03*
X181379350Y150729112D03*
X181379350Y149879112D03*
%TD*%
D48*
%TO.C,C44*%
X178879204Y116424358D03*
X178879204Y117384358D03*
%TD*%
D50*
%TO.C,C59*%
X170230000Y104445000D03*
X169270000Y104445000D03*
%TD*%
D28*
%TO.C,IC13*%
X90262500Y113967500D03*
X90262500Y114617500D03*
X90262500Y115267500D03*
X88487500Y115267500D03*
X88487500Y114617500D03*
X88487500Y113967500D03*
%TD*%
D15*
%TO.C,R76*%
X188750000Y97570000D03*
X188750000Y96550000D03*
%TD*%
D19*
%TO.C,J4*%
X154987322Y139460219D03*
D20*
X156987322Y138460219D03*
X154987322Y137460219D03*
X156987322Y136460219D03*
X154987322Y135460219D03*
X156987322Y134460219D03*
X154987322Y133460219D03*
X156987322Y132460219D03*
X154987322Y131460219D03*
X156987322Y130460219D03*
X154987322Y129460219D03*
X156987322Y126460219D03*
X154987322Y125460219D03*
X156987322Y124460219D03*
X154987322Y123460219D03*
X156987322Y122460219D03*
X154987322Y121460219D03*
X156987322Y120460219D03*
D19*
X152487322Y139460219D03*
D20*
X150487322Y138460219D03*
X152487322Y137460219D03*
X150487322Y136460219D03*
X152487322Y135460219D03*
X150487322Y134460219D03*
X152487322Y133460219D03*
X150487322Y132460219D03*
X152487322Y131460219D03*
X150487322Y130460219D03*
X152487322Y129460219D03*
X150487322Y126460219D03*
X152487322Y125460219D03*
X150487322Y124460219D03*
X152487322Y123460219D03*
X150487322Y122460219D03*
X152487322Y121460219D03*
X150487322Y120460219D03*
%TD*%
D15*
%TO.C,R56*%
X198397934Y121957711D03*
X198397934Y120937711D03*
%TD*%
D55*
%TO.C,J3*%
X176300000Y8270000D03*
X177100000Y8270000D03*
D56*
X178250000Y8270000D03*
X179250000Y8270000D03*
X179750000Y8270000D03*
X180750000Y8270000D03*
D55*
X181900000Y8270000D03*
X182700000Y8270000D03*
X182700000Y8270000D03*
X181900000Y8270000D03*
D56*
X181250000Y8270000D03*
X180250000Y8270000D03*
X178750000Y8270000D03*
X177750000Y8270000D03*
D55*
X177100000Y8270000D03*
X176300000Y8270000D03*
D57*
X175180000Y7630000D03*
D58*
X175180000Y3450000D03*
D57*
X183820000Y7630000D03*
D58*
X183820000Y3450000D03*
%TD*%
D48*
%TO.C,C39*%
X195147934Y116717711D03*
X195147934Y117677711D03*
%TD*%
D18*
%TO.C,C26*%
X110415000Y108610000D03*
X110415000Y107650000D03*
%TD*%
D27*
%TO.C,R79*%
X188250000Y105310000D03*
X188250000Y106330000D03*
%TD*%
%TO.C,R87*%
X169250000Y105435000D03*
X169250000Y106455000D03*
%TD*%
D38*
%TO.C,JP7*%
X56075000Y144175000D03*
X57375000Y144175000D03*
X58675000Y144175000D03*
%TD*%
D18*
%TO.C,C19*%
X102125000Y105210000D03*
X102125000Y104250000D03*
%TD*%
D33*
%TO.C,D9*%
X157958239Y149971145D03*
X157958239Y150821145D03*
X156508239Y149971145D03*
X156508239Y150821145D03*
%TD*%
D59*
%TO.C,J1*%
X153910000Y16475000D03*
D60*
X155180000Y19015000D03*
X156450000Y16475000D03*
X157720000Y19015000D03*
X158990000Y16475000D03*
X160260000Y19015000D03*
X161530000Y16475000D03*
X162800000Y19015000D03*
D61*
X151735000Y5225000D03*
X154275000Y5225000D03*
X162445000Y5225000D03*
X164985000Y5225000D03*
D62*
X166105000Y13175000D03*
X150615000Y13175000D03*
%TD*%
D23*
%TO.C,J15*%
X157720000Y87000000D03*
D24*
X156450000Y87000000D03*
%TD*%
D50*
%TO.C,C13*%
X10430000Y133948750D03*
X9470000Y133948750D03*
%TD*%
D29*
%TO.C,C37*%
X193000000Y130337500D03*
X193000000Y125262500D03*
%TD*%
D63*
%TO.C,D1*%
X12530000Y142748750D03*
X10480000Y142748750D03*
X11500000Y140348750D03*
%TD*%
D21*
%TO.C,C47*%
X170927244Y114730708D03*
X172827244Y114730708D03*
%TD*%
D53*
%TO.C,IC20*%
X165772757Y116915590D03*
X166722757Y116915590D03*
X167672757Y116915590D03*
X167672757Y119190590D03*
X166722757Y119190590D03*
X165772757Y119190590D03*
%TD*%
D27*
%TO.C,R93*%
X163350000Y107700000D03*
X163350000Y108720000D03*
%TD*%
D64*
%TO.C,IC26*%
X166050000Y97700000D03*
X165400000Y97700000D03*
X164750000Y97700000D03*
X164750000Y95925000D03*
X165400000Y95925000D03*
X166050000Y95925000D03*
%TD*%
D65*
%TO.C,J13*%
X172250002Y143800000D03*
D66*
X169750002Y143800000D03*
X167750002Y143800000D03*
X165250002Y143800000D03*
X172250002Y141180000D03*
X169750002Y141180000D03*
X167750002Y141180000D03*
X165250002Y141180000D03*
D67*
X175320002Y146510000D03*
X162180002Y146510000D03*
X175320002Y140830000D03*
X162180002Y140830000D03*
%TD*%
D28*
%TO.C,IC6*%
X122737500Y114142500D03*
X122737500Y114792500D03*
X122737500Y115442500D03*
X120962500Y115442500D03*
X120962500Y114792500D03*
X120962500Y114142500D03*
%TD*%
D48*
%TO.C,C60*%
X171000000Y98715000D03*
X171000000Y99675000D03*
%TD*%
D68*
%TO.C,C67*%
X8500000Y113350000D03*
X8500000Y121750000D03*
%TD*%
D18*
%TO.C,C27*%
X45250000Y108700000D03*
X45250000Y107740000D03*
%TD*%
D53*
%TO.C,IC18*%
X180174204Y116959358D03*
X181124204Y116959358D03*
X182074204Y116959358D03*
X182074204Y119234358D03*
X181124204Y119234358D03*
X180174204Y119234358D03*
%TD*%
D50*
%TO.C,C20*%
X177005000Y10450000D03*
X176045000Y10450000D03*
%TD*%
D15*
%TO.C,R4*%
X20450000Y142020000D03*
X20450000Y141000000D03*
%TD*%
D26*
%TO.C,R8*%
X10460000Y136998750D03*
X9440000Y136998750D03*
%TD*%
D19*
%TO.C,J8*%
X90694650Y139449309D03*
D20*
X92694650Y138449309D03*
X90694650Y137449309D03*
X92694650Y136449309D03*
X90694650Y135449309D03*
X92694650Y134449309D03*
X90694650Y133449309D03*
X92694650Y132449309D03*
X90694650Y131449309D03*
X92694650Y130449309D03*
X90694650Y129449309D03*
X92694650Y126449309D03*
X90694650Y125449309D03*
X92694650Y124449309D03*
X90694650Y123449309D03*
X92694650Y122449309D03*
X90694650Y121449309D03*
X92694650Y120449309D03*
D19*
X88194650Y139449309D03*
D20*
X86194650Y138449309D03*
X88194650Y137449309D03*
X86194650Y136449309D03*
X88194650Y135449309D03*
X86194650Y134449309D03*
X88194650Y133449309D03*
X86194650Y132449309D03*
X88194650Y131449309D03*
X86194650Y130449309D03*
X88194650Y129449309D03*
X86194650Y126449309D03*
X88194650Y125449309D03*
X86194650Y124449309D03*
X88194650Y123449309D03*
X86194650Y122449309D03*
X88194650Y121449309D03*
X86194650Y120449309D03*
%TD*%
D30*
%TO.C,R43*%
X160475000Y77100000D03*
D31*
X160475000Y76300000D03*
X160475000Y75500000D03*
D30*
X160475000Y74700000D03*
X162275000Y74700000D03*
D31*
X162275000Y75500000D03*
X162275000Y76300000D03*
D30*
X162275000Y77100000D03*
%TD*%
D17*
%TO.C,R45*%
X171452500Y71675000D03*
X172472500Y71675000D03*
%TD*%
D39*
%TO.C,H4*%
X198350000Y6050000D03*
X199052944Y7747056D03*
X199052944Y4352944D03*
X200750000Y8450000D03*
D40*
X200750000Y6050000D03*
D39*
X200750000Y3650000D03*
X202447056Y7747056D03*
X202447056Y4352944D03*
X203150000Y6050000D03*
%TD*%
D69*
%TO.C,L1*%
X27260000Y132998750D03*
X32900000Y132998750D03*
%TD*%
D27*
%TO.C,R69*%
X173179909Y120804888D03*
X173179909Y121824888D03*
%TD*%
D50*
%TO.C,C63*%
X166080000Y99200000D03*
X165120000Y99200000D03*
%TD*%
D26*
%TO.C,R9*%
X10460000Y130948750D03*
X9440000Y130948750D03*
%TD*%
D32*
%TO.C,C10*%
X19030000Y147298750D03*
X12930000Y147298750D03*
%TD*%
D50*
%TO.C,C62*%
X175852500Y99337500D03*
X174892500Y99337500D03*
%TD*%
%TO.C,C54*%
X189230000Y104060000D03*
X188270000Y104060000D03*
%TD*%
%TO.C,C61*%
X168250000Y104445000D03*
X167290000Y104445000D03*
%TD*%
D17*
%TO.C,R19*%
X160445245Y61252287D03*
X161465245Y61252287D03*
%TD*%
%TO.C,R15*%
X158492759Y61249800D03*
X159512759Y61249800D03*
%TD*%
D64*
%TO.C,IC23*%
X183100000Y97625000D03*
X182450000Y97625000D03*
X181800000Y97625000D03*
X181800000Y95850000D03*
X182450000Y95850000D03*
X183100000Y95850000D03*
%TD*%
D70*
%TO.C,IC1*%
X12660000Y134648750D03*
X12660000Y134248750D03*
X12660000Y133848750D03*
X12660000Y133448750D03*
X12660000Y133048750D03*
D71*
X13300000Y132408750D03*
X13700000Y132408750D03*
X14100000Y132408750D03*
X14500000Y132408750D03*
X14900000Y132408750D03*
D70*
X15540000Y133048750D03*
X15540000Y133448750D03*
X15540000Y133848750D03*
X15540000Y134248750D03*
X15540000Y134648750D03*
D71*
X14900000Y135288750D03*
X14500000Y135288750D03*
X14100000Y135288750D03*
X13700000Y135288750D03*
X13300000Y135288750D03*
D72*
X14100000Y133848750D03*
%TD*%
D27*
%TO.C,R74*%
X191722500Y98962500D03*
X191722500Y99982500D03*
%TD*%
%TO.C,R83*%
X181100000Y99192500D03*
X181100000Y100212500D03*
%TD*%
%TO.C,R48*%
X159425000Y131450000D03*
X159425000Y132470000D03*
%TD*%
D50*
%TO.C,C57*%
X187230000Y104060000D03*
X186270000Y104060000D03*
%TD*%
D52*
%TO.C,R23*%
X186550000Y3462500D03*
X186550000Y6387500D03*
%TD*%
D73*
%TO.C,F1*%
X28750001Y101800000D03*
X28750001Y104300000D03*
X25250000Y101800000D03*
X25250000Y104300000D03*
X19449999Y101800000D03*
X19449999Y104300000D03*
X15949996Y101800000D03*
X15949996Y104300000D03*
%TD*%
D26*
%TO.C,R41*%
X172462500Y74925000D03*
X171442500Y74925000D03*
%TD*%
D29*
%TO.C,C51*%
X164750000Y130087500D03*
X164750000Y125012500D03*
%TD*%
D39*
%TO.C,H1*%
X198350000Y149800000D03*
X199052944Y151497056D03*
X199052944Y148102944D03*
X200750000Y152200000D03*
D40*
X200750000Y149800000D03*
D39*
X200750000Y147400000D03*
X202447056Y151497056D03*
X202447056Y148102944D03*
X203150000Y149800000D03*
%TD*%
D27*
%TO.C,R51*%
X111450000Y131465000D03*
X111450000Y132485000D03*
%TD*%
%TO.C,R53*%
X79050000Y131440000D03*
X79050000Y132460000D03*
%TD*%
D74*
%TO.C,ST1*%
X186350000Y118625000D03*
%TD*%
D63*
%TO.C,D2*%
X17230000Y142748750D03*
X15180000Y142748750D03*
X16200000Y140348750D03*
%TD*%
D18*
%TO.C,C28*%
X151375000Y115150000D03*
X151375000Y114190000D03*
%TD*%
D27*
%TO.C,R73*%
X166722757Y120815590D03*
X166722757Y121835590D03*
%TD*%
D17*
%TO.C,R16*%
X160430000Y60100000D03*
X161450000Y60100000D03*
%TD*%
D48*
%TO.C,C36*%
X196397934Y120967711D03*
X196397934Y121927711D03*
%TD*%
D50*
%TO.C,C58*%
X183125000Y99187500D03*
X182165000Y99187500D03*
%TD*%
D48*
%TO.C,C56*%
X190000000Y98580000D03*
X190000000Y99540000D03*
%TD*%
D52*
%TO.C,R66*%
X172500000Y133375000D03*
X172500000Y136300000D03*
%TD*%
D26*
%TO.C,R11*%
X10490000Y138048750D03*
X9470000Y138048750D03*
%TD*%
D38*
%TO.C,JP2*%
X136525000Y144267500D03*
X137825000Y144267500D03*
X139125000Y144267500D03*
%TD*%
D16*
%TO.C,R70*%
X177250000Y137637500D03*
X177250000Y134712500D03*
%TD*%
D27*
%TO.C,R60*%
X197397934Y120937711D03*
X197397934Y121957711D03*
%TD*%
D64*
%TO.C,IC25*%
X175825000Y97800000D03*
X175175000Y97800000D03*
X174525000Y97800000D03*
X174525000Y96025000D03*
X175175000Y96025000D03*
X175825000Y96025000D03*
%TD*%
D38*
%TO.C,JP6*%
X72150000Y144200000D03*
X73450000Y144200000D03*
X74750000Y144200000D03*
%TD*%
D26*
%TO.C,R44*%
X172472500Y72675000D03*
X171452500Y72675000D03*
%TD*%
D18*
%TO.C,C29*%
X135275000Y115150000D03*
X135275000Y114190000D03*
%TD*%
D48*
%TO.C,C48*%
X170877244Y116430708D03*
X170877244Y117390708D03*
%TD*%
D27*
%TO.C,R92*%
X162275000Y107725000D03*
X162275000Y108745000D03*
%TD*%
D34*
%TO.C,C6*%
X19480000Y125348750D03*
X17580000Y125348750D03*
%TD*%
D49*
%TO.C,C12*%
X17420000Y133848750D03*
X18380000Y133848750D03*
%TD*%
D48*
%TO.C,C14*%
X12280000Y138048750D03*
X12280000Y139008750D03*
%TD*%
D17*
%TO.C,R17*%
X160447731Y63593893D03*
X161467731Y63593893D03*
%TD*%
D27*
%TO.C,R88*%
X168240000Y105445000D03*
X168240000Y106465000D03*
%TD*%
%TO.C,R80*%
X187250000Y105300000D03*
X187250000Y106320000D03*
%TD*%
D19*
%TO.C,J11*%
X42684650Y139449309D03*
D20*
X44684650Y138449309D03*
X42684650Y137449309D03*
X44684650Y136449309D03*
X42684650Y135449309D03*
X44684650Y134449309D03*
X42684650Y133449309D03*
X44684650Y132449309D03*
X42684650Y131449309D03*
X44684650Y130449309D03*
X42684650Y129449309D03*
X44684650Y126449309D03*
X42684650Y125449309D03*
X44684650Y124449309D03*
X42684650Y123449309D03*
X44684650Y122449309D03*
X42684650Y121449309D03*
X44684650Y120449309D03*
D19*
X40184650Y139449309D03*
D20*
X38184650Y138449309D03*
X40184650Y137449309D03*
X38184650Y136449309D03*
X40184650Y135449309D03*
X38184650Y134449309D03*
X40184650Y133449309D03*
X38184650Y132449309D03*
X40184650Y131449309D03*
X38184650Y130449309D03*
X40184650Y129449309D03*
X38184650Y126449309D03*
X40184650Y125449309D03*
X38184650Y124449309D03*
X40184650Y123449309D03*
X38184650Y122449309D03*
X40184650Y121449309D03*
X38184650Y120449309D03*
%TD*%
D64*
%TO.C,IC21*%
X194750000Y97475000D03*
X194100000Y97475000D03*
X193450000Y97475000D03*
X193450000Y95700000D03*
X194100000Y95700000D03*
X194750000Y95700000D03*
%TD*%
D21*
%TO.C,C38*%
X195197934Y114937711D03*
X197097934Y114937711D03*
%TD*%
D26*
%TO.C,R21*%
X182035000Y10500000D03*
X181015000Y10500000D03*
%TD*%
D16*
%TO.C,R62*%
X198150000Y137562500D03*
X198150000Y134637500D03*
%TD*%
D75*
%TO.C,J2*%
X195550000Y34350000D03*
X195300000Y41900000D03*
X195050000Y34350000D03*
X194800000Y41900000D03*
X194550000Y34350000D03*
X194300000Y41900000D03*
X194050000Y34350000D03*
X193800000Y41900000D03*
X193550000Y34350000D03*
X193300000Y41900000D03*
X193050000Y34350000D03*
X192800000Y41900000D03*
X192550000Y34350000D03*
X192300000Y41900000D03*
X192050000Y34350000D03*
X191800000Y41900000D03*
X191550000Y34350000D03*
X191300000Y41900000D03*
X191050000Y34350000D03*
X190800000Y41900000D03*
X190550000Y34350000D03*
X190300000Y41900000D03*
X190050000Y34350000D03*
X189800000Y41900000D03*
X189550000Y34350000D03*
X189300000Y41900000D03*
X189050000Y34350000D03*
X188800000Y41900000D03*
X188550000Y34350000D03*
X188300000Y41900000D03*
X188050000Y34350000D03*
X187800000Y41900000D03*
X187550000Y34350000D03*
X187300000Y41900000D03*
X187050000Y34350000D03*
X186800000Y41900000D03*
X186550000Y34350000D03*
X186300000Y41900000D03*
X186050000Y34350000D03*
X185800000Y41900000D03*
X185550000Y34350000D03*
X185300000Y41900000D03*
X185050000Y34350000D03*
X184800000Y41900000D03*
X184550000Y34350000D03*
X184300000Y41900000D03*
X184050000Y34350000D03*
X183800000Y41900000D03*
X183550000Y34350000D03*
X183300000Y41900000D03*
X183050000Y34350000D03*
X182800000Y41900000D03*
X182550000Y34350000D03*
X182300000Y41900000D03*
X182050000Y34350000D03*
X181800000Y41900000D03*
X181550000Y34350000D03*
X181300000Y41900000D03*
X179050000Y34350000D03*
X178800000Y41900000D03*
X178550000Y34350000D03*
X178300000Y41900000D03*
X178050000Y34350000D03*
X177800000Y41900000D03*
X177550000Y34350000D03*
X177300000Y41900000D03*
X177050000Y34350000D03*
D76*
X175950000Y35125000D03*
X196650000Y35125000D03*
%TD*%
D48*
%TO.C,C15*%
X13300000Y138048750D03*
X13300000Y139008750D03*
%TD*%
D27*
%TO.C,R50*%
X127450000Y131450000D03*
X127450000Y132470000D03*
%TD*%
D77*
%TO.C,IC4*%
X169062500Y75637500D03*
X168562500Y75637500D03*
X168062500Y75637500D03*
X167562500Y75637500D03*
X167062500Y75637500D03*
X166562500Y75637500D03*
D78*
X165875000Y74950000D03*
X165875000Y74450000D03*
X165875000Y73950000D03*
X165875000Y73450000D03*
X165875000Y72950000D03*
X165875000Y72450000D03*
D77*
X166562500Y71762500D03*
X167062500Y71762500D03*
X167562500Y71762500D03*
X168062500Y71762500D03*
X168562500Y71762500D03*
X169062500Y71762500D03*
D78*
X169750000Y72450000D03*
X169750000Y72950000D03*
X169750000Y73450000D03*
X169750000Y73950000D03*
X169750000Y74450000D03*
X169750000Y74950000D03*
D79*
X167812500Y73700000D03*
%TD*%
D21*
%TO.C,C43*%
X179179204Y114654358D03*
X181079204Y114654358D03*
%TD*%
D48*
%TO.C,C53*%
X164422757Y116415590D03*
X164422757Y117375590D03*
%TD*%
D23*
%TO.C,J18*%
X157750000Y96600000D03*
D24*
X156480000Y96600000D03*
%TD*%
D48*
%TO.C,C50*%
X165722757Y120835590D03*
X165722757Y121795590D03*
%TD*%
D15*
%TO.C,R57*%
X198397934Y115457711D03*
X198397934Y114437711D03*
%TD*%
D32*
%TO.C,C9*%
X32830000Y126798750D03*
X26730000Y126798750D03*
%TD*%
D38*
%TO.C,JP8*%
X40075000Y144175000D03*
X41375000Y144175000D03*
X42675000Y144175000D03*
%TD*%
D65*
%TO.C,J12*%
X192820000Y143800000D03*
D66*
X190320000Y143800000D03*
X188320000Y143800000D03*
X185820000Y143800000D03*
X192820000Y141180000D03*
X190320000Y141180000D03*
X188320000Y141180000D03*
X185820000Y141180000D03*
D67*
X195890000Y146510000D03*
X182750000Y146510000D03*
X195890000Y140830000D03*
X182750000Y140830000D03*
%TD*%
D38*
%TO.C,JP3*%
X120475000Y144242500D03*
X121775000Y144242500D03*
X123075000Y144242500D03*
%TD*%
D18*
%TO.C,C31*%
X103525000Y115100000D03*
X103525000Y114140000D03*
%TD*%
D15*
%TO.C,R61*%
X182129204Y121914358D03*
X182129204Y120894358D03*
%TD*%
D48*
%TO.C,C18*%
X102125000Y107125000D03*
X102125000Y108085000D03*
%TD*%
D37*
%TO.C,T1*%
X23900000Y126948750D03*
X23250000Y126948750D03*
X22600000Y126948750D03*
X21950000Y126948750D03*
%TD*%
D23*
%TO.C,J20*%
X157750000Y103000000D03*
D24*
X156480000Y103000000D03*
%TD*%
D15*
%TO.C,R3*%
X20475000Y129927500D03*
X20475000Y128907500D03*
%TD*%
D28*
%TO.C,IC12*%
X43215000Y114262500D03*
X43215000Y114912500D03*
X43215000Y115562500D03*
X41440000Y115562500D03*
X41440000Y114912500D03*
X41440000Y114262500D03*
%TD*%
D53*
%TO.C,IC19*%
X172227244Y116843208D03*
X173177244Y116843208D03*
X174127244Y116843208D03*
X174127244Y119118208D03*
X173177244Y119118208D03*
X172227244Y119118208D03*
%TD*%
D12*
%TO.C,IC14*%
X143975000Y111050000D03*
X143975000Y110400000D03*
X143975000Y109750000D03*
X143975000Y109100000D03*
X143975000Y108450000D03*
X143975000Y107800000D03*
X143975000Y107150000D03*
D13*
X144862500Y106262500D03*
X145512500Y106262500D03*
X146162500Y106262500D03*
X146812500Y106262500D03*
X147462500Y106262500D03*
X148112500Y106262500D03*
X148762500Y106262500D03*
D12*
X149650000Y107150000D03*
X149650000Y107800000D03*
X149650000Y108450000D03*
X149650000Y109100000D03*
X149650000Y109750000D03*
X149650000Y110400000D03*
X149650000Y111050000D03*
D13*
X148762500Y111937500D03*
X148112500Y111937500D03*
X147462500Y111937500D03*
X146812500Y111937500D03*
X146162500Y111937500D03*
X145512500Y111937500D03*
X144862500Y111937500D03*
D14*
X146812500Y109100000D03*
%TD*%
D27*
%TO.C,R78*%
X187750000Y96550000D03*
X187750000Y97570000D03*
%TD*%
%TO.C,R54*%
X62875000Y131540000D03*
X62875000Y132560000D03*
%TD*%
D17*
%TO.C,R5*%
X9450000Y134948750D03*
X10470000Y134948750D03*
%TD*%
D50*
%TO.C,C65*%
X163360000Y88650000D03*
X162400000Y88650000D03*
%TD*%
D19*
%TO.C,J7*%
X106987322Y139460219D03*
D20*
X108987322Y138460219D03*
X106987322Y137460219D03*
X108987322Y136460219D03*
X106987322Y135460219D03*
X108987322Y134460219D03*
X106987322Y133460219D03*
X108987322Y132460219D03*
X106987322Y131460219D03*
X108987322Y130460219D03*
X106987322Y129460219D03*
X108987322Y126460219D03*
X106987322Y125460219D03*
X108987322Y124460219D03*
X106987322Y123460219D03*
X108987322Y122460219D03*
X106987322Y121460219D03*
X108987322Y120460219D03*
D19*
X104487322Y139460219D03*
D20*
X102487322Y138460219D03*
X104487322Y137460219D03*
X102487322Y136460219D03*
X104487322Y135460219D03*
X102487322Y134460219D03*
X104487322Y133460219D03*
X102487322Y132460219D03*
X104487322Y131460219D03*
X102487322Y130460219D03*
X104487322Y129460219D03*
X102487322Y126460219D03*
X104487322Y125460219D03*
X102487322Y124460219D03*
X104487322Y123460219D03*
X102487322Y122460219D03*
X104487322Y121460219D03*
X102487322Y120460219D03*
%TD*%
D15*
%TO.C,R71*%
X167722757Y121815590D03*
X167722757Y120795590D03*
%TD*%
D30*
%TO.C,R42*%
X160475000Y80900000D03*
D31*
X160475000Y80100000D03*
X160475000Y79300000D03*
D30*
X160475000Y78500000D03*
X162275000Y78500000D03*
D31*
X162275000Y79300000D03*
X162275000Y80100000D03*
D30*
X162275000Y80900000D03*
%TD*%
D18*
%TO.C,C25*%
X142490000Y108605000D03*
X142490000Y107645000D03*
%TD*%
D80*
%TO.C,C1*%
X169375000Y19125000D03*
X169375000Y16175000D03*
%TD*%
D19*
%TO.C,J9*%
X74684650Y139449309D03*
D20*
X76684650Y138449309D03*
X74684650Y137449309D03*
X76684650Y136449309D03*
X74684650Y135449309D03*
X76684650Y134449309D03*
X74684650Y133449309D03*
X76684650Y132449309D03*
X74684650Y131449309D03*
X76684650Y130449309D03*
X74684650Y129449309D03*
X76684650Y126449309D03*
X74684650Y125449309D03*
X76684650Y124449309D03*
X74684650Y123449309D03*
X76684650Y122449309D03*
X74684650Y121449309D03*
X76684650Y120449309D03*
D19*
X72184650Y139449309D03*
D20*
X70184650Y138449309D03*
X72184650Y137449309D03*
X70184650Y136449309D03*
X72184650Y135449309D03*
X70184650Y134449309D03*
X72184650Y133449309D03*
X70184650Y132449309D03*
X72184650Y131449309D03*
X70184650Y130449309D03*
X72184650Y129449309D03*
X70184650Y126449309D03*
X72184650Y125449309D03*
X70184650Y124449309D03*
X72184650Y123449309D03*
X70184650Y122449309D03*
X72184650Y121449309D03*
X70184650Y120449309D03*
%TD*%
D38*
%TO.C,JP4*%
X104550000Y144200000D03*
X105850000Y144200000D03*
X107150000Y144200000D03*
%TD*%
D48*
%TO.C,C40*%
X180129204Y120904358D03*
X180129204Y121864358D03*
%TD*%
D17*
%TO.C,R29*%
X127730000Y107790000D03*
X128750000Y107790000D03*
%TD*%
D28*
%TO.C,IC11*%
X56675000Y113900000D03*
X56675000Y114550000D03*
X56675000Y115200000D03*
X54900000Y115200000D03*
X54900000Y114550000D03*
X54900000Y113900000D03*
%TD*%
D29*
%TO.C,C41*%
X184795000Y130415000D03*
X184795000Y125340000D03*
%TD*%
D18*
%TO.C,C33*%
X72125000Y114975000D03*
X72125000Y114015000D03*
%TD*%
D81*
%TO.C,IC24*%
X169500000Y101945000D03*
X169000000Y101945000D03*
X168500000Y101945000D03*
X168000000Y101945000D03*
X167500000Y101945000D03*
X167500000Y99070000D03*
X168000000Y99070000D03*
X168500000Y99070000D03*
X169000000Y99070000D03*
X169500000Y99070000D03*
D82*
X168500000Y100507500D03*
%TD*%
D17*
%TO.C,R6*%
X9440000Y132948750D03*
X10460000Y132948750D03*
%TD*%
D27*
%TO.C,R64*%
X181129204Y120894358D03*
X181129204Y121914358D03*
%TD*%
D17*
%TO.C,R18*%
X160447731Y62458330D03*
X161467731Y62458330D03*
%TD*%
D37*
%TO.C,T3*%
X23900000Y131348750D03*
X23250000Y131348750D03*
X22600000Y131348750D03*
X21950000Y131348750D03*
%TD*%
D27*
%TO.C,R81*%
X186250000Y105300000D03*
X186250000Y106320000D03*
%TD*%
D81*
%TO.C,IC22*%
X188500000Y101747500D03*
X188000000Y101747500D03*
X187500000Y101747500D03*
X187000000Y101747500D03*
X186500000Y101747500D03*
X186500000Y98872500D03*
X187000000Y98872500D03*
X187500000Y98872500D03*
X188000000Y98872500D03*
X188500000Y98872500D03*
D82*
X187500000Y100310000D03*
%TD*%
D28*
%TO.C,IC8*%
X154675000Y114190000D03*
X154675000Y114840000D03*
X154675000Y115490000D03*
X152900000Y115490000D03*
X152900000Y114840000D03*
X152900000Y114190000D03*
%TD*%
D15*
%TO.C,R68*%
X174150000Y115320000D03*
X174150000Y114300000D03*
%TD*%
D12*
%TO.C,IC16*%
X46685000Y111150000D03*
X46685000Y110500000D03*
X46685000Y109850000D03*
X46685000Y109200000D03*
X46685000Y108550000D03*
X46685000Y107900000D03*
X46685000Y107250000D03*
D13*
X47572500Y106362500D03*
X48222500Y106362500D03*
X48872500Y106362500D03*
X49522500Y106362500D03*
X50172500Y106362500D03*
X50822500Y106362500D03*
X51472500Y106362500D03*
D12*
X52360000Y107250000D03*
X52360000Y107900000D03*
X52360000Y108550000D03*
X52360000Y109200000D03*
X52360000Y109850000D03*
X52360000Y110500000D03*
X52360000Y111150000D03*
D13*
X51472500Y112037500D03*
X50822500Y112037500D03*
X50172500Y112037500D03*
X49522500Y112037500D03*
X48872500Y112037500D03*
X48222500Y112037500D03*
X47572500Y112037500D03*
D14*
X49522500Y109200000D03*
%TD*%
D17*
%TO.C,R22*%
X178080000Y10475000D03*
X179100000Y10475000D03*
%TD*%
D49*
%TO.C,C68*%
X130650000Y107800000D03*
X131610000Y107800000D03*
%TD*%
D27*
%TO.C,R52*%
X95300000Y131440000D03*
X95300000Y132460000D03*
%TD*%
%TO.C,R75*%
X189250000Y105300000D03*
X189250000Y106320000D03*
%TD*%
D17*
%TO.C,R14*%
X158499286Y62461197D03*
X159519286Y62461197D03*
%TD*%
D28*
%TO.C,IC5*%
X138587500Y114192500D03*
X138587500Y114842500D03*
X138587500Y115492500D03*
X136812500Y115492500D03*
X136812500Y114842500D03*
X136812500Y114192500D03*
%TD*%
M02*
