M48
; DRILL file {KiCad 9.0.7} date 2026-02-17T10:47:16+0100
; FORMAT={-:-/ absolute / inch / decimal}
; #@! TF.CreationDate,2026-02-17T10:47:16+01:00
; #@! TF.GenerationSoftware,Kicad,Pcbnew,9.0.7
; #@! TF.FileFunction,Plated,1,6,PTH
FMAT,2
INCH
; #@! TA.AperFunction,Plated,PTH,ViaDrill
T1C0.0079
; #@! TA.AperFunction,Plated,PTH,ComponentDrill
T2C0.0079
; #@! TA.AperFunction,Plated,PTH,ViaDrill
T3C0.0098
; #@! TA.AperFunction,Plated,PTH,ViaDrill
T4C0.0118
; #@! TA.AperFunction,Plated,PTH,ComponentDrill
T5C0.0118
; #@! TA.AperFunction,Plated,PTH,ComponentDrill
T6C0.0197
; #@! TA.AperFunction,Plated,PTH,ComponentDrill
T7C0.0236
; #@! TA.AperFunction,Plated,PTH,ComponentDrill
T8C0.0256
; #@! TA.AperFunction,Plated,PTH,ComponentDrill
T9C0.0276
; #@! TA.AperFunction,Plated,PTH,ComponentDrill
T10C0.0350
; #@! TA.AperFunction,Plated,PTH,ComponentDrill
T11C0.0362
; #@! TA.AperFunction,Plated,PTH,ComponentDrill
T12C0.0402
; #@! TA.AperFunction,Plated,PTH,ComponentDrill
T13C0.0642
; #@! TA.AperFunction,Plated,PTH,ComponentDrill
T14C0.0906
; #@! TA.AperFunction,Plated,PTH,ComponentDrill
T15C0.0984
; #@! TA.AperFunction,Plated,PTH,ComponentDrill
T16C0.1260
%
G90
G05
T1
X4.6398Y-3.7224
X4.6398Y-3.7638
X4.6398Y-3.8051
X4.6398Y-3.8445
X4.6398Y-3.8839
X4.6398Y-3.9232
X4.6417Y-3.9626
X4.6417Y-4.002
X4.6575Y-3.4941
X4.7028Y-3.8839
X4.7051Y-3.7224
X4.7559Y-4.0394
X4.7717Y-4.1575
X4.7835Y-4.1181
X4.8256Y-3.8661
X4.8256Y-3.9094
X4.8366Y-3.498
X4.8386Y-4.5157
X4.8484Y-3.8898
X4.8689Y-3.8661
X4.8689Y-3.9094
X4.8937Y-3.9843
X4.9154Y-3.9528
X4.9232Y-3.7461
X4.9705Y-3.4941
X4.9705Y-3.8386
X4.9764Y-3.8878
X5.0157Y-3.8583
X5.0433Y-3.9154
X5.0453Y-3.8878
X5.0551Y-3.7165
X5.0965Y-3.6358
X5.1063Y-4.1496
X5.1063Y-4.4035
X5.1083Y-3.9075
X5.1299Y-3.4941
X5.1299Y-3.9882
X5.1535Y-4.4449
X5.1811Y-3.9547
X5.1831Y-3.4626
X5.1969Y-4.4449
X5.2067Y-3.9547
X5.2087Y-3.4626
X5.2343Y-3.4626
X5.2343Y-3.9547
X5.2382Y-4.4469
X5.2579Y-3.4941
X5.2913Y-3.9075
X5.8041Y-3.3642
X5.8366Y-3.2923
X5.8425Y-4.4331
X5.874Y-4.501
X5.8789Y-3.2392
X5.935Y-3.4311
X6.002Y-4.3947
X6.0256Y-3.2776
X6.0256Y-3.312
X6.0394Y-4.4439
X6.0472Y-4.688
X6.0502Y-4.7264
X6.0571Y-4.4705
X6.061Y-3.3947
X6.0817Y-4.7579
X6.0994Y-4.5
X6.1486Y-3.7526
X6.1741Y-4.8708
X6.1988Y-4.8681
X6.1997Y-4.5
X6.2253Y-4.4705
X6.25Y-4.8228
X6.2766Y-4.4547
X6.3327Y-4.8406
X6.3701Y-4.4862
X6.3711Y-4.4459
X6.4134Y-3.2913
X6.4331Y-3.3642
X6.4547Y-3.2913
X6.4616Y-4.5157
X6.4616Y-4.6437
X6.5Y-4.4331
X6.5089Y-3.2362
X6.5138Y-4.7638
X6.5335Y-4.5285
X6.5335Y-4.6693
X6.5335Y-4.7382
X6.5659Y-3.4311
X6.5699Y-4.4587
X6.6585Y-3.2776
X6.6585Y-3.312
X6.6919Y-3.3947
X6.7283Y-4.6053
X6.7766Y-3.75
X6.9902Y-4.5108
X7.0394Y-3.2933
X7.065Y-3.3642
X7.0945Y-3.2913
X7.1063Y-4.4793
X7.1083Y-4.6339
X7.1093Y-4.4419
X7.1427Y-3.2372
X7.1939Y-3.4311
X7.2667Y-4.4035
X7.2913Y-3.2756
X7.2913Y-3.31
X7.3071Y-4.4528
X7.3199Y-3.3947
X7.3406Y-4.5039
X7.3455Y-4.686
X7.3455Y-4.7254
X7.3799Y-4.4803
X7.3799Y-4.7608
X7.4134Y-3.752
X7.4705Y-5.0157
X7.4952Y-4.5039
X7.4961Y-4.9921
X7.5208Y-4.4783
X7.5719Y-4.8258
X7.622Y-4.8465
X7.6486Y-4.4508
X7.6594Y-4.8209
X7.6909Y-4.4439
X7.6939Y-4.4823
X7.6949Y-3.3642
X7.7234Y-3.2913
X7.7736Y-3.2382
X7.7835Y-4.6407
X7.7854Y-4.5187
X7.8219Y-3.4311
X7.8553Y-4.4016
X7.8553Y-4.5167
X7.8553Y-4.6663
X7.8947Y-4.4567
X7.9281Y-3.2766
X7.9281Y-3.311
X7.9498Y-3.3947
X8.0059Y-4.6988
X8.0118Y-4.8189
X8.0157Y-4.7283
X8.0295Y-4.8602
X8.0531Y-3.7539
X8.1033Y-4.9114
X8.1043Y-4.6713
X8.124Y-4.9291
X8.126Y-4.6555
X8.1467Y-4.6368
X8.1467Y-4.9439
X8.1663Y-4.6181
X8.1663Y-4.9596
X8.187Y-4.5984
X8.2008Y-4.9587
X8.2096Y-4.564
X8.2244Y-4.9439
X8.2352Y-4.5807
X8.2441Y-4.9252
X8.2638Y-4.9065
X8.2893Y-4.5709
X8.3209Y-4.8886
X8.3219Y-4.6858
X8.3219Y-4.8012
X8.3337Y-3.3642
X8.3337Y-4.6319
X8.3466Y-4.4371
X8.3474Y-4.4748
X8.3504Y-4.75
X8.3691Y-3.2923
X8.4114Y-4.7913
X8.4163Y-3.2362
X8.4685Y-3.4311
X8.5551Y-4.4488
X8.5669Y-3.2766
X8.5669Y-3.311
X8.5925Y-3.3947
X8.6142Y-4.7323
X8.6161Y-4.6909
X8.624Y-4.5039
X8.6417Y-4.4764
X8.689Y-3.752
X8.7382Y-5.0157
X8.7653Y-4.5039
X8.7677Y-4.9921
X8.7854Y-4.874
X8.7908Y-4.4783
X8.7992Y-4.8976
X8.813Y-4.9213
X8.8287Y-4.9439
X8.8346Y-4.8612
X8.8957Y-4.8858
X8.9232Y-4.8622
X8.9636Y-3.3642
X8.9724Y-4.4744
X8.9734Y-4.438
X8.9961Y-3.2884
X9.0453Y-3.2333
X9.06Y-4.6455
X9.063Y-4.5148
X9.1004Y-3.4311
X9.1329Y-4.6711
X9.1339Y-4.5148
X9.1762Y-4.4488
X9.1831Y-4.4232
X9.1929Y-3.2736
X9.1929Y-3.3081
X9.2146Y-4.8406
X9.2234Y-3.3947
X9.3189Y-3.752
X9.3287Y-3.5335
X9.3366Y-3.4931
X9.3474Y-3.5866
X9.3898Y-3.4843
X9.4193Y-3.2992
X9.4409Y-3.2736
X9.4724Y-3.2598
X9.5935Y-4.436
X9.5935Y-4.4734
X9.5945Y-3.3642
X9.628Y-3.2884
X9.6772Y-3.2333
X9.688Y-4.5079
X9.7244Y-3.4311
X9.7579Y-4.3986
X9.7992Y-5.2165
X9.8091Y-4.4724
X9.8268Y-3.2746
X9.8268Y-3.3091
X9.8287Y-4.4469
X9.8346Y-5.2165
X9.8504Y-3.3947
X9.8583Y-4.8406
X9.8733Y-4.3574
X9.877Y-4.7313
X9.878Y-4.6919
X9.8799Y-4.3878
X9.9429Y-3.752
X10.03Y-4.5069
X10.0354Y-6.9272
X10.0374Y-6.8996
X10.0394Y-6.872
X10.0433Y-6.8445
X10.0482Y-8.2136
X10.0556Y-4.4734
X10.0689Y-6.8169
X10.0728Y-4.3563
X10.0748Y-4.3858
X10.1063Y-8.1673
X10.1624Y-8.2136
X10.2254Y-3.3671
X10.2254Y-4.436
X10.2254Y-4.4744
X10.2283Y-4.8228
X10.2707Y-3.2884
X10.3179Y-3.2313
X10.3228Y-4.5128
X10.3228Y-4.6476
X10.3504Y-6.2667
X10.3543Y-3.4311
X10.3563Y-7.2638
X10.376Y-6.1102
X10.3819Y-7.2815
X10.3888Y-4.6732
X10.3907Y-4.3947
X10.3907Y-4.5108
X10.3961Y-7.7387
X10.3976Y-7.7638
X10.4075Y-7.3012
X10.4129Y-7.7219
X10.4252Y-3.0315
X10.4252Y-3.065
X10.4311Y-4.4488
X10.435Y-7.3209
X10.438Y-8.1614
X10.439Y-7.7234
X10.4528Y-5.9055
X10.4596Y-7.8789
X10.4606Y-7.3386
X10.4685Y-3.2746
X10.4685Y-3.3091
X10.4753Y-7.8583
X10.4813Y-3.3937
X10.4823Y-7.3583
X10.4843Y-6.5118
X10.4882Y-6.6025
X10.4991Y-7.8583
X10.5Y-6.5551
X10.5039Y-7.378
X10.5138Y-7.878
X10.5157Y-7.9163
X10.5157Y-8.0896
X10.5167Y-7.9783
X10.52Y-3.0307
X10.5217Y-7.8327
X10.5261Y-7.8076
X10.5315Y-7.3976
X10.5344Y-7.8967
X10.5428Y-7.7908
X10.5581Y-7.8967
X10.5689Y-6.2972
X10.5689Y-6.3307
X10.5709Y-5.9331
X10.5709Y-5.9646
X10.5709Y-5.9961
X10.5709Y-6.0276
X10.5709Y-6.0846
X10.5709Y-6.1161
X10.5709Y-6.1476
X10.5709Y-6.1791
X10.5709Y-6.2362
X10.5709Y-6.2677
X10.5709Y-7.7864
X10.5728Y-5.7835
X10.5728Y-5.815
X10.5728Y-5.8465
X10.5728Y-5.878
X10.5768Y-3.0925
X10.5768Y-7.9154
X10.5787Y-3.752
X10.5984Y-6.5571
X10.5984Y-6.6024
X10.6004Y-6.4648
X10.6004Y-6.5095
X10.6339Y-3.0315
X10.6339Y-3.063
X10.6654Y-5.4783
X10.685Y-6.4646
X10.685Y-6.5098
X10.685Y-6.5571
X10.685Y-6.6024
X10.6909Y-4.6555
X10.7306Y-4.045
X10.7323Y-4.6555
X10.7323Y-5.4488
X10.7657Y-5.122
X10.7736Y-4.3189
X10.7874Y-3.6555
X10.7874Y-3.6831
X10.7877Y-3.9643
X10.7877Y-4.1257
X10.7972Y-5.5827
X10.8012Y-5.0295
X10.8189Y-5.7579
X10.8248Y-4.1457
X10.8366Y-4.045
X10.8406Y-5.0315
X10.846Y-5.6122
X10.8465Y-5.7795
X10.8504Y-4.5
X10.8642Y-4.1476
X10.8642Y-4.3209
X10.8858Y-5.1063
X10.8898Y-4.6358
X10.9035Y-4.1457
X10.9035Y-4.5
X10.9075Y-8.2156
X10.9218Y-4.6352
X10.9232Y-5.6201
X10.9449Y-5.2067
X10.9646Y-4.6122
X10.9685Y-8.1673
X10.9843Y-5.1969
X11.002Y-5.5787
X11.0031Y-4.6129
X11.0197Y-5.2431
X11.0285Y-8.2165
X11.0295Y-4.3169
X11.0335Y-5.1063
X11.0344Y-8.7165
X11.0357Y-4.0391
X11.0787Y-4.1437
X11.0925Y-3.6457
X11.0925Y-3.6752
X11.0925Y-5.9882
X11.0925Y-8.6673
X11.0928Y-3.9584
X11.0928Y-4.1198
X11.1024Y-4.9823
X11.1063Y-4.498
X11.1161Y-6.0669
X11.1181Y-6.1083
X11.1181Y-6.1476
X11.1201Y-4.1437
X11.1201Y-4.3228
X11.128Y-5.5315
X11.1417Y-4.0391
X11.1437Y-4.9803
X11.1555Y-5.5531
X11.1575Y-4.498
X11.1614Y-4.1437
X11.1811Y-7.5856
X11.187Y-5.0295
X11.2067Y-8.5571
X11.2244Y-5.0295
X11.2283Y-7.6604
X11.2313Y-6.6122
X11.2321Y-8.5904
X11.2323Y-8.248
X11.2323Y-8.5295
X11.248Y-6.5886
X11.2569Y-7.3435
X11.2579Y-7.2933
X11.2579Y-7.3189
X11.2628Y-6.5581
X11.2699Y-8.5274
X11.2717Y-3.0354
X11.2717Y-3.0689
X11.2736Y-8.5984
X11.2785Y-3.7215
X11.2795Y-3.6201
X11.2913Y-7.5591
X11.2913Y-7.6831
X11.2923Y-7.2648
X11.2923Y-7.3671
X11.2963Y-8.501
X11.3209Y-7.2628
X11.3268Y-3.0984
X11.3406Y-7.374
X11.3437Y-4.3164
X11.3504Y-7.6831
X11.3514Y-7.5591
X11.3524Y-8.5561
X11.3602Y-8.3917
X11.3602Y-8.4577
X11.3759Y-8.4272
X11.3759Y-8.7854
X11.3858Y-3.0984
X11.3917Y-4.9902
X11.3929Y-4.1431
X11.3997Y-8.4272
X11.3997Y-8.7854
X11.4016Y-6.4744
X11.4134Y-8.2362
X11.4154Y-8.4577
X11.4163Y-8.3917
X11.4173Y-6.5138
X11.4272Y-8.5561
X11.4303Y-4.5014
X11.4311Y-4.9902
X11.4323Y-4.1431
X11.4323Y-4.3183
X11.439Y-7.376
X11.4409Y-3.0354
X11.4409Y-3.0689
X11.4409Y-7.689
X11.4587Y-6.8051
X11.4606Y-8.1417
X11.4646Y-7.7126
X11.4685Y-8.6024
X11.4716Y-4.1431
X11.4744Y-5.0354
X11.4764Y-8.4931
X11.4783Y-6.7343
X11.4815Y-4.5014
X11.4843Y-7.7362
X11.4892Y-8.5817
X11.498Y-6.7539
X11.5069Y-7.7165
X11.5079Y-8.5217
X11.5118Y-5.0354
X11.5177Y-6.7736
X11.5197Y-4.0334
X11.5265Y-7.6969
X11.5276Y-8.2736
X11.5295Y-8.1398
X11.5374Y-6.7933
X11.5404Y-5.2717
X11.5453Y-8.5236
X11.5455Y-8.5904
X11.5571Y-6.815
X11.5591Y-7.6811
X11.56Y-8.1663
X11.5748Y-3.6476
X11.5748Y-3.6732
X11.5768Y-3.9528
X11.5768Y-4.1142
X11.5768Y-7.2628
X11.5807Y-8.5531
X11.5846Y-7.6772
X11.5925Y-6.5689
X11.5945Y-8.2461
X11.5965Y-7.375
X11.6053Y-7.6929
X11.6098Y-7.3972
X11.6151Y-6.628
X11.6257Y-4.0335
X11.626Y-7.874
X11.6427Y-6.6024
X11.6457Y-7.8524
X11.6457Y-8.6703
X11.6516Y-5.1654
X11.6654Y-7.8386
X11.6811Y-5.1988
X11.685Y-7.8228
X11.7028Y-8.7175
X11.7047Y-7.8071
X11.7244Y-7.7913
X11.7441Y-7.7756
X11.748Y-8.686
X11.7638Y-7.4685
X11.7638Y-7.7598
X11.7756Y-7.4409
X11.7795Y-8.7185
X11.7805Y-5.1142
X11.7815Y-5.0226
X11.7864Y-8.7717
X11.7913Y-6.4173
X11.7913Y-7.6909
X11.7933Y-7.375
X11.7992Y-7.189
X11.8031Y-7.4055
X11.8071Y-7.4921
X11.8228Y-7.5197
X11.8346Y-6.3996
X11.8346Y-7.1772
X11.8447Y-4.0371
X11.8504Y-4.9921
X11.8543Y-7.5512
X11.8622Y-7.2598
X11.874Y-7.5354
X11.8819Y-7.3661
X11.8898Y-4.9902
X11.8996Y-3.6417
X11.8996Y-3.6811
X11.9016Y-7.2598
X11.9016Y-7.6919
X11.9018Y-3.9564
X11.9018Y-4.1179
X11.9134Y-7.5394
X11.9291Y-5.0433
X11.9331Y-7.5197
X11.9508Y-4.0371
X11.9508Y-6.3484
X11.9567Y-7.5
X11.9685Y-5.0413
X11.9695Y-6.3701
X11.9803Y-7.4803
X11.9842Y-4.3056
X11.9902Y-7.374
X12.001Y-7.6919
X12.0334Y-4.1402
X12.0433Y-7.6594
X12.0443Y-7.5128
X12.0609Y-4.4926
X12.0728Y-4.1402
X12.0728Y-4.3174
X12.0886Y-7.5856
X12.1014Y-3.7165
X12.1024Y-3.622
X12.1121Y-4.1402
X12.1121Y-4.4926
T2
X10.8986Y-4.9903
X10.8986Y-5.0328
X10.935Y-4.9903
X10.935Y-5.0328
X10.9715Y-4.9903
X10.9715Y-5.0328
X11.6467Y-4.998
X11.6467Y-5.0406
X11.6831Y-4.998
X11.6831Y-5.0406
X11.7195Y-4.998
X11.7195Y-5.0406
T3
X10.7283Y-3.5039
X10.7283Y-3.5433
X10.7283Y-3.5827
X10.7677Y-3.5039
X10.7677Y-3.5433
X10.7677Y-3.5827
X10.8071Y-3.5039
X10.8071Y-3.5433
X10.8071Y-3.5827
X10.8465Y-3.5039
X10.8465Y-3.5433
X10.8465Y-3.5827
X10.8858Y-3.5039
X10.8858Y-3.5433
X10.8858Y-3.5827
X10.9843Y-3.5433
X10.9843Y-3.5827
X11.0236Y-3.5433
X11.0236Y-3.5827
X11.063Y-3.5433
X11.063Y-3.5827
X11.1024Y-3.5433
X11.1024Y-3.5827
X11.1417Y-3.5433
X11.1417Y-3.5827
X11.1811Y-3.5433
X11.1811Y-3.5827
X11.5551Y-3.5039
X11.5551Y-3.5433
X11.5551Y-3.5827
X11.5945Y-3.5039
X11.5945Y-3.5433
X11.5945Y-3.5827
X11.6339Y-3.5039
X11.6339Y-3.5433
X11.6339Y-3.5827
X11.6732Y-3.5039
X11.6732Y-3.5433
X11.6732Y-3.5827
X11.7126Y-3.5039
X11.7126Y-3.5433
X11.7126Y-3.5827
X11.811Y-3.5433
X11.811Y-3.5827
X11.8504Y-3.5433
X11.8504Y-3.5827
X11.8898Y-3.5433
X11.8898Y-3.5827
X11.9291Y-3.5433
X11.9291Y-3.5827
X11.9685Y-3.5433
X11.9685Y-3.5827
X12.0079Y-3.5433
X12.0079Y-3.5827
T4
X4.9685Y-4.0276
X5.1575Y-3.7106
X5.1575Y-3.75
X5.1575Y-3.7894
X5.1575Y-3.8287
X5.1575Y-4.2126
X5.1575Y-4.252
X5.1575Y-4.2913
X5.1575Y-4.3307
X5.1969Y-3.7106
X5.1969Y-3.75
X5.1969Y-3.7894
X5.1969Y-3.8287
X5.1969Y-4.2126
X5.1969Y-4.252
X5.1969Y-4.2913
X5.1969Y-4.3307
X5.2362Y-3.7106
X5.2362Y-3.75
X5.2362Y-3.7894
X5.2362Y-3.8287
X5.2362Y-4.2126
X5.2362Y-4.252
X5.2362Y-4.2913
X5.2362Y-4.3307
X5.2992Y-4.2953
X5.2992Y-4.3346
X5.2992Y-4.374
X5.3012Y-3.1299
X5.3012Y-3.1693
X5.3012Y-3.2087
X5.3386Y-4.2953
X5.3386Y-4.3346
X5.3386Y-4.374
X5.3406Y-3.1299
X5.3406Y-3.1693
X5.3406Y-3.2087
X5.378Y-4.2953
X5.378Y-4.3346
X5.378Y-4.374
X5.3799Y-3.1299
X5.3799Y-3.1693
X5.3799Y-3.2087
X5.4961Y-3.1299
X5.4961Y-3.1693
X5.4961Y-3.2087
X5.5118Y-3.3071
X5.5118Y-3.3465
X5.5118Y-3.3858
X5.5118Y-3.4252
X5.5118Y-3.4646
X5.5118Y-3.5039
X5.5118Y-3.5433
X5.5118Y-3.5827
X5.5118Y-3.622
X5.5118Y-3.6614
X5.5118Y-3.7008
X5.5118Y-3.7402
X5.5118Y-3.9764
X5.5118Y-4.0157
X5.5118Y-4.0551
X5.5118Y-4.0945
X5.5118Y-4.1339
X5.5118Y-4.1732
X5.5118Y-4.2126
X5.5118Y-4.252
X5.5118Y-4.2913
X5.5118Y-4.3307
X5.5118Y-4.3701
X5.5118Y-4.4094
X5.5354Y-3.1299
X5.5354Y-3.1693
X5.5354Y-3.2087
X5.5512Y-3.3071
X5.5512Y-3.3465
X5.5512Y-3.3858
X5.5512Y-3.4252
X5.5512Y-3.4646
X5.5512Y-3.5039
X5.5512Y-3.5433
X5.5512Y-3.5827
X5.5512Y-3.622
X5.5512Y-3.6614
X5.5512Y-3.7008
X5.5512Y-3.7402
X5.5512Y-3.9764
X5.5512Y-4.0157
X5.5512Y-4.0551
X5.5512Y-4.0945
X5.5512Y-4.1339
X5.5512Y-4.1732
X5.5512Y-4.2126
X5.5512Y-4.252
X5.5512Y-4.2913
X5.5512Y-4.3307
X5.5512Y-4.3701
X5.5512Y-4.4094
X5.5748Y-3.1299
X5.5748Y-3.1693
X5.5748Y-3.2087
X5.5906Y-3.3071
X5.5906Y-3.3465
X5.5906Y-3.3858
X5.5906Y-3.4252
X5.5906Y-3.4646
X5.5906Y-3.5039
X5.5906Y-3.5433
X5.5906Y-3.5827
X5.5906Y-3.622
X5.5906Y-3.6614
X5.5906Y-3.7008
X5.5906Y-3.7402
X5.5906Y-3.9764
X5.5906Y-4.0157
X5.5906Y-4.0551
X5.5906Y-4.0945
X5.5906Y-4.1339
X5.5906Y-4.1732
X5.5906Y-4.2126
X5.5906Y-4.252
X5.5906Y-4.2913
X5.5906Y-4.3307
X5.5906Y-4.3701
X5.5906Y-4.4094
X5.6299Y-3.3071
X5.6299Y-3.3465
X5.6299Y-3.3858
X5.6299Y-3.4252
X5.6299Y-3.4646
X5.6299Y-3.5039
X5.6299Y-3.5433
X5.6299Y-3.5827
X5.6299Y-3.622
X5.6299Y-3.6614
X5.6299Y-3.7008
X5.6299Y-3.7402
X5.6299Y-3.9764
X5.6299Y-4.0157
X5.6299Y-4.0551
X5.6299Y-4.0945
X5.6299Y-4.1339
X5.6299Y-4.1732
X5.6299Y-4.2126
X5.6299Y-4.252
X5.6299Y-4.2913
X5.6299Y-4.3307
X5.6299Y-4.3701
X5.6299Y-4.4094
X10.2953Y-3.1693
X10.5512Y-3.1299
X10.5512Y-3.1693
X10.5512Y-3.2087
X10.5512Y-3.248
X10.5512Y-3.2874
X10.5512Y-3.3268
X10.5906Y-3.1299
X10.5906Y-3.1693
X10.5906Y-3.2087
X10.5906Y-3.248
X10.5906Y-3.2874
X10.5906Y-3.3268
X10.689Y-4.3671
X10.689Y-4.4094
X10.689Y-4.4488
X10.9646Y-4.3701
X10.9646Y-4.4094
X10.9646Y-4.4488
X11.2992Y-4.3898
X11.2992Y-4.4291
X11.2992Y-4.4685
X11.6683Y-4.0748
X11.6979Y-4.0748
X11.9291Y-4.3898
X11.9291Y-4.4291
X11.9291Y-4.4685
T5
X6.1948Y-4.6132
X6.1948Y-4.6506
X6.1948Y-4.688
X6.1948Y-4.7254
X6.2322Y-4.6132
X6.2322Y-4.6506
X6.2322Y-4.688
X6.2322Y-4.7254
X6.2696Y-4.6132
X6.2696Y-4.6506
X6.2696Y-4.688
X6.2696Y-4.7254
X6.307Y-4.6132
X6.307Y-4.6506
X6.307Y-4.688
X6.307Y-4.7254
X7.4903Y-4.6102
X7.4903Y-4.6476
X7.4903Y-4.685
X7.4903Y-4.7224
X7.5277Y-4.6102
X7.5277Y-4.6476
X7.5277Y-4.685
X7.5277Y-4.7224
X7.5651Y-4.6102
X7.5651Y-4.6476
X7.5651Y-4.685
X7.5651Y-4.7224
X7.6025Y-4.6102
X7.6025Y-4.6476
X7.6025Y-4.685
X7.6025Y-4.7224
X8.125Y-4.7695
X8.125Y-4.8089
X8.1644Y-4.7695
X8.1644Y-4.8089
X8.2037Y-4.7695
X8.2037Y-4.8089
X8.7603Y-4.615
X8.7603Y-4.6524
X8.7603Y-4.6898
X8.7603Y-4.7272
X8.7977Y-4.615
X8.7977Y-4.6524
X8.7977Y-4.6898
X8.7977Y-4.7272
X8.8351Y-4.615
X8.8351Y-4.6524
X8.8351Y-4.6898
X8.8351Y-4.7272
X8.8725Y-4.615
X8.8725Y-4.6524
X8.8725Y-4.6898
X8.8725Y-4.7272
X10.0251Y-4.6171
X10.0251Y-4.6545
X10.0251Y-4.6919
X10.0251Y-4.7293
X10.0625Y-4.6171
X10.0625Y-4.6545
X10.0625Y-4.6919
X10.0625Y-4.7293
X10.0999Y-4.6171
X10.0999Y-4.6545
X10.0999Y-4.6919
X10.0999Y-4.7293
X10.1373Y-4.6171
X10.1373Y-4.6545
X10.1373Y-4.6919
X10.1373Y-4.7293
X10.841Y-5.4094
X10.841Y-5.4469
X10.841Y-5.4843
X10.841Y-5.5217
X10.8784Y-5.4094
X10.8784Y-5.4469
X10.8784Y-5.4843
X10.8784Y-5.5217
X10.9158Y-5.4094
X10.9158Y-5.4469
X10.9158Y-5.4843
X10.9158Y-5.5217
X10.9532Y-5.4094
X10.9532Y-5.4469
X10.9532Y-5.4843
X10.9532Y-5.5217
T6
X4.4605Y-3.0983
X4.4616Y-4.9734
X4.4882Y-3.0315
X4.4882Y-3.1651
X4.4893Y-4.9066
X4.4893Y-5.0402
X4.555Y-3.0038
X4.555Y-3.1928
X4.5561Y-4.8789
X4.5561Y-5.0679
X4.6218Y-3.0315
X4.6218Y-3.1651
X4.6229Y-4.9066
X4.6229Y-5.0402
X4.6495Y-3.0983
X4.6506Y-4.9734
X9.7755Y-8.7184
X9.8031Y-8.6516
X9.8031Y-8.7852
X9.87Y-8.6239
X9.87Y-8.8129
X9.9368Y-8.6516
X9.9368Y-8.7852
X9.9645Y-8.7184
X12.1102Y-3.0709
X12.1102Y-8.7303
X12.1379Y-3.0041
X12.1379Y-3.1377
X12.1379Y-8.6635
X12.1379Y-8.7971
X12.2047Y-2.9764
X12.2047Y-3.1654
X12.2047Y-8.6358
X12.2047Y-8.8248
X12.2715Y-3.0041
X12.2715Y-3.1377
X12.2715Y-8.6635
X12.2715Y-8.7971
X12.2992Y-3.0709
X12.2992Y-8.7303
T8
X10.4606Y-5.4173
X10.4606Y-5.5433
X10.4606Y-5.6693
X10.4618Y-4.7874
X10.4618Y-4.9134
X10.4618Y-5.0394
X10.4618Y-5.1654
X10.4618Y-5.2913
X10.5106Y-5.4173
X10.5106Y-5.5433
X10.5106Y-5.6693
X10.5118Y-4.7874
X10.5118Y-4.9134
X10.5118Y-5.0394
X10.5118Y-5.1654
X10.5118Y-5.2913
T9
X5.8045Y-3.5177
X5.8045Y-3.5965
X5.8045Y-3.6752
X5.8045Y-3.754
X5.8045Y-3.8327
X5.8045Y-3.9902
X5.8045Y-4.0689
X5.8045Y-4.1477
X5.8045Y-4.2264
X5.8833Y-3.4784
X5.8833Y-3.5571
X5.8833Y-3.6359
X5.8833Y-3.7146
X5.8833Y-3.7933
X5.8833Y-3.8721
X5.8833Y-4.0296
X5.8833Y-4.1083
X5.8833Y-4.187
X5.9817Y-3.4784
X5.9817Y-3.5571
X5.9817Y-3.6359
X5.9817Y-3.7146
X5.9817Y-3.7933
X5.9817Y-3.8721
X5.9817Y-4.0296
X5.9817Y-4.1083
X5.9817Y-4.187
X6.0604Y-3.5177
X6.0604Y-3.5965
X6.0604Y-3.6752
X6.0604Y-3.754
X6.0604Y-3.8327
X6.0604Y-3.9902
X6.0604Y-4.0689
X6.0604Y-4.1477
X6.0604Y-4.2264
X6.4344Y-3.5177
X6.4344Y-3.5965
X6.4344Y-3.6752
X6.4344Y-3.754
X6.4344Y-3.8327
X6.4344Y-3.9902
X6.4344Y-4.0689
X6.4344Y-4.1477
X6.4344Y-4.2264
X6.5132Y-3.4784
X6.5132Y-3.5571
X6.5132Y-3.6359
X6.5132Y-3.7146
X6.5132Y-3.7933
X6.5132Y-3.8721
X6.5132Y-4.0296
X6.5132Y-4.1083
X6.5132Y-4.187
X6.6116Y-3.4784
X6.6116Y-3.5571
X6.6116Y-3.6359
X6.6116Y-3.7146
X6.6116Y-3.7933
X6.6116Y-3.8721
X6.6116Y-4.0296
X6.6116Y-4.1083
X6.6116Y-4.187
X6.6903Y-3.5177
X6.6903Y-3.5965
X6.6903Y-3.6752
X6.6903Y-3.754
X6.6903Y-3.8327
X6.6903Y-3.9902
X6.6903Y-4.0689
X6.6903Y-4.1477
X6.6903Y-4.2264
X7.0644Y-3.5177
X7.0644Y-3.5965
X7.0644Y-3.6752
X7.0644Y-3.754
X7.0644Y-3.8327
X7.0644Y-3.9902
X7.0644Y-4.0689
X7.0644Y-4.1477
X7.0644Y-4.2264
X7.1431Y-3.4784
X7.1431Y-3.5571
X7.1431Y-3.6359
X7.1431Y-3.7146
X7.1431Y-3.7933
X7.1431Y-3.8721
X7.1431Y-4.0296
X7.1431Y-4.1083
X7.1431Y-4.187
X7.2415Y-3.4784
X7.2415Y-3.5571
X7.2415Y-3.6359
X7.2415Y-3.7146
X7.2415Y-3.7933
X7.2415Y-3.8721
X7.2415Y-4.0296
X7.2415Y-4.1083
X7.2415Y-4.187
X7.3203Y-3.5177
X7.3203Y-3.5965
X7.3203Y-3.6752
X7.3203Y-3.754
X7.3203Y-3.8327
X7.3203Y-3.9902
X7.3203Y-4.0689
X7.3203Y-4.1477
X7.3203Y-4.2264
X7.6947Y-3.5177
X7.6947Y-3.5965
X7.6947Y-3.6752
X7.6947Y-3.754
X7.6947Y-3.8327
X7.6947Y-3.9902
X7.6947Y-4.0689
X7.6947Y-4.1477
X7.6947Y-4.2264
X7.7734Y-3.4784
X7.7734Y-3.5571
X7.7734Y-3.6359
X7.7734Y-3.7146
X7.7734Y-3.7933
X7.7734Y-3.8721
X7.7734Y-4.0296
X7.7734Y-4.1083
X7.7734Y-4.187
X7.8718Y-3.4784
X7.8718Y-3.5571
X7.8718Y-3.6359
X7.8718Y-3.7146
X7.8718Y-3.7933
X7.8718Y-3.8721
X7.8718Y-4.0296
X7.8718Y-4.1083
X7.8718Y-4.187
X7.9506Y-3.5177
X7.9506Y-3.5965
X7.9506Y-3.6752
X7.9506Y-3.754
X7.9506Y-3.8327
X7.9506Y-3.9902
X7.9506Y-4.0689
X7.9506Y-4.1477
X7.9506Y-4.2264
X8.3361Y-3.5173
X8.3361Y-3.5961
X8.3361Y-3.6748
X8.3361Y-3.7535
X8.3361Y-3.8323
X8.3361Y-3.9898
X8.3361Y-4.0685
X8.3361Y-4.1472
X8.3361Y-4.226
X8.4149Y-3.4779
X8.4149Y-3.5567
X8.4149Y-3.6354
X8.4149Y-3.7142
X8.4149Y-3.7929
X8.4149Y-3.8716
X8.4149Y-4.0291
X8.4149Y-4.1079
X8.4149Y-4.1866
X8.5133Y-3.4779
X8.5133Y-3.5567
X8.5133Y-3.6354
X8.5133Y-3.7142
X8.5133Y-3.7929
X8.5133Y-3.8716
X8.5133Y-4.0291
X8.5133Y-4.1079
X8.5133Y-4.1866
X8.592Y-3.5173
X8.592Y-3.5961
X8.592Y-3.6748
X8.592Y-3.7535
X8.592Y-3.8323
X8.592Y-3.9898
X8.592Y-4.0685
X8.592Y-4.1472
X8.592Y-4.226
X8.966Y-3.5173
X8.966Y-3.5961
X8.966Y-3.6748
X8.966Y-3.7535
X8.966Y-3.8323
X8.966Y-3.9898
X8.966Y-4.0685
X8.966Y-4.1472
X8.966Y-4.226
X9.0448Y-3.4779
X9.0448Y-3.5567
X9.0448Y-3.6354
X9.0448Y-3.7142
X9.0448Y-3.7929
X9.0448Y-3.8716
X9.0448Y-4.0291
X9.0448Y-4.1079
X9.0448Y-4.1866
X9.1432Y-3.4779
X9.1432Y-3.5567
X9.1432Y-3.6354
X9.1432Y-3.7142
X9.1432Y-3.7929
X9.1432Y-3.8716
X9.1432Y-4.0291
X9.1432Y-4.1079
X9.1432Y-4.1866
X9.2219Y-3.5173
X9.2219Y-3.5961
X9.2219Y-3.6748
X9.2219Y-3.7535
X9.2219Y-3.8323
X9.2219Y-3.9898
X9.2219Y-4.0685
X9.2219Y-4.1472
X9.2219Y-4.226
X9.596Y-3.5173
X9.596Y-3.5961
X9.596Y-3.6748
X9.596Y-3.7535
X9.596Y-3.8323
X9.596Y-3.9898
X9.596Y-4.0685
X9.596Y-4.1472
X9.596Y-4.226
X9.6747Y-3.4779
X9.6747Y-3.5567
X9.6747Y-3.6354
X9.6747Y-3.7142
X9.6747Y-3.7929
X9.6747Y-3.8716
X9.6747Y-4.0291
X9.6747Y-4.1079
X9.6747Y-4.1866
X9.7731Y-3.4779
X9.7731Y-3.5567
X9.7731Y-3.6354
X9.7731Y-3.7142
X9.7731Y-3.7929
X9.7731Y-3.8716
X9.7731Y-4.0291
X9.7731Y-4.1079
X9.7731Y-4.1866
X9.8519Y-3.5173
X9.8519Y-3.5961
X9.8519Y-3.6748
X9.8519Y-3.7535
X9.8519Y-3.8323
X9.8519Y-3.9898
X9.8519Y-4.0685
X9.8519Y-4.1472
X9.8519Y-4.226
X10.2259Y-3.5173
X10.2259Y-3.5961
X10.2259Y-3.6748
X10.2259Y-3.7535
X10.2259Y-3.8323
X10.2259Y-3.9898
X10.2259Y-4.0685
X10.2259Y-4.1472
X10.2259Y-4.226
X10.3046Y-3.4779
X10.3046Y-3.5567
X10.3046Y-3.6354
X10.3046Y-3.7142
X10.3046Y-3.7929
X10.3046Y-3.8716
X10.3046Y-4.0291
X10.3046Y-4.1079
X10.3046Y-4.1866
X10.403Y-3.4779
X10.403Y-3.5567
X10.403Y-3.6354
X10.403Y-3.7142
X10.403Y-3.7929
X10.403Y-3.8716
X10.403Y-4.0291
X10.403Y-4.1079
X10.403Y-4.1866
X10.4818Y-3.5173
X10.4818Y-3.5961
X10.4818Y-3.6748
X10.4818Y-3.7535
X10.4818Y-3.8323
X10.4818Y-3.9898
X10.4818Y-4.0685
X10.4818Y-4.1472
X10.4818Y-4.226
T10
X10.3606Y-8.3199
X10.4106Y-8.2199
X10.4606Y-8.3199
X10.5106Y-8.2199
X10.5606Y-8.3199
X10.6106Y-8.2199
X10.6606Y-8.3199
X10.7106Y-8.2199
T11
X10.8071Y-3.3071
X10.8071Y-3.4102
X10.9055Y-3.3071
X10.9055Y-3.4102
X10.9843Y-3.3071
X10.9843Y-3.4102
X11.0827Y-3.3071
X11.0827Y-3.4102
X11.6169Y-3.3071
X11.6169Y-3.4102
X11.7154Y-3.3071
X11.7154Y-3.4102
X11.7941Y-3.3071
X11.7941Y-3.4102
X11.8925Y-3.3071
X11.8925Y-3.4102
T12
X10.275Y-8.7628
X10.375Y-8.7628
X10.6967Y-8.7628
X10.7967Y-8.7628
T13
X10.2309Y-8.4498
X10.8407Y-8.4498
T14
X10.6862Y-3.2004
X10.6862Y-3.424
X11.2035Y-3.2004
X11.2035Y-3.424
X11.4961Y-3.2004
X11.4961Y-3.424
X12.0134Y-3.2004
X12.0134Y-3.424
T15
X11.6379Y-4.3022
T16
X4.555Y-3.0983
X4.5561Y-4.9734
X9.87Y-8.7184
X12.2047Y-3.0709
X12.2047Y-8.7303
T7
G00X11.198Y-8.6465
M15
G01X11.198Y-8.6898
M16
G05
G00X11.198Y-8.8209
M15
G01X11.198Y-8.8445
M16
G05
G00X11.5382Y-8.6465
M15
G01X11.5382Y-8.6898
M16
G05
G00X11.5382Y-8.8209
M15
G01X11.5382Y-8.8445
M16
G05
M30
