0
SECTION
2
HEADER
9
$INSUNITS
70
4
9
$ACADVER
1
AC1014
9
$HANDSEED
5
FFFF
0
ENDSEC
0
SECTION
2
TABLES
0
TABLE
2
VPORT
5
8
100
AcDbSymbolTable
0
ENDTAB
0
TABLE
2
LTYPE
5
5
100
AcDbSymbolTable
0
LTYPE
5
14
100
AcDbSymbolTableRecord
100
AcDbLinetypeTableRecord
2
BYBLOCK
70
0
0
LTYPE
5
15
100
AcDbSymbolTableRecord
100
AcDbLinetypeTableRecord
2
BYLAYER
70
0
0
LTYPE
5
16
100
AcDbSymbolTableRecord
100
AcDbLinetypeTableRecord
2
DASHED
70
0
3
Dashed __ __ __ __ __ __ __ __ __ __ __ __ __ _
72
65
73
2
40
0.75
49
0.5
74
0
49
-0.25
74
0
0
ENDTAB
0
TABLE
2
LAYER
5
2
100
AcDbSymbolTable
70
2
0
LAYER
5
50
100
AcDbSymbolTableRecord
100
AcDbLayerTableRecord
2
0
70
0
62
7
6
CONTINUOUS
0
ENDTAB
0
TABLE
2
STYLE
5
3
100
AcDbSymbolTable
70
1
0
STYLE
5
11
100
AcDbSymbolTableRecord
100
AcDbTextStyleTableRecord
2
STANDARD
70
0
0
ENDTAB
0
TABLE
2
VIEW
5
6
100
AcDbSymbolTable
70
0
0
ENDTAB
0
TABLE
2
UCS
5
7
100
AcDbSymbolTable
70
0
0
ENDTAB
0
TABLE
2
APPID
5
9
100
AcDbSymbolTable
70
2
0
APPID
5
12
100
AcDbSymbolTableRecord
100
AcDbRegAppTableRecord
2
ACAD
70
0
0
ENDTAB
0
TABLE
2
DIMSTYLE
5
A
100
AcDbSymbolTable
70
1
0
ENDTAB
0
TABLE
2
BLOCK_RECORD
5
1
100
AcDbSymbolTable
70
1
0
BLOCK_RECORD
5
1F
100
AcDbSymbolTableRecord
100
AcDbBlockTableRecord
2
*MODEL_SPACE
0
BLOCK_RECORD
5
1B
100
AcDbSymbolTableRecord
100
AcDbBlockTableRecord
2
*PAPER_SPACE
0
ENDTAB
0
ENDSEC
0
SECTION
2
BLOCKS
0
BLOCK
5
20
100
AcDbEntity
100
AcDbBlockBegin
2
*MODEL_SPACE
0
ENDBLK
5
21
100
AcDbEntity
100
AcDbBlockEnd
0
BLOCK
5
1C
100
AcDbEntity
100
AcDbBlockBegin
2
*PAPER_SPACE
0
ENDBLK
5
1D
100
AcDbEntity
100
AcDbBlockEnd
0
ENDSEC
0
SECTION
2
ENTITIES
0
LWPOLYLINE
5
100
100
AcDbEntity
8
0
100
AcDbPolyline
90
14
70
1
43
0.0
10
72.999999999999943
20
-49.700000000000188
10
73.999999999999929
20
-49.700000000000188
42
0.41421356237309503
10
74.999999999999929
20
-48.700000000000188
10
74.999999999999929
20
48.699999999999832
42
0.41421356237309243
10
73.999999999999929
20
49.699999999999832
10
72.999999999999943
20
49.699999999999818
42
0.41421356237309503
10
71.999999999999943
20
48.699999999999825
10
71.999999999999929
20
48.399999999999814
10
70.999999999999929
20
48.399999999999821
10
-63.500000000000092
20
48.399999999999814
10
-63.500000000000085
20
-48.400000000000183
10
70.999999999999943
20
-48.400000000000176
10
71.999999999999929
20
-48.400000000000176
10
71.999999999999929
20
-48.700000000000188
42
0.41421356237309503
0
LWPOLYLINE
5
101
100
AcDbEntity
8
0
100
AcDbPolyline
90
6
70
1
43
0.0
10
-37.500000000000071
20
21.999999999999819
10
-37.500000000000071
20
26.999999999999819
10
-42.500000000000071
20
26.999999999999819
10
-42.500000000000071
20
27.499999999999822
10
-37.000000000000071
20
27.499999999999822
10
-37.000000000000071
20
21.999999999999819
0
CIRCLE
5
102
100
AcDbEntity
8
0
100
AcDbCircle
10
-24.400000000000055
20
13.699999999999834
30
0
40
2.5000000000000022
210
0
220
0
230
1
0
CIRCLE
5
103
100
AcDbEntity
8
0
100
AcDbCircle
10
-24.400000000000052
20
41.699999999999832
30
0
40
2.4999999999999991
210
0
220
0
230
1
0
LWPOLYLINE
5
104
100
AcDbEntity
8
0
100
AcDbPolyline
90
48
70
1
43
0.0
10
47.999999999999929
20
49.699999999999818
10
-47.80000000000009
20
49.699999999999818
10
-48.800000000000097
20
49.699999999999847
10
-63.80000000000009
20
49.699999999999861
10
-64.800000000000082
20
49.699999999999847
10
-64.800000000000097
20
48.899999999999849
10
-63.80000000000009
20
48.899999999999849
10
-63.500000000000085
20
48.899999999999807
10
-63.500000000000085
20
48.399999999999814
10
-64.000000000000085
20
48.399999999999814
10
-64.800000000000082
20
48.399999999999821
10
-64.800000000000082
20
47.399999999999814
10
-64.800000000000082
20
-47.40000000000019
10
-64.800000000000082
20
-48.400000000000176
10
-64.000000000000085
20
-48.400000000000176
10
-63.500000000000085
20
-48.400000000000176
10
-63.500000000000085
20
-48.900000000000176
10
-63.80000000000009
20
-48.900000000000219
10
-64.800000000000097
20
-48.900000000000219
10
-64.800000000000097
20
-49.700000000000216
10
-63.80000000000009
20
-49.700000000000216
10
-48.800000000000097
20
-49.70000000000023
10
-47.800000000000082
20
-49.700000000000202
10
47.999999999999936
20
-49.700000000000202
10
48.999999999999929
20
-49.700000000000216
10
56.499999999999929
20
-49.70000000000023
10
57.499999999999936
20
-49.700000000000202
10
69.999999999999929
20
-49.700000000000202
10
70.999999999999929
20
-49.700000000000195
10
70.999999999999929
20
-48.900000000000176
10
70.999999999999943
20
-48.399999999999935
10
71.999999999999929
20
-48.399999999999935
10
71.999999999999943
20
-48.700000000000188
42
0.41421356237309503
10
72.999999999999943
20
-49.700000000000188
10
73.999999999999929
20
-49.700000000000188
42
0.41421356237309503
10
74.999999999999929
20
-48.700000000000188
10
74.999999999999929
20
48.699999999999818
42
0.41421356237310025
10
73.999999999999929
20
49.699999999999818
10
72.999999999999943
20
49.699999999999832
42
0.41421356237309764
10
71.999999999999929
20
48.699999999999825
10
71.999999999999929
20
48.399999999999814
10
70.999999999999929
20
48.399999999999814
10
70.999999999999929
20
48.899999999999807
10
70.999999999999929
20
49.699999999999811
10
69.999999999999929
20
49.699999999999811
10
57.499999999999936
20
49.699999999999818
10
56.499999999999929
20
49.699999999999847
10
48.999999999999929
20
49.699999999999861
0
CIRCLE
5
105
100
AcDbEntity
8
0
100
AcDbCircle
10
-24.400000000000052
20
41.699999999999832
30
0
40
1.4500000000000028
210
-0
220
0
230
1
0
CIRCLE
5
106
100
AcDbEntity
8
0
100
AcDbCircle
10
-24.400000000000055
20
13.699999999999834
30
0
40
1.4500000000000035
210
-0
220
0
230
1
0
CIRCLE
5
107
100
AcDbEntity
8
0
100
AcDbCircle
10
-63.60000000000003
20
-43
30
0
40
1.2500000000000011
210
-0
220
0
230
1
0
CIRCLE
5
108
100
AcDbEntity
8
0
100
AcDbCircle
10
66.400000000000006
20
-42.999999999999986
30
0
40
1.2500000000000011
210
-0
220
0
230
1
0
CIRCLE
5
109
100
AcDbEntity
8
0
100
AcDbCircle
10
-63.600000000000051
20
43
30
0
40
1.2500000000000011
210
-0
220
0
230
1
0
CIRCLE
5
110
100
AcDbEntity
8
0
100
AcDbCircle
10
66.399999999999991
20
43.000000000000007
30
0
40
1.2500000000000011
210
-0
220
0
230
1
0
CIRCLE
5
111
100
AcDbEntity
8
0
100
AcDbCircle
10
57.899999999999778
20
-43.300000000000054
30
0
40
1.2500000000000011
210
0
220
0
230
1
0
CIRCLE
5
112
100
AcDbEntity
8
0
100
AcDbCircle
10
57.899999999999778
20
42.299999999999962
30
0
40
1.2500000000000011
210
0
220
0
230
1
0
CIRCLE
5
113
100
AcDbEntity
8
0
100
AcDbCircle
10
-71.000000000000213
20
-43.300000000000054
30
0
40
1.2500000000000011
210
0
220
0
230
1
0
CIRCLE
5
114
100
AcDbEntity
8
0
100
AcDbCircle
10
-71.000000000000213
20
42.299999999999962
30
0
40
1.2500000000000011
210
0
220
0
230
1
0
CIRCLE
5
115
100
AcDbEntity
8
0
100
AcDbCircle
10
-33.800000000000225
20
-7.2000000000000259
30
0
40
1.2500000000000011
210
0
220
0
230
1
0
LWPOLYLINE
5
116
100
AcDbEntity
8
0
100
AcDbPolyline
90
28
70
1
43
0.0
10
76.200000000000117
20
50.800000000000011
10
75.200000000000117
20
50.800000000000011
10
74.69999999999996
20
50.799999999999997
10
-76.200000000000017
20
50.799999999999997
10
-76.200000000000031
20
49.299999999999997
10
-76.200000000000031
20
-49.299999999999997
10
-76.199999999999989
20
-50.799999999999997
10
74.699999999999974
20
-50.799999999999997
10
75.200000000000117
20
-50.799999999999997
10
76.200000000000117
20
-50.800000000000011
10
76.200000000000117
20
-49.800000000000004
10
75.200000000000117
20
-49.800000000000004
10
75.064213562373155
20
-49.800000000000004
42
0.085164233174734885
10
75.150000000000006
20
-49.299999999999997
10
76.199999999999989
20
-49.299999999999997
10
76.199999999999974
20
-19.500000000000004
10
76.199999999999974
20
-19.039736830714144
10
76.199999999999989
20
-18.499999999999993
10
76.199999999999974
20
-17.500253134521017
10
76.199999999999974
20
17.500253134521028
10
76.199999999999974
20
18.500000000000007
10
76.199999999999989
20
19.039736830714141
10
76.199999999999974
20
19.5
10
76.199999999999989
20
49.299999999999997
10
75.149999999999977
20
49.299999999999997
42
0.085164233174720536
10
75.064213562373126
20
49.800000000000004
10
75.200000000000117
20
49.800000000000004
10
76.200000000000117
20
49.800000000000004
0
LWPOLYLINE
5
117
100
AcDbEntity
8
0
100
AcDbPolyline
90
12
70
1
43
0.0
10
75.199999999999974
20
-19.5
10
75.199999999999974
20
-19.039736830714141
10
75.199999999999974
20
-18.499999999999993
10
75.199999999999974
20
-17.500253134521017
10
75.199999999999974
20
17.500253134521028
10
75.199999999999989
20
18.500000000000007
10
75.199999999999974
20
19.039736830714133
10
75.199999999999974
20
19.499999999999996
10
74.699999999999974
20
19.499999999999996
10
54.699999999999982
20
19.499999999999996
10
54.699999999999982
20
-19.499999999999993
10
74.699999999999974
20
-19.500000000000004
0
LWPOLYLINE
5
118
100
AcDbEntity
8
0
100
AcDbPolyline
90
4
70
1
43
0.0
10
-66.000003386222275
20
-22.899999999990467
10
-66.100003386221644
20
-22.899999999990467
10
-66.100003386222212
20
-28.299999999990465
10
-66.000003386222204
20
-28.299999999990465
0
LWPOLYLINE
5
119
100
AcDbEntity
8
0
100
AcDbPolyline
90
4
70
1
43
0.0
10
-66.100003386222369
20
-14.649999999990468
10
-66.100003386222312
20
-20.049999999990465
10
-66.000003386222289
20
-20.049999999990472
10
-66.000003386222346
20
-14.649999999990468
0
LWPOLYLINE
5
120
100
AcDbEntity
8
0
100
AcDbPolyline
90
16
70
1
43
0.0
10
-63.650003386222295
20
-21.024999999990467
10
-63.650003386222373
20
-13.674999999990456
10
-63.65000338622238
20
-12.724999999990416
10
-78.850003370672738
20
-12.724999999990574
10
-78.85000338580312
20
-13.674999999990579
10
-78.850003386221175
20
-21.02499999999058
10
-78.850003386221715
20
-21.924999999990582
10
-78.850003386221644
20
-29.274999999990584
10
-78.850003386221076
20
-30.174999999990586
10
-78.850003383047792
20
-37.524999999989589
10
-78.850003371197843
20
-38.474999999989578
10
-63.650003386222103
20
-38.474999999989421
10
-63.650003386222124
20
-37.524999999989426
10
-63.650003386222195
20
-30.174999999990426
10
-63.650003386222203
20
-29.274999999990428
10
-63.650003386222274
20
-21.92499999999043
0
LWPOLYLINE
5
121
100
AcDbEntity
8
0
100
AcDbPolyline
90
4
70
1
43
0.0
10
-66.100003386222127
20
-36.549999999990462
10
-66.10000338622217
20
-31.14999999999047
10
-66.000003386222176
20
-31.14999999999047
10
-66.000003386222119
20
-36.549999999990476
0
CIRCLE
5
122
100
AcDbEntity
8
0
100
AcDbCircle
10
-69.400000000000233
20
31.999999999999993
30
0
40
1.600000000000001
210
-0
220
0
230
1
0
LWPOLYLINE
5
123
100
AcDbEntity
8
0
100
AcDbPolyline
90
20
70
1
43
0.0
10
-63.900000000000254
20
28.699999999999957
10
-63.900000000000254
20
30.299999999999947
10
-63.900000000000254
20
33.69999999999996
10
-63.900000000000254
20
35.299999999999947
10
-63.900000000000233
20
36.599999999999959
10
-64.900000000000233
20
36.599999999999994
10
-65.100000000000236
20
36.599999999999994
10
-73.700000000000244
20
36.599999999999994
10
-73.900000000000261
20
36.599999999999959
10
-74.900000000000247
20
36.599999999999959
10
-74.900000000000247
20
35.299999999999955
10
-74.900000000000247
20
33.69999999999996
10
-74.900000000000247
20
30.299999999999958
10
-74.900000000000247
20
28.69999999999996
10
-74.900000000000247
20
27.399999999999963
10
-73.900000000000261
20
27.399999999999963
10
-73.700000000000244
20
27.400000000000002
10
-65.100000000000236
20
27.400000000000002
10
-64.900000000000233
20
27.399999999999963
10
-63.900000000000233
20
27.399999999999963
0
CIRCLE
5
124
100
AcDbEntity
8
0
100
AcDbCircle
10
-69.400000000000148
20
32.000000000000085
30
0
40
3.9999999999999956
210
0
220
0
230
1
0
CIRCLE
5
125
100
AcDbEntity
8
0
100
AcDbCircle
10
-69.400000000000205
20
14.000000000000078
30
0
40
3.9999999999999956
210
0
220
0
230
1
0
CIRCLE
5
126
100
AcDbEntity
8
0
100
AcDbCircle
10
-69.400000000000233
20
13.999999999999989
30
0
40
1.600000000000001
210
-0
220
0
230
1
0
LWPOLYLINE
5
127
100
AcDbEntity
8
0
100
AcDbPolyline
90
20
70
1
43
0.0
10
-63.900000000000254
20
10.69999999999995
10
-63.900000000000254
20
12.299999999999947
10
-63.900000000000254
20
15.69999999999995
10
-63.900000000000254
20
17.299999999999947
10
-63.900000000000233
20
18.599999999999955
10
-64.900000000000233
20
18.599999999999994
10
-65.100000000000236
20
18.599999999999994
10
-73.700000000000244
20
18.599999999999994
10
-73.900000000000261
20
18.599999999999955
10
-74.900000000000247
20
18.599999999999955
10
-74.900000000000247
20
17.299999999999955
10
-74.900000000000247
20
15.699999999999958
10
-74.900000000000247
20
12.299999999999958
10
-74.900000000000247
20
10.69999999999996
10
-74.900000000000247
20
9.3999999999999577
10
-73.900000000000261
20
9.3999999999999577
10
-73.700000000000244
20
9.399999999999995
10
-65.100000000000236
20
9.399999999999995
10
-64.900000000000233
20
9.3999999999999577
10
-63.900000000000233
20
9.3999999999999577
0
CIRCLE
5
128
100
AcDbEntity
8
0
100
AcDbCircle
10
-71.000000000000171
20
42.300000000000004
30
0
40
2.7999999999999958
210
0
220
0
230
1
0
CIRCLE
5
129
100
AcDbEntity
8
0
100
AcDbCircle
10
-71.000000000000213
20
-43.300000000000054
30
0
40
2.7999999999999963
210
0
220
0
230
1
0
LINE
5
130
100
AcDbEntity
8
0
100
AcDbLine
10
69.800000000000125
20
17.749999999999989
30
0
11
69.800000000000125
21
14.249999999999968
31
0
0
LINE
5
131
100
AcDbEntity
8
0
100
AcDbLine
10
77.800000000000125
20
19.438642226976054
30
0
11
77.800000000000125
21
19.499999999999989
31
0
0
LINE
5
132
100
AcDbEntity
8
0
100
AcDbLine
10
77.800000000000125
20
12.499999999999989
30
0
11
77.800000000000125
21
13.699999999999985
31
0
0
LINE
5
133
100
AcDbEntity
8
0
100
AcDbLine
10
77.800000000000125
20
18.29999999999999
30
0
11
77.800000000000125
21
19.438642226976054
31
0
0
ELLIPSE
5
134
100
AcDbEntity
8
0
100
AcDbEllipse
10
74.572372055837249
20
17.144166507292212
30
0
11
-5.4827601996494231
21
3.2219565278348741
31
0.0
40
0.16144872848687061
41
3.1761930920720869
42
3.1860242531612624
0
ELLIPSE
5
135
100
AcDbEntity
8
0
100
AcDbEllipse
10
73.900000000000134
20
16.082026970829936
30
0
11
-6.4850905930449434
21
4.4625847351129443e-15
31
0.0
40
0.9824692077074465
41
3.0478590379210986
42
3.0736925566943265
0
ELLIPSE
5
136
100
AcDbEntity
8
0
100
AcDbEllipse
10
73.900000000000119
20
15.567713548608705
30
0
11
-6.4850905930449425
21
-3.1780600300550765e-16
31
0.0
40
0.18642493370443328
41
3.2094927504852602
42
3.4531776523364632
0
ELLIPSE
5
137
100
AcDbEntity
8
0
100
AcDbEllipse
10
74.572372055837249
20
15.782892773029978
30
0
11
-1.9540825856542132
21
-6.0517125280833008
31
0.0
40
0.85084329231062028
41
1.8735167169743534
42
1.8833478780635011
0
ELLIPSE
5
138
100
AcDbEntity
8
0
100
AcDbEllipse
10
73.900000000000134
20
16.082026970829936
30
0
11
-6.4850905930449434
21
4.4625847351129443e-15
31
0.0
40
0.9824692077074465
41
3.2094927504852602
42
3.4531776523364566
0
ELLIPSE
5
139
100
AcDbEntity
8
0
100
AcDbEllipse
10
74.572372055837249
20
14.855833492707752
30
0
11
5.4827601996494115
21
3.2219565278348767
31
0.0
40
0.16144872848686681
41
6.2387537076082449
42
6.2485848686972991
0
ELLIPSE
5
140
100
AcDbEntity
8
0
100
AcDbEllipse
10
73.900000000000119
20
15.917973029170039
30
0
11
-6.4850905930449398
21
4.4625847351129412e-15
31
0.0
40
0.9824692077074465
41
3.2094927504852593
42
3.2353262692584881
0
ELLIPSE
5
141
100
AcDbEntity
8
0
100
AcDbEllipse
10
73.900000000000119
20
16.432286451391256
30
0
11
-6.4850905930449407
21
-3.1780600300550676e-16
31
0.0
40
0.18642493370443325
41
2.8300076548431456
42
3.0736925566943225
0
ELLIPSE
5
142
100
AcDbEntity
8
0
100
AcDbEllipse
10
74.572372055837249
20
16.217107226969997
30
0
11
1.9540825856541932
21
-6.0517125280833177
31
0.0
40
0.85084329231061651
41
1.2582447755262989
42
1.2680759366153551
0
ELLIPSE
5
143
100
AcDbEntity
8
0
100
AcDbEllipse
10
73.900000000000119
20
15.917973029170039
30
0
11
-6.4850905930449407
21
4.4625847351129451e-15
31
0.0
40
0.98246920770744628
41
2.8300076548431514
42
3.0736925566943256
0
LINE
5
144
100
AcDbEntity
8
0
100
AcDbLine
10
80.356622472751383
20
15.485686577778759
30
0
11
80.370146829864183
21
15.485686577778758
31
0
0
LINE
5
145
100
AcDbEntity
8
0
100
AcDbLine
10
80.35662247275134
20
16.514313422221207
30
0
11
80.370146829864211
21
16.514313422221203
31
0
0
LINE
5
146
100
AcDbEntity
8
0
100
AcDbLine
10
69.800000000000125
20
14.249999999999968
30
0
11
70.588292388536161
21
14.052926902865963
31
0
0
LINE
5
147
100
AcDbEntity
8
0
100
AcDbLine
10
69.800000000000125
20
17.749999999999989
30
0
11
70.588292388536161
21
17.947073097133995
31
0
0
LINE
5
148
100
AcDbEntity
8
0
100
AcDbLine
10
70.750000000000142
20
14.333012701892191
30
0
11
70.966262964977687
21
13.958434258755574
31
0
0
LINE
5
149
100
AcDbEntity
8
0
100
AcDbLine
10
70.750000000000142
20
17.666987298107767
30
0
11
70.966262964977687
21
18.041565741244384
31
0
0
LINE
5
150
100
AcDbEntity
8
0
100
AcDbLine
10
70.750000000000142
20
17.666987298107767
30
0
11
70.588292388536161
21
17.947073097133995
31
0
0
LINE
5
151
100
AcDbEntity
8
0
100
AcDbLine
10
70.750000000000142
20
14.333012701892191
30
0
11
70.588292388536161
21
14.052926902865963
31
0
0
LINE
5
152
100
AcDbEntity
8
0
100
AcDbLine
10
71.350000000000136
20
14.333012701892196
30
0
11
71.600000000000136
21
13.899999999999979
31
0
0
LINE
5
153
100
AcDbEntity
8
0
100
AcDbLine
10
71.350000000000151
20
17.666987298107763
30
0
11
71.600000000000136
21
18.09999999999998
31
0
0
LINE
5
154
100
AcDbEntity
8
0
100
AcDbLine
10
71.350000000000151
20
17.666987298107763
30
0
11
71.112613198362425
21
18.078153299590564
31
0
0
LINE
5
155
100
AcDbEntity
8
0
100
AcDbLine
10
71.350000000000136
20
14.333012701892196
30
0
11
71.112613198362425
21
13.921846700409393
31
0
0
LINE
5
156
100
AcDbEntity
8
0
100
AcDbLine
10
71.950000000000131
20
14.333012701892189
30
0
11
72.200000000000131
21
13.899999999999979
31
0
0
LINE
5
157
100
AcDbEntity
8
0
100
AcDbLine
10
71.950000000000131
20
17.666987298107767
30
0
11
72.200000000000131
21
18.09999999999998
31
0
0
LINE
5
158
100
AcDbEntity
8
0
100
AcDbLine
10
71.950000000000131
20
17.666987298107767
30
0
11
71.700000000000131
21
18.09999999999998
31
0
0
LINE
5
159
100
AcDbEntity
8
0
100
AcDbLine
10
71.950000000000131
20
14.333012701892189
30
0
11
71.700000000000145
21
13.899999999999977
31
0
0
LINE
5
160
100
AcDbEntity
8
0
100
AcDbLine
10
72.550000000000125
20
14.333012701892191
30
0
11
72.800000000000125
21
13.899999999999979
31
0
0
LINE
5
161
100
AcDbEntity
8
0
100
AcDbLine
10
72.550000000000125
20
17.666987298107767
30
0
11
72.800000000000125
21
18.09999999999998
31
0
0
LINE
5
162
100
AcDbEntity
8
0
100
AcDbLine
10
72.550000000000125
20
17.666987298107767
30
0
11
72.300000000000125
21
18.09999999999998
31
0
0
LINE
5
163
100
AcDbEntity
8
0
100
AcDbLine
10
72.550000000000125
20
14.333012701892191
30
0
11
72.300000000000139
21
13.899999999999977
31
0
0
LINE
5
164
100
AcDbEntity
8
0
100
AcDbLine
10
73.150000000000134
20
14.333012701892196
30
0
11
73.400000000000148
21
13.899999999999979
31
0
0
LINE
5
165
100
AcDbEntity
8
0
100
AcDbLine
10
73.150000000000148
20
17.666987298107763
30
0
11
73.400000000000148
21
18.09999999999998
31
0
0
LINE
5
166
100
AcDbEntity
8
0
100
AcDbLine
10
73.150000000000148
20
17.666987298107763
30
0
11
72.900000000000134
21
18.09999999999998
31
0
0
LINE
5
167
100
AcDbEntity
8
0
100
AcDbLine
10
73.150000000000134
20
14.333012701892196
30
0
11
72.900000000000148
21
13.899999999999977
31
0
0
LINE
5
168
100
AcDbEntity
8
0
100
AcDbLine
10
73.750000000000128
20
14.333012701892189
30
0
11
74.000000000000128
21
13.899999999999979
31
0
0
LINE
5
169
100
AcDbEntity
8
0
100
AcDbLine
10
73.750000000000128
20
17.666987298107767
30
0
11
74.000000000000128
21
18.09999999999998
31
0
0
LINE
5
170
100
AcDbEntity
8
0
100
AcDbLine
10
73.750000000000128
20
17.666987298107767
30
0
11
73.500000000000128
21
18.099999999999984
31
0
0
LINE
5
171
100
AcDbEntity
8
0
100
AcDbLine
10
73.750000000000128
20
14.333012701892189
30
0
11
73.500000000000128
21
13.899999999999972
31
0
0
LINE
5
172
100
AcDbEntity
8
0
100
AcDbLine
10
74.350000000000136
20
14.333012701892191
30
0
11
74.600000000000122
21
13.899999999999979
31
0
0
LINE
5
173
100
AcDbEntity
8
0
100
AcDbLine
10
74.350000000000136
20
17.666987298107767
30
0
11
74.600000000000122
21
18.09999999999998
31
0
0
LINE
5
174
100
AcDbEntity
8
0
100
AcDbLine
10
74.350000000000136
20
17.666987298107767
30
0
11
74.100000000000122
21
18.09999999999998
31
0
0
LINE
5
175
100
AcDbEntity
8
0
100
AcDbLine
10
74.350000000000136
20
14.333012701892191
30
0
11
74.100000000000136
21
13.899999999999977
31
0
0
LINE
5
176
100
AcDbEntity
8
0
100
AcDbLine
10
74.950000000000131
20
14.333012701892196
30
0
11
75.200000000000131
21
13.899999999999979
31
0
0
LINE
5
177
100
AcDbEntity
8
0
100
AcDbLine
10
74.950000000000145
20
17.666987298107763
30
0
11
75.200000000000131
21
18.09999999999998
31
0
0
LINE
5
178
100
AcDbEntity
8
0
100
AcDbLine
10
74.950000000000145
20
17.666987298107763
30
0
11
74.700000000000131
21
18.09999999999998
31
0
0
LINE
5
179
100
AcDbEntity
8
0
100
AcDbLine
10
74.950000000000131
20
14.333012701892196
30
0
11
74.700000000000145
21
13.899999999999977
31
0
0
LINE
5
180
100
AcDbEntity
8
0
100
AcDbLine
10
75.550000000000125
20
14.333012701892189
30
0
11
75.800000000000125
21
13.899999999999979
31
0
0
LINE
5
181
100
AcDbEntity
8
0
100
AcDbLine
10
75.550000000000125
20
17.666987298107767
30
0
11
75.800000000000125
21
18.09999999999998
31
0
0
LINE
5
182
100
AcDbEntity
8
0
100
AcDbLine
10
75.550000000000125
20
17.666987298107767
30
0
11
75.300000000000125
21
18.09999999999998
31
0
0
LINE
5
183
100
AcDbEntity
8
0
100
AcDbLine
10
75.550000000000125
20
14.333012701892189
30
0
11
75.300000000000139
21
13.899999999999977
31
0
0
LINE
5
184
100
AcDbEntity
8
0
100
AcDbLine
10
76.150000000000134
20
14.333012701892196
30
0
11
76.400000000000134
21
13.899999999999979
31
0
0
LINE
5
185
100
AcDbEntity
8
0
100
AcDbLine
10
76.150000000000148
20
17.666987298107763
30
0
11
76.400000000000134
21
18.09999999999998
31
0
0
LINE
5
186
100
AcDbEntity
8
0
100
AcDbLine
10
76.150000000000148
20
17.666987298107763
30
0
11
75.900000000000148
21
18.099999999999977
31
0
0
LINE
5
187
100
AcDbEntity
8
0
100
AcDbLine
10
76.150000000000134
20
14.333012701892196
30
0
11
75.900000000000148
21
13.899999999999981
31
0
0
LINE
5
188
100
AcDbEntity
8
0
100
AcDbLine
10
76.750000000000128
20
14.333012701892196
30
0
11
77.000000000000142
21
13.899999999999979
31
0
0
LINE
5
189
100
AcDbEntity
8
0
100
AcDbLine
10
76.750000000000142
20
17.666987298107763
30
0
11
77.000000000000142
21
18.09999999999998
31
0
0
LINE
5
190
100
AcDbEntity
8
0
100
AcDbLine
10
76.750000000000142
20
17.666987298107763
30
0
11
76.500000000000128
21
18.09999999999998
31
0
0
LINE
5
191
100
AcDbEntity
8
0
100
AcDbLine
10
76.750000000000128
20
14.333012701892196
30
0
11
76.500000000000142
21
13.899999999999977
31
0
0
LINE
5
192
100
AcDbEntity
8
0
100
AcDbLine
10
77.350000000000122
20
14.333012701892189
30
0
11
77.600000000000122
21
13.899999999999979
31
0
0
LINE
5
193
100
AcDbEntity
8
0
100
AcDbLine
10
77.350000000000122
20
17.666987298107767
30
0
11
77.600000000000122
21
18.09999999999998
31
0
0
LINE
5
194
100
AcDbEntity
8
0
100
AcDbLine
10
77.350000000000122
20
17.666987298107767
30
0
11
77.100000000000122
21
18.09999999999998
31
0
0
LINE
5
195
100
AcDbEntity
8
0
100
AcDbLine
10
77.350000000000122
20
14.333012701892189
30
0
11
77.100000000000136
21
13.899999999999977
31
0
0
ARC
5
196
100
AcDbEntity
8
0
100
AcDbCircle
10
77.600000000000122
20
18.29999999999999
30
0
40
0.2000000000000135
210
-0
220
0
230
1
100
AcDbArc
50
-90
51
0
0
ARC
5
197
100
AcDbEntity
8
0
100
AcDbCircle
10
77.600000000000122
20
13.699999999999989
30
0
40
0.20000000000000462
210
0
220
0
230
1
100
AcDbArc
50
0
51
90
0
LINE
5
198
100
AcDbEntity
8
0
100
AcDbLine
10
77.800000000000125
20
12.499999999999989
30
0
11
79.377225575051796
21
12.499999999999986
31
0
0
LINE
5
199
100
AcDbEntity
8
0
100
AcDbLine
10
77.800000000000125
20
19.499999999999989
30
0
11
79.377225575051796
21
19.499999999999993
31
0
0
ARC
5
200
100
AcDbEntity
8
0
100
AcDbCircle
10
73.900000000000119
20
15.999999999999988
30
0
40
6.5
210
0
220
-0
230
1
100
AcDbArc
50
18.339824268145314
51
32.578970392804095
0
ARC
5
201
100
AcDbEntity
8
0
100
AcDbCircle
10
73.900000000000119
20
15.999999999999988
30
0
40
6.5000000000000053
210
-0
220
0
230
1
100
AcDbArc
50
327.42102960719598
51
341.66017573185468
0
LINE
5
202
100
AcDbEntity
8
0
100
AcDbLine
10
77.000000000000142
20
13.899999999999979
30
0
11
77.100000000000136
21
13.899999999999977
31
0
0
LINE
5
203
100
AcDbEntity
8
0
100
AcDbLine
10
77.000000000000142
20
18.09999999999998
30
0
11
77.100000000000122
21
18.09999999999998
31
0
0
LINE
5
204
100
AcDbEntity
8
0
100
AcDbLine
10
76.400000000000134
20
13.899999999999979
30
0
11
76.500000000000142
21
13.899999999999977
31
0
0
LINE
5
205
100
AcDbEntity
8
0
100
AcDbLine
10
76.400000000000134
20
18.09999999999998
30
0
11
76.500000000000128
21
18.09999999999998
31
0
0
LINE
5
206
100
AcDbEntity
8
0
100
AcDbLine
10
75.800000000000125
20
13.899999999999979
30
0
11
75.900000000000148
21
13.899999999999981
31
0
0
LINE
5
207
100
AcDbEntity
8
0
100
AcDbLine
10
75.800000000000125
20
18.09999999999998
30
0
11
75.900000000000148
21
18.099999999999977
31
0
0
LINE
5
208
100
AcDbEntity
8
0
100
AcDbLine
10
75.200000000000131
20
13.899999999999979
30
0
11
75.300000000000139
21
13.899999999999977
31
0
0
LINE
5
209
100
AcDbEntity
8
0
100
AcDbLine
10
75.200000000000131
20
18.09999999999998
30
0
11
75.300000000000125
21
18.09999999999998
31
0
0
LINE
5
210
100
AcDbEntity
8
0
100
AcDbLine
10
74.600000000000122
20
13.899999999999979
30
0
11
74.700000000000145
21
13.899999999999977
31
0
0
LINE
5
211
100
AcDbEntity
8
0
100
AcDbLine
10
74.600000000000122
20
18.09999999999998
30
0
11
74.700000000000131
21
18.09999999999998
31
0
0
LINE
5
212
100
AcDbEntity
8
0
100
AcDbLine
10
74.000000000000128
20
13.899999999999979
30
0
11
74.100000000000136
21
13.899999999999977
31
0
0
LINE
5
213
100
AcDbEntity
8
0
100
AcDbLine
10
74.000000000000128
20
18.09999999999998
30
0
11
74.100000000000122
21
18.09999999999998
31
0
0
LINE
5
214
100
AcDbEntity
8
0
100
AcDbLine
10
73.400000000000148
20
13.899999999999979
30
0
11
73.500000000000128
21
13.899999999999972
31
0
0
LINE
5
215
100
AcDbEntity
8
0
100
AcDbLine
10
73.400000000000148
20
18.09999999999998
30
0
11
73.500000000000128
21
18.099999999999984
31
0
0
LINE
5
216
100
AcDbEntity
8
0
100
AcDbLine
10
72.800000000000125
20
13.899999999999979
30
0
11
72.900000000000148
21
13.899999999999977
31
0
0
LINE
5
217
100
AcDbEntity
8
0
100
AcDbLine
10
72.800000000000125
20
18.09999999999998
30
0
11
72.900000000000134
21
18.09999999999998
31
0
0
LINE
5
218
100
AcDbEntity
8
0
100
AcDbLine
10
72.200000000000131
20
13.899999999999979
30
0
11
72.300000000000139
21
13.899999999999977
31
0
0
LINE
5
219
100
AcDbEntity
8
0
100
AcDbLine
10
72.200000000000131
20
18.09999999999998
30
0
11
72.300000000000125
21
18.09999999999998
31
0
0
LINE
5
220
100
AcDbEntity
8
0
100
AcDbLine
10
71.600000000000136
20
13.899999999999979
30
0
11
71.700000000000145
21
13.899999999999977
31
0
0
LINE
5
221
100
AcDbEntity
8
0
100
AcDbLine
10
71.600000000000136
20
18.09999999999998
30
0
11
71.700000000000131
21
18.09999999999998
31
0
0
LINE
5
222
100
AcDbEntity
8
0
100
AcDbLine
10
70.966262964977687
20
13.958434258755574
30
0
11
71.112613198362425
21
13.921846700409393
31
0
0
LINE
5
223
100
AcDbEntity
8
0
100
AcDbLine
10
70.966262964977687
20
18.041565741244384
30
0
11
71.112613198362425
21
18.078153299590564
31
0
0
LINE
5
224
100
AcDbEntity
8
0
100
AcDbLine
10
69.800000000000111
20
-15.27596619488682
30
0
11
69.800000000000111
21
-17.750000000000007
31
0
0
LINE
5
225
100
AcDbEntity
8
0
100
AcDbLine
10
69.800000000000111
20
-14.249999999999986
30
0
11
69.800000000000111
21
-15.27596619488682
31
0
0
LINE
5
226
100
AcDbEntity
8
0
100
AcDbLine
10
77.800000000000125
20
-19.186392975797776
30
0
11
77.800000000000125
21
-18.300000000000008
31
0
0
LINE
5
227
100
AcDbEntity
8
0
100
AcDbLine
10
77.800000000000125
20
-13.700000000000006
30
0
11
77.800000000000125
21
-12.500000000000007
31
0
0
LINE
5
228
100
AcDbEntity
8
0
100
AcDbLine
10
77.800000000000125
20
-19.500000000000007
30
0
11
77.800000000000125
21
-19.186392975797776
31
0
0
ELLIPSE
5
229
100
AcDbEntity
8
0
100
AcDbEllipse
10
73.900000000000119
20
-15.817957214714406
30
0
11
-6.4850905930449434
21
3.4569956172127489e-15
31
0.0
40
0.91039799308507696
41
3.2094927504852606
42
3.2914485447602067
0
ELLIPSE
5
230
100
AcDbEntity
8
0
100
AcDbEllipse
10
73.900000000000119
20
-16.400575116957434
30
0
11
-6.4850905930449434
21
-1.3520722596736217e-15
31
0.0
40
0.41373360292181288
41
3.2094927504852602
42
3.291448544760196
0
ELLIPSE
5
231
100
AcDbEntity
8
0
100
AcDbEllipse
10
73.900000000000119
20
-15.817957214714406
30
0
11
-6.4850905930449434
21
3.4569956172127489e-15
31
0.0
40
0.91039799308507696
41
3.0117124019121597
42
3.0736925566943269
0
ELLIPSE
5
232
100
AcDbEntity
8
0
100
AcDbEllipse
10
73.900000000000119
20
-16.182042785285603
30
0
11
-6.4850905930449434
21
3.4569956172127489e-15
31
0.0
40
0.91039799308507696
41
2.9917367624193933
42
3.0736925566943265
0
ELLIPSE
5
233
100
AcDbEntity
8
0
100
AcDbEllipse
10
73.900000000000119
20
-15.599424883042563
30
0
11
-6.4850905930449434
21
-1.3520722596736217e-15
31
0.0
40
0.41373360292181288
41
2.9917367624193805
42
3.0736925566943252
0
ELLIPSE
5
234
100
AcDbEntity
8
0
100
AcDbEllipse
10
73.900000000000119
20
-16.182042785285603
30
0
11
-6.4850905930449443
21
3.4569956172127517e-15
31
0.0
40
0.91039799308507674
41
3.2094927504852624
42
3.2714729052674287
0
LINE
5
235
100
AcDbEntity
8
0
100
AcDbLine
10
80.330469334363229
20
-15.41738209775697
30
0
11
80.370146829864169
21
-15.41738209775697
31
0
0
LINE
5
236
100
AcDbEntity
8
0
100
AcDbLine
10
80.330469334363229
20
-16.582617902243026
30
0
11
80.370146829864183
21
-16.582617902243033
31
0
0
LINE
5
237
100
AcDbEntity
8
0
100
AcDbLine
10
69.800000000000111
20
-17.750000000000007
30
0
11
70.588292388536132
21
-17.947073097134016
31
0
0
LINE
5
238
100
AcDbEntity
8
0
100
AcDbLine
10
69.800000000000111
20
-14.249999999999986
30
0
11
70.588292388536132
21
-14.052926902865979
31
0
0
LINE
5
239
100
AcDbEntity
8
0
100
AcDbLine
10
70.750000000000114
20
-17.666987298107777
30
0
11
70.966262964977687
21
-18.041565741244398
31
0
0
LINE
5
240
100
AcDbEntity
8
0
100
AcDbLine
10
70.750000000000114
20
-14.333012701892216
30
0
11
70.966262964977687
21
-13.958434258755595
31
0
0
LINE
5
241
100
AcDbEntity
8
0
100
AcDbLine
10
70.750000000000114
20
-14.333012701892216
30
0
11
70.588292388536132
21
-14.052926902865979
31
0
0
LINE
5
242
100
AcDbEntity
8
0
100
AcDbLine
10
70.750000000000114
20
-17.666987298107777
30
0
11
70.588292388536132
21
-17.947073097134016
31
0
0
LINE
5
243
100
AcDbEntity
8
0
100
AcDbLine
10
71.350000000000108
20
-17.666987298107784
30
0
11
71.600000000000108
21
-18.099999999999994
31
0
0
LINE
5
244
100
AcDbEntity
8
0
100
AcDbLine
10
71.350000000000108
20
-14.333012701892207
30
0
11
71.600000000000108
21
-13.899999999999997
31
0
0
LINE
5
245
100
AcDbEntity
8
0
100
AcDbLine
10
71.350000000000108
20
-14.333012701892207
30
0
11
71.112613198362396
21
-13.921846700409414
31
0
0
LINE
5
246
100
AcDbEntity
8
0
100
AcDbLine
10
71.350000000000108
20
-17.666987298107784
30
0
11
71.112613198362396
21
-18.078153299590578
31
0
0
LINE
5
247
100
AcDbEntity
8
0
100
AcDbLine
10
71.950000000000117
20
-17.666987298107777
30
0
11
72.200000000000117
21
-18.099999999999994
31
0
0
LINE
5
248
100
AcDbEntity
8
0
100
AcDbLine
10
71.950000000000117
20
-14.333012701892216
30
0
11
72.200000000000117
21
-13.899999999999997
31
0
0
LINE
5
249
100
AcDbEntity
8
0
100
AcDbLine
10
71.950000000000117
20
-14.333012701892216
30
0
11
71.700000000000131
21
-13.899999999999999
31
0
0
LINE
5
250
100
AcDbEntity
8
0
100
AcDbLine
10
71.950000000000117
20
-17.666987298107777
30
0
11
71.700000000000131
21
-18.099999999999994
31
0
0
LINE
5
251
100
AcDbEntity
8
0
100
AcDbLine
10
72.550000000000111
20
-17.666987298107777
30
0
11
72.800000000000125
21
-18.099999999999994
31
0
0
LINE
5
252
100
AcDbEntity
8
0
100
AcDbLine
10
72.550000000000111
20
-14.333012701892216
30
0
11
72.800000000000125
21
-13.899999999999997
31
0
0
LINE
5
253
100
AcDbEntity
8
0
100
AcDbLine
10
72.550000000000111
20
-14.333012701892216
30
0
11
72.300000000000111
21
-13.899999999999995
31
0
0
LINE
5
254
100
AcDbEntity
8
0
100
AcDbLine
10
72.550000000000111
20
-17.666987298107777
30
0
11
72.300000000000111
21
-18.099999999999998
31
0
0
LINE
5
255
100
AcDbEntity
8
0
100
AcDbLine
10
73.150000000000119
20
-17.666987298107777
30
0
11
73.400000000000119
21
-18.099999999999994
31
0
0
LINE
5
256
100
AcDbEntity
8
0
100
AcDbLine
10
73.150000000000119
20
-14.333012701892216
30
0
11
73.400000000000119
21
-13.899999999999997
31
0
0
LINE
5
257
100
AcDbEntity
8
0
100
AcDbLine
10
73.150000000000119
20
-14.333012701892216
30
0
11
72.900000000000119
21
-13.900000000000004
31
0
0
LINE
5
258
100
AcDbEntity
8
0
100
AcDbLine
10
73.150000000000119
20
-17.666987298107777
30
0
11
72.900000000000119
21
-18.099999999999991
31
0
0
LINE
5
259
100
AcDbEntity
8
0
100
AcDbLine
10
73.750000000000128
20
-17.666987298107784
30
0
11
74.000000000000128
21
-18.099999999999994
31
0
0
LINE
5
260
100
AcDbEntity
8
0
100
AcDbLine
10
73.750000000000128
20
-14.333012701892207
30
0
11
74.000000000000128
21
-13.899999999999997
31
0
0
LINE
5
261
100
AcDbEntity
8
0
100
AcDbLine
10
73.750000000000128
20
-14.333012701892207
30
0
11
73.500000000000128
21
-13.899999999999991
31
0
0
LINE
5
262
100
AcDbEntity
8
0
100
AcDbLine
10
73.750000000000128
20
-17.666987298107784
30
0
11
73.500000000000128
21
-18.100000000000001
31
0
0
LINE
5
263
100
AcDbEntity
8
0
100
AcDbLine
10
74.350000000000108
20
-17.666987298107777
30
0
11
74.600000000000108
21
-18.099999999999994
31
0
0
LINE
5
264
100
AcDbEntity
8
0
100
AcDbLine
10
74.350000000000108
20
-14.333012701892216
30
0
11
74.600000000000108
21
-13.899999999999997
31
0
0
LINE
5
265
100
AcDbEntity
8
0
100
AcDbLine
10
74.350000000000108
20
-14.333012701892216
30
0
11
74.100000000000108
21
-13.899999999999995
31
0
0
LINE
5
266
100
AcDbEntity
8
0
100
AcDbLine
10
74.350000000000108
20
-17.666987298107777
30
0
11
74.100000000000108
21
-18.099999999999998
31
0
0
LINE
5
267
100
AcDbEntity
8
0
100
AcDbLine
10
74.950000000000117
20
-17.666987298107777
30
0
11
75.200000000000117
21
-18.099999999999994
31
0
0
LINE
5
268
100
AcDbEntity
8
0
100
AcDbLine
10
74.950000000000117
20
-14.333012701892216
30
0
11
75.200000000000117
21
-13.899999999999997
31
0
0
LINE
5
269
100
AcDbEntity
8
0
100
AcDbLine
10
74.950000000000117
20
-14.333012701892216
30
0
11
74.700000000000117
21
-13.900000000000004
31
0
0
LINE
5
270
100
AcDbEntity
8
0
100
AcDbLine
10
74.950000000000117
20
-17.666987298107777
30
0
11
74.700000000000117
21
-18.099999999999991
31
0
0
LINE
5
271
100
AcDbEntity
8
0
100
AcDbLine
10
75.550000000000111
20
-17.666987298107777
30
0
11
75.800000000000111
21
-18.099999999999994
31
0
0
LINE
5
272
100
AcDbEntity
8
0
100
AcDbLine
10
75.550000000000111
20
-14.333012701892216
30
0
11
75.800000000000111
21
-13.899999999999997
31
0
0
LINE
5
273
100
AcDbEntity
8
0
100
AcDbLine
10
75.550000000000111
20
-14.333012701892216
30
0
11
75.300000000000125
21
-13.899999999999999
31
0
0
LINE
5
274
100
AcDbEntity
8
0
100
AcDbLine
10
75.550000000000111
20
-17.666987298107777
30
0
11
75.300000000000125
21
-18.099999999999994
31
0
0
LINE
5
275
100
AcDbEntity
8
0
100
AcDbLine
10
76.150000000000119
20
-17.666987298107781
30
0
11
76.400000000000119
21
-18.099999999999994
31
0
0
LINE
5
276
100
AcDbEntity
8
0
100
AcDbLine
10
76.150000000000119
20
-14.333012701892212
30
0
11
76.400000000000119
21
-13.899999999999997
31
0
0
LINE
5
277
100
AcDbEntity
8
0
100
AcDbLine
10
76.150000000000119
20
-14.333012701892212
30
0
11
75.900000000000119
21
-13.899999999999995
31
0
0
LINE
5
278
100
AcDbEntity
8
0
100
AcDbLine
10
76.150000000000119
20
-17.666987298107781
30
0
11
75.900000000000119
21
-18.099999999999998
31
0
0
LINE
5
279
100
AcDbEntity
8
0
100
AcDbLine
10
76.750000000000114
20
-17.666987298107777
30
0
11
77.000000000000114
21
-18.099999999999994
31
0
0
LINE
5
280
100
AcDbEntity
8
0
100
AcDbLine
10
76.750000000000114
20
-14.333012701892216
30
0
11
77.000000000000114
21
-13.899999999999997
31
0
0
LINE
5
281
100
AcDbEntity
8
0
100
AcDbLine
10
76.750000000000114
20
-14.333012701892216
30
0
11
76.500000000000114
21
-13.900000000000004
31
0
0
LINE
5
282
100
AcDbEntity
8
0
100
AcDbLine
10
76.750000000000114
20
-17.666987298107777
30
0
11
76.500000000000114
21
-18.099999999999991
31
0
0
LINE
5
283
100
AcDbEntity
8
0
100
AcDbLine
10
77.350000000000108
20
-17.666987298107777
30
0
11
77.600000000000108
21
-18.099999999999994
31
0
0
LINE
5
284
100
AcDbEntity
8
0
100
AcDbLine
10
77.350000000000108
20
-14.333012701892216
30
0
11
77.600000000000108
21
-13.899999999999997
31
0
0
LINE
5
285
100
AcDbEntity
8
0
100
AcDbLine
10
77.350000000000108
20
-14.333012701892216
30
0
11
77.100000000000108
21
-13.899999999999999
31
0
0
LINE
5
286
100
AcDbEntity
8
0
100
AcDbLine
10
77.350000000000108
20
-17.666987298107777
30
0
11
77.100000000000108
21
-18.099999999999994
31
0
0
ARC
5
287
100
AcDbEntity
8
0
100
AcDbCircle
10
77.600000000000108
20
-13.700000000000006
30
0
40
0.1999999999999913
210
-0
220
0
230
1
100
AcDbArc
50
-90
51
0
0
ARC
5
288
100
AcDbEntity
8
0
100
AcDbCircle
10
77.600000000000108
20
-18.300000000000011
30
0
40
0.20000000000000462
210
0
220
-0
230
1
100
AcDbArc
50
0
51
90
0
LINE
5
289
100
AcDbEntity
8
0
100
AcDbLine
10
77.800000000000125
20
-19.500000000000007
30
0
11
79.377225575051767
21
-19.500000000000007
31
0
0
LINE
5
290
100
AcDbEntity
8
0
100
AcDbLine
10
77.800000000000125
20
-12.500000000000007
30
0
11
79.377225575051767
21
-12.500000000000007
31
0
0
ARC
5
291
100
AcDbEntity
8
0
100
AcDbCircle
10
73.900000000000119
20
-16.000000000000007
30
0
40
6.5000000000000044
210
0
220
-0
230
1
100
AcDbArc
50
9.4166859769427003
51
32.578970392804187
0
ARC
5
292
100
AcDbEntity
8
0
100
AcDbCircle
10
73.900000000000119
20
-16.000000000000007
30
0
40
6.4999999999999929
210
-0
220
0
230
1
100
AcDbArc
50
327.42102960719581
51
350.58331402305811
0
LINE
5
293
100
AcDbEntity
8
0
100
AcDbLine
10
77.000000000000114
20
-18.099999999999994
30
0
11
77.100000000000108
21
-18.099999999999994
31
0
0
LINE
5
294
100
AcDbEntity
8
0
100
AcDbLine
10
77.000000000000114
20
-13.899999999999997
30
0
11
77.100000000000108
21
-13.899999999999999
31
0
0
LINE
5
295
100
AcDbEntity
8
0
100
AcDbLine
10
76.400000000000119
20
-18.099999999999994
30
0
11
76.500000000000114
21
-18.099999999999991
31
0
0
LINE
5
296
100
AcDbEntity
8
0
100
AcDbLine
10
76.400000000000119
20
-13.899999999999997
30
0
11
76.500000000000114
21
-13.900000000000004
31
0
0
LINE
5
297
100
AcDbEntity
8
0
100
AcDbLine
10
75.800000000000111
20
-18.099999999999994
30
0
11
75.900000000000119
21
-18.099999999999998
31
0
0
LINE
5
298
100
AcDbEntity
8
0
100
AcDbLine
10
75.800000000000111
20
-13.899999999999997
30
0
11
75.900000000000119
21
-13.899999999999995
31
0
0
LINE
5
299
100
AcDbEntity
8
0
100
AcDbLine
10
75.200000000000117
20
-18.099999999999994
30
0
11
75.300000000000125
21
-18.099999999999994
31
0
0
LINE
5
300
100
AcDbEntity
8
0
100
AcDbLine
10
75.200000000000117
20
-13.899999999999997
30
0
11
75.300000000000125
21
-13.899999999999999
31
0
0
LINE
5
301
100
AcDbEntity
8
0
100
AcDbLine
10
74.600000000000108
20
-18.099999999999994
30
0
11
74.700000000000117
21
-18.099999999999991
31
0
0
LINE
5
302
100
AcDbEntity
8
0
100
AcDbLine
10
74.600000000000108
20
-13.899999999999997
30
0
11
74.700000000000117
21
-13.900000000000004
31
0
0
LINE
5
303
100
AcDbEntity
8
0
100
AcDbLine
10
74.000000000000128
20
-18.099999999999994
30
0
11
74.100000000000108
21
-18.099999999999998
31
0
0
LINE
5
304
100
AcDbEntity
8
0
100
AcDbLine
10
74.000000000000128
20
-13.899999999999997
30
0
11
74.100000000000108
21
-13.899999999999995
31
0
0
LINE
5
305
100
AcDbEntity
8
0
100
AcDbLine
10
73.400000000000119
20
-18.099999999999994
30
0
11
73.500000000000128
21
-18.100000000000001
31
0
0
LINE
5
306
100
AcDbEntity
8
0
100
AcDbLine
10
73.400000000000119
20
-13.899999999999997
30
0
11
73.500000000000128
21
-13.899999999999991
31
0
0
LINE
5
307
100
AcDbEntity
8
0
100
AcDbLine
10
72.800000000000125
20
-18.099999999999994
30
0
11
72.900000000000119
21
-18.099999999999991
31
0
0
LINE
5
308
100
AcDbEntity
8
0
100
AcDbLine
10
72.800000000000125
20
-13.899999999999997
30
0
11
72.900000000000119
21
-13.900000000000004
31
0
0
LINE
5
309
100
AcDbEntity
8
0
100
AcDbLine
10
72.200000000000117
20
-18.099999999999994
30
0
11
72.300000000000111
21
-18.099999999999998
31
0
0
LINE
5
310
100
AcDbEntity
8
0
100
AcDbLine
10
72.200000000000117
20
-13.899999999999997
30
0
11
72.300000000000111
21
-13.899999999999995
31
0
0
LINE
5
311
100
AcDbEntity
8
0
100
AcDbLine
10
71.600000000000108
20
-18.099999999999994
30
0
11
71.700000000000131
21
-18.099999999999994
31
0
0
LINE
5
312
100
AcDbEntity
8
0
100
AcDbLine
10
71.600000000000108
20
-13.899999999999997
30
0
11
71.700000000000131
21
-13.899999999999999
31
0
0
LINE
5
313
100
AcDbEntity
8
0
100
AcDbLine
10
70.966262964977687
20
-18.041565741244398
30
0
11
71.112613198362396
21
-18.078153299590578
31
0
0
LINE
5
314
100
AcDbEntity
8
0
100
AcDbLine
10
70.966262964977687
20
-13.958434258755595
30
0
11
71.112613198362396
21
-13.921846700409414
31
0
0
LINE
5
315
100
AcDbEntity
8
0
100
AcDbLine
10
77.925185632058586
20
13.127658760129604
30
0
11
77.925425285668567
21
13.127626364248371
31
0
0
ELLIPSE
5
316
100
AcDbEntity
8
0
100
AcDbEllipse
10
77.773648187964469
20
12.340358473123542
30
0
11
0.098970828471837718
21
0.79385437903448453
31
0.0
40
0.12277754574863747
41
3.1390876398029963
42
3.1415896316175456
0
LINE
5
317
100
AcDbEntity
8
0
100
AcDbLine
10
77.674814367729184
20
-11.546486993312675
30
0
11
77.674574714113959
21
-11.546519389194581
31
0
0
ELLIPSE
5
318
100
AcDbEntity
8
0
100
AcDbEllipse
10
77.826315937697373
20
-12.333791753693383
30
0
11
-0.09901564420207605
21
0.79384879052496005
31
0.0
40
0.12278548887744418
41
3.1415870229773297
42
3.1440910507912516
0
LINE
5
319
100
AcDbEntity
8
0
100
AcDbLine
10
77.800000000000125
20
14.408810524776198
30
0
11
77.800000000000125
21
13.188416816098094
31
0
0
LINE
5
320
100
AcDbEntity
8
0
100
AcDbLine
10
76.200000000000117
20
13.188416816098092
30
0
11
76.200000000000117
21
14.408810524776198
31
0
0
SPLINE
5
321
100
AcDbEntity
8
0
100
AcDbSpline
70
0
71
3
72
12
73
8
74
0
42
0.000000001
43
0.0000000001
44
0.0000000001
40
1.0382411962799516
40
1.0382411962799516
40
1.0382411962799516
40
1.0382411962799516
40
1.1451329274592097
40
1.1451329274592097
40
1.3184747286735825
40
1.3184747286735825
40
1.3959122947101459
40
1.3959122947101459
40
1.3959122947101459
40
1.3959122947101459
10
77.800000000000168
20
13.159413369538484
30
0
10
77.809338415480752
20
13.155521710561624
30
0
10
77.819834383481023
20
13.15162893565817
30
0
10
77.849901606648842
20
13.141989685623336
30
0
10
77.871064478023982
20
13.136612972451704
30
0
10
77.903993613704529
20
13.130609869350351
30
0
10
77.914478411180468
20
13.128996498984771
30
0
10
77.925185394378957
20
13.127658789824771
30
0
0
SPLINE
5
322
100
AcDbEntity
8
0
100
AcDbSpline
70
0
71
3
72
16
73
12
74
0
42
0.000000001
43
0.0000000001
44
0.0000000001
40
6.6026400788685402
40
6.6026400788685402
40
6.6026400788685402
40
6.6026400788685402
40
6.7817501022281999
40
6.7817501022281999
40
7.0541951517467245
40
7.0541951517467245
40
7.3266402012652492
40
7.3266402012652492
40
7.5990852507837738
40
7.5990852507837738
40
7.6428329360897234
40
7.6428329360897234
40
7.6428329360897234
40
7.6428329360897234
10
76.325961670279654
20
12.469102877628986
30
0
10
76.370763422237744
20
12.373331669304852
30
0
10
76.42576526021233
20
12.284618593626815
30
0
10
76.582294945963056
20
12.081321410228849
30
0
10
76.692847011089128
20
11.977308080351403
30
0
10
76.931256945901339
20
11.803804432017497
30
0
10
77.059282264478185
20
11.734082119343569
30
0
10
77.325017479467292
20
11.624656460977043
30
0
10
77.462835578271566
20
11.584940203095195
30
0
10
77.625387763724731
20
11.554990506823184
30
0
10
77.647936994270609
20
11.55120732064117
30
0
10
77.670534834622401
20
11.547782305440666
30
0
0
SPLINE
5
323
100
AcDbEntity
8
0
100
AcDbSpline
70
0
71
3
72
12
73
8
74
0
42
0.000000001
43
0.0000000001
44
0.0000000001
40
1.0382411962797133
40
1.0382411962797133
40
1.0382411962797133
40
1.0382411962797133
40
1.1452192464312496
40
1.1452192464312496
40
1.3185624757045853
40
1.3185624757045853
40
1.3962634015954223
40
1.3962634015954223
40
1.3962634015954223
40
1.3962634015954223
10
79.400000000000105
20
11.561124050565205
30
0
10
79.409345956591849
20
11.557229248931755
30
0
10
79.419851341396551
20
11.553333336496278
30
0
10
79.449932085097657
20
11.543691965264538
30
0
10
79.471097252477449
20
11.538316173520357
30
0
10
79.504063480722579
20
11.532308489656751
30
0
10
79.514585632529702
20
11.530691051755406
30
0
10
79.525331046498351
20
11.529351292010508
30
0
0
SPLINE
5
324
100
AcDbEntity
8
0
100
AcDbSpline
70
0
71
3
72
18
73
14
74
0
42
0.000000001
43
0.0000000001
44
0.0000000001
40
6.2831853071795845
40
6.2831853071795845
40
6.2831853071795845
40
6.2831853071795845
40
6.5256187299930275
40
6.5256187299930275
40
6.781750102228199
40
6.781750102228199
40
7.0610027825472894
40
7.0610027825472894
40
7.3402554628663799
40
7.3402554628663799
40
7.6195081431854703
40
7.6195081431854703
40
7.6794487087750367
40
7.6794487087750367
40
7.6794487087750367
40
7.6794487087750367
10
77.800000000000111
20
11.431862200043216
30
0
10
77.800000000000111
20
11.283292725086586
30
0
10
77.826155692231396
20
11.135080720264352
30
0
10
77.924739695134264
20
10.853195758717607
30
0
10
77.999066130339344
20
10.721005495182048
30
0
10
78.184654782833292
20
10.479967188986707
30
0
10
78.298362155588137
20
10.373842017404897
30
0
10
78.543647011445188
20
10.197749666443682
30
0
10
78.675414300563403
20
10.127529387277974
30
0
10
78.948799520725132
20
10.018450662370599
30
0
10
79.090534348923967
20
9.9795821877846542
30
0
10
79.265319864801242
20
9.9500601216231033
30
0
10
79.296308607813785
20
9.945517747998192
30
0
10
79.327372598167983
20
9.9416446274358918
30
0
0
SPLINE
5
325
100
AcDbEntity
8
0
100
AcDbSpline
70
0
71
3
72
18
73
14
74
0
42
0.000000001
43
0.0000000001
44
0.0000000001
40
1.7453292519943258
40
1.7453292519943258
40
1.7453292519943258
40
1.7453292519943258
40
2.0245819323134202
40
2.0245819323134202
40
2.3038346126325147
40
2.3038346126325147
40
2.5830872929516091
40
2.5830872929516091
40
2.8623399732707036
40
2.8623399732707036
40
3.1227692657962476
40
3.1227692657962476
40
3.141592653589798
40
3.141592653589798
40
3.141592653589798
40
3.141592653589798
10
80.672627401832216
20
11.386304083515078
30
0
10
80.817349135477698
20
11.368259887775798
30
0
10
80.960464334182731
20
11.335762761336245
30
0
10
81.237932583047652
20
11.240069783370004
30
0
10
81.372379104969426
20
11.176880755456072
30
0
10
81.625188520248386
20
11.015921600481072
30
0
10
81.743743533246786
20
10.917978698931151
30
0
10
81.951292413678786
20
10.68311485045994
30
0
10
82.040184666158126
20
10.545601236239099
30
0
10
82.160854007919625
20
10.248033728343254
30
0
10
82.195292572536175
20
10.090204449366208
30
0
10
82.199846431753912
20
9.9191574280369252
30
0
10
82.200000000000102
20
9.9076219700409691
30
0
10
82.200000000000102
20
9.8960865109077432
30
0
0
SPLINE
5
326
100
AcDbEntity
8
0
100
AcDbSpline
70
0
71
3
72
12
73
8
74
0
42
0.000000001
43
0.0000000001
44
0.0000000001
40
1.7453292519943091
40
1.7453292519943091
40
1.7453292519943091
40
1.7453292519943091
40
1.9239721574048132
40
1.9239721574048132
40
2.098746048773346
40
2.098746048773346
40
2.1033514573099894
40
2.1033514573099894
40
2.1033514573099894
40
2.1033514573099894
10
80.474668953501833
20
9.7985974189404601
30
0
10
80.499373832487393
20
9.7955171651257675
30
0
10
80.52288991085868
20
9.7909435535549978
30
0
10
80.56483553327736
20
9.7800099253519601
30
0
10
80.583355643915354
20
9.7736907875105743
30
0
10
80.599193170463991
20
9.7671600130485743
30
0
10
80.599597656265004
20
9.7669923317227028
30
0
10
80.600000000000094
20
9.7668246603857707
30
0
0
SPLINE
5
327
100
AcDbEntity
8
0
100
AcDbSpline
70
0
71
3
72
18
73
14
74
0
42
0.000000001
43
0.0000000001
44
0.0000000001
40
1.7792763976886901
40
1.7792763976886901
40
1.7792763976886901
40
1.7792763976886901
40
2.051739648868911
40
2.051739648868911
40
2.3242029000491318
40
2.3242029000491318
40
2.5966661512293525
40
2.5966661512293525
40
2.8691294024095733
40
2.8691294024095733
40
3.1287276532424775
40
3.1287276532424775
40
3.1415926535897949
40
3.1415926535897949
40
3.1415926535897949
40
3.1415926535897949
10
77.925329191976928
20
13.126986231728351
30
0
10
78.066106625395236
20
13.105927159076742
30
0
10
78.20505270142624
20
13.0710503601588
30
0
10
78.474040248786338
20
12.971800493381856
30
0
10
78.604173408008293
20
12.907427992272225
30
0
10
78.848446892418451
20
12.745413147757541
30
0
10
78.96275906883325
20
12.647596210101195
30
0
10
79.162335878363535
20
12.4147775949164
30
0
10
79.247478906434921
20
12.279238189414137
30
0
10
79.363965669587358
20
11.984445492030936
30
0
10
79.396890946569883
20
11.826695457119401
30
0
10
79.399928273300844
20
11.659762244471141
30
0
10
79.400000000000148
20
11.651878239519995
30
0
10
79.400000000000148
20
11.64399423439918
30
0
0
SPLINE
5
328
100
AcDbEntity
8
0
100
AcDbSpline
70
0
71
3
72
12
73
8
74
0
42
0.000000001
43
0.0000000001
44
0.0000000001
40
1.7453488042712488
40
1.7453488042712488
40
1.7453488042712488
40
1.7453488042712488
40
1.923991363802948
40
1.923991363802948
40
2.0987648307198459
40
2.0987648307198459
40
2.1033514573099312
40
2.1033514573099312
40
2.1033514573099312
40
2.1033514573099312
10
77.674677065228067
20
11.546504130987834
30
0
10
77.699381638374774
20
11.543423563130942
30
0
10
77.722897285320215
20
11.538849681824798
30
0
10
77.764841837231685
20
11.527915685600744
30
0
10
77.78336131510541
20
11.521596447002695
30
0
10
77.799196469606244
20
11.515066368852025
30
0
10
77.799599297118036
20
11.514899371410758
30
0
10
77.800000000000097
20
11.514732383877242
30
0
0
ARC
5
329
100
AcDbEntity
8
0
100
AcDbCircle
10
77.000000000000114
20
-19.099999999999998
30
0
40
0.80000000000000071
210
0
220
0
230
1
100
AcDbArc
50
-180
51
0
0
ARC
5
330
100
AcDbEntity
8
0
100
AcDbCircle
10
77.000000000000114
20
-12.900000000000006
30
0
40
0.80000000000000471
210
0
220
0
230
1
100
AcDbArc
50
147.4101590017838
51
180
0
LINE
5
331
100
AcDbEntity
8
0
100
AcDbLine
10
76.200000000000117
20
-14.4088105247762
30
0
11
76.200000000000117
21
-19.099999999999998
31
0
0
LINE
5
332
100
AcDbEntity
8
0
100
AcDbLine
10
76.200000000000117
20
-12.900000000000006
30
0
11
76.200000000000117
21
-13.030151519016538
31
0
0
LINE
5
333
100
AcDbEntity
8
0
100
AcDbLine
10
77.800000000000125
20
-19.099999999999998
30
0
11
77.800000000000125
21
-14.408810524776204
31
0
0
LINE
5
334
100
AcDbEntity
8
0
100
AcDbLine
10
77.800000000000125
20
-13.188416816098092
30
0
11
77.800000000000125
21
-14.408810524776204
31
0
0
LINE
5
335
100
AcDbEntity
8
0
100
AcDbLine
10
76.200000000000117
20
-14.4088105247762
30
0
11
76.200000000000117
21
-13.188416816098091
31
0
0
SPLINE
5
336
100
AcDbEntity
8
0
100
AcDbSpline
70
0
71
3
72
12
73
8
74
0
42
0.000000001
43
0.0000000001
44
0.0000000001
40
4.8869219378167239
40
4.8869219378167239
40
4.8869219378167239
40
4.8869219378167239
40
5.065564842657059
40
5.065564842657059
40
5.2403387333258555
40
5.2403387333258555
40
5.2449441108996497
40
5.2449441108996497
40
5.2449441108996497
40
5.2449441108996497
10
77.925331033125843
20
-13.12764061265112
30
0
10
77.900626154644442
20
-13.130720866983532
30
0
10
77.877110076984351
20
-13.135294478998985
30
0
10
77.835164456330403
20
-13.146228107808746
30
0
10
77.816644346735529
20
-13.152547245816251
30
0
10
77.800806824097407
20
-13.159078019130373
30
0
10
77.800402341030235
20
-13.159245699328832
30
0
10
77.800000000000168
20
-13.159413369538484
30
0
0
SPLINE
5
337
100
AcDbEntity
8
0
100
AcDbSpline
70
0
71
3
72
14
73
10
74
0
42
0.000000001
43
0.0000000001
44
0.0000000001
40
4.9234347733725716
40
4.9234347733725716
40
4.9234347733725716
40
4.9234347733725716
40
5.1933323025716103
40
5.1933323025716103
40
5.4657955537236056
40
5.4657955537236056
40
5.7382588048756009
40
5.7382588048756009
40
5.9637305354905612
40
5.9637305354905612
40
5.9637305354905612
40
5.9637305354905612
10
77.670694301815814
20
-11.54775814205057
30
0
10
77.531277485764136
20
-11.568878077982077
30
0
10
77.393680802352833
20
-11.603562699564666
30
0
10
77.125959751064357
20
-11.70234526010271
30
0
10
76.995826591860336
20
-11.766717761217047
30
0
10
76.751553107485663
20
-11.928732605735702
30
0
10
76.637240931088456
20
-12.026549543391326
30
0
10
76.45487454850668
20
-12.239291137739318
30
0
10
76.382360125034467
20
-12.348541785184777
30
0
10
76.32596167027971
20
-12.469102877628867
30
0
0
SPLINE
5
338
100
AcDbEntity
8
0
100
AcDbSpline
70
0
71
3
72
12
73
8
74
0
42
0.000000001
43
0.0000000001
44
0.0000000001
40
4.8869219055841651
40
4.8869219055841651
40
4.8869219055841651
40
4.8869219055841651
40
5.065564810994668
40
5.065564810994668
40
5.2403387023632
40
5.2403387023632
40
5.244944110899886
40
5.244944110899886
40
5.244944110899886
40
5.244944110899886
10
79.525331046498351
20
-11.529351292010503
30
0
10
79.500626167512806
20
-11.532431545825197
30
0
10
79.477110089141505
20
-11.537005157395971
30
0
10
79.435164466722838
20
-11.547938785599008
30
0
10
79.416644356084831
20
-11.554257923440392
30
0
10
79.400806829536194
20
-11.560788697902396
30
0
10
79.400402343735195
20
-11.560956379228269
30
0
10
79.400000000000105
20
-11.561124050565201
30
0
0
SPLINE
5
339
100
AcDbEntity
8
0
100
AcDbSpline
70
0
71
3
72
18
73
14
74
0
42
0.000000001
43
0.0000000001
44
0.0000000001
40
4.8869219055841358
40
4.8869219055841358
40
4.8869219055841358
40
4.8869219055841358
40
5.1661745859032262
40
5.1661745859032262
40
5.4454272662223167
40
5.4454272662223167
40
5.7246799465414071
40
5.7246799465414071
40
6.0039326268604976
40
6.0039326268604976
40
6.2643619193860411
40
6.2643619193860411
40
6.2831853071795889
40
6.2831853071795889
40
6.2831853071795889
40
6.2831853071795889
10
79.327372598167983
20
-9.9416446274358865
30
0
10
79.182650864522486
20
-9.959688823175167
30
0
10
79.039535665817468
20
-9.9921859496147221
30
0
10
78.762067416952547
20
-10.087878927580965
30
0
10
78.627620895030773
20
-10.151067955494899
30
0
10
78.374811479751813
20
-10.312027110469899
30
0
10
78.256256466753428
20
-10.409970012019818
30
0
10
78.048707586321441
20
-10.644833860491023
30
0
10
77.959815333842087
20
-10.782347474711866
30
0
10
77.839145992080574
20
-11.079914982607711
30
0
10
77.804707427464052
20
-11.23774426158475
30
0
10
77.800153568246316
20
-11.408791282914034
30
0
10
77.800000000000111
20
-11.420326740909987
30
0
10
77.800000000000111
20
-11.431862200043213
30
0
0
SPLINE
5
340
100
AcDbEntity
8
0
100
AcDbSpline
70
0
71
3
72
18
73
14
74
0
42
0.000000001
43
0.0000000001
44
0.0000000001
40
3.14159265358979
40
3.14159265358979
40
3.14159265358979
40
3.14159265358979
40
3.3840260764032326
40
3.3840260764032326
40
3.6401574486384036
40
3.6401574486384036
40
3.9194101289574976
40
3.9194101289574976
40
4.1986628092765921
40
4.1986628092765921
40
4.4779154895956861
40
4.4779154895956861
40
4.5378560551852605
40
4.5378560551852605
40
4.5378560551852605
40
4.5378560551852605
10
82.200000000000102
20
-9.8960865109077414
30
0
10
82.200000000000102
20
-10.044655985864372
30
0
10
82.173844307768817
20
-10.192867990686612
30
0
10
82.075260304865935
20
-10.474752952233356
30
0
10
82.000933869660869
20
-10.606943215768913
30
0
10
81.815345217166922
20
-10.847981521964254
30
0
10
81.701637844412076
20
-10.954106693546066
30
0
10
81.456352988555025
20
-11.130199044507281
30
0
10
81.32458569943681
20
-11.200419323672993
30
0
10
81.051200479275082
20
-11.309498048580366
30
0
10
80.90946565107626
20
-11.348366523166311
30
0
10
80.734680135198971
20
-11.37788858932786
30
0
10
80.7036913921864
20
-11.382430962952771
30
0
10
80.672627401832216
20
-11.386304083515073
30
0
0
SPLINE
5
341
100
AcDbEntity
8
0
100
AcDbSpline
70
0
71
3
72
12
73
8
74
0
42
0.000000001
43
0.0000000001
44
0.0000000001
40
4.1798338498696026
40
4.1798338498696026
40
4.1798338498696026
40
4.1798338498696026
40
4.2868119000210561
40
4.2868119000210561
40
4.4601551292943915
40
4.4601551292943915
40
4.5378560551852773
40
4.5378560551852773
40
4.5378560551852773
40
4.5378560551852773
10
80.600000000000094
20
-9.7668246603857689
30
0
10
80.59065404340835
20
-9.7707194620192155
30
0
10
80.580148658603648
20
-9.7746153744546884
30
0
10
80.550067914902556
20
-9.7842567456864256
30
0
10
80.528902747522736
20
-9.7896325374306059
30
0
10
80.49593651927762
20
-9.7956402212942155
30
0
10
80.485414367470497
20
-9.7972576591955605
30
0
10
80.474668953501833
20
-9.7985974189404583
30
0
0
SPLINE
5
342
100
AcDbEntity
8
0
100
AcDbSpline
70
0
71
3
72
18
73
14
74
0
42
0.000000001
43
0.0000000001
44
0.0000000001
40
3.1415926535897931
40
3.1415926535897931
40
3.1415926535897931
40
3.1415926535897931
40
3.384026076403237
40
3.384026076403237
40
3.6401574486384098
40
3.6401574486384098
40
3.9126014298729985
40
3.9126014298729985
40
4.1850454111075877
40
4.1850454111075877
40
4.4574893923421763
40
4.4574893923421763
40
4.5038125597627374
40
4.5038125597627374
40
4.5038125597627374
40
4.5038125597627374
10
79.400000000000148
20
-11.643994234399177
30
0
10
79.400000000000148
20
-11.792563709355813
30
0
10
79.373844307768877
20
-11.940775714178054
30
0
10
79.275260304865995
20
-12.222660675724805
30
0
10
79.200933869660901
20
-12.354850939260366
30
0
10
79.01770542435338
20
-12.592823862228675
30
0
10
78.907153852968278
20
-12.696836858815368
30
0
10
78.668744994527572
20
-12.870340094670814
30
0
10
78.540720261931483
20
-12.940062324924034
30
0
10
78.274986245965735
20
-13.049488027168399
30
0
10
78.137168761553099
20
-13.089204411763566
30
0
10
77.973293153183874
20
-13.119398340864119
30
0
10
77.949412759182849
20
-13.123381831778181
30
0
10
77.925478538400043
20
-13.126963885494582
30
0
0
SPLINE
5
343
100
AcDbEntity
8
0
100
AcDbSpline
70
0
71
3
72
12
73
8
74
0
42
0.000000001
43
0.0000000001
44
0.0000000001
40
4.1798338498696976
40
4.1798338498696976
40
4.1798338498696976
40
4.1798338498696976
40
4.2867255811761664
40
4.2867255811761664
40
4.4600673823926513
40
4.4600673823926513
40
4.5375049488172179
40
4.5375049488172179
40
4.5375049488172179
40
4.5375049488172179
10
77.800000000000097
20
-11.514732383877242
30
0
10
77.790661584508385
20
-11.518624042858734
30
0
10
77.780165616494244
20
-11.522516817766812
30
0
10
77.750098393306487
20
-11.532156067804777
30
0
10
77.728935521927966
20
-11.537532780975056
30
0
10
77.696006386192764
20
-11.543535884083161
30
0
10
77.6855215886618
20
-11.545149254454737
30
0
10
77.674814605406681
20
-11.54648696361777
30
0
0
LINE
5
344
100
AcDbEntity
8
0
100
AcDbLine
10
82.200000000000074
20
-3.4142135623730869
30
0
11
82.200000000000074
21
3.4142135623730812
31
0
0
LINE
5
345
100
AcDbEntity
8
0
100
AcDbLine
10
80.60000000000008
20
3.4142135623730816
30
0
11
80.60000000000008
21
-3.4142135623730798
31
0
0
ARC
5
346
100
AcDbEntity
8
0
100
AcDbCircle
10
77.000000000000142
20
12.900000000000006
30
0
40
0.80000000000000071
210
0
220
0
230
1
100
AcDbArc
50
180
51
212.58984099820591
0
ARC
5
347
100
AcDbEntity
8
0
100
AcDbCircle
10
77.000000000000142
20
19.099999999999998
30
0
40
0.80000000000000071
210
0
220
0
230
1
100
AcDbArc
50
0
51
180
0
LINE
5
348
100
AcDbEntity
8
0
100
AcDbLine
10
76.200000000000131
20
13.030151519016535
30
0
11
76.200000000000131
21
12.900000000000006
31
0
0
LINE
5
349
100
AcDbEntity
8
0
100
AcDbLine
10
76.200000000000131
20
19.099999999999998
30
0
11
76.200000000000117
21
14.408810524776198
31
0
0
LINE
5
350
100
AcDbEntity
8
0
100
AcDbLine
10
77.800000000000125
20
14.408810524776198
30
0
11
77.800000000000139
21
19.099999999999998
31
0
0
LINE
5
351
100
AcDbEntity
8
0
100
AcDbLine
10
77.800000000000168
20
13.159413369538484
30
0
11
77.800000000000125
21
13.188416816098094
31
0
0
LINE
5
352
100
AcDbEntity
8
0
100
AcDbLine
10
76.200000000000131
20
13.030151519016535
30
0
11
76.200000000000117
21
13.188416816098092
31
0
0
LINE
5
353
100
AcDbEntity
8
0
100
AcDbLine
10
79.400000000000105
20
11.561124050565205
30
0
11
79.400000000000162
21
11.643994234399177
31
0
0
LINE
5
354
100
AcDbEntity
8
0
100
AcDbLine
10
77.800000000000111
20
11.431862200043216
30
0
11
77.800000000000097
21
11.51473238387724
31
0
0
LINE
5
355
100
AcDbEntity
8
0
100
AcDbLine
10
80.672627401832216
20
11.386304083515078
30
0
11
79.525331046498366
21
11.52935129201051
31
0
0
LINE
5
356
100
AcDbEntity
8
0
100
AcDbLine
10
80.474668953501833
20
9.7985974189404601
30
0
11
79.327372598167969
21
9.9416446274358918
31
0
0
LINE
5
357
100
AcDbEntity
8
0
100
AcDbLine
10
76.200000000000117
20
-13.030151519016538
30
0
11
76.200000000000117
21
-13.188416816098091
31
0
0
LINE
5
358
100
AcDbEntity
8
0
100
AcDbLine
10
77.800000000000168
20
-13.159413369538484
30
0
11
77.800000000000125
21
-13.188416816098092
31
0
0
LINE
5
359
100
AcDbEntity
8
0
100
AcDbLine
10
77.800000000000111
20
-11.431862200043213
30
0
11
77.800000000000097
21
-11.514732383877242
31
0
0
LINE
5
360
100
AcDbEntity
8
0
100
AcDbLine
10
79.400000000000105
20
-11.561124050565201
30
0
11
79.400000000000148
21
-11.643994234399177
31
0
0
LINE
5
361
100
AcDbEntity
8
0
100
AcDbLine
10
80.474668953501848
20
-9.7985974189404583
30
0
11
79.327372598167983
21
-9.9416446274358865
31
0
0
LINE
5
362
100
AcDbEntity
8
0
100
AcDbLine
10
80.672627401832187
20
-11.386304083515073
30
0
11
79.525331046498351
21
-11.529351292010503
31
0
0
LINE
5
363
100
AcDbEntity
8
0
100
AcDbLine
10
82.200000000000074
20
3.4142135623730812
30
0
11
82.200000000000117
21
9.8960865109077432
31
0
0
LINE
5
364
100
AcDbEntity
8
0
100
AcDbLine
10
80.60000000000008
20
3.4142135623730816
30
0
11
80.600000000000108
21
9.7668246603857707
31
0
0
LINE
5
365
100
AcDbEntity
8
0
100
AcDbLine
10
82.200000000000102
20
-9.8960865109077414
30
0
11
82.200000000000074
21
-3.4142135623730869
31
0
0
LINE
5
366
100
AcDbEntity
8
0
100
AcDbLine
10
80.600000000000094
20
-9.7668246603857689
30
0
11
80.60000000000008
21
-3.4142135623730798
31
0
0
LWPOLYLINE
5
367
100
AcDbEntity
8
0
100
AcDbPolyline
90
4
70
1
43
0.0
10
79.100000000000051
20
-16.5
42
0.99999999999999989
10
80.70000000000006
20
-16.5
10
80.70000000000006
20
16.5
42
0.99999999999999989
10
79.100000000000051
20
16.5
0
LINE
5
368
100
AcDbEntity
8
0
100
AcDbLine
10
77.925185632058486
20
-13.127658760129604
30
0
11
77.925425285668467
21
-13.127626364248371
31
0
0
ELLIPSE
5
369
100
AcDbEntity
8
0
100
AcDbEllipse
10
77.773648187964383
20
-12.340358473123544
30
0
11
0.098970828471840633
21
-0.79385437903448519
31
0.0
40
0.12277754574864252
41
3.1415956755620407
42
3.1440976673765899
0
LINE
5
370
100
AcDbEntity
8
0
100
AcDbLine
10
77.674814367729113
20
11.546486993312675
30
0
11
77.674574714113888
21
11.546519389194581
31
0
0
ELLIPSE
5
371
100
AcDbEntity
8
0
100
AcDbEllipse
10
77.82631593769726
20
12.333791753693388
30
0
11
-0.099015644202087041
21
-0.79384879052495383
31
0.0
40
0.12278548887744704
41
3.139094256388562
42
3.1415982842022565
0
SPLINE
5
372
100
AcDbEntity
8
0
100
AcDbSpline
70
0
71
3
72
16
73
12
74
0
42
0.000000001
43
0.0000000001
44
0.0000000001
40
0.31945477168910358
40
0.31945477168910358
40
0.31945477168910358
40
0.31945477168910358
40
0.49856479504861695
40
0.49856479504861695
40
0.77100984456714072
40
0.77100984456714072
40
1.0434548940856645
40
1.0434548940856645
40
1.3158999436041883
40
1.3158999436041883
40
1.3622252475926206
40
1.3622252475926206
40
1.3622252475926206
40
1.3622252475926206
10
76.325961670279668
20
-12.469102877628748
30
0
10
76.370763422237744
20
-12.373331669304704
30
0
10
76.425765260212287
20
-12.284618593626746
30
0
10
76.582294945962957
20
-12.081321410228847
30
0
10
76.692847011089043
20
-11.977308080351403
30
0
10
76.931256945901254
20
-11.803804432017497
30
0
10
77.059282264478085
20
-11.734082119343574
30
0
10
77.325017479467192
20
-11.624656460977047
30
0
10
77.462835578271466
20
-11.584940203095195
30
0
10
77.626712897113094
20
-11.554746355430243
30
0
10
77.650594403885066
20
-11.550762755159345
30
0
10
77.674529741004832
20
-11.547180628821629
30
0
0
SPLINE
5
373
100
AcDbEntity
8
0
100
AcDbSpline
70
0
71
3
72
12
73
8
74
0
42
0.000000001
43
0.0000000001
44
0.0000000001
40
1.038241196279964
40
1.038241196279964
40
1.038241196279964
40
1.038241196279964
40
1.1451329274592033
40
1.1451329274592033
40
1.3184747286735761
40
1.3184747286735761
40
1.3959122947101388
40
1.3959122947101388
40
1.3959122947101388
40
1.3959122947101388
10
77.800000000000068
20
-13.159413369538482
30
0
10
77.809338415480653
20
-13.155521710561622
30
0
10
77.819834383480909
20
-13.15162893565817
30
0
10
77.849901606648743
20
-13.141989685623336
30
0
10
77.871064478023882
20
-13.136612972451704
30
0
10
77.903993613704444
20
-13.130609869350351
30
0
10
77.914478411180369
20
-13.128996498984773
30
0
10
77.925185394378872
20
-13.127658789824775
30
0
0
SPLINE
5
374
100
AcDbEntity
8
0
100
AcDbSpline
70
0
71
3
72
18
73
14
74
0
42
0.000000001
43
0.0000000001
44
0.0000000001
40
2.6168207644729641e-15
40
2.6168207644729641e-15
40
2.6168207644729641e-15
40
2.6168207644729641e-15
40
0.24243342281344551
40
0.24243342281344551
40
0.49856479504861784
40
0.49856479504861784
40
0.77781747536771007
40
0.77781747536771007
40
1.0570701556868023
40
1.0570701556868023
40
1.3363228360058945
40
1.3363228360058945
40
1.3962634015954636
40
1.3962634015954636
40
1.3962634015954636
40
1.3962634015954636
10
77.800000000000026
20
-11.431862200043215
30
0
10
77.800000000000026
20
-11.283292725086584
30
0
10
77.826155692231296
20
-11.135080720264344
30
0
10
77.924739695134178
20
-10.853195758717602
30
0
10
77.999066130339259
20
-10.721005495182041
30
0
10
78.184654782833206
20
-10.479967188986702
30
0
10
78.298362155588052
20
-10.373842017404895
30
0
10
78.543647011445103
20
-10.197749666443681
30
0
10
78.675414300563318
20
-10.127529387277971
30
0
10
78.948799520725046
20
-10.018450662370601
30
0
10
79.090534348923882
20
-9.9795821877846542
30
0
10
79.265319864801171
20
-9.9500601216231033
30
0
10
79.296308607813714
20
-9.9455177479981884
30
0
10
79.327372598167912
20
-9.9416446274358883
30
0
0
SPLINE
5
375
100
AcDbEntity
8
0
100
AcDbSpline
70
0
71
3
72
12
73
8
74
0
42
0.000000001
43
0.0000000001
44
0.0000000001
40
1.0382411962797744
40
1.0382411962797744
40
1.0382411962797744
40
1.0382411962797744
40
1.1452192464312589
40
1.1452192464312589
40
1.3185624757045948
40
1.3185624757045948
40
1.3962634015954567
40
1.3962634015954567
40
1.3962634015954567
40
1.3962634015954567
10
79.400000000000034
20
-11.5611240505652
30
0
10
79.409345956591778
20
-11.557229248931751
30
0
10
79.419851341396466
20
-11.553333336496278
30
0
10
79.449932085097572
20
-11.543691965264538
30
0
10
79.471097252477378
20
-11.538316173520357
30
0
10
79.504063480722508
20
-11.532308489656749
30
0
10
79.514585632529631
20
-11.530691051755404
30
0
10
79.52533104649828
20
-11.529351292010507
30
0
0
SPLINE
5
376
100
AcDbEntity
8
0
100
AcDbSpline
70
0
71
3
72
12
73
8
74
0
42
0.000000001
43
0.0000000001
44
0.0000000001
40
1.7453292519943142
40
1.7453292519943142
40
1.7453292519943142
40
1.7453292519943142
40
1.9239721574048183
40
1.9239721574048183
40
2.0987460487733514
40
2.0987460487733514
40
2.103351457310076
40
2.103351457310076
40
2.103351457310076
40
2.103351457310076
10
80.474668953501762
20
-9.7985974189404601
30
0
10
80.499373832487322
20
-9.7955171651257658
30
0
10
80.522889910858609
20
-9.7909435535549978
30
0
10
80.564835533277289
20
-9.7800099253519601
30
0
10
80.583355643915283
20
-9.7736907875105743
30
0
10
80.599193170463934
20
-9.7671600130485707
30
0
10
80.599597656264947
20
-9.7669923317226957
30
0
10
80.600000000000037
20
-9.7668246603857618
30
0
0
SPLINE
5
377
100
AcDbEntity
8
0
100
AcDbSpline
70
0
71
3
72
18
73
14
74
0
42
0.000000001
43
0.0000000001
44
0.0000000001
40
1.7453292519943235
40
1.7453292519943235
40
1.7453292519943235
40
1.7453292519943235
40
2.0245819323134167
40
2.0245819323134167
40
2.3038346126325098
40
2.3038346126325098
40
2.5830872929516029
40
2.5830872929516029
40
2.862339973270696
40
2.862339973270696
40
3.1227692657962418
40
3.1227692657962418
40
3.14159265358979
40
3.14159265358979
40
3.14159265358979
40
3.14159265358979
10
80.672627401832131
20
-11.386304083515078
30
0
10
80.817349135477627
20
-11.368259887775798
30
0
10
80.96046433418266
20
-11.335762761336243
30
0
10
81.237932583047581
20
-11.240069783370002
30
0
10
81.372379104969355
20
-11.176880755456068
30
0
10
81.625188520248315
20
-11.015921600481073
30
0
10
81.743743533246686
20
-10.917978698931154
30
0
10
81.951292413678686
20
-10.683114850459949
30
0
10
82.040184666158055
20
-10.545601236239104
30
0
10
82.160854007919554
20
-10.248033728343259
30
0
10
82.195292572536104
20
-10.090204449366219
30
0
10
82.199846431753826
20
-9.9191574280369323
30
0
10
82.200000000000017
20
-9.9076219700409798
30
0
10
82.200000000000017
20
-9.8960865109077538
30
0
0
SPLINE
5
378
100
AcDbEntity
8
0
100
AcDbSpline
70
0
71
3
72
12
73
8
74
0
42
0.000000001
43
0.0000000001
44
0.0000000001
40
1.7453488042711931
40
1.7453488042711931
40
1.7453488042711931
40
1.7453488042711931
40
1.9239913638028932
40
1.9239913638028932
40
2.0987648307197926
40
2.0987648307197926
40
2.1033514573099263
40
2.1033514573099263
40
2.1033514573099263
40
2.1033514573099263
10
77.674677065227968
20
-11.546504130987836
30
0
10
77.699381638374675
20
-11.543423563130943
30
0
10
77.72289728532013
20
-11.5388496818248
30
0
10
77.764841837231586
20
-11.52791568560075
30
0
10
77.783361315105324
20
-11.5215964470027
30
0
10
77.799196469606173
20
-11.515066368852027
30
0
10
77.799599297117965
20
-11.514899371410758
30
0
10
77.800000000000026
20
-11.514732383877242
30
0
0
SPLINE
5
379
100
AcDbEntity
8
0
100
AcDbSpline
70
0
71
3
72
18
73
14
74
0
42
0.000000001
43
0.0000000001
44
0.0000000001
40
1.7818421196332359
40
1.7818421196332359
40
1.7818421196332359
40
1.7818421196332359
40
2.0517396488688902
40
2.0517396488688902
40
2.3242029000491149
40
2.3242029000491149
40
2.5966661512293396
40
2.5966661512293396
40
2.8691294024095644
40
2.8691294024095644
40
3.1287276532424704
40
3.1287276532424704
40
3.1415926535897891
40
3.1415926535897891
40
3.1415926535897891
40
3.1415926535897891
10
77.9293056979526
20
-13.126387611400274
30
0
10
78.068722514025254
20
-13.105267675481008
30
0
10
78.206319197458342
20
-13.070583053907264
30
0
10
78.474040248786253
20
-12.971800493381867
30
0
10
78.604173408008194
20
-12.907427992272233
30
0
10
78.848446892418352
20
-12.745413147757549
30
0
10
78.962759068833165
20
-12.647596210101209
30
0
10
79.16233587836345
20
-12.414777594916412
30
0
10
79.24747890643485
20
-12.279238189414151
30
0
10
79.363965669587273
20
-11.984445492030948
30
0
10
79.396890946569812
20
-11.82669545711941
30
0
10
79.399928273300773
20
-11.659762244471148
30
0
10
79.400000000000091
20
-11.651878239519998
30
0
10
79.400000000000091
20
-11.643994234399184
30
0
0
ARC
5
380
100
AcDbEntity
8
0
100
AcDbCircle
10
77
20
12.900000000000006
30
0
40
0.80000000000000071
210
0
220
0
230
1
100
AcDbArc
50
180
51
212.58984099822644
0
ARC
5
381
100
AcDbEntity
8
0
100
AcDbCircle
10
77
20
19.099999999999998
30
0
40
0.80000000000000071
210
0
220
0
230
1
100
AcDbArc
50
0
51
180
0
LINE
5
382
100
AcDbEntity
8
0
100
AcDbLine
10
76.200000000000003
20
19.099999999999998
30
0
11
76.200000000000003
21
12.900000000000006
31
0
0
LINE
5
383
100
AcDbEntity
8
0
100
AcDbLine
10
77.799999999999997
20
13.159413369538511
30
0
11
77.799999999999997
21
19.099999999999998
31
0
0
SPLINE
5
384
100
AcDbEntity
8
0
100
AcDbSpline
70
0
71
3
72
14
73
10
74
0
42
0.000000001
43
0.0000000001
44
0.0000000001
40
4.9208690514196007
40
4.9208690514196007
40
4.9208690514196007
40
4.9208690514196007
40
5.1933323025715978
40
5.1933323025715978
40
5.4657955537235949
40
5.4657955537235949
40
5.738258804875592
40
5.738258804875592
40
5.9637305354904848
40
5.9637305354904848
40
5.9637305354904848
40
5.9637305354904848
10
77.674670807804461
20
11.547159521720108
30
0
10
77.533893374402666
20
11.568218594383922
30
0
10
77.394947298389056
20
11.603095393311477
30
0
10
77.125959751064272
20
11.702345260102708
30
0
10
76.995826591860265
20
11.766717761217043
30
0
10
76.751553107485577
20
11.928732605735696
30
0
10
76.637240931088371
20
12.026549543391319
30
0
10
76.454874548506623
20
12.239291137739283
30
0
10
76.382360125034424
20
12.348541785184699
30
0
10
76.325961670279682
20
12.469102877628746
30
0
0
SPLINE
5
385
100
AcDbEntity
8
0
100
AcDbSpline
70
0
71
3
72
12
73
8
74
0
42
0.000000001
43
0.0000000001
44
0.0000000001
40
4.8869219378167514
40
4.8869219378167514
40
4.8869219378167514
40
4.8869219378167514
40
5.0655648426570865
40
5.0655648426570865
40
5.2403387333258822
40
5.2403387333258822
40
5.244944110899648
40
5.244944110899648
40
5.244944110899648
40
5.244944110899648
10
77.92533103312573
20
13.12764061265112
30
0
10
77.900626154644343
20
13.130720866983532
30
0
10
77.877110076984238
20
13.135294478998985
30
0
10
77.83516445633029
20
13.146228107808749
30
0
10
77.816644346735416
20
13.152547245816251
30
0
10
77.800806824097307
20
13.159078019130373
30
0
10
77.800402341030136
20
13.15924569932883
30
0
10
77.800000000000068
20
13.159413369538482
30
0
0
SPLINE
5
386
100
AcDbEntity
8
0
100
AcDbSpline
70
0
71
3
72
18
73
14
74
0
42
0.000000001
43
0.0000000001
44
0.0000000001
40
4.8869219055841224
40
4.8869219055841224
40
4.8869219055841224
40
4.8869219055841224
40
5.1661745859032147
40
5.1661745859032147
40
5.4454272662223069
40
5.4454272662223069
40
5.7246799465413991
40
5.7246799465413991
40
6.0039326268604913
40
6.0039326268604913
40
6.2643619193860367
40
6.2643619193860367
40
6.2831853071795845
40
6.2831853071795845
40
6.2831853071795845
40
6.2831853071795845
10
79.327372598167912
20
9.9416446274358847
30
0
10
79.182650864522401
20
9.9596888231751652
30
0
10
79.039535665817397
20
9.9921859496147203
30
0
10
78.762067416952448
20
10.087878927580963
30
0
10
78.627620895030702
20
10.151067955494895
30
0
10
78.374811479751742
20
10.31202711046989
30
0
10
78.256256466753342
20
10.409970012019812
30
0
10
78.048707586321356
20
10.644833860491016
30
0
10
77.959815333842016
20
10.782347474711859
30
0
10
77.839145992080489
20
11.079914982607704
30
0
10
77.804707427463967
20
11.23774426158475
30
0
10
77.80015356824623
20
11.408791282914034
30
0
10
77.800000000000026
20
11.420326740909987
30
0
10
77.800000000000026
20
11.431862200043213
30
0
0
SPLINE
5
387
100
AcDbEntity
8
0
100
AcDbSpline
70
0
71
3
72
12
73
8
74
0
42
0.000000001
43
0.0000000001
44
0.0000000001
40
4.8869219055841295
40
4.8869219055841295
40
4.8869219055841295
40
4.8869219055841295
40
5.0655648109946334
40
5.0655648109946334
40
5.2403387023631662
40
5.2403387023631662
40
5.2449441108998149
40
5.2449441108998149
40
5.2449441108998149
40
5.2449441108998149
10
79.52533104649828
20
11.529351292010501
30
0
10
79.500626167512735
20
11.532431545825194
30
0
10
79.477110089141419
20
11.537005157395965
30
0
10
79.435164466722753
20
11.547938785599003
30
0
10
79.416644356084745
20
11.554257923440387
30
0
10
79.400806829536123
20
11.560788697902389
30
0
10
79.400402343735124
20
11.560956379228262
30
0
10
79.400000000000034
20
11.561124050565194
30
0
0
SPLINE
5
388
100
AcDbEntity
8
0
100
AcDbSpline
70
0
71
3
72
12
73
8
74
0
42
0.000000001
43
0.0000000001
44
0.0000000001
40
4.1798338498695573
40
4.1798338498695573
40
4.1798338498695573
40
4.1798338498695573
40
4.2868119000210569
40
4.2868119000210569
40
4.4601551292943933
40
4.4601551292943933
40
4.537856055185272
40
4.537856055185272
40
4.537856055185272
40
4.537856055185272
10
80.600000000000023
20
9.7668246603857618
30
0
10
80.590654043408279
20
9.7707194620192119
30
0
10
80.580148658603591
20
9.7746153744546849
30
0
10
80.550067914902485
20
9.7842567456864256
30
0
10
80.528902747522665
20
9.7896325374306059
30
0
10
80.495936519277535
20
9.7956402212942155
30
0
10
80.485414367470426
20
9.7972576591955605
30
0
10
80.474668953501762
20
9.7985974189404583
30
0
0
SPLINE
5
389
100
AcDbEntity
8
0
100
AcDbSpline
70
0
71
3
72
18
73
14
74
0
42
0.000000001
43
0.0000000001
44
0.0000000001
40
3.1415926535897967
40
3.1415926535897967
40
3.1415926535897967
40
3.1415926535897967
40
3.3840260764032393
40
3.3840260764032393
40
3.6401574486384116
40
3.6401574486384116
40
3.9194101289575047
40
3.9194101289575047
40
4.1986628092765983
40
4.1986628092765983
40
4.4779154895956914
40
4.4779154895956914
40
4.5378560551852622
40
4.5378560551852622
40
4.5378560551852622
40
4.5378560551852622
10
82.200000000000017
20
9.8960865109077503
30
0
10
82.200000000000017
20
10.044655985864381
30
0
10
82.173844307768746
20
10.19286799068662
30
0
10
82.075260304865878
20
10.474752952233363
30
0
10
82.000933869660798
20
10.60694321576892
30
0
10
81.81534521716685
20
10.847981521964257
30
0
10
81.701637844411991
20
10.954106693546068
30
0
10
81.45635298855494
20
11.130199044507282
30
0
10
81.324585699436724
20
11.200419323672994
30
0
10
81.051200479274996
20
11.309498048580364
30
0
10
80.909465651076161
20
11.348366523166309
30
0
10
80.734680135198872
20
11.377888589327858
30
0
10
80.703691392186329
20
11.382430962952771
30
0
10
80.672627401832131
20
11.386304083515073
30
0
0
SPLINE
5
390
100
AcDbEntity
8
0
100
AcDbSpline
70
0
71
3
72
12
73
8
74
0
42
0.000000001
43
0.0000000001
44
0.0000000001
40
4.1798338498696364
40
4.1798338498696364
40
4.1798338498696364
40
4.1798338498696364
40
4.2867255811761655
40
4.2867255811761655
40
4.4600673823926504
40
4.4600673823926504
40
4.5375049488172117
40
4.5375049488172117
40
4.5375049488172117
40
4.5375049488172117
10
77.800000000000026
20
11.514732383877233
30
0
10
77.790661584508314
20
11.518624042858727
30
0
10
77.780165616494173
20
11.52251681776681
30
0
10
77.750098393306416
20
11.532156067804777
30
0
10
77.728935521927895
20
11.537532780975052
30
0
10
77.696006386192693
20
11.543535884083159
30
0
10
77.685521588661729
20
11.545149254454737
30
0
10
77.674814605406624
20
11.54648696361777
30
0
0
SPLINE
5
391
100
AcDbEntity
8
0
100
AcDbSpline
70
0
71
3
72
18
73
14
74
0
42
0.000000001
43
0.0000000001
44
0.0000000001
40
3.1415926535897976
40
3.1415926535897976
40
3.1415926535897976
40
3.1415926535897976
40
3.3840260764032415
40
3.3840260764032415
40
3.6401574486384152
40
3.6401574486384152
40
3.912601429873007
40
3.912601429873007
40
4.1850454111075983
40
4.1850454111075983
40
4.4574893923421897
40
4.4574893923421897
40
4.5012343703632336
40
4.5012343703632336
40
4.5012343703632336
40
4.5012343703632336
10
79.400000000000091
20
11.64399423439918
30
0
10
79.400000000000091
20
11.792563709355814
30
0
10
79.373844307768806
20
11.940775714178057
30
0
10
79.27526030486591
20
12.222660675724811
30
0
10
79.200933869660844
20
12.354850939260373
30
0
10
79.017705424353309
20
12.592823862228684
30
0
10
78.907153852968193
20
12.696836858815372
30
0
10
78.668744994527501
20
12.870340094670818
30
0
10
78.540720261931384
20
12.940062324924035
30
0
10
78.27498624596565
20
13.049488027168401
30
0
10
78.137168761553013
20
13.089204411763568
30
0
10
77.974618579464746
20
13.119154132299137
30
0
10
77.952070755871844
20
13.122937159308524
30
0
10
77.929474327106973
20
13.126362059368281
30
0
0
LINE
5
392
100
AcDbEntity
8
0
100
AcDbLine
10
82.200000000000045
20
3.4142135623730843
30
0
11
82.200000000000045
21
-3.4142135623730843
31
0
0
LINE
5
393
100
AcDbEntity
8
0
100
AcDbLine
10
80.600000000000037
20
-3.4142135623730816
30
0
11
80.600000000000037
21
3.4142135623730816
31
0
0
ARC
5
394
100
AcDbEntity
8
0
100
AcDbCircle
10
77
20
-19.099999999999998
30
0
40
0.80000000000000071
210
0
220
0
230
1
100
AcDbArc
50
-180
51
0
0
ARC
5
395
100
AcDbEntity
8
0
100
AcDbCircle
10
77
20
-12.900000000000006
30
0
40
0.80000000000000304
210
0
220
0
230
1
100
AcDbArc
50
147.41015900177365
51
180
0
LINE
5
396
100
AcDbEntity
8
0
100
AcDbLine
10
76.200000000000003
20
-12.900000000000006
30
0
11
76.200000000000003
21
-19.099999999999998
31
0
0
LINE
5
397
100
AcDbEntity
8
0
100
AcDbLine
10
77.799999999999997
20
-19.099999999999998
30
0
11
77.800000000000068
21
-13.159413369538482
31
0
0
LINE
5
398
100
AcDbEntity
8
0
100
AcDbLine
10
77.800000000000026
20
-11.431862200043215
30
0
11
77.800000000000026
21
-11.51473238387724
31
0
0
LINE
5
399
100
AcDbEntity
8
0
100
AcDbLine
10
79.400000000000034
20
-11.5611240505652
30
0
11
79.400000000000091
21
-11.643994234399182
31
0
0
LINE
5
400
100
AcDbEntity
8
0
100
AcDbLine
10
80.474668953501762
20
-9.7985974189404601
30
0
11
79.327372598167898
21
-9.9416446274358901
31
0
0
LINE
5
401
100
AcDbEntity
8
0
100
AcDbLine
10
80.672627401832131
20
-11.386304083515078
30
0
11
79.525331046498295
21
-11.529351292010508
31
0
0
LINE
5
402
100
AcDbEntity
8
0
100
AcDbLine
10
79.400000000000034
20
11.561124050565194
30
0
11
79.400000000000091
21
11.64399423439918
31
0
0
LINE
5
403
100
AcDbEntity
8
0
100
AcDbLine
10
77.800000000000026
20
11.431862200043213
30
0
11
77.800000000000026
21
11.514732383877233
31
0
0
LINE
5
404
100
AcDbEntity
8
0
100
AcDbLine
10
80.672627401832116
20
11.386304083515073
30
0
11
79.52533104649828
21
11.529351292010501
31
0
0
LINE
5
405
100
AcDbEntity
8
0
100
AcDbLine
10
80.474668953501777
20
9.7985974189404583
30
0
11
79.327372598167912
21
9.9416446274358847
31
0
0
LINE
5
406
100
AcDbEntity
8
0
100
AcDbLine
10
80.600000000000037
20
-3.4142135623730816
30
0
11
80.600000000000051
21
-9.7668246603857618
31
0
0
LINE
5
407
100
AcDbEntity
8
0
100
AcDbLine
10
82.200000000000045
20
-3.4142135623730843
30
0
11
82.200000000000045
21
-9.8960865109077538
31
0
0
LINE
5
408
100
AcDbEntity
8
0
100
AcDbLine
10
80.600000000000023
20
9.7668246603857618
30
0
11
80.600000000000037
21
3.4142135623730816
31
0
0
LINE
5
409
100
AcDbEntity
8
0
100
AcDbLine
10
82.200000000000017
20
9.8960865109077503
30
0
11
82.200000000000045
21
3.4142135623730843
31
0
0
LWPOLYLINE
5
410
100
AcDbEntity
8
0
100
AcDbPolyline
90
4
70
1
43
0.0
10
79.200000000000045
20
-11
42
0.99999999999999989
10
80.800000000000054
20
-11
10
80.800000000000054
20
11
42
0.99999999999999989
10
79.200000000000045
20
11
0
LWPOLYLINE
5
411
100
AcDbEntity
8
0
100
AcDbPolyline
90
4
70
1
43
0.0
10
79.200000000000045
20
-5
42
0.99999999999999989
10
80.800000000000054
20
-5
10
80.800000000000054
20
4.9999999999999991
42
0.99999999999999989
10
79.200000000000045
20
4.9999999999999991
0
ENDSEC
0
SECTION
2
OBJECTS
0
DICTIONARY
5
C
100
AcDbDictionary
3
ACAD_GROUP
350
D
3
ACAD_MLINESTYLE
350
17
0
DICTIONARY
5
D
100
AcDbDictionary
0
DICTIONARY
5
1A
330
C
100
AcDbDictionary
0
DICTIONARY
5
17
100
AcDbDictionary
0
ENDSEC
0
EOF
