0
SECTION
2
HEADER
9
$INSUNITS
70
4
9
$ACADVER
1
AC1014
9
$HANDSEED
5
FFFF
0
ENDSEC
0
SECTION
2
TABLES
0
TABLE
2
VPORT
5
8
100
AcDbSymbolTable
0
ENDTAB
0
TABLE
2
LTYPE
5
5
100
AcDbSymbolTable
0
LTYPE
5
14
100
AcDbSymbolTableRecord
100
AcDbLinetypeTableRecord
2
BYBLOCK
70
0
0
LTYPE
5
15
100
AcDbSymbolTableRecord
100
AcDbLinetypeTableRecord
2
BYLAYER
70
0
0
LTYPE
5
16
100
AcDbSymbolTableRecord
100
AcDbLinetypeTableRecord
2
DASHED
70
0
3
Dashed __ __ __ __ __ __ __ __ __ __ __ __ __ _
72
65
73
2
40
0.75
49
0.5
74
0
49
-0.25
74
0
0
ENDTAB
0
TABLE
2
LAYER
5
2
100
AcDbSymbolTable
70
2
0
LAYER
5
50
100
AcDbSymbolTableRecord
100
AcDbLayerTableRecord
2
0
70
0
62
7
6
CONTINUOUS
0
ENDTAB
0
TABLE
2
STYLE
5
3
100
AcDbSymbolTable
70
1
0
STYLE
5
11
100
AcDbSymbolTableRecord
100
AcDbTextStyleTableRecord
2
STANDARD
70
0
0
ENDTAB
0
TABLE
2
VIEW
5
6
100
AcDbSymbolTable
70
0
0
ENDTAB
0
TABLE
2
UCS
5
7
100
AcDbSymbolTable
70
0
0
ENDTAB
0
TABLE
2
APPID
5
9
100
AcDbSymbolTable
70
2
0
APPID
5
12
100
AcDbSymbolTableRecord
100
AcDbRegAppTableRecord
2
ACAD
70
0
0
ENDTAB
0
TABLE
2
DIMSTYLE
5
A
100
AcDbSymbolTable
70
1
0
ENDTAB
0
TABLE
2
BLOCK_RECORD
5
1
100
AcDbSymbolTable
70
1
0
BLOCK_RECORD
5
1F
100
AcDbSymbolTableRecord
100
AcDbBlockTableRecord
2
*MODEL_SPACE
0
BLOCK_RECORD
5
1B
100
AcDbSymbolTableRecord
100
AcDbBlockTableRecord
2
*PAPER_SPACE
0
ENDTAB
0
ENDSEC
0
SECTION
2
BLOCKS
0
BLOCK
5
20
100
AcDbEntity
100
AcDbBlockBegin
2
*MODEL_SPACE
0
ENDBLK
5
21
100
AcDbEntity
100
AcDbBlockEnd
0
BLOCK
5
1C
100
AcDbEntity
100
AcDbBlockBegin
2
*PAPER_SPACE
0
ENDBLK
5
1D
100
AcDbEntity
100
AcDbBlockEnd
0
ENDSEC
0
SECTION
2
ENTITIES
0
LWPOLYLINE
5
100
100
AcDbEntity
8
0
100
AcDbPolyline
90
43
70
1
43
0.0
10
62.5
20
-20
10
61.5
20
-20
10
61.5
20
20
10
62.5
20
20
42
0.41421356237309503
10
63.5
20
21
10
63.500000000000007
20
27.900000000000006
10
54.5
20
27.900000000000006
42
-0.99999999999999989
10
52
20
27.900000000000006
10
52
20
36
42
0.41421356237309503
10
50
20
38
10
35.5
20
38
42
0.41421356237309503
10
34.5
20
37
10
34.5
20
36.399999999999999
10
33
20
36.399999999999999
10
0.49999999999999822
20
36.399999999999999
10
-1.0000000000000002
20
36.399999999999999
10
-1
20
37
42
0.41421356237309503
10
-2
20
38
10
-49
20
38
42
0.41421356237309503
10
-51.000000000000007
20
36
10
-51.000000000000007
20
27.900000000000013
42
-0.99999999999999989
10
-54.5
20
27.900000000000006
10
-63.500000000000007
20
27.900000000000006
10
-63.500000000000007
20
-15.500000000000004
42
0.41421356237309437
10
-62.5
20
-16.5
10
-61.5
20
-16.5
10
-61.5
20
-26.500000000000004
10
-62.5
20
-26.500000000000004
42
0.41421356237309503
10
-63.5
20
-27.5
10
-63.500000000000007
20
-27.900000000000006
10
-54.5
20
-27.900000000000006
42
-0.99999999999999989
10
-52
20
-27.900000000000006
10
-52
20
-36.399999999999999
10
8.5000000000000053
20
-36.399999999999999
10
10
20
-36.399999999999999
10
10
20
-37
42
0.41421356237309503
10
11
20
-38
10
50
20
-38
42
0.41421356237309503
10
52
20
-36
10
52
20
-27.900000000000006
42
-0.99999999999999989
10
54.5
20
-27.900000000000006
10
63.500000000000007
20
-27.900000000000006
10
63.500000000000007
20
-21
42
0.41421356237309503
0
CIRCLE
5
101
100
AcDbEntity
8
0
100
AcDbCircle
10
57.899999999999999
20
-24.600000000000005
30
0
40
2.0999999999999979
210
0
220
0
230
1
0
CIRCLE
5
102
100
AcDbEntity
8
0
100
AcDbCircle
10
57.899999999999999
20
24.400000000000006
30
0
40
2.0999999999999979
210
0
220
0
230
1
0
CIRCLE
5
103
100
AcDbEntity
8
0
100
AcDbCircle
10
-33
20
0
30
0
40
2.1000000000000005
210
0
220
0
230
1
0
LWPOLYLINE
5
104
100
AcDbEntity
8
0
100
AcDbPolyline
90
58
70
1
43
0.0
10
51.750000000000007
20
-37.5
42
0.4142135623730942
10
53.250000000000014
20
-36
10
53.25
20
-34.5
10
53.438000000000009
20
-34.5
10
53.438000000000009
20
-33
10
53.438000000000009
20
-25
10
53.438000000000009
20
-23.499999999999996
10
53.25
20
-23.5
10
53.25
20
-22.100000000000005
10
62
20
-22.100000000000001
42
0.4142135623730942
10
63.500000000000007
20
-20.600000000000001
10
63.500000000000007
20
20.400000000000006
42
0.4142135623730942
10
62
20
21.899999999999999
10
57.899999999999991
20
21.900000000000009
42
-0.41421356237309348
10
55.399999999999999
20
24.400000000000006
10
55.400000000000006
20
26
42
0.4142135623730942
10
53.900000000000006
20
27.5
10
51.5
20
27.5
10
51.5
20
36
42
0.4142135623730942
10
50
20
37.5
10
37.498718118930007
20
37.500000000000007
42
0.40215505765997128
10
36.000000000009997
20
36.062000000159856
10
34.75
20
36.061999999999998
10
34.750000000000007
20
36.25
10
33.25
20
36.25
10
0.24999999999999911
20
36.25
10
-1.2499999999999998
20
36.25
10
-1.25
20
36.062000000000054
10
-2.5000000000030265
20
36.061999999999998
42
0.4021550576922292
10
-3.9987181189269982
20
37.5
10
-51.5
20
37.5
42
0.4142135623730942
10
-53.000000000000007
20
36
10
-53.000000000000007
20
35
10
-53.188000000000002
20
35
10
-53.188000000000002
20
33.5
10
-53.188000000000002
20
30
10
-53.188000000000002
20
28.5
10
-53.000000000000007
20
28.5
10
-53.000000000000007
20
27.5
10
-62
20
27.5
42
0.41421356237309337
10
-63.500000000000007
20
26.000000000000007
10
-63.500000000000007
20
-24.5
42
0.41421356237309159
10
-62
20
-26
10
-61.5
20
-26
10
-61.5
20
-26.188000000000002
10
-60
20
-26.188000000000002
10
-58.000000000000007
20
-26.188000000000002
10
-56.5
20
-26.188000000000002
10
-56.5
20
-26
10
-54
20
-26
10
-54
20
-36.061999999999998
10
-54
20
-36.25
10
-52.5
20
-36.25
10
8.4999999999999964
20
-36.25
10
10
20
-36.25
10
10
20
-36.062000000001653
10
10.500000000013024
20
-36.061999999999877
42
0.40215505769089971
10
11.998718118930007
20
-37.5
0
LWPOLYLINE
5
105
100
AcDbEntity
8
0
100
AcDbPolyline
90
4
70
1
43
0.0
10
49.5
20
-2.5
10
49.5
20
25.500000000000004
10
25.500000000000004
20
25.500000000000004
10
25.500000000000004
20
-2.5
0
CIRCLE
5
106
100
AcDbEntity
8
0
100
AcDbCircle
10
-33
20
0
30
0
40
2.4999999999999991
210
0
220
-0
230
1
0
LWPOLYLINE
5
107
100
AcDbEntity
8
0
100
AcDbPolyline
90
4
70
1
43
0.0
10
4
20
-31.25
10
4
20
-16.25
10
-11
20
-16.25
10
-11
20
-31.25
0
CIRCLE
5
108
100
AcDbEntity
8
0
100
AcDbCircle
10
-33
20
0
30
0
40
2.0999999999999979
210
0
220
-0
230
1
0
LWPOLYLINE
5
109
100
AcDbEntity
8
0
100
AcDbPolyline
90
87
70
1
43
0.0
10
63.500000000000007
20
-21
10
63.500000000000007
20
-27.900000000000006
10
63.500000000000007
20
-28.000000000000004
10
63.500000000000007
20
-29.52072798379
10
63.500000000000007
20
-36
42
-0.41421356237309503
10
61.5
20
-38
10
56.5
20
-38
42
-0.41421356237309503
10
54.5
20
-36
10
54.5
20
-29.52072798379
10
54.5
20
-28.000000000000004
10
54.5
20
-27.900000000000006
42
0.99999999999999989
10
52
20
-27.900000000000006
10
52
20
-36
42
-0.41421356237309503
10
50
20
-38
10
11
20
-38
42
-0.41421356237309243
10
10
20
-37
10
10
20
-36.399999999999999
10
8.5
20
-36.399999999999999
10
8.5
20
-36.5
10
8.5000000000000018
20
-38
10
6.5000000000000036
20
-38
10
-50
20
-38
10
-52
20
-38
10
-52
20
-36.5
10
-52
20
-36.399999999999999
10
-52
20
-27.900000000000006
42
0.99999999999999989
10
-54.5
20
-27.900000000000006
10
-54.5
20
-28.000000000000004
10
-54.5
20
-29.52072798379
10
-54.5
20
-36
42
-0.41421356237309503
10
-56.5
20
-38
10
-61.5
20
-38
42
-0.41421356237309503
10
-63.500000000000007
20
-36
10
-63.500000000000007
20
-29.52072798379
10
-63.500000000000007
20
-28.000000000000004
10
-63.500000000000007
20
-27.900000000000006
10
-63.5
20
-27.5
42
-0.41421356237309503
10
-62.5
20
-26.5
10
-61.5
20
-26.500000000000004
10
-61.5
20
-16.5
10
-62.5
20
-16.499999999999996
42
-0.41421356237309503
10
-63.5
20
-15.5
10
-63.500000000000007
20
27.900000000000009
10
-63.500000000000007
20
28.000000000000004
10
-63.500000000000007
20
29.52072798379
10
-63.500000000000007
20
36
42
-0.41421356237309503
10
-61.5
20
38
10
-56.5
20
38
42
-0.41421356237309503
10
-54.5
20
36
10
-54.5
20
29.52072798379
10
-54.5
20
28.000000000000004
10
-54.5
20
27.900000000000006
42
0.99999999999999989
10
-51.000000000000007
20
27.900000000000013
10
-51.000000000000007
20
36
42
-0.41421356237309503
10
-49
20
38
10
-2.0000000000000022
20
38
42
-0.41421356237309359
10
-0.99999999999999922
20
37
10
-1.0000000000000002
20
36.399999999999999
10
0.5
20
36.399999999999999
10
0.5
20
36.5
10
0.49999999999999822
20
38
10
2.5
20
38
10
31
20
38
10
33
20
38
10
33
20
36.5
10
33
20
36.399999999999999
10
34.5
20
36.399999999999999
10
34.5
20
37
42
-0.41421356237309115
10
35.5
20
38
10
50
20
38
42
-0.41421356237309503
10
52
20
36
10
52
20
27.900000000000006
42
0.99999999999999989
10
54.5
20
27.900000000000006
10
54.5
20
28.000000000000004
10
54.5
20
29.52072798379
10
54.5
20
36
42
-0.41421356237309503
10
56.5
20
38
10
61.5
20
38
42
-0.41421356237309503
10
63.500000000000007
20
36
10
63.500000000000007
20
29.52072798379
10
63.500000000000007
20
28.000000000000004
10
63.500000000000007
20
27.900000000000006
10
63.5
20
21
42
-0.41421356237309243
10
62.5
20
20
10
61.5
20
20
10
61.5
20
-20
10
62.5
20
-19.999999999999986
42
-0.41421356237309243
0
CIRCLE
5
110
100
AcDbEntity
8
0
100
AcDbCircle
10
57.899999999999999
20
-24.600000000000005
30
0
40
2.0999999999999979
210
0
220
-0
230
1
0
CIRCLE
5
111
100
AcDbEntity
8
0
100
AcDbCircle
10
57.899999999999999
20
24.400000000000006
30
0
40
2.0999999999999979
210
0
220
-0
230
1
0
CIRCLE
5
112
100
AcDbEntity
8
0
100
AcDbCircle
10
57.899999999999999
20
-32.400000000000006
30
0
40
2.0000000000000018
210
0
220
-0
230
1
0
CIRCLE
5
113
100
AcDbEntity
8
0
100
AcDbCircle
10
-57.899999999999999
20
-32.400000000000006
30
0
40
2.0000000000000018
210
0
220
-0
230
1
0
CIRCLE
5
114
100
AcDbEntity
8
0
100
AcDbCircle
10
-57.899999999999999
20
32.400000000000006
30
0
40
2.0000000000000018
210
0
220
-0
230
1
0
CIRCLE
5
115
100
AcDbEntity
8
0
100
AcDbCircle
10
57.899999999999999
20
32.400000000000006
30
0
40
2.0000000000000018
210
0
220
-0
230
1
0
LWPOLYLINE
5
116
100
AcDbEntity
8
0
100
AcDbPolyline
90
4
70
1
43
0.0
10
-57.134999999999998
20
-26.77
42
0.99999999999999989
10
-57.134999999999977
20
-25.500000000000004
10
-61.484999999999999
20
-25.500000000000007
42
0.99999999999999989
10
-61.484999999999999
20
-26.769999999999996
0
LWPOLYLINE
5
117
100
AcDbEntity
8
0
100
AcDbPolyline
90
16
70
1
43
0.0
10
-61.5
20
38
42
0.41421356237309503
10
-63.500000000000007
20
36
10
-63.500000000000007
20
-36
42
0.41421356237309503
10
-61.5
20
-38
10
-55.500000000000007
20
-38
10
-55.500000000000007
20
-36
10
10.999999999999996
20
-36
10
10.999999999999996
20
-38
10
61.5
20
-38
42
0.41421356237309503
10
63.500000000000007
20
-36
10
63.500000000000007
20
36
42
0.41421356237309503
10
61.5
20
38
10
36.500000000000007
20
38
10
36.500000000000007
20
36
10
-3.0000000000000027
20
36
10
-3.0000000000000071
20
38
0
CIRCLE
5
118
100
AcDbEntity
8
0
100
AcDbCircle
10
-57.899999999999999
20
32.400000000000006
30
0
40
1.7500000000000016
210
0
220
-0
230
1
0
CIRCLE
5
119
100
AcDbEntity
8
0
100
AcDbCircle
10
-57.899999999999999
20
-32.400000000000006
30
0
40
1.7500000000000016
210
0
220
-0
230
1
0
CIRCLE
5
120
100
AcDbEntity
8
0
100
AcDbCircle
10
57.899999999999991
20
-32.400000000000006
30
0
40
1.7500000000000016
210
0
220
-0
230
1
0
CIRCLE
5
121
100
AcDbEntity
8
0
100
AcDbCircle
10
57.899999999999991
20
-24.600000000000009
30
0
40
1.7500000000000016
210
0
220
-0
230
1
0
CIRCLE
5
122
100
AcDbEntity
8
0
100
AcDbCircle
10
57.899999999999991
20
24.399999999999999
30
0
40
1.7500000000000016
210
0
220
-0
230
1
0
CIRCLE
5
123
100
AcDbEntity
8
0
100
AcDbCircle
10
57.899999999999991
20
32.400000000000006
30
0
40
1.7500000000000016
210
0
220
-0
230
1
0
LWPOLYLINE
5
124
100
AcDbEntity
8
0
100
AcDbPolyline
90
4
70
1
43
0.0
10
-52.563000000000017
20
35.170000000000002
42
0.99999999999999989
10
-53.863
20
35.170000000000002
10
-53.863
20
28.524000000000001
42
0.99999999999999989
10
-52.563000000000017
20
28.524000000000001
0
LWPOLYLINE
5
125
100
AcDbEntity
8
0
100
AcDbPolyline
90
4
70
1
43
0.0
10
53.862999999999992
20
29.140000000000001
10
53.863
20
20.199999999999999
42
-0.99999999999999989
10
52.562999999999995
20
20.199999999999999
10
52.563000000000002
20
29.140000000000011
42
-0.99999999999999989
0
LWPOLYLINE
5
126
100
AcDbEntity
8
0
100
AcDbPolyline
90
4
70
1
43
0.0
10
54.150000000000006
20
-23.350000000000005
10
54.150000000000027
20
-34.72000000000002
42
-0.99999999999999989
10
52.850000000000001
20
-34.720000000000006
10
52.850000000000023
20
-23.349999999999994
42
-0.99999999999999989
0
CIRCLE
5
127
100
AcDbEntity
8
0
100
AcDbCircle
10
-33
20
0
30
0
40
1.7500000000000016
210
0
220
-0
230
1
0
LWPOLYLINE
5
128
100
AcDbEntity
8
0
100
AcDbPolyline
90
8
70
1
43
0.0
10
54.600000000000001
20
3.6000000000000005
10
60.399999999999999
20
3.5999999999999401
10
61.400000000000006
20
3.6000000000000005
10
61.400000000000006
20
11.400000000000002
10
60.399999999999999
20
11.400000000000002
10
54.600000000000001
20
11.400000000000061
10
53.599999999999994
20
11.400000000000002
10
53.599999999999994
20
3.6000000000000005
0
LWPOLYLINE
5
129
100
AcDbEntity
8
0
100
AcDbPolyline
90
8
70
1
43
0.0
10
60.399999999999999
20
1.5000000000000004
10
54.600000000000001
20
1.5000000000000611
10
53.599999999999994
20
1.5000000000000004
10
53.599999999999994
20
-6.2999999999999989
10
54.600000000000001
20
-6.2999999999999989
10
60.399999999999999
20
-6.3000000000000602
10
61.400000000000006
20
-6.2999999999999989
10
61.400000000000006
20
1.5000000000000004
0
LWPOLYLINE
5
130
100
AcDbEntity
8
0
100
AcDbPolyline
90
32
70
1
43
0.0
10
43.600000000000001
20
-26.100000000000009
10
44.100000000000001
20
-26.100000000000009
10
44.100000000000001
20
-23.400000000000006
10
44.25
20
-23.100000000000005
10
44.449999999999989
20
-23.100000000000016
10
44.600000000000001
20
-23.400000000000006
10
44.600000000000001
20
-26.100000000000009
10
46.100000000000001
20
-26.100000000000009
10
46.100000000000001
20
-23.400000000000006
10
46.25
20
-23.100000000000005
10
46.449999999999989
20
-23.100000000000016
10
46.600000000000001
20
-23.400000000000006
10
46.600000000000001
20
-26.100000000000009
10
53.200000000000003
20
-26.100000000000009
10
53.200000000000003
20
-27.600000000000009
10
52.950000000000003
20
-27.850000000000005
10
51.150000000000013
20
-27.850000000000005
10
51.050000000000004
20
-27.900000000000009
10
49.700000000000003
20
-27.900000000000009
10
49.700000000000003
20
-28.650000000000006
10
52.950000000000003
20
-28.650000000000006
10
53.200000000000003
20
-28.900000000000006
10
53.200000000000003
20
-31.20000000000001
10
47.600000000000009
20
-31.20000000000001
10
47.600000000000009
20
-30.800000000000004
10
46.600000000000001
20
-30.800000000000004
10
46.600000000000001
20
-30.000000000000007
10
45.400000000000006
20
-30.000000000000007
10
45.226794919243119
20
-29.900000000000006
10
44.850000000000001
20
-29.900000000000013
42
-0.3741856866510791
10
44.107189110954408
20
-29.253595285198219
10
43.600000000000037
20
-28.960769515458651
0
LWPOLYLINE
5
131
100
AcDbEntity
8
0
100
AcDbPolyline
90
36
70
1
43
0.0
10
-49.946414888710002
20
13.309862435211002
10
-49.946414888710002
20
12.050000000000001
42
-0.41421356237309503
10
-51.796414888710004
20
10.199999999999999
10
-55.169735656009003
20
10.199999999999998
42
-0.17632698070845376
10
-56.455310875382018
20
10.667911113761988
10
-58.193627279023865
20
12.126531766927165
42
0.38887873185286609
10
-59.543521669896549
20
12.067594104994551
10
-61.41111577489
20
10.199999999999999
10
-62.246414888709545
20
10.778914448554666
10
-60.250628451081603
20
12.774700886182593
42
-0.3888787318526723
10
-57.550839669336995
20
12.892576210046013
10
-55.879202498396936
20
11.489906076448086
42
0.17632698070855185
10
-55.236414888710009
20
11.255950519567
10
-53.560085138963998
20
11.255950519567
42
0.73323033626184275
10
-52.986508702612987
20
13.075102563856014
10
-53.650000000001214
20
13.539684171823714
10
-53.650000000001008
20
14.299999999999999
10
-63.146414888710005
20
14.299999999999999
10
-63.446414888710009
20
14.6
10
-63.446414888710009
20
15
10
-63.146414888710005
20
15.300000000000001
10
-53.650000000001008
20
15.300000000000001
10
-53.650000000001008
20
20.399999999999999
10
-49.946414888710002
20
20.399999999999999
10
-49.946414888710002
20
16.299999999999997
10
-50.53641488871019
20
15.804931217605212
10
-50.536414888710013
20
15.300000000000001
10
-45.946414888710009
20
15.300000000000004
10
-45.946414888710009
20
23.700000000000003
10
-45.646414888710005
20
24.000000000000004
10
-45.246414888710007
20
24.000000000000004
10
-44.946414888710002
20
23.700000000000003
10
-44.946414888710002
20
15.300000000000001
42
-0.4142135623730937
10
-45.946414888710009
20
14.299999999999999
10
-50.536414888710013
20
14.299999999999999
10
-50.536414888710013
20
13.804931217605398
0
LWPOLYLINE
5
132
100
AcDbEntity
8
0
100
AcDbPolyline
90
20
70
1
43
0.0
10
61.983999999999988
20
-7.7000000000000002
10
62.983999999999995
20
-7.7000000000000002
10
62.983999999999995
20
-10.700000000000001
10
62.983999999999995
20
-11.400000000000002
10
62.983999999999995
20
-12.699999999999999
10
61.98399999999998
20
-12.699999999999999
10
61.783999999999978
20
-12.699999999999999
10
60.48399999999998
20
-12.699999999999999
10
59.483999999999988
20
-12.699999999999999
10
58.183999999999976
20
-12.699999999999999
10
57.98399999999998
20
-12.699999999999999
10
56.983999999999988
20
-12.699999999999999
10
56.983999999999988
20
-11.400000000000002
10
56.983999999999988
20
-10.700000000000001
10
56.983999999999988
20
-7.7000000000000002
10
57.98399999999998
20
-7.7000000000000002
10
58.183999999999976
20
-7.7000000000000002
10
59.483999999999988
20
-7.7000000000000002
10
60.48399999999998
20
-7.7000000000000002
10
61.783999999999978
20
-7.7000000000000002
0
LWPOLYLINE
5
133
100
AcDbEntity
8
0
100
AcDbPolyline
90
8
70
1
43
0.0
10
59.039999999999999
20
13.899999999999999
10
59.039999999999999
20
12.699999999999999
10
55.960000000000001
20
12.699999999999999
10
55.960000000000001
20
13.899999999999999
10
54.959999999999994
20
13.899999999999999
10
54.959999999999994
20
18.5
10
60.040000000000006
20
18.5
10
60.040000000000006
20
13.899999999999999
0
ENDSEC
0
SECTION
2
OBJECTS
0
DICTIONARY
5
C
100
AcDbDictionary
3
ACAD_GROUP
350
D
3
ACAD_MLINESTYLE
350
17
0
DICTIONARY
5
D
100
AcDbDictionary
0
DICTIONARY
5
1A
330
C
100
AcDbDictionary
0
DICTIONARY
5
17
100
AcDbDictionary
0
ENDSEC
0
EOF
