M48
; DRILL file {KiCad 9.0.7} date 2026-02-08T22:25:42+0100
; FORMAT={-:-/ absolute / inch / decimal}
; #@! TF.CreationDate,2026-02-08T22:25:42+01:00
; #@! TF.GenerationSoftware,Kicad,Pcbnew,9.0.7
; #@! TF.FileFunction,Plated,1,6,PTH
FMAT,2
INCH
; #@! TA.AperFunction,Plated,PTH,ViaDrill
T1C0.0079
; #@! TA.AperFunction,Plated,PTH,ComponentDrill
T2C0.0084
; #@! TA.AperFunction,Plated,PTH,ComponentDrill
T3C0.0118
; #@! TA.AperFunction,Plated,PTH,ComponentDrill
T4C0.1378
%
G90
G05
T1
X0.0709Y0.4016
X0.0719Y0.2815
X0.0728Y0.2421
X0.0758Y2.2264
X0.0797Y2.185
X0.0886Y2.9429
X0.0886Y2.9035
X0.0886Y2.8642
X0.0886Y2.8248
X0.0955Y2.3583
X0.1004Y0.2116
X0.1024Y2.4439
X0.1083Y2.687
X0.1083Y2.6476
X0.1102Y2.9764
X0.127Y0.4665
X0.128Y2.9429
X0.128Y2.9035
X0.128Y2.8248
X0.128Y0.935
X0.1407Y2.3829
X0.1476Y2.687
X0.1476Y2.6476
X0.1585Y3.1299
X0.1594Y0.4035
X0.1594Y0.3622
X0.1604Y2.6191
X0.1614Y2.5827
X0.1624Y1.6969
X0.1663Y2.188
X0.1665Y2.4933
X0.1673Y2.9429
X0.1673Y2.9035
X0.1673Y2.8248
X0.1673Y0.2657
X0.1673Y0.2264
X0.1693Y1.8474
X0.1703Y1.9262
X0.1703Y1.8878
X0.1703Y1.8071
X0.1703Y1.7677
X0.1703Y1.7293
X0.1722Y1.9646
X0.1732Y2.2657
X0.1742Y2.003
X0.1752Y2.1398
X0.1772Y2.0591
X0.1811Y2.2264
X0.187Y2.687
X0.187Y2.6476
X0.189Y2.5531
X0.1923Y1.6959
X0.2066Y2.903
X0.2067Y2.9429
X0.2067Y2.8248
X0.2067Y0.2657
X0.2067Y0.2264
X0.2116Y2.9793
X0.2156Y2.3888
X0.2165Y2.3573
X0.2165Y0.7185
X0.2175Y2.3031
X0.2175Y2.1555
X0.2185Y2.2717
X0.2264Y0.561
X0.2293Y2.5531
X0.2343Y0.4931
X0.2367Y2.9109
X0.2433Y2.0028
X0.2439Y1.926
X0.2439Y1.8866
X0.2439Y1.8473
X0.2445Y1.9644
X0.2446Y1.7685
X0.2446Y1.7321
X0.2451Y1.8064
X0.248Y3.1437
X0.249Y0.2234
X0.2618Y3.0423
X0.2657Y3.0965
X0.2785Y0.3563
X0.2805Y0.9154
X0.2815Y0.877
X0.2827Y1.4055
X0.2844Y2.5531
X0.2933Y1.1398
X0.2953Y2.4823
X0.2972Y0.6929
X0.3022Y0.8366
X0.3051Y0.9449
X0.3061Y0.3563
X0.311Y1.4636
X0.315Y1.0049
X0.3179Y1.689
X0.3189Y0.6831
X0.3248Y2.5541
X0.3386Y0.253
X0.3425Y0.6742
X0.3445Y1.502
X0.3445Y0.9469
X0.3445Y0.8445
X0.3484Y1.378
X0.3484Y1.1161
X0.3484Y0.2274
X0.3533Y2.5807
X0.3602Y0.813
X0.3632Y2.8012
X0.3632Y2.6683
X0.3642Y2.8622
X0.3671Y0.6634
X0.3711Y2.9144
X0.372Y0.2894
X0.378Y3.0984
X0.3809Y1.5384
X0.3877Y0.5985
X0.3898Y2.2933
X0.3898Y1.2283
X0.3907Y2.8337
X0.3937Y0.7776
X0.3937Y0.2293
X0.3976Y0.2608
X0.4006Y0.1998
X0.4065Y0.6181
X0.4094Y2.9685
X0.4114Y2.4469
X0.4173Y1.1161
X0.4242Y2.6142
X0.4242Y2.5935
X0.4242Y2.5719
X0.4285Y1.7784
X0.449Y2.0471
X0.449Y2.0156
X0.4498Y1.9449
X0.45Y1.8827
X0.451Y2.1809
X0.456Y0.4459
X0.4606Y0.5906
X0.4626Y0.8209
X0.4646Y1.5965
X0.4667Y0.4232
X0.4734Y2.7795
X0.4823Y1.6988
X0.4833Y2.7411
X0.4843Y1.9045
X0.4843Y1.4311
X0.4882Y2.0758
X0.4882Y1.9873
X0.4943Y0.4232
X0.4972Y1.8738
X0.5004Y0.5906
X0.502Y0.9941
X0.502Y0.9154
X0.502Y0.8169
X0.5059Y0.4459
X0.5098Y1.4902
X0.5148Y2.1811
X0.5157Y1.2165
X0.5207Y2.5335
X0.5256Y2.8465
X0.5256Y2.7717
X0.5287Y1.8738
X0.5305Y1.686
X0.5325Y1.943
X0.5344Y0.4242
X0.5402Y0.5906
X0.5413Y0.8169
X0.5459Y0.4459
X0.5531Y2.5856
X0.5581Y1.686
X0.5734Y0.4459
X0.5748Y1.6417
X0.5795Y0.5906
X0.5797Y2.5659
X0.5807Y0.9941
X0.5807Y0.9154
X0.5828Y2.1888
X0.5828Y1.8729
X0.5837Y2.128
X0.5846Y1.9421
X0.5851Y0.4237
X0.5876Y0.1841
X0.5974Y1.2096
X0.5984Y1.3327
X0.5996Y2.7724
X0.6004Y0.8169
X0.6043Y0.6673
X0.6083Y2.6614
X0.6201Y0.4823
X0.6276Y0.5689
X0.6311Y2.1898
X0.6319Y2.128
X0.6339Y1.2293
X0.6398Y0.8169
X0.6488Y2.8413
X0.6492Y2.7016
X0.6516Y0.5933
X0.6594Y0.9941
X0.6594Y0.9154
X0.6614Y2.772
X0.6663Y2.4085
X0.6663Y0.189
X0.6673Y2.6614
X0.6673Y1.2224
X0.6673Y1.1909
X0.6673Y1.1594
X0.6791Y0.6299
X0.6811Y2.1506
X0.6816Y1.9425
X0.689Y0.935
X0.689Y0.876
X0.689Y0.8366
X0.6939Y2.9695
X0.6941Y1.8738
X0.6988Y3.003
X0.6988Y0.561
X0.7028Y2.1024
X0.7028Y2.0246
X0.7047Y1.6713
X0.7087Y0.689
X0.7087Y0.6496
X0.7098Y2.1898
X0.7116Y2.6211
X0.7136Y2.6693
X0.7165Y3.0906
X0.7224Y2.9498
X0.7224Y1.1142
X0.7228Y2.8415
X0.7234Y1.9163
X0.7283Y1.3681
X0.7283Y1.2795
X0.7287Y1.4113
X0.7287Y1.3259
X0.7362Y2.7352
X0.7382Y0.7579
X0.7392Y2.6939
X0.7392Y2.6437
X0.7441Y3.0187
X0.7441Y0.7185
X0.7441Y0.6171
X0.7543Y0.1886
X0.7558Y0.2382
X0.7628Y2.8524
X0.7649Y1.9447
X0.7669Y2.1022
X0.7677Y1.3681
X0.7677Y1.2795
X0.7681Y1.4113
X0.7681Y1.3259
X0.7689Y2.0235
X0.7717Y1.1142
X0.7764Y2.578
X0.8061Y2.6693
X0.8071Y1.3681
X0.8071Y1.2795
X0.8074Y1.4113
X0.8074Y1.3259
X0.8075Y2.5772
X0.8209Y0.3219
X0.8248Y1.2224
X0.8248Y1.1909
X0.8248Y1.1594
X0.826Y0.9744
X0.8268Y0.8858
X0.8268Y0.8465
X0.8297Y2.7352
X0.8387Y2.5776
X0.8406Y2.313
X0.8415Y0.3484
X0.8563Y0.7579
X0.8642Y0.3306
X0.8713Y2.578
X0.8728Y0.1886
X0.873Y1.4508
X0.8829Y1.1388
X0.8858Y2.7756
X0.8858Y2.6614
X0.8858Y0.3504
X0.8937Y1.0551
X0.8947Y1.0955
X0.8949Y0.9744
X0.8949Y0.8858
X0.8949Y0.8465
X0.8957Y1.0138
X0.8957Y0.935
X0.9104Y0.3612
X0.9173Y3.1437
X0.9252Y0.8051
X0.9331Y0.3681
X0.9429Y1.2402
X0.9508Y2.875
X0.9557Y0.378
X0.9636Y2.7854
X0.9636Y2.7608
X0.9636Y2.7352
X0.9636Y2.7096
X0.9715Y0.189
X0.9791Y0.2776
X0.9945Y2.3886
X0.9949Y2.4516
X0.9949Y2.3575
X0.9953Y2.4205
X0.9953Y2.3024
X0.9957Y2.2717
X1.0023Y3.0239
X1.0024Y0.2854
X1.0069Y3.0482
X1.0098Y2.6811
X1.028Y0.2923
X1.0531Y0.2854
X1.0531Y0.2854
X1.0531Y0.2067
X1.063Y2.7343
X1.063Y2.7096
X1.064Y2.7854
X1.064Y2.7608
X1.0669Y2.6201
X1.1004Y0.5689
X1.1004Y0.4193
X1.1004Y0.3248
X1.1024Y2.8465
X1.1319Y0.2854
X1.1319Y0.2067
T2
X0.574Y2.0648
X0.574Y2.0313
X0.574Y1.9979
X0.6074Y2.0648
X0.6074Y2.0313
X0.6074Y1.9979
X0.6409Y2.0648
X0.6409Y2.0313
X0.6409Y1.9979
T3
X0.2614Y2.7453
X0.2614Y2.7075
X0.2953Y2.7264
X0.3291Y2.7453
X0.3291Y2.7075
T4
X0.6091Y3.1856
M30
