%TF.GenerationSoftware,KiCad,Pcbnew,9.0.7*%
%TF.CreationDate,2026-02-08T22:25:42+01:00*%
%TF.ProjectId,BladeCore-M54,426c6164-6543-46f7-9265-2d4d35342e6b,rev?*%
%TF.SameCoordinates,Original*%
%TF.FileFunction,Soldermask,Top*%
%TF.FilePolarity,Negative*%
%FSLAX46Y46*%
G04 Gerber Fmt 4.6, Leading zero omitted, Abs format (unit mm)*
G04 Created by KiCad (PCBNEW 9.0.7) date 2026-02-08 22:25:42*
%MOMM*%
%LPD*%
G01*
G04 APERTURE LIST*
G04 Aperture macros list*
%AMRoundRect*
0 Rectangle with rounded corners*
0 $1 Rounding radius*
0 $2 $3 $4 $5 $6 $7 $8 $9 X,Y pos of 4 corners*
0 Add a 4 corners polygon primitive as box body*
4,1,4,$2,$3,$4,$5,$6,$7,$8,$9,$2,$3,0*
0 Add four circle primitives for the rounded corners*
1,1,$1+$1,$2,$3*
1,1,$1+$1,$4,$5*
1,1,$1+$1,$6,$7*
1,1,$1+$1,$8,$9*
0 Add four rect primitives between the rounded corners*
20,1,$1+$1,$2,$3,$4,$5,0*
20,1,$1+$1,$4,$5,$6,$7,0*
20,1,$1+$1,$6,$7,$8,$9,0*
20,1,$1+$1,$8,$9,$2,$3,0*%
%AMFreePoly0*
4,1,23,0.000000,0.745722,0.065263,0.745722,0.191342,0.711940,0.304381,0.646677,0.396677,0.554381,0.461940,0.441342,0.495722,0.315263,0.495722,0.250000,0.500000,0.250000,0.500000,-0.250000,0.495722,-0.250000,0.495722,-0.315263,0.461940,-0.441342,0.396677,-0.554381,0.304381,-0.646677,0.191342,-0.711940,0.065263,-0.745722,0.000000,-0.745722,0.000000,-0.750000,-0.550000,-0.750000,
-0.550000,0.750000,0.000000,0.750000,0.000000,0.745722,0.000000,0.745722,$1*%
%AMFreePoly1*
4,1,23,0.550000,-0.750000,0.000000,-0.750000,0.000000,-0.745722,-0.065263,-0.745722,-0.191342,-0.711940,-0.304381,-0.646677,-0.396677,-0.554381,-0.461940,-0.441342,-0.495722,-0.315263,-0.495722,-0.250000,-0.500000,-0.250000,-0.500000,0.250000,-0.495722,0.250000,-0.495722,0.315263,-0.461940,0.441342,-0.396677,0.554381,-0.304381,0.646677,-0.191342,0.711940,-0.065263,0.745722,0.000000,0.745722,
0.000000,0.750000,0.550000,0.750000,0.550000,-0.750000,0.550000,-0.750000,$1*%
G04 Aperture macros list end*
%ADD10FreePoly0,270.000000*%
%ADD11R,1.500000X1.000000*%
%ADD12FreePoly1,270.000000*%
%ADD13RoundRect,0.102000X0.400000X0.850000X-0.400000X0.850000X-0.400000X-0.850000X0.400000X-0.850000X0*%
%ADD14RoundRect,0.102000X-0.850000X0.400000X-0.850000X-0.400000X0.850000X-0.400000X0.850000X0.400000X0*%
%ADD15RoundRect,0.070000X0.070000X-0.355000X0.070000X0.355000X-0.070000X0.355000X-0.070000X-0.355000X0*%
%ADD16R,0.700000X0.280000*%
%ADD17R,2.400000X1.650000*%
%ADD18RoundRect,0.147500X0.172500X-0.147500X0.172500X0.147500X-0.172500X0.147500X-0.172500X-0.147500X0*%
%ADD19RoundRect,0.250000X-0.650000X1.000000X-0.650000X-1.000000X0.650000X-1.000000X0.650000X1.000000X0*%
%ADD20RoundRect,0.135000X-0.135000X-0.185000X0.135000X-0.185000X0.135000X0.185000X-0.135000X0.185000X0*%
%ADD21RoundRect,0.100000X0.400000X0.100000X-0.400000X0.100000X-0.400000X-0.100000X0.400000X-0.100000X0*%
%ADD22RoundRect,0.135000X0.135000X0.185000X-0.135000X0.185000X-0.135000X-0.185000X0.135000X-0.185000X0*%
%ADD23R,0.800000X0.500000*%
%ADD24R,0.800000X0.400000*%
%ADD25RoundRect,0.140000X-0.170000X0.140000X-0.170000X-0.140000X0.170000X-0.140000X0.170000X0.140000X0*%
%ADD26RoundRect,0.250000X-0.650000X0.325000X-0.650000X-0.325000X0.650000X-0.325000X0.650000X0.325000X0*%
%ADD27RoundRect,0.102000X0.600000X0.700000X-0.600000X0.700000X-0.600000X-0.700000X0.600000X-0.700000X0*%
%ADD28R,0.500000X0.800000*%
%ADD29R,0.400000X0.800000*%
%ADD30RoundRect,0.135000X-0.185000X0.135000X-0.185000X-0.135000X0.185000X-0.135000X0.185000X0.135000X0*%
%ADD31RoundRect,0.140000X-0.140000X-0.170000X0.140000X-0.170000X0.140000X0.170000X-0.140000X0.170000X0*%
%ADD32RoundRect,0.140000X0.140000X0.170000X-0.140000X0.170000X-0.140000X-0.170000X0.140000X-0.170000X0*%
%ADD33RoundRect,0.135000X0.185000X-0.135000X0.185000X0.135000X-0.185000X0.135000X-0.185000X-0.135000X0*%
%ADD34RoundRect,0.140000X0.170000X-0.140000X0.170000X0.140000X-0.170000X0.140000X-0.170000X-0.140000X0*%
%ADD35O,1.244200X0.648600*%
%ADD36RoundRect,0.102000X1.700000X2.150000X-1.700000X2.150000X-1.700000X-2.150000X1.700000X-2.150000X0*%
%ADD37RoundRect,0.102000X0.140000X-0.780000X0.140000X0.780000X-0.140000X0.780000X-0.140000X-0.780000X0*%
%ADD38RoundRect,0.102000X0.780000X-0.140000X0.780000X0.140000X-0.780000X0.140000X-0.780000X-0.140000X0*%
%ADD39RoundRect,0.125000X-0.175000X-0.125000X0.175000X-0.125000X0.175000X0.125000X-0.175000X0.125000X0*%
%ADD40C,0.787400*%
%ADD41RoundRect,0.200000X-0.200000X-0.275000X0.200000X-0.275000X0.200000X0.275000X-0.200000X0.275000X0*%
%ADD42RoundRect,0.250000X0.625000X-0.312500X0.625000X0.312500X-0.625000X0.312500X-0.625000X-0.312500X0*%
%ADD43RoundRect,0.150000X0.150000X-0.512500X0.150000X0.512500X-0.150000X0.512500X-0.150000X-0.512500X0*%
%ADD44RoundRect,0.150000X0.587500X0.150000X-0.587500X0.150000X-0.587500X-0.150000X0.587500X-0.150000X0*%
%ADD45RoundRect,0.050000X0.500000X-0.500000X0.500000X0.500000X-0.500000X0.500000X-0.500000X-0.500000X0*%
%ADD46RoundRect,0.050000X0.500000X-0.300000X0.500000X0.300000X-0.500000X0.300000X-0.500000X-0.300000X0*%
%ADD47RoundRect,0.147500X0.147500X0.172500X-0.147500X0.172500X-0.147500X-0.172500X0.147500X-0.172500X0*%
%ADD48RoundRect,0.100000X0.637500X0.100000X-0.637500X0.100000X-0.637500X-0.100000X0.637500X-0.100000X0*%
%ADD49RoundRect,0.250000X0.640000X-0.260000X0.640000X0.260000X-0.640000X0.260000X-0.640000X-0.260000X0*%
%ADD50RoundRect,0.050000X-0.175000X-1.250000X0.175000X-1.250000X0.175000X1.250000X-0.175000X1.250000X0*%
%ADD51C,5.500000*%
%ADD52RoundRect,0.102000X0.700000X-0.600000X0.700000X0.600000X-0.700000X0.600000X-0.700000X-0.600000X0*%
%ADD53O,0.780000X0.220000*%
%ADD54O,0.220000X0.780000*%
%ADD55C,0.425000*%
%ADD56RoundRect,0.200000X1.500000X1.500000X-1.500000X1.500000X-1.500000X-1.500000X1.500000X-1.500000X0*%
G04 APERTURE END LIST*
%TO.C,EXT*%
G36*
X3342500Y65400000D02*
G01*
X1842500Y65400000D01*
X1842500Y63900000D01*
X3342500Y63900000D01*
X3342500Y65400000D01*
G37*
%TD*%
D10*
%TO.C,EXT*%
X2592500Y63350000D03*
D11*
X2592500Y64650000D03*
D12*
X2592500Y65950000D03*
%TD*%
D13*
%TO.C,RST*%
X11250000Y78650000D03*
X7850000Y78650000D03*
%TD*%
D14*
%TO.C,BOOT*%
X27950000Y12950000D03*
X27950000Y9550000D03*
%TD*%
D15*
%TO.C,IC7*%
X6500000Y67775000D03*
X7000000Y67775000D03*
X7500000Y67775000D03*
X8000000Y67775000D03*
X8500000Y67775000D03*
X8500000Y70725000D03*
X8000000Y70725000D03*
X7500000Y70725000D03*
X7000000Y70725000D03*
X6500000Y70725000D03*
D16*
X5950000Y69000000D03*
X9050000Y69000000D03*
D17*
X7500000Y69250000D03*
D16*
X5950000Y69500000D03*
X9050000Y69500000D03*
%TD*%
D18*
%TO.C,USB*%
X4825000Y78530000D03*
X4825000Y79500000D03*
%TD*%
D19*
%TO.C,D4*%
X3275000Y21700000D03*
X3275000Y17700000D03*
%TD*%
D20*
%TO.C,R26*%
X5174212Y47920788D03*
X6194212Y47920788D03*
%TD*%
D21*
%TO.C,IC8*%
X9412500Y74722500D03*
X9412500Y75372500D03*
X9412500Y76022500D03*
X7637500Y76022500D03*
X7637500Y75372500D03*
X7637500Y74722500D03*
%TD*%
D22*
%TO.C,R5*%
X15209212Y60895788D03*
X14189212Y60895788D03*
%TD*%
D20*
%TO.C,R32*%
X5189212Y44920788D03*
X6209212Y44920788D03*
%TD*%
D23*
%TO.C,R16*%
X6579212Y62295788D03*
D24*
X6579212Y61495788D03*
X6579212Y60695788D03*
D23*
X6579212Y59895788D03*
X8379212Y59895788D03*
D24*
X8379212Y60695788D03*
X8379212Y61495788D03*
D23*
X8379212Y62295788D03*
%TD*%
D25*
%TO.C,C52*%
X4800000Y66540000D03*
X4800000Y65580000D03*
%TD*%
D26*
%TO.C,C56*%
X4100000Y72685000D03*
X4100000Y69735000D03*
%TD*%
D27*
%TO.C,X2*%
X11950000Y32680000D03*
X11950000Y34880000D03*
X10250000Y32680000D03*
X10250000Y34880000D03*
%TD*%
D25*
%TO.C,C34*%
X14720000Y14080000D03*
X14720000Y13120000D03*
%TD*%
D20*
%TO.C,R14*%
X5189212Y49895788D03*
X6209212Y49895788D03*
%TD*%
D28*
%TO.C,R13*%
X22104212Y65470788D03*
D29*
X21304212Y65470788D03*
X20504212Y65470788D03*
D28*
X19704212Y65470788D03*
X19704212Y63670788D03*
D29*
X20504212Y63670788D03*
X21304212Y63670788D03*
D28*
X22104212Y63670788D03*
%TD*%
D30*
%TO.C,R46*%
X14750000Y16020000D03*
X14750000Y15000000D03*
%TD*%
D22*
%TO.C,R52*%
X3540000Y8175000D03*
X2520000Y8175000D03*
%TD*%
D30*
%TO.C,R53*%
X7225000Y66520000D03*
X7225000Y65500000D03*
%TD*%
D25*
%TO.C,C53*%
X5825000Y66515000D03*
X5825000Y65555000D03*
%TD*%
D31*
%TO.C,C46*%
X21000000Y21500000D03*
X21960000Y21500000D03*
%TD*%
D32*
%TO.C,C35*%
X11580000Y31200000D03*
X10620000Y31200000D03*
%TD*%
D30*
%TO.C,R44*%
X13775000Y16020000D03*
X13775000Y15000000D03*
%TD*%
%TO.C,R42*%
X12710000Y14090000D03*
X12710000Y13070000D03*
%TD*%
D33*
%TO.C,R1*%
X19375000Y73190000D03*
X19375000Y74210000D03*
%TD*%
D20*
%TO.C,R31*%
X5189212Y45920788D03*
X6209212Y45920788D03*
%TD*%
D22*
%TO.C,R59*%
X6835000Y73035000D03*
X5815000Y73035000D03*
%TD*%
D20*
%TO.C,R11*%
X7205000Y35725000D03*
X8225000Y35725000D03*
%TD*%
D34*
%TO.C,C22*%
X7900000Y37175000D03*
X7900000Y38135000D03*
%TD*%
D31*
%TO.C,C20*%
X4470000Y42300000D03*
X5430000Y42300000D03*
%TD*%
D20*
%TO.C,R8*%
X17340000Y72175000D03*
X18360000Y72175000D03*
%TD*%
D32*
%TO.C,C40*%
X8730000Y23250000D03*
X7770000Y23250000D03*
%TD*%
D31*
%TO.C,C44*%
X20980000Y24750000D03*
X21940000Y24750000D03*
%TD*%
D35*
%TO.C,IC3*%
X22324212Y32335788D03*
X22324212Y33605788D03*
X22324212Y34875788D03*
X22324212Y36145788D03*
X16632812Y36145788D03*
X16632812Y34875788D03*
X16632812Y33605788D03*
X16632812Y32335788D03*
D36*
X19478512Y34240788D03*
%TD*%
D25*
%TO.C,C54*%
X8250000Y66495000D03*
X8250000Y65535000D03*
%TD*%
D37*
%TO.C,IC6*%
X12010000Y19350000D03*
X12510000Y19350000D03*
X13010000Y19350000D03*
X13510000Y19350000D03*
X14010000Y19350000D03*
X14510000Y19350000D03*
X15010000Y19350000D03*
X15510000Y19350000D03*
X16010000Y19350000D03*
X16510000Y19350000D03*
X17010000Y19350000D03*
X17510000Y19350000D03*
D38*
X18940000Y20780000D03*
X18940000Y21280000D03*
X18940000Y21780000D03*
X18940000Y22280000D03*
X18940000Y22780000D03*
X18940000Y23280000D03*
X18940000Y23780000D03*
X18940000Y24280000D03*
X18940000Y24780000D03*
X18940000Y25280000D03*
X18940000Y25780000D03*
X18940000Y26280000D03*
D37*
X17510000Y27710000D03*
X17010000Y27710000D03*
X16510000Y27710000D03*
X16010000Y27710000D03*
X15510000Y27710000D03*
X15010000Y27710000D03*
X14510000Y27710000D03*
X14010000Y27710000D03*
X13510000Y27710000D03*
X13010000Y27710000D03*
X12510000Y27710000D03*
X12010000Y27710000D03*
D38*
X10580000Y26280000D03*
X10580000Y25780000D03*
X10580000Y25280000D03*
X10580000Y24780000D03*
X10580000Y24280000D03*
X10580000Y23780000D03*
X10580000Y23280000D03*
X10580000Y22780000D03*
X10580000Y22280000D03*
X10580000Y21780000D03*
X10580000Y21280000D03*
X10580000Y20780000D03*
%TD*%
D31*
%TO.C,C39*%
X20980000Y23750000D03*
X21940000Y23750000D03*
%TD*%
D34*
%TO.C,C42*%
X16000000Y29520000D03*
X16000000Y30480000D03*
%TD*%
D31*
%TO.C,C51*%
X2525000Y10250000D03*
X3485000Y10250000D03*
%TD*%
%TO.C,C38*%
X20980000Y25750000D03*
X21940000Y25750000D03*
%TD*%
D22*
%TO.C,R34*%
X17485000Y66575000D03*
X16465000Y66575000D03*
%TD*%
D23*
%TO.C,R25*%
X6604212Y54770788D03*
D24*
X6604212Y53970788D03*
X6604212Y53170788D03*
D23*
X6604212Y52370788D03*
X8404212Y52370788D03*
D24*
X8404212Y53170788D03*
X8404212Y53970788D03*
D23*
X8404212Y54770788D03*
%TD*%
D33*
%TO.C,R4*%
X14349212Y43935788D03*
X14349212Y44955788D03*
%TD*%
D20*
%TO.C,R47*%
X20930000Y26800000D03*
X21950000Y26800000D03*
%TD*%
D39*
%TO.C,D1*%
X14630000Y70920000D03*
X14630000Y69920000D03*
X15930000Y70420000D03*
%TD*%
D30*
%TO.C,R39*%
X11775000Y16020000D03*
X11775000Y15000000D03*
%TD*%
D34*
%TO.C,C19*%
X6475000Y41295000D03*
X6475000Y42255000D03*
%TD*%
D25*
%TO.C,C12*%
X18424212Y63650788D03*
X18424212Y62690788D03*
%TD*%
D18*
%TO.C,PWR*%
X2825000Y78525000D03*
X2825000Y79495000D03*
%TD*%
D22*
%TO.C,R18*%
X15770000Y68650000D03*
X14750000Y68650000D03*
%TD*%
%TO.C,R62*%
X5810000Y77300000D03*
X4790000Y77300000D03*
%TD*%
D31*
%TO.C,C6*%
X9924212Y45170788D03*
X10884212Y45170788D03*
%TD*%
D25*
%TO.C,C24*%
X8950000Y40055000D03*
X8950000Y39095000D03*
%TD*%
D40*
%TO.C,DEBUG*%
X23555000Y77585000D03*
X24825000Y77585000D03*
X23555000Y76315000D03*
X24825000Y76315000D03*
X23555000Y75045000D03*
X24825000Y75045000D03*
%TD*%
D20*
%TO.C,R29*%
X5174212Y46920788D03*
X6194212Y46920788D03*
%TD*%
D23*
%TO.C,R23*%
X6579212Y58520788D03*
D24*
X6579212Y57720788D03*
X6579212Y56920788D03*
D23*
X6579212Y56120788D03*
X8379212Y56120788D03*
D24*
X8379212Y56920788D03*
X8379212Y57720788D03*
D23*
X8379212Y58520788D03*
%TD*%
D25*
%TO.C,C23*%
X7900000Y40060000D03*
X7900000Y39100000D03*
%TD*%
%TO.C,C18*%
X15350000Y32450000D03*
X15350000Y31490000D03*
%TD*%
D41*
%TO.C,L2*%
X18175000Y30000000D03*
X19825000Y30000000D03*
%TD*%
D23*
%TO.C,R30*%
X25279212Y59870788D03*
D24*
X25279212Y60670788D03*
X25279212Y61470788D03*
D23*
X25279212Y62270788D03*
X23479212Y62270788D03*
D24*
X23479212Y61470788D03*
X23479212Y60670788D03*
D23*
X23479212Y59870788D03*
%TD*%
%TO.C,R28*%
X25279212Y56095788D03*
D24*
X25279212Y56895788D03*
X25279212Y57695788D03*
D23*
X25279212Y58495788D03*
X23479212Y58495788D03*
D24*
X23479212Y57695788D03*
X23479212Y56895788D03*
D23*
X23479212Y56095788D03*
%TD*%
D42*
%TO.C,R51*%
X3225000Y11850000D03*
X3225000Y14775000D03*
%TD*%
D20*
%TO.C,R12*%
X5189212Y50895788D03*
X6209212Y50895788D03*
%TD*%
D31*
%TO.C,C55*%
X8270000Y71960000D03*
X9230000Y71960000D03*
%TD*%
D33*
%TO.C,R9*%
X7600000Y41250000D03*
X7600000Y42270000D03*
%TD*%
D34*
%TO.C,C11*%
X13224212Y62690788D03*
X13224212Y63650788D03*
%TD*%
D43*
%TO.C,IC4*%
X4600000Y37425000D03*
X5550000Y37425000D03*
X6500000Y37425000D03*
X6500000Y39700000D03*
X4600000Y39700000D03*
%TD*%
D20*
%TO.C,R10*%
X5215000Y35700000D03*
X6235000Y35700000D03*
%TD*%
D25*
%TO.C,C33*%
X13710000Y14080000D03*
X13710000Y13120000D03*
%TD*%
D32*
%TO.C,C49*%
X3515000Y6150000D03*
X2555000Y6150000D03*
%TD*%
D23*
%TO.C,R22*%
X25254212Y44770788D03*
D24*
X25254212Y45570788D03*
X25254212Y46370788D03*
D23*
X25254212Y47170788D03*
X23454212Y47170788D03*
D24*
X23454212Y46370788D03*
X23454212Y45570788D03*
D23*
X23454212Y44770788D03*
%TD*%
D44*
%TO.C,IC5*%
X16375000Y73550000D03*
X16375000Y75450000D03*
X14500000Y74500000D03*
%TD*%
D45*
%TO.C,D5*%
X8625000Y7350000D03*
D46*
X8625000Y9050000D03*
X6225000Y9050000D03*
X6225000Y7150000D03*
%TD*%
D30*
%TO.C,R60*%
X2825000Y77310000D03*
X2825000Y76290000D03*
%TD*%
D23*
%TO.C,R27*%
X25279212Y52320788D03*
D24*
X25279212Y53120788D03*
X25279212Y53920788D03*
D23*
X25279212Y54720788D03*
X23479212Y54720788D03*
D24*
X23479212Y53920788D03*
X23479212Y53120788D03*
D23*
X23479212Y52320788D03*
%TD*%
D30*
%TO.C,R41*%
X12750000Y16035000D03*
X12750000Y15015000D03*
%TD*%
D47*
%TO.C,D3*%
X15192500Y66575000D03*
X14222500Y66575000D03*
%TD*%
D20*
%TO.C,R54*%
X5815000Y71985000D03*
X6835000Y71985000D03*
%TD*%
D33*
%TO.C,R43*%
X13430000Y33170000D03*
X13430000Y34190000D03*
%TD*%
D34*
%TO.C,C21*%
X18350000Y73215000D03*
X18350000Y74175000D03*
%TD*%
D31*
%TO.C,C45*%
X21000000Y22500000D03*
X21960000Y22500000D03*
%TD*%
D22*
%TO.C,R7*%
X5460000Y41250000D03*
X4440000Y41250000D03*
%TD*%
D20*
%TO.C,R55*%
X2505000Y9200000D03*
X3525000Y9200000D03*
%TD*%
D48*
%TO.C,IC2*%
X25682500Y68822500D03*
X25682500Y69472500D03*
X25682500Y70122500D03*
X25682500Y70772500D03*
X19957500Y70772500D03*
X19957500Y70122500D03*
X19957500Y69472500D03*
X19957500Y68822500D03*
%TD*%
D32*
%TO.C,C17*%
X19740000Y67800000D03*
X18780000Y67800000D03*
%TD*%
D28*
%TO.C,R15*%
X18629212Y41570788D03*
D29*
X19429212Y41570788D03*
X20229212Y41570788D03*
D28*
X21029212Y41570788D03*
X21029212Y43370788D03*
D29*
X20229212Y43370788D03*
X19429212Y43370788D03*
D28*
X18629212Y43370788D03*
%TD*%
D30*
%TO.C,R50*%
X16250000Y17510000D03*
X16250000Y16490000D03*
%TD*%
D49*
%TO.C,L1*%
X10204212Y41930788D03*
X10204212Y43710788D03*
%TD*%
D20*
%TO.C,R35*%
X8000000Y26250000D03*
X9020000Y26250000D03*
%TD*%
D22*
%TO.C,R17*%
X15780000Y72180000D03*
X14760000Y72180000D03*
%TD*%
D23*
%TO.C,R24*%
X25279212Y48545788D03*
D24*
X25279212Y49345788D03*
X25279212Y50145788D03*
D23*
X25279212Y50945788D03*
X23479212Y50945788D03*
D24*
X23479212Y50145788D03*
X23479212Y49345788D03*
D23*
X23479212Y48545788D03*
%TD*%
D32*
%TO.C,C41*%
X8730000Y22250000D03*
X7770000Y22250000D03*
%TD*%
D50*
%TO.C,J1*%
X24675000Y1995000D03*
X24175000Y1995000D03*
X23675000Y1995000D03*
X23175000Y1995000D03*
X22675000Y1995000D03*
X22175000Y1995000D03*
X21675000Y1995000D03*
X21175000Y1995000D03*
X20675000Y1995000D03*
X20175000Y1995000D03*
X19675000Y1995000D03*
X19175000Y1995000D03*
X18675000Y1995000D03*
X18175000Y1995000D03*
X17675000Y1995000D03*
X17175000Y1995000D03*
X16675000Y1995000D03*
X16175000Y1995000D03*
X15675000Y1995000D03*
X15175000Y1995000D03*
X14675000Y1995000D03*
X14175000Y1995000D03*
X13675000Y1995000D03*
X13175000Y1995000D03*
X12675000Y1995000D03*
X12175000Y1995000D03*
X11675000Y1995000D03*
X11175000Y1995000D03*
X10675000Y1995000D03*
X8175000Y1995000D03*
X7675000Y1995000D03*
X7175000Y1995000D03*
X6675000Y1995000D03*
X6175000Y1995000D03*
D51*
X15471447Y80915000D03*
%TD*%
D33*
%TO.C,R6*%
X22425000Y29775000D03*
X22425000Y30795000D03*
%TD*%
D20*
%TO.C,R45*%
X20915000Y27825000D03*
X21935000Y27825000D03*
%TD*%
D25*
%TO.C,C47*%
X17250000Y17500000D03*
X17250000Y16540000D03*
%TD*%
D20*
%TO.C,R33*%
X5199212Y43920788D03*
X6219212Y43920788D03*
%TD*%
D30*
%TO.C,R36*%
X18900000Y17500000D03*
X18900000Y16480000D03*
%TD*%
D25*
%TO.C,C58*%
X6150000Y75685000D03*
X6150000Y74725000D03*
%TD*%
D20*
%TO.C,R21*%
X5174212Y48920788D03*
X6194212Y48920788D03*
%TD*%
D52*
%TO.C,X1*%
X14724212Y62320788D03*
X16924212Y62320788D03*
X14724212Y64020788D03*
X16924212Y64020788D03*
%TD*%
D30*
%TO.C,R40*%
X11700000Y14090000D03*
X11700000Y13070000D03*
%TD*%
D31*
%TO.C,C36*%
X10645000Y36375000D03*
X11605000Y36375000D03*
%TD*%
D32*
%TO.C,C50*%
X3510000Y7150000D03*
X2550000Y7150000D03*
%TD*%
D30*
%TO.C,R2*%
X8929212Y46155788D03*
X8929212Y45135788D03*
%TD*%
%TO.C,R3*%
X13349212Y44955788D03*
X13349212Y43935788D03*
%TD*%
D53*
%TO.C,IC1*%
X20326212Y47795788D03*
X20326212Y48195788D03*
X20326212Y48595788D03*
X20326212Y48995788D03*
X20326212Y49395788D03*
X20326212Y49795788D03*
X20326212Y50195788D03*
X20326212Y50595788D03*
X20326212Y50995788D03*
X20326212Y51395788D03*
X20326212Y51795788D03*
X20326212Y52195788D03*
X20326212Y52595788D03*
X20326212Y52995788D03*
X20326212Y53395788D03*
X20326212Y53795788D03*
X20326212Y54195788D03*
X20326212Y54595788D03*
X20326212Y54995788D03*
X20326212Y55395788D03*
D54*
X19229212Y56492788D03*
X18829212Y56492788D03*
X18429212Y56492788D03*
X18029212Y56492788D03*
X17629212Y56492788D03*
X17229212Y56492788D03*
X16829212Y56492788D03*
X16429212Y56492788D03*
X16029212Y56492788D03*
X15629212Y56492788D03*
X15229212Y56492788D03*
X14829212Y56492788D03*
X14429212Y56492788D03*
X14029212Y56492788D03*
X13629212Y56492788D03*
X13229212Y56492788D03*
X12829212Y56492788D03*
X12429212Y56492788D03*
X12029212Y56492788D03*
X11629212Y56492788D03*
D53*
X10532212Y55395788D03*
X10532212Y54995788D03*
X10532212Y54595788D03*
X10532212Y54195788D03*
X10532212Y53795788D03*
X10532212Y53395788D03*
X10532212Y52995788D03*
X10532212Y52595788D03*
X10532212Y52195788D03*
X10532212Y51795788D03*
X10532212Y51395788D03*
X10532212Y50995788D03*
X10532212Y50595788D03*
X10532212Y50195788D03*
X10532212Y49795788D03*
X10532212Y49395788D03*
X10532212Y48995788D03*
X10532212Y48595788D03*
X10532212Y48195788D03*
X10532212Y47795788D03*
D54*
X11629212Y46698788D03*
X12029212Y46698788D03*
X12429212Y46698788D03*
X12829212Y46698788D03*
X13229212Y46698788D03*
X13629212Y46698788D03*
X14029212Y46698788D03*
X14429212Y46698788D03*
X14829212Y46698788D03*
X15229212Y46698788D03*
X15629212Y46698788D03*
X16029212Y46698788D03*
X16429212Y46698788D03*
X16829212Y46698788D03*
X17229212Y46698788D03*
X17629212Y46698788D03*
X18029212Y46698788D03*
X18429212Y46698788D03*
X18829212Y46698788D03*
X19229212Y46698788D03*
D55*
X16279212Y50745788D03*
X16279212Y51595788D03*
X16279212Y52445788D03*
X15429212Y50745788D03*
X15429212Y51595788D03*
D56*
X15429212Y51595788D03*
D55*
X15429212Y52445788D03*
X14579212Y50745788D03*
X14579212Y51595788D03*
X14579212Y52445788D03*
%TD*%
M02*
