%TF.GenerationSoftware,KiCad,Pcbnew,9.0.7*%
%TF.CreationDate,2026-02-08T22:25:42+01:00*%
%TF.ProjectId,BladeCore-M54,426c6164-6543-46f7-9265-2d4d35342e6b,rev?*%
%TF.SameCoordinates,Original*%
%TF.FileFunction,Soldermask,Bot*%
%TF.FilePolarity,Negative*%
%FSLAX46Y46*%
G04 Gerber Fmt 4.6, Leading zero omitted, Abs format (unit mm)*
G04 Created by KiCad (PCBNEW 9.0.7) date 2026-02-08 22:25:42*
%MOMM*%
%LPD*%
G01*
G04 APERTURE LIST*
G04 Aperture macros list*
%AMRoundRect*
0 Rectangle with rounded corners*
0 $1 Rounding radius*
0 $2 $3 $4 $5 $6 $7 $8 $9 X,Y pos of 4 corners*
0 Add a 4 corners polygon primitive as box body*
4,1,4,$2,$3,$4,$5,$6,$7,$8,$9,$2,$3,0*
0 Add four circle primitives for the rounded corners*
1,1,$1+$1,$2,$3*
1,1,$1+$1,$4,$5*
1,1,$1+$1,$6,$7*
1,1,$1+$1,$8,$9*
0 Add four rect primitives between the rounded corners*
20,1,$1+$1,$2,$3,$4,$5,0*
20,1,$1+$1,$4,$5,$6,$7,0*
20,1,$1+$1,$6,$7,$8,$9,0*
20,1,$1+$1,$8,$9,$2,$3,0*%
G04 Aperture macros list end*
%ADD10C,0.150000*%
%ADD11C,2.374900*%
%ADD12C,0.990600*%
%ADD13RoundRect,0.050000X-0.175000X-1.250000X0.175000X-1.250000X0.175000X1.250000X-0.175000X1.250000X0*%
%ADD14C,5.500000*%
%ADD15C,0.425000*%
%ADD16RoundRect,0.135000X0.185000X-0.135000X0.185000X0.135000X-0.185000X0.135000X-0.185000X-0.135000X0*%
%ADD17RoundRect,0.140000X-0.170000X0.140000X-0.170000X-0.140000X0.170000X-0.140000X0.170000X0.140000X0*%
%ADD18RoundRect,0.140000X0.170000X-0.140000X0.170000X0.140000X-0.170000X0.140000X-0.170000X-0.140000X0*%
%ADD19RoundRect,0.140000X-0.140000X-0.170000X0.140000X-0.170000X0.140000X0.170000X-0.140000X0.170000X0*%
%ADD20RoundRect,0.140000X0.140000X0.170000X-0.140000X0.170000X-0.140000X-0.170000X0.140000X-0.170000X0*%
%ADD21RoundRect,0.135000X-0.185000X0.135000X-0.185000X-0.135000X0.185000X-0.135000X0.185000X0.135000X0*%
G04 APERTURE END LIST*
D10*
X17900000Y36250000D02*
X21050000Y36250000D01*
X21050000Y32200000D01*
X17900000Y32200000D01*
X17900000Y36250000D01*
G36*
X17900000Y36250000D02*
G01*
X21050000Y36250000D01*
X21050000Y32200000D01*
X17900000Y32200000D01*
X17900000Y36250000D01*
G37*
X6400000Y70000000D02*
X8600000Y70000000D01*
X8600000Y68500000D01*
X6400000Y68500000D01*
X6400000Y70000000D01*
G36*
X6400000Y70000000D02*
G01*
X8600000Y70000000D01*
X8600000Y68500000D01*
X6400000Y68500000D01*
X6400000Y70000000D01*
G37*
X13650000Y53300000D02*
X17150000Y53300000D01*
X17150000Y49850000D01*
X13650000Y49850000D01*
X13650000Y53300000D01*
G36*
X13650000Y53300000D02*
G01*
X17150000Y53300000D01*
X17150000Y49850000D01*
X13650000Y49850000D01*
X13650000Y53300000D01*
G37*
D11*
%TO.C,DEBUG*%
X26730000Y78855000D03*
D12*
X24190000Y78855000D03*
D11*
X21650000Y78855000D03*
X26730000Y75680000D03*
X21650000Y75680000D03*
D12*
X25206000Y73775000D03*
X23174000Y73775000D03*
%TD*%
D13*
%TO.C,J1*%
X24425000Y1995000D03*
X23925000Y1995000D03*
X23425000Y1995000D03*
X22925000Y1995000D03*
X22425000Y1995000D03*
X21925000Y1995000D03*
X21425000Y1995000D03*
X20925000Y1995000D03*
X20425000Y1995000D03*
X19925000Y1995000D03*
X19425000Y1995000D03*
X18925000Y1995000D03*
X18425000Y1995000D03*
X17925000Y1995000D03*
X17425000Y1995000D03*
X16925000Y1995000D03*
X16425000Y1995000D03*
X15925000Y1995000D03*
X15425000Y1995000D03*
X14925000Y1995000D03*
X14425000Y1995000D03*
X13925000Y1995000D03*
X13425000Y1995000D03*
X12925000Y1995000D03*
X12425000Y1995000D03*
X11925000Y1995000D03*
X11425000Y1995000D03*
X10925000Y1995000D03*
X10425000Y1995000D03*
X7925000Y1995000D03*
X7425000Y1995000D03*
X6925000Y1995000D03*
X6425000Y1995000D03*
D14*
X15471447Y80915000D03*
%TD*%
D15*
%TO.C,IC1*%
X16279212Y50745788D03*
X16279212Y51595788D03*
X16279212Y52445788D03*
X15429212Y50745788D03*
X15429212Y51595788D03*
X15429212Y52445788D03*
X14579212Y50745788D03*
X14579212Y51595788D03*
X14579212Y52445788D03*
%TD*%
D16*
%TO.C,R48*%
X13720000Y15000000D03*
X13720000Y16020000D03*
%TD*%
D17*
%TO.C,C14*%
X14829212Y55620788D03*
X14829212Y54660788D03*
%TD*%
%TO.C,C4*%
X16054212Y55620788D03*
X16054212Y54660788D03*
%TD*%
%TO.C,C3*%
X18054212Y55595788D03*
X18054212Y54635788D03*
%TD*%
D18*
%TO.C,C8*%
X11429212Y47790788D03*
X11429212Y48750788D03*
%TD*%
D19*
%TO.C,C7*%
X11444212Y52095788D03*
X12404212Y52095788D03*
%TD*%
%TO.C,C5*%
X11449212Y55395788D03*
X12409212Y55395788D03*
%TD*%
D16*
%TO.C,R49*%
X14720000Y15010000D03*
X14720000Y16030000D03*
%TD*%
D19*
%TO.C,C15*%
X11444212Y51145788D03*
X12404212Y51145788D03*
%TD*%
D20*
%TO.C,C31*%
X6154212Y44970788D03*
X5194212Y44970788D03*
%TD*%
%TO.C,C27*%
X6159212Y48920788D03*
X5199212Y48920788D03*
%TD*%
D18*
%TO.C,C9*%
X14829212Y47615788D03*
X14829212Y48575788D03*
%TD*%
D20*
%TO.C,C32*%
X6154212Y43995788D03*
X5194212Y43995788D03*
%TD*%
D21*
%TO.C,R38*%
X11700000Y16020000D03*
X11700000Y15000000D03*
%TD*%
D20*
%TO.C,C1*%
X19339212Y49420788D03*
X18379212Y49420788D03*
%TD*%
D17*
%TO.C,C37*%
X15940000Y16030000D03*
X15940000Y15070000D03*
%TD*%
D19*
%TO.C,C43*%
X15270000Y21500000D03*
X16230000Y21500000D03*
%TD*%
D20*
%TO.C,C13*%
X19484212Y51420788D03*
X18524212Y51420788D03*
%TD*%
%TO.C,C2*%
X19484212Y53395788D03*
X18524212Y53395788D03*
%TD*%
D21*
%TO.C,R37*%
X12710000Y16020000D03*
X12710000Y15000000D03*
%TD*%
D20*
%TO.C,C30*%
X6159212Y45945788D03*
X5199212Y45945788D03*
%TD*%
%TO.C,C26*%
X6179212Y49895788D03*
X5219212Y49895788D03*
%TD*%
D18*
%TO.C,C16*%
X13504212Y47615788D03*
X13504212Y48575788D03*
%TD*%
D20*
%TO.C,C25*%
X6179212Y50870788D03*
X5219212Y50870788D03*
%TD*%
D18*
%TO.C,C10*%
X17629212Y47540788D03*
X17629212Y48500788D03*
%TD*%
D20*
%TO.C,C28*%
X6154212Y47920788D03*
X5194212Y47920788D03*
%TD*%
%TO.C,C29*%
X6154212Y46920788D03*
X5194212Y46920788D03*
%TD*%
%TO.C,C48*%
X13730000Y21500000D03*
X12770000Y21500000D03*
%TD*%
M02*
