%TF.GenerationSoftware,KiCad,Pcbnew,9.0.2*%
%TF.CreationDate,2026-02-15T00:41:27+01:00*%
%TF.ProjectId,BladeCore-M54,426c6164-6543-46f7-9265-2d4d35342e6b,rev?*%
%TF.SameCoordinates,Original*%
%TF.FileFunction,Copper,L6,Bot*%
%TF.FilePolarity,Positive*%
%FSLAX46Y46*%
G04 Gerber Fmt 4.6, Leading zero omitted, Abs format (unit mm)*
G04 Created by KiCad (PCBNEW 9.0.2) date 2026-02-15 00:41:27*
%MOMM*%
%LPD*%
G01*
G04 APERTURE LIST*
G04 Aperture macros list*
%AMRoundRect*
0 Rectangle with rounded corners*
0 $1 Rounding radius*
0 $2 $3 $4 $5 $6 $7 $8 $9 X,Y pos of 4 corners*
0 Add a 4 corners polygon primitive as box body*
4,1,4,$2,$3,$4,$5,$6,$7,$8,$9,$2,$3,0*
0 Add four circle primitives for the rounded corners*
1,1,$1+$1,$2,$3*
1,1,$1+$1,$4,$5*
1,1,$1+$1,$6,$7*
1,1,$1+$1,$8,$9*
0 Add four rect primitives between the rounded corners*
20,1,$1+$1,$2,$3,$4,$5,0*
20,1,$1+$1,$4,$5,$6,$7,0*
20,1,$1+$1,$6,$7,$8,$9,0*
20,1,$1+$1,$8,$9,$2,$3,0*%
G04 Aperture macros list end*
%TA.AperFunction,ComponentPad*%
%ADD10C,0.600000*%
%TD*%
%TA.AperFunction,SMDPad,CuDef*%
%ADD11R,2.400000X1.650000*%
%TD*%
%TA.AperFunction,SMDPad,CuDef*%
%ADD12R,0.350000X2.500000*%
%TD*%
%TA.AperFunction,ComponentPad*%
%ADD13C,5.500000*%
%TD*%
%TA.AperFunction,HeatsinkPad*%
%ADD14C,0.425000*%
%TD*%
%TA.AperFunction,SMDPad,CuDef*%
%ADD15RoundRect,0.135000X0.185000X-0.135000X0.185000X0.135000X-0.185000X0.135000X-0.185000X-0.135000X0*%
%TD*%
%TA.AperFunction,SMDPad,CuDef*%
%ADD16RoundRect,0.140000X-0.170000X0.140000X-0.170000X-0.140000X0.170000X-0.140000X0.170000X0.140000X0*%
%TD*%
%TA.AperFunction,SMDPad,CuDef*%
%ADD17RoundRect,0.140000X0.170000X-0.140000X0.170000X0.140000X-0.170000X0.140000X-0.170000X-0.140000X0*%
%TD*%
%TA.AperFunction,SMDPad,CuDef*%
%ADD18RoundRect,0.140000X-0.140000X-0.170000X0.140000X-0.170000X0.140000X0.170000X-0.140000X0.170000X0*%
%TD*%
%TA.AperFunction,SMDPad,CuDef*%
%ADD19RoundRect,0.140000X0.140000X0.170000X-0.140000X0.170000X-0.140000X-0.170000X0.140000X-0.170000X0*%
%TD*%
%TA.AperFunction,SMDPad,CuDef*%
%ADD20RoundRect,0.135000X-0.185000X0.135000X-0.185000X-0.135000X0.185000X-0.135000X0.185000X0.135000X0*%
%TD*%
%TA.AperFunction,ViaPad*%
%ADD21C,0.450000*%
%TD*%
%TA.AperFunction,ViaPad*%
%ADD22C,0.400000*%
%TD*%
%TA.AperFunction,Conductor*%
%ADD23C,0.174000*%
%TD*%
%TA.AperFunction,Conductor*%
%ADD24C,0.250000*%
%TD*%
%TA.AperFunction,Conductor*%
%ADD25C,0.150000*%
%TD*%
%TA.AperFunction,Conductor*%
%ADD26C,0.157700*%
%TD*%
%TA.AperFunction,Conductor*%
%ADD27C,0.090000*%
%TD*%
%TA.AperFunction,Conductor*%
%ADD28C,0.400000*%
%TD*%
%TA.AperFunction,Conductor*%
%ADD29C,0.200000*%
%TD*%
%TA.AperFunction,Conductor*%
%ADD30C,0.350000*%
%TD*%
%TA.AperFunction,Conductor*%
%ADD31C,0.300000*%
%TD*%
%TA.AperFunction,Conductor*%
%ADD32C,0.500000*%
%TD*%
G04 APERTURE END LIST*
D10*
%TO.P,IC7,11,PAD*%
%TO.N,GND*%
X5890000Y68620000D03*
X7610000Y68620000D03*
X6750000Y69100000D03*
D11*
X6750000Y69100000D03*
D10*
X5890000Y69580000D03*
X7610000Y69580000D03*
%TD*%
D12*
%TO.P,J1,2,2*%
%TO.N,GND*%
X23675000Y1845000D03*
%TO.P,J1,4,4*%
%TO.N,/Block Diagram/Microcontroller/GPIO27*%
X23175000Y1845000D03*
%TO.P,J1,6,6*%
%TO.N,/Block Diagram/Microcontroller/GPIO26*%
X22675000Y1845000D03*
%TO.P,J1,8,8*%
%TO.N,/Block Diagram/Microcontroller/GPIO25*%
X22175000Y1845000D03*
%TO.P,J1,10,10*%
%TO.N,Net-(JP1-C)*%
X21675000Y1845000D03*
%TO.P,J1,12,12*%
X21175000Y1845000D03*
%TO.P,J1,14,14*%
X20675000Y1845000D03*
%TO.P,J1,16,16*%
X20175000Y1845000D03*
%TO.P,J1,18,18*%
%TO.N,/Block Diagram/LINK_LED*%
X19675000Y1845000D03*
%TO.P,J1,20,20*%
%TO.N,/Block Diagram/ACT_LED*%
X19175000Y1845000D03*
%TO.P,J1,22,22*%
%TO.N,GND*%
X18675000Y1845000D03*
%TO.P,J1,24,24*%
%TO.N,/Block Diagram/TCT*%
X18175000Y1845000D03*
%TO.P,J1,26,26*%
%TO.N,GND*%
X17675000Y1845000D03*
%TO.P,J1,28,28*%
%TO.N,/Block Diagram/RD_P*%
X17175000Y1845000D03*
%TO.P,J1,30,30*%
%TO.N,/Block Diagram/RD_N*%
X16675000Y1845000D03*
%TO.P,J1,32,32*%
%TO.N,GND*%
X16175000Y1845000D03*
%TO.P,J1,34,34*%
%TO.N,/Block Diagram/TD_P*%
X15675000Y1845000D03*
%TO.P,J1,36,36*%
%TO.N,/Block Diagram/TD_N*%
X15175000Y1845000D03*
%TO.P,J1,38,38*%
%TO.N,GND*%
X14675000Y1845000D03*
%TO.P,J1,40,40*%
%TO.N,/Block Diagram/RCT*%
X14175000Y1845000D03*
%TO.P,J1,42,42*%
%TO.N,GND*%
X13675000Y1845000D03*
%TO.P,J1,44,44*%
X13175000Y1845000D03*
%TO.P,J1,46,46*%
%TO.N,/Block Diagram/Microcontroller/ADC0*%
X12675000Y1845000D03*
%TO.P,J1,48,48*%
%TO.N,/Block Diagram/Microcontroller/ADC1*%
X12175000Y1845000D03*
%TO.P,J1,50,50*%
%TO.N,/Block Diagram/Microcontroller/ADC2*%
X11675000Y1845000D03*
%TO.P,J1,52,52*%
%TO.N,/Block Diagram/Microcontroller/ADC3*%
X11175000Y1845000D03*
%TO.P,J1,54,54*%
%TO.N,/Block Diagram/Microcontroller/ADC4*%
X10675000Y1845000D03*
%TO.P,J1,56,56*%
%TO.N,/Block Diagram/Microcontroller/ADC5*%
X10175000Y1845000D03*
%TO.P,J1,58,58*%
%TO.N,GND*%
X9675000Y1845000D03*
%TO.P,J1,68,68*%
X7175000Y1845000D03*
%TO.P,J1,70,70*%
X6675000Y1845000D03*
%TO.P,J1,72,72*%
%TO.N,VBUS*%
X6175000Y1845000D03*
%TO.P,J1,74,74*%
X5675000Y1845000D03*
D13*
%TO.P,J1,SH1*%
%TO.N,N/C*%
X14721447Y80765000D03*
%TD*%
D14*
%TO.P,IC1,81,GND*%
%TO.N,GND*%
X15529212Y50595788D03*
X15529212Y51445788D03*
X15529212Y52295788D03*
X14679212Y50595788D03*
X14679212Y51445788D03*
X14679212Y52295788D03*
X13829212Y50595788D03*
X13829212Y51445788D03*
X13829212Y52295788D03*
%TD*%
D15*
%TO.P,R48,1*%
%TO.N,/Block Diagram/Ethernet Interface/RDN_R_N*%
X12970000Y14850000D03*
%TO.P,R48,2*%
%TO.N,/Block Diagram/RCT*%
X12970000Y15870000D03*
%TD*%
D16*
%TO.P,C14,1*%
%TO.N,+1V1*%
X14079212Y55470788D03*
%TO.P,C14,2*%
%TO.N,GND*%
X14079212Y54510788D03*
%TD*%
%TO.P,C4,1*%
%TO.N,+3.3V*%
X15304212Y55470788D03*
%TO.P,C4,2*%
%TO.N,GND*%
X15304212Y54510788D03*
%TD*%
%TO.P,C3,1*%
%TO.N,+3.3V*%
X17304212Y55445788D03*
%TO.P,C3,2*%
%TO.N,GND*%
X17304212Y54485788D03*
%TD*%
D17*
%TO.P,C8,1*%
%TO.N,+3.3V*%
X10679212Y47640788D03*
%TO.P,C8,2*%
%TO.N,GND*%
X10679212Y48600788D03*
%TD*%
D18*
%TO.P,C7,1*%
%TO.N,+3.3V*%
X10694212Y51945788D03*
%TO.P,C7,2*%
%TO.N,GND*%
X11654212Y51945788D03*
%TD*%
%TO.P,C5,1*%
%TO.N,+3.3V*%
X10699212Y55245788D03*
%TO.P,C5,2*%
%TO.N,GND*%
X11659212Y55245788D03*
%TD*%
D15*
%TO.P,R49,1*%
%TO.N,/Block Diagram/Ethernet Interface/RDN_R_P*%
X13970000Y14860000D03*
%TO.P,R49,2*%
%TO.N,/Block Diagram/RCT*%
X13970000Y15880000D03*
%TD*%
D18*
%TO.P,C15,1*%
%TO.N,+1V1*%
X10694212Y50995788D03*
%TO.P,C15,2*%
%TO.N,GND*%
X11654212Y50995788D03*
%TD*%
D19*
%TO.P,C31,1*%
%TO.N,Net-(IC1B-GPIO46{slash}ADC6)*%
X5404212Y44820788D03*
%TO.P,C31,2*%
%TO.N,GND*%
X4444212Y44820788D03*
%TD*%
%TO.P,C27,1*%
%TO.N,Net-(IC1B-GPIO42{slash}ADC2)*%
X5409212Y48770788D03*
%TO.P,C27,2*%
%TO.N,GND*%
X4449212Y48770788D03*
%TD*%
D17*
%TO.P,C9,1*%
%TO.N,+3.3V*%
X14079212Y47465788D03*
%TO.P,C9,2*%
%TO.N,GND*%
X14079212Y48425788D03*
%TD*%
D19*
%TO.P,C32,1*%
%TO.N,Net-(IC1B-GPIO47{slash}ADC7)*%
X5404212Y43845788D03*
%TO.P,C32,2*%
%TO.N,GND*%
X4444212Y43845788D03*
%TD*%
D20*
%TO.P,R38,1*%
%TO.N,+3.3VP*%
X10950000Y15870000D03*
%TO.P,R38,2*%
%TO.N,/Block Diagram/Ethernet Interface/TDN_R_N*%
X10950000Y14850000D03*
%TD*%
D19*
%TO.P,C1,1*%
%TO.N,+3.3V*%
X18589212Y49270788D03*
%TO.P,C1,2*%
%TO.N,GND*%
X17629212Y49270788D03*
%TD*%
D16*
%TO.P,C37,1*%
%TO.N,/Block Diagram/RCT*%
X15190000Y15880000D03*
%TO.P,C37,2*%
%TO.N,GND*%
X15190000Y14920000D03*
%TD*%
D18*
%TO.P,C43,1*%
%TO.N,+3.3VP*%
X14520000Y21350000D03*
%TO.P,C43,2*%
%TO.N,GND*%
X15480000Y21350000D03*
%TD*%
D19*
%TO.P,C13,1*%
%TO.N,+1V1*%
X18734212Y51270788D03*
%TO.P,C13,2*%
%TO.N,GND*%
X17774212Y51270788D03*
%TD*%
%TO.P,C2,1*%
%TO.N,+3.3V*%
X18734212Y53245788D03*
%TO.P,C2,2*%
%TO.N,GND*%
X17774212Y53245788D03*
%TD*%
D20*
%TO.P,R37,1*%
%TO.N,+3.3VP*%
X11960000Y15870000D03*
%TO.P,R37,2*%
%TO.N,/Block Diagram/Ethernet Interface/TDN_R_P*%
X11960000Y14850000D03*
%TD*%
D19*
%TO.P,C30,1*%
%TO.N,Net-(IC1B-GPIO45{slash}ADC5)*%
X5409212Y45795788D03*
%TO.P,C30,2*%
%TO.N,GND*%
X4449212Y45795788D03*
%TD*%
%TO.P,C26,1*%
%TO.N,Net-(IC1B-GPIO41{slash}ADC1)*%
X5429212Y49745788D03*
%TO.P,C26,2*%
%TO.N,GND*%
X4469212Y49745788D03*
%TD*%
D17*
%TO.P,C16,1*%
%TO.N,+1V1*%
X12754212Y47465788D03*
%TO.P,C16,2*%
%TO.N,GND*%
X12754212Y48425788D03*
%TD*%
D19*
%TO.P,C25,1*%
%TO.N,Net-(IC1B-GPIO40{slash}ADC0)*%
X5429212Y50720788D03*
%TO.P,C25,2*%
%TO.N,GND*%
X4469212Y50720788D03*
%TD*%
D17*
%TO.P,C10,1*%
%TO.N,+3.3V*%
X16879212Y47390788D03*
%TO.P,C10,2*%
%TO.N,GND*%
X16879212Y48350788D03*
%TD*%
D19*
%TO.P,C28,1*%
%TO.N,Net-(IC1B-GPIO43{slash}ADC3)*%
X5404212Y47770788D03*
%TO.P,C28,2*%
%TO.N,GND*%
X4444212Y47770788D03*
%TD*%
%TO.P,C29,1*%
%TO.N,Net-(IC1B-GPIO44{slash}ADC4)*%
X5404212Y46770788D03*
%TO.P,C29,2*%
%TO.N,GND*%
X4444212Y46770788D03*
%TD*%
%TO.P,C48,1*%
%TO.N,+3.3VP*%
X12980000Y21350000D03*
%TO.P,C48,2*%
%TO.N,GND*%
X12020000Y21350000D03*
%TD*%
D21*
%TO.N,USB_RP_D-*%
X12676013Y42759449D03*
%TO.N,USB_RP_D+*%
X13484743Y42748112D03*
D22*
%TO.N,GND*%
X7500000Y64725000D03*
X16000000Y23100000D03*
X9150000Y58100000D03*
X22000000Y23600000D03*
X18410000Y4640000D03*
X5200000Y12375000D03*
X17375000Y67650000D03*
X8700000Y7200000D03*
X19750000Y32350000D03*
X10832300Y11175305D03*
X14450000Y33700000D03*
X13850000Y41550000D03*
X26275000Y70600000D03*
X17250000Y16350000D03*
X3650000Y57400000D03*
X21000000Y19100000D03*
X15350000Y31075000D03*
X14139098Y4610031D03*
X6750000Y62900000D03*
X26000000Y7100000D03*
X27200000Y10500000D03*
X6000000Y78500000D03*
X17750000Y34600000D03*
X12000000Y20600000D03*
X17000000Y14100000D03*
X12600000Y72150000D03*
X18000000Y19100000D03*
X16875000Y75275000D03*
X12325000Y55250000D03*
X8400000Y20500000D03*
X26250000Y69300000D03*
X26350000Y66400000D03*
X12475000Y64200000D03*
X14000000Y25100000D03*
X28000000Y5100000D03*
X8850000Y78550000D03*
X20600000Y58600000D03*
X3300000Y10100000D03*
X9700000Y62000000D03*
X6925000Y21100000D03*
X23200000Y31350000D03*
X8100000Y28200000D03*
X4050000Y64700000D03*
X23725000Y68675000D03*
X21420000Y4640000D03*
X1800000Y5225000D03*
X17325000Y66425000D03*
X10134212Y45020788D03*
X14480000Y70270000D03*
X9250000Y19600000D03*
X21750000Y70350000D03*
X17600000Y28150000D03*
X16000000Y25100000D03*
X12100000Y11175000D03*
X26000000Y5100000D03*
X18750000Y32350000D03*
X16175000Y4650000D03*
X26275000Y69975000D03*
X17758697Y33528588D03*
X4134800Y42925000D03*
X5000000Y14100000D03*
X21750000Y67450000D03*
X21425000Y36700000D03*
X1100000Y6000000D03*
X12600000Y70250000D03*
X21980000Y24600000D03*
X7000000Y23850000D03*
X16175000Y61025000D03*
X8100000Y5625000D03*
X8000000Y38000000D03*
X14700000Y67450000D03*
X5262500Y73787500D03*
X17625000Y48525000D03*
X16750000Y23600000D03*
X16500000Y15850000D03*
X2050000Y75450000D03*
X18750000Y34600000D03*
X11650000Y52575000D03*
X16200000Y67450000D03*
X18025000Y68275000D03*
X17450000Y78350000D03*
X17750000Y32350000D03*
X12200000Y37700000D03*
X12825000Y10625000D03*
X3300000Y9050000D03*
X8925000Y38925000D03*
X23400000Y72875000D03*
X11000000Y20700000D03*
X22000000Y25600000D03*
X8100000Y34850000D03*
X28000000Y7100000D03*
X15800000Y14920000D03*
X11651527Y50326527D03*
X23725000Y69975000D03*
X1075000Y7000000D03*
X15000000Y12100000D03*
X17950000Y69325000D03*
X8500000Y72550000D03*
X18758697Y33528588D03*
X12000000Y25100000D03*
X23725000Y69325000D03*
X24900000Y67950000D03*
X10675000Y49250000D03*
X23725000Y70600000D03*
X16750000Y22100000D03*
X3700000Y54200000D03*
X3750000Y52150000D03*
X15300000Y53900000D03*
X17150000Y42300000D03*
X16550000Y54475000D03*
X18758697Y35697756D03*
X7850000Y6275000D03*
X5575000Y5525000D03*
X5900000Y77125000D03*
X5550000Y79700000D03*
X23925000Y4650000D03*
X11550000Y48225000D03*
X9425000Y4925000D03*
X17758697Y35697756D03*
X6375000Y23100000D03*
X17100000Y51275000D03*
X8225000Y65400000D03*
X8675000Y73875000D03*
X9096800Y15052936D03*
X27200000Y8100000D03*
X9150000Y31050000D03*
X21980000Y22350000D03*
X4750000Y18100000D03*
X6700000Y28800000D03*
X27250000Y72150000D03*
X21980000Y21350000D03*
X12350000Y30750000D03*
X11050000Y40400000D03*
X12776527Y49201527D03*
X16050000Y70260000D03*
X14100000Y49178200D03*
X26000000Y7100000D03*
X9650000Y75250000D03*
X19750000Y34600000D03*
X14000000Y23100000D03*
X19758697Y35697756D03*
X14075000Y53900000D03*
X19758697Y33528588D03*
X12000000Y23100000D03*
X26250000Y68675000D03*
X18850000Y28150000D03*
X11500000Y43000000D03*
X15500000Y20600000D03*
X17100000Y53250000D03*
X15190000Y14300000D03*
X11550000Y36200000D03*
X5075000Y64700000D03*
X16750000Y21100000D03*
X17600000Y74775000D03*
X14425000Y30575000D03*
X20325000Y69325000D03*
X6400000Y22125000D03*
X16562573Y49190627D03*
X8475000Y71000000D03*
X3350000Y65450000D03*
X18025000Y67000000D03*
X9850000Y28200000D03*
X9036626Y71810000D03*
X13975000Y65025000D03*
%TO.N,+5V*%
X4000000Y68100000D03*
X8475000Y67625000D03*
X3000000Y68100000D03*
X3000000Y67100000D03*
X3325000Y66375000D03*
X4000000Y67100000D03*
X2000000Y68100000D03*
X2000000Y67100000D03*
X2500000Y23600000D03*
%TO.N,+3.3V*%
X8000000Y21300000D03*
X3500000Y74600000D03*
X2500000Y73600000D03*
X8000000Y23900000D03*
X15740000Y68470000D03*
X10679212Y47670788D03*
X1500000Y74600000D03*
X16200000Y30900000D03*
X18729212Y53245788D03*
X10704212Y55245788D03*
X18625000Y72300000D03*
X3500000Y73600000D03*
X2500000Y74600000D03*
X17279212Y55470788D03*
X3500000Y71600000D03*
X3375000Y42950000D03*
X7250000Y25375000D03*
X15730000Y72020000D03*
X22550000Y79700000D03*
X7394192Y42703494D03*
X10654212Y51845788D03*
X18679212Y49245788D03*
X11879212Y47445788D03*
X3480331Y63180331D03*
X1500000Y72600000D03*
X4497224Y73585855D03*
X16200000Y30100000D03*
X14054212Y47420788D03*
X2500000Y71600000D03*
X19725000Y67650000D03*
X1850000Y61925000D03*
X4500000Y71600000D03*
X16879212Y47445788D03*
X1500000Y71600000D03*
X21675000Y28775000D03*
X4625000Y75525000D03*
X6475000Y64700000D03*
X16200000Y29300000D03*
X15279212Y55470788D03*
X1500000Y73600000D03*
X4500000Y74600000D03*
%TO.N,/Block Diagram/Microcontroller Peripherals/VREF_IN*%
X7150000Y37025000D03*
X17610000Y72025000D03*
%TO.N,+1V1*%
X12679212Y47445788D03*
X14054212Y55445788D03*
X18779212Y51245788D03*
X10654212Y51045788D03*
%TO.N,/Block Diagram/Ethernet Interface/RDN_R_N*%
X12970000Y14850000D03*
%TO.N,/Block Diagram/Ethernet Interface/RDN_R_P*%
X13970000Y14850000D03*
%TO.N,+3.3VP*%
X20250000Y21350000D03*
X20230000Y24600000D03*
X14500000Y20600000D03*
X20200000Y30100000D03*
X20250000Y22350000D03*
X13000000Y20600000D03*
X20200000Y30900000D03*
X18150000Y18100000D03*
X20200000Y29300000D03*
X17250000Y17350000D03*
%TO.N,VBUS*%
X4500000Y5600000D03*
X3275000Y79350000D03*
X3500000Y5600000D03*
X2475000Y11700000D03*
X3500000Y6600000D03*
X4500000Y6600000D03*
%TO.N,/Block Diagram/Microcontroller/ADC_VUSB*%
X1050000Y10050000D03*
X3575000Y44750000D03*
%TO.N,/Block Diagram/Microcontroller Peripherals/I2C0_SCL*%
X4800000Y57550000D03*
X11525000Y69475000D03*
%TO.N,/Block Diagram/Microcontroller Peripherals/I2C0_SDA*%
X4775000Y58350000D03*
X11275000Y70450000D03*
%TO.N,HEARTBEAT*%
X13300000Y65525000D03*
X4775000Y54600000D03*
%TO.N,QSPI_SS*%
X22750000Y20300000D03*
X27200000Y14300000D03*
%TO.N,/Block Diagram/Microcontroller Peripherals/SWCLK*%
X17000000Y76125000D03*
X24708349Y76658253D03*
%TO.N,/Block Diagram/Microcontroller Peripherals/SWDIO*%
X18150000Y76525000D03*
X24825000Y77275000D03*
%TO.N,/Block Diagram/Ethernet Interface/ETH_INT*%
X1275000Y55350000D03*
X3475000Y55425000D03*
%TO.N,/Block Diagram/Ethernet Interface/ETH_RST*%
X1268533Y56400000D03*
X3850000Y56400000D03*
%TO.N,/Block Diagram/Microcontroller/ADC1*%
X3625000Y49750000D03*
X7950000Y16975000D03*
%TO.N,/Block Diagram/Microcontroller/ADC2*%
X3575000Y48775000D03*
X7350000Y17200000D03*
%TO.N,/Block Diagram/Microcontroller/ADC3*%
X6800000Y17450000D03*
X3575000Y47800000D03*
%TO.N,/Block Diagram/Microcontroller/ADC4*%
X3550000Y46775000D03*
X9350000Y6475000D03*
%TO.N,/Block Diagram/Microcontroller/ADC5*%
X9250000Y5675000D03*
X3575000Y45750000D03*
%TO.N,/Block Diagram/Microcontroller Peripherals/ADC_VREF*%
X3575000Y43775000D03*
X6430000Y35550000D03*
%TO.N,/Block Diagram/Microcontroller/GPIO18*%
X20100000Y8025000D03*
X24540000Y57550000D03*
%TO.N,/Block Diagram/Microcontroller/GPIO19*%
X24530000Y58330000D03*
X20625000Y8700000D03*
%TO.N,/Block Diagram/Microcontroller/GPIO22*%
X22375000Y9025000D03*
X24530000Y61330000D03*
%TO.N,/Block Diagram/Microcontroller/GPIO23*%
X22950000Y9200000D03*
X24520000Y62120000D03*
%TO.N,/Block Diagram/Microcontroller/GPIO20*%
X21200000Y8247545D03*
X24520000Y59730000D03*
%TO.N,/Block Diagram/Microcontroller/GPIO21*%
X21750000Y8750000D03*
X24510000Y60520000D03*
%TO.N,/Block Diagram/Microcontroller/GPIO27*%
X25360000Y7275000D03*
X18970000Y65330000D03*
%TO.N,/Block Diagram/Microcontroller/GPIO25*%
X20554212Y65320788D03*
X24120000Y6900000D03*
%TO.N,/Block Diagram/Microcontroller/GPIO24*%
X21380000Y65330000D03*
X23525000Y9450000D03*
%TO.N,/Block Diagram/Microcontroller/GPIO26*%
X24710000Y7100000D03*
X19760000Y65310000D03*
%TO.N,/Block Diagram/Microcontroller/ADC0*%
X3675000Y50725000D03*
X8575000Y16700000D03*
%TO.N,/Block Diagram/Ethernet Interface/TDN_R_P*%
X11960000Y14850000D03*
%TO.N,/Block Diagram/Ethernet Interface/TDN_R_N*%
X10950000Y14850000D03*
%TO.N,Net-(IC1B-GPIO40{slash}ADC0)*%
X5425728Y50817350D03*
%TO.N,Net-(IC1B-GPIO41{slash}ADC1)*%
X5465409Y49791321D03*
%TO.N,Net-(IC1B-GPIO42{slash}ADC2)*%
X5448403Y48793636D03*
%TO.N,Net-(IC1B-GPIO43{slash}ADC3)*%
X5414391Y47807288D03*
%TO.N,Net-(IC1B-GPIO44{slash}ADC4)*%
X5397385Y46798265D03*
%TO.N,Net-(IC1B-GPIO45{slash}ADC5)*%
X5397385Y45732555D03*
%TO.N,Net-(IC1B-GPIO46{slash}ADC6)*%
X5454072Y44774550D03*
%TO.N,Net-(IC1B-GPIO47{slash}ADC7)*%
X5442734Y43884569D03*
%TO.N,USB_RP_D+*%
X7025000Y8900000D03*
%TO.N,USB_RP_D-*%
X6325000Y8900000D03*
%TO.N,/Block Diagram/Ethernet Interface/SPI1_MOSI*%
X1598472Y59769841D03*
X4750000Y59725000D03*
%TO.N,/Block Diagram/Ethernet Interface/SPI1_SCLK*%
X2825000Y60375000D03*
X4725000Y60525000D03*
%TO.N,/Block Diagram/TD_P*%
X11805000Y10600000D03*
%TO.N,/Block Diagram/RCT*%
X9575000Y15550000D03*
X14600000Y16800000D03*
%TO.N,/Block Diagram/TD_N*%
X11105000Y10600000D03*
%TO.N,/Block Diagram/RD_P*%
X13815000Y11175000D03*
%TO.N,/Block Diagram/TCT*%
X18150000Y15525000D03*
X18446800Y5900000D03*
%TO.N,/Block Diagram/LINK_LED*%
X21950000Y26650000D03*
%TO.N,/Block Diagram/ACT_LED*%
X21975000Y27675000D03*
%TO.N,Net-(JP1-C)*%
X10025000Y65725000D03*
X10025000Y66250000D03*
X10025000Y65175000D03*
%TO.N,/Block Diagram/RD_N*%
X13115000Y11175000D03*
%TD*%
D23*
%TO.N,GND*%
X17450000Y3950000D02*
X17450000Y9650000D01*
X17450000Y9650000D02*
X15000000Y12100000D01*
X17675000Y3725000D02*
X17450000Y3950000D01*
X17675000Y1845000D02*
X17675000Y3725000D01*
D24*
X10550000Y10893005D02*
X10832300Y11175305D01*
X14175000Y5525000D02*
X10550000Y9150000D01*
X14175000Y4645933D02*
X14175000Y5525000D01*
X14139098Y4610031D02*
X14175000Y4645933D01*
X14139098Y4610031D02*
X14139098Y4560902D01*
X10550000Y9150000D02*
X10550000Y10893005D01*
X14675000Y4025000D02*
X14675000Y1845000D01*
X14139098Y4560902D02*
X14675000Y4025000D01*
D25*
%TO.N,/Block Diagram/Ethernet Interface/ETH_RST*%
X3850000Y56400000D02*
X1268533Y56400000D01*
%TO.N,/Block Diagram/Ethernet Interface/SPI1_MOSI*%
X4725000Y59750000D02*
X4750000Y59725000D01*
X1618313Y59750000D02*
X4725000Y59750000D01*
X1598472Y59769841D02*
X1618313Y59750000D01*
%TO.N,/Block Diagram/Microcontroller Peripherals/SWDIO*%
X24823253Y77276747D02*
X24825000Y77275000D01*
X24159297Y77075000D02*
X24361044Y77276747D01*
X18700000Y77075000D02*
X24159297Y77075000D01*
X24361044Y77276747D02*
X24823253Y77276747D01*
X18150000Y76525000D02*
X18700000Y77075000D01*
D26*
%TO.N,USB_RP_D-*%
X6519950Y14760776D02*
X6519950Y9094950D01*
X5494950Y15785776D02*
X6519950Y14760776D01*
X5494950Y30914224D02*
X5494950Y15785776D01*
X9894950Y35314224D02*
X5494950Y30914224D01*
X12937465Y40656739D02*
X9894950Y37614224D01*
X12937465Y42614031D02*
X12937465Y40656739D01*
X12693020Y42742442D02*
X12809054Y42742442D01*
X12676013Y42759449D02*
X12693020Y42742442D01*
X9894950Y37614224D02*
X9894950Y35314224D01*
X6519950Y9094950D02*
X6325000Y8900000D01*
X12809054Y42742442D02*
X12937465Y42614031D01*
%TO.N,USB_RP_D+*%
X6830050Y9094950D02*
X7025000Y8900000D01*
X6830050Y14889224D02*
X6830050Y9094950D01*
X5805050Y15914224D02*
X6830050Y14889224D01*
X5805050Y30785776D02*
X5805050Y15914224D01*
X10205050Y35185776D02*
X5805050Y30785776D01*
X13247565Y40528291D02*
X10205050Y37485776D01*
X13247565Y42614031D02*
X13247565Y40528291D01*
X13387314Y42753780D02*
X13247565Y42614031D01*
X13479075Y42753780D02*
X13387314Y42753780D01*
X13484743Y42748112D02*
X13479075Y42753780D01*
X10205050Y37485776D02*
X10205050Y35185776D01*
D25*
%TO.N,Net-(IC1B-GPIO41{slash}ADC1)*%
X5429212Y49755124D02*
X5465409Y49791321D01*
X5429212Y49745788D02*
X5429212Y49755124D01*
%TO.N,Net-(IC1B-GPIO42{slash}ADC2)*%
X5425555Y48770788D02*
X5409212Y48770788D01*
X5448403Y48793636D02*
X5425555Y48770788D01*
%TO.N,Net-(IC1B-GPIO46{slash}ADC6)*%
X5412000Y44820788D02*
X5404212Y44820788D01*
X5454072Y44778716D02*
X5412000Y44820788D01*
X5454072Y44774550D02*
X5454072Y44778716D01*
%TO.N,Net-(IC1B-GPIO43{slash}ADC3)*%
X5404212Y47797109D02*
X5404212Y47770788D01*
X5414391Y47807288D02*
X5404212Y47797109D01*
D27*
%TO.N,/Block Diagram/RD_N*%
X15177927Y7684671D02*
G75*
G02*
X15177968Y8016970I166173J166129D01*
G01*
%TO.N,/Block Diagram/RD_P*%
X15510269Y8094792D02*
G75*
G03*
X15510307Y8427170I-166169J166208D01*
G01*
X16047671Y7889731D02*
G75*
G03*
X15715331Y7889731I-166170J-166170D01*
G01*
%TO.N,/Block Diagram/RD_N*%
X15920392Y7762451D02*
G75*
G03*
X15842610Y7762451I-38891J-38892D01*
G01*
X15177928Y8427133D02*
G75*
G02*
X14845587Y8427133I-166170J166171D01*
G01*
X15255709Y8427133D02*
G75*
G03*
X15177929Y8427133I-38890J-38890D01*
G01*
%TO.N,/Block Diagram/RD_P*%
X15382989Y8554413D02*
G75*
G03*
X15050649Y8554413I-166170J-166170D01*
G01*
%TO.N,/Block Diagram/RD_N*%
X15382989Y8222072D02*
G75*
G03*
X15383027Y8299890I-38889J38928D01*
G01*
%TO.N,/Block Diagram/RD_P*%
X16174953Y7352326D02*
G75*
G02*
X16174970Y7430091I38847J38874D01*
G01*
%TO.N,/Block Diagram/RD_N*%
X16047674Y7225047D02*
G75*
G02*
X16047691Y7557370I166126J166153D01*
G01*
X16047674Y7557387D02*
G75*
G03*
X16047696Y7635191I-38874J38913D01*
G01*
%TO.N,/Block Diagram/RD_P*%
X16174953Y7430108D02*
G75*
G03*
X16174975Y7762471I-166153J166192D01*
G01*
X15510269Y7684670D02*
G75*
G02*
X15432510Y7684690I-38869J38930D01*
G01*
%TO.N,/Block Diagram/RD_N*%
X15637551Y7557388D02*
G75*
G02*
X15305228Y7557408I-166151J166212D01*
G01*
%TO.N,/Block Diagram/RD_P*%
X15305207Y7811951D02*
G75*
G02*
X15305249Y7889691I38893J38849D01*
G01*
X15050649Y8554413D02*
G75*
G02*
X14972867Y8554413I-38891J38892D01*
G01*
%TO.N,/Block Diagram/RD_N*%
X13375000Y10915000D02*
X13115000Y11175000D01*
X16675000Y3720001D02*
X16835000Y3880001D01*
%TO.N,/Block Diagram/RD_P*%
X15407738Y7992262D02*
X15446629Y8031153D01*
%TO.N,/Block Diagram/RD_N*%
X14845587Y8427133D02*
X14718309Y8554412D01*
X15305209Y7557389D02*
X15177927Y7684671D01*
%TO.N,/Block Diagram/RD_P*%
X14972867Y8554413D02*
X14845588Y8681691D01*
%TO.N,/Block Diagram/RD_N*%
X16675000Y1845000D02*
X16675000Y3720001D01*
%TO.N,/Block Diagram/RD_P*%
X15510269Y8427133D02*
X15382989Y8554413D01*
X15676440Y7850841D02*
X15612800Y7787201D01*
%TO.N,/Block Diagram/RD_N*%
X13375000Y9897720D02*
X13375000Y10250218D01*
X15216816Y8055903D02*
X15280456Y8119543D01*
%TO.N,/Block Diagram/RD_P*%
X15612800Y7787201D02*
X15612801Y7787199D01*
X15344096Y7928625D02*
X15407736Y7992265D01*
X15446629Y8031153D02*
X15510269Y8094792D01*
%TO.N,/Block Diagram/RD_N*%
X15842610Y7762451D02*
X15803719Y7723561D01*
X15280459Y8119541D02*
X15319350Y8158432D01*
X15319350Y8158432D02*
X15382989Y8222072D01*
%TO.N,/Block Diagram/RD_P*%
X15432489Y7684669D02*
X15305207Y7811951D01*
%TO.N,/Block Diagram/RD_N*%
X15740079Y7659921D02*
X15740080Y7659920D01*
X16047674Y7635169D02*
X15920392Y7762451D01*
X13375000Y10250218D02*
X13375000Y10915000D01*
X16835000Y3880001D02*
X16835000Y6437720D01*
X14718309Y8554412D02*
X13375000Y9897720D01*
X16047674Y7225046D02*
X16047674Y7225047D01*
X16835000Y6437720D02*
X16047674Y7225046D01*
%TO.N,/Block Diagram/RD_P*%
X13555000Y9972280D02*
X13555000Y10250218D01*
X15305207Y7889733D02*
X15344096Y7928625D01*
X15549161Y7723559D02*
X15510269Y7684670D01*
X16174954Y7352326D02*
X16174953Y7352326D01*
X15612801Y7787199D02*
X15549161Y7723559D01*
X17015000Y6512280D02*
X16174954Y7352326D01*
X17175000Y3720001D02*
X17015000Y3880001D01*
%TO.N,/Block Diagram/RD_N*%
X15177927Y8017011D02*
X15216816Y8055903D01*
%TO.N,/Block Diagram/RD_P*%
X15407736Y7992265D02*
X15407738Y7992262D01*
X16174953Y7762449D02*
X16047671Y7889731D01*
X17175000Y1845000D02*
X17175000Y3720001D01*
%TO.N,/Block Diagram/RD_N*%
X15803719Y7723561D02*
X15740079Y7659921D01*
X15280456Y8119543D02*
X15280459Y8119541D01*
%TO.N,/Block Diagram/RD_P*%
X13555000Y10250218D02*
X13555000Y10915000D01*
%TO.N,/Block Diagram/RD_N*%
X15740080Y7659920D02*
X15676442Y7596279D01*
X15676442Y7596279D02*
X15637551Y7557388D01*
%TO.N,/Block Diagram/RD_P*%
X13555000Y10915000D02*
X13815000Y11175000D01*
X17015000Y3880001D02*
X17015000Y6512280D01*
%TO.N,/Block Diagram/RD_N*%
X15382989Y8299853D02*
X15255709Y8427133D01*
%TO.N,/Block Diagram/RD_P*%
X14845588Y8681691D02*
X13555000Y9972280D01*
X15715331Y7889731D02*
X15676440Y7850841D01*
%TO.N,/Block Diagram/TD_P*%
X13709331Y7595731D02*
G75*
G02*
X13631549Y7595731I-38891J38892D01*
G01*
X14833635Y6393644D02*
G75*
G02*
X14833670Y6471391I38865J38856D01*
G01*
%TO.N,/Block Diagram/TD_N*%
X14706356Y6266365D02*
G75*
G02*
X14706391Y6598670I166144J166135D01*
G01*
X13914391Y7468451D02*
G75*
G03*
X13836611Y7468451I-38890J-38890D01*
G01*
X14041671Y7263390D02*
G75*
G03*
X14041691Y7341191I-38871J38910D01*
G01*
%TO.N,/Block Diagram/TD_P*%
X14833635Y6471426D02*
G75*
G03*
X14833639Y6803771I-166135J166174D01*
G01*
X14706353Y6931049D02*
G75*
G03*
X14374013Y6931049I-166170J-166170D01*
G01*
%TO.N,/Block Diagram/TD_N*%
X14296233Y6598706D02*
G75*
G02*
X13963928Y6598744I-166133J166194D01*
G01*
X13836609Y6725989D02*
G75*
G02*
X13836568Y7058370I166191J166211D01*
G01*
X13836610Y7468451D02*
G75*
G02*
X13504269Y7468450I-166171J166171D01*
G01*
X14579074Y6803769D02*
G75*
G03*
X14501292Y6803769I-38891J-38892D01*
G01*
X14706356Y6598705D02*
G75*
G03*
X14706360Y6676491I-38856J38895D01*
G01*
%TO.N,/Block Diagram/TD_P*%
X14168951Y6725988D02*
G75*
G02*
X14091210Y6726026I-38851J38912D01*
G01*
X14041671Y7595731D02*
G75*
G03*
X13709331Y7595731I-166170J-166170D01*
G01*
X13963889Y6853269D02*
G75*
G02*
X13963849Y6931091I38911J38931D01*
G01*
X14168951Y7136110D02*
G75*
G03*
X14168971Y7468471I-166151J166190D01*
G01*
%TO.N,/Block Diagram/TD_N*%
X11360000Y9612720D02*
X11360000Y10345000D01*
X13875498Y7097221D02*
X13939138Y7160861D01*
X13504269Y7468451D02*
X13376991Y7595730D01*
%TO.N,/Block Diagram/TD_P*%
X14271482Y6828519D02*
X14271483Y6828517D01*
%TO.N,/Block Diagram/TD_N*%
X11360000Y10345000D02*
X11105000Y10600000D01*
%TO.N,/Block Diagram/TD_P*%
X14105311Y7072471D02*
X14168951Y7136110D01*
%TO.N,/Block Diagram/TD_N*%
X14706356Y6676487D02*
X14579074Y6803769D01*
X15175000Y3720001D02*
X15335000Y3880001D01*
X11874857Y9097863D02*
X11360000Y9612720D01*
X15335000Y3880001D02*
X15335000Y5637720D01*
X15175000Y1845000D02*
X15175000Y3720001D01*
%TO.N,/Block Diagram/TD_P*%
X14168951Y7468451D02*
X14041671Y7595731D01*
X11540000Y10335000D02*
X11805000Y10600000D01*
X14066420Y7033580D02*
X14105311Y7072471D01*
%TO.N,/Block Diagram/TD_N*%
X14041671Y7341171D02*
X13914391Y7468451D01*
%TO.N,/Block Diagram/TD_P*%
X14207843Y6764877D02*
X14168951Y6725988D01*
X14374013Y6931049D02*
X14335122Y6892159D01*
%TO.N,/Block Diagram/TD_N*%
X13376991Y7595730D02*
X11874857Y9097863D01*
X14398761Y6701239D02*
X14398762Y6701238D01*
%TO.N,/Block Diagram/TD_P*%
X14335122Y6892159D02*
X14271482Y6828519D01*
%TO.N,/Block Diagram/TD_N*%
X14501292Y6803769D02*
X14462401Y6764879D01*
X13963891Y6598707D02*
X13836609Y6725989D01*
%TO.N,/Block Diagram/TD_P*%
X14271483Y6828517D02*
X14207843Y6764877D01*
%TO.N,/Block Diagram/TD_N*%
X13836609Y7058329D02*
X13875498Y7097221D01*
%TO.N,/Block Diagram/TD_P*%
X14002778Y6969943D02*
X14066418Y7033583D01*
%TO.N,/Block Diagram/TD_N*%
X14398762Y6701238D02*
X14335124Y6637597D01*
X14335124Y6637597D02*
X14296233Y6598706D01*
%TO.N,/Block Diagram/TD_P*%
X13504270Y7723009D02*
X12002137Y9225143D01*
%TO.N,/Block Diagram/TD_N*%
X14706356Y6266364D02*
X14706356Y6266365D01*
%TO.N,/Block Diagram/TD_P*%
X12002137Y9225143D02*
X11540000Y9687280D01*
X14833635Y6803767D02*
X14706353Y6931049D01*
X14833636Y6393644D02*
X14833635Y6393644D01*
X11540000Y9687280D02*
X11540000Y10335000D01*
X15515000Y5712280D02*
X14833636Y6393644D01*
X13631549Y7595731D02*
X13504270Y7723009D01*
X15675000Y3720001D02*
X15515000Y3880001D01*
%TO.N,/Block Diagram/TD_N*%
X13939138Y7160861D02*
X13939141Y7160859D01*
X14462401Y6764879D02*
X14398761Y6701239D01*
%TO.N,/Block Diagram/TD_P*%
X13963889Y6931051D02*
X14002778Y6969943D01*
X14066418Y7033583D02*
X14066420Y7033580D01*
X15515000Y3880001D02*
X15515000Y5712280D01*
%TO.N,/Block Diagram/TD_N*%
X13978032Y7199750D02*
X14041671Y7263390D01*
%TO.N,/Block Diagram/TD_P*%
X14091171Y6725987D02*
X13963889Y6853269D01*
X15675000Y1845000D02*
X15675000Y3720001D01*
%TO.N,/Block Diagram/TD_N*%
X15335000Y5637720D02*
X14706356Y6266364D01*
X13939141Y7160859D02*
X13978032Y7199750D01*
D25*
%TO.N,GND*%
X12020000Y21350000D02*
X12020000Y20620000D01*
D24*
X7850000Y8935800D02*
X7185800Y9600000D01*
X11068069Y7543069D02*
X9775000Y8836138D01*
X7185800Y9600000D02*
X7185800Y14125000D01*
D28*
X12754212Y49179212D02*
X12776527Y49201527D01*
D25*
X12825000Y9575000D02*
X16175000Y6225000D01*
D28*
X11654212Y52570788D02*
X11654212Y51945788D01*
X14079212Y48425788D02*
X14079212Y49157412D01*
X17104212Y51270788D02*
X17100000Y51275000D01*
X11659212Y55245788D02*
X12320788Y55245788D01*
X16879212Y48350788D02*
X16879212Y48873988D01*
X12320788Y55245788D02*
X12325000Y55250000D01*
X17304212Y54485788D02*
X16560788Y54485788D01*
D25*
X12825000Y10625000D02*
X12825000Y9575000D01*
D28*
X17450788Y48350788D02*
X17625000Y48525000D01*
D24*
X6675000Y1845000D02*
X6925000Y1845000D01*
D25*
X16175000Y6225000D02*
X16175000Y4650000D01*
D28*
X16879212Y48873988D02*
X16562573Y49190627D01*
X15304212Y53904212D02*
X15300000Y53900000D01*
D24*
X6161190Y16061190D02*
X6160800Y16061580D01*
D29*
X23675000Y1845000D02*
X23675000Y4400000D01*
D24*
X9675000Y4675000D02*
X9425000Y4925000D01*
D28*
X10679212Y49245788D02*
X10675000Y49250000D01*
D24*
X13225000Y5386138D02*
X11068069Y7543069D01*
X9775000Y11936138D02*
X9355569Y12355569D01*
X13400000Y3700000D02*
X13300000Y3800000D01*
X6925000Y1845000D02*
X7175000Y1845000D01*
X9355569Y12355569D02*
X9247000Y12464138D01*
D25*
X15480000Y20620000D02*
X15500000Y20600000D01*
D28*
X17104212Y53245788D02*
X17100000Y53250000D01*
D24*
X13225000Y5100000D02*
X13225000Y5386138D01*
D28*
X16879212Y48350788D02*
X17450788Y48350788D01*
X11654212Y50995788D02*
X11654212Y51945788D01*
D24*
X9247000Y14902736D02*
X9096800Y15052936D01*
D28*
X11654212Y50995788D02*
X11654212Y50329212D01*
X17629212Y48529212D02*
X17625000Y48525000D01*
D24*
X6925000Y1845000D02*
X6925000Y4450000D01*
X13400000Y1845000D02*
X13675000Y1845000D01*
D28*
X10679212Y48600788D02*
X10679212Y49245788D01*
D30*
X15800000Y14920000D02*
X15190000Y14920000D01*
D28*
X17774212Y51270788D02*
X17104212Y51270788D01*
X17774212Y53245788D02*
X17104212Y53245788D01*
D30*
X15190000Y14300000D02*
X15190000Y14920000D01*
D24*
X13400000Y1845000D02*
X13400000Y3700000D01*
D28*
X11650000Y52575000D02*
X11654212Y52570788D01*
D24*
X6160800Y20335800D02*
X6925000Y21100000D01*
X7185800Y14125000D02*
X7185800Y15036580D01*
X18675000Y1845000D02*
X18675000Y4375000D01*
X7850000Y6275000D02*
X7850000Y8935800D01*
X13225000Y3875000D02*
X13225000Y5100000D01*
D28*
X14079212Y53904212D02*
X14075000Y53900000D01*
D24*
X13175000Y1845000D02*
X13400000Y1845000D01*
X13300000Y3800000D02*
X13225000Y3875000D01*
X9775000Y8836138D02*
X9775000Y10900000D01*
X6160800Y16061580D02*
X6160800Y18725000D01*
X6988126Y15234254D02*
X6161190Y16061190D01*
D25*
X15480000Y21350000D02*
X15480000Y20620000D01*
D28*
X17629212Y49270788D02*
X17629212Y48529212D01*
X15304212Y54510788D02*
X15304212Y53904212D01*
X12754212Y48425788D02*
X12754212Y49179212D01*
D24*
X9247000Y12464138D02*
X9247000Y14600000D01*
X16175000Y1845000D02*
X16175000Y4650000D01*
D28*
X11654212Y50329212D02*
X11651527Y50326527D01*
X14079212Y49157412D02*
X14100000Y49178200D01*
D24*
X18675000Y4375000D02*
X18410000Y4640000D01*
X7185800Y15036580D02*
X6988126Y15234254D01*
D28*
X14079212Y54510788D02*
X14079212Y53904212D01*
D25*
X12020000Y20620000D02*
X12000000Y20600000D01*
D24*
X9247000Y14600000D02*
X9247000Y14902736D01*
X9675000Y1845000D02*
X9675000Y4675000D01*
X9775000Y10900000D02*
X9775000Y11936138D01*
D28*
X16560788Y54485788D02*
X16550000Y54475000D01*
D24*
X6160800Y18725000D02*
X6160800Y20335800D01*
X6925000Y4450000D02*
X8100000Y5625000D01*
D29*
X23675000Y4400000D02*
X23925000Y4650000D01*
D25*
%TO.N,+3.3VP*%
X12980000Y20620000D02*
X13000000Y20600000D01*
X14520000Y20620000D02*
X14500000Y20600000D01*
D30*
X10950000Y15870000D02*
X11960000Y15870000D01*
D25*
X12980000Y21350000D02*
X12980000Y20620000D01*
D30*
X11960000Y16810000D02*
X13000000Y17850000D01*
D25*
X14520000Y21350000D02*
X14520000Y20620000D01*
D30*
X11960000Y15870000D02*
X11960000Y16810000D01*
X13000000Y17850000D02*
X13000000Y20600000D01*
D24*
%TO.N,VBUS*%
X6175000Y1845000D02*
X5925000Y1845000D01*
D25*
X775000Y74600000D02*
X749000Y74574000D01*
D24*
X4900000Y5025000D02*
X3850000Y5025000D01*
D25*
X1450000Y11700000D02*
X2475000Y11700000D01*
D24*
X5925000Y1845000D02*
X5675000Y1845000D01*
D25*
X749000Y12401000D02*
X1450000Y11700000D01*
X3275000Y79350000D02*
X1875000Y79350000D01*
D24*
X5925000Y4000000D02*
X5700000Y4225000D01*
D25*
X775000Y78250000D02*
X775000Y74600000D01*
D24*
X3850000Y5025000D02*
X3500000Y5375000D01*
D25*
X749000Y74574000D02*
X749000Y12401000D01*
X1875000Y79350000D02*
X775000Y78250000D01*
D24*
X5700000Y4225000D02*
X4900000Y5025000D01*
X3500000Y5375000D02*
X3500000Y6600000D01*
X5925000Y1845000D02*
X5925000Y4000000D01*
D25*
%TO.N,/Block Diagram/Microcontroller Peripherals/I2C0_SCL*%
X7700000Y57550000D02*
X4800000Y57550000D01*
X11525000Y69475000D02*
X11375000Y69325000D01*
X11375000Y69325000D02*
X11375000Y61225000D01*
X11375000Y61225000D02*
X7700000Y57550000D01*
%TO.N,/Block Diagram/Microcontroller Peripherals/I2C0_SDA*%
X4775000Y58350000D02*
X7225000Y58350000D01*
X9100000Y60225000D02*
X10800000Y61925000D01*
X10800000Y68100000D02*
X10800000Y69975000D01*
X7225000Y58350000D02*
X9100000Y60225000D01*
X10800000Y69975000D02*
X11275000Y70450000D01*
X10800000Y61925000D02*
X10800000Y68100000D01*
D31*
%TO.N,HEARTBEAT*%
X13125000Y65350000D02*
X13300000Y65525000D01*
X8750000Y56700000D02*
X11200000Y59150000D01*
X4775000Y54600000D02*
X6875000Y56700000D01*
X13125000Y61075000D02*
X13125000Y65100000D01*
X11200000Y59150000D02*
X13125000Y61075000D01*
X13125000Y65100000D02*
X13125000Y65350000D01*
X7750000Y56700000D02*
X8750000Y56700000D01*
X6875000Y56700000D02*
X7750000Y56700000D01*
D25*
%TO.N,QSPI_SS*%
X27200000Y15900000D02*
X27200000Y14300000D01*
X22800000Y20300000D02*
X27200000Y15900000D01*
X22750000Y20300000D02*
X22800000Y20300000D01*
%TO.N,/Block Diagram/Ethernet Interface/ETH_INT*%
X1275000Y55350000D02*
X3400000Y55350000D01*
X3400000Y55350000D02*
X3475000Y55425000D01*
D23*
%TO.N,/Block Diagram/Microcontroller/ADC1*%
X11201607Y6501607D02*
X9098000Y8605214D01*
X8273000Y15525000D02*
X7950000Y15848000D01*
X12175000Y5528214D02*
X11201607Y6501607D01*
X8602454Y13227454D02*
X8273000Y13556908D01*
X9098000Y8605214D02*
X9098000Y11599908D01*
X12175000Y1845000D02*
X12175000Y5528214D01*
X9098000Y11599908D02*
X8602454Y12095454D01*
X8602454Y12095454D02*
X8602454Y13227454D01*
X7950000Y15848000D02*
X7950000Y16975000D01*
X8273000Y13556908D02*
X8273000Y15525000D01*
%TO.N,/Block Diagram/Microcontroller/ADC2*%
X8300000Y12925000D02*
X7971000Y13254000D01*
X7922954Y15447954D02*
X7350000Y16020908D01*
X7971000Y14200000D02*
X7971000Y15399908D01*
X8796000Y11474816D02*
X8735408Y11535408D01*
X7350000Y16020908D02*
X7350000Y17200000D01*
X7971000Y15399908D02*
X7922954Y15447954D01*
X8300000Y12800000D02*
X8300000Y12925000D01*
X8735408Y11535408D02*
X8300000Y11970816D01*
X8796000Y8379000D02*
X8796000Y9875000D01*
X8300000Y11970816D02*
X8300000Y12800000D01*
X11675000Y5500000D02*
X11275000Y5900000D01*
X8796000Y9875000D02*
X8796000Y11474816D01*
X7971000Y13254000D02*
X7971000Y14200000D01*
X11675000Y1845000D02*
X11675000Y5500000D01*
X11275000Y5900000D02*
X8796000Y8379000D01*
%TO.N,/Block Diagram/Microcontroller/ADC3*%
X7669000Y15274816D02*
X7396908Y15546908D01*
X7998000Y12773954D02*
X7669000Y13102954D01*
X11175000Y5572908D02*
X10611454Y6136454D01*
X7396908Y15546908D02*
X6800000Y16143816D01*
X8084362Y11759362D02*
X7998000Y11845724D01*
X6800000Y16143816D02*
X6800000Y17450000D01*
X8494000Y9600000D02*
X8494000Y11349724D01*
X8494000Y8253908D02*
X8494000Y9600000D01*
X7669000Y13925000D02*
X7669000Y15274816D01*
X10611454Y6136454D02*
X8494000Y8253908D01*
X11175000Y1845000D02*
X11175000Y5572908D01*
X7669000Y13102954D02*
X7669000Y13925000D01*
X8494000Y11349724D02*
X8084362Y11759362D01*
X7998000Y11845724D02*
X7998000Y12773954D01*
%TO.N,/Block Diagram/Microcontroller/ADC4*%
X10675000Y5625000D02*
X10275000Y6025000D01*
X9825000Y6475000D02*
X9350000Y6475000D01*
X10675000Y1845000D02*
X10675000Y5625000D01*
X10275000Y6025000D02*
X9825000Y6475000D01*
%TO.N,/Block Diagram/Microcontroller/ADC5*%
X9875000Y5450000D02*
X9650000Y5675000D01*
X9650000Y5675000D02*
X9250000Y5675000D01*
X10175000Y5150000D02*
X9875000Y5450000D01*
X10175000Y1845000D02*
X10175000Y5150000D01*
D25*
%TO.N,/Block Diagram/Microcontroller Peripherals/ADC_VREF*%
X4825000Y35550000D02*
X2700000Y37675000D01*
X2700000Y43200000D02*
X3275000Y43775000D01*
X2700000Y37675000D02*
X2700000Y43200000D01*
X3275000Y43775000D02*
X3575000Y43775000D01*
X6430000Y35550000D02*
X4825000Y35550000D01*
%TO.N,/Block Diagram/Microcontroller/GPIO27*%
X25360000Y6790000D02*
X23175000Y4605000D01*
X23175000Y4605000D02*
X23175000Y1845000D01*
X25360000Y7275000D02*
X25360000Y6790000D01*
%TO.N,/Block Diagram/Microcontroller/GPIO25*%
X24120000Y6700000D02*
X22175000Y4755000D01*
X24120000Y6900000D02*
X24120000Y6700000D01*
X22175000Y4755000D02*
X22175000Y1845000D01*
%TO.N,/Block Diagram/Microcontroller/GPIO26*%
X22675000Y4635000D02*
X22675000Y1845000D01*
X24710000Y7100000D02*
X24710000Y6670000D01*
X24710000Y6670000D02*
X22675000Y4635000D01*
D23*
%TO.N,/Block Diagram/Microcontroller/ADC0*%
X8907000Y12218000D02*
X8907000Y13350000D01*
X9400000Y10675000D02*
X9400000Y11725000D01*
X9400000Y8730306D02*
X9400000Y10675000D01*
X8575000Y13682000D02*
X8575000Y16700000D01*
X12675000Y1845000D02*
X12675000Y5455306D01*
X8907000Y13350000D02*
X8575000Y13682000D01*
X9025000Y12100000D02*
X8907000Y12218000D01*
X10715153Y7415153D02*
X9400000Y8730306D01*
X12675000Y5455306D02*
X10715153Y7415153D01*
X9400000Y11725000D02*
X9025000Y12100000D01*
D25*
%TO.N,/Block Diagram/Ethernet Interface/SPI1_SCLK*%
X2825000Y60375000D02*
X4575000Y60375000D01*
X4575000Y60375000D02*
X4725000Y60525000D01*
%TO.N,/Block Diagram/RCT*%
X14600000Y15870000D02*
X14590000Y15880000D01*
D30*
X12970000Y15870000D02*
X15180000Y15870000D01*
D25*
X12025000Y7050000D02*
X10125000Y8950000D01*
D30*
X15180000Y15870000D02*
X15190000Y15880000D01*
D25*
X13650000Y5425000D02*
X12025000Y7050000D01*
X10125000Y10825000D02*
X10125000Y12050000D01*
X9850000Y12325000D02*
X9575000Y12600000D01*
X14600000Y16800000D02*
X14600000Y15870000D01*
X14175000Y1845000D02*
X14175000Y3847308D01*
X10125000Y12050000D02*
X9850000Y12325000D01*
X13650000Y5075000D02*
X13650000Y5425000D01*
X14590000Y15880000D02*
X13970000Y15880000D01*
X9575000Y12600000D02*
X9575000Y15550000D01*
X10125000Y8950000D02*
X10125000Y10825000D01*
X13650000Y4372308D02*
X13650000Y5075000D01*
X14175000Y3847308D02*
X13650000Y4372308D01*
%TO.N,/Block Diagram/TCT*%
X18175000Y1845000D02*
X18175000Y3825000D01*
X18175000Y3825000D02*
X17875000Y4125000D01*
X17875000Y5328200D02*
X18446800Y5900000D01*
X17875000Y4125000D02*
X17875000Y5328200D01*
D29*
%TO.N,/Block Diagram/LINK_LED*%
X19503000Y6447000D02*
X19503000Y25853000D01*
X19675000Y6275000D02*
X19503000Y6447000D01*
X20300000Y26650000D02*
X21950000Y26650000D01*
X19675000Y1845000D02*
X19675000Y6275000D01*
X19503000Y25853000D02*
X20300000Y26650000D01*
%TO.N,/Block Diagram/ACT_LED*%
X19175000Y1845000D02*
X19175000Y26475000D01*
X19175000Y26475000D02*
X20375000Y27675000D01*
X20375000Y27675000D02*
X21975000Y27675000D01*
D32*
%TO.N,Net-(JP1-C)*%
X23000000Y8200000D02*
X26275000Y8200000D01*
X26275000Y8200000D02*
X28250000Y10175000D01*
X27000000Y71250000D02*
X10775000Y71250000D01*
X20425000Y1845000D02*
X20425000Y5625000D01*
X10025000Y70500000D02*
X10025000Y66250000D01*
X28250000Y10175000D02*
X28250000Y70000000D01*
D29*
X21675000Y1845000D02*
X21475000Y1845000D01*
D32*
X20425000Y1845000D02*
X21475000Y1845000D01*
D29*
X21475000Y1845000D02*
X21175000Y1845000D01*
D32*
X20425000Y5625000D02*
X23000000Y8200000D01*
D29*
X20175000Y1845000D02*
X20425000Y1845000D01*
X20675000Y1845000D02*
X21175000Y1845000D01*
X20425000Y1845000D02*
X20675000Y1845000D01*
D32*
X10775000Y71250000D02*
X10025000Y70500000D01*
X10025000Y66250000D02*
X10025000Y65175000D01*
X28250000Y70000000D02*
X27000000Y71250000D01*
%TD*%
%TA.AperFunction,Conductor*%
%TO.N,VBUS*%
G36*
X3514036Y5951947D02*
G01*
X3533517Y5952178D01*
X3547218Y5943602D01*
X3562898Y5939658D01*
X3576225Y5925444D01*
X3592740Y5915106D01*
X3599630Y5900482D01*
X3610688Y5888688D01*
X3621952Y5855240D01*
X3622523Y5852136D01*
X3627111Y5817289D01*
X3632944Y5795517D01*
X3633841Y5790645D01*
X3634258Y5788245D01*
X3634971Y5783889D01*
X3634973Y5783883D01*
X3652806Y5727245D01*
X3654843Y5723004D01*
X3662229Y5709012D01*
X3664575Y5704949D01*
X3676555Y5684198D01*
X3678554Y5675956D01*
X3683857Y5669338D01*
X3685439Y5665288D01*
X3695103Y5639209D01*
X3695104Y5639205D01*
X3700111Y5628784D01*
X3707259Y5615208D01*
X3716342Y5599395D01*
X3739066Y5572471D01*
X3764426Y5542423D01*
X3764427Y5542422D01*
X3818301Y5497938D01*
X3818308Y5497933D01*
X3838941Y5482920D01*
X3838943Y5482920D01*
X3838946Y5482917D01*
X3926402Y5451643D01*
X3995778Y5443346D01*
X4021267Y5441870D01*
X4111748Y5462844D01*
X4174595Y5493372D01*
X4196833Y5505910D01*
X4197145Y5506230D01*
X4261610Y5572471D01*
X4261613Y5572475D01*
X4297974Y5632127D01*
X4297974Y5632128D01*
X4297977Y5632132D01*
X4308263Y5656154D01*
X4314855Y5669324D01*
X4335802Y5705606D01*
X4355502Y5731277D01*
X4368721Y5744497D01*
X4394394Y5764197D01*
X4419950Y5778952D01*
X4440003Y5788253D01*
X4445938Y5790386D01*
X4450895Y5792650D01*
X4484082Y5797425D01*
X4517130Y5802982D01*
X4519082Y5802460D01*
X4520048Y5802598D01*
X4551213Y5793852D01*
X4556162Y5791733D01*
X4569324Y5785144D01*
X4605599Y5764201D01*
X4631276Y5744497D01*
X4644496Y5731277D01*
X4664201Y5705598D01*
X4673547Y5689411D01*
X4685935Y5659506D01*
X4688662Y5649327D01*
X4690775Y5641444D01*
X4695000Y5609351D01*
X4695000Y5590655D01*
X4690775Y5558564D01*
X4688568Y5550329D01*
X4681691Y5506231D01*
X4679184Y5453575D01*
X4678949Y5442944D01*
X4681720Y5430991D01*
X4692479Y5384575D01*
X4699924Y5352461D01*
X4730450Y5289618D01*
X4742988Y5267381D01*
X4742989Y5267379D01*
X4809556Y5202597D01*
X4869207Y5166238D01*
X4869220Y5166231D01*
X4880509Y5161397D01*
X4923818Y5142851D01*
X4930019Y5141190D01*
X4930791Y5140720D01*
X4931696Y5140728D01*
X4985611Y5109095D01*
X5033025Y5061681D01*
X5066510Y5000358D01*
X5061526Y4930666D01*
X5019654Y4874733D01*
X4954190Y4850316D01*
X4945344Y4850000D01*
X4920148Y4850000D01*
X4900515Y4854825D01*
X4886382Y4854686D01*
X4876954Y4860615D01*
X4862674Y4864124D01*
X4838323Y4876862D01*
X4771286Y4896546D01*
X4771278Y4896548D01*
X4712487Y4905000D01*
X4712486Y4905000D01*
X4509916Y4905000D01*
X4509912Y4905000D01*
X4509901Y4904999D01*
X4461922Y4899407D01*
X4461921Y4899407D01*
X4406421Y4886292D01*
X4392555Y4882508D01*
X4392552Y4882506D01*
X4365316Y4866719D01*
X4303133Y4850000D01*
X3927191Y4850000D01*
X3906819Y4855982D01*
X3885620Y4857176D01*
X3866124Y4867932D01*
X3860152Y4869685D01*
X3854391Y4873620D01*
X3851537Y4875690D01*
X3851329Y4875908D01*
X3804634Y4912629D01*
X3784871Y4924039D01*
X3779652Y4927824D01*
X3777224Y4930967D01*
X3764771Y4940523D01*
X3596199Y5109095D01*
X3415903Y5289392D01*
X3383812Y5344974D01*
X3372888Y5385743D01*
X3372887Y5385743D01*
X3368270Y5402975D01*
X3367683Y5405253D01*
X3365166Y5415412D01*
X3365040Y5415744D01*
X3360578Y5429372D01*
X3360528Y5430991D01*
X3358648Y5435861D01*
X3356275Y5444715D01*
X3356273Y5444720D01*
X3335431Y5495039D01*
X3335429Y5495042D01*
X3335427Y5495048D01*
X3326450Y5510597D01*
X3314063Y5540501D01*
X3309224Y5558564D01*
X3305000Y5590652D01*
X3305000Y5609351D01*
X3309222Y5641434D01*
X3314062Y5659501D01*
X3326453Y5689411D01*
X3335427Y5704953D01*
X3356277Y5755290D01*
X3372889Y5817289D01*
X3377061Y5848981D01*
X3383601Y5863765D01*
X3385273Y5879843D01*
X3397445Y5895058D01*
X3405328Y5912876D01*
X3418822Y5921777D01*
X3428922Y5934401D01*
X3447388Y5940620D01*
X3463652Y5951347D01*
X3479815Y5951540D01*
X3495138Y5956699D01*
X3514036Y5951947D01*
G37*
%TD.AperFunction*%
%TA.AperFunction,Conductor*%
G36*
X3541438Y6790777D02*
G01*
X3559500Y6785937D01*
X3589407Y6773549D01*
X3605592Y6764205D01*
X3631275Y6744498D01*
X3644496Y6731277D01*
X3664203Y6705594D01*
X3678944Y6680061D01*
X3686474Y6664645D01*
X3687410Y6662335D01*
X3690386Y6654057D01*
X3693765Y6646658D01*
X3694774Y6644169D01*
X3697988Y6611969D01*
X3702593Y6579934D01*
X3701555Y6576240D01*
X3701715Y6574645D01*
X3700365Y6572000D01*
X3693847Y6548780D01*
X3691740Y6543859D01*
X3685136Y6530667D01*
X3664583Y6495069D01*
X3664574Y6495050D01*
X3643726Y6444719D01*
X3643722Y6444710D01*
X3627112Y6382720D01*
X3622938Y6351019D01*
X3594669Y6287124D01*
X3536343Y6248655D01*
X3466478Y6247826D01*
X3407256Y6284900D01*
X3381972Y6329189D01*
X3378527Y6339882D01*
X3372888Y6382716D01*
X3356275Y6444715D01*
X3335427Y6495048D01*
X3319855Y6522020D01*
X3315811Y6534574D01*
X3315763Y6536397D01*
X3314063Y6540501D01*
X3309223Y6558563D01*
X3305000Y6590652D01*
X3305000Y6609349D01*
X3309223Y6641435D01*
X3310808Y6647353D01*
X3314062Y6659499D01*
X3326448Y6689405D01*
X3335802Y6705607D01*
X3355501Y6731277D01*
X3368721Y6744497D01*
X3394391Y6764195D01*
X3410597Y6773552D01*
X3440497Y6785936D01*
X3458567Y6790778D01*
X3490652Y6795000D01*
X3509348Y6795000D01*
X3541438Y6790777D01*
G37*
%TD.AperFunction*%
%TD*%
%TA.AperFunction,Conductor*%
%TO.N,GND*%
G36*
X26827748Y70776615D02*
G01*
X26848390Y70759981D01*
X27759981Y69848390D01*
X27793466Y69787067D01*
X27796300Y69760709D01*
X27796300Y14537354D01*
X27786611Y14504360D01*
X27777203Y14471238D01*
X27776775Y14470861D01*
X27776615Y14470315D01*
X27750644Y14447812D01*
X27724805Y14425019D01*
X27724241Y14424933D01*
X27723811Y14424560D01*
X27689760Y14419664D01*
X27655737Y14414465D01*
X27655216Y14414698D01*
X27654653Y14414616D01*
X27623357Y14428909D01*
X27591927Y14442928D01*
X27591477Y14443468D01*
X27591097Y14443641D01*
X27568580Y14469397D01*
X27566661Y14472326D01*
X27523041Y14547878D01*
X27505982Y14564937D01*
X27498980Y14575624D01*
X27492400Y14597324D01*
X27481534Y14617223D01*
X27478879Y14641912D01*
X27478705Y14642487D01*
X27478786Y14642775D01*
X27478700Y14643581D01*
X27478700Y15853306D01*
X27478701Y15853319D01*
X27478701Y15936693D01*
X27478700Y15936696D01*
X27459709Y16007570D01*
X27459706Y16007575D01*
X27455297Y16015213D01*
X27455295Y16015216D01*
X27450636Y16023285D01*
X27423016Y16071126D01*
X27371126Y16123016D01*
X27371123Y16123018D01*
X23181845Y20312296D01*
X23149752Y20367883D01*
X23126189Y20455823D01*
X23073041Y20547878D01*
X22997878Y20623041D01*
X22905823Y20676189D01*
X22803148Y20703700D01*
X22696852Y20703700D01*
X22594177Y20676189D01*
X22594175Y20676188D01*
X22594174Y20676188D01*
X22502125Y20623043D01*
X22502119Y20623039D01*
X22426961Y20547881D01*
X22426957Y20547875D01*
X22373812Y20455826D01*
X22373812Y20455825D01*
X22373811Y20455823D01*
X22346300Y20353148D01*
X22346300Y20246852D01*
X22373811Y20144177D01*
X22426959Y20052122D01*
X22502122Y19976959D01*
X22594177Y19923811D01*
X22696852Y19896300D01*
X22696854Y19896300D01*
X22758197Y19896300D01*
X22825236Y19876615D01*
X22845878Y19859981D01*
X26884981Y15820878D01*
X26918466Y15759555D01*
X26921300Y15733197D01*
X26921300Y14643581D01*
X26901615Y14576542D01*
X26884981Y14555900D01*
X26876961Y14547881D01*
X26876957Y14547875D01*
X26823812Y14455826D01*
X26823812Y14455825D01*
X26823811Y14455823D01*
X26796300Y14353148D01*
X26796300Y14246852D01*
X26823811Y14144177D01*
X26876959Y14052122D01*
X26952122Y13976959D01*
X27044177Y13923811D01*
X27146852Y13896300D01*
X27146854Y13896300D01*
X27253146Y13896300D01*
X27253148Y13896300D01*
X27355823Y13923811D01*
X27447878Y13976959D01*
X27523041Y14052122D01*
X27564913Y14124648D01*
X27615480Y14172862D01*
X27684087Y14186086D01*
X27748951Y14160118D01*
X27789480Y14103204D01*
X27796300Y14062647D01*
X27796300Y10414291D01*
X27776615Y10347252D01*
X27759981Y10326610D01*
X26123390Y8690019D01*
X26062067Y8656534D01*
X26035709Y8653700D01*
X23272213Y8653700D01*
X23205174Y8673385D01*
X23159419Y8726189D01*
X23149475Y8795347D01*
X23177823Y8858115D01*
X23190004Y8872413D01*
X23197878Y8876959D01*
X23273041Y8952122D01*
X23304851Y9007220D01*
X23312188Y9015831D01*
X23332332Y9029017D01*
X23349757Y9045631D01*
X23361037Y9047806D01*
X23370648Y9054096D01*
X23394721Y9054298D01*
X23418364Y9058855D01*
X23438666Y9055192D01*
X23471852Y9046300D01*
X23471854Y9046300D01*
X23578146Y9046300D01*
X23578148Y9046300D01*
X23680823Y9073811D01*
X23772878Y9126959D01*
X23848041Y9202122D01*
X23901189Y9294177D01*
X23928700Y9396852D01*
X23928700Y9503148D01*
X23901189Y9605823D01*
X23848041Y9697878D01*
X23772878Y9773041D01*
X23699685Y9815299D01*
X23680825Y9826188D01*
X23680824Y9826189D01*
X23680823Y9826189D01*
X23578148Y9853700D01*
X23471852Y9853700D01*
X23369177Y9826189D01*
X23369175Y9826188D01*
X23369174Y9826188D01*
X23277125Y9773043D01*
X23277119Y9773039D01*
X23201961Y9697881D01*
X23201957Y9697875D01*
X23175807Y9652583D01*
X23125239Y9604369D01*
X23056632Y9591147D01*
X23036330Y9594810D01*
X23003152Y9603700D01*
X23003148Y9603700D01*
X22896852Y9603700D01*
X22794177Y9576189D01*
X22794175Y9576188D01*
X22794174Y9576188D01*
X22702125Y9523043D01*
X22702119Y9523039D01*
X22621212Y9442131D01*
X22618893Y9444450D01*
X22574767Y9412282D01*
X22505018Y9408182D01*
X22500818Y9409229D01*
X22428149Y9428700D01*
X22428148Y9428700D01*
X22321852Y9428700D01*
X22219177Y9401189D01*
X22219175Y9401188D01*
X22219174Y9401188D01*
X22127125Y9348043D01*
X22127119Y9348039D01*
X22051961Y9272881D01*
X22051954Y9272872D01*
X22006608Y9194331D01*
X21956041Y9146116D01*
X21887433Y9132894D01*
X21867130Y9136557D01*
X21803149Y9153700D01*
X21803148Y9153700D01*
X21696852Y9153700D01*
X21594177Y9126189D01*
X21594175Y9126188D01*
X21594174Y9126188D01*
X21502125Y9073043D01*
X21502119Y9073039D01*
X21426961Y8997881D01*
X21426957Y8997875D01*
X21373812Y8905826D01*
X21373812Y8905825D01*
X21373811Y8905823D01*
X21346300Y8803148D01*
X21346300Y8775245D01*
X21343749Y8766560D01*
X21345038Y8757598D01*
X21334059Y8733558D01*
X21326615Y8708206D01*
X21319774Y8702279D01*
X21316013Y8694042D01*
X21293778Y8679753D01*
X21273811Y8662451D01*
X21263296Y8660164D01*
X21257235Y8656268D01*
X21222300Y8651245D01*
X21150861Y8651245D01*
X21083822Y8670930D01*
X21038067Y8723734D01*
X21031794Y8745564D01*
X21030803Y8745298D01*
X21028700Y8753148D01*
X21001189Y8855823D01*
X20948041Y8947878D01*
X20872878Y9023041D01*
X20786279Y9073039D01*
X20780825Y9076188D01*
X20780824Y9076189D01*
X20780823Y9076189D01*
X20678148Y9103700D01*
X20571852Y9103700D01*
X20469177Y9076189D01*
X20469175Y9076188D01*
X20469174Y9076188D01*
X20377125Y9023043D01*
X20377119Y9023039D01*
X20301961Y8947881D01*
X20301957Y8947875D01*
X20248812Y8855826D01*
X20248812Y8855825D01*
X20248811Y8855823D01*
X20221300Y8753148D01*
X20221300Y8646852D01*
X20237928Y8584791D01*
X20236266Y8514944D01*
X20197104Y8457081D01*
X20135670Y8429943D01*
X20126959Y8428700D01*
X20046852Y8428700D01*
X19955591Y8404248D01*
X19948216Y8403195D01*
X19920719Y8407179D01*
X19892943Y8407840D01*
X19886621Y8412119D01*
X19879068Y8413213D01*
X19858092Y8431428D01*
X19835080Y8447003D01*
X19832075Y8454021D01*
X19826313Y8459024D01*
X19818513Y8485691D01*
X19807577Y8511232D01*
X19806700Y8525952D01*
X19806700Y20925465D01*
X19826385Y20992504D01*
X19879189Y21038259D01*
X19948347Y21048203D01*
X19993918Y21029006D01*
X19995083Y21031023D01*
X20002121Y21026960D01*
X20002122Y21026959D01*
X20094177Y20973811D01*
X20196852Y20946300D01*
X20196854Y20946300D01*
X20303146Y20946300D01*
X20303148Y20946300D01*
X20405823Y20973811D01*
X20497878Y21026959D01*
X20573041Y21102122D01*
X20626189Y21194177D01*
X20653700Y21296852D01*
X20653700Y21403148D01*
X20626189Y21505823D01*
X20573041Y21597878D01*
X20497878Y21673041D01*
X20405823Y21726189D01*
X20390756Y21730226D01*
X20331097Y21766589D01*
X20300567Y21829435D01*
X20308861Y21898811D01*
X20353346Y21952690D01*
X20390755Y21969774D01*
X20405823Y21973811D01*
X20497878Y22026959D01*
X20573041Y22102122D01*
X20626189Y22194177D01*
X20653700Y22296852D01*
X20653700Y22403148D01*
X20626189Y22505823D01*
X20573041Y22597878D01*
X20497878Y22673041D01*
X20436508Y22708473D01*
X20405825Y22726188D01*
X20405824Y22726189D01*
X20405823Y22726189D01*
X20303148Y22753700D01*
X20196852Y22753700D01*
X20094177Y22726189D01*
X20094175Y22726188D01*
X20094174Y22726188D01*
X19995083Y22668977D01*
X19993720Y22671338D01*
X19941000Y22650964D01*
X19872557Y22665013D01*
X19822574Y22713834D01*
X19806700Y22774536D01*
X19806700Y24163465D01*
X19826385Y24230504D01*
X19879189Y24276259D01*
X19948347Y24286203D01*
X19992699Y24270853D01*
X20074177Y24223811D01*
X20176852Y24196300D01*
X20176854Y24196300D01*
X20283146Y24196300D01*
X20283148Y24196300D01*
X20385823Y24223811D01*
X20477878Y24276959D01*
X20553041Y24352122D01*
X20606189Y24444177D01*
X20633700Y24546852D01*
X20633700Y24653148D01*
X20606189Y24755823D01*
X20553041Y24847878D01*
X20477878Y24923041D01*
X20385823Y24976189D01*
X20283148Y25003700D01*
X20176852Y25003700D01*
X20074176Y24976189D01*
X19992699Y24929148D01*
X19924799Y24912676D01*
X19858772Y24935529D01*
X19815582Y24990451D01*
X19806700Y25036536D01*
X19806700Y25675842D01*
X19826385Y25742881D01*
X19843019Y25763523D01*
X20389477Y26309981D01*
X20450800Y26343466D01*
X20477158Y26346300D01*
X21635397Y26346300D01*
X21697397Y26329687D01*
X21702121Y26326960D01*
X21702122Y26326959D01*
X21794177Y26273811D01*
X21896852Y26246300D01*
X21896854Y26246300D01*
X22003146Y26246300D01*
X22003148Y26246300D01*
X22105823Y26273811D01*
X22197878Y26326959D01*
X22273041Y26402122D01*
X22326189Y26494177D01*
X22353700Y26596852D01*
X22353700Y26703148D01*
X22326189Y26805823D01*
X22273041Y26897878D01*
X22197878Y26973041D01*
X22105823Y27026189D01*
X22056605Y27039377D01*
X21996945Y27075741D01*
X21966416Y27138588D01*
X21974711Y27207964D01*
X22019196Y27261841D01*
X22056603Y27278925D01*
X22130823Y27298811D01*
X22222878Y27351959D01*
X22298041Y27427122D01*
X22351189Y27519177D01*
X22378700Y27621852D01*
X22378700Y27728148D01*
X22351189Y27830823D01*
X22298041Y27922878D01*
X22222878Y27998041D01*
X22130823Y28051189D01*
X22028148Y28078700D01*
X21921852Y28078700D01*
X21819177Y28051189D01*
X21819175Y28051188D01*
X21819174Y28051188D01*
X21722397Y27995313D01*
X21660397Y27978700D01*
X20335016Y27978700D01*
X20257774Y27958004D01*
X20188524Y27918021D01*
X20188521Y27918019D01*
X20131977Y27861474D01*
X18971083Y26700581D01*
X18931982Y26661480D01*
X18931979Y26661476D01*
X18891994Y26592222D01*
X18871300Y26514987D01*
X18871300Y6335843D01*
X18851615Y6268804D01*
X18798811Y6223049D01*
X18729653Y6213105D01*
X18685300Y6228456D01*
X18602625Y6276188D01*
X18602624Y6276189D01*
X18602623Y6276189D01*
X18499948Y6303700D01*
X18393652Y6303700D01*
X18290977Y6276189D01*
X18290975Y6276188D01*
X18290974Y6276188D01*
X18198925Y6223043D01*
X18198919Y6223039D01*
X18123761Y6147881D01*
X18123757Y6147875D01*
X18070612Y6055826D01*
X18070612Y6055825D01*
X18070611Y6055823D01*
X18046463Y5965700D01*
X18043100Y5953148D01*
X18043100Y5941804D01*
X18023415Y5874765D01*
X18006781Y5854123D01*
X17651985Y5499328D01*
X17651983Y5499326D01*
X17615293Y5435775D01*
X17615293Y5435774D01*
X17596300Y5364892D01*
X17596300Y4088308D01*
X17610751Y4034378D01*
X17615293Y4017426D01*
X17651983Y3953875D01*
X17710942Y3894916D01*
X17710945Y3894914D01*
X17794178Y3811681D01*
X17827663Y3750358D01*
X17822679Y3680666D01*
X17780807Y3624733D01*
X17715343Y3600316D01*
X17706497Y3600000D01*
X17547700Y3600000D01*
X17529248Y3605418D01*
X17510021Y3605863D01*
X17496414Y3615060D01*
X17480661Y3619685D01*
X17468068Y3634218D01*
X17452133Y3644988D01*
X17445658Y3660080D01*
X17434906Y3672489D01*
X17429320Y3698165D01*
X17424587Y3709198D01*
X17425601Y3715258D01*
X17423700Y3724000D01*
X17423700Y3769469D01*
X17423699Y3769473D01*
X17411276Y3799465D01*
X17395262Y3838125D01*
X17385837Y3860879D01*
X17300019Y3946697D01*
X17266534Y4008020D01*
X17263700Y4034378D01*
X17263700Y6561748D01*
X17263699Y6561752D01*
X17254173Y6584748D01*
X17237913Y6624004D01*
X17225837Y6653158D01*
X16512220Y7366775D01*
X16478735Y7428098D01*
X16480129Y7486559D01*
X16492468Y7532588D01*
X16492476Y7659950D01*
X16459518Y7782973D01*
X16395840Y7893274D01*
X16392105Y7897009D01*
X16385790Y7903324D01*
X16385790Y7903327D01*
X16350813Y7938304D01*
X16350810Y7938307D01*
X16350809Y7938309D01*
X16312741Y7976377D01*
X16312734Y7976383D01*
X16181484Y8107633D01*
X16181477Y8107639D01*
X16178501Y8110615D01*
X16178499Y8110617D01*
X16068202Y8174297D01*
X15945181Y8207260D01*
X15945180Y8207260D01*
X15937121Y8208321D01*
X15937532Y8211444D01*
X15884742Y8226945D01*
X15838987Y8279749D01*
X15830918Y8316837D01*
X15828840Y8316563D01*
X15827780Y8324618D01*
X15827779Y8324619D01*
X15827780Y8324622D01*
X15794832Y8447641D01*
X15731167Y8557940D01*
X15731163Y8557944D01*
X15730309Y8558799D01*
X15730309Y8558800D01*
X15721109Y8568001D01*
X15721106Y8568011D01*
X15686149Y8602968D01*
X15686148Y8602970D01*
X15647515Y8641612D01*
X15647452Y8641665D01*
X15516802Y8772315D01*
X15516795Y8772321D01*
X15513819Y8775297D01*
X15513817Y8775299D01*
X15403520Y8838979D01*
X15280499Y8871942D01*
X15153139Y8871942D01*
X15147918Y8870543D01*
X15107071Y8859599D01*
X15095071Y8859886D01*
X15083827Y8855691D01*
X15060791Y8860703D01*
X15037221Y8861264D01*
X15025574Y8868364D01*
X15015554Y8870543D01*
X14987300Y8891694D01*
X14986465Y8892529D01*
X13840019Y10038976D01*
X13806534Y10100299D01*
X13803700Y10126657D01*
X13803700Y10658883D01*
X13823385Y10725922D01*
X13876189Y10771677D01*
X13895600Y10778656D01*
X13970823Y10798811D01*
X14062878Y10851959D01*
X14138041Y10927122D01*
X14191189Y11019177D01*
X14218700Y11121852D01*
X14218700Y11228148D01*
X14191189Y11330823D01*
X14138041Y11422878D01*
X14062878Y11498041D01*
X13970823Y11551189D01*
X13868148Y11578700D01*
X13761852Y11578700D01*
X13659177Y11551189D01*
X13659175Y11551188D01*
X13659174Y11551188D01*
X13567125Y11498043D01*
X13567119Y11498039D01*
X13552681Y11483600D01*
X13491358Y11450115D01*
X13421666Y11455099D01*
X13377319Y11483600D01*
X13362880Y11498039D01*
X13362878Y11498041D01*
X13270823Y11551189D01*
X13168148Y11578700D01*
X13061852Y11578700D01*
X12959177Y11551189D01*
X12959175Y11551188D01*
X12959174Y11551188D01*
X12867125Y11498043D01*
X12867119Y11498039D01*
X12791961Y11422881D01*
X12791957Y11422875D01*
X12738812Y11330826D01*
X12738812Y11330825D01*
X12738811Y11330823D01*
X12711300Y11228148D01*
X12711300Y11121852D01*
X12738811Y11019177D01*
X12791959Y10927122D01*
X12867122Y10851959D01*
X12959177Y10798811D01*
X13034394Y10778657D01*
X13094054Y10742293D01*
X13124583Y10679447D01*
X13126300Y10658883D01*
X13126300Y10299687D01*
X13126300Y9848251D01*
X13135439Y9826189D01*
X13135441Y9826185D01*
X13164162Y9756843D01*
X13164163Y9756842D01*
X14507471Y8413535D01*
X14704709Y8216296D01*
X14704712Y8216295D01*
X14714759Y8206248D01*
X14825056Y8142567D01*
X14825317Y8142497D01*
X14828983Y8140252D01*
X14851390Y8115497D01*
X14874434Y8091328D01*
X14874749Y8089689D01*
X14875870Y8088451D01*
X14881336Y8055512D01*
X14887656Y8022721D01*
X14887198Y8020188D01*
X14887309Y8019524D01*
X14886913Y8018606D01*
X14883989Y8002402D01*
X14860435Y7914538D01*
X14860435Y7914535D01*
X14860419Y7787187D01*
X14860420Y7787185D01*
X14860420Y7787184D01*
X14892972Y7665634D01*
X14893366Y7664165D01*
X14957023Y7553874D01*
X14957025Y7553872D01*
X14957027Y7553869D01*
X14967082Y7543811D01*
X14967090Y7543793D01*
X15002045Y7508838D01*
X15002046Y7508837D01*
X15041213Y7469659D01*
X15041276Y7469607D01*
X15098348Y7412535D01*
X15098352Y7412527D01*
X15129362Y7381521D01*
X15173079Y7337804D01*
X15173310Y7337616D01*
X15174407Y7336519D01*
X15284692Y7272849D01*
X15284696Y7272848D01*
X15284694Y7272848D01*
X15341545Y7257614D01*
X15407698Y7239887D01*
X15534980Y7239880D01*
X15535036Y7239879D01*
X15535036Y7239880D01*
X15535043Y7239879D01*
X15622979Y7263432D01*
X15647417Y7262848D01*
X15671584Y7266548D01*
X15681727Y7262028D01*
X15692828Y7261762D01*
X15713071Y7248059D01*
X15735402Y7238106D01*
X15745278Y7226256D01*
X15750687Y7222594D01*
X15758758Y7211644D01*
X15762881Y7205356D01*
X15763108Y7204509D01*
X15826797Y7094206D01*
X15843788Y7077217D01*
X15852814Y7068191D01*
X16549981Y6371024D01*
X16583466Y6309701D01*
X16586300Y6283343D01*
X16586300Y4034378D01*
X16566615Y3967339D01*
X16549981Y3946697D01*
X16464164Y3860881D01*
X16464163Y3860880D01*
X16464163Y3860879D01*
X16456021Y3841221D01*
X16454738Y3838124D01*
X16426300Y3769473D01*
X16426300Y3724000D01*
X16406615Y3656961D01*
X16353811Y3611206D01*
X16302300Y3600000D01*
X16047700Y3600000D01*
X15980661Y3619685D01*
X15934906Y3672489D01*
X15923700Y3724000D01*
X15923700Y3769469D01*
X15923699Y3769473D01*
X15911276Y3799465D01*
X15895262Y3838125D01*
X15885837Y3860879D01*
X15800019Y3946697D01*
X15766534Y4008020D01*
X15763700Y4034378D01*
X15763700Y5761748D01*
X15763700Y5761749D01*
X15729714Y5843797D01*
X15725837Y5853158D01*
X15170919Y6408076D01*
X15137434Y6469399D01*
X15138827Y6527856D01*
X15151171Y6573910D01*
X15151172Y6701280D01*
X15118203Y6824310D01*
X15116825Y6826696D01*
X15071355Y6905441D01*
X15054511Y6934612D01*
X15012771Y6976346D01*
X15012771Y6976347D01*
X15012764Y6976353D01*
X14840166Y7148951D01*
X14840159Y7148957D01*
X14837183Y7151933D01*
X14837181Y7151935D01*
X14726884Y7215615D01*
X14603863Y7248578D01*
X14603862Y7248578D01*
X14595803Y7249639D01*
X14596214Y7252766D01*
X14543437Y7268263D01*
X14497682Y7321067D01*
X14489610Y7358169D01*
X14487536Y7357895D01*
X14486475Y7365945D01*
X14486476Y7365953D01*
X14453516Y7488977D01*
X14453515Y7488979D01*
X14389837Y7599279D01*
X14389832Y7599285D01*
X14175484Y7813633D01*
X14175477Y7813639D01*
X14172501Y7816615D01*
X14172499Y7816617D01*
X14081464Y7869176D01*
X14062204Y7880296D01*
X14062203Y7880297D01*
X14062202Y7880297D01*
X13939181Y7913260D01*
X13811821Y7913260D01*
X13806600Y7911861D01*
X13765753Y7900917D01*
X13753753Y7901204D01*
X13742509Y7897009D01*
X13719473Y7902021D01*
X13695903Y7902582D01*
X13684256Y7909682D01*
X13674236Y7911861D01*
X13645982Y7933012D01*
X13645147Y7933847D01*
X12143015Y9435980D01*
X11825019Y9753976D01*
X11791534Y9815299D01*
X11788700Y9841657D01*
X11788700Y10082544D01*
X11808385Y10149583D01*
X11861189Y10195338D01*
X11880596Y10202316D01*
X11960823Y10223811D01*
X12052878Y10276959D01*
X12128041Y10352122D01*
X12181189Y10444177D01*
X12208700Y10546852D01*
X12208700Y10653148D01*
X12181189Y10755823D01*
X12128041Y10847878D01*
X12052878Y10923041D01*
X11960823Y10976189D01*
X11858148Y11003700D01*
X11751852Y11003700D01*
X11649177Y10976189D01*
X11649175Y10976188D01*
X11649174Y10976188D01*
X11557125Y10923043D01*
X11557119Y10923039D01*
X11542681Y10908600D01*
X11481358Y10875115D01*
X11411666Y10880099D01*
X11367319Y10908600D01*
X11352880Y10923039D01*
X11352878Y10923041D01*
X11260823Y10976189D01*
X11158148Y11003700D01*
X11051852Y11003700D01*
X10949177Y10976189D01*
X10949175Y10976188D01*
X10949174Y10976188D01*
X10857125Y10923043D01*
X10857119Y10923039D01*
X10781961Y10847881D01*
X10781957Y10847875D01*
X10728812Y10755826D01*
X10728812Y10755825D01*
X10728811Y10755823D01*
X10701300Y10653148D01*
X10701300Y10546852D01*
X10728811Y10444177D01*
X10781959Y10352122D01*
X10857122Y10276959D01*
X10949177Y10223811D01*
X11019395Y10204997D01*
X11079053Y10168634D01*
X11109583Y10105787D01*
X11111300Y10085223D01*
X11111300Y9563251D01*
X11127956Y9523041D01*
X11127957Y9523039D01*
X11149162Y9471843D01*
X11656949Y8964057D01*
X11656952Y8964053D01*
X11664019Y8956986D01*
X11664020Y8956985D01*
X13166153Y7454853D01*
X13363391Y7257614D01*
X13363394Y7257613D01*
X13373441Y7247566D01*
X13483738Y7183885D01*
X13483990Y7183818D01*
X13487593Y7181611D01*
X13510001Y7156855D01*
X13533043Y7132688D01*
X13533358Y7131049D01*
X13534480Y7129810D01*
X13539947Y7096862D01*
X13546265Y7064081D01*
X13545807Y7061546D01*
X13545918Y7060882D01*
X13545522Y7059965D01*
X13542607Y7043793D01*
X13519049Y6955822D01*
X13519048Y6955819D01*
X13519064Y6828460D01*
X13519064Y6828454D01*
X13552040Y6705444D01*
X13552043Y6705437D01*
X13615727Y6595152D01*
X13615728Y6595151D01*
X13615730Y6595148D01*
X13643898Y6566984D01*
X13650519Y6560364D01*
X13650524Y6560359D01*
X13831487Y6379395D01*
X13831878Y6379074D01*
X13833077Y6377875D01*
X13833081Y6377872D01*
X13833084Y6377869D01*
X13833086Y6377868D01*
X13943364Y6314189D01*
X13943365Y6314188D01*
X13960105Y6309701D01*
X14066370Y6281216D01*
X14193688Y6281203D01*
X14193716Y6281202D01*
X14193716Y6281203D01*
X14193718Y6281202D01*
X14281676Y6304757D01*
X14307701Y6304134D01*
X14333530Y6307390D01*
X14342065Y6303312D01*
X14351522Y6303085D01*
X14373078Y6288492D01*
X14396571Y6277265D01*
X14404986Y6266890D01*
X14409380Y6263915D01*
X14419217Y6250193D01*
X14421705Y6246169D01*
X14421792Y6245846D01*
X14485467Y6135544D01*
X14495515Y6125495D01*
X14495519Y6125486D01*
X14497644Y6123361D01*
X14542302Y6078703D01*
X14542304Y6078700D01*
X14542305Y6078700D01*
X14578937Y6042066D01*
X14578945Y6042061D01*
X15049981Y5571025D01*
X15083466Y5509702D01*
X15086300Y5483344D01*
X15086300Y4034378D01*
X15066615Y3967339D01*
X15049981Y3946697D01*
X14964164Y3860881D01*
X14964163Y3860880D01*
X14964163Y3860879D01*
X14956021Y3841221D01*
X14954738Y3838124D01*
X14926300Y3769473D01*
X14926300Y3724000D01*
X14923749Y3715315D01*
X14925038Y3706353D01*
X14914059Y3682313D01*
X14906615Y3656961D01*
X14899774Y3651034D01*
X14896013Y3642797D01*
X14873778Y3628508D01*
X14853811Y3611206D01*
X14843296Y3608919D01*
X14837235Y3605023D01*
X14802300Y3600000D01*
X14577700Y3600000D01*
X14510661Y3619685D01*
X14464906Y3672489D01*
X14453700Y3724000D01*
X14453700Y3883998D01*
X14453700Y3884000D01*
X14434707Y3954882D01*
X14398016Y4018434D01*
X14346126Y4070324D01*
X14346125Y4070325D01*
X13965019Y4451431D01*
X13931534Y4512754D01*
X13928700Y4539112D01*
X13928700Y5461690D01*
X13928700Y5461692D01*
X13909707Y5532574D01*
X13873016Y5596126D01*
X13821126Y5648016D01*
X13821125Y5648017D01*
X12196125Y7273016D01*
X10440019Y9029122D01*
X10406534Y9090445D01*
X10403700Y9116803D01*
X10403700Y12003306D01*
X10403701Y12003319D01*
X10403701Y12086693D01*
X10403700Y12086695D01*
X10384709Y12157568D01*
X10384707Y12157571D01*
X10384707Y12157574D01*
X10348016Y12221126D01*
X10296126Y12273016D01*
X10296125Y12273017D01*
X10291795Y12277347D01*
X10291784Y12277357D01*
X9890019Y12679122D01*
X9856534Y12740445D01*
X9853700Y12766803D01*
X9853700Y15206419D01*
X9873385Y15273458D01*
X9890019Y15294100D01*
X9898041Y15302122D01*
X9951189Y15394177D01*
X9978700Y15496852D01*
X9978700Y15603148D01*
X9951189Y15705823D01*
X9898041Y15797878D01*
X9822878Y15873041D01*
X9730823Y15926189D01*
X9628148Y15953700D01*
X9521852Y15953700D01*
X9419177Y15926189D01*
X9419175Y15926188D01*
X9419174Y15926188D01*
X9327125Y15873043D01*
X9327119Y15873039D01*
X9251961Y15797881D01*
X9251957Y15797875D01*
X9198812Y15705826D01*
X9198812Y15705825D01*
X9198811Y15705823D01*
X9171300Y15603148D01*
X9171300Y15496852D01*
X9198811Y15394177D01*
X9251959Y15302122D01*
X9251961Y15302120D01*
X9259981Y15294100D01*
X9293466Y15232777D01*
X9296300Y15206419D01*
X9296300Y13671174D01*
X9276615Y13604135D01*
X9223811Y13558380D01*
X9154653Y13548436D01*
X9091097Y13577461D01*
X9084619Y13583493D01*
X8902019Y13766093D01*
X8868534Y13827416D01*
X8865700Y13853774D01*
X8865700Y16044682D01*
X10426300Y16044682D01*
X10426300Y15695319D01*
X10426301Y15695302D01*
X10432793Y15645986D01*
X10432794Y15645985D01*
X10483273Y15537733D01*
X10573325Y15447681D01*
X10606810Y15386358D01*
X10601826Y15316666D01*
X10573325Y15272319D01*
X10483273Y15182268D01*
X10432794Y15074016D01*
X10432793Y15074015D01*
X10426301Y15024699D01*
X10426300Y15024682D01*
X10426300Y14675319D01*
X10426301Y14675302D01*
X10432793Y14625986D01*
X10432794Y14625985D01*
X10474124Y14537354D01*
X10483273Y14517733D01*
X10567733Y14433273D01*
X10675984Y14382795D01*
X10675985Y14382794D01*
X10685484Y14381544D01*
X10725312Y14376300D01*
X10725319Y14376300D01*
X11174681Y14376300D01*
X11174688Y14376300D01*
X11224014Y14382794D01*
X11332267Y14433273D01*
X11367319Y14468325D01*
X11428642Y14501810D01*
X11498334Y14496826D01*
X11542681Y14468325D01*
X11577733Y14433273D01*
X11685984Y14382795D01*
X11685985Y14382794D01*
X11695484Y14381544D01*
X11735312Y14376300D01*
X11735319Y14376300D01*
X12184681Y14376300D01*
X12184688Y14376300D01*
X12234014Y14382794D01*
X12342267Y14433273D01*
X12377319Y14468325D01*
X12438642Y14501810D01*
X12508334Y14496826D01*
X12552681Y14468325D01*
X12587733Y14433273D01*
X12695984Y14382795D01*
X12695985Y14382794D01*
X12705484Y14381544D01*
X12745312Y14376300D01*
X12745319Y14376300D01*
X13194681Y14376300D01*
X13194688Y14376300D01*
X13244014Y14382794D01*
X13352267Y14433273D01*
X13387319Y14468325D01*
X13448642Y14501810D01*
X13518334Y14496826D01*
X13562681Y14468325D01*
X13587733Y14443273D01*
X13695984Y14392795D01*
X13695985Y14392794D01*
X13705484Y14391544D01*
X13745312Y14386300D01*
X13745319Y14386300D01*
X14194681Y14386300D01*
X14194688Y14386300D01*
X14244014Y14392794D01*
X14352267Y14443273D01*
X14436727Y14527733D01*
X14487206Y14635986D01*
X14493700Y14685312D01*
X14493700Y15034688D01*
X14487206Y15084014D01*
X14436727Y15192267D01*
X14352267Y15276727D01*
X14349375Y15279619D01*
X14315890Y15340942D01*
X14320874Y15410634D01*
X14362746Y15466567D01*
X14428210Y15490984D01*
X14437056Y15491300D01*
X14731273Y15491300D01*
X14798312Y15471615D01*
X14818954Y15454981D01*
X14819821Y15454114D01*
X14929672Y15402890D01*
X14979728Y15396300D01*
X14979735Y15396300D01*
X15400265Y15396300D01*
X15400272Y15396300D01*
X15450328Y15402890D01*
X15560179Y15454114D01*
X15645886Y15539821D01*
X15663758Y15578148D01*
X17746300Y15578148D01*
X17746300Y15471852D01*
X17773811Y15369177D01*
X17773812Y15369176D01*
X17773812Y15369175D01*
X17790112Y15340942D01*
X17826959Y15277122D01*
X17902122Y15201959D01*
X17994177Y15148811D01*
X18096852Y15121300D01*
X18096854Y15121300D01*
X18203146Y15121300D01*
X18203148Y15121300D01*
X18305823Y15148811D01*
X18397878Y15201959D01*
X18473041Y15277122D01*
X18526189Y15369177D01*
X18553700Y15471852D01*
X18553700Y15578148D01*
X18526189Y15680823D01*
X18473041Y15772878D01*
X18397878Y15848041D01*
X18305823Y15901189D01*
X18203148Y15928700D01*
X18096852Y15928700D01*
X17994177Y15901189D01*
X17994175Y15901188D01*
X17994174Y15901188D01*
X17902125Y15848043D01*
X17902119Y15848039D01*
X17826961Y15772881D01*
X17826957Y15772875D01*
X17773812Y15680826D01*
X17773812Y15680825D01*
X17773811Y15680823D01*
X17746300Y15578148D01*
X15663758Y15578148D01*
X15683186Y15619811D01*
X15691985Y15638680D01*
X15695391Y15645986D01*
X15697110Y15649672D01*
X15703700Y15699728D01*
X15703700Y16060272D01*
X15697110Y16110328D01*
X15645886Y16220179D01*
X15560179Y16305886D01*
X15493013Y16337206D01*
X15450331Y16357109D01*
X15450329Y16357110D01*
X15450328Y16357110D01*
X15450325Y16357111D01*
X15450323Y16357111D01*
X15400282Y16363699D01*
X15400277Y16363700D01*
X15400272Y16363700D01*
X15029030Y16363700D01*
X14961991Y16383385D01*
X14916236Y16436189D01*
X14906292Y16505347D01*
X14921643Y16549700D01*
X14951709Y16601777D01*
X14976189Y16644177D01*
X15003700Y16746852D01*
X15003700Y16853148D01*
X14976189Y16955823D01*
X14923041Y17047878D01*
X14847878Y17123041D01*
X14755823Y17176189D01*
X14653148Y17203700D01*
X14546852Y17203700D01*
X14444177Y17176189D01*
X14444175Y17176188D01*
X14444174Y17176188D01*
X14352125Y17123043D01*
X14352119Y17123039D01*
X14276961Y17047881D01*
X14276957Y17047875D01*
X14223812Y16955826D01*
X14223812Y16955825D01*
X14223811Y16955823D01*
X14196300Y16853148D01*
X14196300Y16746852D01*
X14223811Y16644177D01*
X14223812Y16644176D01*
X14223812Y16644175D01*
X14281023Y16545083D01*
X14279593Y16544258D01*
X14301336Y16488024D01*
X14287302Y16419579D01*
X14238491Y16369586D01*
X14177767Y16353700D01*
X13745312Y16353700D01*
X13745306Y16353700D01*
X13745301Y16353699D01*
X13695985Y16347207D01*
X13695984Y16347206D01*
X13587732Y16296727D01*
X13576025Y16285019D01*
X13549097Y16270316D01*
X13523279Y16253723D01*
X13517078Y16252832D01*
X13514702Y16251534D01*
X13488344Y16248700D01*
X13441656Y16248700D01*
X13374617Y16268385D01*
X13353975Y16285019D01*
X13352267Y16286727D01*
X13244015Y16337206D01*
X13244014Y16337207D01*
X13194698Y16343699D01*
X13194693Y16343700D01*
X13194688Y16343700D01*
X12745312Y16343700D01*
X12745306Y16343700D01*
X12745301Y16343699D01*
X12695985Y16337207D01*
X12695984Y16337206D01*
X12587732Y16286727D01*
X12552680Y16251675D01*
X12544734Y16247337D01*
X12539310Y16240090D01*
X12514553Y16230857D01*
X12491357Y16218190D01*
X12482326Y16218837D01*
X12473846Y16215673D01*
X12448024Y16221291D01*
X12421665Y16223176D01*
X12412612Y16228994D01*
X12405573Y16230525D01*
X12377319Y16251676D01*
X12375019Y16253976D01*
X12341534Y16315299D01*
X12338700Y16341657D01*
X12338700Y16601777D01*
X12358385Y16668816D01*
X12375015Y16689454D01*
X13088708Y17403148D01*
X16846300Y17403148D01*
X16846300Y17296852D01*
X16873811Y17194177D01*
X16926959Y17102122D01*
X17002122Y17026959D01*
X17094177Y16973811D01*
X17196852Y16946300D01*
X17196854Y16946300D01*
X17303146Y16946300D01*
X17303148Y16946300D01*
X17405823Y16973811D01*
X17497878Y17026959D01*
X17573041Y17102122D01*
X17626189Y17194177D01*
X17653700Y17296852D01*
X17653700Y17403148D01*
X17626189Y17505823D01*
X17573041Y17597878D01*
X17497878Y17673041D01*
X17409942Y17723811D01*
X17405825Y17726188D01*
X17405824Y17726189D01*
X17405823Y17726189D01*
X17303148Y17753700D01*
X17196852Y17753700D01*
X17094177Y17726189D01*
X17094175Y17726188D01*
X17094174Y17726188D01*
X17002125Y17673043D01*
X17002119Y17673039D01*
X16926961Y17597881D01*
X16926957Y17597875D01*
X16873812Y17505826D01*
X16873812Y17505825D01*
X16873811Y17505823D01*
X16846300Y17403148D01*
X13088708Y17403148D01*
X13222317Y17536757D01*
X13222322Y17536760D01*
X13232525Y17546964D01*
X13232527Y17546964D01*
X13303036Y17617473D01*
X13352892Y17703827D01*
X13378700Y17800143D01*
X13378700Y18153148D01*
X17746300Y18153148D01*
X17746300Y18046852D01*
X17773811Y17944177D01*
X17826959Y17852122D01*
X17902122Y17776959D01*
X17994177Y17723811D01*
X18096852Y17696300D01*
X18096854Y17696300D01*
X18203146Y17696300D01*
X18203148Y17696300D01*
X18305823Y17723811D01*
X18397878Y17776959D01*
X18473041Y17852122D01*
X18526189Y17944177D01*
X18553700Y18046852D01*
X18553700Y18153148D01*
X18526189Y18255823D01*
X18473041Y18347878D01*
X18397878Y18423041D01*
X18305823Y18476189D01*
X18203148Y18503700D01*
X18096852Y18503700D01*
X17994177Y18476189D01*
X17994175Y18476188D01*
X17994174Y18476188D01*
X17902125Y18423043D01*
X17902119Y18423039D01*
X17826961Y18347881D01*
X17826957Y18347875D01*
X17773812Y18255826D01*
X17773812Y18255825D01*
X17773811Y18255823D01*
X17746300Y18153148D01*
X13378700Y18153148D01*
X13378700Y20437225D01*
X13382925Y20469318D01*
X13403700Y20546852D01*
X13403700Y20653148D01*
X13376189Y20755823D01*
X13352643Y20796605D01*
X13336171Y20864504D01*
X13359023Y20930531D01*
X13372350Y20946285D01*
X13372366Y20946301D01*
X13405886Y20979821D01*
X13457110Y21089672D01*
X13463700Y21139728D01*
X13463700Y21560266D01*
X14036300Y21560266D01*
X14036300Y21139735D01*
X14036301Y21139718D01*
X14042889Y21089677D01*
X14042891Y21089669D01*
X14094114Y20979821D01*
X14127650Y20946284D01*
X14161135Y20884961D01*
X14156149Y20815269D01*
X14147356Y20796605D01*
X14123811Y20755825D01*
X14109845Y20703700D01*
X14096300Y20653148D01*
X14096300Y20546852D01*
X14123811Y20444177D01*
X14176959Y20352122D01*
X14252122Y20276959D01*
X14344177Y20223811D01*
X14446852Y20196300D01*
X14446854Y20196300D01*
X14553146Y20196300D01*
X14553148Y20196300D01*
X14655823Y20223811D01*
X14747878Y20276959D01*
X14823041Y20352122D01*
X14876189Y20444177D01*
X14903700Y20546852D01*
X14903700Y20653148D01*
X14876189Y20755823D01*
X14874832Y20758174D01*
X14867284Y20771248D01*
X14850813Y20839148D01*
X14873666Y20905175D01*
X14886980Y20920916D01*
X14945886Y20979821D01*
X14997110Y21089672D01*
X15003700Y21139728D01*
X15003700Y21560272D01*
X14997110Y21610328D01*
X14945886Y21720179D01*
X14860179Y21805886D01*
X14809678Y21829435D01*
X14750331Y21857109D01*
X14750329Y21857110D01*
X14750328Y21857110D01*
X14750325Y21857111D01*
X14750323Y21857111D01*
X14700282Y21863699D01*
X14700277Y21863700D01*
X14700272Y21863700D01*
X14339728Y21863700D01*
X14339722Y21863700D01*
X14339717Y21863699D01*
X14289676Y21857111D01*
X14289668Y21857109D01*
X14179820Y21805886D01*
X14094114Y21720180D01*
X14042891Y21610332D01*
X14042889Y21610324D01*
X14036301Y21560283D01*
X14036300Y21560266D01*
X13463700Y21560266D01*
X13463700Y21560272D01*
X13457110Y21610328D01*
X13405886Y21720179D01*
X13320179Y21805886D01*
X13269678Y21829435D01*
X13210331Y21857109D01*
X13210329Y21857110D01*
X13210328Y21857110D01*
X13210325Y21857111D01*
X13210323Y21857111D01*
X13160282Y21863699D01*
X13160277Y21863700D01*
X13160272Y21863700D01*
X12799728Y21863700D01*
X12799722Y21863700D01*
X12799717Y21863699D01*
X12749676Y21857111D01*
X12749668Y21857109D01*
X12639820Y21805886D01*
X12554114Y21720180D01*
X12502891Y21610332D01*
X12502889Y21610324D01*
X12496301Y21560283D01*
X12496300Y21560266D01*
X12496300Y21139735D01*
X12496301Y21139718D01*
X12502889Y21089677D01*
X12502891Y21089669D01*
X12554114Y20979821D01*
X12613008Y20920927D01*
X12646493Y20859604D01*
X12641509Y20789912D01*
X12632717Y20771251D01*
X12623813Y20755828D01*
X12623811Y20755825D01*
X12623811Y20755823D01*
X12596300Y20653148D01*
X12596300Y20546853D01*
X12617075Y20469318D01*
X12621300Y20437225D01*
X12621300Y18058226D01*
X12601615Y17991187D01*
X12584981Y17970545D01*
X11656965Y17042529D01*
X11656963Y17042526D01*
X11607108Y16956174D01*
X11598505Y16924068D01*
X11581300Y16859857D01*
X11581300Y16859855D01*
X11581300Y16372700D01*
X11578749Y16364015D01*
X11580038Y16355053D01*
X11569059Y16331013D01*
X11561615Y16305661D01*
X11554774Y16299734D01*
X11551013Y16291497D01*
X11528778Y16277208D01*
X11508811Y16259906D01*
X11498296Y16257619D01*
X11492235Y16253723D01*
X11457300Y16248700D01*
X11421656Y16248700D01*
X11354617Y16268385D01*
X11333975Y16285019D01*
X11332267Y16286727D01*
X11224015Y16337206D01*
X11224014Y16337207D01*
X11174698Y16343699D01*
X11174693Y16343700D01*
X11174688Y16343700D01*
X10725312Y16343700D01*
X10725306Y16343700D01*
X10725301Y16343699D01*
X10675985Y16337207D01*
X10675984Y16337206D01*
X10567732Y16286727D01*
X10483273Y16202268D01*
X10432794Y16094016D01*
X10432793Y16094015D01*
X10426301Y16044699D01*
X10426300Y16044682D01*
X8865700Y16044682D01*
X8865700Y16368419D01*
X8885385Y16435458D01*
X8893418Y16445428D01*
X8893094Y16445676D01*
X8898032Y16452114D01*
X8898041Y16452122D01*
X8951189Y16544177D01*
X8978700Y16646852D01*
X8978700Y16753148D01*
X8951189Y16855823D01*
X8898041Y16947878D01*
X8822878Y17023041D01*
X8730823Y17076189D01*
X8628148Y17103700D01*
X8521852Y17103700D01*
X8521847Y17103700D01*
X8457867Y17086557D01*
X8388017Y17088221D01*
X8330156Y17127384D01*
X8318392Y17144328D01*
X8273041Y17222878D01*
X8197878Y17298041D01*
X8105823Y17351189D01*
X8003148Y17378700D01*
X7896852Y17378700D01*
X7866239Y17370498D01*
X7829518Y17360659D01*
X7759668Y17362324D01*
X7701806Y17401488D01*
X7690040Y17418435D01*
X7688569Y17420982D01*
X7673041Y17447878D01*
X7597878Y17523041D01*
X7505823Y17576189D01*
X7403148Y17603700D01*
X7296852Y17603700D01*
X7296849Y17603700D01*
X7285318Y17600610D01*
X7215468Y17602275D01*
X7157607Y17641440D01*
X7145842Y17658385D01*
X7123041Y17697878D01*
X7047878Y17773041D01*
X6955823Y17826189D01*
X6853148Y17853700D01*
X6746852Y17853700D01*
X6644177Y17826189D01*
X6644175Y17826188D01*
X6644174Y17826188D01*
X6552125Y17773043D01*
X6552119Y17773039D01*
X6476961Y17697881D01*
X6476957Y17697875D01*
X6423812Y17605826D01*
X6423812Y17605825D01*
X6423811Y17605823D01*
X6396300Y17503148D01*
X6396300Y17396852D01*
X6423811Y17294177D01*
X6476959Y17202122D01*
X6476963Y17202118D01*
X6481906Y17195676D01*
X6479627Y17193928D01*
X6506466Y17144777D01*
X6509300Y17118419D01*
X6509300Y16182087D01*
X6509300Y16105545D01*
X6529111Y16031610D01*
X6567382Y15965322D01*
X7164290Y15368414D01*
X7265977Y15266727D01*
X7341981Y15190724D01*
X7375466Y15129401D01*
X7378300Y15103043D01*
X7378300Y13963271D01*
X7378300Y13141225D01*
X7378300Y13064683D01*
X7398111Y12990748D01*
X7436381Y12924462D01*
X7436383Y12924459D01*
X7670981Y12689862D01*
X7704466Y12628539D01*
X7707300Y12602181D01*
X7707300Y11883995D01*
X7707300Y11807453D01*
X7718537Y11765516D01*
X7727111Y11733518D01*
X7765382Y11667230D01*
X7851743Y11580870D01*
X7851743Y11580869D01*
X8166981Y11265631D01*
X8200466Y11204308D01*
X8203300Y11177950D01*
X8203300Y9638271D01*
X8203300Y8292179D01*
X8203300Y8215637D01*
X8223111Y8141702D01*
X8253140Y8089689D01*
X8261381Y8075416D01*
X8261383Y8075413D01*
X9272152Y7064644D01*
X9305637Y7003321D01*
X9300653Y6933629D01*
X9258781Y6877696D01*
X9216568Y6857189D01*
X9194176Y6851189D01*
X9194174Y6851188D01*
X9102125Y6798043D01*
X9102119Y6798039D01*
X9026961Y6722881D01*
X9026957Y6722875D01*
X8973812Y6630826D01*
X8973812Y6630825D01*
X8973811Y6630823D01*
X8946300Y6528148D01*
X8946300Y6421852D01*
X8973811Y6319177D01*
X9026959Y6227122D01*
X9026961Y6227120D01*
X9048831Y6205250D01*
X9082316Y6143927D01*
X9077332Y6074235D01*
X9035460Y6018302D01*
X9023151Y6010183D01*
X9002128Y5998046D01*
X9002119Y5998039D01*
X8926961Y5922881D01*
X8926957Y5922875D01*
X8873812Y5830826D01*
X8873812Y5830825D01*
X8873811Y5830823D01*
X8846300Y5728148D01*
X8846300Y5621852D01*
X8873811Y5519177D01*
X8926959Y5427122D01*
X9002122Y5351959D01*
X9094177Y5298811D01*
X9196852Y5271300D01*
X9196854Y5271300D01*
X9303146Y5271300D01*
X9303148Y5271300D01*
X9405823Y5298811D01*
X9456085Y5327831D01*
X9523981Y5344303D01*
X9590008Y5321452D01*
X9605764Y5308124D01*
X9847981Y5065907D01*
X9881466Y5004584D01*
X9884300Y4978226D01*
X9884300Y3724000D01*
X9864615Y3656961D01*
X9811811Y3611206D01*
X9760300Y3600000D01*
X9365212Y3600000D01*
X9298173Y3619685D01*
X9262109Y3655110D01*
X9260872Y3656961D01*
X9249464Y3674035D01*
X9249462Y3674038D01*
X9124038Y3799462D01*
X9124034Y3799465D01*
X8976553Y3898010D01*
X8976540Y3898017D01*
X8812667Y3965894D01*
X8812658Y3965897D01*
X8638694Y4000500D01*
X8638691Y4000500D01*
X8597595Y4000500D01*
X8550000Y4000500D01*
X8461309Y4000500D01*
X8461306Y4000500D01*
X8287341Y3965897D01*
X8287332Y3965894D01*
X8123459Y3898017D01*
X8123446Y3898010D01*
X7975965Y3799465D01*
X7975961Y3799462D01*
X7850537Y3674038D01*
X7841271Y3660171D01*
X7839128Y3656961D01*
X7837891Y3655110D01*
X7784279Y3610305D01*
X7734788Y3600000D01*
X6377700Y3600000D01*
X6310661Y3619685D01*
X6264906Y3672489D01*
X6253700Y3724000D01*
X6253700Y4043273D01*
X6253699Y4043277D01*
X6244338Y4078211D01*
X6231299Y4126873D01*
X6230244Y4128700D01*
X6188025Y4201827D01*
X5901827Y4488025D01*
X5101827Y5288025D01*
X5101826Y5288026D01*
X5026873Y5331299D01*
X5026868Y5331301D01*
X5015671Y5334301D01*
X5015670Y5334301D01*
X4977836Y5344439D01*
X4918176Y5380804D01*
X4887648Y5443651D01*
X4890155Y5496304D01*
X4903700Y5546852D01*
X4903700Y5653148D01*
X4876189Y5755823D01*
X4823041Y5847878D01*
X4747878Y5923041D01*
X4686508Y5958473D01*
X4655825Y5976188D01*
X4655823Y5976189D01*
X4640756Y5980226D01*
X4581097Y6016589D01*
X4550567Y6079435D01*
X4558861Y6148811D01*
X4603346Y6202690D01*
X4640755Y6219774D01*
X4655823Y6223811D01*
X4747878Y6276959D01*
X4823041Y6352122D01*
X4876189Y6444177D01*
X4903700Y6546852D01*
X4903700Y6653148D01*
X4876189Y6755823D01*
X4823041Y6847878D01*
X4747878Y6923041D01*
X4655823Y6976189D01*
X4553148Y7003700D01*
X4446852Y7003700D01*
X4344177Y6976189D01*
X4344175Y6976188D01*
X4344174Y6976188D01*
X4252125Y6923043D01*
X4252119Y6923039D01*
X4176961Y6847881D01*
X4176957Y6847875D01*
X4123812Y6755826D01*
X4123812Y6755825D01*
X4123811Y6755823D01*
X4119774Y6740757D01*
X4083410Y6681097D01*
X4020563Y6650568D01*
X3951188Y6658863D01*
X3897310Y6703348D01*
X3880226Y6740756D01*
X3876189Y6755823D01*
X3823041Y6847878D01*
X3747878Y6923041D01*
X3655823Y6976189D01*
X3553148Y7003700D01*
X3446852Y7003700D01*
X3344177Y6976189D01*
X3344175Y6976188D01*
X3344174Y6976188D01*
X3252125Y6923043D01*
X3252119Y6923039D01*
X3176961Y6847881D01*
X3176957Y6847875D01*
X3123812Y6755826D01*
X3123812Y6755825D01*
X3123811Y6755823D01*
X3096300Y6653148D01*
X3096300Y6546852D01*
X3123811Y6444177D01*
X3154687Y6390698D01*
X3171300Y6328699D01*
X3171300Y5871303D01*
X3154688Y5809304D01*
X3123809Y5755821D01*
X3096300Y5653150D01*
X3096300Y5653148D01*
X3096300Y5546852D01*
X3123811Y5444177D01*
X3154687Y5390698D01*
X3168394Y5339544D01*
X3170239Y5339786D01*
X3171299Y5331729D01*
X3171300Y5331726D01*
X3189997Y5261949D01*
X3193263Y5249759D01*
X3193702Y5248123D01*
X3236972Y5173177D01*
X3236976Y5173172D01*
X3648174Y4761974D01*
X3700286Y4731888D01*
X3748502Y4681321D01*
X3761726Y4612714D01*
X3735758Y4547849D01*
X3678845Y4507320D01*
X3638287Y4500500D01*
X659756Y4500500D01*
X640360Y4502027D01*
X620091Y4505237D01*
X607749Y4507192D01*
X570853Y4519180D01*
X550234Y4529686D01*
X518848Y4552490D01*
X502489Y4568849D01*
X479685Y4600235D01*
X469179Y4620854D01*
X457192Y4657747D01*
X452025Y4690370D01*
X450500Y4709756D01*
X450500Y9818189D01*
X470185Y9885228D01*
X522989Y9930983D01*
X592147Y9940927D01*
X655703Y9911902D01*
X681886Y9880190D01*
X726959Y9802122D01*
X802122Y9726959D01*
X894177Y9673811D01*
X996852Y9646300D01*
X996854Y9646300D01*
X1103146Y9646300D01*
X1103148Y9646300D01*
X1205823Y9673811D01*
X1297878Y9726959D01*
X1373041Y9802122D01*
X1426189Y9894177D01*
X1453700Y9996852D01*
X1453700Y10103148D01*
X1426189Y10205823D01*
X1373041Y10297878D01*
X1297878Y10373041D01*
X1205823Y10426189D01*
X1103148Y10453700D01*
X996852Y10453700D01*
X894177Y10426189D01*
X894175Y10426188D01*
X894174Y10426188D01*
X802125Y10373043D01*
X802119Y10373039D01*
X726961Y10297881D01*
X726959Y10297878D01*
X681887Y10219811D01*
X631320Y10171596D01*
X562712Y10158374D01*
X497848Y10184342D01*
X457320Y10241256D01*
X450500Y10281812D01*
X450500Y12005997D01*
X470185Y12073036D01*
X522989Y12118791D01*
X592147Y12128735D01*
X655703Y12099710D01*
X662181Y12093678D01*
X1222643Y11533216D01*
X1222653Y11533205D01*
X1278875Y11476983D01*
X1318492Y11454111D01*
X1318491Y11454111D01*
X1325413Y11450115D01*
X1342426Y11440293D01*
X1342429Y11440292D01*
X1342432Y11440291D01*
X1389680Y11427631D01*
X1413308Y11421299D01*
X1494288Y11421299D01*
X1494304Y11421300D01*
X2131419Y11421300D01*
X2198458Y11401615D01*
X2219100Y11384981D01*
X2227122Y11376959D01*
X2319177Y11323811D01*
X2421852Y11296300D01*
X2421854Y11296300D01*
X2528146Y11296300D01*
X2528148Y11296300D01*
X2630823Y11323811D01*
X2722878Y11376959D01*
X2798041Y11452122D01*
X2851189Y11544177D01*
X2878700Y11646852D01*
X2878700Y11753148D01*
X2851189Y11855823D01*
X2798041Y11947878D01*
X2722878Y12023041D01*
X2630823Y12076189D01*
X2528148Y12103700D01*
X2421852Y12103700D01*
X2319177Y12076189D01*
X2319175Y12076188D01*
X2319174Y12076188D01*
X2227125Y12023043D01*
X2227119Y12023039D01*
X2219100Y12015019D01*
X2157777Y11981534D01*
X2131419Y11978700D01*
X1616803Y11978700D01*
X1549764Y11998385D01*
X1529122Y12015019D01*
X1064019Y12480122D01*
X1030534Y12541445D01*
X1027700Y12567803D01*
X1027700Y23653148D01*
X2096300Y23653148D01*
X2096300Y23546852D01*
X2123811Y23444177D01*
X2176959Y23352122D01*
X2252122Y23276959D01*
X2344177Y23223811D01*
X2446852Y23196300D01*
X2446854Y23196300D01*
X2553146Y23196300D01*
X2553148Y23196300D01*
X2655823Y23223811D01*
X2747878Y23276959D01*
X2823041Y23352122D01*
X2876189Y23444177D01*
X2903700Y23546852D01*
X2903700Y23653148D01*
X2876189Y23755823D01*
X2823041Y23847878D01*
X2747878Y23923041D01*
X2655823Y23976189D01*
X2553148Y24003700D01*
X2446852Y24003700D01*
X2344177Y23976189D01*
X2344175Y23976188D01*
X2344174Y23976188D01*
X2252125Y23923043D01*
X2252119Y23923039D01*
X2176961Y23847881D01*
X2176957Y23847875D01*
X2123812Y23755826D01*
X2123812Y23755825D01*
X2123811Y23755823D01*
X2096300Y23653148D01*
X1027700Y23653148D01*
X1027700Y30951424D01*
X5212400Y30951424D01*
X5212400Y15748577D01*
X5231655Y15676714D01*
X5268855Y15612284D01*
X6201081Y14680059D01*
X6234566Y14618736D01*
X6237400Y14592378D01*
X6237400Y9387169D01*
X6217715Y9320130D01*
X6175400Y9279782D01*
X6077125Y9223043D01*
X6077119Y9223039D01*
X6001961Y9147881D01*
X6001957Y9147875D01*
X5948812Y9055826D01*
X5948812Y9055825D01*
X5948811Y9055823D01*
X5921300Y8953148D01*
X5921300Y8846852D01*
X5948811Y8744177D01*
X6001959Y8652122D01*
X6077122Y8576959D01*
X6169177Y8523811D01*
X6271852Y8496300D01*
X6271854Y8496300D01*
X6378146Y8496300D01*
X6378148Y8496300D01*
X6480823Y8523811D01*
X6572878Y8576959D01*
X6587319Y8591400D01*
X6648642Y8624885D01*
X6718334Y8619901D01*
X6762681Y8591400D01*
X6777122Y8576959D01*
X6869177Y8523811D01*
X6971852Y8496300D01*
X6971854Y8496300D01*
X7078146Y8496300D01*
X7078148Y8496300D01*
X7180823Y8523811D01*
X7272878Y8576959D01*
X7348041Y8652122D01*
X7401189Y8744177D01*
X7428700Y8846852D01*
X7428700Y8953148D01*
X7401189Y9055823D01*
X7348041Y9147878D01*
X7272878Y9223041D01*
X7180823Y9276189D01*
X7174600Y9279782D01*
X7126384Y9330349D01*
X7112600Y9387169D01*
X7112600Y14926420D01*
X7112599Y14926424D01*
X7093345Y14998283D01*
X7093345Y14998284D01*
X7093345Y14998285D01*
X7056146Y15062714D01*
X7056144Y15062716D01*
X7056143Y15062718D01*
X6123919Y15994942D01*
X6090434Y16056265D01*
X6087600Y16082623D01*
X6087600Y21353148D01*
X7596300Y21353148D01*
X7596300Y21246852D01*
X7623811Y21144177D01*
X7623812Y21144176D01*
X7623812Y21144175D01*
X7626380Y21139728D01*
X7676959Y21052122D01*
X7752122Y20976959D01*
X7844177Y20923811D01*
X7946852Y20896300D01*
X7946854Y20896300D01*
X8053146Y20896300D01*
X8053148Y20896300D01*
X8155823Y20923811D01*
X8247878Y20976959D01*
X8323041Y21052122D01*
X8376189Y21144177D01*
X8403700Y21246852D01*
X8403700Y21353148D01*
X8376189Y21455823D01*
X8323041Y21547878D01*
X8247878Y21623041D01*
X8161279Y21673039D01*
X8155825Y21676188D01*
X8155824Y21676189D01*
X8155823Y21676189D01*
X8053148Y21703700D01*
X7946852Y21703700D01*
X7844177Y21676189D01*
X7844175Y21676188D01*
X7844174Y21676188D01*
X7752125Y21623043D01*
X7752119Y21623039D01*
X7676961Y21547881D01*
X7676957Y21547875D01*
X7623812Y21455826D01*
X7623812Y21455825D01*
X7623811Y21455823D01*
X7596300Y21353148D01*
X6087600Y21353148D01*
X6087600Y23953148D01*
X7596300Y23953148D01*
X7596300Y23846852D01*
X7623811Y23744177D01*
X7676959Y23652122D01*
X7752122Y23576959D01*
X7844177Y23523811D01*
X7946852Y23496300D01*
X7946854Y23496300D01*
X8053146Y23496300D01*
X8053148Y23496300D01*
X8155823Y23523811D01*
X8247878Y23576959D01*
X8323041Y23652122D01*
X8376189Y23744177D01*
X8403700Y23846852D01*
X8403700Y23953148D01*
X8376189Y24055823D01*
X8323041Y24147878D01*
X8247878Y24223041D01*
X8155823Y24276189D01*
X8053148Y24303700D01*
X7946852Y24303700D01*
X7844177Y24276189D01*
X7844175Y24276188D01*
X7844174Y24276188D01*
X7752125Y24223043D01*
X7752119Y24223039D01*
X7676961Y24147881D01*
X7676957Y24147875D01*
X7623812Y24055826D01*
X7623812Y24055825D01*
X7623811Y24055823D01*
X7596300Y23953148D01*
X6087600Y23953148D01*
X6087600Y25428148D01*
X6846300Y25428148D01*
X6846300Y25321852D01*
X6873811Y25219177D01*
X6926959Y25127122D01*
X7002122Y25051959D01*
X7094177Y24998811D01*
X7196852Y24971300D01*
X7196854Y24971300D01*
X7303146Y24971300D01*
X7303148Y24971300D01*
X7405823Y24998811D01*
X7497878Y25051959D01*
X7573041Y25127122D01*
X7626189Y25219177D01*
X7653700Y25321852D01*
X7653700Y25428148D01*
X7626189Y25530823D01*
X7573041Y25622878D01*
X7497878Y25698041D01*
X7405823Y25751189D01*
X7303148Y25778700D01*
X7196852Y25778700D01*
X7094177Y25751189D01*
X7094175Y25751188D01*
X7094174Y25751188D01*
X7002125Y25698043D01*
X7002119Y25698039D01*
X6926961Y25622881D01*
X6926957Y25622875D01*
X6873812Y25530826D01*
X6873812Y25530825D01*
X6873811Y25530823D01*
X6846300Y25428148D01*
X6087600Y25428148D01*
X6087600Y30617378D01*
X6107285Y30684417D01*
X6123919Y30705059D01*
X6594862Y31176002D01*
X15591300Y31176002D01*
X15591300Y29023993D01*
X15596069Y28979638D01*
X15606689Y28930823D01*
X15607276Y28928125D01*
X15609802Y28917788D01*
X15653481Y28835819D01*
X15699236Y28783015D01*
X15699243Y28783008D01*
X15699251Y28782999D01*
X15717098Y28764785D01*
X15717105Y28764779D01*
X15757631Y28742111D01*
X15798162Y28719439D01*
X15865201Y28699754D01*
X15865205Y28699754D01*
X15865207Y28699753D01*
X15874708Y28698388D01*
X15924000Y28691300D01*
X15924003Y28691300D01*
X17875991Y28691300D01*
X17876000Y28691300D01*
X17920364Y28696070D01*
X17971875Y28707276D01*
X17982212Y28709802D01*
X18064181Y28753481D01*
X18116985Y28799236D01*
X18135218Y28817101D01*
X18141397Y28828148D01*
X21271300Y28828148D01*
X21271300Y28721852D01*
X21298811Y28619177D01*
X21351959Y28527122D01*
X21427122Y28451959D01*
X21519177Y28398811D01*
X21621852Y28371300D01*
X21621854Y28371300D01*
X21728146Y28371300D01*
X21728148Y28371300D01*
X21830823Y28398811D01*
X21922878Y28451959D01*
X21998041Y28527122D01*
X22051189Y28619177D01*
X22078700Y28721852D01*
X22078700Y28828148D01*
X22051189Y28930823D01*
X21998041Y29022878D01*
X21922878Y29098041D01*
X21830823Y29151189D01*
X21728148Y29178700D01*
X21621852Y29178700D01*
X21519177Y29151189D01*
X21519175Y29151188D01*
X21519174Y29151188D01*
X21427125Y29098043D01*
X21427119Y29098039D01*
X21351961Y29022881D01*
X21351957Y29022875D01*
X21298812Y28930826D01*
X21298812Y28930825D01*
X21298811Y28930823D01*
X21271300Y28828148D01*
X18141397Y28828148D01*
X18180561Y28898162D01*
X18200246Y28965201D01*
X18208700Y29024000D01*
X18208700Y30953148D01*
X19796300Y30953148D01*
X19796300Y30846852D01*
X19823811Y30744177D01*
X19876959Y30652122D01*
X19876961Y30652120D01*
X19941400Y30587681D01*
X19974885Y30526358D01*
X19969901Y30456666D01*
X19941400Y30412319D01*
X19876961Y30347881D01*
X19876957Y30347875D01*
X19823812Y30255826D01*
X19823812Y30255825D01*
X19823811Y30255823D01*
X19796300Y30153148D01*
X19796300Y30046852D01*
X19823811Y29944177D01*
X19876959Y29852122D01*
X19876961Y29852120D01*
X19941400Y29787681D01*
X19974885Y29726358D01*
X19969901Y29656666D01*
X19941400Y29612319D01*
X19876961Y29547881D01*
X19876957Y29547875D01*
X19823812Y29455826D01*
X19823812Y29455825D01*
X19823811Y29455823D01*
X19796300Y29353148D01*
X19796300Y29246852D01*
X19823811Y29144177D01*
X19876959Y29052122D01*
X19952122Y28976959D01*
X20044177Y28923811D01*
X20146852Y28896300D01*
X20146854Y28896300D01*
X20253146Y28896300D01*
X20253148Y28896300D01*
X20355823Y28923811D01*
X20447878Y28976959D01*
X20523041Y29052122D01*
X20576189Y29144177D01*
X20603700Y29246852D01*
X20603700Y29353148D01*
X20576189Y29455823D01*
X20523041Y29547878D01*
X20458600Y29612319D01*
X20425115Y29673642D01*
X20430099Y29743334D01*
X20458600Y29787681D01*
X20523041Y29852122D01*
X20576189Y29944177D01*
X20603700Y30046852D01*
X20603700Y30153148D01*
X20576189Y30255823D01*
X20523041Y30347878D01*
X20458600Y30412319D01*
X20425115Y30473642D01*
X20430099Y30543334D01*
X20458600Y30587681D01*
X20488297Y30617378D01*
X20523041Y30652122D01*
X20576189Y30744177D01*
X20603700Y30846852D01*
X20603700Y30953148D01*
X20576189Y31055823D01*
X20523041Y31147878D01*
X20447878Y31223041D01*
X20355823Y31276189D01*
X20253148Y31303700D01*
X20146852Y31303700D01*
X20044177Y31276189D01*
X20044175Y31276188D01*
X20044174Y31276188D01*
X19952125Y31223043D01*
X19952119Y31223039D01*
X19876961Y31147881D01*
X19876957Y31147875D01*
X19823812Y31055826D01*
X19823812Y31055825D01*
X19823811Y31055823D01*
X19796300Y30953148D01*
X18208700Y30953148D01*
X18208700Y31176000D01*
X18203930Y31220364D01*
X18192724Y31271875D01*
X18190198Y31282212D01*
X18146519Y31364181D01*
X18100764Y31416985D01*
X18100755Y31416994D01*
X18100748Y31417002D01*
X18082901Y31435216D01*
X18082894Y31435222D01*
X18018948Y31470990D01*
X18001838Y31480561D01*
X17976843Y31487901D01*
X17934800Y31500246D01*
X17934792Y31500248D01*
X17876001Y31508700D01*
X17876000Y31508700D01*
X15924000Y31508700D01*
X15923992Y31508700D01*
X15879637Y31503931D01*
X15828118Y31492723D01*
X15820432Y31490845D01*
X15817788Y31490198D01*
X15776803Y31468359D01*
X15735818Y31446519D01*
X15683018Y31400767D01*
X15682998Y31400749D01*
X15664784Y31382902D01*
X15664778Y31382895D01*
X15619441Y31301842D01*
X15619438Y31301835D01*
X15599754Y31234801D01*
X15599752Y31234793D01*
X15591300Y31176002D01*
X6594862Y31176002D01*
X6686970Y31268110D01*
X6927560Y31508700D01*
X10431146Y35012286D01*
X10468345Y35076716D01*
X10487600Y35148578D01*
X10487600Y35222974D01*
X10487600Y37317378D01*
X10507285Y37384417D01*
X10523919Y37405059D01*
X13473659Y40354799D01*
X13473661Y40354801D01*
X13510860Y40419230D01*
X13530115Y40491093D01*
X13530115Y40565489D01*
X13530115Y42221299D01*
X13549800Y42288338D01*
X13602604Y42334093D01*
X13622005Y42341069D01*
X13650215Y42348627D01*
X13747971Y42405067D01*
X13827788Y42484884D01*
X13884228Y42582640D01*
X13913443Y42691673D01*
X13913443Y42804551D01*
X13884228Y42913584D01*
X13827788Y43011340D01*
X13747971Y43091157D01*
X13699093Y43119377D01*
X13650216Y43147597D01*
X13595698Y43162205D01*
X13541182Y43176812D01*
X13428304Y43176812D01*
X13319269Y43147597D01*
X13221515Y43091157D01*
X13221511Y43091154D01*
X13173726Y43043369D01*
X13112403Y43009885D01*
X13042711Y43014870D01*
X12998365Y43043370D01*
X12939243Y43102492D01*
X12939241Y43102494D01*
X12890363Y43130714D01*
X12841486Y43158934D01*
X12786968Y43173542D01*
X12732452Y43188149D01*
X12619574Y43188149D01*
X12510539Y43158934D01*
X12412785Y43102494D01*
X12412782Y43102492D01*
X12332970Y43022680D01*
X12332968Y43022677D01*
X12276528Y42924923D01*
X12247313Y42815888D01*
X12247313Y42703010D01*
X12250351Y42691673D01*
X12276528Y42593976D01*
X12303263Y42547671D01*
X12332968Y42496221D01*
X12412785Y42416404D01*
X12510541Y42359964D01*
X12510540Y42359964D01*
X12523606Y42356464D01*
X12563008Y42345906D01*
X12622667Y42309544D01*
X12653198Y42246697D01*
X12654915Y42226132D01*
X12654915Y40825138D01*
X12635230Y40758099D01*
X12618596Y40737457D01*
X9668856Y37787718D01*
X9631654Y37723283D01*
X9612400Y37651424D01*
X9612400Y35482623D01*
X9592715Y35415584D01*
X9576081Y35394942D01*
X5268856Y31087718D01*
X5231654Y31023283D01*
X5212400Y30951424D01*
X1027700Y30951424D01*
X1027700Y43236692D01*
X2421300Y43236692D01*
X2421300Y37638308D01*
X2440293Y37567426D01*
X2476983Y37503875D01*
X2535939Y37444919D01*
X2535945Y37444914D01*
X4597643Y35383216D01*
X4597653Y35383205D01*
X4601983Y35378875D01*
X4601984Y35378874D01*
X4653874Y35326984D01*
X4717426Y35290293D01*
X4717429Y35290293D01*
X4717432Y35290291D01*
X4764680Y35277631D01*
X4788308Y35271299D01*
X4869288Y35271299D01*
X4869304Y35271300D01*
X6086419Y35271300D01*
X6153458Y35251615D01*
X6174100Y35234981D01*
X6182122Y35226959D01*
X6274177Y35173811D01*
X6376852Y35146300D01*
X6376854Y35146300D01*
X6483146Y35146300D01*
X6483148Y35146300D01*
X6585823Y35173811D01*
X6677878Y35226959D01*
X6753041Y35302122D01*
X6806189Y35394177D01*
X6833700Y35496852D01*
X6833700Y35603148D01*
X6806189Y35705823D01*
X6753041Y35797878D01*
X6677878Y35873041D01*
X6585823Y35926189D01*
X6483148Y35953700D01*
X6376852Y35953700D01*
X6274177Y35926189D01*
X6274175Y35926188D01*
X6274174Y35926188D01*
X6182125Y35873043D01*
X6182119Y35873039D01*
X6174100Y35865019D01*
X6112777Y35831534D01*
X6086419Y35828700D01*
X4991803Y35828700D01*
X4924764Y35848385D01*
X4904122Y35865019D01*
X3690993Y37078148D01*
X6746300Y37078148D01*
X6746300Y36971852D01*
X6773811Y36869177D01*
X6826959Y36777122D01*
X6902122Y36701959D01*
X6994177Y36648811D01*
X7096852Y36621300D01*
X7096854Y36621300D01*
X7203146Y36621300D01*
X7203148Y36621300D01*
X7305823Y36648811D01*
X7397878Y36701959D01*
X7473041Y36777122D01*
X7526189Y36869177D01*
X7553700Y36971852D01*
X7553700Y37078148D01*
X7526189Y37180823D01*
X7473041Y37272878D01*
X7397878Y37348041D01*
X7305823Y37401189D01*
X7203148Y37428700D01*
X7096852Y37428700D01*
X6994177Y37401189D01*
X6994175Y37401188D01*
X6994174Y37401188D01*
X6902125Y37348043D01*
X6902119Y37348039D01*
X6826961Y37272881D01*
X6826957Y37272875D01*
X6773812Y37180826D01*
X6773812Y37180825D01*
X6773811Y37180823D01*
X6746300Y37078148D01*
X3690993Y37078148D01*
X3015019Y37754122D01*
X2981534Y37815445D01*
X2978700Y37841803D01*
X2978700Y42497877D01*
X2998385Y42564916D01*
X3051189Y42610671D01*
X3120347Y42620615D01*
X3164695Y42605266D01*
X3219177Y42573811D01*
X3321852Y42546300D01*
X3321854Y42546300D01*
X3428146Y42546300D01*
X3428148Y42546300D01*
X3530823Y42573811D01*
X3622878Y42626959D01*
X3698041Y42702122D01*
X3729518Y42756642D01*
X6990492Y42756642D01*
X6990492Y42650346D01*
X7018003Y42547671D01*
X7018004Y42547670D01*
X7018004Y42547669D01*
X7035719Y42516986D01*
X7071151Y42455616D01*
X7146314Y42380453D01*
X7238369Y42327305D01*
X7341044Y42299794D01*
X7341046Y42299794D01*
X7447338Y42299794D01*
X7447340Y42299794D01*
X7550015Y42327305D01*
X7642070Y42380453D01*
X7717233Y42455616D01*
X7770381Y42547671D01*
X7797892Y42650346D01*
X7797892Y42756642D01*
X7770381Y42859317D01*
X7717233Y42951372D01*
X7642070Y43026535D01*
X7550015Y43079683D01*
X7447340Y43107194D01*
X7341044Y43107194D01*
X7238369Y43079683D01*
X7238367Y43079682D01*
X7238366Y43079682D01*
X7146317Y43026537D01*
X7146311Y43026533D01*
X7071153Y42951375D01*
X7071149Y42951369D01*
X7018004Y42859320D01*
X7018004Y42859319D01*
X7018003Y42859317D01*
X6990492Y42756642D01*
X3729518Y42756642D01*
X3751189Y42794177D01*
X3778700Y42896852D01*
X3778700Y43003148D01*
X3751189Y43105823D01*
X3698041Y43197878D01*
X3696785Y43199134D01*
X3696065Y43200452D01*
X3693094Y43204324D01*
X3693697Y43204788D01*
X3663300Y43260457D01*
X3668284Y43330149D01*
X3710156Y43386082D01*
X3724179Y43394063D01*
X3723784Y43394747D01*
X3730823Y43398811D01*
X3822878Y43451959D01*
X3898041Y43527122D01*
X3951189Y43619177D01*
X3978700Y43721852D01*
X3978700Y43828148D01*
X3951189Y43930823D01*
X3898041Y44022878D01*
X3822878Y44098041D01*
X3730823Y44151189D01*
X3730822Y44151190D01*
X3724026Y44155113D01*
X3675810Y44205680D01*
X3662587Y44274287D01*
X3688555Y44339152D01*
X3724026Y44369887D01*
X3730821Y44373811D01*
X3730823Y44373811D01*
X3822878Y44426959D01*
X3898041Y44502122D01*
X3951189Y44594177D01*
X3978700Y44696852D01*
X3978700Y44803148D01*
X3951189Y44905823D01*
X3898041Y44997878D01*
X3822878Y45073041D01*
X3730823Y45126189D01*
X3715756Y45130226D01*
X3656097Y45166589D01*
X3625567Y45229435D01*
X3633861Y45298811D01*
X3678346Y45352690D01*
X3715755Y45369774D01*
X3730823Y45373811D01*
X3822878Y45426959D01*
X3898041Y45502122D01*
X3951189Y45594177D01*
X3978700Y45696852D01*
X3978700Y45803148D01*
X3951189Y45905823D01*
X3898041Y45997878D01*
X3822878Y46073041D01*
X3730825Y46126188D01*
X3730826Y46126188D01*
X3730823Y46126189D01*
X3656604Y46146076D01*
X3596945Y46182440D01*
X3566416Y46245287D01*
X3574711Y46314663D01*
X3619196Y46368541D01*
X3656603Y46385624D01*
X3705823Y46398811D01*
X3797878Y46451959D01*
X3873041Y46527122D01*
X3926189Y46619177D01*
X3953700Y46721852D01*
X3953700Y46828148D01*
X3926189Y46930823D01*
X3873041Y47022878D01*
X3797878Y47098041D01*
X3723526Y47140968D01*
X3705825Y47151188D01*
X3705824Y47151189D01*
X3705823Y47151189D01*
X3656605Y47164377D01*
X3596945Y47200741D01*
X3566416Y47263588D01*
X3574711Y47332964D01*
X3619196Y47386841D01*
X3656603Y47403925D01*
X3730823Y47423811D01*
X3822878Y47476959D01*
X3898041Y47552122D01*
X3951189Y47644177D01*
X3978700Y47746852D01*
X3978700Y47853148D01*
X3951189Y47955823D01*
X3936622Y47981054D01*
X4920512Y47981054D01*
X4920512Y47560523D01*
X4920513Y47560506D01*
X4927101Y47510465D01*
X4927103Y47510457D01*
X4978326Y47400609D01*
X5020466Y47358469D01*
X5053951Y47297146D01*
X5048967Y47227454D01*
X5020466Y47183107D01*
X4978326Y47140968D01*
X4927103Y47031120D01*
X4927101Y47031112D01*
X4920513Y46981071D01*
X4920512Y46981054D01*
X4920512Y46560523D01*
X4920513Y46560506D01*
X4927101Y46510465D01*
X4927103Y46510457D01*
X4978326Y46400609D01*
X5010466Y46368468D01*
X5043951Y46307145D01*
X5038965Y46237453D01*
X5010467Y46193108D01*
X4983325Y46165967D01*
X4932103Y46056120D01*
X4932101Y46056112D01*
X4925513Y46006071D01*
X4925512Y46006054D01*
X4925512Y45585523D01*
X4925513Y45585506D01*
X4932101Y45535465D01*
X4932103Y45535457D01*
X4983326Y45425609D01*
X5010466Y45398469D01*
X5043951Y45337146D01*
X5038967Y45267454D01*
X5010466Y45223107D01*
X4978326Y45190968D01*
X4927103Y45081120D01*
X4927101Y45081112D01*
X4920513Y45031071D01*
X4920512Y45031054D01*
X4920512Y44610523D01*
X4920513Y44610506D01*
X4927101Y44560465D01*
X4927103Y44560457D01*
X4978326Y44450609D01*
X5007966Y44420969D01*
X5041451Y44359646D01*
X5036467Y44289954D01*
X5007966Y44245607D01*
X4978326Y44215968D01*
X4927103Y44106120D01*
X4927101Y44106112D01*
X4920513Y44056071D01*
X4920512Y44056060D01*
X4920512Y43635516D01*
X4927102Y43585460D01*
X4978326Y43475609D01*
X5064033Y43389902D01*
X5173884Y43338678D01*
X5223940Y43332088D01*
X5223947Y43332088D01*
X5584477Y43332088D01*
X5584484Y43332088D01*
X5634540Y43338678D01*
X5744391Y43389902D01*
X5830098Y43475609D01*
X5881322Y43585460D01*
X5887912Y43635516D01*
X5887912Y44056060D01*
X5881322Y44106116D01*
X5830098Y44215967D01*
X5800458Y44245607D01*
X5766973Y44306930D01*
X5771957Y44376622D01*
X5800458Y44420969D01*
X5806451Y44426962D01*
X5830098Y44450609D01*
X5881322Y44560460D01*
X5887912Y44610516D01*
X5887912Y45031060D01*
X5881322Y45081116D01*
X5830098Y45190967D01*
X5802958Y45218107D01*
X5769473Y45279430D01*
X5774457Y45349122D01*
X5802958Y45393469D01*
X5807958Y45398469D01*
X5835098Y45425609D01*
X5886322Y45535460D01*
X5892912Y45585516D01*
X5892912Y46006060D01*
X5886322Y46056116D01*
X5835098Y46165967D01*
X5802958Y46198107D01*
X5769473Y46259430D01*
X5774457Y46329122D01*
X5802958Y46373469D01*
X5815114Y46385625D01*
X5830098Y46400609D01*
X5881322Y46510460D01*
X5887912Y46560516D01*
X5887912Y46981060D01*
X5881322Y47031116D01*
X5830098Y47140967D01*
X5787958Y47183107D01*
X5754473Y47244430D01*
X5759457Y47314122D01*
X5787958Y47358469D01*
X5803750Y47374261D01*
X5830098Y47400609D01*
X5881322Y47510460D01*
X5887912Y47560516D01*
X5887912Y47821054D01*
X10165512Y47821054D01*
X10165512Y47460523D01*
X10165513Y47460506D01*
X10172101Y47410465D01*
X10172103Y47410457D01*
X10208239Y47332964D01*
X10223326Y47300609D01*
X10309033Y47214902D01*
X10418884Y47163678D01*
X10468940Y47157088D01*
X10468947Y47157088D01*
X10889477Y47157088D01*
X10889484Y47157088D01*
X10939540Y47163678D01*
X11049391Y47214902D01*
X11135098Y47300609D01*
X11186322Y47410460D01*
X11192912Y47460516D01*
X11192912Y47498936D01*
X11475512Y47498936D01*
X11475512Y47392640D01*
X11503023Y47289965D01*
X11503024Y47289964D01*
X11503024Y47289963D01*
X11505592Y47285516D01*
X11556171Y47197910D01*
X11631334Y47122747D01*
X11723389Y47069599D01*
X11826064Y47042088D01*
X11826066Y47042088D01*
X11932358Y47042088D01*
X11932360Y47042088D01*
X12035035Y47069599D01*
X12127090Y47122747D01*
X12127098Y47122756D01*
X12133536Y47127694D01*
X12134462Y47126487D01*
X12187781Y47155600D01*
X12257473Y47150616D01*
X12301820Y47122115D01*
X12384033Y47039902D01*
X12493884Y46988678D01*
X12543940Y46982088D01*
X12543947Y46982088D01*
X12964477Y46982088D01*
X12964484Y46982088D01*
X13014540Y46988678D01*
X13124391Y47039902D01*
X13210098Y47125609D01*
X13261322Y47235460D01*
X13267912Y47285516D01*
X13267912Y47646054D01*
X13565512Y47646054D01*
X13565512Y47285523D01*
X13565513Y47285506D01*
X13572101Y47235465D01*
X13572103Y47235457D01*
X13594158Y47188160D01*
X13623326Y47125609D01*
X13709033Y47039902D01*
X13818884Y46988678D01*
X13868940Y46982088D01*
X13868947Y46982088D01*
X14289477Y46982088D01*
X14289484Y46982088D01*
X14339540Y46988678D01*
X14449391Y47039902D01*
X14535098Y47125609D01*
X14586322Y47235460D01*
X14592912Y47285516D01*
X14592912Y47571054D01*
X16365512Y47571054D01*
X16365512Y47210523D01*
X16365513Y47210506D01*
X16372101Y47160465D01*
X16372103Y47160457D01*
X16389688Y47122746D01*
X16423326Y47050609D01*
X16509033Y46964902D01*
X16618884Y46913678D01*
X16668940Y46907088D01*
X16668947Y46907088D01*
X17089477Y46907088D01*
X17089484Y46907088D01*
X17139540Y46913678D01*
X17249391Y46964902D01*
X17335098Y47050609D01*
X17386322Y47160460D01*
X17392912Y47210516D01*
X17392912Y47571060D01*
X17386322Y47621116D01*
X17335098Y47730967D01*
X17249391Y47816674D01*
X17179021Y47849488D01*
X17139543Y47867897D01*
X17139541Y47867898D01*
X17139540Y47867898D01*
X17139537Y47867899D01*
X17139535Y47867899D01*
X17089494Y47874487D01*
X17089489Y47874488D01*
X17089484Y47874488D01*
X16668940Y47874488D01*
X16668934Y47874488D01*
X16668929Y47874487D01*
X16618888Y47867899D01*
X16618880Y47867897D01*
X16509032Y47816674D01*
X16423326Y47730968D01*
X16372103Y47621120D01*
X16372101Y47621112D01*
X16365513Y47571071D01*
X16365512Y47571054D01*
X14592912Y47571054D01*
X14592912Y47646060D01*
X14586322Y47696116D01*
X14535098Y47805967D01*
X14449391Y47891674D01*
X14339543Y47942897D01*
X14339541Y47942898D01*
X14339540Y47942898D01*
X14339537Y47942899D01*
X14339535Y47942899D01*
X14289494Y47949487D01*
X14289489Y47949488D01*
X14289484Y47949488D01*
X13868940Y47949488D01*
X13868934Y47949488D01*
X13868929Y47949487D01*
X13818888Y47942899D01*
X13818880Y47942897D01*
X13709032Y47891674D01*
X13623326Y47805968D01*
X13572103Y47696120D01*
X13572101Y47696112D01*
X13565513Y47646071D01*
X13565512Y47646054D01*
X13267912Y47646054D01*
X13267912Y47646060D01*
X13261322Y47696116D01*
X13210098Y47805967D01*
X13124391Y47891674D01*
X13014543Y47942897D01*
X13014541Y47942898D01*
X13014540Y47942898D01*
X13014537Y47942899D01*
X13014535Y47942899D01*
X12964494Y47949487D01*
X12964489Y47949488D01*
X12964484Y47949488D01*
X12543940Y47949488D01*
X12543934Y47949488D01*
X12543929Y47949487D01*
X12493888Y47942899D01*
X12493880Y47942897D01*
X12384032Y47891674D01*
X12298325Y47805967D01*
X12295680Y47802189D01*
X12241100Y47758567D01*
X12171602Y47751378D01*
X12132109Y47765931D01*
X12127086Y47768831D01*
X12036634Y47821054D01*
X12035037Y47821976D01*
X12035036Y47821977D01*
X12035035Y47821977D01*
X11932360Y47849488D01*
X11826064Y47849488D01*
X11723389Y47821977D01*
X11723387Y47821976D01*
X11723386Y47821976D01*
X11631337Y47768831D01*
X11631331Y47768827D01*
X11556173Y47693669D01*
X11556169Y47693663D01*
X11503024Y47601614D01*
X11503024Y47601613D01*
X11503023Y47601611D01*
X11475512Y47498936D01*
X11192912Y47498936D01*
X11192912Y47821060D01*
X11186322Y47871116D01*
X11135098Y47980967D01*
X11049391Y48066674D01*
X10939543Y48117897D01*
X10939541Y48117898D01*
X10939540Y48117898D01*
X10939537Y48117899D01*
X10939535Y48117899D01*
X10889494Y48124487D01*
X10889489Y48124488D01*
X10889484Y48124488D01*
X10468940Y48124488D01*
X10468934Y48124488D01*
X10468929Y48124487D01*
X10418888Y48117899D01*
X10418880Y48117897D01*
X10309032Y48066674D01*
X10223326Y47980968D01*
X10172103Y47871120D01*
X10172101Y47871112D01*
X10165513Y47821071D01*
X10165512Y47821054D01*
X5887912Y47821054D01*
X5887912Y47981060D01*
X5881322Y48031116D01*
X5830098Y48140967D01*
X5790458Y48180607D01*
X5756973Y48241930D01*
X5761957Y48311622D01*
X5790458Y48355969D01*
X5805789Y48371300D01*
X5835098Y48400609D01*
X5886322Y48510460D01*
X5892912Y48560516D01*
X5892912Y48981060D01*
X5886322Y49031116D01*
X5835098Y49140967D01*
X5815458Y49160607D01*
X5781973Y49221930D01*
X5786957Y49291622D01*
X5815458Y49335969D01*
X5825789Y49346300D01*
X5855098Y49375609D01*
X5904267Y49481054D01*
X18105512Y49481054D01*
X18105512Y49060523D01*
X18105513Y49060506D01*
X18110467Y49022875D01*
X18112102Y49010460D01*
X18163326Y48900609D01*
X18249033Y48814902D01*
X18358884Y48763678D01*
X18408940Y48757088D01*
X18408947Y48757088D01*
X18769477Y48757088D01*
X18769484Y48757088D01*
X18819540Y48763678D01*
X18929391Y48814902D01*
X19015098Y48900609D01*
X19066322Y49010460D01*
X19072912Y49060516D01*
X19072912Y49155319D01*
X19082912Y49192640D01*
X19082912Y49298936D01*
X19072912Y49336258D01*
X19072912Y49481060D01*
X19066322Y49531116D01*
X19015098Y49640967D01*
X18929391Y49726674D01*
X18819543Y49777897D01*
X18819541Y49777898D01*
X18819540Y49777898D01*
X18819537Y49777899D01*
X18819535Y49777899D01*
X18769494Y49784487D01*
X18769489Y49784488D01*
X18769484Y49784488D01*
X18408940Y49784488D01*
X18408934Y49784488D01*
X18408929Y49784487D01*
X18358888Y49777899D01*
X18358880Y49777897D01*
X18249032Y49726674D01*
X18163326Y49640968D01*
X18112103Y49531120D01*
X18112101Y49531112D01*
X18105513Y49481071D01*
X18105512Y49481054D01*
X5904267Y49481054D01*
X5906322Y49485460D01*
X5912912Y49535516D01*
X5912912Y49956060D01*
X5906322Y50006116D01*
X5855098Y50115967D01*
X5825458Y50145607D01*
X5791973Y50206930D01*
X5796957Y50276622D01*
X5825458Y50320969D01*
X5825789Y50321300D01*
X5855098Y50350609D01*
X5906322Y50460460D01*
X5912912Y50510516D01*
X5912912Y50931060D01*
X5906322Y50981116D01*
X5855098Y51090967D01*
X5769391Y51176674D01*
X5706385Y51206054D01*
X5659543Y51227897D01*
X5659541Y51227898D01*
X5659540Y51227898D01*
X5659537Y51227899D01*
X5659535Y51227899D01*
X5609494Y51234487D01*
X5609489Y51234488D01*
X5609484Y51234488D01*
X5248940Y51234488D01*
X5248934Y51234488D01*
X5248929Y51234487D01*
X5198888Y51227899D01*
X5198880Y51227897D01*
X5089032Y51176674D01*
X5003326Y51090968D01*
X4952103Y50981120D01*
X4952101Y50981112D01*
X4945513Y50931071D01*
X4945512Y50931054D01*
X4945512Y50510523D01*
X4945513Y50510506D01*
X4952101Y50460465D01*
X4952103Y50460457D01*
X5003326Y50350609D01*
X5032966Y50320969D01*
X5066451Y50259646D01*
X5061467Y50189954D01*
X5032966Y50145607D01*
X5003326Y50115968D01*
X4952103Y50006120D01*
X4952101Y50006112D01*
X4945513Y49956071D01*
X4945512Y49956054D01*
X4945512Y49535523D01*
X4945513Y49535506D01*
X4952101Y49485465D01*
X4952103Y49485457D01*
X5003325Y49375610D01*
X5022967Y49355968D01*
X5056451Y49294644D01*
X5051465Y49224952D01*
X5022966Y49180608D01*
X4983326Y49140968D01*
X4932103Y49031120D01*
X4932101Y49031112D01*
X4925513Y48981071D01*
X4925512Y48981054D01*
X4925512Y48560523D01*
X4925513Y48560506D01*
X4932101Y48510465D01*
X4932103Y48510457D01*
X4983326Y48400609D01*
X5022966Y48360969D01*
X5056451Y48299646D01*
X5051467Y48229954D01*
X5022966Y48185607D01*
X4978326Y48140968D01*
X4927103Y48031120D01*
X4927101Y48031112D01*
X4920513Y47981071D01*
X4920512Y47981054D01*
X3936622Y47981054D01*
X3898041Y48047878D01*
X3822878Y48123041D01*
X3730823Y48176189D01*
X3730822Y48176190D01*
X3724026Y48180113D01*
X3675810Y48230680D01*
X3662587Y48299287D01*
X3688555Y48364152D01*
X3724026Y48394887D01*
X3730821Y48398811D01*
X3730823Y48398811D01*
X3822878Y48451959D01*
X3898041Y48527122D01*
X3951189Y48619177D01*
X3978700Y48721852D01*
X3978700Y48828148D01*
X3951189Y48930823D01*
X3898041Y49022878D01*
X3822878Y49098041D01*
X3742560Y49144413D01*
X3694346Y49194979D01*
X3681124Y49263587D01*
X3707092Y49328451D01*
X3764006Y49368979D01*
X3772446Y49371567D01*
X3780823Y49373811D01*
X3872878Y49426959D01*
X3948041Y49502122D01*
X4001189Y49594177D01*
X4028700Y49696852D01*
X4028700Y49803148D01*
X4001189Y49905823D01*
X3948041Y49997878D01*
X3872878Y50073041D01*
X3792560Y50119413D01*
X3744346Y50169979D01*
X3731124Y50238587D01*
X3757092Y50303451D01*
X3814006Y50343979D01*
X3822446Y50346567D01*
X3830823Y50348811D01*
X3922878Y50401959D01*
X3998041Y50477122D01*
X4051189Y50569177D01*
X4078700Y50671852D01*
X4078700Y50778148D01*
X4051189Y50880823D01*
X3998041Y50972878D01*
X3922878Y51048041D01*
X3830823Y51101189D01*
X3728148Y51128700D01*
X3621852Y51128700D01*
X3519177Y51101189D01*
X3519175Y51101188D01*
X3519174Y51101188D01*
X3427125Y51048043D01*
X3427119Y51048039D01*
X3351961Y50972881D01*
X3351957Y50972875D01*
X3298812Y50880826D01*
X3298812Y50880825D01*
X3298811Y50880823D01*
X3271300Y50778148D01*
X3271300Y50671852D01*
X3298811Y50569177D01*
X3351959Y50477122D01*
X3427122Y50401959D01*
X3498226Y50360908D01*
X3507437Y50355589D01*
X3555653Y50305022D01*
X3568876Y50236415D01*
X3542907Y50171550D01*
X3485993Y50131022D01*
X3477533Y50128428D01*
X3469177Y50126190D01*
X3469174Y50126188D01*
X3377125Y50073043D01*
X3377119Y50073039D01*
X3301961Y49997881D01*
X3301957Y49997875D01*
X3248812Y49905826D01*
X3248812Y49905825D01*
X3248811Y49905823D01*
X3221300Y49803148D01*
X3221300Y49696852D01*
X3248811Y49594177D01*
X3301959Y49502122D01*
X3377122Y49426959D01*
X3448226Y49385908D01*
X3457437Y49380589D01*
X3505653Y49330022D01*
X3518876Y49261415D01*
X3492907Y49196550D01*
X3435993Y49156022D01*
X3427533Y49153428D01*
X3419177Y49151190D01*
X3419174Y49151188D01*
X3327125Y49098043D01*
X3327119Y49098039D01*
X3251961Y49022881D01*
X3251957Y49022875D01*
X3198812Y48930826D01*
X3198812Y48930825D01*
X3198811Y48930823D01*
X3171300Y48828148D01*
X3171300Y48721852D01*
X3198811Y48619177D01*
X3251959Y48527122D01*
X3327122Y48451959D01*
X3395515Y48412473D01*
X3425973Y48394887D01*
X3474189Y48344320D01*
X3487411Y48275713D01*
X3461443Y48210848D01*
X3425973Y48180113D01*
X3327125Y48123043D01*
X3327119Y48123039D01*
X3251961Y48047881D01*
X3251957Y48047875D01*
X3198812Y47955826D01*
X3198812Y47955825D01*
X3198811Y47955823D01*
X3171300Y47853148D01*
X3171300Y47746852D01*
X3198811Y47644177D01*
X3251959Y47552122D01*
X3327122Y47476959D01*
X3419177Y47423811D01*
X3468394Y47410624D01*
X3528053Y47374261D01*
X3558583Y47311414D01*
X3550289Y47242039D01*
X3505804Y47188160D01*
X3468393Y47171075D01*
X3394177Y47151189D01*
X3394176Y47151189D01*
X3394174Y47151188D01*
X3302125Y47098043D01*
X3302119Y47098039D01*
X3226961Y47022881D01*
X3226957Y47022875D01*
X3173812Y46930826D01*
X3173812Y46930825D01*
X3173811Y46930823D01*
X3146300Y46828148D01*
X3146300Y46721852D01*
X3173811Y46619177D01*
X3226959Y46527122D01*
X3302122Y46451959D01*
X3394177Y46398811D01*
X3468394Y46378925D01*
X3528053Y46342561D01*
X3558583Y46279715D01*
X3550289Y46210339D01*
X3505804Y46156461D01*
X3468395Y46139377D01*
X3419177Y46126189D01*
X3419176Y46126189D01*
X3419174Y46126188D01*
X3327125Y46073043D01*
X3327119Y46073039D01*
X3251961Y45997881D01*
X3251957Y45997875D01*
X3198812Y45905826D01*
X3198812Y45905825D01*
X3198811Y45905823D01*
X3171300Y45803148D01*
X3171300Y45696852D01*
X3198811Y45594177D01*
X3251959Y45502122D01*
X3327122Y45426959D01*
X3419177Y45373811D01*
X3434243Y45369775D01*
X3493903Y45333410D01*
X3524432Y45270563D01*
X3516137Y45201188D01*
X3471652Y45147310D01*
X3434244Y45130227D01*
X3419177Y45126189D01*
X3419175Y45126188D01*
X3419174Y45126188D01*
X3327125Y45073043D01*
X3327119Y45073039D01*
X3251961Y44997881D01*
X3251957Y44997875D01*
X3198812Y44905826D01*
X3198812Y44905825D01*
X3198811Y44905823D01*
X3171300Y44803148D01*
X3171300Y44696852D01*
X3198811Y44594177D01*
X3251959Y44502122D01*
X3327122Y44426959D01*
X3395515Y44387473D01*
X3425973Y44369887D01*
X3428172Y44367581D01*
X3431228Y44366676D01*
X3452117Y44342468D01*
X3474189Y44319320D01*
X3474792Y44316191D01*
X3476874Y44313778D01*
X3481360Y44282111D01*
X3487411Y44250713D01*
X3486226Y44247756D01*
X3486674Y44244599D01*
X3473327Y44215534D01*
X3461443Y44185848D01*
X3458448Y44183132D01*
X3457517Y44181103D01*
X3443299Y44169389D01*
X3430796Y44158046D01*
X3420726Y44151605D01*
X3419177Y44151189D01*
X3327122Y44098041D01*
X3309581Y44080501D01*
X3298243Y44073247D01*
X3277102Y44067088D01*
X3257778Y44056535D01*
X3246295Y44055301D01*
X3246366Y44054762D01*
X3238305Y44053701D01*
X3167432Y44034710D01*
X3167425Y44034707D01*
X3103874Y43998017D01*
X2476983Y43371126D01*
X2440293Y43307575D01*
X2440293Y43307574D01*
X2421300Y43236692D01*
X1027700Y43236692D01*
X1027700Y52156054D01*
X10210512Y52156054D01*
X10210512Y51735523D01*
X10210513Y51735506D01*
X10217101Y51685465D01*
X10217103Y51685457D01*
X10268326Y51575609D01*
X10285466Y51558469D01*
X10318951Y51497146D01*
X10313967Y51427454D01*
X10285466Y51383107D01*
X10268326Y51365968D01*
X10217103Y51256120D01*
X10217101Y51256112D01*
X10210513Y51206071D01*
X10210512Y51206054D01*
X10210512Y50785523D01*
X10210513Y50785506D01*
X10214254Y50757088D01*
X10217102Y50735460D01*
X10268326Y50625609D01*
X10354033Y50539902D01*
X10463884Y50488678D01*
X10513940Y50482088D01*
X10513947Y50482088D01*
X10874477Y50482088D01*
X10874484Y50482088D01*
X10924540Y50488678D01*
X11034391Y50539902D01*
X11120098Y50625609D01*
X11171322Y50735460D01*
X11177912Y50785516D01*
X11177912Y51206060D01*
X11171322Y51256116D01*
X11120098Y51365967D01*
X11102958Y51383107D01*
X11098619Y51391053D01*
X11091372Y51396478D01*
X11082137Y51421238D01*
X11069473Y51444430D01*
X11070118Y51453460D01*
X11066955Y51461942D01*
X11071112Y51481054D01*
X18250512Y51481054D01*
X18250512Y51060523D01*
X18250513Y51060506D01*
X18257101Y51010465D01*
X18257103Y51010457D01*
X18294129Y50931054D01*
X18308326Y50900609D01*
X18394033Y50814902D01*
X18503884Y50763678D01*
X18553940Y50757088D01*
X18553947Y50757088D01*
X18914477Y50757088D01*
X18914484Y50757088D01*
X18964540Y50763678D01*
X19074391Y50814902D01*
X19160098Y50900609D01*
X19211322Y51010460D01*
X19217912Y51060516D01*
X19217912Y51481060D01*
X19211322Y51531116D01*
X19160098Y51640967D01*
X19074391Y51726674D01*
X19055414Y51735523D01*
X18964543Y51777897D01*
X18964541Y51777898D01*
X18964540Y51777898D01*
X18964537Y51777899D01*
X18964535Y51777899D01*
X18914494Y51784487D01*
X18914489Y51784488D01*
X18914484Y51784488D01*
X18553940Y51784488D01*
X18553934Y51784488D01*
X18553929Y51784487D01*
X18503888Y51777899D01*
X18503880Y51777897D01*
X18394032Y51726674D01*
X18308326Y51640968D01*
X18257103Y51531120D01*
X18257101Y51531112D01*
X18250513Y51481071D01*
X18250512Y51481054D01*
X11071112Y51481054D01*
X11072571Y51487763D01*
X11074457Y51514122D01*
X11080275Y51523176D01*
X11081807Y51530215D01*
X11102958Y51558469D01*
X11117289Y51572800D01*
X11120098Y51575609D01*
X11171322Y51685460D01*
X11177912Y51735516D01*
X11177912Y52156060D01*
X11171322Y52206116D01*
X11120098Y52315967D01*
X11034391Y52401674D01*
X10924543Y52452897D01*
X10924541Y52452898D01*
X10924540Y52452898D01*
X10924537Y52452899D01*
X10924535Y52452899D01*
X10874494Y52459487D01*
X10874489Y52459488D01*
X10874484Y52459488D01*
X10513940Y52459488D01*
X10513934Y52459488D01*
X10513929Y52459487D01*
X10463888Y52452899D01*
X10463880Y52452897D01*
X10354032Y52401674D01*
X10268326Y52315968D01*
X10217103Y52206120D01*
X10217101Y52206112D01*
X10210513Y52156071D01*
X10210512Y52156054D01*
X1027700Y52156054D01*
X1027700Y53456060D01*
X18250512Y53456060D01*
X18250512Y53035516D01*
X18257102Y52985460D01*
X18308326Y52875609D01*
X18394033Y52789902D01*
X18503884Y52738678D01*
X18553940Y52732088D01*
X18553947Y52732088D01*
X18914477Y52732088D01*
X18914484Y52732088D01*
X18964540Y52738678D01*
X19074391Y52789902D01*
X19160098Y52875609D01*
X19211322Y52985460D01*
X19217912Y53035516D01*
X19217912Y53456060D01*
X19211322Y53506116D01*
X19160098Y53615967D01*
X19074391Y53701674D01*
X18964543Y53752897D01*
X18964541Y53752898D01*
X18964540Y53752898D01*
X18964537Y53752899D01*
X18964535Y53752899D01*
X18914494Y53759487D01*
X18914489Y53759488D01*
X18914484Y53759488D01*
X18553940Y53759488D01*
X18553934Y53759488D01*
X18553929Y53759487D01*
X18503888Y53752899D01*
X18503880Y53752897D01*
X18394032Y53701674D01*
X18308326Y53615968D01*
X18257103Y53506120D01*
X18257102Y53506116D01*
X18250512Y53456060D01*
X1027700Y53456060D01*
X1027700Y54836723D01*
X1047385Y54903762D01*
X1100189Y54949517D01*
X1169347Y54959461D01*
X1183787Y54956500D01*
X1221852Y54946300D01*
X1221854Y54946300D01*
X1328146Y54946300D01*
X1328148Y54946300D01*
X1430823Y54973811D01*
X1522878Y55026959D01*
X1530900Y55034981D01*
X1592223Y55068466D01*
X1618581Y55071300D01*
X3246999Y55071300D01*
X3308997Y55054689D01*
X3319177Y55048811D01*
X3421852Y55021300D01*
X3421854Y55021300D01*
X3528146Y55021300D01*
X3528148Y55021300D01*
X3630823Y55048811D01*
X3722878Y55101959D01*
X3798041Y55177122D01*
X3851189Y55269177D01*
X3878700Y55371852D01*
X3878700Y55478148D01*
X3851189Y55580823D01*
X3798041Y55672878D01*
X3722878Y55748041D01*
X3630823Y55801189D01*
X3552313Y55822226D01*
X3552311Y55822226D01*
X3528149Y55828700D01*
X3528148Y55828700D01*
X3421852Y55828700D01*
X3319177Y55801189D01*
X3319175Y55801188D01*
X3319174Y55801188D01*
X3227125Y55748043D01*
X3227119Y55748039D01*
X3146212Y55667131D01*
X3144215Y55669128D01*
X3098844Y55636006D01*
X3056910Y55628700D01*
X1618581Y55628700D01*
X1611479Y55630786D01*
X1604184Y55629539D01*
X1578411Y55640496D01*
X1551542Y55648385D01*
X1546695Y55653978D01*
X1539883Y55656874D01*
X1530900Y55665019D01*
X1522880Y55673039D01*
X1522878Y55673041D01*
X1430823Y55726189D01*
X1328148Y55753700D01*
X1328147Y55753700D01*
X1320298Y55755803D01*
X1321115Y55758854D01*
X1270808Y55781145D01*
X1232372Y55839493D01*
X1231583Y55909358D01*
X1268691Y55968559D01*
X1318855Y55995544D01*
X1321677Y55996300D01*
X1321681Y55996300D01*
X1424356Y56023811D01*
X1516411Y56076959D01*
X1524433Y56084981D01*
X1542466Y56094829D01*
X1557639Y56108694D01*
X1572514Y56111236D01*
X1585756Y56118466D01*
X1612114Y56121300D01*
X3506419Y56121300D01*
X3573458Y56101615D01*
X3594100Y56084981D01*
X3602122Y56076959D01*
X3694177Y56023811D01*
X3796852Y55996300D01*
X3796855Y55996300D01*
X3903146Y55996300D01*
X3903148Y55996300D01*
X4005823Y56023811D01*
X4097878Y56076959D01*
X4173041Y56152122D01*
X4226189Y56244177D01*
X4253700Y56346852D01*
X4253700Y56453148D01*
X4226189Y56555823D01*
X4173041Y56647878D01*
X4097878Y56723041D01*
X4005823Y56776189D01*
X3903148Y56803700D01*
X3796852Y56803700D01*
X3694177Y56776189D01*
X3694175Y56776188D01*
X3694174Y56776188D01*
X3602125Y56723043D01*
X3602119Y56723039D01*
X3594100Y56715019D01*
X3532777Y56681534D01*
X3506419Y56678700D01*
X1612114Y56678700D01*
X1545075Y56698385D01*
X1524433Y56715019D01*
X1516413Y56723039D01*
X1516411Y56723041D01*
X1424356Y56776189D01*
X1321681Y56803700D01*
X1215385Y56803700D01*
X1215383Y56803700D01*
X1183789Y56795235D01*
X1113940Y56796900D01*
X1056078Y56836065D01*
X1028576Y56900294D01*
X1027700Y56915011D01*
X1027700Y59488272D01*
X1047385Y59555311D01*
X1100189Y59601066D01*
X1169347Y59611010D01*
X1232903Y59581985D01*
X1259086Y59550273D01*
X1275431Y59521963D01*
X1350594Y59446800D01*
X1442649Y59393652D01*
X1545324Y59366141D01*
X1545326Y59366141D01*
X1651618Y59366141D01*
X1651620Y59366141D01*
X1754295Y59393652D01*
X1846350Y59446800D01*
X1846350Y59446801D01*
X1853389Y59450864D01*
X1854286Y59449310D01*
X1910051Y59470870D01*
X1920371Y59471300D01*
X4381419Y59471300D01*
X4448458Y59451615D01*
X4469100Y59434981D01*
X4502122Y59401959D01*
X4594177Y59348811D01*
X4696852Y59321300D01*
X4696854Y59321300D01*
X4803146Y59321300D01*
X4803148Y59321300D01*
X4905823Y59348811D01*
X4997878Y59401959D01*
X5073041Y59477122D01*
X5126189Y59569177D01*
X5153700Y59671852D01*
X5153700Y59778148D01*
X5126189Y59880823D01*
X5073041Y59972878D01*
X4997878Y60048041D01*
X4996100Y60049819D01*
X4962615Y60111142D01*
X4967599Y60180834D01*
X4996100Y60225181D01*
X5048041Y60277122D01*
X5101189Y60369177D01*
X5128700Y60471852D01*
X5128700Y60578148D01*
X5101189Y60680823D01*
X5048041Y60772878D01*
X4972878Y60848041D01*
X4880823Y60901189D01*
X4778148Y60928700D01*
X4671852Y60928700D01*
X4569177Y60901189D01*
X4569175Y60901188D01*
X4569174Y60901188D01*
X4477125Y60848043D01*
X4477119Y60848039D01*
X4401961Y60772881D01*
X4401957Y60772875D01*
X4368947Y60715700D01*
X4318380Y60667484D01*
X4261560Y60653700D01*
X3168581Y60653700D01*
X3101542Y60673385D01*
X3080900Y60690019D01*
X3072880Y60698039D01*
X3072878Y60698041D01*
X2980823Y60751189D01*
X2878148Y60778700D01*
X2771852Y60778700D01*
X2669177Y60751189D01*
X2669175Y60751188D01*
X2669174Y60751188D01*
X2577125Y60698043D01*
X2577119Y60698039D01*
X2501961Y60622881D01*
X2501957Y60622875D01*
X2448812Y60530826D01*
X2448812Y60530825D01*
X2448811Y60530823D01*
X2421300Y60428148D01*
X2421300Y60321853D01*
X2448811Y60219176D01*
X2451395Y60214702D01*
X2467869Y60146802D01*
X2445018Y60080774D01*
X2390097Y60037583D01*
X2344009Y60028700D01*
X1961894Y60028700D01*
X1894855Y60048385D01*
X1874213Y60065019D01*
X1846352Y60092880D01*
X1846350Y60092882D01*
X1784918Y60128350D01*
X1754297Y60146029D01*
X1754296Y60146030D01*
X1754295Y60146030D01*
X1651620Y60173541D01*
X1545324Y60173541D01*
X1442649Y60146030D01*
X1442647Y60146029D01*
X1442646Y60146029D01*
X1350597Y60092884D01*
X1350591Y60092880D01*
X1275433Y60017722D01*
X1275431Y60017719D01*
X1259087Y59989410D01*
X1208519Y59941195D01*
X1139912Y59927973D01*
X1075047Y59953941D01*
X1034520Y60010856D01*
X1027700Y60051411D01*
X1027700Y61978148D01*
X1446300Y61978148D01*
X1446300Y61871852D01*
X1473811Y61769177D01*
X1526959Y61677122D01*
X1602122Y61601959D01*
X1694177Y61548811D01*
X1796852Y61521300D01*
X1796854Y61521300D01*
X1903146Y61521300D01*
X1903148Y61521300D01*
X2005823Y61548811D01*
X2097878Y61601959D01*
X2173041Y61677122D01*
X2226189Y61769177D01*
X2253700Y61871852D01*
X2253700Y61978148D01*
X2226189Y62080823D01*
X2173041Y62172878D01*
X2097878Y62248041D01*
X2005823Y62301189D01*
X1903148Y62328700D01*
X1796852Y62328700D01*
X1694177Y62301189D01*
X1694175Y62301188D01*
X1694174Y62301188D01*
X1602125Y62248043D01*
X1602119Y62248039D01*
X1526961Y62172881D01*
X1526957Y62172875D01*
X1473812Y62080826D01*
X1473812Y62080825D01*
X1473811Y62080823D01*
X1446300Y61978148D01*
X1027700Y61978148D01*
X1027700Y63233479D01*
X3076631Y63233479D01*
X3076631Y63127183D01*
X3104142Y63024508D01*
X3157290Y62932453D01*
X3232453Y62857290D01*
X3324508Y62804142D01*
X3427183Y62776631D01*
X3427185Y62776631D01*
X3533477Y62776631D01*
X3533479Y62776631D01*
X3636154Y62804142D01*
X3728209Y62857290D01*
X3803372Y62932453D01*
X3856520Y63024508D01*
X3884031Y63127183D01*
X3884031Y63233479D01*
X3856520Y63336154D01*
X3803372Y63428209D01*
X3728209Y63503372D01*
X3636154Y63556520D01*
X3533479Y63584031D01*
X3427183Y63584031D01*
X3324508Y63556520D01*
X3324506Y63556519D01*
X3324505Y63556519D01*
X3232456Y63503374D01*
X3232450Y63503370D01*
X3157292Y63428212D01*
X3157288Y63428206D01*
X3104143Y63336157D01*
X3104143Y63336156D01*
X3104142Y63336154D01*
X3076631Y63233479D01*
X1027700Y63233479D01*
X1027700Y64753148D01*
X6071300Y64753148D01*
X6071300Y64646852D01*
X6098811Y64544177D01*
X6151959Y64452122D01*
X6227122Y64376959D01*
X6319177Y64323811D01*
X6421852Y64296300D01*
X6421854Y64296300D01*
X6528146Y64296300D01*
X6528148Y64296300D01*
X6630823Y64323811D01*
X6722878Y64376959D01*
X6798041Y64452122D01*
X6851189Y64544177D01*
X6878700Y64646852D01*
X6878700Y64753148D01*
X6851189Y64855823D01*
X6798041Y64947878D01*
X6722878Y65023041D01*
X6655188Y65062122D01*
X6630825Y65076188D01*
X6630824Y65076189D01*
X6630823Y65076189D01*
X6528148Y65103700D01*
X6421852Y65103700D01*
X6319177Y65076189D01*
X6319175Y65076188D01*
X6319174Y65076188D01*
X6227125Y65023043D01*
X6227119Y65023039D01*
X6151961Y64947881D01*
X6151957Y64947875D01*
X6098812Y64855826D01*
X6098812Y64855825D01*
X6098811Y64855823D01*
X6071300Y64753148D01*
X1027700Y64753148D01*
X1027700Y65372826D01*
X1047385Y65439865D01*
X1100189Y65485620D01*
X1169345Y65495564D01*
X1199000Y65491300D01*
X1199003Y65491300D01*
X2977720Y65491300D01*
X2979031Y65491371D01*
X3000030Y65492496D01*
X3026388Y65495330D01*
X3104097Y65519663D01*
X3165420Y65553148D01*
X3212975Y65588748D01*
X3218713Y65594488D01*
X3244398Y65614199D01*
X3260598Y65623552D01*
X3290501Y65635937D01*
X3308567Y65640777D01*
X3340652Y65645000D01*
X3359348Y65645000D01*
X3391438Y65640777D01*
X3409500Y65635937D01*
X3439401Y65623553D01*
X3455596Y65614203D01*
X3481276Y65594497D01*
X3484997Y65590776D01*
X3487033Y65588740D01*
X3503627Y65573834D01*
X3503641Y65573822D01*
X3503649Y65573815D01*
X3505739Y65572131D01*
X3524290Y65557181D01*
X3560126Y65538436D01*
X3596443Y65519439D01*
X3663482Y65499754D01*
X3663486Y65499754D01*
X3663488Y65499753D01*
X3672989Y65498388D01*
X3722281Y65491300D01*
X3722284Y65491300D01*
X7905005Y65491300D01*
X7905750Y65491316D01*
X7913695Y65491481D01*
X7924009Y65491911D01*
X7990565Y65505768D01*
X8044093Y65526460D01*
X8044092Y65526461D01*
X8071035Y65536875D01*
X8074443Y65538193D01*
X8075686Y65538962D01*
X8135596Y65573552D01*
X8165495Y65585936D01*
X8183565Y65590777D01*
X8215650Y65595000D01*
X8234351Y65595000D01*
X8266435Y65590777D01*
X8284501Y65585937D01*
X8314404Y65573551D01*
X8370248Y65541309D01*
X8375034Y65538546D01*
X8375503Y65538275D01*
X8375506Y65538274D01*
X8375921Y65538034D01*
X8378563Y65536509D01*
X8378576Y65536502D01*
X8396711Y65526032D01*
X8411243Y65521764D01*
X8415796Y65520116D01*
X8419038Y65519328D01*
X8424808Y65517777D01*
X8469521Y65504601D01*
X8469945Y65504527D01*
X8486199Y65499754D01*
X8486204Y65499754D01*
X8486205Y65499753D01*
X8495706Y65498388D01*
X8544998Y65491300D01*
X8545001Y65491300D01*
X9125991Y65491300D01*
X9126000Y65491300D01*
X9170364Y65496070D01*
X9221875Y65507276D01*
X9232212Y65509802D01*
X9314181Y65553481D01*
X9366098Y65598468D01*
X9429653Y65627492D01*
X9498811Y65617548D01*
X9551615Y65571794D01*
X9571300Y65504754D01*
X9571300Y65115269D01*
X9602219Y64999878D01*
X9661950Y64896422D01*
X9746422Y64811950D01*
X9849878Y64752219D01*
X9965269Y64721300D01*
X9965271Y64721300D01*
X10084728Y64721300D01*
X10084731Y64721300D01*
X10200122Y64752219D01*
X10303578Y64811950D01*
X10309619Y64817991D01*
X10370942Y64851476D01*
X10440634Y64846492D01*
X10496567Y64804620D01*
X10520984Y64739156D01*
X10521300Y64730310D01*
X10521300Y62091804D01*
X10501615Y62024765D01*
X10484981Y62004123D01*
X8928876Y60448018D01*
X8928874Y60448016D01*
X8031131Y59550272D01*
X7145878Y58665019D01*
X7084555Y58631534D01*
X7058197Y58628700D01*
X5118581Y58628700D01*
X5051542Y58648385D01*
X5030900Y58665019D01*
X5022880Y58673039D01*
X5022878Y58673041D01*
X4930823Y58726189D01*
X4828148Y58753700D01*
X4721852Y58753700D01*
X4619177Y58726189D01*
X4619175Y58726188D01*
X4619174Y58726188D01*
X4527125Y58673043D01*
X4527119Y58673039D01*
X4451961Y58597881D01*
X4451957Y58597875D01*
X4398812Y58505826D01*
X4398812Y58505825D01*
X4398811Y58505823D01*
X4371300Y58403148D01*
X4371300Y58296852D01*
X4398811Y58194177D01*
X4398812Y58194176D01*
X4398812Y58194175D01*
X4401754Y58189079D01*
X4451959Y58102122D01*
X4451961Y58102120D01*
X4528900Y58025181D01*
X4562385Y57963858D01*
X4557401Y57894166D01*
X4528900Y57849819D01*
X4476961Y57797881D01*
X4476957Y57797875D01*
X4423812Y57705826D01*
X4423812Y57705825D01*
X4423811Y57705823D01*
X4396300Y57603148D01*
X4396300Y57496852D01*
X4423811Y57394177D01*
X4476959Y57302122D01*
X4552122Y57226959D01*
X4644177Y57173811D01*
X4746852Y57146300D01*
X4746854Y57146300D01*
X4853146Y57146300D01*
X4853148Y57146300D01*
X4955823Y57173811D01*
X5047878Y57226959D01*
X5055900Y57234981D01*
X5117223Y57268466D01*
X5143581Y57271300D01*
X6698654Y57271300D01*
X6765693Y57251615D01*
X6811448Y57198811D01*
X6821392Y57129653D01*
X6792367Y57066097D01*
X6744816Y57035539D01*
X6745989Y57032708D01*
X6738476Y57029596D01*
X6657825Y56983032D01*
X6657819Y56983028D01*
X4686115Y55011325D01*
X4630531Y54979232D01*
X4619179Y54976191D01*
X4619177Y54976190D01*
X4527122Y54923041D01*
X4527119Y54923039D01*
X4451961Y54847881D01*
X4451957Y54847875D01*
X4398812Y54755826D01*
X4398812Y54755825D01*
X4398811Y54755823D01*
X4371300Y54653148D01*
X4371300Y54546852D01*
X4398811Y54444177D01*
X4451959Y54352122D01*
X4527122Y54276959D01*
X4619177Y54223811D01*
X4721852Y54196300D01*
X4721854Y54196300D01*
X4828146Y54196300D01*
X4828148Y54196300D01*
X4930823Y54223811D01*
X5022878Y54276959D01*
X5098041Y54352122D01*
X5151189Y54444177D01*
X5154230Y54455530D01*
X5186322Y54511116D01*
X6131261Y55456054D01*
X10215512Y55456054D01*
X10215512Y55035523D01*
X10215513Y55035506D01*
X10222101Y54985465D01*
X10222103Y54985457D01*
X10233000Y54962088D01*
X10273326Y54875609D01*
X10359033Y54789902D01*
X10468884Y54738678D01*
X10518940Y54732088D01*
X10518947Y54732088D01*
X10879477Y54732088D01*
X10879484Y54732088D01*
X10929540Y54738678D01*
X11039391Y54789902D01*
X11125098Y54875609D01*
X11176322Y54985460D01*
X11182912Y55035516D01*
X11182912Y55456060D01*
X11176322Y55506116D01*
X11125098Y55615967D01*
X11090011Y55651054D01*
X13565512Y55651054D01*
X13565512Y55290523D01*
X13565513Y55290506D01*
X13572101Y55240465D01*
X13572103Y55240457D01*
X13583761Y55215457D01*
X13623326Y55130609D01*
X13709033Y55044902D01*
X13818884Y54993678D01*
X13868940Y54987088D01*
X13868947Y54987088D01*
X14289477Y54987088D01*
X14289484Y54987088D01*
X14339540Y54993678D01*
X14449391Y55044902D01*
X14535098Y55130609D01*
X14574663Y55215457D01*
X14579330Y55225465D01*
X14625502Y55277905D01*
X14692695Y55297057D01*
X14759577Y55276841D01*
X14804094Y55225465D01*
X14848325Y55130610D01*
X14848326Y55130609D01*
X14934033Y55044902D01*
X15043884Y54993678D01*
X15093940Y54987088D01*
X15093947Y54987088D01*
X15514477Y54987088D01*
X15514484Y54987088D01*
X15564540Y54993678D01*
X15674391Y55044902D01*
X15760098Y55130609D01*
X15811322Y55240460D01*
X15817912Y55290516D01*
X15817912Y55626054D01*
X16790512Y55626054D01*
X16790512Y55265523D01*
X16790513Y55265506D01*
X16795784Y55225465D01*
X16797102Y55215460D01*
X16848326Y55105609D01*
X16934033Y55019902D01*
X17043884Y54968678D01*
X17093940Y54962088D01*
X17093947Y54962088D01*
X17514477Y54962088D01*
X17514484Y54962088D01*
X17564540Y54968678D01*
X17674391Y55019902D01*
X17760098Y55105609D01*
X17811322Y55215460D01*
X17817912Y55265516D01*
X17817912Y55626060D01*
X17811322Y55676116D01*
X17760098Y55785967D01*
X17674391Y55871674D01*
X17593577Y55909358D01*
X17564543Y55922897D01*
X17564541Y55922898D01*
X17564540Y55922898D01*
X17564537Y55922899D01*
X17564535Y55922899D01*
X17514494Y55929487D01*
X17514489Y55929488D01*
X17514484Y55929488D01*
X17093940Y55929488D01*
X17093934Y55929488D01*
X17093929Y55929487D01*
X17043888Y55922899D01*
X17043880Y55922897D01*
X16934032Y55871674D01*
X16848326Y55785968D01*
X16797103Y55676120D01*
X16797101Y55676112D01*
X16790513Y55626071D01*
X16790512Y55626054D01*
X15817912Y55626054D01*
X15817912Y55651060D01*
X15811322Y55701116D01*
X15760098Y55810967D01*
X15674391Y55896674D01*
X15647190Y55909358D01*
X15564543Y55947897D01*
X15564541Y55947898D01*
X15564540Y55947898D01*
X15564537Y55947899D01*
X15564535Y55947899D01*
X15514494Y55954487D01*
X15514489Y55954488D01*
X15514484Y55954488D01*
X15093940Y55954488D01*
X15093934Y55954488D01*
X15093929Y55954487D01*
X15043888Y55947899D01*
X15043880Y55947897D01*
X14934032Y55896674D01*
X14848326Y55810968D01*
X14804094Y55716111D01*
X14757922Y55663672D01*
X14690728Y55644520D01*
X14623847Y55664736D01*
X14579330Y55716111D01*
X14560821Y55755803D01*
X14535098Y55810967D01*
X14449391Y55896674D01*
X14422190Y55909358D01*
X14339543Y55947897D01*
X14339541Y55947898D01*
X14339540Y55947898D01*
X14339537Y55947899D01*
X14339535Y55947899D01*
X14289494Y55954487D01*
X14289489Y55954488D01*
X14289484Y55954488D01*
X13868940Y55954488D01*
X13868934Y55954488D01*
X13868929Y55954487D01*
X13818888Y55947899D01*
X13818880Y55947897D01*
X13709032Y55896674D01*
X13623326Y55810968D01*
X13572103Y55701120D01*
X13572101Y55701112D01*
X13565513Y55651071D01*
X13565512Y55651054D01*
X11090011Y55651054D01*
X11039391Y55701674D01*
X11008431Y55716111D01*
X10929543Y55752897D01*
X10929541Y55752898D01*
X10929540Y55752898D01*
X10929537Y55752899D01*
X10929535Y55752899D01*
X10879494Y55759487D01*
X10879489Y55759488D01*
X10879484Y55759488D01*
X10518940Y55759488D01*
X10518934Y55759488D01*
X10518929Y55759487D01*
X10468888Y55752899D01*
X10468880Y55752897D01*
X10359032Y55701674D01*
X10273326Y55615968D01*
X10222103Y55506120D01*
X10222101Y55506112D01*
X10215513Y55456071D01*
X10215512Y55456054D01*
X6131261Y55456054D01*
X6985189Y56309981D01*
X7046512Y56343466D01*
X7072870Y56346300D01*
X8796563Y56346300D01*
X8796565Y56346300D01*
X8886523Y56370404D01*
X8967177Y56416970D01*
X10933355Y58383148D01*
X24126300Y58383148D01*
X24126300Y58276852D01*
X24153811Y58174177D01*
X24206959Y58082122D01*
X24206961Y58082120D01*
X24266400Y58022681D01*
X24299885Y57961358D01*
X24294901Y57891666D01*
X24266400Y57847319D01*
X24216961Y57797881D01*
X24216957Y57797875D01*
X24163812Y57705826D01*
X24163812Y57705825D01*
X24163811Y57705823D01*
X24136300Y57603148D01*
X24136300Y57496852D01*
X24163811Y57394177D01*
X24216959Y57302122D01*
X24292122Y57226959D01*
X24384177Y57173811D01*
X24486852Y57146300D01*
X24486854Y57146300D01*
X24593146Y57146300D01*
X24593148Y57146300D01*
X24695823Y57173811D01*
X24787878Y57226959D01*
X24863041Y57302122D01*
X24916189Y57394177D01*
X24943700Y57496852D01*
X24943700Y57603148D01*
X24916189Y57705823D01*
X24863041Y57797878D01*
X24803600Y57857319D01*
X24770115Y57918642D01*
X24775099Y57988334D01*
X24803600Y58032681D01*
X24804822Y58033903D01*
X24853041Y58082122D01*
X24906189Y58174177D01*
X24933700Y58276852D01*
X24933700Y58383148D01*
X24906189Y58485823D01*
X24853041Y58577878D01*
X24777878Y58653041D01*
X24685823Y58706189D01*
X24583148Y58733700D01*
X24476852Y58733700D01*
X24374177Y58706189D01*
X24374175Y58706188D01*
X24374174Y58706188D01*
X24282125Y58653043D01*
X24282119Y58653039D01*
X24206961Y58577881D01*
X24206957Y58577875D01*
X24153812Y58485826D01*
X24153812Y58485825D01*
X24153811Y58485823D01*
X24126300Y58383148D01*
X10933355Y58383148D01*
X11483030Y58932823D01*
X13123355Y60573148D01*
X24106300Y60573148D01*
X24106300Y60466852D01*
X24133811Y60364177D01*
X24186959Y60272122D01*
X24186961Y60272120D01*
X24251400Y60207681D01*
X24284885Y60146358D01*
X24279901Y60076666D01*
X24251400Y60032319D01*
X24196961Y59977881D01*
X24196957Y59977875D01*
X24143812Y59885826D01*
X24143812Y59885825D01*
X24143811Y59885823D01*
X24116300Y59783148D01*
X24116300Y59676852D01*
X24143811Y59574177D01*
X24196959Y59482122D01*
X24272122Y59406959D01*
X24364177Y59353811D01*
X24466852Y59326300D01*
X24466854Y59326300D01*
X24573146Y59326300D01*
X24573148Y59326300D01*
X24675823Y59353811D01*
X24767878Y59406959D01*
X24843041Y59482122D01*
X24896189Y59574177D01*
X24923700Y59676852D01*
X24923700Y59783148D01*
X24896189Y59885823D01*
X24843041Y59977878D01*
X24778600Y60042319D01*
X24745115Y60103642D01*
X24750099Y60173334D01*
X24778600Y60217681D01*
X24786100Y60225181D01*
X24833041Y60272122D01*
X24886189Y60364177D01*
X24913700Y60466852D01*
X24913700Y60573148D01*
X24886189Y60675823D01*
X24833041Y60767878D01*
X24773600Y60827319D01*
X24740115Y60888642D01*
X24745099Y60958334D01*
X24773600Y61002681D01*
X24799356Y61028437D01*
X24853041Y61082122D01*
X24906189Y61174177D01*
X24933700Y61276852D01*
X24933700Y61383148D01*
X24906189Y61485823D01*
X24853041Y61577878D01*
X24788600Y61642319D01*
X24755115Y61703642D01*
X24760099Y61773334D01*
X24788600Y61817681D01*
X24843041Y61872122D01*
X24896189Y61964177D01*
X24923700Y62066852D01*
X24923700Y62173148D01*
X24896189Y62275823D01*
X24843041Y62367878D01*
X24767878Y62443041D01*
X24675823Y62496189D01*
X24573148Y62523700D01*
X24466852Y62523700D01*
X24364177Y62496189D01*
X24364175Y62496188D01*
X24364174Y62496188D01*
X24272125Y62443043D01*
X24272119Y62443039D01*
X24196961Y62367881D01*
X24196957Y62367875D01*
X24143812Y62275826D01*
X24143812Y62275825D01*
X24143811Y62275823D01*
X24116300Y62173148D01*
X24116300Y62066852D01*
X24143811Y61964177D01*
X24196959Y61872122D01*
X24196961Y61872120D01*
X24261400Y61807681D01*
X24294885Y61746358D01*
X24289901Y61676666D01*
X24261400Y61632319D01*
X24206961Y61577881D01*
X24206957Y61577875D01*
X24153812Y61485826D01*
X24153812Y61485825D01*
X24153811Y61485823D01*
X24126300Y61383148D01*
X24126300Y61276852D01*
X24153811Y61174177D01*
X24206959Y61082122D01*
X24206961Y61082120D01*
X24266400Y61022681D01*
X24299885Y60961358D01*
X24294901Y60891666D01*
X24266400Y60847319D01*
X24186961Y60767881D01*
X24186957Y60767875D01*
X24133812Y60675826D01*
X24133812Y60675825D01*
X24133811Y60675823D01*
X24106300Y60573148D01*
X13123355Y60573148D01*
X13408030Y60857823D01*
X13454596Y60938477D01*
X13478700Y61028435D01*
X13478700Y61121565D01*
X13478700Y65090428D01*
X13498385Y65157467D01*
X13540701Y65197817D01*
X13547878Y65201959D01*
X13623041Y65277122D01*
X13676189Y65369177D01*
X13679932Y65383148D01*
X18566300Y65383148D01*
X18566300Y65276852D01*
X18593811Y65174177D01*
X18593812Y65174176D01*
X18593812Y65174175D01*
X18605358Y65154177D01*
X18646959Y65082122D01*
X18722122Y65006959D01*
X18814177Y64953811D01*
X18916852Y64926300D01*
X18916854Y64926300D01*
X19023146Y64926300D01*
X19023148Y64926300D01*
X19125823Y64953811D01*
X19217878Y65006959D01*
X19267319Y65056400D01*
X19328642Y65089885D01*
X19398334Y65084901D01*
X19442681Y65056400D01*
X19512122Y64986959D01*
X19604177Y64933811D01*
X19706852Y64906300D01*
X19706854Y64906300D01*
X19813146Y64906300D01*
X19813148Y64906300D01*
X19915823Y64933811D01*
X20007878Y64986959D01*
X20074819Y65053900D01*
X20136142Y65087385D01*
X20205834Y65082401D01*
X20250181Y65053900D01*
X20306334Y64997747D01*
X20398389Y64944599D01*
X20501064Y64917088D01*
X20501066Y64917088D01*
X20607358Y64917088D01*
X20607360Y64917088D01*
X20710035Y64944599D01*
X20802090Y64997747D01*
X20877253Y65072910D01*
X20877253Y65072911D01*
X20883000Y65078657D01*
X20885241Y65076416D01*
X20929598Y65108822D01*
X20999343Y65112994D01*
X21059257Y65079824D01*
X21132122Y65006959D01*
X21224177Y64953811D01*
X21326852Y64926300D01*
X21326854Y64926300D01*
X21433146Y64926300D01*
X21433148Y64926300D01*
X21535823Y64953811D01*
X21627878Y65006959D01*
X21703041Y65082122D01*
X21756189Y65174177D01*
X21783700Y65276852D01*
X21783700Y65383148D01*
X21756189Y65485823D01*
X21703041Y65577878D01*
X21627878Y65653041D01*
X21566508Y65688473D01*
X21535825Y65706188D01*
X21535824Y65706189D01*
X21535823Y65706189D01*
X21433148Y65733700D01*
X21326852Y65733700D01*
X21224177Y65706189D01*
X21224175Y65706188D01*
X21224174Y65706188D01*
X21132125Y65653043D01*
X21132119Y65653039D01*
X21051212Y65572131D01*
X21048983Y65574360D01*
X21004501Y65541927D01*
X20934752Y65537821D01*
X20874954Y65570965D01*
X20802092Y65643827D01*
X20802090Y65643829D01*
X20710035Y65696977D01*
X20607360Y65724488D01*
X20501064Y65724488D01*
X20398389Y65696977D01*
X20398387Y65696976D01*
X20398386Y65696976D01*
X20306337Y65643831D01*
X20306331Y65643827D01*
X20239393Y65576888D01*
X20178070Y65543403D01*
X20108378Y65548387D01*
X20064031Y65576888D01*
X20007880Y65633039D01*
X20007878Y65633041D01*
X19915823Y65686189D01*
X19813148Y65713700D01*
X19706852Y65713700D01*
X19604177Y65686189D01*
X19604175Y65686188D01*
X19604174Y65686188D01*
X19512125Y65633043D01*
X19512119Y65633039D01*
X19462681Y65583600D01*
X19401358Y65550115D01*
X19331666Y65555099D01*
X19287319Y65583600D01*
X19217880Y65653039D01*
X19217878Y65653041D01*
X19156508Y65688473D01*
X19125825Y65706188D01*
X19125824Y65706189D01*
X19125823Y65706189D01*
X19023148Y65733700D01*
X18916852Y65733700D01*
X18814177Y65706189D01*
X18814175Y65706188D01*
X18814174Y65706188D01*
X18722125Y65653043D01*
X18722119Y65653039D01*
X18646961Y65577881D01*
X18646957Y65577875D01*
X18593812Y65485826D01*
X18593812Y65485825D01*
X18593811Y65485823D01*
X18566300Y65383148D01*
X13679932Y65383148D01*
X13703700Y65471852D01*
X13703700Y65578148D01*
X13676189Y65680823D01*
X13623041Y65772878D01*
X13547878Y65848041D01*
X13455823Y65901189D01*
X13353148Y65928700D01*
X13246852Y65928700D01*
X13144177Y65901189D01*
X13144175Y65901188D01*
X13144174Y65901188D01*
X13052125Y65848043D01*
X13052119Y65848039D01*
X12976961Y65772881D01*
X12976957Y65772875D01*
X12923812Y65680826D01*
X12923810Y65680822D01*
X12920768Y65669467D01*
X12888676Y65613884D01*
X12841973Y65567181D01*
X12841970Y65567177D01*
X12795404Y65486524D01*
X12771300Y65396565D01*
X12771300Y61272869D01*
X12751615Y61205830D01*
X12734981Y61185188D01*
X8639812Y57090019D01*
X8578489Y57056534D01*
X8552131Y57053700D01*
X7859778Y57053700D01*
X7792739Y57073385D01*
X7746984Y57126189D01*
X7737040Y57195347D01*
X7766065Y57258903D01*
X7784266Y57276056D01*
X7800255Y57288332D01*
X7807574Y57290293D01*
X7828063Y57302122D01*
X7871126Y57326984D01*
X7923016Y57378874D01*
X7923017Y57378877D01*
X11535916Y60991776D01*
X11535921Y60991780D01*
X11546124Y61001984D01*
X11546126Y61001984D01*
X11598016Y61053874D01*
X11634707Y61117426D01*
X11649914Y61174177D01*
X11653701Y61188308D01*
X11653701Y61261692D01*
X11653700Y61261696D01*
X11653700Y67703148D01*
X19321300Y67703148D01*
X19321300Y67596852D01*
X19348811Y67494177D01*
X19401959Y67402122D01*
X19477122Y67326959D01*
X19569177Y67273811D01*
X19671852Y67246300D01*
X19671854Y67246300D01*
X19778146Y67246300D01*
X19778148Y67246300D01*
X19880823Y67273811D01*
X19972878Y67326959D01*
X20048041Y67402122D01*
X20101189Y67494177D01*
X20128700Y67596852D01*
X20128700Y67703148D01*
X20101189Y67805823D01*
X20048041Y67897878D01*
X19972878Y67973041D01*
X19880823Y68026189D01*
X19778148Y68053700D01*
X19671852Y68053700D01*
X19569177Y68026189D01*
X19569175Y68026188D01*
X19569174Y68026188D01*
X19477125Y67973043D01*
X19477119Y67973039D01*
X19401961Y67897881D01*
X19401957Y67897875D01*
X19348812Y67805826D01*
X19348812Y67805825D01*
X19348811Y67805823D01*
X19321300Y67703148D01*
X11653700Y67703148D01*
X11653700Y68523148D01*
X15336300Y68523148D01*
X15336300Y68416852D01*
X15363811Y68314177D01*
X15416959Y68222122D01*
X15492122Y68146959D01*
X15584177Y68093811D01*
X15686852Y68066300D01*
X15686854Y68066300D01*
X15793146Y68066300D01*
X15793148Y68066300D01*
X15895823Y68093811D01*
X15987878Y68146959D01*
X16063041Y68222122D01*
X16116189Y68314177D01*
X16143700Y68416852D01*
X16143700Y68523148D01*
X16116189Y68625823D01*
X16063041Y68717878D01*
X15987878Y68793041D01*
X15895823Y68846189D01*
X15793148Y68873700D01*
X15686852Y68873700D01*
X15584177Y68846189D01*
X15584175Y68846188D01*
X15584174Y68846188D01*
X15492125Y68793043D01*
X15492119Y68793039D01*
X15416961Y68717881D01*
X15416957Y68717875D01*
X15363812Y68625826D01*
X15363812Y68625825D01*
X15363811Y68625823D01*
X15336300Y68523148D01*
X11653700Y68523148D01*
X11653700Y69011561D01*
X11673385Y69078600D01*
X11715697Y69118947D01*
X11772878Y69151959D01*
X11848041Y69227122D01*
X11901189Y69319177D01*
X11928700Y69421852D01*
X11928700Y69528148D01*
X11901189Y69630823D01*
X11848041Y69722878D01*
X11772878Y69798041D01*
X11680823Y69851189D01*
X11578148Y69878700D01*
X11555655Y69878700D01*
X11488616Y69898385D01*
X11442861Y69951189D01*
X11432917Y70020347D01*
X11461942Y70083903D01*
X11493655Y70110087D01*
X11495464Y70111132D01*
X11522878Y70126959D01*
X11598041Y70202122D01*
X11651189Y70294177D01*
X11678700Y70396852D01*
X11678700Y70503148D01*
X11651189Y70605823D01*
X11648604Y70610300D01*
X11632131Y70678198D01*
X11654982Y70744226D01*
X11709903Y70787417D01*
X11755991Y70796300D01*
X26760709Y70796300D01*
X26827748Y70776615D01*
G37*
%TD.AperFunction*%
%TA.AperFunction,Conductor*%
G36*
X13170903Y5509510D02*
G01*
X13177381Y5503478D01*
X13334981Y5345878D01*
X13368466Y5284555D01*
X13371300Y5258197D01*
X13371300Y5111692D01*
X13371300Y4335616D01*
X13383040Y4291804D01*
X13390293Y4264734D01*
X13426983Y4201183D01*
X13485939Y4142227D01*
X13485945Y4142222D01*
X13816486Y3811681D01*
X13849971Y3750358D01*
X13844987Y3680666D01*
X13803115Y3624733D01*
X13737651Y3600316D01*
X13728805Y3600000D01*
X13089700Y3600000D01*
X13022661Y3619685D01*
X12976906Y3672489D01*
X12965700Y3724000D01*
X12965700Y5415797D01*
X12985385Y5482836D01*
X13038189Y5528591D01*
X13107347Y5538535D01*
X13170903Y5509510D01*
G37*
%TD.AperFunction*%
%TA.AperFunction,Conductor*%
G36*
X18819227Y5565166D02*
G01*
X18862417Y5510245D01*
X18871300Y5464158D01*
X18871300Y3724000D01*
X18868749Y3715315D01*
X18870038Y3706353D01*
X18859059Y3682313D01*
X18851615Y3656961D01*
X18844774Y3651034D01*
X18841013Y3642797D01*
X18818778Y3628508D01*
X18798811Y3611206D01*
X18788296Y3608919D01*
X18782235Y3605023D01*
X18747300Y3600000D01*
X18577700Y3600000D01*
X18510661Y3619685D01*
X18464906Y3672489D01*
X18453700Y3724000D01*
X18453700Y3861690D01*
X18453700Y3861692D01*
X18434707Y3932574D01*
X18398016Y3996126D01*
X18346126Y4048016D01*
X18346125Y4048017D01*
X18190019Y4204123D01*
X18156534Y4265446D01*
X18153700Y4291804D01*
X18153700Y5161397D01*
X18173385Y5228436D01*
X18190019Y5249078D01*
X18400923Y5459981D01*
X18462246Y5493466D01*
X18488604Y5496300D01*
X18499946Y5496300D01*
X18499948Y5496300D01*
X18602623Y5523811D01*
X18685301Y5571546D01*
X18753200Y5588018D01*
X18819227Y5565166D01*
G37*
%TD.AperFunction*%
%TA.AperFunction,Conductor*%
G36*
X24638864Y7740871D02*
G01*
X24658132Y7740412D01*
X24671698Y7731230D01*
X24687414Y7726615D01*
X24700032Y7712053D01*
X24715994Y7701249D01*
X24722442Y7686190D01*
X24733169Y7673811D01*
X24735911Y7654737D01*
X24743498Y7637021D01*
X24740781Y7620868D01*
X24743113Y7604653D01*
X24735106Y7587122D01*
X24731911Y7568118D01*
X24720892Y7555998D01*
X24714088Y7541097D01*
X24697876Y7530679D01*
X24684913Y7516418D01*
X24657263Y7504579D01*
X24655310Y7503323D01*
X24652494Y7502533D01*
X24554177Y7476189D01*
X24554175Y7476188D01*
X24554174Y7476188D01*
X24462125Y7423043D01*
X24462119Y7423039D01*
X24386961Y7347881D01*
X24386954Y7347872D01*
X24383796Y7342401D01*
X24333227Y7294188D01*
X24264619Y7280968D01*
X24244321Y7284631D01*
X24173152Y7303700D01*
X24173148Y7303700D01*
X24066852Y7303700D01*
X23964177Y7276189D01*
X23964175Y7276188D01*
X23964174Y7276188D01*
X23872125Y7223043D01*
X23872119Y7223039D01*
X23796961Y7147881D01*
X23796957Y7147875D01*
X23743812Y7055826D01*
X23743812Y7055825D01*
X23743811Y7055823D01*
X23716300Y6953148D01*
X23716300Y6846852D01*
X23726321Y6809450D01*
X23730824Y6792645D01*
X23729159Y6722795D01*
X23698729Y6672873D01*
X22003876Y4978018D01*
X21951985Y4926128D01*
X21951983Y4926126D01*
X21915293Y4862575D01*
X21915293Y4862574D01*
X21896300Y4791692D01*
X21896300Y4791690D01*
X21896300Y3724000D01*
X21876615Y3656961D01*
X21823811Y3611206D01*
X21772300Y3600000D01*
X21002700Y3600000D01*
X20935661Y3619685D01*
X20889906Y3672489D01*
X20878700Y3724000D01*
X20878700Y5385709D01*
X20898385Y5452748D01*
X20915019Y5473390D01*
X23151610Y7709981D01*
X23212933Y7743466D01*
X23239291Y7746300D01*
X24620375Y7746300D01*
X24638864Y7740871D01*
G37*
%TD.AperFunction*%
%TA.AperFunction,Conductor*%
G36*
X28852150Y10027266D02*
G01*
X28892679Y9970353D01*
X28899500Y9929794D01*
X28899500Y4709756D01*
X28897973Y4690356D01*
X28892808Y4657749D01*
X28880820Y4620854D01*
X28870314Y4600235D01*
X28868927Y4598327D01*
X28868661Y4597103D01*
X28847510Y4568849D01*
X28831151Y4552490D01*
X28799765Y4529686D01*
X28779146Y4519180D01*
X28742251Y4507192D01*
X28729909Y4505237D01*
X28709638Y4502027D01*
X28690244Y4500500D01*
X25071155Y4500500D01*
X24916510Y4469739D01*
X24916498Y4469736D01*
X24770827Y4409398D01*
X24770814Y4409391D01*
X24639711Y4321790D01*
X24639707Y4321787D01*
X24528213Y4210293D01*
X24528210Y4210289D01*
X24440609Y4079186D01*
X24440602Y4079173D01*
X24380264Y3933502D01*
X24380261Y3933490D01*
X24349500Y3778847D01*
X24349500Y3724000D01*
X24329815Y3656961D01*
X24277011Y3611206D01*
X24225500Y3600000D01*
X23577700Y3600000D01*
X23510661Y3619685D01*
X23464906Y3672489D01*
X23453700Y3724000D01*
X23453700Y4438198D01*
X23473385Y4505237D01*
X23490014Y4525874D01*
X25531123Y6566983D01*
X25531126Y6566984D01*
X25583016Y6618874D01*
X25619707Y6682426D01*
X25623624Y6697045D01*
X25638701Y6753308D01*
X25638701Y6826692D01*
X25638701Y6834287D01*
X25638700Y6834305D01*
X25638700Y6931419D01*
X25658385Y6998458D01*
X25675019Y7019100D01*
X25683041Y7027122D01*
X25736189Y7119177D01*
X25763700Y7221852D01*
X25763700Y7328148D01*
X25736189Y7430823D01*
X25683041Y7522878D01*
X25671300Y7534619D01*
X25637815Y7595942D01*
X25642799Y7665634D01*
X25684671Y7721567D01*
X25750135Y7745984D01*
X25758981Y7746300D01*
X26334728Y7746300D01*
X26334731Y7746300D01*
X26450122Y7777219D01*
X26491885Y7801331D01*
X26553578Y7836949D01*
X28613051Y9896422D01*
X28650918Y9962011D01*
X28668112Y9991793D01*
X28718678Y10040008D01*
X28787284Y10053233D01*
X28852150Y10027266D01*
G37*
%TD.AperFunction*%
%TA.AperFunction,Conductor*%
G36*
X11675681Y80448946D02*
G01*
X11677587Y80449442D01*
X11709064Y80439144D01*
X11740832Y80429815D01*
X11742120Y80428328D01*
X11743993Y80427715D01*
X11764915Y80402022D01*
X11786587Y80377011D01*
X11787260Y80374581D01*
X11788111Y80373536D01*
X11797013Y80339383D01*
X11804889Y80269471D01*
X11804892Y80269454D01*
X11878712Y79946024D01*
X11878716Y79946012D01*
X11988285Y79632884D01*
X12132224Y79333991D01*
X12167845Y79277301D01*
X12308729Y79053085D01*
X12515574Y78793711D01*
X12750158Y78559127D01*
X13009532Y78352282D01*
X13290435Y78175779D01*
X13589334Y78031837D01*
X13824508Y77949546D01*
X13902458Y77922270D01*
X13902470Y77922266D01*
X14225904Y77848445D01*
X14555567Y77811301D01*
X14555568Y77811300D01*
X14555571Y77811300D01*
X14887326Y77811300D01*
X14887326Y77811301D01*
X15216990Y77848445D01*
X15540424Y77922266D01*
X15853560Y78031837D01*
X16152459Y78175779D01*
X16433362Y78352282D01*
X16692736Y78559127D01*
X16927320Y78793711D01*
X17134165Y79053085D01*
X17310668Y79333988D01*
X17454610Y79632887D01*
X17564181Y79946023D01*
X17638002Y80269457D01*
X17640268Y80289562D01*
X17645881Y80339383D01*
X17672947Y80403797D01*
X17730542Y80443352D01*
X17769101Y80449500D01*
X28652405Y80449500D01*
X28690244Y80449500D01*
X28709630Y80447975D01*
X28742253Y80442808D01*
X28779144Y80430822D01*
X28799765Y80420315D01*
X28831151Y80397511D01*
X28847510Y80381152D01*
X28870314Y80349766D01*
X28880820Y80329147D01*
X28892808Y80292252D01*
X28897973Y80259641D01*
X28899500Y80240245D01*
X28899500Y70245208D01*
X28898639Y70242279D01*
X28899360Y70239309D01*
X28888857Y70208963D01*
X28879815Y70178169D01*
X28877507Y70176170D01*
X28876508Y70173282D01*
X28851266Y70153432D01*
X28827011Y70132414D01*
X28823988Y70131980D01*
X28821587Y70130091D01*
X28789632Y70127040D01*
X28757853Y70122470D01*
X28755073Y70123740D01*
X28752034Y70123449D01*
X28723503Y70138157D01*
X28694297Y70151495D01*
X28691826Y70154487D01*
X28689931Y70155464D01*
X28668113Y70183207D01*
X28659562Y70198018D01*
X28650918Y70212990D01*
X28613051Y70278578D01*
X27278578Y71613051D01*
X27278576Y71613052D01*
X27278571Y71613056D01*
X27209127Y71653149D01*
X27209123Y71653150D01*
X27175122Y71672781D01*
X27059731Y71703700D01*
X27059729Y71703700D01*
X18862354Y71703700D01*
X18795315Y71723385D01*
X18749560Y71776189D01*
X18739616Y71845347D01*
X18768641Y71908903D01*
X18800354Y71935087D01*
X18811291Y71941402D01*
X18872878Y71976959D01*
X18948041Y72052122D01*
X19001189Y72144177D01*
X19028700Y72246852D01*
X19028700Y72353148D01*
X19001189Y72455823D01*
X18948041Y72547878D01*
X18872878Y72623041D01*
X18780823Y72676189D01*
X18678148Y72703700D01*
X18571852Y72703700D01*
X18469177Y72676189D01*
X18469175Y72676188D01*
X18469174Y72676188D01*
X18377125Y72623043D01*
X18377119Y72623039D01*
X18301961Y72547881D01*
X18301957Y72547875D01*
X18248812Y72455826D01*
X18248812Y72455825D01*
X18221300Y72353148D01*
X18221300Y72238725D01*
X18218610Y72238725D01*
X18210540Y72187004D01*
X18242112Y72149696D01*
X18244747Y72151216D01*
X18248811Y72144177D01*
X18301959Y72052122D01*
X18377122Y71976959D01*
X18432161Y71945182D01*
X18449646Y71935087D01*
X18497862Y71884520D01*
X18511084Y71815913D01*
X18485116Y71751048D01*
X18428202Y71710520D01*
X18387646Y71703700D01*
X18103225Y71703700D01*
X18036186Y71723385D01*
X17990431Y71776189D01*
X17980487Y71845347D01*
X17984815Y71861132D01*
X17984085Y71861327D01*
X17986187Y71869175D01*
X17986189Y71869177D01*
X18013700Y71971852D01*
X18013700Y72078148D01*
X18013700Y72086275D01*
X18016395Y72086275D01*
X18024448Y72137996D01*
X17992891Y72175308D01*
X17990253Y72173784D01*
X17948067Y72246852D01*
X17933041Y72272878D01*
X17857878Y72348041D01*
X17765823Y72401189D01*
X17663148Y72428700D01*
X17556852Y72428700D01*
X17454177Y72401189D01*
X17454175Y72401188D01*
X17454174Y72401188D01*
X17362125Y72348043D01*
X17362119Y72348039D01*
X17286961Y72272881D01*
X17286957Y72272875D01*
X17233812Y72180826D01*
X17233812Y72180825D01*
X17233811Y72180823D01*
X17206300Y72078148D01*
X17206300Y71971852D01*
X17233811Y71869177D01*
X17233812Y71869175D01*
X17235915Y71861327D01*
X17232913Y71860523D01*
X17238800Y71805656D01*
X17207511Y71743184D01*
X17147414Y71707545D01*
X17116775Y71703700D01*
X16224789Y71703700D01*
X16157750Y71723385D01*
X16111995Y71776189D01*
X16102051Y71845347D01*
X16105014Y71859793D01*
X16106189Y71864177D01*
X16133700Y71966852D01*
X16133700Y72073148D01*
X16106189Y72175823D01*
X16053041Y72267878D01*
X15977878Y72343041D01*
X15885823Y72396189D01*
X15783148Y72423700D01*
X15676852Y72423700D01*
X15574177Y72396189D01*
X15574175Y72396188D01*
X15574174Y72396188D01*
X15482125Y72343043D01*
X15482119Y72343039D01*
X15406961Y72267881D01*
X15406957Y72267875D01*
X15353812Y72175826D01*
X15353812Y72175825D01*
X15353811Y72175823D01*
X15326300Y72073148D01*
X15326300Y71966852D01*
X15352471Y71869177D01*
X15354986Y71859793D01*
X15353323Y71789943D01*
X15314160Y71732081D01*
X15249931Y71704577D01*
X15235211Y71703700D01*
X10715269Y71703700D01*
X10599878Y71672781D01*
X10599876Y71672781D01*
X10599876Y71672780D01*
X10543071Y71639983D01*
X10543070Y71639984D01*
X10496428Y71613054D01*
X10496419Y71613048D01*
X9661949Y70778580D01*
X9624080Y70712992D01*
X9624081Y70712991D01*
X9602221Y70675128D01*
X9602219Y70675124D01*
X9602219Y70675122D01*
X9571300Y70559731D01*
X9571300Y70559729D01*
X9571300Y69044930D01*
X9551615Y68977891D01*
X9498811Y68932136D01*
X9429653Y68922192D01*
X9366097Y68951217D01*
X9353591Y68963723D01*
X9350777Y68966970D01*
X9350776Y68966971D01*
X9350764Y68966985D01*
X9350756Y68966994D01*
X9350748Y68967002D01*
X9332901Y68985216D01*
X9332894Y68985222D01*
X9268948Y69020990D01*
X9251838Y69030561D01*
X9226843Y69037901D01*
X9184800Y69050246D01*
X9184792Y69050248D01*
X9126001Y69058700D01*
X9126000Y69058700D01*
X8277700Y69058700D01*
X8277692Y69058700D01*
X8233337Y69053931D01*
X8181818Y69042723D01*
X8174132Y69040845D01*
X8171488Y69040198D01*
X8130503Y69018359D01*
X8089518Y68996519D01*
X8036718Y68950767D01*
X8036698Y68950749D01*
X8018484Y68932902D01*
X8018478Y68932895D01*
X7973141Y68851842D01*
X7973138Y68851835D01*
X7953454Y68784801D01*
X7953452Y68784793D01*
X7945000Y68726002D01*
X7945000Y68404000D01*
X7925315Y68336961D01*
X7872511Y68291206D01*
X7821000Y68280000D01*
X5679000Y68280000D01*
X5611961Y68299685D01*
X5566206Y68352489D01*
X5555000Y68404000D01*
X5555000Y68725992D01*
X5554999Y68726002D01*
X5550230Y68770364D01*
X5539024Y68821875D01*
X5536498Y68832212D01*
X5492819Y68914181D01*
X5447064Y68966985D01*
X5447055Y68966994D01*
X5447048Y68967002D01*
X5429201Y68985216D01*
X5429194Y68985222D01*
X5365248Y69020990D01*
X5348138Y69030561D01*
X5323143Y69037901D01*
X5281100Y69050246D01*
X5281092Y69050248D01*
X5222301Y69058700D01*
X5222300Y69058700D01*
X1199000Y69058700D01*
X1164953Y69055040D01*
X1096195Y69067445D01*
X1045058Y69115056D01*
X1027700Y69178329D01*
X1027700Y70726420D01*
X1047385Y70793459D01*
X1100189Y70839214D01*
X1169346Y70849158D01*
X1224000Y70841300D01*
X1224003Y70841300D01*
X4750991Y70841300D01*
X4751000Y70841300D01*
X4795364Y70846070D01*
X4846875Y70857276D01*
X4857212Y70859802D01*
X4939181Y70903481D01*
X4991985Y70949236D01*
X5010218Y70967101D01*
X5055561Y71048162D01*
X5075246Y71115201D01*
X5083700Y71174000D01*
X5083700Y73657568D01*
X5081915Y73684808D01*
X5081414Y73688611D01*
X21778200Y73688611D01*
X21778200Y73561390D01*
X21803015Y73436635D01*
X21803018Y73436625D01*
X21851697Y73319102D01*
X21851702Y73319093D01*
X21922373Y73213327D01*
X21922376Y73213323D01*
X22012322Y73123377D01*
X22012326Y73123374D01*
X22118092Y73052703D01*
X22118098Y73052700D01*
X22118099Y73052699D01*
X22235627Y73004017D01*
X22360389Y72979201D01*
X22360393Y72979200D01*
X22360394Y72979200D01*
X22487607Y72979200D01*
X22487608Y72979201D01*
X22612373Y73004017D01*
X22729901Y73052699D01*
X22835674Y73123374D01*
X22925626Y73213326D01*
X22996301Y73319099D01*
X23044983Y73436627D01*
X23069800Y73561394D01*
X23069800Y73688606D01*
X23069799Y73688611D01*
X23810200Y73688611D01*
X23810200Y73561390D01*
X23835015Y73436635D01*
X23835018Y73436625D01*
X23883697Y73319102D01*
X23883702Y73319093D01*
X23954373Y73213327D01*
X23954376Y73213323D01*
X24044322Y73123377D01*
X24044326Y73123374D01*
X24150092Y73052703D01*
X24150098Y73052700D01*
X24150099Y73052699D01*
X24267627Y73004017D01*
X24392389Y72979201D01*
X24392393Y72979200D01*
X24392394Y72979200D01*
X24519607Y72979200D01*
X24519608Y72979201D01*
X24644373Y73004017D01*
X24761901Y73052699D01*
X24867674Y73123374D01*
X24957626Y73213326D01*
X25028301Y73319099D01*
X25076983Y73436627D01*
X25101800Y73561394D01*
X25101800Y73688606D01*
X25076983Y73813373D01*
X25028301Y73930901D01*
X25028300Y73930902D01*
X25028297Y73930908D01*
X24957626Y74036674D01*
X24957623Y74036678D01*
X24867677Y74126624D01*
X24867673Y74126627D01*
X24761907Y74197298D01*
X24761898Y74197303D01*
X24644375Y74245982D01*
X24644376Y74245982D01*
X24644373Y74245983D01*
X24644369Y74245984D01*
X24644365Y74245985D01*
X24519610Y74270800D01*
X24519606Y74270800D01*
X24392394Y74270800D01*
X24392389Y74270800D01*
X24267634Y74245985D01*
X24267624Y74245982D01*
X24150101Y74197303D01*
X24150092Y74197298D01*
X24044326Y74126627D01*
X24044322Y74126624D01*
X23954376Y74036678D01*
X23954373Y74036674D01*
X23883702Y73930908D01*
X23883697Y73930899D01*
X23835018Y73813376D01*
X23835015Y73813366D01*
X23810200Y73688611D01*
X23069799Y73688611D01*
X23044983Y73813373D01*
X22996301Y73930901D01*
X22996300Y73930902D01*
X22996297Y73930908D01*
X22925626Y74036674D01*
X22925623Y74036678D01*
X22835677Y74126624D01*
X22835673Y74126627D01*
X22729907Y74197298D01*
X22729898Y74197303D01*
X22612375Y74245982D01*
X22612376Y74245982D01*
X22612373Y74245983D01*
X22612369Y74245984D01*
X22612365Y74245985D01*
X22487610Y74270800D01*
X22487606Y74270800D01*
X22360394Y74270800D01*
X22360389Y74270800D01*
X22235634Y74245985D01*
X22235624Y74245982D01*
X22118101Y74197303D01*
X22118092Y74197298D01*
X22012326Y74126627D01*
X22012322Y74126624D01*
X21922376Y74036678D01*
X21922373Y74036674D01*
X21851702Y73930908D01*
X21851697Y73930899D01*
X21803018Y73813376D01*
X21803015Y73813366D01*
X21778200Y73688611D01*
X5081414Y73688611D01*
X5077690Y73716901D01*
X5072364Y73743676D01*
X5070197Y73751763D01*
X5069217Y73757592D01*
X5069688Y73761533D01*
X5067500Y73778154D01*
X5067500Y73796850D01*
X5071727Y73828951D01*
X5072363Y73831325D01*
X5072364Y73831327D01*
X5077689Y73858101D01*
X5081914Y73890192D01*
X5083700Y73917434D01*
X5083700Y74976000D01*
X5078930Y75020364D01*
X5067724Y75071875D01*
X5065198Y75082212D01*
X5021519Y75164181D01*
X4996113Y75193501D01*
X4967088Y75257055D01*
X4977031Y75326213D01*
X4982429Y75336685D01*
X5001189Y75369177D01*
X5028700Y75471852D01*
X5028700Y75578148D01*
X5001189Y75680823D01*
X4948041Y75772878D01*
X4872878Y75848041D01*
X4780823Y75901189D01*
X4678148Y75928700D01*
X4571852Y75928700D01*
X4469177Y75901189D01*
X4469175Y75901188D01*
X4469174Y75901188D01*
X4377125Y75848043D01*
X4377119Y75848039D01*
X4301961Y75772881D01*
X4301957Y75772875D01*
X4248812Y75680826D01*
X4248812Y75680825D01*
X4248811Y75680823D01*
X4221300Y75578148D01*
X4221300Y75471852D01*
X4223191Y75464792D01*
X4221529Y75394945D01*
X4182367Y75337082D01*
X4118139Y75309577D01*
X4103417Y75308700D01*
X2284401Y75308700D01*
X2230393Y75301589D01*
X2230389Y75301588D01*
X2168401Y75284980D01*
X2140825Y75273557D01*
X2125470Y75268345D01*
X2091440Y75259226D01*
X2059344Y75255000D01*
X2040654Y75255000D01*
X2008561Y75259225D01*
X1996143Y75262553D01*
X1974539Y75268341D01*
X1959182Y75273554D01*
X1931606Y75284976D01*
X1931607Y75284976D01*
X1931604Y75284977D01*
X1902691Y75292724D01*
X1869608Y75301589D01*
X1815598Y75308700D01*
X1815591Y75308700D01*
X1224000Y75308700D01*
X1203624Y75306510D01*
X1190953Y75305147D01*
X1122194Y75317554D01*
X1071057Y75365165D01*
X1053700Y75428437D01*
X1053700Y76178148D01*
X16596300Y76178148D01*
X16596300Y76071852D01*
X16623811Y75969177D01*
X16676959Y75877122D01*
X16752122Y75801959D01*
X16844177Y75748811D01*
X16946852Y75721300D01*
X16946854Y75721300D01*
X17053146Y75721300D01*
X17053148Y75721300D01*
X17155823Y75748811D01*
X17247878Y75801959D01*
X17323041Y75877122D01*
X17376189Y75969177D01*
X17403700Y76071852D01*
X17403700Y76178148D01*
X17376189Y76280823D01*
X17323041Y76372878D01*
X17247878Y76448041D01*
X17155823Y76501189D01*
X17053148Y76528700D01*
X16946852Y76528700D01*
X16844177Y76501189D01*
X16844175Y76501188D01*
X16844174Y76501188D01*
X16752125Y76448043D01*
X16752119Y76448039D01*
X16676961Y76372881D01*
X16676957Y76372875D01*
X16623812Y76280826D01*
X16623812Y76280825D01*
X16623811Y76280823D01*
X16596300Y76178148D01*
X1053700Y76178148D01*
X1053700Y76578148D01*
X17746300Y76578148D01*
X17746300Y76471852D01*
X17773811Y76369177D01*
X17826959Y76277122D01*
X17902122Y76201959D01*
X17994177Y76148811D01*
X18096852Y76121300D01*
X18096854Y76121300D01*
X18203146Y76121300D01*
X18203148Y76121300D01*
X18305823Y76148811D01*
X18397878Y76201959D01*
X18473041Y76277122D01*
X18526189Y76369177D01*
X18553700Y76471852D01*
X18553700Y76483197D01*
X18573385Y76550236D01*
X18590019Y76570878D01*
X18779122Y76759981D01*
X18840445Y76793466D01*
X18866803Y76796300D01*
X19985024Y76796300D01*
X20052063Y76776615D01*
X20097818Y76723811D01*
X20107762Y76654653D01*
X20078737Y76591097D01*
X20057909Y76571982D01*
X20028387Y76550534D01*
X20028381Y76550529D01*
X19879471Y76401619D01*
X19755683Y76231240D01*
X19660071Y76043592D01*
X19594995Y75843309D01*
X19594995Y75843306D01*
X19562050Y75635299D01*
X19562050Y75424702D01*
X19594995Y75216695D01*
X19594995Y75216692D01*
X19660071Y75016409D01*
X19680661Y74976000D01*
X19755683Y74828761D01*
X19879469Y74658384D01*
X20028384Y74509469D01*
X20198761Y74385683D01*
X20386406Y74290073D01*
X20386408Y74290072D01*
X20586692Y74224996D01*
X20586693Y74224996D01*
X20586696Y74224995D01*
X20794701Y74192050D01*
X20794702Y74192050D01*
X21005298Y74192050D01*
X21005299Y74192050D01*
X21213304Y74224995D01*
X21213307Y74224996D01*
X21213308Y74224996D01*
X21413591Y74290072D01*
X21413591Y74290073D01*
X21413594Y74290073D01*
X21601239Y74385683D01*
X21771616Y74509469D01*
X21920531Y74658384D01*
X22044317Y74828761D01*
X22139927Y75016406D01*
X22205005Y75216696D01*
X22237950Y75424701D01*
X22237950Y75635299D01*
X22205005Y75843304D01*
X22205004Y75843308D01*
X22205004Y75843309D01*
X22139928Y76043592D01*
X22086315Y76148813D01*
X22044317Y76231239D01*
X21920531Y76401616D01*
X21771616Y76550531D01*
X21742090Y76571983D01*
X21699425Y76627311D01*
X21693446Y76696925D01*
X21726051Y76758720D01*
X21786890Y76793077D01*
X21814976Y76796300D01*
X24180649Y76796300D01*
X24247688Y76776615D01*
X24293443Y76723811D01*
X24304649Y76672300D01*
X24304649Y76605105D01*
X24332160Y76502430D01*
X24385308Y76410375D01*
X24460471Y76335212D01*
X24552526Y76282064D01*
X24655201Y76254553D01*
X24655202Y76254553D01*
X24661514Y76253722D01*
X24725411Y76225455D01*
X24763882Y76167131D01*
X24764713Y76097266D01*
X24755814Y76074488D01*
X24740071Y76043592D01*
X24674995Y75843309D01*
X24674995Y75843306D01*
X24642050Y75635299D01*
X24642050Y75424702D01*
X24674995Y75216695D01*
X24674995Y75216692D01*
X24740071Y75016409D01*
X24760661Y74976000D01*
X24835683Y74828761D01*
X24959469Y74658384D01*
X25108384Y74509469D01*
X25278761Y74385683D01*
X25466406Y74290073D01*
X25466408Y74290072D01*
X25666692Y74224996D01*
X25666693Y74224996D01*
X25666696Y74224995D01*
X25874701Y74192050D01*
X25874702Y74192050D01*
X26085298Y74192050D01*
X26085299Y74192050D01*
X26293304Y74224995D01*
X26293307Y74224996D01*
X26293308Y74224996D01*
X26493591Y74290072D01*
X26493591Y74290073D01*
X26493594Y74290073D01*
X26681239Y74385683D01*
X26851616Y74509469D01*
X27000531Y74658384D01*
X27124317Y74828761D01*
X27219927Y75016406D01*
X27285005Y75216696D01*
X27317950Y75424701D01*
X27317950Y75635299D01*
X27285005Y75843304D01*
X27285004Y75843308D01*
X27285004Y75843309D01*
X27219928Y76043592D01*
X27166315Y76148813D01*
X27124317Y76231239D01*
X27000531Y76401616D01*
X26851616Y76550531D01*
X26681239Y76674317D01*
X26493591Y76769929D01*
X26293307Y76835005D01*
X26137300Y76859714D01*
X26085299Y76867950D01*
X25874701Y76867950D01*
X25805366Y76856969D01*
X25666694Y76835005D01*
X25666691Y76835005D01*
X25466408Y76769929D01*
X25277255Y76673550D01*
X25260040Y76670318D01*
X25244478Y76662286D01*
X25226417Y76664003D01*
X25208586Y76660654D01*
X25192357Y76667241D01*
X25174922Y76668898D01*
X25160656Y76680107D01*
X25143845Y76686930D01*
X25133628Y76701344D01*
X25119982Y76712066D01*
X25107978Y76737531D01*
X25103797Y76743430D01*
X25102342Y76747627D01*
X25084538Y76814076D01*
X25071467Y76836715D01*
X25067599Y76847877D01*
X25066466Y76871446D01*
X25060902Y76894380D01*
X25064820Y76905701D01*
X25064245Y76917666D01*
X25076035Y76938108D01*
X25083753Y76960407D01*
X25097076Y76976158D01*
X25148041Y77027122D01*
X25201189Y77119177D01*
X25228700Y77221852D01*
X25228700Y77328148D01*
X25220708Y77357976D01*
X25222371Y77427822D01*
X25261533Y77485685D01*
X25325762Y77513189D01*
X25394664Y77501603D01*
X25396758Y77500561D01*
X25406990Y77495347D01*
X25466406Y77465073D01*
X25666692Y77399996D01*
X25666693Y77399996D01*
X25666696Y77399995D01*
X25874701Y77367050D01*
X25874702Y77367050D01*
X26085298Y77367050D01*
X26085299Y77367050D01*
X26293304Y77399995D01*
X26293307Y77399996D01*
X26293308Y77399996D01*
X26493591Y77465072D01*
X26493591Y77465073D01*
X26493594Y77465073D01*
X26681239Y77560683D01*
X26851616Y77684469D01*
X27000531Y77833384D01*
X27124317Y78003761D01*
X27219927Y78191406D01*
X27285005Y78391696D01*
X27317950Y78599701D01*
X27317950Y78810299D01*
X27285005Y79018304D01*
X27285004Y79018308D01*
X27285004Y79018309D01*
X27219928Y79218592D01*
X27180333Y79296301D01*
X27124317Y79406239D01*
X27000531Y79576616D01*
X26851616Y79725531D01*
X26681239Y79849317D01*
X26668464Y79855826D01*
X26493591Y79944929D01*
X26293307Y80010005D01*
X26137300Y80034714D01*
X26085299Y80042950D01*
X25874701Y80042950D01*
X25805366Y80031969D01*
X25666694Y80010005D01*
X25666691Y80010005D01*
X25466408Y79944929D01*
X25278760Y79849317D01*
X25108381Y79725529D01*
X24959471Y79576619D01*
X24835683Y79406240D01*
X24740071Y79218592D01*
X24674995Y79018309D01*
X24674995Y79018306D01*
X24642050Y78810299D01*
X24642050Y78599702D01*
X24674995Y78391695D01*
X24674995Y78391692D01*
X24740071Y78191409D01*
X24835683Y78003761D01*
X24928808Y77875585D01*
X24952288Y77809779D01*
X24936463Y77741725D01*
X24886357Y77693030D01*
X24828490Y77678700D01*
X24771852Y77678700D01*
X24669177Y77651189D01*
X24669175Y77651188D01*
X24669174Y77651188D01*
X24577125Y77598043D01*
X24577119Y77598039D01*
X24570847Y77591766D01*
X24509524Y77558281D01*
X24483166Y77555447D01*
X24324352Y77555447D01*
X24253469Y77536454D01*
X24253462Y77536451D01*
X24189922Y77499767D01*
X24189918Y77499764D01*
X24080175Y77390019D01*
X24018852Y77356534D01*
X23992493Y77353700D01*
X21697984Y77353700D01*
X21630945Y77373385D01*
X21585190Y77426189D01*
X21575246Y77495347D01*
X21604271Y77558903D01*
X21625099Y77578018D01*
X21660212Y77603531D01*
X21771616Y77684469D01*
X21920531Y77833384D01*
X22044317Y78003761D01*
X22139927Y78191406D01*
X22205005Y78391696D01*
X22237950Y78599701D01*
X22237950Y78768611D01*
X22794200Y78768611D01*
X22794200Y78641390D01*
X22819015Y78516635D01*
X22819018Y78516625D01*
X22867697Y78399102D01*
X22867702Y78399093D01*
X22938373Y78293327D01*
X22938376Y78293323D01*
X23028322Y78203377D01*
X23028326Y78203374D01*
X23134092Y78132703D01*
X23134098Y78132700D01*
X23134099Y78132699D01*
X23251627Y78084017D01*
X23376389Y78059201D01*
X23376393Y78059200D01*
X23376394Y78059200D01*
X23503607Y78059200D01*
X23503608Y78059201D01*
X23628373Y78084017D01*
X23745901Y78132699D01*
X23851674Y78203374D01*
X23941626Y78293326D01*
X24012301Y78399099D01*
X24060983Y78516627D01*
X24085800Y78641394D01*
X24085800Y78768606D01*
X24060983Y78893373D01*
X24012301Y79010901D01*
X24012300Y79010902D01*
X24012297Y79010908D01*
X23941626Y79116674D01*
X23941623Y79116678D01*
X23851677Y79206624D01*
X23851673Y79206627D01*
X23745907Y79277298D01*
X23745898Y79277303D01*
X23650081Y79316992D01*
X23628373Y79325983D01*
X23628369Y79325984D01*
X23628365Y79325985D01*
X23503610Y79350800D01*
X23503606Y79350800D01*
X23376394Y79350800D01*
X23376389Y79350800D01*
X23251634Y79325985D01*
X23251624Y79325982D01*
X23134101Y79277303D01*
X23134092Y79277298D01*
X23028326Y79206627D01*
X23028322Y79206624D01*
X22938376Y79116678D01*
X22938373Y79116674D01*
X22867702Y79010908D01*
X22867697Y79010899D01*
X22819018Y78893376D01*
X22819015Y78893366D01*
X22794200Y78768611D01*
X22237950Y78768611D01*
X22237950Y78810299D01*
X22205005Y79018304D01*
X22205004Y79018308D01*
X22205004Y79018309D01*
X22138959Y79221573D01*
X22136964Y79291414D01*
X22173044Y79351247D01*
X22235745Y79382075D01*
X22305159Y79374110D01*
X22318889Y79367279D01*
X22394177Y79323811D01*
X22496852Y79296300D01*
X22496854Y79296300D01*
X22603146Y79296300D01*
X22603148Y79296300D01*
X22705823Y79323811D01*
X22797878Y79376959D01*
X22873041Y79452122D01*
X22926189Y79544177D01*
X22953700Y79646852D01*
X22953700Y79753148D01*
X22926189Y79855823D01*
X22873041Y79947878D01*
X22797878Y80023041D01*
X22705823Y80076189D01*
X22603148Y80103700D01*
X22496852Y80103700D01*
X22394177Y80076189D01*
X22394175Y80076188D01*
X22394174Y80076188D01*
X22302125Y80023043D01*
X22302119Y80023039D01*
X22226961Y79947881D01*
X22226957Y79947875D01*
X22173812Y79855826D01*
X22173812Y79855825D01*
X22146300Y79753148D01*
X22146300Y79647504D01*
X22126615Y79580465D01*
X22073811Y79534710D01*
X22004653Y79524766D01*
X21941097Y79553791D01*
X21921985Y79574615D01*
X21920531Y79576616D01*
X21771616Y79725531D01*
X21601239Y79849317D01*
X21588464Y79855826D01*
X21413591Y79944929D01*
X21213307Y80010005D01*
X21057300Y80034714D01*
X21005299Y80042950D01*
X20794701Y80042950D01*
X20725366Y80031969D01*
X20586694Y80010005D01*
X20586691Y80010005D01*
X20386408Y79944929D01*
X20198760Y79849317D01*
X20028381Y79725529D01*
X19879471Y79576619D01*
X19755683Y79406240D01*
X19660071Y79218592D01*
X19594995Y79018309D01*
X19594995Y79018306D01*
X19562050Y78810299D01*
X19562050Y78599702D01*
X19594995Y78391695D01*
X19594995Y78391692D01*
X19660071Y78191409D01*
X19755683Y78003761D01*
X19879469Y77833384D01*
X20028384Y77684469D01*
X20074190Y77651189D01*
X20174901Y77578018D01*
X20217567Y77522688D01*
X20223546Y77453075D01*
X20190940Y77391280D01*
X20130102Y77356923D01*
X20102016Y77353700D01*
X18663308Y77353700D01*
X18592424Y77334707D01*
X18581066Y77328149D01*
X18581065Y77328148D01*
X18528875Y77298017D01*
X18528872Y77298015D01*
X18476982Y77246124D01*
X18195878Y76965019D01*
X18134555Y76931534D01*
X18108197Y76928700D01*
X18096852Y76928700D01*
X17994177Y76901189D01*
X17994175Y76901188D01*
X17994174Y76901188D01*
X17902125Y76848043D01*
X17902119Y76848039D01*
X17826961Y76772881D01*
X17826957Y76772875D01*
X17773812Y76680826D01*
X17773812Y76680825D01*
X17773811Y76680823D01*
X17746300Y76578148D01*
X1053700Y76578148D01*
X1053700Y78083197D01*
X1073385Y78150236D01*
X1090019Y78170878D01*
X1954122Y79034981D01*
X2015445Y79068466D01*
X2041803Y79071300D01*
X2931419Y79071300D01*
X2998458Y79051615D01*
X3019100Y79034981D01*
X3027122Y79026959D01*
X3119177Y78973811D01*
X3221852Y78946300D01*
X3221854Y78946300D01*
X3328146Y78946300D01*
X3328148Y78946300D01*
X3430823Y78973811D01*
X3522878Y79026959D01*
X3598041Y79102122D01*
X3651189Y79194177D01*
X3678700Y79296852D01*
X3678700Y79403148D01*
X3651189Y79505823D01*
X3598041Y79597878D01*
X3522878Y79673041D01*
X3430823Y79726189D01*
X3328148Y79753700D01*
X3221852Y79753700D01*
X3119177Y79726189D01*
X3119175Y79726188D01*
X3119174Y79726188D01*
X3027125Y79673043D01*
X3027119Y79673039D01*
X3019100Y79665019D01*
X2957777Y79631534D01*
X2931419Y79628700D01*
X1919304Y79628700D01*
X1919288Y79628701D01*
X1911692Y79628701D01*
X1838308Y79628701D01*
X1838305Y79628701D01*
X1767432Y79609710D01*
X1767425Y79609707D01*
X1703874Y79573017D01*
X1703872Y79573015D01*
X662181Y78531323D01*
X600858Y78497838D01*
X531166Y78502822D01*
X475233Y78544694D01*
X450816Y78610158D01*
X450500Y78619004D01*
X450500Y80240245D01*
X452025Y80259630D01*
X457192Y80292256D01*
X469177Y80329143D01*
X479687Y80349770D01*
X502486Y80381149D01*
X518851Y80397514D01*
X550230Y80420313D01*
X570857Y80430823D01*
X607744Y80442808D01*
X640369Y80447975D01*
X659756Y80449500D01*
X697595Y80449500D01*
X11673793Y80449500D01*
X11675681Y80448946D01*
G37*
%TD.AperFunction*%
%TD*%
%TA.AperFunction,Conductor*%
%TO.N,+5V*%
G36*
X5289339Y68830315D02*
G01*
X5335094Y68777511D01*
X5346300Y68726000D01*
X5346300Y68254936D01*
X5346300Y68254934D01*
X5346299Y68254934D01*
X5358117Y68195524D01*
X5358118Y68195521D01*
X5358119Y68195520D01*
X5403140Y68128140D01*
X5470520Y68083119D01*
X5470523Y68083118D01*
X5529933Y68071300D01*
X5529936Y68071300D01*
X7970066Y68071300D01*
X8029476Y68083118D01*
X8029477Y68083119D01*
X8029480Y68083119D01*
X8096860Y68128140D01*
X8141881Y68195520D01*
X8153700Y68254936D01*
X8153700Y68726000D01*
X8173385Y68793039D01*
X8226189Y68838794D01*
X8277700Y68850000D01*
X9126000Y68850000D01*
X9193039Y68830315D01*
X9238794Y68777511D01*
X9250000Y68726000D01*
X9250000Y65824000D01*
X9230315Y65756961D01*
X9177511Y65711206D01*
X9126000Y65700000D01*
X8544998Y65700000D01*
X8479982Y65719091D01*
X8479917Y65718977D01*
X8479448Y65719248D01*
X8477959Y65719685D01*
X8474597Y65722049D01*
X8380825Y65776188D01*
X8380824Y65776189D01*
X8380823Y65776189D01*
X8278148Y65803700D01*
X8171852Y65803700D01*
X8069177Y65776189D01*
X8069175Y65776188D01*
X8069174Y65776188D01*
X7970083Y65718977D01*
X7968844Y65721122D01*
X7915316Y65700430D01*
X7905002Y65700000D01*
X3722281Y65700000D01*
X3655242Y65719685D01*
X3634600Y65736319D01*
X3597880Y65773039D01*
X3597878Y65773041D01*
X3536508Y65808473D01*
X3505825Y65826188D01*
X3505824Y65826189D01*
X3505823Y65826189D01*
X3403148Y65853700D01*
X3296852Y65853700D01*
X3194177Y65826189D01*
X3194175Y65826188D01*
X3194174Y65826188D01*
X3102125Y65773043D01*
X3102119Y65773039D01*
X3065400Y65736319D01*
X3004077Y65702834D01*
X2977719Y65700000D01*
X1199000Y65700000D01*
X1131961Y65719685D01*
X1086206Y65772489D01*
X1075000Y65824000D01*
X1075000Y68726000D01*
X1094685Y68793039D01*
X1147489Y68838794D01*
X1199000Y68850000D01*
X5222300Y68850000D01*
X5289339Y68830315D01*
G37*
%TD.AperFunction*%
%TD*%
%TA.AperFunction,Conductor*%
%TO.N,+3.3V*%
G36*
X17943039Y31280315D02*
G01*
X17988794Y31227511D01*
X18000000Y31176000D01*
X18000000Y29024000D01*
X17980315Y28956961D01*
X17927511Y28911206D01*
X17876000Y28900000D01*
X15924000Y28900000D01*
X15856961Y28919685D01*
X15811206Y28972489D01*
X15800000Y29024000D01*
X15800000Y31176000D01*
X15819685Y31243039D01*
X15872489Y31288794D01*
X15924000Y31300000D01*
X17876000Y31300000D01*
X17943039Y31280315D01*
G37*
%TD.AperFunction*%
%TD*%
%TA.AperFunction,Conductor*%
%TO.N,+3.3V*%
G36*
X1877590Y75083388D02*
G01*
X1894177Y75073811D01*
X1894178Y75073811D01*
X1894179Y75073810D01*
X1945514Y75060056D01*
X1996852Y75046300D01*
X1996854Y75046300D01*
X2103146Y75046300D01*
X2103148Y75046300D01*
X2184121Y75067997D01*
X2205820Y75073810D01*
X2205820Y75073811D01*
X2205823Y75073811D01*
X2222409Y75083388D01*
X2284409Y75100000D01*
X4751000Y75100000D01*
X4818039Y75080315D01*
X4863794Y75027511D01*
X4875000Y74976000D01*
X4875000Y73917434D01*
X4870775Y73885343D01*
X4858800Y73840652D01*
X4858800Y73734353D01*
X4870775Y73689661D01*
X4875000Y73657568D01*
X4875000Y71174000D01*
X4855315Y71106961D01*
X4802511Y71061206D01*
X4751000Y71050000D01*
X1224000Y71050000D01*
X1156961Y71069685D01*
X1111206Y71122489D01*
X1100000Y71174000D01*
X1100000Y74976000D01*
X1119685Y75043039D01*
X1172489Y75088794D01*
X1224000Y75100000D01*
X1815591Y75100000D01*
X1877590Y75083388D01*
G37*
%TD.AperFunction*%
%TD*%
M02*
