%TF.GenerationSoftware,KiCad,Pcbnew,9.0.2*%
%TF.CreationDate,2026-02-15T00:41:27+01:00*%
%TF.ProjectId,BladeCore-M54,426c6164-6543-46f7-9265-2d4d35342e6b,rev?*%
%TF.SameCoordinates,Original*%
%TF.FileFunction,Legend,Bot*%
%TF.FilePolarity,Positive*%
%FSLAX46Y46*%
G04 Gerber Fmt 4.6, Leading zero omitted, Abs format (unit mm)*
G04 Created by KiCad (PCBNEW 9.0.2) date 2026-02-15 00:41:27*
%MOMM*%
%LPD*%
G01*
G04 APERTURE LIST*
G04 Aperture macros list*
%AMRoundRect*
0 Rectangle with rounded corners*
0 $1 Rounding radius*
0 $2 $3 $4 $5 $6 $7 $8 $9 X,Y pos of 4 corners*
0 Add a 4 corners polygon primitive as box body*
4,1,4,$2,$3,$4,$5,$6,$7,$8,$9,$2,$3,0*
0 Add four circle primitives for the rounded corners*
1,1,$1+$1,$2,$3*
1,1,$1+$1,$4,$5*
1,1,$1+$1,$6,$7*
1,1,$1+$1,$8,$9*
0 Add four rect primitives between the rounded corners*
20,1,$1+$1,$2,$3,$4,$5,0*
20,1,$1+$1,$4,$5,$6,$7,0*
20,1,$1+$1,$6,$7,$8,$9,0*
20,1,$1+$1,$8,$9,$2,$3,0*%
G04 Aperture macros list end*
%ADD10C,0.400000*%
%ADD11C,0.150000*%
%ADD12C,0.120000*%
%ADD13C,2.374900*%
%ADD14C,0.990600*%
%ADD15RoundRect,0.050000X-0.175000X-1.250000X0.175000X-1.250000X0.175000X1.250000X-0.175000X1.250000X0*%
%ADD16C,5.500000*%
%ADD17C,0.425000*%
%ADD18RoundRect,0.135000X0.185000X-0.135000X0.185000X0.135000X-0.185000X0.135000X-0.185000X-0.135000X0*%
%ADD19RoundRect,0.140000X-0.170000X0.140000X-0.170000X-0.140000X0.170000X-0.140000X0.170000X0.140000X0*%
%ADD20RoundRect,0.140000X0.170000X-0.140000X0.170000X0.140000X-0.170000X0.140000X-0.170000X-0.140000X0*%
%ADD21RoundRect,0.140000X-0.140000X-0.170000X0.140000X-0.170000X0.140000X0.170000X-0.140000X0.170000X0*%
%ADD22RoundRect,0.140000X0.140000X0.170000X-0.140000X0.170000X-0.140000X-0.170000X0.140000X-0.170000X0*%
%ADD23RoundRect,0.135000X-0.185000X0.135000X-0.185000X-0.135000X0.185000X-0.135000X0.185000X0.135000X0*%
G04 APERTURE END LIST*
D10*
G36*
X26904233Y25322596D02*
G01*
X26943134Y25283695D01*
X27013180Y25073558D01*
X27013180Y24639348D01*
X26365561Y24639348D01*
X26365561Y25154040D01*
X26425171Y25273259D01*
X26474509Y25322596D01*
X26593727Y25382205D01*
X26785015Y25382205D01*
X26904233Y25322596D01*
G37*
G36*
X27856614Y25227358D02*
G01*
X27905952Y25178020D01*
X27965561Y25058802D01*
X27965561Y24639348D01*
X27413180Y24639348D01*
X27413180Y25058802D01*
X27472790Y25178021D01*
X27522128Y25227358D01*
X27641346Y25286967D01*
X27737396Y25286967D01*
X27856614Y25227358D01*
G37*
G36*
X27533104Y28439348D02*
G01*
X26936990Y28240644D01*
X26936990Y28638053D01*
X27533104Y28439348D01*
G37*
G36*
X27619564Y30631598D02*
G01*
X27761376Y30560692D01*
X27895516Y30426551D01*
X27965561Y30216417D01*
X27965561Y29972682D01*
X26365561Y29972682D01*
X26365561Y30216416D01*
X26435605Y30426551D01*
X26569748Y30560693D01*
X26711555Y30631596D01*
X27047327Y30715539D01*
X27283796Y30715539D01*
X27619564Y30631598D01*
G37*
G36*
X27777597Y36544471D02*
G01*
X27905952Y36416115D01*
X27965561Y36296898D01*
X27965561Y36010371D01*
X27905952Y35891155D01*
X27777597Y35762799D01*
X27474272Y35686968D01*
X26856851Y35686968D01*
X26553525Y35762800D01*
X26425171Y35891153D01*
X26365561Y36010372D01*
X26365561Y36296898D01*
X26425171Y36416117D01*
X26553525Y36544470D01*
X26856851Y36620301D01*
X27474272Y36620301D01*
X27777597Y36544471D01*
G37*
G36*
X27856614Y38560692D02*
G01*
X27905952Y38511354D01*
X27965561Y38392136D01*
X27965561Y37877444D01*
X27317942Y37877444D01*
X27317942Y38392136D01*
X27377550Y38511353D01*
X27426891Y38560693D01*
X27546108Y38620301D01*
X27737396Y38620301D01*
X27856614Y38560692D01*
G37*
G36*
X28681452Y24017126D02*
G01*
X25743339Y24017126D01*
X25743339Y25201253D01*
X25965561Y25201253D01*
X25965561Y24439348D01*
X25969404Y24400330D01*
X25999267Y24328234D01*
X26054447Y24273054D01*
X26126543Y24243191D01*
X26165561Y24239348D01*
X28165561Y24239348D01*
X28204579Y24243191D01*
X28276675Y24273054D01*
X28331855Y24328234D01*
X28361718Y24400330D01*
X28365561Y24439348D01*
X28365561Y25106015D01*
X28361718Y25145033D01*
X28358968Y25151671D01*
X28358459Y25158840D01*
X28344447Y25195457D01*
X28249208Y25385934D01*
X28238638Y25402726D01*
X28236617Y25407605D01*
X28232109Y25413098D01*
X28228322Y25419114D01*
X28224330Y25422576D01*
X28211744Y25437912D01*
X28116506Y25533150D01*
X28101170Y25545737D01*
X28097708Y25549728D01*
X28091691Y25553516D01*
X28086199Y25558023D01*
X28081319Y25560045D01*
X28064528Y25570614D01*
X27874052Y25665852D01*
X27837434Y25679865D01*
X27830264Y25680375D01*
X27823627Y25683124D01*
X27784609Y25686967D01*
X27594133Y25686967D01*
X27555115Y25683124D01*
X27548477Y25680375D01*
X27541308Y25679865D01*
X27504691Y25665853D01*
X27314214Y25570614D01*
X27297422Y25560045D01*
X27292543Y25558023D01*
X27287050Y25553516D01*
X27281034Y25549728D01*
X27277572Y25545737D01*
X27262236Y25533150D01*
X27260658Y25531573D01*
X27259363Y25533150D01*
X27164125Y25628388D01*
X27148789Y25640975D01*
X27145327Y25644966D01*
X27139310Y25648754D01*
X27133818Y25653261D01*
X27128938Y25655283D01*
X27112147Y25665852D01*
X26921671Y25761090D01*
X26885053Y25775103D01*
X26877883Y25775613D01*
X26871246Y25778362D01*
X26832228Y25782205D01*
X26546514Y25782205D01*
X26507496Y25778362D01*
X26500858Y25775613D01*
X26493689Y25775103D01*
X26457072Y25761091D01*
X26266595Y25665852D01*
X26249803Y25655283D01*
X26244924Y25653261D01*
X26239431Y25648754D01*
X26233415Y25644966D01*
X26229953Y25640975D01*
X26214617Y25628388D01*
X26119379Y25533150D01*
X26106790Y25517812D01*
X26102802Y25514352D01*
X26099017Y25508341D01*
X26094506Y25502843D01*
X26092483Y25497962D01*
X26081915Y25481172D01*
X25986676Y25290696D01*
X25972664Y25254079D01*
X25972154Y25246912D01*
X25969404Y25240271D01*
X25965561Y25201253D01*
X25743339Y25201253D01*
X25743339Y27391729D01*
X25965561Y27391729D01*
X25965561Y26439348D01*
X25969404Y26400330D01*
X25999267Y26328234D01*
X26054447Y26273054D01*
X26126543Y26243191D01*
X26165561Y26239348D01*
X28165561Y26239348D01*
X28204579Y26243191D01*
X28276675Y26273054D01*
X28331855Y26328234D01*
X28361718Y26400330D01*
X28361718Y26478366D01*
X28331855Y26550462D01*
X28276675Y26605642D01*
X28204579Y26635505D01*
X28165561Y26639348D01*
X26365561Y26639348D01*
X26365561Y27391729D01*
X26361718Y27430747D01*
X26331855Y27502843D01*
X26276675Y27558023D01*
X26220865Y27581140D01*
X26228806Y27582945D01*
X28228807Y28249611D01*
X28264607Y28265596D01*
X28275401Y28274958D01*
X28288184Y28281349D01*
X28304614Y28300295D01*
X28323560Y28316725D01*
X28329951Y28329508D01*
X28339313Y28340302D01*
X28347242Y28364089D01*
X28358459Y28386523D01*
X28359472Y28400780D01*
X28363990Y28414333D01*
X28362212Y28439341D01*
X28363991Y28464363D01*
X28359470Y28477924D01*
X28358458Y28492173D01*
X28347244Y28514601D01*
X28339313Y28538394D01*
X28329951Y28549189D01*
X28323560Y28561971D01*
X28304614Y28578402D01*
X28288184Y28597347D01*
X28275401Y28603739D01*
X28264607Y28613100D01*
X28228806Y28629085D01*
X26228807Y29295752D01*
X26190576Y29304444D01*
X26112736Y29298913D01*
X26042938Y29264014D01*
X25991809Y29205061D01*
X25967132Y29131030D01*
X25972663Y29053190D01*
X26007562Y28983392D01*
X26066515Y28932263D01*
X26102315Y28916278D01*
X26536990Y28771387D01*
X26536990Y28107311D01*
X26102316Y27962419D01*
X26066515Y27946434D01*
X26007562Y27895305D01*
X25972663Y27825507D01*
X25967132Y27747667D01*
X25991809Y27673636D01*
X26042938Y27614683D01*
X26110129Y27581088D01*
X26054447Y27558023D01*
X25999267Y27502843D01*
X25969404Y27430747D01*
X25965561Y27391729D01*
X25743339Y27391729D01*
X25743339Y30248872D01*
X25965561Y30248872D01*
X25965561Y29772682D01*
X25969404Y29733664D01*
X25999267Y29661568D01*
X26054447Y29606388D01*
X26126543Y29576525D01*
X26165561Y29572682D01*
X28165561Y29572682D01*
X28204579Y29576525D01*
X28276675Y29606388D01*
X28331855Y29661568D01*
X28361718Y29733664D01*
X28365561Y29772682D01*
X28365561Y30248872D01*
X28363615Y30268621D01*
X28363990Y30273886D01*
X28362414Y30280814D01*
X28361718Y30287890D01*
X28359696Y30292771D01*
X28355298Y30312117D01*
X28260060Y30597832D01*
X28244075Y30633633D01*
X28239367Y30639062D01*
X28236617Y30645701D01*
X28211745Y30676008D01*
X28021268Y30866484D01*
X28005932Y30879071D01*
X28002470Y30883062D01*
X27996453Y30886850D01*
X27990961Y30891357D01*
X27986081Y30893379D01*
X27969290Y30903948D01*
X27778814Y30999186D01*
X27775958Y31000279D01*
X27774799Y31001138D01*
X27758424Y31006989D01*
X27742196Y31013199D01*
X27740757Y31013302D01*
X27737878Y31014330D01*
X27356926Y31109568D01*
X27350159Y31110569D01*
X27347437Y31111696D01*
X27332742Y31113144D01*
X27318141Y31115302D01*
X27315227Y31114869D01*
X27308419Y31115539D01*
X27022704Y31115539D01*
X27015895Y31114869D01*
X27012982Y31115302D01*
X26998388Y31113145D01*
X26983686Y31111696D01*
X26980960Y31110568D01*
X26974197Y31109567D01*
X26593245Y31014330D01*
X26590365Y31013302D01*
X26588927Y31013199D01*
X26572687Y31006985D01*
X26556324Y31001138D01*
X26555165Y31000280D01*
X26552310Y30999187D01*
X26361833Y30903948D01*
X26345041Y30893379D01*
X26340162Y30891357D01*
X26334668Y30886849D01*
X26328653Y30883062D01*
X26325192Y30879073D01*
X26309855Y30866485D01*
X26119379Y30676008D01*
X26094506Y30645701D01*
X26091755Y30639062D01*
X26087048Y30633633D01*
X26071063Y30597833D01*
X25975824Y30312118D01*
X25971424Y30292769D01*
X25969404Y30287890D01*
X25968707Y30280816D01*
X25967132Y30273887D01*
X25967506Y30268622D01*
X25965561Y30248872D01*
X25743339Y30248872D01*
X25743339Y32725063D01*
X25965561Y32725063D01*
X25965561Y31772682D01*
X25969404Y31733664D01*
X25999267Y31661568D01*
X26054447Y31606388D01*
X26126543Y31576525D01*
X26165561Y31572682D01*
X28165561Y31572682D01*
X28204579Y31576525D01*
X28276675Y31606388D01*
X28331855Y31661568D01*
X28361718Y31733664D01*
X28365561Y31772682D01*
X28365561Y32725063D01*
X28361718Y32764081D01*
X28331855Y32836177D01*
X28276675Y32891357D01*
X28204579Y32921220D01*
X28126543Y32921220D01*
X28054447Y32891357D01*
X27999267Y32836177D01*
X27969404Y32764081D01*
X27965561Y32725063D01*
X27965561Y31972682D01*
X27413180Y31972682D01*
X27413180Y32439349D01*
X27409337Y32478367D01*
X27379474Y32550463D01*
X27324294Y32605643D01*
X27252198Y32635506D01*
X27174162Y32635506D01*
X27102066Y32605643D01*
X27046886Y32550463D01*
X27017023Y32478367D01*
X27013180Y32439349D01*
X27013180Y31972682D01*
X26365561Y31972682D01*
X26365561Y32725063D01*
X26361718Y32764081D01*
X26331855Y32836177D01*
X26276675Y32891357D01*
X26204579Y32921220D01*
X26126543Y32921220D01*
X26054447Y32891357D01*
X25999267Y32836177D01*
X25969404Y32764081D01*
X25965561Y32725063D01*
X25743339Y32725063D01*
X25743339Y34344111D01*
X25965561Y34344111D01*
X25965561Y34153635D01*
X25967506Y34133886D01*
X25967132Y34128620D01*
X25968707Y34121692D01*
X25969404Y34114617D01*
X25971424Y34109739D01*
X25975824Y34090389D01*
X26071063Y33804674D01*
X26087048Y33768874D01*
X26091755Y33763446D01*
X26094506Y33756806D01*
X26119379Y33726499D01*
X26309855Y33536022D01*
X26325192Y33523435D01*
X26328653Y33519445D01*
X26334668Y33515659D01*
X26340162Y33511150D01*
X26345041Y33509129D01*
X26361833Y33498559D01*
X26552310Y33403320D01*
X26555165Y33402228D01*
X26556324Y33401369D01*
X26572687Y33395523D01*
X26588927Y33389308D01*
X26590365Y33389206D01*
X26593245Y33388177D01*
X26974197Y33292940D01*
X26980960Y33291940D01*
X26983686Y33290811D01*
X26998388Y33289363D01*
X27012982Y33287205D01*
X27015895Y33287639D01*
X27022704Y33286968D01*
X27308419Y33286968D01*
X27315227Y33287639D01*
X27318141Y33287205D01*
X27332742Y33289364D01*
X27347437Y33290811D01*
X27350159Y33291939D01*
X27356926Y33292939D01*
X27737878Y33388177D01*
X27740757Y33389206D01*
X27742196Y33389308D01*
X27758424Y33395519D01*
X27774799Y33401369D01*
X27775958Y33402229D01*
X27778814Y33403321D01*
X27969290Y33498559D01*
X27986081Y33509129D01*
X27990961Y33511150D01*
X27996453Y33515658D01*
X28002470Y33519445D01*
X28005932Y33523437D01*
X28021268Y33536023D01*
X28211745Y33726499D01*
X28236617Y33756806D01*
X28239367Y33763446D01*
X28244075Y33768874D01*
X28260060Y33804675D01*
X28355298Y34090390D01*
X28359696Y34109737D01*
X28361718Y34114617D01*
X28362414Y34121694D01*
X28363990Y34128621D01*
X28363615Y34133887D01*
X28365561Y34153635D01*
X28365561Y34344111D01*
X28363615Y34363861D01*
X28363990Y34369126D01*
X28362414Y34376055D01*
X28361718Y34383129D01*
X28359697Y34388008D01*
X28355298Y34407357D01*
X28260060Y34693071D01*
X28244075Y34728871D01*
X28239367Y34734300D01*
X28236617Y34740939D01*
X28211744Y34771246D01*
X28116506Y34866484D01*
X28086199Y34891357D01*
X28014103Y34921220D01*
X27936067Y34921220D01*
X27863971Y34891357D01*
X27808791Y34836177D01*
X27778928Y34764081D01*
X27778928Y34686045D01*
X27808791Y34613949D01*
X27833664Y34583642D01*
X27895515Y34521791D01*
X27965561Y34311654D01*
X27965561Y34186091D01*
X27895516Y33975957D01*
X27761376Y33841816D01*
X27619564Y33770910D01*
X27283796Y33686968D01*
X27047327Y33686968D01*
X26711555Y33770911D01*
X26569748Y33841815D01*
X26435605Y33975957D01*
X26365561Y34186092D01*
X26365561Y34311657D01*
X26435605Y34521789D01*
X26497459Y34583642D01*
X26522332Y34613949D01*
X26552195Y34686045D01*
X26552195Y34764081D01*
X26522332Y34836177D01*
X26467152Y34891357D01*
X26395056Y34921220D01*
X26317020Y34921220D01*
X26244924Y34891357D01*
X26214617Y34866484D01*
X26119379Y34771246D01*
X26094506Y34740939D01*
X26091755Y34734300D01*
X26087048Y34728871D01*
X26071063Y34693071D01*
X25975825Y34407357D01*
X25971425Y34388011D01*
X25969404Y34383129D01*
X25968707Y34376053D01*
X25967132Y34369126D01*
X25967506Y34363861D01*
X25965561Y34344111D01*
X25743339Y34344111D01*
X25743339Y36344111D01*
X25965561Y36344111D01*
X25965561Y35963158D01*
X25969404Y35924140D01*
X25972154Y35917500D01*
X25972664Y35910332D01*
X25986676Y35873715D01*
X26081915Y35683239D01*
X26092483Y35666450D01*
X26094506Y35661568D01*
X26099017Y35656071D01*
X26102802Y35650059D01*
X26106790Y35646600D01*
X26119379Y35631261D01*
X26309855Y35440784D01*
X26340162Y35415912D01*
X26353900Y35410222D01*
X26365848Y35401369D01*
X26402769Y35388177D01*
X26783721Y35292940D01*
X26790484Y35291940D01*
X26793210Y35290811D01*
X26807912Y35289363D01*
X26822506Y35287205D01*
X26825419Y35287639D01*
X26832228Y35286968D01*
X27498895Y35286968D01*
X27505703Y35287639D01*
X27508617Y35287205D01*
X27523218Y35289364D01*
X27537913Y35290811D01*
X27540635Y35291939D01*
X27547402Y35292939D01*
X27928354Y35388177D01*
X27965275Y35401369D01*
X27977222Y35410222D01*
X27990961Y35415912D01*
X28021268Y35440785D01*
X28211745Y35631261D01*
X28224332Y35646599D01*
X28228322Y35650059D01*
X28232108Y35656075D01*
X28236617Y35661568D01*
X28238638Y35666448D01*
X28249208Y35683239D01*
X28344447Y35873716D01*
X28358459Y35910333D01*
X28358968Y35917503D01*
X28361718Y35924140D01*
X28365561Y35963158D01*
X28365561Y36344111D01*
X28361718Y36383129D01*
X28358968Y36389767D01*
X28358459Y36396936D01*
X28344447Y36433553D01*
X28249208Y36624030D01*
X28238638Y36640822D01*
X28236617Y36645701D01*
X28232108Y36651195D01*
X28228322Y36657210D01*
X28224332Y36660671D01*
X28211745Y36676008D01*
X28021268Y36866484D01*
X27990961Y36891357D01*
X27977222Y36897048D01*
X27965275Y36905900D01*
X27928354Y36919092D01*
X27547402Y37014330D01*
X27540635Y37015331D01*
X27537913Y37016458D01*
X27523218Y37017906D01*
X27508617Y37020064D01*
X27505703Y37019631D01*
X27498895Y37020301D01*
X26832228Y37020301D01*
X26825419Y37019631D01*
X26822506Y37020064D01*
X26807912Y37017907D01*
X26793210Y37016458D01*
X26790484Y37015330D01*
X26783721Y37014329D01*
X26402769Y36919092D01*
X26365848Y36905900D01*
X26353900Y36897048D01*
X26340162Y36891357D01*
X26309855Y36866485D01*
X26119379Y36676008D01*
X26106790Y36660670D01*
X26102802Y36657210D01*
X26099017Y36651199D01*
X26094506Y36645701D01*
X26092483Y36640820D01*
X26081915Y36624030D01*
X25986676Y36433554D01*
X25972664Y36396937D01*
X25972154Y36389770D01*
X25969404Y36383129D01*
X25965561Y36344111D01*
X25743339Y36344111D01*
X25743339Y38824636D01*
X25965608Y38824636D01*
X25979170Y38747787D01*
X26021108Y38681978D01*
X26050868Y38656455D01*
X26917942Y38049503D01*
X26917942Y37877444D01*
X26165561Y37877444D01*
X26126543Y37873601D01*
X26054447Y37843738D01*
X25999267Y37788558D01*
X25969404Y37716462D01*
X25969404Y37638426D01*
X25999267Y37566330D01*
X26054447Y37511150D01*
X26126543Y37481287D01*
X26165561Y37477444D01*
X28165561Y37477444D01*
X28204579Y37481287D01*
X28276675Y37511150D01*
X28331855Y37566330D01*
X28361718Y37638426D01*
X28365561Y37677444D01*
X28365561Y38439349D01*
X28361718Y38478367D01*
X28358968Y38485005D01*
X28358459Y38492174D01*
X28344447Y38528791D01*
X28249208Y38719268D01*
X28238638Y38736060D01*
X28236617Y38740939D01*
X28232109Y38746432D01*
X28228322Y38752448D01*
X28224330Y38755910D01*
X28211744Y38771246D01*
X28116506Y38866484D01*
X28101170Y38879071D01*
X28097708Y38883062D01*
X28091691Y38886850D01*
X28086199Y38891357D01*
X28081319Y38893379D01*
X28064528Y38903948D01*
X27874052Y38999186D01*
X27837434Y39013199D01*
X27830264Y39013709D01*
X27823627Y39016458D01*
X27784609Y39020301D01*
X27498895Y39020301D01*
X27459877Y39016458D01*
X27453239Y39013709D01*
X27446070Y39013199D01*
X27409453Y38999187D01*
X27218976Y38903948D01*
X27202187Y38893380D01*
X27197306Y38891358D01*
X27191811Y38886849D01*
X27185796Y38883062D01*
X27182334Y38879072D01*
X27166999Y38866485D01*
X27071759Y38771247D01*
X27059171Y38755910D01*
X27055181Y38752448D01*
X27051393Y38746432D01*
X27046887Y38740940D01*
X27044866Y38736062D01*
X27034295Y38719268D01*
X26939057Y38528792D01*
X26937304Y38524212D01*
X26280254Y38984147D01*
X26246085Y39003374D01*
X26169896Y39020254D01*
X26093047Y39006692D01*
X26027238Y38964754D01*
X25982488Y38900825D01*
X25965608Y38824636D01*
X25743339Y38824636D01*
X25743339Y40629825D01*
X25965561Y40629825D01*
X25965561Y39677444D01*
X25969404Y39638426D01*
X25999267Y39566330D01*
X26054447Y39511150D01*
X26126543Y39481287D01*
X26165561Y39477444D01*
X28165561Y39477444D01*
X28204579Y39481287D01*
X28276675Y39511150D01*
X28331855Y39566330D01*
X28361718Y39638426D01*
X28365561Y39677444D01*
X28365561Y40629825D01*
X28361718Y40668843D01*
X28331855Y40740939D01*
X28276675Y40796119D01*
X28204579Y40825982D01*
X28126543Y40825982D01*
X28054447Y40796119D01*
X27999267Y40740939D01*
X27969404Y40668843D01*
X27965561Y40629825D01*
X27965561Y39877444D01*
X27413180Y39877444D01*
X27413180Y40344111D01*
X27409337Y40383129D01*
X27379474Y40455225D01*
X27324294Y40510405D01*
X27252198Y40540268D01*
X27174162Y40540268D01*
X27102066Y40510405D01*
X27046886Y40455225D01*
X27017023Y40383129D01*
X27013180Y40344111D01*
X27013180Y39877444D01*
X26365561Y39877444D01*
X26365561Y40629825D01*
X26361718Y40668843D01*
X26331855Y40740939D01*
X26276675Y40796119D01*
X26204579Y40825982D01*
X26126543Y40825982D01*
X26054447Y40796119D01*
X25999267Y40740939D01*
X25969404Y40668843D01*
X25965561Y40629825D01*
X25743339Y40629825D01*
X25743339Y43010777D01*
X26727466Y43010777D01*
X26727466Y41486968D01*
X26731309Y41447950D01*
X26761172Y41375854D01*
X26816352Y41320674D01*
X26888448Y41290811D01*
X26966484Y41290811D01*
X27038580Y41320674D01*
X27093760Y41375854D01*
X27123623Y41447950D01*
X27127466Y41486968D01*
X27127466Y43010777D01*
X27123623Y43049795D01*
X27093760Y43121891D01*
X27038580Y43177071D01*
X26966484Y43206934D01*
X26888448Y43206934D01*
X26816352Y43177071D01*
X26761172Y43121891D01*
X26731309Y43049795D01*
X26727466Y43010777D01*
X25743339Y43010777D01*
X25743339Y45335509D01*
X25969404Y45335509D01*
X25969404Y45257473D01*
X25999267Y45185377D01*
X26054447Y45130197D01*
X26126543Y45100334D01*
X26165561Y45096491D01*
X27264047Y45096491D01*
X26652413Y44811062D01*
X26638124Y44802598D01*
X26633286Y44800838D01*
X26629863Y44797704D01*
X26618681Y44791079D01*
X26598152Y44768663D01*
X26575736Y44748134D01*
X26571978Y44740083D01*
X26565977Y44733529D01*
X26555589Y44704964D01*
X26542736Y44677420D01*
X26542345Y44668543D01*
X26539309Y44660191D01*
X26540643Y44629826D01*
X26539309Y44599459D01*
X26542345Y44591108D01*
X26542736Y44582231D01*
X26555588Y44554690D01*
X26565977Y44526121D01*
X26571978Y44519568D01*
X26575736Y44511516D01*
X26598152Y44490988D01*
X26618681Y44468571D01*
X26629863Y44461947D01*
X26633286Y44458812D01*
X26638124Y44457053D01*
X26652413Y44448588D01*
X27264048Y44163158D01*
X26165561Y44163158D01*
X26126543Y44159315D01*
X26054447Y44129452D01*
X25999267Y44074272D01*
X25969404Y44002176D01*
X25969404Y43924140D01*
X25999267Y43852044D01*
X26054447Y43796864D01*
X26126543Y43767001D01*
X26165561Y43763158D01*
X28165561Y43763158D01*
X28191210Y43765685D01*
X28195927Y43765477D01*
X28198460Y43766399D01*
X28204579Y43767001D01*
X28236645Y43780284D01*
X28269266Y43792145D01*
X28272555Y43795158D01*
X28276675Y43796864D01*
X28301211Y43821401D01*
X28326815Y43844848D01*
X28328701Y43848891D01*
X28331855Y43852044D01*
X28345132Y43884100D01*
X28359816Y43915563D01*
X28360011Y43920022D01*
X28361718Y43924140D01*
X28361718Y43958832D01*
X28363243Y43993524D01*
X28361718Y43997718D01*
X28361718Y44002176D01*
X28348437Y44034238D01*
X28336574Y44066862D01*
X28333561Y44070152D01*
X28331855Y44074272D01*
X28307313Y44098814D01*
X28283871Y44124412D01*
X28278582Y44127545D01*
X28276675Y44129452D01*
X28272311Y44131260D01*
X28250138Y44144394D01*
X27209931Y44629825D01*
X28250138Y45115254D01*
X28272310Y45128390D01*
X28276675Y45130197D01*
X28278582Y45132105D01*
X28283870Y45135237D01*
X28307312Y45160835D01*
X28331855Y45185377D01*
X28333561Y45189497D01*
X28336574Y45192786D01*
X28348436Y45225410D01*
X28361718Y45257473D01*
X28361718Y45261933D01*
X28363242Y45266124D01*
X28361718Y45300794D01*
X28361718Y45335509D01*
X28360010Y45339631D01*
X28359815Y45344085D01*
X28345141Y45375530D01*
X28331855Y45407605D01*
X28328700Y45410760D01*
X28326815Y45414800D01*
X28301222Y45438238D01*
X28276675Y45462785D01*
X28272553Y45464492D01*
X28269265Y45467504D01*
X28236649Y45479364D01*
X28204579Y45492648D01*
X28198460Y45493251D01*
X28195927Y45494172D01*
X28191210Y45493965D01*
X28165561Y45496491D01*
X26165561Y45496491D01*
X26126543Y45492648D01*
X26054447Y45462785D01*
X25999267Y45407605D01*
X25969404Y45335509D01*
X25743339Y45335509D01*
X25743339Y46915539D01*
X25965561Y46915539D01*
X25965561Y46439348D01*
X25969404Y46400330D01*
X25972154Y46393690D01*
X25972664Y46386522D01*
X25986676Y46349905D01*
X26081915Y46159429D01*
X26092483Y46142640D01*
X26094506Y46137758D01*
X26099017Y46132261D01*
X26102802Y46126249D01*
X26106790Y46122790D01*
X26119379Y46107451D01*
X26214617Y46012213D01*
X26244924Y45987340D01*
X26317020Y45957477D01*
X26395056Y45957477D01*
X26467152Y45987340D01*
X26522332Y46042520D01*
X26552195Y46114616D01*
X26552195Y46192652D01*
X26522332Y46264748D01*
X26497459Y46295055D01*
X26425171Y46367343D01*
X26365561Y46486562D01*
X26365561Y46868326D01*
X26425171Y46987545D01*
X26474509Y47036882D01*
X26593727Y47096491D01*
X26975491Y47096491D01*
X27094708Y47036882D01*
X27144048Y46987544D01*
X27203657Y46868326D01*
X27203657Y46486561D01*
X27144048Y46367344D01*
X27071759Y46295056D01*
X27046887Y46264749D01*
X27043033Y46255446D01*
X27036655Y46247650D01*
X27028210Y46219661D01*
X27017023Y46192653D01*
X27017023Y46182582D01*
X27014114Y46172940D01*
X27017023Y46143851D01*
X27017023Y46114617D01*
X27020876Y46105314D01*
X27021879Y46095291D01*
X27035699Y46069528D01*
X27046886Y46042521D01*
X27054007Y46035400D01*
X27058768Y46026525D01*
X27081393Y46008013D01*
X27102065Y45987341D01*
X27111368Y45983488D01*
X27119164Y45977109D01*
X27147153Y45968665D01*
X27174161Y45957477D01*
X27184232Y45957477D01*
X27193874Y45954568D01*
X27233081Y45954627D01*
X28185462Y46049865D01*
X28199679Y46052715D01*
X28204579Y46052715D01*
X28209173Y46054619D01*
X28223904Y46057571D01*
X28249663Y46071390D01*
X28276675Y46082578D01*
X28283797Y46089701D01*
X28292670Y46094460D01*
X28311180Y46117084D01*
X28331855Y46137758D01*
X28335708Y46147062D01*
X28342086Y46154856D01*
X28350530Y46182846D01*
X28361718Y46209854D01*
X28363190Y46224806D01*
X28364627Y46229566D01*
X28364139Y46234441D01*
X28365561Y46248872D01*
X28365561Y47201253D01*
X28361718Y47240271D01*
X28331855Y47312367D01*
X28276675Y47367547D01*
X28204579Y47397410D01*
X28126543Y47397410D01*
X28054447Y47367547D01*
X27999267Y47312367D01*
X27969404Y47240271D01*
X27965561Y47201253D01*
X27965561Y46429870D01*
X27597016Y46393015D01*
X27597064Y46393693D01*
X27599814Y46400330D01*
X27603657Y46439348D01*
X27603657Y46915539D01*
X27599814Y46954557D01*
X27597064Y46961195D01*
X27596555Y46968364D01*
X27582543Y47004981D01*
X27487304Y47195458D01*
X27476735Y47212248D01*
X27474713Y47217130D01*
X27470202Y47222627D01*
X27466418Y47228638D01*
X27462429Y47232098D01*
X27449840Y47247437D01*
X27354601Y47342675D01*
X27339264Y47355261D01*
X27335803Y47359252D01*
X27329784Y47363041D01*
X27324293Y47367547D01*
X27319416Y47369567D01*
X27302623Y47380138D01*
X27112147Y47475376D01*
X27075529Y47489389D01*
X27068359Y47489899D01*
X27061722Y47492648D01*
X27022704Y47496491D01*
X26546514Y47496491D01*
X26507496Y47492648D01*
X26500858Y47489899D01*
X26493689Y47489389D01*
X26457072Y47475377D01*
X26266595Y47380138D01*
X26249803Y47369569D01*
X26244924Y47367547D01*
X26239431Y47363040D01*
X26233415Y47359252D01*
X26229953Y47355261D01*
X26214617Y47342674D01*
X26119379Y47247436D01*
X26106790Y47232098D01*
X26102802Y47228638D01*
X26099017Y47222627D01*
X26094506Y47217129D01*
X26092483Y47212248D01*
X26081915Y47195458D01*
X25986676Y47004982D01*
X25972664Y46968365D01*
X25972154Y46961198D01*
X25969404Y46954557D01*
X25965561Y46915539D01*
X25743339Y46915539D01*
X25743339Y49049795D01*
X25969404Y49049795D01*
X25969404Y48971759D01*
X25999267Y48899663D01*
X26054447Y48844483D01*
X26126543Y48814620D01*
X26165561Y48810777D01*
X26632228Y48810777D01*
X26632228Y48058396D01*
X26634173Y48038648D01*
X26633799Y48033382D01*
X26635066Y48029581D01*
X26636071Y48019378D01*
X26648340Y47989756D01*
X26658476Y47959350D01*
X26663183Y47953922D01*
X26665934Y47947282D01*
X26688601Y47924615D01*
X26709605Y47900397D01*
X26716033Y47897183D01*
X26721114Y47892102D01*
X26750727Y47879836D01*
X26779403Y47865498D01*
X26786571Y47864989D01*
X26793210Y47862239D01*
X26825268Y47862239D01*
X26857242Y47859967D01*
X26867235Y47862239D01*
X26871246Y47862239D01*
X26876126Y47864261D01*
X26895473Y47868659D01*
X28324046Y48344849D01*
X28359846Y48360834D01*
X28418799Y48411963D01*
X28453698Y48481761D01*
X28459230Y48559601D01*
X28434552Y48633632D01*
X28383423Y48692585D01*
X28313625Y48727484D01*
X28235786Y48733015D01*
X28197555Y48724323D01*
X27032228Y48335882D01*
X27032228Y48810777D01*
X27498895Y48810777D01*
X27537913Y48814620D01*
X27610009Y48844483D01*
X27665189Y48899663D01*
X27695052Y48971759D01*
X27695052Y49049795D01*
X27665189Y49121891D01*
X27610009Y49177071D01*
X27537913Y49206934D01*
X27498895Y49210777D01*
X27032228Y49210777D01*
X27032228Y49296491D01*
X27028385Y49335509D01*
X26998522Y49407605D01*
X26943342Y49462785D01*
X26871246Y49492648D01*
X26793210Y49492648D01*
X26721114Y49462785D01*
X26665934Y49407605D01*
X26636071Y49335509D01*
X26632228Y49296491D01*
X26632228Y49210777D01*
X26165561Y49210777D01*
X26126543Y49206934D01*
X26054447Y49177071D01*
X25999267Y49121891D01*
X25969404Y49049795D01*
X25743339Y49049795D01*
X25743339Y49714870D01*
X28681452Y49714870D01*
X28681452Y24017126D01*
G37*
D11*
X13462295Y13664286D02*
X13081342Y13930953D01*
X13462295Y14121429D02*
X12662295Y14121429D01*
X12662295Y14121429D02*
X12662295Y13816667D01*
X12662295Y13816667D02*
X12700390Y13740477D01*
X12700390Y13740477D02*
X12738485Y13702382D01*
X12738485Y13702382D02*
X12814676Y13664286D01*
X12814676Y13664286D02*
X12928961Y13664286D01*
X12928961Y13664286D02*
X13005152Y13702382D01*
X13005152Y13702382D02*
X13043247Y13740477D01*
X13043247Y13740477D02*
X13081342Y13816667D01*
X13081342Y13816667D02*
X13081342Y14121429D01*
X12928961Y12978572D02*
X13462295Y12978572D01*
X12624200Y13169048D02*
X13195628Y13359525D01*
X13195628Y13359525D02*
X13195628Y12864286D01*
X13005152Y12445239D02*
X12967057Y12521429D01*
X12967057Y12521429D02*
X12928961Y12559524D01*
X12928961Y12559524D02*
X12852771Y12597620D01*
X12852771Y12597620D02*
X12814676Y12597620D01*
X12814676Y12597620D02*
X12738485Y12559524D01*
X12738485Y12559524D02*
X12700390Y12521429D01*
X12700390Y12521429D02*
X12662295Y12445239D01*
X12662295Y12445239D02*
X12662295Y12292858D01*
X12662295Y12292858D02*
X12700390Y12216667D01*
X12700390Y12216667D02*
X12738485Y12178572D01*
X12738485Y12178572D02*
X12814676Y12140477D01*
X12814676Y12140477D02*
X12852771Y12140477D01*
X12852771Y12140477D02*
X12928961Y12178572D01*
X12928961Y12178572D02*
X12967057Y12216667D01*
X12967057Y12216667D02*
X13005152Y12292858D01*
X13005152Y12292858D02*
X13005152Y12445239D01*
X13005152Y12445239D02*
X13043247Y12521429D01*
X13043247Y12521429D02*
X13081342Y12559524D01*
X13081342Y12559524D02*
X13157533Y12597620D01*
X13157533Y12597620D02*
X13309914Y12597620D01*
X13309914Y12597620D02*
X13386104Y12559524D01*
X13386104Y12559524D02*
X13424200Y12521429D01*
X13424200Y12521429D02*
X13462295Y12445239D01*
X13462295Y12445239D02*
X13462295Y12292858D01*
X13462295Y12292858D02*
X13424200Y12216667D01*
X13424200Y12216667D02*
X13386104Y12178572D01*
X13386104Y12178572D02*
X13309914Y12140477D01*
X13309914Y12140477D02*
X13157533Y12140477D01*
X13157533Y12140477D02*
X13081342Y12178572D01*
X13081342Y12178572D02*
X13043247Y12216667D01*
X13043247Y12216667D02*
X13005152Y12292858D01*
X14336104Y57714286D02*
X14374200Y57752382D01*
X14374200Y57752382D02*
X14412295Y57866667D01*
X14412295Y57866667D02*
X14412295Y57942858D01*
X14412295Y57942858D02*
X14374200Y58057144D01*
X14374200Y58057144D02*
X14298009Y58133334D01*
X14298009Y58133334D02*
X14221819Y58171429D01*
X14221819Y58171429D02*
X14069438Y58209525D01*
X14069438Y58209525D02*
X13955152Y58209525D01*
X13955152Y58209525D02*
X13802771Y58171429D01*
X13802771Y58171429D02*
X13726580Y58133334D01*
X13726580Y58133334D02*
X13650390Y58057144D01*
X13650390Y58057144D02*
X13612295Y57942858D01*
X13612295Y57942858D02*
X13612295Y57866667D01*
X13612295Y57866667D02*
X13650390Y57752382D01*
X13650390Y57752382D02*
X13688485Y57714286D01*
X14412295Y56952382D02*
X14412295Y57409525D01*
X14412295Y57180953D02*
X13612295Y57180953D01*
X13612295Y57180953D02*
X13726580Y57257144D01*
X13726580Y57257144D02*
X13802771Y57333334D01*
X13802771Y57333334D02*
X13840866Y57409525D01*
X13878961Y56266667D02*
X14412295Y56266667D01*
X13574200Y56457143D02*
X14145628Y56647620D01*
X14145628Y56647620D02*
X14145628Y56152381D01*
X15586104Y56933333D02*
X15624200Y56971429D01*
X15624200Y56971429D02*
X15662295Y57085714D01*
X15662295Y57085714D02*
X15662295Y57161905D01*
X15662295Y57161905D02*
X15624200Y57276191D01*
X15624200Y57276191D02*
X15548009Y57352381D01*
X15548009Y57352381D02*
X15471819Y57390476D01*
X15471819Y57390476D02*
X15319438Y57428572D01*
X15319438Y57428572D02*
X15205152Y57428572D01*
X15205152Y57428572D02*
X15052771Y57390476D01*
X15052771Y57390476D02*
X14976580Y57352381D01*
X14976580Y57352381D02*
X14900390Y57276191D01*
X14900390Y57276191D02*
X14862295Y57161905D01*
X14862295Y57161905D02*
X14862295Y57085714D01*
X14862295Y57085714D02*
X14900390Y56971429D01*
X14900390Y56971429D02*
X14938485Y56933333D01*
X15128961Y56247619D02*
X15662295Y56247619D01*
X14824200Y56438095D02*
X15395628Y56628572D01*
X15395628Y56628572D02*
X15395628Y56133333D01*
X17586104Y56933333D02*
X17624200Y56971429D01*
X17624200Y56971429D02*
X17662295Y57085714D01*
X17662295Y57085714D02*
X17662295Y57161905D01*
X17662295Y57161905D02*
X17624200Y57276191D01*
X17624200Y57276191D02*
X17548009Y57352381D01*
X17548009Y57352381D02*
X17471819Y57390476D01*
X17471819Y57390476D02*
X17319438Y57428572D01*
X17319438Y57428572D02*
X17205152Y57428572D01*
X17205152Y57428572D02*
X17052771Y57390476D01*
X17052771Y57390476D02*
X16976580Y57352381D01*
X16976580Y57352381D02*
X16900390Y57276191D01*
X16900390Y57276191D02*
X16862295Y57161905D01*
X16862295Y57161905D02*
X16862295Y57085714D01*
X16862295Y57085714D02*
X16900390Y56971429D01*
X16900390Y56971429D02*
X16938485Y56933333D01*
X16862295Y56666667D02*
X16862295Y56171429D01*
X16862295Y56171429D02*
X17167057Y56438095D01*
X17167057Y56438095D02*
X17167057Y56323810D01*
X17167057Y56323810D02*
X17205152Y56247619D01*
X17205152Y56247619D02*
X17243247Y56209524D01*
X17243247Y56209524D02*
X17319438Y56171429D01*
X17319438Y56171429D02*
X17509914Y56171429D01*
X17509914Y56171429D02*
X17586104Y56209524D01*
X17586104Y56209524D02*
X17624200Y56247619D01*
X17624200Y56247619D02*
X17662295Y56323810D01*
X17662295Y56323810D02*
X17662295Y56552381D01*
X17662295Y56552381D02*
X17624200Y56628572D01*
X17624200Y56628572D02*
X17586104Y56666667D01*
X11086104Y46433333D02*
X11124200Y46471429D01*
X11124200Y46471429D02*
X11162295Y46585714D01*
X11162295Y46585714D02*
X11162295Y46661905D01*
X11162295Y46661905D02*
X11124200Y46776191D01*
X11124200Y46776191D02*
X11048009Y46852381D01*
X11048009Y46852381D02*
X10971819Y46890476D01*
X10971819Y46890476D02*
X10819438Y46928572D01*
X10819438Y46928572D02*
X10705152Y46928572D01*
X10705152Y46928572D02*
X10552771Y46890476D01*
X10552771Y46890476D02*
X10476580Y46852381D01*
X10476580Y46852381D02*
X10400390Y46776191D01*
X10400390Y46776191D02*
X10362295Y46661905D01*
X10362295Y46661905D02*
X10362295Y46585714D01*
X10362295Y46585714D02*
X10400390Y46471429D01*
X10400390Y46471429D02*
X10438485Y46433333D01*
X10705152Y45976191D02*
X10667057Y46052381D01*
X10667057Y46052381D02*
X10628961Y46090476D01*
X10628961Y46090476D02*
X10552771Y46128572D01*
X10552771Y46128572D02*
X10514676Y46128572D01*
X10514676Y46128572D02*
X10438485Y46090476D01*
X10438485Y46090476D02*
X10400390Y46052381D01*
X10400390Y46052381D02*
X10362295Y45976191D01*
X10362295Y45976191D02*
X10362295Y45823810D01*
X10362295Y45823810D02*
X10400390Y45747619D01*
X10400390Y45747619D02*
X10438485Y45709524D01*
X10438485Y45709524D02*
X10514676Y45671429D01*
X10514676Y45671429D02*
X10552771Y45671429D01*
X10552771Y45671429D02*
X10628961Y45709524D01*
X10628961Y45709524D02*
X10667057Y45747619D01*
X10667057Y45747619D02*
X10705152Y45823810D01*
X10705152Y45823810D02*
X10705152Y45976191D01*
X10705152Y45976191D02*
X10743247Y46052381D01*
X10743247Y46052381D02*
X10781342Y46090476D01*
X10781342Y46090476D02*
X10857533Y46128572D01*
X10857533Y46128572D02*
X11009914Y46128572D01*
X11009914Y46128572D02*
X11086104Y46090476D01*
X11086104Y46090476D02*
X11124200Y46052381D01*
X11124200Y46052381D02*
X11162295Y45976191D01*
X11162295Y45976191D02*
X11162295Y45823810D01*
X11162295Y45823810D02*
X11124200Y45747619D01*
X11124200Y45747619D02*
X11086104Y45709524D01*
X11086104Y45709524D02*
X11009914Y45671429D01*
X11009914Y45671429D02*
X10857533Y45671429D01*
X10857533Y45671429D02*
X10781342Y45709524D01*
X10781342Y45709524D02*
X10743247Y45747619D01*
X10743247Y45747619D02*
X10705152Y45823810D01*
X9533332Y51613896D02*
X9571428Y51575800D01*
X9571428Y51575800D02*
X9685713Y51537705D01*
X9685713Y51537705D02*
X9761904Y51537705D01*
X9761904Y51537705D02*
X9876190Y51575800D01*
X9876190Y51575800D02*
X9952380Y51651991D01*
X9952380Y51651991D02*
X9990475Y51728181D01*
X9990475Y51728181D02*
X10028571Y51880562D01*
X10028571Y51880562D02*
X10028571Y51994848D01*
X10028571Y51994848D02*
X9990475Y52147229D01*
X9990475Y52147229D02*
X9952380Y52223420D01*
X9952380Y52223420D02*
X9876190Y52299610D01*
X9876190Y52299610D02*
X9761904Y52337705D01*
X9761904Y52337705D02*
X9685713Y52337705D01*
X9685713Y52337705D02*
X9571428Y52299610D01*
X9571428Y52299610D02*
X9533332Y52261515D01*
X9266666Y52337705D02*
X8733332Y52337705D01*
X8733332Y52337705D02*
X9076190Y51537705D01*
X9533332Y54913896D02*
X9571428Y54875800D01*
X9571428Y54875800D02*
X9685713Y54837705D01*
X9685713Y54837705D02*
X9761904Y54837705D01*
X9761904Y54837705D02*
X9876190Y54875800D01*
X9876190Y54875800D02*
X9952380Y54951991D01*
X9952380Y54951991D02*
X9990475Y55028181D01*
X9990475Y55028181D02*
X10028571Y55180562D01*
X10028571Y55180562D02*
X10028571Y55294848D01*
X10028571Y55294848D02*
X9990475Y55447229D01*
X9990475Y55447229D02*
X9952380Y55523420D01*
X9952380Y55523420D02*
X9876190Y55599610D01*
X9876190Y55599610D02*
X9761904Y55637705D01*
X9761904Y55637705D02*
X9685713Y55637705D01*
X9685713Y55637705D02*
X9571428Y55599610D01*
X9571428Y55599610D02*
X9533332Y55561515D01*
X8809523Y55637705D02*
X9190475Y55637705D01*
X9190475Y55637705D02*
X9228571Y55256753D01*
X9228571Y55256753D02*
X9190475Y55294848D01*
X9190475Y55294848D02*
X9114285Y55332943D01*
X9114285Y55332943D02*
X8923809Y55332943D01*
X8923809Y55332943D02*
X8847618Y55294848D01*
X8847618Y55294848D02*
X8809523Y55256753D01*
X8809523Y55256753D02*
X8771428Y55180562D01*
X8771428Y55180562D02*
X8771428Y54990086D01*
X8771428Y54990086D02*
X8809523Y54913896D01*
X8809523Y54913896D02*
X8847618Y54875800D01*
X8847618Y54875800D02*
X8923809Y54837705D01*
X8923809Y54837705D02*
X9114285Y54837705D01*
X9114285Y54837705D02*
X9190475Y54875800D01*
X9190475Y54875800D02*
X9228571Y54913896D01*
X14512295Y13664286D02*
X14131342Y13930953D01*
X14512295Y14121429D02*
X13712295Y14121429D01*
X13712295Y14121429D02*
X13712295Y13816667D01*
X13712295Y13816667D02*
X13750390Y13740477D01*
X13750390Y13740477D02*
X13788485Y13702382D01*
X13788485Y13702382D02*
X13864676Y13664286D01*
X13864676Y13664286D02*
X13978961Y13664286D01*
X13978961Y13664286D02*
X14055152Y13702382D01*
X14055152Y13702382D02*
X14093247Y13740477D01*
X14093247Y13740477D02*
X14131342Y13816667D01*
X14131342Y13816667D02*
X14131342Y14121429D01*
X13978961Y12978572D02*
X14512295Y12978572D01*
X13674200Y13169048D02*
X14245628Y13359525D01*
X14245628Y13359525D02*
X14245628Y12864286D01*
X14512295Y12521429D02*
X14512295Y12369048D01*
X14512295Y12369048D02*
X14474200Y12292858D01*
X14474200Y12292858D02*
X14436104Y12254762D01*
X14436104Y12254762D02*
X14321819Y12178572D01*
X14321819Y12178572D02*
X14169438Y12140477D01*
X14169438Y12140477D02*
X13864676Y12140477D01*
X13864676Y12140477D02*
X13788485Y12178572D01*
X13788485Y12178572D02*
X13750390Y12216667D01*
X13750390Y12216667D02*
X13712295Y12292858D01*
X13712295Y12292858D02*
X13712295Y12445239D01*
X13712295Y12445239D02*
X13750390Y12521429D01*
X13750390Y12521429D02*
X13788485Y12559524D01*
X13788485Y12559524D02*
X13864676Y12597620D01*
X13864676Y12597620D02*
X14055152Y12597620D01*
X14055152Y12597620D02*
X14131342Y12559524D01*
X14131342Y12559524D02*
X14169438Y12521429D01*
X14169438Y12521429D02*
X14207533Y12445239D01*
X14207533Y12445239D02*
X14207533Y12292858D01*
X14207533Y12292858D02*
X14169438Y12216667D01*
X14169438Y12216667D02*
X14131342Y12178572D01*
X14131342Y12178572D02*
X14055152Y12140477D01*
X10514285Y49663896D02*
X10552381Y49625800D01*
X10552381Y49625800D02*
X10666666Y49587705D01*
X10666666Y49587705D02*
X10742857Y49587705D01*
X10742857Y49587705D02*
X10857143Y49625800D01*
X10857143Y49625800D02*
X10933333Y49701991D01*
X10933333Y49701991D02*
X10971428Y49778181D01*
X10971428Y49778181D02*
X11009524Y49930562D01*
X11009524Y49930562D02*
X11009524Y50044848D01*
X11009524Y50044848D02*
X10971428Y50197229D01*
X10971428Y50197229D02*
X10933333Y50273420D01*
X10933333Y50273420D02*
X10857143Y50349610D01*
X10857143Y50349610D02*
X10742857Y50387705D01*
X10742857Y50387705D02*
X10666666Y50387705D01*
X10666666Y50387705D02*
X10552381Y50349610D01*
X10552381Y50349610D02*
X10514285Y50311515D01*
X9752381Y49587705D02*
X10209524Y49587705D01*
X9980952Y49587705D02*
X9980952Y50387705D01*
X9980952Y50387705D02*
X10057143Y50273420D01*
X10057143Y50273420D02*
X10133333Y50197229D01*
X10133333Y50197229D02*
X10209524Y50159134D01*
X9028571Y50387705D02*
X9409523Y50387705D01*
X9409523Y50387705D02*
X9447619Y50006753D01*
X9447619Y50006753D02*
X9409523Y50044848D01*
X9409523Y50044848D02*
X9333333Y50082943D01*
X9333333Y50082943D02*
X9142857Y50082943D01*
X9142857Y50082943D02*
X9066666Y50044848D01*
X9066666Y50044848D02*
X9028571Y50006753D01*
X9028571Y50006753D02*
X8990476Y49930562D01*
X8990476Y49930562D02*
X8990476Y49740086D01*
X8990476Y49740086D02*
X9028571Y49663896D01*
X9028571Y49663896D02*
X9066666Y49625800D01*
X9066666Y49625800D02*
X9142857Y49587705D01*
X9142857Y49587705D02*
X9333333Y49587705D01*
X9333333Y49587705D02*
X9409523Y49625800D01*
X9409523Y49625800D02*
X9447619Y49663896D01*
X7664285Y44363896D02*
X7702381Y44325800D01*
X7702381Y44325800D02*
X7816666Y44287705D01*
X7816666Y44287705D02*
X7892857Y44287705D01*
X7892857Y44287705D02*
X8007143Y44325800D01*
X8007143Y44325800D02*
X8083333Y44401991D01*
X8083333Y44401991D02*
X8121428Y44478181D01*
X8121428Y44478181D02*
X8159524Y44630562D01*
X8159524Y44630562D02*
X8159524Y44744848D01*
X8159524Y44744848D02*
X8121428Y44897229D01*
X8121428Y44897229D02*
X8083333Y44973420D01*
X8083333Y44973420D02*
X8007143Y45049610D01*
X8007143Y45049610D02*
X7892857Y45087705D01*
X7892857Y45087705D02*
X7816666Y45087705D01*
X7816666Y45087705D02*
X7702381Y45049610D01*
X7702381Y45049610D02*
X7664285Y45011515D01*
X7397619Y45087705D02*
X6902381Y45087705D01*
X6902381Y45087705D02*
X7169047Y44782943D01*
X7169047Y44782943D02*
X7054762Y44782943D01*
X7054762Y44782943D02*
X6978571Y44744848D01*
X6978571Y44744848D02*
X6940476Y44706753D01*
X6940476Y44706753D02*
X6902381Y44630562D01*
X6902381Y44630562D02*
X6902381Y44440086D01*
X6902381Y44440086D02*
X6940476Y44363896D01*
X6940476Y44363896D02*
X6978571Y44325800D01*
X6978571Y44325800D02*
X7054762Y44287705D01*
X7054762Y44287705D02*
X7283333Y44287705D01*
X7283333Y44287705D02*
X7359524Y44325800D01*
X7359524Y44325800D02*
X7397619Y44363896D01*
X6140476Y44287705D02*
X6597619Y44287705D01*
X6369047Y44287705D02*
X6369047Y45087705D01*
X6369047Y45087705D02*
X6445238Y44973420D01*
X6445238Y44973420D02*
X6521428Y44897229D01*
X6521428Y44897229D02*
X6597619Y44859134D01*
X7669285Y48613896D02*
X7707381Y48575800D01*
X7707381Y48575800D02*
X7821666Y48537705D01*
X7821666Y48537705D02*
X7897857Y48537705D01*
X7897857Y48537705D02*
X8012143Y48575800D01*
X8012143Y48575800D02*
X8088333Y48651991D01*
X8088333Y48651991D02*
X8126428Y48728181D01*
X8126428Y48728181D02*
X8164524Y48880562D01*
X8164524Y48880562D02*
X8164524Y48994848D01*
X8164524Y48994848D02*
X8126428Y49147229D01*
X8126428Y49147229D02*
X8088333Y49223420D01*
X8088333Y49223420D02*
X8012143Y49299610D01*
X8012143Y49299610D02*
X7897857Y49337705D01*
X7897857Y49337705D02*
X7821666Y49337705D01*
X7821666Y49337705D02*
X7707381Y49299610D01*
X7707381Y49299610D02*
X7669285Y49261515D01*
X7364524Y49261515D02*
X7326428Y49299610D01*
X7326428Y49299610D02*
X7250238Y49337705D01*
X7250238Y49337705D02*
X7059762Y49337705D01*
X7059762Y49337705D02*
X6983571Y49299610D01*
X6983571Y49299610D02*
X6945476Y49261515D01*
X6945476Y49261515D02*
X6907381Y49185324D01*
X6907381Y49185324D02*
X6907381Y49109134D01*
X6907381Y49109134D02*
X6945476Y48994848D01*
X6945476Y48994848D02*
X7402619Y48537705D01*
X7402619Y48537705D02*
X6907381Y48537705D01*
X6640714Y49337705D02*
X6107380Y49337705D01*
X6107380Y49337705D02*
X6450238Y48537705D01*
X14386104Y46333333D02*
X14424200Y46371429D01*
X14424200Y46371429D02*
X14462295Y46485714D01*
X14462295Y46485714D02*
X14462295Y46561905D01*
X14462295Y46561905D02*
X14424200Y46676191D01*
X14424200Y46676191D02*
X14348009Y46752381D01*
X14348009Y46752381D02*
X14271819Y46790476D01*
X14271819Y46790476D02*
X14119438Y46828572D01*
X14119438Y46828572D02*
X14005152Y46828572D01*
X14005152Y46828572D02*
X13852771Y46790476D01*
X13852771Y46790476D02*
X13776580Y46752381D01*
X13776580Y46752381D02*
X13700390Y46676191D01*
X13700390Y46676191D02*
X13662295Y46561905D01*
X13662295Y46561905D02*
X13662295Y46485714D01*
X13662295Y46485714D02*
X13700390Y46371429D01*
X13700390Y46371429D02*
X13738485Y46333333D01*
X14462295Y45952381D02*
X14462295Y45800000D01*
X14462295Y45800000D02*
X14424200Y45723810D01*
X14424200Y45723810D02*
X14386104Y45685714D01*
X14386104Y45685714D02*
X14271819Y45609524D01*
X14271819Y45609524D02*
X14119438Y45571429D01*
X14119438Y45571429D02*
X13814676Y45571429D01*
X13814676Y45571429D02*
X13738485Y45609524D01*
X13738485Y45609524D02*
X13700390Y45647619D01*
X13700390Y45647619D02*
X13662295Y45723810D01*
X13662295Y45723810D02*
X13662295Y45876191D01*
X13662295Y45876191D02*
X13700390Y45952381D01*
X13700390Y45952381D02*
X13738485Y45990476D01*
X13738485Y45990476D02*
X13814676Y46028572D01*
X13814676Y46028572D02*
X14005152Y46028572D01*
X14005152Y46028572D02*
X14081342Y45990476D01*
X14081342Y45990476D02*
X14119438Y45952381D01*
X14119438Y45952381D02*
X14157533Y45876191D01*
X14157533Y45876191D02*
X14157533Y45723810D01*
X14157533Y45723810D02*
X14119438Y45647619D01*
X14119438Y45647619D02*
X14081342Y45609524D01*
X14081342Y45609524D02*
X14005152Y45571429D01*
X7664285Y43313896D02*
X7702381Y43275800D01*
X7702381Y43275800D02*
X7816666Y43237705D01*
X7816666Y43237705D02*
X7892857Y43237705D01*
X7892857Y43237705D02*
X8007143Y43275800D01*
X8007143Y43275800D02*
X8083333Y43351991D01*
X8083333Y43351991D02*
X8121428Y43428181D01*
X8121428Y43428181D02*
X8159524Y43580562D01*
X8159524Y43580562D02*
X8159524Y43694848D01*
X8159524Y43694848D02*
X8121428Y43847229D01*
X8121428Y43847229D02*
X8083333Y43923420D01*
X8083333Y43923420D02*
X8007143Y43999610D01*
X8007143Y43999610D02*
X7892857Y44037705D01*
X7892857Y44037705D02*
X7816666Y44037705D01*
X7816666Y44037705D02*
X7702381Y43999610D01*
X7702381Y43999610D02*
X7664285Y43961515D01*
X7397619Y44037705D02*
X6902381Y44037705D01*
X6902381Y44037705D02*
X7169047Y43732943D01*
X7169047Y43732943D02*
X7054762Y43732943D01*
X7054762Y43732943D02*
X6978571Y43694848D01*
X6978571Y43694848D02*
X6940476Y43656753D01*
X6940476Y43656753D02*
X6902381Y43580562D01*
X6902381Y43580562D02*
X6902381Y43390086D01*
X6902381Y43390086D02*
X6940476Y43313896D01*
X6940476Y43313896D02*
X6978571Y43275800D01*
X6978571Y43275800D02*
X7054762Y43237705D01*
X7054762Y43237705D02*
X7283333Y43237705D01*
X7283333Y43237705D02*
X7359524Y43275800D01*
X7359524Y43275800D02*
X7397619Y43313896D01*
X6597619Y43961515D02*
X6559523Y43999610D01*
X6559523Y43999610D02*
X6483333Y44037705D01*
X6483333Y44037705D02*
X6292857Y44037705D01*
X6292857Y44037705D02*
X6216666Y43999610D01*
X6216666Y43999610D02*
X6178571Y43961515D01*
X6178571Y43961515D02*
X6140476Y43885324D01*
X6140476Y43885324D02*
X6140476Y43809134D01*
X6140476Y43809134D02*
X6178571Y43694848D01*
X6178571Y43694848D02*
X6635714Y43237705D01*
X6635714Y43237705D02*
X6140476Y43237705D01*
X11312295Y13664286D02*
X10931342Y13930953D01*
X11312295Y14121429D02*
X10512295Y14121429D01*
X10512295Y14121429D02*
X10512295Y13816667D01*
X10512295Y13816667D02*
X10550390Y13740477D01*
X10550390Y13740477D02*
X10588485Y13702382D01*
X10588485Y13702382D02*
X10664676Y13664286D01*
X10664676Y13664286D02*
X10778961Y13664286D01*
X10778961Y13664286D02*
X10855152Y13702382D01*
X10855152Y13702382D02*
X10893247Y13740477D01*
X10893247Y13740477D02*
X10931342Y13816667D01*
X10931342Y13816667D02*
X10931342Y14121429D01*
X10512295Y13397620D02*
X10512295Y12902382D01*
X10512295Y12902382D02*
X10817057Y13169048D01*
X10817057Y13169048D02*
X10817057Y13054763D01*
X10817057Y13054763D02*
X10855152Y12978572D01*
X10855152Y12978572D02*
X10893247Y12940477D01*
X10893247Y12940477D02*
X10969438Y12902382D01*
X10969438Y12902382D02*
X11159914Y12902382D01*
X11159914Y12902382D02*
X11236104Y12940477D01*
X11236104Y12940477D02*
X11274200Y12978572D01*
X11274200Y12978572D02*
X11312295Y13054763D01*
X11312295Y13054763D02*
X11312295Y13283334D01*
X11312295Y13283334D02*
X11274200Y13359525D01*
X11274200Y13359525D02*
X11236104Y13397620D01*
X10855152Y12445239D02*
X10817057Y12521429D01*
X10817057Y12521429D02*
X10778961Y12559524D01*
X10778961Y12559524D02*
X10702771Y12597620D01*
X10702771Y12597620D02*
X10664676Y12597620D01*
X10664676Y12597620D02*
X10588485Y12559524D01*
X10588485Y12559524D02*
X10550390Y12521429D01*
X10550390Y12521429D02*
X10512295Y12445239D01*
X10512295Y12445239D02*
X10512295Y12292858D01*
X10512295Y12292858D02*
X10550390Y12216667D01*
X10550390Y12216667D02*
X10588485Y12178572D01*
X10588485Y12178572D02*
X10664676Y12140477D01*
X10664676Y12140477D02*
X10702771Y12140477D01*
X10702771Y12140477D02*
X10778961Y12178572D01*
X10778961Y12178572D02*
X10817057Y12216667D01*
X10817057Y12216667D02*
X10855152Y12292858D01*
X10855152Y12292858D02*
X10855152Y12445239D01*
X10855152Y12445239D02*
X10893247Y12521429D01*
X10893247Y12521429D02*
X10931342Y12559524D01*
X10931342Y12559524D02*
X11007533Y12597620D01*
X11007533Y12597620D02*
X11159914Y12597620D01*
X11159914Y12597620D02*
X11236104Y12559524D01*
X11236104Y12559524D02*
X11274200Y12521429D01*
X11274200Y12521429D02*
X11312295Y12445239D01*
X11312295Y12445239D02*
X11312295Y12292858D01*
X11312295Y12292858D02*
X11274200Y12216667D01*
X11274200Y12216667D02*
X11236104Y12178572D01*
X11236104Y12178572D02*
X11159914Y12140477D01*
X11159914Y12140477D02*
X11007533Y12140477D01*
X11007533Y12140477D02*
X10931342Y12178572D01*
X10931342Y12178572D02*
X10893247Y12216667D01*
X10893247Y12216667D02*
X10855152Y12292858D01*
X19933332Y49013896D02*
X19971428Y48975800D01*
X19971428Y48975800D02*
X20085713Y48937705D01*
X20085713Y48937705D02*
X20161904Y48937705D01*
X20161904Y48937705D02*
X20276190Y48975800D01*
X20276190Y48975800D02*
X20352380Y49051991D01*
X20352380Y49051991D02*
X20390475Y49128181D01*
X20390475Y49128181D02*
X20428571Y49280562D01*
X20428571Y49280562D02*
X20428571Y49394848D01*
X20428571Y49394848D02*
X20390475Y49547229D01*
X20390475Y49547229D02*
X20352380Y49623420D01*
X20352380Y49623420D02*
X20276190Y49699610D01*
X20276190Y49699610D02*
X20161904Y49737705D01*
X20161904Y49737705D02*
X20085713Y49737705D01*
X20085713Y49737705D02*
X19971428Y49699610D01*
X19971428Y49699610D02*
X19933332Y49661515D01*
X19171428Y48937705D02*
X19628571Y48937705D01*
X19399999Y48937705D02*
X19399999Y49737705D01*
X19399999Y49737705D02*
X19476190Y49623420D01*
X19476190Y49623420D02*
X19552380Y49547229D01*
X19552380Y49547229D02*
X19628571Y49509134D01*
X15486104Y13714286D02*
X15524200Y13752382D01*
X15524200Y13752382D02*
X15562295Y13866667D01*
X15562295Y13866667D02*
X15562295Y13942858D01*
X15562295Y13942858D02*
X15524200Y14057144D01*
X15524200Y14057144D02*
X15448009Y14133334D01*
X15448009Y14133334D02*
X15371819Y14171429D01*
X15371819Y14171429D02*
X15219438Y14209525D01*
X15219438Y14209525D02*
X15105152Y14209525D01*
X15105152Y14209525D02*
X14952771Y14171429D01*
X14952771Y14171429D02*
X14876580Y14133334D01*
X14876580Y14133334D02*
X14800390Y14057144D01*
X14800390Y14057144D02*
X14762295Y13942858D01*
X14762295Y13942858D02*
X14762295Y13866667D01*
X14762295Y13866667D02*
X14800390Y13752382D01*
X14800390Y13752382D02*
X14838485Y13714286D01*
X14762295Y13447620D02*
X14762295Y12952382D01*
X14762295Y12952382D02*
X15067057Y13219048D01*
X15067057Y13219048D02*
X15067057Y13104763D01*
X15067057Y13104763D02*
X15105152Y13028572D01*
X15105152Y13028572D02*
X15143247Y12990477D01*
X15143247Y12990477D02*
X15219438Y12952382D01*
X15219438Y12952382D02*
X15409914Y12952382D01*
X15409914Y12952382D02*
X15486104Y12990477D01*
X15486104Y12990477D02*
X15524200Y13028572D01*
X15524200Y13028572D02*
X15562295Y13104763D01*
X15562295Y13104763D02*
X15562295Y13333334D01*
X15562295Y13333334D02*
X15524200Y13409525D01*
X15524200Y13409525D02*
X15486104Y13447620D01*
X14762295Y12685715D02*
X14762295Y12152381D01*
X14762295Y12152381D02*
X15562295Y12495239D01*
X15614285Y19863896D02*
X15652381Y19825800D01*
X15652381Y19825800D02*
X15766666Y19787705D01*
X15766666Y19787705D02*
X15842857Y19787705D01*
X15842857Y19787705D02*
X15957143Y19825800D01*
X15957143Y19825800D02*
X16033333Y19901991D01*
X16033333Y19901991D02*
X16071428Y19978181D01*
X16071428Y19978181D02*
X16109524Y20130562D01*
X16109524Y20130562D02*
X16109524Y20244848D01*
X16109524Y20244848D02*
X16071428Y20397229D01*
X16071428Y20397229D02*
X16033333Y20473420D01*
X16033333Y20473420D02*
X15957143Y20549610D01*
X15957143Y20549610D02*
X15842857Y20587705D01*
X15842857Y20587705D02*
X15766666Y20587705D01*
X15766666Y20587705D02*
X15652381Y20549610D01*
X15652381Y20549610D02*
X15614285Y20511515D01*
X14928571Y20321039D02*
X14928571Y19787705D01*
X15119047Y20625800D02*
X15309524Y20054372D01*
X15309524Y20054372D02*
X14814285Y20054372D01*
X14585714Y20587705D02*
X14090476Y20587705D01*
X14090476Y20587705D02*
X14357142Y20282943D01*
X14357142Y20282943D02*
X14242857Y20282943D01*
X14242857Y20282943D02*
X14166666Y20244848D01*
X14166666Y20244848D02*
X14128571Y20206753D01*
X14128571Y20206753D02*
X14090476Y20130562D01*
X14090476Y20130562D02*
X14090476Y19940086D01*
X14090476Y19940086D02*
X14128571Y19863896D01*
X14128571Y19863896D02*
X14166666Y19825800D01*
X14166666Y19825800D02*
X14242857Y19787705D01*
X14242857Y19787705D02*
X14471428Y19787705D01*
X14471428Y19787705D02*
X14547619Y19825800D01*
X14547619Y19825800D02*
X14585714Y19863896D01*
X21014285Y50963896D02*
X21052381Y50925800D01*
X21052381Y50925800D02*
X21166666Y50887705D01*
X21166666Y50887705D02*
X21242857Y50887705D01*
X21242857Y50887705D02*
X21357143Y50925800D01*
X21357143Y50925800D02*
X21433333Y51001991D01*
X21433333Y51001991D02*
X21471428Y51078181D01*
X21471428Y51078181D02*
X21509524Y51230562D01*
X21509524Y51230562D02*
X21509524Y51344848D01*
X21509524Y51344848D02*
X21471428Y51497229D01*
X21471428Y51497229D02*
X21433333Y51573420D01*
X21433333Y51573420D02*
X21357143Y51649610D01*
X21357143Y51649610D02*
X21242857Y51687705D01*
X21242857Y51687705D02*
X21166666Y51687705D01*
X21166666Y51687705D02*
X21052381Y51649610D01*
X21052381Y51649610D02*
X21014285Y51611515D01*
X20252381Y50887705D02*
X20709524Y50887705D01*
X20480952Y50887705D02*
X20480952Y51687705D01*
X20480952Y51687705D02*
X20557143Y51573420D01*
X20557143Y51573420D02*
X20633333Y51497229D01*
X20633333Y51497229D02*
X20709524Y51459134D01*
X19985714Y51687705D02*
X19490476Y51687705D01*
X19490476Y51687705D02*
X19757142Y51382943D01*
X19757142Y51382943D02*
X19642857Y51382943D01*
X19642857Y51382943D02*
X19566666Y51344848D01*
X19566666Y51344848D02*
X19528571Y51306753D01*
X19528571Y51306753D02*
X19490476Y51230562D01*
X19490476Y51230562D02*
X19490476Y51040086D01*
X19490476Y51040086D02*
X19528571Y50963896D01*
X19528571Y50963896D02*
X19566666Y50925800D01*
X19566666Y50925800D02*
X19642857Y50887705D01*
X19642857Y50887705D02*
X19871428Y50887705D01*
X19871428Y50887705D02*
X19947619Y50925800D01*
X19947619Y50925800D02*
X19985714Y50963896D01*
X20283332Y52963896D02*
X20321428Y52925800D01*
X20321428Y52925800D02*
X20435713Y52887705D01*
X20435713Y52887705D02*
X20511904Y52887705D01*
X20511904Y52887705D02*
X20626190Y52925800D01*
X20626190Y52925800D02*
X20702380Y53001991D01*
X20702380Y53001991D02*
X20740475Y53078181D01*
X20740475Y53078181D02*
X20778571Y53230562D01*
X20778571Y53230562D02*
X20778571Y53344848D01*
X20778571Y53344848D02*
X20740475Y53497229D01*
X20740475Y53497229D02*
X20702380Y53573420D01*
X20702380Y53573420D02*
X20626190Y53649610D01*
X20626190Y53649610D02*
X20511904Y53687705D01*
X20511904Y53687705D02*
X20435713Y53687705D01*
X20435713Y53687705D02*
X20321428Y53649610D01*
X20321428Y53649610D02*
X20283332Y53611515D01*
X19978571Y53611515D02*
X19940475Y53649610D01*
X19940475Y53649610D02*
X19864285Y53687705D01*
X19864285Y53687705D02*
X19673809Y53687705D01*
X19673809Y53687705D02*
X19597618Y53649610D01*
X19597618Y53649610D02*
X19559523Y53611515D01*
X19559523Y53611515D02*
X19521428Y53535324D01*
X19521428Y53535324D02*
X19521428Y53459134D01*
X19521428Y53459134D02*
X19559523Y53344848D01*
X19559523Y53344848D02*
X20016666Y52887705D01*
X20016666Y52887705D02*
X19521428Y52887705D01*
X12362295Y13664286D02*
X11981342Y13930953D01*
X12362295Y14121429D02*
X11562295Y14121429D01*
X11562295Y14121429D02*
X11562295Y13816667D01*
X11562295Y13816667D02*
X11600390Y13740477D01*
X11600390Y13740477D02*
X11638485Y13702382D01*
X11638485Y13702382D02*
X11714676Y13664286D01*
X11714676Y13664286D02*
X11828961Y13664286D01*
X11828961Y13664286D02*
X11905152Y13702382D01*
X11905152Y13702382D02*
X11943247Y13740477D01*
X11943247Y13740477D02*
X11981342Y13816667D01*
X11981342Y13816667D02*
X11981342Y14121429D01*
X11562295Y13397620D02*
X11562295Y12902382D01*
X11562295Y12902382D02*
X11867057Y13169048D01*
X11867057Y13169048D02*
X11867057Y13054763D01*
X11867057Y13054763D02*
X11905152Y12978572D01*
X11905152Y12978572D02*
X11943247Y12940477D01*
X11943247Y12940477D02*
X12019438Y12902382D01*
X12019438Y12902382D02*
X12209914Y12902382D01*
X12209914Y12902382D02*
X12286104Y12940477D01*
X12286104Y12940477D02*
X12324200Y12978572D01*
X12324200Y12978572D02*
X12362295Y13054763D01*
X12362295Y13054763D02*
X12362295Y13283334D01*
X12362295Y13283334D02*
X12324200Y13359525D01*
X12324200Y13359525D02*
X12286104Y13397620D01*
X11562295Y12635715D02*
X11562295Y12102381D01*
X11562295Y12102381D02*
X12362295Y12445239D01*
X7669285Y45413896D02*
X7707381Y45375800D01*
X7707381Y45375800D02*
X7821666Y45337705D01*
X7821666Y45337705D02*
X7897857Y45337705D01*
X7897857Y45337705D02*
X8012143Y45375800D01*
X8012143Y45375800D02*
X8088333Y45451991D01*
X8088333Y45451991D02*
X8126428Y45528181D01*
X8126428Y45528181D02*
X8164524Y45680562D01*
X8164524Y45680562D02*
X8164524Y45794848D01*
X8164524Y45794848D02*
X8126428Y45947229D01*
X8126428Y45947229D02*
X8088333Y46023420D01*
X8088333Y46023420D02*
X8012143Y46099610D01*
X8012143Y46099610D02*
X7897857Y46137705D01*
X7897857Y46137705D02*
X7821666Y46137705D01*
X7821666Y46137705D02*
X7707381Y46099610D01*
X7707381Y46099610D02*
X7669285Y46061515D01*
X7402619Y46137705D02*
X6907381Y46137705D01*
X6907381Y46137705D02*
X7174047Y45832943D01*
X7174047Y45832943D02*
X7059762Y45832943D01*
X7059762Y45832943D02*
X6983571Y45794848D01*
X6983571Y45794848D02*
X6945476Y45756753D01*
X6945476Y45756753D02*
X6907381Y45680562D01*
X6907381Y45680562D02*
X6907381Y45490086D01*
X6907381Y45490086D02*
X6945476Y45413896D01*
X6945476Y45413896D02*
X6983571Y45375800D01*
X6983571Y45375800D02*
X7059762Y45337705D01*
X7059762Y45337705D02*
X7288333Y45337705D01*
X7288333Y45337705D02*
X7364524Y45375800D01*
X7364524Y45375800D02*
X7402619Y45413896D01*
X6412142Y46137705D02*
X6335952Y46137705D01*
X6335952Y46137705D02*
X6259761Y46099610D01*
X6259761Y46099610D02*
X6221666Y46061515D01*
X6221666Y46061515D02*
X6183571Y45985324D01*
X6183571Y45985324D02*
X6145476Y45832943D01*
X6145476Y45832943D02*
X6145476Y45642467D01*
X6145476Y45642467D02*
X6183571Y45490086D01*
X6183571Y45490086D02*
X6221666Y45413896D01*
X6221666Y45413896D02*
X6259761Y45375800D01*
X6259761Y45375800D02*
X6335952Y45337705D01*
X6335952Y45337705D02*
X6412142Y45337705D01*
X6412142Y45337705D02*
X6488333Y45375800D01*
X6488333Y45375800D02*
X6526428Y45413896D01*
X6526428Y45413896D02*
X6564523Y45490086D01*
X6564523Y45490086D02*
X6602619Y45642467D01*
X6602619Y45642467D02*
X6602619Y45832943D01*
X6602619Y45832943D02*
X6564523Y45985324D01*
X6564523Y45985324D02*
X6526428Y46061515D01*
X6526428Y46061515D02*
X6488333Y46099610D01*
X6488333Y46099610D02*
X6412142Y46137705D01*
X7689285Y49663896D02*
X7727381Y49625800D01*
X7727381Y49625800D02*
X7841666Y49587705D01*
X7841666Y49587705D02*
X7917857Y49587705D01*
X7917857Y49587705D02*
X8032143Y49625800D01*
X8032143Y49625800D02*
X8108333Y49701991D01*
X8108333Y49701991D02*
X8146428Y49778181D01*
X8146428Y49778181D02*
X8184524Y49930562D01*
X8184524Y49930562D02*
X8184524Y50044848D01*
X8184524Y50044848D02*
X8146428Y50197229D01*
X8146428Y50197229D02*
X8108333Y50273420D01*
X8108333Y50273420D02*
X8032143Y50349610D01*
X8032143Y50349610D02*
X7917857Y50387705D01*
X7917857Y50387705D02*
X7841666Y50387705D01*
X7841666Y50387705D02*
X7727381Y50349610D01*
X7727381Y50349610D02*
X7689285Y50311515D01*
X7384524Y50311515D02*
X7346428Y50349610D01*
X7346428Y50349610D02*
X7270238Y50387705D01*
X7270238Y50387705D02*
X7079762Y50387705D01*
X7079762Y50387705D02*
X7003571Y50349610D01*
X7003571Y50349610D02*
X6965476Y50311515D01*
X6965476Y50311515D02*
X6927381Y50235324D01*
X6927381Y50235324D02*
X6927381Y50159134D01*
X6927381Y50159134D02*
X6965476Y50044848D01*
X6965476Y50044848D02*
X7422619Y49587705D01*
X7422619Y49587705D02*
X6927381Y49587705D01*
X6241666Y50387705D02*
X6394047Y50387705D01*
X6394047Y50387705D02*
X6470238Y50349610D01*
X6470238Y50349610D02*
X6508333Y50311515D01*
X6508333Y50311515D02*
X6584523Y50197229D01*
X6584523Y50197229D02*
X6622619Y50044848D01*
X6622619Y50044848D02*
X6622619Y49740086D01*
X6622619Y49740086D02*
X6584523Y49663896D01*
X6584523Y49663896D02*
X6546428Y49625800D01*
X6546428Y49625800D02*
X6470238Y49587705D01*
X6470238Y49587705D02*
X6317857Y49587705D01*
X6317857Y49587705D02*
X6241666Y49625800D01*
X6241666Y49625800D02*
X6203571Y49663896D01*
X6203571Y49663896D02*
X6165476Y49740086D01*
X6165476Y49740086D02*
X6165476Y49930562D01*
X6165476Y49930562D02*
X6203571Y50006753D01*
X6203571Y50006753D02*
X6241666Y50044848D01*
X6241666Y50044848D02*
X6317857Y50082943D01*
X6317857Y50082943D02*
X6470238Y50082943D01*
X6470238Y50082943D02*
X6546428Y50044848D01*
X6546428Y50044848D02*
X6584523Y50006753D01*
X6584523Y50006753D02*
X6622619Y49930562D01*
X13136104Y46264286D02*
X13174200Y46302382D01*
X13174200Y46302382D02*
X13212295Y46416667D01*
X13212295Y46416667D02*
X13212295Y46492858D01*
X13212295Y46492858D02*
X13174200Y46607144D01*
X13174200Y46607144D02*
X13098009Y46683334D01*
X13098009Y46683334D02*
X13021819Y46721429D01*
X13021819Y46721429D02*
X12869438Y46759525D01*
X12869438Y46759525D02*
X12755152Y46759525D01*
X12755152Y46759525D02*
X12602771Y46721429D01*
X12602771Y46721429D02*
X12526580Y46683334D01*
X12526580Y46683334D02*
X12450390Y46607144D01*
X12450390Y46607144D02*
X12412295Y46492858D01*
X12412295Y46492858D02*
X12412295Y46416667D01*
X12412295Y46416667D02*
X12450390Y46302382D01*
X12450390Y46302382D02*
X12488485Y46264286D01*
X13212295Y45502382D02*
X13212295Y45959525D01*
X13212295Y45730953D02*
X12412295Y45730953D01*
X12412295Y45730953D02*
X12526580Y45807144D01*
X12526580Y45807144D02*
X12602771Y45883334D01*
X12602771Y45883334D02*
X12640866Y45959525D01*
X12412295Y44816667D02*
X12412295Y44969048D01*
X12412295Y44969048D02*
X12450390Y45045239D01*
X12450390Y45045239D02*
X12488485Y45083334D01*
X12488485Y45083334D02*
X12602771Y45159524D01*
X12602771Y45159524D02*
X12755152Y45197620D01*
X12755152Y45197620D02*
X13059914Y45197620D01*
X13059914Y45197620D02*
X13136104Y45159524D01*
X13136104Y45159524D02*
X13174200Y45121429D01*
X13174200Y45121429D02*
X13212295Y45045239D01*
X13212295Y45045239D02*
X13212295Y44892858D01*
X13212295Y44892858D02*
X13174200Y44816667D01*
X13174200Y44816667D02*
X13136104Y44778572D01*
X13136104Y44778572D02*
X13059914Y44740477D01*
X13059914Y44740477D02*
X12869438Y44740477D01*
X12869438Y44740477D02*
X12793247Y44778572D01*
X12793247Y44778572D02*
X12755152Y44816667D01*
X12755152Y44816667D02*
X12717057Y44892858D01*
X12717057Y44892858D02*
X12717057Y45045239D01*
X12717057Y45045239D02*
X12755152Y45121429D01*
X12755152Y45121429D02*
X12793247Y45159524D01*
X12793247Y45159524D02*
X12869438Y45197620D01*
X7664285Y50713896D02*
X7702381Y50675800D01*
X7702381Y50675800D02*
X7816666Y50637705D01*
X7816666Y50637705D02*
X7892857Y50637705D01*
X7892857Y50637705D02*
X8007143Y50675800D01*
X8007143Y50675800D02*
X8083333Y50751991D01*
X8083333Y50751991D02*
X8121428Y50828181D01*
X8121428Y50828181D02*
X8159524Y50980562D01*
X8159524Y50980562D02*
X8159524Y51094848D01*
X8159524Y51094848D02*
X8121428Y51247229D01*
X8121428Y51247229D02*
X8083333Y51323420D01*
X8083333Y51323420D02*
X8007143Y51399610D01*
X8007143Y51399610D02*
X7892857Y51437705D01*
X7892857Y51437705D02*
X7816666Y51437705D01*
X7816666Y51437705D02*
X7702381Y51399610D01*
X7702381Y51399610D02*
X7664285Y51361515D01*
X7359524Y51361515D02*
X7321428Y51399610D01*
X7321428Y51399610D02*
X7245238Y51437705D01*
X7245238Y51437705D02*
X7054762Y51437705D01*
X7054762Y51437705D02*
X6978571Y51399610D01*
X6978571Y51399610D02*
X6940476Y51361515D01*
X6940476Y51361515D02*
X6902381Y51285324D01*
X6902381Y51285324D02*
X6902381Y51209134D01*
X6902381Y51209134D02*
X6940476Y51094848D01*
X6940476Y51094848D02*
X7397619Y50637705D01*
X7397619Y50637705D02*
X6902381Y50637705D01*
X6178571Y51437705D02*
X6559523Y51437705D01*
X6559523Y51437705D02*
X6597619Y51056753D01*
X6597619Y51056753D02*
X6559523Y51094848D01*
X6559523Y51094848D02*
X6483333Y51132943D01*
X6483333Y51132943D02*
X6292857Y51132943D01*
X6292857Y51132943D02*
X6216666Y51094848D01*
X6216666Y51094848D02*
X6178571Y51056753D01*
X6178571Y51056753D02*
X6140476Y50980562D01*
X6140476Y50980562D02*
X6140476Y50790086D01*
X6140476Y50790086D02*
X6178571Y50713896D01*
X6178571Y50713896D02*
X6216666Y50675800D01*
X6216666Y50675800D02*
X6292857Y50637705D01*
X6292857Y50637705D02*
X6483333Y50637705D01*
X6483333Y50637705D02*
X6559523Y50675800D01*
X6559523Y50675800D02*
X6597619Y50713896D01*
X17236104Y46164286D02*
X17274200Y46202382D01*
X17274200Y46202382D02*
X17312295Y46316667D01*
X17312295Y46316667D02*
X17312295Y46392858D01*
X17312295Y46392858D02*
X17274200Y46507144D01*
X17274200Y46507144D02*
X17198009Y46583334D01*
X17198009Y46583334D02*
X17121819Y46621429D01*
X17121819Y46621429D02*
X16969438Y46659525D01*
X16969438Y46659525D02*
X16855152Y46659525D01*
X16855152Y46659525D02*
X16702771Y46621429D01*
X16702771Y46621429D02*
X16626580Y46583334D01*
X16626580Y46583334D02*
X16550390Y46507144D01*
X16550390Y46507144D02*
X16512295Y46392858D01*
X16512295Y46392858D02*
X16512295Y46316667D01*
X16512295Y46316667D02*
X16550390Y46202382D01*
X16550390Y46202382D02*
X16588485Y46164286D01*
X17312295Y45402382D02*
X17312295Y45859525D01*
X17312295Y45630953D02*
X16512295Y45630953D01*
X16512295Y45630953D02*
X16626580Y45707144D01*
X16626580Y45707144D02*
X16702771Y45783334D01*
X16702771Y45783334D02*
X16740866Y45859525D01*
X16512295Y44907143D02*
X16512295Y44830953D01*
X16512295Y44830953D02*
X16550390Y44754762D01*
X16550390Y44754762D02*
X16588485Y44716667D01*
X16588485Y44716667D02*
X16664676Y44678572D01*
X16664676Y44678572D02*
X16817057Y44640477D01*
X16817057Y44640477D02*
X17007533Y44640477D01*
X17007533Y44640477D02*
X17159914Y44678572D01*
X17159914Y44678572D02*
X17236104Y44716667D01*
X17236104Y44716667D02*
X17274200Y44754762D01*
X17274200Y44754762D02*
X17312295Y44830953D01*
X17312295Y44830953D02*
X17312295Y44907143D01*
X17312295Y44907143D02*
X17274200Y44983334D01*
X17274200Y44983334D02*
X17236104Y45021429D01*
X17236104Y45021429D02*
X17159914Y45059524D01*
X17159914Y45059524D02*
X17007533Y45097620D01*
X17007533Y45097620D02*
X16817057Y45097620D01*
X16817057Y45097620D02*
X16664676Y45059524D01*
X16664676Y45059524D02*
X16588485Y45021429D01*
X16588485Y45021429D02*
X16550390Y44983334D01*
X16550390Y44983334D02*
X16512295Y44907143D01*
X7664285Y47563896D02*
X7702381Y47525800D01*
X7702381Y47525800D02*
X7816666Y47487705D01*
X7816666Y47487705D02*
X7892857Y47487705D01*
X7892857Y47487705D02*
X8007143Y47525800D01*
X8007143Y47525800D02*
X8083333Y47601991D01*
X8083333Y47601991D02*
X8121428Y47678181D01*
X8121428Y47678181D02*
X8159524Y47830562D01*
X8159524Y47830562D02*
X8159524Y47944848D01*
X8159524Y47944848D02*
X8121428Y48097229D01*
X8121428Y48097229D02*
X8083333Y48173420D01*
X8083333Y48173420D02*
X8007143Y48249610D01*
X8007143Y48249610D02*
X7892857Y48287705D01*
X7892857Y48287705D02*
X7816666Y48287705D01*
X7816666Y48287705D02*
X7702381Y48249610D01*
X7702381Y48249610D02*
X7664285Y48211515D01*
X7359524Y48211515D02*
X7321428Y48249610D01*
X7321428Y48249610D02*
X7245238Y48287705D01*
X7245238Y48287705D02*
X7054762Y48287705D01*
X7054762Y48287705D02*
X6978571Y48249610D01*
X6978571Y48249610D02*
X6940476Y48211515D01*
X6940476Y48211515D02*
X6902381Y48135324D01*
X6902381Y48135324D02*
X6902381Y48059134D01*
X6902381Y48059134D02*
X6940476Y47944848D01*
X6940476Y47944848D02*
X7397619Y47487705D01*
X7397619Y47487705D02*
X6902381Y47487705D01*
X6445238Y47944848D02*
X6521428Y47982943D01*
X6521428Y47982943D02*
X6559523Y48021039D01*
X6559523Y48021039D02*
X6597619Y48097229D01*
X6597619Y48097229D02*
X6597619Y48135324D01*
X6597619Y48135324D02*
X6559523Y48211515D01*
X6559523Y48211515D02*
X6521428Y48249610D01*
X6521428Y48249610D02*
X6445238Y48287705D01*
X6445238Y48287705D02*
X6292857Y48287705D01*
X6292857Y48287705D02*
X6216666Y48249610D01*
X6216666Y48249610D02*
X6178571Y48211515D01*
X6178571Y48211515D02*
X6140476Y48135324D01*
X6140476Y48135324D02*
X6140476Y48097229D01*
X6140476Y48097229D02*
X6178571Y48021039D01*
X6178571Y48021039D02*
X6216666Y47982943D01*
X6216666Y47982943D02*
X6292857Y47944848D01*
X6292857Y47944848D02*
X6445238Y47944848D01*
X6445238Y47944848D02*
X6521428Y47906753D01*
X6521428Y47906753D02*
X6559523Y47868658D01*
X6559523Y47868658D02*
X6597619Y47792467D01*
X6597619Y47792467D02*
X6597619Y47640086D01*
X6597619Y47640086D02*
X6559523Y47563896D01*
X6559523Y47563896D02*
X6521428Y47525800D01*
X6521428Y47525800D02*
X6445238Y47487705D01*
X6445238Y47487705D02*
X6292857Y47487705D01*
X6292857Y47487705D02*
X6216666Y47525800D01*
X6216666Y47525800D02*
X6178571Y47563896D01*
X6178571Y47563896D02*
X6140476Y47640086D01*
X6140476Y47640086D02*
X6140476Y47792467D01*
X6140476Y47792467D02*
X6178571Y47868658D01*
X6178571Y47868658D02*
X6216666Y47906753D01*
X6216666Y47906753D02*
X6292857Y47944848D01*
X7664285Y46488896D02*
X7702381Y46450800D01*
X7702381Y46450800D02*
X7816666Y46412705D01*
X7816666Y46412705D02*
X7892857Y46412705D01*
X7892857Y46412705D02*
X8007143Y46450800D01*
X8007143Y46450800D02*
X8083333Y46526991D01*
X8083333Y46526991D02*
X8121428Y46603181D01*
X8121428Y46603181D02*
X8159524Y46755562D01*
X8159524Y46755562D02*
X8159524Y46869848D01*
X8159524Y46869848D02*
X8121428Y47022229D01*
X8121428Y47022229D02*
X8083333Y47098420D01*
X8083333Y47098420D02*
X8007143Y47174610D01*
X8007143Y47174610D02*
X7892857Y47212705D01*
X7892857Y47212705D02*
X7816666Y47212705D01*
X7816666Y47212705D02*
X7702381Y47174610D01*
X7702381Y47174610D02*
X7664285Y47136515D01*
X7359524Y47136515D02*
X7321428Y47174610D01*
X7321428Y47174610D02*
X7245238Y47212705D01*
X7245238Y47212705D02*
X7054762Y47212705D01*
X7054762Y47212705D02*
X6978571Y47174610D01*
X6978571Y47174610D02*
X6940476Y47136515D01*
X6940476Y47136515D02*
X6902381Y47060324D01*
X6902381Y47060324D02*
X6902381Y46984134D01*
X6902381Y46984134D02*
X6940476Y46869848D01*
X6940476Y46869848D02*
X7397619Y46412705D01*
X7397619Y46412705D02*
X6902381Y46412705D01*
X6521428Y46412705D02*
X6369047Y46412705D01*
X6369047Y46412705D02*
X6292857Y46450800D01*
X6292857Y46450800D02*
X6254761Y46488896D01*
X6254761Y46488896D02*
X6178571Y46603181D01*
X6178571Y46603181D02*
X6140476Y46755562D01*
X6140476Y46755562D02*
X6140476Y47060324D01*
X6140476Y47060324D02*
X6178571Y47136515D01*
X6178571Y47136515D02*
X6216666Y47174610D01*
X6216666Y47174610D02*
X6292857Y47212705D01*
X6292857Y47212705D02*
X6445238Y47212705D01*
X6445238Y47212705D02*
X6521428Y47174610D01*
X6521428Y47174610D02*
X6559523Y47136515D01*
X6559523Y47136515D02*
X6597619Y47060324D01*
X6597619Y47060324D02*
X6597619Y46869848D01*
X6597619Y46869848D02*
X6559523Y46793658D01*
X6559523Y46793658D02*
X6521428Y46755562D01*
X6521428Y46755562D02*
X6445238Y46717467D01*
X6445238Y46717467D02*
X6292857Y46717467D01*
X6292857Y46717467D02*
X6216666Y46755562D01*
X6216666Y46755562D02*
X6178571Y46793658D01*
X6178571Y46793658D02*
X6140476Y46869848D01*
X12964285Y19913896D02*
X13002381Y19875800D01*
X13002381Y19875800D02*
X13116666Y19837705D01*
X13116666Y19837705D02*
X13192857Y19837705D01*
X13192857Y19837705D02*
X13307143Y19875800D01*
X13307143Y19875800D02*
X13383333Y19951991D01*
X13383333Y19951991D02*
X13421428Y20028181D01*
X13421428Y20028181D02*
X13459524Y20180562D01*
X13459524Y20180562D02*
X13459524Y20294848D01*
X13459524Y20294848D02*
X13421428Y20447229D01*
X13421428Y20447229D02*
X13383333Y20523420D01*
X13383333Y20523420D02*
X13307143Y20599610D01*
X13307143Y20599610D02*
X13192857Y20637705D01*
X13192857Y20637705D02*
X13116666Y20637705D01*
X13116666Y20637705D02*
X13002381Y20599610D01*
X13002381Y20599610D02*
X12964285Y20561515D01*
X12278571Y20371039D02*
X12278571Y19837705D01*
X12469047Y20675800D02*
X12659524Y20104372D01*
X12659524Y20104372D02*
X12164285Y20104372D01*
X11745238Y20294848D02*
X11821428Y20332943D01*
X11821428Y20332943D02*
X11859523Y20371039D01*
X11859523Y20371039D02*
X11897619Y20447229D01*
X11897619Y20447229D02*
X11897619Y20485324D01*
X11897619Y20485324D02*
X11859523Y20561515D01*
X11859523Y20561515D02*
X11821428Y20599610D01*
X11821428Y20599610D02*
X11745238Y20637705D01*
X11745238Y20637705D02*
X11592857Y20637705D01*
X11592857Y20637705D02*
X11516666Y20599610D01*
X11516666Y20599610D02*
X11478571Y20561515D01*
X11478571Y20561515D02*
X11440476Y20485324D01*
X11440476Y20485324D02*
X11440476Y20447229D01*
X11440476Y20447229D02*
X11478571Y20371039D01*
X11478571Y20371039D02*
X11516666Y20332943D01*
X11516666Y20332943D02*
X11592857Y20294848D01*
X11592857Y20294848D02*
X11745238Y20294848D01*
X11745238Y20294848D02*
X11821428Y20256753D01*
X11821428Y20256753D02*
X11859523Y20218658D01*
X11859523Y20218658D02*
X11897619Y20142467D01*
X11897619Y20142467D02*
X11897619Y19990086D01*
X11897619Y19990086D02*
X11859523Y19913896D01*
X11859523Y19913896D02*
X11821428Y19875800D01*
X11821428Y19875800D02*
X11745238Y19837705D01*
X11745238Y19837705D02*
X11592857Y19837705D01*
X11592857Y19837705D02*
X11516666Y19875800D01*
X11516666Y19875800D02*
X11478571Y19913896D01*
X11478571Y19913896D02*
X11440476Y19990086D01*
X11440476Y19990086D02*
X11440476Y20142467D01*
X11440476Y20142467D02*
X11478571Y20218658D01*
X11478571Y20218658D02*
X11516666Y20256753D01*
X11516666Y20256753D02*
X11592857Y20294848D01*
D12*
%TO.C,R48*%
X12590000Y15206359D02*
X12590000Y15513641D01*
X13350000Y15206359D02*
X13350000Y15513641D01*
%TO.C,C14*%
X13719212Y55098624D02*
X13719212Y54882952D01*
X14439212Y55098624D02*
X14439212Y54882952D01*
%TO.C,C4*%
X14944212Y55098624D02*
X14944212Y54882952D01*
X15664212Y55098624D02*
X15664212Y54882952D01*
%TO.C,C3*%
X16944212Y55073624D02*
X16944212Y54857952D01*
X17664212Y55073624D02*
X17664212Y54857952D01*
%TO.C,C8*%
X10319212Y48012952D02*
X10319212Y48228624D01*
X11039212Y48012952D02*
X11039212Y48228624D01*
%TO.C,C7*%
X11066376Y52305788D02*
X11282048Y52305788D01*
X11066376Y51585788D02*
X11282048Y51585788D01*
%TO.C,C5*%
X11071376Y55605788D02*
X11287048Y55605788D01*
X11071376Y54885788D02*
X11287048Y54885788D01*
%TO.C,R49*%
X13590000Y15216359D02*
X13590000Y15523641D01*
X14350000Y15216359D02*
X14350000Y15523641D01*
%TO.C,C15*%
X11066376Y51355788D02*
X11282048Y51355788D01*
X11066376Y50635788D02*
X11282048Y50635788D01*
%TO.C,C31*%
X5032048Y45180788D02*
X4816376Y45180788D01*
X5032048Y44460788D02*
X4816376Y44460788D01*
%TO.C,C27*%
X5037048Y49130788D02*
X4821376Y49130788D01*
X5037048Y48410788D02*
X4821376Y48410788D01*
%TO.C,C9*%
X13719212Y47837952D02*
X13719212Y48053624D01*
X14439212Y47837952D02*
X14439212Y48053624D01*
%TO.C,C32*%
X5032048Y44205788D02*
X4816376Y44205788D01*
X5032048Y43485788D02*
X4816376Y43485788D01*
%TO.C,R38*%
X10570000Y15513641D02*
X10570000Y15206359D01*
X11330000Y15513641D02*
X11330000Y15206359D01*
%TO.C,C1*%
X18217048Y49630788D02*
X18001376Y49630788D01*
X18217048Y48910788D02*
X18001376Y48910788D01*
%TO.C,C37*%
X14830000Y15507836D02*
X14830000Y15292164D01*
X15550000Y15507836D02*
X15550000Y15292164D01*
%TO.C,C43*%
X14892164Y21710000D02*
X15107836Y21710000D01*
X14892164Y20990000D02*
X15107836Y20990000D01*
%TO.C,C13*%
X18362048Y51630788D02*
X18146376Y51630788D01*
X18362048Y50910788D02*
X18146376Y50910788D01*
%TO.C,C2*%
X18362048Y53605788D02*
X18146376Y53605788D01*
X18362048Y52885788D02*
X18146376Y52885788D01*
%TO.C,R37*%
X11580000Y15513641D02*
X11580000Y15206359D01*
X12340000Y15513641D02*
X12340000Y15206359D01*
%TO.C,C30*%
X5037048Y46155788D02*
X4821376Y46155788D01*
X5037048Y45435788D02*
X4821376Y45435788D01*
%TO.C,C26*%
X5057048Y50105788D02*
X4841376Y50105788D01*
X5057048Y49385788D02*
X4841376Y49385788D01*
%TO.C,C16*%
X12394212Y47837952D02*
X12394212Y48053624D01*
X13114212Y47837952D02*
X13114212Y48053624D01*
%TO.C,C25*%
X5057048Y51080788D02*
X4841376Y51080788D01*
X5057048Y50360788D02*
X4841376Y50360788D01*
%TO.C,C10*%
X16519212Y47762952D02*
X16519212Y47978624D01*
X17239212Y47762952D02*
X17239212Y47978624D01*
%TO.C,C28*%
X5032048Y48130788D02*
X4816376Y48130788D01*
X5032048Y47410788D02*
X4816376Y47410788D01*
%TO.C,C29*%
X5032048Y47130788D02*
X4816376Y47130788D01*
X5032048Y46410788D02*
X4816376Y46410788D01*
%TO.C,C48*%
X12607836Y21710000D02*
X12392164Y21710000D01*
X12607836Y20990000D02*
X12392164Y20990000D01*
%TD*%
%LPC*%
D11*
X12900000Y53150000D02*
X16400000Y53150000D01*
X16400000Y49700000D01*
X12900000Y49700000D01*
X12900000Y53150000D01*
G36*
X12900000Y53150000D02*
G01*
X16400000Y53150000D01*
X16400000Y49700000D01*
X12900000Y49700000D01*
X12900000Y53150000D01*
G37*
X17150000Y36100000D02*
X20300000Y36100000D01*
X20300000Y32050000D01*
X17150000Y32050000D01*
X17150000Y36100000D01*
G36*
X17150000Y36100000D02*
G01*
X20300000Y36100000D01*
X20300000Y32050000D01*
X17150000Y32050000D01*
X17150000Y36100000D01*
G37*
X5650000Y69850000D02*
X7850000Y69850000D01*
X7850000Y68350000D01*
X5650000Y68350000D01*
X5650000Y69850000D01*
G36*
X5650000Y69850000D02*
G01*
X7850000Y69850000D01*
X7850000Y68350000D01*
X5650000Y68350000D01*
X5650000Y69850000D01*
G37*
D13*
%TO.C,DEBUG*%
X25980000Y78705000D03*
D14*
X23440000Y78705000D03*
D13*
X20900000Y78705000D03*
X25980000Y75530000D03*
X20900000Y75530000D03*
D14*
X24456000Y73625000D03*
X22424000Y73625000D03*
%TD*%
D15*
%TO.C,J1*%
X23675000Y1845000D03*
X23175000Y1845000D03*
X22675000Y1845000D03*
X22175000Y1845000D03*
X21675000Y1845000D03*
X21175000Y1845000D03*
X20675000Y1845000D03*
X20175000Y1845000D03*
X19675000Y1845000D03*
X19175000Y1845000D03*
X18675000Y1845000D03*
X18175000Y1845000D03*
X17675000Y1845000D03*
X17175000Y1845000D03*
X16675000Y1845000D03*
X16175000Y1845000D03*
X15675000Y1845000D03*
X15175000Y1845000D03*
X14675000Y1845000D03*
X14175000Y1845000D03*
X13675000Y1845000D03*
X13175000Y1845000D03*
X12675000Y1845000D03*
X12175000Y1845000D03*
X11675000Y1845000D03*
X11175000Y1845000D03*
X10675000Y1845000D03*
X10175000Y1845000D03*
X9675000Y1845000D03*
X7175000Y1845000D03*
X6675000Y1845000D03*
X6175000Y1845000D03*
X5675000Y1845000D03*
D16*
X14721447Y80765000D03*
%TD*%
D17*
%TO.C,IC1*%
X15529212Y50595788D03*
X15529212Y51445788D03*
X15529212Y52295788D03*
X14679212Y50595788D03*
X14679212Y51445788D03*
X14679212Y52295788D03*
X13829212Y50595788D03*
X13829212Y51445788D03*
X13829212Y52295788D03*
%TD*%
D18*
%TO.C,R48*%
X12970000Y14850000D03*
X12970000Y15870000D03*
%TD*%
D19*
%TO.C,C14*%
X14079212Y55470788D03*
X14079212Y54510788D03*
%TD*%
%TO.C,C4*%
X15304212Y55470788D03*
X15304212Y54510788D03*
%TD*%
%TO.C,C3*%
X17304212Y55445788D03*
X17304212Y54485788D03*
%TD*%
D20*
%TO.C,C8*%
X10679212Y47640788D03*
X10679212Y48600788D03*
%TD*%
D21*
%TO.C,C7*%
X10694212Y51945788D03*
X11654212Y51945788D03*
%TD*%
%TO.C,C5*%
X10699212Y55245788D03*
X11659212Y55245788D03*
%TD*%
D18*
%TO.C,R49*%
X13970000Y14860000D03*
X13970000Y15880000D03*
%TD*%
D21*
%TO.C,C15*%
X10694212Y50995788D03*
X11654212Y50995788D03*
%TD*%
D22*
%TO.C,C31*%
X5404212Y44820788D03*
X4444212Y44820788D03*
%TD*%
%TO.C,C27*%
X5409212Y48770788D03*
X4449212Y48770788D03*
%TD*%
D20*
%TO.C,C9*%
X14079212Y47465788D03*
X14079212Y48425788D03*
%TD*%
D22*
%TO.C,C32*%
X5404212Y43845788D03*
X4444212Y43845788D03*
%TD*%
D23*
%TO.C,R38*%
X10950000Y15870000D03*
X10950000Y14850000D03*
%TD*%
D22*
%TO.C,C1*%
X18589212Y49270788D03*
X17629212Y49270788D03*
%TD*%
D19*
%TO.C,C37*%
X15190000Y15880000D03*
X15190000Y14920000D03*
%TD*%
D21*
%TO.C,C43*%
X14520000Y21350000D03*
X15480000Y21350000D03*
%TD*%
D22*
%TO.C,C13*%
X18734212Y51270788D03*
X17774212Y51270788D03*
%TD*%
%TO.C,C2*%
X18734212Y53245788D03*
X17774212Y53245788D03*
%TD*%
D23*
%TO.C,R37*%
X11960000Y15870000D03*
X11960000Y14850000D03*
%TD*%
D22*
%TO.C,C30*%
X5409212Y45795788D03*
X4449212Y45795788D03*
%TD*%
%TO.C,C26*%
X5429212Y49745788D03*
X4469212Y49745788D03*
%TD*%
D20*
%TO.C,C16*%
X12754212Y47465788D03*
X12754212Y48425788D03*
%TD*%
D22*
%TO.C,C25*%
X5429212Y50720788D03*
X4469212Y50720788D03*
%TD*%
D20*
%TO.C,C10*%
X16879212Y47390788D03*
X16879212Y48350788D03*
%TD*%
D22*
%TO.C,C28*%
X5404212Y47770788D03*
X4444212Y47770788D03*
%TD*%
%TO.C,C29*%
X5404212Y46770788D03*
X4444212Y46770788D03*
%TD*%
%TO.C,C48*%
X12980000Y21350000D03*
X12020000Y21350000D03*
%TD*%
%LPD*%
M02*
