%TF.GenerationSoftware,KiCad,Pcbnew,9.0.7*%
%TF.CreationDate,2026-02-28T14:28:49+01:00*%
%TF.ProjectId,BladeCore-M54E,426c6164-6543-46f7-9265-2d4d3534452e,rev?*%
%TF.SameCoordinates,Original*%
%TF.FileFunction,Copper,L3,Inr*%
%TF.FilePolarity,Positive*%
%FSLAX46Y46*%
G04 Gerber Fmt 4.6, Leading zero omitted, Abs format (unit mm)*
G04 Created by KiCad (PCBNEW 9.0.7) date 2026-02-28 14:28:49*
%MOMM*%
%LPD*%
G01*
G04 APERTURE LIST*
%TA.AperFunction,ComponentPad*%
%ADD10C,0.600000*%
%TD*%
%TA.AperFunction,HeatsinkPad*%
%ADD11O,1.000000X2.100000*%
%TD*%
%TA.AperFunction,HeatsinkPad*%
%ADD12O,1.000000X1.600000*%
%TD*%
%TA.AperFunction,ComponentPad*%
%ADD13C,5.500000*%
%TD*%
%TA.AperFunction,HeatsinkPad*%
%ADD14C,0.425000*%
%TD*%
%TA.AperFunction,ViaPad*%
%ADD15C,0.400000*%
%TD*%
%TA.AperFunction,ViaPad*%
%ADD16C,0.450000*%
%TD*%
%TA.AperFunction,Conductor*%
%ADD17C,0.300000*%
%TD*%
%TA.AperFunction,Conductor*%
%ADD18C,0.174000*%
%TD*%
%TA.AperFunction,Conductor*%
%ADD19C,0.150000*%
%TD*%
G04 APERTURE END LIST*
D10*
%TO.N,GND*%
%TO.C,IC7*%
X5890000Y68620000D03*
X7610000Y68620000D03*
X6750000Y69100000D03*
X5890000Y69580000D03*
X7610000Y69580000D03*
%TD*%
D11*
%TO.N,SHIELD*%
%TO.C,J3*%
X27795000Y75120000D03*
D12*
X27795000Y79300000D03*
D11*
X19155000Y75120000D03*
D12*
X19155000Y79300000D03*
%TD*%
D13*
%TO.N,N/C*%
%TO.C,J1*%
X14721447Y80770000D03*
%TD*%
D14*
%TO.N,GND*%
%TO.C,IC1*%
X15529212Y50595788D03*
X15529212Y51445788D03*
X15529212Y52295788D03*
X14679212Y50595788D03*
X14679212Y51445788D03*
X14679212Y52295788D03*
X13829212Y50595788D03*
X13829212Y51445788D03*
X13829212Y52295788D03*
%TD*%
D15*
%TO.N,GND*%
X7500000Y64725000D03*
X16000000Y23100000D03*
X9150000Y58100000D03*
D16*
X19675000Y73475000D03*
D15*
X22000000Y23600000D03*
X18410000Y4640000D03*
X5200000Y12375000D03*
D16*
X20825000Y71150000D03*
D15*
X8700000Y7200000D03*
X19750000Y32350000D03*
X10832300Y11175305D03*
X14450000Y33700000D03*
X17250000Y16350000D03*
X3650000Y57400000D03*
X21000000Y19100000D03*
X15350000Y31075000D03*
X14139098Y4610031D03*
X6750000Y62900000D03*
X26000000Y7100000D03*
X27200000Y10500000D03*
X6000000Y78500000D03*
X17750000Y34600000D03*
X12000000Y20600000D03*
X17000000Y14100000D03*
X13810000Y75255000D03*
X18000000Y19100000D03*
X15040000Y74500000D03*
X12325000Y55250000D03*
X8400000Y20500000D03*
D16*
X22875000Y63250000D03*
D15*
X12475000Y64200000D03*
X14000000Y25100000D03*
X28000000Y5100000D03*
X8850000Y78550000D03*
X20600000Y58600000D03*
X3300000Y10100000D03*
X9700000Y62000000D03*
X6925000Y21100000D03*
X23200000Y31350000D03*
X8100000Y28200000D03*
X4050000Y64700000D03*
X21420000Y4640000D03*
X1800000Y5225000D03*
X17325000Y66425000D03*
X10665836Y45034164D03*
X11400000Y69050000D03*
D16*
X17477407Y68534304D03*
D15*
X9250000Y19600000D03*
X17600000Y28150000D03*
X16000000Y25100000D03*
X12100000Y11175000D03*
X26000000Y5100000D03*
X18750000Y32350000D03*
X16175000Y4650000D03*
X17758697Y33528588D03*
X4134800Y42925000D03*
X5000000Y14100000D03*
X21425000Y36700000D03*
X1100000Y6000000D03*
X21980000Y24600000D03*
X7000000Y23850000D03*
X16175000Y61025000D03*
X8100000Y5625000D03*
X8000000Y38000000D03*
D16*
X17477407Y69184304D03*
X26775000Y72775000D03*
X20000000Y69800000D03*
D15*
X14700000Y67450000D03*
X5262500Y73787500D03*
X17625000Y48525000D03*
X16750000Y23600000D03*
X16500000Y15850000D03*
X2050000Y75450000D03*
X18750000Y34600000D03*
X11650000Y52575000D03*
X16200000Y67450000D03*
X17450000Y78350000D03*
X17750000Y32350000D03*
X12200000Y37700000D03*
X12825000Y10625000D03*
X3300000Y9050000D03*
X8925000Y38925000D03*
X11000000Y20700000D03*
X22000000Y25600000D03*
X8100000Y34850000D03*
X28000000Y7100000D03*
X15800000Y14920000D03*
X11651527Y50326527D03*
X1075000Y7000000D03*
X15000000Y12100000D03*
X8500000Y72550000D03*
X18758697Y33528588D03*
X12000000Y25100000D03*
D16*
X19675000Y72800000D03*
D15*
X17000000Y73362500D03*
X10675000Y49250000D03*
X16750000Y22100000D03*
X3700000Y54200000D03*
X3750000Y52150000D03*
X15300000Y53900000D03*
X17150000Y42300000D03*
X16550000Y54475000D03*
X18758697Y35697756D03*
X7850000Y6275000D03*
X5575000Y5525000D03*
X5900000Y77125000D03*
X5550000Y79700000D03*
X23925000Y4650000D03*
X11550000Y48225000D03*
X9425000Y4925000D03*
X17758697Y35697756D03*
X6375000Y23100000D03*
X17100000Y51275000D03*
X8225000Y65400000D03*
X8675000Y73875000D03*
X9096800Y15052936D03*
X27200000Y8100000D03*
X9150000Y31050000D03*
X21980000Y22350000D03*
X4750000Y18100000D03*
X6700000Y28800000D03*
X21980000Y21350000D03*
D16*
X27200000Y73550000D03*
D15*
X12350000Y30750000D03*
X11050000Y40400000D03*
X12776527Y49201527D03*
D16*
X14300000Y68500000D03*
X20000000Y69150000D03*
X20000000Y68500000D03*
X17477407Y69834304D03*
D15*
X14100000Y49178200D03*
X26000000Y7100000D03*
X9650000Y75250000D03*
X19750000Y34600000D03*
X14000000Y23100000D03*
X19758697Y35697756D03*
X14075000Y53900000D03*
X19758697Y33528588D03*
D16*
X17477407Y67884304D03*
D15*
X12000000Y23100000D03*
X18850000Y28150000D03*
X11500000Y43000000D03*
X15500000Y20600000D03*
X17100000Y53250000D03*
X15190000Y14300000D03*
D16*
X20000000Y67850000D03*
D15*
X10850000Y36850000D03*
X5075000Y64700000D03*
X16750000Y21100000D03*
X15325000Y73680000D03*
X14425000Y30575000D03*
X6400000Y22125000D03*
X16562573Y49190627D03*
X8475000Y71000000D03*
X3350000Y65450000D03*
X9850000Y28200000D03*
X9036626Y71810000D03*
X13975000Y65025000D03*
%TO.N,+5V*%
X4000000Y68100000D03*
X8475000Y67625000D03*
X3000000Y68100000D03*
X2400000Y21650000D03*
X3000000Y67100000D03*
X3325000Y66375000D03*
X4000000Y67100000D03*
X2000000Y68100000D03*
X2000000Y67100000D03*
X2400000Y20350000D03*
X2400000Y21000000D03*
%TO.N,+3.3V*%
X8000000Y21300000D03*
X3500000Y74600000D03*
X2500000Y73600000D03*
X8000000Y23900000D03*
X11385876Y67935876D03*
X10679212Y47670788D03*
X12050000Y71300000D03*
X1500000Y74600000D03*
X16200000Y30900000D03*
X18729212Y53245788D03*
X10704212Y55245788D03*
X3500000Y73600000D03*
X24600000Y62950000D03*
X2500000Y74600000D03*
X17279212Y55470788D03*
X3500000Y71600000D03*
X3375000Y42950000D03*
X7250000Y25375000D03*
X13895000Y71245000D03*
X7394192Y42703494D03*
X10654212Y51845788D03*
X18679212Y49245788D03*
X11879212Y47445788D03*
X3480331Y63180331D03*
X1500000Y72600000D03*
X4497224Y73585855D03*
X16200000Y30100000D03*
D16*
X9350000Y76500000D03*
D15*
X14054212Y47420788D03*
X2500000Y71600000D03*
X1850000Y61925000D03*
X4500000Y71600000D03*
X16879212Y47445788D03*
X1500000Y71600000D03*
X21675000Y28775000D03*
X4625000Y75525000D03*
X6475000Y64700000D03*
X16200000Y29300000D03*
X15279212Y55470788D03*
X1500000Y73600000D03*
X4500000Y74600000D03*
%TO.N,/Project Architecture/Microcontroller Peripherals/VREF_IN*%
X7150000Y37025000D03*
X15775000Y71250000D03*
%TO.N,/Project Architecture/Ethernet Interface/RDN_R_N*%
X12970000Y14850000D03*
%TO.N,/Project Architecture/RD_N*%
X13115000Y11175000D03*
%TO.N,+1V1*%
X12679212Y47445788D03*
X14054212Y55445788D03*
X18779212Y51245788D03*
X10654212Y51045788D03*
%TO.N,/Project Architecture/Ethernet Interface/RDN_R_P*%
X13970000Y14850000D03*
%TO.N,/Project Architecture/RD_P*%
X13815000Y11175000D03*
%TO.N,+3.3VP*%
X20250000Y21350000D03*
X20230000Y24600000D03*
X14500000Y20600000D03*
X20200000Y30100000D03*
X20250000Y22350000D03*
X13000000Y20600000D03*
X20200000Y30900000D03*
X10195000Y18350000D03*
X20200000Y29300000D03*
X17250000Y17350000D03*
%TO.N,VBUS*%
X4500000Y5600000D03*
X3275000Y79350000D03*
X3500000Y5600000D03*
X2475000Y11700000D03*
X3500000Y6600000D03*
X4500000Y6600000D03*
%TO.N,/Project Architecture/Microcontroller/ADC_VUSB*%
X1050000Y10050000D03*
X3575000Y44750000D03*
%TO.N,HEARTBEAT*%
X13300000Y65525000D03*
X4775000Y54600000D03*
D16*
%TO.N,/Project Architecture/Microcontroller Peripherals/I2C0_SCL*%
X14600000Y69250000D03*
D15*
X4800000Y57550000D03*
%TO.N,/Project Architecture/Microcontroller Peripherals/I2C0_SDA*%
X4775000Y58350000D03*
D16*
X11226000Y70026000D03*
D15*
X12960000Y71380000D03*
%TO.N,QSPI_SS*%
X22750000Y20300000D03*
X27200000Y14300000D03*
%TO.N,/Project Architecture/Microcontroller Peripherals/SWDIO*%
X13100000Y59100000D03*
X6746958Y26736311D03*
%TO.N,/Project Architecture/Microcontroller Peripherals/SWCLK*%
X13766212Y58300000D03*
X7400000Y24550000D03*
%TO.N,/Project Architecture/Ethernet Interface/SPI1_MOSI*%
X1598472Y59769841D03*
X4750000Y59725000D03*
%TO.N,/Project Architecture/Ethernet Interface/ETH_INT*%
X1275000Y55350000D03*
X3475000Y55425000D03*
%TO.N,/Project Architecture/Ethernet Interface/SPI1_SCLK*%
X2825000Y60375000D03*
X4725000Y60525000D03*
%TO.N,/Project Architecture/Ethernet Interface/ETH_RST*%
X1268533Y56400000D03*
X3850000Y56400000D03*
%TO.N,/Project Architecture/GPIO22*%
X22375000Y9025000D03*
X24530000Y61330000D03*
%TO.N,/Project Architecture/GPIO23*%
X22950000Y9200000D03*
X24520000Y62120000D03*
%TO.N,/Project Architecture/GPIO18*%
X20100000Y8025000D03*
X24540000Y57550000D03*
%TO.N,/Project Architecture/GPIO27*%
X25360000Y7275000D03*
X18970000Y65330000D03*
%TO.N,/Project Architecture/LINK_LED*%
X21950000Y26650000D03*
D16*
%TO.N,/Project Architecture/PWR*%
X28250000Y64800000D03*
X28250000Y63600000D03*
D15*
X10025000Y65725000D03*
X10025000Y66250000D03*
D16*
X28250000Y64200000D03*
D15*
X10025000Y65175000D03*
%TO.N,/Project Architecture/ADC0*%
X3675000Y50725000D03*
X8575000Y16700000D03*
%TO.N,/Project Architecture/GPIO26*%
X24710000Y7100000D03*
X19760000Y65310000D03*
%TO.N,/Project Architecture/ADC5*%
X9250000Y5675000D03*
X3575000Y45750000D03*
%TO.N,/Project Architecture/GPIO25*%
X20554212Y65320788D03*
X24120000Y6900000D03*
%TO.N,/Project Architecture/GPIO21*%
X21750000Y8750000D03*
X24510000Y60520000D03*
%TO.N,/Project Architecture/ADC4*%
X3550000Y46775000D03*
X9350000Y6475000D03*
%TO.N,/Project Architecture/GPIO19*%
X24530000Y58330000D03*
X20625000Y8700000D03*
D16*
%TO.N,/Project Architecture/TCT*%
X9775000Y16300000D03*
D15*
%TO.N,/Project Architecture/GPIO20*%
X21200000Y8247545D03*
X24520000Y59730000D03*
%TO.N,/Project Architecture/GPIO24*%
X21380000Y65330000D03*
X23525000Y9450000D03*
%TO.N,Net-(IC1B-GPIO40{slash}ADC0)*%
X5425728Y50817350D03*
%TO.N,Net-(IC1B-GPIO41{slash}ADC1)*%
X5465409Y49791321D03*
%TO.N,Net-(IC1B-GPIO42{slash}ADC2)*%
X5448403Y48793636D03*
%TO.N,Net-(IC1B-GPIO43{slash}ADC3)*%
X5414391Y47807288D03*
%TO.N,Net-(IC1B-GPIO44{slash}ADC4)*%
X5397385Y46798265D03*
%TO.N,Net-(IC1B-GPIO45{slash}ADC5)*%
X5397385Y45732555D03*
%TO.N,Net-(IC1B-GPIO46{slash}ADC6)*%
X5454072Y44774550D03*
%TO.N,Net-(IC1B-GPIO47{slash}ADC7)*%
X5442734Y43884569D03*
%TO.N,/Project Architecture/TD_N*%
X11105000Y10600000D03*
%TO.N,/Project Architecture/ADC2*%
X3575000Y48775000D03*
X7350000Y17200000D03*
%TO.N,/Project Architecture/TD_P*%
X11805000Y10600000D03*
%TO.N,/Project Architecture/ADC3*%
X6800000Y17450000D03*
X3575000Y47800000D03*
%TO.N,/Project Architecture/ADC1*%
X3625000Y49750000D03*
X7950000Y16975000D03*
%TO.N,/Project Architecture/ACT_LED*%
X21975000Y27675000D03*
%TO.N,/Project Architecture/Microcontroller Peripherals/ADC_VREF*%
X3575000Y43775000D03*
X6430000Y35550000D03*
%TO.N,/Project Architecture/Ethernet Interface/TDN_R_P*%
X11960000Y14850000D03*
%TO.N,/Project Architecture/Ethernet Interface/TDN_R_N*%
X10950000Y14850000D03*
D16*
%TO.N,VBUS_ONBOARD*%
X25725000Y76375000D03*
X25226446Y58976446D03*
X21050000Y73475000D03*
X25875000Y74480000D03*
X25875000Y73450000D03*
D15*
X22250000Y67200000D03*
X21600000Y67200000D03*
D16*
X21225000Y76375000D03*
D15*
X21000000Y67200000D03*
D16*
X21075000Y74480000D03*
X25875000Y71300000D03*
%TO.N,USB_D-*%
X28151200Y68450000D03*
D15*
X6325000Y8900000D03*
D16*
%TO.N,USB_D+*%
X27548800Y68450000D03*
D15*
X7025000Y8900000D03*
D16*
%TO.N,USB_ONB_D+*%
X22673800Y69450000D03*
X22337019Y77162019D03*
%TO.N,USB_ONB_D-*%
X22762981Y77587981D03*
X23276200Y69450000D03*
%TO.N,/Project Architecture/USB Interface and Power/USB_RP_D+*%
X22750000Y64073800D03*
X13484743Y42748112D03*
%TO.N,/Project Architecture/USB Interface and Power/USB_RP_D-*%
X12676013Y42759449D03*
X22750000Y64676200D03*
D15*
%TO.N,SHIELD*%
X16950000Y76275000D03*
%TD*%
D17*
%TO.N,/Project Architecture/Microcontroller Peripherals/VREF_IN*%
X12525000Y68325000D02*
X15450000Y71250000D01*
X8100000Y61475000D02*
X12525000Y65900000D01*
X15450000Y71250000D02*
X15775000Y71250000D01*
X8100000Y41100000D02*
X8100000Y61475000D01*
X7150000Y37025000D02*
X7150000Y40150000D01*
X7150000Y40150000D02*
X8100000Y41100000D01*
X12525000Y65900000D02*
X12525000Y68325000D01*
D18*
%TO.N,/Project Architecture/Microcontroller/ADC_VUSB*%
X1950000Y10050000D02*
X1050000Y10050000D01*
X3550000Y39850000D02*
X3550000Y11650000D01*
X4450000Y44400000D02*
X4625000Y44225000D01*
X4625000Y41950000D02*
X3875000Y41200000D01*
X3550000Y40875000D02*
X3550000Y39850000D01*
X3875000Y41200000D02*
X3550000Y40875000D01*
X2650000Y10750000D02*
X1950000Y10050000D01*
X3550000Y11650000D02*
X2650000Y10750000D01*
X4625000Y44225000D02*
X4625000Y43550000D01*
X4625000Y43550000D02*
X4625000Y41950000D01*
X3575000Y44750000D02*
X4100000Y44750000D01*
X4100000Y44750000D02*
X4450000Y44400000D01*
%TO.N,/Project Architecture/Microcontroller Peripherals/SWDIO*%
X13100000Y57800000D02*
X11750000Y56450000D01*
X9413000Y55363000D02*
X9413000Y32003137D01*
X10500000Y56450000D02*
X9413000Y55363000D01*
X11750000Y56450000D02*
X10500000Y56450000D01*
X9413000Y32003137D02*
X7188000Y29778137D01*
X7188000Y29778137D02*
X7188000Y27177353D01*
X13100000Y59100000D02*
X13100000Y57800000D01*
X7188000Y27177353D02*
X6746958Y26736311D01*
%TO.N,/Project Architecture/Microcontroller Peripherals/SWCLK*%
X9352137Y29302137D02*
X9850000Y29800000D01*
X9352137Y26502137D02*
X9352137Y29302137D01*
X13766212Y57666212D02*
X13766212Y58300000D01*
X9850000Y55250000D02*
X10600000Y56000000D01*
X10600000Y56000000D02*
X12100000Y56000000D01*
X7400000Y24550000D02*
X9352137Y26502137D01*
X9850000Y29800000D02*
X9850000Y55250000D01*
X12100000Y56000000D02*
X13766212Y57666212D01*
D19*
%TO.N,/Project Architecture/GPIO22*%
X26610000Y60220000D02*
X26610000Y18960000D01*
X22375000Y14725000D02*
X22375000Y9025000D01*
X25500000Y61330000D02*
X26610000Y60220000D01*
X24530000Y61330000D02*
X25500000Y61330000D01*
X26610000Y18960000D02*
X22375000Y14725000D01*
%TO.N,/Project Architecture/GPIO23*%
X22950000Y9200000D02*
X22950000Y14640000D01*
X26920000Y18610000D02*
X26920000Y60780000D01*
X26920000Y60780000D02*
X25580000Y62120000D01*
X22950000Y14640000D02*
X26920000Y18610000D01*
X25580000Y62120000D02*
X24520000Y62120000D01*
%TO.N,/Project Architecture/GPIO18*%
X24970000Y57550000D02*
X25460000Y57060000D01*
X25460000Y57060000D02*
X25460000Y20110000D01*
X25460000Y20110000D02*
X20100000Y14750000D01*
X20100000Y14750000D02*
X20100000Y8025000D01*
X24540000Y57550000D02*
X24970000Y57550000D01*
%TO.N,/Project Architecture/GPIO27*%
X25360000Y14810000D02*
X28280000Y17730000D01*
X20300000Y66660000D02*
X18970000Y65330000D01*
X28280000Y17730000D02*
X28280000Y61910000D01*
X23530000Y66660000D02*
X20300000Y66660000D01*
X28280000Y61910000D02*
X23530000Y66660000D01*
X25360000Y7275000D02*
X25360000Y14810000D01*
D18*
%TO.N,/Project Architecture/ADC0*%
X3675000Y50725000D02*
X4104167Y50295833D01*
X6887000Y42937000D02*
X6887000Y40912000D01*
X8575000Y18500000D02*
X8575000Y16700000D01*
X6800000Y49000000D02*
X7150000Y48650000D01*
X5850000Y39875000D02*
X5850000Y21225000D01*
X4104167Y50295833D02*
X6429167Y50295833D01*
X6798999Y49006614D02*
X6800000Y49005613D01*
X6800000Y49370467D02*
X6798999Y49369466D01*
X6800000Y49005613D02*
X6800000Y49000000D01*
X7150000Y43200000D02*
X6887000Y42937000D01*
X6887000Y40912000D02*
X5850000Y39875000D01*
X6798999Y49369466D02*
X6798999Y49006614D01*
X6429167Y50295833D02*
X6800000Y49925000D01*
X7150000Y48650000D02*
X7150000Y43200000D01*
X6800000Y49925000D02*
X6800000Y49370467D01*
X5850000Y21225000D02*
X8575000Y18500000D01*
D19*
%TO.N,/Project Architecture/GPIO26*%
X24710000Y7100000D02*
X24710000Y14790000D01*
X20730000Y66280000D02*
X19760000Y65310000D01*
X27880000Y17960000D02*
X27880000Y61790000D01*
X24710000Y14790000D02*
X27880000Y17960000D01*
X27880000Y61790000D02*
X23390000Y66280000D01*
X23390000Y66280000D02*
X20730000Y66280000D01*
D18*
%TO.N,/Project Architecture/ADC5*%
X4675000Y45750000D02*
X3575000Y45750000D01*
X9250000Y5675000D02*
X8175000Y6750000D01*
X5725000Y13950000D02*
X5725000Y18500000D01*
X4950000Y45475000D02*
X4675000Y45750000D01*
X4950000Y41675000D02*
X4950000Y45475000D01*
X3975000Y20250000D02*
X3975000Y40700000D01*
X8175000Y6750000D02*
X8175000Y11500000D01*
X3975000Y40700000D02*
X4950000Y41675000D01*
X5725000Y18500000D02*
X3975000Y20250000D01*
X8175000Y11500000D02*
X5725000Y13950000D01*
D19*
%TO.N,/Project Architecture/GPIO25*%
X21183424Y65950000D02*
X20554212Y65320788D01*
X24120000Y14690000D02*
X27550000Y18120000D01*
X23190000Y65950000D02*
X21183424Y65950000D01*
X24120000Y6900000D02*
X24120000Y14690000D01*
X27550000Y18120000D02*
X27550000Y61590000D01*
X27550000Y61590000D02*
X23190000Y65950000D01*
%TO.N,/Project Architecture/GPIO21*%
X25350000Y60520000D02*
X24510000Y60520000D01*
X21750000Y14720000D02*
X26320000Y19290000D01*
X26320000Y19290000D02*
X26320000Y59550000D01*
X26320000Y59550000D02*
X25350000Y60520000D01*
X21750000Y8750000D02*
X21750000Y14720000D01*
D18*
%TO.N,/Project Architecture/ADC4*%
X4425000Y20400000D02*
X6150000Y18675000D01*
X6150000Y18675000D02*
X6150000Y14100000D01*
X6150000Y14100000D02*
X9350000Y10900000D01*
X5827000Y43570492D02*
X5827000Y41977000D01*
X5525000Y46300000D02*
X5950000Y45875000D01*
X9350000Y10900000D02*
X9350000Y6475000D01*
X5950000Y43693492D02*
X5827000Y43570492D01*
X4025000Y46300000D02*
X5525000Y46300000D01*
X5827000Y41977000D02*
X4425000Y40575000D01*
X3550000Y46775000D02*
X4025000Y46300000D01*
X4425000Y40575000D02*
X4425000Y20400000D01*
X5950000Y45875000D02*
X5950000Y43693492D01*
D19*
%TO.N,/Project Architecture/GPIO19*%
X20625000Y8700000D02*
X20625000Y14715000D01*
X25730000Y19820000D02*
X25730000Y57660000D01*
X25060000Y58330000D02*
X24530000Y58330000D01*
X20625000Y14715000D02*
X25730000Y19820000D01*
X25730000Y57660000D02*
X25060000Y58330000D01*
%TO.N,/Project Architecture/GPIO20*%
X25180000Y59730000D02*
X24520000Y59730000D01*
X21200000Y8247545D02*
X21200000Y14730000D01*
X21200000Y14730000D02*
X26030000Y19560000D01*
X26030000Y58880000D02*
X25180000Y59730000D01*
X26030000Y19560000D02*
X26030000Y58880000D01*
%TO.N,/Project Architecture/GPIO24*%
X23100000Y65330000D02*
X27220000Y61210000D01*
X23525000Y14635000D02*
X23525000Y9450000D01*
X27220000Y18330000D02*
X23525000Y14635000D01*
X27220000Y61210000D02*
X27220000Y18330000D01*
X21380000Y65330000D02*
X23100000Y65330000D01*
D18*
%TO.N,/Project Architecture/ADC2*%
X6357000Y43303979D02*
X6357000Y41357000D01*
X6550000Y43496979D02*
X6357000Y43303979D01*
X4050000Y48300000D02*
X6275000Y48300000D01*
X5200000Y20775000D02*
X7350000Y18625000D01*
X3575000Y48775000D02*
X4050000Y48300000D01*
X6550000Y48025000D02*
X6550000Y43496979D01*
X7350000Y18625000D02*
X7350000Y17200000D01*
X6357000Y41357000D02*
X5200000Y40200000D01*
X6275000Y48300000D02*
X6550000Y48025000D01*
X5200000Y40200000D02*
X5200000Y20775000D01*
%TO.N,/Project Architecture/ADC3*%
X6285000Y43653724D02*
X6285000Y46740000D01*
X6800000Y18600000D02*
X4825000Y20575000D01*
X4075000Y47300000D02*
X3575000Y47800000D01*
X6800000Y17450000D02*
X6800000Y18600000D01*
X6092000Y43460725D02*
X6285000Y43653724D01*
X6285000Y46740000D02*
X5725000Y47300000D01*
X5725000Y47300000D02*
X4075000Y47300000D01*
X4825000Y40400000D02*
X6092000Y41667000D01*
X4825000Y20575000D02*
X4825000Y40400000D01*
X6092000Y41667000D02*
X6092000Y43460725D01*
%TO.N,/Project Architecture/ADC1*%
X6622000Y41122000D02*
X6622000Y43122000D01*
X5525000Y20975234D02*
X5525000Y40025000D01*
X6622000Y43122000D02*
X6850000Y43350000D01*
X7950000Y18550234D02*
X5525000Y20975234D01*
X6850000Y48575000D02*
X6125000Y49300000D01*
X5525000Y40025000D02*
X6622000Y41122000D01*
X6850000Y43350000D02*
X6850000Y48575000D01*
X4075000Y49300000D02*
X3625000Y49750000D01*
X6125000Y49300000D02*
X4075000Y49300000D01*
X7950000Y16975000D02*
X7950000Y18550234D01*
%TD*%
%TA.AperFunction,Conductor*%
%TO.N,GND*%
G36*
X11676244Y80448946D02*
G01*
X11678150Y80449442D01*
X11709627Y80439144D01*
X11741395Y80429815D01*
X11742683Y80428328D01*
X11744556Y80427715D01*
X11765478Y80402022D01*
X11787150Y80377011D01*
X11787823Y80374581D01*
X11788674Y80373536D01*
X11797576Y80339384D01*
X11804890Y80274470D01*
X11804892Y80274454D01*
X11878712Y79951024D01*
X11878716Y79951012D01*
X11988285Y79637884D01*
X12132224Y79338991D01*
X12158701Y79296853D01*
X12308729Y79058085D01*
X12515574Y78798711D01*
X12750158Y78564127D01*
X13009532Y78357282D01*
X13290435Y78180779D01*
X13589334Y78036837D01*
X13824508Y77954546D01*
X13902458Y77927270D01*
X13902470Y77927266D01*
X14225904Y77853445D01*
X14555567Y77816301D01*
X14555568Y77816300D01*
X14555571Y77816300D01*
X14887326Y77816300D01*
X14887326Y77816301D01*
X15216990Y77853445D01*
X15540424Y77927266D01*
X15853560Y78036837D01*
X16152459Y78180779D01*
X16433362Y78357282D01*
X16692736Y78564127D01*
X16927320Y78798711D01*
X17134165Y79058085D01*
X17310668Y79338988D01*
X17454610Y79637887D01*
X17564181Y79951023D01*
X17638002Y80274457D01*
X17645318Y80339384D01*
X17672384Y80403798D01*
X17729979Y80443353D01*
X17768538Y80449500D01*
X18750967Y80449500D01*
X18818006Y80429815D01*
X18863761Y80377011D01*
X18873705Y80307853D01*
X18844680Y80244297D01*
X18819859Y80222400D01*
X18777568Y80194142D01*
X18706414Y80146599D01*
X18608401Y80048586D01*
X18531386Y79933324D01*
X18478344Y79805267D01*
X18478341Y79805255D01*
X18451300Y79669313D01*
X18451300Y78930688D01*
X18478341Y78794746D01*
X18478344Y78794734D01*
X18531386Y78666677D01*
X18608401Y78551415D01*
X18706414Y78453402D01*
X18821676Y78376387D01*
X18949733Y78323345D01*
X18949738Y78323343D01*
X19085687Y78296301D01*
X19085690Y78296300D01*
X19085692Y78296300D01*
X19224310Y78296300D01*
X19224311Y78296301D01*
X19360262Y78323343D01*
X19424294Y78349866D01*
X19488323Y78376387D01*
X19488324Y78376388D01*
X19488327Y78376389D01*
X19603583Y78453400D01*
X19701600Y78551417D01*
X19778611Y78666673D01*
X19831657Y78794738D01*
X19858700Y78930692D01*
X19858700Y79669308D01*
X19858700Y79669311D01*
X19858699Y79669313D01*
X19847386Y79726188D01*
X19831657Y79805262D01*
X19831655Y79805267D01*
X19778613Y79933324D01*
X19701598Y80048586D01*
X19603585Y80146599D01*
X19562704Y80173915D01*
X19490141Y80222399D01*
X19445338Y80276009D01*
X19436630Y80345334D01*
X19466784Y80408362D01*
X19526227Y80445082D01*
X19559033Y80449500D01*
X27390967Y80449500D01*
X27458006Y80429815D01*
X27503761Y80377011D01*
X27513705Y80307853D01*
X27484680Y80244297D01*
X27459859Y80222400D01*
X27417568Y80194142D01*
X27346414Y80146599D01*
X27248401Y80048586D01*
X27171386Y79933324D01*
X27118344Y79805267D01*
X27118341Y79805255D01*
X27091300Y79669313D01*
X27091300Y78930688D01*
X27118341Y78794746D01*
X27118344Y78794734D01*
X27171386Y78666677D01*
X27248401Y78551415D01*
X27346414Y78453402D01*
X27461676Y78376387D01*
X27589733Y78323345D01*
X27589738Y78323343D01*
X27725687Y78296301D01*
X27725690Y78296300D01*
X27725692Y78296300D01*
X27864310Y78296300D01*
X27864311Y78296301D01*
X28000262Y78323343D01*
X28064294Y78349866D01*
X28128323Y78376387D01*
X28128324Y78376388D01*
X28128327Y78376389D01*
X28243583Y78453400D01*
X28341600Y78551417D01*
X28418611Y78666673D01*
X28471657Y78794738D01*
X28498700Y78930692D01*
X28498700Y79669308D01*
X28498700Y79669311D01*
X28498699Y79669313D01*
X28487386Y79726188D01*
X28471657Y79805262D01*
X28471655Y79805267D01*
X28418613Y79933324D01*
X28341598Y80048586D01*
X28243585Y80146599D01*
X28202704Y80173915D01*
X28130141Y80222399D01*
X28085338Y80276009D01*
X28076630Y80345334D01*
X28106784Y80408362D01*
X28166227Y80445082D01*
X28199033Y80449500D01*
X28652405Y80449500D01*
X28690244Y80449500D01*
X28709630Y80447975D01*
X28742253Y80442808D01*
X28779144Y80430822D01*
X28799765Y80420315D01*
X28831151Y80397511D01*
X28847510Y80381152D01*
X28870314Y80349766D01*
X28880820Y80329147D01*
X28892808Y80292252D01*
X28897973Y80259641D01*
X28899500Y80240245D01*
X28899500Y64974276D01*
X28879815Y64907237D01*
X28827011Y64861482D01*
X28757853Y64851538D01*
X28694297Y64880563D01*
X28656523Y64939341D01*
X28655725Y64942182D01*
X28649485Y64965472D01*
X28593045Y65063228D01*
X28513228Y65143045D01*
X28459306Y65174177D01*
X28415473Y65199485D01*
X28360955Y65214093D01*
X28306439Y65228700D01*
X28193561Y65228700D01*
X28084526Y65199485D01*
X27986772Y65143045D01*
X27986769Y65143043D01*
X27906957Y65063231D01*
X27906955Y65063228D01*
X27850515Y64965474D01*
X27821300Y64856439D01*
X27821300Y64743562D01*
X27850515Y64634527D01*
X27892389Y64562001D01*
X27908862Y64494100D01*
X27892389Y64437999D01*
X27850515Y64365474D01*
X27821300Y64256439D01*
X27821300Y64143562D01*
X27850515Y64034527D01*
X27892389Y63962001D01*
X27908862Y63894100D01*
X27892389Y63837999D01*
X27850515Y63765474D01*
X27834911Y63707237D01*
X27821300Y63656439D01*
X27821300Y63543561D01*
X27832069Y63503370D01*
X27850515Y63434527D01*
X27854163Y63428209D01*
X27906955Y63336772D01*
X27986772Y63256955D01*
X28084528Y63200515D01*
X28193561Y63171300D01*
X28193563Y63171300D01*
X28306437Y63171300D01*
X28306439Y63171300D01*
X28415472Y63200515D01*
X28513228Y63256955D01*
X28593045Y63336772D01*
X28649485Y63434528D01*
X28655725Y63457820D01*
X28692090Y63517478D01*
X28754936Y63548008D01*
X28824312Y63539714D01*
X28878190Y63495229D01*
X28899465Y63428677D01*
X28899500Y63425725D01*
X28899500Y4709756D01*
X28897973Y4690360D01*
X28897973Y4690356D01*
X28892808Y4657749D01*
X28880820Y4620854D01*
X28870314Y4600235D01*
X28847510Y4568849D01*
X28831151Y4552490D01*
X28799765Y4529686D01*
X28779146Y4519180D01*
X28742251Y4507192D01*
X28729663Y4505199D01*
X28709638Y4502027D01*
X28690244Y4500500D01*
X25071155Y4500500D01*
X24916510Y4469739D01*
X24916498Y4469736D01*
X24770827Y4409398D01*
X24770814Y4409391D01*
X24639711Y4321790D01*
X24639707Y4321787D01*
X24528213Y4210293D01*
X24528210Y4210289D01*
X24440609Y4079186D01*
X24440602Y4079173D01*
X24380264Y3933502D01*
X24380261Y3933490D01*
X24349500Y3778847D01*
X24349500Y3724000D01*
X24329815Y3656961D01*
X24277011Y3611206D01*
X24225500Y3600000D01*
X9365212Y3600000D01*
X9298173Y3619685D01*
X9262109Y3655110D01*
X9260872Y3656961D01*
X9249464Y3674035D01*
X9249462Y3674038D01*
X9124038Y3799462D01*
X9124034Y3799465D01*
X8976553Y3898010D01*
X8976540Y3898017D01*
X8812667Y3965894D01*
X8812658Y3965897D01*
X8638694Y4000500D01*
X8638691Y4000500D01*
X8597595Y4000500D01*
X8550000Y4000500D01*
X8461309Y4000500D01*
X8461306Y4000500D01*
X8287341Y3965897D01*
X8287332Y3965894D01*
X8123459Y3898017D01*
X8123446Y3898010D01*
X7975965Y3799465D01*
X7975961Y3799462D01*
X7850537Y3674038D01*
X7841271Y3660171D01*
X7839128Y3656961D01*
X7837891Y3655110D01*
X7784279Y3610305D01*
X7734788Y3600000D01*
X5124500Y3600000D01*
X5057461Y3619685D01*
X5011706Y3672489D01*
X5000500Y3724000D01*
X5000500Y3778845D01*
X5000499Y3778847D01*
X4996398Y3799465D01*
X4969737Y3933497D01*
X4909795Y4078211D01*
X4909397Y4079173D01*
X4909390Y4079186D01*
X4821789Y4210289D01*
X4821786Y4210293D01*
X4710292Y4321787D01*
X4710288Y4321790D01*
X4579185Y4409391D01*
X4579172Y4409398D01*
X4433501Y4469736D01*
X4433489Y4469739D01*
X4278845Y4500500D01*
X4278842Y4500500D01*
X4239562Y4500500D01*
X659756Y4500500D01*
X640360Y4502027D01*
X624110Y4504601D01*
X607749Y4507192D01*
X570853Y4519180D01*
X550234Y4529686D01*
X518848Y4552490D01*
X502489Y4568849D01*
X479685Y4600235D01*
X469179Y4620854D01*
X457192Y4657747D01*
X452025Y4690370D01*
X450500Y4709756D01*
X450500Y6653148D01*
X3096300Y6653148D01*
X3096300Y6546852D01*
X3123811Y6444177D01*
X3176959Y6352122D01*
X3252122Y6276959D01*
X3344177Y6223811D01*
X3359243Y6219775D01*
X3418903Y6183410D01*
X3449432Y6120563D01*
X3441137Y6051188D01*
X3396652Y5997310D01*
X3359244Y5980227D01*
X3344177Y5976189D01*
X3344175Y5976188D01*
X3344174Y5976188D01*
X3252125Y5923043D01*
X3252119Y5923039D01*
X3176961Y5847881D01*
X3176957Y5847875D01*
X3123812Y5755826D01*
X3123812Y5755825D01*
X3123811Y5755823D01*
X3096300Y5653148D01*
X3096300Y5546852D01*
X3123811Y5444177D01*
X3176959Y5352122D01*
X3252122Y5276959D01*
X3344177Y5223811D01*
X3446852Y5196300D01*
X3446854Y5196300D01*
X3553146Y5196300D01*
X3553148Y5196300D01*
X3655823Y5223811D01*
X3747878Y5276959D01*
X3823041Y5352122D01*
X3876189Y5444177D01*
X3880225Y5459244D01*
X3916589Y5518903D01*
X3979435Y5549433D01*
X4048811Y5541139D01*
X4102690Y5496654D01*
X4119773Y5459245D01*
X4123811Y5444177D01*
X4176959Y5352122D01*
X4252122Y5276959D01*
X4344177Y5223811D01*
X4446852Y5196300D01*
X4446854Y5196300D01*
X4553146Y5196300D01*
X4553148Y5196300D01*
X4655823Y5223811D01*
X4747878Y5276959D01*
X4823041Y5352122D01*
X4876189Y5444177D01*
X4903700Y5546852D01*
X4903700Y5653148D01*
X4876189Y5755823D01*
X4823041Y5847878D01*
X4747878Y5923041D01*
X4655823Y5976189D01*
X4640756Y5980226D01*
X4581097Y6016589D01*
X4550567Y6079435D01*
X4558861Y6148811D01*
X4603346Y6202690D01*
X4640755Y6219774D01*
X4655823Y6223811D01*
X4747878Y6276959D01*
X4823041Y6352122D01*
X4876189Y6444177D01*
X4903700Y6546852D01*
X4903700Y6653148D01*
X4876189Y6755823D01*
X4823041Y6847878D01*
X4747878Y6923041D01*
X4686508Y6958473D01*
X4655825Y6976188D01*
X4655824Y6976189D01*
X4655823Y6976189D01*
X4553148Y7003700D01*
X4446852Y7003700D01*
X4344177Y6976189D01*
X4344175Y6976188D01*
X4344174Y6976188D01*
X4252125Y6923043D01*
X4252119Y6923039D01*
X4176961Y6847881D01*
X4176957Y6847875D01*
X4123812Y6755826D01*
X4123812Y6755825D01*
X4123811Y6755823D01*
X4119774Y6740757D01*
X4083410Y6681097D01*
X4020563Y6650568D01*
X3951188Y6658863D01*
X3897310Y6703348D01*
X3880226Y6740756D01*
X3876189Y6755823D01*
X3823041Y6847878D01*
X3747878Y6923041D01*
X3686508Y6958473D01*
X3655825Y6976188D01*
X3655824Y6976189D01*
X3655823Y6976189D01*
X3553148Y7003700D01*
X3446852Y7003700D01*
X3344177Y6976189D01*
X3344175Y6976188D01*
X3344174Y6976188D01*
X3252125Y6923043D01*
X3252119Y6923039D01*
X3176961Y6847881D01*
X3176957Y6847875D01*
X3123812Y6755826D01*
X3123812Y6755825D01*
X3123811Y6755823D01*
X3096300Y6653148D01*
X450500Y6653148D01*
X450500Y8953148D01*
X5921300Y8953148D01*
X5921300Y8846852D01*
X5948811Y8744177D01*
X6001959Y8652122D01*
X6077122Y8576959D01*
X6169177Y8523811D01*
X6271852Y8496300D01*
X6271854Y8496300D01*
X6378146Y8496300D01*
X6378148Y8496300D01*
X6480823Y8523811D01*
X6572878Y8576959D01*
X6587319Y8591400D01*
X6648642Y8624885D01*
X6718334Y8619901D01*
X6762681Y8591400D01*
X6777122Y8576959D01*
X6869177Y8523811D01*
X6971852Y8496300D01*
X6971854Y8496300D01*
X7078146Y8496300D01*
X7078148Y8496300D01*
X7180823Y8523811D01*
X7272878Y8576959D01*
X7348041Y8652122D01*
X7401189Y8744177D01*
X7428700Y8846852D01*
X7428700Y8953148D01*
X7401189Y9055823D01*
X7348041Y9147878D01*
X7272878Y9223041D01*
X7180823Y9276189D01*
X7078148Y9303700D01*
X6971852Y9303700D01*
X6869177Y9276189D01*
X6869175Y9276188D01*
X6869174Y9276188D01*
X6777125Y9223043D01*
X6777119Y9223039D01*
X6762681Y9208600D01*
X6701358Y9175115D01*
X6631666Y9180099D01*
X6587319Y9208600D01*
X6572880Y9223039D01*
X6572878Y9223041D01*
X6480823Y9276189D01*
X6378148Y9303700D01*
X6271852Y9303700D01*
X6169177Y9276189D01*
X6169175Y9276188D01*
X6169174Y9276188D01*
X6077125Y9223043D01*
X6077119Y9223039D01*
X6001961Y9147881D01*
X6001957Y9147875D01*
X5948812Y9055826D01*
X5948812Y9055825D01*
X5948811Y9055823D01*
X5921300Y8953148D01*
X450500Y8953148D01*
X450500Y9818189D01*
X470185Y9885228D01*
X522989Y9930983D01*
X592147Y9940927D01*
X655703Y9911902D01*
X681886Y9880190D01*
X726959Y9802122D01*
X802122Y9726959D01*
X894177Y9673811D01*
X996852Y9646300D01*
X996854Y9646300D01*
X1103146Y9646300D01*
X1103148Y9646300D01*
X1205823Y9673811D01*
X1297878Y9726959D01*
X1297886Y9726968D01*
X1304324Y9731906D01*
X1306072Y9729628D01*
X1355223Y9756466D01*
X1381581Y9759300D01*
X1988268Y9759300D01*
X1988271Y9759300D01*
X2062206Y9779111D01*
X2128494Y9817382D01*
X2882617Y10571505D01*
X2882617Y10571506D01*
X3718284Y11407175D01*
X3718289Y11407178D01*
X3728492Y11417382D01*
X3728494Y11417382D01*
X3782618Y11471506D01*
X3820889Y11537794D01*
X3840700Y11611729D01*
X3840700Y19673826D01*
X3860385Y19740865D01*
X3913189Y19786620D01*
X3982347Y19796564D01*
X4045903Y19767539D01*
X4052381Y19761507D01*
X5397981Y18415907D01*
X5431466Y18354584D01*
X5434300Y18328226D01*
X5434300Y13988271D01*
X5434300Y13911729D01*
X5454111Y13837794D01*
X5492381Y13771508D01*
X5492383Y13771505D01*
X7847981Y11415908D01*
X7881466Y11354585D01*
X7884300Y11328227D01*
X7884300Y6788271D01*
X7884300Y6711729D01*
X7900271Y6652126D01*
X7904111Y6637794D01*
X7942381Y6571508D01*
X7942383Y6571505D01*
X8809981Y5703907D01*
X8843466Y5642584D01*
X8844834Y5629859D01*
X8845239Y5629912D01*
X8846300Y5621854D01*
X8846300Y5621852D01*
X8873811Y5519177D01*
X8926959Y5427122D01*
X9002122Y5351959D01*
X9094177Y5298811D01*
X9196852Y5271300D01*
X9196854Y5271300D01*
X9303146Y5271300D01*
X9303148Y5271300D01*
X9405823Y5298811D01*
X9497878Y5351959D01*
X9573041Y5427122D01*
X9626189Y5519177D01*
X9653700Y5621852D01*
X9653700Y5728148D01*
X9626189Y5830823D01*
X9573041Y5922878D01*
X9551168Y5944751D01*
X9517683Y6006074D01*
X9522667Y6075766D01*
X9564539Y6131699D01*
X9576835Y6139811D01*
X9597878Y6151959D01*
X9673041Y6227122D01*
X9726189Y6319177D01*
X9753700Y6421852D01*
X9753700Y6528148D01*
X9726189Y6630823D01*
X9673041Y6722878D01*
X9673035Y6722884D01*
X9668094Y6729324D01*
X9670372Y6731073D01*
X9643534Y6780223D01*
X9640700Y6806581D01*
X9640700Y10653148D01*
X10701300Y10653148D01*
X10701300Y10546852D01*
X10728811Y10444177D01*
X10781959Y10352122D01*
X10857122Y10276959D01*
X10949177Y10223811D01*
X11051852Y10196300D01*
X11051854Y10196300D01*
X11158146Y10196300D01*
X11158148Y10196300D01*
X11260823Y10223811D01*
X11352878Y10276959D01*
X11367319Y10291400D01*
X11428642Y10324885D01*
X11498334Y10319901D01*
X11542681Y10291400D01*
X11557122Y10276959D01*
X11649177Y10223811D01*
X11751852Y10196300D01*
X11751854Y10196300D01*
X11858146Y10196300D01*
X11858148Y10196300D01*
X11960823Y10223811D01*
X12052878Y10276959D01*
X12128041Y10352122D01*
X12181189Y10444177D01*
X12208700Y10546852D01*
X12208700Y10653148D01*
X12181189Y10755823D01*
X12128041Y10847878D01*
X12052878Y10923041D01*
X11979898Y10965176D01*
X11960825Y10976188D01*
X11960824Y10976189D01*
X11960823Y10976189D01*
X11858148Y11003700D01*
X11751852Y11003700D01*
X11649177Y10976189D01*
X11649175Y10976188D01*
X11649174Y10976188D01*
X11557125Y10923043D01*
X11557119Y10923039D01*
X11542681Y10908600D01*
X11481358Y10875115D01*
X11411666Y10880099D01*
X11367319Y10908600D01*
X11352880Y10923039D01*
X11352878Y10923041D01*
X11279898Y10965176D01*
X11260825Y10976188D01*
X11260824Y10976189D01*
X11260823Y10976189D01*
X11158148Y11003700D01*
X11051852Y11003700D01*
X10949177Y10976189D01*
X10949175Y10976188D01*
X10949174Y10976188D01*
X10857125Y10923043D01*
X10857119Y10923039D01*
X10781961Y10847881D01*
X10781957Y10847875D01*
X10728812Y10755826D01*
X10728812Y10755825D01*
X10728811Y10755823D01*
X10701300Y10653148D01*
X9640700Y10653148D01*
X9640700Y10938270D01*
X9640699Y10938274D01*
X9633490Y10965176D01*
X9628817Y10982617D01*
X9620889Y11012206D01*
X9582617Y11078495D01*
X9432964Y11228148D01*
X12711300Y11228148D01*
X12711300Y11121852D01*
X12738811Y11019177D01*
X12791959Y10927122D01*
X12867122Y10851959D01*
X12959177Y10798811D01*
X13061852Y10771300D01*
X13061854Y10771300D01*
X13168146Y10771300D01*
X13168148Y10771300D01*
X13270823Y10798811D01*
X13362878Y10851959D01*
X13377319Y10866400D01*
X13438642Y10899885D01*
X13508334Y10894901D01*
X13552681Y10866400D01*
X13567122Y10851959D01*
X13659177Y10798811D01*
X13761852Y10771300D01*
X13761854Y10771300D01*
X13868146Y10771300D01*
X13868148Y10771300D01*
X13970823Y10798811D01*
X14062878Y10851959D01*
X14138041Y10927122D01*
X14191189Y11019177D01*
X14218700Y11121852D01*
X14218700Y11228148D01*
X14191189Y11330823D01*
X14138041Y11422878D01*
X14062878Y11498041D01*
X13970823Y11551189D01*
X13868148Y11578700D01*
X13761852Y11578700D01*
X13659177Y11551189D01*
X13659175Y11551188D01*
X13659174Y11551188D01*
X13567125Y11498043D01*
X13567119Y11498039D01*
X13552681Y11483600D01*
X13491358Y11450115D01*
X13421666Y11455099D01*
X13377319Y11483600D01*
X13362880Y11498039D01*
X13362878Y11498041D01*
X13270823Y11551189D01*
X13168148Y11578700D01*
X13061852Y11578700D01*
X12959177Y11551189D01*
X12959175Y11551188D01*
X12959174Y11551188D01*
X12867125Y11498043D01*
X12867119Y11498039D01*
X12791961Y11422881D01*
X12791957Y11422875D01*
X12738812Y11330826D01*
X12738812Y11330825D01*
X12738811Y11330823D01*
X12711300Y11228148D01*
X9432964Y11228148D01*
X6477019Y14184093D01*
X6443534Y14245416D01*
X6440700Y14271774D01*
X6440700Y14903148D01*
X10546300Y14903148D01*
X10546300Y14796852D01*
X10573811Y14694177D01*
X10626959Y14602122D01*
X10702122Y14526959D01*
X10794177Y14473811D01*
X10896852Y14446300D01*
X10896854Y14446300D01*
X11003146Y14446300D01*
X11003148Y14446300D01*
X11105823Y14473811D01*
X11197878Y14526959D01*
X11273041Y14602122D01*
X11326189Y14694177D01*
X11335226Y14727905D01*
X11371590Y14787563D01*
X11434436Y14818093D01*
X11503812Y14809799D01*
X11557690Y14765314D01*
X11574773Y14727907D01*
X11583811Y14694177D01*
X11636959Y14602122D01*
X11712122Y14526959D01*
X11804177Y14473811D01*
X11906852Y14446300D01*
X11906854Y14446300D01*
X12013146Y14446300D01*
X12013148Y14446300D01*
X12115823Y14473811D01*
X12207878Y14526959D01*
X12283041Y14602122D01*
X12336189Y14694177D01*
X12345226Y14727905D01*
X12381590Y14787563D01*
X12444436Y14818093D01*
X12513812Y14809799D01*
X12567690Y14765314D01*
X12584773Y14727907D01*
X12593811Y14694177D01*
X12646959Y14602122D01*
X12722122Y14526959D01*
X12814177Y14473811D01*
X12916852Y14446300D01*
X12916854Y14446300D01*
X13023146Y14446300D01*
X13023148Y14446300D01*
X13125823Y14473811D01*
X13217878Y14526959D01*
X13293041Y14602122D01*
X13346189Y14694177D01*
X13350225Y14709244D01*
X13386589Y14768903D01*
X13449435Y14799433D01*
X13518811Y14791139D01*
X13572690Y14746654D01*
X13589773Y14709245D01*
X13593811Y14694177D01*
X13646959Y14602122D01*
X13722122Y14526959D01*
X13814177Y14473811D01*
X13916852Y14446300D01*
X13916854Y14446300D01*
X14023146Y14446300D01*
X14023148Y14446300D01*
X14125823Y14473811D01*
X14217878Y14526959D01*
X14293041Y14602122D01*
X14346189Y14694177D01*
X14373700Y14796852D01*
X14373700Y14903148D01*
X14346189Y15005823D01*
X14293041Y15097878D01*
X14217878Y15173041D01*
X14125823Y15226189D01*
X14023148Y15253700D01*
X13916852Y15253700D01*
X13814177Y15226189D01*
X13814175Y15226188D01*
X13814174Y15226188D01*
X13722125Y15173043D01*
X13722119Y15173039D01*
X13646961Y15097881D01*
X13646957Y15097875D01*
X13593812Y15005826D01*
X13593812Y15005825D01*
X13593811Y15005823D01*
X13589774Y14990757D01*
X13553410Y14931097D01*
X13490563Y14900568D01*
X13421188Y14908863D01*
X13367310Y14953348D01*
X13350226Y14990756D01*
X13346189Y15005823D01*
X13293041Y15097878D01*
X13217878Y15173041D01*
X13125823Y15226189D01*
X13023148Y15253700D01*
X12916852Y15253700D01*
X12814177Y15226189D01*
X12814175Y15226188D01*
X12814174Y15226188D01*
X12722125Y15173043D01*
X12722119Y15173039D01*
X12646961Y15097881D01*
X12646957Y15097875D01*
X12593812Y15005826D01*
X12593812Y15005825D01*
X12593811Y15005823D01*
X12584773Y14972096D01*
X12548410Y14912437D01*
X12485563Y14881908D01*
X12416187Y14890203D01*
X12362309Y14934688D01*
X12345226Y14972094D01*
X12336189Y15005823D01*
X12283041Y15097878D01*
X12207878Y15173041D01*
X12115823Y15226189D01*
X12013148Y15253700D01*
X11906852Y15253700D01*
X11804177Y15226189D01*
X11804175Y15226188D01*
X11804174Y15226188D01*
X11712125Y15173043D01*
X11712119Y15173039D01*
X11636961Y15097881D01*
X11636957Y15097875D01*
X11583812Y15005826D01*
X11583812Y15005825D01*
X11583811Y15005823D01*
X11574773Y14972096D01*
X11538410Y14912437D01*
X11475563Y14881908D01*
X11406187Y14890203D01*
X11352309Y14934688D01*
X11335226Y14972094D01*
X11326189Y15005823D01*
X11273041Y15097878D01*
X11197878Y15173041D01*
X11105823Y15226189D01*
X11003148Y15253700D01*
X10896852Y15253700D01*
X10794177Y15226189D01*
X10794175Y15226188D01*
X10794174Y15226188D01*
X10702125Y15173043D01*
X10702119Y15173039D01*
X10626961Y15097881D01*
X10626957Y15097875D01*
X10573812Y15005826D01*
X10573812Y15005825D01*
X10573811Y15005823D01*
X10546300Y14903148D01*
X6440700Y14903148D01*
X6440700Y16976515D01*
X6460385Y17043554D01*
X6513189Y17089309D01*
X6582347Y17099253D01*
X6626698Y17083903D01*
X6644177Y17073811D01*
X6746852Y17046300D01*
X6746854Y17046300D01*
X6853146Y17046300D01*
X6853148Y17046300D01*
X6864676Y17049389D01*
X6934524Y17047728D01*
X6992387Y17008566D01*
X7004156Y16991616D01*
X7026954Y16952129D01*
X7026957Y16952125D01*
X7026959Y16952122D01*
X7102122Y16876959D01*
X7194177Y16823811D01*
X7296852Y16796300D01*
X7296854Y16796300D01*
X7403145Y16796300D01*
X7403148Y16796300D01*
X7470482Y16814342D01*
X7540328Y16812679D01*
X7598191Y16773517D01*
X7609958Y16756568D01*
X7626959Y16727122D01*
X7702122Y16651959D01*
X7794177Y16598811D01*
X7896852Y16571300D01*
X7896854Y16571300D01*
X8003146Y16571300D01*
X8003148Y16571300D01*
X8067131Y16588444D01*
X8136978Y16586781D01*
X8194841Y16547619D01*
X8206609Y16530670D01*
X8251959Y16452122D01*
X8327122Y16376959D01*
X8419177Y16323811D01*
X8521852Y16296300D01*
X8521854Y16296300D01*
X8628146Y16296300D01*
X8628148Y16296300D01*
X8730823Y16323811D01*
X8787336Y16356439D01*
X9346300Y16356439D01*
X9346300Y16243562D01*
X9375515Y16134527D01*
X9403735Y16085650D01*
X9431955Y16036772D01*
X9511772Y15956955D01*
X9609528Y15900515D01*
X9718561Y15871300D01*
X9718563Y15871300D01*
X9831437Y15871300D01*
X9831439Y15871300D01*
X9940472Y15900515D01*
X10038228Y15956955D01*
X10118045Y16036772D01*
X10174485Y16134528D01*
X10203700Y16243561D01*
X10203700Y16356439D01*
X10174485Y16465472D01*
X10118045Y16563228D01*
X10038228Y16643045D01*
X9989350Y16671265D01*
X9940473Y16699485D01*
X9885955Y16714093D01*
X9831439Y16728700D01*
X9718561Y16728700D01*
X9609526Y16699485D01*
X9511772Y16643045D01*
X9511769Y16643043D01*
X9431957Y16563231D01*
X9431955Y16563228D01*
X9375515Y16465474D01*
X9346300Y16356439D01*
X8787336Y16356439D01*
X8822878Y16376959D01*
X8898041Y16452122D01*
X8951189Y16544177D01*
X8978700Y16646852D01*
X8978700Y16753148D01*
X8951189Y16855823D01*
X8898041Y16947878D01*
X8898035Y16947884D01*
X8893094Y16954324D01*
X8895372Y16956073D01*
X8868534Y17005223D01*
X8865700Y17031581D01*
X8865700Y17403148D01*
X16846300Y17403148D01*
X16846300Y17296852D01*
X16873811Y17194177D01*
X16926959Y17102122D01*
X17002122Y17026959D01*
X17094177Y16973811D01*
X17196852Y16946300D01*
X17196854Y16946300D01*
X17303146Y16946300D01*
X17303148Y16946300D01*
X17405823Y16973811D01*
X17497878Y17026959D01*
X17573041Y17102122D01*
X17626189Y17194177D01*
X17653700Y17296852D01*
X17653700Y17403148D01*
X17626189Y17505823D01*
X17573041Y17597878D01*
X17497878Y17673041D01*
X17405823Y17726189D01*
X17303148Y17753700D01*
X17196852Y17753700D01*
X17094177Y17726189D01*
X17094175Y17726188D01*
X17094174Y17726188D01*
X17002125Y17673043D01*
X17002119Y17673039D01*
X16926961Y17597881D01*
X16926957Y17597875D01*
X16873812Y17505826D01*
X16873812Y17505825D01*
X16873811Y17505823D01*
X16846300Y17403148D01*
X8865700Y17403148D01*
X8865700Y18403148D01*
X9791300Y18403148D01*
X9791300Y18296852D01*
X9818811Y18194177D01*
X9871959Y18102122D01*
X9947122Y18026959D01*
X10039177Y17973811D01*
X10141852Y17946300D01*
X10141854Y17946300D01*
X10248146Y17946300D01*
X10248148Y17946300D01*
X10350823Y17973811D01*
X10442878Y18026959D01*
X10518041Y18102122D01*
X10571189Y18194177D01*
X10598700Y18296852D01*
X10598700Y18403148D01*
X10571189Y18505823D01*
X10518041Y18597878D01*
X10442878Y18673041D01*
X10350823Y18726189D01*
X10248148Y18753700D01*
X10141852Y18753700D01*
X10039177Y18726189D01*
X10039175Y18726188D01*
X10039174Y18726188D01*
X9947125Y18673043D01*
X9947119Y18673039D01*
X9871961Y18597881D01*
X9871957Y18597875D01*
X9818812Y18505826D01*
X9818812Y18505825D01*
X9818811Y18505823D01*
X9791300Y18403148D01*
X8865700Y18403148D01*
X8865700Y18538269D01*
X8865700Y18538271D01*
X8845889Y18612206D01*
X8807618Y18678494D01*
X8753494Y18732618D01*
X6832964Y20653148D01*
X12596300Y20653148D01*
X12596300Y20546852D01*
X12623811Y20444177D01*
X12676959Y20352122D01*
X12752122Y20276959D01*
X12844177Y20223811D01*
X12946852Y20196300D01*
X12946854Y20196300D01*
X13053146Y20196300D01*
X13053148Y20196300D01*
X13155823Y20223811D01*
X13247878Y20276959D01*
X13323041Y20352122D01*
X13376189Y20444177D01*
X13403700Y20546852D01*
X13403700Y20653148D01*
X14096300Y20653148D01*
X14096300Y20546852D01*
X14123811Y20444177D01*
X14176959Y20352122D01*
X14252122Y20276959D01*
X14344177Y20223811D01*
X14446852Y20196300D01*
X14446854Y20196300D01*
X14553146Y20196300D01*
X14553148Y20196300D01*
X14655823Y20223811D01*
X14747878Y20276959D01*
X14823041Y20352122D01*
X14823633Y20353148D01*
X22346300Y20353148D01*
X22346300Y20246852D01*
X22373811Y20144177D01*
X22426959Y20052122D01*
X22502122Y19976959D01*
X22594177Y19923811D01*
X22696852Y19896300D01*
X22696854Y19896300D01*
X22803146Y19896300D01*
X22803148Y19896300D01*
X22905823Y19923811D01*
X22997878Y19976959D01*
X23073041Y20052122D01*
X23126189Y20144177D01*
X23153700Y20246852D01*
X23153700Y20353148D01*
X23126189Y20455823D01*
X23073041Y20547878D01*
X22997878Y20623041D01*
X22925764Y20664676D01*
X22905825Y20676188D01*
X22905824Y20676189D01*
X22905823Y20676189D01*
X22803148Y20703700D01*
X22696852Y20703700D01*
X22594177Y20676189D01*
X22594175Y20676188D01*
X22594174Y20676188D01*
X22502125Y20623043D01*
X22502119Y20623039D01*
X22426961Y20547881D01*
X22426957Y20547875D01*
X22373812Y20455826D01*
X22373812Y20455825D01*
X22373811Y20455823D01*
X22346300Y20353148D01*
X14823633Y20353148D01*
X14876189Y20444177D01*
X14903700Y20546852D01*
X14903700Y20653148D01*
X14876189Y20755823D01*
X14823041Y20847878D01*
X14747878Y20923041D01*
X14659942Y20973811D01*
X14655825Y20976188D01*
X14655824Y20976189D01*
X14655823Y20976189D01*
X14553148Y21003700D01*
X14446852Y21003700D01*
X14344177Y20976189D01*
X14344175Y20976188D01*
X14344174Y20976188D01*
X14252125Y20923043D01*
X14252119Y20923039D01*
X14176961Y20847881D01*
X14176957Y20847875D01*
X14123812Y20755826D01*
X14123812Y20755825D01*
X14123811Y20755823D01*
X14096300Y20653148D01*
X13403700Y20653148D01*
X13376189Y20755823D01*
X13323041Y20847878D01*
X13247878Y20923041D01*
X13159942Y20973811D01*
X13155825Y20976188D01*
X13155824Y20976189D01*
X13155823Y20976189D01*
X13053148Y21003700D01*
X12946852Y21003700D01*
X12844177Y20976189D01*
X12844175Y20976188D01*
X12844174Y20976188D01*
X12752125Y20923043D01*
X12752119Y20923039D01*
X12676961Y20847881D01*
X12676957Y20847875D01*
X12623812Y20755826D01*
X12623812Y20755825D01*
X12623811Y20755823D01*
X12596300Y20653148D01*
X6832964Y20653148D01*
X6177019Y21309093D01*
X6152963Y21353148D01*
X7596300Y21353148D01*
X7596300Y21246852D01*
X7623811Y21144177D01*
X7676959Y21052122D01*
X7752122Y20976959D01*
X7844177Y20923811D01*
X7946852Y20896300D01*
X7946854Y20896300D01*
X8053146Y20896300D01*
X8053148Y20896300D01*
X8155823Y20923811D01*
X8247878Y20976959D01*
X8323041Y21052122D01*
X8376189Y21144177D01*
X8403700Y21246852D01*
X8403700Y21353148D01*
X8376189Y21455823D01*
X8323041Y21547878D01*
X8247878Y21623041D01*
X8161279Y21673039D01*
X8155825Y21676188D01*
X8155824Y21676189D01*
X8155823Y21676189D01*
X8053148Y21703700D01*
X7946852Y21703700D01*
X7844177Y21676189D01*
X7844175Y21676188D01*
X7844174Y21676188D01*
X7752125Y21623043D01*
X7752119Y21623039D01*
X7676961Y21547881D01*
X7676957Y21547875D01*
X7623812Y21455826D01*
X7623812Y21455825D01*
X7623811Y21455823D01*
X7596300Y21353148D01*
X6152963Y21353148D01*
X6143534Y21370416D01*
X6140700Y21396774D01*
X6140700Y22403148D01*
X19846300Y22403148D01*
X19846300Y22296852D01*
X19873811Y22194177D01*
X19926959Y22102122D01*
X20002122Y22026959D01*
X20094177Y21973811D01*
X20109243Y21969775D01*
X20168903Y21933410D01*
X20199432Y21870563D01*
X20191137Y21801188D01*
X20146652Y21747310D01*
X20109244Y21730227D01*
X20094177Y21726189D01*
X20094175Y21726188D01*
X20094174Y21726188D01*
X20002125Y21673043D01*
X20002119Y21673039D01*
X19926961Y21597881D01*
X19926957Y21597875D01*
X19873812Y21505826D01*
X19873812Y21505825D01*
X19873811Y21505823D01*
X19846300Y21403148D01*
X19846300Y21296852D01*
X19873811Y21194177D01*
X19926959Y21102122D01*
X20002122Y21026959D01*
X20094177Y20973811D01*
X20196852Y20946300D01*
X20196854Y20946300D01*
X20303146Y20946300D01*
X20303148Y20946300D01*
X20405823Y20973811D01*
X20497878Y21026959D01*
X20573041Y21102122D01*
X20626189Y21194177D01*
X20653700Y21296852D01*
X20653700Y21403148D01*
X20626189Y21505823D01*
X20573041Y21597878D01*
X20497878Y21673041D01*
X20405823Y21726189D01*
X20390756Y21730226D01*
X20331097Y21766589D01*
X20300567Y21829435D01*
X20308861Y21898811D01*
X20353346Y21952690D01*
X20390755Y21969774D01*
X20405823Y21973811D01*
X20497878Y22026959D01*
X20573041Y22102122D01*
X20626189Y22194177D01*
X20653700Y22296852D01*
X20653700Y22403148D01*
X20626189Y22505823D01*
X20573041Y22597878D01*
X20497878Y22673041D01*
X20405823Y22726189D01*
X20303148Y22753700D01*
X20196852Y22753700D01*
X20094177Y22726189D01*
X20094175Y22726188D01*
X20094174Y22726188D01*
X20002125Y22673043D01*
X20002119Y22673039D01*
X19926961Y22597881D01*
X19926957Y22597875D01*
X19873812Y22505826D01*
X19873812Y22505825D01*
X19873811Y22505823D01*
X19846300Y22403148D01*
X6140700Y22403148D01*
X6140700Y26516206D01*
X6160385Y26583245D01*
X6213189Y26629000D01*
X6282347Y26638944D01*
X6345903Y26609919D01*
X6372085Y26578208D01*
X6423917Y26488433D01*
X6499080Y26413270D01*
X6591135Y26360122D01*
X6693810Y26332611D01*
X6693812Y26332611D01*
X6800104Y26332611D01*
X6800106Y26332611D01*
X6902781Y26360122D01*
X6994836Y26413270D01*
X7069999Y26488433D01*
X7123147Y26580488D01*
X7150658Y26683163D01*
X7150658Y26683172D01*
X7151719Y26691223D01*
X7154566Y26690849D01*
X7170343Y26744576D01*
X7186977Y26765218D01*
X7280706Y26858947D01*
X7420618Y26998859D01*
X7458889Y27065147D01*
X7478700Y27139082D01*
X7478700Y27215625D01*
X7478700Y29606363D01*
X7498385Y29673402D01*
X7515019Y29694044D01*
X9347619Y31526644D01*
X9408942Y31560129D01*
X9478634Y31555145D01*
X9534567Y31513273D01*
X9558984Y31447809D01*
X9559300Y31438963D01*
X9559300Y29971774D01*
X9539615Y29904735D01*
X9522981Y29884093D01*
X9119520Y29480633D01*
X9119518Y29480630D01*
X9081248Y29414344D01*
X9081248Y29414343D01*
X9061437Y29340408D01*
X9061437Y29340406D01*
X9061437Y26673912D01*
X9041752Y26606873D01*
X9025118Y26586231D01*
X7850651Y25411764D01*
X7789328Y25378279D01*
X7719636Y25383263D01*
X7663703Y25425135D01*
X7643196Y25467350D01*
X7626189Y25530823D01*
X7573041Y25622878D01*
X7497878Y25698041D01*
X7405823Y25751189D01*
X7303148Y25778700D01*
X7196852Y25778700D01*
X7094177Y25751189D01*
X7094175Y25751188D01*
X7094174Y25751188D01*
X7002125Y25698043D01*
X7002119Y25698039D01*
X6926961Y25622881D01*
X6926957Y25622875D01*
X6873812Y25530826D01*
X6873812Y25530825D01*
X6873811Y25530823D01*
X6846300Y25428148D01*
X6846300Y25321852D01*
X6873811Y25219177D01*
X6926959Y25127122D01*
X7002122Y25051959D01*
X7070698Y25012367D01*
X7118913Y24961800D01*
X7132137Y24893193D01*
X7106169Y24828329D01*
X7096381Y24817301D01*
X7076962Y24797882D01*
X7076957Y24797875D01*
X7023812Y24705826D01*
X7023812Y24705825D01*
X7023811Y24705823D01*
X6996300Y24603148D01*
X6996300Y24496852D01*
X7023811Y24394177D01*
X7076959Y24302122D01*
X7152122Y24226959D01*
X7244177Y24173811D01*
X7346852Y24146300D01*
X7346854Y24146300D01*
X7453146Y24146300D01*
X7453148Y24146300D01*
X7455670Y24146976D01*
X7457881Y24146924D01*
X7461204Y24147361D01*
X7461272Y24146843D01*
X7525519Y24145317D01*
X7583383Y24106157D01*
X7610890Y24041930D01*
X7607543Y23995112D01*
X7596300Y23953153D01*
X7596300Y23953148D01*
X7596300Y23846852D01*
X7623811Y23744177D01*
X7676959Y23652122D01*
X7752122Y23576959D01*
X7844177Y23523811D01*
X7946852Y23496300D01*
X7946854Y23496300D01*
X8053146Y23496300D01*
X8053148Y23496300D01*
X8155823Y23523811D01*
X8247878Y23576959D01*
X8323041Y23652122D01*
X8376189Y23744177D01*
X8403700Y23846852D01*
X8403700Y23953148D01*
X8376189Y24055823D01*
X8323041Y24147878D01*
X8247878Y24223041D01*
X8155823Y24276189D01*
X8053148Y24303700D01*
X7946852Y24303700D01*
X7946847Y24303700D01*
X7944316Y24303021D01*
X7942099Y24303074D01*
X7940228Y24302828D01*
X7937604Y24301422D01*
X7906078Y24303935D01*
X7874466Y24304689D01*
X7871512Y24306689D01*
X7867955Y24306972D01*
X7842792Y24326130D01*
X7816607Y24343855D01*
X7815202Y24347136D01*
X7812363Y24349297D01*
X7801551Y24379020D01*
X7789107Y24408085D01*
X7789340Y24412590D01*
X7788479Y24414957D01*
X7790526Y24435515D01*
X7791283Y24450140D01*
X7791818Y24452508D01*
X7803700Y24496852D01*
X7803700Y24505068D01*
X7806752Y24518568D01*
X7817284Y24537491D01*
X7823385Y24558265D01*
X7840019Y24578907D01*
X7914260Y24653148D01*
X19826300Y24653148D01*
X19826300Y24546852D01*
X19853811Y24444177D01*
X19906959Y24352122D01*
X19982122Y24276959D01*
X20074177Y24223811D01*
X20176852Y24196300D01*
X20176854Y24196300D01*
X20283146Y24196300D01*
X20283148Y24196300D01*
X20385823Y24223811D01*
X20477878Y24276959D01*
X20553041Y24352122D01*
X20606189Y24444177D01*
X20633700Y24546852D01*
X20633700Y24653148D01*
X20606189Y24755823D01*
X20553041Y24847878D01*
X20477878Y24923041D01*
X20416508Y24958473D01*
X20385825Y24976188D01*
X20385824Y24976189D01*
X20385823Y24976189D01*
X20283148Y25003700D01*
X20176852Y25003700D01*
X20074177Y24976189D01*
X20074175Y24976188D01*
X20074174Y24976188D01*
X19982125Y24923043D01*
X19982119Y24923039D01*
X19906961Y24847881D01*
X19906957Y24847875D01*
X19853812Y24755826D01*
X19853812Y24755825D01*
X19853811Y24755823D01*
X19826300Y24653148D01*
X7914260Y24653148D01*
X8010068Y24748956D01*
X8791938Y25530826D01*
X9584755Y26323643D01*
X9623026Y26389931D01*
X9642837Y26463866D01*
X9642837Y26540409D01*
X9642837Y26703148D01*
X21546300Y26703148D01*
X21546300Y26596852D01*
X21573811Y26494177D01*
X21626959Y26402122D01*
X21702122Y26326959D01*
X21794177Y26273811D01*
X21896852Y26246300D01*
X21896854Y26246300D01*
X22003146Y26246300D01*
X22003148Y26246300D01*
X22105823Y26273811D01*
X22197878Y26326959D01*
X22273041Y26402122D01*
X22326189Y26494177D01*
X22353700Y26596852D01*
X22353700Y26703148D01*
X22326189Y26805823D01*
X22273041Y26897878D01*
X22197878Y26973041D01*
X22105823Y27026189D01*
X22056605Y27039377D01*
X21996945Y27075741D01*
X21966416Y27138588D01*
X21974711Y27207964D01*
X22019196Y27261841D01*
X22056603Y27278925D01*
X22130823Y27298811D01*
X22222878Y27351959D01*
X22298041Y27427122D01*
X22351189Y27519177D01*
X22378700Y27621852D01*
X22378700Y27728148D01*
X22351189Y27830823D01*
X22298041Y27922878D01*
X22222878Y27998041D01*
X22130823Y28051189D01*
X22028148Y28078700D01*
X21921852Y28078700D01*
X21819177Y28051189D01*
X21819175Y28051188D01*
X21819174Y28051188D01*
X21727125Y27998043D01*
X21727119Y27998039D01*
X21651961Y27922881D01*
X21651957Y27922875D01*
X21598812Y27830826D01*
X21598812Y27830825D01*
X21598811Y27830823D01*
X21571300Y27728148D01*
X21571300Y27621852D01*
X21598811Y27519177D01*
X21651959Y27427122D01*
X21727122Y27351959D01*
X21819177Y27298811D01*
X21868394Y27285624D01*
X21928053Y27249261D01*
X21958583Y27186414D01*
X21950289Y27117039D01*
X21905804Y27063160D01*
X21868393Y27046075D01*
X21794177Y27026189D01*
X21794176Y27026189D01*
X21794174Y27026188D01*
X21702125Y26973043D01*
X21702119Y26973039D01*
X21626961Y26897881D01*
X21626957Y26897875D01*
X21573812Y26805826D01*
X21573812Y26805825D01*
X21573811Y26805823D01*
X21546300Y26703148D01*
X9642837Y26703148D01*
X9642837Y28828148D01*
X21271300Y28828148D01*
X21271300Y28721852D01*
X21298811Y28619177D01*
X21351959Y28527122D01*
X21427122Y28451959D01*
X21519177Y28398811D01*
X21621852Y28371300D01*
X21621854Y28371300D01*
X21728146Y28371300D01*
X21728148Y28371300D01*
X21830823Y28398811D01*
X21922878Y28451959D01*
X21998041Y28527122D01*
X22051189Y28619177D01*
X22078700Y28721852D01*
X22078700Y28828148D01*
X22051189Y28930823D01*
X21998041Y29022878D01*
X21922878Y29098041D01*
X21830823Y29151189D01*
X21728148Y29178700D01*
X21621852Y29178700D01*
X21519177Y29151189D01*
X21519175Y29151188D01*
X21519174Y29151188D01*
X21427125Y29098043D01*
X21427119Y29098039D01*
X21351961Y29022881D01*
X21351957Y29022875D01*
X21298812Y28930826D01*
X21298812Y28930825D01*
X21298811Y28930823D01*
X21271300Y28828148D01*
X9642837Y28828148D01*
X9642837Y29130363D01*
X9662522Y29197402D01*
X9679156Y29218044D01*
X9875456Y29414344D01*
X10082618Y29621506D01*
X10120889Y29687794D01*
X10140700Y29761729D01*
X10140700Y29838272D01*
X10140700Y30953148D01*
X15796300Y30953148D01*
X15796300Y30846852D01*
X15823811Y30744177D01*
X15876959Y30652122D01*
X15876961Y30652120D01*
X15941400Y30587681D01*
X15974885Y30526358D01*
X15969901Y30456666D01*
X15941400Y30412319D01*
X15876961Y30347881D01*
X15876957Y30347875D01*
X15823812Y30255826D01*
X15823812Y30255825D01*
X15823811Y30255823D01*
X15796300Y30153148D01*
X15796300Y30046852D01*
X15823811Y29944177D01*
X15876959Y29852122D01*
X15876961Y29852120D01*
X15941400Y29787681D01*
X15974885Y29726358D01*
X15969901Y29656666D01*
X15941400Y29612319D01*
X15876961Y29547881D01*
X15876957Y29547875D01*
X15823812Y29455826D01*
X15823812Y29455825D01*
X15823811Y29455823D01*
X15796300Y29353148D01*
X15796300Y29246852D01*
X15823811Y29144177D01*
X15823812Y29144176D01*
X15823812Y29144175D01*
X15841527Y29113492D01*
X15876959Y29052122D01*
X15952122Y28976959D01*
X16044177Y28923811D01*
X16146852Y28896300D01*
X16146854Y28896300D01*
X16253146Y28896300D01*
X16253148Y28896300D01*
X16355823Y28923811D01*
X16447878Y28976959D01*
X16523041Y29052122D01*
X16576189Y29144177D01*
X16603700Y29246852D01*
X16603700Y29353148D01*
X16576189Y29455823D01*
X16523041Y29547878D01*
X16458600Y29612319D01*
X16425115Y29673642D01*
X16430099Y29743334D01*
X16458600Y29787681D01*
X16487327Y29816408D01*
X16523041Y29852122D01*
X16576189Y29944177D01*
X16603700Y30046852D01*
X16603700Y30153148D01*
X16576189Y30255823D01*
X16523041Y30347878D01*
X16458600Y30412319D01*
X16425115Y30473642D01*
X16430099Y30543334D01*
X16458600Y30587681D01*
X16523041Y30652122D01*
X16576189Y30744177D01*
X16603700Y30846852D01*
X16603700Y30953148D01*
X19796300Y30953148D01*
X19796300Y30846852D01*
X19823811Y30744177D01*
X19876959Y30652122D01*
X19876961Y30652120D01*
X19941400Y30587681D01*
X19974885Y30526358D01*
X19969901Y30456666D01*
X19941400Y30412319D01*
X19876961Y30347881D01*
X19876957Y30347875D01*
X19823812Y30255826D01*
X19823812Y30255825D01*
X19823811Y30255823D01*
X19796300Y30153148D01*
X19796300Y30046852D01*
X19823811Y29944177D01*
X19876959Y29852122D01*
X19876961Y29852120D01*
X19941400Y29787681D01*
X19974885Y29726358D01*
X19969901Y29656666D01*
X19941400Y29612319D01*
X19876961Y29547881D01*
X19876957Y29547875D01*
X19823812Y29455826D01*
X19823812Y29455825D01*
X19823811Y29455823D01*
X19796300Y29353148D01*
X19796300Y29246852D01*
X19823811Y29144177D01*
X19823812Y29144176D01*
X19823812Y29144175D01*
X19841527Y29113492D01*
X19876959Y29052122D01*
X19952122Y28976959D01*
X20044177Y28923811D01*
X20146852Y28896300D01*
X20146854Y28896300D01*
X20253146Y28896300D01*
X20253148Y28896300D01*
X20355823Y28923811D01*
X20447878Y28976959D01*
X20523041Y29052122D01*
X20576189Y29144177D01*
X20603700Y29246852D01*
X20603700Y29353148D01*
X20576189Y29455823D01*
X20523041Y29547878D01*
X20458600Y29612319D01*
X20425115Y29673642D01*
X20430099Y29743334D01*
X20458600Y29787681D01*
X20487327Y29816408D01*
X20523041Y29852122D01*
X20576189Y29944177D01*
X20603700Y30046852D01*
X20603700Y30153148D01*
X20576189Y30255823D01*
X20523041Y30347878D01*
X20458600Y30412319D01*
X20425115Y30473642D01*
X20430099Y30543334D01*
X20458600Y30587681D01*
X20523041Y30652122D01*
X20576189Y30744177D01*
X20603700Y30846852D01*
X20603700Y30953148D01*
X20576189Y31055823D01*
X20523041Y31147878D01*
X20447878Y31223041D01*
X20355823Y31276189D01*
X20253148Y31303700D01*
X20146852Y31303700D01*
X20044177Y31276189D01*
X20044175Y31276188D01*
X20044174Y31276188D01*
X19952125Y31223043D01*
X19952119Y31223039D01*
X19876961Y31147881D01*
X19876957Y31147875D01*
X19823812Y31055826D01*
X19823812Y31055825D01*
X19823811Y31055823D01*
X19796300Y30953148D01*
X16603700Y30953148D01*
X16576189Y31055823D01*
X16523041Y31147878D01*
X16447878Y31223041D01*
X16355823Y31276189D01*
X16253148Y31303700D01*
X16146852Y31303700D01*
X16044177Y31276189D01*
X16044175Y31276188D01*
X16044174Y31276188D01*
X15952125Y31223043D01*
X15952119Y31223039D01*
X15876961Y31147881D01*
X15876957Y31147875D01*
X15823812Y31055826D01*
X15823812Y31055825D01*
X15823811Y31055823D01*
X15796300Y30953148D01*
X10140700Y30953148D01*
X10140700Y42815888D01*
X12247313Y42815888D01*
X12247313Y42703010D01*
X12250351Y42691673D01*
X12276528Y42593976D01*
X12288171Y42573811D01*
X12332968Y42496221D01*
X12412785Y42416404D01*
X12510541Y42359964D01*
X12619574Y42330749D01*
X12619576Y42330749D01*
X12732450Y42330749D01*
X12732452Y42330749D01*
X12841485Y42359964D01*
X12939241Y42416404D01*
X12987029Y42464193D01*
X13048350Y42497677D01*
X13118041Y42492693D01*
X13162390Y42464192D01*
X13221515Y42405067D01*
X13319271Y42348627D01*
X13428304Y42319412D01*
X13428306Y42319412D01*
X13541180Y42319412D01*
X13541182Y42319412D01*
X13650215Y42348627D01*
X13747971Y42405067D01*
X13827788Y42484884D01*
X13884228Y42582640D01*
X13913443Y42691673D01*
X13913443Y42804551D01*
X13884228Y42913584D01*
X13827788Y43011340D01*
X13747971Y43091157D01*
X13677074Y43132090D01*
X13650216Y43147597D01*
X13595698Y43162205D01*
X13541182Y43176812D01*
X13428304Y43176812D01*
X13319269Y43147597D01*
X13221515Y43091157D01*
X13221511Y43091154D01*
X13173726Y43043369D01*
X13112403Y43009885D01*
X13042711Y43014870D01*
X12998365Y43043370D01*
X12939243Y43102492D01*
X12939241Y43102494D01*
X12887980Y43132090D01*
X12841486Y43158934D01*
X12786968Y43173542D01*
X12732452Y43188149D01*
X12619574Y43188149D01*
X12510539Y43158934D01*
X12412785Y43102494D01*
X12412782Y43102492D01*
X12332970Y43022680D01*
X12332968Y43022677D01*
X12276528Y42924923D01*
X12269007Y42896853D01*
X12247313Y42815888D01*
X10140700Y42815888D01*
X10140700Y47339019D01*
X10160385Y47406058D01*
X10213189Y47451813D01*
X10282347Y47461757D01*
X10345903Y47432732D01*
X10352381Y47426700D01*
X10356171Y47422910D01*
X10431334Y47347747D01*
X10523389Y47294599D01*
X10626064Y47267088D01*
X10626066Y47267088D01*
X10732358Y47267088D01*
X10732360Y47267088D01*
X10835035Y47294599D01*
X10927090Y47347747D01*
X11002253Y47422910D01*
X11046147Y47498936D01*
X11475512Y47498936D01*
X11475512Y47392640D01*
X11503023Y47289965D01*
X11556171Y47197910D01*
X11631334Y47122747D01*
X11723389Y47069599D01*
X11826064Y47042088D01*
X11826066Y47042088D01*
X11932358Y47042088D01*
X11932360Y47042088D01*
X12035035Y47069599D01*
X12127090Y47122747D01*
X12191531Y47187188D01*
X12252854Y47220673D01*
X12322546Y47215689D01*
X12366893Y47187188D01*
X12431334Y47122747D01*
X12523389Y47069599D01*
X12626064Y47042088D01*
X12626066Y47042088D01*
X12732358Y47042088D01*
X12732360Y47042088D01*
X12835035Y47069599D01*
X12927090Y47122747D01*
X13002253Y47197910D01*
X13055401Y47289965D01*
X13082912Y47392640D01*
X13082912Y47473936D01*
X13650512Y47473936D01*
X13650512Y47367640D01*
X13678023Y47264965D01*
X13731171Y47172910D01*
X13806334Y47097747D01*
X13898389Y47044599D01*
X14001064Y47017088D01*
X14001066Y47017088D01*
X14107358Y47017088D01*
X14107360Y47017088D01*
X14210035Y47044599D01*
X14302090Y47097747D01*
X14377253Y47172910D01*
X14430401Y47264965D01*
X14457912Y47367640D01*
X14457912Y47473936D01*
X14451213Y47498936D01*
X16475512Y47498936D01*
X16475512Y47392640D01*
X16503023Y47289965D01*
X16556171Y47197910D01*
X16631334Y47122747D01*
X16723389Y47069599D01*
X16826064Y47042088D01*
X16826066Y47042088D01*
X16932358Y47042088D01*
X16932360Y47042088D01*
X17035035Y47069599D01*
X17127090Y47122747D01*
X17202253Y47197910D01*
X17255401Y47289965D01*
X17282912Y47392640D01*
X17282912Y47498936D01*
X17255401Y47601611D01*
X17202253Y47693666D01*
X17127090Y47768829D01*
X17035035Y47821977D01*
X16932360Y47849488D01*
X16826064Y47849488D01*
X16723389Y47821977D01*
X16723387Y47821976D01*
X16723386Y47821976D01*
X16631337Y47768831D01*
X16631331Y47768827D01*
X16556173Y47693669D01*
X16556169Y47693663D01*
X16503024Y47601614D01*
X16503024Y47601613D01*
X16503023Y47601611D01*
X16475512Y47498936D01*
X14451213Y47498936D01*
X14430401Y47576611D01*
X14377253Y47668666D01*
X14302090Y47743829D01*
X14210035Y47796977D01*
X14107360Y47824488D01*
X14001064Y47824488D01*
X13898389Y47796977D01*
X13898387Y47796976D01*
X13898386Y47796976D01*
X13806337Y47743831D01*
X13806331Y47743827D01*
X13731173Y47668669D01*
X13731169Y47668663D01*
X13678024Y47576614D01*
X13678024Y47576613D01*
X13678023Y47576611D01*
X13650512Y47473936D01*
X13082912Y47473936D01*
X13082912Y47498936D01*
X13055401Y47601611D01*
X13002253Y47693666D01*
X12927090Y47768829D01*
X12835035Y47821977D01*
X12732360Y47849488D01*
X12626064Y47849488D01*
X12523389Y47821977D01*
X12523387Y47821976D01*
X12523386Y47821976D01*
X12431337Y47768831D01*
X12431331Y47768827D01*
X12366893Y47704388D01*
X12305570Y47670903D01*
X12235878Y47675887D01*
X12191531Y47704388D01*
X12127092Y47768827D01*
X12127090Y47768829D01*
X12035035Y47821977D01*
X11932360Y47849488D01*
X11826064Y47849488D01*
X11723389Y47821977D01*
X11723387Y47821976D01*
X11723386Y47821976D01*
X11631337Y47768831D01*
X11631331Y47768827D01*
X11556173Y47693669D01*
X11556169Y47693663D01*
X11503024Y47601614D01*
X11503024Y47601613D01*
X11503023Y47601611D01*
X11475512Y47498936D01*
X11046147Y47498936D01*
X11055401Y47514965D01*
X11082912Y47617640D01*
X11082912Y47723936D01*
X11055401Y47826611D01*
X11002253Y47918666D01*
X10927090Y47993829D01*
X10835035Y48046977D01*
X10732360Y48074488D01*
X10626064Y48074488D01*
X10523389Y48046977D01*
X10523387Y48046976D01*
X10523386Y48046976D01*
X10431337Y47993831D01*
X10431331Y47993827D01*
X10352381Y47914876D01*
X10291058Y47881391D01*
X10221366Y47886375D01*
X10165433Y47928247D01*
X10141016Y47993711D01*
X10140700Y48002557D01*
X10140700Y49298936D01*
X18275512Y49298936D01*
X18275512Y49192640D01*
X18303023Y49089965D01*
X18356171Y48997910D01*
X18431334Y48922747D01*
X18523389Y48869599D01*
X18626064Y48842088D01*
X18626066Y48842088D01*
X18732358Y48842088D01*
X18732360Y48842088D01*
X18835035Y48869599D01*
X18927090Y48922747D01*
X19002253Y48997910D01*
X19055401Y49089965D01*
X19082912Y49192640D01*
X19082912Y49298936D01*
X19055401Y49401611D01*
X19002253Y49493666D01*
X18927090Y49568829D01*
X18835035Y49621977D01*
X18732360Y49649488D01*
X18626064Y49649488D01*
X18523389Y49621977D01*
X18523387Y49621976D01*
X18523386Y49621976D01*
X18431337Y49568831D01*
X18431331Y49568827D01*
X18356173Y49493669D01*
X18356169Y49493663D01*
X18303024Y49401614D01*
X18303024Y49401613D01*
X18303023Y49401611D01*
X18275512Y49298936D01*
X10140700Y49298936D01*
X10140700Y50689019D01*
X10160385Y50756058D01*
X10213189Y50801813D01*
X10282347Y50811757D01*
X10345903Y50782732D01*
X10352381Y50776700D01*
X10406334Y50722747D01*
X10498389Y50669599D01*
X10601064Y50642088D01*
X10601066Y50642088D01*
X10707358Y50642088D01*
X10707360Y50642088D01*
X10810035Y50669599D01*
X10902090Y50722747D01*
X10977253Y50797910D01*
X11030401Y50889965D01*
X11057912Y50992640D01*
X11057912Y51098936D01*
X11030401Y51201611D01*
X10977253Y51293666D01*
X10971983Y51298936D01*
X18375512Y51298936D01*
X18375512Y51192640D01*
X18403023Y51089965D01*
X18456171Y50997910D01*
X18531334Y50922747D01*
X18623389Y50869599D01*
X18726064Y50842088D01*
X18726066Y50842088D01*
X18832358Y50842088D01*
X18832360Y50842088D01*
X18935035Y50869599D01*
X19027090Y50922747D01*
X19102253Y50997910D01*
X19155401Y51089965D01*
X19182912Y51192640D01*
X19182912Y51298936D01*
X19155401Y51401611D01*
X19102253Y51493666D01*
X19027090Y51568829D01*
X18935035Y51621977D01*
X18832360Y51649488D01*
X18726064Y51649488D01*
X18623389Y51621977D01*
X18623387Y51621976D01*
X18623386Y51621976D01*
X18531337Y51568831D01*
X18531331Y51568827D01*
X18456173Y51493669D01*
X18456169Y51493663D01*
X18403024Y51401614D01*
X18403024Y51401613D01*
X18403023Y51401611D01*
X18375512Y51298936D01*
X10971983Y51298936D01*
X10908191Y51362728D01*
X10904083Y51367807D01*
X10893064Y51394272D01*
X10879327Y51419430D01*
X10879805Y51426119D01*
X10877228Y51432309D01*
X10882266Y51460529D01*
X10884311Y51489122D01*
X10888548Y51495715D01*
X10889508Y51501091D01*
X10897630Y51509848D01*
X10912812Y51533469D01*
X10977253Y51597910D01*
X11030401Y51689965D01*
X11057912Y51792640D01*
X11057912Y51898936D01*
X11030401Y52001611D01*
X10977253Y52093666D01*
X10902090Y52168829D01*
X10810035Y52221977D01*
X10707360Y52249488D01*
X10601064Y52249488D01*
X10498389Y52221977D01*
X10498387Y52221976D01*
X10498386Y52221976D01*
X10406337Y52168831D01*
X10406331Y52168827D01*
X10352381Y52114876D01*
X10291058Y52081391D01*
X10221366Y52086375D01*
X10165433Y52128247D01*
X10141016Y52193711D01*
X10140700Y52202557D01*
X10140700Y53298936D01*
X18325512Y53298936D01*
X18325512Y53192640D01*
X18353023Y53089965D01*
X18406171Y52997910D01*
X18481334Y52922747D01*
X18573389Y52869599D01*
X18676064Y52842088D01*
X18676066Y52842088D01*
X18782358Y52842088D01*
X18782360Y52842088D01*
X18885035Y52869599D01*
X18977090Y52922747D01*
X19052253Y52997910D01*
X19105401Y53089965D01*
X19132912Y53192640D01*
X19132912Y53298936D01*
X19105401Y53401611D01*
X19052253Y53493666D01*
X18977090Y53568829D01*
X18885035Y53621977D01*
X18782360Y53649488D01*
X18676064Y53649488D01*
X18573389Y53621977D01*
X18573387Y53621976D01*
X18573386Y53621976D01*
X18481337Y53568831D01*
X18481331Y53568827D01*
X18406173Y53493669D01*
X18406169Y53493663D01*
X18353024Y53401614D01*
X18353024Y53401613D01*
X18353023Y53401611D01*
X18325512Y53298936D01*
X10140700Y53298936D01*
X10140700Y54951644D01*
X10160385Y55018683D01*
X10213189Y55064438D01*
X10282347Y55074382D01*
X10345903Y55045357D01*
X10372086Y55013645D01*
X10381171Y54997910D01*
X10456334Y54922747D01*
X10548389Y54869599D01*
X10651064Y54842088D01*
X10651066Y54842088D01*
X10757358Y54842088D01*
X10757360Y54842088D01*
X10860035Y54869599D01*
X10952090Y54922747D01*
X11027253Y54997910D01*
X11080401Y55089965D01*
X11107912Y55192640D01*
X11107912Y55298936D01*
X11080401Y55401611D01*
X11027253Y55493666D01*
X11021983Y55498936D01*
X13650512Y55498936D01*
X13650512Y55392640D01*
X13678023Y55289965D01*
X13678024Y55289964D01*
X13678024Y55289963D01*
X13690026Y55269175D01*
X13731171Y55197910D01*
X13806334Y55122747D01*
X13898389Y55069599D01*
X14001064Y55042088D01*
X14001066Y55042088D01*
X14107358Y55042088D01*
X14107360Y55042088D01*
X14210035Y55069599D01*
X14302090Y55122747D01*
X14377253Y55197910D01*
X14430401Y55289965D01*
X14457912Y55392640D01*
X14457912Y55498936D01*
X14451213Y55523936D01*
X14875512Y55523936D01*
X14875512Y55417640D01*
X14903023Y55314965D01*
X14903024Y55314964D01*
X14903024Y55314963D01*
X14917457Y55289965D01*
X14956171Y55222910D01*
X15031334Y55147747D01*
X15123389Y55094599D01*
X15226064Y55067088D01*
X15226066Y55067088D01*
X15332358Y55067088D01*
X15332360Y55067088D01*
X15435035Y55094599D01*
X15527090Y55147747D01*
X15602253Y55222910D01*
X15655401Y55314965D01*
X15682912Y55417640D01*
X15682912Y55523936D01*
X16875512Y55523936D01*
X16875512Y55417640D01*
X16903023Y55314965D01*
X16903024Y55314964D01*
X16903024Y55314963D01*
X16917457Y55289965D01*
X16956171Y55222910D01*
X17031334Y55147747D01*
X17123389Y55094599D01*
X17226064Y55067088D01*
X17226066Y55067088D01*
X17332358Y55067088D01*
X17332360Y55067088D01*
X17435035Y55094599D01*
X17527090Y55147747D01*
X17602253Y55222910D01*
X17655401Y55314965D01*
X17682912Y55417640D01*
X17682912Y55523936D01*
X17655401Y55626611D01*
X17602253Y55718666D01*
X17527090Y55793829D01*
X17435035Y55846977D01*
X17332360Y55874488D01*
X17226064Y55874488D01*
X17123389Y55846977D01*
X17123387Y55846976D01*
X17123386Y55846976D01*
X17031337Y55793831D01*
X17031331Y55793827D01*
X16956173Y55718669D01*
X16956169Y55718663D01*
X16903024Y55626614D01*
X16903024Y55626613D01*
X16903023Y55626611D01*
X16875512Y55523936D01*
X15682912Y55523936D01*
X15655401Y55626611D01*
X15602253Y55718666D01*
X15527090Y55793829D01*
X15435035Y55846977D01*
X15332360Y55874488D01*
X15226064Y55874488D01*
X15123389Y55846977D01*
X15123387Y55846976D01*
X15123386Y55846976D01*
X15031337Y55793831D01*
X15031331Y55793827D01*
X14956173Y55718669D01*
X14956169Y55718663D01*
X14903024Y55626614D01*
X14903024Y55626613D01*
X14903023Y55626611D01*
X14875512Y55523936D01*
X14451213Y55523936D01*
X14430401Y55601611D01*
X14377253Y55693666D01*
X14302090Y55768829D01*
X14210035Y55821977D01*
X14107360Y55849488D01*
X14001064Y55849488D01*
X13898389Y55821977D01*
X13898387Y55821976D01*
X13898386Y55821976D01*
X13806337Y55768831D01*
X13806331Y55768827D01*
X13731173Y55693669D01*
X13731169Y55693663D01*
X13678024Y55601614D01*
X13678024Y55601613D01*
X13678023Y55601611D01*
X13650512Y55498936D01*
X11021983Y55498936D01*
X11014444Y55506475D01*
X11007540Y55516919D01*
X11000798Y55538828D01*
X10989815Y55558942D01*
X10990719Y55571583D01*
X10986991Y55583698D01*
X10993164Y55605773D01*
X10994799Y55628634D01*
X11002394Y55638781D01*
X11005808Y55650986D01*
X11022935Y55666219D01*
X11036671Y55684567D01*
X11048545Y55688996D01*
X11058017Y55697420D01*
X11080662Y55700976D01*
X11102135Y55708984D01*
X11110981Y55709300D01*
X12138268Y55709300D01*
X12138271Y55709300D01*
X12212206Y55729111D01*
X12278494Y55767382D01*
X13998830Y57487718D01*
X14037101Y57554006D01*
X14056912Y57627941D01*
X14056912Y57704484D01*
X14056912Y57968419D01*
X14076597Y58035458D01*
X14084630Y58045428D01*
X14084306Y58045676D01*
X14089244Y58052114D01*
X14089253Y58052122D01*
X14142401Y58144177D01*
X14169912Y58246852D01*
X14169912Y58353148D01*
X14142401Y58455823D01*
X14089253Y58547878D01*
X14014090Y58623041D01*
X13932798Y58669975D01*
X13922037Y58676188D01*
X13922036Y58676189D01*
X13922035Y58676189D01*
X13819360Y58703700D01*
X13713064Y58703700D01*
X13610388Y58676189D01*
X13576699Y58656738D01*
X13570797Y58655307D01*
X13566211Y58651332D01*
X13537248Y58647168D01*
X13508799Y58640266D01*
X13503061Y58642252D01*
X13497053Y58641388D01*
X13470431Y58653546D01*
X13442772Y58663119D01*
X13439019Y58667892D01*
X13433497Y58670413D01*
X13417673Y58695036D01*
X13399582Y58718041D01*
X13398165Y58725391D01*
X13395723Y58729191D01*
X13390700Y58764126D01*
X13390700Y58768419D01*
X13410385Y58835458D01*
X13418418Y58845428D01*
X13418094Y58845676D01*
X13423032Y58852114D01*
X13423041Y58852122D01*
X13476189Y58944177D01*
X13503700Y59046852D01*
X13503700Y59153148D01*
X13476189Y59255823D01*
X13423041Y59347878D01*
X13347878Y59423041D01*
X13255823Y59476189D01*
X13153148Y59503700D01*
X13046852Y59503700D01*
X12944177Y59476189D01*
X12944175Y59476188D01*
X12944174Y59476188D01*
X12852125Y59423043D01*
X12852119Y59423039D01*
X12776961Y59347881D01*
X12776957Y59347875D01*
X12723812Y59255826D01*
X12723812Y59255825D01*
X12723811Y59255823D01*
X12696300Y59153148D01*
X12696300Y59046852D01*
X12723811Y58944177D01*
X12776959Y58852122D01*
X12776963Y58852118D01*
X12781906Y58845676D01*
X12779627Y58843928D01*
X12806466Y58794777D01*
X12809300Y58768419D01*
X12809300Y57971774D01*
X12789615Y57904735D01*
X12772981Y57884093D01*
X11665907Y56777019D01*
X11604584Y56743534D01*
X11578226Y56740700D01*
X10538271Y56740700D01*
X10461728Y56740700D01*
X10412438Y56727493D01*
X10387793Y56720889D01*
X10321507Y56682619D01*
X10321504Y56682617D01*
X9180383Y55541496D01*
X9180381Y55541493D01*
X9142111Y55475207D01*
X9142111Y55475206D01*
X9122300Y55401271D01*
X9122300Y55401269D01*
X9122300Y32174911D01*
X9102615Y32107872D01*
X9085981Y32087230D01*
X6955383Y29956633D01*
X6955381Y29956630D01*
X6917111Y29890344D01*
X6917111Y29890343D01*
X6897300Y29816408D01*
X6897300Y29816406D01*
X6897300Y27349127D01*
X6888655Y27319687D01*
X6882132Y27289700D01*
X6878377Y27284685D01*
X6877615Y27282088D01*
X6860981Y27261446D01*
X6775865Y27176330D01*
X6714542Y27142845D01*
X6701816Y27141477D01*
X6701870Y27141072D01*
X6693810Y27140011D01*
X6591135Y27112500D01*
X6591133Y27112499D01*
X6591132Y27112499D01*
X6499083Y27059354D01*
X6499077Y27059350D01*
X6423919Y26984192D01*
X6423915Y26984186D01*
X6372087Y26894417D01*
X6321520Y26846201D01*
X6252913Y26832978D01*
X6188048Y26858947D01*
X6147520Y26915861D01*
X6140700Y26956417D01*
X6140700Y35047977D01*
X6160385Y35115016D01*
X6213189Y35160771D01*
X6282347Y35170715D01*
X6296780Y35167755D01*
X6376852Y35146300D01*
X6376854Y35146300D01*
X6483146Y35146300D01*
X6483148Y35146300D01*
X6585823Y35173811D01*
X6677878Y35226959D01*
X6753041Y35302122D01*
X6806189Y35394177D01*
X6833700Y35496852D01*
X6833700Y35603148D01*
X6806189Y35705823D01*
X6753041Y35797878D01*
X6677878Y35873041D01*
X6585823Y35926189D01*
X6483148Y35953700D01*
X6376852Y35953700D01*
X6376850Y35953700D01*
X6296792Y35932249D01*
X6226942Y35933912D01*
X6169080Y35973076D01*
X6141577Y36037304D01*
X6140700Y36052024D01*
X6140700Y39703226D01*
X6160385Y39770265D01*
X6177019Y39790907D01*
X6584619Y40198507D01*
X6645942Y40231992D01*
X6715634Y40227008D01*
X6771567Y40185136D01*
X6795984Y40119672D01*
X6796300Y40110826D01*
X6796300Y37253001D01*
X6779689Y37191005D01*
X6773811Y37180825D01*
X6773809Y37180818D01*
X6746300Y37078150D01*
X6746300Y37078148D01*
X6746300Y36971852D01*
X6773811Y36869177D01*
X6826959Y36777122D01*
X6902122Y36701959D01*
X6994177Y36648811D01*
X7096852Y36621300D01*
X7096854Y36621300D01*
X7203146Y36621300D01*
X7203148Y36621300D01*
X7305823Y36648811D01*
X7397878Y36701959D01*
X7473041Y36777122D01*
X7526189Y36869177D01*
X7553700Y36971852D01*
X7553700Y37078148D01*
X7526189Y37180823D01*
X7520311Y37191005D01*
X7503700Y37253001D01*
X7503700Y39952131D01*
X7523385Y40019170D01*
X7540019Y40039812D01*
X7933237Y40433030D01*
X8383030Y40882823D01*
X8429596Y40963477D01*
X8453700Y41053435D01*
X8453700Y41146565D01*
X8453700Y61277131D01*
X8473385Y61344170D01*
X8490019Y61364812D01*
X12684619Y65559412D01*
X12745942Y65592897D01*
X12815634Y65587913D01*
X12871567Y65546041D01*
X12895984Y65480577D01*
X12896293Y65471900D01*
X12896300Y65471854D01*
X12896300Y65471852D01*
X12923811Y65369177D01*
X12976959Y65277122D01*
X13052122Y65201959D01*
X13144177Y65148811D01*
X13246852Y65121300D01*
X13246854Y65121300D01*
X13353146Y65121300D01*
X13353148Y65121300D01*
X13455823Y65148811D01*
X13547878Y65201959D01*
X13623041Y65277122D01*
X13676189Y65369177D01*
X13679932Y65383148D01*
X18566300Y65383148D01*
X18566300Y65276852D01*
X18593811Y65174177D01*
X18593812Y65174176D01*
X18593812Y65174175D01*
X18605358Y65154177D01*
X18646959Y65082122D01*
X18722122Y65006959D01*
X18814177Y64953811D01*
X18916852Y64926300D01*
X18916854Y64926300D01*
X19023146Y64926300D01*
X19023148Y64926300D01*
X19125823Y64953811D01*
X19217878Y65006959D01*
X19267319Y65056400D01*
X19328642Y65089885D01*
X19398334Y65084901D01*
X19442681Y65056400D01*
X19512122Y64986959D01*
X19604177Y64933811D01*
X19706852Y64906300D01*
X19706854Y64906300D01*
X19813146Y64906300D01*
X19813148Y64906300D01*
X19915823Y64933811D01*
X20007878Y64986959D01*
X20074819Y65053900D01*
X20136142Y65087385D01*
X20205834Y65082401D01*
X20250181Y65053900D01*
X20306334Y64997747D01*
X20398389Y64944599D01*
X20501064Y64917088D01*
X20501066Y64917088D01*
X20607358Y64917088D01*
X20607360Y64917088D01*
X20710035Y64944599D01*
X20802090Y64997747D01*
X20877253Y65072910D01*
X20877253Y65072911D01*
X20883000Y65078657D01*
X20885241Y65076416D01*
X20929598Y65108822D01*
X20999343Y65112994D01*
X21059257Y65079824D01*
X21132122Y65006959D01*
X21224177Y64953811D01*
X21326852Y64926300D01*
X21326854Y64926300D01*
X21433146Y64926300D01*
X21433148Y64926300D01*
X21535823Y64953811D01*
X21627878Y65006959D01*
X21635900Y65014981D01*
X21697223Y65048466D01*
X21723581Y65051300D01*
X22256769Y65051300D01*
X22323808Y65031615D01*
X22369563Y64978811D01*
X22379507Y64909653D01*
X22364156Y64865300D01*
X22350516Y64841676D01*
X22350516Y64841675D01*
X22321300Y64732639D01*
X22321300Y64619762D01*
X22350515Y64510727D01*
X22393082Y64437001D01*
X22409555Y64369101D01*
X22393082Y64312999D01*
X22350515Y64239274D01*
X22321300Y64130239D01*
X22321300Y64017362D01*
X22350515Y63908327D01*
X22376554Y63863228D01*
X22406955Y63810572D01*
X22486772Y63730755D01*
X22584528Y63674315D01*
X22693561Y63645100D01*
X22693563Y63645100D01*
X22806437Y63645100D01*
X22806439Y63645100D01*
X22915472Y63674315D01*
X23013228Y63730755D01*
X23093045Y63810572D01*
X23149485Y63908328D01*
X23178700Y64017361D01*
X23178700Y64130239D01*
X23149485Y64239272D01*
X23149484Y64239274D01*
X23149484Y64239275D01*
X23121858Y64287123D01*
X23106917Y64313001D01*
X23106083Y64316440D01*
X23103658Y64319022D01*
X23097906Y64350143D01*
X23090444Y64380898D01*
X23091412Y64385272D01*
X23090959Y64387728D01*
X23094117Y64397479D01*
X23099541Y64421963D01*
X23102717Y64429725D01*
X23149485Y64510728D01*
X23175316Y64607135D01*
X23178292Y64614405D01*
X23195388Y64635807D01*
X23209645Y64659196D01*
X23216881Y64662712D01*
X23221901Y64668995D01*
X23247852Y64677756D01*
X23272492Y64689725D01*
X23280478Y64688771D01*
X23288100Y64691343D01*
X23314672Y64684682D01*
X23341867Y64681430D01*
X23350235Y64675767D01*
X23355873Y64674353D01*
X23362063Y64667762D01*
X23380736Y64655123D01*
X24501696Y63534163D01*
X24535181Y63472840D01*
X24530197Y63403148D01*
X24488325Y63347215D01*
X24451642Y63329393D01*
X24451682Y63329297D01*
X24450073Y63328631D01*
X24446122Y63326711D01*
X24444183Y63326192D01*
X24444174Y63326188D01*
X24352125Y63273043D01*
X24352119Y63273039D01*
X24276961Y63197881D01*
X24276957Y63197875D01*
X24223812Y63105826D01*
X24223812Y63105825D01*
X24223811Y63105823D01*
X24196300Y63003148D01*
X24196300Y62896852D01*
X24223811Y62794177D01*
X24276959Y62702122D01*
X24276961Y62702120D01*
X24325171Y62653910D01*
X24358656Y62592587D01*
X24353672Y62522895D01*
X24311800Y62466962D01*
X24299490Y62458842D01*
X24272125Y62443043D01*
X24272119Y62443039D01*
X24196961Y62367881D01*
X24196957Y62367875D01*
X24143812Y62275826D01*
X24143812Y62275825D01*
X24143811Y62275823D01*
X24116300Y62173148D01*
X24116300Y62066852D01*
X24143811Y61964177D01*
X24143812Y61964176D01*
X24143812Y61964175D01*
X24161527Y61933492D01*
X24196959Y61872122D01*
X24196961Y61872120D01*
X24261400Y61807681D01*
X24294885Y61746358D01*
X24289901Y61676666D01*
X24261400Y61632319D01*
X24206961Y61577881D01*
X24206957Y61577875D01*
X24153812Y61485826D01*
X24153812Y61485825D01*
X24153811Y61485823D01*
X24126300Y61383148D01*
X24126300Y61276852D01*
X24153811Y61174177D01*
X24206959Y61082122D01*
X24206961Y61082120D01*
X24266400Y61022681D01*
X24299885Y60961358D01*
X24294901Y60891666D01*
X24266400Y60847319D01*
X24186961Y60767881D01*
X24186957Y60767875D01*
X24133812Y60675826D01*
X24133812Y60675825D01*
X24133811Y60675823D01*
X24106300Y60573148D01*
X24106300Y60466852D01*
X24133811Y60364177D01*
X24186959Y60272122D01*
X24186961Y60272120D01*
X24251400Y60207681D01*
X24284885Y60146358D01*
X24279901Y60076666D01*
X24251400Y60032319D01*
X24196961Y59977881D01*
X24196957Y59977875D01*
X24143812Y59885826D01*
X24143812Y59885825D01*
X24143811Y59885823D01*
X24116300Y59783148D01*
X24116300Y59676852D01*
X24143811Y59574177D01*
X24196959Y59482122D01*
X24272122Y59406959D01*
X24364177Y59353811D01*
X24466852Y59326300D01*
X24466854Y59326300D01*
X24573146Y59326300D01*
X24573148Y59326300D01*
X24675823Y59353811D01*
X24685260Y59359260D01*
X24753157Y59375733D01*
X24819184Y59352882D01*
X24862376Y59297962D01*
X24869020Y59228409D01*
X24854647Y59189873D01*
X24826962Y59141922D01*
X24826962Y59141921D01*
X24797746Y59032885D01*
X24797746Y58920008D01*
X24812540Y58864796D01*
X24810877Y58794946D01*
X24771714Y58737084D01*
X24707486Y58709580D01*
X24660673Y58712928D01*
X24583149Y58733700D01*
X24583148Y58733700D01*
X24476852Y58733700D01*
X24374177Y58706189D01*
X24374175Y58706188D01*
X24374174Y58706188D01*
X24282125Y58653043D01*
X24282119Y58653039D01*
X24206961Y58577881D01*
X24206957Y58577875D01*
X24153812Y58485826D01*
X24153812Y58485825D01*
X24153811Y58485823D01*
X24126300Y58383148D01*
X24126300Y58276852D01*
X24153811Y58174177D01*
X24206959Y58082122D01*
X24206961Y58082120D01*
X24266400Y58022681D01*
X24299885Y57961358D01*
X24294901Y57891666D01*
X24266400Y57847319D01*
X24216961Y57797881D01*
X24216957Y57797875D01*
X24163812Y57705826D01*
X24163812Y57705825D01*
X24163811Y57705823D01*
X24136300Y57603148D01*
X24136300Y57496852D01*
X24163811Y57394177D01*
X24216959Y57302122D01*
X24292122Y57226959D01*
X24384177Y57173811D01*
X24486852Y57146300D01*
X24486854Y57146300D01*
X24593146Y57146300D01*
X24593148Y57146300D01*
X24695823Y57173811D01*
X24775863Y57220023D01*
X24843762Y57236495D01*
X24909789Y57213643D01*
X24925543Y57200316D01*
X25144981Y56980878D01*
X25178466Y56919555D01*
X25181300Y56893197D01*
X25181300Y20276804D01*
X25161615Y20209765D01*
X25144981Y20189123D01*
X19876985Y14921128D01*
X19876983Y14921126D01*
X19840293Y14857575D01*
X19840293Y14857574D01*
X19821300Y14786692D01*
X19821300Y14786690D01*
X19821300Y8368581D01*
X19801615Y8301542D01*
X19784981Y8280900D01*
X19776961Y8272881D01*
X19776957Y8272875D01*
X19723812Y8180826D01*
X19723812Y8180825D01*
X19723811Y8180823D01*
X19696300Y8078148D01*
X19696300Y7971852D01*
X19723811Y7869177D01*
X19776959Y7777122D01*
X19852122Y7701959D01*
X19944177Y7648811D01*
X20046852Y7621300D01*
X20046854Y7621300D01*
X20153146Y7621300D01*
X20153148Y7621300D01*
X20255823Y7648811D01*
X20347878Y7701959D01*
X20423041Y7777122D01*
X20476189Y7869177D01*
X20503700Y7971852D01*
X20503700Y8078148D01*
X20487071Y8140210D01*
X20487666Y8165202D01*
X20484108Y8189947D01*
X20488483Y8199528D01*
X20488734Y8210056D01*
X20502746Y8230761D01*
X20513133Y8253503D01*
X20521992Y8259197D01*
X20527896Y8267919D01*
X20550879Y8277761D01*
X20571911Y8291277D01*
X20587766Y8293557D01*
X20592125Y8295423D01*
X20606846Y8296300D01*
X20674139Y8296300D01*
X20741178Y8276615D01*
X20786933Y8223811D01*
X20793205Y8201982D01*
X20794197Y8202247D01*
X20796300Y8194399D01*
X20796300Y8194397D01*
X20823811Y8091722D01*
X20876959Y7999667D01*
X20952122Y7924504D01*
X21044177Y7871356D01*
X21146852Y7843845D01*
X21146854Y7843845D01*
X21253146Y7843845D01*
X21253148Y7843845D01*
X21355823Y7871356D01*
X21447878Y7924504D01*
X21523041Y7999667D01*
X21576189Y8091722D01*
X21603700Y8194397D01*
X21603700Y8222300D01*
X21623385Y8289339D01*
X21676189Y8335094D01*
X21727700Y8346300D01*
X21803146Y8346300D01*
X21803148Y8346300D01*
X21905823Y8373811D01*
X21997878Y8426959D01*
X22073041Y8502122D01*
X22118390Y8580670D01*
X22168957Y8628885D01*
X22237564Y8642108D01*
X22257864Y8638446D01*
X22321852Y8621300D01*
X22321854Y8621300D01*
X22428146Y8621300D01*
X22428148Y8621300D01*
X22530823Y8648811D01*
X22622878Y8701959D01*
X22698041Y8777122D01*
X22698041Y8777123D01*
X22703788Y8782869D01*
X22706124Y8780533D01*
X22750071Y8812661D01*
X22819815Y8816858D01*
X22824150Y8815780D01*
X22896852Y8796300D01*
X22896854Y8796300D01*
X23003146Y8796300D01*
X23003148Y8796300D01*
X23105823Y8823811D01*
X23197878Y8876959D01*
X23273041Y8952122D01*
X23299192Y8997417D01*
X23349757Y9045631D01*
X23418364Y9058855D01*
X23438666Y9055192D01*
X23471852Y9046300D01*
X23471854Y9046300D01*
X23578145Y9046300D01*
X23578148Y9046300D01*
X23680823Y9073811D01*
X23680828Y9073814D01*
X23685206Y9074987D01*
X23755056Y9073324D01*
X23812919Y9034162D01*
X23840423Y8969933D01*
X23841300Y8955212D01*
X23841300Y7243581D01*
X23821615Y7176542D01*
X23804981Y7155900D01*
X23796961Y7147881D01*
X23796957Y7147875D01*
X23743812Y7055826D01*
X23743812Y7055825D01*
X23743811Y7055823D01*
X23716300Y6953148D01*
X23716300Y6846852D01*
X23743811Y6744177D01*
X23796959Y6652122D01*
X23872122Y6576959D01*
X23964177Y6523811D01*
X24066852Y6496300D01*
X24066854Y6496300D01*
X24173146Y6496300D01*
X24173148Y6496300D01*
X24275823Y6523811D01*
X24367878Y6576959D01*
X24443041Y6652122D01*
X24446197Y6657590D01*
X24496758Y6705807D01*
X24565364Y6719035D01*
X24585666Y6715374D01*
X24656852Y6696300D01*
X24656855Y6696300D01*
X24763146Y6696300D01*
X24763148Y6696300D01*
X24865823Y6723811D01*
X24957878Y6776959D01*
X25033041Y6852122D01*
X25034042Y6853857D01*
X25035267Y6855025D01*
X25037989Y6858571D01*
X25038541Y6858147D01*
X25084608Y6902071D01*
X25153215Y6915295D01*
X25196474Y6901466D01*
X25196664Y6901923D01*
X25202143Y6899654D01*
X25203429Y6899243D01*
X25203919Y6898960D01*
X25204173Y6898813D01*
X25204177Y6898811D01*
X25306852Y6871300D01*
X25306854Y6871300D01*
X25413146Y6871300D01*
X25413148Y6871300D01*
X25515823Y6898811D01*
X25607878Y6951959D01*
X25683041Y7027122D01*
X25736189Y7119177D01*
X25763700Y7221852D01*
X25763700Y7328148D01*
X25736189Y7430823D01*
X25683041Y7522878D01*
X25675019Y7530900D01*
X25641534Y7592223D01*
X25638700Y7618581D01*
X25638700Y14353148D01*
X26796300Y14353148D01*
X26796300Y14246852D01*
X26823811Y14144177D01*
X26876959Y14052122D01*
X26952122Y13976959D01*
X27044177Y13923811D01*
X27146852Y13896300D01*
X27146854Y13896300D01*
X27253146Y13896300D01*
X27253148Y13896300D01*
X27355823Y13923811D01*
X27447878Y13976959D01*
X27523041Y14052122D01*
X27576189Y14144177D01*
X27603700Y14246852D01*
X27603700Y14353148D01*
X27576189Y14455823D01*
X27523041Y14547878D01*
X27447878Y14623041D01*
X27355823Y14676189D01*
X27253148Y14703700D01*
X27146852Y14703700D01*
X27044177Y14676189D01*
X27044175Y14676188D01*
X27044174Y14676188D01*
X26952125Y14623043D01*
X26952119Y14623039D01*
X26876961Y14547881D01*
X26876957Y14547875D01*
X26823812Y14455826D01*
X26823812Y14455825D01*
X26823811Y14455823D01*
X26796300Y14353148D01*
X25638700Y14353148D01*
X25638700Y14643198D01*
X25658385Y14710237D01*
X25675014Y14730874D01*
X28440916Y17496777D01*
X28440921Y17496780D01*
X28451124Y17506984D01*
X28451126Y17506984D01*
X28503016Y17558874D01*
X28539707Y17622426D01*
X28558701Y17693309D01*
X28558701Y17766692D01*
X28558701Y17774287D01*
X28558700Y17774305D01*
X28558700Y61946691D01*
X28558700Y61946692D01*
X28543672Y62002776D01*
X28543672Y62002777D01*
X28543672Y62002778D01*
X28539707Y62017575D01*
X28539706Y62017578D01*
X28503020Y62081120D01*
X28503014Y62081128D01*
X23760086Y66824055D01*
X23760084Y66824058D01*
X23701125Y66883017D01*
X23637574Y66919707D01*
X23637575Y66919707D01*
X23619853Y66924456D01*
X23566692Y66938700D01*
X23566689Y66938700D01*
X22759526Y66938700D01*
X22692487Y66958385D01*
X22646732Y67011189D01*
X22636788Y67080347D01*
X22639751Y67094793D01*
X22653700Y67146852D01*
X22653700Y67253148D01*
X22626189Y67355823D01*
X22573041Y67447878D01*
X22497878Y67523041D01*
X22413333Y67571853D01*
X22405825Y67576188D01*
X22405824Y67576189D01*
X22405823Y67576189D01*
X22303148Y67603700D01*
X22196852Y67603700D01*
X22094177Y67576189D01*
X22094175Y67576188D01*
X22094174Y67576188D01*
X22002122Y67523042D01*
X22000484Y67521784D01*
X21998852Y67521154D01*
X21995083Y67518977D01*
X21994743Y67519565D01*
X21935314Y67496592D01*
X21866870Y67510632D01*
X21849516Y67521784D01*
X21847877Y67523042D01*
X21755825Y67576188D01*
X21755824Y67576189D01*
X21755823Y67576189D01*
X21653148Y67603700D01*
X21546852Y67603700D01*
X21444175Y67576189D01*
X21361999Y67528744D01*
X21294099Y67512272D01*
X21238001Y67528744D01*
X21155824Y67576189D01*
X21104485Y67589945D01*
X21053148Y67603700D01*
X20946852Y67603700D01*
X20844177Y67576189D01*
X20844175Y67576188D01*
X20844174Y67576188D01*
X20752125Y67523043D01*
X20752119Y67523039D01*
X20676961Y67447881D01*
X20676957Y67447875D01*
X20623812Y67355826D01*
X20623812Y67355825D01*
X20623811Y67355823D01*
X20609379Y67301959D01*
X20596300Y67253148D01*
X20596300Y67146853D01*
X20610249Y67094793D01*
X20608586Y67024943D01*
X20569423Y66967080D01*
X20505194Y66939577D01*
X20490474Y66938700D01*
X20336692Y66938700D01*
X20263308Y66938700D01*
X20210146Y66924456D01*
X20192425Y66919707D01*
X20128874Y66883017D01*
X20128872Y66883015D01*
X19015878Y65770019D01*
X18954555Y65736534D01*
X18928197Y65733700D01*
X18916852Y65733700D01*
X18814177Y65706189D01*
X18814175Y65706188D01*
X18814174Y65706188D01*
X18722125Y65653043D01*
X18722119Y65653039D01*
X18646961Y65577881D01*
X18646957Y65577875D01*
X18593812Y65485826D01*
X18593812Y65485825D01*
X18593811Y65485823D01*
X18566300Y65383148D01*
X13679932Y65383148D01*
X13703700Y65471852D01*
X13703700Y65578148D01*
X13676189Y65680823D01*
X13623041Y65772878D01*
X13547878Y65848041D01*
X13455823Y65901189D01*
X13353148Y65928700D01*
X13246852Y65928700D01*
X13144177Y65901189D01*
X13144175Y65901188D01*
X13144174Y65901188D01*
X13064700Y65855303D01*
X12996800Y65838830D01*
X12930773Y65861683D01*
X12887582Y65916604D01*
X12878700Y65962690D01*
X12878700Y68127132D01*
X12898385Y68194171D01*
X12915014Y68214808D01*
X13206645Y68506439D01*
X27120100Y68506439D01*
X27120100Y68393562D01*
X27149315Y68284527D01*
X27164103Y68258915D01*
X27205755Y68186772D01*
X27285572Y68106955D01*
X27383328Y68050515D01*
X27492361Y68021300D01*
X27492363Y68021300D01*
X27605237Y68021300D01*
X27605239Y68021300D01*
X27714272Y68050515D01*
X27788000Y68093083D01*
X27855898Y68109556D01*
X27911998Y68093083D01*
X27951856Y68070071D01*
X27985725Y68050516D01*
X27985727Y68050516D01*
X27985728Y68050515D01*
X28094761Y68021300D01*
X28094763Y68021300D01*
X28207637Y68021300D01*
X28207639Y68021300D01*
X28316672Y68050515D01*
X28414428Y68106955D01*
X28494245Y68186772D01*
X28550685Y68284528D01*
X28579900Y68393561D01*
X28579900Y68506439D01*
X28550685Y68615472D01*
X28494245Y68713228D01*
X28414428Y68793045D01*
X28365488Y68821301D01*
X28316673Y68849485D01*
X28262155Y68864093D01*
X28207639Y68878700D01*
X28094761Y68878700D01*
X27985726Y68849485D01*
X27912001Y68806918D01*
X27844101Y68790445D01*
X27787999Y68806918D01*
X27714273Y68849485D01*
X27659755Y68864093D01*
X27605239Y68878700D01*
X27492361Y68878700D01*
X27383326Y68849485D01*
X27285572Y68793045D01*
X27285569Y68793043D01*
X27205757Y68713231D01*
X27205755Y68713228D01*
X27149315Y68615474D01*
X27120100Y68506439D01*
X13206645Y68506439D01*
X13961214Y69261008D01*
X14022536Y69294492D01*
X14092228Y69289508D01*
X14148161Y69247636D01*
X14167206Y69200878D01*
X14169197Y69201411D01*
X14200515Y69084527D01*
X14228735Y69035650D01*
X14256955Y68986772D01*
X14336772Y68906955D01*
X14434528Y68850515D01*
X14543561Y68821300D01*
X14543563Y68821300D01*
X14656437Y68821300D01*
X14656439Y68821300D01*
X14765472Y68850515D01*
X14863228Y68906955D01*
X14943045Y68986772D01*
X14999485Y69084528D01*
X15028700Y69193561D01*
X15028700Y69306439D01*
X14999485Y69415472D01*
X14946965Y69506439D01*
X22245100Y69506439D01*
X22245100Y69393562D01*
X22274315Y69284527D01*
X22287895Y69261007D01*
X22330755Y69186772D01*
X22410572Y69106955D01*
X22508328Y69050515D01*
X22617361Y69021300D01*
X22617363Y69021300D01*
X22730237Y69021300D01*
X22730239Y69021300D01*
X22839272Y69050515D01*
X22913000Y69093083D01*
X22980898Y69109556D01*
X23036998Y69093083D01*
X23076856Y69070071D01*
X23110725Y69050516D01*
X23110727Y69050516D01*
X23110728Y69050515D01*
X23219761Y69021300D01*
X23219763Y69021300D01*
X23332637Y69021300D01*
X23332639Y69021300D01*
X23441672Y69050515D01*
X23539428Y69106955D01*
X23619245Y69186772D01*
X23675685Y69284528D01*
X23704900Y69393561D01*
X23704900Y69506439D01*
X23675685Y69615472D01*
X23619245Y69713228D01*
X23539428Y69793045D01*
X23467398Y69834632D01*
X23441673Y69849485D01*
X23387155Y69864093D01*
X23332639Y69878700D01*
X23219761Y69878700D01*
X23110726Y69849485D01*
X23037001Y69806918D01*
X22969101Y69790445D01*
X22912999Y69806918D01*
X22839273Y69849485D01*
X22784755Y69864093D01*
X22730239Y69878700D01*
X22617361Y69878700D01*
X22508326Y69849485D01*
X22410572Y69793045D01*
X22410569Y69793043D01*
X22330757Y69713231D01*
X22330755Y69713228D01*
X22274315Y69615474D01*
X22245100Y69506439D01*
X14946965Y69506439D01*
X14943045Y69513228D01*
X14863228Y69593045D01*
X14805255Y69626516D01*
X14765473Y69649485D01*
X14717081Y69662451D01*
X14656439Y69678700D01*
X14656438Y69678700D01*
X14648589Y69680803D01*
X14649218Y69683151D01*
X14596584Y69706440D01*
X14558118Y69764768D01*
X14557292Y69834632D01*
X14588993Y69888787D01*
X14989437Y70289231D01*
X15532939Y70832734D01*
X15594260Y70866217D01*
X15652710Y70864827D01*
X15721852Y70846300D01*
X15721854Y70846300D01*
X15828146Y70846300D01*
X15828148Y70846300D01*
X15930823Y70873811D01*
X16022878Y70926959D01*
X16098041Y71002122D01*
X16151189Y71094177D01*
X16178700Y71196852D01*
X16178700Y71303148D01*
X16164421Y71356439D01*
X25446300Y71356439D01*
X25446300Y71243561D01*
X25451592Y71223811D01*
X25475515Y71134527D01*
X25476904Y71132122D01*
X25531955Y71036772D01*
X25611772Y70956955D01*
X25709528Y70900515D01*
X25818561Y70871300D01*
X25818563Y70871300D01*
X25931437Y70871300D01*
X25931439Y70871300D01*
X26040472Y70900515D01*
X26138228Y70956955D01*
X26218045Y71036772D01*
X26274485Y71134528D01*
X26303700Y71243561D01*
X26303700Y71356439D01*
X26274485Y71465472D01*
X26218045Y71563228D01*
X26138228Y71643045D01*
X26080823Y71676188D01*
X26040473Y71699485D01*
X25985955Y71714093D01*
X25931439Y71728700D01*
X25818561Y71728700D01*
X25709526Y71699485D01*
X25611772Y71643045D01*
X25611769Y71643043D01*
X25531957Y71563231D01*
X25531955Y71563228D01*
X25475515Y71465474D01*
X25446300Y71356439D01*
X16164421Y71356439D01*
X16151189Y71405823D01*
X16098041Y71497878D01*
X16022878Y71573041D01*
X15936279Y71623039D01*
X15930825Y71626188D01*
X15930824Y71626189D01*
X15930823Y71626189D01*
X15828148Y71653700D01*
X15721852Y71653700D01*
X15619176Y71626189D01*
X15608998Y71620312D01*
X15546999Y71603700D01*
X15403435Y71603700D01*
X15313476Y71579596D01*
X15232823Y71533030D01*
X15232820Y71533028D01*
X12241972Y68542180D01*
X12241970Y68542177D01*
X12195404Y68461524D01*
X12171300Y68371565D01*
X12171300Y66097869D01*
X12151615Y66030830D01*
X12134981Y66010188D01*
X7816972Y61692180D01*
X7816970Y61692177D01*
X7770404Y61611524D01*
X7746300Y61521565D01*
X7746300Y43181132D01*
X7726615Y43114093D01*
X7673811Y43068338D01*
X7604653Y43058394D01*
X7576334Y43065966D01*
X7568039Y43069277D01*
X7550015Y43079683D01*
X7525529Y43086244D01*
X7518734Y43088956D01*
X7496775Y43106188D01*
X7472946Y43120713D01*
X7469668Y43127460D01*
X7463768Y43132090D01*
X7454612Y43158456D01*
X7442417Y43183560D01*
X7441316Y43196742D01*
X7440847Y43198093D01*
X7441111Y43199190D01*
X7440700Y43204122D01*
X7440700Y48688269D01*
X7440700Y48688271D01*
X7420889Y48762206D01*
X7382618Y48828494D01*
X7328494Y48882618D01*
X7126018Y49085094D01*
X7111314Y49112022D01*
X7094722Y49137840D01*
X7093830Y49144041D01*
X7092533Y49146417D01*
X7089699Y49172775D01*
X7089699Y49316467D01*
X7090700Y49331729D01*
X7090700Y49963269D01*
X7090700Y49963271D01*
X7070889Y50037206D01*
X7032618Y50103494D01*
X6978494Y50157618D01*
X6607661Y50528451D01*
X6541373Y50566722D01*
X6541374Y50566722D01*
X6522889Y50571675D01*
X6467438Y50586533D01*
X6467435Y50586533D01*
X5943422Y50586533D01*
X5876383Y50606218D01*
X5830628Y50659022D01*
X5820684Y50728180D01*
X5823647Y50742624D01*
X5829427Y50764198D01*
X5829428Y50764204D01*
X5829428Y50870496D01*
X5829428Y50870498D01*
X5801917Y50973173D01*
X5748769Y51065228D01*
X5673606Y51140391D01*
X5583108Y51192640D01*
X5581553Y51193538D01*
X5581552Y51193539D01*
X5581551Y51193539D01*
X5478876Y51221050D01*
X5372580Y51221050D01*
X5269905Y51193539D01*
X5269903Y51193538D01*
X5269902Y51193538D01*
X5177853Y51140393D01*
X5177847Y51140389D01*
X5102689Y51065231D01*
X5102685Y51065225D01*
X5049540Y50973176D01*
X5049540Y50973175D01*
X5049539Y50973173D01*
X5027244Y50889965D01*
X5022028Y50870498D01*
X5022028Y50764198D01*
X5027809Y50742624D01*
X5026145Y50672774D01*
X4986982Y50614912D01*
X4922753Y50587410D01*
X4908034Y50586533D01*
X4275941Y50586533D01*
X4246500Y50595178D01*
X4216514Y50601701D01*
X4211498Y50605456D01*
X4208902Y50606218D01*
X4188260Y50622852D01*
X4115019Y50696093D01*
X4081534Y50757416D01*
X4080165Y50770142D01*
X4079761Y50770088D01*
X4078700Y50778141D01*
X4078700Y50778148D01*
X4051189Y50880823D01*
X3998041Y50972878D01*
X3922878Y51048041D01*
X3834729Y51098934D01*
X3830825Y51101188D01*
X3830824Y51101189D01*
X3830823Y51101189D01*
X3728148Y51128700D01*
X3621852Y51128700D01*
X3519177Y51101189D01*
X3519175Y51101188D01*
X3519174Y51101188D01*
X3427125Y51048043D01*
X3427119Y51048039D01*
X3351961Y50972881D01*
X3351957Y50972875D01*
X3298812Y50880826D01*
X3298812Y50880825D01*
X3298811Y50880823D01*
X3271300Y50778148D01*
X3271300Y50671852D01*
X3298811Y50569177D01*
X3351959Y50477122D01*
X3427122Y50401959D01*
X3498226Y50360908D01*
X3507437Y50355589D01*
X3555653Y50305022D01*
X3568876Y50236415D01*
X3542907Y50171550D01*
X3485993Y50131022D01*
X3477533Y50128428D01*
X3469177Y50126190D01*
X3469174Y50126188D01*
X3377125Y50073043D01*
X3377119Y50073039D01*
X3301961Y49997881D01*
X3301957Y49997875D01*
X3248812Y49905826D01*
X3248812Y49905825D01*
X3248811Y49905823D01*
X3221300Y49803148D01*
X3221300Y49696852D01*
X3248811Y49594177D01*
X3248812Y49594176D01*
X3248812Y49594175D01*
X3263446Y49568829D01*
X3301959Y49502122D01*
X3377122Y49426959D01*
X3421021Y49401614D01*
X3457437Y49380589D01*
X3505653Y49330022D01*
X3518876Y49261415D01*
X3492907Y49196550D01*
X3435993Y49156022D01*
X3427533Y49153428D01*
X3419177Y49151190D01*
X3419174Y49151188D01*
X3327125Y49098043D01*
X3327119Y49098039D01*
X3251961Y49022881D01*
X3251957Y49022875D01*
X3198812Y48930826D01*
X3198812Y48930825D01*
X3198811Y48930823D01*
X3171300Y48828148D01*
X3171300Y48721852D01*
X3198811Y48619177D01*
X3251959Y48527122D01*
X3327122Y48451959D01*
X3370678Y48426812D01*
X3425973Y48394887D01*
X3474189Y48344320D01*
X3487411Y48275713D01*
X3461443Y48210848D01*
X3425973Y48180113D01*
X3327125Y48123043D01*
X3327119Y48123039D01*
X3251961Y48047881D01*
X3251957Y48047875D01*
X3198812Y47955826D01*
X3198812Y47955825D01*
X3198811Y47955823D01*
X3171300Y47853148D01*
X3171300Y47746852D01*
X3198811Y47644177D01*
X3251959Y47552122D01*
X3327122Y47476959D01*
X3419177Y47423811D01*
X3468394Y47410624D01*
X3528053Y47374261D01*
X3558583Y47311414D01*
X3550289Y47242039D01*
X3505804Y47188160D01*
X3468393Y47171075D01*
X3394177Y47151189D01*
X3394176Y47151189D01*
X3394174Y47151188D01*
X3302125Y47098043D01*
X3302119Y47098039D01*
X3226961Y47022881D01*
X3226957Y47022875D01*
X3173812Y46930826D01*
X3173812Y46930825D01*
X3173811Y46930823D01*
X3146300Y46828148D01*
X3146300Y46721852D01*
X3173811Y46619177D01*
X3173812Y46619176D01*
X3173812Y46619175D01*
X3190252Y46590700D01*
X3226959Y46527122D01*
X3302122Y46451959D01*
X3394177Y46398811D01*
X3468394Y46378925D01*
X3528053Y46342561D01*
X3558583Y46279715D01*
X3550289Y46210339D01*
X3505804Y46156461D01*
X3468395Y46139377D01*
X3419177Y46126189D01*
X3419176Y46126189D01*
X3419174Y46126188D01*
X3327125Y46073043D01*
X3327119Y46073039D01*
X3251961Y45997881D01*
X3251957Y45997875D01*
X3198812Y45905826D01*
X3198812Y45905825D01*
X3198811Y45905823D01*
X3171300Y45803148D01*
X3171300Y45696852D01*
X3198811Y45594177D01*
X3251959Y45502122D01*
X3327122Y45426959D01*
X3419177Y45373811D01*
X3434243Y45369775D01*
X3493903Y45333410D01*
X3524432Y45270563D01*
X3516137Y45201188D01*
X3471652Y45147310D01*
X3434244Y45130227D01*
X3419177Y45126189D01*
X3419175Y45126188D01*
X3419174Y45126188D01*
X3327125Y45073043D01*
X3327119Y45073039D01*
X3251961Y44997881D01*
X3251957Y44997875D01*
X3198812Y44905826D01*
X3198812Y44905825D01*
X3198811Y44905823D01*
X3171300Y44803148D01*
X3171300Y44696852D01*
X3198811Y44594177D01*
X3251959Y44502122D01*
X3327122Y44426959D01*
X3395515Y44387473D01*
X3425973Y44369887D01*
X3474189Y44319320D01*
X3487411Y44250713D01*
X3461443Y44185848D01*
X3425973Y44155113D01*
X3327125Y44098043D01*
X3327119Y44098039D01*
X3251961Y44022881D01*
X3251957Y44022875D01*
X3198812Y43930826D01*
X3198812Y43930825D01*
X3198811Y43930823D01*
X3171300Y43828148D01*
X3171300Y43721852D01*
X3198811Y43619177D01*
X3251959Y43527122D01*
X3251961Y43527120D01*
X3253214Y43525867D01*
X3253932Y43524551D01*
X3256906Y43520676D01*
X3256301Y43520213D01*
X3286699Y43464544D01*
X3281715Y43394852D01*
X3239843Y43338919D01*
X3225823Y43330933D01*
X3226216Y43330253D01*
X3127125Y43273043D01*
X3127119Y43273039D01*
X3051961Y43197881D01*
X3051957Y43197875D01*
X2998812Y43105826D01*
X2998812Y43105825D01*
X2998811Y43105823D01*
X2971300Y43003148D01*
X2971300Y42896852D01*
X2998811Y42794177D01*
X3051959Y42702122D01*
X3127122Y42626959D01*
X3219177Y42573811D01*
X3321852Y42546300D01*
X3321854Y42546300D01*
X3428146Y42546300D01*
X3428148Y42546300D01*
X3530823Y42573811D01*
X3622878Y42626959D01*
X3698041Y42702122D01*
X3751189Y42794177D01*
X3778700Y42896852D01*
X3778700Y43003148D01*
X3751189Y43105823D01*
X3698041Y43197878D01*
X3696785Y43199134D01*
X3696065Y43200452D01*
X3693094Y43204324D01*
X3693697Y43204788D01*
X3663300Y43260457D01*
X3668284Y43330149D01*
X3710156Y43386082D01*
X3724179Y43394063D01*
X3723784Y43394747D01*
X3730823Y43398811D01*
X3822878Y43451959D01*
X3898041Y43527122D01*
X3951189Y43619177D01*
X3978700Y43721852D01*
X3978700Y43828148D01*
X3951189Y43930823D01*
X3898041Y44022878D01*
X3822878Y44098041D01*
X3730823Y44151189D01*
X3730822Y44151190D01*
X3724026Y44155113D01*
X3720693Y44158609D01*
X3716099Y44160098D01*
X3696817Y44183649D01*
X3675810Y44205680D01*
X3674895Y44210423D01*
X3671837Y44214159D01*
X3668348Y44244392D01*
X3662587Y44274287D01*
X3664382Y44278772D01*
X3663829Y44283568D01*
X3677238Y44310886D01*
X3688555Y44339152D01*
X3693076Y44343148D01*
X3694618Y44346289D01*
X3716458Y44363815D01*
X3721926Y44368647D01*
X3730201Y44373645D01*
X3730823Y44373811D01*
X3822878Y44426959D01*
X3829568Y44433650D01*
X3842481Y44441447D01*
X3862266Y44446662D01*
X3880223Y44456466D01*
X3906581Y44459300D01*
X3928226Y44459300D01*
X3995265Y44439615D01*
X4015907Y44422981D01*
X4297981Y44140907D01*
X4331466Y44079584D01*
X4334300Y44053226D01*
X4334300Y42121774D01*
X4314615Y42054735D01*
X4297981Y42034093D01*
X3317383Y41053496D01*
X3317381Y41053493D01*
X3279111Y40987207D01*
X3279111Y40987206D01*
X3259300Y40913271D01*
X3259300Y40913269D01*
X3259300Y11821775D01*
X3250655Y11792335D01*
X3244132Y11762348D01*
X3240377Y11757333D01*
X3239615Y11754736D01*
X3222981Y11734094D01*
X3090381Y11601494D01*
X3029058Y11568009D01*
X2959366Y11572993D01*
X2903433Y11614865D01*
X2879016Y11680329D01*
X2878700Y11689175D01*
X2878700Y11753146D01*
X2878700Y11753148D01*
X2851189Y11855823D01*
X2798041Y11947878D01*
X2722878Y12023041D01*
X2630823Y12076189D01*
X2528148Y12103700D01*
X2421852Y12103700D01*
X2319177Y12076189D01*
X2319175Y12076188D01*
X2319174Y12076188D01*
X2227125Y12023043D01*
X2227119Y12023039D01*
X2151961Y11947881D01*
X2151957Y11947875D01*
X2098812Y11855826D01*
X2098812Y11855825D01*
X2098811Y11855823D01*
X2071300Y11753148D01*
X2071300Y11646852D01*
X2098811Y11544177D01*
X2151959Y11452122D01*
X2227122Y11376959D01*
X2319177Y11323811D01*
X2421852Y11296300D01*
X2421854Y11296300D01*
X2485825Y11296300D01*
X2552864Y11276615D01*
X2598619Y11223811D01*
X2608563Y11154653D01*
X2579538Y11091097D01*
X2573506Y11084619D01*
X2454063Y10965176D01*
X1865907Y10377019D01*
X1804584Y10343534D01*
X1778226Y10340700D01*
X1381581Y10340700D01*
X1314542Y10360385D01*
X1304572Y10368419D01*
X1304324Y10368094D01*
X1297882Y10373037D01*
X1297878Y10373041D01*
X1205823Y10426189D01*
X1103148Y10453700D01*
X996852Y10453700D01*
X894177Y10426189D01*
X894175Y10426188D01*
X894174Y10426188D01*
X802125Y10373043D01*
X802119Y10373039D01*
X726961Y10297881D01*
X726959Y10297878D01*
X681887Y10219811D01*
X631320Y10171596D01*
X562712Y10158374D01*
X497848Y10184342D01*
X457320Y10241256D01*
X450500Y10281812D01*
X450500Y21703148D01*
X1996300Y21703148D01*
X1996300Y21596852D01*
X2023811Y21494177D01*
X2023812Y21494176D01*
X2023812Y21494175D01*
X2076958Y21402123D01*
X2078216Y21400484D01*
X2078846Y21398853D01*
X2081023Y21395083D01*
X2080435Y21394744D01*
X2103408Y21335314D01*
X2089368Y21266870D01*
X2078216Y21249516D01*
X2076958Y21247878D01*
X2023812Y21155826D01*
X2023812Y21155825D01*
X2023811Y21155823D01*
X1996300Y21053148D01*
X1996300Y20946852D01*
X2023811Y20844177D01*
X2023812Y20844176D01*
X2023812Y20844175D01*
X2076958Y20752123D01*
X2078216Y20750484D01*
X2078846Y20748853D01*
X2081023Y20745083D01*
X2080435Y20744744D01*
X2103408Y20685314D01*
X2089368Y20616870D01*
X2078216Y20599516D01*
X2076958Y20597878D01*
X2023812Y20505826D01*
X2023812Y20505825D01*
X2023811Y20505823D01*
X1996300Y20403148D01*
X1996300Y20296852D01*
X2023811Y20194177D01*
X2076959Y20102122D01*
X2152122Y20026959D01*
X2244177Y19973811D01*
X2346852Y19946300D01*
X2346854Y19946300D01*
X2453146Y19946300D01*
X2453148Y19946300D01*
X2555823Y19973811D01*
X2647878Y20026959D01*
X2723041Y20102122D01*
X2776189Y20194177D01*
X2803700Y20296852D01*
X2803700Y20403148D01*
X2776189Y20505823D01*
X2723041Y20597878D01*
X2723037Y20597882D01*
X2721789Y20599508D01*
X2721158Y20601139D01*
X2718977Y20604917D01*
X2719566Y20605258D01*
X2696592Y20664676D01*
X2710626Y20733122D01*
X2721789Y20750492D01*
X2723034Y20752116D01*
X2723041Y20752122D01*
X2776189Y20844177D01*
X2803700Y20946852D01*
X2803700Y21053148D01*
X2776189Y21155823D01*
X2723041Y21247878D01*
X2723037Y21247882D01*
X2721789Y21249508D01*
X2721158Y21251139D01*
X2718977Y21254917D01*
X2719566Y21255258D01*
X2696592Y21314676D01*
X2710626Y21383122D01*
X2721789Y21400492D01*
X2723034Y21402116D01*
X2723041Y21402122D01*
X2776189Y21494177D01*
X2803700Y21596852D01*
X2803700Y21703148D01*
X2776189Y21805823D01*
X2723041Y21897878D01*
X2647878Y21973041D01*
X2555823Y22026189D01*
X2453148Y22053700D01*
X2346852Y22053700D01*
X2244177Y22026189D01*
X2244175Y22026188D01*
X2244174Y22026188D01*
X2152125Y21973043D01*
X2152119Y21973039D01*
X2076961Y21897881D01*
X2076957Y21897875D01*
X2023812Y21805826D01*
X2023812Y21805825D01*
X2023811Y21805823D01*
X1996300Y21703148D01*
X450500Y21703148D01*
X450500Y54653148D01*
X4371300Y54653148D01*
X4371300Y54546852D01*
X4398811Y54444177D01*
X4451959Y54352122D01*
X4527122Y54276959D01*
X4619177Y54223811D01*
X4721852Y54196300D01*
X4721854Y54196300D01*
X4828146Y54196300D01*
X4828148Y54196300D01*
X4930823Y54223811D01*
X5022878Y54276959D01*
X5098041Y54352122D01*
X5151189Y54444177D01*
X5178700Y54546852D01*
X5178700Y54653148D01*
X5151189Y54755823D01*
X5098041Y54847878D01*
X5022878Y54923041D01*
X4934942Y54973811D01*
X4930825Y54976188D01*
X4930824Y54976189D01*
X4930823Y54976189D01*
X4828148Y55003700D01*
X4721852Y55003700D01*
X4619177Y54976189D01*
X4619175Y54976188D01*
X4619174Y54976188D01*
X4527125Y54923043D01*
X4527119Y54923039D01*
X4451961Y54847881D01*
X4451957Y54847875D01*
X4398812Y54755826D01*
X4398812Y54755825D01*
X4398811Y54755823D01*
X4371300Y54653148D01*
X450500Y54653148D01*
X450500Y55403148D01*
X871300Y55403148D01*
X871300Y55296852D01*
X898811Y55194177D01*
X951959Y55102122D01*
X1027122Y55026959D01*
X1119177Y54973811D01*
X1221852Y54946300D01*
X1221854Y54946300D01*
X1328146Y54946300D01*
X1328148Y54946300D01*
X1430823Y54973811D01*
X1522878Y55026959D01*
X1598041Y55102122D01*
X1651189Y55194177D01*
X1678700Y55296852D01*
X1678700Y55403148D01*
X1658604Y55478148D01*
X3071300Y55478148D01*
X3071300Y55371852D01*
X3098811Y55269177D01*
X3151959Y55177122D01*
X3227122Y55101959D01*
X3319177Y55048811D01*
X3421852Y55021300D01*
X3421854Y55021300D01*
X3528146Y55021300D01*
X3528148Y55021300D01*
X3630823Y55048811D01*
X3722878Y55101959D01*
X3798041Y55177122D01*
X3851189Y55269177D01*
X3878700Y55371852D01*
X3878700Y55478148D01*
X3851189Y55580823D01*
X3798041Y55672878D01*
X3722878Y55748041D01*
X3630823Y55801189D01*
X3552313Y55822226D01*
X3552311Y55822226D01*
X3528149Y55828700D01*
X3528148Y55828700D01*
X3421852Y55828700D01*
X3319177Y55801189D01*
X3319175Y55801188D01*
X3319174Y55801188D01*
X3227125Y55748043D01*
X3227119Y55748039D01*
X3151961Y55672881D01*
X3151957Y55672875D01*
X3098812Y55580826D01*
X3098812Y55580825D01*
X3098811Y55580823D01*
X3071300Y55478148D01*
X1658604Y55478148D01*
X1651189Y55505823D01*
X1598041Y55597878D01*
X1522878Y55673041D01*
X1460076Y55709300D01*
X1430825Y55726188D01*
X1430824Y55726189D01*
X1430823Y55726189D01*
X1328148Y55753700D01*
X1221852Y55753700D01*
X1209502Y55750392D01*
X1209501Y55750391D01*
X1170150Y55739847D01*
X1119177Y55726189D01*
X1119175Y55726188D01*
X1119174Y55726188D01*
X1027125Y55673043D01*
X1027119Y55673039D01*
X951961Y55597881D01*
X951957Y55597875D01*
X898812Y55505826D01*
X898812Y55505825D01*
X898811Y55505823D01*
X871300Y55403148D01*
X450500Y55403148D01*
X450500Y56453148D01*
X864833Y56453148D01*
X864833Y56346852D01*
X892344Y56244177D01*
X945492Y56152122D01*
X1020655Y56076959D01*
X1112710Y56023811D01*
X1215385Y55996300D01*
X1321681Y55996300D01*
X1424356Y56023811D01*
X1516411Y56076959D01*
X1591574Y56152122D01*
X1644722Y56244177D01*
X1672233Y56346852D01*
X1672233Y56453148D01*
X3446300Y56453148D01*
X3446300Y56346852D01*
X3473811Y56244177D01*
X3526959Y56152122D01*
X3602122Y56076959D01*
X3694177Y56023811D01*
X3796852Y55996300D01*
X3796855Y55996300D01*
X3903146Y55996300D01*
X3903148Y55996300D01*
X4005823Y56023811D01*
X4097878Y56076959D01*
X4173041Y56152122D01*
X4226189Y56244177D01*
X4253700Y56346852D01*
X4253700Y56453148D01*
X4226189Y56555823D01*
X4173041Y56647878D01*
X4097878Y56723041D01*
X4005823Y56776189D01*
X3903148Y56803700D01*
X3796852Y56803700D01*
X3694177Y56776189D01*
X3694175Y56776188D01*
X3694174Y56776188D01*
X3602125Y56723043D01*
X3602119Y56723039D01*
X3526961Y56647881D01*
X3526957Y56647875D01*
X3473812Y56555826D01*
X3473812Y56555825D01*
X3473811Y56555823D01*
X3446300Y56453148D01*
X1672233Y56453148D01*
X1644722Y56555823D01*
X1591574Y56647878D01*
X1516411Y56723041D01*
X1424356Y56776189D01*
X1321681Y56803700D01*
X1215385Y56803700D01*
X1112710Y56776189D01*
X1112708Y56776188D01*
X1112707Y56776188D01*
X1020658Y56723043D01*
X1020652Y56723039D01*
X945494Y56647881D01*
X945490Y56647875D01*
X892345Y56555826D01*
X892345Y56555825D01*
X892344Y56555823D01*
X864833Y56453148D01*
X450500Y56453148D01*
X450500Y58403148D01*
X4371300Y58403148D01*
X4371300Y58296852D01*
X4398811Y58194177D01*
X4451959Y58102122D01*
X4451961Y58102120D01*
X4528900Y58025181D01*
X4562385Y57963858D01*
X4557401Y57894166D01*
X4528900Y57849819D01*
X4476961Y57797881D01*
X4476957Y57797875D01*
X4423812Y57705826D01*
X4423812Y57705825D01*
X4423811Y57705823D01*
X4396300Y57603148D01*
X4396300Y57496852D01*
X4423811Y57394177D01*
X4476959Y57302122D01*
X4552122Y57226959D01*
X4644177Y57173811D01*
X4746852Y57146300D01*
X4746854Y57146300D01*
X4853146Y57146300D01*
X4853148Y57146300D01*
X4955823Y57173811D01*
X5047878Y57226959D01*
X5123041Y57302122D01*
X5176189Y57394177D01*
X5203700Y57496852D01*
X5203700Y57603148D01*
X5176189Y57705823D01*
X5123041Y57797878D01*
X5047878Y57873041D01*
X5046100Y57874819D01*
X5012615Y57936142D01*
X5017599Y58005834D01*
X5046100Y58050181D01*
X5048045Y58052126D01*
X5098041Y58102122D01*
X5151189Y58194177D01*
X5178700Y58296852D01*
X5178700Y58403148D01*
X5151189Y58505823D01*
X5098041Y58597878D01*
X5022878Y58673041D01*
X4930823Y58726189D01*
X4828148Y58753700D01*
X4721852Y58753700D01*
X4619177Y58726189D01*
X4619175Y58726188D01*
X4619174Y58726188D01*
X4527125Y58673043D01*
X4527119Y58673039D01*
X4451961Y58597881D01*
X4451957Y58597875D01*
X4398812Y58505826D01*
X4398812Y58505825D01*
X4398811Y58505823D01*
X4371300Y58403148D01*
X450500Y58403148D01*
X450500Y59822989D01*
X1194772Y59822989D01*
X1194772Y59716693D01*
X1222283Y59614018D01*
X1275431Y59521963D01*
X1350594Y59446800D01*
X1442649Y59393652D01*
X1545324Y59366141D01*
X1545326Y59366141D01*
X1651618Y59366141D01*
X1651620Y59366141D01*
X1754295Y59393652D01*
X1846350Y59446800D01*
X1921513Y59521963D01*
X1974661Y59614018D01*
X2002172Y59716693D01*
X2002172Y59822989D01*
X1974661Y59925664D01*
X1921513Y60017719D01*
X1846350Y60092882D01*
X1766717Y60138858D01*
X1754297Y60146029D01*
X1754296Y60146030D01*
X1754295Y60146030D01*
X1651620Y60173541D01*
X1545324Y60173541D01*
X1442649Y60146030D01*
X1442647Y60146029D01*
X1442646Y60146029D01*
X1350597Y60092884D01*
X1350591Y60092880D01*
X1275433Y60017722D01*
X1275429Y60017716D01*
X1222284Y59925667D01*
X1222284Y59925666D01*
X1222283Y59925664D01*
X1194772Y59822989D01*
X450500Y59822989D01*
X450500Y60428148D01*
X2421300Y60428148D01*
X2421300Y60321852D01*
X2448811Y60219177D01*
X2501959Y60127122D01*
X2577122Y60051959D01*
X2669177Y59998811D01*
X2771852Y59971300D01*
X2771854Y59971300D01*
X2878146Y59971300D01*
X2878148Y59971300D01*
X2980823Y59998811D01*
X3072878Y60051959D01*
X3148041Y60127122D01*
X3201189Y60219177D01*
X3228700Y60321852D01*
X3228700Y60428148D01*
X3201189Y60530823D01*
X3173866Y60578148D01*
X4321300Y60578148D01*
X4321300Y60471852D01*
X4348811Y60369177D01*
X4401959Y60277122D01*
X4401961Y60277120D01*
X4478900Y60200181D01*
X4512385Y60138858D01*
X4507401Y60069166D01*
X4478900Y60024819D01*
X4426961Y59972881D01*
X4426957Y59972875D01*
X4373812Y59880826D01*
X4373812Y59880825D01*
X4373811Y59880823D01*
X4346300Y59778148D01*
X4346300Y59671852D01*
X4373811Y59569177D01*
X4426959Y59477122D01*
X4502122Y59401959D01*
X4594177Y59348811D01*
X4696852Y59321300D01*
X4696854Y59321300D01*
X4803146Y59321300D01*
X4803148Y59321300D01*
X4905823Y59348811D01*
X4997878Y59401959D01*
X5073041Y59477122D01*
X5126189Y59569177D01*
X5153700Y59671852D01*
X5153700Y59778148D01*
X5126189Y59880823D01*
X5073041Y59972878D01*
X4997878Y60048041D01*
X4996100Y60049819D01*
X4962615Y60111142D01*
X4967599Y60180834D01*
X4996100Y60225181D01*
X5012219Y60241300D01*
X5048041Y60277122D01*
X5101189Y60369177D01*
X5128700Y60471852D01*
X5128700Y60578148D01*
X5101189Y60680823D01*
X5048041Y60772878D01*
X4972878Y60848041D01*
X4880823Y60901189D01*
X4778148Y60928700D01*
X4671852Y60928700D01*
X4569177Y60901189D01*
X4569175Y60901188D01*
X4569174Y60901188D01*
X4477125Y60848043D01*
X4477119Y60848039D01*
X4401961Y60772881D01*
X4401957Y60772875D01*
X4348812Y60680826D01*
X4348812Y60680825D01*
X4348811Y60680823D01*
X4321300Y60578148D01*
X3173866Y60578148D01*
X3148041Y60622878D01*
X3072878Y60698041D01*
X2980823Y60751189D01*
X2878148Y60778700D01*
X2771852Y60778700D01*
X2669177Y60751189D01*
X2669175Y60751188D01*
X2669174Y60751188D01*
X2577125Y60698043D01*
X2577119Y60698039D01*
X2501961Y60622881D01*
X2501957Y60622875D01*
X2448812Y60530826D01*
X2448812Y60530825D01*
X2448811Y60530823D01*
X2421300Y60428148D01*
X450500Y60428148D01*
X450500Y61978148D01*
X1446300Y61978148D01*
X1446300Y61871852D01*
X1473811Y61769177D01*
X1526959Y61677122D01*
X1602122Y61601959D01*
X1694177Y61548811D01*
X1796852Y61521300D01*
X1796854Y61521300D01*
X1903146Y61521300D01*
X1903148Y61521300D01*
X2005823Y61548811D01*
X2097878Y61601959D01*
X2173041Y61677122D01*
X2226189Y61769177D01*
X2253700Y61871852D01*
X2253700Y61978148D01*
X2226189Y62080823D01*
X2173041Y62172878D01*
X2097878Y62248041D01*
X2005823Y62301189D01*
X1903148Y62328700D01*
X1796852Y62328700D01*
X1694177Y62301189D01*
X1694175Y62301188D01*
X1694174Y62301188D01*
X1602125Y62248043D01*
X1602119Y62248039D01*
X1526961Y62172881D01*
X1526957Y62172875D01*
X1473812Y62080826D01*
X1473812Y62080825D01*
X1473811Y62080823D01*
X1446300Y61978148D01*
X450500Y61978148D01*
X450500Y63233479D01*
X3076631Y63233479D01*
X3076631Y63127183D01*
X3104142Y63024508D01*
X3157290Y62932453D01*
X3232453Y62857290D01*
X3324508Y62804142D01*
X3427183Y62776631D01*
X3427185Y62776631D01*
X3533477Y62776631D01*
X3533479Y62776631D01*
X3636154Y62804142D01*
X3728209Y62857290D01*
X3803372Y62932453D01*
X3856520Y63024508D01*
X3884031Y63127183D01*
X3884031Y63233479D01*
X3856520Y63336154D01*
X3803372Y63428209D01*
X3728209Y63503372D01*
X3636154Y63556520D01*
X3533479Y63584031D01*
X3427183Y63584031D01*
X3324508Y63556520D01*
X3324506Y63556519D01*
X3324505Y63556519D01*
X3232456Y63503374D01*
X3232450Y63503370D01*
X3157292Y63428212D01*
X3157288Y63428206D01*
X3104143Y63336157D01*
X3104143Y63336156D01*
X3104142Y63336154D01*
X3076631Y63233479D01*
X450500Y63233479D01*
X450500Y64753148D01*
X6071300Y64753148D01*
X6071300Y64646852D01*
X6098811Y64544177D01*
X6151959Y64452122D01*
X6227122Y64376959D01*
X6319177Y64323811D01*
X6421852Y64296300D01*
X6421854Y64296300D01*
X6528146Y64296300D01*
X6528148Y64296300D01*
X6630823Y64323811D01*
X6722878Y64376959D01*
X6798041Y64452122D01*
X6851189Y64544177D01*
X6878700Y64646852D01*
X6878700Y64753148D01*
X6851189Y64855823D01*
X6798041Y64947878D01*
X6722878Y65023041D01*
X6653267Y65063231D01*
X6630825Y65076188D01*
X6630824Y65076189D01*
X6630823Y65076189D01*
X6528148Y65103700D01*
X6421852Y65103700D01*
X6319177Y65076189D01*
X6319175Y65076188D01*
X6319174Y65076188D01*
X6227125Y65023043D01*
X6227119Y65023039D01*
X6151961Y64947881D01*
X6151957Y64947875D01*
X6098812Y64855826D01*
X6098812Y64855825D01*
X6098811Y64855823D01*
X6071300Y64753148D01*
X450500Y64753148D01*
X450500Y68153148D01*
X1596300Y68153148D01*
X1596300Y68046852D01*
X1623811Y67944177D01*
X1676959Y67852122D01*
X1752122Y67776959D01*
X1844177Y67723811D01*
X1859243Y67719775D01*
X1918903Y67683410D01*
X1949432Y67620563D01*
X1941137Y67551188D01*
X1896652Y67497310D01*
X1859244Y67480227D01*
X1844177Y67476189D01*
X1844175Y67476188D01*
X1844174Y67476188D01*
X1752125Y67423043D01*
X1752119Y67423039D01*
X1676961Y67347881D01*
X1676957Y67347875D01*
X1623812Y67255826D01*
X1623812Y67255825D01*
X1623811Y67255823D01*
X1596300Y67153148D01*
X1596300Y67046852D01*
X1623811Y66944177D01*
X1676959Y66852122D01*
X1752122Y66776959D01*
X1844177Y66723811D01*
X1946852Y66696300D01*
X1946854Y66696300D01*
X2053146Y66696300D01*
X2053148Y66696300D01*
X2155823Y66723811D01*
X2247878Y66776959D01*
X2323041Y66852122D01*
X2376189Y66944177D01*
X2380225Y66959244D01*
X2416589Y67018903D01*
X2479435Y67049433D01*
X2548811Y67041139D01*
X2602690Y66996654D01*
X2619773Y66959245D01*
X2623811Y66944177D01*
X2676959Y66852122D01*
X2752122Y66776959D01*
X2796757Y66751189D01*
X2844173Y66723813D01*
X2844177Y66723811D01*
X2875194Y66715500D01*
X2934852Y66679139D01*
X2965383Y66616293D01*
X2957090Y66546917D01*
X2950490Y66533732D01*
X2948813Y66530828D01*
X2948811Y66530825D01*
X2948811Y66530823D01*
X2921300Y66428148D01*
X2921300Y66321852D01*
X2948811Y66219177D01*
X3001959Y66127122D01*
X3077122Y66051959D01*
X3169177Y65998811D01*
X3271852Y65971300D01*
X3271854Y65971300D01*
X3378146Y65971300D01*
X3378148Y65971300D01*
X3480823Y65998811D01*
X3572878Y66051959D01*
X3648041Y66127122D01*
X3701189Y66219177D01*
X3723688Y66303148D01*
X9621300Y66303148D01*
X9621300Y66196852D01*
X9648811Y66094177D01*
X9648812Y66094176D01*
X9648812Y66094175D01*
X9674605Y66049500D01*
X9691078Y65981599D01*
X9674605Y65925500D01*
X9648812Y65880826D01*
X9648812Y65880825D01*
X9648811Y65880823D01*
X9621300Y65778148D01*
X9621300Y65671852D01*
X9648811Y65569177D01*
X9648812Y65569176D01*
X9648812Y65569175D01*
X9681822Y65512000D01*
X9698295Y65444100D01*
X9681822Y65388000D01*
X9648812Y65330826D01*
X9648812Y65330825D01*
X9648811Y65330823D01*
X9621300Y65228148D01*
X9621300Y65121852D01*
X9648811Y65019177D01*
X9648812Y65019176D01*
X9648812Y65019175D01*
X9655863Y65006962D01*
X9701959Y64927122D01*
X9777122Y64851959D01*
X9869177Y64798811D01*
X9971852Y64771300D01*
X9971854Y64771300D01*
X10078146Y64771300D01*
X10078148Y64771300D01*
X10180823Y64798811D01*
X10272878Y64851959D01*
X10348041Y64927122D01*
X10401189Y65019177D01*
X10428700Y65121852D01*
X10428700Y65228148D01*
X10401189Y65330823D01*
X10368175Y65388004D01*
X10351704Y65455899D01*
X10368175Y65511997D01*
X10401189Y65569177D01*
X10428700Y65671852D01*
X10428700Y65778148D01*
X10401189Y65880823D01*
X10375394Y65925500D01*
X10358921Y65993399D01*
X10375395Y66049501D01*
X10376816Y66051962D01*
X10401189Y66094177D01*
X10428700Y66196852D01*
X10428700Y66303148D01*
X10401189Y66405823D01*
X10348041Y66497878D01*
X10272878Y66573041D01*
X10211508Y66608473D01*
X10180825Y66626188D01*
X10180824Y66626189D01*
X10180823Y66626189D01*
X10078148Y66653700D01*
X9971852Y66653700D01*
X9869177Y66626189D01*
X9869175Y66626188D01*
X9869174Y66626188D01*
X9777125Y66573043D01*
X9777119Y66573039D01*
X9701961Y66497881D01*
X9701957Y66497875D01*
X9648812Y66405826D01*
X9648812Y66405825D01*
X9648811Y66405823D01*
X9621300Y66303148D01*
X3723688Y66303148D01*
X3728700Y66321852D01*
X3728700Y66428148D01*
X3701189Y66530823D01*
X3692448Y66545962D01*
X3675975Y66613860D01*
X3698826Y66679887D01*
X3753747Y66723079D01*
X3823300Y66729722D01*
X3836301Y66725821D01*
X3836327Y66725915D01*
X3844174Y66723813D01*
X3844177Y66723811D01*
X3946852Y66696300D01*
X3946854Y66696300D01*
X4053146Y66696300D01*
X4053148Y66696300D01*
X4155823Y66723811D01*
X4247878Y66776959D01*
X4323041Y66852122D01*
X4376189Y66944177D01*
X4403700Y67046852D01*
X4403700Y67153148D01*
X4376189Y67255823D01*
X4323041Y67347878D01*
X4247878Y67423041D01*
X4155823Y67476189D01*
X4140756Y67480226D01*
X4081097Y67516589D01*
X4050567Y67579435D01*
X4058861Y67648811D01*
X4083083Y67678148D01*
X8071300Y67678148D01*
X8071300Y67571852D01*
X8098811Y67469177D01*
X8151959Y67377122D01*
X8227122Y67301959D01*
X8319177Y67248811D01*
X8421852Y67221300D01*
X8421854Y67221300D01*
X8528146Y67221300D01*
X8528148Y67221300D01*
X8630823Y67248811D01*
X8722878Y67301959D01*
X8798041Y67377122D01*
X8851189Y67469177D01*
X8878700Y67571852D01*
X8878700Y67678148D01*
X8851189Y67780823D01*
X8798041Y67872878D01*
X8722878Y67948041D01*
X8651893Y67989024D01*
X10982176Y67989024D01*
X10982176Y67882728D01*
X11009687Y67780053D01*
X11009688Y67780052D01*
X11009688Y67780051D01*
X11011473Y67776959D01*
X11062835Y67687998D01*
X11137998Y67612835D01*
X11230053Y67559687D01*
X11332728Y67532176D01*
X11332730Y67532176D01*
X11439022Y67532176D01*
X11439024Y67532176D01*
X11541699Y67559687D01*
X11633754Y67612835D01*
X11708917Y67687998D01*
X11762065Y67780053D01*
X11789576Y67882728D01*
X11789576Y67989024D01*
X11762065Y68091699D01*
X11708917Y68183754D01*
X11633754Y68258917D01*
X11541699Y68312065D01*
X11439024Y68339576D01*
X11332728Y68339576D01*
X11230053Y68312065D01*
X11230051Y68312064D01*
X11230050Y68312064D01*
X11138001Y68258919D01*
X11137995Y68258915D01*
X11062837Y68183757D01*
X11062833Y68183751D01*
X11009688Y68091702D01*
X11009688Y68091701D01*
X11009687Y68091699D01*
X10982176Y67989024D01*
X8651893Y67989024D01*
X8630823Y68001189D01*
X8528148Y68028700D01*
X8421852Y68028700D01*
X8319177Y68001189D01*
X8319175Y68001188D01*
X8319174Y68001188D01*
X8227125Y67948043D01*
X8227119Y67948039D01*
X8151961Y67872881D01*
X8151957Y67872875D01*
X8098812Y67780826D01*
X8098812Y67780825D01*
X8098811Y67780823D01*
X8071300Y67678148D01*
X4083083Y67678148D01*
X4103346Y67702690D01*
X4113914Y67709099D01*
X4126705Y67716010D01*
X4155823Y67723811D01*
X4247878Y67776959D01*
X4323041Y67852122D01*
X4376189Y67944177D01*
X4403700Y68046852D01*
X4403700Y68153148D01*
X4376189Y68255823D01*
X4323041Y68347878D01*
X4247878Y68423041D01*
X4155823Y68476189D01*
X4053148Y68503700D01*
X3946852Y68503700D01*
X3844177Y68476189D01*
X3844175Y68476188D01*
X3844174Y68476188D01*
X3752125Y68423043D01*
X3752119Y68423039D01*
X3676961Y68347881D01*
X3676957Y68347875D01*
X3623812Y68255826D01*
X3623812Y68255825D01*
X3623811Y68255823D01*
X3619774Y68240757D01*
X3583410Y68181097D01*
X3520563Y68150568D01*
X3451188Y68158863D01*
X3397310Y68203348D01*
X3380226Y68240756D01*
X3376189Y68255823D01*
X3323041Y68347878D01*
X3247878Y68423041D01*
X3155823Y68476189D01*
X3053148Y68503700D01*
X2946852Y68503700D01*
X2844177Y68476189D01*
X2844175Y68476188D01*
X2844174Y68476188D01*
X2752125Y68423043D01*
X2752119Y68423039D01*
X2676961Y68347881D01*
X2676957Y68347875D01*
X2623812Y68255826D01*
X2623812Y68255825D01*
X2623811Y68255823D01*
X2619774Y68240757D01*
X2583410Y68181097D01*
X2520563Y68150568D01*
X2451188Y68158863D01*
X2397310Y68203348D01*
X2380226Y68240756D01*
X2376189Y68255823D01*
X2323041Y68347878D01*
X2247878Y68423041D01*
X2155823Y68476189D01*
X2053148Y68503700D01*
X1946852Y68503700D01*
X1844177Y68476189D01*
X1844175Y68476188D01*
X1844174Y68476188D01*
X1752125Y68423043D01*
X1752119Y68423039D01*
X1676961Y68347881D01*
X1676957Y68347875D01*
X1623812Y68255826D01*
X1623812Y68255825D01*
X1623811Y68255823D01*
X1596300Y68153148D01*
X450500Y68153148D01*
X450500Y70082439D01*
X10797300Y70082439D01*
X10797300Y69969562D01*
X10826515Y69860527D01*
X10841466Y69834632D01*
X10882955Y69762772D01*
X10962772Y69682955D01*
X11060528Y69626515D01*
X11169561Y69597300D01*
X11169563Y69597300D01*
X11282437Y69597300D01*
X11282439Y69597300D01*
X11391472Y69626515D01*
X11489228Y69682955D01*
X11569045Y69762772D01*
X11625485Y69860528D01*
X11654700Y69969561D01*
X11654700Y70082439D01*
X11625485Y70191472D01*
X11569045Y70289228D01*
X11489228Y70369045D01*
X11440350Y70397265D01*
X11391473Y70425485D01*
X11336955Y70440093D01*
X11282439Y70454700D01*
X11169561Y70454700D01*
X11060526Y70425485D01*
X10962772Y70369045D01*
X10962769Y70369043D01*
X10882957Y70289231D01*
X10882955Y70289228D01*
X10826515Y70191474D01*
X10797300Y70082439D01*
X450500Y70082439D01*
X450500Y74653148D01*
X1096300Y74653148D01*
X1096300Y74546852D01*
X1123811Y74444177D01*
X1123812Y74444176D01*
X1123812Y74444175D01*
X1135713Y74423562D01*
X1176959Y74352122D01*
X1252122Y74276959D01*
X1344177Y74223811D01*
X1359243Y74219775D01*
X1418903Y74183410D01*
X1449432Y74120563D01*
X1441137Y74051188D01*
X1396652Y73997310D01*
X1359244Y73980227D01*
X1344177Y73976189D01*
X1344175Y73976188D01*
X1344174Y73976188D01*
X1252125Y73923043D01*
X1252119Y73923039D01*
X1176961Y73847881D01*
X1176957Y73847875D01*
X1123812Y73755826D01*
X1123812Y73755825D01*
X1123811Y73755823D01*
X1096300Y73653148D01*
X1096300Y73546852D01*
X1123811Y73444177D01*
X1176959Y73352122D01*
X1252122Y73276959D01*
X1344177Y73223811D01*
X1359243Y73219775D01*
X1418903Y73183410D01*
X1449432Y73120563D01*
X1441137Y73051188D01*
X1396652Y72997310D01*
X1359244Y72980227D01*
X1344177Y72976189D01*
X1344175Y72976188D01*
X1344174Y72976188D01*
X1252125Y72923043D01*
X1252119Y72923039D01*
X1176961Y72847881D01*
X1176957Y72847875D01*
X1123812Y72755826D01*
X1123812Y72755825D01*
X1123811Y72755823D01*
X1096300Y72653148D01*
X1096300Y72546852D01*
X1123811Y72444177D01*
X1176959Y72352122D01*
X1252122Y72276959D01*
X1344177Y72223811D01*
X1359243Y72219775D01*
X1418903Y72183410D01*
X1449432Y72120563D01*
X1441137Y72051188D01*
X1396652Y71997310D01*
X1359244Y71980227D01*
X1344177Y71976189D01*
X1344175Y71976188D01*
X1344174Y71976188D01*
X1252125Y71923043D01*
X1252119Y71923039D01*
X1176961Y71847881D01*
X1176957Y71847875D01*
X1123812Y71755826D01*
X1123812Y71755825D01*
X1123811Y71755823D01*
X1096300Y71653148D01*
X1096300Y71546852D01*
X1123811Y71444177D01*
X1123812Y71444176D01*
X1123812Y71444175D01*
X1134658Y71425389D01*
X1176959Y71352122D01*
X1252122Y71276959D01*
X1344177Y71223811D01*
X1446852Y71196300D01*
X1446854Y71196300D01*
X1553146Y71196300D01*
X1553148Y71196300D01*
X1655823Y71223811D01*
X1747878Y71276959D01*
X1823041Y71352122D01*
X1876189Y71444177D01*
X1880225Y71459244D01*
X1916589Y71518903D01*
X1979435Y71549433D01*
X2048811Y71541139D01*
X2102690Y71496654D01*
X2119773Y71459245D01*
X2120690Y71455826D01*
X2123811Y71444177D01*
X2123812Y71444175D01*
X2134658Y71425389D01*
X2176959Y71352122D01*
X2252122Y71276959D01*
X2344177Y71223811D01*
X2446852Y71196300D01*
X2446854Y71196300D01*
X2553146Y71196300D01*
X2553148Y71196300D01*
X2655823Y71223811D01*
X2747878Y71276959D01*
X2823041Y71352122D01*
X2876189Y71444177D01*
X2880225Y71459244D01*
X2916589Y71518903D01*
X2979435Y71549433D01*
X3048811Y71541139D01*
X3102690Y71496654D01*
X3119773Y71459245D01*
X3120690Y71455826D01*
X3123811Y71444177D01*
X3123812Y71444175D01*
X3134658Y71425389D01*
X3176959Y71352122D01*
X3252122Y71276959D01*
X3344177Y71223811D01*
X3446852Y71196300D01*
X3446854Y71196300D01*
X3553146Y71196300D01*
X3553148Y71196300D01*
X3655823Y71223811D01*
X3747878Y71276959D01*
X3823041Y71352122D01*
X3876189Y71444177D01*
X3880225Y71459244D01*
X3916589Y71518903D01*
X3979435Y71549433D01*
X4048811Y71541139D01*
X4102690Y71496654D01*
X4119773Y71459245D01*
X4120690Y71455826D01*
X4123811Y71444177D01*
X4123812Y71444175D01*
X4134658Y71425389D01*
X4176959Y71352122D01*
X4252122Y71276959D01*
X4344177Y71223811D01*
X4446852Y71196300D01*
X4446854Y71196300D01*
X4553146Y71196300D01*
X4553148Y71196300D01*
X4655823Y71223811D01*
X4747878Y71276959D01*
X4823041Y71352122D01*
X4823633Y71353148D01*
X11646300Y71353148D01*
X11646300Y71246852D01*
X11673811Y71144177D01*
X11726959Y71052122D01*
X11802122Y70976959D01*
X11894177Y70923811D01*
X11996852Y70896300D01*
X11996854Y70896300D01*
X12103146Y70896300D01*
X12103148Y70896300D01*
X12205823Y70923811D01*
X12297878Y70976959D01*
X12373041Y71052122D01*
X12420707Y71134683D01*
X12471274Y71182898D01*
X12539881Y71196121D01*
X12604746Y71170153D01*
X12635480Y71134683D01*
X12636959Y71132122D01*
X12712122Y71056959D01*
X12804177Y71003811D01*
X12906852Y70976300D01*
X12906854Y70976300D01*
X13013146Y70976300D01*
X13013148Y70976300D01*
X13115823Y71003811D01*
X13207878Y71056959D01*
X13283041Y71132122D01*
X13286532Y71138170D01*
X13337094Y71186386D01*
X13405700Y71199613D01*
X13470567Y71173649D01*
X13511099Y71116738D01*
X13513695Y71108269D01*
X13517472Y71094175D01*
X13518811Y71089177D01*
X13571959Y70997122D01*
X13647122Y70921959D01*
X13739177Y70868811D01*
X13841852Y70841300D01*
X13841854Y70841300D01*
X13948146Y70841300D01*
X13948148Y70841300D01*
X14050823Y70868811D01*
X14142878Y70921959D01*
X14218041Y70997122D01*
X14271189Y71089177D01*
X14298700Y71191852D01*
X14298700Y71298148D01*
X14271189Y71400823D01*
X14218041Y71492878D01*
X14142878Y71568041D01*
X14050823Y71621189D01*
X13948148Y71648700D01*
X13841852Y71648700D01*
X13739177Y71621189D01*
X13739175Y71621188D01*
X13739174Y71621188D01*
X13647125Y71568043D01*
X13647119Y71568039D01*
X13571961Y71492881D01*
X13571955Y71492872D01*
X13568463Y71486824D01*
X13517895Y71438610D01*
X13449288Y71425389D01*
X13384424Y71451359D01*
X13343897Y71508274D01*
X13341303Y71516735D01*
X13336189Y71535823D01*
X13283041Y71627878D01*
X13207878Y71703041D01*
X13116457Y71755823D01*
X13115825Y71756188D01*
X13115824Y71756189D01*
X13115823Y71756189D01*
X13013148Y71783700D01*
X12906852Y71783700D01*
X12804177Y71756189D01*
X12804175Y71756188D01*
X12804174Y71756188D01*
X12712125Y71703043D01*
X12712119Y71703039D01*
X12636961Y71627881D01*
X12636954Y71627872D01*
X12589291Y71545318D01*
X12538724Y71497103D01*
X12470116Y71483881D01*
X12405252Y71509849D01*
X12374518Y71545320D01*
X12373041Y71547878D01*
X12297878Y71623041D01*
X12205823Y71676189D01*
X12103148Y71703700D01*
X11996852Y71703700D01*
X11894177Y71676189D01*
X11894175Y71676188D01*
X11894174Y71676188D01*
X11802125Y71623043D01*
X11802119Y71623039D01*
X11726961Y71547881D01*
X11726957Y71547875D01*
X11673812Y71455826D01*
X11673812Y71455825D01*
X11673811Y71455823D01*
X11646300Y71353148D01*
X4823633Y71353148D01*
X4876189Y71444177D01*
X4903700Y71546852D01*
X4903700Y71653148D01*
X4876189Y71755823D01*
X4823041Y71847878D01*
X4747878Y71923041D01*
X4655823Y71976189D01*
X4553148Y72003700D01*
X4446852Y72003700D01*
X4344177Y71976189D01*
X4344175Y71976188D01*
X4344174Y71976188D01*
X4252125Y71923043D01*
X4252119Y71923039D01*
X4176961Y71847881D01*
X4176957Y71847875D01*
X4123812Y71755826D01*
X4123812Y71755825D01*
X4123811Y71755823D01*
X4119774Y71740757D01*
X4083410Y71681097D01*
X4020563Y71650568D01*
X3951188Y71658863D01*
X3897310Y71703348D01*
X3880226Y71740756D01*
X3876189Y71755823D01*
X3823041Y71847878D01*
X3747878Y71923041D01*
X3655823Y71976189D01*
X3553148Y72003700D01*
X3446852Y72003700D01*
X3344177Y71976189D01*
X3344175Y71976188D01*
X3344174Y71976188D01*
X3252125Y71923043D01*
X3252119Y71923039D01*
X3176961Y71847881D01*
X3176957Y71847875D01*
X3123812Y71755826D01*
X3123812Y71755825D01*
X3123811Y71755823D01*
X3119774Y71740757D01*
X3083410Y71681097D01*
X3020563Y71650568D01*
X2951188Y71658863D01*
X2897310Y71703348D01*
X2880226Y71740756D01*
X2876189Y71755823D01*
X2823041Y71847878D01*
X2747878Y71923041D01*
X2655823Y71976189D01*
X2553148Y72003700D01*
X2446852Y72003700D01*
X2344177Y71976189D01*
X2344175Y71976188D01*
X2344174Y71976188D01*
X2252125Y71923043D01*
X2252119Y71923039D01*
X2176961Y71847881D01*
X2176957Y71847875D01*
X2123812Y71755826D01*
X2123812Y71755825D01*
X2123811Y71755823D01*
X2119774Y71740757D01*
X2083410Y71681097D01*
X2020563Y71650568D01*
X1951188Y71658863D01*
X1897310Y71703348D01*
X1880226Y71740756D01*
X1876189Y71755823D01*
X1823041Y71847878D01*
X1747878Y71923041D01*
X1655823Y71976189D01*
X1640756Y71980226D01*
X1581097Y72016589D01*
X1550567Y72079435D01*
X1558861Y72148811D01*
X1603346Y72202690D01*
X1640755Y72219774D01*
X1655823Y72223811D01*
X1747878Y72276959D01*
X1823041Y72352122D01*
X1876189Y72444177D01*
X1903700Y72546852D01*
X1903700Y72653148D01*
X1876189Y72755823D01*
X1823041Y72847878D01*
X1747878Y72923041D01*
X1655823Y72976189D01*
X1640756Y72980226D01*
X1581097Y73016589D01*
X1550567Y73079435D01*
X1558861Y73148811D01*
X1603346Y73202690D01*
X1640755Y73219774D01*
X1655823Y73223811D01*
X1747878Y73276959D01*
X1823041Y73352122D01*
X1876189Y73444177D01*
X1880225Y73459244D01*
X1916589Y73518903D01*
X1979435Y73549433D01*
X2048811Y73541139D01*
X2102690Y73496654D01*
X2119773Y73459245D01*
X2123811Y73444177D01*
X2176959Y73352122D01*
X2252122Y73276959D01*
X2344177Y73223811D01*
X2446852Y73196300D01*
X2446854Y73196300D01*
X2553146Y73196300D01*
X2553148Y73196300D01*
X2655823Y73223811D01*
X2747878Y73276959D01*
X2823041Y73352122D01*
X2876189Y73444177D01*
X2880225Y73459244D01*
X2916589Y73518903D01*
X2979435Y73549433D01*
X3048811Y73541139D01*
X3102690Y73496654D01*
X3119773Y73459245D01*
X3123811Y73444177D01*
X3176959Y73352122D01*
X3252122Y73276959D01*
X3344177Y73223811D01*
X3446852Y73196300D01*
X3446854Y73196300D01*
X3553146Y73196300D01*
X3553148Y73196300D01*
X3655823Y73223811D01*
X3747878Y73276959D01*
X3823041Y73352122D01*
X3876189Y73444177D01*
X3876941Y73446985D01*
X3878221Y73449086D01*
X3879297Y73451682D01*
X3879701Y73451515D01*
X3913297Y73506643D01*
X3976141Y73537178D01*
X4045517Y73528890D01*
X4099400Y73484410D01*
X4116490Y73446994D01*
X4121035Y73430032D01*
X4174183Y73337977D01*
X4249346Y73262814D01*
X4341401Y73209666D01*
X4444076Y73182155D01*
X4444078Y73182155D01*
X4550370Y73182155D01*
X4550372Y73182155D01*
X4653047Y73209666D01*
X4745102Y73262814D01*
X4820265Y73337977D01*
X4873413Y73430032D01*
X4900584Y73531439D01*
X20621300Y73531439D01*
X20621300Y73418561D01*
X20627999Y73393561D01*
X20650515Y73309527D01*
X20664949Y73284528D01*
X20706955Y73211772D01*
X20786772Y73131955D01*
X20884528Y73075515D01*
X20993561Y73046300D01*
X20993563Y73046300D01*
X21106437Y73046300D01*
X21106439Y73046300D01*
X21215472Y73075515D01*
X21313228Y73131955D01*
X21393045Y73211772D01*
X21449485Y73309528D01*
X21478700Y73418561D01*
X21478700Y73531439D01*
X21449485Y73640472D01*
X21393045Y73738228D01*
X21313228Y73818045D01*
X21235543Y73862897D01*
X21187329Y73913464D01*
X21174107Y73982071D01*
X21200075Y74046935D01*
X21235544Y74077670D01*
X21240472Y74080515D01*
X21338228Y74136955D01*
X21418045Y74216772D01*
X21474485Y74314528D01*
X21503700Y74423561D01*
X21503700Y74536439D01*
X25446300Y74536439D01*
X25446300Y74423562D01*
X25475515Y74314527D01*
X25497204Y74276962D01*
X25531955Y74216772D01*
X25611772Y74136955D01*
X25709528Y74080515D01*
X25709530Y74080514D01*
X25711828Y74079562D01*
X25713469Y74078240D01*
X25716567Y74076451D01*
X25716288Y74075968D01*
X25766233Y74035722D01*
X25788299Y73969429D01*
X25771021Y73901729D01*
X25719885Y73854117D01*
X25711828Y73850438D01*
X25709530Y73849487D01*
X25611772Y73793045D01*
X25611769Y73793043D01*
X25531957Y73713231D01*
X25531955Y73713228D01*
X25475515Y73615474D01*
X25446300Y73506439D01*
X25446300Y73393562D01*
X25475515Y73284527D01*
X25488052Y73262813D01*
X25531955Y73186772D01*
X25611772Y73106955D01*
X25709528Y73050515D01*
X25818561Y73021300D01*
X25818563Y73021300D01*
X25931437Y73021300D01*
X25931439Y73021300D01*
X26040472Y73050515D01*
X26138228Y73106955D01*
X26218045Y73186772D01*
X26274485Y73284528D01*
X26303700Y73393561D01*
X26303700Y73506439D01*
X26274485Y73615472D01*
X26218045Y73713228D01*
X26138228Y73793045D01*
X26089350Y73821265D01*
X26040473Y73849485D01*
X26038175Y73850436D01*
X26036532Y73851760D01*
X26033433Y73853549D01*
X26033711Y73854033D01*
X25983769Y73894274D01*
X25961700Y73960567D01*
X25978976Y74028267D01*
X26030110Y74075881D01*
X26038175Y74079564D01*
X26040467Y74080514D01*
X26040472Y74080515D01*
X26138228Y74136955D01*
X26218045Y74216772D01*
X26274485Y74314528D01*
X26303700Y74423561D01*
X26303700Y74536439D01*
X26274485Y74645472D01*
X26218045Y74743228D01*
X26138228Y74823045D01*
X26089350Y74851265D01*
X26040473Y74879485D01*
X25985955Y74894093D01*
X25931439Y74908700D01*
X25818561Y74908700D01*
X25709526Y74879485D01*
X25611772Y74823045D01*
X25611769Y74823043D01*
X25531957Y74743231D01*
X25531955Y74743228D01*
X25475515Y74645474D01*
X25446300Y74536439D01*
X21503700Y74536439D01*
X21474485Y74645472D01*
X21418045Y74743228D01*
X21338228Y74823045D01*
X21289350Y74851265D01*
X21240473Y74879485D01*
X21185955Y74894093D01*
X21131439Y74908700D01*
X21018561Y74908700D01*
X20909526Y74879485D01*
X20811772Y74823045D01*
X20811769Y74823043D01*
X20731957Y74743231D01*
X20731955Y74743228D01*
X20675515Y74645474D01*
X20646300Y74536439D01*
X20646300Y74423562D01*
X20675515Y74314527D01*
X20697204Y74276962D01*
X20731955Y74216772D01*
X20811772Y74136955D01*
X20889454Y74092105D01*
X20937670Y74041538D01*
X20950892Y73972931D01*
X20924924Y73908066D01*
X20889456Y73877332D01*
X20786775Y73818047D01*
X20786769Y73818043D01*
X20706957Y73738231D01*
X20706955Y73738228D01*
X20650515Y73640474D01*
X20643816Y73615472D01*
X20621300Y73531439D01*
X4900584Y73531439D01*
X4900924Y73532707D01*
X4900924Y73639003D01*
X4873413Y73741678D01*
X4820265Y73833733D01*
X4745102Y73908896D01*
X4653049Y73962043D01*
X4653050Y73962043D01*
X4653047Y73962044D01*
X4612971Y73972782D01*
X4553313Y74009146D01*
X4522784Y74071993D01*
X4531079Y74141369D01*
X4575564Y74195247D01*
X4612970Y74212330D01*
X4655823Y74223811D01*
X4747878Y74276959D01*
X4823041Y74352122D01*
X4876189Y74444177D01*
X4903700Y74546852D01*
X4903700Y74653148D01*
X4876189Y74755823D01*
X4823041Y74847878D01*
X4747878Y74923041D01*
X4747875Y74923043D01*
X4741429Y74927989D01*
X4742723Y74929677D01*
X4702273Y74972097D01*
X4689047Y75040704D01*
X4715012Y75105570D01*
X4771925Y75146100D01*
X4780373Y75148691D01*
X4780823Y75148811D01*
X4872878Y75201959D01*
X4948041Y75277122D01*
X5001189Y75369177D01*
X5028700Y75471852D01*
X5028700Y75578148D01*
X5001189Y75680823D01*
X4967420Y75739313D01*
X18451300Y75739313D01*
X18451300Y74500688D01*
X18478341Y74364746D01*
X18478344Y74364734D01*
X18531386Y74236677D01*
X18608401Y74121415D01*
X18706414Y74023402D01*
X18821676Y73946387D01*
X18929492Y73901729D01*
X18949738Y73893343D01*
X19085687Y73866301D01*
X19085690Y73866300D01*
X19085692Y73866300D01*
X19224310Y73866300D01*
X19224311Y73866301D01*
X19360262Y73893343D01*
X19431960Y73923041D01*
X19488323Y73946387D01*
X19488324Y73946388D01*
X19488327Y73946389D01*
X19603583Y74023400D01*
X19701600Y74121417D01*
X19778611Y74236673D01*
X19831657Y74364738D01*
X19858700Y74500692D01*
X19858700Y75682601D01*
X20109500Y75682601D01*
X20109500Y75557399D01*
X20141905Y75436464D01*
X20204505Y75328036D01*
X20293036Y75239505D01*
X20401464Y75176905D01*
X20522399Y75144500D01*
X20522401Y75144500D01*
X20647599Y75144500D01*
X20647601Y75144500D01*
X20768536Y75176905D01*
X20876964Y75239505D01*
X20965495Y75328036D01*
X21028095Y75436464D01*
X21060500Y75557399D01*
X21060500Y75682601D01*
X21031337Y75791437D01*
X21033000Y75861283D01*
X21072162Y75919146D01*
X21136390Y75946651D01*
X21167307Y75946466D01*
X21168555Y75946302D01*
X21168561Y75946300D01*
X21168567Y75946300D01*
X21281437Y75946300D01*
X21281439Y75946300D01*
X21390472Y75975515D01*
X21488228Y76031955D01*
X21568045Y76111772D01*
X21624485Y76209528D01*
X21653700Y76318561D01*
X21653700Y76431439D01*
X25296300Y76431439D01*
X25296300Y76318561D01*
X25302985Y76293611D01*
X25325515Y76209527D01*
X25346648Y76172925D01*
X25381955Y76111772D01*
X25461772Y76031955D01*
X25559528Y75975515D01*
X25668561Y75946300D01*
X25668563Y75946300D01*
X25781431Y75946300D01*
X25781439Y75946300D01*
X25781446Y75946303D01*
X25782691Y75946466D01*
X25783756Y75946300D01*
X25789566Y75946300D01*
X25789566Y75945395D01*
X25851727Y75935706D01*
X25903987Y75889331D01*
X25922878Y75822064D01*
X25918662Y75791435D01*
X25889500Y75682602D01*
X25889500Y75682601D01*
X25889500Y75557399D01*
X25921905Y75436464D01*
X25984505Y75328036D01*
X26073036Y75239505D01*
X26181464Y75176905D01*
X26302399Y75144500D01*
X26302401Y75144500D01*
X26427599Y75144500D01*
X26427601Y75144500D01*
X26548536Y75176905D01*
X26656964Y75239505D01*
X26745495Y75328036D01*
X26808095Y75436464D01*
X26840500Y75557399D01*
X26840500Y75682601D01*
X26825304Y75739313D01*
X27091300Y75739313D01*
X27091300Y74500688D01*
X27118341Y74364746D01*
X27118344Y74364734D01*
X27171386Y74236677D01*
X27248401Y74121415D01*
X27346414Y74023402D01*
X27461676Y73946387D01*
X27569492Y73901729D01*
X27589738Y73893343D01*
X27725687Y73866301D01*
X27725690Y73866300D01*
X27725692Y73866300D01*
X27864310Y73866300D01*
X27864311Y73866301D01*
X28000262Y73893343D01*
X28071960Y73923041D01*
X28128323Y73946387D01*
X28128324Y73946388D01*
X28128327Y73946389D01*
X28243583Y74023400D01*
X28341600Y74121417D01*
X28418611Y74236673D01*
X28471657Y74364738D01*
X28498700Y74500692D01*
X28498700Y75739308D01*
X28498700Y75739311D01*
X28498699Y75739313D01*
X28477072Y75848039D01*
X28471657Y75875262D01*
X28471655Y75875267D01*
X28418613Y76003324D01*
X28341598Y76118586D01*
X28243585Y76216599D01*
X28128323Y76293614D01*
X28000266Y76346656D01*
X28000254Y76346659D01*
X27864311Y76373700D01*
X27864308Y76373700D01*
X27725692Y76373700D01*
X27725689Y76373700D01*
X27589745Y76346659D01*
X27589733Y76346656D01*
X27461676Y76293614D01*
X27346414Y76216599D01*
X27248401Y76118586D01*
X27171386Y76003324D01*
X27118344Y75875267D01*
X27118341Y75875255D01*
X27091300Y75739313D01*
X26825304Y75739313D01*
X26808095Y75803536D01*
X26745495Y75911964D01*
X26656964Y76000495D01*
X26548536Y76063095D01*
X26548537Y76063095D01*
X26508224Y76073897D01*
X26427601Y76095500D01*
X26302399Y76095500D01*
X26302396Y76095500D01*
X26285260Y76090908D01*
X26215411Y76092571D01*
X26157548Y76131734D01*
X26130045Y76195963D01*
X26133393Y76242775D01*
X26153700Y76318561D01*
X26153700Y76431439D01*
X26124485Y76540472D01*
X26068045Y76638228D01*
X25988228Y76718045D01*
X25909970Y76763228D01*
X25890473Y76774485D01*
X25835955Y76789093D01*
X25781439Y76803700D01*
X25668561Y76803700D01*
X25559526Y76774485D01*
X25461772Y76718045D01*
X25461769Y76718043D01*
X25381957Y76638231D01*
X25381955Y76638228D01*
X25325515Y76540474D01*
X25299549Y76443563D01*
X25296300Y76431439D01*
X21653700Y76431439D01*
X21624485Y76540472D01*
X21568045Y76638228D01*
X21488228Y76718045D01*
X21409970Y76763228D01*
X21390473Y76774485D01*
X21335955Y76789093D01*
X21281439Y76803700D01*
X21168561Y76803700D01*
X21059526Y76774485D01*
X20961772Y76718045D01*
X20961769Y76718043D01*
X20881957Y76638231D01*
X20881955Y76638228D01*
X20825515Y76540474D01*
X20796300Y76431439D01*
X20796300Y76318560D01*
X20816606Y76242775D01*
X20814943Y76172925D01*
X20775780Y76115063D01*
X20711551Y76087560D01*
X20664738Y76090908D01*
X20647601Y76095500D01*
X20522399Y76095500D01*
X20441775Y76073897D01*
X20401463Y76063095D01*
X20293037Y76000496D01*
X20293034Y76000494D01*
X20204506Y75911966D01*
X20204504Y75911963D01*
X20141905Y75803537D01*
X20141905Y75803536D01*
X20109500Y75682601D01*
X19858700Y75682601D01*
X19858700Y75739308D01*
X19858700Y75739311D01*
X19858699Y75739313D01*
X19837072Y75848039D01*
X19831657Y75875262D01*
X19831655Y75875267D01*
X19778613Y76003324D01*
X19701598Y76118586D01*
X19603585Y76216599D01*
X19488323Y76293614D01*
X19360266Y76346656D01*
X19360254Y76346659D01*
X19224311Y76373700D01*
X19224308Y76373700D01*
X19085692Y76373700D01*
X19085689Y76373700D01*
X18949745Y76346659D01*
X18949733Y76346656D01*
X18821676Y76293614D01*
X18706414Y76216599D01*
X18608401Y76118586D01*
X18531386Y76003324D01*
X18478344Y75875267D01*
X18478341Y75875255D01*
X18451300Y75739313D01*
X4967420Y75739313D01*
X4948041Y75772878D01*
X4872878Y75848041D01*
X4784942Y75898811D01*
X4780825Y75901188D01*
X4780824Y75901189D01*
X4780823Y75901189D01*
X4678148Y75928700D01*
X4571852Y75928700D01*
X4469177Y75901189D01*
X4469175Y75901188D01*
X4469174Y75901188D01*
X4377125Y75848043D01*
X4377119Y75848039D01*
X4301961Y75772881D01*
X4301957Y75772875D01*
X4248812Y75680826D01*
X4248812Y75680825D01*
X4248811Y75680823D01*
X4221300Y75578148D01*
X4221300Y75471852D01*
X4248811Y75369177D01*
X4301959Y75277122D01*
X4377122Y75201959D01*
X4377124Y75201958D01*
X4383571Y75197011D01*
X4382274Y75195322D01*
X4422722Y75152911D01*
X4435953Y75084306D01*
X4409992Y75019438D01*
X4353083Y74978903D01*
X4344615Y74976307D01*
X4344183Y74976192D01*
X4344174Y74976188D01*
X4252125Y74923043D01*
X4252119Y74923039D01*
X4176961Y74847881D01*
X4176957Y74847875D01*
X4123812Y74755826D01*
X4123812Y74755825D01*
X4123811Y74755823D01*
X4119774Y74740757D01*
X4083410Y74681097D01*
X4020563Y74650568D01*
X3951188Y74658863D01*
X3897310Y74703348D01*
X3880226Y74740756D01*
X3876189Y74755823D01*
X3823041Y74847878D01*
X3747878Y74923041D01*
X3655823Y74976189D01*
X3553148Y75003700D01*
X3446852Y75003700D01*
X3344177Y74976189D01*
X3344175Y74976188D01*
X3344174Y74976188D01*
X3252125Y74923043D01*
X3252119Y74923039D01*
X3176961Y74847881D01*
X3176957Y74847875D01*
X3123812Y74755826D01*
X3123812Y74755825D01*
X3123811Y74755823D01*
X3119774Y74740757D01*
X3083410Y74681097D01*
X3020563Y74650568D01*
X2951188Y74658863D01*
X2897310Y74703348D01*
X2880226Y74740756D01*
X2876189Y74755823D01*
X2823041Y74847878D01*
X2747878Y74923041D01*
X2655823Y74976189D01*
X2553148Y75003700D01*
X2446852Y75003700D01*
X2344177Y74976189D01*
X2344175Y74976188D01*
X2344174Y74976188D01*
X2252125Y74923043D01*
X2252119Y74923039D01*
X2176961Y74847881D01*
X2176957Y74847875D01*
X2123812Y74755826D01*
X2123812Y74755825D01*
X2123811Y74755823D01*
X2119774Y74740757D01*
X2083410Y74681097D01*
X2020563Y74650568D01*
X1951188Y74658863D01*
X1897310Y74703348D01*
X1880226Y74740756D01*
X1876189Y74755823D01*
X1823041Y74847878D01*
X1747878Y74923041D01*
X1655823Y74976189D01*
X1553148Y75003700D01*
X1446852Y75003700D01*
X1344177Y74976189D01*
X1344175Y74976188D01*
X1344174Y74976188D01*
X1252125Y74923043D01*
X1252119Y74923039D01*
X1176961Y74847881D01*
X1176957Y74847875D01*
X1123812Y74755826D01*
X1123812Y74755825D01*
X1123811Y74755823D01*
X1096300Y74653148D01*
X450500Y74653148D01*
X450500Y76556439D01*
X8921300Y76556439D01*
X8921300Y76443561D01*
X8924713Y76430825D01*
X8950515Y76334527D01*
X8959734Y76318560D01*
X9006955Y76236772D01*
X9086772Y76156955D01*
X9184528Y76100515D01*
X9293561Y76071300D01*
X9293563Y76071300D01*
X9406437Y76071300D01*
X9406439Y76071300D01*
X9515472Y76100515D01*
X9613228Y76156955D01*
X9693045Y76236772D01*
X9745801Y76328148D01*
X16546300Y76328148D01*
X16546300Y76221852D01*
X16573811Y76119177D01*
X16573812Y76119176D01*
X16573812Y76119175D01*
X16587481Y76095500D01*
X16626959Y76027122D01*
X16702122Y75951959D01*
X16794177Y75898811D01*
X16896852Y75871300D01*
X16896854Y75871300D01*
X17003146Y75871300D01*
X17003148Y75871300D01*
X17105823Y75898811D01*
X17197878Y75951959D01*
X17273041Y76027122D01*
X17326189Y76119177D01*
X17353700Y76221852D01*
X17353700Y76328148D01*
X17326189Y76430823D01*
X17273041Y76522878D01*
X17197878Y76598041D01*
X17105823Y76651189D01*
X17003148Y76678700D01*
X16896852Y76678700D01*
X16794177Y76651189D01*
X16794175Y76651188D01*
X16794174Y76651188D01*
X16702125Y76598043D01*
X16702119Y76598039D01*
X16626961Y76522881D01*
X16626957Y76522875D01*
X16573812Y76430826D01*
X16573812Y76430825D01*
X16573811Y76430823D01*
X16546300Y76328148D01*
X9745801Y76328148D01*
X9749485Y76334528D01*
X9778700Y76443561D01*
X9778700Y76556439D01*
X9749485Y76665472D01*
X9693045Y76763228D01*
X9613228Y76843045D01*
X9564350Y76871265D01*
X9515473Y76899485D01*
X9460955Y76914093D01*
X9406439Y76928700D01*
X9293561Y76928700D01*
X9184526Y76899485D01*
X9086772Y76843045D01*
X9086769Y76843043D01*
X9006957Y76763231D01*
X9006955Y76763228D01*
X8950515Y76665474D01*
X8921300Y76556439D01*
X450500Y76556439D01*
X450500Y77218458D01*
X21908319Y77218458D01*
X21908319Y77105581D01*
X21937534Y76996546D01*
X21965754Y76947669D01*
X21993974Y76898791D01*
X22073791Y76818974D01*
X22171547Y76762534D01*
X22280580Y76733319D01*
X22280582Y76733319D01*
X22393456Y76733319D01*
X22393458Y76733319D01*
X22502491Y76762534D01*
X22600247Y76818974D01*
X22680064Y76898791D01*
X22736504Y76996547D01*
X22758538Y77078784D01*
X22794901Y77138441D01*
X22846216Y77166461D01*
X22928453Y77188496D01*
X23026209Y77244936D01*
X23106026Y77324753D01*
X23162466Y77422509D01*
X23191681Y77531542D01*
X23191681Y77644420D01*
X23162466Y77753453D01*
X23106026Y77851209D01*
X23026209Y77931026D01*
X22977331Y77959246D01*
X22928454Y77987466D01*
X22873936Y78002074D01*
X22819420Y78016681D01*
X22706542Y78016681D01*
X22597507Y77987466D01*
X22499753Y77931026D01*
X22499750Y77931024D01*
X22419938Y77851212D01*
X22419936Y77851209D01*
X22363497Y77753455D01*
X22341462Y77671219D01*
X22305097Y77611559D01*
X22253782Y77583539D01*
X22171547Y77561504D01*
X22171545Y77561504D01*
X22171545Y77561503D01*
X22073791Y77505064D01*
X22073788Y77505062D01*
X21993976Y77425250D01*
X21993974Y77425247D01*
X21937534Y77327493D01*
X21908319Y77218458D01*
X450500Y77218458D01*
X450500Y79403148D01*
X2871300Y79403148D01*
X2871300Y79296852D01*
X2898811Y79194177D01*
X2951959Y79102122D01*
X3027122Y79026959D01*
X3119177Y78973811D01*
X3221852Y78946300D01*
X3221854Y78946300D01*
X3328146Y78946300D01*
X3328148Y78946300D01*
X3430823Y78973811D01*
X3522878Y79026959D01*
X3598041Y79102122D01*
X3651189Y79194177D01*
X3678700Y79296852D01*
X3678700Y79403148D01*
X3651189Y79505823D01*
X3598041Y79597878D01*
X3522878Y79673041D01*
X3430823Y79726189D01*
X3328148Y79753700D01*
X3221852Y79753700D01*
X3119177Y79726189D01*
X3119175Y79726188D01*
X3119174Y79726188D01*
X3027125Y79673043D01*
X3027119Y79673039D01*
X2951961Y79597881D01*
X2951957Y79597875D01*
X2898812Y79505826D01*
X2898812Y79505825D01*
X2898811Y79505823D01*
X2871300Y79403148D01*
X450500Y79403148D01*
X450500Y80240245D01*
X452025Y80259630D01*
X457192Y80292256D01*
X469177Y80329143D01*
X479687Y80349770D01*
X502486Y80381149D01*
X518851Y80397514D01*
X550230Y80420313D01*
X570857Y80430823D01*
X607744Y80442808D01*
X640369Y80447975D01*
X659756Y80449500D01*
X697595Y80449500D01*
X11674356Y80449500D01*
X11676244Y80448946D01*
G37*
%TD.AperFunction*%
%TA.AperFunction,Conductor*%
G36*
X8670903Y11167539D02*
G01*
X8677381Y11161507D01*
X9022981Y10815907D01*
X9056466Y10754584D01*
X9059300Y10728226D01*
X9059300Y6806581D01*
X9039615Y6739542D01*
X9031581Y6729573D01*
X9031906Y6729324D01*
X9026957Y6722875D01*
X8973812Y6630826D01*
X8973809Y6630818D01*
X8972650Y6626493D01*
X8936280Y6566835D01*
X8873431Y6536311D01*
X8804056Y6544612D01*
X8765197Y6570915D01*
X8502019Y6834093D01*
X8468534Y6895416D01*
X8465700Y6921774D01*
X8465700Y11073826D01*
X8485385Y11140865D01*
X8538189Y11186620D01*
X8607347Y11196564D01*
X8670903Y11167539D01*
G37*
%TD.AperFunction*%
%TD*%
M02*
