%TF.GenerationSoftware,KiCad,Pcbnew,9.0.7*%
%TF.CreationDate,2026-02-28T14:28:49+01:00*%
%TF.ProjectId,BladeCore-M54E,426c6164-6543-46f7-9265-2d4d3534452e,rev?*%
%TF.SameCoordinates,Original*%
%TF.FileFunction,Legend,Bot*%
%TF.FilePolarity,Positive*%
%FSLAX46Y46*%
G04 Gerber Fmt 4.6, Leading zero omitted, Abs format (unit mm)*
G04 Created by KiCad (PCBNEW 9.0.7) date 2026-02-28 14:28:49*
%MOMM*%
%LPD*%
G01*
G04 APERTURE LIST*
G04 Aperture macros list*
%AMRoundRect*
0 Rectangle with rounded corners*
0 $1 Rounding radius*
0 $2 $3 $4 $5 $6 $7 $8 $9 X,Y pos of 4 corners*
0 Add a 4 corners polygon primitive as box body*
4,1,4,$2,$3,$4,$5,$6,$7,$8,$9,$2,$3,0*
0 Add four circle primitives for the rounded corners*
1,1,$1+$1,$2,$3*
1,1,$1+$1,$4,$5*
1,1,$1+$1,$6,$7*
1,1,$1+$1,$8,$9*
0 Add four rect primitives between the rounded corners*
20,1,$1+$1,$2,$3,$4,$5,0*
20,1,$1+$1,$4,$5,$6,$7,0*
20,1,$1+$1,$6,$7,$8,$9,0*
20,1,$1+$1,$8,$9,$2,$3,0*%
G04 Aperture macros list end*
%ADD10C,0.000000*%
%ADD11C,0.400000*%
%ADD12C,0.150000*%
%ADD13C,0.120000*%
%ADD14C,0.650000*%
%ADD15O,1.000000X2.100000*%
%ADD16O,1.000000X1.600000*%
%ADD17RoundRect,0.050000X-0.175000X-1.250000X0.175000X-1.250000X0.175000X1.250000X-0.175000X1.250000X0*%
%ADD18C,5.500000*%
%ADD19C,0.425000*%
%ADD20RoundRect,0.135000X0.185000X-0.135000X0.185000X0.135000X-0.185000X0.135000X-0.185000X-0.135000X0*%
%ADD21RoundRect,0.140000X-0.170000X0.140000X-0.170000X-0.140000X0.170000X-0.140000X0.170000X0.140000X0*%
%ADD22RoundRect,0.140000X0.170000X-0.140000X0.170000X0.140000X-0.170000X0.140000X-0.170000X-0.140000X0*%
%ADD23RoundRect,0.140000X-0.140000X-0.170000X0.140000X-0.170000X0.140000X0.170000X-0.140000X0.170000X0*%
%ADD24RoundRect,0.140000X0.140000X0.170000X-0.140000X0.170000X-0.140000X-0.170000X0.140000X-0.170000X0*%
%ADD25RoundRect,0.125000X0.175000X0.125000X-0.175000X0.125000X-0.175000X-0.125000X0.175000X-0.125000X0*%
%ADD26RoundRect,0.135000X-0.135000X-0.185000X0.135000X-0.185000X0.135000X0.185000X-0.135000X0.185000X0*%
%ADD27RoundRect,0.135000X-0.185000X0.135000X-0.185000X-0.135000X0.185000X-0.135000X0.185000X0.135000X0*%
%ADD28RoundRect,0.250000X-0.650000X0.325000X-0.650000X-0.325000X0.650000X-0.325000X0.650000X0.325000X0*%
%ADD29RoundRect,0.250000X-0.650000X1.000000X-0.650000X-1.000000X0.650000X-1.000000X0.650000X1.000000X0*%
G04 APERTURE END LIST*
D10*
G36*
X8295545Y26859249D02*
G01*
X7612920Y26859249D01*
X7612920Y27327561D01*
X8295545Y27327561D01*
X8295545Y26859249D01*
G37*
G36*
X9326892Y30813123D02*
G01*
X9413876Y30813133D01*
X9543834Y30813102D01*
X9762952Y30813091D01*
X9981087Y30813031D01*
X9994815Y30813031D01*
X10050021Y30813032D01*
X10567648Y30812940D01*
X11027106Y30812859D01*
X11056580Y30812859D01*
X11071302Y30812859D01*
X11144708Y30812860D01*
X11159341Y30812861D01*
X11545110Y30812822D01*
X11559003Y30812820D01*
X11614310Y30812809D01*
X11805437Y30812786D01*
X12053008Y30812735D01*
X12172572Y30812702D01*
X12371717Y30812569D01*
X12471286Y30811957D01*
X12570849Y30810603D01*
X12584246Y30810351D01*
X12621263Y30809636D01*
X12632287Y30809390D01*
X12641498Y30809196D01*
X12650703Y30808949D01*
X12659906Y30808614D01*
X12669107Y30808154D01*
X12697917Y30804634D01*
X12726532Y30799855D01*
X12754891Y30793824D01*
X12782933Y30786548D01*
X12810596Y30778033D01*
X12837820Y30768286D01*
X12864542Y30757311D01*
X12890703Y30745117D01*
X12916239Y30731708D01*
X12941091Y30717092D01*
X12965197Y30701275D01*
X12988495Y30684262D01*
X13010925Y30666061D01*
X13032424Y30646677D01*
X13052933Y30626118D01*
X13072389Y30604388D01*
X13077888Y30597811D01*
X13100891Y30568635D01*
X13121637Y30538544D01*
X13140230Y30507599D01*
X13156777Y30475862D01*
X13171383Y30443396D01*
X13184154Y30410262D01*
X13195195Y30376522D01*
X13204612Y30342239D01*
X13212511Y30307475D01*
X13218996Y30272291D01*
X13224173Y30236750D01*
X13228149Y30200913D01*
X13231028Y30164844D01*
X13232916Y30128602D01*
X13233919Y30092252D01*
X13234142Y30055855D01*
X13234098Y30016445D01*
X13234070Y29946644D01*
X13233955Y29841674D01*
X13233796Y29651203D01*
X13233595Y29481945D01*
X13233579Y29459049D01*
X13233555Y29424422D01*
X13232809Y28843794D01*
X13232531Y28673619D01*
X13231054Y27861320D01*
X13230845Y27757810D01*
X13230176Y27443730D01*
X13230111Y27416503D01*
X13230079Y27403021D01*
X13229880Y27312062D01*
X13228825Y26997447D01*
X13228640Y26962382D01*
X13227674Y26816630D01*
X13227315Y26770725D01*
X13226882Y26710464D01*
X13226458Y26680335D01*
X13225785Y26650211D01*
X13224388Y26623242D01*
X13221976Y26596106D01*
X13218524Y26568896D01*
X13214005Y26541709D01*
X13208392Y26514639D01*
X13201658Y26487782D01*
X13193776Y26461232D01*
X13184720Y26435085D01*
X13174463Y26409435D01*
X13162978Y26384379D01*
X13150239Y26360010D01*
X13136218Y26336424D01*
X13120890Y26313717D01*
X13104226Y26291982D01*
X13086201Y26271316D01*
X13066788Y26251813D01*
X13058045Y26244092D01*
X13025949Y26217150D01*
X12993189Y26192737D01*
X12959773Y26170743D01*
X12925707Y26151063D01*
X12891000Y26133588D01*
X12855657Y26118210D01*
X12819686Y26104821D01*
X12783095Y26093315D01*
X12745891Y26083582D01*
X12708081Y26075517D01*
X12669672Y26069010D01*
X12630671Y26063954D01*
X12591086Y26060242D01*
X12550924Y26057765D01*
X12510192Y26056417D01*
X12468898Y26056088D01*
X12428240Y26056132D01*
X12356109Y26056160D01*
X12247304Y26056276D01*
X12049036Y26056435D01*
X11872701Y26056636D01*
X11848850Y26056652D01*
X11812747Y26056676D01*
X11211709Y26057398D01*
X10992297Y26057723D01*
X10127129Y26059101D01*
X10093076Y26059161D01*
X10084568Y26059177D01*
X9956651Y26059400D01*
X9602484Y26060055D01*
X9450551Y26060351D01*
X9342800Y26060558D01*
X9322729Y26060596D01*
X9257920Y26060734D01*
X9198362Y26060842D01*
X9176502Y26060902D01*
X9150088Y26060964D01*
X9123680Y26061187D01*
X9097276Y26061665D01*
X9070875Y26062496D01*
X9061009Y26062918D01*
X9055682Y26063156D01*
X9050432Y26063506D01*
X9045253Y26063966D01*
X9040134Y26064536D01*
X9035068Y26065211D01*
X9030045Y26065992D01*
X9025059Y26066875D01*
X9020100Y26067858D01*
X9010231Y26070120D01*
X9000370Y26072760D01*
X8990450Y26075763D01*
X8980405Y26079114D01*
X8972635Y26082180D01*
X8963634Y26085691D01*
X8954101Y26089365D01*
X8944538Y26092962D01*
X8923617Y26101037D01*
X8903053Y26109651D01*
X8882856Y26118812D01*
X8863036Y26128532D01*
X8843605Y26138822D01*
X8824571Y26149691D01*
X8805945Y26161150D01*
X8787739Y26173210D01*
X8769961Y26185881D01*
X8752622Y26199174D01*
X8735733Y26213099D01*
X8719304Y26227667D01*
X8703345Y26242888D01*
X8687866Y26258773D01*
X8672878Y26275332D01*
X8658391Y26292576D01*
X8652732Y26299655D01*
X8643953Y26310895D01*
X8635446Y26322336D01*
X8627217Y26333971D01*
X8619272Y26345796D01*
X8611617Y26357804D01*
X8604258Y26369991D01*
X8597201Y26382350D01*
X8590452Y26394878D01*
X8584017Y26407567D01*
X8577901Y26420412D01*
X8572112Y26433409D01*
X8566654Y26446551D01*
X8561534Y26459833D01*
X8556757Y26473250D01*
X8552331Y26486796D01*
X8548259Y26500466D01*
X8545576Y26509999D01*
X8539513Y26531319D01*
X8534963Y26549089D01*
X8533190Y26557400D01*
X8531716Y26565733D01*
X8530516Y26574391D01*
X8529563Y26583677D01*
X8528294Y26605347D01*
X8527699Y26633166D01*
X8527697Y26716959D01*
X8527734Y26772788D01*
X8527733Y26870881D01*
X8527822Y27017594D01*
X8527886Y27264643D01*
X8528039Y27510405D01*
X8528040Y27525838D01*
X8528046Y27587889D01*
X8528071Y27769237D01*
X8528073Y27777222D01*
X8528280Y28161371D01*
X8528528Y28695818D01*
X8528531Y28712460D01*
X8528546Y28795466D01*
X8528547Y28803743D01*
X8528554Y28845048D01*
X8528713Y29363520D01*
X8528771Y29517363D01*
X8528930Y29842513D01*
X8529011Y29977060D01*
X8529038Y30025112D01*
X8948879Y30025112D01*
X8948915Y30016703D01*
X8948918Y30008293D01*
X8948880Y29984774D01*
X8948916Y29961255D01*
X8948960Y29909683D01*
X8948988Y29819181D01*
X8949103Y29683987D01*
X8949262Y29442943D01*
X8949467Y29231366D01*
X8949484Y29203040D01*
X8949510Y29160365D01*
X8950238Y28495743D01*
X8950507Y28302500D01*
X8951664Y27599313D01*
X8952015Y27414449D01*
X8952510Y27175493D01*
X8952768Y27060513D01*
X8952971Y26964757D01*
X8953100Y26916439D01*
X8953182Y26872179D01*
X8953252Y26855944D01*
X8953437Y26838003D01*
X8954075Y26820097D01*
X8955208Y26802256D01*
X8956877Y26784507D01*
X8959123Y26766881D01*
X8961988Y26749406D01*
X8965513Y26732111D01*
X8969739Y26715024D01*
X8974708Y26698174D01*
X8980460Y26681591D01*
X8987038Y26665302D01*
X8994482Y26649338D01*
X9002834Y26633726D01*
X9012134Y26618496D01*
X9022425Y26603677D01*
X9033748Y26589296D01*
X9050174Y26574049D01*
X9067073Y26560369D01*
X9084426Y26548176D01*
X9102214Y26537390D01*
X9120420Y26527930D01*
X9139023Y26519718D01*
X9158005Y26512674D01*
X9177347Y26506717D01*
X9197031Y26501768D01*
X9217038Y26497748D01*
X9237348Y26494575D01*
X9257944Y26492171D01*
X9278805Y26490456D01*
X9299914Y26489350D01*
X9321252Y26488773D01*
X9342800Y26488645D01*
X9386137Y26488671D01*
X9462303Y26488666D01*
X9576283Y26488726D01*
X9768441Y26488764D01*
X9960214Y26488870D01*
X9972285Y26488871D01*
X10020834Y26488873D01*
X10463684Y26489030D01*
X10880216Y26489200D01*
X10893115Y26489201D01*
X10944621Y26489207D01*
X10970308Y26489209D01*
X10995945Y26489212D01*
X11408648Y26489319D01*
X11528710Y26489358D01*
X11944833Y26489436D01*
X12360950Y26491255D01*
X12395082Y26491514D01*
X12420861Y26491678D01*
X12446640Y26491911D01*
X12465046Y26492121D01*
X12480537Y26492342D01*
X12495804Y26492912D01*
X12510904Y26493872D01*
X12525888Y26495266D01*
X12540812Y26497136D01*
X12555730Y26499525D01*
X12570696Y26502475D01*
X12585763Y26506030D01*
X12599206Y26510925D01*
X12612122Y26516399D01*
X12624526Y26522440D01*
X12636431Y26529037D01*
X12647852Y26536177D01*
X12658801Y26543850D01*
X12669292Y26552043D01*
X12679339Y26560746D01*
X12688955Y26569947D01*
X12698155Y26579634D01*
X12706951Y26589796D01*
X12715358Y26600421D01*
X12723388Y26611498D01*
X12731056Y26623015D01*
X12738375Y26634961D01*
X12745359Y26647325D01*
X12749474Y26655106D01*
X12760680Y26688041D01*
X12769087Y26714084D01*
X12772361Y26725272D01*
X12775078Y26735638D01*
X12777288Y26745483D01*
X12779037Y26755108D01*
X12780375Y26764812D01*
X12781349Y26774896D01*
X12782007Y26785661D01*
X12782397Y26797407D01*
X12782565Y26825043D01*
X12782237Y26860209D01*
X12782182Y26881853D01*
X12782199Y26903497D01*
X12782201Y26979630D01*
X12782111Y27093498D01*
X12782047Y27285553D01*
X12781894Y27477215D01*
X12781893Y27489287D01*
X12781887Y27537846D01*
X12781660Y27980709D01*
X12781406Y28397012D01*
X12781404Y28409900D01*
X12781389Y28474204D01*
X12781386Y28487032D01*
X12781381Y28512650D01*
X12781221Y28925403D01*
X12781162Y29045426D01*
X12780929Y29469426D01*
X12778905Y29893419D01*
X12778592Y29930636D01*
X12778099Y29987272D01*
X12777874Y30007559D01*
X12777637Y30025797D01*
X12777110Y30043939D01*
X12776188Y30061992D01*
X12774765Y30079966D01*
X12772738Y30097868D01*
X12771465Y30106795D01*
X12770002Y30115708D01*
X12768336Y30124607D01*
X12766453Y30133494D01*
X12764341Y30142369D01*
X12761986Y30151233D01*
X12759644Y30159016D01*
X12756481Y30169139D01*
X12753091Y30179078D01*
X12749468Y30188858D01*
X12745600Y30198507D01*
X12741479Y30208050D01*
X12737096Y30217514D01*
X12732442Y30226927D01*
X12727507Y30236314D01*
X12720701Y30248561D01*
X12717646Y30254775D01*
X12714417Y30260470D01*
X12711008Y30265685D01*
X12707414Y30270462D01*
X12703632Y30274839D01*
X12699654Y30278858D01*
X12695478Y30282559D01*
X12691097Y30285981D01*
X12686507Y30289166D01*
X12681703Y30292152D01*
X12676679Y30294982D01*
X12671432Y30297693D01*
X12665955Y30300328D01*
X12660244Y30302925D01*
X12648101Y30308170D01*
X12641116Y30311096D01*
X12634160Y30314066D01*
X12627235Y30317105D01*
X12620341Y30320237D01*
X12611316Y30324514D01*
X12602278Y30328764D01*
X12593453Y30332897D01*
X12583770Y30337372D01*
X12574079Y30341468D01*
X12564371Y30345196D01*
X12554641Y30348565D01*
X12544880Y30351587D01*
X12535082Y30354272D01*
X12525240Y30356630D01*
X12515347Y30358672D01*
X12505395Y30360409D01*
X12495378Y30361851D01*
X12485288Y30363008D01*
X12475119Y30363891D01*
X12464863Y30364511D01*
X12454513Y30364877D01*
X12444062Y30365002D01*
X12433503Y30364894D01*
X12423581Y30364711D01*
X12413660Y30364575D01*
X12370125Y30364103D01*
X12335615Y30363702D01*
X12301103Y30363493D01*
X12289332Y30363466D01*
X12265253Y30363410D01*
X12201677Y30363206D01*
X12174753Y30363096D01*
X12160949Y30363040D01*
X12087533Y30362752D01*
X12048423Y30362601D01*
X12040452Y30362570D01*
X11958342Y30362251D01*
X11590757Y30360853D01*
X11581189Y30360818D01*
X10924066Y30358709D01*
X10913044Y30358678D01*
X10725614Y30358159D01*
X9514694Y30354190D01*
X9436388Y30353855D01*
X9344499Y30353452D01*
X9299501Y30353224D01*
X9259217Y30353053D01*
X9244693Y30352951D01*
X9233273Y30352820D01*
X9222131Y30352424D01*
X9211247Y30351736D01*
X9200603Y30350731D01*
X9190178Y30349384D01*
X9179952Y30347669D01*
X9169906Y30345561D01*
X9160020Y30343035D01*
X9150273Y30340065D01*
X9140647Y30336626D01*
X9131121Y30332692D01*
X9121676Y30328238D01*
X9112291Y30323238D01*
X9102947Y30317668D01*
X9093624Y30311501D01*
X9084303Y30304712D01*
X9073420Y30296186D01*
X9058833Y30285158D01*
X9051594Y30279548D01*
X9044491Y30273781D01*
X9041015Y30270817D01*
X9037600Y30267789D01*
X9034257Y30264687D01*
X9030995Y30261502D01*
X9027823Y30258227D01*
X9024751Y30254852D01*
X9021787Y30251370D01*
X9018942Y30247770D01*
X9013889Y30240623D01*
X9005242Y30228324D01*
X8997293Y30215907D01*
X8990022Y30203363D01*
X8983412Y30190685D01*
X8977444Y30177865D01*
X8972099Y30164893D01*
X8967359Y30151763D01*
X8963206Y30138466D01*
X8959620Y30124994D01*
X8956585Y30111339D01*
X8954080Y30097493D01*
X8952089Y30083448D01*
X8950591Y30069195D01*
X8949569Y30054727D01*
X8949005Y30040035D01*
X8948879Y30025112D01*
X8529038Y30025112D01*
X8529073Y30089369D01*
X8529117Y30146022D01*
X8529140Y30198052D01*
X8529169Y30217030D01*
X8529200Y30251370D01*
X8529468Y30268540D01*
X8530080Y30285688D01*
X8531171Y30302793D01*
X8532874Y30319840D01*
X8533996Y30328335D01*
X8535321Y30336808D01*
X8536866Y30345258D01*
X8538646Y30353681D01*
X8540615Y30361670D01*
X8545565Y30380175D01*
X8551312Y30398702D01*
X8557822Y30417204D01*
X8565062Y30435631D01*
X8572997Y30453937D01*
X8581592Y30472074D01*
X8590815Y30489992D01*
X8600630Y30507645D01*
X8611004Y30524984D01*
X8621902Y30541960D01*
X8633290Y30558527D01*
X8645134Y30574636D01*
X8657400Y30590239D01*
X8670054Y30605287D01*
X8683062Y30619733D01*
X8696388Y30633530D01*
X8726888Y30661556D01*
X8758424Y30686570D01*
X8790939Y30708737D01*
X8824378Y30728222D01*
X8858686Y30745191D01*
X8893806Y30759809D01*
X8929684Y30772243D01*
X8966262Y30782657D01*
X9003487Y30791218D01*
X9041302Y30798090D01*
X9079651Y30803439D01*
X9118479Y30807431D01*
X9157730Y30810231D01*
X9197349Y30812005D01*
X9277466Y30813137D01*
X9326892Y30813123D01*
G37*
G36*
X12411139Y36169936D02*
G01*
X12397295Y36164786D01*
X12383606Y36159877D01*
X12376750Y36157533D01*
X12369850Y36155275D01*
X12362876Y36153109D01*
X12355802Y36151046D01*
X12347327Y36148704D01*
X12318226Y36140569D01*
X12297158Y36134695D01*
X12252121Y36122100D01*
X12143532Y36091725D01*
X12106966Y36081478D01*
X11911656Y36026307D01*
X11896937Y36022100D01*
X11761380Y35983032D01*
X11625943Y35943548D01*
X11497413Y35906173D01*
X11368749Y35869258D01*
X11180603Y35815262D01*
X10992657Y35760572D01*
X10874362Y35726011D01*
X10798504Y35703883D01*
X10745768Y35688495D01*
X10558043Y35633589D01*
X10511277Y35619254D01*
X10464678Y35604427D01*
X10418300Y35588983D01*
X10372192Y35572800D01*
X10354000Y35566269D01*
X10299763Y35546842D01*
X10364965Y35531126D01*
X10429980Y35514786D01*
X10494844Y35497858D01*
X10559595Y35480380D01*
X10610993Y35466333D01*
X10697971Y35442596D01*
X10903457Y35386586D01*
X10913431Y35383875D01*
X11068077Y35342044D01*
X11222843Y35300661D01*
X11232668Y35298051D01*
X11445123Y35241954D01*
X11546129Y35215312D01*
X11646901Y35188022D01*
X11747397Y35159740D01*
X11847576Y35130123D01*
X11879011Y35120606D01*
X11910482Y35111205D01*
X11919509Y35108543D01*
X11949050Y35100018D01*
X11978672Y35091885D01*
X12008403Y35084158D01*
X12038270Y35076849D01*
X12052556Y35073491D01*
X12088782Y35064962D01*
X12125057Y35056641D01*
X12173459Y35045494D01*
X12195058Y35039876D01*
X12219393Y35032896D01*
X12289679Y35010854D01*
X12411139Y34971373D01*
X12411139Y33955373D01*
X9279795Y33955373D01*
X9279795Y34570530D01*
X9373358Y34573731D01*
X9420107Y34574879D01*
X9466914Y34575501D01*
X9491726Y34575678D01*
X9560943Y34576199D01*
X9636289Y34576756D01*
X9775618Y34577796D01*
X9913851Y34578812D01*
X9922563Y34578877D01*
X9966385Y34579209D01*
X10275901Y34581511D01*
X10576828Y34583738D01*
X10586224Y34583808D01*
X10679704Y34584509D01*
X10870296Y34585934D01*
X10879152Y34586000D01*
X11457308Y34590277D01*
X11470545Y34590373D01*
X11448131Y34604034D01*
X11430318Y34614474D01*
X11422600Y34618690D01*
X11415386Y34622344D01*
X11408462Y34625519D01*
X11401614Y34628295D01*
X11394624Y34630755D01*
X11387279Y34632979D01*
X11379364Y34635049D01*
X11370663Y34637046D01*
X11350044Y34641148D01*
X11323701Y34645935D01*
X11323701Y34637999D01*
X11318446Y34638002D01*
X11314400Y34638028D01*
X11312744Y34638056D01*
X11311286Y34638098D01*
X11309991Y34638156D01*
X11308825Y34638233D01*
X11307753Y34638333D01*
X11306740Y34638457D01*
X11305750Y34638609D01*
X11304750Y34638791D01*
X11303705Y34639006D01*
X11302579Y34639257D01*
X11299948Y34639877D01*
X11291174Y34642661D01*
X11280537Y34645984D01*
X11267072Y34650209D01*
X11253591Y34654384D01*
X11210690Y34667605D01*
X11191436Y34673553D01*
X11150258Y34686271D01*
X11084850Y34706468D01*
X11073811Y34709875D01*
X11051774Y34716676D01*
X10921935Y34756768D01*
X10712343Y34821147D01*
X10607298Y34852509D01*
X10501950Y34882838D01*
X10438762Y34900645D01*
X10430732Y34902912D01*
X10373945Y34919192D01*
X10317349Y34935985D01*
X10260942Y34953405D01*
X10204722Y34971570D01*
X10191119Y34976086D01*
X10163871Y34985131D01*
X10150395Y34989606D01*
X10137045Y34994039D01*
X10001599Y35036699D01*
X9908733Y35065256D01*
X9815504Y35092613D01*
X9678964Y35131674D01*
X9476926Y35189883D01*
X9432344Y35202801D01*
X9299638Y35241248D01*
X9299638Y35848467D01*
X9328273Y35856273D01*
X9356869Y35864214D01*
X9368468Y35867576D01*
X9381999Y35871497D01*
X9396315Y35875659D01*
X9452815Y35892109D01*
X9461365Y35894604D01*
X9581547Y35930056D01*
X9641526Y35948148D01*
X9701413Y35966566D01*
X9838940Y36008668D01*
X9976777Y36049618D01*
X10114889Y36089633D01*
X10253239Y36128935D01*
X10420790Y36176169D01*
X10431228Y36179113D01*
X10795604Y36282520D01*
X10836107Y36294078D01*
X10962147Y36330099D01*
X11087987Y36366808D01*
X11116138Y36375172D01*
X11149927Y36385185D01*
X11183686Y36395300D01*
X11222526Y36406903D01*
X11241906Y36412365D01*
X11261332Y36417474D01*
X11280858Y36422136D01*
X11300539Y36426257D01*
X11320428Y36429741D01*
X11340579Y36432494D01*
X11352548Y36433867D01*
X11364764Y36435491D01*
X11370895Y36436470D01*
X11377006Y36437599D01*
X11383068Y36438909D01*
X11389053Y36440427D01*
X11394934Y36442184D01*
X11400683Y36444209D01*
X11406272Y36446531D01*
X11411675Y36449179D01*
X11416862Y36452183D01*
X11419366Y36453828D01*
X11421807Y36455572D01*
X11424179Y36457421D01*
X11426481Y36459376D01*
X11428708Y36461442D01*
X11430857Y36463623D01*
X11170989Y36467780D01*
X10911097Y36470096D01*
X10788368Y36471007D01*
X10567629Y36472662D01*
X10554380Y36472760D01*
X10501253Y36473153D01*
X10355609Y36474232D01*
X10342451Y36474329D01*
X10121690Y36475986D01*
X9998245Y36476909D01*
X9586388Y36480423D01*
X9574316Y36480559D01*
X9331389Y36483467D01*
X9331389Y37134342D01*
X12411139Y37134342D01*
X12411139Y36169936D01*
G37*
G36*
X13672666Y29975252D02*
G01*
X13769321Y29975242D01*
X13882111Y29975235D01*
X13979521Y29975256D01*
X14037516Y29975250D01*
X14093060Y29975252D01*
X14113453Y29975231D01*
X14142018Y29975240D01*
X14150565Y29975221D01*
X14157233Y29975197D01*
X14163902Y29975116D01*
X14170569Y29974962D01*
X14177232Y29974717D01*
X14178543Y29973392D01*
X14179075Y29972826D01*
X14179534Y29972302D01*
X14179926Y29971802D01*
X14180258Y29971309D01*
X14180535Y29970807D01*
X14180766Y29970277D01*
X14180955Y29969703D01*
X14181111Y29969068D01*
X14181238Y29968354D01*
X14181345Y29967545D01*
X14181437Y29966623D01*
X14181520Y29965571D01*
X14181689Y29963008D01*
X14181678Y29952643D01*
X14181695Y29940811D01*
X14181651Y29927673D01*
X14181620Y29883888D01*
X14181580Y29854907D01*
X14181558Y29811680D01*
X14181449Y29738329D01*
X14181201Y29506405D01*
X13482701Y29506405D01*
X13482453Y29738329D01*
X13482325Y29841136D01*
X13482313Y29868786D01*
X13482249Y29913724D01*
X13482250Y29927673D01*
X13482207Y29940811D01*
X13482224Y29952643D01*
X13482242Y29957172D01*
X13482317Y29961700D01*
X13482465Y29966227D01*
X13482701Y29970749D01*
X13484033Y29972059D01*
X13484615Y29972592D01*
X13485171Y29973051D01*
X13485724Y29973443D01*
X13486295Y29973774D01*
X13486906Y29974053D01*
X13487581Y29974283D01*
X13488342Y29974474D01*
X13489210Y29974630D01*
X13490208Y29974758D01*
X13491359Y29974866D01*
X13494207Y29975044D01*
X13497932Y29975217D01*
X13513337Y29975221D01*
X13540522Y29975244D01*
X13560523Y29975238D01*
X13614857Y29975258D01*
X13672666Y29975252D01*
G37*
G36*
X11318740Y34653857D02*
G01*
X11320001Y34653821D01*
X11321158Y34653749D01*
X11322245Y34653631D01*
X11323298Y34653454D01*
X11324350Y34653208D01*
X11325437Y34652881D01*
X11326594Y34652460D01*
X11327856Y34651935D01*
X11329257Y34651293D01*
X11330832Y34650524D01*
X11334646Y34648555D01*
X11339576Y34645935D01*
X11323701Y34645935D01*
X11323701Y34637999D01*
X11318438Y34638014D01*
X11316262Y34638051D01*
X11314337Y34638123D01*
X11312621Y34638241D01*
X11311074Y34638417D01*
X11309654Y34638663D01*
X11308980Y34638816D01*
X11308322Y34638991D01*
X11307676Y34639188D01*
X11307036Y34639411D01*
X11306398Y34639660D01*
X11305756Y34639936D01*
X11304441Y34640578D01*
X11303051Y34641347D01*
X11301544Y34642256D01*
X11299881Y34643315D01*
X11295920Y34645935D01*
X11315763Y34645935D01*
X11315763Y34653873D01*
X11318740Y34653857D01*
G37*
G36*
X12411139Y37443904D02*
G01*
X11843607Y37443904D01*
X11843607Y38138436D01*
X9331389Y38138436D01*
X9331389Y38757560D01*
X11843607Y38757560D01*
X11843607Y39432247D01*
X12411139Y39432247D01*
X12411139Y37443904D01*
G37*
G36*
X10624480Y33574214D02*
G01*
X10793869Y33573540D01*
X10957595Y33572871D01*
X10967805Y33572836D01*
X10978002Y33572800D01*
X10998349Y33572730D01*
X11008495Y33572694D01*
X11166687Y33572090D01*
X11223461Y33571870D01*
X11313868Y33571503D01*
X11347617Y33571345D01*
X11437255Y33570690D01*
X11482064Y33569966D01*
X11526874Y33568860D01*
X11535278Y33568609D01*
X11552655Y33568122D01*
X11570026Y33567542D01*
X11587385Y33566712D01*
X11596057Y33566155D01*
X11604722Y33565477D01*
X11649676Y33559275D01*
X11693445Y33550670D01*
X11736050Y33539741D01*
X11777509Y33526571D01*
X11817844Y33511240D01*
X11857074Y33493831D01*
X11895219Y33474426D01*
X11932298Y33453104D01*
X11968333Y33429949D01*
X12003342Y33405041D01*
X12037346Y33378462D01*
X12070364Y33350294D01*
X12102417Y33320617D01*
X12133524Y33289515D01*
X12163705Y33257067D01*
X12192981Y33223356D01*
X12204763Y33209249D01*
X12216713Y33195016D01*
X12228409Y33180710D01*
X12239823Y33166272D01*
X12250924Y33151646D01*
X12261682Y33136773D01*
X12272067Y33121596D01*
X12282050Y33106057D01*
X12291599Y33090098D01*
X12296045Y33082248D01*
X12334035Y33012568D01*
X12349405Y32979033D01*
X12362583Y32943259D01*
X12373739Y32902915D01*
X12383039Y32855669D01*
X12396752Y32731151D01*
X12405069Y32551052D01*
X12409340Y32296725D01*
X12411139Y31490780D01*
X11895201Y31490780D01*
X9315514Y31490780D01*
X9309575Y31629952D01*
X9303046Y31769086D01*
X9288559Y32061832D01*
X9284639Y32209830D01*
X9285322Y32311636D01*
X9807090Y32311636D01*
X9807906Y32265755D01*
X9809716Y32214226D01*
X9815576Y32090061D01*
X11895201Y32090061D01*
X11897700Y32317584D01*
X11897373Y32375677D01*
X11895835Y32433598D01*
X11892669Y32491019D01*
X11887460Y32547612D01*
X11886023Y32558870D01*
X11883666Y32575466D01*
X11880813Y32591591D01*
X11877447Y32607272D01*
X11873553Y32622534D01*
X11869113Y32637402D01*
X11864112Y32651903D01*
X11858532Y32666063D01*
X11852356Y32679907D01*
X11845569Y32693461D01*
X11838154Y32706750D01*
X11830094Y32719801D01*
X11821372Y32732639D01*
X11811973Y32745291D01*
X11801879Y32757781D01*
X11791074Y32770136D01*
X11779541Y32782381D01*
X11749076Y32811238D01*
X11718147Y32837095D01*
X11686722Y32860111D01*
X11654769Y32880444D01*
X11622259Y32898252D01*
X11589158Y32913693D01*
X11555435Y32926925D01*
X11521059Y32938106D01*
X11485999Y32947394D01*
X11450222Y32954948D01*
X11413697Y32960926D01*
X11376393Y32965485D01*
X11338279Y32968783D01*
X11299322Y32970980D01*
X11259491Y32972232D01*
X11218755Y32972698D01*
X11162786Y32972938D01*
X11067934Y32973373D01*
X10935607Y32973951D01*
X10675000Y32975000D01*
X10635602Y32975123D01*
X10543690Y32975384D01*
X10514758Y32975433D01*
X10459897Y32975555D01*
X10432417Y32975393D01*
X10404934Y32974922D01*
X10377471Y32974023D01*
X10350049Y32972575D01*
X10322691Y32970459D01*
X10295420Y32967555D01*
X10285377Y32966162D01*
X10253997Y32961336D01*
X10222717Y32955362D01*
X10207160Y32951899D01*
X10191682Y32948095D01*
X10176301Y32943932D01*
X10161035Y32939394D01*
X10145903Y32934461D01*
X10130922Y32929115D01*
X10116110Y32923340D01*
X10101485Y32917117D01*
X10087066Y32910429D01*
X10072870Y32903257D01*
X10058916Y32895584D01*
X10045221Y32887392D01*
X10033857Y32879842D01*
X10022343Y32872213D01*
X10011114Y32864482D01*
X10000183Y32856553D01*
X9994835Y32852484D01*
X9989567Y32848329D01*
X9984381Y32844076D01*
X9979280Y32839713D01*
X9974264Y32835228D01*
X9969337Y32830608D01*
X9964499Y32825842D01*
X9959753Y32820917D01*
X9955101Y32815822D01*
X9950545Y32810544D01*
X9942576Y32800467D01*
X9894548Y32688755D01*
X9875188Y32642117D01*
X9858683Y32600238D01*
X9844847Y32562077D01*
X9833493Y32526593D01*
X9824436Y32492746D01*
X9817490Y32459495D01*
X9812468Y32425799D01*
X9809185Y32390617D01*
X9807454Y32352910D01*
X9807090Y32311636D01*
X9285322Y32311636D01*
X9285632Y32357924D01*
X9288603Y32431777D01*
X9293561Y32505377D01*
X9300758Y32578631D01*
X9310448Y32651448D01*
X9322884Y32723734D01*
X9338317Y32795398D01*
X9357003Y32866347D01*
X9379192Y32936488D01*
X9382982Y32947311D01*
X9394936Y32980216D01*
X9407814Y33012953D01*
X9421690Y33045383D01*
X9436638Y33077369D01*
X9444537Y33093151D01*
X9452732Y33108771D01*
X9461232Y33124209D01*
X9470046Y33139450D01*
X9479184Y33154476D01*
X9488654Y33169270D01*
X9498466Y33183813D01*
X9508630Y33198090D01*
X9513951Y33205280D01*
X9523804Y33218665D01*
X9533716Y33232005D01*
X9540492Y33240998D01*
X9545943Y33248133D01*
X9551467Y33255130D01*
X9557084Y33261996D01*
X9562812Y33268740D01*
X9568672Y33275369D01*
X9574682Y33281892D01*
X9580863Y33288316D01*
X9587234Y33294648D01*
X9593326Y33300529D01*
X9602504Y33309956D01*
X9651876Y33354665D01*
X9702750Y33394078D01*
X9755048Y33428527D01*
X9808694Y33458340D01*
X9863613Y33483848D01*
X9919728Y33505380D01*
X9976962Y33523266D01*
X10035240Y33537836D01*
X10094486Y33549419D01*
X10154623Y33558347D01*
X10215574Y33564948D01*
X10277265Y33569552D01*
X10339618Y33572489D01*
X10402557Y33574090D01*
X10529891Y33574599D01*
X10624480Y33574214D01*
G37*
G36*
X14181201Y28180842D02*
G01*
X13482701Y28180842D01*
X13482701Y28668998D01*
X14181201Y28668998D01*
X14181201Y28180842D01*
G37*
G36*
X12180951Y25041561D02*
G01*
X11728514Y25041561D01*
X11728514Y25791655D01*
X12180951Y25791655D01*
X12180951Y25041561D01*
G37*
G36*
X11057795Y25041561D02*
G01*
X10589482Y25041561D01*
X10589482Y25787686D01*
X11057795Y25787686D01*
X11057795Y25041561D01*
G37*
G36*
X8265334Y29975194D02*
G01*
X8271896Y29975177D01*
X8278458Y29975103D01*
X8285019Y29974955D01*
X8291576Y29974717D01*
X8292887Y29973392D01*
X8293419Y29972826D01*
X8293878Y29972302D01*
X8294270Y29971802D01*
X8294602Y29971309D01*
X8294879Y29970807D01*
X8295110Y29970277D01*
X8295299Y29969703D01*
X8295455Y29969068D01*
X8295582Y29968354D01*
X8295689Y29967545D01*
X8295781Y29966623D01*
X8295864Y29965571D01*
X8296033Y29963008D01*
X8296022Y29952643D01*
X8296038Y29940811D01*
X8295995Y29927673D01*
X8295964Y29883888D01*
X8295924Y29854907D01*
X8295902Y29811680D01*
X8295793Y29738329D01*
X8295545Y29506405D01*
X7612920Y29506405D01*
X7612920Y29974717D01*
X7843044Y29974906D01*
X7989029Y29975003D01*
X8097102Y29975088D01*
X8154133Y29975120D01*
X8208767Y29975170D01*
X8228827Y29975168D01*
X8256926Y29975204D01*
X8265334Y29975194D01*
G37*
G36*
X14181201Y26859249D02*
G01*
X13482701Y26859249D01*
X13482701Y27327561D01*
X14181201Y27327561D01*
X14181201Y26859249D01*
G37*
G36*
X8295545Y28180842D02*
G01*
X7612920Y28180842D01*
X7612920Y28668998D01*
X8295545Y28668998D01*
X8295545Y28180842D01*
G37*
G36*
X9898920Y25057436D02*
G01*
X9446482Y25057436D01*
X9446482Y25791655D01*
X9898920Y25791655D01*
X9898920Y25057436D01*
G37*
D11*
G36*
X25929233Y25147596D02*
G01*
X25968134Y25108695D01*
X26038180Y24898558D01*
X26038180Y24464348D01*
X25390561Y24464348D01*
X25390561Y24979040D01*
X25450171Y25098259D01*
X25499509Y25147596D01*
X25618727Y25207205D01*
X25810015Y25207205D01*
X25929233Y25147596D01*
G37*
G36*
X26881614Y25052358D02*
G01*
X26930952Y25003020D01*
X26990561Y24883802D01*
X26990561Y24464348D01*
X26438180Y24464348D01*
X26438180Y24883802D01*
X26497790Y25003021D01*
X26547128Y25052358D01*
X26666346Y25111967D01*
X26762396Y25111967D01*
X26881614Y25052358D01*
G37*
G36*
X26558104Y28264348D02*
G01*
X25961990Y28065644D01*
X25961990Y28463053D01*
X26558104Y28264348D01*
G37*
G36*
X26644564Y30456598D02*
G01*
X26786376Y30385692D01*
X26920516Y30251551D01*
X26990561Y30041417D01*
X26990561Y29797682D01*
X25390561Y29797682D01*
X25390561Y30041416D01*
X25460605Y30251551D01*
X25594748Y30385693D01*
X25736555Y30456596D01*
X26072327Y30540539D01*
X26308796Y30540539D01*
X26644564Y30456598D01*
G37*
G36*
X26802597Y36369471D02*
G01*
X26930952Y36241115D01*
X26990561Y36121898D01*
X26990561Y35835371D01*
X26930952Y35716155D01*
X26802597Y35587799D01*
X26499272Y35511968D01*
X25881851Y35511968D01*
X25578525Y35587800D01*
X25450171Y35716153D01*
X25390561Y35835372D01*
X25390561Y36121898D01*
X25450171Y36241117D01*
X25578525Y36369470D01*
X25881851Y36445301D01*
X26499272Y36445301D01*
X26802597Y36369471D01*
G37*
G36*
X26881614Y38385692D02*
G01*
X26930952Y38336354D01*
X26990561Y38217136D01*
X26990561Y37702444D01*
X26342942Y37702444D01*
X26342942Y38217136D01*
X26402550Y38336353D01*
X26451891Y38385693D01*
X26571108Y38445301D01*
X26762396Y38445301D01*
X26881614Y38385692D01*
G37*
G36*
X27706452Y23842126D02*
G01*
X24768339Y23842126D01*
X24768339Y25026253D01*
X24990561Y25026253D01*
X24990561Y24264348D01*
X24994404Y24225330D01*
X25024267Y24153234D01*
X25079447Y24098054D01*
X25151543Y24068191D01*
X25190561Y24064348D01*
X27190561Y24064348D01*
X27229579Y24068191D01*
X27301675Y24098054D01*
X27356855Y24153234D01*
X27386718Y24225330D01*
X27390561Y24264348D01*
X27390561Y24931015D01*
X27386718Y24970033D01*
X27383968Y24976671D01*
X27383459Y24983840D01*
X27369447Y25020457D01*
X27274208Y25210934D01*
X27263638Y25227726D01*
X27261617Y25232605D01*
X27257109Y25238098D01*
X27253322Y25244114D01*
X27249330Y25247576D01*
X27236744Y25262912D01*
X27141506Y25358150D01*
X27126170Y25370737D01*
X27122708Y25374728D01*
X27116691Y25378516D01*
X27111199Y25383023D01*
X27106319Y25385045D01*
X27089528Y25395614D01*
X26899052Y25490852D01*
X26862434Y25504865D01*
X26855264Y25505375D01*
X26848627Y25508124D01*
X26809609Y25511967D01*
X26619133Y25511967D01*
X26580115Y25508124D01*
X26573477Y25505375D01*
X26566308Y25504865D01*
X26529691Y25490853D01*
X26339214Y25395614D01*
X26322422Y25385045D01*
X26317543Y25383023D01*
X26312050Y25378516D01*
X26306034Y25374728D01*
X26302572Y25370737D01*
X26287236Y25358150D01*
X26285658Y25356573D01*
X26284363Y25358150D01*
X26189125Y25453388D01*
X26173789Y25465975D01*
X26170327Y25469966D01*
X26164310Y25473754D01*
X26158818Y25478261D01*
X26153938Y25480283D01*
X26137147Y25490852D01*
X25946671Y25586090D01*
X25910053Y25600103D01*
X25902883Y25600613D01*
X25896246Y25603362D01*
X25857228Y25607205D01*
X25571514Y25607205D01*
X25532496Y25603362D01*
X25525858Y25600613D01*
X25518689Y25600103D01*
X25482072Y25586091D01*
X25291595Y25490852D01*
X25274803Y25480283D01*
X25269924Y25478261D01*
X25264431Y25473754D01*
X25258415Y25469966D01*
X25254953Y25465975D01*
X25239617Y25453388D01*
X25144379Y25358150D01*
X25131790Y25342812D01*
X25127802Y25339352D01*
X25124017Y25333341D01*
X25119506Y25327843D01*
X25117483Y25322962D01*
X25106915Y25306172D01*
X25011676Y25115696D01*
X24997664Y25079079D01*
X24997154Y25071912D01*
X24994404Y25065271D01*
X24990561Y25026253D01*
X24768339Y25026253D01*
X24768339Y27216729D01*
X24990561Y27216729D01*
X24990561Y26264348D01*
X24994404Y26225330D01*
X25024267Y26153234D01*
X25079447Y26098054D01*
X25151543Y26068191D01*
X25190561Y26064348D01*
X27190561Y26064348D01*
X27229579Y26068191D01*
X27301675Y26098054D01*
X27356855Y26153234D01*
X27386718Y26225330D01*
X27386718Y26303366D01*
X27356855Y26375462D01*
X27301675Y26430642D01*
X27229579Y26460505D01*
X27190561Y26464348D01*
X25390561Y26464348D01*
X25390561Y27216729D01*
X25386718Y27255747D01*
X25356855Y27327843D01*
X25301675Y27383023D01*
X25245865Y27406140D01*
X25253806Y27407945D01*
X27253807Y28074611D01*
X27289607Y28090596D01*
X27300401Y28099958D01*
X27313184Y28106349D01*
X27329614Y28125295D01*
X27348560Y28141725D01*
X27354951Y28154508D01*
X27364313Y28165302D01*
X27372242Y28189089D01*
X27383459Y28211523D01*
X27384472Y28225780D01*
X27388990Y28239333D01*
X27387212Y28264341D01*
X27388991Y28289363D01*
X27384470Y28302924D01*
X27383458Y28317173D01*
X27372244Y28339601D01*
X27364313Y28363394D01*
X27354951Y28374189D01*
X27348560Y28386971D01*
X27329614Y28403402D01*
X27313184Y28422347D01*
X27300401Y28428739D01*
X27289607Y28438100D01*
X27253806Y28454085D01*
X25253807Y29120752D01*
X25215576Y29129444D01*
X25137736Y29123913D01*
X25067938Y29089014D01*
X25016809Y29030061D01*
X24992132Y28956030D01*
X24997663Y28878190D01*
X25032562Y28808392D01*
X25091515Y28757263D01*
X25127315Y28741278D01*
X25561990Y28596387D01*
X25561990Y27932311D01*
X25127316Y27787419D01*
X25091515Y27771434D01*
X25032562Y27720305D01*
X24997663Y27650507D01*
X24992132Y27572667D01*
X25016809Y27498636D01*
X25067938Y27439683D01*
X25135129Y27406088D01*
X25079447Y27383023D01*
X25024267Y27327843D01*
X24994404Y27255747D01*
X24990561Y27216729D01*
X24768339Y27216729D01*
X24768339Y30073872D01*
X24990561Y30073872D01*
X24990561Y29597682D01*
X24994404Y29558664D01*
X25024267Y29486568D01*
X25079447Y29431388D01*
X25151543Y29401525D01*
X25190561Y29397682D01*
X27190561Y29397682D01*
X27229579Y29401525D01*
X27301675Y29431388D01*
X27356855Y29486568D01*
X27386718Y29558664D01*
X27390561Y29597682D01*
X27390561Y30073872D01*
X27388615Y30093621D01*
X27388990Y30098886D01*
X27387414Y30105814D01*
X27386718Y30112890D01*
X27384696Y30117771D01*
X27380298Y30137117D01*
X27285060Y30422832D01*
X27269075Y30458633D01*
X27264367Y30464062D01*
X27261617Y30470701D01*
X27236745Y30501008D01*
X27046268Y30691484D01*
X27030932Y30704071D01*
X27027470Y30708062D01*
X27021453Y30711850D01*
X27015961Y30716357D01*
X27011081Y30718379D01*
X26994290Y30728948D01*
X26803814Y30824186D01*
X26800958Y30825279D01*
X26799799Y30826138D01*
X26783424Y30831989D01*
X26767196Y30838199D01*
X26765757Y30838302D01*
X26762878Y30839330D01*
X26381926Y30934568D01*
X26375159Y30935569D01*
X26372437Y30936696D01*
X26357742Y30938144D01*
X26343141Y30940302D01*
X26340227Y30939869D01*
X26333419Y30940539D01*
X26047704Y30940539D01*
X26040895Y30939869D01*
X26037982Y30940302D01*
X26023388Y30938145D01*
X26008686Y30936696D01*
X26005960Y30935568D01*
X25999197Y30934567D01*
X25618245Y30839330D01*
X25615365Y30838302D01*
X25613927Y30838199D01*
X25597687Y30831985D01*
X25581324Y30826138D01*
X25580165Y30825280D01*
X25577310Y30824187D01*
X25386833Y30728948D01*
X25370041Y30718379D01*
X25365162Y30716357D01*
X25359668Y30711849D01*
X25353653Y30708062D01*
X25350192Y30704073D01*
X25334855Y30691485D01*
X25144379Y30501008D01*
X25119506Y30470701D01*
X25116755Y30464062D01*
X25112048Y30458633D01*
X25096063Y30422833D01*
X25000824Y30137118D01*
X24996424Y30117769D01*
X24994404Y30112890D01*
X24993707Y30105816D01*
X24992132Y30098887D01*
X24992506Y30093622D01*
X24990561Y30073872D01*
X24768339Y30073872D01*
X24768339Y32550063D01*
X24990561Y32550063D01*
X24990561Y31597682D01*
X24994404Y31558664D01*
X25024267Y31486568D01*
X25079447Y31431388D01*
X25151543Y31401525D01*
X25190561Y31397682D01*
X27190561Y31397682D01*
X27229579Y31401525D01*
X27301675Y31431388D01*
X27356855Y31486568D01*
X27386718Y31558664D01*
X27390561Y31597682D01*
X27390561Y32550063D01*
X27386718Y32589081D01*
X27356855Y32661177D01*
X27301675Y32716357D01*
X27229579Y32746220D01*
X27151543Y32746220D01*
X27079447Y32716357D01*
X27024267Y32661177D01*
X26994404Y32589081D01*
X26990561Y32550063D01*
X26990561Y31797682D01*
X26438180Y31797682D01*
X26438180Y32264349D01*
X26434337Y32303367D01*
X26404474Y32375463D01*
X26349294Y32430643D01*
X26277198Y32460506D01*
X26199162Y32460506D01*
X26127066Y32430643D01*
X26071886Y32375463D01*
X26042023Y32303367D01*
X26038180Y32264349D01*
X26038180Y31797682D01*
X25390561Y31797682D01*
X25390561Y32550063D01*
X25386718Y32589081D01*
X25356855Y32661177D01*
X25301675Y32716357D01*
X25229579Y32746220D01*
X25151543Y32746220D01*
X25079447Y32716357D01*
X25024267Y32661177D01*
X24994404Y32589081D01*
X24990561Y32550063D01*
X24768339Y32550063D01*
X24768339Y34169111D01*
X24990561Y34169111D01*
X24990561Y33978635D01*
X24992506Y33958886D01*
X24992132Y33953620D01*
X24993707Y33946692D01*
X24994404Y33939617D01*
X24996424Y33934739D01*
X25000824Y33915389D01*
X25096063Y33629674D01*
X25112048Y33593874D01*
X25116755Y33588446D01*
X25119506Y33581806D01*
X25144379Y33551499D01*
X25334855Y33361022D01*
X25350192Y33348435D01*
X25353653Y33344445D01*
X25359668Y33340659D01*
X25365162Y33336150D01*
X25370041Y33334129D01*
X25386833Y33323559D01*
X25577310Y33228320D01*
X25580165Y33227228D01*
X25581324Y33226369D01*
X25597687Y33220523D01*
X25613927Y33214308D01*
X25615365Y33214206D01*
X25618245Y33213177D01*
X25999197Y33117940D01*
X26005960Y33116940D01*
X26008686Y33115811D01*
X26023388Y33114363D01*
X26037982Y33112205D01*
X26040895Y33112639D01*
X26047704Y33111968D01*
X26333419Y33111968D01*
X26340227Y33112639D01*
X26343141Y33112205D01*
X26357742Y33114364D01*
X26372437Y33115811D01*
X26375159Y33116939D01*
X26381926Y33117939D01*
X26762878Y33213177D01*
X26765757Y33214206D01*
X26767196Y33214308D01*
X26783424Y33220519D01*
X26799799Y33226369D01*
X26800958Y33227229D01*
X26803814Y33228321D01*
X26994290Y33323559D01*
X27011081Y33334129D01*
X27015961Y33336150D01*
X27021453Y33340658D01*
X27027470Y33344445D01*
X27030932Y33348437D01*
X27046268Y33361023D01*
X27236745Y33551499D01*
X27261617Y33581806D01*
X27264367Y33588446D01*
X27269075Y33593874D01*
X27285060Y33629675D01*
X27380298Y33915390D01*
X27384696Y33934737D01*
X27386718Y33939617D01*
X27387414Y33946694D01*
X27388990Y33953621D01*
X27388615Y33958887D01*
X27390561Y33978635D01*
X27390561Y34169111D01*
X27388615Y34188861D01*
X27388990Y34194126D01*
X27387414Y34201055D01*
X27386718Y34208129D01*
X27384697Y34213008D01*
X27380298Y34232357D01*
X27285060Y34518071D01*
X27269075Y34553871D01*
X27264367Y34559300D01*
X27261617Y34565939D01*
X27236744Y34596246D01*
X27141506Y34691484D01*
X27111199Y34716357D01*
X27039103Y34746220D01*
X26961067Y34746220D01*
X26888971Y34716357D01*
X26833791Y34661177D01*
X26803928Y34589081D01*
X26803928Y34511045D01*
X26833791Y34438949D01*
X26858664Y34408642D01*
X26920515Y34346791D01*
X26990561Y34136654D01*
X26990561Y34011091D01*
X26920516Y33800957D01*
X26786376Y33666816D01*
X26644564Y33595910D01*
X26308796Y33511968D01*
X26072327Y33511968D01*
X25736555Y33595911D01*
X25594748Y33666815D01*
X25460605Y33800957D01*
X25390561Y34011092D01*
X25390561Y34136657D01*
X25460605Y34346789D01*
X25522459Y34408642D01*
X25547332Y34438949D01*
X25577195Y34511045D01*
X25577195Y34589081D01*
X25547332Y34661177D01*
X25492152Y34716357D01*
X25420056Y34746220D01*
X25342020Y34746220D01*
X25269924Y34716357D01*
X25239617Y34691484D01*
X25144379Y34596246D01*
X25119506Y34565939D01*
X25116755Y34559300D01*
X25112048Y34553871D01*
X25096063Y34518071D01*
X25000825Y34232357D01*
X24996425Y34213011D01*
X24994404Y34208129D01*
X24993707Y34201053D01*
X24992132Y34194126D01*
X24992506Y34188861D01*
X24990561Y34169111D01*
X24768339Y34169111D01*
X24768339Y36169111D01*
X24990561Y36169111D01*
X24990561Y35788158D01*
X24994404Y35749140D01*
X24997154Y35742500D01*
X24997664Y35735332D01*
X25011676Y35698715D01*
X25106915Y35508239D01*
X25117483Y35491450D01*
X25119506Y35486568D01*
X25124017Y35481071D01*
X25127802Y35475059D01*
X25131790Y35471600D01*
X25144379Y35456261D01*
X25334855Y35265784D01*
X25365162Y35240912D01*
X25378900Y35235222D01*
X25390848Y35226369D01*
X25427769Y35213177D01*
X25808721Y35117940D01*
X25815484Y35116940D01*
X25818210Y35115811D01*
X25832912Y35114363D01*
X25847506Y35112205D01*
X25850419Y35112639D01*
X25857228Y35111968D01*
X26523895Y35111968D01*
X26530703Y35112639D01*
X26533617Y35112205D01*
X26548218Y35114364D01*
X26562913Y35115811D01*
X26565635Y35116939D01*
X26572402Y35117939D01*
X26953354Y35213177D01*
X26990275Y35226369D01*
X27002222Y35235222D01*
X27015961Y35240912D01*
X27046268Y35265785D01*
X27236745Y35456261D01*
X27249332Y35471599D01*
X27253322Y35475059D01*
X27257108Y35481075D01*
X27261617Y35486568D01*
X27263638Y35491448D01*
X27274208Y35508239D01*
X27369447Y35698716D01*
X27383459Y35735333D01*
X27383968Y35742503D01*
X27386718Y35749140D01*
X27390561Y35788158D01*
X27390561Y36169111D01*
X27386718Y36208129D01*
X27383968Y36214767D01*
X27383459Y36221936D01*
X27369447Y36258553D01*
X27274208Y36449030D01*
X27263638Y36465822D01*
X27261617Y36470701D01*
X27257108Y36476195D01*
X27253322Y36482210D01*
X27249332Y36485671D01*
X27236745Y36501008D01*
X27046268Y36691484D01*
X27015961Y36716357D01*
X27002222Y36722048D01*
X26990275Y36730900D01*
X26953354Y36744092D01*
X26572402Y36839330D01*
X26565635Y36840331D01*
X26562913Y36841458D01*
X26548218Y36842906D01*
X26533617Y36845064D01*
X26530703Y36844631D01*
X26523895Y36845301D01*
X25857228Y36845301D01*
X25850419Y36844631D01*
X25847506Y36845064D01*
X25832912Y36842907D01*
X25818210Y36841458D01*
X25815484Y36840330D01*
X25808721Y36839329D01*
X25427769Y36744092D01*
X25390848Y36730900D01*
X25378900Y36722048D01*
X25365162Y36716357D01*
X25334855Y36691485D01*
X25144379Y36501008D01*
X25131790Y36485670D01*
X25127802Y36482210D01*
X25124017Y36476199D01*
X25119506Y36470701D01*
X25117483Y36465820D01*
X25106915Y36449030D01*
X25011676Y36258554D01*
X24997664Y36221937D01*
X24997154Y36214770D01*
X24994404Y36208129D01*
X24990561Y36169111D01*
X24768339Y36169111D01*
X24768339Y38649636D01*
X24990608Y38649636D01*
X25004170Y38572787D01*
X25046108Y38506978D01*
X25075868Y38481455D01*
X25942942Y37874503D01*
X25942942Y37702444D01*
X25190561Y37702444D01*
X25151543Y37698601D01*
X25079447Y37668738D01*
X25024267Y37613558D01*
X24994404Y37541462D01*
X24994404Y37463426D01*
X25024267Y37391330D01*
X25079447Y37336150D01*
X25151543Y37306287D01*
X25190561Y37302444D01*
X27190561Y37302444D01*
X27229579Y37306287D01*
X27301675Y37336150D01*
X27356855Y37391330D01*
X27386718Y37463426D01*
X27390561Y37502444D01*
X27390561Y38264349D01*
X27386718Y38303367D01*
X27383968Y38310005D01*
X27383459Y38317174D01*
X27369447Y38353791D01*
X27274208Y38544268D01*
X27263638Y38561060D01*
X27261617Y38565939D01*
X27257109Y38571432D01*
X27253322Y38577448D01*
X27249330Y38580910D01*
X27236744Y38596246D01*
X27141506Y38691484D01*
X27126170Y38704071D01*
X27122708Y38708062D01*
X27116691Y38711850D01*
X27111199Y38716357D01*
X27106319Y38718379D01*
X27089528Y38728948D01*
X26899052Y38824186D01*
X26862434Y38838199D01*
X26855264Y38838709D01*
X26848627Y38841458D01*
X26809609Y38845301D01*
X26523895Y38845301D01*
X26484877Y38841458D01*
X26478239Y38838709D01*
X26471070Y38838199D01*
X26434453Y38824187D01*
X26243976Y38728948D01*
X26227187Y38718380D01*
X26222306Y38716358D01*
X26216811Y38711849D01*
X26210796Y38708062D01*
X26207334Y38704072D01*
X26191999Y38691485D01*
X26096759Y38596247D01*
X26084171Y38580910D01*
X26080181Y38577448D01*
X26076393Y38571432D01*
X26071887Y38565940D01*
X26069866Y38561062D01*
X26059295Y38544268D01*
X25964057Y38353792D01*
X25962304Y38349212D01*
X25305254Y38809147D01*
X25271085Y38828374D01*
X25194896Y38845254D01*
X25118047Y38831692D01*
X25052238Y38789754D01*
X25007488Y38725825D01*
X24990608Y38649636D01*
X24768339Y38649636D01*
X24768339Y40454825D01*
X24990561Y40454825D01*
X24990561Y39502444D01*
X24994404Y39463426D01*
X25024267Y39391330D01*
X25079447Y39336150D01*
X25151543Y39306287D01*
X25190561Y39302444D01*
X27190561Y39302444D01*
X27229579Y39306287D01*
X27301675Y39336150D01*
X27356855Y39391330D01*
X27386718Y39463426D01*
X27390561Y39502444D01*
X27390561Y40454825D01*
X27386718Y40493843D01*
X27356855Y40565939D01*
X27301675Y40621119D01*
X27229579Y40650982D01*
X27151543Y40650982D01*
X27079447Y40621119D01*
X27024267Y40565939D01*
X26994404Y40493843D01*
X26990561Y40454825D01*
X26990561Y39702444D01*
X26438180Y39702444D01*
X26438180Y40169111D01*
X26434337Y40208129D01*
X26404474Y40280225D01*
X26349294Y40335405D01*
X26277198Y40365268D01*
X26199162Y40365268D01*
X26127066Y40335405D01*
X26071886Y40280225D01*
X26042023Y40208129D01*
X26038180Y40169111D01*
X26038180Y39702444D01*
X25390561Y39702444D01*
X25390561Y40454825D01*
X25386718Y40493843D01*
X25356855Y40565939D01*
X25301675Y40621119D01*
X25229579Y40650982D01*
X25151543Y40650982D01*
X25079447Y40621119D01*
X25024267Y40565939D01*
X24994404Y40493843D01*
X24990561Y40454825D01*
X24768339Y40454825D01*
X24768339Y42835777D01*
X25752466Y42835777D01*
X25752466Y41311968D01*
X25756309Y41272950D01*
X25786172Y41200854D01*
X25841352Y41145674D01*
X25913448Y41115811D01*
X25991484Y41115811D01*
X26063580Y41145674D01*
X26118760Y41200854D01*
X26148623Y41272950D01*
X26152466Y41311968D01*
X26152466Y42835777D01*
X26148623Y42874795D01*
X26118760Y42946891D01*
X26063580Y43002071D01*
X25991484Y43031934D01*
X25913448Y43031934D01*
X25841352Y43002071D01*
X25786172Y42946891D01*
X25756309Y42874795D01*
X25752466Y42835777D01*
X24768339Y42835777D01*
X24768339Y45160509D01*
X24994404Y45160509D01*
X24994404Y45082473D01*
X25024267Y45010377D01*
X25079447Y44955197D01*
X25151543Y44925334D01*
X25190561Y44921491D01*
X26289047Y44921491D01*
X25677413Y44636062D01*
X25663124Y44627598D01*
X25658286Y44625838D01*
X25654863Y44622704D01*
X25643681Y44616079D01*
X25623152Y44593663D01*
X25600736Y44573134D01*
X25596978Y44565083D01*
X25590977Y44558529D01*
X25580589Y44529964D01*
X25567736Y44502420D01*
X25567345Y44493543D01*
X25564309Y44485191D01*
X25565643Y44454826D01*
X25564309Y44424459D01*
X25567345Y44416108D01*
X25567736Y44407231D01*
X25580588Y44379690D01*
X25590977Y44351121D01*
X25596978Y44344568D01*
X25600736Y44336516D01*
X25623152Y44315988D01*
X25643681Y44293571D01*
X25654863Y44286947D01*
X25658286Y44283812D01*
X25663124Y44282053D01*
X25677413Y44273588D01*
X26289048Y43988158D01*
X25190561Y43988158D01*
X25151543Y43984315D01*
X25079447Y43954452D01*
X25024267Y43899272D01*
X24994404Y43827176D01*
X24994404Y43749140D01*
X25024267Y43677044D01*
X25079447Y43621864D01*
X25151543Y43592001D01*
X25190561Y43588158D01*
X27190561Y43588158D01*
X27216210Y43590685D01*
X27220927Y43590477D01*
X27223460Y43591399D01*
X27229579Y43592001D01*
X27261645Y43605284D01*
X27294266Y43617145D01*
X27297555Y43620158D01*
X27301675Y43621864D01*
X27326211Y43646401D01*
X27351815Y43669848D01*
X27353701Y43673891D01*
X27356855Y43677044D01*
X27370132Y43709100D01*
X27384816Y43740563D01*
X27385011Y43745022D01*
X27386718Y43749140D01*
X27386718Y43783832D01*
X27388243Y43818524D01*
X27386718Y43822718D01*
X27386718Y43827176D01*
X27373437Y43859238D01*
X27361574Y43891862D01*
X27358561Y43895152D01*
X27356855Y43899272D01*
X27332313Y43923814D01*
X27308871Y43949412D01*
X27303582Y43952545D01*
X27301675Y43954452D01*
X27297311Y43956260D01*
X27275138Y43969394D01*
X26234931Y44454825D01*
X27275138Y44940254D01*
X27297310Y44953390D01*
X27301675Y44955197D01*
X27303582Y44957105D01*
X27308870Y44960237D01*
X27332312Y44985835D01*
X27356855Y45010377D01*
X27358561Y45014497D01*
X27361574Y45017786D01*
X27373436Y45050410D01*
X27386718Y45082473D01*
X27386718Y45086933D01*
X27388242Y45091124D01*
X27386718Y45125794D01*
X27386718Y45160509D01*
X27385010Y45164631D01*
X27384815Y45169085D01*
X27370141Y45200530D01*
X27356855Y45232605D01*
X27353700Y45235760D01*
X27351815Y45239800D01*
X27326222Y45263238D01*
X27301675Y45287785D01*
X27297553Y45289492D01*
X27294265Y45292504D01*
X27261649Y45304364D01*
X27229579Y45317648D01*
X27223460Y45318251D01*
X27220927Y45319172D01*
X27216210Y45318965D01*
X27190561Y45321491D01*
X25190561Y45321491D01*
X25151543Y45317648D01*
X25079447Y45287785D01*
X25024267Y45232605D01*
X24994404Y45160509D01*
X24768339Y45160509D01*
X24768339Y46740539D01*
X24990561Y46740539D01*
X24990561Y46264348D01*
X24994404Y46225330D01*
X24997154Y46218690D01*
X24997664Y46211522D01*
X25011676Y46174905D01*
X25106915Y45984429D01*
X25117483Y45967640D01*
X25119506Y45962758D01*
X25124017Y45957261D01*
X25127802Y45951249D01*
X25131790Y45947790D01*
X25144379Y45932451D01*
X25239617Y45837213D01*
X25269924Y45812340D01*
X25342020Y45782477D01*
X25420056Y45782477D01*
X25492152Y45812340D01*
X25547332Y45867520D01*
X25577195Y45939616D01*
X25577195Y46017652D01*
X25547332Y46089748D01*
X25522459Y46120055D01*
X25450171Y46192343D01*
X25390561Y46311562D01*
X25390561Y46693326D01*
X25450171Y46812545D01*
X25499509Y46861882D01*
X25618727Y46921491D01*
X26000491Y46921491D01*
X26119708Y46861882D01*
X26169048Y46812544D01*
X26228657Y46693326D01*
X26228657Y46311561D01*
X26169048Y46192344D01*
X26096759Y46120056D01*
X26071887Y46089749D01*
X26068033Y46080446D01*
X26061655Y46072650D01*
X26053210Y46044661D01*
X26042023Y46017653D01*
X26042023Y46007582D01*
X26039114Y45997940D01*
X26042023Y45968851D01*
X26042023Y45939617D01*
X26045876Y45930314D01*
X26046879Y45920291D01*
X26060699Y45894528D01*
X26071886Y45867521D01*
X26079007Y45860400D01*
X26083768Y45851525D01*
X26106393Y45833013D01*
X26127065Y45812341D01*
X26136368Y45808488D01*
X26144164Y45802109D01*
X26172153Y45793665D01*
X26199161Y45782477D01*
X26209232Y45782477D01*
X26218874Y45779568D01*
X26258081Y45779627D01*
X27210462Y45874865D01*
X27224679Y45877715D01*
X27229579Y45877715D01*
X27234173Y45879619D01*
X27248904Y45882571D01*
X27274663Y45896390D01*
X27301675Y45907578D01*
X27308797Y45914701D01*
X27317670Y45919460D01*
X27336180Y45942084D01*
X27356855Y45962758D01*
X27360708Y45972062D01*
X27367086Y45979856D01*
X27375530Y46007846D01*
X27386718Y46034854D01*
X27388190Y46049806D01*
X27389627Y46054566D01*
X27389139Y46059441D01*
X27390561Y46073872D01*
X27390561Y47026253D01*
X27386718Y47065271D01*
X27356855Y47137367D01*
X27301675Y47192547D01*
X27229579Y47222410D01*
X27151543Y47222410D01*
X27079447Y47192547D01*
X27024267Y47137367D01*
X26994404Y47065271D01*
X26990561Y47026253D01*
X26990561Y46254870D01*
X26622016Y46218015D01*
X26622064Y46218693D01*
X26624814Y46225330D01*
X26628657Y46264348D01*
X26628657Y46740539D01*
X26624814Y46779557D01*
X26622064Y46786195D01*
X26621555Y46793364D01*
X26607543Y46829981D01*
X26512304Y47020458D01*
X26501735Y47037248D01*
X26499713Y47042130D01*
X26495202Y47047627D01*
X26491418Y47053638D01*
X26487429Y47057098D01*
X26474840Y47072437D01*
X26379601Y47167675D01*
X26364264Y47180261D01*
X26360803Y47184252D01*
X26354784Y47188041D01*
X26349293Y47192547D01*
X26344416Y47194567D01*
X26327623Y47205138D01*
X26137147Y47300376D01*
X26100529Y47314389D01*
X26093359Y47314899D01*
X26086722Y47317648D01*
X26047704Y47321491D01*
X25571514Y47321491D01*
X25532496Y47317648D01*
X25525858Y47314899D01*
X25518689Y47314389D01*
X25482072Y47300377D01*
X25291595Y47205138D01*
X25274803Y47194569D01*
X25269924Y47192547D01*
X25264431Y47188040D01*
X25258415Y47184252D01*
X25254953Y47180261D01*
X25239617Y47167674D01*
X25144379Y47072436D01*
X25131790Y47057098D01*
X25127802Y47053638D01*
X25124017Y47047627D01*
X25119506Y47042129D01*
X25117483Y47037248D01*
X25106915Y47020458D01*
X25011676Y46829982D01*
X24997664Y46793365D01*
X24997154Y46786198D01*
X24994404Y46779557D01*
X24990561Y46740539D01*
X24768339Y46740539D01*
X24768339Y48874795D01*
X24994404Y48874795D01*
X24994404Y48796759D01*
X25024267Y48724663D01*
X25079447Y48669483D01*
X25151543Y48639620D01*
X25190561Y48635777D01*
X25657228Y48635777D01*
X25657228Y47883396D01*
X25659173Y47863648D01*
X25658799Y47858382D01*
X25660066Y47854581D01*
X25661071Y47844378D01*
X25673340Y47814756D01*
X25683476Y47784350D01*
X25688183Y47778922D01*
X25690934Y47772282D01*
X25713601Y47749615D01*
X25734605Y47725397D01*
X25741033Y47722183D01*
X25746114Y47717102D01*
X25775727Y47704836D01*
X25804403Y47690498D01*
X25811571Y47689989D01*
X25818210Y47687239D01*
X25850268Y47687239D01*
X25882242Y47684967D01*
X25892235Y47687239D01*
X25896246Y47687239D01*
X25901126Y47689261D01*
X25920473Y47693659D01*
X27349046Y48169849D01*
X27384846Y48185834D01*
X27443799Y48236963D01*
X27478698Y48306761D01*
X27484230Y48384601D01*
X27459552Y48458632D01*
X27408423Y48517585D01*
X27338625Y48552484D01*
X27260786Y48558015D01*
X27222555Y48549323D01*
X26057228Y48160882D01*
X26057228Y48635777D01*
X26523895Y48635777D01*
X26562913Y48639620D01*
X26635009Y48669483D01*
X26690189Y48724663D01*
X26720052Y48796759D01*
X26720052Y48874795D01*
X26690189Y48946891D01*
X26635009Y49002071D01*
X26562913Y49031934D01*
X26523895Y49035777D01*
X26057228Y49035777D01*
X26057228Y49121491D01*
X26053385Y49160509D01*
X26023522Y49232605D01*
X25968342Y49287785D01*
X25896246Y49317648D01*
X25818210Y49317648D01*
X25746114Y49287785D01*
X25690934Y49232605D01*
X25661071Y49160509D01*
X25657228Y49121491D01*
X25657228Y49035777D01*
X25190561Y49035777D01*
X25151543Y49031934D01*
X25079447Y49002071D01*
X25024267Y48946891D01*
X24994404Y48874795D01*
X24768339Y48874795D01*
X24768339Y50835777D01*
X24990561Y50835777D01*
X24990561Y49883396D01*
X24994404Y49844378D01*
X25024267Y49772282D01*
X25079447Y49717102D01*
X25151543Y49687239D01*
X25190561Y49683396D01*
X27190561Y49683396D01*
X27229579Y49687239D01*
X27301675Y49717102D01*
X27356855Y49772282D01*
X27386718Y49844378D01*
X27390561Y49883396D01*
X27390561Y50835777D01*
X27386718Y50874795D01*
X27356855Y50946891D01*
X27301675Y51002071D01*
X27229579Y51031934D01*
X27151543Y51031934D01*
X27079447Y51002071D01*
X27024267Y50946891D01*
X26994404Y50874795D01*
X26990561Y50835777D01*
X26990561Y50083396D01*
X26438180Y50083396D01*
X26438180Y50550063D01*
X26434337Y50589081D01*
X26404474Y50661177D01*
X26349294Y50716357D01*
X26277198Y50746220D01*
X26199162Y50746220D01*
X26127066Y50716357D01*
X26071886Y50661177D01*
X26042023Y50589081D01*
X26038180Y50550063D01*
X26038180Y50083396D01*
X25390561Y50083396D01*
X25390561Y50835777D01*
X25386718Y50874795D01*
X25356855Y50946891D01*
X25301675Y51002071D01*
X25229579Y51031934D01*
X25151543Y51031934D01*
X25079447Y51002071D01*
X25024267Y50946891D01*
X24994404Y50874795D01*
X24990561Y50835777D01*
X24768339Y50835777D01*
X24768339Y51254156D01*
X27706452Y51254156D01*
X27706452Y23842126D01*
G37*
D12*
X13462295Y13664286D02*
X13081342Y13930953D01*
X13462295Y14121429D02*
X12662295Y14121429D01*
X12662295Y14121429D02*
X12662295Y13816667D01*
X12662295Y13816667D02*
X12700390Y13740477D01*
X12700390Y13740477D02*
X12738485Y13702382D01*
X12738485Y13702382D02*
X12814676Y13664286D01*
X12814676Y13664286D02*
X12928961Y13664286D01*
X12928961Y13664286D02*
X13005152Y13702382D01*
X13005152Y13702382D02*
X13043247Y13740477D01*
X13043247Y13740477D02*
X13081342Y13816667D01*
X13081342Y13816667D02*
X13081342Y14121429D01*
X12928961Y12978572D02*
X13462295Y12978572D01*
X12624200Y13169048D02*
X13195628Y13359525D01*
X13195628Y13359525D02*
X13195628Y12864286D01*
X13005152Y12445239D02*
X12967057Y12521429D01*
X12967057Y12521429D02*
X12928961Y12559524D01*
X12928961Y12559524D02*
X12852771Y12597620D01*
X12852771Y12597620D02*
X12814676Y12597620D01*
X12814676Y12597620D02*
X12738485Y12559524D01*
X12738485Y12559524D02*
X12700390Y12521429D01*
X12700390Y12521429D02*
X12662295Y12445239D01*
X12662295Y12445239D02*
X12662295Y12292858D01*
X12662295Y12292858D02*
X12700390Y12216667D01*
X12700390Y12216667D02*
X12738485Y12178572D01*
X12738485Y12178572D02*
X12814676Y12140477D01*
X12814676Y12140477D02*
X12852771Y12140477D01*
X12852771Y12140477D02*
X12928961Y12178572D01*
X12928961Y12178572D02*
X12967057Y12216667D01*
X12967057Y12216667D02*
X13005152Y12292858D01*
X13005152Y12292858D02*
X13005152Y12445239D01*
X13005152Y12445239D02*
X13043247Y12521429D01*
X13043247Y12521429D02*
X13081342Y12559524D01*
X13081342Y12559524D02*
X13157533Y12597620D01*
X13157533Y12597620D02*
X13309914Y12597620D01*
X13309914Y12597620D02*
X13386104Y12559524D01*
X13386104Y12559524D02*
X13424200Y12521429D01*
X13424200Y12521429D02*
X13462295Y12445239D01*
X13462295Y12445239D02*
X13462295Y12292858D01*
X13462295Y12292858D02*
X13424200Y12216667D01*
X13424200Y12216667D02*
X13386104Y12178572D01*
X13386104Y12178572D02*
X13309914Y12140477D01*
X13309914Y12140477D02*
X13157533Y12140477D01*
X13157533Y12140477D02*
X13081342Y12178572D01*
X13081342Y12178572D02*
X13043247Y12216667D01*
X13043247Y12216667D02*
X13005152Y12292858D01*
X14336104Y57714286D02*
X14374200Y57752382D01*
X14374200Y57752382D02*
X14412295Y57866667D01*
X14412295Y57866667D02*
X14412295Y57942858D01*
X14412295Y57942858D02*
X14374200Y58057144D01*
X14374200Y58057144D02*
X14298009Y58133334D01*
X14298009Y58133334D02*
X14221819Y58171429D01*
X14221819Y58171429D02*
X14069438Y58209525D01*
X14069438Y58209525D02*
X13955152Y58209525D01*
X13955152Y58209525D02*
X13802771Y58171429D01*
X13802771Y58171429D02*
X13726580Y58133334D01*
X13726580Y58133334D02*
X13650390Y58057144D01*
X13650390Y58057144D02*
X13612295Y57942858D01*
X13612295Y57942858D02*
X13612295Y57866667D01*
X13612295Y57866667D02*
X13650390Y57752382D01*
X13650390Y57752382D02*
X13688485Y57714286D01*
X14412295Y56952382D02*
X14412295Y57409525D01*
X14412295Y57180953D02*
X13612295Y57180953D01*
X13612295Y57180953D02*
X13726580Y57257144D01*
X13726580Y57257144D02*
X13802771Y57333334D01*
X13802771Y57333334D02*
X13840866Y57409525D01*
X13878961Y56266667D02*
X14412295Y56266667D01*
X13574200Y56457143D02*
X14145628Y56647620D01*
X14145628Y56647620D02*
X14145628Y56152381D01*
X15586104Y56933333D02*
X15624200Y56971429D01*
X15624200Y56971429D02*
X15662295Y57085714D01*
X15662295Y57085714D02*
X15662295Y57161905D01*
X15662295Y57161905D02*
X15624200Y57276191D01*
X15624200Y57276191D02*
X15548009Y57352381D01*
X15548009Y57352381D02*
X15471819Y57390476D01*
X15471819Y57390476D02*
X15319438Y57428572D01*
X15319438Y57428572D02*
X15205152Y57428572D01*
X15205152Y57428572D02*
X15052771Y57390476D01*
X15052771Y57390476D02*
X14976580Y57352381D01*
X14976580Y57352381D02*
X14900390Y57276191D01*
X14900390Y57276191D02*
X14862295Y57161905D01*
X14862295Y57161905D02*
X14862295Y57085714D01*
X14862295Y57085714D02*
X14900390Y56971429D01*
X14900390Y56971429D02*
X14938485Y56933333D01*
X15128961Y56247619D02*
X15662295Y56247619D01*
X14824200Y56438095D02*
X15395628Y56628572D01*
X15395628Y56628572D02*
X15395628Y56133333D01*
X17586104Y56933333D02*
X17624200Y56971429D01*
X17624200Y56971429D02*
X17662295Y57085714D01*
X17662295Y57085714D02*
X17662295Y57161905D01*
X17662295Y57161905D02*
X17624200Y57276191D01*
X17624200Y57276191D02*
X17548009Y57352381D01*
X17548009Y57352381D02*
X17471819Y57390476D01*
X17471819Y57390476D02*
X17319438Y57428572D01*
X17319438Y57428572D02*
X17205152Y57428572D01*
X17205152Y57428572D02*
X17052771Y57390476D01*
X17052771Y57390476D02*
X16976580Y57352381D01*
X16976580Y57352381D02*
X16900390Y57276191D01*
X16900390Y57276191D02*
X16862295Y57161905D01*
X16862295Y57161905D02*
X16862295Y57085714D01*
X16862295Y57085714D02*
X16900390Y56971429D01*
X16900390Y56971429D02*
X16938485Y56933333D01*
X16862295Y56666667D02*
X16862295Y56171429D01*
X16862295Y56171429D02*
X17167057Y56438095D01*
X17167057Y56438095D02*
X17167057Y56323810D01*
X17167057Y56323810D02*
X17205152Y56247619D01*
X17205152Y56247619D02*
X17243247Y56209524D01*
X17243247Y56209524D02*
X17319438Y56171429D01*
X17319438Y56171429D02*
X17509914Y56171429D01*
X17509914Y56171429D02*
X17586104Y56209524D01*
X17586104Y56209524D02*
X17624200Y56247619D01*
X17624200Y56247619D02*
X17662295Y56323810D01*
X17662295Y56323810D02*
X17662295Y56552381D01*
X17662295Y56552381D02*
X17624200Y56628572D01*
X17624200Y56628572D02*
X17586104Y56666667D01*
X11086104Y46433333D02*
X11124200Y46471429D01*
X11124200Y46471429D02*
X11162295Y46585714D01*
X11162295Y46585714D02*
X11162295Y46661905D01*
X11162295Y46661905D02*
X11124200Y46776191D01*
X11124200Y46776191D02*
X11048009Y46852381D01*
X11048009Y46852381D02*
X10971819Y46890476D01*
X10971819Y46890476D02*
X10819438Y46928572D01*
X10819438Y46928572D02*
X10705152Y46928572D01*
X10705152Y46928572D02*
X10552771Y46890476D01*
X10552771Y46890476D02*
X10476580Y46852381D01*
X10476580Y46852381D02*
X10400390Y46776191D01*
X10400390Y46776191D02*
X10362295Y46661905D01*
X10362295Y46661905D02*
X10362295Y46585714D01*
X10362295Y46585714D02*
X10400390Y46471429D01*
X10400390Y46471429D02*
X10438485Y46433333D01*
X10705152Y45976191D02*
X10667057Y46052381D01*
X10667057Y46052381D02*
X10628961Y46090476D01*
X10628961Y46090476D02*
X10552771Y46128572D01*
X10552771Y46128572D02*
X10514676Y46128572D01*
X10514676Y46128572D02*
X10438485Y46090476D01*
X10438485Y46090476D02*
X10400390Y46052381D01*
X10400390Y46052381D02*
X10362295Y45976191D01*
X10362295Y45976191D02*
X10362295Y45823810D01*
X10362295Y45823810D02*
X10400390Y45747619D01*
X10400390Y45747619D02*
X10438485Y45709524D01*
X10438485Y45709524D02*
X10514676Y45671429D01*
X10514676Y45671429D02*
X10552771Y45671429D01*
X10552771Y45671429D02*
X10628961Y45709524D01*
X10628961Y45709524D02*
X10667057Y45747619D01*
X10667057Y45747619D02*
X10705152Y45823810D01*
X10705152Y45823810D02*
X10705152Y45976191D01*
X10705152Y45976191D02*
X10743247Y46052381D01*
X10743247Y46052381D02*
X10781342Y46090476D01*
X10781342Y46090476D02*
X10857533Y46128572D01*
X10857533Y46128572D02*
X11009914Y46128572D01*
X11009914Y46128572D02*
X11086104Y46090476D01*
X11086104Y46090476D02*
X11124200Y46052381D01*
X11124200Y46052381D02*
X11162295Y45976191D01*
X11162295Y45976191D02*
X11162295Y45823810D01*
X11162295Y45823810D02*
X11124200Y45747619D01*
X11124200Y45747619D02*
X11086104Y45709524D01*
X11086104Y45709524D02*
X11009914Y45671429D01*
X11009914Y45671429D02*
X10857533Y45671429D01*
X10857533Y45671429D02*
X10781342Y45709524D01*
X10781342Y45709524D02*
X10743247Y45747619D01*
X10743247Y45747619D02*
X10705152Y45823810D01*
X9533332Y51613896D02*
X9571428Y51575800D01*
X9571428Y51575800D02*
X9685713Y51537705D01*
X9685713Y51537705D02*
X9761904Y51537705D01*
X9761904Y51537705D02*
X9876190Y51575800D01*
X9876190Y51575800D02*
X9952380Y51651991D01*
X9952380Y51651991D02*
X9990475Y51728181D01*
X9990475Y51728181D02*
X10028571Y51880562D01*
X10028571Y51880562D02*
X10028571Y51994848D01*
X10028571Y51994848D02*
X9990475Y52147229D01*
X9990475Y52147229D02*
X9952380Y52223420D01*
X9952380Y52223420D02*
X9876190Y52299610D01*
X9876190Y52299610D02*
X9761904Y52337705D01*
X9761904Y52337705D02*
X9685713Y52337705D01*
X9685713Y52337705D02*
X9571428Y52299610D01*
X9571428Y52299610D02*
X9533332Y52261515D01*
X9266666Y52337705D02*
X8733332Y52337705D01*
X8733332Y52337705D02*
X9076190Y51537705D01*
X9533332Y54913896D02*
X9571428Y54875800D01*
X9571428Y54875800D02*
X9685713Y54837705D01*
X9685713Y54837705D02*
X9761904Y54837705D01*
X9761904Y54837705D02*
X9876190Y54875800D01*
X9876190Y54875800D02*
X9952380Y54951991D01*
X9952380Y54951991D02*
X9990475Y55028181D01*
X9990475Y55028181D02*
X10028571Y55180562D01*
X10028571Y55180562D02*
X10028571Y55294848D01*
X10028571Y55294848D02*
X9990475Y55447229D01*
X9990475Y55447229D02*
X9952380Y55523420D01*
X9952380Y55523420D02*
X9876190Y55599610D01*
X9876190Y55599610D02*
X9761904Y55637705D01*
X9761904Y55637705D02*
X9685713Y55637705D01*
X9685713Y55637705D02*
X9571428Y55599610D01*
X9571428Y55599610D02*
X9533332Y55561515D01*
X8809523Y55637705D02*
X9190475Y55637705D01*
X9190475Y55637705D02*
X9228571Y55256753D01*
X9228571Y55256753D02*
X9190475Y55294848D01*
X9190475Y55294848D02*
X9114285Y55332943D01*
X9114285Y55332943D02*
X8923809Y55332943D01*
X8923809Y55332943D02*
X8847618Y55294848D01*
X8847618Y55294848D02*
X8809523Y55256753D01*
X8809523Y55256753D02*
X8771428Y55180562D01*
X8771428Y55180562D02*
X8771428Y54990086D01*
X8771428Y54990086D02*
X8809523Y54913896D01*
X8809523Y54913896D02*
X8847618Y54875800D01*
X8847618Y54875800D02*
X8923809Y54837705D01*
X8923809Y54837705D02*
X9114285Y54837705D01*
X9114285Y54837705D02*
X9190475Y54875800D01*
X9190475Y54875800D02*
X9228571Y54913896D01*
X14512295Y13664286D02*
X14131342Y13930953D01*
X14512295Y14121429D02*
X13712295Y14121429D01*
X13712295Y14121429D02*
X13712295Y13816667D01*
X13712295Y13816667D02*
X13750390Y13740477D01*
X13750390Y13740477D02*
X13788485Y13702382D01*
X13788485Y13702382D02*
X13864676Y13664286D01*
X13864676Y13664286D02*
X13978961Y13664286D01*
X13978961Y13664286D02*
X14055152Y13702382D01*
X14055152Y13702382D02*
X14093247Y13740477D01*
X14093247Y13740477D02*
X14131342Y13816667D01*
X14131342Y13816667D02*
X14131342Y14121429D01*
X13978961Y12978572D02*
X14512295Y12978572D01*
X13674200Y13169048D02*
X14245628Y13359525D01*
X14245628Y13359525D02*
X14245628Y12864286D01*
X14512295Y12521429D02*
X14512295Y12369048D01*
X14512295Y12369048D02*
X14474200Y12292858D01*
X14474200Y12292858D02*
X14436104Y12254762D01*
X14436104Y12254762D02*
X14321819Y12178572D01*
X14321819Y12178572D02*
X14169438Y12140477D01*
X14169438Y12140477D02*
X13864676Y12140477D01*
X13864676Y12140477D02*
X13788485Y12178572D01*
X13788485Y12178572D02*
X13750390Y12216667D01*
X13750390Y12216667D02*
X13712295Y12292858D01*
X13712295Y12292858D02*
X13712295Y12445239D01*
X13712295Y12445239D02*
X13750390Y12521429D01*
X13750390Y12521429D02*
X13788485Y12559524D01*
X13788485Y12559524D02*
X13864676Y12597620D01*
X13864676Y12597620D02*
X14055152Y12597620D01*
X14055152Y12597620D02*
X14131342Y12559524D01*
X14131342Y12559524D02*
X14169438Y12521429D01*
X14169438Y12521429D02*
X14207533Y12445239D01*
X14207533Y12445239D02*
X14207533Y12292858D01*
X14207533Y12292858D02*
X14169438Y12216667D01*
X14169438Y12216667D02*
X14131342Y12178572D01*
X14131342Y12178572D02*
X14055152Y12140477D01*
X10514285Y49663896D02*
X10552381Y49625800D01*
X10552381Y49625800D02*
X10666666Y49587705D01*
X10666666Y49587705D02*
X10742857Y49587705D01*
X10742857Y49587705D02*
X10857143Y49625800D01*
X10857143Y49625800D02*
X10933333Y49701991D01*
X10933333Y49701991D02*
X10971428Y49778181D01*
X10971428Y49778181D02*
X11009524Y49930562D01*
X11009524Y49930562D02*
X11009524Y50044848D01*
X11009524Y50044848D02*
X10971428Y50197229D01*
X10971428Y50197229D02*
X10933333Y50273420D01*
X10933333Y50273420D02*
X10857143Y50349610D01*
X10857143Y50349610D02*
X10742857Y50387705D01*
X10742857Y50387705D02*
X10666666Y50387705D01*
X10666666Y50387705D02*
X10552381Y50349610D01*
X10552381Y50349610D02*
X10514285Y50311515D01*
X9752381Y49587705D02*
X10209524Y49587705D01*
X9980952Y49587705D02*
X9980952Y50387705D01*
X9980952Y50387705D02*
X10057143Y50273420D01*
X10057143Y50273420D02*
X10133333Y50197229D01*
X10133333Y50197229D02*
X10209524Y50159134D01*
X9028571Y50387705D02*
X9409523Y50387705D01*
X9409523Y50387705D02*
X9447619Y50006753D01*
X9447619Y50006753D02*
X9409523Y50044848D01*
X9409523Y50044848D02*
X9333333Y50082943D01*
X9333333Y50082943D02*
X9142857Y50082943D01*
X9142857Y50082943D02*
X9066666Y50044848D01*
X9066666Y50044848D02*
X9028571Y50006753D01*
X9028571Y50006753D02*
X8990476Y49930562D01*
X8990476Y49930562D02*
X8990476Y49740086D01*
X8990476Y49740086D02*
X9028571Y49663896D01*
X9028571Y49663896D02*
X9066666Y49625800D01*
X9066666Y49625800D02*
X9142857Y49587705D01*
X9142857Y49587705D02*
X9333333Y49587705D01*
X9333333Y49587705D02*
X9409523Y49625800D01*
X9409523Y49625800D02*
X9447619Y49663896D01*
X7664285Y44363896D02*
X7702381Y44325800D01*
X7702381Y44325800D02*
X7816666Y44287705D01*
X7816666Y44287705D02*
X7892857Y44287705D01*
X7892857Y44287705D02*
X8007143Y44325800D01*
X8007143Y44325800D02*
X8083333Y44401991D01*
X8083333Y44401991D02*
X8121428Y44478181D01*
X8121428Y44478181D02*
X8159524Y44630562D01*
X8159524Y44630562D02*
X8159524Y44744848D01*
X8159524Y44744848D02*
X8121428Y44897229D01*
X8121428Y44897229D02*
X8083333Y44973420D01*
X8083333Y44973420D02*
X8007143Y45049610D01*
X8007143Y45049610D02*
X7892857Y45087705D01*
X7892857Y45087705D02*
X7816666Y45087705D01*
X7816666Y45087705D02*
X7702381Y45049610D01*
X7702381Y45049610D02*
X7664285Y45011515D01*
X7397619Y45087705D02*
X6902381Y45087705D01*
X6902381Y45087705D02*
X7169047Y44782943D01*
X7169047Y44782943D02*
X7054762Y44782943D01*
X7054762Y44782943D02*
X6978571Y44744848D01*
X6978571Y44744848D02*
X6940476Y44706753D01*
X6940476Y44706753D02*
X6902381Y44630562D01*
X6902381Y44630562D02*
X6902381Y44440086D01*
X6902381Y44440086D02*
X6940476Y44363896D01*
X6940476Y44363896D02*
X6978571Y44325800D01*
X6978571Y44325800D02*
X7054762Y44287705D01*
X7054762Y44287705D02*
X7283333Y44287705D01*
X7283333Y44287705D02*
X7359524Y44325800D01*
X7359524Y44325800D02*
X7397619Y44363896D01*
X6140476Y44287705D02*
X6597619Y44287705D01*
X6369047Y44287705D02*
X6369047Y45087705D01*
X6369047Y45087705D02*
X6445238Y44973420D01*
X6445238Y44973420D02*
X6521428Y44897229D01*
X6521428Y44897229D02*
X6597619Y44859134D01*
X7669285Y48613896D02*
X7707381Y48575800D01*
X7707381Y48575800D02*
X7821666Y48537705D01*
X7821666Y48537705D02*
X7897857Y48537705D01*
X7897857Y48537705D02*
X8012143Y48575800D01*
X8012143Y48575800D02*
X8088333Y48651991D01*
X8088333Y48651991D02*
X8126428Y48728181D01*
X8126428Y48728181D02*
X8164524Y48880562D01*
X8164524Y48880562D02*
X8164524Y48994848D01*
X8164524Y48994848D02*
X8126428Y49147229D01*
X8126428Y49147229D02*
X8088333Y49223420D01*
X8088333Y49223420D02*
X8012143Y49299610D01*
X8012143Y49299610D02*
X7897857Y49337705D01*
X7897857Y49337705D02*
X7821666Y49337705D01*
X7821666Y49337705D02*
X7707381Y49299610D01*
X7707381Y49299610D02*
X7669285Y49261515D01*
X7364524Y49261515D02*
X7326428Y49299610D01*
X7326428Y49299610D02*
X7250238Y49337705D01*
X7250238Y49337705D02*
X7059762Y49337705D01*
X7059762Y49337705D02*
X6983571Y49299610D01*
X6983571Y49299610D02*
X6945476Y49261515D01*
X6945476Y49261515D02*
X6907381Y49185324D01*
X6907381Y49185324D02*
X6907381Y49109134D01*
X6907381Y49109134D02*
X6945476Y48994848D01*
X6945476Y48994848D02*
X7402619Y48537705D01*
X7402619Y48537705D02*
X6907381Y48537705D01*
X6640714Y49337705D02*
X6107380Y49337705D01*
X6107380Y49337705D02*
X6450238Y48537705D01*
X15270475Y68617705D02*
X15270475Y69417705D01*
X15270475Y69417705D02*
X15079999Y69417705D01*
X15079999Y69417705D02*
X14965713Y69379610D01*
X14965713Y69379610D02*
X14889523Y69303420D01*
X14889523Y69303420D02*
X14851428Y69227229D01*
X14851428Y69227229D02*
X14813332Y69074848D01*
X14813332Y69074848D02*
X14813332Y68960562D01*
X14813332Y68960562D02*
X14851428Y68808181D01*
X14851428Y68808181D02*
X14889523Y68731991D01*
X14889523Y68731991D02*
X14965713Y68655800D01*
X14965713Y68655800D02*
X15079999Y68617705D01*
X15079999Y68617705D02*
X15270475Y68617705D01*
X14051428Y68617705D02*
X14508571Y68617705D01*
X14279999Y68617705D02*
X14279999Y69417705D01*
X14279999Y69417705D02*
X14356190Y69303420D01*
X14356190Y69303420D02*
X14432380Y69227229D01*
X14432380Y69227229D02*
X14508571Y69189134D01*
X14386104Y46333333D02*
X14424200Y46371429D01*
X14424200Y46371429D02*
X14462295Y46485714D01*
X14462295Y46485714D02*
X14462295Y46561905D01*
X14462295Y46561905D02*
X14424200Y46676191D01*
X14424200Y46676191D02*
X14348009Y46752381D01*
X14348009Y46752381D02*
X14271819Y46790476D01*
X14271819Y46790476D02*
X14119438Y46828572D01*
X14119438Y46828572D02*
X14005152Y46828572D01*
X14005152Y46828572D02*
X13852771Y46790476D01*
X13852771Y46790476D02*
X13776580Y46752381D01*
X13776580Y46752381D02*
X13700390Y46676191D01*
X13700390Y46676191D02*
X13662295Y46561905D01*
X13662295Y46561905D02*
X13662295Y46485714D01*
X13662295Y46485714D02*
X13700390Y46371429D01*
X13700390Y46371429D02*
X13738485Y46333333D01*
X14462295Y45952381D02*
X14462295Y45800000D01*
X14462295Y45800000D02*
X14424200Y45723810D01*
X14424200Y45723810D02*
X14386104Y45685714D01*
X14386104Y45685714D02*
X14271819Y45609524D01*
X14271819Y45609524D02*
X14119438Y45571429D01*
X14119438Y45571429D02*
X13814676Y45571429D01*
X13814676Y45571429D02*
X13738485Y45609524D01*
X13738485Y45609524D02*
X13700390Y45647619D01*
X13700390Y45647619D02*
X13662295Y45723810D01*
X13662295Y45723810D02*
X13662295Y45876191D01*
X13662295Y45876191D02*
X13700390Y45952381D01*
X13700390Y45952381D02*
X13738485Y45990476D01*
X13738485Y45990476D02*
X13814676Y46028572D01*
X13814676Y46028572D02*
X14005152Y46028572D01*
X14005152Y46028572D02*
X14081342Y45990476D01*
X14081342Y45990476D02*
X14119438Y45952381D01*
X14119438Y45952381D02*
X14157533Y45876191D01*
X14157533Y45876191D02*
X14157533Y45723810D01*
X14157533Y45723810D02*
X14119438Y45647619D01*
X14119438Y45647619D02*
X14081342Y45609524D01*
X14081342Y45609524D02*
X14005152Y45571429D01*
X15294285Y67367705D02*
X15560952Y67748658D01*
X15751428Y67367705D02*
X15751428Y68167705D01*
X15751428Y68167705D02*
X15446666Y68167705D01*
X15446666Y68167705D02*
X15370476Y68129610D01*
X15370476Y68129610D02*
X15332381Y68091515D01*
X15332381Y68091515D02*
X15294285Y68015324D01*
X15294285Y68015324D02*
X15294285Y67901039D01*
X15294285Y67901039D02*
X15332381Y67824848D01*
X15332381Y67824848D02*
X15370476Y67786753D01*
X15370476Y67786753D02*
X15446666Y67748658D01*
X15446666Y67748658D02*
X15751428Y67748658D01*
X14532381Y67367705D02*
X14989524Y67367705D01*
X14760952Y67367705D02*
X14760952Y68167705D01*
X14760952Y68167705D02*
X14837143Y68053420D01*
X14837143Y68053420D02*
X14913333Y67977229D01*
X14913333Y67977229D02*
X14989524Y67939134D01*
X14075238Y67824848D02*
X14151428Y67862943D01*
X14151428Y67862943D02*
X14189523Y67901039D01*
X14189523Y67901039D02*
X14227619Y67977229D01*
X14227619Y67977229D02*
X14227619Y68015324D01*
X14227619Y68015324D02*
X14189523Y68091515D01*
X14189523Y68091515D02*
X14151428Y68129610D01*
X14151428Y68129610D02*
X14075238Y68167705D01*
X14075238Y68167705D02*
X13922857Y68167705D01*
X13922857Y68167705D02*
X13846666Y68129610D01*
X13846666Y68129610D02*
X13808571Y68091515D01*
X13808571Y68091515D02*
X13770476Y68015324D01*
X13770476Y68015324D02*
X13770476Y67977229D01*
X13770476Y67977229D02*
X13808571Y67901039D01*
X13808571Y67901039D02*
X13846666Y67862943D01*
X13846666Y67862943D02*
X13922857Y67824848D01*
X13922857Y67824848D02*
X14075238Y67824848D01*
X14075238Y67824848D02*
X14151428Y67786753D01*
X14151428Y67786753D02*
X14189523Y67748658D01*
X14189523Y67748658D02*
X14227619Y67672467D01*
X14227619Y67672467D02*
X14227619Y67520086D01*
X14227619Y67520086D02*
X14189523Y67443896D01*
X14189523Y67443896D02*
X14151428Y67405800D01*
X14151428Y67405800D02*
X14075238Y67367705D01*
X14075238Y67367705D02*
X13922857Y67367705D01*
X13922857Y67367705D02*
X13846666Y67405800D01*
X13846666Y67405800D02*
X13808571Y67443896D01*
X13808571Y67443896D02*
X13770476Y67520086D01*
X13770476Y67520086D02*
X13770476Y67672467D01*
X13770476Y67672467D02*
X13808571Y67748658D01*
X13808571Y67748658D02*
X13846666Y67786753D01*
X13846666Y67786753D02*
X13922857Y67824848D01*
X7664285Y43313896D02*
X7702381Y43275800D01*
X7702381Y43275800D02*
X7816666Y43237705D01*
X7816666Y43237705D02*
X7892857Y43237705D01*
X7892857Y43237705D02*
X8007143Y43275800D01*
X8007143Y43275800D02*
X8083333Y43351991D01*
X8083333Y43351991D02*
X8121428Y43428181D01*
X8121428Y43428181D02*
X8159524Y43580562D01*
X8159524Y43580562D02*
X8159524Y43694848D01*
X8159524Y43694848D02*
X8121428Y43847229D01*
X8121428Y43847229D02*
X8083333Y43923420D01*
X8083333Y43923420D02*
X8007143Y43999610D01*
X8007143Y43999610D02*
X7892857Y44037705D01*
X7892857Y44037705D02*
X7816666Y44037705D01*
X7816666Y44037705D02*
X7702381Y43999610D01*
X7702381Y43999610D02*
X7664285Y43961515D01*
X7397619Y44037705D02*
X6902381Y44037705D01*
X6902381Y44037705D02*
X7169047Y43732943D01*
X7169047Y43732943D02*
X7054762Y43732943D01*
X7054762Y43732943D02*
X6978571Y43694848D01*
X6978571Y43694848D02*
X6940476Y43656753D01*
X6940476Y43656753D02*
X6902381Y43580562D01*
X6902381Y43580562D02*
X6902381Y43390086D01*
X6902381Y43390086D02*
X6940476Y43313896D01*
X6940476Y43313896D02*
X6978571Y43275800D01*
X6978571Y43275800D02*
X7054762Y43237705D01*
X7054762Y43237705D02*
X7283333Y43237705D01*
X7283333Y43237705D02*
X7359524Y43275800D01*
X7359524Y43275800D02*
X7397619Y43313896D01*
X6597619Y43961515D02*
X6559523Y43999610D01*
X6559523Y43999610D02*
X6483333Y44037705D01*
X6483333Y44037705D02*
X6292857Y44037705D01*
X6292857Y44037705D02*
X6216666Y43999610D01*
X6216666Y43999610D02*
X6178571Y43961515D01*
X6178571Y43961515D02*
X6140476Y43885324D01*
X6140476Y43885324D02*
X6140476Y43809134D01*
X6140476Y43809134D02*
X6178571Y43694848D01*
X6178571Y43694848D02*
X6635714Y43237705D01*
X6635714Y43237705D02*
X6140476Y43237705D01*
X11312295Y13664286D02*
X10931342Y13930953D01*
X11312295Y14121429D02*
X10512295Y14121429D01*
X10512295Y14121429D02*
X10512295Y13816667D01*
X10512295Y13816667D02*
X10550390Y13740477D01*
X10550390Y13740477D02*
X10588485Y13702382D01*
X10588485Y13702382D02*
X10664676Y13664286D01*
X10664676Y13664286D02*
X10778961Y13664286D01*
X10778961Y13664286D02*
X10855152Y13702382D01*
X10855152Y13702382D02*
X10893247Y13740477D01*
X10893247Y13740477D02*
X10931342Y13816667D01*
X10931342Y13816667D02*
X10931342Y14121429D01*
X10512295Y13397620D02*
X10512295Y12902382D01*
X10512295Y12902382D02*
X10817057Y13169048D01*
X10817057Y13169048D02*
X10817057Y13054763D01*
X10817057Y13054763D02*
X10855152Y12978572D01*
X10855152Y12978572D02*
X10893247Y12940477D01*
X10893247Y12940477D02*
X10969438Y12902382D01*
X10969438Y12902382D02*
X11159914Y12902382D01*
X11159914Y12902382D02*
X11236104Y12940477D01*
X11236104Y12940477D02*
X11274200Y12978572D01*
X11274200Y12978572D02*
X11312295Y13054763D01*
X11312295Y13054763D02*
X11312295Y13283334D01*
X11312295Y13283334D02*
X11274200Y13359525D01*
X11274200Y13359525D02*
X11236104Y13397620D01*
X10855152Y12445239D02*
X10817057Y12521429D01*
X10817057Y12521429D02*
X10778961Y12559524D01*
X10778961Y12559524D02*
X10702771Y12597620D01*
X10702771Y12597620D02*
X10664676Y12597620D01*
X10664676Y12597620D02*
X10588485Y12559524D01*
X10588485Y12559524D02*
X10550390Y12521429D01*
X10550390Y12521429D02*
X10512295Y12445239D01*
X10512295Y12445239D02*
X10512295Y12292858D01*
X10512295Y12292858D02*
X10550390Y12216667D01*
X10550390Y12216667D02*
X10588485Y12178572D01*
X10588485Y12178572D02*
X10664676Y12140477D01*
X10664676Y12140477D02*
X10702771Y12140477D01*
X10702771Y12140477D02*
X10778961Y12178572D01*
X10778961Y12178572D02*
X10817057Y12216667D01*
X10817057Y12216667D02*
X10855152Y12292858D01*
X10855152Y12292858D02*
X10855152Y12445239D01*
X10855152Y12445239D02*
X10893247Y12521429D01*
X10893247Y12521429D02*
X10931342Y12559524D01*
X10931342Y12559524D02*
X11007533Y12597620D01*
X11007533Y12597620D02*
X11159914Y12597620D01*
X11159914Y12597620D02*
X11236104Y12559524D01*
X11236104Y12559524D02*
X11274200Y12521429D01*
X11274200Y12521429D02*
X11312295Y12445239D01*
X11312295Y12445239D02*
X11312295Y12292858D01*
X11312295Y12292858D02*
X11274200Y12216667D01*
X11274200Y12216667D02*
X11236104Y12178572D01*
X11236104Y12178572D02*
X11159914Y12140477D01*
X11159914Y12140477D02*
X11007533Y12140477D01*
X11007533Y12140477D02*
X10931342Y12178572D01*
X10931342Y12178572D02*
X10893247Y12216667D01*
X10893247Y12216667D02*
X10855152Y12292858D01*
X19933332Y49013896D02*
X19971428Y48975800D01*
X19971428Y48975800D02*
X20085713Y48937705D01*
X20085713Y48937705D02*
X20161904Y48937705D01*
X20161904Y48937705D02*
X20276190Y48975800D01*
X20276190Y48975800D02*
X20352380Y49051991D01*
X20352380Y49051991D02*
X20390475Y49128181D01*
X20390475Y49128181D02*
X20428571Y49280562D01*
X20428571Y49280562D02*
X20428571Y49394848D01*
X20428571Y49394848D02*
X20390475Y49547229D01*
X20390475Y49547229D02*
X20352380Y49623420D01*
X20352380Y49623420D02*
X20276190Y49699610D01*
X20276190Y49699610D02*
X20161904Y49737705D01*
X20161904Y49737705D02*
X20085713Y49737705D01*
X20085713Y49737705D02*
X19971428Y49699610D01*
X19971428Y49699610D02*
X19933332Y49661515D01*
X19171428Y48937705D02*
X19628571Y48937705D01*
X19399999Y48937705D02*
X19399999Y49737705D01*
X19399999Y49737705D02*
X19476190Y49623420D01*
X19476190Y49623420D02*
X19552380Y49547229D01*
X19552380Y49547229D02*
X19628571Y49509134D01*
X15486104Y13714286D02*
X15524200Y13752382D01*
X15524200Y13752382D02*
X15562295Y13866667D01*
X15562295Y13866667D02*
X15562295Y13942858D01*
X15562295Y13942858D02*
X15524200Y14057144D01*
X15524200Y14057144D02*
X15448009Y14133334D01*
X15448009Y14133334D02*
X15371819Y14171429D01*
X15371819Y14171429D02*
X15219438Y14209525D01*
X15219438Y14209525D02*
X15105152Y14209525D01*
X15105152Y14209525D02*
X14952771Y14171429D01*
X14952771Y14171429D02*
X14876580Y14133334D01*
X14876580Y14133334D02*
X14800390Y14057144D01*
X14800390Y14057144D02*
X14762295Y13942858D01*
X14762295Y13942858D02*
X14762295Y13866667D01*
X14762295Y13866667D02*
X14800390Y13752382D01*
X14800390Y13752382D02*
X14838485Y13714286D01*
X14762295Y13447620D02*
X14762295Y12952382D01*
X14762295Y12952382D02*
X15067057Y13219048D01*
X15067057Y13219048D02*
X15067057Y13104763D01*
X15067057Y13104763D02*
X15105152Y13028572D01*
X15105152Y13028572D02*
X15143247Y12990477D01*
X15143247Y12990477D02*
X15219438Y12952382D01*
X15219438Y12952382D02*
X15409914Y12952382D01*
X15409914Y12952382D02*
X15486104Y12990477D01*
X15486104Y12990477D02*
X15524200Y13028572D01*
X15524200Y13028572D02*
X15562295Y13104763D01*
X15562295Y13104763D02*
X15562295Y13333334D01*
X15562295Y13333334D02*
X15524200Y13409525D01*
X15524200Y13409525D02*
X15486104Y13447620D01*
X14762295Y12685715D02*
X14762295Y12152381D01*
X14762295Y12152381D02*
X15562295Y12495239D01*
X15459580Y75442858D02*
X15507200Y75490477D01*
X15507200Y75490477D02*
X15554819Y75633334D01*
X15554819Y75633334D02*
X15554819Y75728572D01*
X15554819Y75728572D02*
X15507200Y75871429D01*
X15507200Y75871429D02*
X15411961Y75966667D01*
X15411961Y75966667D02*
X15316723Y76014286D01*
X15316723Y76014286D02*
X15126247Y76061905D01*
X15126247Y76061905D02*
X14983390Y76061905D01*
X14983390Y76061905D02*
X14792914Y76014286D01*
X14792914Y76014286D02*
X14697676Y75966667D01*
X14697676Y75966667D02*
X14602438Y75871429D01*
X14602438Y75871429D02*
X14554819Y75728572D01*
X14554819Y75728572D02*
X14554819Y75633334D01*
X14554819Y75633334D02*
X14602438Y75490477D01*
X14602438Y75490477D02*
X14650057Y75442858D01*
X14554819Y74538096D02*
X14554819Y75014286D01*
X14554819Y75014286D02*
X15031009Y75061905D01*
X15031009Y75061905D02*
X14983390Y75014286D01*
X14983390Y75014286D02*
X14935771Y74919048D01*
X14935771Y74919048D02*
X14935771Y74680953D01*
X14935771Y74680953D02*
X14983390Y74585715D01*
X14983390Y74585715D02*
X15031009Y74538096D01*
X15031009Y74538096D02*
X15126247Y74490477D01*
X15126247Y74490477D02*
X15364342Y74490477D01*
X15364342Y74490477D02*
X15459580Y74538096D01*
X15459580Y74538096D02*
X15507200Y74585715D01*
X15507200Y74585715D02*
X15554819Y74680953D01*
X15554819Y74680953D02*
X15554819Y74919048D01*
X15554819Y74919048D02*
X15507200Y75014286D01*
X15507200Y75014286D02*
X15459580Y75061905D01*
X15554819Y74014286D02*
X15554819Y73823810D01*
X15554819Y73823810D02*
X15507200Y73728572D01*
X15507200Y73728572D02*
X15459580Y73680953D01*
X15459580Y73680953D02*
X15316723Y73585715D01*
X15316723Y73585715D02*
X15126247Y73538096D01*
X15126247Y73538096D02*
X14745295Y73538096D01*
X14745295Y73538096D02*
X14650057Y73585715D01*
X14650057Y73585715D02*
X14602438Y73633334D01*
X14602438Y73633334D02*
X14554819Y73728572D01*
X14554819Y73728572D02*
X14554819Y73919048D01*
X14554819Y73919048D02*
X14602438Y74014286D01*
X14602438Y74014286D02*
X14650057Y74061905D01*
X14650057Y74061905D02*
X14745295Y74109524D01*
X14745295Y74109524D02*
X14983390Y74109524D01*
X14983390Y74109524D02*
X15078628Y74061905D01*
X15078628Y74061905D02*
X15126247Y74014286D01*
X15126247Y74014286D02*
X15173866Y73919048D01*
X15173866Y73919048D02*
X15173866Y73728572D01*
X15173866Y73728572D02*
X15126247Y73633334D01*
X15126247Y73633334D02*
X15078628Y73585715D01*
X15078628Y73585715D02*
X14983390Y73538096D01*
X14354819Y62538095D02*
X13354819Y62538095D01*
X13354819Y62538095D02*
X13354819Y62300000D01*
X13354819Y62300000D02*
X13402438Y62157143D01*
X13402438Y62157143D02*
X13497676Y62061905D01*
X13497676Y62061905D02*
X13592914Y62014286D01*
X13592914Y62014286D02*
X13783390Y61966667D01*
X13783390Y61966667D02*
X13926247Y61966667D01*
X13926247Y61966667D02*
X14116723Y62014286D01*
X14116723Y62014286D02*
X14211961Y62061905D01*
X14211961Y62061905D02*
X14307200Y62157143D01*
X14307200Y62157143D02*
X14354819Y62300000D01*
X14354819Y62300000D02*
X14354819Y62538095D01*
X13783390Y61395238D02*
X13735771Y61490476D01*
X13735771Y61490476D02*
X13688152Y61538095D01*
X13688152Y61538095D02*
X13592914Y61585714D01*
X13592914Y61585714D02*
X13545295Y61585714D01*
X13545295Y61585714D02*
X13450057Y61538095D01*
X13450057Y61538095D02*
X13402438Y61490476D01*
X13402438Y61490476D02*
X13354819Y61395238D01*
X13354819Y61395238D02*
X13354819Y61204762D01*
X13354819Y61204762D02*
X13402438Y61109524D01*
X13402438Y61109524D02*
X13450057Y61061905D01*
X13450057Y61061905D02*
X13545295Y61014286D01*
X13545295Y61014286D02*
X13592914Y61014286D01*
X13592914Y61014286D02*
X13688152Y61061905D01*
X13688152Y61061905D02*
X13735771Y61109524D01*
X13735771Y61109524D02*
X13783390Y61204762D01*
X13783390Y61204762D02*
X13783390Y61395238D01*
X13783390Y61395238D02*
X13831009Y61490476D01*
X13831009Y61490476D02*
X13878628Y61538095D01*
X13878628Y61538095D02*
X13973866Y61585714D01*
X13973866Y61585714D02*
X14164342Y61585714D01*
X14164342Y61585714D02*
X14259580Y61538095D01*
X14259580Y61538095D02*
X14307200Y61490476D01*
X14307200Y61490476D02*
X14354819Y61395238D01*
X14354819Y61395238D02*
X14354819Y61204762D01*
X14354819Y61204762D02*
X14307200Y61109524D01*
X14307200Y61109524D02*
X14259580Y61061905D01*
X14259580Y61061905D02*
X14164342Y61014286D01*
X14164342Y61014286D02*
X13973866Y61014286D01*
X13973866Y61014286D02*
X13878628Y61061905D01*
X13878628Y61061905D02*
X13831009Y61109524D01*
X13831009Y61109524D02*
X13783390Y61204762D01*
X15614285Y19863896D02*
X15652381Y19825800D01*
X15652381Y19825800D02*
X15766666Y19787705D01*
X15766666Y19787705D02*
X15842857Y19787705D01*
X15842857Y19787705D02*
X15957143Y19825800D01*
X15957143Y19825800D02*
X16033333Y19901991D01*
X16033333Y19901991D02*
X16071428Y19978181D01*
X16071428Y19978181D02*
X16109524Y20130562D01*
X16109524Y20130562D02*
X16109524Y20244848D01*
X16109524Y20244848D02*
X16071428Y20397229D01*
X16071428Y20397229D02*
X16033333Y20473420D01*
X16033333Y20473420D02*
X15957143Y20549610D01*
X15957143Y20549610D02*
X15842857Y20587705D01*
X15842857Y20587705D02*
X15766666Y20587705D01*
X15766666Y20587705D02*
X15652381Y20549610D01*
X15652381Y20549610D02*
X15614285Y20511515D01*
X14928571Y20321039D02*
X14928571Y19787705D01*
X15119047Y20625800D02*
X15309524Y20054372D01*
X15309524Y20054372D02*
X14814285Y20054372D01*
X14585714Y20587705D02*
X14090476Y20587705D01*
X14090476Y20587705D02*
X14357142Y20282943D01*
X14357142Y20282943D02*
X14242857Y20282943D01*
X14242857Y20282943D02*
X14166666Y20244848D01*
X14166666Y20244848D02*
X14128571Y20206753D01*
X14128571Y20206753D02*
X14090476Y20130562D01*
X14090476Y20130562D02*
X14090476Y19940086D01*
X14090476Y19940086D02*
X14128571Y19863896D01*
X14128571Y19863896D02*
X14166666Y19825800D01*
X14166666Y19825800D02*
X14242857Y19787705D01*
X14242857Y19787705D02*
X14471428Y19787705D01*
X14471428Y19787705D02*
X14547619Y19825800D01*
X14547619Y19825800D02*
X14585714Y19863896D01*
X21014285Y50963896D02*
X21052381Y50925800D01*
X21052381Y50925800D02*
X21166666Y50887705D01*
X21166666Y50887705D02*
X21242857Y50887705D01*
X21242857Y50887705D02*
X21357143Y50925800D01*
X21357143Y50925800D02*
X21433333Y51001991D01*
X21433333Y51001991D02*
X21471428Y51078181D01*
X21471428Y51078181D02*
X21509524Y51230562D01*
X21509524Y51230562D02*
X21509524Y51344848D01*
X21509524Y51344848D02*
X21471428Y51497229D01*
X21471428Y51497229D02*
X21433333Y51573420D01*
X21433333Y51573420D02*
X21357143Y51649610D01*
X21357143Y51649610D02*
X21242857Y51687705D01*
X21242857Y51687705D02*
X21166666Y51687705D01*
X21166666Y51687705D02*
X21052381Y51649610D01*
X21052381Y51649610D02*
X21014285Y51611515D01*
X20252381Y50887705D02*
X20709524Y50887705D01*
X20480952Y50887705D02*
X20480952Y51687705D01*
X20480952Y51687705D02*
X20557143Y51573420D01*
X20557143Y51573420D02*
X20633333Y51497229D01*
X20633333Y51497229D02*
X20709524Y51459134D01*
X19985714Y51687705D02*
X19490476Y51687705D01*
X19490476Y51687705D02*
X19757142Y51382943D01*
X19757142Y51382943D02*
X19642857Y51382943D01*
X19642857Y51382943D02*
X19566666Y51344848D01*
X19566666Y51344848D02*
X19528571Y51306753D01*
X19528571Y51306753D02*
X19490476Y51230562D01*
X19490476Y51230562D02*
X19490476Y51040086D01*
X19490476Y51040086D02*
X19528571Y50963896D01*
X19528571Y50963896D02*
X19566666Y50925800D01*
X19566666Y50925800D02*
X19642857Y50887705D01*
X19642857Y50887705D02*
X19871428Y50887705D01*
X19871428Y50887705D02*
X19947619Y50925800D01*
X19947619Y50925800D02*
X19985714Y50963896D01*
X20283332Y52963896D02*
X20321428Y52925800D01*
X20321428Y52925800D02*
X20435713Y52887705D01*
X20435713Y52887705D02*
X20511904Y52887705D01*
X20511904Y52887705D02*
X20626190Y52925800D01*
X20626190Y52925800D02*
X20702380Y53001991D01*
X20702380Y53001991D02*
X20740475Y53078181D01*
X20740475Y53078181D02*
X20778571Y53230562D01*
X20778571Y53230562D02*
X20778571Y53344848D01*
X20778571Y53344848D02*
X20740475Y53497229D01*
X20740475Y53497229D02*
X20702380Y53573420D01*
X20702380Y53573420D02*
X20626190Y53649610D01*
X20626190Y53649610D02*
X20511904Y53687705D01*
X20511904Y53687705D02*
X20435713Y53687705D01*
X20435713Y53687705D02*
X20321428Y53649610D01*
X20321428Y53649610D02*
X20283332Y53611515D01*
X19978571Y53611515D02*
X19940475Y53649610D01*
X19940475Y53649610D02*
X19864285Y53687705D01*
X19864285Y53687705D02*
X19673809Y53687705D01*
X19673809Y53687705D02*
X19597618Y53649610D01*
X19597618Y53649610D02*
X19559523Y53611515D01*
X19559523Y53611515D02*
X19521428Y53535324D01*
X19521428Y53535324D02*
X19521428Y53459134D01*
X19521428Y53459134D02*
X19559523Y53344848D01*
X19559523Y53344848D02*
X20016666Y52887705D01*
X20016666Y52887705D02*
X19521428Y52887705D01*
X12362295Y13664286D02*
X11981342Y13930953D01*
X12362295Y14121429D02*
X11562295Y14121429D01*
X11562295Y14121429D02*
X11562295Y13816667D01*
X11562295Y13816667D02*
X11600390Y13740477D01*
X11600390Y13740477D02*
X11638485Y13702382D01*
X11638485Y13702382D02*
X11714676Y13664286D01*
X11714676Y13664286D02*
X11828961Y13664286D01*
X11828961Y13664286D02*
X11905152Y13702382D01*
X11905152Y13702382D02*
X11943247Y13740477D01*
X11943247Y13740477D02*
X11981342Y13816667D01*
X11981342Y13816667D02*
X11981342Y14121429D01*
X11562295Y13397620D02*
X11562295Y12902382D01*
X11562295Y12902382D02*
X11867057Y13169048D01*
X11867057Y13169048D02*
X11867057Y13054763D01*
X11867057Y13054763D02*
X11905152Y12978572D01*
X11905152Y12978572D02*
X11943247Y12940477D01*
X11943247Y12940477D02*
X12019438Y12902382D01*
X12019438Y12902382D02*
X12209914Y12902382D01*
X12209914Y12902382D02*
X12286104Y12940477D01*
X12286104Y12940477D02*
X12324200Y12978572D01*
X12324200Y12978572D02*
X12362295Y13054763D01*
X12362295Y13054763D02*
X12362295Y13283334D01*
X12362295Y13283334D02*
X12324200Y13359525D01*
X12324200Y13359525D02*
X12286104Y13397620D01*
X11562295Y12635715D02*
X11562295Y12102381D01*
X11562295Y12102381D02*
X12362295Y12445239D01*
X7669285Y45413896D02*
X7707381Y45375800D01*
X7707381Y45375800D02*
X7821666Y45337705D01*
X7821666Y45337705D02*
X7897857Y45337705D01*
X7897857Y45337705D02*
X8012143Y45375800D01*
X8012143Y45375800D02*
X8088333Y45451991D01*
X8088333Y45451991D02*
X8126428Y45528181D01*
X8126428Y45528181D02*
X8164524Y45680562D01*
X8164524Y45680562D02*
X8164524Y45794848D01*
X8164524Y45794848D02*
X8126428Y45947229D01*
X8126428Y45947229D02*
X8088333Y46023420D01*
X8088333Y46023420D02*
X8012143Y46099610D01*
X8012143Y46099610D02*
X7897857Y46137705D01*
X7897857Y46137705D02*
X7821666Y46137705D01*
X7821666Y46137705D02*
X7707381Y46099610D01*
X7707381Y46099610D02*
X7669285Y46061515D01*
X7402619Y46137705D02*
X6907381Y46137705D01*
X6907381Y46137705D02*
X7174047Y45832943D01*
X7174047Y45832943D02*
X7059762Y45832943D01*
X7059762Y45832943D02*
X6983571Y45794848D01*
X6983571Y45794848D02*
X6945476Y45756753D01*
X6945476Y45756753D02*
X6907381Y45680562D01*
X6907381Y45680562D02*
X6907381Y45490086D01*
X6907381Y45490086D02*
X6945476Y45413896D01*
X6945476Y45413896D02*
X6983571Y45375800D01*
X6983571Y45375800D02*
X7059762Y45337705D01*
X7059762Y45337705D02*
X7288333Y45337705D01*
X7288333Y45337705D02*
X7364524Y45375800D01*
X7364524Y45375800D02*
X7402619Y45413896D01*
X6412142Y46137705D02*
X6335952Y46137705D01*
X6335952Y46137705D02*
X6259761Y46099610D01*
X6259761Y46099610D02*
X6221666Y46061515D01*
X6221666Y46061515D02*
X6183571Y45985324D01*
X6183571Y45985324D02*
X6145476Y45832943D01*
X6145476Y45832943D02*
X6145476Y45642467D01*
X6145476Y45642467D02*
X6183571Y45490086D01*
X6183571Y45490086D02*
X6221666Y45413896D01*
X6221666Y45413896D02*
X6259761Y45375800D01*
X6259761Y45375800D02*
X6335952Y45337705D01*
X6335952Y45337705D02*
X6412142Y45337705D01*
X6412142Y45337705D02*
X6488333Y45375800D01*
X6488333Y45375800D02*
X6526428Y45413896D01*
X6526428Y45413896D02*
X6564523Y45490086D01*
X6564523Y45490086D02*
X6602619Y45642467D01*
X6602619Y45642467D02*
X6602619Y45832943D01*
X6602619Y45832943D02*
X6564523Y45985324D01*
X6564523Y45985324D02*
X6526428Y46061515D01*
X6526428Y46061515D02*
X6488333Y46099610D01*
X6488333Y46099610D02*
X6412142Y46137705D01*
X15144285Y70867705D02*
X15410952Y71248658D01*
X15601428Y70867705D02*
X15601428Y71667705D01*
X15601428Y71667705D02*
X15296666Y71667705D01*
X15296666Y71667705D02*
X15220476Y71629610D01*
X15220476Y71629610D02*
X15182381Y71591515D01*
X15182381Y71591515D02*
X15144285Y71515324D01*
X15144285Y71515324D02*
X15144285Y71401039D01*
X15144285Y71401039D02*
X15182381Y71324848D01*
X15182381Y71324848D02*
X15220476Y71286753D01*
X15220476Y71286753D02*
X15296666Y71248658D01*
X15296666Y71248658D02*
X15601428Y71248658D01*
X14382381Y70867705D02*
X14839524Y70867705D01*
X14610952Y70867705D02*
X14610952Y71667705D01*
X14610952Y71667705D02*
X14687143Y71553420D01*
X14687143Y71553420D02*
X14763333Y71477229D01*
X14763333Y71477229D02*
X14839524Y71439134D01*
X14115714Y71667705D02*
X13582380Y71667705D01*
X13582380Y71667705D02*
X13925238Y70867705D01*
X7689285Y49663896D02*
X7727381Y49625800D01*
X7727381Y49625800D02*
X7841666Y49587705D01*
X7841666Y49587705D02*
X7917857Y49587705D01*
X7917857Y49587705D02*
X8032143Y49625800D01*
X8032143Y49625800D02*
X8108333Y49701991D01*
X8108333Y49701991D02*
X8146428Y49778181D01*
X8146428Y49778181D02*
X8184524Y49930562D01*
X8184524Y49930562D02*
X8184524Y50044848D01*
X8184524Y50044848D02*
X8146428Y50197229D01*
X8146428Y50197229D02*
X8108333Y50273420D01*
X8108333Y50273420D02*
X8032143Y50349610D01*
X8032143Y50349610D02*
X7917857Y50387705D01*
X7917857Y50387705D02*
X7841666Y50387705D01*
X7841666Y50387705D02*
X7727381Y50349610D01*
X7727381Y50349610D02*
X7689285Y50311515D01*
X7384524Y50311515D02*
X7346428Y50349610D01*
X7346428Y50349610D02*
X7270238Y50387705D01*
X7270238Y50387705D02*
X7079762Y50387705D01*
X7079762Y50387705D02*
X7003571Y50349610D01*
X7003571Y50349610D02*
X6965476Y50311515D01*
X6965476Y50311515D02*
X6927381Y50235324D01*
X6927381Y50235324D02*
X6927381Y50159134D01*
X6927381Y50159134D02*
X6965476Y50044848D01*
X6965476Y50044848D02*
X7422619Y49587705D01*
X7422619Y49587705D02*
X6927381Y49587705D01*
X6241666Y50387705D02*
X6394047Y50387705D01*
X6394047Y50387705D02*
X6470238Y50349610D01*
X6470238Y50349610D02*
X6508333Y50311515D01*
X6508333Y50311515D02*
X6584523Y50197229D01*
X6584523Y50197229D02*
X6622619Y50044848D01*
X6622619Y50044848D02*
X6622619Y49740086D01*
X6622619Y49740086D02*
X6584523Y49663896D01*
X6584523Y49663896D02*
X6546428Y49625800D01*
X6546428Y49625800D02*
X6470238Y49587705D01*
X6470238Y49587705D02*
X6317857Y49587705D01*
X6317857Y49587705D02*
X6241666Y49625800D01*
X6241666Y49625800D02*
X6203571Y49663896D01*
X6203571Y49663896D02*
X6165476Y49740086D01*
X6165476Y49740086D02*
X6165476Y49930562D01*
X6165476Y49930562D02*
X6203571Y50006753D01*
X6203571Y50006753D02*
X6241666Y50044848D01*
X6241666Y50044848D02*
X6317857Y50082943D01*
X6317857Y50082943D02*
X6470238Y50082943D01*
X6470238Y50082943D02*
X6546428Y50044848D01*
X6546428Y50044848D02*
X6584523Y50006753D01*
X6584523Y50006753D02*
X6622619Y49930562D01*
X13136104Y46264286D02*
X13174200Y46302382D01*
X13174200Y46302382D02*
X13212295Y46416667D01*
X13212295Y46416667D02*
X13212295Y46492858D01*
X13212295Y46492858D02*
X13174200Y46607144D01*
X13174200Y46607144D02*
X13098009Y46683334D01*
X13098009Y46683334D02*
X13021819Y46721429D01*
X13021819Y46721429D02*
X12869438Y46759525D01*
X12869438Y46759525D02*
X12755152Y46759525D01*
X12755152Y46759525D02*
X12602771Y46721429D01*
X12602771Y46721429D02*
X12526580Y46683334D01*
X12526580Y46683334D02*
X12450390Y46607144D01*
X12450390Y46607144D02*
X12412295Y46492858D01*
X12412295Y46492858D02*
X12412295Y46416667D01*
X12412295Y46416667D02*
X12450390Y46302382D01*
X12450390Y46302382D02*
X12488485Y46264286D01*
X13212295Y45502382D02*
X13212295Y45959525D01*
X13212295Y45730953D02*
X12412295Y45730953D01*
X12412295Y45730953D02*
X12526580Y45807144D01*
X12526580Y45807144D02*
X12602771Y45883334D01*
X12602771Y45883334D02*
X12640866Y45959525D01*
X12412295Y44816667D02*
X12412295Y44969048D01*
X12412295Y44969048D02*
X12450390Y45045239D01*
X12450390Y45045239D02*
X12488485Y45083334D01*
X12488485Y45083334D02*
X12602771Y45159524D01*
X12602771Y45159524D02*
X12755152Y45197620D01*
X12755152Y45197620D02*
X13059914Y45197620D01*
X13059914Y45197620D02*
X13136104Y45159524D01*
X13136104Y45159524D02*
X13174200Y45121429D01*
X13174200Y45121429D02*
X13212295Y45045239D01*
X13212295Y45045239D02*
X13212295Y44892858D01*
X13212295Y44892858D02*
X13174200Y44816667D01*
X13174200Y44816667D02*
X13136104Y44778572D01*
X13136104Y44778572D02*
X13059914Y44740477D01*
X13059914Y44740477D02*
X12869438Y44740477D01*
X12869438Y44740477D02*
X12793247Y44778572D01*
X12793247Y44778572D02*
X12755152Y44816667D01*
X12755152Y44816667D02*
X12717057Y44892858D01*
X12717057Y44892858D02*
X12717057Y45045239D01*
X12717057Y45045239D02*
X12755152Y45121429D01*
X12755152Y45121429D02*
X12793247Y45159524D01*
X12793247Y45159524D02*
X12869438Y45197620D01*
X7664285Y50713896D02*
X7702381Y50675800D01*
X7702381Y50675800D02*
X7816666Y50637705D01*
X7816666Y50637705D02*
X7892857Y50637705D01*
X7892857Y50637705D02*
X8007143Y50675800D01*
X8007143Y50675800D02*
X8083333Y50751991D01*
X8083333Y50751991D02*
X8121428Y50828181D01*
X8121428Y50828181D02*
X8159524Y50980562D01*
X8159524Y50980562D02*
X8159524Y51094848D01*
X8159524Y51094848D02*
X8121428Y51247229D01*
X8121428Y51247229D02*
X8083333Y51323420D01*
X8083333Y51323420D02*
X8007143Y51399610D01*
X8007143Y51399610D02*
X7892857Y51437705D01*
X7892857Y51437705D02*
X7816666Y51437705D01*
X7816666Y51437705D02*
X7702381Y51399610D01*
X7702381Y51399610D02*
X7664285Y51361515D01*
X7359524Y51361515D02*
X7321428Y51399610D01*
X7321428Y51399610D02*
X7245238Y51437705D01*
X7245238Y51437705D02*
X7054762Y51437705D01*
X7054762Y51437705D02*
X6978571Y51399610D01*
X6978571Y51399610D02*
X6940476Y51361515D01*
X6940476Y51361515D02*
X6902381Y51285324D01*
X6902381Y51285324D02*
X6902381Y51209134D01*
X6902381Y51209134D02*
X6940476Y51094848D01*
X6940476Y51094848D02*
X7397619Y50637705D01*
X7397619Y50637705D02*
X6902381Y50637705D01*
X6178571Y51437705D02*
X6559523Y51437705D01*
X6559523Y51437705D02*
X6597619Y51056753D01*
X6597619Y51056753D02*
X6559523Y51094848D01*
X6559523Y51094848D02*
X6483333Y51132943D01*
X6483333Y51132943D02*
X6292857Y51132943D01*
X6292857Y51132943D02*
X6216666Y51094848D01*
X6216666Y51094848D02*
X6178571Y51056753D01*
X6178571Y51056753D02*
X6140476Y50980562D01*
X6140476Y50980562D02*
X6140476Y50790086D01*
X6140476Y50790086D02*
X6178571Y50713896D01*
X6178571Y50713896D02*
X6216666Y50675800D01*
X6216666Y50675800D02*
X6292857Y50637705D01*
X6292857Y50637705D02*
X6483333Y50637705D01*
X6483333Y50637705D02*
X6559523Y50675800D01*
X6559523Y50675800D02*
X6597619Y50713896D01*
X17236104Y46164286D02*
X17274200Y46202382D01*
X17274200Y46202382D02*
X17312295Y46316667D01*
X17312295Y46316667D02*
X17312295Y46392858D01*
X17312295Y46392858D02*
X17274200Y46507144D01*
X17274200Y46507144D02*
X17198009Y46583334D01*
X17198009Y46583334D02*
X17121819Y46621429D01*
X17121819Y46621429D02*
X16969438Y46659525D01*
X16969438Y46659525D02*
X16855152Y46659525D01*
X16855152Y46659525D02*
X16702771Y46621429D01*
X16702771Y46621429D02*
X16626580Y46583334D01*
X16626580Y46583334D02*
X16550390Y46507144D01*
X16550390Y46507144D02*
X16512295Y46392858D01*
X16512295Y46392858D02*
X16512295Y46316667D01*
X16512295Y46316667D02*
X16550390Y46202382D01*
X16550390Y46202382D02*
X16588485Y46164286D01*
X17312295Y45402382D02*
X17312295Y45859525D01*
X17312295Y45630953D02*
X16512295Y45630953D01*
X16512295Y45630953D02*
X16626580Y45707144D01*
X16626580Y45707144D02*
X16702771Y45783334D01*
X16702771Y45783334D02*
X16740866Y45859525D01*
X16512295Y44907143D02*
X16512295Y44830953D01*
X16512295Y44830953D02*
X16550390Y44754762D01*
X16550390Y44754762D02*
X16588485Y44716667D01*
X16588485Y44716667D02*
X16664676Y44678572D01*
X16664676Y44678572D02*
X16817057Y44640477D01*
X16817057Y44640477D02*
X17007533Y44640477D01*
X17007533Y44640477D02*
X17159914Y44678572D01*
X17159914Y44678572D02*
X17236104Y44716667D01*
X17236104Y44716667D02*
X17274200Y44754762D01*
X17274200Y44754762D02*
X17312295Y44830953D01*
X17312295Y44830953D02*
X17312295Y44907143D01*
X17312295Y44907143D02*
X17274200Y44983334D01*
X17274200Y44983334D02*
X17236104Y45021429D01*
X17236104Y45021429D02*
X17159914Y45059524D01*
X17159914Y45059524D02*
X17007533Y45097620D01*
X17007533Y45097620D02*
X16817057Y45097620D01*
X16817057Y45097620D02*
X16664676Y45059524D01*
X16664676Y45059524D02*
X16588485Y45021429D01*
X16588485Y45021429D02*
X16550390Y44983334D01*
X16550390Y44983334D02*
X16512295Y44907143D01*
X7664285Y47563896D02*
X7702381Y47525800D01*
X7702381Y47525800D02*
X7816666Y47487705D01*
X7816666Y47487705D02*
X7892857Y47487705D01*
X7892857Y47487705D02*
X8007143Y47525800D01*
X8007143Y47525800D02*
X8083333Y47601991D01*
X8083333Y47601991D02*
X8121428Y47678181D01*
X8121428Y47678181D02*
X8159524Y47830562D01*
X8159524Y47830562D02*
X8159524Y47944848D01*
X8159524Y47944848D02*
X8121428Y48097229D01*
X8121428Y48097229D02*
X8083333Y48173420D01*
X8083333Y48173420D02*
X8007143Y48249610D01*
X8007143Y48249610D02*
X7892857Y48287705D01*
X7892857Y48287705D02*
X7816666Y48287705D01*
X7816666Y48287705D02*
X7702381Y48249610D01*
X7702381Y48249610D02*
X7664285Y48211515D01*
X7359524Y48211515D02*
X7321428Y48249610D01*
X7321428Y48249610D02*
X7245238Y48287705D01*
X7245238Y48287705D02*
X7054762Y48287705D01*
X7054762Y48287705D02*
X6978571Y48249610D01*
X6978571Y48249610D02*
X6940476Y48211515D01*
X6940476Y48211515D02*
X6902381Y48135324D01*
X6902381Y48135324D02*
X6902381Y48059134D01*
X6902381Y48059134D02*
X6940476Y47944848D01*
X6940476Y47944848D02*
X7397619Y47487705D01*
X7397619Y47487705D02*
X6902381Y47487705D01*
X6445238Y47944848D02*
X6521428Y47982943D01*
X6521428Y47982943D02*
X6559523Y48021039D01*
X6559523Y48021039D02*
X6597619Y48097229D01*
X6597619Y48097229D02*
X6597619Y48135324D01*
X6597619Y48135324D02*
X6559523Y48211515D01*
X6559523Y48211515D02*
X6521428Y48249610D01*
X6521428Y48249610D02*
X6445238Y48287705D01*
X6445238Y48287705D02*
X6292857Y48287705D01*
X6292857Y48287705D02*
X6216666Y48249610D01*
X6216666Y48249610D02*
X6178571Y48211515D01*
X6178571Y48211515D02*
X6140476Y48135324D01*
X6140476Y48135324D02*
X6140476Y48097229D01*
X6140476Y48097229D02*
X6178571Y48021039D01*
X6178571Y48021039D02*
X6216666Y47982943D01*
X6216666Y47982943D02*
X6292857Y47944848D01*
X6292857Y47944848D02*
X6445238Y47944848D01*
X6445238Y47944848D02*
X6521428Y47906753D01*
X6521428Y47906753D02*
X6559523Y47868658D01*
X6559523Y47868658D02*
X6597619Y47792467D01*
X6597619Y47792467D02*
X6597619Y47640086D01*
X6597619Y47640086D02*
X6559523Y47563896D01*
X6559523Y47563896D02*
X6521428Y47525800D01*
X6521428Y47525800D02*
X6445238Y47487705D01*
X6445238Y47487705D02*
X6292857Y47487705D01*
X6292857Y47487705D02*
X6216666Y47525800D01*
X6216666Y47525800D02*
X6178571Y47563896D01*
X6178571Y47563896D02*
X6140476Y47640086D01*
X6140476Y47640086D02*
X6140476Y47792467D01*
X6140476Y47792467D02*
X6178571Y47868658D01*
X6178571Y47868658D02*
X6216666Y47906753D01*
X6216666Y47906753D02*
X6292857Y47944848D01*
X7664285Y46488896D02*
X7702381Y46450800D01*
X7702381Y46450800D02*
X7816666Y46412705D01*
X7816666Y46412705D02*
X7892857Y46412705D01*
X7892857Y46412705D02*
X8007143Y46450800D01*
X8007143Y46450800D02*
X8083333Y46526991D01*
X8083333Y46526991D02*
X8121428Y46603181D01*
X8121428Y46603181D02*
X8159524Y46755562D01*
X8159524Y46755562D02*
X8159524Y46869848D01*
X8159524Y46869848D02*
X8121428Y47022229D01*
X8121428Y47022229D02*
X8083333Y47098420D01*
X8083333Y47098420D02*
X8007143Y47174610D01*
X8007143Y47174610D02*
X7892857Y47212705D01*
X7892857Y47212705D02*
X7816666Y47212705D01*
X7816666Y47212705D02*
X7702381Y47174610D01*
X7702381Y47174610D02*
X7664285Y47136515D01*
X7359524Y47136515D02*
X7321428Y47174610D01*
X7321428Y47174610D02*
X7245238Y47212705D01*
X7245238Y47212705D02*
X7054762Y47212705D01*
X7054762Y47212705D02*
X6978571Y47174610D01*
X6978571Y47174610D02*
X6940476Y47136515D01*
X6940476Y47136515D02*
X6902381Y47060324D01*
X6902381Y47060324D02*
X6902381Y46984134D01*
X6902381Y46984134D02*
X6940476Y46869848D01*
X6940476Y46869848D02*
X7397619Y46412705D01*
X7397619Y46412705D02*
X6902381Y46412705D01*
X6521428Y46412705D02*
X6369047Y46412705D01*
X6369047Y46412705D02*
X6292857Y46450800D01*
X6292857Y46450800D02*
X6254761Y46488896D01*
X6254761Y46488896D02*
X6178571Y46603181D01*
X6178571Y46603181D02*
X6140476Y46755562D01*
X6140476Y46755562D02*
X6140476Y47060324D01*
X6140476Y47060324D02*
X6178571Y47136515D01*
X6178571Y47136515D02*
X6216666Y47174610D01*
X6216666Y47174610D02*
X6292857Y47212705D01*
X6292857Y47212705D02*
X6445238Y47212705D01*
X6445238Y47212705D02*
X6521428Y47174610D01*
X6521428Y47174610D02*
X6559523Y47136515D01*
X6559523Y47136515D02*
X6597619Y47060324D01*
X6597619Y47060324D02*
X6597619Y46869848D01*
X6597619Y46869848D02*
X6559523Y46793658D01*
X6559523Y46793658D02*
X6521428Y46755562D01*
X6521428Y46755562D02*
X6445238Y46717467D01*
X6445238Y46717467D02*
X6292857Y46717467D01*
X6292857Y46717467D02*
X6216666Y46755562D01*
X6216666Y46755562D02*
X6178571Y46793658D01*
X6178571Y46793658D02*
X6140476Y46869848D01*
X12964285Y19913896D02*
X13002381Y19875800D01*
X13002381Y19875800D02*
X13116666Y19837705D01*
X13116666Y19837705D02*
X13192857Y19837705D01*
X13192857Y19837705D02*
X13307143Y19875800D01*
X13307143Y19875800D02*
X13383333Y19951991D01*
X13383333Y19951991D02*
X13421428Y20028181D01*
X13421428Y20028181D02*
X13459524Y20180562D01*
X13459524Y20180562D02*
X13459524Y20294848D01*
X13459524Y20294848D02*
X13421428Y20447229D01*
X13421428Y20447229D02*
X13383333Y20523420D01*
X13383333Y20523420D02*
X13307143Y20599610D01*
X13307143Y20599610D02*
X13192857Y20637705D01*
X13192857Y20637705D02*
X13116666Y20637705D01*
X13116666Y20637705D02*
X13002381Y20599610D01*
X13002381Y20599610D02*
X12964285Y20561515D01*
X12278571Y20371039D02*
X12278571Y19837705D01*
X12469047Y20675800D02*
X12659524Y20104372D01*
X12659524Y20104372D02*
X12164285Y20104372D01*
X11745238Y20294848D02*
X11821428Y20332943D01*
X11821428Y20332943D02*
X11859523Y20371039D01*
X11859523Y20371039D02*
X11897619Y20447229D01*
X11897619Y20447229D02*
X11897619Y20485324D01*
X11897619Y20485324D02*
X11859523Y20561515D01*
X11859523Y20561515D02*
X11821428Y20599610D01*
X11821428Y20599610D02*
X11745238Y20637705D01*
X11745238Y20637705D02*
X11592857Y20637705D01*
X11592857Y20637705D02*
X11516666Y20599610D01*
X11516666Y20599610D02*
X11478571Y20561515D01*
X11478571Y20561515D02*
X11440476Y20485324D01*
X11440476Y20485324D02*
X11440476Y20447229D01*
X11440476Y20447229D02*
X11478571Y20371039D01*
X11478571Y20371039D02*
X11516666Y20332943D01*
X11516666Y20332943D02*
X11592857Y20294848D01*
X11592857Y20294848D02*
X11745238Y20294848D01*
X11745238Y20294848D02*
X11821428Y20256753D01*
X11821428Y20256753D02*
X11859523Y20218658D01*
X11859523Y20218658D02*
X11897619Y20142467D01*
X11897619Y20142467D02*
X11897619Y19990086D01*
X11897619Y19990086D02*
X11859523Y19913896D01*
X11859523Y19913896D02*
X11821428Y19875800D01*
X11821428Y19875800D02*
X11745238Y19837705D01*
X11745238Y19837705D02*
X11592857Y19837705D01*
X11592857Y19837705D02*
X11516666Y19875800D01*
X11516666Y19875800D02*
X11478571Y19913896D01*
X11478571Y19913896D02*
X11440476Y19990086D01*
X11440476Y19990086D02*
X11440476Y20142467D01*
X11440476Y20142467D02*
X11478571Y20218658D01*
X11478571Y20218658D02*
X11516666Y20256753D01*
X11516666Y20256753D02*
X11592857Y20294848D01*
D13*
%TO.C,R48*%
X12590000Y15206359D02*
X12590000Y15513641D01*
X13350000Y15206359D02*
X13350000Y15513641D01*
%TO.C,C14*%
X13719212Y55098624D02*
X13719212Y54882952D01*
X14439212Y55098624D02*
X14439212Y54882952D01*
%TO.C,C4*%
X14944212Y55098624D02*
X14944212Y54882952D01*
X15664212Y55098624D02*
X15664212Y54882952D01*
%TO.C,C3*%
X16944212Y55073624D02*
X16944212Y54857952D01*
X17664212Y55073624D02*
X17664212Y54857952D01*
%TO.C,C8*%
X10319212Y48012952D02*
X10319212Y48228624D01*
X11039212Y48012952D02*
X11039212Y48228624D01*
%TO.C,C7*%
X11066376Y52305788D02*
X11282048Y52305788D01*
X11066376Y51585788D02*
X11282048Y51585788D01*
%TO.C,C5*%
X11071376Y55605788D02*
X11287048Y55605788D01*
X11071376Y54885788D02*
X11287048Y54885788D01*
%TO.C,R49*%
X13590000Y15216359D02*
X13590000Y15523641D01*
X14350000Y15216359D02*
X14350000Y15523641D01*
%TO.C,C15*%
X11066376Y51355788D02*
X11282048Y51355788D01*
X11066376Y50635788D02*
X11282048Y50635788D01*
%TO.C,C31*%
X5032048Y45180788D02*
X4816376Y45180788D01*
X5032048Y44460788D02*
X4816376Y44460788D01*
%TO.C,C27*%
X5037048Y49130788D02*
X4821376Y49130788D01*
X5037048Y48410788D02*
X4821376Y48410788D01*
%TO.C,D1*%
X12040000Y70460000D02*
X12040000Y70150000D01*
X12040000Y70460000D02*
X13200000Y70460000D01*
X12040000Y68540000D02*
X12040000Y68850000D01*
X12040000Y68540000D02*
X13200000Y68540000D01*
D12*
X13925000Y70000000D02*
G75*
G02*
X13775000Y70000000I-75000J0D01*
G01*
X13775000Y70000000D02*
G75*
G02*
X13925000Y70000000I75000J0D01*
G01*
D13*
%TO.C,C9*%
X13719212Y47837952D02*
X13719212Y48053624D01*
X14439212Y47837952D02*
X14439212Y48053624D01*
%TO.C,R18*%
X12416359Y68110000D02*
X12723641Y68110000D01*
X12416359Y67350000D02*
X12723641Y67350000D01*
%TO.C,C32*%
X5032048Y44205788D02*
X4816376Y44205788D01*
X5032048Y43485788D02*
X4816376Y43485788D01*
%TO.C,R38*%
X10570000Y15513641D02*
X10570000Y15206359D01*
X11330000Y15513641D02*
X11330000Y15206359D01*
%TO.C,C1*%
X18217048Y49630788D02*
X18001376Y49630788D01*
X18217048Y48910788D02*
X18001376Y48910788D01*
%TO.C,C37*%
X14830000Y15507836D02*
X14830000Y15292164D01*
X15550000Y15507836D02*
X15550000Y15292164D01*
%TO.C,C59*%
X16040000Y75511252D02*
X16040000Y74088748D01*
X17860000Y75511252D02*
X17860000Y74088748D01*
%TO.C,D8*%
X14750000Y65310000D02*
X14750000Y59800000D01*
X14750000Y65310000D02*
X18050000Y65310000D01*
X18050000Y65310000D02*
X18050000Y59800000D01*
%TO.C,C43*%
X14892164Y21710000D02*
X15107836Y21710000D01*
X14892164Y20990000D02*
X15107836Y20990000D01*
%TO.C,C13*%
X18362048Y51630788D02*
X18146376Y51630788D01*
X18362048Y50910788D02*
X18146376Y50910788D01*
%TO.C,C2*%
X18362048Y53605788D02*
X18146376Y53605788D01*
X18362048Y52885788D02*
X18146376Y52885788D01*
%TO.C,R37*%
X11580000Y15513641D02*
X11580000Y15206359D01*
X12340000Y15513641D02*
X12340000Y15206359D01*
%TO.C,C30*%
X5037048Y46155788D02*
X4821376Y46155788D01*
X5037048Y45435788D02*
X4821376Y45435788D01*
%TO.C,R17*%
X12406359Y71640000D02*
X12713641Y71640000D01*
X12406359Y70880000D02*
X12713641Y70880000D01*
%TO.C,C26*%
X5057048Y50105788D02*
X4841376Y50105788D01*
X5057048Y49385788D02*
X4841376Y49385788D01*
%TO.C,C16*%
X12394212Y47837952D02*
X12394212Y48053624D01*
X13114212Y47837952D02*
X13114212Y48053624D01*
%TO.C,C25*%
X5057048Y51080788D02*
X4841376Y51080788D01*
X5057048Y50360788D02*
X4841376Y50360788D01*
%TO.C,C10*%
X16519212Y47762952D02*
X16519212Y47978624D01*
X17239212Y47762952D02*
X17239212Y47978624D01*
%TO.C,C28*%
X5032048Y48130788D02*
X4816376Y48130788D01*
X5032048Y47410788D02*
X4816376Y47410788D01*
%TO.C,C29*%
X5032048Y47130788D02*
X4816376Y47130788D01*
X5032048Y46410788D02*
X4816376Y46410788D01*
%TO.C,C48*%
X12607836Y21710000D02*
X12392164Y21710000D01*
X12607836Y20990000D02*
X12392164Y20990000D01*
%TD*%
%LPC*%
D12*
X12900000Y53150000D02*
X16400000Y53150000D01*
X16400000Y49700000D01*
X12900000Y49700000D01*
X12900000Y53150000D01*
G36*
X12900000Y53150000D02*
G01*
X16400000Y53150000D01*
X16400000Y49700000D01*
X12900000Y49700000D01*
X12900000Y53150000D01*
G37*
X17150000Y36100000D02*
X20300000Y36100000D01*
X20300000Y32050000D01*
X17150000Y32050000D01*
X17150000Y36100000D01*
G36*
X17150000Y36100000D02*
G01*
X20300000Y36100000D01*
X20300000Y32050000D01*
X17150000Y32050000D01*
X17150000Y36100000D01*
G37*
X5650000Y69850000D02*
X7850000Y69850000D01*
X7850000Y68350000D01*
X5650000Y68350000D01*
X5650000Y69850000D01*
G36*
X5650000Y69850000D02*
G01*
X7850000Y69850000D01*
X7850000Y68350000D01*
X5650000Y68350000D01*
X5650000Y69850000D01*
G37*
D14*
%TO.C,J3*%
X26365000Y75620000D03*
X20585000Y75620000D03*
D15*
X27795000Y75120000D03*
D16*
X27795000Y79300000D03*
D15*
X19155000Y75120000D03*
D16*
X19155000Y79300000D03*
%TD*%
D17*
%TO.C,J1*%
X23675000Y1850000D03*
X23175000Y1850000D03*
X22675000Y1850000D03*
X22175000Y1850000D03*
X21675000Y1850000D03*
X21175000Y1850000D03*
X20675000Y1850000D03*
X20175000Y1850000D03*
X19675000Y1850000D03*
X19175000Y1850000D03*
X18675000Y1850000D03*
X18175000Y1850000D03*
X17675000Y1850000D03*
X17175000Y1850000D03*
X16675000Y1850000D03*
X16175000Y1850000D03*
X15675000Y1850000D03*
X15175000Y1850000D03*
X14675000Y1850000D03*
X14175000Y1850000D03*
X13675000Y1850000D03*
X13175000Y1850000D03*
X12675000Y1850000D03*
X12175000Y1850000D03*
X11675000Y1850000D03*
X11175000Y1850000D03*
X10675000Y1850000D03*
X10175000Y1850000D03*
X9675000Y1850000D03*
X7175000Y1850000D03*
X6675000Y1850000D03*
X6175000Y1850000D03*
X5675000Y1850000D03*
D18*
X14721447Y80770000D03*
%TD*%
D19*
%TO.C,IC1*%
X15529212Y50595788D03*
X15529212Y51445788D03*
X15529212Y52295788D03*
X14679212Y50595788D03*
X14679212Y51445788D03*
X14679212Y52295788D03*
X13829212Y50595788D03*
X13829212Y51445788D03*
X13829212Y52295788D03*
%TD*%
D20*
%TO.C,R48*%
X12970000Y14850000D03*
X12970000Y15870000D03*
%TD*%
D21*
%TO.C,C14*%
X14079212Y55470788D03*
X14079212Y54510788D03*
%TD*%
%TO.C,C4*%
X15304212Y55470788D03*
X15304212Y54510788D03*
%TD*%
%TO.C,C3*%
X17304212Y55445788D03*
X17304212Y54485788D03*
%TD*%
D22*
%TO.C,C8*%
X10679212Y47640788D03*
X10679212Y48600788D03*
%TD*%
D23*
%TO.C,C7*%
X10694212Y51945788D03*
X11654212Y51945788D03*
%TD*%
%TO.C,C5*%
X10699212Y55245788D03*
X11659212Y55245788D03*
%TD*%
D20*
%TO.C,R49*%
X13970000Y14860000D03*
X13970000Y15880000D03*
%TD*%
D23*
%TO.C,C15*%
X10694212Y50995788D03*
X11654212Y50995788D03*
%TD*%
D24*
%TO.C,C31*%
X5404212Y44820788D03*
X4444212Y44820788D03*
%TD*%
%TO.C,C27*%
X5409212Y48770788D03*
X4449212Y48770788D03*
%TD*%
D25*
%TO.C,D1*%
X13200000Y70000000D03*
X13200000Y69000000D03*
X11900000Y69500000D03*
%TD*%
D22*
%TO.C,C9*%
X14079212Y47465788D03*
X14079212Y48425788D03*
%TD*%
D26*
%TO.C,R18*%
X12060000Y67730000D03*
X13080000Y67730000D03*
%TD*%
D24*
%TO.C,C32*%
X5404212Y43845788D03*
X4444212Y43845788D03*
%TD*%
D27*
%TO.C,R38*%
X10950000Y15870000D03*
X10950000Y14850000D03*
%TD*%
D24*
%TO.C,C1*%
X18589212Y49270788D03*
X17629212Y49270788D03*
%TD*%
D21*
%TO.C,C37*%
X15190000Y15880000D03*
X15190000Y14920000D03*
%TD*%
D28*
%TO.C,C59*%
X16950000Y76275000D03*
X16950000Y73325000D03*
%TD*%
D29*
%TO.C,D8*%
X16400000Y63800000D03*
X16400000Y59800000D03*
%TD*%
D23*
%TO.C,C43*%
X14520000Y21350000D03*
X15480000Y21350000D03*
%TD*%
D24*
%TO.C,C13*%
X18734212Y51270788D03*
X17774212Y51270788D03*
%TD*%
%TO.C,C2*%
X18734212Y53245788D03*
X17774212Y53245788D03*
%TD*%
D27*
%TO.C,R37*%
X11960000Y15870000D03*
X11960000Y14850000D03*
%TD*%
D24*
%TO.C,C30*%
X5409212Y45795788D03*
X4449212Y45795788D03*
%TD*%
D26*
%TO.C,R17*%
X12050000Y71260000D03*
X13070000Y71260000D03*
%TD*%
D24*
%TO.C,C26*%
X5429212Y49745788D03*
X4469212Y49745788D03*
%TD*%
D22*
%TO.C,C16*%
X12754212Y47465788D03*
X12754212Y48425788D03*
%TD*%
D24*
%TO.C,C25*%
X5429212Y50720788D03*
X4469212Y50720788D03*
%TD*%
D22*
%TO.C,C10*%
X16879212Y47390788D03*
X16879212Y48350788D03*
%TD*%
D24*
%TO.C,C28*%
X5404212Y47770788D03*
X4444212Y47770788D03*
%TD*%
%TO.C,C29*%
X5404212Y46770788D03*
X4444212Y46770788D03*
%TD*%
%TO.C,C48*%
X12980000Y21350000D03*
X12020000Y21350000D03*
%TD*%
%LPD*%
M02*
