M48
; DRILL file {KiCad 9.0.7} date 2026-02-28T14:28:49+0100
; FORMAT={-:-/ absolute / inch / decimal}
; #@! TF.CreationDate,2026-02-28T14:28:49+01:00
; #@! TF.GenerationSoftware,Kicad,Pcbnew,9.0.7
; #@! TF.FileFunction,Plated,1,6,PTH
FMAT,2
INCH
; #@! TA.AperFunction,Plated,PTH,ViaDrill
T1C0.0079
; #@! TA.AperFunction,Plated,PTH,ComponentDrill
T2C0.0084
; #@! TA.AperFunction,Plated,PTH,ComponentDrill
T3C0.0118
; #@! TA.AperFunction,Plated,PTH,ComponentDrill
T4C0.0236
; #@! TA.AperFunction,Plated,PTH,ComponentDrill
T5C0.1378
%
G90
G05
T1
X0.0413Y0.3957
X0.0423Y0.2756
X0.0433Y0.2362
X0.0499Y2.2205
X0.0502Y2.1791
X0.0591Y2.937
X0.0591Y2.8976
X0.0591Y2.8583
X0.0591Y2.8189
X0.0629Y2.3531
X0.0709Y0.2057
X0.0728Y2.438
X0.0787Y2.6811
X0.0787Y2.6417
X0.0807Y2.9705
X0.0945Y0.8524
X0.0945Y0.8268
X0.0945Y0.8012
X0.0974Y0.4606
X0.0984Y2.937
X0.0984Y2.8976
X0.0984Y2.8189
X0.1112Y2.377
X0.1181Y2.6811
X0.1181Y2.6417
X0.1289Y3.124
X0.1299Y0.3976
X0.1299Y0.3563
X0.1309Y2.6132
X0.1319Y2.5768
X0.1329Y1.6909
X0.1368Y2.1821
X0.137Y2.4874
X0.1378Y2.937
X0.1378Y2.8976
X0.1378Y2.8189
X0.1378Y0.2598
X0.1378Y0.2205
X0.1398Y1.8415
X0.1407Y1.9203
X0.1407Y1.8819
X0.1407Y1.8012
X0.1407Y1.7618
X0.1407Y1.7234
X0.1427Y1.9587
X0.1437Y2.2598
X0.1447Y1.997
X0.1457Y2.1339
X0.1476Y2.0531
X0.1516Y2.2205
X0.1575Y2.6811
X0.1575Y2.6417
X0.1594Y2.5472
X0.1628Y1.69
X0.1771Y2.8971
X0.1772Y2.937
X0.1772Y2.8189
X0.1772Y0.2598
X0.1772Y0.2205
X0.1821Y2.9734
X0.186Y2.3829
X0.187Y2.3514
X0.187Y0.7126
X0.188Y2.2972
X0.188Y2.1496
X0.189Y2.2657
X0.1969Y0.5551
X0.1998Y2.5472
X0.2047Y0.4872
X0.2072Y2.905
X0.2125Y1.8425
X0.2125Y1.8005
X0.2132Y1.8822
X0.2136Y2.0007
X0.2143Y1.7277
X0.2145Y1.921
X0.2147Y1.7628
X0.2152Y1.9603
X0.2185Y3.1378
X0.2195Y0.2175
X0.2323Y3.0364
X0.2362Y3.0906
X0.249Y0.3504
X0.251Y0.9094
X0.252Y0.8711
X0.2531Y1.3996
X0.2549Y2.5472
X0.2638Y1.1339
X0.2656Y1.0526
X0.2657Y2.4764
X0.2677Y0.687
X0.2726Y0.8307
X0.2756Y0.939
X0.2766Y0.3504
X0.2815Y1.4577
X0.2854Y0.999
X0.2894Y0.6772
X0.2911Y1.6812
X0.2913Y0.9665
X0.2953Y2.5482
X0.3091Y0.247
X0.313Y0.6683
X0.315Y1.4961
X0.315Y0.9409
X0.315Y0.8386
X0.3189Y1.372
X0.3189Y1.1102
X0.3189Y0.2215
X0.3238Y2.5748
X0.3307Y0.8071
X0.3337Y2.7953
X0.3337Y2.6624
X0.3346Y2.8563
X0.3376Y0.6575
X0.3415Y2.9085
X0.3425Y0.2835
X0.3484Y3.0925
X0.3514Y1.5325
X0.3558Y2.8272
X0.3581Y0.5926
X0.3602Y2.2874
X0.3602Y1.2224
X0.3642Y0.7717
X0.3642Y0.2234
X0.3681Y3.0118
X0.3681Y0.2549
X0.3711Y0.1939
X0.3799Y2.9626
X0.3819Y2.4409
X0.3848Y0.6417
X0.3878Y1.1102
X0.3947Y2.6083
X0.3947Y2.5876
X0.3947Y2.5659
X0.4014Y0.7224
X0.4195Y2.0412
X0.4195Y2.0097
X0.4199Y1.773
X0.4203Y1.939
X0.4204Y1.8768
X0.4214Y2.175
X0.4265Y0.44
X0.4272Y1.4508
X0.4311Y0.5846
X0.4331Y0.815
X0.435Y1.5906
X0.4372Y0.4173
X0.442Y2.7569
X0.4483Y2.6746
X0.4488Y2.7185
X0.4528Y1.6929
X0.4547Y1.8986
X0.4587Y2.0699
X0.4587Y1.9814
X0.4648Y0.4173
X0.4677Y1.8679
X0.4709Y0.5846
X0.4724Y0.9882
X0.4724Y0.9094
X0.4724Y0.811
X0.4744Y2.8071
X0.4764Y0.44
X0.4803Y1.4843
X0.4852Y2.1752
X0.4862Y1.2106
X0.4911Y2.5276
X0.4991Y1.6834
X0.4992Y1.8679
X0.503Y1.9371
X0.5049Y0.4183
X0.5102Y2.8102
X0.5106Y0.5846
X0.5118Y0.811
X0.5157Y2.3268
X0.5163Y0.44
X0.5236Y2.5797
X0.5309Y1.683
X0.542Y2.2953
X0.5437Y2.9628
X0.5439Y0.44
X0.547Y2.8049
X0.55Y0.5846
X0.5502Y2.56
X0.5512Y0.9882
X0.5512Y0.9094
X0.5533Y2.1829
X0.5533Y1.867
X0.5541Y2.122
X0.5551Y1.9361
X0.5567Y0.1815
X0.563Y2.6969
X0.5679Y1.2037
X0.5689Y1.3268
X0.5709Y0.811
X0.5748Y2.7264
X0.5787Y2.6555
X0.5906Y0.4764
X0.5921Y2.9331
X0.598Y0.563
X0.6015Y2.1839
X0.6024Y2.122
X0.6033Y2.9008
X0.6043Y1.2234
X0.6102Y0.811
X0.6211Y2.8051
X0.622Y0.5874
X0.6299Y0.9882
X0.6299Y0.9094
X0.6368Y2.4026
X0.6368Y0.1831
X0.6378Y2.6555
X0.6378Y1.2165
X0.6378Y1.185
X0.6378Y1.1535
X0.6496Y0.624
X0.6516Y2.1447
X0.6521Y1.9366
X0.6594Y0.9291
X0.6594Y0.8701
X0.6594Y0.8307
X0.6645Y1.8679
X0.6673Y3.003
X0.6693Y2.8883
X0.6693Y0.5551
X0.6732Y2.0965
X0.6732Y2.0187
X0.6752Y1.6654
X0.6791Y0.6831
X0.6791Y0.6437
X0.6803Y2.1839
X0.6821Y2.6152
X0.687Y3.0846
X0.6881Y2.7494
X0.6881Y2.7238
X0.6881Y2.6982
X0.6881Y2.6726
X0.6929Y1.1083
X0.6939Y1.9104
X0.6988Y1.3622
X0.6988Y1.2736
X0.6992Y1.4054
X0.6992Y1.32
X0.7087Y0.752
X0.7248Y0.1827
X0.7354Y1.9388
X0.7374Y2.0963
X0.7382Y1.3622
X0.7382Y1.2736
X0.7385Y1.4054
X0.7385Y1.32
X0.7393Y2.0176
X0.7421Y1.1083
X0.7469Y2.572
X0.7746Y2.8927
X0.7746Y2.8661
X0.7776Y1.3622
X0.7776Y1.2736
X0.7779Y1.4054
X0.7779Y1.32
X0.778Y2.5713
X0.7874Y2.748
X0.7874Y2.7224
X0.7874Y2.6969
X0.7874Y2.6713
X0.7913Y0.3159
X0.7953Y1.2165
X0.7953Y1.185
X0.7953Y1.1535
X0.7965Y0.9685
X0.7972Y0.8799
X0.7972Y0.8406
X0.8092Y2.5717
X0.811Y2.3071
X0.812Y0.3425
X0.8199Y2.8012
X0.8268Y2.6457
X0.8268Y0.752
X0.8287Y2.8927
X0.8297Y2.9323
X0.8346Y0.3247
X0.8356Y3.0069
X0.8417Y2.572
X0.8433Y0.1827
X0.8435Y1.4449
X0.8504Y2.6457
X0.8533Y1.1329
X0.8563Y0.3445
X0.8642Y1.0492
X0.8652Y1.0896
X0.8654Y0.9685
X0.8654Y0.8799
X0.8654Y0.8406
X0.8661Y1.0079
X0.8661Y0.9291
X0.876Y2.6457
X0.8794Y3.0379
X0.8809Y0.3553
X0.8927Y2.7343
X0.8957Y2.5463
X0.8957Y2.5226
X0.8957Y0.7992
X0.8962Y3.0546
X0.9006Y2.4902
X0.9035Y0.3622
X0.9134Y1.2343
X0.9164Y2.7343
X0.9262Y0.372
X0.9419Y0.1831
X0.9496Y0.2717
X0.965Y2.3827
X0.9654Y2.4457
X0.9654Y2.3516
X0.9657Y2.4146
X0.9657Y2.2965
X0.9661Y2.2657
X0.9685Y2.4783
X0.9728Y0.2795
X0.9932Y2.3219
X0.9984Y0.2864
X1.0128Y3.0069
X1.0187Y2.9323
X1.0187Y2.8917
X1.0187Y2.8071
X1.0236Y0.2795
X1.0236Y0.2795
X1.0236Y0.2008
X1.0541Y2.8652
X1.0709Y2.8957
X1.0709Y0.563
X1.0709Y0.4134
X1.0709Y0.3189
X1.0846Y2.6949
X1.1024Y0.2795
X1.1024Y0.2008
X1.1083Y2.6949
X1.1122Y2.5512
X1.1122Y2.5276
X1.1122Y2.5039
T2
X0.5445Y2.0589
X0.5445Y2.0254
X0.5445Y1.992
X0.5779Y2.0589
X0.5779Y2.0254
X0.5779Y1.992
X0.6114Y2.0589
X0.6114Y2.0254
X0.6114Y1.992
T3
X0.2319Y2.7394
X0.2319Y2.7016
X0.2657Y2.7205
X0.2996Y2.7394
X0.2996Y2.7016
T5
X0.5796Y3.1799
T4
G00X0.7541Y3.1102
M15
G01X0.7541Y3.1339
M16
G05
G00X0.7541Y2.9358
M15
G01X0.7541Y2.9791
M16
G05
G00X1.0943Y3.1102
M15
G01X1.0943Y3.1339
M16
G05
G00X1.0943Y2.9358
M15
G01X1.0943Y2.9791
M16
G05
M30
