M48
; DRILL file {KiCad 9.0.2} date 2026-02-05T18:46:00+0100
; FORMAT={-:-/ absolute / inch / decimal}
; #@! TF.CreationDate,2026-02-05T18:46:00+01:00
; #@! TF.GenerationSoftware,Kicad,Pcbnew,9.0.2
; #@! TF.FileFunction,Plated,1,6,PTH
FMAT,2
INCH
; #@! TA.AperFunction,Plated,PTH,ViaDrill
T1C0.0079
; #@! TA.AperFunction,Plated,PTH,ComponentDrill
T2C0.0079
; #@! TA.AperFunction,Plated,PTH,ViaDrill
T3C0.0098
; #@! TA.AperFunction,Plated,PTH,ViaDrill
T4C0.0118
; #@! TA.AperFunction,Plated,PTH,ComponentDrill
T5C0.0118
; #@! TA.AperFunction,Plated,PTH,ComponentDrill
T6C0.0157
; #@! TA.AperFunction,Plated,PTH,ComponentDrill
T7C0.0236
; #@! TA.AperFunction,Plated,PTH,ComponentDrill
T8C0.0866
%
G90
G05
T1
X0.0423Y1.1831
X0.0797Y0.6201
X0.1191Y1.1476
X0.1191Y1.1112
X0.1654Y0.6417
X0.185Y0.6181
X0.2195Y1.2844
X0.2197Y0.8868
X0.2197Y0.8474
X0.2303Y1.2008
X0.24Y0.5406
X0.2431Y1.3179
X0.253Y0.3819
X0.2549Y0.439
X0.2618Y1.3465
X0.2701Y1.2687
X0.2701Y1.2278
X0.2756Y0.6457
X0.2756Y0.5276
X0.2864Y1.1033
X0.2874Y1.1555
X0.2874Y1.1299
X0.3238Y1.0591
X0.3248Y1.0199
X0.3327Y0.7167
X0.3425Y0.4026
X0.3455Y0.6516
X0.3465Y0.497
X0.3671Y0.5374
X0.3701Y0.7175
X0.3829Y0.4508
X0.3976Y0.5443
X0.4035Y0.6654
X0.4173Y1.2008
X0.4173Y1.0591
X0.4311Y0.4488
X0.4331Y0.688
X0.4341Y0.4026
X0.435Y0.6024
X0.439Y0.7283
X0.4461Y1.3652
X0.4518Y1.314
X0.4537Y0.7884
X0.4547Y1.2825
X0.4852Y0.4409
X0.4862Y0.7346
X0.503Y0.691
X0.5069Y0.4764
X0.5148Y0.6604
X0.524Y0.6073
X0.5325Y0.7087
X0.5551Y0.4547
X0.5638Y0.5799
X0.5787Y0.9823
X0.5886Y0.437
X0.6014Y0.5413
X0.6053Y0.3012
X0.6083Y0.4183
X0.6287Y0.8573
X0.6299Y0.8169
X0.6299Y0.537
X0.6398Y0.2844
X0.6437Y1.0315
X0.6437Y0.3661
X0.6535Y0.5057
X0.667Y0.83
X0.6697Y0.8974
X0.685Y1.3593
X0.685Y0.4972
X0.6909Y0.4606
X0.6924Y0.5411
X0.711Y0.8573
X0.7126Y0.3258
X0.7215Y0.7884
X0.7402Y0.7374
X0.7461Y0.5807
X0.7549Y1.3327
X0.7589Y0.2864
X0.7681Y0.8283
X0.7681Y0.6181
X0.7884Y0.4366
X0.7902Y0.687
X0.7931Y0.8969
X0.7933Y1.3317
X0.7953Y0.5039
X0.7982Y0.2864
X0.8071Y0.7854
X0.8091Y0.7372
X0.8091Y0.6614
X0.81Y0.6112
X0.8287Y0.4366
X0.8297Y0.501
X0.835Y0.8573
X0.8356Y0.8898
X0.8366Y0.4006
X0.8376Y0.2864
X0.8602Y0.564
X0.8671Y0.3957
X0.8701Y0.7402
X0.8799Y0.5984
X0.8829Y0.4783
X0.8848Y0.3602
X0.8967Y0.5463
X0.8996Y0.3947
X0.9094Y0.7392
X0.9124Y0.5148
X0.9157Y0.8787
X0.9163Y0.9183
X0.9163Y0.4656
X0.9262Y0.3061
X0.9528Y0.5669
X0.9528Y0.4646
X0.9587Y0.5925
X0.9892Y0.5148
X1.0295Y0.5148
X1.0433Y1.3524
X1.0551Y0.872
X1.0689Y0.5561
X1.0699Y0.4636
X1.0758Y0.7146
X1.076Y0.5923
X1.0846Y1.3533
X1.0846Y0.8425
X1.0846Y0.7411
X1.0906Y0.9724
X1.1083Y0.5148
X1.1122Y0.811
X1.1122Y0.7717
X1.1152Y0.6496
X1.124Y1.3524
X1.124Y1.2205
X1.124Y0.8425
X1.135Y1.1069
X1.135Y1.0748
X1.1353Y1.1388
X1.1616Y1.0748
X1.1626Y1.1395
X1.1626Y1.1069
X1.1644Y0.5512
X1.1654Y0.8425
X1.1654Y0.7087
X1.1657Y1.2835
X1.1663Y1.3533
X1.1791Y0.7953
X1.1831Y0.6831
X1.1852Y1.1395
X1.1852Y1.1069
X1.186Y1.0753
X1.1929Y0.6211
X1.1949Y0.5797
X1.2047Y0.7677
X1.2106Y0.6604
X1.2126Y1.3396
X1.2126Y1.314
X1.2126Y1.2874
X1.2264Y0.9429
X1.2323Y0.7953
X1.236Y1.314
X1.2362Y1.3396
X1.2362Y1.2874
X1.2461Y0.8425
X1.2677Y0.8228
X1.2687Y0.9793
X1.2992Y1.313
X1.3002Y0.6978
X1.311Y0.7835
X1.3386Y0.7343
X1.3396Y0.6594
X1.3396Y0.6053
X1.3404Y1.313
X1.3406Y1.3711
X1.3543Y0.8248
X1.3858Y0.6978
X1.4026Y0.3602
X1.4035Y0.5531
X1.4281Y0.4045
X1.4488Y0.5
X1.4557Y0.3799
X1.4616Y1.3189
X1.503Y1.3169
X1.5325Y1.3533
X1.5413Y1.2963
X1.563Y0.4764
X1.5699Y1.3661
X1.5837Y0.8691
X1.5837Y0.813
X1.5945Y0.4173
X1.5984Y0.5128
X1.5994Y1.2992
X1.6211Y0.376
X1.6713Y0.8671
X1.6713Y0.815
X1.6801Y1.2992
X1.7382Y1.2943
X1.7461Y0.5413
X1.752Y0.4764
X1.7677Y1.2953
X1.8043Y0.4459
X1.8317Y0.4055
X1.8337Y0.3642
X1.9528Y0.9626
X1.9783Y1.1732
X2.0039Y1.1506
X2.0039Y1.124
X2.0285Y1.1506
X2.0285Y1.124
X2.0551Y1.1506
X2.0551Y1.124
T2
X0.6102Y0.6929
X0.6102Y0.6555
X0.6102Y0.6181
X0.6476Y0.6929
X0.6476Y0.6555
X0.6476Y0.6181
X0.685Y0.6929
X0.685Y0.6555
X0.685Y0.6181
T3
X0.4961Y1.3583
X0.6142Y1.2913
X0.6201Y1.2461
X0.6201Y1.2106
X0.6476Y1.2657
X0.6476Y1.2303
X0.6496Y1.0748
X0.6811Y1.1988
X0.682Y1.2827
X0.682Y1.2473
X0.6969Y1.1339
X0.6969Y1.0984
X0.7244Y1.2795
X0.7244Y1.2441
X0.7244Y1.2087
X0.7244Y1.1693
X0.7244Y1.1339
X0.7244Y1.0984
X0.7244Y1.063
X0.752Y1.2795
X0.752Y1.2441
X0.752Y1.2087
X0.752Y1.1693
X0.752Y1.1339
X0.752Y1.0984
X0.752Y1.063
X0.7795Y1.2795
X0.7795Y1.2441
X0.7795Y1.2087
X0.8031Y1.2795
X0.8031Y1.2441
X0.8031Y1.2087
X0.8583Y1.3386
T4
X0.0561Y0.7589
X0.0591Y0.9754
X0.0935Y0.7589
X0.0965Y0.9754
X0.1309Y0.7589
X0.1339Y0.9754
X0.1683Y0.7589
X0.1713Y0.9754
X0.2197Y0.927
X0.2197Y0.8073
X0.3248Y0.9451
X0.3248Y0.9055
X0.3248Y0.8661
X0.3248Y0.7874
X0.3248Y0.8235
X0.3696Y0.8661
X0.3696Y0.8232
X0.3701Y0.9055
X0.3701Y0.7874
X0.3704Y0.9451
X0.4094Y0.9055
X0.4094Y0.8661
X0.4097Y0.8232
X0.4488Y0.9055
X0.4488Y0.8661
X0.4488Y0.8228
X0.4812Y1.03
X0.482Y1.0669
X0.4828Y1.1043
X0.4832Y1.1455
X0.4882Y0.9055
X0.4882Y0.8661
X0.4891Y0.8228
X0.5217Y1.1038
X0.5217Y1.0669
X0.5217Y1.03
X0.5229Y1.1451
X0.5268Y0.8244
X0.5276Y0.9055
X0.5276Y0.8661
X0.5599Y1.1035
X0.5602Y1.1443
X0.5602Y1.0669
X0.561Y1.0315
X0.563Y0.9094
X0.563Y0.8661
X0.563Y0.8228
X0.8869Y1.1451
X0.8869Y1.1175
X0.8869Y1.0892
X0.8869Y1.0605
X0.8869Y1.033
X0.8924Y1.2325
X0.8925Y1.1959
X0.8944Y0.959
X0.8947Y0.9929
X0.9331Y1.1457
X0.9331Y1.1181
X0.9331Y1.0898
X0.9331Y1.0611
X0.9331Y1.0336
X0.9337Y1.2322
X0.9338Y1.1955
X0.9357Y0.9586
X0.936Y0.9926
X0.9748Y1.2329
X0.975Y1.1962
X0.9754Y1.1451
X0.9754Y1.1176
X0.9754Y1.0892
X0.9755Y1.0606
X0.9755Y1.033
X0.9764Y0.3386
X0.9768Y0.9593
X0.9771Y0.9932
X1.0189Y1.1116
X1.0189Y1.0557
X1.0945Y0.3386
X1.1339Y0.3386
X1.1732Y0.3386
X1.2087Y0.3386
X1.248Y0.3386
X1.2687Y0.374
X1.2874Y0.3386
X1.2884Y0.4075
X1.3081Y0.374
X1.3268Y0.3386
X1.3278Y0.4429
X1.3278Y0.4075
X1.3484Y0.374
X1.3671Y0.4429
X1.3671Y0.4075
X1.3774Y0.9789
X1.3777Y1.1319
X1.378Y1.1841
X1.378Y1.0827
X1.3789Y0.9286
X1.3795Y1.0324
X1.4317Y0.9278
X1.4322Y1.0316
X1.4329Y0.9797
X1.4332Y1.1327
X1.4335Y1.1848
X1.4335Y1.0835
X1.4857Y0.9789
X1.486Y1.1319
X1.4862Y1.1841
X1.4862Y1.0827
X1.4872Y0.9286
X1.4878Y1.0324
X1.5394Y0.685
X1.5394Y0.6535
X1.5394Y0.622
X1.5906Y0.685
X1.5906Y0.6535
X1.5906Y0.622
X1.6461Y0.6854
X1.6461Y0.6539
X1.6461Y0.6224
X1.7404Y0.6539
X1.7408Y0.622
X1.7416Y0.6892
X1.7741Y1.135
X1.7746Y1.1955
X1.7746Y1.0837
X1.7759Y1.0332
X1.776Y0.9736
X1.7924Y0.6539
X1.7929Y0.622
X1.7936Y0.6892
X1.8267Y1.1348
X1.8271Y1.1952
X1.8272Y1.0835
X1.8284Y1.0329
X1.8286Y0.9733
X1.8445Y0.6539
X1.8449Y0.622
X1.8456Y0.6892
X1.8812Y1.1343
X1.8816Y1.1948
X1.8817Y1.083
X1.8829Y1.0324
X1.8831Y0.9729
X1.9137Y0.7911
X1.9137Y0.7417
X1.939Y1.0322
X1.9393Y1.0848
X1.9398Y1.1393
X1.9408Y0.6748
X1.9408Y0.6473
X1.9408Y0.6197
X1.9661Y0.7911
X1.9661Y0.7417
X1.9891Y1.0847
X1.9901Y1.0311
X1.9906Y0.8457
X1.9917Y0.9037
X1.992Y0.6748
X1.992Y0.6473
X1.992Y0.6197
X2.0089Y0.9478
X2.0098Y0.9823
X2.0148Y0.7911
X2.0148Y0.7394
X2.0416Y1.0845
X2.0426Y1.0308
X2.0441Y0.9037
X2.0445Y0.8461
X2.0476Y0.6752
X2.0476Y0.6477
X2.0476Y0.6201
X2.0614Y0.9476
X2.0624Y0.982
X2.0672Y0.7911
X2.0672Y0.7394
T5
X0.9978Y0.6844
X0.9978Y0.6167
X1.0167Y0.6506
X1.0356Y0.6844
X1.0356Y0.6167
T6
X0.0335Y1.3002
X0.0335Y0.4341
X0.0525Y1.3461
X0.0525Y1.2543
X0.0525Y0.48
X0.0525Y0.3881
X0.0984Y1.3652
X0.0984Y1.2352
X0.0984Y0.499
X0.0984Y0.3691
X0.1444Y1.3461
X0.1444Y1.2543
X0.1444Y0.48
X0.1444Y0.3881
X0.1634Y1.3002
X0.1634Y0.4341
X1.9626Y1.3002
X1.9626Y0.4341
X1.9816Y1.3461
X1.9816Y1.2543
X1.9816Y0.48
X1.9816Y0.3881
X2.0276Y1.3652
X2.0276Y1.2352
X2.0276Y0.499
X2.0276Y0.3691
X2.0735Y1.3461
X2.0735Y1.2543
X2.0735Y0.48
X2.0735Y0.3881
X2.0925Y1.3002
X2.0925Y0.4341
T8
X0.0984Y1.3002
X0.0984Y0.4341
X2.0276Y1.3002
X2.0276Y0.4341
T7
G00X0.0787Y1.0372
M15
G01X0.0551Y1.0372
M16
G05
G00X0.0787Y0.697
M15
G01X0.0551Y0.697
M16
G05
G00X0.2283Y1.0372
M15
G01X0.2047Y1.0372
M16
G05
G00X0.2283Y0.697
M15
G01X0.2047Y0.697
M16
G05
M30
