%TF.GenerationSoftware,KiCad,Pcbnew,9.0.2*%
%TF.CreationDate,2026-02-15T12:31:08+01:00*%
%TF.ProjectId,PDNode-PDCard-5031,50444e6f-6465-42d5-9044-436172642d35,1.0.0*%
%TF.SameCoordinates,Original*%
%TF.FileFunction,Copper,L6,Bot*%
%TF.FilePolarity,Positive*%
%FSLAX46Y46*%
G04 Gerber Fmt 4.6, Leading zero omitted, Abs format (unit mm)*
G04 Created by KiCad (PCBNEW 9.0.2) date 2026-02-15 12:31:08*
%MOMM*%
%LPD*%
G01*
G04 APERTURE LIST*
G04 Aperture macros list*
%AMRoundRect*
0 Rectangle with rounded corners*
0 $1 Rounding radius*
0 $2 $3 $4 $5 $6 $7 $8 $9 X,Y pos of 4 corners*
0 Add a 4 corners polygon primitive as box body*
4,1,4,$2,$3,$4,$5,$6,$7,$8,$9,$2,$3,0*
0 Add four circle primitives for the rounded corners*
1,1,$1+$1,$2,$3*
1,1,$1+$1,$4,$5*
1,1,$1+$1,$6,$7*
1,1,$1+$1,$8,$9*
0 Add four rect primitives between the rounded corners*
20,1,$1+$1,$2,$3,$4,$5,0*
20,1,$1+$1,$4,$5,$6,$7,0*
20,1,$1+$1,$6,$7,$8,$9,0*
20,1,$1+$1,$8,$9,$2,$3,0*%
G04 Aperture macros list end*
%TA.AperFunction,ComponentPad*%
%ADD10C,0.700000*%
%TD*%
%TA.AperFunction,ComponentPad*%
%ADD11C,4.400000*%
%TD*%
%TA.AperFunction,HeatsinkPad*%
%ADD12C,0.500000*%
%TD*%
%TA.AperFunction,HeatsinkPad*%
%ADD13R,2.050000X2.050000*%
%TD*%
%TA.AperFunction,HeatsinkPad*%
%ADD14O,2.100000X1.000000*%
%TD*%
%TA.AperFunction,HeatsinkPad*%
%ADD15O,1.600000X1.000000*%
%TD*%
%TA.AperFunction,ConnectorPad*%
%ADD16R,0.700000X3.200000*%
%TD*%
%TA.AperFunction,ConnectorPad*%
%ADD17R,0.700000X4.300000*%
%TD*%
%TA.AperFunction,ComponentPad*%
%ADD18C,0.600000*%
%TD*%
%TA.AperFunction,SMDPad,CuDef*%
%ADD19R,1.650000X2.400000*%
%TD*%
%TA.AperFunction,SMDPad,CuDef*%
%ADD20RoundRect,0.135000X-0.185000X0.135000X-0.185000X-0.135000X0.185000X-0.135000X0.185000X0.135000X0*%
%TD*%
%TA.AperFunction,SMDPad,CuDef*%
%ADD21C,0.600000*%
%TD*%
%TA.AperFunction,SMDPad,CuDef*%
%ADD22RoundRect,0.140000X-0.140000X-0.170000X0.140000X-0.170000X0.140000X0.170000X-0.140000X0.170000X0*%
%TD*%
%TA.AperFunction,SMDPad,CuDef*%
%ADD23RoundRect,0.140000X-0.170000X0.140000X-0.170000X-0.140000X0.170000X-0.140000X0.170000X0.140000X0*%
%TD*%
%TA.AperFunction,SMDPad,CuDef*%
%ADD24RoundRect,0.140000X0.140000X0.170000X-0.140000X0.170000X-0.140000X-0.170000X0.140000X-0.170000X0*%
%TD*%
%TA.AperFunction,SMDPad,CuDef*%
%ADD25RoundRect,0.135000X-0.135000X-0.185000X0.135000X-0.185000X0.135000X0.185000X-0.135000X0.185000X0*%
%TD*%
%TA.AperFunction,SMDPad,CuDef*%
%ADD26RoundRect,0.140000X0.170000X-0.140000X0.170000X0.140000X-0.170000X0.140000X-0.170000X-0.140000X0*%
%TD*%
%TA.AperFunction,SMDPad,CuDef*%
%ADD27RoundRect,0.250000X0.312500X0.625000X-0.312500X0.625000X-0.312500X-0.625000X0.312500X-0.625000X0*%
%TD*%
%TA.AperFunction,SMDPad,CuDef*%
%ADD28RoundRect,0.100000X0.400000X0.100000X-0.400000X0.100000X-0.400000X-0.100000X0.400000X-0.100000X0*%
%TD*%
%TA.AperFunction,SMDPad,CuDef*%
%ADD29RoundRect,0.147500X-0.172500X0.147500X-0.172500X-0.147500X0.172500X-0.147500X0.172500X0.147500X0*%
%TD*%
%TA.AperFunction,SMDPad,CuDef*%
%ADD30RoundRect,0.250000X-0.312500X-0.625000X0.312500X-0.625000X0.312500X0.625000X-0.312500X0.625000X0*%
%TD*%
%TA.AperFunction,SMDPad,CuDef*%
%ADD31RoundRect,0.105000X0.245000X0.105000X-0.245000X0.105000X-0.245000X-0.105000X0.245000X-0.105000X0*%
%TD*%
%TA.AperFunction,SMDPad,CuDef*%
%ADD32RoundRect,0.290625X0.678125X0.895731X-0.678125X0.895731X-0.678125X-0.895731X0.678125X-0.895731X0*%
%TD*%
%TA.AperFunction,SMDPad,CuDef*%
%ADD33RoundRect,0.063000X0.374500X0.147000X-0.374500X0.147000X-0.374500X-0.147000X0.374500X-0.147000X0*%
%TD*%
%TA.AperFunction,ViaPad*%
%ADD34C,0.550000*%
%TD*%
%TA.AperFunction,ViaPad*%
%ADD35C,0.400000*%
%TD*%
%TA.AperFunction,Conductor*%
%ADD36C,0.200000*%
%TD*%
%TA.AperFunction,Conductor*%
%ADD37C,0.350000*%
%TD*%
%TA.AperFunction,Conductor*%
%ADD38C,0.400000*%
%TD*%
%TA.AperFunction,Conductor*%
%ADD39C,0.300000*%
%TD*%
%TA.AperFunction,Conductor*%
%ADD40C,0.150000*%
%TD*%
%TA.AperFunction,Conductor*%
%ADD41C,0.250000*%
%TD*%
G04 APERTURE END LIST*
D10*
%TO.P,H3,1,1*%
%TO.N,GND*%
X51500000Y31375000D03*
X50333274Y31858274D03*
X52666726Y31858274D03*
X49850000Y33025000D03*
D11*
X51500000Y33025000D03*
D10*
X53150000Y33025000D03*
X50333274Y34191726D03*
X52666726Y34191726D03*
X51500000Y34675000D03*
%TD*%
%TO.P,H1,1,1*%
%TO.N,GND*%
X2589229Y31371686D03*
X1422503Y31854960D03*
X3755955Y31854960D03*
X939229Y33021686D03*
D11*
X2589229Y33021686D03*
D10*
X4239229Y33021686D03*
X1422503Y34188412D03*
X3755955Y34188412D03*
X2589229Y34671686D03*
%TD*%
D12*
%TO.P,IC2,21,PAD*%
%TO.N,GND*%
X10775000Y16430000D03*
X10775000Y15730000D03*
X10775000Y15030000D03*
X11475000Y16430000D03*
X11475000Y15730000D03*
D13*
X11475000Y15730000D03*
D12*
X11475000Y15030000D03*
X12175000Y16430000D03*
X12175000Y15730000D03*
X12175000Y15030000D03*
%TD*%
D14*
%TO.P,J1,S1,SHIELD*%
%TO.N,SHIELD*%
X5605000Y26345000D03*
D15*
X1425000Y26345000D03*
D14*
X5605000Y17705000D03*
D15*
X1425000Y17705000D03*
%TD*%
D10*
%TO.P,H2,1,1*%
%TO.N,GND*%
X2619995Y9367466D03*
X1453269Y9850740D03*
X3786721Y9850740D03*
X969995Y11017466D03*
D11*
X2619995Y11017466D03*
D10*
X4269995Y11017466D03*
X1453269Y12184192D03*
X3786721Y12184192D03*
X2619995Y12667466D03*
%TD*%
D16*
%TO.P,J2,A1,A1*%
%TO.N,Net-(JP1-C)*%
X14750000Y4075000D03*
D17*
%TO.P,J2,A2,A2*%
%TO.N,/Project Architecture/Board Connector and Supplies/SPI_MOSI*%
X15750000Y3525000D03*
%TO.P,J2,A3,A3*%
%TO.N,/Project Architecture/Board Connector and Supplies/SPI_CLK*%
X16750000Y3525000D03*
%TO.P,J2,A4,A4*%
%TO.N,GND*%
X17750000Y3525000D03*
%TO.P,J2,A5,A5*%
%TO.N,/Project Architecture/Board Connector and Supplies/PD_IRQ*%
X18750000Y3525000D03*
%TO.P,J2,A6,A6*%
%TO.N,/Project Architecture/USB-PD Source Controller/I2C_SDCL*%
X19750000Y3525000D03*
%TO.P,J2,A7,A7*%
%TO.N,/Project Architecture/Adjustable 5A Buck Converter/PMIC_ENABLE*%
X20750000Y3525000D03*
%TO.P,J2,A8,A8*%
%TO.N,/Project Architecture/USB-PD Source Controller/PD_ENABLE*%
X21750000Y3525000D03*
%TO.P,J2,A9,A9*%
%TO.N,+3.3V*%
X22750000Y3525000D03*
%TO.P,J2,A10,A10*%
%TO.N,/Project Architecture/USB-PD Source Controller/PD_ATTACH*%
X23750000Y3525000D03*
%TO.P,J2,A11,A11*%
%TO.N,+24V*%
X24750000Y3525000D03*
%TO.P,J2,A12,A12*%
X27750000Y3525000D03*
%TO.P,J2,A13,A13*%
X28750000Y3525000D03*
%TO.P,J2,A14,A14*%
X29750000Y3525000D03*
%TO.P,J2,A15,A15*%
%TO.N,GND*%
X30750000Y3525000D03*
%TO.P,J2,A16,A16*%
X31750000Y3525000D03*
%TO.P,J2,A17,A17*%
X32750000Y3525000D03*
%TO.P,J2,A18,A18*%
X33750000Y3525000D03*
%TD*%
D18*
%TO.P,IC6,11,PAD*%
%TO.N,GND*%
X40870000Y11910000D03*
X40870000Y10190000D03*
X41350000Y11050000D03*
D19*
X41350000Y11050000D03*
D18*
X41830000Y11910000D03*
X41830000Y10190000D03*
%TD*%
D10*
%TO.P,H4,1,1*%
%TO.N,GND*%
X51500000Y9375000D03*
X50333274Y9858274D03*
X52666726Y9858274D03*
X49850000Y11025000D03*
D11*
X51500000Y11025000D03*
D10*
X53150000Y11025000D03*
X50333274Y12191726D03*
X52666726Y12191726D03*
X51500000Y12675000D03*
%TD*%
D20*
%TO.P,R35,1*%
%TO.N,Net-(IC3-A1)*%
X6950000Y32210000D03*
%TO.P,R35,2*%
%TO.N,GND*%
X6950000Y31190000D03*
%TD*%
D21*
%TO.P,PMFB1,1*%
%TO.N,Net-(PMFB1-Pad1)*%
X36850000Y28450000D03*
%TD*%
D22*
%TO.P,C35,1*%
%TO.N,/Project Architecture/USB-PD Source Controller/USB_D-*%
X8800000Y23500000D03*
%TO.P,C35,2*%
%TO.N,GND*%
X9760000Y23500000D03*
%TD*%
D21*
%TO.P,DCRG1,1*%
%TO.N,/Project Architecture/USB-PD Source Controller/DISCHRG*%
X26400000Y29850000D03*
%TD*%
%TO.P,VSS1,1*%
%TO.N,/Project Architecture/USB-PD Source Controller/T3T4DS*%
X19700000Y23750000D03*
%TD*%
D23*
%TO.P,C37,1*%
%TO.N,/Project Architecture/USB-PD Source Controller/CC1*%
X13250000Y18610000D03*
%TO.P,C37,2*%
%TO.N,GND*%
X13250000Y17650000D03*
%TD*%
D24*
%TO.P,C41,1*%
%TO.N,+3.3V*%
X10650000Y31050000D03*
%TO.P,C41,2*%
%TO.N,GND*%
X9690000Y31050000D03*
%TD*%
D21*
%TO.P,PMON1,1*%
%TO.N,/Project Architecture/Board Connector and Supplies/PMIC_VMON_PORT0*%
X22450000Y14850000D03*
%TD*%
%TO.P,PDAT1,1*%
%TO.N,/Project Architecture/USB-PD Source Controller/PD_ATTACH*%
X21200000Y12800000D03*
%TD*%
D23*
%TO.P,C36,1*%
%TO.N,/Project Architecture/USB-PD Source Controller/CC2*%
X14250000Y18630000D03*
%TO.P,C36,2*%
%TO.N,GND*%
X14250000Y17670000D03*
%TD*%
D25*
%TO.P,R41,1*%
%TO.N,Net-(IC5-Y)*%
X50680000Y18700000D03*
%TO.P,R41,2*%
%TO.N,Net-(D2-Pad2)*%
X51700000Y18700000D03*
%TD*%
D21*
%TO.P,PD5,1*%
%TO.N,+5V*%
X18500000Y14000000D03*
%TD*%
D26*
%TO.P,C31,1*%
%TO.N,+3.3V*%
X7600000Y9920000D03*
%TO.P,C31,2*%
%TO.N,GND*%
X7600000Y10880000D03*
%TD*%
D22*
%TO.P,C34,1*%
%TO.N,/Project Architecture/USB-PD Source Controller/USB_D+*%
X8800000Y21530000D03*
%TO.P,C34,2*%
%TO.N,GND*%
X9760000Y21530000D03*
%TD*%
D26*
%TO.P,C30,1*%
%TO.N,+3.3V*%
X48825000Y23412500D03*
%TO.P,C30,2*%
%TO.N,GND*%
X48825000Y24372500D03*
%TD*%
D20*
%TO.P,R33,1*%
%TO.N,+3.3V*%
X6950000Y34150000D03*
%TO.P,R33,2*%
%TO.N,Net-(IC3-A1)*%
X6950000Y33130000D03*
%TD*%
D25*
%TO.P,R46,1*%
%TO.N,Net-(IC7-Y)*%
X50640000Y25600000D03*
%TO.P,R46,2*%
%TO.N,Net-(D4-Pad2)*%
X51660000Y25600000D03*
%TD*%
D27*
%TO.P,R26,1*%
%TO.N,GND*%
X5962500Y28700000D03*
%TO.P,R26,2*%
%TO.N,SHIELD*%
X3037500Y28700000D03*
%TD*%
D20*
%TO.P,R34,1*%
%TO.N,Net-(IC3-A0)*%
X5910000Y32210000D03*
%TO.P,R34,2*%
%TO.N,GND*%
X5910000Y31190000D03*
%TD*%
D21*
%TO.P,PD18,1*%
%TO.N,/Project Architecture/USB-PD Source Controller/VDD_PD*%
X9950000Y12300000D03*
%TD*%
%TO.P,VMON1,1*%
%TO.N,/Project Architecture/Board Connector and Supplies/VBUS_VMON_PORT0*%
X4650000Y13900000D03*
%TD*%
%TO.P,CC2,1*%
%TO.N,/Project Architecture/USB-PD Source Controller/CC2*%
X14250000Y20050000D03*
%TD*%
D28*
%TO.P,IC7,1,IN1*%
%TO.N,GND*%
X52125000Y24335000D03*
%TO.P,IC7,2,GND*%
X52125000Y23685000D03*
%TO.P,IC7,3,IN0*%
%TO.N,PGOOD_3V3*%
X52125000Y23035000D03*
%TO.P,IC7,4,Y*%
%TO.N,Net-(IC7-Y)*%
X50350000Y23035000D03*
%TO.P,IC7,5,VCC*%
%TO.N,+3.3V*%
X50350000Y23685000D03*
%TO.P,IC7,6,IN2*%
X50350000Y24335000D03*
%TD*%
D21*
%TO.P,PM5,1*%
%TO.N,+5VA*%
X34700000Y26300000D03*
%TD*%
D29*
%TO.P,D4,1*%
%TO.N,GND*%
X52400000Y28635000D03*
%TO.P,D4,2*%
%TO.N,Net-(D4-Pad2)*%
X52400000Y27665000D03*
%TD*%
D21*
%TO.P,V24F1,1*%
%TO.N,+24V_FILTERED*%
X30000000Y29250000D03*
%TD*%
%TO.P,PM3,1*%
%TO.N,+3.54V*%
X37350000Y24100000D03*
%TD*%
D26*
%TO.P,C25,1*%
%TO.N,+3.3V*%
X48825000Y20332500D03*
%TO.P,C25,2*%
%TO.N,GND*%
X48825000Y21292500D03*
%TD*%
D21*
%TO.P,CC1,1*%
%TO.N,/Project Architecture/USB-PD Source Controller/CC1*%
X10800000Y20200000D03*
%TD*%
%TO.P,VBUS1,1*%
%TO.N,/Project Architecture/USB-PD Source Controller/VBUS_MEA*%
X20000000Y31500000D03*
%TD*%
D20*
%TO.P,R32,1*%
%TO.N,+3.3V*%
X5900000Y34150000D03*
%TO.P,R32,2*%
%TO.N,Net-(IC3-A0)*%
X5900000Y33130000D03*
%TD*%
D30*
%TO.P,R22,1*%
%TO.N,/Project Architecture/USB-PD Source Controller/VBUS_MEA*%
X19233146Y34141299D03*
%TO.P,R22,2*%
%TO.N,/Project Architecture/USB-PD Source Controller/DCHP*%
X22158146Y34141299D03*
%TD*%
D21*
%TO.P,PMO2,1*%
%TO.N,/Project Architecture/USB-PD Source Controller/V_PMIC_OUT*%
X18950000Y18550000D03*
%TD*%
D31*
%TO.P,T3,1,S*%
%TO.N,GND*%
X25000000Y31975000D03*
%TO.P,T3,2,S*%
X25000000Y31325000D03*
%TO.P,T3,3,S*%
X25000000Y30675000D03*
%TO.P,T3,4,S*%
%TO.N,/Project Architecture/USB-PD Source Controller/DISCHRG*%
X25000000Y30025000D03*
D32*
%TO.P,T3,5,D*%
%TO.N,/Project Architecture/USB-PD Source Controller/DCHP*%
X23056250Y30998644D03*
D33*
X22086864Y30022287D03*
%TO.P,T3,6,D*%
X22086864Y30674950D03*
%TO.P,T3,7,D*%
X22084232Y31324980D03*
%TO.P,T3,8,D*%
X22087500Y31975000D03*
%TD*%
D21*
%TO.P,PME1,1*%
%TO.N,/Project Architecture/Adjustable 5A Buck Converter/PMIC_ENABLE*%
X34500000Y30450000D03*
%TD*%
%TO.P,VDRV1,1*%
%TO.N,/Project Architecture/USB-PD Source Controller/VDRV*%
X17000000Y23700000D03*
%TD*%
%TO.P,V24,1*%
%TO.N,+24V*%
X43000000Y27450000D03*
%TD*%
%TO.P,PDEN1,1*%
%TO.N,/Project Architecture/USB-PD Source Controller/PD_ENABLE*%
X14150000Y13800000D03*
%TD*%
%TO.P,PMO1,1*%
%TO.N,/Project Architecture/Adjustable 5A Buck Converter/PMIC_VOUT*%
X24550000Y18500000D03*
%TD*%
D28*
%TO.P,IC5,1,IN1*%
%TO.N,GND*%
X52075000Y21250000D03*
%TO.P,IC5,2,GND*%
X52075000Y20600000D03*
%TO.P,IC5,3,IN0*%
%TO.N,/Project Architecture/USB-PD Source Controller/PD_ENABLE*%
X52075000Y19950000D03*
%TO.P,IC5,4,Y*%
%TO.N,Net-(IC5-Y)*%
X50300000Y19950000D03*
%TO.P,IC5,5,VCC*%
%TO.N,+3.3V*%
X50300000Y20600000D03*
%TO.P,IC5,6,IN2*%
%TO.N,/Project Architecture/Adjustable 5A Buck Converter/PMIC_ENABLE*%
X50300000Y21250000D03*
%TD*%
D34*
%TO.N,+24V*%
X24750000Y11500000D03*
X41000000Y28500000D03*
X31750000Y11500000D03*
X42250000Y17500000D03*
X39000000Y29500000D03*
X26750000Y9500000D03*
X25800000Y9500000D03*
X43000000Y29500000D03*
X40250000Y17500000D03*
X38000000Y30500000D03*
X42000000Y30500000D03*
X43000000Y30500000D03*
X42000000Y28500000D03*
X42250000Y16500000D03*
X27750000Y10500000D03*
X39250000Y17500000D03*
X37500000Y15500000D03*
X34750000Y10500000D03*
X41000000Y30500000D03*
X29750000Y11500000D03*
X29750000Y10500000D03*
X24750000Y9500000D03*
X43250000Y16500000D03*
X40000000Y30500000D03*
X25800000Y11500000D03*
X40250000Y16500000D03*
X30750000Y10500000D03*
X33750000Y10500000D03*
X27750000Y9500000D03*
X39000000Y30500000D03*
X42000000Y27500000D03*
X29750000Y9500000D03*
X35750000Y9500000D03*
X42000000Y29500000D03*
X34743530Y11500519D03*
X41250000Y16500000D03*
X43250000Y17500000D03*
X33750000Y11500000D03*
X35750000Y10500000D03*
X28750000Y9500000D03*
X40000000Y29500000D03*
X41000000Y29500000D03*
X41250000Y17500000D03*
X25800000Y10500000D03*
X38500000Y15500000D03*
X27750000Y11500000D03*
X34750000Y9500000D03*
X41000000Y27500000D03*
X43000000Y27500000D03*
X38000000Y29500000D03*
X32750000Y11500000D03*
X30750000Y11500000D03*
X32750000Y10500000D03*
X31750000Y10500000D03*
X24750000Y10500000D03*
X26750000Y11500000D03*
X39250000Y16500000D03*
X28750000Y10500000D03*
X28750000Y11500000D03*
X26750000Y10500000D03*
X43000000Y28500000D03*
D35*
%TO.N,GND*%
X32500000Y7500000D03*
X26664831Y31037565D03*
X25150000Y32000000D03*
X28600000Y23050000D03*
X3976821Y25291475D03*
X33400000Y22200000D03*
X23170727Y27504839D03*
X33500000Y8500000D03*
X33500000Y7500000D03*
X31500000Y9500000D03*
X1299809Y18771552D03*
X38100000Y28250000D03*
X13300000Y23700000D03*
X34000000Y22200000D03*
X25900000Y32000000D03*
X35189770Y15731521D03*
X6245000Y18825000D03*
X3950000Y16000000D03*
X28400000Y27950000D03*
X17700000Y8300000D03*
X25914831Y31037565D03*
X32100000Y15350000D03*
X2942044Y26075807D03*
X6801333Y31526681D03*
X1150000Y29250000D03*
X23920727Y28254839D03*
X37050000Y25500000D03*
X31500000Y8500000D03*
X29720000Y23100000D03*
X13500030Y22396439D03*
X1893632Y25291475D03*
X24670727Y28254839D03*
X1750000Y15900000D03*
X45800000Y9400000D03*
X44075000Y9445000D03*
X26446282Y13891533D03*
X27350000Y26800000D03*
X3360295Y18797270D03*
X27508860Y13869045D03*
X23170727Y26754839D03*
X34000000Y21600000D03*
X26650000Y32000000D03*
X10100000Y22500000D03*
X2299809Y18771552D03*
X30500000Y8500000D03*
X24900000Y34100000D03*
D34*
X47548253Y31945453D03*
D35*
X7600000Y10880000D03*
X23920727Y26754839D03*
X32500000Y9500000D03*
X37595000Y9800000D03*
X10900000Y10500000D03*
X5962500Y28700000D03*
X5974417Y29331608D03*
X32800000Y21600000D03*
X2893632Y25291475D03*
X53050000Y24450000D03*
X28548949Y13885911D03*
X8107924Y23250000D03*
X9900000Y10500000D03*
X11900488Y24172531D03*
X25164831Y31037565D03*
X5553226Y31174363D03*
X34614654Y28074701D03*
X32800000Y22200000D03*
X35250000Y27400000D03*
X11464007Y21422760D03*
X25250000Y14850000D03*
X6998867Y18804394D03*
X30500000Y7500000D03*
X33399260Y21614526D03*
X32500000Y8500000D03*
X23170727Y28254839D03*
X15579447Y10416321D03*
X34600000Y21600000D03*
X39450000Y26700000D03*
X9650000Y29700000D03*
X31500000Y7500000D03*
X28427075Y24162452D03*
X24670727Y27504839D03*
X33500000Y9500000D03*
X53100000Y23600000D03*
X3931534Y26070185D03*
X7028734Y25291475D03*
X32850000Y27450000D03*
X6028734Y25291475D03*
X29605904Y13880289D03*
X34682119Y28766220D03*
X5962499Y28044559D03*
X42850000Y9450000D03*
X36448237Y25473991D03*
X23920727Y27504839D03*
X7157418Y26041983D03*
X34600000Y22200000D03*
X52450000Y29350000D03*
X28400000Y25000000D03*
X8097331Y21646766D03*
X28400000Y25700000D03*
X13400000Y34100000D03*
X52950000Y21250000D03*
%TO.N,+24V_FILTERED*%
X30750000Y30000000D03*
X39750000Y34500000D03*
X31500000Y28500000D03*
X30750000Y29250000D03*
X42750000Y33000000D03*
X30000000Y28500000D03*
X40500000Y33000000D03*
X31500000Y23000000D03*
X42750000Y33750000D03*
X40500000Y34500000D03*
X33000000Y23000000D03*
X30000000Y29250000D03*
X39000000Y34500000D03*
X31500000Y31000000D03*
X42750000Y34500000D03*
X30750000Y27750000D03*
X42000000Y34500000D03*
X39750000Y33750000D03*
X32250000Y23000000D03*
X30750000Y31000000D03*
X31500000Y29250000D03*
X30750000Y24750000D03*
X30000000Y31000000D03*
X31500000Y23750000D03*
X30000000Y25500000D03*
X30000000Y27750000D03*
X42000000Y33000000D03*
X31500000Y27750000D03*
X31500000Y26250000D03*
X39000000Y33000000D03*
X39000000Y33750000D03*
X30750000Y28500000D03*
X42000000Y33750000D03*
X40500000Y33750000D03*
X31500000Y27000000D03*
X41250000Y33000000D03*
X30750000Y24000000D03*
X31500000Y30000000D03*
X30000000Y30000000D03*
X39750000Y33000000D03*
X30000000Y24750000D03*
X41250000Y34500000D03*
X30000000Y27000000D03*
X32250000Y23750000D03*
X30000000Y24000000D03*
X41250000Y33750000D03*
X30750000Y27000000D03*
%TO.N,+3.54V*%
X38050000Y26300000D03*
X37350000Y16390000D03*
X33500000Y29350000D03*
X37325000Y23950000D03*
%TO.N,+3.3V*%
X18796603Y10202332D03*
X22150000Y10750000D03*
X45750000Y12500000D03*
X46495558Y11751589D03*
X45000000Y13250000D03*
X5900000Y34150000D03*
X18028611Y10191739D03*
X7600000Y9900000D03*
X45750000Y11750000D03*
X45750000Y13250000D03*
X46500000Y13250000D03*
X46495558Y12505736D03*
X10700000Y31000000D03*
X45000000Y12500000D03*
X16600000Y12200000D03*
X51000000Y20600000D03*
X12420000Y33400000D03*
%TO.N,/Project Architecture/Adjustable 5A Buck Converter/PMIC_VOUT*%
X29500000Y20500000D03*
X30500000Y19500000D03*
X28500000Y20500000D03*
X30500000Y18500000D03*
X30500000Y16500000D03*
X32500000Y17500000D03*
X24500000Y16500000D03*
X26500000Y18500000D03*
X26500000Y17500000D03*
X23500000Y17500000D03*
X29500000Y19500000D03*
X27500000Y16500000D03*
X35829617Y28412824D03*
X28500000Y16500000D03*
X25500000Y21500000D03*
X23500000Y19500000D03*
X29500000Y21500000D03*
X26500000Y23500000D03*
X30500000Y21500000D03*
X25500000Y16500000D03*
X29500000Y17500000D03*
X32500000Y20500000D03*
X27500000Y20500000D03*
X26500000Y22500000D03*
X26500000Y21500000D03*
X28500000Y21500000D03*
X32500000Y18500000D03*
X27500000Y17500000D03*
X25500000Y20500000D03*
X29500000Y18500000D03*
X21800000Y17800000D03*
X29500000Y16500000D03*
X27500000Y18500000D03*
X24500000Y19500000D03*
X25500000Y18500000D03*
X26500000Y16500000D03*
X31500000Y17500000D03*
X31500000Y18500000D03*
X28500000Y17500000D03*
X23500000Y18500000D03*
X24500000Y18500000D03*
X25500000Y19500000D03*
X27500000Y21500000D03*
X23500000Y16500000D03*
X32500000Y19500000D03*
X26500000Y20500000D03*
X31500000Y19500000D03*
X30500000Y20500000D03*
X30500000Y17500000D03*
X24500000Y17500000D03*
X26500000Y19500000D03*
X28500000Y19500000D03*
X31500000Y20500000D03*
X25500000Y17500000D03*
X28500000Y18500000D03*
X25500000Y22500000D03*
X27500000Y19500000D03*
X25500000Y23500000D03*
X33350000Y16000000D03*
%TO.N,SHIELD*%
X3005622Y28794977D03*
%TO.N,+5V*%
X17750000Y14000000D03*
D34*
X23463944Y12800000D03*
D35*
X19250000Y14000000D03*
X18500000Y14000000D03*
%TO.N,+5VA*%
X34614654Y26425945D03*
%TO.N,Net-(IC3-A0)*%
X5775000Y32210000D03*
%TO.N,Net-(IC3-A1)*%
X7050000Y33150000D03*
%TO.N,/Project Architecture/USB-PD Source Controller/VDD_PD*%
X9900000Y12260000D03*
%TO.N,/Project Architecture/USB-PD Source Controller/USB_D+*%
X8701132Y22130513D03*
X13065717Y22982585D03*
X2286758Y21631720D03*
X11410707Y22159239D03*
%TO.N,PGOOD_3V3*%
X39031491Y11045295D03*
X53100000Y22700000D03*
X20840892Y7873036D03*
%TO.N,Net-(JP1-C)*%
X16750000Y9000000D03*
%TO.N,/Project Architecture/USB-PD Source Controller/USB_D-*%
X8690539Y22857898D03*
X11386758Y22888282D03*
X2265572Y22389119D03*
X12532536Y23536952D03*
%TO.N,/Project Architecture/USB-PD Source Controller/CC2*%
X11446401Y20699596D03*
X14250022Y20107490D03*
%TO.N,/Project Architecture/USB-PD Source Controller/CC1*%
X11100000Y23850000D03*
X13300000Y20120000D03*
%TO.N,/Project Architecture/USB-PD Source Controller/VBUS_MEA*%
X21000000Y29500000D03*
X18000000Y31500000D03*
X20000000Y30500000D03*
X21000000Y32500000D03*
X18000000Y29500000D03*
X18000000Y32500000D03*
X7900000Y27550000D03*
X16392496Y30961700D03*
X7000000Y15500000D03*
X18000000Y30500000D03*
X19000000Y27500000D03*
X20998463Y30488307D03*
X19000000Y26500000D03*
X17000000Y29500000D03*
X17000000Y28500000D03*
X20000000Y28500000D03*
X19000000Y30500000D03*
X20000000Y31500000D03*
X21000000Y28500000D03*
X18000000Y26500000D03*
X21000000Y27500000D03*
X18000000Y28500000D03*
X20000000Y32500000D03*
X19000000Y31500000D03*
X21000000Y31500000D03*
X19000000Y28500000D03*
X17000000Y27500000D03*
X17000000Y31500000D03*
X21000000Y26500000D03*
X17000000Y30500000D03*
X17000000Y26500000D03*
X19000000Y29500000D03*
X20000000Y26500000D03*
X19000000Y32500000D03*
X17000000Y32500000D03*
X20000000Y29500000D03*
X20000000Y27500000D03*
X18000000Y27500000D03*
%TO.N,/Project Architecture/USB-PD Source Controller/DISCHRG*%
X26400000Y29850000D03*
X11475000Y19675000D03*
%TO.N,/Project Architecture/Adjustable 5A Buck Converter/PD_SCL*%
X37025000Y18735000D03*
X8614870Y16524871D03*
%TO.N,/Project Architecture/Adjustable 5A Buck Converter/PD_ADD*%
X33500000Y28300000D03*
X33536657Y25800000D03*
%TO.N,/Project Architecture/Adjustable 5A Buck Converter/PMIC_ENABLE*%
X51100000Y22044243D03*
X34550000Y30410000D03*
X20500000Y10200000D03*
X33550000Y23950000D03*
X15650000Y18800000D03*
%TO.N,/Project Architecture/Adjustable 5A Buck Converter/PD_SDA*%
X36481812Y18278189D03*
X9548231Y17370563D03*
%TO.N,/Project Architecture/Adjustable 5A Buck Converter/PD_ALT*%
X36350000Y17410000D03*
X7700000Y15700000D03*
%TO.N,/Project Architecture/USB-PD Source Controller/VDRV*%
X19200000Y25188223D03*
X10712905Y19397682D03*
X17100000Y23700000D03*
%TO.N,/Project Architecture/USB-PD Source Controller/I2C_SDCL*%
X8600000Y12050000D03*
X10200000Y33275000D03*
%TO.N,/Project Architecture/USB-PD Source Controller/PD_ATTACH*%
X14890000Y12680000D03*
%TO.N,/Project Architecture/USB-PD Source Controller/I2C_SDA*%
X14200000Y15230000D03*
X9450000Y33275000D03*
X6500000Y13600000D03*
%TO.N,/Project Architecture/USB-PD Source Controller/PD_ENABLE*%
X51600000Y15200000D03*
X14150000Y13805000D03*
X22200000Y7325000D03*
%TO.N,/Project Architecture/USB-PD Source Controller/VBUS*%
X14000000Y32500000D03*
X14000000Y31500000D03*
X7048301Y19637709D03*
X2274329Y20782903D03*
X15000000Y28500000D03*
X14000000Y27500000D03*
X13000000Y24500000D03*
X11000000Y27500000D03*
X15000000Y32500000D03*
X9557231Y20574378D03*
X9108429Y19611367D03*
X2273057Y19605652D03*
X14000000Y30500000D03*
X11000000Y29500000D03*
X13000000Y27500000D03*
X13000000Y28500000D03*
X12000000Y31500000D03*
X7000000Y24500000D03*
X15000000Y31500000D03*
X11000000Y25500000D03*
X13000000Y29500000D03*
X2000000Y23500000D03*
X6000000Y24500000D03*
X13000000Y25500000D03*
X15000000Y27500000D03*
X3384110Y20632467D03*
X14000000Y29500000D03*
X1273057Y19605652D03*
X8900000Y27500000D03*
X15510771Y30950000D03*
X11007944Y24597986D03*
X1274329Y20782903D03*
X15000000Y29500000D03*
X2000000Y24500000D03*
X4384110Y20632467D03*
X12000000Y32500000D03*
X13000000Y30500000D03*
X8095575Y24494378D03*
X14000000Y25500000D03*
X4003167Y23498734D03*
X11000000Y28500000D03*
X3368868Y19611685D03*
X12000000Y30500000D03*
X12000000Y28500000D03*
X13000000Y32500000D03*
X3000000Y24500000D03*
X8108429Y19611367D03*
X4000000Y24500000D03*
X13000000Y31500000D03*
X12000000Y29500000D03*
X10000000Y24500000D03*
X12000000Y27500000D03*
X15000000Y30500000D03*
X4800000Y23700000D03*
X10000000Y25500000D03*
X6245000Y19625000D03*
X3003167Y23498734D03*
X8557231Y20574378D03*
X14000000Y28500000D03*
X12000000Y25500000D03*
%TO.N,/Project Architecture/Board Connector and Supplies/PORT_EN*%
X7700000Y14950000D03*
X21496071Y8353930D03*
%TO.N,/Project Architecture/Board Connector and Supplies/VBUS_VMON_PORT0*%
X5000000Y16023250D03*
X19000000Y9000000D03*
X23297751Y7170273D03*
%TO.N,/Project Architecture/Board Connector and Supplies/PMIC_VMON_PORT0*%
X22412847Y14892435D03*
%TO.N,Net-(PMFB1-Pad1)*%
X36822536Y28412858D03*
%TO.N,/Project Architecture/USB-PD Source Controller/V_PMIC_OUT*%
X18000000Y20500000D03*
X18000000Y22500000D03*
X18000000Y16500000D03*
X19000000Y22500000D03*
X20800000Y17800000D03*
X19000000Y20500000D03*
X34300000Y16000000D03*
X17000000Y21500000D03*
X17000000Y19500000D03*
X18000000Y17500000D03*
X20000000Y18500000D03*
X17996071Y18518011D03*
X17000000Y20500000D03*
X19991976Y16522107D03*
X17000000Y17500000D03*
X20000000Y19500000D03*
X19000000Y17500000D03*
X20000000Y17500000D03*
X18000000Y21500000D03*
X17000000Y18500000D03*
X19000000Y21500000D03*
X18000000Y19500000D03*
X19000000Y18500000D03*
X17000000Y16500000D03*
X17000000Y22500000D03*
X19000000Y19500000D03*
X19000000Y16500000D03*
%TO.N,/Project Architecture/USB-PD Source Controller/T3T4DS*%
X19039034Y23713856D03*
X18401620Y23713856D03*
X17753582Y25201157D03*
X17085417Y24509662D03*
X17100000Y25200000D03*
X16500000Y25200000D03*
X17800000Y23697920D03*
X19703239Y23715013D03*
X16478984Y24441571D03*
X19700000Y24446882D03*
X18400000Y25200000D03*
X19049657Y24462818D03*
%TO.N,Net-(D2-Pad2)*%
X51650000Y17900000D03*
X1150000Y28300000D03*
%TD*%
D36*
%TO.N,/Project Architecture/USB-PD Source Controller/CC2*%
X11650000Y20850000D02*
X11499596Y20699596D01*
X13560000Y20850000D02*
X11650000Y20850000D01*
X11499596Y20699596D02*
X11446401Y20699596D01*
X14250022Y20159978D02*
X13560000Y20850000D01*
X14250022Y20107490D02*
X14250022Y20159978D01*
D37*
%TO.N,+24V*%
X29750000Y3525000D02*
X29750000Y9500000D01*
X28750000Y3525000D02*
X28750000Y9500000D01*
X27750000Y3525000D02*
X27750000Y9500000D01*
X24750000Y3525000D02*
X24750000Y9500000D01*
%TO.N,GND*%
X17750000Y3525000D02*
X17750000Y8050000D01*
D38*
X32750000Y7250000D02*
X32500000Y7500000D01*
D39*
X5774363Y31174363D02*
X5790000Y31190000D01*
X14230000Y17650000D02*
X14250000Y17670000D01*
D36*
X9760000Y21530000D02*
X9760000Y22160000D01*
D38*
X30750000Y3525000D02*
X30750000Y7250000D01*
D40*
X52400000Y29300000D02*
X52450000Y29350000D01*
X52075000Y20600000D02*
X52075000Y21250000D01*
X53015000Y23685000D02*
X53100000Y23600000D01*
X52400000Y28635000D02*
X52400000Y29300000D01*
D36*
X9760000Y22840000D02*
X10100000Y22500000D01*
D40*
X48825000Y24372500D02*
X48825000Y25525000D01*
D37*
X17700000Y8100000D02*
X17700000Y8300000D01*
D39*
X6801333Y31526681D02*
X6801333Y31298667D01*
D38*
X33500000Y8500000D02*
X33500000Y9500000D01*
D36*
X9760000Y22160000D02*
X10100000Y22500000D01*
D40*
X50908516Y22559000D02*
X50925516Y22576000D01*
D38*
X31750000Y3525000D02*
X31750000Y7250000D01*
D40*
X52935000Y24335000D02*
X53050000Y24450000D01*
D36*
X9760000Y23500000D02*
X9760000Y22840000D01*
D37*
X17750000Y8050000D02*
X17700000Y8100000D01*
D39*
X5553226Y31174363D02*
X5774363Y31174363D01*
D38*
X32500000Y8500000D02*
X32500000Y9500000D01*
X31750000Y7250000D02*
X31500000Y7500000D01*
D40*
X48825000Y25525000D02*
X51935000Y28635000D01*
X51935000Y28635000D02*
X52400000Y28635000D01*
D39*
X13250000Y17650000D02*
X13250000Y17505000D01*
D38*
X33750000Y7250000D02*
X33500000Y7500000D01*
D40*
X52075000Y21925000D02*
X52075000Y21250000D01*
D38*
X33500000Y7500000D02*
X33500000Y8500000D01*
X32750000Y3525000D02*
X32750000Y7250000D01*
D39*
X13250000Y17650000D02*
X14230000Y17650000D01*
D40*
X50925516Y22576000D02*
X51424000Y22576000D01*
D39*
X9690000Y29740000D02*
X9650000Y29700000D01*
X13250000Y17505000D02*
X12175000Y16430000D01*
D38*
X30750000Y7250000D02*
X30500000Y7500000D01*
D40*
X52125000Y23685000D02*
X53015000Y23685000D01*
D38*
X32500000Y7500000D02*
X32500000Y8500000D01*
D40*
X25000000Y31975000D02*
X25000000Y30675000D01*
D39*
X5790000Y31190000D02*
X5910000Y31190000D01*
D40*
X51424000Y22576000D02*
X52075000Y21925000D01*
D39*
X6801333Y31298667D02*
X6910000Y31190000D01*
D40*
X52075000Y21250000D02*
X52950000Y21250000D01*
X52125000Y24335000D02*
X52125000Y23685000D01*
X52125000Y24335000D02*
X52935000Y24335000D01*
D39*
X6910000Y31190000D02*
X6950000Y31190000D01*
X9690000Y31050000D02*
X9690000Y29740000D01*
D40*
X50091500Y22559000D02*
X50908516Y22559000D01*
X48825000Y21292500D02*
X50091500Y22559000D01*
D38*
X33750000Y3525000D02*
X33750000Y7250000D01*
D37*
%TO.N,+3.54V*%
X37650000Y23800000D02*
X37650000Y16690000D01*
X37350000Y24100000D02*
X37650000Y23800000D01*
X37650000Y16690000D02*
X37350000Y16390000D01*
D41*
%TO.N,+3.3V*%
X48825000Y13725000D02*
X47605736Y12505736D01*
D39*
X5900000Y34150000D02*
X6950000Y34150000D01*
D41*
X20700000Y12200000D02*
X22750000Y10150000D01*
D40*
X49097500Y23685000D02*
X48825000Y23412500D01*
X50350000Y24335000D02*
X50350000Y23685000D01*
X48825000Y23412500D02*
X48100000Y22687500D01*
D41*
X22750000Y10150000D02*
X22750000Y3525000D01*
D40*
X48100000Y22687500D02*
X48100000Y21057500D01*
D36*
X12420000Y33400000D02*
X11400000Y33400000D01*
D40*
X50300000Y20600000D02*
X49092500Y20600000D01*
D36*
X10700000Y32700000D02*
X10700000Y31000000D01*
D41*
X48825000Y20332500D02*
X48825000Y13725000D01*
X16600000Y12200000D02*
X20700000Y12200000D01*
D36*
X11400000Y33400000D02*
X10700000Y32700000D01*
D40*
X48100000Y21057500D02*
X48825000Y20332500D01*
D39*
X6950000Y34150000D02*
X6849479Y34250521D01*
D41*
X47605736Y12505736D02*
X46495558Y12505736D01*
D40*
X50350000Y23685000D02*
X49097500Y23685000D01*
X49092500Y20600000D02*
X48825000Y20332500D01*
D36*
X7600000Y9920000D02*
X7600000Y9900000D01*
D40*
X50300000Y20600000D02*
X51000000Y20600000D01*
D36*
%TO.N,/Project Architecture/Adjustable 5A Buck Converter/PMIC_VOUT*%
X35829617Y21629617D02*
X35000000Y20800000D01*
X35000000Y20800000D02*
X32800000Y20800000D01*
X32800000Y20800000D02*
X32500000Y20500000D01*
X35829617Y28412824D02*
X35829617Y21629617D01*
D37*
%TO.N,SHIELD*%
X3037500Y28700000D02*
X3037500Y26720827D01*
X1425000Y17705000D02*
X5605000Y17705000D01*
X846000Y17705000D02*
X551000Y18000000D01*
X1763327Y26683327D02*
X3000000Y26683327D01*
X1425000Y17705000D02*
X846000Y17705000D01*
X3000000Y26683327D02*
X5266673Y26683327D01*
X3037500Y26720827D02*
X3000000Y26683327D01*
X945000Y26345000D02*
X1425000Y26345000D01*
X5266673Y26683327D02*
X5605000Y26345000D01*
X551000Y18000000D02*
X551000Y25951000D01*
X3005622Y28794977D02*
X3005622Y28744378D01*
X3005622Y28744378D02*
X3037500Y28712500D01*
X1425000Y26345000D02*
X1763327Y26683327D01*
X551000Y25951000D02*
X945000Y26345000D01*
X3037500Y28712500D02*
X3037500Y28700000D01*
%TO.N,+5VA*%
X34614654Y26375346D02*
X34690000Y26300000D01*
X34614654Y26425945D02*
X34614654Y26375346D01*
X34690000Y26300000D02*
X34700000Y26300000D01*
D40*
%TO.N,Net-(IC5-Y)*%
X50500000Y19950000D02*
X50300000Y19950000D01*
X50680000Y19770000D02*
X50500000Y19950000D01*
X50680000Y18700000D02*
X50680000Y19770000D01*
%TO.N,Net-(IC3-A0)*%
X5910000Y32210000D02*
X5910000Y33120000D01*
X5910000Y33120000D02*
X5900000Y33130000D01*
%TO.N,Net-(IC3-A1)*%
X6950000Y33130000D02*
X7030000Y33130000D01*
X7030000Y33130000D02*
X7050000Y33150000D01*
X6950000Y32210000D02*
X6950000Y33130000D01*
%TO.N,/Project Architecture/USB-PD Source Controller/USB_D+*%
X8800000Y22031645D02*
X8800000Y21530000D01*
X8132222Y22367501D02*
X8134724Y22364999D01*
X2286758Y21631720D02*
X2286758Y21721759D01*
X13049828Y22998474D02*
X13065717Y22982585D01*
X8701132Y22130513D02*
X8800000Y22031645D01*
X2286758Y21721759D02*
X2404998Y21839999D01*
X8701132Y22303868D02*
X8701132Y22130513D01*
X5093775Y22367501D02*
X8132222Y22367501D01*
X12066274Y22339999D02*
X12724749Y22998474D01*
X2404998Y21839999D02*
X4566273Y21839999D01*
X12724749Y22998474D02*
X13049828Y22998474D01*
X8640001Y22364999D02*
X8701132Y22303868D01*
X11410707Y22225707D02*
X11524999Y22339999D01*
X4566273Y21839999D02*
X5093775Y22367501D01*
X8134724Y22364999D02*
X8640001Y22364999D01*
X11410707Y22159239D02*
X11410707Y22225707D01*
X11524999Y22339999D02*
X12066274Y22339999D01*
%TO.N,PGOOD_3V3*%
X52765000Y23035000D02*
X53100000Y22700000D01*
X52125000Y23035000D02*
X52765000Y23035000D01*
D38*
%TO.N,Net-(JP1-C)*%
X16750000Y9000000D02*
X14750000Y7000000D01*
X14750000Y7000000D02*
X14750000Y4075000D01*
D40*
%TO.N,/Project Architecture/USB-PD Source Controller/USB_D-*%
X8742278Y22806159D02*
X8761159Y22806159D01*
X11386758Y22888282D02*
X11386758Y22798242D01*
X8254680Y22687501D02*
X8257180Y22685001D01*
X8749340Y22794340D02*
X8749340Y22799097D01*
X2265572Y22319432D02*
X2425003Y22160001D01*
X8749340Y22799097D02*
X8690539Y22857898D01*
X2265572Y22389119D02*
X2265572Y22319432D01*
X8800000Y22845000D02*
X8800000Y23500000D01*
X12498474Y23224749D02*
X12498474Y23502890D01*
X11386758Y22798242D02*
X11524999Y22660001D01*
X8761159Y22806159D02*
X8800000Y22845000D01*
X12498474Y23502890D02*
X12532536Y23536952D01*
X2425003Y22160001D02*
X4433727Y22160001D01*
X8640001Y22685001D02*
X8749340Y22794340D01*
X4961227Y22687501D02*
X8254680Y22687501D01*
X8690539Y22857898D02*
X8742278Y22806159D01*
X11933726Y22660001D02*
X12498474Y23224749D01*
X11524999Y22660001D02*
X11933726Y22660001D01*
X8257180Y22685001D02*
X8640001Y22685001D01*
X4433727Y22160001D02*
X4961227Y22687501D01*
D39*
%TO.N,/Project Architecture/USB-PD Source Controller/CC2*%
X14250000Y18630000D02*
X14250000Y20050000D01*
D36*
%TO.N,/Project Architecture/USB-PD Source Controller/CC1*%
X10800000Y23550000D02*
X10800000Y21600000D01*
D39*
X13250000Y18610000D02*
X13250000Y20070000D01*
D36*
X10800000Y21600000D02*
X10789203Y21589203D01*
X10789203Y20410797D02*
X11000000Y20200000D01*
X13220000Y20200000D02*
X13300000Y20120000D01*
D39*
X13250000Y20070000D02*
X13300000Y20120000D01*
D36*
X11100000Y23850000D02*
X10800000Y23550000D01*
X10789203Y21589203D02*
X10789203Y20410797D01*
X11000000Y20200000D02*
X13220000Y20200000D01*
%TO.N,/Project Architecture/USB-PD Source Controller/DISCHRG*%
X26400000Y29850000D02*
X26050000Y29850000D01*
X26050000Y29850000D02*
X25875000Y30025000D01*
X25875000Y30025000D02*
X25000000Y30025000D01*
D41*
%TO.N,/Project Architecture/Adjustable 5A Buck Converter/PD_ADD*%
X33500000Y28300000D02*
X33500000Y25836657D01*
X33500000Y25836657D02*
X33536657Y25800000D01*
%TO.N,/Project Architecture/Adjustable 5A Buck Converter/PMIC_ENABLE*%
X20274000Y9974000D02*
X20500000Y10200000D01*
D40*
X50850000Y21250000D02*
X50300000Y21250000D01*
X51100000Y22044243D02*
X51100000Y21500000D01*
X51100000Y21500000D02*
X50850000Y21250000D01*
D41*
X20750000Y6912595D02*
X20274000Y7388595D01*
X20274000Y7388595D02*
X20274000Y9974000D01*
X20750000Y3525000D02*
X20750000Y6912595D01*
D40*
%TO.N,Net-(IC7-Y)*%
X50640000Y25600000D02*
X51250000Y24990000D01*
X51020000Y23035000D02*
X50350000Y23035000D01*
X51250000Y23265000D02*
X51020000Y23035000D01*
X51250000Y24990000D02*
X51250000Y23265000D01*
D41*
%TO.N,/Project Architecture/USB-PD Source Controller/I2C_SDCL*%
X9600000Y11050000D02*
X8600000Y12050000D01*
X19750000Y10100000D02*
X18800000Y11050000D01*
X18800000Y11050000D02*
X9600000Y11050000D01*
X19750000Y3525000D02*
X19750000Y10100000D01*
%TO.N,/Project Architecture/USB-PD Source Controller/PD_ATTACH*%
X23750000Y3525000D02*
X23865584Y3640584D01*
X14996728Y12786728D02*
X14890000Y12680000D01*
X23865584Y3640584D02*
X23865584Y7490732D01*
X23200000Y10600000D02*
X21013272Y12786728D01*
X21013272Y12786728D02*
X14996728Y12786728D01*
X23200000Y8156316D02*
X23200000Y10600000D01*
X23865584Y7490732D02*
X23200000Y8156316D01*
%TO.N,/Project Architecture/USB-PD Source Controller/I2C_SDA*%
X13530000Y15230000D02*
X14200000Y15230000D01*
X6500000Y13600000D02*
X11900000Y13600000D01*
X11900000Y13600000D02*
X13530000Y15230000D01*
%TO.N,/Project Architecture/USB-PD Source Controller/PD_ENABLE*%
X14150000Y12300000D02*
X14150000Y13805000D01*
D40*
X52500000Y16100000D02*
X51600000Y15200000D01*
X52500000Y19750000D02*
X52500000Y16100000D01*
D41*
X21750000Y3525000D02*
X21750000Y6875000D01*
X20300000Y11650000D02*
X14800000Y11650000D01*
X22200000Y7600000D02*
X22200000Y9750000D01*
X22200000Y9750000D02*
X20300000Y11650000D01*
D40*
X52300000Y19950000D02*
X52500000Y19750000D01*
D41*
X22200000Y7325000D02*
X22200000Y7600000D01*
D40*
X52075000Y19950000D02*
X52300000Y19950000D01*
D41*
X21750000Y6875000D02*
X22200000Y7325000D01*
X14800000Y11650000D02*
X14150000Y12300000D01*
D36*
%TO.N,/Project Architecture/Board Connector and Supplies/VBUS_VMON_PORT0*%
X11600000Y9900000D02*
X17300000Y9900000D01*
X18200000Y9000000D02*
X19000000Y9000000D01*
X17300000Y9900000D02*
X18100000Y9100000D01*
X18100000Y9100000D02*
X18200000Y9000000D01*
D37*
X4650000Y13900000D02*
X4650000Y15673250D01*
D36*
X8600000Y11000000D02*
X9700000Y9900000D01*
X6600000Y13000000D02*
X8600000Y11000000D01*
X5550000Y13000000D02*
X6600000Y13000000D01*
D37*
X4650000Y15673250D02*
X5000000Y16023250D01*
D36*
X4650000Y13900000D02*
X5550000Y13000000D01*
X9700000Y9900000D02*
X11600000Y9900000D01*
%TO.N,/Project Architecture/Board Connector and Supplies/PMIC_VMON_PORT0*%
X22450000Y14850000D02*
X22450000Y14855282D01*
X22450000Y14855282D02*
X22412847Y14892435D01*
D40*
%TO.N,Net-(D2-Pad2)*%
X51700000Y17950000D02*
X51650000Y17900000D01*
X51700000Y18700000D02*
X51700000Y17950000D01*
%TO.N,Net-(D4-Pad2)*%
X51660000Y25600000D02*
X52400000Y26340000D01*
X52400000Y26340000D02*
X52400000Y27665000D01*
%TD*%
%TA.AperFunction,Conductor*%
%TO.N,/Project Architecture/USB-PD Source Controller/VBUS_MEA*%
G36*
X21286587Y35204815D02*
G01*
X21332342Y35152011D01*
X21342285Y35082856D01*
X21342285Y35082849D01*
X21341300Y35076003D01*
X21341300Y29123993D01*
X21346069Y29079638D01*
X21349210Y29065201D01*
X21357276Y29028125D01*
X21359802Y29017788D01*
X21403481Y28935819D01*
X21449236Y28883015D01*
X21449243Y28883008D01*
X21449251Y28882999D01*
X21450000Y28882235D01*
X21450000Y26030693D01*
X21427511Y26011206D01*
X21376000Y26000000D01*
X16374000Y26000000D01*
X16306961Y26019685D01*
X16261206Y26072489D01*
X16250000Y26124000D01*
X16250000Y29238000D01*
X16269685Y29305039D01*
X16299601Y29337201D01*
X16300000Y29337500D01*
X16650000Y29600000D01*
X16660904Y35100747D01*
X16680722Y35167746D01*
X16733616Y35213396D01*
X16784904Y35224500D01*
X21219548Y35224500D01*
X21286587Y35204815D01*
G37*
%TD.AperFunction*%
%TD*%
%TA.AperFunction,Conductor*%
%TO.N,/Project Architecture/USB-PD Source Controller/VBUS*%
G36*
X15215677Y32730315D02*
G01*
X15236319Y32713681D01*
X15250000Y32700000D01*
X15250000Y27231133D01*
X15250000Y26249934D01*
X15256618Y25223459D01*
X15256619Y25221988D01*
X15250000Y24000040D01*
X15250000Y24000000D01*
X15255994Y22644320D01*
X15270663Y19326661D01*
X15251275Y19259535D01*
X15198674Y19213547D01*
X15146665Y19202113D01*
X14727701Y19202108D01*
X14660662Y19221792D01*
X14614906Y19274595D01*
X14603700Y19326108D01*
X14603700Y19639999D01*
X14623385Y19707038D01*
X14640019Y19727680D01*
X14642966Y19730627D01*
X14653060Y19740721D01*
X14719373Y19855579D01*
X14753700Y19983687D01*
X14753700Y20116313D01*
X14719373Y20244421D01*
X14653060Y20359279D01*
X14559279Y20453060D01*
X14559278Y20453061D01*
X14559275Y20453063D01*
X14444423Y20519372D01*
X14444422Y20519373D01*
X14406929Y20529420D01*
X14316313Y20553700D01*
X14316311Y20553700D01*
X14308462Y20555803D01*
X14309278Y20558853D01*
X14258974Y20581125D01*
X14251405Y20588091D01*
X13746478Y21093019D01*
X13746477Y21093020D01*
X13746476Y21093021D01*
X13677224Y21133004D01*
X13677221Y21133006D01*
X13599986Y21153700D01*
X13599983Y21153700D01*
X11971453Y21153700D01*
X11904414Y21173385D01*
X11858659Y21226189D01*
X11848715Y21295347D01*
X11851674Y21309775D01*
X11867707Y21369612D01*
X11867707Y21475908D01*
X11840196Y21578583D01*
X11787048Y21670638D01*
X11727717Y21729969D01*
X11694232Y21791292D01*
X11699216Y21860984D01*
X11710930Y21884451D01*
X11718186Y21895800D01*
X11733748Y21911361D01*
X11785923Y22001731D01*
X11787438Y22004100D01*
X11811748Y22025263D01*
X11835086Y22047515D01*
X11838170Y22048264D01*
X11840137Y22049975D01*
X11852935Y22051846D01*
X11891906Y22061299D01*
X12102964Y22061299D01*
X12102966Y22061299D01*
X12173848Y22080292D01*
X12182728Y22085419D01*
X12237400Y22116983D01*
X12289290Y22168873D01*
X12289291Y22168876D01*
X12726545Y22606131D01*
X12787866Y22639614D01*
X12857558Y22634630D01*
X12876222Y22625837D01*
X12909894Y22606396D01*
X13004879Y22580946D01*
X13064538Y22544583D01*
X13095068Y22481736D01*
X13095498Y22457714D01*
X13096330Y22457714D01*
X13096330Y22449587D01*
X13096330Y22343291D01*
X13123841Y22240616D01*
X13176989Y22148561D01*
X13252152Y22073398D01*
X13344207Y22020250D01*
X13446882Y21992739D01*
X13446884Y21992739D01*
X13553176Y21992739D01*
X13553178Y21992739D01*
X13655853Y22020250D01*
X13747908Y22073398D01*
X13823071Y22148561D01*
X13876219Y22240616D01*
X13903730Y22343291D01*
X13903730Y22449587D01*
X13876219Y22552262D01*
X13823071Y22644317D01*
X13747908Y22719480D01*
X13655853Y22772628D01*
X13560866Y22798079D01*
X13501207Y22834443D01*
X13470678Y22897289D01*
X13470252Y22921310D01*
X13469417Y22921310D01*
X13469417Y23035731D01*
X13469417Y23035733D01*
X13441906Y23138408D01*
X13427102Y23164049D01*
X13410630Y23231946D01*
X13433482Y23297973D01*
X13472489Y23333434D01*
X13547878Y23376959D01*
X13623041Y23452122D01*
X13676189Y23544177D01*
X13703700Y23646852D01*
X13703700Y23753148D01*
X13676189Y23855823D01*
X13623041Y23947878D01*
X13547878Y24023041D01*
X13455823Y24076189D01*
X13353148Y24103700D01*
X13246852Y24103700D01*
X13144177Y24076189D01*
X13144175Y24076188D01*
X13144174Y24076188D01*
X13052125Y24023043D01*
X13052119Y24023039D01*
X12976961Y23947881D01*
X12976959Y23947878D01*
X12951767Y23904244D01*
X12901199Y23856029D01*
X12832592Y23842807D01*
X12782380Y23858858D01*
X12688361Y23913140D01*
X12688360Y23913141D01*
X12688359Y23913141D01*
X12585684Y23940652D01*
X12479388Y23940652D01*
X12479383Y23940652D01*
X12446494Y23931839D01*
X12376645Y23933503D01*
X12318783Y23972666D01*
X12291280Y24036895D01*
X12294627Y24083703D01*
X12304188Y24119383D01*
X12304188Y24225679D01*
X12276677Y24328354D01*
X12223529Y24420409D01*
X12148366Y24495572D01*
X12056311Y24548720D01*
X11953636Y24576231D01*
X11847340Y24576231D01*
X11744665Y24548720D01*
X11744663Y24548719D01*
X11744662Y24548719D01*
X11652613Y24495574D01*
X11652607Y24495570D01*
X11577449Y24420412D01*
X11577445Y24420406D01*
X11524300Y24328357D01*
X11506448Y24261732D01*
X11470082Y24202071D01*
X11407235Y24171543D01*
X11337860Y24179838D01*
X11324674Y24186439D01*
X11255829Y24226187D01*
X11255825Y24226188D01*
X11255823Y24226189D01*
X11153148Y24253700D01*
X11046852Y24253700D01*
X10944177Y24226189D01*
X10944175Y24226188D01*
X10944174Y24226188D01*
X10852125Y24173043D01*
X10852119Y24173039D01*
X10776961Y24097881D01*
X10776957Y24097875D01*
X10723812Y24005826D01*
X10723811Y24005824D01*
X10723811Y24005823D01*
X10722251Y24000000D01*
X10694888Y23897879D01*
X10686870Y23883994D01*
X10683946Y23870547D01*
X10662795Y23842293D01*
X10613525Y23793022D01*
X10613524Y23793021D01*
X10556981Y23736479D01*
X10556979Y23736476D01*
X10516994Y23667222D01*
X10496300Y23589987D01*
X10496300Y22952124D01*
X10476615Y22885085D01*
X10423811Y22839330D01*
X10354653Y22829386D01*
X10310300Y22844737D01*
X10255825Y22876188D01*
X10255826Y22876188D01*
X10255823Y22876189D01*
X10208085Y22888980D01*
X10148427Y22925344D01*
X10117898Y22988191D01*
X10126193Y23057567D01*
X10152500Y23096435D01*
X10153611Y23097546D01*
X10185886Y23129821D01*
X10237110Y23239672D01*
X10243700Y23289728D01*
X10243700Y23710272D01*
X10237110Y23760328D01*
X10185886Y23870179D01*
X10100179Y23955886D01*
X10005576Y24000000D01*
X9990331Y24007109D01*
X9990329Y24007110D01*
X9990328Y24007110D01*
X9990325Y24007111D01*
X9990323Y24007111D01*
X9940282Y24013699D01*
X9940277Y24013700D01*
X9940272Y24013700D01*
X9579728Y24013700D01*
X9579722Y24013700D01*
X9579717Y24013699D01*
X9529676Y24007111D01*
X9529668Y24007109D01*
X9419820Y23955886D01*
X9367681Y23903746D01*
X9306358Y23870261D01*
X9236666Y23875245D01*
X9192319Y23903746D01*
X9140179Y23955886D01*
X9030331Y24007109D01*
X9030329Y24007110D01*
X9030328Y24007110D01*
X9030325Y24007111D01*
X9030323Y24007111D01*
X8980282Y24013699D01*
X8980277Y24013700D01*
X8980272Y24013700D01*
X8619728Y24013700D01*
X8619722Y24013700D01*
X8619717Y24013699D01*
X8569676Y24007111D01*
X8569668Y24007109D01*
X8459820Y23955886D01*
X8374114Y23870180D01*
X8322891Y23760332D01*
X8322889Y23760325D01*
X8322272Y23755636D01*
X8294004Y23691740D01*
X8235679Y23653269D01*
X8167248Y23652046D01*
X8161076Y23653700D01*
X8161072Y23653700D01*
X8054776Y23653700D01*
X7952101Y23626189D01*
X7952099Y23626188D01*
X7952098Y23626188D01*
X7860049Y23573043D01*
X7860043Y23573039D01*
X7784885Y23497881D01*
X7784881Y23497875D01*
X7731736Y23405826D01*
X7731736Y23405825D01*
X7731735Y23405823D01*
X7704224Y23303148D01*
X7704224Y23196852D01*
X7724201Y23122292D01*
X7722539Y23052444D01*
X7683376Y22994582D01*
X7619148Y22967078D01*
X7604427Y22966201D01*
X5005531Y22966201D01*
X5005515Y22966202D01*
X4997919Y22966202D01*
X4924535Y22966202D01*
X4924532Y22966202D01*
X4853659Y22947211D01*
X4853652Y22947208D01*
X4790101Y22910518D01*
X4790099Y22910516D01*
X4759567Y22879983D01*
X4738211Y22858627D01*
X4738209Y22858625D01*
X4533107Y22653522D01*
X4354605Y22475020D01*
X4293282Y22441535D01*
X4266924Y22438701D01*
X2765376Y22438701D01*
X2698337Y22458386D01*
X2652582Y22511190D01*
X2645603Y22530601D01*
X2641761Y22544942D01*
X2588613Y22636997D01*
X2513450Y22712160D01*
X2421395Y22765308D01*
X2318720Y22792819D01*
X2212424Y22792819D01*
X2109749Y22765308D01*
X2109747Y22765307D01*
X2109746Y22765307D01*
X2017697Y22712162D01*
X2017691Y22712158D01*
X1942533Y22637000D01*
X1942529Y22636994D01*
X1889384Y22544945D01*
X1889384Y22544944D01*
X1889383Y22544942D01*
X1861872Y22442267D01*
X1861872Y22335971D01*
X1889383Y22233296D01*
X1942531Y22141241D01*
X1942533Y22141239D01*
X1996264Y22087508D01*
X2029749Y22026185D01*
X2024765Y21956493D01*
X1996265Y21912147D01*
X1963720Y21879602D01*
X1963715Y21879595D01*
X1910570Y21787546D01*
X1910570Y21787545D01*
X1910569Y21787543D01*
X1883058Y21684868D01*
X1883058Y21578572D01*
X1910569Y21475897D01*
X1963717Y21383842D01*
X2038880Y21308679D01*
X2130935Y21255531D01*
X2233610Y21228020D01*
X2233612Y21228020D01*
X2339904Y21228020D01*
X2339906Y21228020D01*
X2442581Y21255531D01*
X2534636Y21308679D01*
X2609799Y21383842D01*
X2662947Y21475897D01*
X2662949Y21475906D01*
X2666056Y21483404D01*
X2668996Y21482186D01*
X2697591Y21529073D01*
X2760445Y21559587D01*
X2780979Y21561299D01*
X4602962Y21561299D01*
X4602965Y21561299D01*
X4673847Y21580292D01*
X4737399Y21616983D01*
X4789289Y21668873D01*
X4789289Y21668875D01*
X4799493Y21679078D01*
X4799496Y21679083D01*
X5172897Y22052482D01*
X5234220Y22085967D01*
X5260578Y22088801D01*
X7671825Y22088801D01*
X7738864Y22069116D01*
X7784619Y22016312D01*
X7794563Y21947154D01*
X7775984Y21903051D01*
X7778354Y21901683D01*
X7721143Y21802592D01*
X7721143Y21802591D01*
X7721142Y21802589D01*
X7693631Y21699914D01*
X7693631Y21593618D01*
X7721142Y21490943D01*
X7774290Y21398888D01*
X7849453Y21323725D01*
X7941508Y21270577D01*
X8044183Y21243066D01*
X8044185Y21243066D01*
X8150477Y21243066D01*
X8150479Y21243066D01*
X8214268Y21260158D01*
X8284115Y21258495D01*
X8341978Y21219332D01*
X8358740Y21192790D01*
X8374114Y21159821D01*
X8459821Y21074114D01*
X8569672Y21022890D01*
X8619728Y21016300D01*
X8619735Y21016300D01*
X8980265Y21016300D01*
X8980272Y21016300D01*
X9030328Y21022890D01*
X9140179Y21074114D01*
X9192319Y21126254D01*
X9253642Y21159739D01*
X9323334Y21154755D01*
X9367681Y21126254D01*
X9419821Y21074114D01*
X9529672Y21022890D01*
X9579728Y21016300D01*
X9579735Y21016300D01*
X9940265Y21016300D01*
X9940272Y21016300D01*
X9990328Y21022890D01*
X10100179Y21074114D01*
X10185886Y21159821D01*
X10237110Y21269672D01*
X10238564Y21280714D01*
X10266830Y21344611D01*
X10325155Y21383082D01*
X10395019Y21383913D01*
X10454243Y21346841D01*
X10484022Y21283636D01*
X10485503Y21264529D01*
X10485503Y20649204D01*
X10465818Y20582165D01*
X10449184Y20561523D01*
X10396941Y20509281D01*
X10396937Y20509276D01*
X10330628Y20394424D01*
X10330627Y20394423D01*
X10313463Y20330367D01*
X10296300Y20266313D01*
X10296300Y20266311D01*
X10296300Y20133690D01*
X10296299Y20133690D01*
X10330627Y20005578D01*
X10330628Y20005577D01*
X10396937Y19890725D01*
X10396941Y19890720D01*
X10428301Y19859360D01*
X10461786Y19798037D01*
X10456802Y19728345D01*
X10428302Y19683999D01*
X10389867Y19645564D01*
X10389862Y19645557D01*
X10336717Y19553508D01*
X10336717Y19553507D01*
X10336716Y19553505D01*
X10309205Y19450830D01*
X10309205Y19344532D01*
X10309508Y19342229D01*
X10309205Y19340287D01*
X10309205Y19336407D01*
X10308600Y19336407D01*
X10298739Y19273194D01*
X10252356Y19220941D01*
X10186570Y19202050D01*
X7091046Y19202011D01*
X7074718Y19202011D01*
X7052015Y19208094D01*
X6945719Y19208094D01*
X6923006Y19202009D01*
X6906682Y19202008D01*
X6906681Y19202009D01*
X6906681Y19202008D01*
X6414115Y19202003D01*
X6382022Y19206228D01*
X6298153Y19228700D01*
X6298148Y19228700D01*
X6191852Y19228700D01*
X6191846Y19228700D01*
X6107961Y19206223D01*
X6075871Y19201998D01*
X5674473Y19201993D01*
X5607433Y19221677D01*
X5561677Y19274480D01*
X5554698Y19293893D01*
X5548095Y19318536D01*
X5485495Y19426964D01*
X5396964Y19515495D01*
X5288536Y19578095D01*
X5288537Y19578095D01*
X5248224Y19588897D01*
X5167601Y19610500D01*
X5042399Y19610500D01*
X4961775Y19588897D01*
X4921463Y19578095D01*
X4813037Y19515496D01*
X4813034Y19515494D01*
X4724506Y19426966D01*
X4724504Y19426963D01*
X4661905Y19318537D01*
X4661904Y19318535D01*
X4655298Y19293881D01*
X4618931Y19234221D01*
X4556083Y19203694D01*
X4535526Y19201978D01*
X1053702Y19201934D01*
X986662Y19221618D01*
X940906Y19274421D01*
X929700Y19325934D01*
X929700Y24666473D01*
X949385Y24733512D01*
X1002189Y24779267D01*
X1053700Y24790473D01*
X4556245Y24790473D01*
X4623284Y24770788D01*
X4663631Y24728474D01*
X4724505Y24623036D01*
X4813036Y24534505D01*
X4921464Y24471905D01*
X5042399Y24439500D01*
X5042401Y24439500D01*
X5167599Y24439500D01*
X5167601Y24439500D01*
X5288536Y24471905D01*
X5396964Y24534505D01*
X5485495Y24623036D01*
X5546368Y24728474D01*
X5596934Y24776688D01*
X5653755Y24790473D01*
X7799999Y24790473D01*
X7800000Y24790473D01*
X10000000Y27000000D01*
X10000000Y28948638D01*
X10019685Y29015677D01*
X10036319Y29036319D01*
X10800000Y29800000D01*
X11250000Y30250000D01*
X11250000Y32500000D01*
X11463681Y32713681D01*
X11525004Y32747166D01*
X11551362Y32750000D01*
X15148638Y32750000D01*
X15215677Y32730315D01*
G37*
%TD.AperFunction*%
%TD*%
%TA.AperFunction,Conductor*%
%TO.N,GND*%
G36*
X17189880Y9576615D02*
G01*
X17235635Y9523811D01*
X17245579Y9454653D01*
X17232362Y9425714D01*
X18009717Y8759901D01*
X18013519Y8756984D01*
X18013524Y8756979D01*
X18082776Y8716996D01*
X18160016Y8696300D01*
X18160017Y8696300D01*
X18685397Y8696300D01*
X18747397Y8679687D01*
X18752121Y8676960D01*
X18752122Y8676959D01*
X18844177Y8623811D01*
X18946852Y8596300D01*
X18946854Y8596300D01*
X19053146Y8596300D01*
X19053148Y8596300D01*
X19155823Y8623811D01*
X19235303Y8669700D01*
X19303199Y8686171D01*
X19369226Y8663319D01*
X19412417Y8608398D01*
X19421300Y8562311D01*
X19421300Y6624000D01*
X19401615Y6556961D01*
X19348811Y6511206D01*
X19297300Y6500000D01*
X15277700Y6500000D01*
X15269014Y6502551D01*
X15260053Y6501262D01*
X15236012Y6512241D01*
X15210661Y6519685D01*
X15204733Y6526526D01*
X15196497Y6530287D01*
X15182207Y6552522D01*
X15164906Y6572489D01*
X15162618Y6583004D01*
X15158723Y6589065D01*
X15153700Y6624000D01*
X15153700Y6781421D01*
X15173385Y6848460D01*
X15190014Y6869097D01*
X16987668Y8666752D01*
X16987673Y8666755D01*
X16997876Y8676959D01*
X16997878Y8676959D01*
X17073041Y8752122D01*
X17126189Y8844177D01*
X17132002Y8865876D01*
X17153701Y8946852D01*
X17153701Y9053148D01*
X17130433Y9139983D01*
X17126189Y9155823D01*
X17073041Y9247878D01*
X16997878Y9323041D01*
X16947933Y9351877D01*
X16925354Y9364913D01*
X16877138Y9415480D01*
X16863916Y9484087D01*
X16889884Y9548952D01*
X16946798Y9589480D01*
X16987354Y9596300D01*
X17122841Y9596300D01*
X17189880Y9576615D01*
G37*
%TD.AperFunction*%
%TA.AperFunction,Conductor*%
G36*
X31541438Y9690777D02*
G01*
X31559500Y9685937D01*
X31589405Y9673550D01*
X31589407Y9673549D01*
X31605592Y9664205D01*
X31631275Y9644498D01*
X31644496Y9631277D01*
X31664203Y9605594D01*
X31678944Y9580061D01*
X31688243Y9560016D01*
X31690380Y9554071D01*
X31690384Y9554061D01*
X31690386Y9554057D01*
X31696146Y9541444D01*
X31707483Y9516619D01*
X31707764Y9516007D01*
X31707765Y9516006D01*
X31764433Y9442415D01*
X31764435Y9442413D01*
X31818307Y9397933D01*
X31838951Y9382912D01*
X31838952Y9382912D01*
X31838953Y9382911D01*
X31926411Y9351639D01*
X31995786Y9343344D01*
X32021272Y9341869D01*
X32111753Y9362845D01*
X32174600Y9393374D01*
X32174609Y9393379D01*
X32196836Y9405911D01*
X32196836Y9405912D01*
X32196839Y9405913D01*
X32261616Y9472477D01*
X32297980Y9532137D01*
X32308268Y9556164D01*
X32314853Y9569321D01*
X32335803Y9605608D01*
X32355501Y9631277D01*
X32368721Y9644497D01*
X32394391Y9664195D01*
X32410597Y9673552D01*
X32440497Y9685936D01*
X32458567Y9690778D01*
X32490652Y9695000D01*
X32509348Y9695000D01*
X32541438Y9690777D01*
X32559500Y9685937D01*
X32589407Y9673549D01*
X32605592Y9664205D01*
X32631275Y9644498D01*
X32644496Y9631277D01*
X32664203Y9605594D01*
X32678944Y9580061D01*
X32688243Y9560016D01*
X32690380Y9554071D01*
X32690384Y9554061D01*
X32690386Y9554057D01*
X32696146Y9541444D01*
X32707483Y9516619D01*
X32707764Y9516007D01*
X32707765Y9516006D01*
X32764433Y9442415D01*
X32764435Y9442413D01*
X32818307Y9397933D01*
X32838951Y9382912D01*
X32838952Y9382912D01*
X32838953Y9382911D01*
X32926411Y9351639D01*
X32995786Y9343344D01*
X33021272Y9341869D01*
X33111753Y9362845D01*
X33174600Y9393374D01*
X33174609Y9393379D01*
X33196836Y9405911D01*
X33196836Y9405912D01*
X33196839Y9405913D01*
X33261616Y9472477D01*
X33297980Y9532137D01*
X33308268Y9556164D01*
X33314853Y9569321D01*
X33335803Y9605608D01*
X33355501Y9631277D01*
X33368721Y9644497D01*
X33394391Y9664195D01*
X33410597Y9673552D01*
X33440497Y9685936D01*
X33458567Y9690778D01*
X33490652Y9695000D01*
X33509348Y9695000D01*
X33541434Y9690778D01*
X33559495Y9685939D01*
X33589404Y9673550D01*
X33591381Y9672409D01*
X33591381Y9672408D01*
X33605599Y9664199D01*
X33631278Y9644495D01*
X33644496Y9631277D01*
X33664199Y9605601D01*
X33664201Y9605598D01*
X33673547Y9589411D01*
X33685935Y9559506D01*
X33687391Y9554071D01*
X33690775Y9541444D01*
X33695000Y9509350D01*
X33695000Y9123993D01*
X33699769Y9079638D01*
X33710977Y9028119D01*
X33712209Y9023077D01*
X33713502Y9017788D01*
X33757181Y8935819D01*
X33802936Y8883015D01*
X33802943Y8883008D01*
X33802951Y8882999D01*
X33820798Y8864785D01*
X33820805Y8864779D01*
X33861331Y8842111D01*
X33901862Y8819439D01*
X33968901Y8799754D01*
X33968905Y8799754D01*
X33968907Y8799753D01*
X33978408Y8798388D01*
X34027700Y8791300D01*
X34027703Y8791300D01*
X34491967Y8791300D01*
X34559006Y8771615D01*
X34604761Y8718811D01*
X34614705Y8649653D01*
X34585680Y8586097D01*
X34579648Y8579619D01*
X34159541Y8159513D01*
X34159535Y8159505D01*
X34119982Y8090996D01*
X34119979Y8090991D01*
X34099500Y8014561D01*
X34099500Y6624000D01*
X34079815Y6556961D01*
X34027011Y6511206D01*
X33975500Y6500000D01*
X30679000Y6500000D01*
X30611961Y6519685D01*
X30566206Y6572489D01*
X30555000Y6624000D01*
X30555000Y7031421D01*
X30554925Y7032815D01*
X30553804Y7053731D01*
X30550970Y7080089D01*
X30526637Y7157798D01*
X30493152Y7219121D01*
X30457554Y7266675D01*
X30355501Y7368727D01*
X30335794Y7394412D01*
X30326448Y7410601D01*
X30314062Y7440504D01*
X30309224Y7458560D01*
X30304999Y7490653D01*
X30304999Y7509348D01*
X30309222Y7541433D01*
X30314065Y7559508D01*
X30326448Y7589405D01*
X30335803Y7605608D01*
X30355501Y7631277D01*
X30368723Y7644499D01*
X30394397Y7664200D01*
X30419947Y7678951D01*
X30439995Y7688251D01*
X30445948Y7690390D01*
X30483354Y7707474D01*
X30483999Y7707770D01*
X30557588Y7764439D01*
X30602072Y7818318D01*
X30617090Y7838959D01*
X30648360Y7926417D01*
X30648360Y7926418D01*
X30648361Y7926420D01*
X30656651Y7995769D01*
X30656654Y7995793D01*
X30658129Y8021283D01*
X30637151Y8111763D01*
X30606620Y8174609D01*
X30594082Y8196845D01*
X30585141Y8205546D01*
X30527520Y8261618D01*
X30527513Y8261623D01*
X30467861Y8297981D01*
X30467855Y8297984D01*
X30443848Y8308265D01*
X30430664Y8314864D01*
X30394403Y8335799D01*
X30368721Y8355506D01*
X30355502Y8368725D01*
X30335795Y8394408D01*
X30326451Y8410593D01*
X30314063Y8440502D01*
X30309224Y8458564D01*
X30305000Y8490653D01*
X30305000Y8509349D01*
X30309223Y8541435D01*
X30314061Y8559495D01*
X30326448Y8589405D01*
X30335802Y8605607D01*
X30355501Y8631277D01*
X30368720Y8644496D01*
X30394397Y8664198D01*
X30410597Y8673552D01*
X30440495Y8685936D01*
X30462112Y8691728D01*
X30465000Y8692633D01*
X30478682Y8696916D01*
X30478687Y8696918D01*
X30478694Y8696920D01*
X30498111Y8703900D01*
X30564181Y8742571D01*
X30585464Y8761013D01*
X30649018Y8790038D01*
X30666666Y8791300D01*
X31129724Y8791300D01*
X31130287Y8791311D01*
X31137170Y8791433D01*
X31146016Y8791749D01*
X31211499Y8804775D01*
X31276963Y8829192D01*
X31300289Y8839558D01*
X31371100Y8899662D01*
X31412972Y8955595D01*
X31426995Y8976932D01*
X31454069Y9065779D01*
X31459053Y9135471D01*
X31459314Y9160997D01*
X31434056Y9250378D01*
X31400571Y9311701D01*
X31400569Y9311704D01*
X31364979Y9359247D01*
X31364963Y9359265D01*
X31355502Y9368726D01*
X31335796Y9394406D01*
X31326450Y9410593D01*
X31314063Y9440502D01*
X31309224Y9458564D01*
X31305000Y9490653D01*
X31305000Y9509349D01*
X31309223Y9541435D01*
X31311237Y9548952D01*
X31314064Y9559503D01*
X31326448Y9589405D01*
X31335802Y9605607D01*
X31355501Y9631277D01*
X31368721Y9644497D01*
X31394391Y9664195D01*
X31410597Y9673552D01*
X31440497Y9685936D01*
X31458567Y9690778D01*
X31490652Y9695000D01*
X31509348Y9695000D01*
X31541438Y9690777D01*
G37*
%TD.AperFunction*%
%TA.AperFunction,Conductor*%
G36*
X28534339Y35204815D02*
G01*
X28580094Y35152011D01*
X28591300Y35100500D01*
X28591300Y30001362D01*
X28592495Y29979067D01*
X28592499Y29979015D01*
X28595329Y29952698D01*
X28595331Y29952687D01*
X28619662Y29874987D01*
X28619662Y29874986D01*
X28653147Y29813662D01*
X28653149Y29813659D01*
X28688739Y29766116D01*
X28688755Y29766098D01*
X29154981Y29299873D01*
X29188466Y29238550D01*
X29191300Y29212192D01*
X29191300Y23593764D01*
X29192026Y23582009D01*
X29192884Y23568100D01*
X29196632Y23537847D01*
X29196634Y23537839D01*
X29223901Y23457626D01*
X29223905Y23457616D01*
X29259346Y23397420D01*
X29259356Y23397404D01*
X29273625Y23376247D01*
X29273628Y23376243D01*
X29345147Y23316989D01*
X29345148Y23316989D01*
X29345150Y23316987D01*
X29407523Y23285501D01*
X29430975Y23275412D01*
X29430978Y23275412D01*
X29430980Y23275411D01*
X29497595Y23267334D01*
X29523179Y23264231D01*
X29523181Y23264232D01*
X29523185Y23264231D01*
X29571784Y23269291D01*
X29577042Y23269838D01*
X29577041Y23269839D01*
X29594129Y23271617D01*
X29594130Y23271618D01*
X29598202Y23272042D01*
X29610342Y23272496D01*
X29649734Y23283051D01*
X29678562Y23290775D01*
X29710654Y23295000D01*
X29729348Y23295000D01*
X29761438Y23290777D01*
X29779500Y23285937D01*
X29809407Y23273549D01*
X29825592Y23264205D01*
X29851275Y23244498D01*
X29864496Y23231277D01*
X29884201Y23205598D01*
X29893547Y23189411D01*
X29905935Y23159506D01*
X29908813Y23148764D01*
X29910775Y23141444D01*
X29915000Y23109350D01*
X29915000Y23090652D01*
X29910775Y23058558D01*
X29905936Y23040499D01*
X29893547Y23010591D01*
X29884201Y22994404D01*
X29864524Y22968753D01*
X29863764Y22967993D01*
X29858552Y22962592D01*
X29852533Y22956128D01*
X29852528Y22956122D01*
X29815429Y22900603D01*
X29815428Y22900601D01*
X29806709Y22881509D01*
X29786403Y22837044D01*
X29777237Y22813215D01*
X29769959Y22724192D01*
X29769828Y22722595D01*
X29744745Y22657383D01*
X29688389Y22616083D01*
X29646240Y22608700D01*
X28337808Y22608700D01*
X28270769Y22628385D01*
X28250127Y22645019D01*
X27845019Y23050127D01*
X27811534Y23111450D01*
X27808700Y23137808D01*
X27808700Y25675992D01*
X27808699Y25676002D01*
X27803930Y25720364D01*
X27792724Y25771875D01*
X27790198Y25782212D01*
X27746519Y25864181D01*
X27700764Y25916985D01*
X27700755Y25916994D01*
X27700748Y25917002D01*
X27682901Y25935216D01*
X27682894Y25935222D01*
X27608785Y25976675D01*
X27601838Y25980561D01*
X27576843Y25987901D01*
X27534800Y26000246D01*
X27534792Y26000248D01*
X27476001Y26008700D01*
X27476000Y26008700D01*
X22924000Y26008700D01*
X22923992Y26008700D01*
X22879637Y26003931D01*
X22828118Y25992723D01*
X22820432Y25990845D01*
X22817788Y25990198D01*
X22776803Y25968359D01*
X22735818Y25946519D01*
X22683018Y25900767D01*
X22682998Y25900749D01*
X22664784Y25882902D01*
X22664778Y25882895D01*
X22619441Y25801842D01*
X22619438Y25801835D01*
X22599754Y25734801D01*
X22599752Y25734793D01*
X22591300Y25676002D01*
X22591300Y16401362D01*
X22592495Y16379067D01*
X22592499Y16379015D01*
X22595329Y16352698D01*
X22595331Y16352687D01*
X22619662Y16274987D01*
X22619662Y16274986D01*
X22653147Y16213662D01*
X22653149Y16213659D01*
X22688739Y16166116D01*
X22688755Y16166098D01*
X23166103Y15688750D01*
X23182708Y15673834D01*
X23182722Y15673822D01*
X23182730Y15673815D01*
X23189122Y15668664D01*
X23203371Y15657181D01*
X23223114Y15646854D01*
X23275524Y15619439D01*
X23342563Y15599754D01*
X23342567Y15599754D01*
X23342569Y15599753D01*
X23352070Y15598388D01*
X23401362Y15591300D01*
X23401365Y15591300D01*
X30548639Y15591300D01*
X30549950Y15591371D01*
X30570949Y15592496D01*
X30597307Y15595330D01*
X30675016Y15619663D01*
X30736339Y15653148D01*
X30783892Y15688746D01*
X31118189Y16023043D01*
X31148294Y16053148D01*
X32946300Y16053148D01*
X32946300Y15946852D01*
X32973811Y15844177D01*
X33026959Y15752122D01*
X33102122Y15676959D01*
X33194177Y15623811D01*
X33296852Y15596300D01*
X33296854Y15596300D01*
X33403146Y15596300D01*
X33403148Y15596300D01*
X33505823Y15623811D01*
X33597878Y15676959D01*
X33673041Y15752122D01*
X33717613Y15829324D01*
X33768180Y15877539D01*
X33836787Y15890762D01*
X33901652Y15864794D01*
X33932386Y15829324D01*
X33976959Y15752122D01*
X34052122Y15676959D01*
X34144177Y15623811D01*
X34246852Y15596300D01*
X34246854Y15596300D01*
X34353146Y15596300D01*
X34353148Y15596300D01*
X34455823Y15623811D01*
X34547878Y15676959D01*
X34623041Y15752122D01*
X34676189Y15844177D01*
X34703700Y15946852D01*
X34703700Y16053148D01*
X34676189Y16155823D01*
X34623041Y16247878D01*
X34547878Y16323041D01*
X34455823Y16376189D01*
X34353148Y16403700D01*
X34246852Y16403700D01*
X34144177Y16376189D01*
X34144175Y16376188D01*
X34144174Y16376188D01*
X34052125Y16323043D01*
X34052119Y16323039D01*
X33976961Y16247881D01*
X33976959Y16247878D01*
X33932387Y16170677D01*
X33881820Y16122462D01*
X33813212Y16109240D01*
X33748348Y16135208D01*
X33717613Y16170677D01*
X33714580Y16175931D01*
X33673041Y16247878D01*
X33597878Y16323041D01*
X33505823Y16376189D01*
X33403148Y16403700D01*
X33296852Y16403700D01*
X33194177Y16376189D01*
X33194175Y16376188D01*
X33194174Y16376188D01*
X33102125Y16323043D01*
X33102119Y16323039D01*
X33026961Y16247881D01*
X33026957Y16247875D01*
X32973812Y16155826D01*
X32973812Y16155825D01*
X32973811Y16155823D01*
X32946300Y16053148D01*
X31148294Y16053148D01*
X31244102Y16148956D01*
X31450126Y16354981D01*
X31511449Y16388466D01*
X31537807Y16391300D01*
X32348639Y16391300D01*
X32349950Y16391371D01*
X32370949Y16392496D01*
X32397307Y16395330D01*
X32475016Y16419663D01*
X32536339Y16453148D01*
X32583892Y16488746D01*
X32733229Y16638083D01*
X32911249Y16816102D01*
X32911250Y16816104D01*
X32926166Y16832709D01*
X32926185Y16832730D01*
X32942819Y16853372D01*
X32980561Y16925524D01*
X33000246Y16992563D01*
X33008700Y17051362D01*
X33008700Y20062193D01*
X33017344Y20091634D01*
X33023868Y20121620D01*
X33027622Y20126636D01*
X33028385Y20129232D01*
X33045019Y20149874D01*
X33050126Y20154981D01*
X33111449Y20188466D01*
X33137807Y20191300D01*
X36075991Y20191300D01*
X36076000Y20191300D01*
X36120364Y20196070D01*
X36171875Y20207276D01*
X36182212Y20209802D01*
X36264181Y20253481D01*
X36316985Y20299236D01*
X36335218Y20317101D01*
X36380561Y20398162D01*
X36400246Y20465201D01*
X36408700Y20524000D01*
X36408700Y21076000D01*
X36403930Y21120364D01*
X36392724Y21171875D01*
X36390198Y21182212D01*
X36346519Y21264181D01*
X36300764Y21316985D01*
X36300755Y21316994D01*
X36300748Y21317002D01*
X36282901Y21335216D01*
X36282894Y21335222D01*
X36218948Y21370990D01*
X36201838Y21380561D01*
X36201832Y21380563D01*
X36195414Y21383260D01*
X36195969Y21384583D01*
X36143775Y21418130D01*
X36114754Y21481688D01*
X36114256Y21513061D01*
X36115292Y21522364D01*
X36133318Y21589634D01*
X36133318Y21669601D01*
X36133317Y21669605D01*
X36133317Y28098222D01*
X36149929Y28160221D01*
X36152655Y28164944D01*
X36152658Y28164946D01*
X36185420Y28221693D01*
X36235984Y28269905D01*
X36304591Y28283129D01*
X36369456Y28257161D01*
X36400192Y28221690D01*
X36446937Y28140725D01*
X36446939Y28140722D01*
X36446940Y28140721D01*
X36540721Y28046940D01*
X36540722Y28046939D01*
X36540724Y28046938D01*
X36588429Y28019396D01*
X36655579Y27980627D01*
X36699394Y27968887D01*
X36759053Y27932524D01*
X36789583Y27869677D01*
X36791300Y27849113D01*
X36791300Y26026031D01*
X36791301Y26026002D01*
X36793602Y25995109D01*
X36799043Y25958782D01*
X36831209Y25874809D01*
X36845494Y25853146D01*
X36869671Y25816480D01*
X36869673Y25816478D01*
X36869682Y25816464D01*
X36884996Y25796073D01*
X36884997Y25796072D01*
X36884999Y25796070D01*
X36959438Y25740522D01*
X37011507Y25717477D01*
X37011507Y25717478D01*
X37036360Y25706478D01*
X37036366Y25706475D01*
X37040301Y25704734D01*
X37041284Y25704214D01*
X37041767Y25704085D01*
X37041877Y25704036D01*
X37042492Y25703891D01*
X37109502Y25685936D01*
X37139408Y25673548D01*
X37155597Y25664201D01*
X37181277Y25644496D01*
X37194496Y25631277D01*
X37214201Y25605598D01*
X37223547Y25589411D01*
X37235935Y25559506D01*
X37237913Y25552122D01*
X37240775Y25541444D01*
X37245000Y25509350D01*
X37245000Y25490652D01*
X37240775Y25458560D01*
X37235936Y25440499D01*
X37223547Y25410591D01*
X37214201Y25394404D01*
X37194496Y25368725D01*
X37181277Y25355506D01*
X37155597Y25335801D01*
X37139408Y25326454D01*
X37109502Y25314066D01*
X37041291Y25295789D01*
X37041269Y25295781D01*
X37038684Y25294767D01*
X37038683Y25294768D01*
X37033243Y25292635D01*
X37014890Y25287364D01*
X37002029Y25280392D01*
X36997864Y25278758D01*
X36989845Y25273930D01*
X36984997Y25271159D01*
X36935822Y25244498D01*
X36935819Y25244495D01*
X36883018Y25198743D01*
X36882998Y25198725D01*
X36864784Y25180878D01*
X36864778Y25180871D01*
X36819441Y25099818D01*
X36819438Y25099811D01*
X36799754Y25032777D01*
X36799752Y25032769D01*
X36791300Y24973978D01*
X36791300Y24689283D01*
X36791668Y24676896D01*
X36792546Y24662153D01*
X36792547Y24662148D01*
X36809026Y24592413D01*
X36836529Y24528185D01*
X36847996Y24505372D01*
X36847997Y24505371D01*
X36880738Y24470325D01*
X36912120Y24407899D01*
X36904770Y24338417D01*
X36897517Y24323677D01*
X36880628Y24294424D01*
X36880627Y24294423D01*
X36868135Y24247801D01*
X36846300Y24166313D01*
X36846300Y24166311D01*
X36846300Y24033690D01*
X36846299Y24033690D01*
X36880627Y23905579D01*
X36915859Y23844555D01*
X36922310Y23817960D01*
X36932080Y23792400D01*
X36930427Y23784500D01*
X36932331Y23776655D01*
X36923379Y23750792D01*
X36917779Y23724010D01*
X36911306Y23715910D01*
X36909478Y23710628D01*
X36896857Y23695585D01*
X36893395Y23692068D01*
X36883011Y23683068D01*
X36864820Y23665249D01*
X36862397Y23660922D01*
X36857598Y23655871D01*
X36857401Y23655489D01*
X36857400Y23655487D01*
X36842747Y23626959D01*
X36835610Y23613064D01*
X36819455Y23584200D01*
X36818811Y23582009D01*
X36819548Y23581793D01*
X36815162Y23573252D01*
X36815161Y23573250D01*
X36808574Y23547463D01*
X36807443Y23543336D01*
X36804371Y23532836D01*
X36804355Y23532813D01*
X36804341Y23532733D01*
X36799754Y23517107D01*
X36799752Y23517097D01*
X36791300Y23458309D01*
X36791300Y19254779D01*
X36792022Y19237435D01*
X36793740Y19216868D01*
X36793741Y19216860D01*
X36805283Y19174788D01*
X36804035Y19104929D01*
X36773383Y19054302D01*
X36701958Y18982877D01*
X36701957Y18982875D01*
X36648812Y18890826D01*
X36648812Y18890825D01*
X36648811Y18890823D01*
X36621872Y18790283D01*
X36619197Y18780298D01*
X36617540Y18780742D01*
X36593239Y18725807D01*
X36534914Y18687336D01*
X36498566Y18681889D01*
X36428664Y18681889D01*
X36325989Y18654378D01*
X36325987Y18654377D01*
X36325986Y18654377D01*
X36233937Y18601232D01*
X36233931Y18601228D01*
X36158773Y18526070D01*
X36158769Y18526064D01*
X36105624Y18434015D01*
X36105624Y18434014D01*
X36105623Y18434012D01*
X36078112Y18331337D01*
X36078112Y18225041D01*
X36105623Y18122366D01*
X36158771Y18030311D01*
X36158773Y18030309D01*
X36212229Y17976853D01*
X36245714Y17915530D01*
X36240730Y17845838D01*
X36198858Y17789905D01*
X36186549Y17781785D01*
X36102122Y17733041D01*
X36102119Y17733039D01*
X36026961Y17657881D01*
X36026957Y17657875D01*
X35973812Y17565826D01*
X35973812Y17565825D01*
X35973811Y17565823D01*
X35946300Y17463148D01*
X35946300Y17356852D01*
X35973811Y17254177D01*
X36026959Y17162122D01*
X36102122Y17086959D01*
X36194177Y17033811D01*
X36296852Y17006300D01*
X36296854Y17006300D01*
X36403146Y17006300D01*
X36403148Y17006300D01*
X36505823Y17033811D01*
X36597878Y17086959D01*
X36597878Y17086960D01*
X36604917Y17091023D01*
X36606642Y17088035D01*
X36656960Y17107498D01*
X36725407Y17093473D01*
X36775406Y17044668D01*
X36791300Y16983930D01*
X36791300Y16874922D01*
X36791433Y16867481D01*
X36791749Y16858632D01*
X36791749Y16858628D01*
X36804774Y16793149D01*
X36829187Y16727694D01*
X36829192Y16727683D01*
X36839558Y16704357D01*
X36839559Y16704356D01*
X36839562Y16704351D01*
X36841615Y16701932D01*
X36842903Y16699034D01*
X36844278Y16696845D01*
X36843963Y16696648D01*
X36869988Y16638083D01*
X36859337Y16569030D01*
X36813044Y16516697D01*
X36780796Y16502366D01*
X36733709Y16489061D01*
X36733703Y16489058D01*
X36672385Y16455576D01*
X36624828Y16419976D01*
X36624819Y16419968D01*
X33699873Y13495019D01*
X33638550Y13461534D01*
X33612192Y13458700D01*
X24123992Y13458700D01*
X24079637Y13453931D01*
X24028118Y13442723D01*
X24020432Y13440845D01*
X24017788Y13440198D01*
X23990247Y13425522D01*
X23935818Y13396519D01*
X23883018Y13350767D01*
X23882998Y13350749D01*
X23864784Y13332902D01*
X23864778Y13332895D01*
X23836689Y13282678D01*
X23786782Y13233780D01*
X23718361Y13219627D01*
X23666471Y13235827D01*
X23648715Y13246078D01*
X23526966Y13278700D01*
X23400922Y13278700D01*
X23279173Y13246078D01*
X23279170Y13246077D01*
X23170018Y13183059D01*
X23170013Y13183055D01*
X23080889Y13093931D01*
X23080885Y13093926D01*
X23017867Y12984774D01*
X23017866Y12984771D01*
X22985244Y12863022D01*
X22985244Y12736978D01*
X23006989Y12655826D01*
X23017866Y12615230D01*
X23017867Y12615227D01*
X23080885Y12506075D01*
X23080887Y12506072D01*
X23080888Y12506071D01*
X23170015Y12416944D01*
X23170016Y12416943D01*
X23170018Y12416942D01*
X23224410Y12385539D01*
X23279173Y12353922D01*
X23400922Y12321300D01*
X23400924Y12321300D01*
X23526964Y12321300D01*
X23526966Y12321300D01*
X23635208Y12350303D01*
X23705057Y12348640D01*
X23762919Y12309477D01*
X23790423Y12245249D01*
X23791300Y12230528D01*
X23791300Y8329230D01*
X23785061Y8307985D01*
X23783482Y8285896D01*
X23775409Y8275113D01*
X23771615Y8262191D01*
X23754881Y8247692D01*
X23741610Y8229963D01*
X23728989Y8225256D01*
X23718811Y8216436D01*
X23696893Y8213285D01*
X23676146Y8205546D01*
X23662985Y8208409D01*
X23649653Y8206492D01*
X23629509Y8215692D01*
X23607873Y8220398D01*
X23590147Y8233667D01*
X23586097Y8235517D01*
X23579619Y8241549D01*
X23565019Y8256149D01*
X23531534Y8317472D01*
X23528700Y8343830D01*
X23528700Y10643273D01*
X23528700Y10643274D01*
X23508897Y10717177D01*
X23506299Y10726874D01*
X23493270Y10749441D01*
X23463027Y10801824D01*
X23463023Y10801829D01*
X21717861Y12546991D01*
X21684376Y12608314D01*
X21685767Y12666765D01*
X21703700Y12733687D01*
X21703700Y12866313D01*
X21669373Y12994421D01*
X21612443Y13093027D01*
X21603062Y13109276D01*
X21603058Y13109281D01*
X21509280Y13203059D01*
X21509275Y13203063D01*
X21394423Y13269372D01*
X21394422Y13269373D01*
X21359613Y13278700D01*
X21266313Y13303700D01*
X21133687Y13303700D01*
X21056822Y13283104D01*
X21005577Y13269373D01*
X21005576Y13269372D01*
X20890724Y13203063D01*
X20890719Y13203059D01*
X20839408Y13151747D01*
X20778085Y13118262D01*
X20751727Y13115428D01*
X14953454Y13115428D01*
X14900582Y13101261D01*
X14874146Y13094177D01*
X14869854Y13093028D01*
X14867300Y13091969D01*
X14864155Y13090717D01*
X14845812Y13083700D01*
X14836852Y13083700D01*
X14734177Y13056189D01*
X14656189Y13011163D01*
X14647004Y13007649D01*
X14621584Y13005618D01*
X14596799Y12999604D01*
X14587335Y13002880D01*
X14577356Y13002082D01*
X14554875Y13014115D01*
X14530772Y13022457D01*
X14524581Y13030329D01*
X14515755Y13035053D01*
X14503347Y13057331D01*
X14487582Y13077378D01*
X14485147Y13090008D01*
X14481758Y13096094D01*
X14482304Y13104759D01*
X14478700Y13123464D01*
X14478700Y13364999D01*
X14498385Y13432038D01*
X14515019Y13452680D01*
X14523873Y13461534D01*
X14553060Y13490721D01*
X14619373Y13605579D01*
X14653700Y13733687D01*
X14653700Y13866313D01*
X14619373Y13994421D01*
X14585467Y14053148D01*
X17346300Y14053148D01*
X17346300Y13946852D01*
X17373811Y13844177D01*
X17426959Y13752122D01*
X17502122Y13676959D01*
X17594177Y13623811D01*
X17696852Y13596300D01*
X17696854Y13596300D01*
X17803146Y13596300D01*
X17803148Y13596300D01*
X17905823Y13623811D01*
X17987008Y13670684D01*
X18054903Y13687155D01*
X18120930Y13664303D01*
X18136685Y13650976D01*
X18190721Y13596940D01*
X18190722Y13596939D01*
X18190724Y13596938D01*
X18201494Y13590720D01*
X18305579Y13530627D01*
X18433687Y13496300D01*
X18433690Y13496300D01*
X18566310Y13496300D01*
X18566313Y13496300D01*
X18694421Y13530627D01*
X18809279Y13596940D01*
X18863317Y13650979D01*
X18924636Y13684461D01*
X18994328Y13679477D01*
X19012985Y13670687D01*
X19094177Y13623811D01*
X19196852Y13596300D01*
X19196854Y13596300D01*
X19303146Y13596300D01*
X19303148Y13596300D01*
X19405823Y13623811D01*
X19497878Y13676959D01*
X19573041Y13752122D01*
X19626189Y13844177D01*
X19653700Y13946852D01*
X19653700Y14053148D01*
X19626189Y14155823D01*
X19573041Y14247878D01*
X19497878Y14323041D01*
X19405823Y14376189D01*
X19303148Y14403700D01*
X19196852Y14403700D01*
X19094177Y14376189D01*
X19094175Y14376188D01*
X19094174Y14376188D01*
X19012995Y14329319D01*
X18945094Y14312846D01*
X18879068Y14335699D01*
X18863314Y14349025D01*
X18809280Y14403059D01*
X18809275Y14403063D01*
X18694423Y14469372D01*
X18694422Y14469373D01*
X18662394Y14477955D01*
X18566313Y14503700D01*
X18433687Y14503700D01*
X18356822Y14483104D01*
X18305577Y14469373D01*
X18305576Y14469372D01*
X18190724Y14403063D01*
X18136685Y14349024D01*
X18075361Y14315540D01*
X18005669Y14320525D01*
X17987004Y14329319D01*
X17905825Y14376188D01*
X17905824Y14376189D01*
X17905823Y14376189D01*
X17803148Y14403700D01*
X17696852Y14403700D01*
X17594177Y14376189D01*
X17594175Y14376188D01*
X17594174Y14376188D01*
X17502125Y14323043D01*
X17502119Y14323039D01*
X17426961Y14247881D01*
X17426957Y14247875D01*
X17373812Y14155826D01*
X17373812Y14155825D01*
X17373811Y14155823D01*
X17346300Y14053148D01*
X14585467Y14053148D01*
X14561637Y14094423D01*
X14553062Y14109276D01*
X14553058Y14109281D01*
X14459280Y14203059D01*
X14459275Y14203063D01*
X14344423Y14269372D01*
X14344422Y14269373D01*
X14312394Y14277955D01*
X14216313Y14303700D01*
X14083687Y14303700D01*
X14006875Y14283118D01*
X13955577Y14269373D01*
X13955576Y14269372D01*
X13840724Y14203063D01*
X13840719Y14203059D01*
X13746941Y14109281D01*
X13746937Y14109276D01*
X13680628Y13994424D01*
X13680627Y13994423D01*
X13667881Y13946854D01*
X13646300Y13866313D01*
X13646300Y13866311D01*
X13646300Y13733690D01*
X13646299Y13733690D01*
X13680627Y13605578D01*
X13680628Y13605577D01*
X13746937Y13490725D01*
X13746941Y13490720D01*
X13784981Y13452680D01*
X13818466Y13391357D01*
X13821300Y13364999D01*
X13821300Y12256726D01*
X13834667Y12206841D01*
X13834940Y12205824D01*
X13834940Y12205819D01*
X13843700Y12173130D01*
X13843701Y12173127D01*
X13886974Y12098174D01*
X14394767Y11590381D01*
X14428252Y11529058D01*
X14423268Y11459366D01*
X14381396Y11403433D01*
X14315932Y11379016D01*
X14307086Y11378700D01*
X9787514Y11378700D01*
X9720475Y11398385D01*
X9699833Y11415019D01*
X9024264Y12090588D01*
X8999536Y12125922D01*
X8994971Y12135725D01*
X8976189Y12205823D01*
X8960100Y12233690D01*
X9446299Y12233690D01*
X9480627Y12105578D01*
X9480628Y12105577D01*
X9546937Y11990725D01*
X9546939Y11990722D01*
X9546940Y11990721D01*
X9640721Y11896940D01*
X9640722Y11896939D01*
X9640724Y11896938D01*
X9680927Y11873727D01*
X9755579Y11830627D01*
X9883687Y11796300D01*
X9883690Y11796300D01*
X10016310Y11796300D01*
X10016313Y11796300D01*
X10144421Y11830627D01*
X10259279Y11896940D01*
X10353060Y11990721D01*
X10419373Y12105579D01*
X10453700Y12233687D01*
X10453700Y12366313D01*
X10419373Y12494421D01*
X10353060Y12609279D01*
X10259279Y12703060D01*
X10259278Y12703061D01*
X10259275Y12703063D01*
X10144423Y12769372D01*
X10144422Y12769373D01*
X10112394Y12777955D01*
X10016313Y12803700D01*
X9883687Y12803700D01*
X9806822Y12783104D01*
X9755577Y12769373D01*
X9755576Y12769372D01*
X9640724Y12703063D01*
X9640719Y12703059D01*
X9546941Y12609281D01*
X9546937Y12609276D01*
X9480628Y12494424D01*
X9480627Y12494423D01*
X9467881Y12446853D01*
X9446300Y12366313D01*
X9446300Y12366311D01*
X9446300Y12233690D01*
X9446299Y12233690D01*
X8960100Y12233690D01*
X8923041Y12297878D01*
X8847878Y12373041D01*
X8763583Y12421709D01*
X8755825Y12426188D01*
X8755824Y12426189D01*
X8755823Y12426189D01*
X8653148Y12453700D01*
X8546852Y12453700D01*
X8444177Y12426189D01*
X8444175Y12426188D01*
X8444174Y12426188D01*
X8352125Y12373043D01*
X8352119Y12373039D01*
X8276961Y12297881D01*
X8276957Y12297875D01*
X8223812Y12205826D01*
X8223811Y12205824D01*
X8223811Y12205823D01*
X8222100Y12199438D01*
X8194840Y12097700D01*
X8158475Y12038040D01*
X8095628Y12007511D01*
X8026252Y12015806D01*
X7987384Y12042113D01*
X6969879Y13059619D01*
X6936394Y13120942D01*
X6941378Y13190634D01*
X6983250Y13246567D01*
X7048714Y13270984D01*
X7057560Y13271300D01*
X11943272Y13271300D01*
X11943274Y13271300D01*
X12026873Y13293701D01*
X12044192Y13303700D01*
X12101827Y13336975D01*
X13548542Y14783690D01*
X21946299Y14783690D01*
X21980627Y14655578D01*
X21980628Y14655577D01*
X22046937Y14540725D01*
X22046939Y14540722D01*
X22046940Y14540721D01*
X22140721Y14446940D01*
X22255579Y14380627D01*
X22383687Y14346300D01*
X22383690Y14346300D01*
X22516310Y14346300D01*
X22516313Y14346300D01*
X22644421Y14380627D01*
X22759279Y14446940D01*
X22853060Y14540721D01*
X22919373Y14655579D01*
X22953700Y14783687D01*
X22953700Y14916313D01*
X22919373Y15044421D01*
X22853060Y15159279D01*
X22759279Y15253060D01*
X22759278Y15253061D01*
X22759275Y15253063D01*
X22644423Y15319372D01*
X22644422Y15319373D01*
X22612394Y15327955D01*
X22516313Y15353700D01*
X22383687Y15353700D01*
X22306822Y15333104D01*
X22255577Y15319373D01*
X22255576Y15319372D01*
X22140724Y15253063D01*
X22140719Y15253059D01*
X22046941Y15159281D01*
X22046937Y15159276D01*
X21980628Y15044424D01*
X21980627Y15044423D01*
X21980561Y15044176D01*
X21946300Y14916313D01*
X21946300Y14916311D01*
X21946300Y14783690D01*
X21946299Y14783690D01*
X13548542Y14783690D01*
X13629833Y14864981D01*
X13656760Y14879685D01*
X13682579Y14896277D01*
X13688779Y14897169D01*
X13691156Y14898466D01*
X13717514Y14901300D01*
X13928698Y14901300D01*
X13990698Y14884687D01*
X14004085Y14876958D01*
X14044177Y14853811D01*
X14146852Y14826300D01*
X14146854Y14826300D01*
X14253146Y14826300D01*
X14253148Y14826300D01*
X14355823Y14853811D01*
X14447878Y14906959D01*
X14523041Y14982122D01*
X14523186Y14982374D01*
X14525537Y14986444D01*
X14559009Y15044421D01*
X14576189Y15074177D01*
X14603700Y15176852D01*
X14603700Y15283148D01*
X14576189Y15385823D01*
X14523041Y15477878D01*
X14447878Y15553041D01*
X14386508Y15588473D01*
X14355825Y15606188D01*
X14355824Y15606189D01*
X14355823Y15606189D01*
X14253148Y15633700D01*
X14146852Y15633700D01*
X14044176Y15606189D01*
X14044174Y15606188D01*
X13990698Y15575313D01*
X13928698Y15558700D01*
X13486726Y15558700D01*
X13403127Y15536299D01*
X13403126Y15536299D01*
X13328173Y15493026D01*
X13328171Y15493024D01*
X11800167Y13965019D01*
X11738844Y13931534D01*
X11712486Y13928700D01*
X6771302Y13928700D01*
X6709302Y13945313D01*
X6655825Y13976188D01*
X6655823Y13976189D01*
X6553148Y14003700D01*
X6446852Y14003700D01*
X6344177Y13976189D01*
X6344175Y13976188D01*
X6344174Y13976188D01*
X6252125Y13923043D01*
X6252119Y13923039D01*
X6176961Y13847881D01*
X6176957Y13847875D01*
X6123812Y13755826D01*
X6123812Y13755825D01*
X6123811Y13755823D01*
X6096300Y13653148D01*
X6096300Y13546852D01*
X6119627Y13459793D01*
X6117964Y13389943D01*
X6078801Y13332081D01*
X6014572Y13304577D01*
X5999852Y13303700D01*
X5727158Y13303700D01*
X5660119Y13323385D01*
X5639477Y13340019D01*
X5190019Y13789478D01*
X5156534Y13850801D01*
X5153700Y13877159D01*
X5153700Y13966311D01*
X5153700Y13966313D01*
X5119373Y14094421D01*
X5053060Y14209279D01*
X5048997Y14216317D01*
X5050607Y14217247D01*
X5029130Y14272800D01*
X5028700Y14283118D01*
X5028700Y15465025D01*
X5037343Y15494462D01*
X5043867Y15524451D01*
X5047622Y15529469D01*
X5048385Y15532064D01*
X5065014Y15552703D01*
X5065459Y15553148D01*
X6596300Y15553148D01*
X6596300Y15446852D01*
X6623811Y15344177D01*
X6676959Y15252122D01*
X6752122Y15176959D01*
X6844177Y15123811D01*
X6946852Y15096300D01*
X6946854Y15096300D01*
X7053145Y15096300D01*
X7053148Y15096300D01*
X7140210Y15119628D01*
X7210056Y15117965D01*
X7267919Y15078803D01*
X7295423Y15014574D01*
X7296300Y14999853D01*
X7296300Y14896852D01*
X7323811Y14794177D01*
X7376959Y14702122D01*
X7452122Y14626959D01*
X7544177Y14573811D01*
X7646852Y14546300D01*
X7646854Y14546300D01*
X7753146Y14546300D01*
X7753148Y14546300D01*
X7855823Y14573811D01*
X7947878Y14626959D01*
X8023041Y14702122D01*
X8076189Y14794177D01*
X8103700Y14896852D01*
X8103700Y15003148D01*
X8076189Y15105823D01*
X8023041Y15197878D01*
X7983600Y15237319D01*
X7950115Y15298642D01*
X7955099Y15368334D01*
X7983600Y15412681D01*
X8000838Y15429919D01*
X8023041Y15452122D01*
X8076189Y15544177D01*
X8103700Y15646852D01*
X8103700Y15753148D01*
X8076189Y15855823D01*
X8023041Y15947878D01*
X7947878Y16023041D01*
X7855823Y16076189D01*
X7753148Y16103700D01*
X7646852Y16103700D01*
X7544177Y16076189D01*
X7544175Y16076188D01*
X7544174Y16076188D01*
X7452125Y16023043D01*
X7452119Y16023039D01*
X7376961Y15947881D01*
X7376957Y15947875D01*
X7352631Y15905742D01*
X7302063Y15857528D01*
X7233456Y15844306D01*
X7183245Y15860357D01*
X7155825Y15876188D01*
X7155824Y15876189D01*
X7155823Y15876189D01*
X7053148Y15903700D01*
X6946852Y15903700D01*
X6844177Y15876189D01*
X6844175Y15876188D01*
X6844174Y15876188D01*
X6752125Y15823043D01*
X6752119Y15823039D01*
X6676961Y15747881D01*
X6676957Y15747875D01*
X6623812Y15655826D01*
X6623812Y15655825D01*
X6623811Y15655823D01*
X6596300Y15553148D01*
X5065459Y15553148D01*
X5152684Y15640373D01*
X5178360Y15660074D01*
X5247878Y15700209D01*
X5323041Y15775372D01*
X5376189Y15867427D01*
X5403700Y15970102D01*
X5403700Y16076398D01*
X5376189Y16179073D01*
X5323041Y16271128D01*
X5247878Y16346291D01*
X5155823Y16399439D01*
X5053148Y16426950D01*
X4946852Y16426950D01*
X4844177Y16399439D01*
X4844175Y16399438D01*
X4844174Y16399438D01*
X4752125Y16346293D01*
X4752119Y16346289D01*
X4676961Y16271131D01*
X4676957Y16271125D01*
X4636821Y16201610D01*
X4617116Y16175931D01*
X4417473Y15976286D01*
X4346965Y15905779D01*
X4346963Y15905776D01*
X4297108Y15819424D01*
X4297108Y15819423D01*
X4271300Y15723107D01*
X4271300Y15723105D01*
X4271300Y14283118D01*
X4251615Y14216079D01*
X4247425Y14210121D01*
X4180628Y14094424D01*
X4180627Y14094423D01*
X4169568Y14053148D01*
X4146300Y13966313D01*
X4146300Y13966311D01*
X4146300Y13833690D01*
X4146299Y13833690D01*
X4180627Y13705578D01*
X4180628Y13705577D01*
X4246937Y13590725D01*
X4246939Y13590722D01*
X4246940Y13590721D01*
X4340721Y13496940D01*
X4340722Y13496939D01*
X4340724Y13496938D01*
X4351494Y13490720D01*
X4455579Y13430627D01*
X4583687Y13396300D01*
X4583690Y13396300D01*
X4672841Y13396300D01*
X4739880Y13376615D01*
X4760522Y13359981D01*
X5302638Y12817866D01*
X5302648Y12817855D01*
X5306979Y12813524D01*
X5363524Y12756979D01*
X5403861Y12733690D01*
X5432778Y12716995D01*
X5484791Y12703059D01*
X5510017Y12696300D01*
X5589983Y12696300D01*
X6422841Y12696300D01*
X6489880Y12676615D01*
X6510522Y12659981D01*
X8352638Y10817866D01*
X8352659Y10817843D01*
X8906421Y10264082D01*
X9456979Y9713524D01*
X9513524Y9656979D01*
X9580672Y9618211D01*
X9582778Y9616995D01*
X9660013Y9596301D01*
X9660017Y9596300D01*
X11560017Y9596300D01*
X16512646Y9596300D01*
X16579685Y9576615D01*
X16625440Y9523811D01*
X16635384Y9454653D01*
X16606359Y9391097D01*
X16574646Y9364913D01*
X16502125Y9323043D01*
X16502119Y9323039D01*
X14612181Y7433100D01*
X14550858Y7399615D01*
X14481166Y7404599D01*
X14425233Y7446471D01*
X14400816Y7511935D01*
X14400500Y7520781D01*
X14400500Y8014560D01*
X14400499Y8014564D01*
X14390943Y8050230D01*
X14380022Y8090988D01*
X14340460Y8159511D01*
X14075240Y8424731D01*
X13784514Y8715458D01*
X13784511Y8715460D01*
X13781851Y8716996D01*
X13781850Y8716997D01*
X13715991Y8755020D01*
X13715990Y8755021D01*
X13690513Y8761848D01*
X13639562Y8775500D01*
X13639560Y8775500D01*
X2578751Y8775500D01*
X2571264Y8775726D01*
X2317364Y8791085D01*
X2302500Y8792890D01*
X2056001Y8838062D01*
X2041461Y8841646D01*
X1802211Y8916200D01*
X1788211Y8921509D01*
X1559680Y9024362D01*
X1546421Y9031321D01*
X1331960Y9160967D01*
X1319637Y9169473D01*
X1122363Y9324028D01*
X1111155Y9333958D01*
X933957Y9511156D01*
X924027Y9522364D01*
X921434Y9525674D01*
X769468Y9719644D01*
X760970Y9731955D01*
X673310Y9876962D01*
X631320Y9946422D01*
X624361Y9959681D01*
X582164Y10053440D01*
X561089Y10100266D01*
X7086300Y10100266D01*
X7086300Y9739735D01*
X7086301Y9739718D01*
X7092889Y9689677D01*
X7092891Y9689669D01*
X7128247Y9613848D01*
X7144114Y9579821D01*
X7229821Y9494114D01*
X7339672Y9442890D01*
X7389728Y9436300D01*
X7389735Y9436300D01*
X7810265Y9436300D01*
X7810272Y9436300D01*
X7860328Y9442890D01*
X7970179Y9494114D01*
X8055886Y9579821D01*
X8107110Y9689672D01*
X8113700Y9739728D01*
X8113700Y10100272D01*
X8107110Y10150328D01*
X8055886Y10260179D01*
X7970179Y10345886D01*
X7943868Y10358155D01*
X7860331Y10397109D01*
X7860329Y10397110D01*
X7860328Y10397110D01*
X7860325Y10397111D01*
X7860323Y10397111D01*
X7810282Y10403699D01*
X7810277Y10403700D01*
X7810272Y10403700D01*
X7389728Y10403700D01*
X7389722Y10403700D01*
X7389717Y10403699D01*
X7339676Y10397111D01*
X7339668Y10397109D01*
X7229820Y10345886D01*
X7144114Y10260180D01*
X7092891Y10150332D01*
X7092889Y10150324D01*
X7086301Y10100283D01*
X7086300Y10100266D01*
X561089Y10100266D01*
X523852Y10183004D01*
X521507Y10188215D01*
X516199Y10202212D01*
X515735Y10203700D01*
X441644Y10441464D01*
X438061Y10456002D01*
X429053Y10505160D01*
X392888Y10702505D01*
X391084Y10717365D01*
X386873Y10786974D01*
X375726Y10971264D01*
X375500Y10978751D01*
X375500Y16578019D01*
X8211170Y16578019D01*
X8211170Y16471723D01*
X8238681Y16369048D01*
X8238682Y16369047D01*
X8238682Y16369046D01*
X8248127Y16352687D01*
X8291829Y16276993D01*
X8366992Y16201830D01*
X8459047Y16148682D01*
X8561722Y16121171D01*
X8561724Y16121171D01*
X8668016Y16121171D01*
X8668018Y16121171D01*
X8770693Y16148682D01*
X8862748Y16201830D01*
X8937911Y16276993D01*
X8991059Y16369048D01*
X9018570Y16471723D01*
X9018570Y16578019D01*
X8991059Y16680694D01*
X8937911Y16772749D01*
X8862748Y16847912D01*
X8770693Y16901060D01*
X8668018Y16928571D01*
X8561722Y16928571D01*
X8459047Y16901060D01*
X8459045Y16901059D01*
X8459044Y16901059D01*
X8366995Y16847914D01*
X8366989Y16847910D01*
X8291831Y16772752D01*
X8291827Y16772746D01*
X8238682Y16680697D01*
X8238682Y16680696D01*
X8238681Y16680694D01*
X8211170Y16578019D01*
X375500Y16578019D01*
X375500Y17159954D01*
X395185Y17226993D01*
X447989Y17272748D01*
X517147Y17282692D01*
X580703Y17253667D01*
X587181Y17247635D01*
X676414Y17158402D01*
X791676Y17081387D01*
X906532Y17033813D01*
X919738Y17028343D01*
X1055687Y17001301D01*
X1055690Y17001300D01*
X1055692Y17001300D01*
X1794310Y17001300D01*
X1794311Y17001301D01*
X1930262Y17028343D01*
X1994294Y17054866D01*
X2058323Y17081387D01*
X2058324Y17081388D01*
X2058327Y17081389D01*
X2173583Y17158400D01*
X2271600Y17256417D01*
X2281472Y17271191D01*
X2335084Y17315996D01*
X2384574Y17326300D01*
X4395426Y17326300D01*
X4462465Y17306615D01*
X4498528Y17271191D01*
X4508399Y17256418D01*
X4508402Y17256414D01*
X4606414Y17158402D01*
X4721676Y17081387D01*
X4836532Y17033813D01*
X4849738Y17028343D01*
X4985687Y17001301D01*
X4985690Y17001300D01*
X4985692Y17001300D01*
X6224310Y17001300D01*
X6224311Y17001301D01*
X6360262Y17028343D01*
X6424294Y17054866D01*
X6488323Y17081387D01*
X6488324Y17081388D01*
X6488327Y17081389D01*
X6603583Y17158400D01*
X6701600Y17256417D01*
X6778611Y17371673D01*
X6800166Y17423711D01*
X9144531Y17423711D01*
X9144531Y17317415D01*
X9172042Y17214740D01*
X9225190Y17122685D01*
X9300353Y17047522D01*
X9392408Y16994374D01*
X9495083Y16966863D01*
X9495085Y16966863D01*
X9601377Y16966863D01*
X9601379Y16966863D01*
X9704054Y16994374D01*
X9796109Y17047522D01*
X9871272Y17122685D01*
X9924420Y17214740D01*
X9951931Y17317415D01*
X9951931Y17423711D01*
X9924420Y17526386D01*
X9871272Y17618441D01*
X9796109Y17693604D01*
X9710925Y17742785D01*
X9704056Y17746751D01*
X9704055Y17746752D01*
X9704054Y17746752D01*
X9601379Y17774263D01*
X9495083Y17774263D01*
X9392408Y17746752D01*
X9392406Y17746751D01*
X9392405Y17746751D01*
X9300356Y17693606D01*
X9300350Y17693602D01*
X9225192Y17618444D01*
X9225188Y17618438D01*
X9172043Y17526389D01*
X9172043Y17526388D01*
X9172042Y17526386D01*
X9144531Y17423711D01*
X6800166Y17423711D01*
X6816501Y17463148D01*
X6823188Y17479291D01*
X6823188Y17479292D01*
X6831657Y17499738D01*
X6858700Y17635692D01*
X6858700Y17774308D01*
X6858700Y17774311D01*
X6858699Y17774313D01*
X6843018Y17853146D01*
X6831657Y17910262D01*
X6812785Y17955823D01*
X6778613Y18038324D01*
X6701598Y18153586D01*
X6603585Y18251599D01*
X6488323Y18328614D01*
X6360266Y18381656D01*
X6360254Y18381659D01*
X6224311Y18408700D01*
X6224308Y18408700D01*
X4985692Y18408700D01*
X4985689Y18408700D01*
X4849745Y18381659D01*
X4849733Y18381656D01*
X4721676Y18328614D01*
X4606414Y18251599D01*
X4508402Y18153587D01*
X4508399Y18153583D01*
X4498528Y18138809D01*
X4444916Y18094004D01*
X4395426Y18083700D01*
X2384574Y18083700D01*
X2317535Y18103385D01*
X2281472Y18138809D01*
X2271600Y18153583D01*
X2271597Y18153587D01*
X2173585Y18251599D01*
X2058323Y18328614D01*
X1930266Y18381656D01*
X1930254Y18381659D01*
X1794311Y18408700D01*
X1794308Y18408700D01*
X1055692Y18408700D01*
X1053700Y18408700D01*
X986661Y18428385D01*
X940906Y18481189D01*
X929700Y18532700D01*
X929700Y18869235D01*
X949385Y18936274D01*
X1002189Y18982029D01*
X1053698Y18993235D01*
X1053698Y18993236D01*
X1053705Y18993234D01*
X4535529Y18993278D01*
X4552887Y18994001D01*
X4555071Y18994184D01*
X4555439Y18994108D01*
X4555467Y18994109D01*
X4555467Y18994103D01*
X4623515Y18980154D01*
X4672787Y18932615D01*
X4724505Y18843036D01*
X4813036Y18754505D01*
X4921464Y18691905D01*
X5042399Y18659500D01*
X5042401Y18659500D01*
X5167599Y18659500D01*
X5167601Y18659500D01*
X5288536Y18691905D01*
X5396964Y18754505D01*
X5485495Y18843036D01*
X5538119Y18934186D01*
X5588683Y18982399D01*
X5657290Y18995623D01*
X5663098Y18994929D01*
X5674476Y18993293D01*
X6075853Y18993298D01*
X6075879Y18993298D01*
X6103099Y18995083D01*
X6103102Y18995083D01*
X6103105Y18995084D01*
X6103114Y18995084D01*
X6135204Y18999309D01*
X6161977Y19004634D01*
X6201753Y19015292D01*
X6203556Y19015775D01*
X6235649Y19020000D01*
X6254354Y19020000D01*
X6286446Y19015775D01*
X6328008Y19004639D01*
X6354782Y18999313D01*
X6386875Y18995088D01*
X6414117Y18993303D01*
X6906683Y18993308D01*
X6906691Y18993309D01*
X6906695Y18993308D01*
X6923019Y18993309D01*
X6963642Y18998658D01*
X6966118Y18998883D01*
X6966978Y18998714D01*
X6977364Y18999394D01*
X7020388Y18999394D01*
X7036573Y18998333D01*
X7039607Y18997934D01*
X7074721Y18993311D01*
X10186573Y18993350D01*
X10244172Y19001457D01*
X10309958Y19020348D01*
X10309966Y19020352D01*
X10309970Y19020352D01*
X10332860Y19028393D01*
X10332859Y19028393D01*
X10332866Y19028395D01*
X10362769Y19049763D01*
X10428758Y19072724D01*
X10496684Y19056364D01*
X10557082Y19021493D01*
X10659757Y18993982D01*
X10659759Y18993982D01*
X10766051Y18993982D01*
X10766053Y18993982D01*
X10868728Y19021493D01*
X10960783Y19074641D01*
X11035946Y19149804D01*
X11089094Y19241859D01*
X11091309Y19250129D01*
X11127672Y19309788D01*
X11190519Y19340319D01*
X11259894Y19332025D01*
X11273081Y19325425D01*
X11319177Y19298811D01*
X11421852Y19271300D01*
X11421854Y19271300D01*
X11456311Y19271300D01*
X11523350Y19251615D01*
X11565742Y19205617D01*
X11601836Y19137886D01*
X11601838Y19137883D01*
X11647596Y19085078D01*
X11665456Y19066850D01*
X11746514Y19021511D01*
X11746518Y19021509D01*
X11813558Y19001825D01*
X11872357Y18993372D01*
X12622198Y18993382D01*
X12689236Y18973698D01*
X12734992Y18920895D01*
X12744936Y18851737D01*
X12743546Y18845315D01*
X12736301Y18790283D01*
X12736300Y18790266D01*
X12736300Y18429735D01*
X12736301Y18429718D01*
X12742889Y18379677D01*
X12742891Y18379669D01*
X12769165Y18323325D01*
X12794114Y18269821D01*
X12879821Y18184114D01*
X12989672Y18132890D01*
X13039728Y18126300D01*
X13039735Y18126300D01*
X13460265Y18126300D01*
X13460272Y18126300D01*
X13510328Y18132890D01*
X13620179Y18184114D01*
X13672319Y18236254D01*
X13733642Y18269739D01*
X13803334Y18264755D01*
X13847681Y18236254D01*
X13879821Y18204114D01*
X13989672Y18152890D01*
X14039728Y18146300D01*
X14039735Y18146300D01*
X14460265Y18146300D01*
X14460272Y18146300D01*
X14510328Y18152890D01*
X14620179Y18204114D01*
X14705886Y18289821D01*
X14757110Y18399672D01*
X14763700Y18449728D01*
X14763700Y18810272D01*
X14758045Y18853225D01*
X14760680Y18870125D01*
X14758246Y18887056D01*
X14765951Y18903931D01*
X14768810Y18922259D01*
X14780164Y18935052D01*
X14787270Y18950612D01*
X14802877Y18960643D01*
X14815190Y18974515D01*
X14831954Y18979330D01*
X14846048Y18988387D01*
X14880980Y18993410D01*
X15123369Y18993413D01*
X15190409Y18973729D01*
X15236165Y18920926D01*
X15245106Y18861275D01*
X15246300Y18861275D01*
X15246300Y18853308D01*
X15246311Y18853234D01*
X15246300Y18853151D01*
X15246300Y18853148D01*
X15246300Y18746852D01*
X15273811Y18644177D01*
X15326959Y18552122D01*
X15402122Y18476959D01*
X15494177Y18423811D01*
X15596852Y18396300D01*
X15596854Y18396300D01*
X15703146Y18396300D01*
X15703148Y18396300D01*
X15805823Y18423811D01*
X15855302Y18452378D01*
X15923199Y18468850D01*
X15989226Y18445998D01*
X16032417Y18391077D01*
X16041300Y18344990D01*
X16041300Y16301362D01*
X16042495Y16279067D01*
X16042499Y16279015D01*
X16045329Y16252698D01*
X16045331Y16252687D01*
X16069662Y16174987D01*
X16069662Y16174986D01*
X16103147Y16113662D01*
X16103149Y16113659D01*
X16138739Y16066116D01*
X16138755Y16066098D01*
X16566103Y15638750D01*
X16582708Y15623834D01*
X16582722Y15623822D01*
X16582730Y15623815D01*
X16591128Y15617048D01*
X16603371Y15607181D01*
X16633730Y15591301D01*
X16675524Y15569439D01*
X16742563Y15549754D01*
X16742567Y15549754D01*
X16742569Y15549753D01*
X16752070Y15548388D01*
X16801362Y15541300D01*
X16801365Y15541300D01*
X19698639Y15541300D01*
X19699950Y15541371D01*
X19720949Y15542496D01*
X19747307Y15545330D01*
X19825016Y15569663D01*
X19886339Y15603148D01*
X19933892Y15638746D01*
X20139452Y15844306D01*
X20361249Y16066102D01*
X20361250Y16066104D01*
X20370309Y16076188D01*
X20376185Y16082730D01*
X20392819Y16103372D01*
X20430561Y16175524D01*
X20450246Y16242563D01*
X20458700Y16301362D01*
X20458700Y17316123D01*
X20478385Y17383162D01*
X20531189Y17428917D01*
X20600347Y17438861D01*
X20636434Y17426369D01*
X20636664Y17426923D01*
X20644169Y17423816D01*
X20644177Y17423811D01*
X20746852Y17396300D01*
X20746854Y17396300D01*
X20853146Y17396300D01*
X20853148Y17396300D01*
X20955823Y17423811D01*
X21047878Y17476959D01*
X21123041Y17552122D01*
X21176189Y17644177D01*
X21180225Y17659244D01*
X21216589Y17718903D01*
X21279435Y17749433D01*
X21348811Y17741139D01*
X21402690Y17696654D01*
X21419773Y17659245D01*
X21423811Y17644177D01*
X21476959Y17552122D01*
X21552122Y17476959D01*
X21644177Y17423811D01*
X21746852Y17396300D01*
X21746854Y17396300D01*
X21853146Y17396300D01*
X21853148Y17396300D01*
X21955823Y17423811D01*
X22047878Y17476959D01*
X22123041Y17552122D01*
X22176189Y17644177D01*
X22203700Y17746852D01*
X22203700Y17853148D01*
X22176189Y17955823D01*
X22123041Y18047878D01*
X22047878Y18123041D01*
X21955823Y18176189D01*
X21853148Y18203700D01*
X21746852Y18203700D01*
X21644177Y18176189D01*
X21644175Y18176188D01*
X21644174Y18176188D01*
X21552125Y18123043D01*
X21552119Y18123039D01*
X21476961Y18047881D01*
X21476957Y18047875D01*
X21423812Y17955826D01*
X21423812Y17955825D01*
X21423811Y17955823D01*
X21419774Y17940757D01*
X21383410Y17881097D01*
X21320563Y17850568D01*
X21251188Y17858863D01*
X21197310Y17903348D01*
X21180226Y17940756D01*
X21176189Y17955823D01*
X21123041Y18047878D01*
X21047878Y18123041D01*
X20955823Y18176189D01*
X20853148Y18203700D01*
X20746852Y18203700D01*
X20644177Y18176189D01*
X20644175Y18176189D01*
X20644175Y18176188D01*
X20636664Y18173077D01*
X20636112Y18174408D01*
X20576800Y18160018D01*
X20510773Y18182871D01*
X20467582Y18237792D01*
X20458700Y18283878D01*
X20458700Y22750856D01*
X20458699Y22750866D01*
X20453930Y22795228D01*
X20442724Y22846739D01*
X20440198Y22857076D01*
X20406031Y22921195D01*
X20391877Y22989616D01*
X20407243Y23040040D01*
X20430561Y23081726D01*
X20450246Y23148765D01*
X20458700Y23207564D01*
X20458700Y25667300D01*
X20478385Y25734339D01*
X20531189Y25780094D01*
X20582700Y25791300D01*
X21375991Y25791300D01*
X21376000Y25791300D01*
X21420364Y25796070D01*
X21471875Y25807276D01*
X21482212Y25809802D01*
X21564181Y25853482D01*
X21586670Y25872969D01*
X21586669Y25872969D01*
X21616984Y25899236D01*
X21616998Y25899251D01*
X21618428Y25900489D01*
X21618429Y25900490D01*
X21618432Y25900492D01*
X21632261Y25912475D01*
X21633152Y25914399D01*
X21635212Y25917096D01*
X21635218Y25917101D01*
X21680561Y25998162D01*
X21700246Y26065201D01*
X21708700Y26124000D01*
X21708700Y28667300D01*
X21728385Y28734339D01*
X21781189Y28780094D01*
X21832700Y28791300D01*
X24125991Y28791300D01*
X24126000Y28791300D01*
X24170364Y28796070D01*
X24221875Y28807276D01*
X24232212Y28809802D01*
X24314181Y28853481D01*
X24366985Y28899236D01*
X24385218Y28917101D01*
X24430561Y28998162D01*
X24450246Y29065201D01*
X24458700Y29124000D01*
X24458700Y29523076D01*
X24478385Y29590115D01*
X24531189Y29635870D01*
X24600347Y29645814D01*
X24632785Y29636511D01*
X24683099Y29614295D01*
X24708913Y29611300D01*
X25291086Y29611301D01*
X25316901Y29614295D01*
X25422479Y29660912D01*
X25446548Y29684981D01*
X25473475Y29699685D01*
X25499294Y29716277D01*
X25505494Y29717169D01*
X25507871Y29718466D01*
X25534229Y29721300D01*
X25697841Y29721300D01*
X25764880Y29701615D01*
X25785524Y29684979D01*
X25806973Y29663529D01*
X25806977Y29663526D01*
X25806979Y29663524D01*
X25863524Y29606979D01*
X25922306Y29573041D01*
X25932776Y29566996D01*
X25959286Y29559893D01*
X25965877Y29557291D01*
X25982376Y29544444D01*
X26008026Y29529635D01*
X26090721Y29446940D01*
X26205579Y29380627D01*
X26333687Y29346300D01*
X26333690Y29346300D01*
X26466310Y29346300D01*
X26466313Y29346300D01*
X26594421Y29380627D01*
X26709279Y29446940D01*
X26803060Y29540721D01*
X26869373Y29655579D01*
X26903700Y29783687D01*
X26903700Y29916313D01*
X26869373Y30044421D01*
X26813775Y30140720D01*
X26803062Y30159276D01*
X26803058Y30159281D01*
X26709280Y30253059D01*
X26709275Y30253063D01*
X26594423Y30319372D01*
X26594422Y30319373D01*
X26559613Y30328700D01*
X26466313Y30353700D01*
X26333687Y30353700D01*
X26256822Y30333104D01*
X26205577Y30319373D01*
X26205574Y30319371D01*
X26151053Y30287894D01*
X26083153Y30271423D01*
X26027055Y30287895D01*
X25992223Y30308005D01*
X25914986Y30328700D01*
X25914983Y30328700D01*
X25534229Y30328700D01*
X25467190Y30348385D01*
X25446548Y30365019D01*
X25422479Y30389088D01*
X25316902Y30435705D01*
X25291087Y30438700D01*
X24708920Y30438700D01*
X24708897Y30438698D01*
X24683101Y30435706D01*
X24683098Y30435705D01*
X24632786Y30413490D01*
X24563508Y30404418D01*
X24500323Y30434242D01*
X24463292Y30493491D01*
X24458700Y30526924D01*
X24458700Y35075992D01*
X24458699Y35076008D01*
X24457491Y35087244D01*
X24469896Y35156003D01*
X24517505Y35207141D01*
X24580780Y35224500D01*
X28467300Y35224500D01*
X28534339Y35204815D01*
G37*
%TD.AperFunction*%
%TA.AperFunction,Conductor*%
G36*
X51503736Y35224274D02*
G01*
X51757638Y35208916D01*
X51772495Y35207112D01*
X52019000Y35161939D01*
X52033536Y35158356D01*
X52272791Y35083800D01*
X52286785Y35078493D01*
X52349741Y35050159D01*
X52515319Y34975639D01*
X52528578Y34968680D01*
X52635808Y34903857D01*
X52743045Y34839030D01*
X52755356Y34830532D01*
X52952636Y34675973D01*
X52963844Y34666043D01*
X53141042Y34488845D01*
X53150972Y34477637D01*
X53305527Y34280363D01*
X53314033Y34268040D01*
X53443679Y34053579D01*
X53450638Y34040320D01*
X53553491Y33811789D01*
X53558800Y33797789D01*
X53633354Y33558539D01*
X53636938Y33543999D01*
X53682110Y33297500D01*
X53683915Y33282636D01*
X53699274Y33028737D01*
X53699500Y33021250D01*
X53699500Y22931812D01*
X53679815Y22864773D01*
X53627011Y22819018D01*
X53557853Y22809074D01*
X53494297Y22838099D01*
X53468113Y22869811D01*
X53457935Y22887439D01*
X53423041Y22947878D01*
X53347878Y23023041D01*
X53255823Y23076189D01*
X53153148Y23103700D01*
X53153147Y23103700D01*
X53141803Y23103700D01*
X53112362Y23112345D01*
X53082376Y23118868D01*
X53077360Y23122623D01*
X53074764Y23123385D01*
X53054122Y23140019D01*
X52995086Y23199055D01*
X52995084Y23199058D01*
X52936125Y23258017D01*
X52872574Y23294707D01*
X52872575Y23294707D01*
X52819471Y23308936D01*
X52801692Y23313700D01*
X52798411Y23314579D01*
X52742824Y23346673D01*
X52699605Y23389892D01*
X52595738Y23435754D01*
X52570345Y23438700D01*
X51679662Y23438700D01*
X51679639Y23438698D01*
X51666978Y23437230D01*
X51598118Y23449064D01*
X51546587Y23496248D01*
X51528700Y23560405D01*
X51528700Y24952300D01*
X51548385Y25019339D01*
X51601189Y25065094D01*
X51652700Y25076300D01*
X51834681Y25076300D01*
X51834688Y25076300D01*
X51884014Y25082794D01*
X51992267Y25133273D01*
X52076727Y25217733D01*
X52127206Y25325986D01*
X52133700Y25375312D01*
X52133700Y25628197D01*
X52153385Y25695236D01*
X52170019Y25715878D01*
X52371242Y25917101D01*
X52623016Y26168874D01*
X52659707Y26232426D01*
X52678700Y26303308D01*
X52678700Y26376692D01*
X52678700Y27101093D01*
X52698385Y27168132D01*
X52748239Y27212493D01*
X52779396Y27227724D01*
X52862276Y27310604D01*
X52862277Y27310605D01*
X52903132Y27394177D01*
X52913754Y27415904D01*
X52923700Y27484170D01*
X52923700Y27845830D01*
X52913754Y27914096D01*
X52900020Y27942189D01*
X52862277Y28019396D01*
X52779395Y28102278D01*
X52674099Y28153753D01*
X52674097Y28153754D01*
X52674096Y28153754D01*
X52605830Y28163700D01*
X52194170Y28163700D01*
X52125904Y28153754D01*
X52125902Y28153754D01*
X52125900Y28153753D01*
X52020604Y28102278D01*
X51937722Y28019396D01*
X51886247Y27914100D01*
X51886246Y27914098D01*
X51886246Y27914096D01*
X51876300Y27845830D01*
X51876300Y27484170D01*
X51886246Y27415904D01*
X51886246Y27415903D01*
X51886247Y27415901D01*
X51937722Y27310605D01*
X52020601Y27227726D01*
X52020602Y27227726D01*
X52020604Y27227724D01*
X52051760Y27212493D01*
X52103341Y27165368D01*
X52121300Y27101093D01*
X52121300Y26506804D01*
X52101615Y26439765D01*
X52084981Y26419123D01*
X51825878Y26160019D01*
X51764555Y26126534D01*
X51738197Y26123700D01*
X51485312Y26123700D01*
X51485306Y26123700D01*
X51485301Y26123699D01*
X51435985Y26117207D01*
X51435984Y26117206D01*
X51327732Y26066727D01*
X51237681Y25976675D01*
X51176358Y25943190D01*
X51106666Y25948174D01*
X51062319Y25976675D01*
X50972267Y26066727D01*
X50864015Y26117206D01*
X50864014Y26117207D01*
X50814698Y26123699D01*
X50814693Y26123700D01*
X50814688Y26123700D01*
X50465312Y26123700D01*
X50465306Y26123700D01*
X50465301Y26123699D01*
X50415985Y26117207D01*
X50415984Y26117206D01*
X50307732Y26066727D01*
X50223273Y25982268D01*
X50172794Y25874016D01*
X50172793Y25874015D01*
X50166301Y25824699D01*
X50166300Y25824682D01*
X50166300Y25375319D01*
X50166301Y25375302D01*
X50172793Y25325986D01*
X50172794Y25325985D01*
X50195605Y25277067D01*
X50223273Y25217733D01*
X50307733Y25133273D01*
X50398225Y25091076D01*
X50415984Y25082795D01*
X50415985Y25082794D01*
X50425484Y25081544D01*
X50465312Y25076300D01*
X50718196Y25076300D01*
X50747632Y25067657D01*
X50777622Y25061133D01*
X50782639Y25057378D01*
X50785235Y25056615D01*
X50805872Y25039986D01*
X50896171Y24949687D01*
X50929655Y24888367D01*
X50924671Y24818675D01*
X50882800Y24762741D01*
X50817336Y24738324D01*
X50798941Y24738727D01*
X50798928Y24738493D01*
X50795346Y24738700D01*
X50795345Y24738700D01*
X50795343Y24738700D01*
X49904662Y24738700D01*
X49904639Y24738698D01*
X49879265Y24735755D01*
X49879262Y24735754D01*
X49775395Y24689893D01*
X49695108Y24609606D01*
X49649246Y24505740D01*
X49649246Y24505738D01*
X49646300Y24480347D01*
X49646300Y24189663D01*
X49646302Y24189640D01*
X49649245Y24164266D01*
X49649245Y24164265D01*
X49660937Y24137785D01*
X49670008Y24068507D01*
X49640184Y24005322D01*
X49580934Y23968292D01*
X49547502Y23963700D01*
X49134192Y23963700D01*
X49060808Y23963700D01*
X49018278Y23952305D01*
X48989924Y23944707D01*
X48934681Y23912812D01*
X48872682Y23896200D01*
X48614728Y23896200D01*
X48614722Y23896200D01*
X48614717Y23896199D01*
X48564676Y23889611D01*
X48564668Y23889609D01*
X48454820Y23838386D01*
X48369114Y23752680D01*
X48317891Y23642832D01*
X48317889Y23642824D01*
X48311301Y23592783D01*
X48311300Y23592766D01*
X48311300Y23344304D01*
X48291615Y23277265D01*
X48274981Y23256623D01*
X47876985Y22858628D01*
X47876983Y22858626D01*
X47840293Y22795075D01*
X47840293Y22795074D01*
X47821300Y22724192D01*
X47821300Y21020808D01*
X47840293Y20949926D01*
X47876983Y20886375D01*
X47935939Y20827419D01*
X47935945Y20827414D01*
X48274981Y20488378D01*
X48308466Y20427055D01*
X48311300Y20400697D01*
X48311300Y20152235D01*
X48311301Y20152218D01*
X48317889Y20102177D01*
X48317891Y20102169D01*
X48369114Y19992321D01*
X48459981Y19901454D01*
X48493466Y19840131D01*
X48496300Y19813773D01*
X48496300Y13912514D01*
X48476615Y13845475D01*
X48459981Y13824833D01*
X47505903Y12870755D01*
X47444580Y12837270D01*
X47418222Y12834436D01*
X46941002Y12834436D01*
X46873963Y12854121D01*
X46828208Y12906925D01*
X46818264Y12976083D01*
X46833615Y13020436D01*
X46847358Y13044242D01*
X46876189Y13094177D01*
X46903700Y13196852D01*
X46903700Y13303148D01*
X46876189Y13405823D01*
X46823041Y13497878D01*
X46747878Y13573041D01*
X46659940Y13623812D01*
X46655825Y13626188D01*
X46655824Y13626189D01*
X46655823Y13626189D01*
X46553148Y13653700D01*
X46446852Y13653700D01*
X46344177Y13626189D01*
X46344175Y13626188D01*
X46344174Y13626188D01*
X46252125Y13573043D01*
X46252119Y13573039D01*
X46212681Y13533600D01*
X46151358Y13500115D01*
X46081666Y13505099D01*
X46037319Y13533600D01*
X45997880Y13573039D01*
X45997878Y13573041D01*
X45909940Y13623812D01*
X45905825Y13626188D01*
X45905824Y13626189D01*
X45905823Y13626189D01*
X45803148Y13653700D01*
X45696852Y13653700D01*
X45594177Y13626189D01*
X45594175Y13626188D01*
X45594174Y13626188D01*
X45502125Y13573043D01*
X45502119Y13573039D01*
X45462681Y13533600D01*
X45401358Y13500115D01*
X45331666Y13505099D01*
X45287319Y13533600D01*
X45247880Y13573039D01*
X45247878Y13573041D01*
X45159940Y13623812D01*
X45155825Y13626188D01*
X45155824Y13626189D01*
X45155823Y13626189D01*
X45053148Y13653700D01*
X44946852Y13653700D01*
X44844177Y13626189D01*
X44844175Y13626188D01*
X44844174Y13626188D01*
X44752125Y13573043D01*
X44752119Y13573039D01*
X44676961Y13497881D01*
X44676957Y13497875D01*
X44623812Y13405826D01*
X44623812Y13405825D01*
X44623811Y13405823D01*
X44596300Y13303148D01*
X44596300Y13196852D01*
X44623297Y13096094D01*
X44623812Y13094175D01*
X44626218Y13090008D01*
X44676959Y13002122D01*
X44676961Y13002120D01*
X44716400Y12962681D01*
X44749885Y12901358D01*
X44744901Y12831666D01*
X44716400Y12787319D01*
X44676961Y12747881D01*
X44676957Y12747875D01*
X44623812Y12655826D01*
X44623812Y12655825D01*
X44623811Y12655823D01*
X44596300Y12553148D01*
X44596300Y12446852D01*
X44623811Y12344177D01*
X44676959Y12252122D01*
X44752122Y12176959D01*
X44844177Y12123811D01*
X44946852Y12096300D01*
X44946854Y12096300D01*
X45053146Y12096300D01*
X45053148Y12096300D01*
X45155823Y12123811D01*
X45247878Y12176959D01*
X45287319Y12216400D01*
X45295264Y12220739D01*
X45300690Y12227986D01*
X45325449Y12237221D01*
X45348642Y12249885D01*
X45357671Y12249240D01*
X45366154Y12252403D01*
X45391974Y12246787D01*
X45418334Y12244901D01*
X45427387Y12239083D01*
X45434427Y12237551D01*
X45462681Y12216400D01*
X45466400Y12212681D01*
X45499885Y12151358D01*
X45494901Y12081666D01*
X45466400Y12037319D01*
X45426961Y11997881D01*
X45426957Y11997875D01*
X45373812Y11905826D01*
X45373812Y11905825D01*
X45373811Y11905823D01*
X45346300Y11803148D01*
X45346300Y11696852D01*
X45373811Y11594177D01*
X45373812Y11594176D01*
X45373812Y11594175D01*
X45376762Y11589066D01*
X45426959Y11502122D01*
X45502122Y11426959D01*
X45594177Y11373811D01*
X45696852Y11346300D01*
X45696854Y11346300D01*
X45803146Y11346300D01*
X45803148Y11346300D01*
X45905823Y11373811D01*
X45997878Y11426959D01*
X46035893Y11464975D01*
X46097214Y11498459D01*
X46166905Y11493475D01*
X46211254Y11464974D01*
X46247680Y11428548D01*
X46339735Y11375400D01*
X46442410Y11347889D01*
X46442412Y11347889D01*
X46548704Y11347889D01*
X46548706Y11347889D01*
X46651381Y11375400D01*
X46743436Y11428548D01*
X46818599Y11503711D01*
X46871747Y11595766D01*
X46899258Y11698441D01*
X46899258Y11804737D01*
X46871747Y11907412D01*
X46823649Y11990721D01*
X46823467Y11991036D01*
X46806994Y12058936D01*
X46829847Y12124963D01*
X46884768Y12168154D01*
X46930854Y12177036D01*
X47649008Y12177036D01*
X47649010Y12177036D01*
X47732609Y12199437D01*
X47745452Y12206852D01*
X47807563Y12242711D01*
X49088026Y13523174D01*
X49131299Y13598127D01*
X49153700Y13681726D01*
X49153700Y13768274D01*
X49153700Y19813773D01*
X49173385Y19880812D01*
X49190019Y19901454D01*
X49195179Y19906614D01*
X49280886Y19992321D01*
X49332110Y20102172D01*
X49338700Y20152228D01*
X49338700Y20197300D01*
X49341250Y20205986D01*
X49339962Y20214947D01*
X49350940Y20238988D01*
X49358385Y20264339D01*
X49365225Y20270267D01*
X49368987Y20278503D01*
X49391221Y20292793D01*
X49411189Y20310094D01*
X49421703Y20312382D01*
X49427765Y20316277D01*
X49462700Y20321300D01*
X49497502Y20321300D01*
X49564541Y20301615D01*
X49610296Y20248811D01*
X49620240Y20179653D01*
X49610936Y20147214D01*
X49599247Y20120742D01*
X49599246Y20120738D01*
X49596300Y20095347D01*
X49596300Y19804663D01*
X49596302Y19804640D01*
X49599245Y19779266D01*
X49599246Y19779263D01*
X49645107Y19675396D01*
X49645108Y19675395D01*
X49725395Y19595108D01*
X49829263Y19549246D01*
X49854655Y19546300D01*
X50277300Y19546301D01*
X50285986Y19543751D01*
X50294947Y19545039D01*
X50318983Y19534062D01*
X50344339Y19526617D01*
X50350267Y19519775D01*
X50358503Y19516014D01*
X50372789Y19493783D01*
X50390094Y19473813D01*
X50392381Y19463298D01*
X50396277Y19457236D01*
X50401300Y19422301D01*
X50401300Y19268786D01*
X50381615Y19201747D01*
X50355367Y19174435D01*
X50355404Y19174398D01*
X50353558Y19172553D01*
X50348431Y19167217D01*
X50347736Y19166731D01*
X50263273Y19082268D01*
X50212794Y18974016D01*
X50212793Y18974015D01*
X50206301Y18924699D01*
X50206300Y18924682D01*
X50206300Y18475319D01*
X50206301Y18475302D01*
X50212793Y18425986D01*
X50212794Y18425985D01*
X50258642Y18327664D01*
X50263273Y18317733D01*
X50347733Y18233273D01*
X50401299Y18208295D01*
X50455984Y18182795D01*
X50455985Y18182794D01*
X50465484Y18181544D01*
X50505312Y18176300D01*
X50505319Y18176300D01*
X50854681Y18176300D01*
X50854688Y18176300D01*
X50904014Y18182794D01*
X51012267Y18233273D01*
X51096727Y18317733D01*
X51096727Y18317734D01*
X51102319Y18323325D01*
X51110264Y18327664D01*
X51115690Y18334911D01*
X51140449Y18344146D01*
X51163642Y18356810D01*
X51172671Y18356165D01*
X51181154Y18359328D01*
X51206974Y18353712D01*
X51233334Y18351826D01*
X51242387Y18346008D01*
X51249427Y18344476D01*
X51277681Y18323325D01*
X51305859Y18295147D01*
X51339344Y18233824D01*
X51334360Y18164132D01*
X51325566Y18145467D01*
X51273811Y18055825D01*
X51247018Y17955826D01*
X51246300Y17953148D01*
X51246300Y17846852D01*
X51273811Y17744177D01*
X51273812Y17744176D01*
X51273812Y17744175D01*
X51288403Y17718903D01*
X51326959Y17652122D01*
X51402122Y17576959D01*
X51494177Y17523811D01*
X51596852Y17496300D01*
X51596854Y17496300D01*
X51703146Y17496300D01*
X51703148Y17496300D01*
X51805823Y17523811D01*
X51897878Y17576959D01*
X51973041Y17652122D01*
X51989914Y17681347D01*
X52040479Y17729561D01*
X52109086Y17742785D01*
X52173951Y17716817D01*
X52214480Y17659904D01*
X52221300Y17619346D01*
X52221300Y16266804D01*
X52201615Y16199765D01*
X52184981Y16179123D01*
X51645878Y15640019D01*
X51584555Y15606534D01*
X51558197Y15603700D01*
X51546852Y15603700D01*
X51444177Y15576189D01*
X51444175Y15576188D01*
X51444174Y15576188D01*
X51352125Y15523043D01*
X51352119Y15523039D01*
X51276961Y15447881D01*
X51276957Y15447875D01*
X51223812Y15355826D01*
X51223812Y15355825D01*
X51223811Y15355823D01*
X51196300Y15253148D01*
X51196300Y15146852D01*
X51223811Y15044177D01*
X51276959Y14952122D01*
X51352122Y14876959D01*
X51444177Y14823811D01*
X51546852Y14796300D01*
X51546854Y14796300D01*
X51653146Y14796300D01*
X51653148Y14796300D01*
X51755823Y14823811D01*
X51847878Y14876959D01*
X51923041Y14952122D01*
X51976189Y15044177D01*
X52003700Y15146852D01*
X52003700Y15158197D01*
X52023385Y15225236D01*
X52040019Y15245878D01*
X52352841Y15558700D01*
X52723016Y15928874D01*
X52759707Y15992426D01*
X52778700Y16063308D01*
X52778700Y16136692D01*
X52778700Y19713305D01*
X52778701Y19713308D01*
X52778701Y19786692D01*
X52778472Y19787544D01*
X52778449Y19796402D01*
X52778876Y19797874D01*
X52778760Y19801071D01*
X52778700Y19801071D01*
X52778699Y19802700D01*
X52778656Y19803901D01*
X52778698Y19804640D01*
X52778700Y19804655D01*
X52778699Y20095344D01*
X52775754Y20120737D01*
X52729892Y20224605D01*
X52649605Y20304892D01*
X52632642Y20312382D01*
X52545738Y20350754D01*
X52520345Y20353700D01*
X51629662Y20353700D01*
X51629639Y20353698D01*
X51604266Y20350756D01*
X51577816Y20339077D01*
X51554070Y20328592D01*
X51484794Y20319521D01*
X51421609Y20349345D01*
X51384578Y20408594D01*
X51384211Y20474117D01*
X51403700Y20546852D01*
X51403700Y20653148D01*
X51376189Y20755823D01*
X51323041Y20847878D01*
X51247878Y20923041D01*
X51247876Y20923042D01*
X51247874Y20923044D01*
X51178174Y20963285D01*
X51129958Y21013852D01*
X51116736Y21082459D01*
X51142704Y21147324D01*
X51152474Y21158334D01*
X51323016Y21328874D01*
X51359707Y21392425D01*
X51378700Y21463308D01*
X51378700Y21536691D01*
X51378700Y21700662D01*
X51398385Y21767701D01*
X51415019Y21788343D01*
X51417006Y21790330D01*
X51423041Y21796365D01*
X51476189Y21888420D01*
X51503700Y21991095D01*
X51503700Y22097391D01*
X51476189Y22200066D01*
X51423041Y22292121D01*
X51347878Y22367284D01*
X51255823Y22420432D01*
X51153148Y22447943D01*
X51046852Y22447943D01*
X50960189Y22424723D01*
X50960184Y22424722D01*
X50944177Y22420432D01*
X50923707Y22408615D01*
X50923703Y22408612D01*
X50852125Y22367286D01*
X50852119Y22367282D01*
X50776961Y22292124D01*
X50776957Y22292118D01*
X50723812Y22200069D01*
X50723812Y22200068D01*
X50723811Y22200066D01*
X50696300Y22097391D01*
X50696300Y21991095D01*
X50721960Y21895327D01*
X50723811Y21888420D01*
X50751940Y21839699D01*
X50768412Y21771799D01*
X50745559Y21705772D01*
X50690637Y21662582D01*
X50644552Y21653700D01*
X49854662Y21653700D01*
X49854639Y21653698D01*
X49829265Y21650755D01*
X49829262Y21650754D01*
X49725395Y21604893D01*
X49645108Y21524606D01*
X49599246Y21420740D01*
X49599246Y21420738D01*
X49596300Y21395347D01*
X49596300Y21104663D01*
X49596302Y21104640D01*
X49599245Y21079266D01*
X49599245Y21079265D01*
X49610937Y21052785D01*
X49620008Y20983507D01*
X49590184Y20920322D01*
X49530934Y20883292D01*
X49497502Y20878700D01*
X49129192Y20878700D01*
X49055808Y20878700D01*
X49002646Y20864456D01*
X48984925Y20859707D01*
X48964442Y20847881D01*
X48943665Y20835885D01*
X48938342Y20832812D01*
X48922853Y20828662D01*
X48911278Y20821223D01*
X48876343Y20816200D01*
X48786803Y20816200D01*
X48719764Y20835885D01*
X48699122Y20852519D01*
X48415019Y21136622D01*
X48381534Y21197945D01*
X48378700Y21224303D01*
X48378700Y22520697D01*
X48398385Y22587736D01*
X48415019Y22608378D01*
X48699122Y22892481D01*
X48760445Y22925966D01*
X48786803Y22928800D01*
X49035265Y22928800D01*
X49035272Y22928800D01*
X49085328Y22935390D01*
X49195179Y22986614D01*
X49280886Y23072321D01*
X49332110Y23182172D01*
X49338700Y23232228D01*
X49338700Y23282300D01*
X49341250Y23290986D01*
X49339962Y23299947D01*
X49350940Y23323988D01*
X49358385Y23349339D01*
X49365225Y23355267D01*
X49368987Y23363503D01*
X49391221Y23377793D01*
X49411189Y23395094D01*
X49421703Y23397382D01*
X49427765Y23401277D01*
X49462700Y23406300D01*
X49547502Y23406300D01*
X49614541Y23386615D01*
X49660296Y23333811D01*
X49670240Y23264653D01*
X49660936Y23232214D01*
X49649247Y23205742D01*
X49649246Y23205738D01*
X49646300Y23180347D01*
X49646300Y22889663D01*
X49646302Y22889640D01*
X49649245Y22864266D01*
X49649246Y22864263D01*
X49695107Y22760396D01*
X49695108Y22760395D01*
X49775395Y22680108D01*
X49879263Y22634246D01*
X49904655Y22631300D01*
X50795344Y22631301D01*
X50820737Y22634246D01*
X50924605Y22680108D01*
X50964478Y22719981D01*
X51025801Y22753466D01*
X51052159Y22756300D01*
X51056689Y22756300D01*
X51056692Y22756300D01*
X51127574Y22775293D01*
X51140118Y22782535D01*
X51191126Y22811984D01*
X51240857Y22861716D01*
X51302178Y22895200D01*
X51371870Y22890216D01*
X51427803Y22848345D01*
X51441967Y22824129D01*
X51470108Y22760395D01*
X51550395Y22680108D01*
X51654263Y22634246D01*
X51679655Y22631300D01*
X52570344Y22631301D01*
X52590193Y22633603D01*
X52659054Y22621774D01*
X52710588Y22574593D01*
X52720404Y22551559D01*
X52720703Y22551682D01*
X52723810Y22544179D01*
X52723811Y22544177D01*
X52776959Y22452122D01*
X52852122Y22376959D01*
X52944177Y22323811D01*
X53046852Y22296300D01*
X53046854Y22296300D01*
X53153146Y22296300D01*
X53153148Y22296300D01*
X53255823Y22323811D01*
X53347878Y22376959D01*
X53423041Y22452122D01*
X53468113Y22530190D01*
X53518680Y22578405D01*
X53587287Y22591628D01*
X53652152Y22565660D01*
X53692680Y22508745D01*
X53699500Y22468189D01*
X53699500Y10978751D01*
X53699274Y10971264D01*
X53683915Y10717365D01*
X53682110Y10702501D01*
X53636938Y10456002D01*
X53633354Y10441462D01*
X53558800Y10202212D01*
X53553491Y10188212D01*
X53450638Y9959681D01*
X53443679Y9946422D01*
X53314033Y9731961D01*
X53305527Y9719638D01*
X53150972Y9522364D01*
X53141042Y9511156D01*
X52963844Y9333958D01*
X52952636Y9324028D01*
X52755362Y9169473D01*
X52743039Y9160967D01*
X52528578Y9031321D01*
X52515319Y9024362D01*
X52286788Y8921509D01*
X52272788Y8916200D01*
X52033538Y8841646D01*
X52018998Y8838062D01*
X51772499Y8792890D01*
X51757635Y8791085D01*
X51503736Y8775726D01*
X51496249Y8775500D01*
X39870009Y8775500D01*
X39802970Y8795185D01*
X39757215Y8847989D01*
X39747271Y8917147D01*
X39776296Y8980703D01*
X39782328Y8987181D01*
X40320819Y9525674D01*
X40432554Y9637409D01*
X40447485Y9654031D01*
X40464119Y9674673D01*
X40501861Y9746825D01*
X40521546Y9813864D01*
X40530000Y9872663D01*
X40530000Y12121000D01*
X40549685Y12188039D01*
X40602489Y12233794D01*
X40654000Y12245000D01*
X42052129Y12245000D01*
X42119168Y12225315D01*
X42164923Y12172511D01*
X42173746Y12145191D01*
X42183474Y12096285D01*
X42207887Y12030829D01*
X42207892Y12030818D01*
X42218258Y12007492D01*
X42218259Y12007491D01*
X42218259Y12007490D01*
X42232493Y11990721D01*
X42278362Y11936681D01*
X42334295Y11894809D01*
X42355632Y11880786D01*
X42444479Y11853712D01*
X42514171Y11848728D01*
X42539697Y11848467D01*
X42629078Y11873725D01*
X42690401Y11907210D01*
X42737954Y11942808D01*
X43421998Y12626852D01*
X44111249Y13316102D01*
X44111250Y13316104D01*
X44117791Y13323385D01*
X44126185Y13332730D01*
X44142819Y13353372D01*
X44180561Y13425524D01*
X44200246Y13492563D01*
X44208700Y13551362D01*
X44208700Y31876000D01*
X44203930Y31920364D01*
X44192724Y31971875D01*
X44190198Y31982212D01*
X44146519Y32064181D01*
X44100764Y32116985D01*
X44100755Y32116994D01*
X44100748Y32117002D01*
X44082901Y32135216D01*
X44082894Y32135222D01*
X44018948Y32170990D01*
X44001838Y32180561D01*
X43976843Y32187901D01*
X43934800Y32200246D01*
X43934792Y32200248D01*
X43876001Y32208700D01*
X43876000Y32208700D01*
X43482700Y32208700D01*
X43415661Y32228385D01*
X43369906Y32281189D01*
X43358700Y32332700D01*
X43358700Y35100500D01*
X43378385Y35167539D01*
X43431189Y35213294D01*
X43482700Y35224500D01*
X51452405Y35224500D01*
X51496249Y35224500D01*
X51503736Y35224274D01*
G37*
%TD.AperFunction*%
%TA.AperFunction,Conductor*%
G36*
X17754930Y10701615D02*
G01*
X17800685Y10648811D01*
X17810629Y10579653D01*
X17781604Y10516097D01*
X17775572Y10509619D01*
X17705572Y10439620D01*
X17705568Y10439614D01*
X17652423Y10347565D01*
X17652422Y10347563D01*
X17652422Y10347562D01*
X17647681Y10329867D01*
X17624551Y10243545D01*
X17588185Y10183885D01*
X17525338Y10153356D01*
X17455963Y10161651D01*
X17442776Y10168252D01*
X17417223Y10183005D01*
X17339986Y10203700D01*
X17339983Y10203700D01*
X11639983Y10203700D01*
X9877159Y10203700D01*
X9810120Y10223385D01*
X9789478Y10240019D01*
X9519878Y10509619D01*
X9486393Y10570942D01*
X9491377Y10640634D01*
X9533249Y10696567D01*
X9598713Y10720984D01*
X9607559Y10721300D01*
X17687891Y10721300D01*
X17754930Y10701615D01*
G37*
%TD.AperFunction*%
%TA.AperFunction,Conductor*%
G36*
X11242644Y21784311D02*
G01*
X11245347Y21784699D01*
X11248017Y21784152D01*
X11248974Y21784123D01*
X11254775Y21783113D01*
X11254884Y21783050D01*
X11357559Y21755539D01*
X11413115Y21755539D01*
X11423670Y21753701D01*
X11486338Y21722806D01*
X11511228Y21690966D01*
X11544542Y21629954D01*
X11544547Y21629947D01*
X11580137Y21582404D01*
X11580143Y21582398D01*
X11580144Y21582396D01*
X11608505Y21554035D01*
X11628207Y21528359D01*
X11637425Y21512393D01*
X11637554Y21512171D01*
X11649942Y21482266D01*
X11654553Y21465055D01*
X11654782Y21464204D01*
X11659007Y21432110D01*
X11659007Y21413413D01*
X11654782Y21381322D01*
X11650088Y21363803D01*
X11647231Y21351714D01*
X11644270Y21337279D01*
X11644269Y21337270D01*
X11642140Y21265644D01*
X11642203Y21264530D01*
X11642092Y21264058D01*
X11641981Y21260295D01*
X11641220Y21260318D01*
X11626336Y21196485D01*
X11576200Y21147822D01*
X11567383Y21143611D01*
X11559148Y21140071D01*
X11532776Y21133004D01*
X11503778Y21116262D01*
X11497076Y21113380D01*
X11476373Y21110874D01*
X11448094Y21103296D01*
X11393253Y21103296D01*
X11290578Y21075785D01*
X11290576Y21075785D01*
X11290576Y21075784D01*
X11290573Y21075783D01*
X11278901Y21069044D01*
X11211000Y21052573D01*
X11144974Y21075426D01*
X11101784Y21130348D01*
X11092903Y21176432D01*
X11092903Y21503396D01*
X11097128Y21535488D01*
X11102098Y21554039D01*
X11103700Y21560016D01*
X11103700Y21639983D01*
X11103700Y21661961D01*
X11109228Y21680788D01*
X11109809Y21700403D01*
X11118870Y21713625D01*
X11123385Y21729000D01*
X11138213Y21741850D01*
X11149308Y21758037D01*
X11164077Y21764261D01*
X11176189Y21774755D01*
X11195610Y21777548D01*
X11213695Y21785168D01*
X11242644Y21784311D01*
G37*
%TD.AperFunction*%
%TA.AperFunction,Conductor*%
G36*
X9975825Y22809402D02*
G01*
X10039804Y22747140D01*
X10099462Y22710776D01*
X10099469Y22710773D01*
X10099471Y22710772D01*
X10154068Y22687392D01*
X10154069Y22687391D01*
X10156163Y22686831D01*
X10159485Y22685941D01*
X10164712Y22682756D01*
X10189410Y22673547D01*
X10205953Y22663995D01*
X10224651Y22655457D01*
X10242040Y22647516D01*
X10286393Y22632165D01*
X10291785Y22630380D01*
X10382406Y22622971D01*
X10386065Y22621563D01*
X10389947Y22622121D01*
X10418411Y22609122D01*
X10447618Y22597888D01*
X10449935Y22594726D01*
X10453503Y22593096D01*
X10470421Y22566771D01*
X10488917Y22541531D01*
X10489769Y22536664D01*
X10491277Y22534318D01*
X10496300Y22499383D01*
X10496300Y22499155D01*
X10476615Y22432116D01*
X10423811Y22386361D01*
X10373987Y22375166D01*
X10336427Y22374656D01*
X10328995Y22374554D01*
X10261098Y22358082D01*
X10261094Y22358081D01*
X10205945Y22336002D01*
X10205944Y22336001D01*
X10182965Y22322734D01*
X10167831Y22315604D01*
X10167087Y22315018D01*
X10166460Y22314959D01*
X10164300Y22313940D01*
X10140566Y22305088D01*
X10140554Y22305083D01*
X10140549Y22305081D01*
X10129034Y22299487D01*
X10098320Y22284567D01*
X10093272Y22282029D01*
X10022464Y22221928D01*
X10022458Y22221922D01*
X9980588Y22165992D01*
X9966564Y22144654D01*
X9939491Y22055811D01*
X9939491Y22055808D01*
X9934507Y21986122D01*
X9934246Y21960588D01*
X9954689Y21888247D01*
X9959504Y21871208D01*
X9992989Y21809885D01*
X9997836Y21803410D01*
X10010942Y21781517D01*
X10023380Y21754846D01*
X10035000Y21702437D01*
X10035000Y21668661D01*
X10035015Y21666083D01*
X10035049Y21663221D01*
X10035049Y21663217D01*
X10040439Y21629949D01*
X10044945Y21602140D01*
X10066220Y21535588D01*
X10069029Y21528358D01*
X10074173Y21515120D01*
X10076628Y21486294D01*
X10081974Y21457852D01*
X10079764Y21449486D01*
X10080104Y21445503D01*
X10073494Y21423592D01*
X10072757Y21421777D01*
X10047705Y21365144D01*
X10043041Y21348535D01*
X10040433Y21342106D01*
X10039729Y21341220D01*
X10037912Y21336321D01*
X10021833Y21301836D01*
X10021531Y21301189D01*
X9996829Y21265912D01*
X9994090Y21263173D01*
X9958834Y21238482D01*
X9954860Y21236628D01*
X9902435Y21225000D01*
X9617564Y21225000D01*
X9606553Y21227442D01*
X9598933Y21226408D01*
X9565151Y21236622D01*
X9561174Y21238476D01*
X9525908Y21263173D01*
X9515257Y21273824D01*
X9515254Y21273827D01*
X9480515Y21301822D01*
X9480512Y21301824D01*
X9480495Y21301836D01*
X9436181Y21330316D01*
X9427068Y21335850D01*
X9427065Y21335851D01*
X9371555Y21352766D01*
X9349981Y21366943D01*
X9326497Y21377668D01*
X9321259Y21385818D01*
X9313165Y21391137D01*
X9302680Y21414727D01*
X9288723Y21436446D01*
X9286664Y21450767D01*
X9284789Y21454985D01*
X9283700Y21471381D01*
X9283700Y21588608D01*
X9303385Y21655647D01*
X9356189Y21701402D01*
X9373972Y21707933D01*
X9406378Y21717090D01*
X9467701Y21750575D01*
X9515254Y21786173D01*
X9567554Y21838473D01*
X9582485Y21855095D01*
X9599119Y21875737D01*
X9599122Y21875745D01*
X9602457Y21880832D01*
X9602697Y21880675D01*
X9607464Y21888242D01*
X9608192Y21889213D01*
X9622161Y21919799D01*
X9636873Y21947929D01*
X9637635Y21950526D01*
X9636366Y21950899D01*
X9645063Y21969939D01*
X9649062Y21988329D01*
X9651246Y21996882D01*
X9656545Y22014925D01*
X9665000Y22073727D01*
X9665000Y22147990D01*
X9684685Y22215029D01*
X9701314Y22235666D01*
X9730394Y22264745D01*
X9758390Y22299485D01*
X9758396Y22299494D01*
X9786883Y22343819D01*
X9792417Y22352932D01*
X9792418Y22352935D01*
X9808762Y22406570D01*
X9819491Y22441779D01*
X9824475Y22511471D01*
X9824736Y22536997D01*
X9799478Y22626378D01*
X9780512Y22661111D01*
X9765662Y22729382D01*
X9790079Y22794846D01*
X9846013Y22836717D01*
X9915705Y22841701D01*
X9975825Y22809402D01*
G37*
%TD.AperFunction*%
%TA.AperFunction,Conductor*%
G36*
X36734339Y31821615D02*
G01*
X36780094Y31768811D01*
X36791300Y31717300D01*
X36791300Y29050888D01*
X36771615Y28983849D01*
X36718811Y28938094D01*
X36699398Y28931115D01*
X36681018Y28926190D01*
X36655577Y28919373D01*
X36655576Y28919372D01*
X36540724Y28853063D01*
X36540719Y28853059D01*
X36446941Y28759281D01*
X36446937Y28759276D01*
X36378729Y28641135D01*
X36328162Y28592919D01*
X36259555Y28579696D01*
X36194690Y28605664D01*
X36163955Y28641135D01*
X36162058Y28644421D01*
X36152658Y28660702D01*
X36077495Y28735865D01*
X35985440Y28789013D01*
X35882765Y28816524D01*
X35776469Y28816524D01*
X35673794Y28789013D01*
X35673792Y28789012D01*
X35673791Y28789012D01*
X35581742Y28735867D01*
X35581736Y28735863D01*
X35506578Y28660705D01*
X35506574Y28660699D01*
X35453429Y28568650D01*
X35453429Y28568649D01*
X35453428Y28568647D01*
X35425917Y28465972D01*
X35425917Y28359676D01*
X35453428Y28257001D01*
X35506576Y28164946D01*
X35506578Y28164944D01*
X35509304Y28160223D01*
X35525917Y28098222D01*
X35525917Y21806776D01*
X35506232Y21739737D01*
X35489598Y21719095D01*
X35215522Y21445019D01*
X35188594Y21430316D01*
X35162776Y21413723D01*
X35156575Y21412832D01*
X35154199Y21411534D01*
X35127841Y21408700D01*
X35116700Y21408700D01*
X35055342Y21424946D01*
X35015313Y21447740D01*
X35015310Y21447741D01*
X35015305Y21447744D01*
X34949309Y21470585D01*
X34949273Y21470596D01*
X34924694Y21477451D01*
X34924693Y21477451D01*
X34878257Y21476819D01*
X34831821Y21476186D01*
X34763924Y21459714D01*
X34708770Y21437633D01*
X34708769Y21437632D01*
X34689403Y21426451D01*
X34659506Y21414067D01*
X34659501Y21414065D01*
X34641443Y21409226D01*
X34609347Y21405000D01*
X34590653Y21405000D01*
X34558557Y21409226D01*
X34540499Y21414065D01*
X34510595Y21426452D01*
X34466360Y21451991D01*
X34466356Y21451993D01*
X34466352Y21451995D01*
X34466350Y21451996D01*
X34420796Y21471503D01*
X34420793Y21471504D01*
X34420786Y21471507D01*
X34420787Y21471507D01*
X34364716Y21487970D01*
X34364701Y21487974D01*
X34364697Y21487975D01*
X34349570Y21491809D01*
X34349569Y21491809D01*
X34256697Y21490546D01*
X34188799Y21474075D01*
X34133647Y21451995D01*
X34089406Y21426452D01*
X34059506Y21414067D01*
X34041446Y21409227D01*
X34009347Y21405000D01*
X33990653Y21405000D01*
X33958559Y21409225D01*
X33940499Y21414065D01*
X33910597Y21426450D01*
X33853401Y21459472D01*
X33853395Y21459475D01*
X33853390Y21459478D01*
X33807863Y21478973D01*
X33807857Y21478975D01*
X33807848Y21478979D01*
X33764154Y21491809D01*
X33751738Y21495455D01*
X33736618Y21499286D01*
X33736617Y21499286D01*
X33643745Y21498023D01*
X33578783Y21482263D01*
X33575844Y21481550D01*
X33520695Y21459471D01*
X33520694Y21459470D01*
X33488663Y21440977D01*
X33458763Y21428592D01*
X33458761Y21428591D01*
X33440703Y21423752D01*
X33408607Y21419526D01*
X33389913Y21419526D01*
X33357816Y21423752D01*
X33339755Y21428592D01*
X33309853Y21440979D01*
X33278567Y21459042D01*
X33278547Y21459052D01*
X33233003Y21478555D01*
X33233000Y21478556D01*
X33176904Y21495027D01*
X33161777Y21498860D01*
X33161775Y21498860D01*
X33124626Y21498355D01*
X33068900Y21497596D01*
X33001009Y21481125D01*
X33000993Y21481120D01*
X32980825Y21473049D01*
X32980761Y21473023D01*
X32945911Y21459076D01*
X32943585Y21457734D01*
X32943533Y21457690D01*
X32943528Y21457698D01*
X32942771Y21457261D01*
X32942747Y21457251D01*
X32938843Y21454999D01*
X32938765Y21454949D01*
X32889405Y21426452D01*
X32859507Y21414067D01*
X32841448Y21409227D01*
X32809348Y21405000D01*
X32790651Y21405000D01*
X32758559Y21409225D01*
X32740497Y21414065D01*
X32710593Y21426451D01*
X32710591Y21426452D01*
X32694403Y21435799D01*
X32668721Y21455506D01*
X32646415Y21477813D01*
X32644427Y21481454D01*
X32625673Y21498706D01*
X32625673Y21498707D01*
X32623763Y21500464D01*
X32618785Y21505442D01*
X32615489Y21508075D01*
X32612309Y21511000D01*
X32612306Y21511003D01*
X32587358Y21533954D01*
X32585974Y21535216D01*
X32552323Y21554039D01*
X32504909Y21580561D01*
X32504904Y21580563D01*
X32504899Y21580565D01*
X32497763Y21582660D01*
X32438985Y21620435D01*
X32409962Y21683992D01*
X32408700Y21701636D01*
X32408700Y22171457D01*
X32417237Y22200533D01*
X32423492Y22230191D01*
X32426985Y22233729D01*
X32428385Y22238496D01*
X32451281Y22258336D01*
X32472582Y22279909D01*
X32478459Y22281886D01*
X32481189Y22284251D01*
X32505572Y22292453D01*
X32524191Y22296628D01*
X32524350Y22295531D01*
X32544634Y22298447D01*
X32562634Y22305161D01*
X32565584Y22305775D01*
X32569921Y22307452D01*
X32569920Y22307453D01*
X32600427Y22319248D01*
X32601697Y22319731D01*
X32627775Y22329457D01*
X32627785Y22329464D01*
X32629521Y22330332D01*
X32648506Y22337952D01*
X32649434Y22338238D01*
X32710592Y22373550D01*
X32740498Y22385937D01*
X32758567Y22390778D01*
X32790650Y22395000D01*
X32809349Y22395000D01*
X32841442Y22390775D01*
X32859502Y22385936D01*
X32889408Y22373548D01*
X32925117Y22352932D01*
X32933651Y22348005D01*
X32979203Y22328498D01*
X33035301Y22312026D01*
X33050429Y22308192D01*
X33143301Y22309455D01*
X33211201Y22325927D01*
X33266350Y22348005D01*
X33310597Y22373552D01*
X33340498Y22385937D01*
X33358561Y22390777D01*
X33390648Y22395000D01*
X33409349Y22395000D01*
X33441442Y22390775D01*
X33459502Y22385936D01*
X33489408Y22373548D01*
X33525117Y22352932D01*
X33533651Y22348005D01*
X33579203Y22328498D01*
X33635301Y22312026D01*
X33650429Y22308192D01*
X33743301Y22309455D01*
X33811201Y22325927D01*
X33866350Y22348005D01*
X33910597Y22373552D01*
X33940498Y22385937D01*
X33958561Y22390777D01*
X33990648Y22395000D01*
X34009349Y22395000D01*
X34041442Y22390775D01*
X34059502Y22385936D01*
X34089408Y22373548D01*
X34125117Y22352932D01*
X34133651Y22348005D01*
X34179203Y22328498D01*
X34235301Y22312026D01*
X34250429Y22308192D01*
X34343301Y22309455D01*
X34411201Y22325927D01*
X34466350Y22348005D01*
X34510597Y22373552D01*
X34540498Y22385937D01*
X34558561Y22390777D01*
X34590648Y22395000D01*
X34682580Y22395000D01*
X34688606Y22396106D01*
X34690754Y22396428D01*
X34690756Y22396428D01*
X34758447Y22406574D01*
X34782212Y22411564D01*
X34864181Y22455243D01*
X34916985Y22500998D01*
X34935218Y22518863D01*
X34969958Y22580970D01*
X35019862Y22629866D01*
X35064181Y22653481D01*
X35116985Y22699236D01*
X35135218Y22717101D01*
X35139185Y22724192D01*
X35154108Y22750872D01*
X35180561Y22798162D01*
X35200246Y22865201D01*
X35208700Y22924000D01*
X35208700Y23276000D01*
X35203930Y23320364D01*
X35192724Y23371875D01*
X35190198Y23382212D01*
X35146519Y23464181D01*
X35100764Y23516985D01*
X35100755Y23516994D01*
X35100748Y23517002D01*
X35082901Y23535216D01*
X35082894Y23535222D01*
X35014908Y23573250D01*
X35001838Y23580561D01*
X34960273Y23592766D01*
X34934800Y23600246D01*
X34934792Y23600248D01*
X34876001Y23608700D01*
X34876000Y23608700D01*
X34033878Y23608700D01*
X33966839Y23628385D01*
X33921084Y23681189D01*
X33911140Y23750347D01*
X33923630Y23786435D01*
X33923077Y23786664D01*
X33926183Y23794168D01*
X33926189Y23794177D01*
X33953700Y23896852D01*
X33953700Y24003148D01*
X33926189Y24105823D01*
X33873041Y24197878D01*
X33797878Y24273041D01*
X33705823Y24326189D01*
X33603148Y24353700D01*
X33496852Y24353700D01*
X33394177Y24326189D01*
X33394175Y24326188D01*
X33394174Y24326188D01*
X33302125Y24273043D01*
X33302119Y24273039D01*
X33226961Y24197881D01*
X33226957Y24197875D01*
X33173812Y24105826D01*
X33173812Y24105825D01*
X33173811Y24105823D01*
X33159331Y24051780D01*
X33146300Y24003148D01*
X33146300Y23948208D01*
X33126615Y23881169D01*
X33073811Y23835414D01*
X33004653Y23825470D01*
X32941097Y23854495D01*
X32934619Y23860527D01*
X32645019Y24150127D01*
X32611534Y24211450D01*
X32608700Y24237808D01*
X32608700Y28353148D01*
X33096300Y28353148D01*
X33096300Y28246852D01*
X33123811Y28144177D01*
X33154687Y28090698D01*
X33171300Y28028699D01*
X33171300Y26006639D01*
X33161860Y25959184D01*
X33160466Y25955821D01*
X33132957Y25853150D01*
X33132957Y25853148D01*
X33132957Y25746852D01*
X33160468Y25644177D01*
X33213616Y25552122D01*
X33288779Y25476959D01*
X33380834Y25423811D01*
X33483509Y25396300D01*
X33483511Y25396300D01*
X33589803Y25396300D01*
X33589805Y25396300D01*
X33692480Y25423811D01*
X33784535Y25476959D01*
X33859698Y25552122D01*
X33912846Y25644177D01*
X33940357Y25746852D01*
X33940357Y25853148D01*
X33912846Y25955823D01*
X33859698Y26047878D01*
X33859692Y26047884D01*
X33854751Y26054324D01*
X33857459Y26056403D01*
X33850315Y26069485D01*
X33833723Y26095303D01*
X33832831Y26101504D01*
X33831534Y26103880D01*
X33828700Y26130238D01*
X33828700Y26233690D01*
X34196299Y26233690D01*
X34230627Y26105578D01*
X34230628Y26105577D01*
X34296937Y25990725D01*
X34296939Y25990722D01*
X34296940Y25990721D01*
X34390721Y25896940D01*
X34390722Y25896939D01*
X34390724Y25896938D01*
X34429051Y25874810D01*
X34505579Y25830627D01*
X34633687Y25796300D01*
X34633690Y25796300D01*
X34766310Y25796300D01*
X34766313Y25796300D01*
X34894421Y25830627D01*
X35009279Y25896940D01*
X35103060Y25990721D01*
X35169373Y26105579D01*
X35203700Y26233687D01*
X35203700Y26366313D01*
X35169373Y26494421D01*
X35136216Y26551850D01*
X35103062Y26609276D01*
X35103058Y26609281D01*
X35009280Y26703059D01*
X35009275Y26703063D01*
X34894423Y26769372D01*
X34894422Y26769373D01*
X34823403Y26788403D01*
X34766313Y26803700D01*
X34766312Y26803700D01*
X34761677Y26804942D01*
X34755162Y26806238D01*
X34667802Y26829645D01*
X34561506Y26829645D01*
X34458831Y26802134D01*
X34458829Y26802133D01*
X34458828Y26802133D01*
X34366779Y26748988D01*
X34366773Y26748984D01*
X34291615Y26673826D01*
X34291611Y26673820D01*
X34238466Y26581771D01*
X34238466Y26581770D01*
X34238465Y26581768D01*
X34228335Y26543960D01*
X34210954Y26479093D01*
X34210954Y26437328D01*
X34206729Y26405236D01*
X34196300Y26366315D01*
X34196300Y26233690D01*
X34196299Y26233690D01*
X33828700Y26233690D01*
X33828700Y28028699D01*
X33845312Y28090698D01*
X33876189Y28144177D01*
X33903700Y28246852D01*
X33903700Y28353148D01*
X33876189Y28455823D01*
X33823041Y28547878D01*
X33747878Y28623041D01*
X33655823Y28676189D01*
X33553148Y28703700D01*
X33446852Y28703700D01*
X33344177Y28676189D01*
X33344175Y28676188D01*
X33344174Y28676188D01*
X33252125Y28623043D01*
X33252119Y28623039D01*
X33176961Y28547881D01*
X33176957Y28547875D01*
X33123812Y28455826D01*
X33123812Y28455825D01*
X33123811Y28455823D01*
X33096300Y28353148D01*
X32608700Y28353148D01*
X32608700Y29403148D01*
X33096300Y29403148D01*
X33096300Y29296852D01*
X33123811Y29194177D01*
X33123812Y29194176D01*
X33123812Y29194175D01*
X33129746Y29183897D01*
X33176959Y29102122D01*
X33252122Y29026959D01*
X33344177Y28973811D01*
X33446852Y28946300D01*
X33553148Y28946300D01*
X33655823Y28973811D01*
X33747878Y29026959D01*
X33823041Y29102122D01*
X33876189Y29194177D01*
X33903700Y29296852D01*
X33903700Y29403148D01*
X33876189Y29505823D01*
X33823041Y29597878D01*
X33747878Y29673041D01*
X33655823Y29726189D01*
X33553148Y29753700D01*
X33446852Y29753700D01*
X33344177Y29726189D01*
X33344175Y29726188D01*
X33344174Y29726188D01*
X33252125Y29673043D01*
X33252119Y29673039D01*
X33176961Y29597881D01*
X33176957Y29597875D01*
X33123812Y29505826D01*
X33123812Y29505825D01*
X33123811Y29505823D01*
X33096300Y29403148D01*
X32608700Y29403148D01*
X32608700Y29812193D01*
X32628385Y29879232D01*
X32645019Y29899874D01*
X33128835Y30383690D01*
X33996299Y30383690D01*
X34030627Y30255578D01*
X34030628Y30255577D01*
X34096937Y30140725D01*
X34096939Y30140722D01*
X34096940Y30140721D01*
X34190721Y30046940D01*
X34190722Y30046939D01*
X34190724Y30046938D01*
X34195084Y30044421D01*
X34305579Y29980627D01*
X34433687Y29946300D01*
X34433690Y29946300D01*
X34566310Y29946300D01*
X34566313Y29946300D01*
X34694421Y29980627D01*
X34809279Y30046940D01*
X34903060Y30140721D01*
X34969373Y30255579D01*
X35003700Y30383687D01*
X35003700Y30516313D01*
X34969373Y30644421D01*
X34933370Y30706781D01*
X34903062Y30759276D01*
X34903058Y30759281D01*
X34809280Y30853059D01*
X34809275Y30853063D01*
X34694423Y30919372D01*
X34694422Y30919373D01*
X34662394Y30927955D01*
X34566313Y30953700D01*
X34433687Y30953700D01*
X34356822Y30933104D01*
X34305577Y30919373D01*
X34305576Y30919372D01*
X34190724Y30853063D01*
X34190719Y30853059D01*
X34096941Y30759281D01*
X34096937Y30759276D01*
X34030628Y30644424D01*
X34030627Y30644423D01*
X34017147Y30594115D01*
X33996300Y30516313D01*
X33996300Y30516311D01*
X33996300Y30383690D01*
X33996299Y30383690D01*
X33128835Y30383690D01*
X34550126Y31804981D01*
X34611449Y31838466D01*
X34637807Y31841300D01*
X36667300Y31841300D01*
X36734339Y31821615D01*
G37*
%TD.AperFunction*%
%TA.AperFunction,Conductor*%
G36*
X8218327Y22080885D02*
G01*
X8237542Y22080444D01*
X8251161Y22071244D01*
X8266928Y22066614D01*
X8279511Y22052092D01*
X8295439Y22041332D01*
X8311205Y22015516D01*
X8312683Y22013810D01*
X8313307Y22012074D01*
X8313834Y22011211D01*
X8317355Y22003007D01*
X8324943Y21974690D01*
X8342752Y21943844D01*
X8345647Y21937100D01*
X8348983Y21909404D01*
X8355562Y21882287D01*
X8353104Y21875188D01*
X8354003Y21867732D01*
X8344086Y21835786D01*
X8322890Y21790330D01*
X8322889Y21790324D01*
X8316301Y21740283D01*
X8316300Y21740266D01*
X8316300Y21590462D01*
X8306915Y21558504D01*
X8298399Y21526282D01*
X8297107Y21525100D01*
X8296615Y21523423D01*
X8271460Y21501627D01*
X8246858Y21479109D01*
X8244757Y21478489D01*
X8243811Y21477668D01*
X8213276Y21468249D01*
X8210154Y21467714D01*
X8160253Y21461747D01*
X8133269Y21454517D01*
X8127654Y21453553D01*
X8123720Y21454010D01*
X8106678Y21451766D01*
X8087982Y21451766D01*
X8055890Y21455991D01*
X8037828Y21460831D01*
X8007924Y21473217D01*
X8006438Y21474075D01*
X7991734Y21482565D01*
X7966054Y21502270D01*
X7952833Y21515491D01*
X7933126Y21541174D01*
X7923782Y21557359D01*
X7911394Y21587268D01*
X7906555Y21605330D01*
X7902331Y21637419D01*
X7902331Y21656115D01*
X7906555Y21688203D01*
X7911394Y21706266D01*
X7923782Y21736176D01*
X7949961Y21781517D01*
X7959091Y21797329D01*
X7959091Y21797330D01*
X7959093Y21797333D01*
X7977788Y21840188D01*
X7977788Y21840200D01*
X7978065Y21841309D01*
X7984156Y21859634D01*
X7986894Y21866132D01*
X7987483Y21867732D01*
X7993569Y21884286D01*
X8000774Y21972404D01*
X8025857Y22037616D01*
X8082214Y22078916D01*
X8124362Y22086299D01*
X8199889Y22086299D01*
X8218327Y22080885D01*
G37*
%TD.AperFunction*%
%TA.AperFunction,Conductor*%
G36*
X9954838Y23793384D02*
G01*
X9958810Y23791532D01*
X9994090Y23766829D01*
X9996827Y23764092D01*
X10021524Y23728826D01*
X10023378Y23724851D01*
X10035000Y23672436D01*
X10035000Y23327566D01*
X10032558Y23316557D01*
X10033592Y23308936D01*
X10023378Y23275152D01*
X10020636Y23269273D01*
X10003877Y23242738D01*
X9979669Y23213420D01*
X9953333Y23174508D01*
X9950240Y23169801D01*
X9918971Y23082352D01*
X9918968Y23082342D01*
X9911878Y23023041D01*
X9910674Y23012968D01*
X9910210Y23004942D01*
X9909684Y22995857D01*
X9886158Y22930067D01*
X9830798Y22887439D01*
X9761181Y22881509D01*
X9699409Y22914158D01*
X9665094Y22975021D01*
X9662602Y22989766D01*
X9661430Y23000665D01*
X9660970Y23004942D01*
X9636637Y23082651D01*
X9603152Y23143974D01*
X9603150Y23143977D01*
X9567560Y23191520D01*
X9567544Y23191538D01*
X9515258Y23243823D01*
X9515254Y23243827D01*
X9480514Y23271823D01*
X9480508Y23271827D01*
X9480503Y23271831D01*
X9440798Y23297348D01*
X9439476Y23298198D01*
X9431496Y23303614D01*
X9430600Y23303903D01*
X9424525Y23307807D01*
X9419950Y23308018D01*
X9378707Y23320587D01*
X9376937Y23321141D01*
X9369782Y23323439D01*
X9311973Y23362680D01*
X9284557Y23426946D01*
X9283700Y23441499D01*
X9283700Y23558608D01*
X9303385Y23625647D01*
X9356189Y23671402D01*
X9373972Y23677933D01*
X9406378Y23687090D01*
X9467701Y23720575D01*
X9515256Y23756174D01*
X9525914Y23766832D01*
X9530107Y23769769D01*
X9531657Y23772222D01*
X9561196Y23791537D01*
X9565155Y23793383D01*
X9617557Y23805000D01*
X9902437Y23805000D01*
X9954838Y23793384D01*
G37*
%TD.AperFunction*%
%TA.AperFunction,Conductor*%
G36*
X13341438Y23890777D02*
G01*
X13359500Y23885937D01*
X13389407Y23873549D01*
X13405592Y23864205D01*
X13431275Y23844498D01*
X13444496Y23831277D01*
X13464200Y23805599D01*
X13472790Y23790721D01*
X13473547Y23789411D01*
X13485935Y23759506D01*
X13488849Y23748629D01*
X13490775Y23741444D01*
X13495000Y23709350D01*
X13495000Y23690652D01*
X13490775Y23658560D01*
X13487755Y23647288D01*
X13485936Y23640499D01*
X13473547Y23610591D01*
X13464201Y23594404D01*
X13444496Y23568725D01*
X13431277Y23555506D01*
X13405600Y23535802D01*
X13368132Y23514169D01*
X13332109Y23487865D01*
X13332095Y23487854D01*
X13293102Y23452405D01*
X13285407Y23445043D01*
X13278763Y23434388D01*
X13226584Y23387921D01*
X13162347Y23376514D01*
X13151741Y23377476D01*
X13118865Y23386285D01*
X13054625Y23386285D01*
X13049035Y23386792D01*
X13021546Y23397646D01*
X12993197Y23405970D01*
X12989417Y23410332D01*
X12984047Y23412452D01*
X12966788Y23436448D01*
X12947442Y23458774D01*
X12946016Y23465327D01*
X12943250Y23469173D01*
X12942637Y23480858D01*
X12936236Y23510285D01*
X12936236Y23569602D01*
X12955921Y23636641D01*
X12996783Y23676137D01*
X13045216Y23704983D01*
X13095784Y23753198D01*
X13132507Y23799894D01*
X13135797Y23805594D01*
X13155501Y23831276D01*
X13168723Y23844499D01*
X13194393Y23864196D01*
X13210598Y23873552D01*
X13240497Y23885936D01*
X13258567Y23890778D01*
X13290652Y23895000D01*
X13309348Y23895000D01*
X13341438Y23890777D01*
G37*
%TD.AperFunction*%
%TA.AperFunction,Conductor*%
G36*
X16395241Y35204815D02*
G01*
X16440996Y35152011D01*
X16452202Y35100254D01*
X16448211Y33087394D01*
X16428393Y33020394D01*
X16375499Y32974744D01*
X16350573Y32966475D01*
X16328140Y32961595D01*
X16322158Y32960133D01*
X16317788Y32959065D01*
X16276803Y32937226D01*
X16235818Y32915386D01*
X16183018Y32869634D01*
X16182998Y32869616D01*
X16164784Y32851769D01*
X16164778Y32851762D01*
X16119441Y32770709D01*
X16119438Y32770702D01*
X16099754Y32703668D01*
X16099752Y32703660D01*
X16091300Y32644869D01*
X16091300Y31280140D01*
X16087022Y31264385D01*
X16087607Y31250103D01*
X16077398Y31228940D01*
X16074272Y31217426D01*
X16069976Y31210100D01*
X16069455Y31209578D01*
X16055477Y31185369D01*
X16055227Y31184941D01*
X16030084Y31161286D01*
X16005072Y31137438D01*
X16004651Y31137357D01*
X16004339Y31137063D01*
X15970361Y31130750D01*
X15936465Y31124217D01*
X15936067Y31124377D01*
X15935646Y31124298D01*
X15903654Y31137353D01*
X15871601Y31150186D01*
X15871269Y31150569D01*
X15870955Y31150697D01*
X15870086Y31151934D01*
X15840867Y31185657D01*
X15833812Y31197878D01*
X15758649Y31273041D01*
X15666596Y31326188D01*
X15666597Y31326188D01*
X15666594Y31326189D01*
X15600606Y31343870D01*
X15540946Y31380236D01*
X15510417Y31443083D01*
X15508700Y31463645D01*
X15508700Y32598639D01*
X15508625Y32600033D01*
X15507504Y32620949D01*
X15504670Y32647307D01*
X15480337Y32725016D01*
X15446852Y32786339D01*
X15446850Y32786342D01*
X15411260Y32833885D01*
X15411252Y32833894D01*
X15397573Y32847573D01*
X15393377Y32851769D01*
X15383896Y32861251D01*
X15367291Y32876167D01*
X15367277Y32876179D01*
X15346628Y32892820D01*
X15274478Y32930560D01*
X15274475Y32930562D01*
X15207438Y32950246D01*
X15207430Y32950248D01*
X15148639Y32958700D01*
X15148638Y32958700D01*
X12846070Y32958700D01*
X12779031Y32978385D01*
X12733276Y33031189D01*
X12723332Y33100347D01*
X12741553Y33143596D01*
X12738977Y33145083D01*
X12743041Y33152122D01*
X12796189Y33244177D01*
X12823700Y33346852D01*
X12823700Y33453148D01*
X12796189Y33555823D01*
X12743041Y33647878D01*
X12667878Y33723041D01*
X12575823Y33776189D01*
X12473148Y33803700D01*
X12366852Y33803700D01*
X12264177Y33776189D01*
X12264175Y33776188D01*
X12264174Y33776188D01*
X12167397Y33720313D01*
X12105397Y33703700D01*
X11360014Y33703700D01*
X11282778Y33683006D01*
X11282774Y33683004D01*
X11275321Y33678700D01*
X11275320Y33678701D01*
X11213530Y33643026D01*
X11213521Y33643019D01*
X11156977Y33586474D01*
X10815381Y33244879D01*
X10754058Y33211394D01*
X10684366Y33216378D01*
X10628433Y33258250D01*
X10605340Y33320165D01*
X10604761Y33320088D01*
X10604429Y33322606D01*
X10604016Y33323714D01*
X10603916Y33326503D01*
X10603700Y33328141D01*
X10603700Y33328148D01*
X10576189Y33430823D01*
X10523041Y33522878D01*
X10447878Y33598041D01*
X10369974Y33643019D01*
X10355825Y33651188D01*
X10355824Y33651189D01*
X10355823Y33651189D01*
X10253148Y33678700D01*
X10146852Y33678700D01*
X10044177Y33651189D01*
X10044175Y33651188D01*
X10044174Y33651188D01*
X9952125Y33598043D01*
X9952119Y33598039D01*
X9912681Y33558600D01*
X9851358Y33525115D01*
X9781666Y33530099D01*
X9737319Y33558600D01*
X9697880Y33598039D01*
X9697878Y33598041D01*
X9619974Y33643019D01*
X9605825Y33651188D01*
X9605824Y33651189D01*
X9605823Y33651189D01*
X9503148Y33678700D01*
X9396852Y33678700D01*
X9294177Y33651189D01*
X9294175Y33651188D01*
X9294174Y33651188D01*
X9202125Y33598043D01*
X9202119Y33598039D01*
X9126961Y33522881D01*
X9126957Y33522875D01*
X9073812Y33430826D01*
X9073812Y33430825D01*
X9073811Y33430823D01*
X9046300Y33328148D01*
X9046300Y33221852D01*
X9073811Y33119177D01*
X9073812Y33119176D01*
X9073812Y33119175D01*
X9087019Y33096300D01*
X9126959Y33027122D01*
X9202122Y32951959D01*
X9294177Y32898811D01*
X9396852Y32871300D01*
X9396854Y32871300D01*
X9503146Y32871300D01*
X9503148Y32871300D01*
X9605823Y32898811D01*
X9697878Y32951959D01*
X9737319Y32991400D01*
X9798642Y33024885D01*
X9868334Y33019901D01*
X9912681Y32991400D01*
X9952122Y32951959D01*
X10044177Y32898811D01*
X10146852Y32871300D01*
X10146854Y32871300D01*
X10253143Y32871300D01*
X10253148Y32871300D01*
X10253152Y32871302D01*
X10256196Y32871702D01*
X10258774Y32871300D01*
X10261275Y32871300D01*
X10261275Y32870911D01*
X10325232Y32860938D01*
X10377489Y32814560D01*
X10396146Y32748110D01*
X10396300Y32748110D01*
X10396300Y32747562D01*
X10396376Y32747291D01*
X10396300Y32746217D01*
X10396300Y31625209D01*
X10376615Y31558170D01*
X10324707Y31512828D01*
X10309821Y31505887D01*
X10224114Y31420180D01*
X10172891Y31310332D01*
X10172889Y31310324D01*
X10166301Y31260283D01*
X10166300Y31260266D01*
X10166300Y30839735D01*
X10166301Y30839718D01*
X10172889Y30789677D01*
X10172891Y30789669D01*
X10202560Y30726044D01*
X10224114Y30679821D01*
X10309821Y30594114D01*
X10419672Y30542890D01*
X10469728Y30536300D01*
X10469747Y30536300D01*
X10473778Y30536035D01*
X10473672Y30534429D01*
X10534339Y30516615D01*
X10580094Y30463811D01*
X10591300Y30412300D01*
X10591300Y29937809D01*
X10571615Y29870770D01*
X10554981Y29850128D01*
X9888751Y29183898D01*
X9888749Y29183897D01*
X9873833Y29167292D01*
X9873821Y29167278D01*
X9857180Y29146629D01*
X9819440Y29074479D01*
X9819438Y29074476D01*
X9799754Y29007439D01*
X9799752Y29007431D01*
X9791300Y28948640D01*
X9791300Y27137389D01*
X9771615Y27070350D01*
X9755173Y27049900D01*
X7749637Y25035680D01*
X7688390Y25002064D01*
X7661770Y24999173D01*
X5669868Y24999173D01*
X5602829Y25018858D01*
X5557074Y25071662D01*
X5550094Y25091076D01*
X5548095Y25098535D01*
X5548094Y25098537D01*
X5485495Y25206964D01*
X5396964Y25295495D01*
X5288536Y25358095D01*
X5288537Y25358095D01*
X5248224Y25368897D01*
X5167601Y25390500D01*
X5042399Y25390500D01*
X4961775Y25368897D01*
X4921463Y25358095D01*
X4813037Y25295496D01*
X4813034Y25295494D01*
X4724506Y25206966D01*
X4724504Y25206963D01*
X4661905Y25098537D01*
X4661904Y25098535D01*
X4659906Y25091076D01*
X4623539Y25031416D01*
X4560691Y25000889D01*
X4540132Y24999173D01*
X1053700Y24999173D01*
X986661Y25018858D01*
X940906Y25071662D01*
X929700Y25123173D01*
X929700Y25517300D01*
X949385Y25584339D01*
X1002189Y25630094D01*
X1053700Y25641300D01*
X1794310Y25641300D01*
X1794311Y25641301D01*
X1930262Y25668343D01*
X1995188Y25695236D01*
X2058323Y25721387D01*
X2058324Y25721388D01*
X2058327Y25721389D01*
X2173583Y25798400D01*
X2271600Y25896417D01*
X2348611Y26011673D01*
X2351144Y26017787D01*
X2376763Y26079638D01*
X2401657Y26139738D01*
X2407453Y26168875D01*
X2414603Y26204819D01*
X2446988Y26266730D01*
X2507704Y26301304D01*
X2536220Y26304627D01*
X2950143Y26304627D01*
X3049857Y26304627D01*
X4243780Y26304627D01*
X4310819Y26284942D01*
X4356574Y26232138D01*
X4365397Y26204819D01*
X4378341Y26139744D01*
X4378344Y26139734D01*
X4431386Y26011677D01*
X4508401Y25896415D01*
X4606414Y25798402D01*
X4721676Y25721387D01*
X4837172Y25673548D01*
X4849738Y25668343D01*
X4985687Y25641301D01*
X4985690Y25641300D01*
X4985692Y25641300D01*
X6224310Y25641300D01*
X6224311Y25641301D01*
X6360262Y25668343D01*
X6425188Y25695236D01*
X6488323Y25721387D01*
X6488324Y25721388D01*
X6488327Y25721389D01*
X6603583Y25798400D01*
X6701600Y25896417D01*
X6778611Y26011673D01*
X6781144Y26017787D01*
X6806763Y26079638D01*
X6831657Y26139738D01*
X6858700Y26275692D01*
X6858700Y26414308D01*
X6858700Y26414311D01*
X6858699Y26414313D01*
X6838017Y26518289D01*
X6831657Y26550262D01*
X6807213Y26609276D01*
X6778613Y26678324D01*
X6701598Y26793586D01*
X6603585Y26891599D01*
X6488323Y26968614D01*
X6360266Y27021656D01*
X6360254Y27021659D01*
X6224311Y27048700D01*
X6224308Y27048700D01*
X5382592Y27048700D01*
X5350499Y27052925D01*
X5316530Y27062027D01*
X5316529Y27062027D01*
X3540200Y27062027D01*
X3473161Y27081712D01*
X3427406Y27134516D01*
X3416200Y27186027D01*
X3416200Y27529508D01*
X3435885Y27596547D01*
X3443065Y27603148D01*
X7496300Y27603148D01*
X7496300Y27496852D01*
X7523811Y27394177D01*
X7576959Y27302122D01*
X7652122Y27226959D01*
X7744177Y27173811D01*
X7846852Y27146300D01*
X7846854Y27146300D01*
X7953146Y27146300D01*
X7953148Y27146300D01*
X8055823Y27173811D01*
X8147878Y27226959D01*
X8223041Y27302122D01*
X8276189Y27394177D01*
X8276191Y27394188D01*
X8278615Y27400038D01*
X8322451Y27454446D01*
X8388743Y27476518D01*
X8456444Y27459245D01*
X8504059Y27408113D01*
X8512954Y27384695D01*
X8523811Y27344177D01*
X8576959Y27252122D01*
X8652122Y27176959D01*
X8744177Y27123811D01*
X8846852Y27096300D01*
X8846854Y27096300D01*
X8953146Y27096300D01*
X8953148Y27096300D01*
X9055823Y27123811D01*
X9147878Y27176959D01*
X9223041Y27252122D01*
X9276189Y27344177D01*
X9303700Y27446852D01*
X9303700Y27553148D01*
X9276189Y27655823D01*
X9223041Y27747878D01*
X9147878Y27823041D01*
X9061279Y27873039D01*
X9055825Y27876188D01*
X9055824Y27876189D01*
X9055823Y27876189D01*
X8953148Y27903700D01*
X8846852Y27903700D01*
X8744177Y27876189D01*
X8744175Y27876188D01*
X8744174Y27876188D01*
X8652125Y27823043D01*
X8652119Y27823039D01*
X8576961Y27747881D01*
X8576957Y27747875D01*
X8523812Y27655826D01*
X8521380Y27649953D01*
X8477539Y27595549D01*
X8411245Y27573483D01*
X8343546Y27590762D01*
X8295935Y27641898D01*
X8287045Y27665307D01*
X8276189Y27705823D01*
X8223041Y27797878D01*
X8147878Y27873041D01*
X8059942Y27923811D01*
X8055825Y27926188D01*
X8055824Y27926189D01*
X8055823Y27926189D01*
X7953148Y27953700D01*
X7846852Y27953700D01*
X7744177Y27926189D01*
X7744175Y27926188D01*
X7744174Y27926188D01*
X7652125Y27873043D01*
X7652119Y27873039D01*
X7576961Y27797881D01*
X7576957Y27797875D01*
X7523812Y27705826D01*
X7523812Y27705825D01*
X7523811Y27705823D01*
X7496300Y27603148D01*
X3443065Y27603148D01*
X3482147Y27639079D01*
X3490412Y27643459D01*
X3564395Y27669346D01*
X3674438Y27750562D01*
X3755654Y27860605D01*
X3785640Y27946300D01*
X3800826Y27989697D01*
X3800826Y27989699D01*
X3803700Y28020347D01*
X3803699Y29379652D01*
X3800826Y29410301D01*
X3755654Y29539395D01*
X3715046Y29594417D01*
X3674438Y29649439D01*
X3570446Y29726188D01*
X3564395Y29730654D01*
X3564393Y29730655D01*
X3435302Y29775827D01*
X3404657Y29778700D01*
X2670353Y29778700D01*
X2653539Y29777124D01*
X2639699Y29775826D01*
X2639697Y29775826D01*
X2639693Y29775825D01*
X2510606Y29730655D01*
X2400561Y29649439D01*
X2319345Y29539394D01*
X2274173Y29410304D01*
X2274173Y29410302D01*
X2271300Y29379658D01*
X2271300Y28020354D01*
X2271301Y28020348D01*
X2274174Y27989699D01*
X2274174Y27989697D01*
X2274175Y27989694D01*
X2319345Y27860607D01*
X2400561Y27750562D01*
X2461178Y27705825D01*
X2510605Y27669346D01*
X2575755Y27646549D01*
X2632531Y27605828D01*
X2658278Y27540875D01*
X2658800Y27529508D01*
X2658800Y27186027D01*
X2639115Y27118988D01*
X2586311Y27073233D01*
X2534800Y27062027D01*
X1813185Y27062027D01*
X1713470Y27062027D01*
X1679499Y27052925D01*
X1647408Y27048700D01*
X1055689Y27048700D01*
X919745Y27021659D01*
X919733Y27021656D01*
X791676Y26968614D01*
X676414Y26891599D01*
X676413Y26891598D01*
X587181Y26802365D01*
X525858Y26768880D01*
X456166Y26773864D01*
X400233Y26815736D01*
X375816Y26881200D01*
X375500Y26890046D01*
X375500Y28353148D01*
X746300Y28353148D01*
X746300Y28246852D01*
X773811Y28144177D01*
X826959Y28052122D01*
X902122Y27976959D01*
X994177Y27923811D01*
X1096852Y27896300D01*
X1096854Y27896300D01*
X1203146Y27896300D01*
X1203148Y27896300D01*
X1305823Y27923811D01*
X1397878Y27976959D01*
X1473041Y28052122D01*
X1526189Y28144177D01*
X1553700Y28246852D01*
X1553700Y28353148D01*
X1526189Y28455823D01*
X1473041Y28547878D01*
X1397878Y28623041D01*
X1305823Y28676189D01*
X1203148Y28703700D01*
X1096852Y28703700D01*
X994177Y28676189D01*
X994175Y28676188D01*
X994174Y28676188D01*
X902125Y28623043D01*
X902119Y28623039D01*
X826961Y28547881D01*
X826957Y28547875D01*
X773812Y28455826D01*
X773812Y28455825D01*
X773811Y28455823D01*
X746300Y28353148D01*
X375500Y28353148D01*
X375500Y32263148D01*
X5371300Y32263148D01*
X5371300Y32156852D01*
X5384997Y32105730D01*
X5385902Y32094475D01*
X5386300Y32084546D01*
X5386300Y32035319D01*
X5386301Y32035302D01*
X5392793Y31985986D01*
X5392794Y31985985D01*
X5399374Y31971875D01*
X5443273Y31877733D01*
X5527733Y31793273D01*
X5635984Y31742795D01*
X5635985Y31742794D01*
X5645484Y31741544D01*
X5685312Y31736300D01*
X5685319Y31736300D01*
X6134681Y31736300D01*
X6134688Y31736300D01*
X6184014Y31742794D01*
X6292267Y31793273D01*
X6342319Y31843325D01*
X6403642Y31876810D01*
X6473334Y31871826D01*
X6517681Y31843325D01*
X6567733Y31793273D01*
X6675984Y31742795D01*
X6675985Y31742794D01*
X6685484Y31741544D01*
X6725312Y31736300D01*
X6725319Y31736300D01*
X7174681Y31736300D01*
X7174688Y31736300D01*
X7224014Y31742794D01*
X7332267Y31793273D01*
X7416727Y31877733D01*
X7467206Y31985986D01*
X7473700Y32035312D01*
X7473700Y32384688D01*
X7467206Y32434014D01*
X7416727Y32542267D01*
X7376675Y32582319D01*
X7343190Y32643642D01*
X7348174Y32713334D01*
X7376675Y32757681D01*
X7389703Y32770709D01*
X7416727Y32797733D01*
X7467206Y32905986D01*
X7473700Y32955312D01*
X7473700Y33304688D01*
X7467206Y33354014D01*
X7416727Y33462267D01*
X7332267Y33546727D01*
X7326675Y33552319D01*
X7293190Y33613642D01*
X7298174Y33683334D01*
X7326675Y33727681D01*
X7332267Y33733273D01*
X7416727Y33817733D01*
X7467206Y33925986D01*
X7473700Y33975312D01*
X7473700Y34324688D01*
X7467206Y34374014D01*
X7416727Y34482267D01*
X7332267Y34566727D01*
X7224015Y34617206D01*
X7224014Y34617207D01*
X7174698Y34623699D01*
X7174693Y34623700D01*
X7174688Y34623700D01*
X6725312Y34623700D01*
X6725306Y34623700D01*
X6725301Y34623699D01*
X6675985Y34617207D01*
X6675984Y34617206D01*
X6567732Y34566727D01*
X6541025Y34540019D01*
X6514097Y34525316D01*
X6488279Y34508723D01*
X6482078Y34507832D01*
X6479702Y34506534D01*
X6453344Y34503700D01*
X6396656Y34503700D01*
X6329617Y34523385D01*
X6308975Y34540019D01*
X6282267Y34566727D01*
X6174015Y34617206D01*
X6174014Y34617207D01*
X6124698Y34623699D01*
X6124693Y34623700D01*
X6124688Y34623700D01*
X5675312Y34623700D01*
X5675306Y34623700D01*
X5675301Y34623699D01*
X5625985Y34617207D01*
X5625984Y34617206D01*
X5517732Y34566727D01*
X5433273Y34482268D01*
X5382794Y34374016D01*
X5382793Y34374015D01*
X5376301Y34324699D01*
X5376300Y34324682D01*
X5376300Y33975319D01*
X5376301Y33975302D01*
X5382793Y33925986D01*
X5382794Y33925985D01*
X5433273Y33817733D01*
X5523325Y33727681D01*
X5556810Y33666358D01*
X5551826Y33596666D01*
X5523325Y33552319D01*
X5433273Y33462268D01*
X5382794Y33354016D01*
X5382793Y33354015D01*
X5376301Y33304699D01*
X5376300Y33304682D01*
X5376300Y32955319D01*
X5376301Y32955302D01*
X5382793Y32905986D01*
X5382794Y32905985D01*
X5433273Y32797733D01*
X5478325Y32752681D01*
X5511810Y32691358D01*
X5506826Y32621666D01*
X5478325Y32577319D01*
X5443273Y32542268D01*
X5392794Y32434016D01*
X5392793Y32434015D01*
X5386301Y32384699D01*
X5386300Y32384682D01*
X5386300Y32335455D01*
X5382075Y32303364D01*
X5372109Y32266171D01*
X5372109Y32266169D01*
X5371300Y32263148D01*
X375500Y32263148D01*
X375500Y33021250D01*
X375726Y33028737D01*
X381072Y33117118D01*
X391084Y33282641D01*
X392889Y33297500D01*
X394206Y33304682D01*
X438062Y33544005D01*
X441645Y33558539D01*
X453526Y33596666D01*
X516202Y33797798D01*
X521504Y33811781D01*
X624361Y34040321D01*
X631320Y34053579D01*
X658412Y34098394D01*
X760975Y34268054D01*
X769462Y34280350D01*
X924034Y34477646D01*
X933949Y34488837D01*
X1111163Y34666051D01*
X1122354Y34675966D01*
X1319650Y34830538D01*
X1331946Y34839025D01*
X1546421Y34968681D01*
X1559680Y34975639D01*
X1788219Y35078496D01*
X1802202Y35083798D01*
X2041467Y35158357D01*
X2055995Y35161938D01*
X2302506Y35207112D01*
X2317359Y35208916D01*
X2571264Y35224274D01*
X2578751Y35224500D01*
X2622595Y35224500D01*
X16328202Y35224500D01*
X16395241Y35204815D01*
G37*
%TD.AperFunction*%
%TD*%
%TA.AperFunction,Conductor*%
%TO.N,/Project Architecture/USB-PD Source Controller/T3T4DS*%
G36*
X19041423Y25771615D02*
G01*
X19087178Y25718811D01*
X19097122Y25649653D01*
X19068097Y25586097D01*
X19036384Y25559913D01*
X18952125Y25511266D01*
X18952119Y25511262D01*
X18876961Y25436104D01*
X18876957Y25436098D01*
X18823812Y25344049D01*
X18823812Y25344048D01*
X18823811Y25344046D01*
X18796300Y25241371D01*
X18796300Y25135075D01*
X18823811Y25032400D01*
X18876959Y24940345D01*
X18952122Y24865182D01*
X19044177Y24812034D01*
X19146852Y24784523D01*
X19146854Y24784523D01*
X19253146Y24784523D01*
X19253148Y24784523D01*
X19355823Y24812034D01*
X19447878Y24865182D01*
X19523041Y24940345D01*
X19576189Y25032400D01*
X19603700Y25135075D01*
X19603700Y25241371D01*
X19576189Y25344046D01*
X19523041Y25436101D01*
X19447878Y25511264D01*
X19404556Y25536276D01*
X19363616Y25559913D01*
X19315400Y25610480D01*
X19302178Y25679087D01*
X19328146Y25743952D01*
X19385060Y25784480D01*
X19425616Y25791300D01*
X20126000Y25791300D01*
X20193039Y25771615D01*
X20238794Y25718811D01*
X20250000Y25667300D01*
X20250000Y23207564D01*
X20230315Y23140525D01*
X20177511Y23094770D01*
X20126000Y23083564D01*
X17395265Y23083564D01*
X17328226Y23103249D01*
X17282471Y23156053D01*
X17272527Y23225211D01*
X17301552Y23288767D01*
X17307584Y23295245D01*
X17309279Y23296940D01*
X17403060Y23390721D01*
X17469373Y23505579D01*
X17503700Y23633687D01*
X17503700Y23766313D01*
X17469373Y23894421D01*
X17403060Y24009279D01*
X17309279Y24103060D01*
X17309278Y24103061D01*
X17309275Y24103063D01*
X17194423Y24169372D01*
X17194422Y24169373D01*
X17162394Y24177955D01*
X17066313Y24203700D01*
X16933687Y24203700D01*
X16856822Y24183104D01*
X16805577Y24169373D01*
X16805576Y24169372D01*
X16690724Y24103063D01*
X16690719Y24103059D01*
X16596941Y24009281D01*
X16596937Y24009276D01*
X16530628Y23894424D01*
X16530627Y23894423D01*
X16515735Y23838847D01*
X16496300Y23766313D01*
X16496300Y23633687D01*
X16523181Y23533367D01*
X16530627Y23505578D01*
X16530628Y23505577D01*
X16596937Y23390725D01*
X16596941Y23390720D01*
X16692416Y23295245D01*
X16725901Y23233922D01*
X16720917Y23164230D01*
X16679045Y23108297D01*
X16613581Y23083880D01*
X16604735Y23083564D01*
X16374000Y23083564D01*
X16306961Y23103249D01*
X16261206Y23156053D01*
X16250000Y23207564D01*
X16250000Y25667300D01*
X16269685Y25734339D01*
X16322489Y25780094D01*
X16374000Y25791300D01*
X18974384Y25791300D01*
X19041423Y25771615D01*
G37*
%TD.AperFunction*%
%TD*%
%TA.AperFunction,Conductor*%
%TO.N,/Project Architecture/USB-PD Source Controller/VBUS_MEA*%
G36*
X21464570Y28867365D02*
G01*
X21497428Y28805704D01*
X21500000Y28780582D01*
X21500000Y26124000D01*
X21480315Y26056961D01*
X21450000Y26030693D01*
X21450000Y28882235D01*
X21464570Y28867365D01*
G37*
%TD.AperFunction*%
%TA.AperFunction,Conductor*%
G36*
X16650000Y29600000D02*
G01*
X16300000Y29337500D01*
X16300000Y32644867D01*
X16319685Y32711906D01*
X16372489Y32757661D01*
X16424000Y32768867D01*
X16656281Y32768867D01*
X16656282Y32768867D01*
X16650000Y29600000D01*
G37*
%TD.AperFunction*%
%TD*%
%TA.AperFunction,Conductor*%
%TO.N,/Project Architecture/USB-PD Source Controller/V_PMIC_OUT*%
G36*
X17152689Y22980315D02*
G01*
X17174220Y22962783D01*
X17188363Y22948349D01*
X17188370Y22948343D01*
X17228896Y22925675D01*
X17269427Y22903003D01*
X17336466Y22883318D01*
X17336470Y22883318D01*
X17336472Y22883317D01*
X17345973Y22881952D01*
X17395265Y22874864D01*
X17395268Y22874864D01*
X20126000Y22874864D01*
X20193039Y22855179D01*
X20238794Y22802375D01*
X20250000Y22750864D01*
X20250000Y16301362D01*
X20230315Y16234323D01*
X20213681Y16213681D01*
X19786319Y15786319D01*
X19724996Y15752834D01*
X19698638Y15750000D01*
X18500000Y15750000D01*
X16801362Y15750000D01*
X16734323Y15769685D01*
X16713681Y15786319D01*
X16286319Y16213681D01*
X16252834Y16275004D01*
X16250000Y16301362D01*
X16250000Y22750864D01*
X16269685Y22817903D01*
X16322489Y22863658D01*
X16374000Y22874864D01*
X16604740Y22874864D01*
X16605303Y22874875D01*
X16612186Y22874997D01*
X16621032Y22875313D01*
X16686515Y22888339D01*
X16751979Y22912756D01*
X16775305Y22923122D01*
X16831165Y22970537D01*
X16854754Y22981020D01*
X16876473Y22994977D01*
X16890794Y22997037D01*
X16895013Y22998911D01*
X16911408Y23000000D01*
X17085650Y23000000D01*
X17152689Y22980315D01*
G37*
%TD.AperFunction*%
%TD*%
%TA.AperFunction,Conductor*%
%TO.N,/Project Architecture/Adjustable 5A Buck Converter/PMIC_VOUT*%
G36*
X27543039Y25780315D02*
G01*
X27588794Y25727511D01*
X27600000Y25676000D01*
X27600000Y23000000D01*
X28200000Y22400000D01*
X32076000Y22400000D01*
X32143039Y22380315D01*
X32188794Y22327511D01*
X32200000Y22276000D01*
X32200000Y21400000D01*
X32379071Y21400000D01*
X32446110Y21380315D01*
X32470875Y21357533D01*
X32471212Y21357869D01*
X32476959Y21352122D01*
X32552122Y21276959D01*
X32644177Y21223811D01*
X32746852Y21196300D01*
X32746854Y21196300D01*
X32853146Y21196300D01*
X32853148Y21196300D01*
X32955823Y21223811D01*
X33047878Y21276959D01*
X33047882Y21276964D01*
X33050208Y21278306D01*
X33118108Y21294779D01*
X33174208Y21278307D01*
X33243437Y21238337D01*
X33346112Y21210826D01*
X33346114Y21210826D01*
X33452406Y21210826D01*
X33452408Y21210826D01*
X33555083Y21238337D01*
X33625052Y21278734D01*
X33692949Y21295206D01*
X33749050Y21278733D01*
X33752121Y21276960D01*
X33752122Y21276959D01*
X33844177Y21223811D01*
X33946852Y21196300D01*
X33946854Y21196300D01*
X34053146Y21196300D01*
X34053148Y21196300D01*
X34155823Y21223811D01*
X34238000Y21271257D01*
X34305900Y21287729D01*
X34361999Y21271257D01*
X34444177Y21223811D01*
X34546852Y21196300D01*
X34546854Y21196300D01*
X34653146Y21196300D01*
X34653148Y21196300D01*
X34755823Y21223811D01*
X34813128Y21256897D01*
X34881027Y21273370D01*
X34947054Y21250518D01*
X34962809Y21237191D01*
X35000000Y21200000D01*
X36076000Y21200000D01*
X36143039Y21180315D01*
X36188794Y21127511D01*
X36200000Y21076000D01*
X36200000Y20524000D01*
X36180315Y20456961D01*
X36127511Y20411206D01*
X36076000Y20400000D01*
X32999999Y20400000D01*
X32800000Y20200001D01*
X32800000Y17051362D01*
X32780315Y16984323D01*
X32763681Y16963681D01*
X32436319Y16636319D01*
X32374996Y16602834D01*
X32348638Y16600000D01*
X31399999Y16600000D01*
X30636319Y15836319D01*
X30574996Y15802834D01*
X30548638Y15800000D01*
X23401362Y15800000D01*
X23334323Y15819685D01*
X23313681Y15836319D01*
X22836319Y16313681D01*
X22802834Y16375004D01*
X22800000Y16401362D01*
X22800000Y25676000D01*
X22819685Y25743039D01*
X22872489Y25788794D01*
X22924000Y25800000D01*
X27476000Y25800000D01*
X27543039Y25780315D01*
G37*
%TD.AperFunction*%
%TD*%
%TA.AperFunction,Conductor*%
%TO.N,+24V_FILTERED*%
G36*
X43093039Y35204815D02*
G01*
X43138794Y35152011D01*
X43150000Y35100500D01*
X43150000Y32332700D01*
X43130315Y32265661D01*
X43077511Y32219906D01*
X43026000Y32208700D01*
X37123992Y32208700D01*
X37079637Y32203931D01*
X37028118Y32192723D01*
X37020432Y32190845D01*
X37017788Y32190198D01*
X36976803Y32168359D01*
X36935818Y32146519D01*
X36883018Y32100767D01*
X36882998Y32100749D01*
X36867365Y32085430D01*
X36805704Y32052572D01*
X36780582Y32050000D01*
X34499999Y32050000D01*
X32400000Y29950001D01*
X32400000Y29950000D01*
X32400000Y24100000D01*
X33100000Y23400000D01*
X34876000Y23400000D01*
X34943039Y23380315D01*
X34988794Y23327511D01*
X35000000Y23276000D01*
X35000000Y22924000D01*
X34980315Y22856961D01*
X34927511Y22811206D01*
X34876000Y22800000D01*
X34800000Y22800000D01*
X34800000Y22725762D01*
X34780315Y22658723D01*
X34727511Y22612968D01*
X34659820Y22602822D01*
X34653149Y22603700D01*
X34653148Y22603700D01*
X34546852Y22603700D01*
X34444175Y22576189D01*
X34361999Y22528744D01*
X34294099Y22512272D01*
X34238001Y22528744D01*
X34155824Y22576189D01*
X34104485Y22589945D01*
X34053148Y22603700D01*
X33946852Y22603700D01*
X33844175Y22576189D01*
X33761999Y22528744D01*
X33694099Y22512272D01*
X33638001Y22528744D01*
X33555824Y22576189D01*
X33504485Y22589945D01*
X33453148Y22603700D01*
X33346852Y22603700D01*
X33244175Y22576189D01*
X33161999Y22528744D01*
X33094099Y22512272D01*
X33038001Y22528744D01*
X32955824Y22576189D01*
X32904485Y22589945D01*
X32853148Y22603700D01*
X32746852Y22603700D01*
X32644177Y22576189D01*
X32644175Y22576188D01*
X32644174Y22576188D01*
X32545083Y22518977D01*
X32543844Y22521122D01*
X32534165Y22517381D01*
X32514937Y22505023D01*
X32494653Y22502107D01*
X32490316Y22500430D01*
X32480002Y22500000D01*
X32369511Y22500000D01*
X32302472Y22519685D01*
X32289968Y22529867D01*
X32289942Y22529832D01*
X32282894Y22535222D01*
X32218948Y22570990D01*
X32201838Y22580561D01*
X32176843Y22587901D01*
X32134800Y22600246D01*
X32134792Y22600248D01*
X32076001Y22608700D01*
X32076000Y22608700D01*
X30098981Y22608700D01*
X30031942Y22628385D01*
X29986187Y22681189D01*
X29976243Y22750347D01*
X30005268Y22813903D01*
X30011300Y22820381D01*
X30043041Y22852122D01*
X30096189Y22944177D01*
X30123700Y23046852D01*
X30123700Y23153148D01*
X30096189Y23255823D01*
X30043041Y23347878D01*
X29967878Y23423041D01*
X29906508Y23458473D01*
X29875825Y23476188D01*
X29875824Y23476189D01*
X29875823Y23476189D01*
X29773148Y23503700D01*
X29666852Y23503700D01*
X29564177Y23476189D01*
X29564175Y23476188D01*
X29556327Y23474085D01*
X29555434Y23477416D01*
X29501571Y23471809D01*
X29439198Y23503295D01*
X29403749Y23563505D01*
X29400000Y23593764D01*
X29400000Y29350000D01*
X28836319Y29913681D01*
X28802834Y29975004D01*
X28800000Y30001362D01*
X28800000Y35100500D01*
X28819685Y35167539D01*
X28872489Y35213294D01*
X28924000Y35224500D01*
X43026000Y35224500D01*
X43093039Y35204815D01*
G37*
%TD.AperFunction*%
%TD*%
%TA.AperFunction,Conductor*%
%TO.N,/Project Architecture/USB-PD Source Controller/VBUS*%
G36*
X15263681Y32686319D02*
G01*
X15297166Y32624996D01*
X15300000Y32598638D01*
X15300000Y27332495D01*
X15297106Y27305862D01*
X15280672Y27231133D01*
X15250000Y27231133D01*
X15250000Y32700000D01*
X15263681Y32686319D01*
G37*
%TD.AperFunction*%
%TA.AperFunction,Conductor*%
G36*
X11250000Y32500000D02*
G01*
X11250000Y30250000D01*
X10800000Y29800000D01*
X10800000Y30426459D01*
X10819685Y30493498D01*
X10871823Y30538677D01*
X10871729Y30538880D01*
X10872442Y30539213D01*
X10872489Y30539253D01*
X10872685Y30539327D01*
X10880325Y30542890D01*
X10880328Y30542890D01*
X10990179Y30594114D01*
X11075886Y30679821D01*
X11127110Y30789672D01*
X11133700Y30839728D01*
X11133700Y31260272D01*
X11127110Y31310328D01*
X11075886Y31420179D01*
X11040019Y31456046D01*
X11006534Y31517369D01*
X11003700Y31543727D01*
X11003700Y32522842D01*
X11012344Y32552283D01*
X11018868Y32582269D01*
X11022622Y32587285D01*
X11023385Y32589881D01*
X11040019Y32610523D01*
X11093177Y32663681D01*
X11154500Y32697166D01*
X11180858Y32700000D01*
X11450000Y32700000D01*
X11250000Y32500000D01*
G37*
%TD.AperFunction*%
%TD*%
%TA.AperFunction,Conductor*%
%TO.N,+24V*%
G36*
X43943039Y31980315D02*
G01*
X43988794Y31927511D01*
X44000000Y31876000D01*
X44000000Y13551362D01*
X43980315Y13484323D01*
X43963681Y13463681D01*
X42590381Y12090381D01*
X42529058Y12056896D01*
X42459366Y12061880D01*
X42403433Y12103752D01*
X42379016Y12169216D01*
X42378700Y12178062D01*
X42378700Y12270067D01*
X42366882Y12329477D01*
X42366881Y12329480D01*
X42321860Y12396860D01*
X42254480Y12441881D01*
X42254479Y12441882D01*
X42254476Y12441883D01*
X42195066Y12453700D01*
X42195064Y12453700D01*
X40504936Y12453700D01*
X40504934Y12453700D01*
X40445523Y12441883D01*
X40445520Y12441882D01*
X40378140Y12396860D01*
X40333118Y12329480D01*
X40333117Y12329477D01*
X40321300Y12270067D01*
X40321300Y9872663D01*
X40301615Y9805624D01*
X40284981Y9784982D01*
X39536319Y9036319D01*
X39474996Y9002834D01*
X39448638Y9000000D01*
X34027700Y9000000D01*
X33960661Y9019685D01*
X33914906Y9072489D01*
X33903700Y9124000D01*
X33903700Y9553146D01*
X33903700Y9553148D01*
X33876189Y9655823D01*
X33823041Y9747878D01*
X33747878Y9823041D01*
X33695731Y9853148D01*
X37191300Y9853148D01*
X37191300Y9746852D01*
X37218811Y9644177D01*
X37271959Y9552122D01*
X37347122Y9476959D01*
X37439177Y9423811D01*
X37541852Y9396300D01*
X37541854Y9396300D01*
X37648146Y9396300D01*
X37648148Y9396300D01*
X37750823Y9423811D01*
X37842878Y9476959D01*
X37918041Y9552122D01*
X37971189Y9644177D01*
X37998700Y9746852D01*
X37998700Y9853148D01*
X37971189Y9955823D01*
X37918041Y10047878D01*
X37842878Y10123041D01*
X37750823Y10176189D01*
X37648148Y10203700D01*
X37541852Y10203700D01*
X37439177Y10176189D01*
X37439175Y10176188D01*
X37439174Y10176188D01*
X37347125Y10123043D01*
X37347119Y10123039D01*
X37271961Y10047881D01*
X37271957Y10047875D01*
X37218812Y9955826D01*
X37218812Y9955825D01*
X37218811Y9955823D01*
X37191300Y9853148D01*
X33695731Y9853148D01*
X33655823Y9876189D01*
X33553148Y9903700D01*
X33446852Y9903700D01*
X33344177Y9876189D01*
X33344175Y9876188D01*
X33344174Y9876188D01*
X33252125Y9823043D01*
X33252119Y9823039D01*
X33176961Y9747881D01*
X33176957Y9747875D01*
X33123812Y9655826D01*
X33123812Y9655825D01*
X33123811Y9655823D01*
X33119774Y9640757D01*
X33083410Y9581097D01*
X33020563Y9550568D01*
X32951188Y9558863D01*
X32897310Y9603348D01*
X32880226Y9640756D01*
X32876189Y9655823D01*
X32823041Y9747878D01*
X32747878Y9823041D01*
X32655823Y9876189D01*
X32553148Y9903700D01*
X32446852Y9903700D01*
X32344177Y9876189D01*
X32344175Y9876188D01*
X32344174Y9876188D01*
X32252125Y9823043D01*
X32252119Y9823039D01*
X32176961Y9747881D01*
X32176957Y9747875D01*
X32123812Y9655826D01*
X32123812Y9655825D01*
X32123811Y9655823D01*
X32119774Y9640757D01*
X32083410Y9581097D01*
X32020563Y9550568D01*
X31951188Y9558863D01*
X31897310Y9603348D01*
X31880226Y9640756D01*
X31876189Y9655823D01*
X31823041Y9747878D01*
X31747878Y9823041D01*
X31655823Y9876189D01*
X31553148Y9903700D01*
X31446852Y9903700D01*
X31344177Y9876189D01*
X31344175Y9876188D01*
X31344174Y9876188D01*
X31252125Y9823043D01*
X31252119Y9823039D01*
X31176961Y9747881D01*
X31176957Y9747875D01*
X31123812Y9655826D01*
X31123812Y9655825D01*
X31123811Y9655823D01*
X31096300Y9553148D01*
X31096300Y9446852D01*
X31123811Y9344177D01*
X31176959Y9252122D01*
X31176961Y9252120D01*
X31217400Y9211681D01*
X31250885Y9150358D01*
X31245901Y9080666D01*
X31204029Y9024733D01*
X31138565Y9000316D01*
X31129719Y9000000D01*
X30500000Y9000000D01*
X30494558Y8994559D01*
X30480315Y8946051D01*
X30427511Y8900296D01*
X30408094Y8893316D01*
X30344177Y8876189D01*
X30344176Y8876189D01*
X30344174Y8876188D01*
X30252125Y8823043D01*
X30252119Y8823039D01*
X30176961Y8747881D01*
X30176957Y8747875D01*
X30123812Y8655826D01*
X30123812Y8655825D01*
X30123811Y8655823D01*
X30096300Y8553148D01*
X30096300Y8446852D01*
X30123811Y8344177D01*
X30176959Y8252122D01*
X30252122Y8176959D01*
X30344177Y8123811D01*
X30359239Y8119776D01*
X30418899Y8083413D01*
X30449430Y8020567D01*
X30441136Y7951191D01*
X30396652Y7897312D01*
X30359246Y7880228D01*
X30344179Y7876191D01*
X30344177Y7876190D01*
X30252122Y7823041D01*
X30252119Y7823039D01*
X30176961Y7747881D01*
X30176957Y7747875D01*
X30123810Y7655824D01*
X30123811Y7655824D01*
X30123811Y7655823D01*
X30123811Y7655822D01*
X30096299Y7553148D01*
X30096299Y7446852D01*
X30117997Y7365876D01*
X30117996Y7365876D01*
X30117997Y7365874D01*
X30123809Y7344181D01*
X30123810Y7344179D01*
X30123811Y7344177D01*
X30176959Y7252122D01*
X30176961Y7252120D01*
X30259187Y7169894D01*
X30259193Y7169889D01*
X30309981Y7119101D01*
X30343466Y7057778D01*
X30346300Y7031420D01*
X30346300Y6624000D01*
X30326615Y6556961D01*
X30273811Y6511206D01*
X30222300Y6500000D01*
X27624500Y6500000D01*
X27557461Y6519685D01*
X27511706Y6572489D01*
X27500500Y6624000D01*
X27500500Y7623423D01*
X27469709Y7817827D01*
X27408882Y8005030D01*
X27348359Y8123813D01*
X27319524Y8180405D01*
X27203828Y8339646D01*
X27064646Y8478828D01*
X26905405Y8594524D01*
X26730029Y8683883D01*
X26542826Y8744710D01*
X26348422Y8775500D01*
X26348417Y8775500D01*
X26297595Y8775500D01*
X26250000Y8775500D01*
X26151583Y8775500D01*
X26151578Y8775500D01*
X25957173Y8744710D01*
X25769970Y8683883D01*
X25594594Y8594524D01*
X25537646Y8553148D01*
X25435354Y8478828D01*
X25435352Y8478826D01*
X25435351Y8478826D01*
X25296174Y8339649D01*
X25296174Y8339648D01*
X25296172Y8339646D01*
X25260457Y8290489D01*
X25180476Y8180406D01*
X25091117Y8005030D01*
X25030290Y7817827D01*
X24999500Y7623423D01*
X24999500Y6624000D01*
X24979815Y6556961D01*
X24927011Y6511206D01*
X24875500Y6500000D01*
X24318284Y6500000D01*
X24251245Y6519685D01*
X24205490Y6572489D01*
X24194284Y6624000D01*
X24194284Y7534004D01*
X24194284Y7534006D01*
X24171883Y7617605D01*
X24151044Y7653700D01*
X24149818Y7655823D01*
X24128611Y7692556D01*
X24128607Y7692561D01*
X24036319Y7784849D01*
X24002834Y7846172D01*
X24000000Y7872530D01*
X24000000Y11098443D01*
X38627791Y11098443D01*
X38627791Y10992147D01*
X38655302Y10889472D01*
X38708450Y10797417D01*
X38783613Y10722254D01*
X38875668Y10669106D01*
X38978343Y10641595D01*
X38978345Y10641595D01*
X39084637Y10641595D01*
X39084639Y10641595D01*
X39187314Y10669106D01*
X39279369Y10722254D01*
X39354532Y10797417D01*
X39407680Y10889472D01*
X39435191Y10992147D01*
X39435191Y11098443D01*
X39407680Y11201118D01*
X39354532Y11293173D01*
X39279369Y11368336D01*
X39187314Y11421484D01*
X39084639Y11448995D01*
X38978343Y11448995D01*
X38875668Y11421484D01*
X38875666Y11421483D01*
X38875665Y11421483D01*
X38783616Y11368338D01*
X38783610Y11368334D01*
X38708452Y11293176D01*
X38708448Y11293170D01*
X38655303Y11201121D01*
X38655303Y11201120D01*
X38655302Y11201118D01*
X38627791Y11098443D01*
X24000000Y11098443D01*
X24000000Y13126000D01*
X24019685Y13193039D01*
X24072489Y13238794D01*
X24124000Y13250000D01*
X33750000Y13250000D01*
X36772403Y16272404D01*
X36833722Y16305886D01*
X36903414Y16300902D01*
X36959347Y16259030D01*
X36969554Y16241106D01*
X36969747Y16241216D01*
X36973811Y16234177D01*
X37026959Y16142122D01*
X37102122Y16066959D01*
X37194177Y16013811D01*
X37296852Y15986300D01*
X37296854Y15986300D01*
X37403146Y15986300D01*
X37403148Y15986300D01*
X37505823Y16013811D01*
X37597878Y16066959D01*
X37673041Y16142122D01*
X37713178Y16211644D01*
X37732876Y16237315D01*
X37953036Y16457473D01*
X37998472Y16536172D01*
X38002892Y16543827D01*
X38028700Y16640143D01*
X38028700Y23849857D01*
X38002892Y23946173D01*
X37953036Y24032527D01*
X37888686Y24096877D01*
X37855201Y24158200D01*
X37853950Y24165375D01*
X37853700Y24166309D01*
X37853700Y24166313D01*
X37819373Y24294421D01*
X37753060Y24409279D01*
X37659279Y24503060D01*
X37659278Y24503061D01*
X37659275Y24503063D01*
X37544423Y24569372D01*
X37544422Y24569373D01*
X37512394Y24577955D01*
X37416313Y24603700D01*
X37283687Y24603700D01*
X37156093Y24569511D01*
X37086244Y24571174D01*
X37028381Y24610336D01*
X37000877Y24674565D01*
X37000000Y24689286D01*
X37000000Y24973976D01*
X37019685Y25041015D01*
X37072489Y25086770D01*
X37095516Y25093382D01*
X37095298Y25094197D01*
X37103146Y25096300D01*
X37103148Y25096300D01*
X37205823Y25123811D01*
X37297878Y25176959D01*
X37373041Y25252122D01*
X37426189Y25344177D01*
X37453700Y25446852D01*
X37453700Y25553148D01*
X37426189Y25655823D01*
X37373041Y25747878D01*
X37297878Y25823041D01*
X37205823Y25876189D01*
X37103148Y25903700D01*
X37103147Y25903700D01*
X37095298Y25905803D01*
X37095972Y25908321D01*
X37043903Y25931366D01*
X37005441Y25989696D01*
X37000000Y26026025D01*
X37000000Y26353148D01*
X37646300Y26353148D01*
X37646300Y26246852D01*
X37673811Y26144177D01*
X37726959Y26052122D01*
X37802122Y25976959D01*
X37894177Y25923811D01*
X37996852Y25896300D01*
X37996854Y25896300D01*
X38103146Y25896300D01*
X38103148Y25896300D01*
X38205823Y25923811D01*
X38297878Y25976959D01*
X38373041Y26052122D01*
X38426189Y26144177D01*
X38453700Y26246852D01*
X38453700Y26353148D01*
X38426189Y26455823D01*
X38373041Y26547878D01*
X38297878Y26623041D01*
X38205823Y26676189D01*
X38103148Y26703700D01*
X37996852Y26703700D01*
X37894177Y26676189D01*
X37894175Y26676188D01*
X37894174Y26676188D01*
X37802125Y26623043D01*
X37802119Y26623039D01*
X37726961Y26547881D01*
X37726957Y26547875D01*
X37673812Y26455826D01*
X37673812Y26455825D01*
X37673811Y26455823D01*
X37646300Y26353148D01*
X37000000Y26353148D01*
X37000000Y26753148D01*
X39046300Y26753148D01*
X39046300Y26646852D01*
X39073811Y26544177D01*
X39126959Y26452122D01*
X39202122Y26376959D01*
X39294177Y26323811D01*
X39396852Y26296300D01*
X39396854Y26296300D01*
X39503146Y26296300D01*
X39503148Y26296300D01*
X39605823Y26323811D01*
X39697878Y26376959D01*
X39773041Y26452122D01*
X39826189Y26544177D01*
X39853700Y26646852D01*
X39853700Y26753148D01*
X39826189Y26855823D01*
X39773041Y26947878D01*
X39697878Y27023041D01*
X39605823Y27076189D01*
X39503148Y27103700D01*
X39396852Y27103700D01*
X39294177Y27076189D01*
X39294175Y27076188D01*
X39294174Y27076188D01*
X39202125Y27023043D01*
X39202119Y27023039D01*
X39126961Y26947881D01*
X39126957Y26947875D01*
X39073812Y26855826D01*
X39073812Y26855825D01*
X39073811Y26855823D01*
X39046300Y26753148D01*
X37000000Y26753148D01*
X37000000Y27883390D01*
X37019685Y27950429D01*
X37061997Y27990775D01*
X37159279Y28046940D01*
X37253060Y28140721D01*
X37319373Y28255579D01*
X37332119Y28303148D01*
X37696300Y28303148D01*
X37696300Y28196852D01*
X37723811Y28094177D01*
X37776959Y28002122D01*
X37852122Y27926959D01*
X37944177Y27873811D01*
X38046852Y27846300D01*
X38046854Y27846300D01*
X38153146Y27846300D01*
X38153148Y27846300D01*
X38255823Y27873811D01*
X38347878Y27926959D01*
X38423041Y28002122D01*
X38476189Y28094177D01*
X38503700Y28196852D01*
X38503700Y28303148D01*
X38476189Y28405823D01*
X38423041Y28497878D01*
X38347878Y28573041D01*
X38283176Y28610397D01*
X38255825Y28626188D01*
X38255824Y28626189D01*
X38255823Y28626189D01*
X38153148Y28653700D01*
X38046852Y28653700D01*
X37944177Y28626189D01*
X37944175Y28626188D01*
X37944174Y28626188D01*
X37852125Y28573043D01*
X37852119Y28573039D01*
X37776961Y28497881D01*
X37776957Y28497875D01*
X37723812Y28405826D01*
X37723812Y28405825D01*
X37723811Y28405823D01*
X37696300Y28303148D01*
X37332119Y28303148D01*
X37353700Y28383687D01*
X37353700Y28516313D01*
X37319373Y28644421D01*
X37266578Y28735865D01*
X37253062Y28759276D01*
X37253058Y28759281D01*
X37159280Y28853059D01*
X37159275Y28853063D01*
X37062000Y28909225D01*
X37013784Y28959792D01*
X37000000Y29016612D01*
X37000000Y31876000D01*
X37019685Y31943039D01*
X37072489Y31988794D01*
X37124000Y32000000D01*
X43876000Y32000000D01*
X43943039Y31980315D01*
G37*
%TD.AperFunction*%
%TD*%
%TA.AperFunction,Conductor*%
%TO.N,/Project Architecture/USB-PD Source Controller/DCHP*%
G36*
X24193039Y35180315D02*
G01*
X24238794Y35127511D01*
X24250000Y35076000D01*
X24250000Y29124000D01*
X24230315Y29056961D01*
X24177511Y29011206D01*
X24126000Y29000000D01*
X21674000Y29000000D01*
X21606961Y29019685D01*
X21561206Y29072489D01*
X21550000Y29124000D01*
X21550000Y35076000D01*
X21569685Y35143039D01*
X21622489Y35188794D01*
X21674000Y35200000D01*
X24126000Y35200000D01*
X24193039Y35180315D01*
G37*
%TD.AperFunction*%
%TD*%
M02*
