M48
; DRILL file {KiCad 9.0.2} date 2026-02-15T12:31:08+0100
; FORMAT={-:-/ absolute / inch / decimal}
; #@! TF.CreationDate,2026-02-15T12:31:08+01:00
; #@! TF.GenerationSoftware,Kicad,Pcbnew,9.0.2
; #@! TF.FileFunction,Plated,1,6,PTH
FMAT,2
INCH
; #@! TA.AperFunction,Plated,PTH,ViaDrill
T1C0.0079
; #@! TA.AperFunction,Plated,PTH,ComponentDrill
T2C0.0098
; #@! TA.AperFunction,Plated,PTH,ViaDrill
T3C0.0118
; #@! TA.AperFunction,Plated,PTH,ComponentDrill
T4C0.0118
; #@! TA.AperFunction,Plated,PTH,ComponentDrill
T5C0.0157
; #@! TA.AperFunction,Plated,PTH,ComponentDrill
T6C0.0236
; #@! TA.AperFunction,Plated,PTH,ComponentDrill
T7C0.0866
%
G90
G05
T1
X0.0453Y1.1516
X0.0453Y1.1142
X0.0501Y0.7719
X0.0502Y0.8182
X0.0512Y0.739
X0.0689Y0.626
X0.0746Y0.9957
X0.0787Y0.9646
X0.0787Y0.9252
X0.0892Y0.8815
X0.0895Y0.7719
X0.0895Y0.8182
X0.09Y0.8516
X0.0905Y0.739
X0.1139Y0.9957
X0.1158Y1.0266
X0.1181Y0.9646
X0.1182Y0.9251
X0.1183Y1.1337
X0.1323Y0.74
X0.1326Y0.7721
X0.1332Y0.8123
X0.1548Y1.0264
X0.1555Y0.6299
X0.1566Y0.9957
X0.1575Y0.9646
X0.1576Y0.9251
X0.1726Y0.8123
X0.189Y0.9331
X0.1969Y0.6308
X0.2186Y1.2273
X0.2274Y1.2681
X0.2323Y1.3445
X0.2347Y1.1041
X0.2347Y1.1299
X0.2352Y1.1548
X0.2362Y0.9646
X0.2374Y0.9957
X0.2459Y0.7726
X0.2459Y0.7411
X0.2559Y0.5354
X0.2678Y1.2412
X0.2755Y0.7403
X0.2756Y0.9646
X0.2756Y0.6102
X0.2767Y0.9957
X0.2775Y0.7731
X0.2776Y1.3051
X0.2818Y1.0253
X0.2992Y0.4283
X0.2992Y0.3898
X0.3031Y0.6181
X0.3031Y0.5886
X0.311Y1.0846
X0.3187Y0.9643
X0.3188Y0.8522
X0.3192Y0.9154
X0.3192Y0.7721
X0.3369Y0.81
X0.3386Y0.4744
X0.3392Y0.6506
X0.3421Y0.8999
X0.3426Y0.8713
X0.3504Y1.0827
X0.3586Y0.7721
X0.372Y1.31
X0.3759Y0.6839
X0.3763Y0.81
X0.3799Y1.1693
X0.3898Y0.4827
X0.3898Y0.4134
X0.3937Y1.0039
X0.3937Y0.9646
X0.3976Y0.8858
X0.4016Y1.31
X0.4213Y1.2205
X0.4218Y0.7637
X0.4291Y0.4134
X0.4331Y1.1614
X0.4331Y1.122
X0.4331Y1.0827
X0.4331Y1.0039
X0.4334Y0.9684
X0.437Y0.939
X0.4483Y0.9011
X0.4492Y0.8724
X0.4506Y0.8149
X0.4513Y0.8434
X0.4518Y0.7746
X0.4685Y0.9517
X0.4724Y1.2795
X0.4724Y1.2402
X0.4724Y1.2008
X0.4724Y1.1614
X0.4724Y1.122
X0.4724Y1.0827
X0.4724Y1.0039
X0.489Y1.315
X0.4934Y0.9267
X0.5118Y1.2795
X0.5118Y1.2402
X0.5118Y1.2008
X0.5118Y1.1614
X0.5118Y1.122
X0.5118Y1.0827
X0.5118Y1.0039
X0.5118Y0.9646
X0.5144Y0.9048
X0.5236Y0.9331
X0.5236Y0.7921
X0.5276Y1.3425
X0.5315Y0.8817
X0.5512Y1.2795
X0.5512Y1.2402
X0.5512Y1.2008
X0.5512Y1.1614
X0.5512Y1.122
X0.5512Y1.0827
X0.5512Y1.0039
X0.5571Y0.5435
X0.5591Y0.5996
X0.561Y0.7916
X0.5862Y0.4992
X0.5906Y1.2795
X0.5906Y1.2402
X0.5906Y1.2008
X0.5906Y1.1614
X0.5906Y1.122
X0.5906Y1.0827
X0.6107Y1.2185
X0.6134Y0.4101
X0.6161Y0.7402
X0.6454Y1.219
X0.6488Y0.9623
X0.6496Y0.9921
X0.6535Y0.4803
X0.6594Y0.3543
X0.6693Y1.2795
X0.6693Y1.2402
X0.6693Y1.2008
X0.6693Y1.1614
X0.6693Y1.122
X0.6693Y1.0827
X0.6693Y1.0433
X0.6693Y0.8858
X0.6693Y0.8465
X0.6693Y0.8071
X0.6693Y0.7677
X0.6693Y0.7283
X0.6693Y0.689
X0.6693Y0.6496
X0.6727Y0.9649
X0.6732Y0.9921
X0.6732Y0.9331
X0.6969Y0.3268
X0.6988Y0.5512
X0.699Y0.9922
X0.7008Y0.933
X0.7085Y0.7291
X0.7087Y1.2795
X0.7087Y1.2402
X0.7087Y1.2008
X0.7087Y1.1614
X0.7087Y1.122
X0.7087Y1.0827
X0.7087Y1.0433
X0.7087Y0.8858
X0.7087Y0.8465
X0.7087Y0.8071
X0.7087Y0.7677
X0.7087Y0.689
X0.7087Y0.6496
X0.7098Y0.4012
X0.7244Y0.9921
X0.7245Y0.9336
X0.7283Y0.5512
X0.74Y0.4017
X0.748Y1.2795
X0.748Y1.2402
X0.748Y1.2008
X0.748Y1.1614
X0.748Y1.122
X0.748Y1.0827
X0.748Y1.0433
X0.748Y0.8858
X0.748Y0.8465
X0.748Y0.8071
X0.748Y0.7677
X0.748Y0.7283
X0.748Y0.689
X0.748Y0.6496
X0.748Y0.3543
X0.7496Y0.9336
X0.75Y0.9631
X0.7559Y0.9917
X0.7579Y0.5512
X0.7756Y0.9625
X0.7757Y0.9337
X0.7871Y0.6505
X0.7874Y1.2795
X0.7874Y1.2402
X0.7874Y1.2008
X0.7874Y1.1614
X0.7874Y1.122
X0.7874Y1.0827
X0.7874Y1.0433
X0.7874Y0.7677
X0.7874Y0.7283
X0.7874Y0.689
X0.8071Y0.4016
X0.8189Y0.7008
X0.8205Y0.31
X0.8267Y1.2003
X0.8268Y1.2795
X0.8268Y1.2402
X0.8268Y1.1614
X0.8268Y1.122
X0.8268Y1.0827
X0.8268Y1.0433
X0.8463Y0.3289
X0.8583Y0.7008
X0.872Y0.4232
X0.874Y0.2884
X0.8824Y0.5863
X0.9122Y1.1124
X0.9122Y1.0829
X0.9122Y1.0533
X0.9172Y0.2823
X0.9252Y0.7677
X0.9252Y0.7283
X0.9252Y0.689
X0.9252Y0.6496
X0.9418Y1.1124
X0.9418Y1.0829
X0.9418Y1.0533
X0.9646Y0.7677
X0.9646Y0.7283
X0.9646Y0.689
X0.9646Y0.6496
X0.9713Y1.1124
X0.9713Y1.0829
X0.9803Y1.3425
X0.9902Y1.2598
X0.9907Y1.222
X0.9941Y0.5846
X1.0039Y0.9252
X1.0039Y0.8858
X1.0039Y0.8465
X1.0039Y0.8071
X1.0039Y0.7677
X1.0039Y0.7283
X1.0039Y0.689
X1.0039Y0.6496
X1.0197Y1.2598
X1.0203Y1.222
X1.0394Y1.1752
X1.0412Y0.5469
X1.0433Y0.9252
X1.0433Y0.8858
X1.0433Y0.8465
X1.0433Y0.8071
X1.0433Y0.7677
X1.0433Y0.7283
X1.0433Y0.689
X1.0433Y0.6496
X1.0492Y1.2598
X1.0498Y1.222
X1.0768Y1.0551
X1.0827Y0.8465
X1.0827Y0.8071
X1.0827Y0.7677
X1.0827Y0.7283
X1.0827Y0.689
X1.0827Y0.6496
X1.083Y0.546
X1.1181Y1.1004
X1.1181Y1.0118
X1.1181Y0.9843
X1.1192Y0.9513
X1.122Y0.8465
X1.122Y0.8071
X1.122Y0.7677
X1.122Y0.7283
X1.122Y0.689
X1.122Y0.6496
X1.124Y0.5467
X1.126Y0.9075
X1.1614Y0.8465
X1.1614Y0.8071
X1.1614Y0.7677
X1.1614Y0.7283
X1.1614Y0.689
X1.1614Y0.6496
X1.1656Y0.5465
X1.1701Y0.9094
X1.1811Y1.2205
X1.1811Y1.1811
X1.1811Y1.1516
X1.1811Y1.122
X1.1811Y1.0925
X1.1811Y1.063
X1.1811Y1.0039
X1.1811Y0.9744
X1.1811Y0.9449
X1.2008Y0.8465
X1.2008Y0.8071
X1.2008Y0.7677
X1.2008Y0.7283
X1.2008Y0.689
X1.2008Y0.6496
X1.2008Y0.3346
X1.2008Y0.2953
X1.2106Y1.2205
X1.2106Y1.1811
X1.2106Y1.1516
X1.2106Y1.122
X1.2106Y1.0925
X1.2106Y1.063
X1.2106Y0.9744
X1.2106Y0.9449
X1.2402Y1.2205
X1.2402Y1.1811
X1.2402Y1.1516
X1.2402Y1.122
X1.2402Y1.0925
X1.2402Y1.063
X1.2402Y1.0335
X1.2402Y0.935
X1.2402Y0.9055
X1.2402Y0.8071
X1.2402Y0.7677
X1.2402Y0.7283
X1.2402Y0.689
X1.2402Y0.374
X1.2402Y0.3346
X1.2402Y0.2953
X1.2638Y0.6043
X1.2697Y0.935
X1.2697Y0.9055
X1.2795Y0.8071
X1.2795Y0.7677
X1.2795Y0.7283
X1.2795Y0.689
X1.2795Y0.374
X1.2795Y0.3346
X1.2795Y0.2953
X1.2913Y0.874
X1.2913Y0.8504
X1.2933Y1.0807
X1.2992Y0.9055
X1.313Y0.6299
X1.3149Y0.851
X1.315Y0.874
X1.3189Y1.1555
X1.3189Y1.1142
X1.3189Y0.374
X1.3189Y0.3346
X1.3189Y0.2953
X1.3203Y1.0157
X1.3209Y0.9429
X1.3386Y0.874
X1.3386Y0.8504
X1.3504Y0.6299
X1.3602Y1.1972
X1.3622Y0.874
X1.3622Y0.8504
X1.3628Y1.1053
X1.3628Y1.0404
X1.3654Y1.1325
X1.3854Y0.6194
X1.3878Y1.0787
X1.4106Y1.1186
X1.4311Y0.6854
X1.435Y1.0029
X1.4363Y0.7196
X1.4497Y1.1186
X1.4577Y0.7376
X1.4587Y1.0039
X1.4695Y0.9429
X1.4705Y0.6453
X1.4801Y0.3858
X1.498Y1.0354
X1.5Y1.1122
X1.5354Y1.3583
X1.5354Y1.3287
X1.5354Y1.2992
X1.5367Y0.4349
X1.5531Y1.0512
X1.565Y1.3583
X1.565Y1.3287
X1.565Y1.2992
X1.5945Y1.3583
X1.5945Y1.3287
X1.5945Y1.2992
X1.624Y1.3583
X1.624Y1.3287
X1.624Y1.2992
X1.6535Y1.3583
X1.6535Y1.3287
X1.6535Y1.2992
X1.6831Y1.3583
X1.6831Y1.3287
X1.6831Y1.2992
X1.687Y0.372
X1.7352Y0.3719
X1.7717Y0.5217
X1.7717Y0.4921
X1.8012Y0.5217
X1.8012Y0.4921
X1.8012Y0.4626
X1.8031Y0.3701
X1.8305Y0.4924
X1.8305Y0.4627
X1.8307Y0.5217
X2.0079Y0.811
X2.0118Y0.8679
X2.0315Y0.5984
X2.0335Y0.7047
X2.065Y1.1555
X2.0846Y0.8366
X2.0886Y0.9626
X2.0906Y0.9291
X2.0906Y0.8937
T2
X0.4242Y0.6469
X0.4242Y0.6193
X0.4242Y0.5917
X0.4518Y0.6469
X0.4518Y0.6193
X0.4518Y0.5917
X0.4793Y0.6469
X0.4793Y0.6193
X0.4793Y0.5917
T3
X0.9238Y0.5039
X0.9744Y0.4528
X0.9744Y0.4134
X0.9744Y0.374
X1.0157Y0.4528
X1.0157Y0.4134
X1.0157Y0.374
X1.0531Y0.4528
X1.0531Y0.4134
X1.0531Y0.374
X1.0925Y0.4528
X1.0925Y0.4134
X1.0925Y0.374
X1.1319Y0.4528
X1.1319Y0.4134
X1.1319Y0.374
X1.1713Y0.4528
X1.1713Y0.4134
X1.1713Y0.374
X1.2106Y0.4528
X1.2106Y0.4134
X1.25Y0.4528
X1.25Y0.4134
X1.2894Y0.4528
X1.2894Y0.4134
X1.3287Y0.4528
X1.3287Y0.4134
X1.3679Y0.4528
X1.3681Y0.4134
X1.3681Y0.374
X1.4075Y0.4134
X1.4075Y0.374
X1.4764Y0.6102
X1.4961Y1.2008
X1.4961Y1.1614
X1.5157Y0.6102
X1.5354Y1.2008
X1.5354Y1.1614
X1.5453Y0.689
X1.5453Y0.6496
X1.5748Y1.2008
X1.5748Y1.1614
X1.5846Y0.689
X1.5846Y0.6496
X1.6142Y1.2008
X1.6142Y1.1614
X1.6142Y1.122
X1.6142Y1.0827
X1.624Y0.689
X1.624Y0.6496
X1.6535Y1.2008
X1.6535Y1.1614
X1.6535Y1.122
X1.6535Y1.0827
X1.6634Y0.689
X1.6634Y0.6496
X1.6929Y1.2008
X1.6929Y1.1614
X1.6929Y1.122
X1.6929Y1.0827
X1.7028Y0.689
X1.7028Y0.6496
X1.872Y1.2577
T4
X1.6091Y0.4689
X1.6091Y0.4012
X1.628Y0.435
X1.6469Y0.4689
X1.6469Y0.4012
T5
X0.037Y1.3001
X0.0382Y0.4338
X0.056Y1.346
X0.056Y1.2541
X0.0572Y0.4797
X0.0572Y0.3878
X0.1019Y1.365
X0.1019Y1.2351
X0.1031Y0.4987
X0.1031Y0.3688
X0.1479Y1.346
X0.1479Y1.2541
X0.1491Y0.4797
X0.1491Y0.3878
X0.1669Y1.3001
X0.1681Y0.4338
X1.9626Y1.3002
X1.9626Y0.4341
X1.9816Y1.3461
X1.9816Y1.2543
X1.9816Y0.48
X1.9816Y0.3881
X2.0276Y1.3652
X2.0276Y1.2352
X2.0276Y0.499
X2.0276Y0.3691
X2.0735Y1.3461
X2.0735Y1.2543
X2.0735Y0.48
X2.0735Y0.3881
X2.0925Y1.3002
X2.0925Y0.4341
T7
X0.1019Y1.3001
X0.1031Y0.4338
X2.0276Y1.3002
X2.0276Y0.4341
T6
G00X0.0679Y1.0372
M15
G01X0.0443Y1.0372
M16
G05
G00X0.0679Y0.697
M15
G01X0.0443Y0.697
M16
G05
G00X0.2423Y1.0372
M15
G01X0.199Y1.0372
M16
G05
G00X0.2423Y0.697
M15
G01X0.199Y0.697
M16
G05
M30
