%TF.GenerationSoftware,KiCad,Pcbnew,9.0.2*%
%TF.CreationDate,2026-02-15T12:31:08+01:00*%
%TF.ProjectId,PDNode-PDCard-5031,50444e6f-6465-42d5-9044-436172642d35,1.0.0*%
%TF.SameCoordinates,Original*%
%TF.FileFunction,Soldermask,Bot*%
%TF.FilePolarity,Negative*%
%FSLAX46Y46*%
G04 Gerber Fmt 4.6, Leading zero omitted, Abs format (unit mm)*
G04 Created by KiCad (PCBNEW 9.0.2) date 2026-02-15 12:31:08*
%MOMM*%
%LPD*%
G01*
G04 APERTURE LIST*
G04 Aperture macros list*
%AMRoundRect*
0 Rectangle with rounded corners*
0 $1 Rounding radius*
0 $2 $3 $4 $5 $6 $7 $8 $9 X,Y pos of 4 corners*
0 Add a 4 corners polygon primitive as box body*
4,1,4,$2,$3,$4,$5,$6,$7,$8,$9,$2,$3,0*
0 Add four circle primitives for the rounded corners*
1,1,$1+$1,$2,$3*
1,1,$1+$1,$4,$5*
1,1,$1+$1,$6,$7*
1,1,$1+$1,$8,$9*
0 Add four rect primitives between the rounded corners*
20,1,$1+$1,$2,$3,$4,$5,0*
20,1,$1+$1,$4,$5,$6,$7,0*
20,1,$1+$1,$6,$7,$8,$9,0*
20,1,$1+$1,$8,$9,$2,$3,0*%
G04 Aperture macros list end*
%ADD10C,0.150000*%
%ADD11C,0.800000*%
%ADD12C,4.500000*%
%ADD13C,0.650000*%
%ADD14O,2.200000X1.100000*%
%ADD15O,1.700000X1.100000*%
%ADD16RoundRect,0.050000X-0.350000X-1.600000X0.350000X-1.600000X0.350000X1.600000X-0.350000X1.600000X0*%
%ADD17RoundRect,0.050000X-0.350000X-2.150000X0.350000X-2.150000X0.350000X2.150000X-0.350000X2.150000X0*%
%ADD18RoundRect,0.160000X-0.210000X0.160000X-0.210000X-0.160000X0.210000X-0.160000X0.210000X0.160000X0*%
%ADD19C,0.700000*%
%ADD20RoundRect,0.165000X-0.165000X-0.195000X0.165000X-0.195000X0.165000X0.195000X-0.165000X0.195000X0*%
%ADD21RoundRect,0.165000X-0.195000X0.165000X-0.195000X-0.165000X0.195000X-0.165000X0.195000X0.165000X0*%
%ADD22RoundRect,0.165000X0.165000X0.195000X-0.165000X0.195000X-0.165000X-0.195000X0.165000X-0.195000X0*%
%ADD23RoundRect,0.160000X-0.160000X-0.210000X0.160000X-0.210000X0.160000X0.210000X-0.160000X0.210000X0*%
%ADD24RoundRect,0.165000X0.195000X-0.165000X0.195000X0.165000X-0.195000X0.165000X-0.195000X-0.165000X0*%
%ADD25RoundRect,0.272222X0.340278X0.652778X-0.340278X0.652778X-0.340278X-0.652778X0.340278X-0.652778X0*%
%ADD26RoundRect,0.125000X0.425000X0.125000X-0.425000X0.125000X-0.425000X-0.125000X0.425000X-0.125000X0*%
%ADD27RoundRect,0.172500X-0.197500X0.172500X-0.197500X-0.172500X0.197500X-0.172500X0.197500X0.172500X0*%
%ADD28RoundRect,0.272222X-0.340278X-0.652778X0.340278X-0.652778X0.340278X0.652778X-0.340278X0.652778X0*%
%ADD29RoundRect,0.130000X0.270000X0.130000X-0.270000X0.130000X-0.270000X-0.130000X0.270000X-0.130000X0*%
%ADD30RoundRect,0.305625X0.713125X0.930731X-0.713125X0.930731X-0.713125X-0.930731X0.713125X-0.930731X0*%
%ADD31RoundRect,0.078000X0.409500X0.182000X-0.409500X0.182000X-0.409500X-0.182000X0.409500X-0.182000X0*%
G04 APERTURE END LIST*
D10*
X12975000Y5875000D02*
X35800000Y5875000D01*
X35800000Y-725000D01*
X12975000Y-725000D01*
X12975000Y5875000D01*
G36*
X12975000Y5875000D02*
G01*
X35800000Y5875000D01*
X35800000Y-725000D01*
X12975000Y-725000D01*
X12975000Y5875000D01*
G37*
D11*
%TO.C,H3*%
X51500000Y31375000D03*
X50333274Y31858274D03*
X52666726Y31858274D03*
X49850000Y33025000D03*
D12*
X51500000Y33025000D03*
D11*
X53150000Y33025000D03*
X50333274Y34191726D03*
X52666726Y34191726D03*
X51500000Y34675000D03*
%TD*%
%TO.C,H1*%
X2589229Y31371686D03*
X1422503Y31854960D03*
X3755955Y31854960D03*
X939229Y33021686D03*
D12*
X2589229Y33021686D03*
D11*
X4239229Y33021686D03*
X1422503Y34188412D03*
X3755955Y34188412D03*
X2589229Y34671686D03*
%TD*%
D13*
%TO.C,J1*%
X5105000Y24915000D03*
X5105000Y19135000D03*
D14*
X5605000Y26345000D03*
D15*
X1425000Y26345000D03*
D14*
X5605000Y17705000D03*
D15*
X1425000Y17705000D03*
%TD*%
D11*
%TO.C,H2*%
X2619995Y9367466D03*
X1453269Y9850740D03*
X3786721Y9850740D03*
X969995Y11017466D03*
D12*
X2619995Y11017466D03*
D11*
X4269995Y11017466D03*
X1453269Y12184192D03*
X3786721Y12184192D03*
X2619995Y12667466D03*
%TD*%
D16*
%TO.C,J2*%
X14750000Y4075000D03*
D17*
X15750000Y3525000D03*
X16750000Y3525000D03*
X17750000Y3525000D03*
X18750000Y3525000D03*
X19750000Y3525000D03*
X20750000Y3525000D03*
X21750000Y3525000D03*
X22750000Y3525000D03*
X23750000Y3525000D03*
X24750000Y3525000D03*
X27750000Y3525000D03*
X28750000Y3525000D03*
X29750000Y3525000D03*
X30750000Y3525000D03*
X31750000Y3525000D03*
X32750000Y3525000D03*
X33750000Y3525000D03*
%TD*%
D11*
%TO.C,H4*%
X51500000Y9375000D03*
X50333274Y9858274D03*
X52666726Y9858274D03*
X49850000Y11025000D03*
D12*
X51500000Y11025000D03*
D11*
X53150000Y11025000D03*
X50333274Y12191726D03*
X52666726Y12191726D03*
X51500000Y12675000D03*
%TD*%
D18*
%TO.C,R35*%
X6950000Y32210000D03*
X6950000Y31190000D03*
%TD*%
D19*
%TO.C,PMFB1*%
X36850000Y28450000D03*
%TD*%
D20*
%TO.C,C35*%
X8800000Y23500000D03*
X9760000Y23500000D03*
%TD*%
D19*
%TO.C,DCRG1*%
X26400000Y29850000D03*
%TD*%
%TO.C,VSS1*%
X19700000Y23750000D03*
%TD*%
D21*
%TO.C,C37*%
X13250000Y18610000D03*
X13250000Y17650000D03*
%TD*%
D22*
%TO.C,C41*%
X10650000Y31050000D03*
X9690000Y31050000D03*
%TD*%
D19*
%TO.C,PMON1*%
X22450000Y14850000D03*
%TD*%
%TO.C,PDAT1*%
X21200000Y12800000D03*
%TD*%
D21*
%TO.C,C36*%
X14250000Y18630000D03*
X14250000Y17670000D03*
%TD*%
D23*
%TO.C,R41*%
X50680000Y18700000D03*
X51700000Y18700000D03*
%TD*%
D19*
%TO.C,PD5*%
X18500000Y14000000D03*
%TD*%
D24*
%TO.C,C31*%
X7600000Y9920000D03*
X7600000Y10880000D03*
%TD*%
D20*
%TO.C,C34*%
X8800000Y21530000D03*
X9760000Y21530000D03*
%TD*%
D24*
%TO.C,C30*%
X48825000Y23412500D03*
X48825000Y24372500D03*
%TD*%
D18*
%TO.C,R33*%
X6950000Y34150000D03*
X6950000Y33130000D03*
%TD*%
D23*
%TO.C,R46*%
X50640000Y25600000D03*
X51660000Y25600000D03*
%TD*%
D25*
%TO.C,R26*%
X5962500Y28700000D03*
X3037500Y28700000D03*
%TD*%
D18*
%TO.C,R34*%
X5910000Y32210000D03*
X5910000Y31190000D03*
%TD*%
D19*
%TO.C,PD18*%
X9950000Y12300000D03*
%TD*%
%TO.C,VMON1*%
X4650000Y13900000D03*
%TD*%
%TO.C,CC2*%
X14250000Y20050000D03*
%TD*%
D26*
%TO.C,IC7*%
X52125000Y24335000D03*
X52125000Y23685000D03*
X52125000Y23035000D03*
X50350000Y23035000D03*
X50350000Y23685000D03*
X50350000Y24335000D03*
%TD*%
D19*
%TO.C,PM5*%
X34700000Y26300000D03*
%TD*%
D27*
%TO.C,D4*%
X52400000Y28635000D03*
X52400000Y27665000D03*
%TD*%
D19*
%TO.C,V24F1*%
X30000000Y29250000D03*
%TD*%
%TO.C,PM3*%
X37350000Y24100000D03*
%TD*%
D24*
%TO.C,C25*%
X48825000Y20332500D03*
X48825000Y21292500D03*
%TD*%
D19*
%TO.C,CC1*%
X10800000Y20200000D03*
%TD*%
%TO.C,VBUS1*%
X20000000Y31500000D03*
%TD*%
D18*
%TO.C,R32*%
X5900000Y34150000D03*
X5900000Y33130000D03*
%TD*%
D28*
%TO.C,R22*%
X19233146Y34141299D03*
X22158146Y34141299D03*
%TD*%
D19*
%TO.C,PMO2*%
X18950000Y18550000D03*
%TD*%
D29*
%TO.C,T3*%
X25000000Y31975000D03*
X25000000Y31325000D03*
X25000000Y30675000D03*
X25000000Y30025000D03*
D30*
X23056250Y30998644D03*
D31*
X22086864Y30022287D03*
X22086864Y30674950D03*
X22084232Y31324980D03*
X22087500Y31975000D03*
%TD*%
D19*
%TO.C,PME1*%
X34500000Y30450000D03*
%TD*%
%TO.C,VDRV1*%
X17000000Y23700000D03*
%TD*%
%TO.C,V24*%
X43000000Y27450000D03*
%TD*%
%TO.C,PDEN1*%
X14150000Y13800000D03*
%TD*%
%TO.C,PMO1*%
X24550000Y18500000D03*
%TD*%
D26*
%TO.C,IC5*%
X52075000Y21250000D03*
X52075000Y20600000D03*
X52075000Y19950000D03*
X50300000Y19950000D03*
X50300000Y20600000D03*
X50300000Y21250000D03*
%TD*%
M02*
