%TF.GenerationSoftware,KiCad,Pcbnew,9.0.2*%
%TF.CreationDate,2026-02-15T12:31:08+01:00*%
%TF.ProjectId,PDNode-PDCard-5031,50444e6f-6465-42d5-9044-436172642d35,1.0.0*%
%TF.SameCoordinates,Original*%
%TF.FileFunction,Soldermask,Top*%
%TF.FilePolarity,Negative*%
%FSLAX46Y46*%
G04 Gerber Fmt 4.6, Leading zero omitted, Abs format (unit mm)*
G04 Created by KiCad (PCBNEW 9.0.2) date 2026-02-15 12:31:08*
%MOMM*%
%LPD*%
G01*
G04 APERTURE LIST*
G04 Aperture macros list*
%AMRoundRect*
0 Rectangle with rounded corners*
0 $1 Rounding radius*
0 $2 $3 $4 $5 $6 $7 $8 $9 X,Y pos of 4 corners*
0 Add a 4 corners polygon primitive as box body*
4,1,4,$2,$3,$4,$5,$6,$7,$8,$9,$2,$3,0*
0 Add four circle primitives for the rounded corners*
1,1,$1+$1,$2,$3*
1,1,$1+$1,$4,$5*
1,1,$1+$1,$6,$7*
1,1,$1+$1,$8,$9*
0 Add four rect primitives between the rounded corners*
20,1,$1+$1,$2,$3,$4,$5,0*
20,1,$1+$1,$4,$5,$6,$7,0*
20,1,$1+$1,$6,$7,$8,$9,0*
20,1,$1+$1,$8,$9,$2,$3,0*%
G04 Aperture macros list end*
%ADD10C,0.150000*%
%ADD11C,0.010000*%
%ADD12C,0.800000*%
%ADD13C,4.500000*%
%ADD14RoundRect,0.050000X2.540000X-3.304540X2.540000X3.304540X-2.540000X3.304540X-2.540000X-3.304540X0*%
%ADD15RoundRect,0.165000X0.165000X0.195000X-0.165000X0.195000X-0.165000X-0.195000X0.165000X-0.195000X0*%
%ADD16RoundRect,0.160000X-0.210000X0.160000X-0.210000X-0.160000X0.210000X-0.160000X0.210000X0.160000X0*%
%ADD17RoundRect,0.087500X-0.387500X-0.087500X0.387500X-0.087500X0.387500X0.087500X-0.387500X0.087500X0*%
%ADD18RoundRect,0.087500X-0.087500X-0.387500X0.087500X-0.387500X0.087500X0.387500X-0.087500X0.387500X0*%
%ADD19RoundRect,0.050000X-1.025000X-1.025000X1.025000X-1.025000X1.025000X1.025000X-1.025000X1.025000X0*%
%ADD20RoundRect,0.160000X0.210000X-0.160000X0.210000X0.160000X-0.210000X0.160000X-0.210000X-0.160000X0*%
%ADD21RoundRect,0.271739X0.353261X0.678261X-0.353261X0.678261X-0.353261X-0.678261X0.353261X-0.678261X0*%
%ADD22RoundRect,0.275000X0.275000X0.500000X-0.275000X0.500000X-0.275000X-0.500000X0.275000X-0.500000X0*%
%ADD23RoundRect,0.160000X0.160000X0.210000X-0.160000X0.210000X-0.160000X-0.210000X0.160000X-0.210000X0*%
%ADD24RoundRect,0.175000X-0.175000X0.537500X-0.175000X-0.537500X0.175000X-0.537500X0.175000X0.537500X0*%
%ADD25RoundRect,0.175000X-0.525000X0.175000X-0.525000X-0.175000X0.525000X-0.175000X0.525000X0.175000X0*%
%ADD26RoundRect,0.100000X-0.600000X0.100000X-0.600000X-0.100000X0.600000X-0.100000X0.600000X0.100000X0*%
%ADD27O,2.200000X1.100000*%
%ADD28O,1.700000X1.100000*%
%ADD29RoundRect,0.270409X0.392091X1.454591X-0.392091X1.454591X-0.392091X-1.454591X0.392091X-1.454591X0*%
%ADD30RoundRect,0.050000X-0.550000X-0.250000X0.550000X-0.250000X0.550000X0.250000X-0.550000X0.250000X0*%
%ADD31RoundRect,0.050000X-0.250000X-0.550000X0.250000X-0.550000X0.250000X0.550000X-0.250000X0.550000X0*%
%ADD32RoundRect,0.050000X-1.400000X-0.125000X1.400000X-0.125000X1.400000X0.125000X-1.400000X0.125000X0*%
%ADD33RoundRect,0.050000X-0.125000X-0.550000X0.125000X-0.550000X0.125000X0.550000X-0.125000X0.550000X0*%
%ADD34RoundRect,0.050000X-0.500000X-0.125000X0.500000X-0.125000X0.500000X0.125000X-0.500000X0.125000X0*%
%ADD35RoundRect,0.250000X-0.250000X-0.275000X0.250000X-0.275000X0.250000X0.275000X-0.250000X0.275000X0*%
%ADD36RoundRect,0.160000X-0.160000X-0.210000X0.160000X-0.210000X0.160000X0.210000X-0.160000X0.210000X0*%
%ADD37RoundRect,0.165000X0.195000X-0.165000X0.195000X0.165000X-0.195000X0.165000X-0.195000X-0.165000X0*%
%ADD38RoundRect,0.050000X-0.350000X-2.150000X0.350000X-2.150000X0.350000X2.150000X-0.350000X2.150000X0*%
%ADD39RoundRect,0.050000X-0.350000X-1.600000X0.350000X-1.600000X0.350000X1.600000X-0.350000X1.600000X0*%
%ADD40RoundRect,0.165000X-0.165000X-0.195000X0.165000X-0.195000X0.165000X0.195000X-0.165000X0.195000X0*%
%ADD41RoundRect,0.050000X-0.750000X0.500000X-0.750000X-0.500000X0.750000X-0.500000X0.750000X0.500000X0*%
%ADD42RoundRect,0.165000X-0.195000X0.165000X-0.195000X-0.165000X0.195000X-0.165000X0.195000X0.165000X0*%
%ADD43RoundRect,0.095000X-0.380000X-0.095000X0.380000X-0.095000X0.380000X0.095000X-0.380000X0.095000X0*%
%ADD44RoundRect,0.050000X-0.140000X-0.350000X0.140000X-0.350000X0.140000X0.350000X-0.140000X0.350000X0*%
%ADD45RoundRect,0.050000X-0.825000X-1.200000X0.825000X-1.200000X0.825000X1.200000X-0.825000X1.200000X0*%
%ADD46RoundRect,0.271739X-0.353261X-0.678261X0.353261X-0.678261X0.353261X0.678261X-0.353261X0.678261X0*%
%ADD47RoundRect,0.130000X-0.130000X0.270000X-0.130000X-0.270000X0.130000X-0.270000X0.130000X0.270000X0*%
%ADD48RoundRect,0.305625X-0.930731X0.713125X-0.930731X-0.713125X0.930731X-0.713125X0.930731X0.713125X0*%
%ADD49RoundRect,0.078000X-0.182000X0.409500X-0.182000X-0.409500X0.182000X-0.409500X0.182000X0.409500X0*%
%ADD50RoundRect,0.265625X1.446875X0.584375X-1.446875X0.584375X-1.446875X-0.584375X1.446875X-0.584375X0*%
%ADD51RoundRect,0.275000X-0.500000X0.275000X-0.500000X-0.275000X0.500000X-0.275000X0.500000X0.275000X0*%
%ADD52RoundRect,0.172500X-0.197500X0.172500X-0.197500X-0.172500X0.197500X-0.172500X0.197500X0.172500X0*%
%ADD53RoundRect,0.265625X0.584375X-1.446875X0.584375X1.446875X-0.584375X1.446875X-0.584375X-1.446875X0*%
%ADD54RoundRect,0.150000X0.150000X-0.562500X0.150000X0.562500X-0.150000X0.562500X-0.150000X-0.562500X0*%
%ADD55RoundRect,0.130000X0.130000X-0.270000X0.130000X0.270000X-0.130000X0.270000X-0.130000X-0.270000X0*%
%ADD56RoundRect,0.305625X0.930731X-0.713125X0.930731X0.713125X-0.930731X0.713125X-0.930731X-0.713125X0*%
%ADD57RoundRect,0.078000X0.182000X-0.409500X0.182000X0.409500X-0.182000X0.409500X-0.182000X-0.409500X0*%
%ADD58RoundRect,0.250000X-0.275000X0.250000X-0.275000X-0.250000X0.275000X-0.250000X0.275000X0.250000X0*%
%ADD59RoundRect,0.303571X2.096429X-0.546429X2.096429X0.546429X-2.096429X0.546429X-2.096429X-0.546429X0*%
G04 APERTURE END LIST*
D10*
X12975000Y5875000D02*
X35800000Y5875000D01*
X35800000Y-725000D01*
X12975000Y-725000D01*
X12975000Y5875000D01*
G36*
X12975000Y5875000D02*
G01*
X35800000Y5875000D01*
X35800000Y-725000D01*
X12975000Y-725000D01*
X12975000Y5875000D01*
G37*
%TO.C,JP1*%
G36*
X19350000Y12300000D02*
G01*
X17850000Y12300000D01*
X17850000Y10700000D01*
X19350000Y10700000D01*
X19350000Y12300000D01*
G37*
D11*
%TO.C,D5*%
X10035000Y23330000D02*
X9330000Y23330000D01*
X9330000Y23670000D01*
X10035000Y23670000D01*
X10035000Y23330000D01*
G36*
X10035000Y23330000D02*
G01*
X9330000Y23330000D01*
X9330000Y23670000D01*
X10035000Y23670000D01*
X10035000Y23330000D01*
G37*
X10035000Y22830000D02*
X9330000Y22830000D01*
X9330000Y23170000D01*
X10035000Y23170000D01*
X10035000Y22830000D01*
G36*
X10035000Y22830000D02*
G01*
X9330000Y22830000D01*
X9330000Y23170000D01*
X10035000Y23170000D01*
X10035000Y22830000D01*
G37*
X10035000Y22230000D02*
X9330000Y22230000D01*
X9330000Y22770000D01*
X10035000Y22770000D01*
X10035000Y22230000D01*
G36*
X10035000Y22230000D02*
G01*
X9330000Y22230000D01*
X9330000Y22770000D01*
X10035000Y22770000D01*
X10035000Y22230000D01*
G37*
X10035000Y21830000D02*
X9330000Y21830000D01*
X9330000Y22170000D01*
X10035000Y22170000D01*
X10035000Y21830000D01*
G36*
X10035000Y21830000D02*
G01*
X9330000Y21830000D01*
X9330000Y22170000D01*
X10035000Y22170000D01*
X10035000Y21830000D01*
G37*
X10035000Y21330000D02*
X9330000Y21330000D01*
X9330000Y21670000D01*
X10035000Y21670000D01*
X10035000Y21330000D01*
G36*
X10035000Y21330000D02*
G01*
X9330000Y21330000D01*
X9330000Y21670000D01*
X10035000Y21670000D01*
X10035000Y21330000D01*
G37*
X10870000Y23330000D02*
X10165000Y23330000D01*
X10165000Y23670000D01*
X10870000Y23670000D01*
X10870000Y23330000D01*
G36*
X10870000Y23330000D02*
G01*
X10165000Y23330000D01*
X10165000Y23670000D01*
X10870000Y23670000D01*
X10870000Y23330000D01*
G37*
X10870000Y22830000D02*
X10165000Y22830000D01*
X10165000Y23170000D01*
X10870000Y23170000D01*
X10870000Y22830000D01*
G36*
X10870000Y22830000D02*
G01*
X10165000Y22830000D01*
X10165000Y23170000D01*
X10870000Y23170000D01*
X10870000Y22830000D01*
G37*
X10870000Y22230000D02*
X10165000Y22230000D01*
X10165000Y22770000D01*
X10870000Y22770000D01*
X10870000Y22230000D01*
G36*
X10870000Y22230000D02*
G01*
X10165000Y22230000D01*
X10165000Y22770000D01*
X10870000Y22770000D01*
X10870000Y22230000D01*
G37*
X10870000Y21830000D02*
X10165000Y21830000D01*
X10165000Y22170000D01*
X10870000Y22170000D01*
X10870000Y21830000D01*
G36*
X10870000Y21830000D02*
G01*
X10165000Y21830000D01*
X10165000Y22170000D01*
X10870000Y22170000D01*
X10870000Y21830000D01*
G37*
X10870000Y21330000D02*
X10165000Y21330000D01*
X10165000Y21670000D01*
X10870000Y21670000D01*
X10870000Y21330000D01*
G36*
X10870000Y21330000D02*
G01*
X10165000Y21330000D01*
X10165000Y21670000D01*
X10870000Y21670000D01*
X10870000Y21330000D01*
G37*
%TD*%
D12*
%TO.C,H3*%
X51500000Y31375000D03*
X50333274Y31858274D03*
X52666726Y31858274D03*
X49850000Y33025000D03*
D13*
X51500000Y33025000D03*
D12*
X53150000Y33025000D03*
X50333274Y34191726D03*
X52666726Y34191726D03*
X51500000Y34675000D03*
%TD*%
D14*
%TO.C,L1*%
X46950000Y27525000D03*
X46950000Y17125020D03*
%TD*%
D15*
%TO.C,C5*%
X30680000Y23100000D03*
X29720000Y23100000D03*
%TD*%
D16*
%TO.C,R8*%
X38900000Y24860000D03*
X38900000Y23840000D03*
%TD*%
D12*
%TO.C,H1*%
X2589229Y31371686D03*
X1422503Y31854960D03*
X3755955Y31854960D03*
X939229Y33021686D03*
D13*
X2589229Y33021686D03*
D12*
X4239229Y33021686D03*
X1422503Y34188412D03*
X3755955Y34188412D03*
X2589229Y34671686D03*
%TD*%
D17*
%TO.C,IC2*%
X9550000Y16730000D03*
X9550000Y16230000D03*
X9550000Y15730000D03*
X9550000Y15230000D03*
X9550000Y14730000D03*
D18*
X10475000Y13805000D03*
X10975000Y13805000D03*
X11475000Y13805000D03*
X11975000Y13805000D03*
X12475000Y13805000D03*
D17*
X13400000Y14730000D03*
X13400000Y15230000D03*
X13400000Y15730000D03*
X13400000Y16230000D03*
X13400000Y16730000D03*
D18*
X12475000Y17655000D03*
X11975000Y17655000D03*
X11475000Y17655000D03*
X10975000Y17655000D03*
X10475000Y17655000D03*
D19*
X11475000Y15730000D03*
%TD*%
D20*
%TO.C,R12*%
X35850000Y28440000D03*
X35850000Y29460000D03*
%TD*%
D16*
%TO.C,R43*%
X44100000Y12385000D03*
X44100000Y11365000D03*
%TD*%
D21*
%TO.C,C29*%
X42975000Y14500000D03*
X40025000Y14500000D03*
%TD*%
D22*
%TO.C,C2*%
X30300000Y24650000D03*
X28400000Y24650000D03*
%TD*%
D20*
%TO.C,R9*%
X38900000Y19490000D03*
X38900000Y20510000D03*
%TD*%
%TO.C,R17*%
X13300000Y19100000D03*
X13300000Y20120000D03*
%TD*%
%TO.C,R29*%
X8900000Y27530000D03*
X8900000Y28550000D03*
%TD*%
D23*
%TO.C,R20*%
X15910000Y13680000D03*
X14890000Y13680000D03*
%TD*%
D24*
%TO.C,IC20*%
X8542481Y12247139D03*
X7592481Y12247139D03*
X6642481Y12247139D03*
X6642481Y9972139D03*
X8542481Y9972139D03*
%TD*%
D25*
%TO.C,J1*%
X6245000Y25225000D03*
X6245000Y24425000D03*
D26*
X6245000Y23275000D03*
X6245000Y22275000D03*
X6245000Y21775000D03*
X6245000Y20775000D03*
D25*
X6245000Y19625000D03*
X6245000Y18825000D03*
X6245000Y18825000D03*
X6245000Y19625000D03*
D26*
X6245000Y20275000D03*
X6245000Y21275000D03*
X6245000Y22775000D03*
X6245000Y23775000D03*
D25*
X6245000Y24425000D03*
X6245000Y25225000D03*
D27*
X5605000Y26345000D03*
D28*
X1425000Y26345000D03*
D27*
X5605000Y17705000D03*
D28*
X1425000Y17705000D03*
%TD*%
D23*
%TO.C,R45*%
X12420000Y33400000D03*
X11400000Y33400000D03*
%TD*%
D12*
%TO.C,H2*%
X2619995Y9367466D03*
X1453269Y9850740D03*
X3786721Y9850740D03*
X969995Y11017466D03*
D13*
X2619995Y11017466D03*
D12*
X4269995Y11017466D03*
X1453269Y12184192D03*
X3786721Y12184192D03*
X2619995Y12667466D03*
%TD*%
D29*
%TO.C,R14*%
X24262500Y17800000D03*
X18337500Y17800000D03*
%TD*%
D22*
%TO.C,C3*%
X30300000Y26800000D03*
X28400000Y26800000D03*
%TD*%
D30*
%TO.C,IC1*%
X33825000Y23950000D03*
D31*
X34125000Y24250000D03*
D32*
X34675000Y23100000D03*
X34675000Y22000000D03*
X34675000Y20900000D03*
D30*
X33825000Y20050000D03*
D31*
X34125000Y19750000D03*
D33*
X34825000Y19750000D03*
X35325000Y19750000D03*
X35825000Y19750000D03*
X36325000Y19750000D03*
D31*
X37025000Y19750000D03*
D30*
X37325000Y20050000D03*
D34*
X37375000Y20900000D03*
D32*
X36475000Y21450000D03*
X36475000Y22550000D03*
D34*
X37375000Y23100000D03*
D31*
X37025000Y24250000D03*
D30*
X37325000Y23950000D03*
D33*
X36325000Y24250000D03*
X35825000Y24250000D03*
X35325000Y24250000D03*
X34825000Y24250000D03*
%TD*%
D35*
%TO.C,C14*%
X44900000Y31950000D03*
X46450000Y31950000D03*
%TD*%
D36*
%TO.C,R49*%
X1940000Y14950000D03*
X2960000Y14950000D03*
%TD*%
D37*
%TO.C,C7*%
X34550000Y26440000D03*
X34550000Y27400000D03*
%TD*%
D38*
%TO.C,J2*%
X14750000Y3525000D03*
X15750000Y3525000D03*
X16750000Y3525000D03*
X17750000Y3525000D03*
X18750000Y3525000D03*
X19750000Y3525000D03*
X20750000Y3525000D03*
X21750000Y3525000D03*
X22750000Y3525000D03*
X23750000Y3525000D03*
X24750000Y3525000D03*
X27750000Y3525000D03*
X28750000Y3525000D03*
X29750000Y3525000D03*
X30750000Y3525000D03*
X31750000Y3525000D03*
D39*
X32750000Y4075000D03*
D38*
X33750000Y3525000D03*
%TD*%
D40*
%TO.C,C18*%
X7930000Y29500000D03*
X8890000Y29500000D03*
%TD*%
D41*
%TO.C,JP1*%
X18600000Y12800000D03*
X18600000Y11500000D03*
X18600000Y10200000D03*
%TD*%
D42*
%TO.C,C28*%
X44075000Y10405000D03*
X44075000Y9445000D03*
%TD*%
D20*
%TO.C,R4*%
X37350000Y16390000D03*
X37350000Y17410000D03*
%TD*%
D23*
%TO.C,R19*%
X15910000Y14680000D03*
X14890000Y14680000D03*
%TD*%
D43*
%TO.C,IC6*%
X39875000Y12050000D03*
X39875000Y11550000D03*
X39875000Y11050000D03*
X39875000Y10550000D03*
X39875000Y10050000D03*
X42825000Y10050000D03*
X42825000Y10550000D03*
X42825000Y11050000D03*
X42825000Y11550000D03*
X42825000Y12050000D03*
D44*
X41100000Y12600000D03*
X41100000Y9500000D03*
D45*
X41350000Y11050000D03*
D44*
X41600000Y12600000D03*
X41600000Y9500000D03*
%TD*%
D16*
%TO.C,R1*%
X34550000Y32360000D03*
X34550000Y31340000D03*
%TD*%
D21*
%TO.C,C23*%
X5975000Y28705000D03*
X3025000Y28705000D03*
%TD*%
D42*
%TO.C,C10*%
X32100000Y17030000D03*
X32100000Y16070000D03*
%TD*%
D16*
%TO.C,R16*%
X34329654Y17055585D03*
X34329654Y16035585D03*
%TD*%
D46*
%TO.C,C21*%
X12625000Y10980000D03*
X15575000Y10980000D03*
%TD*%
D20*
%TO.C,R37*%
X21441952Y11242730D03*
X21441952Y12262730D03*
%TD*%
D16*
%TO.C,R42*%
X45100000Y10435000D03*
X45100000Y9415000D03*
%TD*%
D23*
%TO.C,R23*%
X15910000Y12680000D03*
X14890000Y12680000D03*
%TD*%
D42*
%TO.C,C9*%
X39950000Y20300000D03*
X39950000Y19340000D03*
%TD*%
D40*
%TO.C,C4*%
X31870000Y25250000D03*
X32830000Y25250000D03*
%TD*%
D36*
%TO.C,R25*%
X21490000Y15100000D03*
X22510000Y15100000D03*
%TD*%
D47*
%TO.C,T1*%
X19040000Y23730000D03*
X18390000Y23730000D03*
X17740000Y23730000D03*
X17090000Y23730000D03*
D48*
X18063644Y21786250D03*
D49*
X17087287Y20816864D03*
X17739950Y20816864D03*
X18389980Y20814232D03*
X19040000Y20817500D03*
%TD*%
D42*
%TO.C,C13*%
X35350000Y17380000D03*
X35350000Y16420000D03*
%TD*%
D16*
%TO.C,R10*%
X36900000Y29460000D03*
X36900000Y28440000D03*
%TD*%
D50*
%TO.C,C1*%
X31037500Y31550000D03*
X25962500Y31550000D03*
%TD*%
D15*
%TO.C,C27*%
X38555000Y9800000D03*
X37595000Y9800000D03*
%TD*%
D46*
%TO.C,C39*%
X19220646Y34141299D03*
X22170646Y34141299D03*
%TD*%
D42*
%TO.C,C8*%
X39950000Y25350000D03*
X39950000Y24390000D03*
%TD*%
D51*
%TO.C,C12*%
X30600000Y16750000D03*
X30600000Y14850000D03*
%TD*%
D52*
%TO.C,D1*%
X900000Y15920000D03*
X900000Y14950000D03*
%TD*%
D23*
%TO.C,R52*%
X6950000Y16023250D03*
X5930000Y16023250D03*
%TD*%
D16*
%TO.C,R2*%
X34550000Y30410000D03*
X34550000Y29390000D03*
%TD*%
D51*
%TO.C,C20*%
X28550000Y16750000D03*
X28550000Y14850000D03*
%TD*%
D42*
%TO.C,C22*%
X10900000Y12260000D03*
X10900000Y11300000D03*
%TD*%
D40*
%TO.C,C16*%
X33370000Y18050000D03*
X34330000Y18050000D03*
%TD*%
D20*
%TO.C,R5*%
X38350000Y16390000D03*
X38350000Y17410000D03*
%TD*%
D15*
%TO.C,C26*%
X38555000Y12125000D03*
X37595000Y12125000D03*
%TD*%
D21*
%TO.C,C38*%
X17425000Y34150000D03*
X14475000Y34150000D03*
%TD*%
D37*
%TO.C,C11*%
X28600000Y22120000D03*
X28600000Y23080000D03*
%TD*%
D15*
%TO.C,C6*%
X38050000Y26300000D03*
X37090000Y26300000D03*
%TD*%
D53*
%TO.C,C19*%
X23900000Y21762500D03*
X23900000Y26837500D03*
%TD*%
D54*
%TO.C,IC3*%
X8150000Y31000000D03*
X8800000Y31000000D03*
X9450000Y31000000D03*
X10100000Y31000000D03*
X10100000Y33275000D03*
X9450000Y33275000D03*
X8800000Y33275000D03*
X8150000Y33275000D03*
%TD*%
D16*
%TO.C,R21*%
X15550000Y24460000D03*
X15550000Y23440000D03*
%TD*%
D20*
%TO.C,R28*%
X7900000Y27530000D03*
X7900000Y28550000D03*
%TD*%
D23*
%TO.C,R53*%
X5000000Y16023250D03*
X3980000Y16023250D03*
%TD*%
D36*
%TO.C,R27*%
X23490000Y15100000D03*
X24510000Y15100000D03*
%TD*%
D55*
%TO.C,T2*%
X17090000Y25230000D03*
X17740000Y25230000D03*
X18390000Y25230000D03*
X19040000Y25230000D03*
D56*
X18066356Y27173750D03*
D57*
X19042713Y28143136D03*
X18390050Y28143136D03*
X17740020Y28145768D03*
X17090000Y28142500D03*
%TD*%
D20*
%TO.C,R6*%
X36350000Y16390000D03*
X36350000Y17410000D03*
%TD*%
D16*
%TO.C,R13*%
X36097544Y27364935D03*
X36097544Y26344935D03*
%TD*%
D20*
%TO.C,R3*%
X33536657Y26410000D03*
X33536657Y27430000D03*
%TD*%
D23*
%TO.C,R47*%
X12420000Y34475000D03*
X11400000Y34475000D03*
%TD*%
D20*
%TO.C,R18*%
X14300000Y19090000D03*
X14300000Y20110000D03*
%TD*%
D16*
%TO.C,R7*%
X33500000Y29360000D03*
X33500000Y28340000D03*
%TD*%
D36*
%TO.C,R11*%
X37060000Y27400000D03*
X38080000Y27400000D03*
%TD*%
D29*
%TO.C,R24*%
X20462500Y30950000D03*
X14537500Y30950000D03*
%TD*%
D52*
%TO.C,D2*%
X1150000Y29267500D03*
X1150000Y28297500D03*
%TD*%
D58*
%TO.C,C15*%
X39500000Y28275000D03*
X39500000Y26725000D03*
%TD*%
D59*
%TO.C,L2*%
X40800000Y30400000D03*
X40800000Y33700000D03*
%TD*%
D16*
%TO.C,R15*%
X33368142Y17059370D03*
X33368142Y16039370D03*
%TD*%
D42*
%TO.C,C33*%
X9900000Y12260000D03*
X9900000Y11300000D03*
%TD*%
D12*
%TO.C,H4*%
X51500000Y9375000D03*
X50333274Y9858274D03*
X52666726Y9858274D03*
X49850000Y11025000D03*
D13*
X51500000Y11025000D03*
D12*
X53150000Y11025000D03*
X50333274Y12191726D03*
X52666726Y12191726D03*
X51500000Y12675000D03*
%TD*%
D51*
%TO.C,C17*%
X26450000Y16750000D03*
X26450000Y14850000D03*
%TD*%
D15*
%TO.C,C32*%
X38580000Y13600000D03*
X37620000Y13600000D03*
%TD*%
M02*
