%TF.GenerationSoftware,KiCad,Pcbnew,9.0.2*%
%TF.CreationDate,2026-02-15T12:31:08+01:00*%
%TF.ProjectId,PDNode-PDCard-5031,50444e6f-6465-42d5-9044-436172642d35,1.0.0*%
%TF.SameCoordinates,Original*%
%TF.FileFunction,Copper,L3,Inr*%
%TF.FilePolarity,Positive*%
%FSLAX46Y46*%
G04 Gerber Fmt 4.6, Leading zero omitted, Abs format (unit mm)*
G04 Created by KiCad (PCBNEW 9.0.2) date 2026-02-15 12:31:08*
%MOMM*%
%LPD*%
G01*
G04 APERTURE LIST*
%TA.AperFunction,ComponentPad*%
%ADD10C,0.700000*%
%TD*%
%TA.AperFunction,ComponentPad*%
%ADD11C,4.400000*%
%TD*%
%TA.AperFunction,HeatsinkPad*%
%ADD12C,0.500000*%
%TD*%
%TA.AperFunction,HeatsinkPad*%
%ADD13O,2.100000X1.000000*%
%TD*%
%TA.AperFunction,HeatsinkPad*%
%ADD14O,1.600000X1.000000*%
%TD*%
%TA.AperFunction,ComponentPad*%
%ADD15C,0.600000*%
%TD*%
%TA.AperFunction,ViaPad*%
%ADD16C,0.550000*%
%TD*%
%TA.AperFunction,ViaPad*%
%ADD17C,0.400000*%
%TD*%
%TA.AperFunction,Conductor*%
%ADD18C,0.200000*%
%TD*%
%TA.AperFunction,Conductor*%
%ADD19C,0.150000*%
%TD*%
%TA.AperFunction,Conductor*%
%ADD20C,0.500000*%
%TD*%
%TA.AperFunction,Conductor*%
%ADD21C,0.250000*%
%TD*%
G04 APERTURE END LIST*
D10*
%TO.N,GND*%
%TO.C,H3*%
X51500000Y31375000D03*
X50333274Y31858274D03*
X52666726Y31858274D03*
X49850000Y33025000D03*
D11*
X51500000Y33025000D03*
D10*
X53150000Y33025000D03*
X50333274Y34191726D03*
X52666726Y34191726D03*
X51500000Y34675000D03*
%TD*%
%TO.N,GND*%
%TO.C,H1*%
X2589229Y31371686D03*
X1422503Y31854960D03*
X3755955Y31854960D03*
X939229Y33021686D03*
D11*
X2589229Y33021686D03*
D10*
X4239229Y33021686D03*
X1422503Y34188412D03*
X3755955Y34188412D03*
X2589229Y34671686D03*
%TD*%
D12*
%TO.N,GND*%
%TO.C,IC2*%
X10775000Y16430000D03*
X10775000Y15730000D03*
X10775000Y15030000D03*
X11475000Y16430000D03*
X11475000Y15730000D03*
X11475000Y15030000D03*
X12175000Y16430000D03*
X12175000Y15730000D03*
X12175000Y15030000D03*
%TD*%
D13*
%TO.N,SHIELD*%
%TO.C,J1*%
X5605000Y26345000D03*
D14*
X1425000Y26345000D03*
D13*
X5605000Y17705000D03*
D14*
X1425000Y17705000D03*
%TD*%
D10*
%TO.N,GND*%
%TO.C,H2*%
X2619995Y9367466D03*
X1453269Y9850740D03*
X3786721Y9850740D03*
X969995Y11017466D03*
D11*
X2619995Y11017466D03*
D10*
X4269995Y11017466D03*
X1453269Y12184192D03*
X3786721Y12184192D03*
X2619995Y12667466D03*
%TD*%
D15*
%TO.N,GND*%
%TO.C,IC6*%
X40870000Y11910000D03*
X40870000Y10190000D03*
X41350000Y11050000D03*
X41830000Y11910000D03*
X41830000Y10190000D03*
%TD*%
D10*
%TO.N,GND*%
%TO.C,H4*%
X51500000Y9375000D03*
X50333274Y9858274D03*
X52666726Y9858274D03*
X49850000Y11025000D03*
D11*
X51500000Y11025000D03*
D10*
X53150000Y11025000D03*
X50333274Y12191726D03*
X52666726Y12191726D03*
X51500000Y12675000D03*
%TD*%
D16*
%TO.N,+24V*%
X24750000Y11500000D03*
X41000000Y28500000D03*
X31750000Y11500000D03*
X42250000Y17500000D03*
X39000000Y29500000D03*
X26750000Y9500000D03*
X25800000Y9500000D03*
X43000000Y29500000D03*
X40250000Y17500000D03*
X38000000Y30500000D03*
X42000000Y30500000D03*
X43000000Y30500000D03*
X42000000Y28500000D03*
X42250000Y16500000D03*
X27750000Y10500000D03*
X39250000Y17500000D03*
X37500000Y15500000D03*
X34750000Y10500000D03*
X41000000Y30500000D03*
X29750000Y11500000D03*
X29750000Y10500000D03*
X24750000Y9500000D03*
X43250000Y16500000D03*
X40000000Y30500000D03*
X25800000Y11500000D03*
X40250000Y16500000D03*
X30750000Y10500000D03*
X33750000Y10500000D03*
X27750000Y9500000D03*
X39000000Y30500000D03*
X42000000Y27500000D03*
X29750000Y9500000D03*
X35750000Y9500000D03*
X42000000Y29500000D03*
X34743530Y11500519D03*
X41250000Y16500000D03*
X43250000Y17500000D03*
X33750000Y11500000D03*
X35750000Y10500000D03*
X28750000Y9500000D03*
X40000000Y29500000D03*
X41000000Y29500000D03*
X41250000Y17500000D03*
X25800000Y10500000D03*
X38500000Y15500000D03*
X27750000Y11500000D03*
X34750000Y9500000D03*
X41000000Y27500000D03*
X43000000Y27500000D03*
X38000000Y29500000D03*
X32750000Y11500000D03*
X30750000Y11500000D03*
X32750000Y10500000D03*
X31750000Y10500000D03*
X24750000Y10500000D03*
X26750000Y11500000D03*
X39250000Y16500000D03*
X28750000Y10500000D03*
X28750000Y11500000D03*
X26750000Y10500000D03*
X43000000Y28500000D03*
D17*
%TO.N,GND*%
X32500000Y7500000D03*
X26664831Y31037565D03*
X25150000Y32000000D03*
X28600000Y23050000D03*
X3976821Y25291475D03*
X33400000Y22200000D03*
X23170727Y27504839D03*
X33500000Y8500000D03*
X33500000Y7500000D03*
X31500000Y9500000D03*
X1299809Y18771552D03*
X38100000Y28250000D03*
X13300000Y23700000D03*
X34000000Y22200000D03*
X25900000Y32000000D03*
X35189770Y15731521D03*
X6245000Y18825000D03*
X3950000Y16000000D03*
X28400000Y27950000D03*
X17700000Y8300000D03*
X25914831Y31037565D03*
X32100000Y15350000D03*
X2942044Y26075807D03*
X6801333Y31526681D03*
X1150000Y29250000D03*
X23920727Y28254839D03*
X37050000Y25500000D03*
X31500000Y8500000D03*
X29720000Y23100000D03*
X13500030Y22396439D03*
X1893632Y25291475D03*
X24670727Y28254839D03*
X1750000Y15900000D03*
X45800000Y9400000D03*
X44075000Y9445000D03*
X26446282Y13891533D03*
X27350000Y26800000D03*
X3360295Y18797270D03*
X27508860Y13869045D03*
X23170727Y26754839D03*
X34000000Y21600000D03*
X26650000Y32000000D03*
X10100000Y22500000D03*
X2299809Y18771552D03*
X30500000Y8500000D03*
X24900000Y34100000D03*
D16*
X47548253Y31945453D03*
D17*
X7600000Y10880000D03*
X23920727Y26754839D03*
X32500000Y9500000D03*
X37595000Y9800000D03*
X10900000Y10500000D03*
X5962500Y28700000D03*
X5974417Y29331608D03*
X32800000Y21600000D03*
X2893632Y25291475D03*
X53050000Y24450000D03*
X28548949Y13885911D03*
X8107924Y23250000D03*
X9900000Y10500000D03*
X11900488Y24172531D03*
X25164831Y31037565D03*
X5553226Y31174363D03*
X34614654Y28074701D03*
X32800000Y22200000D03*
X35250000Y27400000D03*
X11464007Y21422760D03*
X25250000Y14850000D03*
X6998867Y18804394D03*
X30500000Y7500000D03*
X33399260Y21614526D03*
X32500000Y8500000D03*
X23170727Y28254839D03*
X15579447Y10416321D03*
X34600000Y21600000D03*
X39450000Y26700000D03*
X9650000Y29700000D03*
X31500000Y7500000D03*
X28427075Y24162452D03*
X24670727Y27504839D03*
X33500000Y9500000D03*
X53100000Y23600000D03*
X3931534Y26070185D03*
X7028734Y25291475D03*
X32850000Y27450000D03*
X6028734Y25291475D03*
X29605904Y13880289D03*
X34682119Y28766220D03*
X5962499Y28044559D03*
X42850000Y9450000D03*
X36448237Y25473991D03*
X23920727Y27504839D03*
X7157418Y26041983D03*
X34600000Y22200000D03*
X52450000Y29350000D03*
X28400000Y25000000D03*
X8097331Y21646766D03*
X28400000Y25700000D03*
X13400000Y34100000D03*
X52950000Y21250000D03*
%TO.N,+24V_FILTERED*%
X30750000Y30000000D03*
X39750000Y34500000D03*
X31500000Y28500000D03*
X30750000Y29250000D03*
X42750000Y33000000D03*
X30000000Y28500000D03*
X40500000Y33000000D03*
X31500000Y23000000D03*
X42750000Y33750000D03*
X40500000Y34500000D03*
X33000000Y23000000D03*
X30000000Y29250000D03*
X39000000Y34500000D03*
X31500000Y31000000D03*
X42750000Y34500000D03*
X30750000Y27750000D03*
X42000000Y34500000D03*
X39750000Y33750000D03*
X32250000Y23000000D03*
X30750000Y31000000D03*
X31500000Y29250000D03*
X30750000Y24750000D03*
X30000000Y31000000D03*
X31500000Y23750000D03*
X30000000Y25500000D03*
X30000000Y27750000D03*
X42000000Y33000000D03*
X31500000Y27750000D03*
X31500000Y26250000D03*
X39000000Y33000000D03*
X39000000Y33750000D03*
X30750000Y28500000D03*
X42000000Y33750000D03*
X40500000Y33750000D03*
X31500000Y27000000D03*
X41250000Y33000000D03*
X30750000Y24000000D03*
X31500000Y30000000D03*
X30000000Y30000000D03*
X39750000Y33000000D03*
X30000000Y24750000D03*
X41250000Y34500000D03*
X30000000Y27000000D03*
X32250000Y23750000D03*
X30000000Y24000000D03*
X41250000Y33750000D03*
X30750000Y27000000D03*
%TO.N,+3.54V*%
X38050000Y26300000D03*
X37350000Y16390000D03*
X33500000Y29350000D03*
X37325000Y23950000D03*
%TO.N,+3.3V*%
X18796603Y10202332D03*
X22150000Y10750000D03*
X45750000Y12500000D03*
X46495558Y11751589D03*
X45000000Y13250000D03*
X5900000Y34150000D03*
X18028611Y10191739D03*
X7600000Y9900000D03*
X45750000Y11750000D03*
X45750000Y13250000D03*
X46500000Y13250000D03*
X46495558Y12505736D03*
X10700000Y31000000D03*
X45000000Y12500000D03*
X16600000Y12200000D03*
X51000000Y20600000D03*
X12420000Y33400000D03*
%TO.N,/Project Architecture/Adjustable 5A Buck Converter/PMIC_VOUT*%
X29500000Y20500000D03*
X30500000Y19500000D03*
X28500000Y20500000D03*
X30500000Y18500000D03*
X30500000Y16500000D03*
X32500000Y17500000D03*
X24500000Y16500000D03*
X26500000Y18500000D03*
X26500000Y17500000D03*
X23500000Y17500000D03*
X29500000Y19500000D03*
X27500000Y16500000D03*
X35829617Y28412824D03*
X28500000Y16500000D03*
X25500000Y21500000D03*
X23500000Y19500000D03*
X29500000Y21500000D03*
X26500000Y23500000D03*
X30500000Y21500000D03*
X25500000Y16500000D03*
X29500000Y17500000D03*
X32500000Y20500000D03*
X27500000Y20500000D03*
X26500000Y22500000D03*
X26500000Y21500000D03*
X28500000Y21500000D03*
X32500000Y18500000D03*
X27500000Y17500000D03*
X25500000Y20500000D03*
X29500000Y18500000D03*
X21800000Y17800000D03*
X29500000Y16500000D03*
X27500000Y18500000D03*
X24500000Y19500000D03*
X25500000Y18500000D03*
X26500000Y16500000D03*
X31500000Y17500000D03*
X31500000Y18500000D03*
X28500000Y17500000D03*
X23500000Y18500000D03*
X24500000Y18500000D03*
X25500000Y19500000D03*
X27500000Y21500000D03*
X23500000Y16500000D03*
X32500000Y19500000D03*
X26500000Y20500000D03*
X31500000Y19500000D03*
X30500000Y20500000D03*
X30500000Y17500000D03*
X24500000Y17500000D03*
X26500000Y19500000D03*
X28500000Y19500000D03*
X31500000Y20500000D03*
X25500000Y17500000D03*
X28500000Y18500000D03*
X25500000Y22500000D03*
X27500000Y19500000D03*
X25500000Y23500000D03*
X33350000Y16000000D03*
%TO.N,SHIELD*%
X3005622Y28794977D03*
%TO.N,+5V*%
X17750000Y14000000D03*
D16*
X23463944Y12800000D03*
D17*
X19250000Y14000000D03*
X18500000Y14000000D03*
%TO.N,+5VA*%
X34614654Y26425945D03*
%TO.N,Net-(IC3-A0)*%
X5775000Y32210000D03*
%TO.N,Net-(IC3-A1)*%
X7050000Y33150000D03*
%TO.N,/Project Architecture/USB-PD Source Controller/VDD_PD*%
X9900000Y12260000D03*
%TO.N,/Project Architecture/USB-PD Source Controller/USB_D+*%
X8701132Y22130513D03*
X13065717Y22982585D03*
X2286758Y21631720D03*
X11410707Y22159239D03*
%TO.N,PGOOD_3V3*%
X39031491Y11045295D03*
X53100000Y22700000D03*
X20840892Y7873036D03*
%TO.N,Net-(JP1-C)*%
X16750000Y9000000D03*
%TO.N,/Project Architecture/USB-PD Source Controller/USB_D-*%
X8690539Y22857898D03*
X11386758Y22888282D03*
X2265572Y22389119D03*
X12532536Y23536952D03*
%TO.N,/Project Architecture/USB-PD Source Controller/CC2*%
X11446401Y20699596D03*
X14250022Y20107490D03*
%TO.N,/Project Architecture/USB-PD Source Controller/CC1*%
X11100000Y23850000D03*
X13300000Y20120000D03*
%TO.N,/Project Architecture/USB-PD Source Controller/VBUS_MEA*%
X21000000Y29500000D03*
X18000000Y31500000D03*
X20000000Y30500000D03*
X21000000Y32500000D03*
X18000000Y29500000D03*
X18000000Y32500000D03*
X7900000Y27550000D03*
X16392496Y30961700D03*
X7000000Y15500000D03*
X18000000Y30500000D03*
X19000000Y27500000D03*
X20998463Y30488307D03*
X19000000Y26500000D03*
X17000000Y29500000D03*
X17000000Y28500000D03*
X20000000Y28500000D03*
X19000000Y30500000D03*
X20000000Y31500000D03*
X21000000Y28500000D03*
X18000000Y26500000D03*
X21000000Y27500000D03*
X18000000Y28500000D03*
X20000000Y32500000D03*
X19000000Y31500000D03*
X21000000Y31500000D03*
X19000000Y28500000D03*
X17000000Y27500000D03*
X17000000Y31500000D03*
X21000000Y26500000D03*
X17000000Y30500000D03*
X17000000Y26500000D03*
X19000000Y29500000D03*
X20000000Y26500000D03*
X19000000Y32500000D03*
X17000000Y32500000D03*
X20000000Y29500000D03*
X20000000Y27500000D03*
X18000000Y27500000D03*
%TO.N,/Project Architecture/USB-PD Source Controller/DISCHRG*%
X26400000Y29850000D03*
X11475000Y19675000D03*
%TO.N,/Project Architecture/Adjustable 5A Buck Converter/PD_SCL*%
X37025000Y18735000D03*
X8614870Y16524871D03*
%TO.N,/Project Architecture/Adjustable 5A Buck Converter/PD_ADD*%
X33500000Y28300000D03*
X33536657Y25800000D03*
%TO.N,/Project Architecture/Adjustable 5A Buck Converter/PMIC_ENABLE*%
X51100000Y22044243D03*
X34550000Y30410000D03*
X20500000Y10200000D03*
X33550000Y23950000D03*
X15650000Y18800000D03*
%TO.N,/Project Architecture/Adjustable 5A Buck Converter/PD_SDA*%
X36481812Y18278189D03*
X9548231Y17370563D03*
%TO.N,/Project Architecture/Adjustable 5A Buck Converter/PD_ALT*%
X36350000Y17410000D03*
X7700000Y15700000D03*
%TO.N,/Project Architecture/USB-PD Source Controller/VDRV*%
X19200000Y25188223D03*
X10712905Y19397682D03*
X17100000Y23700000D03*
%TO.N,/Project Architecture/USB-PD Source Controller/I2C_SDCL*%
X8600000Y12050000D03*
X10200000Y33275000D03*
%TO.N,/Project Architecture/USB-PD Source Controller/PD_ATTACH*%
X14890000Y12680000D03*
%TO.N,/Project Architecture/USB-PD Source Controller/I2C_SDA*%
X14200000Y15230000D03*
X9450000Y33275000D03*
X6500000Y13600000D03*
%TO.N,/Project Architecture/USB-PD Source Controller/PD_ENABLE*%
X51600000Y15200000D03*
X14150000Y13805000D03*
X22200000Y7325000D03*
%TO.N,/Project Architecture/USB-PD Source Controller/VBUS*%
X14000000Y32500000D03*
X14000000Y31500000D03*
X7048301Y19637709D03*
X2274329Y20782903D03*
X15000000Y28500000D03*
X14000000Y27500000D03*
X13000000Y24500000D03*
X11000000Y27500000D03*
X15000000Y32500000D03*
X9557231Y20574378D03*
X9108429Y19611367D03*
X2273057Y19605652D03*
X14000000Y30500000D03*
X11000000Y29500000D03*
X13000000Y27500000D03*
X13000000Y28500000D03*
X12000000Y31500000D03*
X7000000Y24500000D03*
X15000000Y31500000D03*
X11000000Y25500000D03*
X13000000Y29500000D03*
X2000000Y23500000D03*
X6000000Y24500000D03*
X13000000Y25500000D03*
X15000000Y27500000D03*
X3384110Y20632467D03*
X14000000Y29500000D03*
X1273057Y19605652D03*
X8900000Y27500000D03*
X15510771Y30950000D03*
X11007944Y24597986D03*
X1274329Y20782903D03*
X15000000Y29500000D03*
X2000000Y24500000D03*
X4384110Y20632467D03*
X12000000Y32500000D03*
X13000000Y30500000D03*
X8095575Y24494378D03*
X14000000Y25500000D03*
X4003167Y23498734D03*
X11000000Y28500000D03*
X3368868Y19611685D03*
X12000000Y30500000D03*
X12000000Y28500000D03*
X13000000Y32500000D03*
X3000000Y24500000D03*
X8108429Y19611367D03*
X4000000Y24500000D03*
X13000000Y31500000D03*
X12000000Y29500000D03*
X10000000Y24500000D03*
X12000000Y27500000D03*
X15000000Y30500000D03*
X4800000Y23700000D03*
X10000000Y25500000D03*
X6245000Y19625000D03*
X3003167Y23498734D03*
X8557231Y20574378D03*
X14000000Y28500000D03*
X12000000Y25500000D03*
%TO.N,/Project Architecture/Board Connector and Supplies/PORT_EN*%
X7700000Y14950000D03*
X21496071Y8353930D03*
%TO.N,/Project Architecture/Board Connector and Supplies/VBUS_VMON_PORT0*%
X5000000Y16023250D03*
X19000000Y9000000D03*
X23297751Y7170273D03*
%TO.N,/Project Architecture/Board Connector and Supplies/PMIC_VMON_PORT0*%
X22412847Y14892435D03*
%TO.N,Net-(PMFB1-Pad1)*%
X36822536Y28412858D03*
%TO.N,/Project Architecture/USB-PD Source Controller/V_PMIC_OUT*%
X18000000Y20500000D03*
X18000000Y22500000D03*
X18000000Y16500000D03*
X19000000Y22500000D03*
X20800000Y17800000D03*
X19000000Y20500000D03*
X34300000Y16000000D03*
X17000000Y21500000D03*
X17000000Y19500000D03*
X18000000Y17500000D03*
X20000000Y18500000D03*
X17996071Y18518011D03*
X17000000Y20500000D03*
X19991976Y16522107D03*
X17000000Y17500000D03*
X20000000Y19500000D03*
X19000000Y17500000D03*
X20000000Y17500000D03*
X18000000Y21500000D03*
X17000000Y18500000D03*
X19000000Y21500000D03*
X18000000Y19500000D03*
X19000000Y18500000D03*
X17000000Y16500000D03*
X17000000Y22500000D03*
X19000000Y19500000D03*
X19000000Y16500000D03*
%TO.N,/Project Architecture/USB-PD Source Controller/T3T4DS*%
X19039034Y23713856D03*
X18401620Y23713856D03*
X17753582Y25201157D03*
X17085417Y24509662D03*
X17100000Y25200000D03*
X16500000Y25200000D03*
X17800000Y23697920D03*
X19703239Y23715013D03*
X16478984Y24441571D03*
X19700000Y24446882D03*
X18400000Y25200000D03*
X19049657Y24462818D03*
%TO.N,Net-(D2-Pad2)*%
X51650000Y17900000D03*
X1150000Y28300000D03*
%TD*%
D18*
%TO.N,/Project Architecture/USB-PD Source Controller/V_PMIC_OUT*%
X29710278Y15389722D02*
X30900000Y14200000D01*
X30900000Y14200000D02*
X33400000Y14200000D01*
X34052474Y15752474D02*
X34300000Y16000000D01*
X22558481Y15389722D02*
X29710278Y15389722D01*
X33400000Y14200000D02*
X34052474Y14852474D01*
X21100000Y16848203D02*
X22558481Y15389722D01*
X21100000Y17500000D02*
X21100000Y16848203D01*
X20800000Y17800000D02*
X21100000Y17500000D01*
X34052474Y14852474D02*
X34052474Y15752474D01*
%TO.N,/Project Architecture/Adjustable 5A Buck Converter/PMIC_VOUT*%
X33641470Y15708530D02*
X33350000Y16000000D01*
X33641470Y15041470D02*
X33641470Y15708530D01*
X22702642Y15861991D02*
X29979037Y15861991D01*
X21543747Y17020886D02*
X22702642Y15861991D01*
X33200000Y14600000D02*
X33641470Y15041470D01*
X21543747Y17543747D02*
X21543747Y17020886D01*
X31241028Y14600000D02*
X33200000Y14600000D01*
X29979037Y15861991D02*
X31241028Y14600000D01*
X21800000Y17800000D02*
X21543747Y17543747D01*
%TO.N,/Project Architecture/USB-PD Source Controller/VDRV*%
X15926270Y23026270D02*
X16600000Y23700000D01*
X16600000Y23700000D02*
X17100000Y23700000D01*
X15926270Y20263788D02*
X15926270Y23026270D01*
X14737538Y19075056D02*
X15926270Y20263788D01*
X11074944Y19075056D02*
X14737538Y19075056D01*
X10712905Y19397682D02*
X10752318Y19397682D01*
X10752318Y19397682D02*
X11074944Y19075056D01*
%TO.N,/Project Architecture/USB-PD Source Controller/DISCHRG*%
X26250000Y30000000D02*
X26400000Y29850000D01*
X22900000Y30000000D02*
X26250000Y30000000D01*
X22000000Y29100000D02*
X22900000Y30000000D01*
X22000000Y26400000D02*
X22000000Y29100000D01*
X16100000Y25900000D02*
X21500000Y25900000D01*
X15480048Y25280048D02*
X16100000Y25900000D01*
X21500000Y25900000D02*
X22000000Y26400000D01*
X14400000Y19500000D02*
X15480048Y20580048D01*
X11650000Y19500000D02*
X14400000Y19500000D01*
X15480048Y20580048D02*
X15480048Y25280048D01*
X11475000Y19675000D02*
X11650000Y19500000D01*
D19*
%TO.N,/Project Architecture/USB-PD Source Controller/I2C_SDA*%
X5844300Y14255700D02*
X6500000Y13600000D01*
X5844300Y15944300D02*
X5844300Y14255700D01*
X7100000Y17200000D02*
X5844300Y15944300D01*
X7100000Y17867978D02*
X7100000Y17200000D01*
X8595851Y19363829D02*
X7100000Y17867978D01*
X8595851Y19909096D02*
X8595851Y19363829D01*
X9041871Y20355116D02*
X8595851Y19909096D01*
X9041871Y20809473D02*
X9041871Y20355116D01*
X9207220Y20974822D02*
X9041871Y20809473D01*
X7000000Y26900851D02*
X8626623Y25274228D01*
X8626623Y25274228D02*
X8626623Y23699864D01*
X7000000Y30101914D02*
X7000000Y26900851D01*
X9450000Y32551914D02*
X7000000Y30101914D01*
X8626623Y23699864D02*
X9207220Y23119267D01*
X9207220Y23119267D02*
X9207220Y20974822D01*
X9450000Y33275000D02*
X9450000Y32551914D01*
%TO.N,/Project Architecture/USB-PD Source Controller/I2C_SDCL*%
X8600000Y12600000D02*
X8600000Y12050000D01*
X6515091Y14684909D02*
X8600000Y12600000D01*
X6515091Y15900657D02*
X6515091Y14684909D01*
X7600022Y16985588D02*
X6515091Y15900657D01*
X7600022Y17813869D02*
X7600022Y16985588D01*
X8786153Y19000000D02*
X7600022Y17813869D01*
X9245951Y19000000D02*
X8786153Y19000000D01*
X10065094Y19819143D02*
X9245951Y19000000D01*
X10065094Y20919276D02*
X10065094Y19819143D01*
X9104926Y23874316D02*
X9577396Y23401846D01*
X9577396Y21406974D02*
X10065094Y20919276D01*
X9104926Y25323207D02*
X9104926Y23874316D01*
X7400000Y29905971D02*
X7400000Y27028133D01*
X7400000Y27028133D02*
X9104926Y25323207D01*
X9577396Y23401846D02*
X9577396Y21406974D01*
X10200000Y32705971D02*
X7400000Y29905971D01*
X10200000Y33275000D02*
X10200000Y32705971D01*
D18*
%TO.N,/Project Architecture/Adjustable 5A Buck Converter/PD_ALT*%
X8049160Y16049160D02*
X7700000Y15700000D01*
X8049160Y17679710D02*
X8049160Y16049160D01*
X8969450Y18600000D02*
X8049160Y17679710D01*
X17000000Y15700000D02*
X14100000Y18600000D01*
X20700000Y15700000D02*
X17000000Y15700000D01*
X22140147Y14259853D02*
X20700000Y15700000D01*
X25666793Y14259853D02*
X22140147Y14259853D01*
X27196783Y14403217D02*
X25810157Y14403217D01*
X29884531Y14400000D02*
X27200000Y14400000D01*
X35100000Y13800000D02*
X30484531Y13800000D01*
X25810157Y14403217D02*
X25666793Y14259853D01*
X35825000Y14525000D02*
X35100000Y13800000D01*
X27200000Y14400000D02*
X27196783Y14403217D01*
X35825000Y16885000D02*
X35825000Y14525000D01*
X30484531Y13800000D02*
X29884531Y14400000D01*
X36350000Y17410000D02*
X35825000Y16885000D01*
X14100000Y18600000D02*
X8969450Y18600000D01*
%TO.N,/Project Architecture/Adjustable 5A Buck Converter/PD_SCL*%
X37025000Y17350716D02*
X37025000Y18735000D01*
X36300000Y16625716D02*
X37025000Y17350716D01*
X36300000Y14200000D02*
X36300000Y16625716D01*
X35449000Y13349000D02*
X36300000Y14200000D01*
X26051000Y13349000D02*
X35449000Y13349000D01*
X25544938Y13855062D02*
X26051000Y13349000D01*
X21844938Y13855062D02*
X25544938Y13855062D01*
X20400000Y15300000D02*
X21844938Y13855062D01*
X9170245Y18200000D02*
X13800000Y18200000D01*
X8924104Y17953859D02*
X9170245Y18200000D01*
X16700000Y15300000D02*
X20400000Y15300000D01*
X8614870Y16524871D02*
X8924104Y16834104D01*
X13800000Y18200000D02*
X16700000Y15300000D01*
X8924104Y16834104D02*
X8924104Y17953859D01*
%TO.N,/Project Architecture/Adjustable 5A Buck Converter/PD_SDA*%
X36325000Y19025000D02*
X36325000Y18435001D01*
X36600000Y19300000D02*
X36325000Y19025000D01*
X37300000Y19300000D02*
X36600000Y19300000D01*
X37600000Y19000000D02*
X37300000Y19300000D01*
X37600000Y17414105D02*
X37600000Y19000000D01*
X37426000Y17240105D02*
X37600000Y17414105D01*
X37426000Y17184616D02*
X37426000Y17240105D01*
X36800000Y16558616D02*
X37426000Y17184616D01*
X36800000Y13900000D02*
X36800000Y16558616D01*
X35800000Y12900000D02*
X36800000Y13900000D01*
X25700000Y12900000D02*
X35800000Y12900000D01*
X25200000Y13400000D02*
X25700000Y12900000D01*
X21400000Y13400000D02*
X25200000Y13400000D01*
X9740718Y17370563D02*
X9970155Y17600000D01*
X9548231Y17370563D02*
X9740718Y17370563D01*
X13500000Y17600000D02*
X16300000Y14800000D01*
X9970155Y17600000D02*
X13500000Y17600000D01*
X36325000Y18435001D02*
X36481812Y18278189D01*
X16300000Y14800000D02*
X20000000Y14800000D01*
X20000000Y14800000D02*
X21400000Y13400000D01*
%TO.N,/Project Architecture/USB-PD Source Controller/VBUS_MEA*%
X7950000Y27550000D02*
X7900000Y27550000D01*
X8175022Y27324978D02*
X7950000Y27550000D01*
X8767476Y26232524D02*
X8175022Y26824978D01*
X15374194Y26232524D02*
X8767476Y26232524D01*
X16151000Y30677929D02*
X16151000Y27009330D01*
X16151000Y27009330D02*
X15374194Y26232524D01*
X8175022Y26824978D02*
X8175022Y27324978D01*
X16392496Y30919425D02*
X16151000Y30677929D01*
X16392496Y30961700D02*
X16392496Y30919425D01*
%TO.N,/Project Architecture/USB-PD Source Controller/VBUS*%
X15257490Y26757490D02*
X15690631Y27190631D01*
X15690631Y27190631D02*
X15690631Y30770140D01*
X8896388Y26757490D02*
X15257490Y26757490D01*
X8633881Y27019997D02*
X8896388Y26757490D01*
X8633881Y27233881D02*
X8633881Y27019997D01*
X8900000Y27500000D02*
X8633881Y27233881D01*
X15690631Y30770140D02*
X15510771Y30950000D01*
D19*
%TO.N,PGOOD_3V3*%
X20840892Y7759108D02*
X20840892Y7873036D01*
X21842876Y7700000D02*
X20900000Y7700000D01*
X20900000Y7700000D02*
X20840892Y7759108D01*
X24265243Y12516859D02*
X22650000Y10901616D01*
X35517027Y12516859D02*
X24265243Y12516859D01*
X22650000Y10901616D02*
X22650000Y8507124D01*
X22650000Y8507124D02*
X21842876Y7700000D01*
X39031491Y11045295D02*
X36988591Y11045295D01*
X36988591Y11045295D02*
X35517027Y12516859D01*
%TO.N,/Project Architecture/USB-PD Source Controller/PD_ENABLE*%
X50500000Y15200000D02*
X51600000Y15200000D01*
X47350000Y12050000D02*
X50500000Y15200000D01*
X47350000Y11100000D02*
X47350000Y12050000D01*
X46650000Y10400000D02*
X47350000Y11100000D01*
X43096173Y10400000D02*
X46650000Y10400000D01*
X42196173Y9500000D02*
X43096173Y10400000D01*
X37619204Y10591981D02*
X38711185Y9500000D01*
X23000000Y10674322D02*
X24431313Y12105635D01*
X24431313Y12105635D02*
X35377036Y12105635D01*
X23000000Y8125000D02*
X23000000Y10674322D01*
X35377036Y12105635D02*
X36890690Y10591981D01*
X36890690Y10591981D02*
X37619204Y10591981D01*
X22200000Y7325000D02*
X23000000Y8125000D01*
X38711185Y9500000D02*
X42196173Y9500000D01*
D20*
%TO.N,+5V*%
X19800000Y14000000D02*
X17750000Y14000000D01*
X23463944Y12800000D02*
X21000000Y12800000D01*
X21000000Y12800000D02*
X19800000Y14000000D01*
D19*
%TO.N,PGOOD_3V3*%
X52300000Y21900000D02*
X53100000Y22700000D01*
X50500000Y16500000D02*
X51100000Y16500000D01*
X42000000Y14000000D02*
X48000000Y14000000D01*
X48000000Y14000000D02*
X50500000Y16500000D01*
X51100000Y16500000D02*
X52300000Y17700000D01*
X39045295Y11045295D02*
X42000000Y14000000D01*
X52300000Y17700000D02*
X52300000Y21900000D01*
X39031491Y11045295D02*
X39045295Y11045295D01*
D21*
%TO.N,/Project Architecture/Adjustable 5A Buck Converter/PMIC_ENABLE*%
X16759400Y23059400D02*
X20959400Y23059400D01*
X24159400Y26259400D02*
X30541199Y26259400D01*
D19*
X34100000Y25100000D02*
X33550000Y24550000D01*
X50994243Y22150000D02*
X37350000Y22150000D01*
X35550000Y23950000D02*
X33550000Y23950000D01*
D21*
X32850599Y23950000D02*
X33550000Y23950000D01*
X20959400Y23059400D02*
X24159400Y26259400D01*
X16400000Y22700000D02*
X16759400Y23059400D01*
D19*
X37350000Y22150000D02*
X35550000Y23950000D01*
D21*
X15650000Y18800000D02*
X16400000Y19550000D01*
D19*
X33550000Y24550000D02*
X33550000Y23950000D01*
X51100000Y22044243D02*
X50994243Y22150000D01*
X34100000Y29400000D02*
X34100000Y25100000D01*
X34550000Y29850000D02*
X34100000Y29400000D01*
D21*
X30541199Y26259400D02*
X32850599Y23950000D01*
D19*
X34550000Y30410000D02*
X34550000Y29850000D01*
D21*
X16400000Y19550000D02*
X16400000Y22700000D01*
D19*
%TO.N,/Project Architecture/USB-PD Source Controller/VDRV*%
X18113949Y24225271D02*
X17625271Y24225271D01*
X19200000Y25188223D02*
X19076901Y25188223D01*
X17625271Y24225271D02*
X17100000Y23700000D01*
X19076901Y25188223D02*
X18113949Y24225271D01*
D21*
%TO.N,/Project Architecture/Board Connector and Supplies/PORT_EN*%
X21200000Y8650000D02*
X21200000Y10800000D01*
X12472725Y14400000D02*
X12446725Y14374000D01*
X8500000Y14400000D02*
X7950000Y14950000D01*
X19000000Y13000000D02*
X17500000Y13000000D01*
X11746725Y14374000D02*
X11203275Y14374000D01*
X17500000Y13000000D02*
X16100000Y14400000D01*
X21496071Y8353930D02*
X21200000Y8650000D01*
X11903275Y14374000D02*
X11877275Y14400000D01*
X11072725Y14400000D02*
X11046725Y14374000D01*
X11203275Y14374000D02*
X11177275Y14400000D01*
X7950000Y14950000D02*
X7700000Y14950000D01*
X11772725Y14400000D02*
X11746725Y14374000D01*
X10503275Y14374000D02*
X10477275Y14400000D01*
X11177275Y14400000D02*
X11072725Y14400000D01*
X10477275Y14400000D02*
X8500000Y14400000D01*
X11046725Y14374000D02*
X10503275Y14374000D01*
X11877275Y14400000D02*
X11772725Y14400000D01*
X12446725Y14374000D02*
X11903275Y14374000D01*
X16100000Y14400000D02*
X12472725Y14400000D01*
X21200000Y10800000D02*
X19000000Y13000000D01*
D18*
%TO.N,/Project Architecture/Board Connector and Supplies/VBUS_VMON_PORT0*%
X21151731Y6810458D02*
X19000000Y8962189D01*
X23297751Y7170273D02*
X23195273Y7170273D01*
X22835458Y6810458D02*
X21151731Y6810458D01*
X23195273Y7170273D02*
X22835458Y6810458D01*
X19000000Y8962189D02*
X19000000Y9000000D01*
D19*
%TO.N,Net-(D2-Pad2)*%
X6297652Y30597652D02*
X6297652Y33210095D01*
X1150000Y28300000D02*
X4000000Y28300000D01*
X43500000Y35000000D02*
X43700000Y34800000D01*
X45250000Y30250000D02*
X50250000Y30250000D01*
X4000000Y28300000D02*
X6297652Y30597652D01*
X8087557Y35000000D02*
X43500000Y35000000D01*
X51650000Y28850000D02*
X51650000Y17900000D01*
X43700000Y31800000D02*
X45250000Y30250000D01*
X43700000Y34800000D02*
X43700000Y31800000D01*
X50250000Y30250000D02*
X51650000Y28850000D01*
X6297652Y33210095D02*
X8087557Y35000000D01*
%TD*%
%TA.AperFunction,Conductor*%
%TO.N,GND*%
G36*
X7685592Y35204815D02*
G01*
X7731347Y35152011D01*
X7741291Y35082853D01*
X7712266Y35019297D01*
X7706234Y35012819D01*
X6074637Y33381223D01*
X6074635Y33381221D01*
X6037945Y33317670D01*
X6037945Y33317669D01*
X6018952Y33246787D01*
X6018952Y33246785D01*
X6018952Y32724174D01*
X5999267Y32657135D01*
X5946463Y32611380D01*
X5877305Y32601436D01*
X5862866Y32604398D01*
X5828148Y32613700D01*
X5721852Y32613700D01*
X5619177Y32586189D01*
X5619175Y32586188D01*
X5619174Y32586188D01*
X5527125Y32533043D01*
X5527119Y32533039D01*
X5451961Y32457881D01*
X5451957Y32457875D01*
X5398812Y32365826D01*
X5398812Y32365825D01*
X5398811Y32365823D01*
X5371300Y32263148D01*
X5371300Y32156852D01*
X5398811Y32054177D01*
X5451959Y31962122D01*
X5527122Y31886959D01*
X5619177Y31833811D01*
X5721852Y31806300D01*
X5721854Y31806300D01*
X5828146Y31806300D01*
X5828148Y31806300D01*
X5862860Y31815601D01*
X5932709Y31813938D01*
X5990571Y31774775D01*
X6018075Y31710547D01*
X6018952Y31695826D01*
X6018952Y30764455D01*
X5999267Y30697416D01*
X5982633Y30676774D01*
X3920878Y28615019D01*
X3859555Y28581534D01*
X3833197Y28578700D01*
X3527211Y28578700D01*
X3460172Y28598385D01*
X3414417Y28651189D01*
X3404473Y28720347D01*
X3407435Y28734788D01*
X3409322Y28741829D01*
X3409322Y28848125D01*
X3381811Y28950800D01*
X3328663Y29042855D01*
X3253500Y29118018D01*
X3161445Y29171166D01*
X3058770Y29198677D01*
X2952474Y29198677D01*
X2849799Y29171166D01*
X2849797Y29171165D01*
X2849796Y29171165D01*
X2757747Y29118020D01*
X2757741Y29118016D01*
X2682583Y29042858D01*
X2682579Y29042852D01*
X2629434Y28950803D01*
X2629434Y28950802D01*
X2629433Y28950800D01*
X2601922Y28848125D01*
X2601922Y28741829D01*
X2603806Y28734795D01*
X2602146Y28664946D01*
X2562984Y28607083D01*
X2498757Y28579577D01*
X2484033Y28578700D01*
X1493581Y28578700D01*
X1426542Y28598385D01*
X1405900Y28615019D01*
X1397880Y28623039D01*
X1397878Y28623041D01*
X1332583Y28660739D01*
X1305825Y28676188D01*
X1305824Y28676189D01*
X1305823Y28676189D01*
X1203148Y28703700D01*
X1096852Y28703700D01*
X994177Y28676189D01*
X994175Y28676188D01*
X994174Y28676188D01*
X902125Y28623043D01*
X902119Y28623039D01*
X826961Y28547881D01*
X826957Y28547875D01*
X773812Y28455826D01*
X773812Y28455825D01*
X773811Y28455823D01*
X746300Y28353148D01*
X746300Y28246852D01*
X773811Y28144177D01*
X773812Y28144176D01*
X773812Y28144175D01*
X789533Y28116946D01*
X826959Y28052122D01*
X902122Y27976959D01*
X994177Y27923811D01*
X1096852Y27896300D01*
X1096854Y27896300D01*
X1203146Y27896300D01*
X1203148Y27896300D01*
X1305823Y27923811D01*
X1397878Y27976959D01*
X1405900Y27984981D01*
X1467223Y28018466D01*
X1493581Y28021300D01*
X4036689Y28021300D01*
X4036692Y28021300D01*
X4107574Y28040293D01*
X4130796Y28053700D01*
X4171126Y28076984D01*
X4223016Y28128874D01*
X4223016Y28128876D01*
X4233220Y28139079D01*
X4233224Y28139084D01*
X6458568Y30364428D01*
X6458573Y30364432D01*
X6468776Y30374636D01*
X6468778Y30374636D01*
X6520668Y30426526D01*
X6557359Y30490078D01*
X6564727Y30517574D01*
X6576353Y30560960D01*
X6576353Y30634344D01*
X6576352Y30634348D01*
X6576352Y32753367D01*
X6596037Y32820406D01*
X6648841Y32866161D01*
X6717999Y32876105D01*
X6781555Y32847080D01*
X6788033Y32841048D01*
X6802122Y32826959D01*
X6894177Y32773811D01*
X6996852Y32746300D01*
X6996854Y32746300D01*
X7103146Y32746300D01*
X7103148Y32746300D01*
X7205823Y32773811D01*
X7297878Y32826959D01*
X7373041Y32902122D01*
X7426189Y32994177D01*
X7453700Y33096852D01*
X7453700Y33203148D01*
X7426189Y33305823D01*
X7373041Y33397878D01*
X7297878Y33473041D01*
X7220284Y33517840D01*
X7172070Y33568406D01*
X7158846Y33637013D01*
X7184814Y33701877D01*
X7194596Y33712899D01*
X8166679Y34684981D01*
X8228002Y34718466D01*
X8254360Y34721300D01*
X38479757Y34721300D01*
X38546796Y34701615D01*
X38592551Y34648811D01*
X38602495Y34579653D01*
X38599533Y34565215D01*
X38596300Y34553148D01*
X38596300Y34446852D01*
X38623811Y34344177D01*
X38676959Y34252122D01*
X38676961Y34252120D01*
X38716400Y34212681D01*
X38749885Y34151358D01*
X38744901Y34081666D01*
X38716400Y34037319D01*
X38676961Y33997881D01*
X38676957Y33997875D01*
X38623812Y33905826D01*
X38623812Y33905825D01*
X38623811Y33905823D01*
X38596300Y33803148D01*
X38596300Y33696852D01*
X38623811Y33594177D01*
X38676959Y33502122D01*
X38676961Y33502120D01*
X38716400Y33462681D01*
X38749885Y33401358D01*
X38744901Y33331666D01*
X38716400Y33287319D01*
X38676961Y33247881D01*
X38676957Y33247875D01*
X38623812Y33155826D01*
X38623812Y33155825D01*
X38623811Y33155823D01*
X38596300Y33053148D01*
X38596300Y32946852D01*
X38623811Y32844177D01*
X38623812Y32844176D01*
X38623812Y32844175D01*
X38633750Y32826962D01*
X38676959Y32752122D01*
X38752122Y32676959D01*
X38844177Y32623811D01*
X38946852Y32596300D01*
X38946854Y32596300D01*
X39053146Y32596300D01*
X39053148Y32596300D01*
X39155823Y32623811D01*
X39247878Y32676959D01*
X39287319Y32716400D01*
X39348642Y32749885D01*
X39418334Y32744901D01*
X39462681Y32716400D01*
X39502122Y32676959D01*
X39594177Y32623811D01*
X39696852Y32596300D01*
X39696854Y32596300D01*
X39803146Y32596300D01*
X39803148Y32596300D01*
X39905823Y32623811D01*
X39997878Y32676959D01*
X40037319Y32716400D01*
X40098642Y32749885D01*
X40168334Y32744901D01*
X40212681Y32716400D01*
X40252122Y32676959D01*
X40344177Y32623811D01*
X40446852Y32596300D01*
X40446854Y32596300D01*
X40553146Y32596300D01*
X40553148Y32596300D01*
X40655823Y32623811D01*
X40747878Y32676959D01*
X40787319Y32716400D01*
X40848642Y32749885D01*
X40918334Y32744901D01*
X40962681Y32716400D01*
X41002122Y32676959D01*
X41094177Y32623811D01*
X41196852Y32596300D01*
X41196854Y32596300D01*
X41303146Y32596300D01*
X41303148Y32596300D01*
X41405823Y32623811D01*
X41497878Y32676959D01*
X41537319Y32716400D01*
X41598642Y32749885D01*
X41668334Y32744901D01*
X41712681Y32716400D01*
X41752122Y32676959D01*
X41844177Y32623811D01*
X41946852Y32596300D01*
X41946854Y32596300D01*
X42053146Y32596300D01*
X42053148Y32596300D01*
X42155823Y32623811D01*
X42247878Y32676959D01*
X42287319Y32716400D01*
X42348642Y32749885D01*
X42418334Y32744901D01*
X42462681Y32716400D01*
X42502122Y32676959D01*
X42594177Y32623811D01*
X42696852Y32596300D01*
X42696854Y32596300D01*
X42803146Y32596300D01*
X42803148Y32596300D01*
X42905823Y32623811D01*
X42997878Y32676959D01*
X43073041Y32752122D01*
X43126189Y32844177D01*
X43153700Y32946852D01*
X43153700Y33053148D01*
X43126189Y33155823D01*
X43073041Y33247878D01*
X43033600Y33287319D01*
X43000115Y33348642D01*
X43005099Y33418334D01*
X43033600Y33462681D01*
X43043962Y33473043D01*
X43073041Y33502122D01*
X43126189Y33594177D01*
X43153700Y33696852D01*
X43153700Y33803148D01*
X43126189Y33905823D01*
X43073041Y33997878D01*
X43033600Y34037319D01*
X43000115Y34098642D01*
X43005099Y34168334D01*
X43033600Y34212681D01*
X43073041Y34252122D01*
X43126189Y34344177D01*
X43153700Y34446852D01*
X43153700Y34553148D01*
X43150469Y34565207D01*
X43152130Y34635054D01*
X43191292Y34692917D01*
X43255520Y34720423D01*
X43270243Y34721300D01*
X43297300Y34721300D01*
X43364339Y34701615D01*
X43410094Y34648811D01*
X43421300Y34597300D01*
X43421300Y31763308D01*
X43439382Y31695826D01*
X43440293Y31692426D01*
X43476983Y31628875D01*
X43535939Y31569919D01*
X43535944Y31569915D01*
X45078874Y30026984D01*
X45142426Y29990293D01*
X45213308Y29971300D01*
X45286692Y29971300D01*
X50083197Y29971300D01*
X50150236Y29951615D01*
X50170878Y29934981D01*
X51334981Y28770878D01*
X51368466Y28709555D01*
X51371300Y28683197D01*
X51371300Y22551090D01*
X51351615Y22484051D01*
X51298811Y22438296D01*
X51229653Y22428352D01*
X51215208Y22431315D01*
X51153149Y22447943D01*
X51153148Y22447943D01*
X51046852Y22447943D01*
X51046850Y22447943D01*
X50990802Y22432925D01*
X50958710Y22428700D01*
X37516804Y22428700D01*
X37449765Y22448385D01*
X37429123Y22465019D01*
X36713201Y23180941D01*
X35890993Y24003148D01*
X36921300Y24003148D01*
X36921300Y23896852D01*
X36948811Y23794177D01*
X36948812Y23794176D01*
X36948812Y23794175D01*
X36966527Y23763492D01*
X37001959Y23702122D01*
X37077122Y23626959D01*
X37169177Y23573811D01*
X37271852Y23546300D01*
X37271854Y23546300D01*
X37378146Y23546300D01*
X37378148Y23546300D01*
X37480823Y23573811D01*
X37572878Y23626959D01*
X37648041Y23702122D01*
X37701189Y23794177D01*
X37728700Y23896852D01*
X37728700Y24003148D01*
X37701189Y24105823D01*
X37648041Y24197878D01*
X37572878Y24273041D01*
X37488950Y24321497D01*
X37480825Y24326188D01*
X37480824Y24326189D01*
X37480823Y24326189D01*
X37378148Y24353700D01*
X37271852Y24353700D01*
X37169177Y24326189D01*
X37169175Y24326188D01*
X37169174Y24326188D01*
X37077125Y24273043D01*
X37077119Y24273039D01*
X37001961Y24197881D01*
X37001957Y24197875D01*
X36948812Y24105826D01*
X36948812Y24105825D01*
X36948811Y24105823D01*
X36921300Y24003148D01*
X35890993Y24003148D01*
X35780085Y24114056D01*
X35780084Y24114058D01*
X35721125Y24173017D01*
X35657574Y24209707D01*
X35657575Y24209707D01*
X35638044Y24214940D01*
X35586692Y24228700D01*
X35586689Y24228700D01*
X33952700Y24228700D01*
X33944014Y24231251D01*
X33935053Y24229962D01*
X33911012Y24240941D01*
X33885661Y24248385D01*
X33879733Y24255226D01*
X33871497Y24258987D01*
X33857207Y24281222D01*
X33839906Y24301189D01*
X33837618Y24311704D01*
X33833723Y24317765D01*
X33828700Y24352700D01*
X33828700Y24383198D01*
X33848385Y24450237D01*
X33865015Y24470875D01*
X34260916Y24866777D01*
X34260921Y24866780D01*
X34271124Y24876984D01*
X34271126Y24876984D01*
X34323016Y24928874D01*
X34351148Y24977601D01*
X34359707Y24992425D01*
X34378700Y25063308D01*
X34378700Y25136691D01*
X34378700Y25909628D01*
X34398385Y25976667D01*
X34451189Y26022422D01*
X34520347Y26032366D01*
X34534785Y26029405D01*
X34561506Y26022245D01*
X34561508Y26022245D01*
X34667800Y26022245D01*
X34667802Y26022245D01*
X34770477Y26049756D01*
X34862532Y26102904D01*
X34937695Y26178067D01*
X34990843Y26270122D01*
X35013089Y26353148D01*
X37646300Y26353148D01*
X37646300Y26246852D01*
X37673811Y26144177D01*
X37726959Y26052122D01*
X37802122Y25976959D01*
X37894177Y25923811D01*
X37996852Y25896300D01*
X37996854Y25896300D01*
X38103146Y25896300D01*
X38103148Y25896300D01*
X38205823Y25923811D01*
X38297878Y25976959D01*
X38373041Y26052122D01*
X38426189Y26144177D01*
X38453700Y26246852D01*
X38453700Y26353148D01*
X38426189Y26455823D01*
X38373041Y26547878D01*
X38297878Y26623041D01*
X38205823Y26676189D01*
X38103148Y26703700D01*
X37996852Y26703700D01*
X37894177Y26676189D01*
X37894175Y26676188D01*
X37894174Y26676188D01*
X37802125Y26623043D01*
X37802119Y26623039D01*
X37726961Y26547881D01*
X37726957Y26547875D01*
X37673812Y26455826D01*
X37673812Y26455825D01*
X37673811Y26455823D01*
X37646300Y26353148D01*
X35013089Y26353148D01*
X35018354Y26372797D01*
X35018354Y26479093D01*
X34990843Y26581768D01*
X34937695Y26673823D01*
X34862532Y26748986D01*
X34770477Y26802134D01*
X34667802Y26829645D01*
X34561506Y26829645D01*
X34534790Y26822487D01*
X34464940Y26824152D01*
X34407079Y26863316D01*
X34379576Y26927546D01*
X34378700Y26942263D01*
X34378700Y28465972D01*
X35425917Y28465972D01*
X35425917Y28359676D01*
X35453428Y28257001D01*
X35453429Y28257000D01*
X35453429Y28256999D01*
X35471144Y28226316D01*
X35506576Y28164946D01*
X35581739Y28089783D01*
X35673794Y28036635D01*
X35776469Y28009124D01*
X35776471Y28009124D01*
X35882763Y28009124D01*
X35882765Y28009124D01*
X35985440Y28036635D01*
X36077495Y28089783D01*
X36152658Y28164946D01*
X36205806Y28257001D01*
X36206307Y28258870D01*
X36207159Y28260268D01*
X36208914Y28264506D01*
X36209575Y28264233D01*
X36242669Y28318529D01*
X36305516Y28349060D01*
X36374891Y28340766D01*
X36428770Y28296282D01*
X36445854Y28258874D01*
X36446347Y28257035D01*
X36446348Y28257033D01*
X36452226Y28246852D01*
X36499495Y28164980D01*
X36574658Y28089817D01*
X36666713Y28036669D01*
X36769388Y28009158D01*
X36769390Y28009158D01*
X36875682Y28009158D01*
X36875684Y28009158D01*
X36978359Y28036669D01*
X37070414Y28089817D01*
X37145577Y28164980D01*
X37198725Y28257035D01*
X37226236Y28359710D01*
X37226236Y28466006D01*
X37198725Y28568681D01*
X37145577Y28660736D01*
X37070414Y28735899D01*
X37009044Y28771331D01*
X36978361Y28789046D01*
X36978360Y28789047D01*
X36978359Y28789047D01*
X36875684Y28816558D01*
X36769388Y28816558D01*
X36666713Y28789047D01*
X36666711Y28789046D01*
X36666710Y28789046D01*
X36574661Y28735901D01*
X36574655Y28735897D01*
X36499497Y28660739D01*
X36499493Y28660733D01*
X36446348Y28568684D01*
X36446346Y28568681D01*
X36445843Y28566800D01*
X36444986Y28565395D01*
X36443239Y28561176D01*
X36442580Y28561449D01*
X36409471Y28507143D01*
X36346621Y28476621D01*
X36277247Y28484923D01*
X36223373Y28529414D01*
X36206296Y28566817D01*
X36205806Y28568647D01*
X36152658Y28660702D01*
X36077495Y28735865D01*
X35985440Y28789013D01*
X35882765Y28816524D01*
X35776469Y28816524D01*
X35673794Y28789013D01*
X35673792Y28789012D01*
X35673791Y28789012D01*
X35581742Y28735867D01*
X35581736Y28735863D01*
X35506578Y28660705D01*
X35506574Y28660699D01*
X35453429Y28568650D01*
X35453429Y28568649D01*
X35453428Y28568647D01*
X35425917Y28465972D01*
X34378700Y28465972D01*
X34378700Y29233197D01*
X34398385Y29300236D01*
X34415019Y29320878D01*
X34567954Y29473813D01*
X34773016Y29678874D01*
X34809707Y29742426D01*
X34828700Y29813308D01*
X34828700Y29886692D01*
X34828700Y30066419D01*
X34848385Y30133458D01*
X34865019Y30154100D01*
X34868802Y30157883D01*
X34873041Y30162122D01*
X34926189Y30254177D01*
X34953700Y30356852D01*
X34953700Y30463148D01*
X34926940Y30563022D01*
X37521300Y30563022D01*
X37521300Y30436978D01*
X37551830Y30323039D01*
X37553922Y30315230D01*
X37553923Y30315227D01*
X37616941Y30206075D01*
X37616943Y30206073D01*
X37616944Y30206071D01*
X37706071Y30116944D01*
X37714430Y30112118D01*
X37722624Y30107387D01*
X37770839Y30056819D01*
X37784061Y29988212D01*
X37758093Y29923347D01*
X37722624Y29892613D01*
X37706072Y29883057D01*
X37706069Y29883055D01*
X37616945Y29793931D01*
X37616941Y29793926D01*
X37553923Y29684774D01*
X37553922Y29684771D01*
X37521300Y29563022D01*
X37521300Y29436978D01*
X37552409Y29320878D01*
X37553922Y29315230D01*
X37553923Y29315227D01*
X37616941Y29206075D01*
X37616943Y29206073D01*
X37616944Y29206071D01*
X37706071Y29116944D01*
X37706072Y29116943D01*
X37706074Y29116942D01*
X37745508Y29094175D01*
X37815229Y29053922D01*
X37936978Y29021300D01*
X37936980Y29021300D01*
X38063020Y29021300D01*
X38063022Y29021300D01*
X38184771Y29053922D01*
X38293929Y29116944D01*
X38383056Y29206071D01*
X38392612Y29222624D01*
X38443179Y29270839D01*
X38511786Y29284063D01*
X38576651Y29258095D01*
X38607387Y29222624D01*
X38616944Y29206071D01*
X38706071Y29116944D01*
X38706072Y29116943D01*
X38706074Y29116942D01*
X38745508Y29094175D01*
X38815229Y29053922D01*
X38936978Y29021300D01*
X38936980Y29021300D01*
X39063020Y29021300D01*
X39063022Y29021300D01*
X39184771Y29053922D01*
X39293929Y29116944D01*
X39383056Y29206071D01*
X39392612Y29222624D01*
X39443179Y29270839D01*
X39511786Y29284063D01*
X39576651Y29258095D01*
X39607387Y29222624D01*
X39616944Y29206071D01*
X39706071Y29116944D01*
X39706072Y29116943D01*
X39706074Y29116942D01*
X39745508Y29094175D01*
X39815229Y29053922D01*
X39936978Y29021300D01*
X39936980Y29021300D01*
X40063020Y29021300D01*
X40063022Y29021300D01*
X40184771Y29053922D01*
X40293929Y29116944D01*
X40383056Y29206071D01*
X40392612Y29222624D01*
X40443179Y29270839D01*
X40511786Y29284063D01*
X40576651Y29258095D01*
X40587682Y29248305D01*
X40599224Y29236763D01*
X40616944Y29206071D01*
X40706071Y29116944D01*
X40736760Y29099226D01*
X40748305Y29087681D01*
X40757541Y29070766D01*
X40770839Y29056819D01*
X40773938Y29040736D01*
X40781789Y29026358D01*
X40780414Y29007135D01*
X40784061Y28988212D01*
X40777973Y28973007D01*
X40776805Y28956666D01*
X40765255Y28941239D01*
X40758093Y28923347D01*
X40740357Y28907980D01*
X40734933Y28900733D01*
X40729774Y28898809D01*
X40722624Y28892613D01*
X40706072Y28883057D01*
X40706069Y28883055D01*
X40616945Y28793931D01*
X40616941Y28793926D01*
X40553923Y28684774D01*
X40553922Y28684771D01*
X40521300Y28563022D01*
X40521300Y28436978D01*
X40547080Y28340766D01*
X40553922Y28315230D01*
X40553923Y28315227D01*
X40616941Y28206075D01*
X40616943Y28206073D01*
X40616944Y28206071D01*
X40706071Y28116944D01*
X40718660Y28109676D01*
X40722624Y28107387D01*
X40770839Y28056819D01*
X40784061Y27988212D01*
X40758093Y27923347D01*
X40722624Y27892613D01*
X40706072Y27883057D01*
X40706069Y27883055D01*
X40616945Y27793931D01*
X40616941Y27793926D01*
X40553923Y27684774D01*
X40553922Y27684771D01*
X40521300Y27563022D01*
X40521300Y27436978D01*
X40535424Y27384268D01*
X40553922Y27315230D01*
X40553923Y27315227D01*
X40616941Y27206075D01*
X40616943Y27206073D01*
X40616944Y27206071D01*
X40706071Y27116944D01*
X40706072Y27116943D01*
X40706074Y27116942D01*
X40729409Y27103470D01*
X40815229Y27053922D01*
X40936978Y27021300D01*
X40936980Y27021300D01*
X41063020Y27021300D01*
X41063022Y27021300D01*
X41184771Y27053922D01*
X41293929Y27116944D01*
X41383056Y27206071D01*
X41392612Y27222624D01*
X41443179Y27270839D01*
X41511786Y27284063D01*
X41576651Y27258095D01*
X41607387Y27222624D01*
X41616944Y27206071D01*
X41706071Y27116944D01*
X41706072Y27116943D01*
X41706074Y27116942D01*
X41729409Y27103470D01*
X41815229Y27053922D01*
X41936978Y27021300D01*
X41936980Y27021300D01*
X42063020Y27021300D01*
X42063022Y27021300D01*
X42184771Y27053922D01*
X42293929Y27116944D01*
X42383056Y27206071D01*
X42392612Y27222624D01*
X42443179Y27270839D01*
X42511786Y27284063D01*
X42576651Y27258095D01*
X42607387Y27222624D01*
X42616944Y27206071D01*
X42706071Y27116944D01*
X42706072Y27116943D01*
X42706074Y27116942D01*
X42729409Y27103470D01*
X42815229Y27053922D01*
X42936978Y27021300D01*
X42936980Y27021300D01*
X43063020Y27021300D01*
X43063022Y27021300D01*
X43184771Y27053922D01*
X43293929Y27116944D01*
X43383056Y27206071D01*
X43446078Y27315229D01*
X43478700Y27436978D01*
X43478700Y27563022D01*
X43446078Y27684771D01*
X43402851Y27759643D01*
X43383058Y27793926D01*
X43383057Y27793928D01*
X43383056Y27793929D01*
X43293929Y27883056D01*
X43277376Y27892613D01*
X43229161Y27943179D01*
X43215937Y28011786D01*
X43241905Y28076651D01*
X43277377Y28107388D01*
X43293929Y28116944D01*
X43383056Y28206071D01*
X43446078Y28315229D01*
X43478700Y28436978D01*
X43478700Y28563022D01*
X43446078Y28684771D01*
X43402851Y28759643D01*
X43383058Y28793926D01*
X43383057Y28793928D01*
X43383056Y28793929D01*
X43293929Y28883056D01*
X43277376Y28892613D01*
X43229161Y28943179D01*
X43215937Y29011786D01*
X43241905Y29076651D01*
X43277377Y29107388D01*
X43293929Y29116944D01*
X43383056Y29206071D01*
X43446078Y29315229D01*
X43478700Y29436978D01*
X43478700Y29563022D01*
X43446078Y29684771D01*
X43402851Y29759643D01*
X43383058Y29793926D01*
X43383057Y29793928D01*
X43383056Y29793929D01*
X43293929Y29883056D01*
X43277376Y29892613D01*
X43229161Y29943179D01*
X43215937Y30011786D01*
X43241905Y30076651D01*
X43277377Y30107388D01*
X43277623Y30107530D01*
X43293929Y30116944D01*
X43383056Y30206071D01*
X43446078Y30315229D01*
X43478700Y30436978D01*
X43478700Y30563022D01*
X43446078Y30684771D01*
X43383056Y30793929D01*
X43293929Y30883056D01*
X43293928Y30883057D01*
X43293925Y30883059D01*
X43184773Y30946077D01*
X43184772Y30946078D01*
X43184771Y30946078D01*
X43063022Y30978700D01*
X42936978Y30978700D01*
X42815229Y30946078D01*
X42815226Y30946077D01*
X42706074Y30883059D01*
X42706069Y30883055D01*
X42616945Y30793931D01*
X42616943Y30793928D01*
X42607387Y30777376D01*
X42556819Y30729161D01*
X42488212Y30715939D01*
X42423347Y30741907D01*
X42392613Y30777376D01*
X42387525Y30786188D01*
X42383056Y30793929D01*
X42293929Y30883056D01*
X42293928Y30883057D01*
X42293925Y30883059D01*
X42184773Y30946077D01*
X42184772Y30946078D01*
X42184771Y30946078D01*
X42063022Y30978700D01*
X41936978Y30978700D01*
X41815229Y30946078D01*
X41815226Y30946077D01*
X41706074Y30883059D01*
X41706069Y30883055D01*
X41616945Y30793931D01*
X41616943Y30793928D01*
X41607387Y30777376D01*
X41556819Y30729161D01*
X41488212Y30715939D01*
X41423347Y30741907D01*
X41392613Y30777376D01*
X41387525Y30786188D01*
X41383056Y30793929D01*
X41293929Y30883056D01*
X41293928Y30883057D01*
X41293925Y30883059D01*
X41184773Y30946077D01*
X41184772Y30946078D01*
X41184771Y30946078D01*
X41063022Y30978700D01*
X40936978Y30978700D01*
X40815229Y30946078D01*
X40815226Y30946077D01*
X40706074Y30883059D01*
X40706069Y30883055D01*
X40616945Y30793931D01*
X40616943Y30793928D01*
X40607387Y30777376D01*
X40556819Y30729161D01*
X40488212Y30715939D01*
X40423347Y30741907D01*
X40392613Y30777376D01*
X40387525Y30786188D01*
X40383056Y30793929D01*
X40293929Y30883056D01*
X40293928Y30883057D01*
X40293925Y30883059D01*
X40184773Y30946077D01*
X40184772Y30946078D01*
X40184771Y30946078D01*
X40063022Y30978700D01*
X39936978Y30978700D01*
X39815229Y30946078D01*
X39815226Y30946077D01*
X39706074Y30883059D01*
X39706069Y30883055D01*
X39616945Y30793931D01*
X39616943Y30793928D01*
X39607387Y30777376D01*
X39556819Y30729161D01*
X39488212Y30715939D01*
X39423347Y30741907D01*
X39392613Y30777376D01*
X39387525Y30786188D01*
X39383056Y30793929D01*
X39293929Y30883056D01*
X39293928Y30883057D01*
X39293925Y30883059D01*
X39184773Y30946077D01*
X39184772Y30946078D01*
X39184771Y30946078D01*
X39063022Y30978700D01*
X38936978Y30978700D01*
X38815229Y30946078D01*
X38815226Y30946077D01*
X38706074Y30883059D01*
X38706069Y30883055D01*
X38616945Y30793931D01*
X38616943Y30793928D01*
X38607387Y30777376D01*
X38556819Y30729161D01*
X38488212Y30715939D01*
X38423347Y30741907D01*
X38392613Y30777376D01*
X38387525Y30786188D01*
X38383056Y30793929D01*
X38293929Y30883056D01*
X38293928Y30883057D01*
X38293925Y30883059D01*
X38184773Y30946077D01*
X38184772Y30946078D01*
X38184771Y30946078D01*
X38063022Y30978700D01*
X37936978Y30978700D01*
X37815229Y30946078D01*
X37815226Y30946077D01*
X37706074Y30883059D01*
X37706069Y30883055D01*
X37616945Y30793931D01*
X37616941Y30793926D01*
X37553923Y30684774D01*
X37553922Y30684771D01*
X37521300Y30563022D01*
X34926940Y30563022D01*
X34926189Y30565823D01*
X34873041Y30657878D01*
X34797878Y30733041D01*
X34705823Y30786189D01*
X34603148Y30813700D01*
X34496852Y30813700D01*
X34394177Y30786189D01*
X34394175Y30786188D01*
X34394174Y30786188D01*
X34302125Y30733043D01*
X34302119Y30733039D01*
X34226961Y30657881D01*
X34226957Y30657875D01*
X34173812Y30565826D01*
X34173812Y30565825D01*
X34173811Y30565823D01*
X34146300Y30463148D01*
X34146300Y30356852D01*
X34173811Y30254177D01*
X34173812Y30254176D01*
X34173812Y30254175D01*
X34189970Y30226189D01*
X34226959Y30162122D01*
X34226961Y30162120D01*
X34234981Y30154100D01*
X34249684Y30127173D01*
X34266277Y30101354D01*
X34267168Y30095154D01*
X34268466Y30092777D01*
X34271300Y30066419D01*
X34271300Y30016804D01*
X34251615Y29949765D01*
X34234981Y29929123D01*
X33951069Y29645212D01*
X33889746Y29611727D01*
X33820054Y29616711D01*
X33775707Y29645212D01*
X33747880Y29673039D01*
X33747878Y29673041D01*
X33655823Y29726189D01*
X33553148Y29753700D01*
X33446852Y29753700D01*
X33344177Y29726189D01*
X33344175Y29726188D01*
X33344174Y29726188D01*
X33252125Y29673043D01*
X33252119Y29673039D01*
X33176961Y29597881D01*
X33176957Y29597875D01*
X33123812Y29505826D01*
X33123812Y29505825D01*
X33123811Y29505823D01*
X33096300Y29403148D01*
X33096300Y29296852D01*
X33123811Y29194177D01*
X33176959Y29102122D01*
X33252122Y29026959D01*
X33344177Y28973811D01*
X33446852Y28946300D01*
X33446853Y28946300D01*
X33452544Y28944775D01*
X33512205Y28908410D01*
X33542734Y28845563D01*
X33534439Y28776188D01*
X33489954Y28722310D01*
X33452544Y28705225D01*
X33446853Y28703700D01*
X33446852Y28703700D01*
X33344177Y28676189D01*
X33344175Y28676188D01*
X33344174Y28676188D01*
X33252125Y28623043D01*
X33252119Y28623039D01*
X33176961Y28547881D01*
X33176957Y28547875D01*
X33123812Y28455826D01*
X33123812Y28455825D01*
X33123811Y28455823D01*
X33096300Y28353148D01*
X33096300Y28246852D01*
X33123811Y28144177D01*
X33123812Y28144176D01*
X33123812Y28144175D01*
X33139533Y28116946D01*
X33176959Y28052122D01*
X33252122Y27976959D01*
X33344177Y27923811D01*
X33446852Y27896300D01*
X33446854Y27896300D01*
X33553146Y27896300D01*
X33553148Y27896300D01*
X33655823Y27923811D01*
X33655825Y27923813D01*
X33663673Y27925915D01*
X33664479Y27922904D01*
X33719276Y27928813D01*
X33781766Y27897559D01*
X33817438Y27837482D01*
X33821300Y27806776D01*
X33821300Y26303272D01*
X33801615Y26236233D01*
X33748811Y26190478D01*
X33679653Y26180534D01*
X33665208Y26183497D01*
X33589806Y26203700D01*
X33589805Y26203700D01*
X33483509Y26203700D01*
X33380834Y26176189D01*
X33380832Y26176188D01*
X33380831Y26176188D01*
X33288782Y26123043D01*
X33288776Y26123039D01*
X33213618Y26047881D01*
X33213614Y26047875D01*
X33160469Y25955826D01*
X33160469Y25955825D01*
X33160468Y25955823D01*
X33132957Y25853148D01*
X33132957Y25746852D01*
X33160468Y25644177D01*
X33213616Y25552122D01*
X33288779Y25476959D01*
X33380834Y25423811D01*
X33483509Y25396300D01*
X33483511Y25396300D01*
X33589803Y25396300D01*
X33589805Y25396300D01*
X33665209Y25416504D01*
X33690201Y25415909D01*
X33714947Y25419467D01*
X33724527Y25415092D01*
X33735057Y25414841D01*
X33755760Y25400829D01*
X33778503Y25390442D01*
X33784197Y25381581D01*
X33792919Y25375678D01*
X33802760Y25352698D01*
X33816277Y25331664D01*
X33818556Y25315809D01*
X33820423Y25311450D01*
X33821300Y25296729D01*
X33821300Y25266804D01*
X33801615Y25199765D01*
X33784981Y25179123D01*
X33326985Y24721128D01*
X33326983Y24721126D01*
X33290293Y24657575D01*
X33285787Y24640758D01*
X33271300Y24586692D01*
X33271300Y24586690D01*
X33271300Y24402700D01*
X33268749Y24394015D01*
X33270038Y24385053D01*
X33259059Y24361013D01*
X33251615Y24335661D01*
X33244774Y24329734D01*
X33241013Y24321497D01*
X33218778Y24307208D01*
X33198811Y24289906D01*
X33188296Y24287619D01*
X33182235Y24283723D01*
X33147300Y24278700D01*
X33038113Y24278700D01*
X32971074Y24298385D01*
X32950432Y24315019D01*
X31599336Y25666115D01*
X31565851Y25727438D01*
X31570835Y25797130D01*
X31612707Y25853063D01*
X31648435Y25870419D01*
X31648318Y25870703D01*
X31653086Y25872679D01*
X31654922Y25873570D01*
X31655823Y25873811D01*
X31747878Y25926959D01*
X31823041Y26002122D01*
X31876189Y26094177D01*
X31903700Y26196852D01*
X31903700Y26303148D01*
X31876189Y26405823D01*
X31823041Y26497878D01*
X31783600Y26537319D01*
X31750115Y26598642D01*
X31755099Y26668334D01*
X31783600Y26712681D01*
X31800644Y26729725D01*
X31823041Y26752122D01*
X31876189Y26844177D01*
X31903700Y26946852D01*
X31903700Y27053148D01*
X31876189Y27155823D01*
X31823041Y27247878D01*
X31783600Y27287319D01*
X31750115Y27348642D01*
X31755099Y27418334D01*
X31783600Y27462681D01*
X31797821Y27476902D01*
X31823041Y27502122D01*
X31876189Y27594177D01*
X31903700Y27696852D01*
X31903700Y27803148D01*
X31876189Y27905823D01*
X31823041Y27997878D01*
X31783600Y28037319D01*
X31750115Y28098642D01*
X31755099Y28168334D01*
X31783600Y28212681D01*
X31793542Y28222623D01*
X31823041Y28252122D01*
X31876189Y28344177D01*
X31903700Y28446852D01*
X31903700Y28553148D01*
X31876189Y28655823D01*
X31823041Y28747878D01*
X31783600Y28787319D01*
X31750115Y28848642D01*
X31755099Y28918334D01*
X31783600Y28962681D01*
X31800354Y28979435D01*
X31823041Y29002122D01*
X31876189Y29094177D01*
X31903700Y29196852D01*
X31903700Y29303148D01*
X31876189Y29405823D01*
X31823041Y29497878D01*
X31783600Y29537319D01*
X31750115Y29598642D01*
X31755099Y29668334D01*
X31783600Y29712681D01*
X31800080Y29729161D01*
X31823041Y29752122D01*
X31876189Y29844177D01*
X31903700Y29946852D01*
X31903700Y30053148D01*
X31876189Y30155823D01*
X31823041Y30247878D01*
X31747878Y30323041D01*
X31655823Y30376189D01*
X31640756Y30380226D01*
X31581097Y30416589D01*
X31550567Y30479435D01*
X31558861Y30548811D01*
X31603346Y30602690D01*
X31640755Y30619774D01*
X31655823Y30623811D01*
X31747878Y30676959D01*
X31823041Y30752122D01*
X31876189Y30844177D01*
X31903700Y30946852D01*
X31903700Y31053148D01*
X31876189Y31155823D01*
X31823041Y31247878D01*
X31747878Y31323041D01*
X31655823Y31376189D01*
X31553148Y31403700D01*
X31446852Y31403700D01*
X31344177Y31376189D01*
X31344175Y31376188D01*
X31344174Y31376188D01*
X31252125Y31323043D01*
X31252119Y31323039D01*
X31212681Y31283600D01*
X31151358Y31250115D01*
X31081666Y31255099D01*
X31037319Y31283600D01*
X30997880Y31323039D01*
X30997878Y31323041D01*
X30905823Y31376189D01*
X30803148Y31403700D01*
X30696852Y31403700D01*
X30594177Y31376189D01*
X30594175Y31376188D01*
X30594174Y31376188D01*
X30502125Y31323043D01*
X30502119Y31323039D01*
X30462681Y31283600D01*
X30401358Y31250115D01*
X30331666Y31255099D01*
X30287319Y31283600D01*
X30247880Y31323039D01*
X30247878Y31323041D01*
X30155823Y31376189D01*
X30053148Y31403700D01*
X29946852Y31403700D01*
X29844177Y31376189D01*
X29844175Y31376188D01*
X29844174Y31376188D01*
X29752125Y31323043D01*
X29752119Y31323039D01*
X29676961Y31247881D01*
X29676957Y31247875D01*
X29623812Y31155826D01*
X29623812Y31155825D01*
X29623811Y31155823D01*
X29596300Y31053148D01*
X29596300Y30946852D01*
X29623811Y30844177D01*
X29676959Y30752122D01*
X29752122Y30676959D01*
X29844177Y30623811D01*
X29859243Y30619775D01*
X29918903Y30583410D01*
X29949432Y30520563D01*
X29941137Y30451188D01*
X29896652Y30397310D01*
X29859244Y30380227D01*
X29844177Y30376189D01*
X29844175Y30376188D01*
X29844174Y30376188D01*
X29752125Y30323043D01*
X29752119Y30323039D01*
X29676961Y30247881D01*
X29676957Y30247875D01*
X29623812Y30155826D01*
X29623812Y30155825D01*
X29623811Y30155823D01*
X29596300Y30053148D01*
X29596300Y29946852D01*
X29623811Y29844177D01*
X29676959Y29752122D01*
X29676961Y29752120D01*
X29716400Y29712681D01*
X29749885Y29651358D01*
X29744901Y29581666D01*
X29716400Y29537319D01*
X29676961Y29497881D01*
X29676957Y29497875D01*
X29623812Y29405826D01*
X29623812Y29405825D01*
X29623811Y29405823D01*
X29596300Y29303148D01*
X29596300Y29196852D01*
X29623811Y29094177D01*
X29676959Y29002122D01*
X29676961Y29002120D01*
X29716400Y28962681D01*
X29749885Y28901358D01*
X29744901Y28831666D01*
X29716400Y28787319D01*
X29676961Y28747881D01*
X29676957Y28747875D01*
X29623812Y28655826D01*
X29623812Y28655825D01*
X29623811Y28655823D01*
X29596300Y28553148D01*
X29596300Y28446852D01*
X29623811Y28344177D01*
X29676959Y28252122D01*
X29676961Y28252120D01*
X29716400Y28212681D01*
X29749885Y28151358D01*
X29744901Y28081666D01*
X29716400Y28037319D01*
X29676961Y27997881D01*
X29676957Y27997875D01*
X29623812Y27905826D01*
X29623812Y27905825D01*
X29623811Y27905823D01*
X29596300Y27803148D01*
X29596300Y27696852D01*
X29623811Y27594177D01*
X29623812Y27594176D01*
X29623812Y27594175D01*
X29625726Y27590860D01*
X29676959Y27502122D01*
X29676961Y27502120D01*
X29716400Y27462681D01*
X29749885Y27401358D01*
X29744901Y27331666D01*
X29716400Y27287319D01*
X29676961Y27247881D01*
X29676957Y27247875D01*
X29623812Y27155826D01*
X29623812Y27155825D01*
X29623811Y27155823D01*
X29596300Y27053148D01*
X29596300Y26946852D01*
X29623811Y26844177D01*
X29623812Y26844176D01*
X29623812Y26844175D01*
X29664270Y26774100D01*
X29680743Y26706200D01*
X29657890Y26640173D01*
X29602969Y26596982D01*
X29556883Y26588100D01*
X24116125Y26588100D01*
X24059925Y26573041D01*
X24059924Y26573042D01*
X24032528Y26565700D01*
X24032523Y26565698D01*
X23957576Y26522428D01*
X23957571Y26522424D01*
X20859567Y23424419D01*
X20798244Y23390934D01*
X20771886Y23388100D01*
X20194139Y23388100D01*
X20127100Y23407785D01*
X20081345Y23460589D01*
X20071401Y23529747D01*
X20077324Y23551340D01*
X20079426Y23559188D01*
X20079428Y23559190D01*
X20106939Y23661865D01*
X20106939Y23768161D01*
X20079428Y23870836D01*
X20026280Y23962891D01*
X19994285Y23994886D01*
X19960800Y24056209D01*
X19965784Y24125901D01*
X19994285Y24170248D01*
X20004287Y24180250D01*
X20023041Y24199004D01*
X20076189Y24291059D01*
X20103700Y24393734D01*
X20103700Y24500030D01*
X20076189Y24602705D01*
X20023041Y24694760D01*
X19947878Y24769923D01*
X19857105Y24822331D01*
X19855825Y24823070D01*
X19855824Y24823071D01*
X19855823Y24823071D01*
X19753148Y24850582D01*
X19685991Y24850582D01*
X19618952Y24870267D01*
X19573197Y24923071D01*
X19563253Y24992229D01*
X19574368Y25024352D01*
X19573077Y25024887D01*
X19576183Y25032391D01*
X19576189Y25032400D01*
X19603700Y25135075D01*
X19603700Y25241371D01*
X19576189Y25344046D01*
X19537936Y25410301D01*
X19521464Y25478200D01*
X19544316Y25544227D01*
X19599238Y25587417D01*
X19645324Y25596300D01*
X21539980Y25596300D01*
X21539983Y25596300D01*
X21578603Y25606648D01*
X21617221Y25616995D01*
X21617221Y25616996D01*
X21617224Y25616996D01*
X21686476Y25656979D01*
X22243021Y26213524D01*
X22283004Y26282776D01*
X22288463Y26303148D01*
X22299456Y26344177D01*
X22303700Y26360017D01*
X22303700Y26439984D01*
X22303700Y28922842D01*
X22323385Y28989881D01*
X22340019Y29010523D01*
X22989477Y29659981D01*
X23050800Y29693466D01*
X23077158Y29696300D01*
X25950994Y29696300D01*
X26018033Y29676615D01*
X26058381Y29634300D01*
X26076959Y29602122D01*
X26152122Y29526959D01*
X26244177Y29473811D01*
X26346852Y29446300D01*
X26346854Y29446300D01*
X26453146Y29446300D01*
X26453148Y29446300D01*
X26555823Y29473811D01*
X26647878Y29526959D01*
X26723041Y29602122D01*
X26776189Y29694177D01*
X26803700Y29796852D01*
X26803700Y29903148D01*
X26776189Y30005823D01*
X26723041Y30097878D01*
X26647878Y30173041D01*
X26584748Y30209489D01*
X26555825Y30226188D01*
X26555824Y30226189D01*
X26555823Y30226189D01*
X26453148Y30253700D01*
X26453147Y30253700D01*
X26451205Y30253700D01*
X26449329Y30254203D01*
X26445088Y30254761D01*
X26445161Y30255320D01*
X26389206Y30270313D01*
X26367224Y30283004D01*
X26367219Y30283007D01*
X26289986Y30303700D01*
X26289983Y30303700D01*
X22860017Y30303700D01*
X22860013Y30303700D01*
X22782778Y30283006D01*
X22713524Y30243021D01*
X22713521Y30243019D01*
X22679992Y30209489D01*
X22656979Y30186476D01*
X22656977Y30186474D01*
X22230146Y29759643D01*
X21796083Y29325581D01*
X21756982Y29286480D01*
X21756979Y29286476D01*
X21716994Y29217222D01*
X21696300Y29139987D01*
X21696300Y26577159D01*
X21687655Y26547719D01*
X21681132Y26517732D01*
X21677377Y26512717D01*
X21676615Y26510120D01*
X21659981Y26489478D01*
X21615381Y26444878D01*
X21554058Y26411393D01*
X21484366Y26416377D01*
X21428433Y26458249D01*
X21404016Y26523713D01*
X21403700Y26532559D01*
X21403700Y26553146D01*
X21403700Y26553148D01*
X21376189Y26655823D01*
X21323041Y26747878D01*
X21247878Y26823041D01*
X21155823Y26876189D01*
X21140756Y26880226D01*
X21081097Y26916589D01*
X21050567Y26979435D01*
X21058861Y27048811D01*
X21103346Y27102690D01*
X21140755Y27119774D01*
X21155823Y27123811D01*
X21247878Y27176959D01*
X21323041Y27252122D01*
X21376189Y27344177D01*
X21403700Y27446852D01*
X21403700Y27553148D01*
X21376189Y27655823D01*
X21323041Y27747878D01*
X21247878Y27823041D01*
X21161279Y27873039D01*
X21155825Y27876188D01*
X21155823Y27876189D01*
X21140756Y27880226D01*
X21081097Y27916589D01*
X21050567Y27979435D01*
X21058861Y28048811D01*
X21103346Y28102690D01*
X21140755Y28119774D01*
X21155823Y28123811D01*
X21247878Y28176959D01*
X21323041Y28252122D01*
X21376189Y28344177D01*
X21403700Y28446852D01*
X21403700Y28553148D01*
X21376189Y28655823D01*
X21323041Y28747878D01*
X21247878Y28823041D01*
X21186508Y28858473D01*
X21155825Y28876188D01*
X21155823Y28876189D01*
X21140756Y28880226D01*
X21081097Y28916589D01*
X21050567Y28979435D01*
X21058861Y29048811D01*
X21103346Y29102690D01*
X21140755Y29119774D01*
X21155823Y29123811D01*
X21247878Y29176959D01*
X21323041Y29252122D01*
X21376189Y29344177D01*
X21403700Y29446852D01*
X21403700Y29553148D01*
X21376189Y29655823D01*
X21323041Y29747878D01*
X21247878Y29823041D01*
X21155823Y29876189D01*
X21155821Y29876190D01*
X21148318Y29879297D01*
X21149476Y29882096D01*
X21102125Y29910975D01*
X21071613Y29973830D01*
X21079927Y30043204D01*
X21124427Y30097069D01*
X21147394Y30107530D01*
X21146781Y30109010D01*
X21154277Y30112116D01*
X21154286Y30112118D01*
X21246341Y30165266D01*
X21321504Y30240429D01*
X21374652Y30332484D01*
X21402163Y30435159D01*
X21402163Y30541455D01*
X21374652Y30644130D01*
X21321504Y30736185D01*
X21246341Y30811348D01*
X21154288Y30864495D01*
X21154289Y30864495D01*
X21154286Y30864496D01*
X21118166Y30874174D01*
X21058508Y30910538D01*
X21027979Y30973385D01*
X21036274Y31042761D01*
X21080759Y31096639D01*
X21118165Y31113721D01*
X21155823Y31123811D01*
X21247878Y31176959D01*
X21323041Y31252122D01*
X21376189Y31344177D01*
X21403700Y31446852D01*
X21403700Y31553148D01*
X21376189Y31655823D01*
X21323041Y31747878D01*
X21247878Y31823041D01*
X21155823Y31876189D01*
X21140756Y31880226D01*
X21081097Y31916589D01*
X21050567Y31979435D01*
X21058861Y32048811D01*
X21103346Y32102690D01*
X21140755Y32119774D01*
X21155823Y32123811D01*
X21247878Y32176959D01*
X21323041Y32252122D01*
X21376189Y32344177D01*
X21403700Y32446852D01*
X21403700Y32553148D01*
X21376189Y32655823D01*
X21323041Y32747878D01*
X21247878Y32823041D01*
X21160905Y32873255D01*
X21155825Y32876188D01*
X21155824Y32876189D01*
X21155823Y32876189D01*
X21053148Y32903700D01*
X20946852Y32903700D01*
X20844177Y32876189D01*
X20844175Y32876188D01*
X20844174Y32876188D01*
X20752125Y32823043D01*
X20752119Y32823039D01*
X20676961Y32747881D01*
X20676957Y32747875D01*
X20623812Y32655826D01*
X20623812Y32655825D01*
X20623811Y32655823D01*
X20619774Y32640757D01*
X20583410Y32581097D01*
X20520563Y32550568D01*
X20451188Y32558863D01*
X20397310Y32603348D01*
X20380226Y32640756D01*
X20376189Y32655823D01*
X20323041Y32747878D01*
X20247878Y32823041D01*
X20160905Y32873255D01*
X20155825Y32876188D01*
X20155824Y32876189D01*
X20155823Y32876189D01*
X20053148Y32903700D01*
X19946852Y32903700D01*
X19844177Y32876189D01*
X19844175Y32876188D01*
X19844174Y32876188D01*
X19752125Y32823043D01*
X19752119Y32823039D01*
X19676961Y32747881D01*
X19676957Y32747875D01*
X19623812Y32655826D01*
X19623812Y32655825D01*
X19623811Y32655823D01*
X19619774Y32640757D01*
X19583410Y32581097D01*
X19520563Y32550568D01*
X19451188Y32558863D01*
X19397310Y32603348D01*
X19380226Y32640756D01*
X19376189Y32655823D01*
X19323041Y32747878D01*
X19247878Y32823041D01*
X19160905Y32873255D01*
X19155825Y32876188D01*
X19155824Y32876189D01*
X19155823Y32876189D01*
X19053148Y32903700D01*
X18946852Y32903700D01*
X18844177Y32876189D01*
X18844175Y32876188D01*
X18844174Y32876188D01*
X18752125Y32823043D01*
X18752119Y32823039D01*
X18676961Y32747881D01*
X18676957Y32747875D01*
X18623812Y32655826D01*
X18623812Y32655825D01*
X18623811Y32655823D01*
X18619774Y32640757D01*
X18583410Y32581097D01*
X18520563Y32550568D01*
X18451188Y32558863D01*
X18397310Y32603348D01*
X18380226Y32640756D01*
X18376189Y32655823D01*
X18323041Y32747878D01*
X18247878Y32823041D01*
X18160905Y32873255D01*
X18155825Y32876188D01*
X18155824Y32876189D01*
X18155823Y32876189D01*
X18053148Y32903700D01*
X17946852Y32903700D01*
X17844177Y32876189D01*
X17844175Y32876188D01*
X17844174Y32876188D01*
X17752125Y32823043D01*
X17752119Y32823039D01*
X17676961Y32747881D01*
X17676957Y32747875D01*
X17623812Y32655826D01*
X17623812Y32655825D01*
X17623811Y32655823D01*
X17619774Y32640757D01*
X17583410Y32581097D01*
X17520563Y32550568D01*
X17451188Y32558863D01*
X17397310Y32603348D01*
X17380226Y32640756D01*
X17376189Y32655823D01*
X17323041Y32747878D01*
X17247878Y32823041D01*
X17160905Y32873255D01*
X17155825Y32876188D01*
X17155824Y32876189D01*
X17155823Y32876189D01*
X17053148Y32903700D01*
X16946852Y32903700D01*
X16844177Y32876189D01*
X16844175Y32876188D01*
X16844174Y32876188D01*
X16752125Y32823043D01*
X16752119Y32823039D01*
X16676961Y32747881D01*
X16676957Y32747875D01*
X16623812Y32655826D01*
X16623812Y32655825D01*
X16623811Y32655823D01*
X16596300Y32553148D01*
X16596300Y32446852D01*
X16623811Y32344177D01*
X16676959Y32252122D01*
X16752122Y32176959D01*
X16844177Y32123811D01*
X16859243Y32119775D01*
X16918903Y32083410D01*
X16949432Y32020563D01*
X16941137Y31951188D01*
X16896652Y31897310D01*
X16859244Y31880227D01*
X16844177Y31876189D01*
X16844175Y31876188D01*
X16844174Y31876188D01*
X16752125Y31823043D01*
X16752119Y31823039D01*
X16676961Y31747881D01*
X16676957Y31747875D01*
X16623812Y31655826D01*
X16623812Y31655825D01*
X16623811Y31655823D01*
X16600794Y31569919D01*
X16596300Y31553148D01*
X16596300Y31486632D01*
X16576615Y31419593D01*
X16523811Y31373838D01*
X16454653Y31363894D01*
X16450294Y31364788D01*
X16445645Y31365400D01*
X16445644Y31365400D01*
X16339348Y31365400D01*
X16236673Y31337889D01*
X16236671Y31337888D01*
X16236670Y31337888D01*
X16144621Y31284743D01*
X16144615Y31284739D01*
X16069457Y31209581D01*
X16069455Y31209578D01*
X16055641Y31185652D01*
X16005072Y31137438D01*
X15936465Y31124217D01*
X15871601Y31150186D01*
X15840867Y31185657D01*
X15833812Y31197878D01*
X15758649Y31273041D01*
X15672050Y31323039D01*
X15666596Y31326188D01*
X15666595Y31326189D01*
X15666594Y31326189D01*
X15563919Y31353700D01*
X15527700Y31353700D01*
X15460661Y31373385D01*
X15414906Y31426189D01*
X15403700Y31477700D01*
X15403700Y31553146D01*
X15403700Y31553148D01*
X15376189Y31655823D01*
X15323041Y31747878D01*
X15247878Y31823041D01*
X15155823Y31876189D01*
X15140756Y31880226D01*
X15081097Y31916589D01*
X15050567Y31979435D01*
X15058861Y32048811D01*
X15103346Y32102690D01*
X15140755Y32119774D01*
X15155823Y32123811D01*
X15247878Y32176959D01*
X15323041Y32252122D01*
X15376189Y32344177D01*
X15403700Y32446852D01*
X15403700Y32553148D01*
X15376189Y32655823D01*
X15323041Y32747878D01*
X15247878Y32823041D01*
X15160905Y32873255D01*
X15155825Y32876188D01*
X15155824Y32876189D01*
X15155823Y32876189D01*
X15053148Y32903700D01*
X14946852Y32903700D01*
X14844177Y32876189D01*
X14844175Y32876188D01*
X14844174Y32876188D01*
X14752125Y32823043D01*
X14752119Y32823039D01*
X14676961Y32747881D01*
X14676957Y32747875D01*
X14623812Y32655826D01*
X14623812Y32655825D01*
X14623811Y32655823D01*
X14619774Y32640757D01*
X14583410Y32581097D01*
X14520563Y32550568D01*
X14451188Y32558863D01*
X14397310Y32603348D01*
X14380226Y32640756D01*
X14376189Y32655823D01*
X14323041Y32747878D01*
X14247878Y32823041D01*
X14160905Y32873255D01*
X14155825Y32876188D01*
X14155824Y32876189D01*
X14155823Y32876189D01*
X14053148Y32903700D01*
X13946852Y32903700D01*
X13844177Y32876189D01*
X13844175Y32876188D01*
X13844174Y32876188D01*
X13752125Y32823043D01*
X13752119Y32823039D01*
X13676961Y32747881D01*
X13676957Y32747875D01*
X13623812Y32655826D01*
X13623812Y32655825D01*
X13623811Y32655823D01*
X13619774Y32640757D01*
X13583410Y32581097D01*
X13520563Y32550568D01*
X13451188Y32558863D01*
X13397310Y32603348D01*
X13380226Y32640756D01*
X13376189Y32655823D01*
X13323041Y32747878D01*
X13247878Y32823041D01*
X13160905Y32873255D01*
X13155825Y32876188D01*
X13155824Y32876189D01*
X13155823Y32876189D01*
X13053148Y32903700D01*
X12946852Y32903700D01*
X12844177Y32876189D01*
X12844175Y32876188D01*
X12844174Y32876188D01*
X12752125Y32823043D01*
X12752119Y32823039D01*
X12676961Y32747881D01*
X12676957Y32747875D01*
X12623812Y32655826D01*
X12623812Y32655825D01*
X12623811Y32655823D01*
X12619774Y32640757D01*
X12583410Y32581097D01*
X12520563Y32550568D01*
X12451188Y32558863D01*
X12397310Y32603348D01*
X12395172Y32606617D01*
X12385103Y32622552D01*
X12376189Y32655823D01*
X12323041Y32747878D01*
X12276532Y32794387D01*
X12269153Y32806066D01*
X12263205Y32826913D01*
X12252815Y32845942D01*
X12253809Y32859849D01*
X12249985Y32873255D01*
X12256252Y32894008D01*
X12257799Y32915634D01*
X12266154Y32926796D01*
X12270185Y32940141D01*
X12286679Y32954213D01*
X12299671Y32971567D01*
X12312731Y32976439D01*
X12323339Y32985488D01*
X12344823Y32988409D01*
X12365135Y32995984D01*
X12373981Y32996300D01*
X12473146Y32996300D01*
X12473148Y32996300D01*
X12575823Y33023811D01*
X12667878Y33076959D01*
X12743041Y33152122D01*
X12796189Y33244177D01*
X12823700Y33346852D01*
X12823700Y33453148D01*
X12796189Y33555823D01*
X12743041Y33647878D01*
X12667878Y33723041D01*
X12579942Y33773811D01*
X12575825Y33776188D01*
X12575824Y33776189D01*
X12575823Y33776189D01*
X12473148Y33803700D01*
X12366852Y33803700D01*
X12264177Y33776189D01*
X12264175Y33776188D01*
X12264174Y33776188D01*
X12172125Y33723043D01*
X12172119Y33723039D01*
X12096961Y33647881D01*
X12096957Y33647875D01*
X12043812Y33555826D01*
X12043812Y33555825D01*
X12043811Y33555823D01*
X12016300Y33453148D01*
X12016300Y33346852D01*
X12043811Y33244177D01*
X12096959Y33152122D01*
X12096961Y33152120D01*
X12133700Y33115381D01*
X12167185Y33054058D01*
X12162201Y32984366D01*
X12120329Y32928433D01*
X12054865Y32904016D01*
X12046019Y32903700D01*
X11946852Y32903700D01*
X11844177Y32876189D01*
X11844175Y32876188D01*
X11844174Y32876188D01*
X11752125Y32823043D01*
X11752119Y32823039D01*
X11676961Y32747881D01*
X11676957Y32747875D01*
X11623812Y32655826D01*
X11623812Y32655825D01*
X11623811Y32655823D01*
X11596300Y32553148D01*
X11596300Y32446852D01*
X11623811Y32344177D01*
X11676959Y32252122D01*
X11752122Y32176959D01*
X11844177Y32123811D01*
X11859243Y32119775D01*
X11918903Y32083410D01*
X11949432Y32020563D01*
X11941137Y31951188D01*
X11896652Y31897310D01*
X11859244Y31880227D01*
X11844177Y31876189D01*
X11844175Y31876188D01*
X11844174Y31876188D01*
X11752125Y31823043D01*
X11752119Y31823039D01*
X11676961Y31747881D01*
X11676957Y31747875D01*
X11623812Y31655826D01*
X11623812Y31655825D01*
X11623811Y31655823D01*
X11596300Y31553148D01*
X11596300Y31446852D01*
X11623811Y31344177D01*
X11676959Y31252122D01*
X11752122Y31176959D01*
X11844177Y31123811D01*
X11859243Y31119775D01*
X11918903Y31083410D01*
X11949432Y31020563D01*
X11941137Y30951188D01*
X11896652Y30897310D01*
X11859244Y30880227D01*
X11844177Y30876189D01*
X11844175Y30876188D01*
X11844174Y30876188D01*
X11752125Y30823043D01*
X11752119Y30823039D01*
X11676961Y30747881D01*
X11676957Y30747875D01*
X11623812Y30655826D01*
X11623812Y30655825D01*
X11623811Y30655823D01*
X11596300Y30553148D01*
X11596300Y30446852D01*
X11623811Y30344177D01*
X11623812Y30344176D01*
X11623812Y30344175D01*
X11630563Y30332482D01*
X11676959Y30252122D01*
X11752122Y30176959D01*
X11844177Y30123811D01*
X11859243Y30119775D01*
X11918903Y30083410D01*
X11949432Y30020563D01*
X11941137Y29951188D01*
X11896652Y29897310D01*
X11859244Y29880227D01*
X11844177Y29876189D01*
X11844175Y29876188D01*
X11844174Y29876188D01*
X11752125Y29823043D01*
X11752119Y29823039D01*
X11676961Y29747881D01*
X11676957Y29747875D01*
X11623812Y29655826D01*
X11623812Y29655825D01*
X11623811Y29655823D01*
X11619774Y29640757D01*
X11583410Y29581097D01*
X11520563Y29550568D01*
X11451188Y29558863D01*
X11397310Y29603348D01*
X11380226Y29640756D01*
X11376189Y29655823D01*
X11323041Y29747878D01*
X11247878Y29823041D01*
X11155823Y29876189D01*
X11053148Y29903700D01*
X10946852Y29903700D01*
X10844177Y29876189D01*
X10844175Y29876188D01*
X10844174Y29876188D01*
X10752125Y29823043D01*
X10752119Y29823039D01*
X10676961Y29747881D01*
X10676957Y29747875D01*
X10623812Y29655826D01*
X10623812Y29655825D01*
X10623811Y29655823D01*
X10596300Y29553148D01*
X10596300Y29446852D01*
X10623811Y29344177D01*
X10676959Y29252122D01*
X10752122Y29176959D01*
X10844177Y29123811D01*
X10859243Y29119775D01*
X10918903Y29083410D01*
X10949432Y29020563D01*
X10941137Y28951188D01*
X10896652Y28897310D01*
X10859244Y28880227D01*
X10844177Y28876189D01*
X10844175Y28876188D01*
X10844174Y28876188D01*
X10752125Y28823043D01*
X10752119Y28823039D01*
X10676961Y28747881D01*
X10676957Y28747875D01*
X10623812Y28655826D01*
X10623812Y28655825D01*
X10623811Y28655823D01*
X10596300Y28553148D01*
X10596300Y28446852D01*
X10623811Y28344177D01*
X10676959Y28252122D01*
X10752122Y28176959D01*
X10844177Y28123811D01*
X10859243Y28119775D01*
X10918903Y28083410D01*
X10949432Y28020563D01*
X10941137Y27951188D01*
X10896652Y27897310D01*
X10859244Y27880227D01*
X10844177Y27876189D01*
X10844175Y27876188D01*
X10844174Y27876188D01*
X10752125Y27823043D01*
X10752119Y27823039D01*
X10676961Y27747881D01*
X10676957Y27747875D01*
X10623812Y27655826D01*
X10623812Y27655825D01*
X10623811Y27655823D01*
X10596300Y27553148D01*
X10596300Y27446852D01*
X10623811Y27344177D01*
X10676390Y27253107D01*
X10679807Y27247190D01*
X10696280Y27179290D01*
X10673428Y27113263D01*
X10618507Y27070073D01*
X10572420Y27061190D01*
X9327580Y27061190D01*
X9260541Y27080875D01*
X9214786Y27133679D01*
X9204842Y27202837D01*
X9220193Y27247190D01*
X9223039Y27252121D01*
X9223041Y27252122D01*
X9276189Y27344177D01*
X9303700Y27446852D01*
X9303700Y27553148D01*
X9276189Y27655823D01*
X9223041Y27747878D01*
X9147878Y27823041D01*
X9061279Y27873039D01*
X9055825Y27876188D01*
X9055824Y27876189D01*
X9055823Y27876189D01*
X8953148Y27903700D01*
X8846852Y27903700D01*
X8744177Y27876189D01*
X8744175Y27876188D01*
X8744174Y27876188D01*
X8652125Y27823043D01*
X8652119Y27823039D01*
X8576961Y27747881D01*
X8576957Y27747875D01*
X8523810Y27655822D01*
X8521563Y27650397D01*
X8500972Y27624849D01*
X8481314Y27598588D01*
X8479162Y27597786D01*
X8477720Y27595996D01*
X8446586Y27585636D01*
X8415850Y27574171D01*
X8413604Y27574660D01*
X8411425Y27573934D01*
X8379637Y27582049D01*
X8347577Y27589023D01*
X8345124Y27590860D01*
X8343726Y27591216D01*
X8319323Y27610174D01*
X8318905Y27610592D01*
X8286811Y27666181D01*
X8276190Y27705821D01*
X8276189Y27705822D01*
X8276189Y27705823D01*
X8223041Y27797878D01*
X8147878Y27873041D01*
X8061513Y27922904D01*
X8055825Y27926188D01*
X8055824Y27926189D01*
X8055823Y27926189D01*
X7953148Y27953700D01*
X7846852Y27953700D01*
X7834790Y27950468D01*
X7764940Y27952133D01*
X7707079Y27991297D01*
X7679577Y28055526D01*
X7678700Y28070244D01*
X7678700Y29739169D01*
X7698385Y29806208D01*
X7715014Y29826845D01*
X8941317Y31053148D01*
X10296300Y31053148D01*
X10296300Y30946852D01*
X10323811Y30844177D01*
X10376959Y30752122D01*
X10452122Y30676959D01*
X10544177Y30623811D01*
X10646852Y30596300D01*
X10646854Y30596300D01*
X10753146Y30596300D01*
X10753148Y30596300D01*
X10855823Y30623811D01*
X10947878Y30676959D01*
X11023041Y30752122D01*
X11076189Y30844177D01*
X11103700Y30946852D01*
X11103700Y31053148D01*
X11076189Y31155823D01*
X11023041Y31247878D01*
X10947878Y31323041D01*
X10855823Y31376189D01*
X10753148Y31403700D01*
X10646852Y31403700D01*
X10544177Y31376189D01*
X10544175Y31376188D01*
X10544174Y31376188D01*
X10452125Y31323043D01*
X10452119Y31323039D01*
X10376961Y31247881D01*
X10376957Y31247875D01*
X10323812Y31155826D01*
X10323812Y31155825D01*
X10323811Y31155823D01*
X10296300Y31053148D01*
X8941317Y31053148D01*
X10360916Y32472748D01*
X10360921Y32472751D01*
X10371124Y32482955D01*
X10371126Y32482955D01*
X10423016Y32534845D01*
X10459707Y32598397D01*
X10478700Y32669279D01*
X10478700Y32931419D01*
X10498385Y32998458D01*
X10515019Y33019100D01*
X10517169Y33021250D01*
X10523041Y33027122D01*
X10576189Y33119177D01*
X10603700Y33221852D01*
X10603700Y33328148D01*
X10576189Y33430823D01*
X10523041Y33522878D01*
X10447878Y33598041D01*
X10355823Y33651189D01*
X10253148Y33678700D01*
X10146852Y33678700D01*
X10044177Y33651189D01*
X10044175Y33651188D01*
X10044174Y33651188D01*
X9952125Y33598043D01*
X9952119Y33598039D01*
X9912681Y33558600D01*
X9851358Y33525115D01*
X9781666Y33530099D01*
X9737319Y33558600D01*
X9697880Y33598039D01*
X9697878Y33598041D01*
X9605823Y33651189D01*
X9503148Y33678700D01*
X9396852Y33678700D01*
X9294177Y33651189D01*
X9294175Y33651188D01*
X9294174Y33651188D01*
X9202125Y33598043D01*
X9202119Y33598039D01*
X9126961Y33522881D01*
X9126957Y33522875D01*
X9073812Y33430826D01*
X9073812Y33430825D01*
X9073811Y33430823D01*
X9046300Y33328148D01*
X9046300Y33221852D01*
X9073811Y33119177D01*
X9073812Y33119176D01*
X9073812Y33119175D01*
X9086699Y33096854D01*
X9126959Y33027122D01*
X9126961Y33027120D01*
X9134981Y33019100D01*
X9149684Y32992173D01*
X9166277Y32966354D01*
X9167168Y32960154D01*
X9168466Y32957777D01*
X9171300Y32931419D01*
X9171300Y32718718D01*
X9151615Y32651679D01*
X9134981Y32631037D01*
X6776985Y30273042D01*
X6776983Y30273040D01*
X6740293Y30209489D01*
X6740293Y30209488D01*
X6721300Y30138606D01*
X6721300Y30138604D01*
X6721300Y27044932D01*
X6701615Y26977893D01*
X6648811Y26932138D01*
X6579653Y26922194D01*
X6528411Y26941829D01*
X6488327Y26968612D01*
X6488325Y26968613D01*
X6360266Y27021656D01*
X6360254Y27021659D01*
X6224311Y27048700D01*
X6224308Y27048700D01*
X4985692Y27048700D01*
X4985689Y27048700D01*
X4849745Y27021659D01*
X4849733Y27021656D01*
X4721676Y26968614D01*
X4606414Y26891599D01*
X4508401Y26793586D01*
X4431386Y26678324D01*
X4378344Y26550267D01*
X4378341Y26550255D01*
X4351300Y26414313D01*
X4351300Y26275688D01*
X4378341Y26139746D01*
X4378344Y26139734D01*
X4431386Y26011677D01*
X4508401Y25896415D01*
X4606414Y25798402D01*
X4721676Y25721387D01*
X4849733Y25668345D01*
X4849738Y25668343D01*
X4985687Y25641301D01*
X4985690Y25641300D01*
X4985692Y25641300D01*
X6224310Y25641300D01*
X6224311Y25641301D01*
X6360262Y25668343D01*
X6424294Y25694866D01*
X6488323Y25721387D01*
X6488324Y25721388D01*
X6488327Y25721389D01*
X6603583Y25798400D01*
X6701600Y25896417D01*
X6778611Y26011673D01*
X6782991Y26022246D01*
X6812785Y26094177D01*
X6831657Y26139738D01*
X6858700Y26275692D01*
X6858700Y26348648D01*
X6878385Y26415687D01*
X6931189Y26461442D01*
X7000347Y26471386D01*
X7063903Y26442361D01*
X7070381Y26436329D01*
X8311604Y25195106D01*
X8326307Y25168179D01*
X8342900Y25142360D01*
X8343791Y25136160D01*
X8345089Y25133783D01*
X8347923Y25107425D01*
X8347923Y25006303D01*
X8328238Y24939264D01*
X8275434Y24893509D01*
X8206276Y24883565D01*
X8191831Y24886528D01*
X8148724Y24898078D01*
X8148723Y24898078D01*
X8042427Y24898078D01*
X7939752Y24870567D01*
X7939750Y24870566D01*
X7939749Y24870566D01*
X7847700Y24817421D01*
X7847694Y24817417D01*
X7772536Y24742259D01*
X7772532Y24742253D01*
X7719387Y24650204D01*
X7719387Y24650203D01*
X7719386Y24650201D01*
X7691875Y24547526D01*
X7691875Y24441230D01*
X7719386Y24338555D01*
X7719387Y24338554D01*
X7719387Y24338553D01*
X7734888Y24311704D01*
X7772534Y24246500D01*
X7847697Y24171337D01*
X7939752Y24118189D01*
X8042427Y24090678D01*
X8042429Y24090678D01*
X8148720Y24090678D01*
X8148723Y24090678D01*
X8191832Y24102229D01*
X8261679Y24100566D01*
X8319542Y24061404D01*
X8347046Y23997175D01*
X8347923Y23982454D01*
X8347923Y23663172D01*
X8365706Y23596807D01*
X8366916Y23592290D01*
X8403606Y23528739D01*
X8462562Y23469783D01*
X8462568Y23469778D01*
X8524129Y23408217D01*
X8557614Y23346894D01*
X8552630Y23277202D01*
X8510758Y23221269D01*
X8498450Y23213150D01*
X8442664Y23180941D01*
X8442658Y23180937D01*
X8367500Y23105779D01*
X8367496Y23105773D01*
X8314351Y23013724D01*
X8314351Y23013723D01*
X8314350Y23013721D01*
X8286839Y22911046D01*
X8286839Y22804750D01*
X8314350Y22702075D01*
X8367498Y22610020D01*
X8367500Y22610018D01*
X8400927Y22576591D01*
X8434412Y22515268D01*
X8429428Y22445576D01*
X8400930Y22401232D01*
X8378095Y22378396D01*
X8378089Y22378388D01*
X8324944Y22286339D01*
X8324944Y22286338D01*
X8324943Y22286336D01*
X8297432Y22183661D01*
X8297432Y22077365D01*
X8324943Y21974690D01*
X8378091Y21882635D01*
X8453254Y21807472D01*
X8545309Y21754324D01*
X8647984Y21726813D01*
X8647986Y21726813D01*
X8754277Y21726813D01*
X8754280Y21726813D01*
X8772429Y21731676D01*
X8842276Y21730013D01*
X8900138Y21690851D01*
X8927643Y21626623D01*
X8928520Y21611901D01*
X8928520Y21141627D01*
X8919876Y21112193D01*
X8913354Y21082203D01*
X8909597Y21077186D01*
X8908835Y21074588D01*
X8892203Y21053948D01*
X8870747Y21032491D01*
X8870746Y21032491D01*
X8870744Y21032488D01*
X8823433Y20985178D01*
X8762110Y20951694D01*
X8703662Y20953085D01*
X8610383Y20978078D01*
X8610379Y20978078D01*
X8504083Y20978078D01*
X8401408Y20950567D01*
X8401406Y20950566D01*
X8401405Y20950566D01*
X8309356Y20897421D01*
X8309350Y20897417D01*
X8234192Y20822259D01*
X8234188Y20822253D01*
X8181043Y20730204D01*
X8181043Y20730203D01*
X8181042Y20730201D01*
X8153531Y20627526D01*
X8153531Y20521230D01*
X8181042Y20418555D01*
X8234190Y20326500D01*
X8309353Y20251337D01*
X8322245Y20243894D01*
X8323672Y20243070D01*
X8329919Y20236518D01*
X8338324Y20233153D01*
X8353650Y20211630D01*
X8371888Y20192503D01*
X8373601Y20183613D01*
X8378852Y20176239D01*
X8380108Y20149850D01*
X8385111Y20123896D01*
X8381833Y20113643D01*
X8382176Y20106448D01*
X8369059Y20073683D01*
X8359528Y20057175D01*
X8308961Y20008959D01*
X8240353Y19995737D01*
X8220049Y19999400D01*
X8161578Y20015067D01*
X8161577Y20015067D01*
X8055281Y20015067D01*
X7952606Y19987556D01*
X7952604Y19987555D01*
X7952603Y19987555D01*
X7860554Y19934410D01*
X7860548Y19934406D01*
X7785390Y19859248D01*
X7785386Y19859242D01*
X7732241Y19767193D01*
X7732241Y19767192D01*
X7732240Y19767190D01*
X7704729Y19664515D01*
X7704729Y19558219D01*
X7732240Y19455544D01*
X7732241Y19455543D01*
X7732241Y19455542D01*
X7735540Y19449828D01*
X7785388Y19363489D01*
X7860551Y19288326D01*
X7889021Y19271889D01*
X7937235Y19221324D01*
X7950459Y19152717D01*
X7924491Y19087852D01*
X7914701Y19076822D01*
X6928876Y18090996D01*
X6928864Y18090984D01*
X6924532Y18086653D01*
X6863205Y18053175D01*
X6793514Y18058167D01*
X6737585Y18100045D01*
X6733767Y18105441D01*
X6701600Y18153583D01*
X6701598Y18153586D01*
X6603585Y18251599D01*
X6488323Y18328614D01*
X6360266Y18381656D01*
X6360254Y18381659D01*
X6224311Y18408700D01*
X6224308Y18408700D01*
X4985692Y18408700D01*
X4985689Y18408700D01*
X4849745Y18381659D01*
X4849733Y18381656D01*
X4721676Y18328614D01*
X4606414Y18251599D01*
X4508401Y18153586D01*
X4431386Y18038324D01*
X4378344Y17910267D01*
X4378341Y17910255D01*
X4351300Y17774313D01*
X4351300Y17635688D01*
X4378341Y17499746D01*
X4378344Y17499734D01*
X4431386Y17371677D01*
X4508401Y17256415D01*
X4606414Y17158402D01*
X4721676Y17081387D01*
X4835581Y17034207D01*
X4849738Y17028343D01*
X4981047Y17002224D01*
X4985687Y17001301D01*
X4985690Y17001300D01*
X6207797Y17001300D01*
X6274836Y16981615D01*
X6320591Y16928811D01*
X6330535Y16859653D01*
X6301510Y16796097D01*
X6295484Y16789626D01*
X5982847Y16476989D01*
X5673176Y16167318D01*
X5621285Y16115428D01*
X5621281Y16115423D01*
X5615207Y16104902D01*
X5564638Y16056688D01*
X5496030Y16043468D01*
X5431167Y16069438D01*
X5390640Y16126354D01*
X5388053Y16134792D01*
X5376189Y16179073D01*
X5323041Y16271128D01*
X5247878Y16346291D01*
X5163489Y16395013D01*
X5155825Y16399438D01*
X5155824Y16399439D01*
X5155823Y16399439D01*
X5053148Y16426950D01*
X4946852Y16426950D01*
X4844177Y16399439D01*
X4844175Y16399438D01*
X4844174Y16399438D01*
X4752125Y16346293D01*
X4752119Y16346289D01*
X4676961Y16271131D01*
X4676957Y16271125D01*
X4623812Y16179076D01*
X4623812Y16179075D01*
X4623811Y16179073D01*
X4596300Y16076398D01*
X4596300Y15970102D01*
X4623811Y15867427D01*
X4623812Y15867426D01*
X4623812Y15867425D01*
X4630686Y15855519D01*
X4676959Y15775372D01*
X4752122Y15700209D01*
X4844177Y15647061D01*
X4946852Y15619550D01*
X4946854Y15619550D01*
X5053146Y15619550D01*
X5053148Y15619550D01*
X5155823Y15647061D01*
X5247878Y15700209D01*
X5323041Y15775372D01*
X5334213Y15794724D01*
X5384779Y15842938D01*
X5453386Y15856162D01*
X5518251Y15830194D01*
X5558780Y15773280D01*
X5565600Y15732723D01*
X5565600Y14219008D01*
X5578430Y14171126D01*
X5584593Y14148126D01*
X5621283Y14084575D01*
X5680239Y14025619D01*
X5680245Y14025614D01*
X6059981Y13645878D01*
X6093466Y13584555D01*
X6096300Y13558197D01*
X6096300Y13546852D01*
X6123811Y13444177D01*
X6123812Y13444176D01*
X6123812Y13444175D01*
X6138998Y13417873D01*
X6176959Y13352122D01*
X6252122Y13276959D01*
X6344177Y13223811D01*
X6446852Y13196300D01*
X6446854Y13196300D01*
X6553146Y13196300D01*
X6553148Y13196300D01*
X6655823Y13223811D01*
X6747878Y13276959D01*
X6823041Y13352122D01*
X6876189Y13444177D01*
X6903700Y13546852D01*
X6903700Y13602797D01*
X6923385Y13669836D01*
X6976189Y13715591D01*
X7045347Y13725535D01*
X7108903Y13696510D01*
X7115381Y13690478D01*
X8284981Y12520878D01*
X8299684Y12493951D01*
X8316277Y12468132D01*
X8317168Y12461932D01*
X8318466Y12459555D01*
X8321300Y12433197D01*
X8321300Y12393581D01*
X8301615Y12326542D01*
X8284981Y12305900D01*
X8276961Y12297881D01*
X8276957Y12297875D01*
X8223812Y12205826D01*
X8223812Y12205825D01*
X8223811Y12205823D01*
X8196300Y12103148D01*
X8196300Y11996852D01*
X8223811Y11894177D01*
X8276959Y11802122D01*
X8352122Y11726959D01*
X8444177Y11673811D01*
X8546852Y11646300D01*
X8546854Y11646300D01*
X8653146Y11646300D01*
X8653148Y11646300D01*
X8755823Y11673811D01*
X8847878Y11726959D01*
X8923041Y11802122D01*
X8976189Y11894177D01*
X9003700Y11996852D01*
X9003700Y12103148D01*
X8976189Y12205823D01*
X8923041Y12297878D01*
X8907771Y12313148D01*
X9496300Y12313148D01*
X9496300Y12206852D01*
X9523811Y12104177D01*
X9576959Y12012122D01*
X9652122Y11936959D01*
X9744177Y11883811D01*
X9846852Y11856300D01*
X9846854Y11856300D01*
X9953146Y11856300D01*
X9953148Y11856300D01*
X10055823Y11883811D01*
X10147878Y11936959D01*
X10223041Y12012122D01*
X10276189Y12104177D01*
X10303700Y12206852D01*
X10303700Y12253148D01*
X16196300Y12253148D01*
X16196300Y12146852D01*
X16223811Y12044177D01*
X16276959Y11952122D01*
X16352122Y11876959D01*
X16444177Y11823811D01*
X16546852Y11796300D01*
X16546854Y11796300D01*
X16653146Y11796300D01*
X16653148Y11796300D01*
X16755823Y11823811D01*
X16847878Y11876959D01*
X16923041Y11952122D01*
X16976189Y12044177D01*
X17003700Y12146852D01*
X17003700Y12253148D01*
X16976189Y12355823D01*
X16923041Y12447878D01*
X16847878Y12523041D01*
X16755823Y12576189D01*
X16653148Y12603700D01*
X16546852Y12603700D01*
X16444177Y12576189D01*
X16444175Y12576188D01*
X16444174Y12576188D01*
X16352125Y12523043D01*
X16352119Y12523039D01*
X16276961Y12447881D01*
X16276957Y12447875D01*
X16223812Y12355826D01*
X16223812Y12355825D01*
X16223811Y12355823D01*
X16196300Y12253148D01*
X10303700Y12253148D01*
X10303700Y12313148D01*
X10276189Y12415823D01*
X10223041Y12507878D01*
X10147878Y12583041D01*
X10057915Y12634981D01*
X10055824Y12636189D01*
X10004485Y12649945D01*
X9953148Y12663700D01*
X9846852Y12663700D01*
X9744177Y12636189D01*
X9744175Y12636188D01*
X9744174Y12636188D01*
X9652125Y12583043D01*
X9652119Y12583039D01*
X9576961Y12507881D01*
X9576957Y12507875D01*
X9523812Y12415826D01*
X9523812Y12415825D01*
X9523811Y12415823D01*
X9496300Y12313148D01*
X8907771Y12313148D01*
X8907094Y12313825D01*
X8900720Y12323040D01*
X8893122Y12346000D01*
X8881534Y12367223D01*
X8879336Y12387666D01*
X8878771Y12389373D01*
X8879039Y12390420D01*
X8878700Y12393581D01*
X8878700Y12553306D01*
X8878701Y12553319D01*
X8878701Y12636690D01*
X8878700Y12636694D01*
X8873573Y12655826D01*
X8872037Y12661561D01*
X8859709Y12707568D01*
X8859708Y12707571D01*
X8859707Y12707574D01*
X8844942Y12733148D01*
X14486300Y12733148D01*
X14486300Y12626852D01*
X14513811Y12524177D01*
X14513812Y12524176D01*
X14513812Y12524175D01*
X14531262Y12493951D01*
X14566959Y12432122D01*
X14642122Y12356959D01*
X14734177Y12303811D01*
X14836852Y12276300D01*
X14836854Y12276300D01*
X14943146Y12276300D01*
X14943148Y12276300D01*
X15045823Y12303811D01*
X15137878Y12356959D01*
X15213041Y12432122D01*
X15266189Y12524177D01*
X15293700Y12626852D01*
X15293700Y12733148D01*
X15266189Y12835823D01*
X15213041Y12927878D01*
X15137878Y13003041D01*
X15045823Y13056189D01*
X14943148Y13083700D01*
X14836852Y13083700D01*
X14734177Y13056189D01*
X14734175Y13056188D01*
X14734174Y13056188D01*
X14642125Y13003043D01*
X14642119Y13003039D01*
X14566961Y12927881D01*
X14566957Y12927875D01*
X14513812Y12835826D01*
X14513812Y12835825D01*
X14513811Y12835823D01*
X14486300Y12733148D01*
X8844942Y12733148D01*
X8823016Y12771126D01*
X8771126Y12823016D01*
X8771123Y12823018D01*
X6830110Y14764031D01*
X6796625Y14825354D01*
X6793791Y14851712D01*
X6793791Y14975713D01*
X6813476Y15042752D01*
X6866280Y15088507D01*
X6935438Y15098451D01*
X6944261Y15096642D01*
X6946850Y15096301D01*
X6946852Y15096300D01*
X6946854Y15096300D01*
X7053145Y15096300D01*
X7053148Y15096300D01*
X7140210Y15119628D01*
X7210056Y15117965D01*
X7267919Y15078803D01*
X7295423Y15014574D01*
X7296300Y14999853D01*
X7296300Y14896852D01*
X7323811Y14794177D01*
X7376959Y14702122D01*
X7452122Y14626959D01*
X7544177Y14573811D01*
X7646852Y14546300D01*
X7646854Y14546300D01*
X7753146Y14546300D01*
X7753148Y14546300D01*
X7791021Y14556448D01*
X7860870Y14554785D01*
X7910794Y14524354D01*
X8298173Y14136975D01*
X8298174Y14136974D01*
X8298176Y14136973D01*
X8335649Y14115338D01*
X8368626Y14096299D01*
X8373123Y14093703D01*
X8373122Y14093703D01*
X8373126Y14093701D01*
X8394388Y14088004D01*
X8394390Y14088003D01*
X8407188Y14084574D01*
X8456726Y14071300D01*
X10346646Y14071300D01*
X10378735Y14067076D01*
X10460001Y14045300D01*
X10460004Y14045300D01*
X11089996Y14045300D01*
X11089999Y14045300D01*
X11092902Y14046078D01*
X11095907Y14046078D01*
X11098056Y14046361D01*
X11098093Y14046078D01*
X11151907Y14046078D01*
X11151944Y14046361D01*
X11154093Y14046078D01*
X11157098Y14046078D01*
X11160001Y14045300D01*
X11160004Y14045300D01*
X11789996Y14045300D01*
X11789999Y14045300D01*
X11792902Y14046078D01*
X11795907Y14046078D01*
X11798056Y14046361D01*
X11798093Y14046078D01*
X11851907Y14046078D01*
X11851944Y14046361D01*
X11854093Y14046078D01*
X11857098Y14046078D01*
X11860001Y14045300D01*
X11860004Y14045300D01*
X12489996Y14045300D01*
X12489999Y14045300D01*
X12571264Y14067076D01*
X12603354Y14071300D01*
X13641814Y14071300D01*
X13708853Y14051615D01*
X13754608Y13998811D01*
X13764552Y13929653D01*
X13761590Y13915215D01*
X13746300Y13858148D01*
X13746300Y13751852D01*
X13773811Y13649177D01*
X13826959Y13557122D01*
X13902122Y13481959D01*
X13994177Y13428811D01*
X14096852Y13401300D01*
X14096854Y13401300D01*
X14203146Y13401300D01*
X14203148Y13401300D01*
X14305823Y13428811D01*
X14397878Y13481959D01*
X14473041Y13557122D01*
X14526189Y13649177D01*
X14553700Y13751852D01*
X14553700Y13858148D01*
X14538411Y13915209D01*
X14540074Y13985057D01*
X14579237Y14042919D01*
X14643465Y14070423D01*
X14658186Y14071300D01*
X15912486Y14071300D01*
X15979525Y14051615D01*
X16000167Y14034981D01*
X17298173Y12736975D01*
X17338792Y12713524D01*
X17373127Y12693701D01*
X17456726Y12671300D01*
X18812486Y12671300D01*
X18879525Y12651615D01*
X18900167Y12634981D01*
X20742685Y10792463D01*
X20776170Y10731140D01*
X20771186Y10661448D01*
X20729314Y10605515D01*
X20663850Y10581098D01*
X20622914Y10585007D01*
X20553148Y10603700D01*
X20446852Y10603700D01*
X20344177Y10576189D01*
X20344175Y10576188D01*
X20344174Y10576188D01*
X20252125Y10523043D01*
X20252119Y10523039D01*
X20176961Y10447881D01*
X20176957Y10447875D01*
X20123812Y10355826D01*
X20123812Y10355825D01*
X20123811Y10355823D01*
X20096300Y10253148D01*
X20096300Y10146852D01*
X20123811Y10044177D01*
X20176959Y9952122D01*
X20252122Y9876959D01*
X20344177Y9823811D01*
X20446852Y9796300D01*
X20446854Y9796300D01*
X20553146Y9796300D01*
X20553148Y9796300D01*
X20655823Y9823811D01*
X20685302Y9840831D01*
X20753199Y9857303D01*
X20819226Y9834451D01*
X20862417Y9779530D01*
X20871300Y9733443D01*
X20871300Y8606726D01*
X20882292Y8565703D01*
X20882293Y8565699D01*
X20884958Y8555757D01*
X20893701Y8523126D01*
X20931553Y8457564D01*
X20934024Y8452140D01*
X20938153Y8423222D01*
X20945040Y8394836D01*
X20943034Y8389042D01*
X20943901Y8382972D01*
X20931741Y8356414D01*
X20922187Y8328809D01*
X20917367Y8325019D01*
X20914815Y8319444D01*
X20890230Y8303678D01*
X20867266Y8285618D01*
X20859837Y8284187D01*
X20856001Y8281726D01*
X20847115Y8281735D01*
X20821180Y8276736D01*
X20787744Y8276736D01*
X20685069Y8249225D01*
X20685067Y8249224D01*
X20685066Y8249224D01*
X20593017Y8196079D01*
X20593011Y8196075D01*
X20517853Y8120917D01*
X20517846Y8120908D01*
X20508211Y8104219D01*
X20457643Y8056005D01*
X20389036Y8042784D01*
X20324172Y8068754D01*
X20313145Y8078541D01*
X19440019Y8951667D01*
X19406534Y9012990D01*
X19403700Y9039348D01*
X19403700Y9053146D01*
X19403700Y9053148D01*
X19376189Y9155823D01*
X19323041Y9247878D01*
X19247878Y9323041D01*
X19155823Y9376189D01*
X19053148Y9403700D01*
X18946852Y9403700D01*
X18844177Y9376189D01*
X18844175Y9376188D01*
X18844174Y9376188D01*
X18752125Y9323043D01*
X18752119Y9323039D01*
X18676961Y9247881D01*
X18676957Y9247875D01*
X18623812Y9155826D01*
X18623812Y9155825D01*
X18623811Y9155823D01*
X18596300Y9053148D01*
X18596300Y8946852D01*
X18623811Y8844177D01*
X18676959Y8752122D01*
X18752122Y8676959D01*
X18844177Y8623811D01*
X18900469Y8608729D01*
X18956057Y8576635D01*
X19910357Y7622335D01*
X20821012Y6711681D01*
X20854497Y6650358D01*
X20849513Y6580666D01*
X20807641Y6524733D01*
X20742177Y6500316D01*
X20733331Y6500000D01*
X14524500Y6500000D01*
X14457461Y6519685D01*
X14411706Y6572489D01*
X14400500Y6624000D01*
X14400500Y8014560D01*
X14400499Y8014564D01*
X14399732Y8017426D01*
X14390943Y8050230D01*
X14380022Y8090988D01*
X14340460Y8159511D01*
X14076749Y8423222D01*
X13784514Y8715458D01*
X13784511Y8715460D01*
X13781851Y8716996D01*
X13733849Y8744710D01*
X13715991Y8755020D01*
X13715990Y8755021D01*
X13690513Y8761848D01*
X13639562Y8775500D01*
X13639560Y8775500D01*
X2578751Y8775500D01*
X2571264Y8775726D01*
X2317364Y8791085D01*
X2302500Y8792890D01*
X2056001Y8838062D01*
X2041461Y8841646D01*
X1802211Y8916200D01*
X1788211Y8921509D01*
X1728908Y8948199D01*
X1559680Y9024362D01*
X1546421Y9031321D01*
X1510315Y9053148D01*
X16346300Y9053148D01*
X16346300Y8946852D01*
X16373811Y8844177D01*
X16426959Y8752122D01*
X16502122Y8676959D01*
X16594177Y8623811D01*
X16696852Y8596300D01*
X16696854Y8596300D01*
X16803146Y8596300D01*
X16803148Y8596300D01*
X16905823Y8623811D01*
X16997878Y8676959D01*
X17073041Y8752122D01*
X17126189Y8844177D01*
X17153700Y8946852D01*
X17153700Y9053148D01*
X17126189Y9155823D01*
X17073041Y9247878D01*
X16997878Y9323041D01*
X16905823Y9376189D01*
X16803148Y9403700D01*
X16696852Y9403700D01*
X16594177Y9376189D01*
X16594175Y9376188D01*
X16594174Y9376188D01*
X16502125Y9323043D01*
X16502119Y9323039D01*
X16426961Y9247881D01*
X16426957Y9247875D01*
X16373812Y9155826D01*
X16373812Y9155825D01*
X16373811Y9155823D01*
X16346300Y9053148D01*
X1510315Y9053148D01*
X1331960Y9160967D01*
X1319637Y9169473D01*
X1272923Y9206071D01*
X1134983Y9314141D01*
X1122363Y9324028D01*
X1111155Y9333958D01*
X933957Y9511156D01*
X924027Y9522364D01*
X892175Y9563020D01*
X769468Y9719644D01*
X760970Y9731955D01*
X673310Y9876962D01*
X661121Y9897125D01*
X631320Y9946422D01*
X627790Y9953148D01*
X7196300Y9953148D01*
X7196300Y9846852D01*
X7223811Y9744177D01*
X7223812Y9744176D01*
X7223812Y9744175D01*
X7229643Y9734075D01*
X7276959Y9652122D01*
X7352122Y9576959D01*
X7444177Y9523811D01*
X7546852Y9496300D01*
X7546854Y9496300D01*
X7653146Y9496300D01*
X7653148Y9496300D01*
X7755823Y9523811D01*
X7847878Y9576959D01*
X7923041Y9652122D01*
X7976189Y9744177D01*
X8003700Y9846852D01*
X8003700Y9953148D01*
X7976189Y10055823D01*
X7923041Y10147878D01*
X7847878Y10223041D01*
X7810040Y10244887D01*
X17624911Y10244887D01*
X17624911Y10138591D01*
X17652422Y10035916D01*
X17652423Y10035915D01*
X17652423Y10035914D01*
X17666353Y10011786D01*
X17705570Y9943861D01*
X17780733Y9868698D01*
X17872788Y9815550D01*
X17975463Y9788039D01*
X17975465Y9788039D01*
X18081757Y9788039D01*
X18081759Y9788039D01*
X18184434Y9815550D01*
X18276489Y9868698D01*
X18330225Y9922435D01*
X18391544Y9955917D01*
X18461236Y9950933D01*
X18505584Y9922432D01*
X18548725Y9879291D01*
X18640780Y9826143D01*
X18743455Y9798632D01*
X18743457Y9798632D01*
X18849749Y9798632D01*
X18849751Y9798632D01*
X18952426Y9826143D01*
X19044481Y9879291D01*
X19119644Y9954454D01*
X19172792Y10046509D01*
X19200303Y10149184D01*
X19200303Y10255480D01*
X19172792Y10358155D01*
X19119644Y10450210D01*
X19044481Y10525373D01*
X18952426Y10578521D01*
X18849751Y10606032D01*
X18743455Y10606032D01*
X18640780Y10578521D01*
X18640778Y10578520D01*
X18640777Y10578520D01*
X18548728Y10525375D01*
X18548726Y10525374D01*
X18494991Y10471639D01*
X18433667Y10438155D01*
X18363975Y10443140D01*
X18319629Y10471640D01*
X18276491Y10514778D01*
X18276489Y10514780D01*
X18197355Y10560468D01*
X18184436Y10567927D01*
X18184435Y10567928D01*
X18184434Y10567928D01*
X18081759Y10595439D01*
X17975463Y10595439D01*
X17872788Y10567928D01*
X17872786Y10567927D01*
X17872785Y10567927D01*
X17780736Y10514782D01*
X17780730Y10514778D01*
X17705572Y10439620D01*
X17705568Y10439614D01*
X17652423Y10347565D01*
X17652423Y10347564D01*
X17652422Y10347562D01*
X17624911Y10244887D01*
X7810040Y10244887D01*
X7773601Y10265925D01*
X7755825Y10276188D01*
X7755824Y10276189D01*
X7755823Y10276189D01*
X7653148Y10303700D01*
X7546852Y10303700D01*
X7444177Y10276189D01*
X7444175Y10276188D01*
X7444174Y10276188D01*
X7352125Y10223043D01*
X7352119Y10223039D01*
X7276961Y10147881D01*
X7276957Y10147875D01*
X7223812Y10055826D01*
X7223812Y10055825D01*
X7223811Y10055823D01*
X7196300Y9953148D01*
X627790Y9953148D01*
X624361Y9959681D01*
X543225Y10139959D01*
X521507Y10188215D01*
X516199Y10202212D01*
X514996Y10206071D01*
X441644Y10441464D01*
X438061Y10456002D01*
X392888Y10702505D01*
X391084Y10717365D01*
X390788Y10722253D01*
X375726Y10971264D01*
X375500Y10978751D01*
X375500Y17159954D01*
X395185Y17226993D01*
X447989Y17272748D01*
X517147Y17282692D01*
X580703Y17253667D01*
X587181Y17247635D01*
X676414Y17158402D01*
X791676Y17081387D01*
X905581Y17034207D01*
X919738Y17028343D01*
X1051047Y17002224D01*
X1055687Y17001301D01*
X1055690Y17001300D01*
X1055692Y17001300D01*
X1794310Y17001300D01*
X1794311Y17001301D01*
X1930262Y17028343D01*
X1997235Y17056084D01*
X2058323Y17081387D01*
X2058324Y17081388D01*
X2058327Y17081389D01*
X2173583Y17158400D01*
X2271600Y17256417D01*
X2348611Y17371673D01*
X2349626Y17374122D01*
X2381346Y17450702D01*
X2401657Y17499738D01*
X2428700Y17635692D01*
X2428700Y17774308D01*
X2428700Y17774311D01*
X2428699Y17774313D01*
X2419006Y17823043D01*
X2401657Y17910262D01*
X2382785Y17955823D01*
X2348613Y18038324D01*
X2271598Y18153586D01*
X2173585Y18251599D01*
X2058323Y18328614D01*
X1930266Y18381656D01*
X1930254Y18381659D01*
X1794311Y18408700D01*
X1794308Y18408700D01*
X1055692Y18408700D01*
X1055689Y18408700D01*
X919745Y18381659D01*
X919733Y18381656D01*
X791676Y18328614D01*
X676414Y18251599D01*
X676413Y18251598D01*
X587181Y18162365D01*
X525858Y18128880D01*
X456166Y18133864D01*
X400233Y18175736D01*
X375816Y18241200D01*
X375500Y18250046D01*
X375500Y19197601D01*
X4629500Y19197601D01*
X4629500Y19072399D01*
X4661905Y18951464D01*
X4724505Y18843036D01*
X4813036Y18754505D01*
X4921464Y18691905D01*
X5042399Y18659500D01*
X5042401Y18659500D01*
X5167599Y18659500D01*
X5167601Y18659500D01*
X5288536Y18691905D01*
X5396964Y18754505D01*
X5485495Y18843036D01*
X5548095Y18951464D01*
X5580500Y19072399D01*
X5580500Y19197601D01*
X5548095Y19318536D01*
X5485495Y19426964D01*
X5396964Y19515495D01*
X5288537Y19578095D01*
X5248224Y19588897D01*
X5167601Y19610500D01*
X5042399Y19610500D01*
X4961775Y19588897D01*
X4921463Y19578095D01*
X4813037Y19515496D01*
X4813034Y19515494D01*
X4724506Y19426966D01*
X4724504Y19426963D01*
X4661905Y19318537D01*
X4652279Y19282611D01*
X4629500Y19197601D01*
X375500Y19197601D01*
X375500Y19658800D01*
X869357Y19658800D01*
X869357Y19552504D01*
X896868Y19449829D01*
X896869Y19449828D01*
X896869Y19449827D01*
X898586Y19446853D01*
X950016Y19357774D01*
X1025179Y19282611D01*
X1117234Y19229463D01*
X1219909Y19201952D01*
X1219911Y19201952D01*
X1326203Y19201952D01*
X1326205Y19201952D01*
X1428880Y19229463D01*
X1520935Y19282611D01*
X1596098Y19357774D01*
X1649246Y19449829D01*
X1653282Y19464896D01*
X1689646Y19524555D01*
X1752492Y19555085D01*
X1821868Y19546791D01*
X1875747Y19502306D01*
X1892830Y19464897D01*
X1894831Y19457432D01*
X1896868Y19449829D01*
X1896869Y19449827D01*
X1898586Y19446853D01*
X1950016Y19357774D01*
X2025179Y19282611D01*
X2117234Y19229463D01*
X2219909Y19201952D01*
X2219911Y19201952D01*
X2326203Y19201952D01*
X2326205Y19201952D01*
X2428880Y19229463D01*
X2520935Y19282611D01*
X2596098Y19357774D01*
X2649246Y19449829D01*
X2676757Y19552504D01*
X2676757Y19658800D01*
X2675141Y19664833D01*
X2965168Y19664833D01*
X2965168Y19558537D01*
X2992679Y19455862D01*
X2992680Y19455861D01*
X2992680Y19455860D01*
X2992863Y19455543D01*
X3045827Y19363807D01*
X3120990Y19288644D01*
X3213045Y19235496D01*
X3315720Y19207985D01*
X3315722Y19207985D01*
X3422014Y19207985D01*
X3422016Y19207985D01*
X3524691Y19235496D01*
X3616746Y19288644D01*
X3691909Y19363807D01*
X3745057Y19455862D01*
X3772568Y19558537D01*
X3772568Y19664833D01*
X3769000Y19678148D01*
X5841300Y19678148D01*
X5841300Y19571852D01*
X5868811Y19469177D01*
X5868812Y19469176D01*
X5868812Y19469175D01*
X5876682Y19455544D01*
X5921959Y19377122D01*
X5997122Y19301959D01*
X6089177Y19248811D01*
X6191852Y19221300D01*
X6191854Y19221300D01*
X6298146Y19221300D01*
X6298148Y19221300D01*
X6400823Y19248811D01*
X6492878Y19301959D01*
X6565324Y19374405D01*
X6626647Y19407890D01*
X6696339Y19402906D01*
X6740686Y19374405D01*
X6800423Y19314668D01*
X6892478Y19261520D01*
X6995153Y19234009D01*
X6995155Y19234009D01*
X7101447Y19234009D01*
X7101449Y19234009D01*
X7204124Y19261520D01*
X7296179Y19314668D01*
X7371342Y19389831D01*
X7424490Y19481886D01*
X7452001Y19584561D01*
X7452001Y19690857D01*
X7424490Y19793532D01*
X7371342Y19885587D01*
X7296179Y19960750D01*
X7204124Y20013898D01*
X7101449Y20041409D01*
X6995153Y20041409D01*
X6892478Y20013898D01*
X6892476Y20013897D01*
X6892475Y20013897D01*
X6800426Y19960752D01*
X6800420Y19960748D01*
X6727977Y19888304D01*
X6666654Y19854819D01*
X6596962Y19859803D01*
X6552615Y19888304D01*
X6492880Y19948039D01*
X6492878Y19948041D01*
X6406279Y19998039D01*
X6400825Y20001188D01*
X6400824Y20001189D01*
X6400823Y20001189D01*
X6298148Y20028700D01*
X6191852Y20028700D01*
X6089177Y20001189D01*
X6089175Y20001188D01*
X6089174Y20001188D01*
X5997125Y19948043D01*
X5997119Y19948039D01*
X5921961Y19872881D01*
X5921957Y19872875D01*
X5868812Y19780826D01*
X5868812Y19780825D01*
X5868811Y19780823D01*
X5841300Y19678148D01*
X3769000Y19678148D01*
X3745057Y19767508D01*
X3691909Y19859563D01*
X3616746Y19934726D01*
X3535142Y19981840D01*
X3524693Y19987873D01*
X3524692Y19987874D01*
X3524691Y19987874D01*
X3478464Y20000261D01*
X3418806Y20036624D01*
X3388276Y20099470D01*
X3396570Y20168846D01*
X3441055Y20222724D01*
X3478462Y20239808D01*
X3539933Y20256278D01*
X3631988Y20309426D01*
X3707151Y20384589D01*
X3760299Y20476644D01*
X3764335Y20491711D01*
X3800699Y20551370D01*
X3863545Y20581900D01*
X3932921Y20573606D01*
X3986800Y20529121D01*
X4003883Y20491712D01*
X4007921Y20476644D01*
X4061069Y20384589D01*
X4136232Y20309426D01*
X4228287Y20256278D01*
X4330962Y20228767D01*
X4330964Y20228767D01*
X4437256Y20228767D01*
X4437258Y20228767D01*
X4539933Y20256278D01*
X4631988Y20309426D01*
X4707151Y20384589D01*
X4760299Y20476644D01*
X4787810Y20579319D01*
X4787810Y20685615D01*
X4760299Y20788290D01*
X4707151Y20880345D01*
X4631988Y20955508D01*
X4539933Y21008656D01*
X4437258Y21036167D01*
X4330962Y21036167D01*
X4228287Y21008656D01*
X4228285Y21008655D01*
X4228284Y21008655D01*
X4136235Y20955510D01*
X4136229Y20955506D01*
X4061071Y20880348D01*
X4061067Y20880342D01*
X4007922Y20788293D01*
X4007922Y20788292D01*
X4007921Y20788290D01*
X4003884Y20773224D01*
X3967520Y20713564D01*
X3904673Y20683035D01*
X3835298Y20691330D01*
X3781420Y20735815D01*
X3764336Y20773223D01*
X3760299Y20788290D01*
X3707151Y20880345D01*
X3631988Y20955508D01*
X3539933Y21008656D01*
X3437258Y21036167D01*
X3330962Y21036167D01*
X3228287Y21008656D01*
X3228285Y21008655D01*
X3228284Y21008655D01*
X3136235Y20955510D01*
X3136229Y20955506D01*
X3061071Y20880348D01*
X3061067Y20880342D01*
X3007922Y20788293D01*
X3007922Y20788292D01*
X3007921Y20788290D01*
X2980410Y20685615D01*
X2980410Y20579319D01*
X3007921Y20476644D01*
X3061069Y20384589D01*
X3136232Y20309426D01*
X3228287Y20256278D01*
X3274511Y20243893D01*
X3334170Y20207531D01*
X3364701Y20144684D01*
X3356407Y20075309D01*
X3311923Y20021430D01*
X3274513Y20004345D01*
X3213047Y19987875D01*
X3213042Y19987873D01*
X3120993Y19934728D01*
X3120987Y19934724D01*
X3045829Y19859566D01*
X3045825Y19859560D01*
X2992680Y19767511D01*
X2992680Y19767510D01*
X2992679Y19767508D01*
X2965168Y19664833D01*
X2675141Y19664833D01*
X2649246Y19761475D01*
X2596098Y19853530D01*
X2520935Y19928693D01*
X2459475Y19964177D01*
X2428882Y19981840D01*
X2428881Y19981841D01*
X2428880Y19981841D01*
X2326205Y20009352D01*
X2219909Y20009352D01*
X2117234Y19981841D01*
X2117232Y19981840D01*
X2117231Y19981840D01*
X2025182Y19928695D01*
X2025176Y19928691D01*
X1950018Y19853533D01*
X1950014Y19853527D01*
X1896869Y19761478D01*
X1896869Y19761477D01*
X1896868Y19761475D01*
X1892831Y19746409D01*
X1856467Y19686749D01*
X1793620Y19656220D01*
X1724245Y19664515D01*
X1670367Y19709000D01*
X1653283Y19746408D01*
X1649246Y19761475D01*
X1596098Y19853530D01*
X1520935Y19928693D01*
X1459475Y19964177D01*
X1428882Y19981840D01*
X1428881Y19981841D01*
X1428880Y19981841D01*
X1326205Y20009352D01*
X1219909Y20009352D01*
X1117234Y19981841D01*
X1117232Y19981840D01*
X1117231Y19981840D01*
X1025182Y19928695D01*
X1025176Y19928691D01*
X950018Y19853533D01*
X950014Y19853527D01*
X896869Y19761478D01*
X896869Y19761477D01*
X896868Y19761475D01*
X869357Y19658800D01*
X375500Y19658800D01*
X375500Y20836051D01*
X870629Y20836051D01*
X870629Y20729755D01*
X898140Y20627080D01*
X951288Y20535025D01*
X1026451Y20459862D01*
X1118506Y20406714D01*
X1221181Y20379203D01*
X1221183Y20379203D01*
X1327475Y20379203D01*
X1327477Y20379203D01*
X1430152Y20406714D01*
X1522207Y20459862D01*
X1597370Y20535025D01*
X1650518Y20627080D01*
X1654554Y20642147D01*
X1690918Y20701806D01*
X1753764Y20732336D01*
X1823140Y20724042D01*
X1877019Y20679557D01*
X1894102Y20642148D01*
X1898140Y20627080D01*
X1951288Y20535025D01*
X2026451Y20459862D01*
X2118506Y20406714D01*
X2221181Y20379203D01*
X2221183Y20379203D01*
X2327475Y20379203D01*
X2327477Y20379203D01*
X2430152Y20406714D01*
X2522207Y20459862D01*
X2597370Y20535025D01*
X2650518Y20627080D01*
X2678029Y20729755D01*
X2678029Y20836051D01*
X2650518Y20938726D01*
X2597370Y21030781D01*
X2522207Y21105944D01*
X2516460Y21111691D01*
X2517812Y21113044D01*
X2482800Y21160996D01*
X2478647Y21230742D01*
X2512860Y21291661D01*
X2528408Y21303443D01*
X2528187Y21303731D01*
X2534628Y21308675D01*
X2534636Y21308679D01*
X2609799Y21383842D01*
X2662947Y21475897D01*
X2690458Y21578572D01*
X2690458Y21684868D01*
X2662947Y21787543D01*
X2609799Y21879598D01*
X2556065Y21933332D01*
X2522580Y21994655D01*
X2527564Y22064347D01*
X2556064Y22108693D01*
X2588613Y22141241D01*
X2641761Y22233296D01*
X2669272Y22335971D01*
X2669272Y22442267D01*
X2641761Y22544942D01*
X2588613Y22636997D01*
X2513450Y22712160D01*
X2421395Y22765308D01*
X2318720Y22792819D01*
X2212424Y22792819D01*
X2109749Y22765308D01*
X2109747Y22765307D01*
X2109746Y22765307D01*
X2017697Y22712162D01*
X2017691Y22712158D01*
X1942533Y22637000D01*
X1942529Y22636994D01*
X1889384Y22544945D01*
X1889384Y22544944D01*
X1889383Y22544942D01*
X1861872Y22442267D01*
X1861872Y22335971D01*
X1889383Y22233296D01*
X1942531Y22141241D01*
X1942533Y22141239D01*
X1996264Y22087508D01*
X2029749Y22026185D01*
X2024765Y21956493D01*
X1996265Y21912147D01*
X1963720Y21879602D01*
X1963715Y21879595D01*
X1910570Y21787546D01*
X1910570Y21787545D01*
X1910569Y21787543D01*
X1883058Y21684868D01*
X1883058Y21578572D01*
X1910569Y21475897D01*
X1963717Y21383842D01*
X1963719Y21383840D01*
X2044627Y21302932D01*
X2043273Y21301579D01*
X2078285Y21253632D01*
X2082440Y21183886D01*
X2048228Y21122965D01*
X2032679Y21111180D01*
X2032900Y21110892D01*
X2026448Y21105942D01*
X1951290Y21030784D01*
X1951286Y21030778D01*
X1898141Y20938729D01*
X1898141Y20938728D01*
X1898140Y20938726D01*
X1894103Y20923660D01*
X1857739Y20864000D01*
X1794892Y20833471D01*
X1725517Y20841766D01*
X1671639Y20886251D01*
X1654555Y20923659D01*
X1650518Y20938726D01*
X1597370Y21030781D01*
X1522207Y21105944D01*
X1430152Y21159092D01*
X1327477Y21186603D01*
X1221181Y21186603D01*
X1118506Y21159092D01*
X1118504Y21159091D01*
X1118503Y21159091D01*
X1026454Y21105946D01*
X1026448Y21105942D01*
X951290Y21030784D01*
X951286Y21030778D01*
X898141Y20938729D01*
X898141Y20938728D01*
X898140Y20938726D01*
X870629Y20836051D01*
X375500Y20836051D01*
X375500Y24553148D01*
X1596300Y24553148D01*
X1596300Y24446852D01*
X1623811Y24344177D01*
X1676959Y24252122D01*
X1752122Y24176959D01*
X1844177Y24123811D01*
X1859243Y24119775D01*
X1918903Y24083410D01*
X1949432Y24020563D01*
X1941137Y23951188D01*
X1896652Y23897310D01*
X1859244Y23880227D01*
X1844177Y23876189D01*
X1844175Y23876188D01*
X1844174Y23876188D01*
X1752125Y23823043D01*
X1752119Y23823039D01*
X1676961Y23747881D01*
X1676957Y23747875D01*
X1623812Y23655826D01*
X1623812Y23655825D01*
X1623811Y23655823D01*
X1596300Y23553148D01*
X1596300Y23446852D01*
X1623811Y23344177D01*
X1676959Y23252122D01*
X1752122Y23176959D01*
X1844177Y23123811D01*
X1946852Y23096300D01*
X1946854Y23096300D01*
X2053146Y23096300D01*
X2053148Y23096300D01*
X2155823Y23123811D01*
X2247878Y23176959D01*
X2323041Y23252122D01*
X2376189Y23344177D01*
X2381640Y23364521D01*
X2418000Y23424177D01*
X2480846Y23454708D01*
X2550222Y23446416D01*
X2604101Y23401932D01*
X2621187Y23364522D01*
X2626977Y23342912D01*
X2626979Y23342909D01*
X2633470Y23331666D01*
X2680126Y23250856D01*
X2755289Y23175693D01*
X2847344Y23122545D01*
X2950019Y23095034D01*
X2950021Y23095034D01*
X3056313Y23095034D01*
X3056315Y23095034D01*
X3158990Y23122545D01*
X3251045Y23175693D01*
X3326208Y23250856D01*
X3379356Y23342911D01*
X3383392Y23357978D01*
X3419756Y23417637D01*
X3482602Y23448167D01*
X3551978Y23439873D01*
X3605857Y23395388D01*
X3622940Y23357979D01*
X3623391Y23356300D01*
X3626978Y23342911D01*
X3626979Y23342909D01*
X3633470Y23331666D01*
X3680126Y23250856D01*
X3755289Y23175693D01*
X3847344Y23122545D01*
X3950019Y23095034D01*
X3950021Y23095034D01*
X4056313Y23095034D01*
X4056315Y23095034D01*
X4158990Y23122545D01*
X4251045Y23175693D01*
X4326208Y23250856D01*
X4375323Y23335927D01*
X4425887Y23384139D01*
X4494494Y23397363D01*
X4543400Y23378109D01*
X4545083Y23381023D01*
X4552121Y23376960D01*
X4552122Y23376959D01*
X4644177Y23323811D01*
X4746852Y23296300D01*
X4746854Y23296300D01*
X4853146Y23296300D01*
X4853148Y23296300D01*
X4955823Y23323811D01*
X5047878Y23376959D01*
X5123041Y23452122D01*
X5176189Y23544177D01*
X5203700Y23646852D01*
X5203700Y23753148D01*
X5176189Y23855823D01*
X5123041Y23947878D01*
X5047878Y24023041D01*
X4961279Y24073039D01*
X4955825Y24076188D01*
X4955824Y24076189D01*
X4955823Y24076189D01*
X4853148Y24103700D01*
X4746852Y24103700D01*
X4644177Y24076189D01*
X4644175Y24076188D01*
X4644174Y24076188D01*
X4552125Y24023043D01*
X4552119Y24023039D01*
X4476961Y23947881D01*
X4476959Y23947878D01*
X4432481Y23870839D01*
X4427845Y23862810D01*
X4377278Y23814595D01*
X4308670Y23801373D01*
X4264534Y23814138D01*
X4252704Y23820116D01*
X4251045Y23821775D01*
X4158990Y23874923D01*
X4127591Y23883336D01*
X4116147Y23889119D01*
X4099640Y23904604D01*
X4080316Y23916383D01*
X4074649Y23928049D01*
X4065190Y23936923D01*
X4059675Y23958876D01*
X4049788Y23979231D01*
X4051327Y23992109D01*
X4048168Y24004687D01*
X4055395Y24026133D01*
X4058083Y24048606D01*
X4066340Y24058608D01*
X4070483Y24070897D01*
X4088159Y24085032D01*
X4102569Y24102483D01*
X4119856Y24110378D01*
X4125052Y24114532D01*
X4130100Y24115056D01*
X4139974Y24119565D01*
X4155823Y24123811D01*
X4247878Y24176959D01*
X4323041Y24252122D01*
X4376189Y24344177D01*
X4403700Y24446852D01*
X4403700Y24553148D01*
X4376189Y24655823D01*
X4323041Y24747878D01*
X4247878Y24823041D01*
X4166080Y24870267D01*
X4155825Y24876188D01*
X4155824Y24876189D01*
X4155823Y24876189D01*
X4053148Y24903700D01*
X3946852Y24903700D01*
X3844177Y24876189D01*
X3844175Y24876188D01*
X3844174Y24876188D01*
X3752125Y24823043D01*
X3752119Y24823039D01*
X3676961Y24747881D01*
X3676957Y24747875D01*
X3623812Y24655826D01*
X3623812Y24655825D01*
X3623811Y24655823D01*
X3619774Y24640757D01*
X3583410Y24581097D01*
X3520563Y24550568D01*
X3451188Y24558863D01*
X3397310Y24603348D01*
X3380226Y24640756D01*
X3376189Y24655823D01*
X3323041Y24747878D01*
X3247878Y24823041D01*
X3166080Y24870267D01*
X3155825Y24876188D01*
X3155824Y24876189D01*
X3155823Y24876189D01*
X3053148Y24903700D01*
X2946852Y24903700D01*
X2844177Y24876189D01*
X2844175Y24876188D01*
X2844174Y24876188D01*
X2752125Y24823043D01*
X2752119Y24823039D01*
X2676961Y24747881D01*
X2676957Y24747875D01*
X2623812Y24655826D01*
X2623812Y24655825D01*
X2623811Y24655823D01*
X2619774Y24640757D01*
X2583410Y24581097D01*
X2520563Y24550568D01*
X2451188Y24558863D01*
X2397310Y24603348D01*
X2380226Y24640756D01*
X2376189Y24655823D01*
X2323041Y24747878D01*
X2247878Y24823041D01*
X2166080Y24870267D01*
X2155825Y24876188D01*
X2155824Y24876189D01*
X2155823Y24876189D01*
X2053148Y24903700D01*
X1946852Y24903700D01*
X1844177Y24876189D01*
X1844175Y24876188D01*
X1844174Y24876188D01*
X1752125Y24823043D01*
X1752119Y24823039D01*
X1676961Y24747881D01*
X1676957Y24747875D01*
X1623812Y24655826D01*
X1623812Y24655825D01*
X1623811Y24655823D01*
X1596300Y24553148D01*
X375500Y24553148D01*
X375500Y24977601D01*
X4629500Y24977601D01*
X4629500Y24852399D01*
X4661905Y24731464D01*
X4724505Y24623036D01*
X4813036Y24534505D01*
X4921464Y24471905D01*
X5042399Y24439500D01*
X5042401Y24439500D01*
X5167599Y24439500D01*
X5167601Y24439500D01*
X5288536Y24471905D01*
X5396964Y24534505D01*
X5396969Y24534511D01*
X5397130Y24534633D01*
X5397298Y24534699D01*
X5404003Y24538569D01*
X5404606Y24537524D01*
X5462298Y24559832D01*
X5530744Y24545799D01*
X5580737Y24496989D01*
X5595563Y24452452D01*
X5596300Y24446854D01*
X5596300Y24446852D01*
X5623811Y24344177D01*
X5676959Y24252122D01*
X5752122Y24176959D01*
X5844177Y24123811D01*
X5946852Y24096300D01*
X5946854Y24096300D01*
X6053146Y24096300D01*
X6053148Y24096300D01*
X6155823Y24123811D01*
X6247878Y24176959D01*
X6323041Y24252122D01*
X6376189Y24344177D01*
X6380225Y24359244D01*
X6416589Y24418903D01*
X6479435Y24449433D01*
X6548811Y24441139D01*
X6602690Y24396654D01*
X6619773Y24359245D01*
X6623811Y24344177D01*
X6676959Y24252122D01*
X6752122Y24176959D01*
X6844177Y24123811D01*
X6946852Y24096300D01*
X6946854Y24096300D01*
X7053146Y24096300D01*
X7053148Y24096300D01*
X7155823Y24123811D01*
X7247878Y24176959D01*
X7323041Y24252122D01*
X7376189Y24344177D01*
X7403700Y24446852D01*
X7403700Y24553148D01*
X7376189Y24655823D01*
X7323041Y24747878D01*
X7247878Y24823041D01*
X7166080Y24870267D01*
X7155825Y24876188D01*
X7155824Y24876189D01*
X7155823Y24876189D01*
X7053148Y24903700D01*
X6946852Y24903700D01*
X6844177Y24876189D01*
X6844175Y24876188D01*
X6844174Y24876188D01*
X6752125Y24823043D01*
X6752119Y24823039D01*
X6676961Y24747881D01*
X6676957Y24747875D01*
X6623812Y24655826D01*
X6623812Y24655825D01*
X6623811Y24655823D01*
X6619774Y24640757D01*
X6583410Y24581097D01*
X6520563Y24550568D01*
X6451188Y24558863D01*
X6397310Y24603348D01*
X6380226Y24640756D01*
X6376189Y24655823D01*
X6323041Y24747878D01*
X6247878Y24823041D01*
X6166080Y24870267D01*
X6155825Y24876188D01*
X6155824Y24876189D01*
X6155823Y24876189D01*
X6053148Y24903700D01*
X5946852Y24903700D01*
X5844176Y24876189D01*
X5766499Y24831342D01*
X5698599Y24814870D01*
X5632572Y24837723D01*
X5589382Y24892645D01*
X5580500Y24938730D01*
X5580500Y24977601D01*
X5575142Y24997597D01*
X5548095Y25098536D01*
X5485495Y25206964D01*
X5396964Y25295495D01*
X5288536Y25358095D01*
X5288537Y25358095D01*
X5222916Y25375678D01*
X5167601Y25390500D01*
X5042399Y25390500D01*
X4987084Y25375678D01*
X4921463Y25358095D01*
X4813037Y25295496D01*
X4813034Y25295494D01*
X4724506Y25206966D01*
X4724504Y25206963D01*
X4661905Y25098537D01*
X4638926Y25012780D01*
X4629500Y24977601D01*
X375500Y24977601D01*
X375500Y25799954D01*
X395185Y25866993D01*
X447989Y25912748D01*
X517147Y25922692D01*
X580703Y25893667D01*
X587181Y25887635D01*
X676414Y25798402D01*
X791676Y25721387D01*
X919733Y25668345D01*
X919738Y25668343D01*
X1055687Y25641301D01*
X1055690Y25641300D01*
X1055692Y25641300D01*
X1794310Y25641300D01*
X1794311Y25641301D01*
X1930262Y25668343D01*
X1994294Y25694866D01*
X2058323Y25721387D01*
X2058324Y25721388D01*
X2058327Y25721389D01*
X2173583Y25798400D01*
X2271600Y25896417D01*
X2348611Y26011673D01*
X2352991Y26022246D01*
X2382785Y26094177D01*
X2401657Y26139738D01*
X2428700Y26275692D01*
X2428700Y26414308D01*
X2428700Y26414311D01*
X2428699Y26414313D01*
X2422619Y26444878D01*
X2401657Y26550262D01*
X2401530Y26550568D01*
X2348613Y26678324D01*
X2271598Y26793586D01*
X2173585Y26891599D01*
X2058323Y26968614D01*
X1930266Y27021656D01*
X1930254Y27021659D01*
X1794311Y27048700D01*
X1794308Y27048700D01*
X1055692Y27048700D01*
X1055689Y27048700D01*
X919745Y27021659D01*
X919733Y27021656D01*
X791676Y26968614D01*
X676414Y26891599D01*
X676413Y26891598D01*
X587181Y26802365D01*
X525858Y26768880D01*
X456166Y26773864D01*
X400233Y26815736D01*
X375816Y26881200D01*
X375500Y26890046D01*
X375500Y33021250D01*
X375726Y33028737D01*
X391084Y33282641D01*
X392889Y33297500D01*
X394415Y33305823D01*
X438062Y33544005D01*
X441645Y33558539D01*
X452750Y33594176D01*
X516202Y33797798D01*
X521504Y33811781D01*
X624361Y34040321D01*
X631320Y34053579D01*
X648299Y34081666D01*
X721738Y34203148D01*
X5496300Y34203148D01*
X5496300Y34096852D01*
X5523811Y33994177D01*
X5576959Y33902122D01*
X5652122Y33826959D01*
X5744177Y33773811D01*
X5846852Y33746300D01*
X5846854Y33746300D01*
X5953146Y33746300D01*
X5953148Y33746300D01*
X6055823Y33773811D01*
X6147878Y33826959D01*
X6223041Y33902122D01*
X6276189Y33994177D01*
X6303700Y34096852D01*
X6303700Y34203148D01*
X6276189Y34305823D01*
X6223041Y34397878D01*
X6147878Y34473041D01*
X6055823Y34526189D01*
X5953148Y34553700D01*
X5846852Y34553700D01*
X5744177Y34526189D01*
X5744175Y34526188D01*
X5744174Y34526188D01*
X5652125Y34473043D01*
X5652119Y34473039D01*
X5576961Y34397881D01*
X5576957Y34397875D01*
X5523812Y34305826D01*
X5523812Y34305825D01*
X5523811Y34305823D01*
X5496300Y34203148D01*
X721738Y34203148D01*
X760975Y34268054D01*
X769473Y34280363D01*
X924034Y34477646D01*
X933949Y34488837D01*
X1111163Y34666051D01*
X1122354Y34675966D01*
X1319650Y34830538D01*
X1331946Y34839025D01*
X1546421Y34968681D01*
X1559680Y34975639D01*
X1642291Y35012819D01*
X1788219Y35078496D01*
X1802202Y35083798D01*
X2041467Y35158357D01*
X2055995Y35161938D01*
X2302506Y35207112D01*
X2317359Y35208916D01*
X2571264Y35224274D01*
X2578751Y35224500D01*
X2622595Y35224500D01*
X7618553Y35224500D01*
X7685592Y35204815D01*
G37*
%TD.AperFunction*%
%TA.AperFunction,Conductor*%
G36*
X53652152Y22565660D02*
G01*
X53692680Y22508745D01*
X53699500Y22468189D01*
X53699500Y10978751D01*
X53699274Y10971264D01*
X53683915Y10717365D01*
X53682110Y10702501D01*
X53636938Y10456002D01*
X53633354Y10441462D01*
X53558800Y10202212D01*
X53553491Y10188212D01*
X53450638Y9959681D01*
X53443679Y9946422D01*
X53314033Y9731961D01*
X53305527Y9719638D01*
X53150972Y9522364D01*
X53141042Y9511156D01*
X52963844Y9333958D01*
X52952636Y9324028D01*
X52755362Y9169473D01*
X52743039Y9160967D01*
X52528578Y9031321D01*
X52515319Y9024362D01*
X52286788Y8921509D01*
X52272788Y8916200D01*
X52033538Y8841646D01*
X52018998Y8838062D01*
X51772499Y8792890D01*
X51757635Y8791085D01*
X51503736Y8775726D01*
X51496249Y8775500D01*
X34860438Y8775500D01*
X34784010Y8755022D01*
X34715489Y8715460D01*
X34715486Y8715458D01*
X34159541Y8159513D01*
X34159535Y8159505D01*
X34119982Y8090996D01*
X34119979Y8090991D01*
X34116643Y8078541D01*
X34100268Y8017426D01*
X34099500Y8014561D01*
X34099500Y6624000D01*
X34079815Y6556961D01*
X34027011Y6511206D01*
X33975500Y6500000D01*
X27624500Y6500000D01*
X27557461Y6519685D01*
X27511706Y6572489D01*
X27500500Y6624000D01*
X27500500Y7623423D01*
X27469709Y7817827D01*
X27425503Y7953876D01*
X27408884Y8005025D01*
X27408882Y8005028D01*
X27408882Y8005030D01*
X27358342Y8104219D01*
X27319524Y8180405D01*
X27203828Y8339646D01*
X27064646Y8478828D01*
X26905405Y8594524D01*
X26901917Y8596301D01*
X26730029Y8683883D01*
X26542826Y8744710D01*
X26348422Y8775500D01*
X26348417Y8775500D01*
X26297595Y8775500D01*
X26250000Y8775500D01*
X26151583Y8775500D01*
X26151578Y8775500D01*
X25957173Y8744710D01*
X25769970Y8683883D01*
X25594594Y8594524D01*
X25541237Y8555757D01*
X25435354Y8478828D01*
X25435352Y8478826D01*
X25435351Y8478826D01*
X25296174Y8339649D01*
X25296174Y8339648D01*
X25296172Y8339646D01*
X25252626Y8279711D01*
X25180476Y8180406D01*
X25091117Y8005030D01*
X25030290Y7817827D01*
X24999500Y7623423D01*
X24999500Y6624000D01*
X24979815Y6556961D01*
X24927011Y6511206D01*
X24875500Y6500000D01*
X23253859Y6500000D01*
X23232615Y6506238D01*
X23210529Y6507817D01*
X23199744Y6515891D01*
X23186820Y6519685D01*
X23172321Y6536418D01*
X23154594Y6549687D01*
X23149885Y6562310D01*
X23141065Y6572489D01*
X23137913Y6594405D01*
X23130175Y6615151D01*
X23133038Y6628315D01*
X23131121Y6641647D01*
X23140318Y6661788D01*
X23145025Y6683424D01*
X23158297Y6701155D01*
X23160146Y6705203D01*
X23166175Y6711679D01*
X23184747Y6730252D01*
X23246070Y6763739D01*
X23272431Y6766573D01*
X23350897Y6766573D01*
X23350899Y6766573D01*
X23453574Y6794084D01*
X23545629Y6847232D01*
X23620792Y6922395D01*
X23673940Y7014450D01*
X23701451Y7117125D01*
X23701451Y7223421D01*
X23673940Y7326096D01*
X23620792Y7418151D01*
X23545629Y7493314D01*
X23453574Y7546462D01*
X23350899Y7573973D01*
X23244603Y7573973D01*
X23244601Y7573973D01*
X23143161Y7546793D01*
X23140107Y7546866D01*
X23137427Y7545402D01*
X23105407Y7547692D01*
X23073311Y7548456D01*
X23070781Y7550169D01*
X23067735Y7550386D01*
X23042035Y7569625D01*
X23015449Y7587620D01*
X23014246Y7590428D01*
X23011802Y7592258D01*
X23000584Y7622335D01*
X22987946Y7651848D01*
X22988452Y7654860D01*
X22987385Y7657722D01*
X22994209Y7689093D01*
X22999533Y7720750D01*
X23001783Y7723911D01*
X23002237Y7725995D01*
X23023384Y7754244D01*
X23160916Y7891777D01*
X23160921Y7891780D01*
X23171124Y7901984D01*
X23171126Y7901984D01*
X23223016Y7953874D01*
X23259707Y8017426D01*
X23261797Y8025228D01*
X23261798Y8025228D01*
X23261798Y8025233D01*
X23278701Y8088308D01*
X23278701Y8161692D01*
X23278701Y8169287D01*
X23278700Y8169305D01*
X23278700Y10507519D01*
X23298385Y10574558D01*
X23315019Y10595200D01*
X23698835Y10979016D01*
X24095236Y11375418D01*
X24100561Y11378325D01*
X24103965Y11383354D01*
X24130873Y11394877D01*
X24156557Y11408901D01*
X24162612Y11408468D01*
X24168194Y11410858D01*
X24197057Y11406005D01*
X24226248Y11403917D01*
X24231107Y11400279D01*
X24237096Y11399272D01*
X24258755Y11379583D01*
X24282182Y11362045D01*
X24285452Y11355313D01*
X24288796Y11352273D01*
X24302688Y11319833D01*
X24303516Y11316744D01*
X24303922Y11315228D01*
X24303923Y11315227D01*
X24366941Y11206075D01*
X24366943Y11206073D01*
X24366944Y11206071D01*
X24456071Y11116944D01*
X24468355Y11109852D01*
X24472624Y11107387D01*
X24520839Y11056819D01*
X24534061Y10988212D01*
X24508093Y10923347D01*
X24472624Y10892613D01*
X24456072Y10883057D01*
X24456069Y10883055D01*
X24366945Y10793931D01*
X24366941Y10793926D01*
X24303923Y10684774D01*
X24303922Y10684771D01*
X24271300Y10563022D01*
X24271300Y10436978D01*
X24301647Y10323722D01*
X24303922Y10315230D01*
X24303923Y10315227D01*
X24366941Y10206075D01*
X24366943Y10206073D01*
X24366944Y10206071D01*
X24456071Y10116944D01*
X24468660Y10109676D01*
X24472624Y10107387D01*
X24520839Y10056819D01*
X24534061Y9988212D01*
X24508093Y9923347D01*
X24472624Y9892613D01*
X24456072Y9883057D01*
X24456069Y9883055D01*
X24366945Y9793931D01*
X24366941Y9793926D01*
X24303923Y9684774D01*
X24303922Y9684771D01*
X24271300Y9563022D01*
X24271300Y9436978D01*
X24301830Y9323039D01*
X24303922Y9315230D01*
X24303923Y9315227D01*
X24366941Y9206075D01*
X24366943Y9206073D01*
X24366944Y9206071D01*
X24456071Y9116944D01*
X24565229Y9053922D01*
X24686978Y9021300D01*
X24686980Y9021300D01*
X24813020Y9021300D01*
X24813022Y9021300D01*
X24934771Y9053922D01*
X25043929Y9116944D01*
X25133056Y9206071D01*
X25167613Y9265927D01*
X25218179Y9314141D01*
X25286786Y9327365D01*
X25351651Y9301397D01*
X25382386Y9265927D01*
X25416944Y9206071D01*
X25506071Y9116944D01*
X25615229Y9053922D01*
X25736978Y9021300D01*
X25736980Y9021300D01*
X25863020Y9021300D01*
X25863022Y9021300D01*
X25984771Y9053922D01*
X26093929Y9116944D01*
X26183056Y9206071D01*
X26183056Y9206072D01*
X26187319Y9210334D01*
X26248642Y9243819D01*
X26318334Y9238835D01*
X26362681Y9210334D01*
X26366944Y9206071D01*
X26456071Y9116944D01*
X26565229Y9053922D01*
X26686978Y9021300D01*
X26686980Y9021300D01*
X26813020Y9021300D01*
X26813022Y9021300D01*
X26934771Y9053922D01*
X27043929Y9116944D01*
X27133056Y9206071D01*
X27142612Y9222624D01*
X27193179Y9270839D01*
X27261786Y9284063D01*
X27326651Y9258095D01*
X27357387Y9222624D01*
X27366944Y9206071D01*
X27456071Y9116944D01*
X27565229Y9053922D01*
X27686978Y9021300D01*
X27686980Y9021300D01*
X27813020Y9021300D01*
X27813022Y9021300D01*
X27934771Y9053922D01*
X28043929Y9116944D01*
X28133056Y9206071D01*
X28142612Y9222624D01*
X28193179Y9270839D01*
X28261786Y9284063D01*
X28326651Y9258095D01*
X28357387Y9222624D01*
X28366944Y9206071D01*
X28456071Y9116944D01*
X28565229Y9053922D01*
X28686978Y9021300D01*
X28686980Y9021300D01*
X28813020Y9021300D01*
X28813022Y9021300D01*
X28934771Y9053922D01*
X29043929Y9116944D01*
X29133056Y9206071D01*
X29142612Y9222624D01*
X29193179Y9270839D01*
X29261786Y9284063D01*
X29326651Y9258095D01*
X29357387Y9222624D01*
X29366944Y9206071D01*
X29456071Y9116944D01*
X29565229Y9053922D01*
X29686978Y9021300D01*
X29686980Y9021300D01*
X29813020Y9021300D01*
X29813022Y9021300D01*
X29934771Y9053922D01*
X30043929Y9116944D01*
X30133056Y9206071D01*
X30196078Y9315229D01*
X30228700Y9436978D01*
X30228700Y9563022D01*
X30196078Y9684771D01*
X30150633Y9763485D01*
X30133058Y9793926D01*
X30133057Y9793928D01*
X30133056Y9793929D01*
X30043929Y9883056D01*
X30027376Y9892613D01*
X29979161Y9943179D01*
X29965937Y10011786D01*
X29991905Y10076651D01*
X30001695Y10087681D01*
X30013239Y10099226D01*
X30043929Y10116944D01*
X30133056Y10206071D01*
X30150774Y10236761D01*
X30162319Y10248305D01*
X30179231Y10257540D01*
X30193179Y10270839D01*
X30209265Y10273940D01*
X30223642Y10281790D01*
X30242862Y10280416D01*
X30261786Y10284063D01*
X30276994Y10277975D01*
X30293334Y10276806D01*
X30308761Y10265257D01*
X30326651Y10258095D01*
X30342018Y10240361D01*
X30349267Y10234934D01*
X30351191Y10229774D01*
X30357387Y10222624D01*
X30366944Y10206071D01*
X30456071Y10116944D01*
X30456072Y10116943D01*
X30456074Y10116942D01*
X30472624Y10107387D01*
X30565229Y10053922D01*
X30686978Y10021300D01*
X30686980Y10021300D01*
X30813020Y10021300D01*
X30813022Y10021300D01*
X30934771Y10053922D01*
X31043929Y10116944D01*
X31133056Y10206071D01*
X31142612Y10222624D01*
X31193179Y10270839D01*
X31261786Y10284063D01*
X31326651Y10258095D01*
X31357387Y10222624D01*
X31366944Y10206071D01*
X31456071Y10116944D01*
X31456072Y10116943D01*
X31456074Y10116942D01*
X31472624Y10107387D01*
X31565229Y10053922D01*
X31686978Y10021300D01*
X31686980Y10021300D01*
X31813020Y10021300D01*
X31813022Y10021300D01*
X31934771Y10053922D01*
X32043929Y10116944D01*
X32133056Y10206071D01*
X32142612Y10222624D01*
X32193179Y10270839D01*
X32261786Y10284063D01*
X32326651Y10258095D01*
X32357387Y10222624D01*
X32366944Y10206071D01*
X32456071Y10116944D01*
X32456072Y10116943D01*
X32456074Y10116942D01*
X32472624Y10107387D01*
X32565229Y10053922D01*
X32686978Y10021300D01*
X32686980Y10021300D01*
X32813020Y10021300D01*
X32813022Y10021300D01*
X32934771Y10053922D01*
X33043929Y10116944D01*
X33133056Y10206071D01*
X33142612Y10222624D01*
X33193179Y10270839D01*
X33261786Y10284063D01*
X33326651Y10258095D01*
X33357387Y10222624D01*
X33366944Y10206071D01*
X33456071Y10116944D01*
X33456072Y10116943D01*
X33456074Y10116942D01*
X33472624Y10107387D01*
X33565229Y10053922D01*
X33686978Y10021300D01*
X33686980Y10021300D01*
X33813020Y10021300D01*
X33813022Y10021300D01*
X33934771Y10053922D01*
X34043929Y10116944D01*
X34133056Y10206071D01*
X34142612Y10222624D01*
X34193179Y10270839D01*
X34261786Y10284063D01*
X34326651Y10258095D01*
X34337682Y10248305D01*
X34349224Y10236763D01*
X34366944Y10206071D01*
X34456071Y10116944D01*
X34486760Y10099226D01*
X34498305Y10087681D01*
X34507541Y10070766D01*
X34520839Y10056819D01*
X34523938Y10040736D01*
X34531789Y10026358D01*
X34530414Y10007135D01*
X34534061Y9988212D01*
X34527973Y9973007D01*
X34526805Y9956666D01*
X34515255Y9941239D01*
X34508093Y9923347D01*
X34490357Y9907980D01*
X34484933Y9900733D01*
X34479774Y9898809D01*
X34472624Y9892613D01*
X34456072Y9883057D01*
X34456069Y9883055D01*
X34366945Y9793931D01*
X34366941Y9793926D01*
X34303923Y9684774D01*
X34303922Y9684771D01*
X34271300Y9563022D01*
X34271300Y9436978D01*
X34301830Y9323039D01*
X34303922Y9315230D01*
X34303923Y9315227D01*
X34366941Y9206075D01*
X34366943Y9206073D01*
X34366944Y9206071D01*
X34456071Y9116944D01*
X34565229Y9053922D01*
X34686978Y9021300D01*
X34686980Y9021300D01*
X34813020Y9021300D01*
X34813022Y9021300D01*
X34934771Y9053922D01*
X35043929Y9116944D01*
X35133056Y9206071D01*
X35142612Y9222624D01*
X35193179Y9270839D01*
X35261786Y9284063D01*
X35326651Y9258095D01*
X35357387Y9222624D01*
X35366944Y9206071D01*
X35456071Y9116944D01*
X35565229Y9053922D01*
X35686978Y9021300D01*
X35813022Y9021300D01*
X35934771Y9053922D01*
X36043929Y9116944D01*
X36133056Y9206071D01*
X36196078Y9315229D01*
X36228700Y9436978D01*
X36228700Y9563022D01*
X36196078Y9684771D01*
X36150633Y9763485D01*
X36133058Y9793926D01*
X36133057Y9793928D01*
X36133056Y9793929D01*
X36043929Y9883056D01*
X36027376Y9892613D01*
X35979161Y9943179D01*
X35965937Y10011786D01*
X35991905Y10076651D01*
X36027377Y10107388D01*
X36043929Y10116944D01*
X36133056Y10206071D01*
X36196078Y10315229D01*
X36228700Y10436978D01*
X36228700Y10560468D01*
X36248385Y10627507D01*
X36301189Y10673262D01*
X36370347Y10683206D01*
X36433903Y10654181D01*
X36440368Y10648161D01*
X36667673Y10420856D01*
X36667674Y10420855D01*
X36719564Y10368965D01*
X36783116Y10332274D01*
X36853998Y10313281D01*
X37452401Y10313281D01*
X37519440Y10293596D01*
X37540081Y10276963D01*
X38540059Y9276984D01*
X38540061Y9276983D01*
X38540065Y9276980D01*
X38597503Y9243819D01*
X38603610Y9240293D01*
X38674493Y9221300D01*
X38674495Y9221300D01*
X42232862Y9221300D01*
X42232865Y9221300D01*
X42303747Y9240293D01*
X42348081Y9265889D01*
X42367299Y9276984D01*
X42419189Y9328874D01*
X42419190Y9328877D01*
X43175296Y10084981D01*
X43236619Y10118466D01*
X43262977Y10121300D01*
X46686689Y10121300D01*
X46686692Y10121300D01*
X46757574Y10140293D01*
X46762299Y10143021D01*
X46821126Y10176984D01*
X46873016Y10228874D01*
X46873017Y10228877D01*
X47510916Y10866776D01*
X47510921Y10866780D01*
X47521124Y10876984D01*
X47521126Y10876984D01*
X47573016Y10928874D01*
X47599646Y10975000D01*
X47609707Y10992425D01*
X47628700Y11063308D01*
X47628700Y11136691D01*
X47628700Y11883197D01*
X47648385Y11950236D01*
X47665019Y11970878D01*
X50579122Y14884981D01*
X50640445Y14918466D01*
X50666803Y14921300D01*
X51256419Y14921300D01*
X51323458Y14901615D01*
X51344100Y14884981D01*
X51352122Y14876959D01*
X51444177Y14823811D01*
X51546852Y14796300D01*
X51546854Y14796300D01*
X51653146Y14796300D01*
X51653148Y14796300D01*
X51755823Y14823811D01*
X51847878Y14876959D01*
X51923041Y14952122D01*
X51976189Y15044177D01*
X52003700Y15146852D01*
X52003700Y15253148D01*
X51976189Y15355823D01*
X51923041Y15447878D01*
X51847878Y15523041D01*
X51755823Y15576189D01*
X51653148Y15603700D01*
X51546852Y15603700D01*
X51444177Y15576189D01*
X51444175Y15576188D01*
X51444174Y15576188D01*
X51352125Y15523043D01*
X51352119Y15523039D01*
X51344100Y15515019D01*
X51282777Y15481534D01*
X51256419Y15478700D01*
X50536696Y15478700D01*
X50536692Y15478701D01*
X50463308Y15478701D01*
X50393583Y15460017D01*
X50392426Y15459707D01*
X50390195Y15458420D01*
X50390195Y15458419D01*
X50328877Y15423019D01*
X50328872Y15423015D01*
X47126983Y12221126D01*
X47090293Y12157575D01*
X47087420Y12146853D01*
X47071300Y12086692D01*
X47071300Y12086690D01*
X47071300Y12024551D01*
X47051615Y11957512D01*
X46998811Y11911757D01*
X46929653Y11901813D01*
X46866097Y11930838D01*
X46850130Y11947519D01*
X46844466Y11954663D01*
X46818599Y11999467D01*
X46772032Y12046034D01*
X46767595Y12051631D01*
X46757055Y12077662D01*
X46743599Y12102305D01*
X46744121Y12109607D01*
X46741373Y12116394D01*
X46746580Y12143991D01*
X46748583Y12171997D01*
X46753228Y12179226D01*
X46754328Y12185052D01*
X46762577Y12193772D01*
X46777083Y12216343D01*
X46818599Y12257858D01*
X46871747Y12349913D01*
X46899258Y12452588D01*
X46899258Y12558884D01*
X46871747Y12661559D01*
X46818599Y12753614D01*
X46784247Y12787966D01*
X46750762Y12849289D01*
X46755746Y12918981D01*
X46784247Y12963328D01*
X46823041Y13002122D01*
X46876189Y13094177D01*
X46903700Y13196852D01*
X46903700Y13303148D01*
X46876189Y13405823D01*
X46823041Y13497878D01*
X46811300Y13509619D01*
X46777815Y13570942D01*
X46782799Y13640634D01*
X46824671Y13696567D01*
X46890135Y13720984D01*
X46898981Y13721300D01*
X48036689Y13721300D01*
X48036692Y13721300D01*
X48107574Y13740293D01*
X48134473Y13755823D01*
X48171126Y13776984D01*
X48223016Y13828874D01*
X48223017Y13828877D01*
X50579122Y16184981D01*
X50640445Y16218466D01*
X50666803Y16221300D01*
X51136689Y16221300D01*
X51136692Y16221300D01*
X51207574Y16240293D01*
X51232902Y16254916D01*
X51271126Y16276984D01*
X51323016Y16328874D01*
X51323017Y16328877D01*
X52523016Y17528874D01*
X52559707Y17592426D01*
X52578700Y17663308D01*
X52578700Y17736692D01*
X52578700Y21733197D01*
X52598385Y21800236D01*
X52615019Y21820878D01*
X53054122Y22259981D01*
X53115445Y22293466D01*
X53141803Y22296300D01*
X53153146Y22296300D01*
X53153148Y22296300D01*
X53255823Y22323811D01*
X53347878Y22376959D01*
X53423041Y22452122D01*
X53468113Y22530190D01*
X53518680Y22578405D01*
X53587287Y22591628D01*
X53652152Y22565660D01*
G37*
%TD.AperFunction*%
%TA.AperFunction,Conductor*%
G36*
X44668058Y13701615D02*
G01*
X44713813Y13648811D01*
X44723757Y13579653D01*
X44694732Y13516097D01*
X44688700Y13509619D01*
X44676961Y13497881D01*
X44676957Y13497875D01*
X44623812Y13405826D01*
X44623812Y13405825D01*
X44623811Y13405823D01*
X44596300Y13303148D01*
X44596300Y13196852D01*
X44623811Y13094177D01*
X44676959Y13002122D01*
X44676961Y13002120D01*
X44716400Y12962681D01*
X44749885Y12901358D01*
X44744901Y12831666D01*
X44716400Y12787319D01*
X44676961Y12747881D01*
X44676957Y12747875D01*
X44623812Y12655826D01*
X44623812Y12655825D01*
X44623811Y12655823D01*
X44596300Y12553148D01*
X44596300Y12446852D01*
X44623811Y12344177D01*
X44676959Y12252122D01*
X44752122Y12176959D01*
X44844177Y12123811D01*
X44946852Y12096300D01*
X44946854Y12096300D01*
X45053146Y12096300D01*
X45053148Y12096300D01*
X45155823Y12123811D01*
X45247878Y12176959D01*
X45287319Y12216400D01*
X45295264Y12220739D01*
X45300690Y12227986D01*
X45325449Y12237221D01*
X45348642Y12249885D01*
X45357671Y12249240D01*
X45366154Y12252403D01*
X45391974Y12246787D01*
X45418334Y12244901D01*
X45427387Y12239083D01*
X45434427Y12237551D01*
X45462681Y12216400D01*
X45466400Y12212681D01*
X45499885Y12151358D01*
X45494901Y12081666D01*
X45466400Y12037319D01*
X45426961Y11997881D01*
X45426957Y11997875D01*
X45373812Y11905826D01*
X45373812Y11905825D01*
X45373811Y11905823D01*
X45346300Y11803148D01*
X45346300Y11696852D01*
X45373811Y11594177D01*
X45426959Y11502122D01*
X45502122Y11426959D01*
X45594177Y11373811D01*
X45696852Y11346300D01*
X45696854Y11346300D01*
X45803146Y11346300D01*
X45803148Y11346300D01*
X45905823Y11373811D01*
X45997878Y11426959D01*
X46035893Y11464975D01*
X46097214Y11498459D01*
X46166905Y11493475D01*
X46211254Y11464974D01*
X46247680Y11428548D01*
X46339735Y11375400D01*
X46442410Y11347889D01*
X46442412Y11347889D01*
X46548704Y11347889D01*
X46548706Y11347889D01*
X46651381Y11375400D01*
X46743436Y11428548D01*
X46818599Y11503711D01*
X46839913Y11540629D01*
X46890480Y11588844D01*
X46959087Y11602067D01*
X47023952Y11576099D01*
X47064480Y11519184D01*
X47071300Y11478628D01*
X47071300Y11266803D01*
X47051615Y11199764D01*
X47034981Y11179122D01*
X46570878Y10715019D01*
X46509555Y10681534D01*
X46483197Y10678700D01*
X43132865Y10678700D01*
X43059481Y10678700D01*
X43006319Y10664456D01*
X42988598Y10659707D01*
X42925047Y10623017D01*
X42925045Y10623015D01*
X42117051Y9815019D01*
X42055728Y9781534D01*
X42029370Y9778700D01*
X38877989Y9778700D01*
X38810950Y9798385D01*
X38790308Y9815019D01*
X38428343Y10176984D01*
X38050411Y10554915D01*
X38016927Y10616237D01*
X38021911Y10685928D01*
X38063783Y10741862D01*
X38129247Y10766279D01*
X38138093Y10766595D01*
X38687910Y10766595D01*
X38754949Y10746910D01*
X38775591Y10730276D01*
X38783613Y10722254D01*
X38875668Y10669106D01*
X38978343Y10641595D01*
X38978345Y10641595D01*
X39084637Y10641595D01*
X39084639Y10641595D01*
X39187314Y10669106D01*
X39279369Y10722254D01*
X39354532Y10797417D01*
X39407680Y10889472D01*
X39435191Y10992147D01*
X39435191Y10992156D01*
X39436252Y11000207D01*
X39438204Y10999950D01*
X39454876Y11056727D01*
X39471510Y11077369D01*
X42079122Y13684981D01*
X42140445Y13718466D01*
X42166803Y13721300D01*
X44601019Y13721300D01*
X44668058Y13701615D01*
G37*
%TD.AperFunction*%
%TA.AperFunction,Conductor*%
G36*
X29634776Y25911015D02*
G01*
X29680531Y25858211D01*
X29690475Y25789053D01*
X29675124Y25744700D01*
X29623812Y25655826D01*
X29623812Y25655825D01*
X29623811Y25655823D01*
X29596300Y25553148D01*
X29596300Y25446852D01*
X29623811Y25344177D01*
X29623812Y25344176D01*
X29623812Y25344175D01*
X29624927Y25342244D01*
X29676959Y25252122D01*
X29676961Y25252120D01*
X29716400Y25212681D01*
X29749885Y25151358D01*
X29744901Y25081666D01*
X29716400Y25037319D01*
X29676961Y24997881D01*
X29676957Y24997875D01*
X29623812Y24905826D01*
X29623812Y24905825D01*
X29623811Y24905823D01*
X29596300Y24803148D01*
X29596300Y24696852D01*
X29623811Y24594177D01*
X29623812Y24594176D01*
X29623812Y24594175D01*
X29628132Y24586692D01*
X29676959Y24502122D01*
X29676961Y24502120D01*
X29716400Y24462681D01*
X29749885Y24401358D01*
X29744901Y24331666D01*
X29716400Y24287319D01*
X29676961Y24247881D01*
X29676957Y24247875D01*
X29623812Y24155826D01*
X29623812Y24155825D01*
X29623811Y24155823D01*
X29596300Y24053148D01*
X29596300Y23946852D01*
X29623811Y23844177D01*
X29676959Y23752122D01*
X29752122Y23676959D01*
X29844177Y23623811D01*
X29946852Y23596300D01*
X29946854Y23596300D01*
X30053146Y23596300D01*
X30053148Y23596300D01*
X30155823Y23623811D01*
X30247878Y23676959D01*
X30287319Y23716400D01*
X30348642Y23749885D01*
X30418334Y23744901D01*
X30462681Y23716400D01*
X30502122Y23676959D01*
X30594177Y23623811D01*
X30696852Y23596300D01*
X30696854Y23596300D01*
X30803146Y23596300D01*
X30803148Y23596300D01*
X30905823Y23623811D01*
X30949385Y23648962D01*
X31017282Y23665434D01*
X31083309Y23642582D01*
X31112757Y23612983D01*
X31122464Y23599202D01*
X31123811Y23594177D01*
X31176959Y23502122D01*
X31223947Y23455134D01*
X31230093Y23446409D01*
X31238050Y23423032D01*
X31249885Y23401358D01*
X31249111Y23390537D01*
X31252607Y23380266D01*
X31246662Y23356300D01*
X31244901Y23331666D01*
X31237820Y23320649D01*
X31235787Y23312451D01*
X31227564Y23304691D01*
X31216400Y23287319D01*
X31176961Y23247881D01*
X31176957Y23247875D01*
X31123812Y23155826D01*
X31123812Y23155825D01*
X31123811Y23155823D01*
X31096300Y23053148D01*
X31096300Y22946852D01*
X31123811Y22844177D01*
X31123812Y22844176D01*
X31123812Y22844175D01*
X31133866Y22826761D01*
X31176959Y22752122D01*
X31252122Y22676959D01*
X31344177Y22623811D01*
X31446852Y22596300D01*
X31446854Y22596300D01*
X31553146Y22596300D01*
X31553148Y22596300D01*
X31655823Y22623811D01*
X31747878Y22676959D01*
X31787319Y22716400D01*
X31848642Y22749885D01*
X31918334Y22744901D01*
X31962681Y22716400D01*
X32002122Y22676959D01*
X32094177Y22623811D01*
X32196852Y22596300D01*
X32196854Y22596300D01*
X32303146Y22596300D01*
X32303148Y22596300D01*
X32405823Y22623811D01*
X32497878Y22676959D01*
X32537319Y22716400D01*
X32598642Y22749885D01*
X32668334Y22744901D01*
X32712681Y22716400D01*
X32752122Y22676959D01*
X32844177Y22623811D01*
X32946852Y22596300D01*
X32946854Y22596300D01*
X33053146Y22596300D01*
X33053148Y22596300D01*
X33155823Y22623811D01*
X33247878Y22676959D01*
X33323041Y22752122D01*
X33376189Y22844177D01*
X33403700Y22946852D01*
X33403700Y23053148D01*
X33376189Y23155823D01*
X33323041Y23247878D01*
X33247878Y23323041D01*
X33159942Y23373811D01*
X33155825Y23376188D01*
X33155826Y23376188D01*
X33155823Y23376189D01*
X33150831Y23377527D01*
X33134377Y23387557D01*
X33115889Y23392985D01*
X33105162Y23405365D01*
X33091174Y23413891D01*
X33082753Y23431226D01*
X33070134Y23445789D01*
X33067802Y23462004D01*
X33060645Y23476738D01*
X33062932Y23495872D01*
X33060190Y23514947D01*
X33066995Y23529849D01*
X33068940Y23546113D01*
X33081208Y23560973D01*
X33089215Y23578503D01*
X33102996Y23587360D01*
X33113426Y23599991D01*
X33131781Y23605859D01*
X33147993Y23616277D01*
X33177765Y23620558D01*
X33179978Y23621265D01*
X33182928Y23621300D01*
X33278698Y23621300D01*
X33340698Y23604687D01*
X33345210Y23602082D01*
X33394177Y23573811D01*
X33496852Y23546300D01*
X33496854Y23546300D01*
X33603146Y23546300D01*
X33603148Y23546300D01*
X33705823Y23573811D01*
X33797878Y23626959D01*
X33805900Y23634981D01*
X33867223Y23668466D01*
X33893581Y23671300D01*
X35383197Y23671300D01*
X35450236Y23651615D01*
X35470877Y23634982D01*
X37178874Y21926984D01*
X37178876Y21926983D01*
X37178880Y21926980D01*
X37205937Y21911359D01*
X37242425Y21890293D01*
X37313308Y21871300D01*
X37386691Y21871300D01*
X50662104Y21871300D01*
X50729143Y21851615D01*
X50769490Y21809301D01*
X50776959Y21796365D01*
X50852122Y21721202D01*
X50944177Y21668054D01*
X51046852Y21640543D01*
X51046854Y21640543D01*
X51153146Y21640543D01*
X51153148Y21640543D01*
X51215209Y21657172D01*
X51285056Y21655509D01*
X51342919Y21616347D01*
X51370423Y21552118D01*
X51371300Y21537397D01*
X51371300Y21066558D01*
X51351615Y20999519D01*
X51298811Y20953764D01*
X51229653Y20943820D01*
X51185301Y20959170D01*
X51155824Y20976189D01*
X51104485Y20989945D01*
X51053148Y21003700D01*
X50946852Y21003700D01*
X50844177Y20976189D01*
X50844175Y20976188D01*
X50844174Y20976188D01*
X50752125Y20923043D01*
X50752119Y20923039D01*
X50676961Y20847881D01*
X50676957Y20847875D01*
X50623812Y20755826D01*
X50623812Y20755825D01*
X50623811Y20755823D01*
X50596300Y20653148D01*
X50596300Y20546852D01*
X50623811Y20444177D01*
X50623812Y20444176D01*
X50623812Y20444175D01*
X50631691Y20430529D01*
X50676959Y20352122D01*
X50752122Y20276959D01*
X50844177Y20223811D01*
X50946852Y20196300D01*
X50946854Y20196300D01*
X51053146Y20196300D01*
X51053148Y20196300D01*
X51155823Y20223811D01*
X51185302Y20240831D01*
X51253199Y20257303D01*
X51319226Y20234451D01*
X51362417Y20179530D01*
X51371300Y20133443D01*
X51371300Y18243581D01*
X51351615Y18176542D01*
X51334981Y18155900D01*
X51326961Y18147881D01*
X51326957Y18147875D01*
X51273812Y18055826D01*
X51273812Y18055825D01*
X51273811Y18055823D01*
X51246300Y17953148D01*
X51246300Y17846852D01*
X51273811Y17744177D01*
X51273812Y17744176D01*
X51273812Y17744175D01*
X51282480Y17729161D01*
X51326959Y17652122D01*
X51402122Y17576959D01*
X51494177Y17523811D01*
X51501216Y17519747D01*
X51499820Y17517330D01*
X51543642Y17482020D01*
X51565711Y17415727D01*
X51548436Y17348027D01*
X51529471Y17323613D01*
X51020878Y16815019D01*
X50959555Y16781534D01*
X50933197Y16778700D01*
X50544304Y16778700D01*
X50544288Y16778701D01*
X50536692Y16778701D01*
X50463308Y16778701D01*
X50463304Y16778701D01*
X50403121Y16762574D01*
X50403122Y16762573D01*
X50392425Y16759707D01*
X50328874Y16723017D01*
X50328872Y16723015D01*
X50290632Y16684774D01*
X50276984Y16671126D01*
X50276982Y16671124D01*
X49083734Y15477875D01*
X47920878Y14315019D01*
X47859555Y14281534D01*
X47833197Y14278700D01*
X42044304Y14278700D01*
X42044288Y14278701D01*
X42036692Y14278701D01*
X41963308Y14278701D01*
X41963305Y14278701D01*
X41892432Y14259710D01*
X41892425Y14259707D01*
X41828874Y14223017D01*
X41828872Y14223015D01*
X41782047Y14176189D01*
X41776984Y14171126D01*
X41776982Y14171124D01*
X40426151Y12820292D01*
X39091173Y11485314D01*
X39029850Y11451829D01*
X39003492Y11448995D01*
X38978343Y11448995D01*
X38875668Y11421484D01*
X38875666Y11421483D01*
X38875665Y11421483D01*
X38783616Y11368338D01*
X38783610Y11368334D01*
X38775591Y11360314D01*
X38714268Y11326829D01*
X38687910Y11323995D01*
X37155394Y11323995D01*
X37088355Y11343680D01*
X37067713Y11360314D01*
X35964168Y12463859D01*
X35930683Y12525182D01*
X35935667Y12594874D01*
X35977539Y12650807D01*
X35983894Y12655000D01*
X35986468Y12656975D01*
X35986476Y12656979D01*
X37043021Y13713524D01*
X37083004Y13782776D01*
X37103701Y13860017D01*
X37103701Y13939984D01*
X37103701Y13947579D01*
X37103700Y13947597D01*
X37103700Y14961274D01*
X37123385Y15028313D01*
X37176189Y15074068D01*
X37245347Y15084012D01*
X37289700Y15068661D01*
X37315229Y15053922D01*
X37436978Y15021300D01*
X37436980Y15021300D01*
X37563020Y15021300D01*
X37563022Y15021300D01*
X37684771Y15053922D01*
X37793929Y15116944D01*
X37883056Y15206071D01*
X37892612Y15222624D01*
X37943179Y15270839D01*
X38011786Y15284063D01*
X38076651Y15258095D01*
X38107387Y15222624D01*
X38116944Y15206071D01*
X38206071Y15116944D01*
X38206072Y15116943D01*
X38206074Y15116942D01*
X38225333Y15105823D01*
X38315229Y15053922D01*
X38436978Y15021300D01*
X38436980Y15021300D01*
X38563020Y15021300D01*
X38563022Y15021300D01*
X38684771Y15053922D01*
X38793929Y15116944D01*
X38883056Y15206071D01*
X38946078Y15315229D01*
X38978700Y15436978D01*
X38978700Y15563022D01*
X38946078Y15684771D01*
X38883056Y15793929D01*
X38793929Y15883056D01*
X38793928Y15883057D01*
X38793925Y15883059D01*
X38684773Y15946077D01*
X38684772Y15946078D01*
X38684771Y15946078D01*
X38563022Y15978700D01*
X38436978Y15978700D01*
X38315229Y15946078D01*
X38315226Y15946077D01*
X38206074Y15883059D01*
X38206069Y15883055D01*
X38116945Y15793931D01*
X38116943Y15793928D01*
X38107387Y15777376D01*
X38056819Y15729161D01*
X37988212Y15715939D01*
X37923347Y15741907D01*
X37892613Y15777376D01*
X37890324Y15781340D01*
X37883056Y15793929D01*
X37793929Y15883056D01*
X37692995Y15941330D01*
X37644781Y15991895D01*
X37631557Y16060502D01*
X37657525Y16125367D01*
X37667311Y16136393D01*
X37673041Y16142122D01*
X37726189Y16234177D01*
X37753700Y16336852D01*
X37753700Y16443148D01*
X37726189Y16545823D01*
X37673041Y16637878D01*
X37597878Y16713041D01*
X37597875Y16713043D01*
X37591429Y16717989D01*
X37593063Y16720120D01*
X37553967Y16761125D01*
X37540746Y16829732D01*
X37566716Y16894596D01*
X37576499Y16905619D01*
X37669021Y16998140D01*
X37709004Y17067392D01*
X37710000Y17071110D01*
X37711924Y17074443D01*
X37712114Y17074901D01*
X37712174Y17074877D01*
X37742097Y17126707D01*
X37786476Y17171084D01*
X37813437Y17198045D01*
X37843021Y17227629D01*
X37883004Y17296881D01*
X37887921Y17315230D01*
X37895676Y17344176D01*
X37903700Y17374122D01*
X37903700Y17563022D01*
X38771300Y17563022D01*
X38771300Y17436978D01*
X38796166Y17344178D01*
X38803922Y17315230D01*
X38803923Y17315227D01*
X38866941Y17206075D01*
X38866943Y17206073D01*
X38866944Y17206071D01*
X38956071Y17116944D01*
X38967468Y17110364D01*
X38972624Y17107387D01*
X39020839Y17056819D01*
X39034061Y16988212D01*
X39008093Y16923347D01*
X38972624Y16892613D01*
X38956072Y16883057D01*
X38956069Y16883055D01*
X38866945Y16793931D01*
X38866941Y16793926D01*
X38803923Y16684774D01*
X38803922Y16684771D01*
X38771300Y16563022D01*
X38771300Y16436978D01*
X38801830Y16323039D01*
X38803922Y16315230D01*
X38803923Y16315227D01*
X38866941Y16206075D01*
X38866943Y16206073D01*
X38866944Y16206071D01*
X38956071Y16116944D01*
X38956072Y16116943D01*
X38956074Y16116942D01*
X38976738Y16105012D01*
X39065229Y16053922D01*
X39186978Y16021300D01*
X39186980Y16021300D01*
X39313020Y16021300D01*
X39313022Y16021300D01*
X39434771Y16053922D01*
X39543929Y16116944D01*
X39633056Y16206071D01*
X39642612Y16222624D01*
X39693179Y16270839D01*
X39761786Y16284063D01*
X39826651Y16258095D01*
X39857387Y16222624D01*
X39866944Y16206071D01*
X39956071Y16116944D01*
X39956072Y16116943D01*
X39956074Y16116942D01*
X39976738Y16105012D01*
X40065229Y16053922D01*
X40186978Y16021300D01*
X40186980Y16021300D01*
X40313020Y16021300D01*
X40313022Y16021300D01*
X40434771Y16053922D01*
X40543929Y16116944D01*
X40633056Y16206071D01*
X40642612Y16222624D01*
X40693179Y16270839D01*
X40761786Y16284063D01*
X40826651Y16258095D01*
X40857387Y16222624D01*
X40866944Y16206071D01*
X40956071Y16116944D01*
X40956072Y16116943D01*
X40956074Y16116942D01*
X40976738Y16105012D01*
X41065229Y16053922D01*
X41186978Y16021300D01*
X41186980Y16021300D01*
X41313020Y16021300D01*
X41313022Y16021300D01*
X41434771Y16053922D01*
X41543929Y16116944D01*
X41633056Y16206071D01*
X41642612Y16222624D01*
X41693179Y16270839D01*
X41761786Y16284063D01*
X41826651Y16258095D01*
X41857387Y16222624D01*
X41866944Y16206071D01*
X41956071Y16116944D01*
X41956072Y16116943D01*
X41956074Y16116942D01*
X41976738Y16105012D01*
X42065229Y16053922D01*
X42186978Y16021300D01*
X42186980Y16021300D01*
X42313020Y16021300D01*
X42313022Y16021300D01*
X42434771Y16053922D01*
X42543929Y16116944D01*
X42633056Y16206071D01*
X42642612Y16222624D01*
X42693179Y16270839D01*
X42761786Y16284063D01*
X42826651Y16258095D01*
X42857387Y16222624D01*
X42866944Y16206071D01*
X42956071Y16116944D01*
X42956072Y16116943D01*
X42956074Y16116942D01*
X42976738Y16105012D01*
X43065229Y16053922D01*
X43186978Y16021300D01*
X43186980Y16021300D01*
X43313020Y16021300D01*
X43313022Y16021300D01*
X43434771Y16053922D01*
X43543929Y16116944D01*
X43633056Y16206071D01*
X43696078Y16315229D01*
X43728700Y16436978D01*
X43728700Y16563022D01*
X43696078Y16684771D01*
X43651159Y16762574D01*
X43633058Y16793926D01*
X43633057Y16793928D01*
X43633056Y16793929D01*
X43543929Y16883056D01*
X43527376Y16892613D01*
X43479161Y16943179D01*
X43465937Y17011786D01*
X43491905Y17076651D01*
X43527377Y17107388D01*
X43543929Y17116944D01*
X43633056Y17206071D01*
X43696078Y17315229D01*
X43728700Y17436978D01*
X43728700Y17563022D01*
X43696078Y17684771D01*
X43661780Y17744177D01*
X43633058Y17793926D01*
X43633057Y17793928D01*
X43633056Y17793929D01*
X43543929Y17883056D01*
X43543928Y17883057D01*
X43543925Y17883059D01*
X43434773Y17946077D01*
X43434772Y17946078D01*
X43434771Y17946078D01*
X43313022Y17978700D01*
X43186978Y17978700D01*
X43065229Y17946078D01*
X43065226Y17946077D01*
X42956074Y17883059D01*
X42956069Y17883055D01*
X42866945Y17793931D01*
X42866943Y17793928D01*
X42857387Y17777376D01*
X42806819Y17729161D01*
X42738212Y17715939D01*
X42673347Y17741907D01*
X42642613Y17777376D01*
X42640067Y17781785D01*
X42633056Y17793929D01*
X42543929Y17883056D01*
X42543928Y17883057D01*
X42543925Y17883059D01*
X42434773Y17946077D01*
X42434772Y17946078D01*
X42434771Y17946078D01*
X42313022Y17978700D01*
X42186978Y17978700D01*
X42065229Y17946078D01*
X42065226Y17946077D01*
X41956074Y17883059D01*
X41956069Y17883055D01*
X41866945Y17793931D01*
X41866943Y17793928D01*
X41857387Y17777376D01*
X41806819Y17729161D01*
X41738212Y17715939D01*
X41673347Y17741907D01*
X41642613Y17777376D01*
X41640067Y17781785D01*
X41633056Y17793929D01*
X41543929Y17883056D01*
X41543928Y17883057D01*
X41543925Y17883059D01*
X41434773Y17946077D01*
X41434772Y17946078D01*
X41434771Y17946078D01*
X41313022Y17978700D01*
X41186978Y17978700D01*
X41065229Y17946078D01*
X41065226Y17946077D01*
X40956074Y17883059D01*
X40956069Y17883055D01*
X40866945Y17793931D01*
X40866943Y17793928D01*
X40857387Y17777376D01*
X40806819Y17729161D01*
X40738212Y17715939D01*
X40673347Y17741907D01*
X40642613Y17777376D01*
X40640067Y17781785D01*
X40633056Y17793929D01*
X40543929Y17883056D01*
X40543928Y17883057D01*
X40543925Y17883059D01*
X40434773Y17946077D01*
X40434772Y17946078D01*
X40434771Y17946078D01*
X40313022Y17978700D01*
X40186978Y17978700D01*
X40065229Y17946078D01*
X40065226Y17946077D01*
X39956074Y17883059D01*
X39956069Y17883055D01*
X39866945Y17793931D01*
X39866943Y17793928D01*
X39857387Y17777376D01*
X39806819Y17729161D01*
X39738212Y17715939D01*
X39673347Y17741907D01*
X39642613Y17777376D01*
X39640067Y17781785D01*
X39633056Y17793929D01*
X39543929Y17883056D01*
X39543928Y17883057D01*
X39543925Y17883059D01*
X39434773Y17946077D01*
X39434772Y17946078D01*
X39434771Y17946078D01*
X39313022Y17978700D01*
X39186978Y17978700D01*
X39065229Y17946078D01*
X39065226Y17946077D01*
X38956074Y17883059D01*
X38956069Y17883055D01*
X38866945Y17793931D01*
X38866941Y17793926D01*
X38803923Y17684774D01*
X38803922Y17684771D01*
X38771300Y17563022D01*
X37903700Y17563022D01*
X37903700Y19039983D01*
X37899929Y19054058D01*
X37883005Y19117222D01*
X37879810Y19122756D01*
X37843021Y19186476D01*
X37786476Y19243021D01*
X37486476Y19543021D01*
X37436538Y19571853D01*
X37417221Y19583006D01*
X37339986Y19603700D01*
X37339983Y19603700D01*
X36639984Y19603700D01*
X36560017Y19603700D01*
X36560013Y19603700D01*
X36482778Y19583006D01*
X36413524Y19543021D01*
X36413521Y19543019D01*
X36081981Y19211479D01*
X36081979Y19211476D01*
X36041994Y19142222D01*
X36021300Y19064987D01*
X36021300Y19064983D01*
X36021300Y18474984D01*
X36021300Y18395018D01*
X36041996Y18317777D01*
X36041997Y18317775D01*
X36041999Y18317770D01*
X36061498Y18283998D01*
X36075201Y18232858D01*
X36077051Y18233101D01*
X36078112Y18225042D01*
X36078112Y18225041D01*
X36105623Y18122366D01*
X36105624Y18122365D01*
X36105624Y18122364D01*
X36111480Y18112222D01*
X36158771Y18030311D01*
X36158773Y18030309D01*
X36212229Y17976853D01*
X36245714Y17915530D01*
X36240730Y17845838D01*
X36198858Y17789905D01*
X36186549Y17781785D01*
X36102122Y17733041D01*
X36102119Y17733039D01*
X36026961Y17657881D01*
X36026957Y17657875D01*
X35973812Y17565826D01*
X35973811Y17565824D01*
X35973811Y17565823D01*
X35969724Y17550568D01*
X35944888Y17457879D01*
X35912794Y17402292D01*
X35581982Y17071480D01*
X35581979Y17071476D01*
X35541994Y17002222D01*
X35521300Y16924987D01*
X35521300Y14702159D01*
X35501615Y14635120D01*
X35484981Y14614478D01*
X35010522Y14140019D01*
X34949199Y14106534D01*
X34922841Y14103700D01*
X34032559Y14103700D01*
X33965520Y14123385D01*
X33919765Y14176189D01*
X33909821Y14245347D01*
X33938846Y14308903D01*
X33944878Y14315381D01*
X34106112Y14476615D01*
X34295495Y14665998D01*
X34335478Y14735250D01*
X34356175Y14812491D01*
X34356175Y14892458D01*
X34356175Y14900053D01*
X34356174Y14900071D01*
X34356174Y15501962D01*
X34375859Y15569001D01*
X34428663Y15614756D01*
X34448087Y15621738D01*
X34455820Y15623810D01*
X34455820Y15623811D01*
X34455823Y15623811D01*
X34547878Y15676959D01*
X34623041Y15752122D01*
X34676189Y15844177D01*
X34703700Y15946852D01*
X34703700Y16053148D01*
X34676189Y16155823D01*
X34623041Y16247878D01*
X34547878Y16323041D01*
X34485176Y16359242D01*
X34455825Y16376188D01*
X34455824Y16376189D01*
X34455823Y16376189D01*
X34353148Y16403700D01*
X34246852Y16403700D01*
X34144177Y16376189D01*
X34144175Y16376188D01*
X34144174Y16376188D01*
X34052125Y16323043D01*
X34052119Y16323039D01*
X33976961Y16247881D01*
X33976959Y16247878D01*
X33932387Y16170677D01*
X33881820Y16122462D01*
X33813212Y16109240D01*
X33748348Y16135208D01*
X33717613Y16170677D01*
X33713984Y16176962D01*
X33673041Y16247878D01*
X33597878Y16323041D01*
X33535176Y16359242D01*
X33505825Y16376188D01*
X33505824Y16376189D01*
X33505823Y16376189D01*
X33403148Y16403700D01*
X33296852Y16403700D01*
X33194177Y16376189D01*
X33194175Y16376188D01*
X33194174Y16376188D01*
X33102125Y16323043D01*
X33102119Y16323039D01*
X33026961Y16247881D01*
X33026957Y16247875D01*
X32973812Y16155826D01*
X32973812Y16155825D01*
X32973811Y16155823D01*
X32946300Y16053148D01*
X32946300Y15946852D01*
X32973811Y15844177D01*
X33026959Y15752122D01*
X33102122Y15676959D01*
X33194177Y15623811D01*
X33245863Y15609962D01*
X33305523Y15573599D01*
X33336053Y15510752D01*
X33337770Y15490188D01*
X33337770Y15218629D01*
X33318085Y15151590D01*
X33301451Y15130948D01*
X33110522Y14940019D01*
X33049199Y14906534D01*
X33022841Y14903700D01*
X31418187Y14903700D01*
X31351148Y14923385D01*
X31330506Y14940019D01*
X30385906Y15884619D01*
X30352421Y15945942D01*
X30357405Y16015634D01*
X30399277Y16071567D01*
X30464741Y16095984D01*
X30473587Y16096300D01*
X30553146Y16096300D01*
X30553148Y16096300D01*
X30655823Y16123811D01*
X30747878Y16176959D01*
X30823041Y16252122D01*
X30876189Y16344177D01*
X30903700Y16446852D01*
X30903700Y16553148D01*
X30876189Y16655823D01*
X30823041Y16747878D01*
X30747878Y16823041D01*
X30655823Y16876189D01*
X30640756Y16880226D01*
X30581097Y16916589D01*
X30550567Y16979435D01*
X30558861Y17048811D01*
X30603346Y17102690D01*
X30640755Y17119774D01*
X30655823Y17123811D01*
X30747878Y17176959D01*
X30823041Y17252122D01*
X30876189Y17344177D01*
X30880225Y17359244D01*
X30916589Y17418903D01*
X30979435Y17449433D01*
X31048811Y17441139D01*
X31102690Y17396654D01*
X31119773Y17359245D01*
X31123811Y17344177D01*
X31176959Y17252122D01*
X31252122Y17176959D01*
X31344177Y17123811D01*
X31446852Y17096300D01*
X31446854Y17096300D01*
X31553146Y17096300D01*
X31553148Y17096300D01*
X31655823Y17123811D01*
X31747878Y17176959D01*
X31823041Y17252122D01*
X31876189Y17344177D01*
X31880225Y17359244D01*
X31916589Y17418903D01*
X31979435Y17449433D01*
X32048811Y17441139D01*
X32102690Y17396654D01*
X32119773Y17359245D01*
X32123811Y17344177D01*
X32176959Y17252122D01*
X32252122Y17176959D01*
X32344177Y17123811D01*
X32446852Y17096300D01*
X32446854Y17096300D01*
X32553146Y17096300D01*
X32553148Y17096300D01*
X32655823Y17123811D01*
X32747878Y17176959D01*
X32823041Y17252122D01*
X32876189Y17344177D01*
X32903700Y17446852D01*
X32903700Y17553148D01*
X32876189Y17655823D01*
X32823041Y17747878D01*
X32747878Y17823041D01*
X32665453Y17870629D01*
X32655825Y17876188D01*
X32655823Y17876189D01*
X32655819Y17876190D01*
X32640756Y17880226D01*
X32581097Y17916589D01*
X32550567Y17979435D01*
X32558861Y18048811D01*
X32603346Y18102690D01*
X32640755Y18119774D01*
X32655823Y18123811D01*
X32747878Y18176959D01*
X32823041Y18252122D01*
X32876189Y18344177D01*
X32903700Y18446852D01*
X32903700Y18553148D01*
X32876189Y18655823D01*
X32823041Y18747878D01*
X32747878Y18823041D01*
X32655823Y18876189D01*
X32640756Y18880226D01*
X32581097Y18916589D01*
X32550567Y18979435D01*
X32558861Y19048811D01*
X32603346Y19102690D01*
X32640755Y19119774D01*
X32655823Y19123811D01*
X32747878Y19176959D01*
X32823041Y19252122D01*
X32876189Y19344177D01*
X32903700Y19446852D01*
X32903700Y19553148D01*
X32876189Y19655823D01*
X32823041Y19747878D01*
X32747878Y19823041D01*
X32674330Y19865504D01*
X32655825Y19876188D01*
X32655823Y19876189D01*
X32640756Y19880226D01*
X32581097Y19916589D01*
X32550567Y19979435D01*
X32558861Y20048811D01*
X32603346Y20102690D01*
X32640755Y20119774D01*
X32655823Y20123811D01*
X32747878Y20176959D01*
X32823041Y20252122D01*
X32876189Y20344177D01*
X32903700Y20446852D01*
X32903700Y20553148D01*
X32876189Y20655823D01*
X32823041Y20747878D01*
X32747878Y20823041D01*
X32655823Y20876189D01*
X32553148Y20903700D01*
X32446852Y20903700D01*
X32344177Y20876189D01*
X32344175Y20876188D01*
X32344174Y20876188D01*
X32252125Y20823043D01*
X32252119Y20823039D01*
X32176961Y20747881D01*
X32176957Y20747875D01*
X32123812Y20655826D01*
X32123812Y20655825D01*
X32123811Y20655823D01*
X32119774Y20640757D01*
X32083410Y20581097D01*
X32020563Y20550568D01*
X31951188Y20558863D01*
X31897310Y20603348D01*
X31880226Y20640756D01*
X31876189Y20655823D01*
X31823041Y20747878D01*
X31747878Y20823041D01*
X31655823Y20876189D01*
X31553148Y20903700D01*
X31446852Y20903700D01*
X31344177Y20876189D01*
X31344175Y20876188D01*
X31344174Y20876188D01*
X31252125Y20823043D01*
X31252119Y20823039D01*
X31176961Y20747881D01*
X31176957Y20747875D01*
X31123812Y20655826D01*
X31123812Y20655825D01*
X31123811Y20655823D01*
X31119774Y20640757D01*
X31083410Y20581097D01*
X31020563Y20550568D01*
X30951188Y20558863D01*
X30897310Y20603348D01*
X30880226Y20640756D01*
X30876189Y20655823D01*
X30823041Y20747878D01*
X30747878Y20823041D01*
X30655823Y20876189D01*
X30640756Y20880226D01*
X30581097Y20916589D01*
X30550567Y20979435D01*
X30558861Y21048811D01*
X30603346Y21102690D01*
X30640755Y21119774D01*
X30655823Y21123811D01*
X30747878Y21176959D01*
X30823041Y21252122D01*
X30876189Y21344177D01*
X30903700Y21446852D01*
X30903700Y21553148D01*
X30876189Y21655823D01*
X30823041Y21747878D01*
X30747878Y21823041D01*
X30655823Y21876189D01*
X30553148Y21903700D01*
X30446852Y21903700D01*
X30344177Y21876189D01*
X30344175Y21876188D01*
X30344174Y21876188D01*
X30252125Y21823043D01*
X30252119Y21823039D01*
X30176961Y21747881D01*
X30176957Y21747875D01*
X30123812Y21655826D01*
X30123812Y21655825D01*
X30123811Y21655823D01*
X30119774Y21640757D01*
X30083410Y21581097D01*
X30020563Y21550568D01*
X29951188Y21558863D01*
X29897310Y21603348D01*
X29880226Y21640756D01*
X29876189Y21655823D01*
X29823041Y21747878D01*
X29747878Y21823041D01*
X29655823Y21876189D01*
X29553148Y21903700D01*
X29446852Y21903700D01*
X29344177Y21876189D01*
X29344175Y21876188D01*
X29344174Y21876188D01*
X29252125Y21823043D01*
X29252119Y21823039D01*
X29176961Y21747881D01*
X29176957Y21747875D01*
X29123812Y21655826D01*
X29123812Y21655825D01*
X29123811Y21655823D01*
X29119774Y21640757D01*
X29083410Y21581097D01*
X29020563Y21550568D01*
X28951188Y21558863D01*
X28897310Y21603348D01*
X28880226Y21640756D01*
X28876189Y21655823D01*
X28823041Y21747878D01*
X28747878Y21823041D01*
X28655823Y21876189D01*
X28553148Y21903700D01*
X28446852Y21903700D01*
X28344177Y21876189D01*
X28344175Y21876188D01*
X28344174Y21876188D01*
X28252125Y21823043D01*
X28252119Y21823039D01*
X28176961Y21747881D01*
X28176957Y21747875D01*
X28123812Y21655826D01*
X28123812Y21655825D01*
X28123811Y21655823D01*
X28119774Y21640757D01*
X28083410Y21581097D01*
X28020563Y21550568D01*
X27951188Y21558863D01*
X27897310Y21603348D01*
X27880226Y21640756D01*
X27876189Y21655823D01*
X27823041Y21747878D01*
X27747878Y21823041D01*
X27655823Y21876189D01*
X27553148Y21903700D01*
X27446852Y21903700D01*
X27344177Y21876189D01*
X27344175Y21876188D01*
X27344174Y21876188D01*
X27252125Y21823043D01*
X27252119Y21823039D01*
X27176961Y21747881D01*
X27176957Y21747875D01*
X27123812Y21655826D01*
X27123812Y21655825D01*
X27123811Y21655823D01*
X27119774Y21640757D01*
X27083410Y21581097D01*
X27020563Y21550568D01*
X26951188Y21558863D01*
X26897310Y21603348D01*
X26880226Y21640756D01*
X26876189Y21655823D01*
X26823041Y21747878D01*
X26747878Y21823041D01*
X26655823Y21876189D01*
X26640756Y21880226D01*
X26581097Y21916589D01*
X26550567Y21979435D01*
X26558861Y22048811D01*
X26603346Y22102690D01*
X26640755Y22119774D01*
X26655823Y22123811D01*
X26747878Y22176959D01*
X26823041Y22252122D01*
X26876189Y22344177D01*
X26903700Y22446852D01*
X26903700Y22553148D01*
X26876189Y22655823D01*
X26823041Y22747878D01*
X26747878Y22823041D01*
X26655823Y22876189D01*
X26640756Y22880226D01*
X26581097Y22916589D01*
X26550567Y22979435D01*
X26558861Y23048811D01*
X26603346Y23102690D01*
X26640755Y23119774D01*
X26655823Y23123811D01*
X26747878Y23176959D01*
X26823041Y23252122D01*
X26876189Y23344177D01*
X26903700Y23446852D01*
X26903700Y23553148D01*
X26876189Y23655823D01*
X26823041Y23747878D01*
X26747878Y23823041D01*
X26665091Y23870838D01*
X26655825Y23876188D01*
X26655824Y23876189D01*
X26655823Y23876189D01*
X26553148Y23903700D01*
X26446852Y23903700D01*
X26344177Y23876189D01*
X26344175Y23876188D01*
X26344174Y23876188D01*
X26252125Y23823043D01*
X26252119Y23823039D01*
X26176961Y23747881D01*
X26176957Y23747875D01*
X26123812Y23655826D01*
X26123812Y23655825D01*
X26123811Y23655823D01*
X26119774Y23640757D01*
X26083410Y23581097D01*
X26020563Y23550568D01*
X25951188Y23558863D01*
X25897310Y23603348D01*
X25880226Y23640756D01*
X25876189Y23655823D01*
X25823041Y23747878D01*
X25747878Y23823041D01*
X25665091Y23870838D01*
X25655825Y23876188D01*
X25655824Y23876189D01*
X25655823Y23876189D01*
X25553148Y23903700D01*
X25446852Y23903700D01*
X25344177Y23876189D01*
X25344175Y23876188D01*
X25344174Y23876188D01*
X25252125Y23823043D01*
X25252119Y23823039D01*
X25176961Y23747881D01*
X25176957Y23747875D01*
X25123812Y23655826D01*
X25123812Y23655825D01*
X25123811Y23655823D01*
X25096300Y23553148D01*
X25096300Y23446852D01*
X25123811Y23344177D01*
X25176959Y23252122D01*
X25252122Y23176959D01*
X25344177Y23123811D01*
X25359243Y23119775D01*
X25418903Y23083410D01*
X25449432Y23020563D01*
X25441137Y22951188D01*
X25396652Y22897310D01*
X25359244Y22880227D01*
X25344177Y22876189D01*
X25344175Y22876188D01*
X25344174Y22876188D01*
X25252125Y22823043D01*
X25252119Y22823039D01*
X25176961Y22747881D01*
X25176957Y22747875D01*
X25123812Y22655826D01*
X25123812Y22655825D01*
X25123811Y22655823D01*
X25096300Y22553148D01*
X25096300Y22446852D01*
X25123811Y22344177D01*
X25123812Y22344176D01*
X25123812Y22344175D01*
X25128548Y22335972D01*
X25176959Y22252122D01*
X25252122Y22176959D01*
X25344177Y22123811D01*
X25359243Y22119775D01*
X25418903Y22083410D01*
X25449432Y22020563D01*
X25441137Y21951188D01*
X25396652Y21897310D01*
X25359244Y21880227D01*
X25344177Y21876189D01*
X25344175Y21876188D01*
X25344174Y21876188D01*
X25252125Y21823043D01*
X25252119Y21823039D01*
X25176961Y21747881D01*
X25176957Y21747875D01*
X25123812Y21655826D01*
X25123812Y21655825D01*
X25123811Y21655823D01*
X25096300Y21553148D01*
X25096300Y21446852D01*
X25123811Y21344177D01*
X25176959Y21252122D01*
X25252122Y21176959D01*
X25344177Y21123811D01*
X25359243Y21119775D01*
X25418903Y21083410D01*
X25449432Y21020563D01*
X25441137Y20951188D01*
X25396652Y20897310D01*
X25359244Y20880227D01*
X25344177Y20876189D01*
X25344175Y20876188D01*
X25344174Y20876188D01*
X25252125Y20823043D01*
X25252119Y20823039D01*
X25176961Y20747881D01*
X25176957Y20747875D01*
X25123812Y20655826D01*
X25123812Y20655825D01*
X25123811Y20655823D01*
X25096300Y20553148D01*
X25096300Y20446852D01*
X25123811Y20344177D01*
X25123812Y20344176D01*
X25123812Y20344175D01*
X25134017Y20326500D01*
X25176959Y20252122D01*
X25252122Y20176959D01*
X25344177Y20123811D01*
X25359243Y20119775D01*
X25418903Y20083410D01*
X25449432Y20020563D01*
X25441137Y19951188D01*
X25396652Y19897310D01*
X25359244Y19880227D01*
X25344177Y19876189D01*
X25344175Y19876188D01*
X25344174Y19876188D01*
X25252125Y19823043D01*
X25252119Y19823039D01*
X25176961Y19747881D01*
X25176957Y19747875D01*
X25123812Y19655826D01*
X25123812Y19655825D01*
X25123811Y19655823D01*
X25119774Y19640757D01*
X25083410Y19581097D01*
X25020563Y19550568D01*
X24951188Y19558863D01*
X24897310Y19603348D01*
X24880226Y19640756D01*
X24876189Y19655823D01*
X24823041Y19747878D01*
X24747878Y19823041D01*
X24674330Y19865504D01*
X24655825Y19876188D01*
X24655824Y19876189D01*
X24655823Y19876189D01*
X24553148Y19903700D01*
X24446852Y19903700D01*
X24344177Y19876189D01*
X24344175Y19876188D01*
X24344174Y19876188D01*
X24252125Y19823043D01*
X24252119Y19823039D01*
X24176961Y19747881D01*
X24176957Y19747875D01*
X24123812Y19655826D01*
X24123812Y19655825D01*
X24123811Y19655823D01*
X24119774Y19640757D01*
X24083410Y19581097D01*
X24020563Y19550568D01*
X23951188Y19558863D01*
X23897310Y19603348D01*
X23880226Y19640756D01*
X23876189Y19655823D01*
X23823041Y19747878D01*
X23747878Y19823041D01*
X23674330Y19865504D01*
X23655825Y19876188D01*
X23655824Y19876189D01*
X23655823Y19876189D01*
X23553148Y19903700D01*
X23446852Y19903700D01*
X23344177Y19876189D01*
X23344175Y19876188D01*
X23344174Y19876188D01*
X23252125Y19823043D01*
X23252119Y19823039D01*
X23176961Y19747881D01*
X23176957Y19747875D01*
X23123812Y19655826D01*
X23123812Y19655825D01*
X23123811Y19655823D01*
X23096300Y19553148D01*
X23096300Y19446852D01*
X23123811Y19344177D01*
X23123812Y19344176D01*
X23123812Y19344175D01*
X23138614Y19318537D01*
X23176959Y19252122D01*
X23252122Y19176959D01*
X23344177Y19123811D01*
X23359243Y19119775D01*
X23418903Y19083410D01*
X23449432Y19020563D01*
X23441137Y18951188D01*
X23396652Y18897310D01*
X23359244Y18880227D01*
X23344177Y18876189D01*
X23344175Y18876188D01*
X23344174Y18876188D01*
X23252125Y18823043D01*
X23252119Y18823039D01*
X23176961Y18747881D01*
X23176957Y18747875D01*
X23123812Y18655826D01*
X23123812Y18655825D01*
X23123811Y18655823D01*
X23096300Y18553148D01*
X23096300Y18446852D01*
X23123811Y18344177D01*
X23176959Y18252122D01*
X23252122Y18176959D01*
X23344177Y18123811D01*
X23359243Y18119775D01*
X23418903Y18083410D01*
X23449432Y18020563D01*
X23441137Y17951188D01*
X23396652Y17897310D01*
X23359244Y17880227D01*
X23344177Y17876189D01*
X23344175Y17876188D01*
X23344174Y17876188D01*
X23252125Y17823043D01*
X23252119Y17823039D01*
X23176961Y17747881D01*
X23176957Y17747875D01*
X23123812Y17655826D01*
X23123812Y17655825D01*
X23123811Y17655823D01*
X23096300Y17553148D01*
X23096300Y17446852D01*
X23123811Y17344177D01*
X23176959Y17252122D01*
X23252122Y17176959D01*
X23344177Y17123811D01*
X23359243Y17119775D01*
X23418903Y17083410D01*
X23449432Y17020563D01*
X23441137Y16951188D01*
X23396652Y16897310D01*
X23359244Y16880227D01*
X23344177Y16876189D01*
X23344175Y16876188D01*
X23344174Y16876188D01*
X23252125Y16823043D01*
X23252119Y16823039D01*
X23176961Y16747881D01*
X23176957Y16747875D01*
X23123812Y16655826D01*
X23123812Y16655825D01*
X23123811Y16655823D01*
X23096300Y16553148D01*
X23096300Y16446852D01*
X23123811Y16344177D01*
X23123813Y16344174D01*
X23126727Y16337138D01*
X23130233Y16304503D01*
X23134901Y16272044D01*
X23133946Y16269954D01*
X23134192Y16267668D01*
X23119505Y16238334D01*
X23105876Y16208488D01*
X23103941Y16207245D01*
X23102913Y16205190D01*
X23074695Y16188450D01*
X23047098Y16170714D01*
X23044065Y16170278D01*
X23042823Y16169541D01*
X23012163Y16165691D01*
X22879801Y16165691D01*
X22812762Y16185376D01*
X22792120Y16202010D01*
X21883766Y17110364D01*
X21850281Y17171687D01*
X21847447Y17198045D01*
X21847447Y17299624D01*
X21867132Y17366663D01*
X21919936Y17412418D01*
X21939349Y17419398D01*
X21955823Y17423811D01*
X22047878Y17476959D01*
X22123041Y17552122D01*
X22176189Y17644177D01*
X22203700Y17746852D01*
X22203700Y17853148D01*
X22176189Y17955823D01*
X22123041Y18047878D01*
X22047878Y18123041D01*
X21955823Y18176189D01*
X21853148Y18203700D01*
X21746852Y18203700D01*
X21644177Y18176189D01*
X21644175Y18176188D01*
X21644174Y18176188D01*
X21552125Y18123043D01*
X21552119Y18123039D01*
X21476961Y18047881D01*
X21476957Y18047875D01*
X21423812Y17955826D01*
X21423812Y17955825D01*
X21423811Y17955823D01*
X21419774Y17940757D01*
X21383410Y17881097D01*
X21320563Y17850568D01*
X21251188Y17858863D01*
X21197310Y17903348D01*
X21180226Y17940756D01*
X21176189Y17955823D01*
X21123041Y18047878D01*
X21047878Y18123041D01*
X20955823Y18176189D01*
X20853148Y18203700D01*
X20746852Y18203700D01*
X20644177Y18176189D01*
X20644175Y18176188D01*
X20644174Y18176188D01*
X20552125Y18123043D01*
X20552119Y18123039D01*
X20476961Y18047881D01*
X20476957Y18047875D01*
X20423812Y17955826D01*
X20423812Y17955825D01*
X20423811Y17955823D01*
X20411602Y17910255D01*
X20411254Y17908957D01*
X20400192Y17890810D01*
X20393541Y17870629D01*
X20382373Y17861576D01*
X20374889Y17849297D01*
X20355773Y17840012D01*
X20339266Y17826629D01*
X20324974Y17825051D01*
X20312042Y17818768D01*
X20290943Y17821291D01*
X20269819Y17818957D01*
X20249985Y17826188D01*
X20242666Y17827063D01*
X20236298Y17830006D01*
X20232825Y17831732D01*
X20155823Y17876189D01*
X20128774Y17883437D01*
X20117669Y17888955D01*
X20100764Y17904602D01*
X20081097Y17916589D01*
X20075610Y17927884D01*
X20066393Y17936415D01*
X20060631Y17958717D01*
X20050567Y17979435D01*
X20052057Y17991906D01*
X20048917Y18004064D01*
X20056126Y18025939D01*
X20058861Y18048811D01*
X20066857Y18058496D01*
X20070788Y18070422D01*
X20088679Y18084927D01*
X20103346Y18102690D01*
X20119937Y18110267D01*
X20125063Y18114422D01*
X20130304Y18115001D01*
X20140755Y18119774D01*
X20155823Y18123811D01*
X20247878Y18176959D01*
X20323041Y18252122D01*
X20376189Y18344177D01*
X20403700Y18446852D01*
X20403700Y18553148D01*
X20376189Y18655823D01*
X20323041Y18747878D01*
X20247878Y18823041D01*
X20155823Y18876189D01*
X20140756Y18880226D01*
X20081097Y18916589D01*
X20050567Y18979435D01*
X20058861Y19048811D01*
X20103346Y19102690D01*
X20140755Y19119774D01*
X20155823Y19123811D01*
X20247878Y19176959D01*
X20323041Y19252122D01*
X20376189Y19344177D01*
X20403700Y19446852D01*
X20403700Y19553148D01*
X20376189Y19655823D01*
X20323041Y19747878D01*
X20247878Y19823041D01*
X20174330Y19865504D01*
X20155825Y19876188D01*
X20155824Y19876189D01*
X20155823Y19876189D01*
X20053148Y19903700D01*
X19946852Y19903700D01*
X19844177Y19876189D01*
X19844175Y19876188D01*
X19844174Y19876188D01*
X19752125Y19823043D01*
X19752119Y19823039D01*
X19676961Y19747881D01*
X19676957Y19747875D01*
X19623812Y19655826D01*
X19623812Y19655825D01*
X19623811Y19655823D01*
X19619774Y19640757D01*
X19583410Y19581097D01*
X19520563Y19550568D01*
X19451188Y19558863D01*
X19397310Y19603348D01*
X19380226Y19640756D01*
X19376189Y19655823D01*
X19323041Y19747878D01*
X19247878Y19823041D01*
X19174330Y19865504D01*
X19155825Y19876188D01*
X19155823Y19876189D01*
X19140756Y19880226D01*
X19081097Y19916589D01*
X19050567Y19979435D01*
X19058861Y20048811D01*
X19103346Y20102690D01*
X19140755Y20119774D01*
X19155823Y20123811D01*
X19247878Y20176959D01*
X19323041Y20252122D01*
X19376189Y20344177D01*
X19403700Y20446852D01*
X19403700Y20553148D01*
X19376189Y20655823D01*
X19323041Y20747878D01*
X19247878Y20823041D01*
X19155823Y20876189D01*
X19140756Y20880226D01*
X19081097Y20916589D01*
X19050567Y20979435D01*
X19058861Y21048811D01*
X19103346Y21102690D01*
X19140755Y21119774D01*
X19155823Y21123811D01*
X19247878Y21176959D01*
X19323041Y21252122D01*
X19376189Y21344177D01*
X19403700Y21446852D01*
X19403700Y21553148D01*
X19376189Y21655823D01*
X19323041Y21747878D01*
X19247878Y21823041D01*
X19155823Y21876189D01*
X19140756Y21880226D01*
X19081097Y21916589D01*
X19050567Y21979435D01*
X19058861Y22048811D01*
X19103346Y22102690D01*
X19140755Y22119774D01*
X19155823Y22123811D01*
X19247878Y22176959D01*
X19323041Y22252122D01*
X19376189Y22344177D01*
X19403700Y22446852D01*
X19403700Y22553148D01*
X19397950Y22574608D01*
X19399613Y22644458D01*
X19438776Y22702320D01*
X19503005Y22729823D01*
X19517725Y22730700D01*
X21002672Y22730700D01*
X21002674Y22730700D01*
X21086273Y22753101D01*
X21138067Y22783004D01*
X21161227Y22796375D01*
X24259233Y25894381D01*
X24320556Y25927866D01*
X24346914Y25930700D01*
X29567737Y25930700D01*
X29634776Y25911015D01*
G37*
%TD.AperFunction*%
%TA.AperFunction,Conductor*%
G36*
X27151894Y14096857D02*
G01*
X27151961Y14097360D01*
X27160015Y14096300D01*
X27160017Y14096299D01*
X27160019Y14096299D01*
X27247580Y14096299D01*
X27247596Y14096300D01*
X29707372Y14096300D01*
X29774411Y14076615D01*
X29795053Y14059981D01*
X29974801Y13880233D01*
X29990654Y13864381D01*
X30024139Y13803058D01*
X30019155Y13733367D01*
X29977284Y13677433D01*
X29911819Y13653016D01*
X29902973Y13652700D01*
X26228159Y13652700D01*
X26161120Y13672385D01*
X26140478Y13689019D01*
X25941661Y13887836D01*
X25908176Y13949159D01*
X25913160Y14018851D01*
X25955032Y14074784D01*
X26020496Y14099201D01*
X26029342Y14099517D01*
X27131683Y14099517D01*
X27151894Y14096857D01*
G37*
%TD.AperFunction*%
%TA.AperFunction,Conductor*%
G36*
X29600158Y15066337D02*
G01*
X29620800Y15049703D01*
X29755122Y14915381D01*
X29788607Y14854058D01*
X29783623Y14784366D01*
X29741751Y14728433D01*
X29676287Y14704016D01*
X29667441Y14703700D01*
X27265096Y14703700D01*
X27244888Y14706360D01*
X27244822Y14705856D01*
X27236767Y14706917D01*
X27236766Y14706917D01*
X25850140Y14706917D01*
X25770173Y14706917D01*
X25770171Y14706917D01*
X25695750Y14686977D01*
X25695751Y14686976D01*
X25692932Y14686221D01*
X25623681Y14646238D01*
X25623678Y14646236D01*
X25577315Y14599872D01*
X25515992Y14566387D01*
X25489634Y14563553D01*
X22902931Y14563553D01*
X22835892Y14583238D01*
X22790137Y14636042D01*
X22780193Y14705200D01*
X22788370Y14735006D01*
X22789031Y14736604D01*
X22789036Y14736612D01*
X22816547Y14839287D01*
X22816547Y14945583D01*
X22816513Y14945841D01*
X22816547Y14946059D01*
X22816547Y14953710D01*
X22817740Y14953710D01*
X22827281Y15014876D01*
X22873663Y15067130D01*
X22939453Y15086022D01*
X29533119Y15086022D01*
X29600158Y15066337D01*
G37*
%TD.AperFunction*%
%TA.AperFunction,Conductor*%
G36*
X13389880Y17276615D02*
G01*
X13410522Y17259981D01*
X15730122Y14940381D01*
X15763607Y14879058D01*
X15758623Y14809366D01*
X15716751Y14753433D01*
X15651287Y14729016D01*
X15642441Y14728700D01*
X14568981Y14728700D01*
X14501942Y14748385D01*
X14456187Y14801189D01*
X14446243Y14870347D01*
X14475268Y14933903D01*
X14481300Y14940381D01*
X14494629Y14953710D01*
X14523041Y14982122D01*
X14576189Y15074177D01*
X14603700Y15176852D01*
X14603700Y15283148D01*
X14576189Y15385823D01*
X14523041Y15477878D01*
X14447878Y15553041D01*
X14355823Y15606189D01*
X14253148Y15633700D01*
X14146852Y15633700D01*
X14044177Y15606189D01*
X14044175Y15606188D01*
X14044174Y15606188D01*
X13952125Y15553043D01*
X13952119Y15553039D01*
X13876961Y15477881D01*
X13876957Y15477875D01*
X13823812Y15385826D01*
X13823812Y15385825D01*
X13823811Y15385823D01*
X13796300Y15283148D01*
X13796300Y15176852D01*
X13823811Y15074177D01*
X13823812Y15074176D01*
X13823812Y15074175D01*
X13828337Y15066337D01*
X13876959Y14982122D01*
X13876961Y14982120D01*
X13918700Y14940381D01*
X13952185Y14879058D01*
X13947201Y14809366D01*
X13905329Y14753433D01*
X13839865Y14729016D01*
X13831019Y14728700D01*
X12516000Y14728700D01*
X12429451Y14728700D01*
X12348185Y14706925D01*
X12316096Y14702700D01*
X12033903Y14702700D01*
X12001617Y14707003D01*
X12001611Y14706979D01*
X11974589Y14714220D01*
X11920549Y14728700D01*
X11816000Y14728700D01*
X11729451Y14728700D01*
X11648185Y14706925D01*
X11616096Y14702700D01*
X11333903Y14702700D01*
X11301617Y14707003D01*
X11301611Y14706979D01*
X11274589Y14714220D01*
X11220549Y14728700D01*
X11116000Y14728700D01*
X11029451Y14728700D01*
X10948185Y14706925D01*
X10916096Y14702700D01*
X10633903Y14702700D01*
X10601617Y14707003D01*
X10601611Y14706979D01*
X10574589Y14714220D01*
X10520549Y14728700D01*
X10520547Y14728700D01*
X8687514Y14728700D01*
X8620475Y14748385D01*
X8599833Y14765019D01*
X8151826Y15213026D01*
X8102899Y15241273D01*
X8076873Y15256299D01*
X8076871Y15256300D01*
X8076867Y15256302D01*
X8071295Y15258610D01*
X8016895Y15302454D01*
X7994834Y15368750D01*
X8012117Y15436448D01*
X8020384Y15448660D01*
X8023037Y15452119D01*
X8023041Y15452122D01*
X8076189Y15544177D01*
X8103700Y15646852D01*
X8103700Y15646856D01*
X8105111Y15652121D01*
X8137202Y15707706D01*
X8292181Y15862684D01*
X8332164Y15931936D01*
X8333615Y15937349D01*
X8352859Y16009174D01*
X8352860Y16009177D01*
X8352860Y16015536D01*
X8372545Y16082575D01*
X8425349Y16128330D01*
X8494507Y16138274D01*
X8508934Y16135315D01*
X8561722Y16121171D01*
X8561725Y16121171D01*
X8668016Y16121171D01*
X8668018Y16121171D01*
X8770693Y16148682D01*
X8862748Y16201830D01*
X8937911Y16276993D01*
X8991059Y16369048D01*
X9018570Y16471723D01*
X9018570Y16471727D01*
X9019980Y16476989D01*
X9052072Y16532577D01*
X9167124Y16647627D01*
X9207108Y16716879D01*
X9227804Y16794120D01*
X9227804Y16874087D01*
X9227804Y16876977D01*
X9247489Y16944016D01*
X9300293Y16989771D01*
X9369451Y16999715D01*
X9384331Y16995631D01*
X9384558Y16996478D01*
X9392405Y16994376D01*
X9392408Y16994374D01*
X9495083Y16966863D01*
X9495085Y16966863D01*
X9601377Y16966863D01*
X9601379Y16966863D01*
X9704054Y16994374D01*
X9796109Y17047522D01*
X9804671Y17056086D01*
X9851082Y17082878D01*
X9850432Y17084448D01*
X9857940Y17087558D01*
X9857942Y17087559D01*
X9927194Y17127542D01*
X10059633Y17259981D01*
X10120956Y17293466D01*
X10147314Y17296300D01*
X13322841Y17296300D01*
X13389880Y17276615D01*
G37*
%TD.AperFunction*%
%TA.AperFunction,Conductor*%
G36*
X15467004Y25909139D02*
G01*
X15512759Y25856335D01*
X15522703Y25787177D01*
X15493678Y25723621D01*
X15487646Y25717143D01*
X15237029Y25466527D01*
X15237027Y25466524D01*
X15197042Y25397270D01*
X15176348Y25320035D01*
X15176348Y20757208D01*
X15156663Y20690169D01*
X15140029Y20669527D01*
X14779865Y20309363D01*
X14718542Y20275878D01*
X14648850Y20280862D01*
X14592917Y20322734D01*
X14584797Y20335044D01*
X14579525Y20344175D01*
X14573063Y20355368D01*
X14497900Y20430531D01*
X14436530Y20465963D01*
X14405847Y20483678D01*
X14405846Y20483679D01*
X14405845Y20483679D01*
X14303170Y20511190D01*
X14196874Y20511190D01*
X14094199Y20483679D01*
X14094197Y20483678D01*
X14094196Y20483678D01*
X14002147Y20430533D01*
X14002141Y20430529D01*
X13926983Y20355371D01*
X13926981Y20355368D01*
X13886009Y20284403D01*
X13835441Y20236188D01*
X13766834Y20222966D01*
X13701969Y20248934D01*
X13671235Y20284404D01*
X13646932Y20326498D01*
X13623041Y20367878D01*
X13547878Y20443041D01*
X13455823Y20496189D01*
X13353148Y20523700D01*
X13246852Y20523700D01*
X13144177Y20496189D01*
X13144175Y20496188D01*
X13144174Y20496188D01*
X13052125Y20443043D01*
X13052119Y20443039D01*
X12976961Y20367881D01*
X12976957Y20367875D01*
X12923812Y20275826D01*
X12923812Y20275825D01*
X12923811Y20275823D01*
X12896300Y20173148D01*
X12896300Y20066852D01*
X12919753Y19979321D01*
X12924986Y19959793D01*
X12923323Y19889943D01*
X12884160Y19832081D01*
X12819931Y19804577D01*
X12805211Y19803700D01*
X11938440Y19803700D01*
X11871401Y19823385D01*
X11831053Y19865700D01*
X11817056Y19889943D01*
X11798041Y19922878D01*
X11722878Y19998041D01*
X11656050Y20036624D01*
X11630825Y20051188D01*
X11630824Y20051189D01*
X11630823Y20051189D01*
X11555559Y20071356D01*
X11495899Y20107720D01*
X11465370Y20170567D01*
X11473665Y20239943D01*
X11518150Y20293820D01*
X11555555Y20310903D01*
X11602224Y20323407D01*
X11694279Y20376555D01*
X11769442Y20451718D01*
X11822590Y20543773D01*
X11850101Y20646448D01*
X11850101Y20752744D01*
X11822590Y20855419D01*
X11769442Y20947474D01*
X11694279Y21022637D01*
X11618206Y21066558D01*
X11602226Y21075784D01*
X11602225Y21075785D01*
X11602224Y21075785D01*
X11499549Y21103296D01*
X11393253Y21103296D01*
X11290578Y21075785D01*
X11290576Y21075784D01*
X11290575Y21075784D01*
X11198526Y21022639D01*
X11198520Y21022635D01*
X11123362Y20947477D01*
X11123358Y20947471D01*
X11070213Y20855422D01*
X11070213Y20855421D01*
X11070212Y20855419D01*
X11042701Y20752744D01*
X11042701Y20646448D01*
X11070212Y20543773D01*
X11123360Y20451718D01*
X11198523Y20376555D01*
X11290578Y20323407D01*
X11365840Y20303241D01*
X11425500Y20266878D01*
X11456030Y20204031D01*
X11447736Y20134655D01*
X11403251Y20080777D01*
X11365842Y20063693D01*
X11319177Y20051189D01*
X11319176Y20051189D01*
X11319174Y20051188D01*
X11227125Y19998043D01*
X11227119Y19998039D01*
X11151961Y19922881D01*
X11151957Y19922875D01*
X11098812Y19830826D01*
X11098810Y19830821D01*
X11096593Y19822547D01*
X11060225Y19762889D01*
X10997376Y19732363D01*
X10928001Y19740661D01*
X10914820Y19747260D01*
X10868730Y19773870D01*
X10868729Y19773871D01*
X10868728Y19773871D01*
X10766053Y19801382D01*
X10659757Y19801382D01*
X10557082Y19773871D01*
X10557080Y19773871D01*
X10557080Y19773870D01*
X10557077Y19773869D01*
X10529792Y19758116D01*
X10461892Y19741645D01*
X10395865Y19764498D01*
X10352676Y19819420D01*
X10343794Y19865504D01*
X10343794Y20955966D01*
X10343794Y20955968D01*
X10324801Y21026850D01*
X10288110Y21090402D01*
X10236220Y21142292D01*
X10236219Y21142293D01*
X9892415Y21486097D01*
X9858930Y21547420D01*
X9856096Y21573778D01*
X9856096Y23438538D01*
X9855738Y23439873D01*
X9853868Y23446852D01*
X9837103Y23509421D01*
X9817036Y23544177D01*
X9811857Y23553148D01*
X9800412Y23572973D01*
X9744203Y23629182D01*
X9744180Y23629203D01*
X9419945Y23953438D01*
X9386460Y24014761D01*
X9383626Y24041119D01*
X9383626Y24300647D01*
X9403311Y24367686D01*
X9456115Y24413441D01*
X9525273Y24423385D01*
X9588829Y24394360D01*
X9622190Y24348092D01*
X9623810Y24344179D01*
X9623811Y24344177D01*
X9676959Y24252122D01*
X9752122Y24176959D01*
X9844177Y24123811D01*
X9946852Y24096300D01*
X9946854Y24096300D01*
X10053146Y24096300D01*
X10053148Y24096300D01*
X10155823Y24123811D01*
X10247878Y24176959D01*
X10323041Y24252122D01*
X10376189Y24344177D01*
X10397971Y24425475D01*
X10434334Y24485132D01*
X10497180Y24515662D01*
X10566556Y24507368D01*
X10620435Y24462883D01*
X10629304Y24446409D01*
X10631754Y24442165D01*
X10631755Y24442163D01*
X10684903Y24350108D01*
X10684905Y24350106D01*
X10765813Y24269198D01*
X10764351Y24267737D01*
X10799043Y24220224D01*
X10803197Y24150478D01*
X10780731Y24102795D01*
X10776961Y24097882D01*
X10723812Y24005826D01*
X10723812Y24005825D01*
X10723811Y24005823D01*
X10696300Y23903148D01*
X10696300Y23796852D01*
X10723811Y23694177D01*
X10776959Y23602122D01*
X10852122Y23526959D01*
X10944177Y23473811D01*
X11046852Y23446300D01*
X11046854Y23446300D01*
X11083098Y23446300D01*
X11150137Y23426615D01*
X11195892Y23373811D01*
X11205836Y23304653D01*
X11176811Y23241097D01*
X11145098Y23214913D01*
X11138883Y23211325D01*
X11138877Y23211321D01*
X11063719Y23136163D01*
X11063715Y23136157D01*
X11010570Y23044108D01*
X11010570Y23044107D01*
X11010569Y23044105D01*
X10983058Y22941430D01*
X10983058Y22835134D01*
X11010569Y22732459D01*
X11010570Y22732458D01*
X11010570Y22732457D01*
X11012091Y22729823D01*
X11063717Y22640404D01*
X11063719Y22640402D01*
X11104653Y22599468D01*
X11138138Y22538145D01*
X11133154Y22468453D01*
X11104657Y22424110D01*
X11087670Y22407122D01*
X11087664Y22407114D01*
X11034519Y22315065D01*
X11034519Y22315064D01*
X11034518Y22315062D01*
X11007007Y22212387D01*
X11007007Y22106091D01*
X11034518Y22003416D01*
X11087666Y21911361D01*
X11162829Y21836198D01*
X11254884Y21783050D01*
X11357559Y21755539D01*
X11357561Y21755539D01*
X11463853Y21755539D01*
X11463855Y21755539D01*
X11566530Y21783050D01*
X11658585Y21836198D01*
X11733748Y21911361D01*
X11786896Y22003416D01*
X11814407Y22106091D01*
X11814407Y22212387D01*
X11786896Y22315062D01*
X11733748Y22407117D01*
X11692811Y22448054D01*
X11659326Y22509377D01*
X11664310Y22579069D01*
X11692811Y22623416D01*
X11693208Y22623813D01*
X11709799Y22640404D01*
X11762947Y22732459D01*
X11790458Y22835134D01*
X11790458Y22941430D01*
X11762947Y23044105D01*
X11709799Y23136160D01*
X11634636Y23211323D01*
X11542581Y23264471D01*
X11439906Y23291982D01*
X11403660Y23291982D01*
X11336621Y23311667D01*
X11290866Y23364471D01*
X11280922Y23433629D01*
X11309947Y23497185D01*
X11310556Y23497882D01*
X11324014Y23513182D01*
X11347878Y23526959D01*
X11411019Y23590100D01*
X12128836Y23590100D01*
X12128836Y23483804D01*
X12156347Y23381129D01*
X12156348Y23381128D01*
X12156348Y23381127D01*
X12168983Y23359242D01*
X12209495Y23289074D01*
X12284658Y23213911D01*
X12376713Y23160763D01*
X12479388Y23133252D01*
X12479390Y23133252D01*
X12538017Y23133252D01*
X12605056Y23113567D01*
X12650811Y23060763D01*
X12662017Y23009252D01*
X12662017Y22929437D01*
X12689528Y22826762D01*
X12742676Y22734707D01*
X12817839Y22659544D01*
X12909894Y22606396D01*
X13012569Y22578885D01*
X13012571Y22578885D01*
X13118863Y22578885D01*
X13118865Y22578885D01*
X13221540Y22606396D01*
X13313595Y22659544D01*
X13388758Y22734707D01*
X13441906Y22826762D01*
X13469417Y22929437D01*
X13469417Y23035733D01*
X13441906Y23138408D01*
X13388758Y23230463D01*
X13313595Y23305626D01*
X13246826Y23344175D01*
X13221542Y23358773D01*
X13221541Y23358774D01*
X13221540Y23358774D01*
X13118865Y23386285D01*
X13060236Y23386285D01*
X12993197Y23405970D01*
X12947442Y23458774D01*
X12936236Y23510285D01*
X12936236Y23590098D01*
X12936236Y23590100D01*
X12908725Y23692775D01*
X12855577Y23784830D01*
X12780414Y23859993D01*
X12688359Y23913141D01*
X12585684Y23940652D01*
X12479388Y23940652D01*
X12376713Y23913141D01*
X12376711Y23913140D01*
X12376710Y23913140D01*
X12284661Y23859995D01*
X12284655Y23859991D01*
X12209497Y23784833D01*
X12209493Y23784827D01*
X12156348Y23692778D01*
X12156348Y23692777D01*
X12156347Y23692775D01*
X12128836Y23590100D01*
X11411019Y23590100D01*
X11423041Y23602122D01*
X11476189Y23694177D01*
X11503700Y23796852D01*
X11503700Y23903148D01*
X11476189Y24005823D01*
X11423041Y24097878D01*
X11347878Y24173041D01*
X11342131Y24178788D01*
X11343592Y24180250D01*
X11308899Y24227767D01*
X11304747Y24297513D01*
X11327219Y24345202D01*
X11330973Y24350097D01*
X11330985Y24350108D01*
X11384133Y24442163D01*
X11411644Y24544838D01*
X11411644Y24651134D01*
X11384133Y24753809D01*
X11330985Y24845864D01*
X11255822Y24921027D01*
X11252282Y24923071D01*
X11216205Y24943901D01*
X11167990Y24994468D01*
X11154768Y25063075D01*
X11180736Y25127940D01*
X11216205Y25158673D01*
X11247878Y25176959D01*
X11323041Y25252122D01*
X11376189Y25344177D01*
X11380225Y25359244D01*
X11416589Y25418903D01*
X11479435Y25449433D01*
X11548811Y25441139D01*
X11602690Y25396654D01*
X11619773Y25359245D01*
X11620082Y25358095D01*
X11623811Y25344177D01*
X11623812Y25344175D01*
X11624927Y25342244D01*
X11676959Y25252122D01*
X11752122Y25176959D01*
X11844177Y25123811D01*
X11946852Y25096300D01*
X11946854Y25096300D01*
X12053146Y25096300D01*
X12053148Y25096300D01*
X12155823Y25123811D01*
X12247878Y25176959D01*
X12323041Y25252122D01*
X12376189Y25344177D01*
X12380225Y25359244D01*
X12416589Y25418903D01*
X12479435Y25449433D01*
X12548811Y25441139D01*
X12602690Y25396654D01*
X12619773Y25359245D01*
X12620082Y25358095D01*
X12623811Y25344177D01*
X12623812Y25344175D01*
X12624927Y25342244D01*
X12676959Y25252122D01*
X12752122Y25176959D01*
X12844177Y25123811D01*
X12859243Y25119775D01*
X12918903Y25083410D01*
X12949432Y25020563D01*
X12941137Y24951188D01*
X12896652Y24897310D01*
X12859244Y24880227D01*
X12844177Y24876189D01*
X12844175Y24876188D01*
X12844174Y24876188D01*
X12752125Y24823043D01*
X12752119Y24823039D01*
X12676961Y24747881D01*
X12676957Y24747875D01*
X12623812Y24655826D01*
X12623812Y24655825D01*
X12623811Y24655823D01*
X12596300Y24553148D01*
X12596300Y24446852D01*
X12623811Y24344177D01*
X12676959Y24252122D01*
X12752122Y24176959D01*
X12844177Y24123811D01*
X12946852Y24096300D01*
X12946854Y24096300D01*
X13053146Y24096300D01*
X13053148Y24096300D01*
X13155823Y24123811D01*
X13247878Y24176959D01*
X13323041Y24252122D01*
X13376189Y24344177D01*
X13403700Y24446852D01*
X13403700Y24553148D01*
X13376189Y24655823D01*
X13323041Y24747878D01*
X13247878Y24823041D01*
X13166080Y24870267D01*
X13155825Y24876188D01*
X13155823Y24876189D01*
X13152949Y24876959D01*
X13140756Y24880226D01*
X13081097Y24916589D01*
X13050567Y24979435D01*
X13058861Y25048811D01*
X13103346Y25102690D01*
X13140755Y25119774D01*
X13155823Y25123811D01*
X13247878Y25176959D01*
X13323041Y25252122D01*
X13376189Y25344177D01*
X13380225Y25359244D01*
X13416589Y25418903D01*
X13479435Y25449433D01*
X13548811Y25441139D01*
X13602690Y25396654D01*
X13619773Y25359245D01*
X13620082Y25358095D01*
X13623811Y25344177D01*
X13623812Y25344175D01*
X13624927Y25342244D01*
X13676959Y25252122D01*
X13752122Y25176959D01*
X13844177Y25123811D01*
X13946852Y25096300D01*
X13946854Y25096300D01*
X14053146Y25096300D01*
X14053148Y25096300D01*
X14155823Y25123811D01*
X14247878Y25176959D01*
X14323041Y25252122D01*
X14376189Y25344177D01*
X14403700Y25446852D01*
X14403700Y25553148D01*
X14376189Y25655823D01*
X14325959Y25742824D01*
X14309486Y25810724D01*
X14332339Y25876751D01*
X14387260Y25919942D01*
X14433346Y25928824D01*
X15399965Y25928824D01*
X15467004Y25909139D01*
G37*
%TD.AperFunction*%
%TA.AperFunction,Conductor*%
G36*
X51503736Y35224274D02*
G01*
X51757638Y35208916D01*
X51772495Y35207112D01*
X52019000Y35161939D01*
X52033536Y35158356D01*
X52272791Y35083800D01*
X52286788Y35078492D01*
X52515319Y34975639D01*
X52528578Y34968680D01*
X52629658Y34907575D01*
X52743045Y34839030D01*
X52755356Y34830532D01*
X52931009Y34692917D01*
X52952636Y34675973D01*
X52963844Y34666043D01*
X53141042Y34488845D01*
X53150972Y34477637D01*
X53299739Y34287750D01*
X53305527Y34280363D01*
X53314033Y34268040D01*
X53443679Y34053579D01*
X53450638Y34040320D01*
X53553491Y33811789D01*
X53558800Y33797789D01*
X53633354Y33558539D01*
X53636938Y33543999D01*
X53682110Y33297500D01*
X53683915Y33282636D01*
X53699274Y33028737D01*
X53699500Y33021250D01*
X53699500Y22931812D01*
X53679815Y22864773D01*
X53627011Y22819018D01*
X53557853Y22809074D01*
X53494297Y22838099D01*
X53468113Y22869811D01*
X53448547Y22903700D01*
X53423041Y22947878D01*
X53347878Y23023041D01*
X53255823Y23076189D01*
X53153148Y23103700D01*
X53046852Y23103700D01*
X52944177Y23076189D01*
X52944175Y23076188D01*
X52944174Y23076188D01*
X52852125Y23023043D01*
X52852119Y23023039D01*
X52776961Y22947881D01*
X52776957Y22947875D01*
X52723812Y22855826D01*
X52723812Y22855825D01*
X52723811Y22855823D01*
X52706930Y22792819D01*
X52696300Y22753148D01*
X52696300Y22741804D01*
X52676615Y22674765D01*
X52659981Y22654123D01*
X52140381Y22134523D01*
X52079058Y22101038D01*
X52009366Y22106022D01*
X51953433Y22147894D01*
X51929016Y22213358D01*
X51928700Y22222204D01*
X51928700Y28886690D01*
X51928700Y28886692D01*
X51909707Y28957574D01*
X51873016Y29021126D01*
X51821126Y29073016D01*
X51821125Y29073017D01*
X51816795Y29077347D01*
X51816784Y29077357D01*
X50480086Y30414055D01*
X50480084Y30414058D01*
X50421125Y30473017D01*
X50357574Y30509707D01*
X50357575Y30509707D01*
X50328214Y30517574D01*
X50286692Y30528700D01*
X50286689Y30528700D01*
X45416804Y30528700D01*
X45349765Y30548385D01*
X45329123Y30565019D01*
X44015019Y31879123D01*
X43981534Y31940446D01*
X43978700Y31966804D01*
X43978700Y34753306D01*
X43978701Y34753319D01*
X43978701Y34836693D01*
X43978700Y34836695D01*
X43959709Y34907568D01*
X43959707Y34907571D01*
X43959707Y34907574D01*
X43923016Y34971126D01*
X43918503Y34975639D01*
X43881323Y35012820D01*
X43847839Y35074143D01*
X43852824Y35143835D01*
X43894696Y35199768D01*
X43960160Y35224184D01*
X43969005Y35224500D01*
X51452405Y35224500D01*
X51496249Y35224500D01*
X51503736Y35224274D01*
G37*
%TD.AperFunction*%
%TD*%
M02*
