%TF.GenerationSoftware,KiCad,Pcbnew,9.0.2*%
%TF.CreationDate,2026-02-15T12:31:08+01:00*%
%TF.ProjectId,PDNode-PDCard-5031,50444e6f-6465-42d5-9044-436172642d35,1.0.0*%
%TF.SameCoordinates,Original*%
%TF.FileFunction,Copper,L4,Inr*%
%TF.FilePolarity,Positive*%
%FSLAX46Y46*%
G04 Gerber Fmt 4.6, Leading zero omitted, Abs format (unit mm)*
G04 Created by KiCad (PCBNEW 9.0.2) date 2026-02-15 12:31:08*
%MOMM*%
%LPD*%
G01*
G04 APERTURE LIST*
%TA.AperFunction,ComponentPad*%
%ADD10C,0.700000*%
%TD*%
%TA.AperFunction,ComponentPad*%
%ADD11C,4.400000*%
%TD*%
%TA.AperFunction,HeatsinkPad*%
%ADD12C,0.500000*%
%TD*%
%TA.AperFunction,HeatsinkPad*%
%ADD13O,2.100000X1.000000*%
%TD*%
%TA.AperFunction,HeatsinkPad*%
%ADD14O,1.600000X1.000000*%
%TD*%
%TA.AperFunction,ComponentPad*%
%ADD15C,0.600000*%
%TD*%
%TA.AperFunction,ViaPad*%
%ADD16C,0.550000*%
%TD*%
%TA.AperFunction,ViaPad*%
%ADD17C,0.400000*%
%TD*%
%TA.AperFunction,Conductor*%
%ADD18C,0.350000*%
%TD*%
%TA.AperFunction,Conductor*%
%ADD19C,0.150000*%
%TD*%
G04 APERTURE END LIST*
D10*
%TO.N,GND*%
%TO.C,H3*%
X51500000Y31375000D03*
X50333274Y31858274D03*
X52666726Y31858274D03*
X49850000Y33025000D03*
D11*
X51500000Y33025000D03*
D10*
X53150000Y33025000D03*
X50333274Y34191726D03*
X52666726Y34191726D03*
X51500000Y34675000D03*
%TD*%
%TO.N,GND*%
%TO.C,H1*%
X2589229Y31371686D03*
X1422503Y31854960D03*
X3755955Y31854960D03*
X939229Y33021686D03*
D11*
X2589229Y33021686D03*
D10*
X4239229Y33021686D03*
X1422503Y34188412D03*
X3755955Y34188412D03*
X2589229Y34671686D03*
%TD*%
D12*
%TO.N,GND*%
%TO.C,IC2*%
X10775000Y16430000D03*
X10775000Y15730000D03*
X10775000Y15030000D03*
X11475000Y16430000D03*
X11475000Y15730000D03*
X11475000Y15030000D03*
X12175000Y16430000D03*
X12175000Y15730000D03*
X12175000Y15030000D03*
%TD*%
D13*
%TO.N,SHIELD*%
%TO.C,J1*%
X5605000Y26345000D03*
D14*
X1425000Y26345000D03*
D13*
X5605000Y17705000D03*
D14*
X1425000Y17705000D03*
%TD*%
D10*
%TO.N,GND*%
%TO.C,H2*%
X2619995Y9367466D03*
X1453269Y9850740D03*
X3786721Y9850740D03*
X969995Y11017466D03*
D11*
X2619995Y11017466D03*
D10*
X4269995Y11017466D03*
X1453269Y12184192D03*
X3786721Y12184192D03*
X2619995Y12667466D03*
%TD*%
D15*
%TO.N,GND*%
%TO.C,IC6*%
X40870000Y11910000D03*
X40870000Y10190000D03*
X41350000Y11050000D03*
X41830000Y11910000D03*
X41830000Y10190000D03*
%TD*%
D10*
%TO.N,GND*%
%TO.C,H4*%
X51500000Y9375000D03*
X50333274Y9858274D03*
X52666726Y9858274D03*
X49850000Y11025000D03*
D11*
X51500000Y11025000D03*
D10*
X53150000Y11025000D03*
X50333274Y12191726D03*
X52666726Y12191726D03*
X51500000Y12675000D03*
%TD*%
D16*
%TO.N,+24V*%
X24750000Y11500000D03*
X41000000Y28500000D03*
X31750000Y11500000D03*
X42250000Y17500000D03*
X39000000Y29500000D03*
X26750000Y9500000D03*
X25800000Y9500000D03*
X43000000Y29500000D03*
X40250000Y17500000D03*
X38000000Y30500000D03*
X42000000Y30500000D03*
X43000000Y30500000D03*
X42000000Y28500000D03*
X42250000Y16500000D03*
X27750000Y10500000D03*
X39250000Y17500000D03*
X37500000Y15500000D03*
X34750000Y10500000D03*
X41000000Y30500000D03*
X29750000Y11500000D03*
X29750000Y10500000D03*
X24750000Y9500000D03*
X43250000Y16500000D03*
X40000000Y30500000D03*
X25800000Y11500000D03*
X40250000Y16500000D03*
X30750000Y10500000D03*
X33750000Y10500000D03*
X27750000Y9500000D03*
X39000000Y30500000D03*
X42000000Y27500000D03*
X29750000Y9500000D03*
X35750000Y9500000D03*
X42000000Y29500000D03*
X34743530Y11500519D03*
X41250000Y16500000D03*
X43250000Y17500000D03*
X33750000Y11500000D03*
X35750000Y10500000D03*
X28750000Y9500000D03*
X40000000Y29500000D03*
X41000000Y29500000D03*
X41250000Y17500000D03*
X25800000Y10500000D03*
X38500000Y15500000D03*
X27750000Y11500000D03*
X34750000Y9500000D03*
X41000000Y27500000D03*
X43000000Y27500000D03*
X38000000Y29500000D03*
X32750000Y11500000D03*
X30750000Y11500000D03*
X32750000Y10500000D03*
X31750000Y10500000D03*
X24750000Y10500000D03*
X26750000Y11500000D03*
X39250000Y16500000D03*
X28750000Y10500000D03*
X28750000Y11500000D03*
X26750000Y10500000D03*
X43000000Y28500000D03*
D17*
%TO.N,GND*%
X32500000Y7500000D03*
X26664831Y31037565D03*
X25150000Y32000000D03*
X28600000Y23050000D03*
X3976821Y25291475D03*
X33400000Y22200000D03*
X23170727Y27504839D03*
X33500000Y8500000D03*
X33500000Y7500000D03*
X31500000Y9500000D03*
X1299809Y18771552D03*
X38100000Y28250000D03*
X13300000Y23700000D03*
X34000000Y22200000D03*
X25900000Y32000000D03*
X35189770Y15731521D03*
X6245000Y18825000D03*
X3950000Y16000000D03*
X28400000Y27950000D03*
X17700000Y8300000D03*
X25914831Y31037565D03*
X32100000Y15350000D03*
X2942044Y26075807D03*
X6801333Y31526681D03*
X1150000Y29250000D03*
X23920727Y28254839D03*
X37050000Y25500000D03*
X31500000Y8500000D03*
X29720000Y23100000D03*
X13500030Y22396439D03*
X1893632Y25291475D03*
X24670727Y28254839D03*
X1750000Y15900000D03*
X45800000Y9400000D03*
X44075000Y9445000D03*
X26446282Y13891533D03*
X27350000Y26800000D03*
X3360295Y18797270D03*
X27508860Y13869045D03*
X23170727Y26754839D03*
X34000000Y21600000D03*
X26650000Y32000000D03*
X10100000Y22500000D03*
X2299809Y18771552D03*
X30500000Y8500000D03*
X24900000Y34100000D03*
D16*
X47548253Y31945453D03*
D17*
X7600000Y10880000D03*
X23920727Y26754839D03*
X32500000Y9500000D03*
X37595000Y9800000D03*
X10900000Y10500000D03*
X5962500Y28700000D03*
X5974417Y29331608D03*
X32800000Y21600000D03*
X2893632Y25291475D03*
X53050000Y24450000D03*
X28548949Y13885911D03*
X8107924Y23250000D03*
X9900000Y10500000D03*
X11900488Y24172531D03*
X25164831Y31037565D03*
X5553226Y31174363D03*
X34614654Y28074701D03*
X32800000Y22200000D03*
X35250000Y27400000D03*
X11464007Y21422760D03*
X25250000Y14850000D03*
X6998867Y18804394D03*
X30500000Y7500000D03*
X33399260Y21614526D03*
X32500000Y8500000D03*
X23170727Y28254839D03*
X15579447Y10416321D03*
X34600000Y21600000D03*
X39450000Y26700000D03*
X9650000Y29700000D03*
X31500000Y7500000D03*
X28427075Y24162452D03*
X24670727Y27504839D03*
X33500000Y9500000D03*
X53100000Y23600000D03*
X3931534Y26070185D03*
X7028734Y25291475D03*
X32850000Y27450000D03*
X6028734Y25291475D03*
X29605904Y13880289D03*
X34682119Y28766220D03*
X5962499Y28044559D03*
X42850000Y9450000D03*
X36448237Y25473991D03*
X23920727Y27504839D03*
X7157418Y26041983D03*
X34600000Y22200000D03*
X52450000Y29350000D03*
X28400000Y25000000D03*
X8097331Y21646766D03*
X28400000Y25700000D03*
X13400000Y34100000D03*
X52950000Y21250000D03*
%TO.N,+24V_FILTERED*%
X30750000Y30000000D03*
X39750000Y34500000D03*
X31500000Y28500000D03*
X30750000Y29250000D03*
X42750000Y33000000D03*
X30000000Y28500000D03*
X40500000Y33000000D03*
X31500000Y23000000D03*
X42750000Y33750000D03*
X40500000Y34500000D03*
X33000000Y23000000D03*
X30000000Y29250000D03*
X39000000Y34500000D03*
X31500000Y31000000D03*
X42750000Y34500000D03*
X30750000Y27750000D03*
X42000000Y34500000D03*
X39750000Y33750000D03*
X32250000Y23000000D03*
X30750000Y31000000D03*
X31500000Y29250000D03*
X30750000Y24750000D03*
X30000000Y31000000D03*
X31500000Y23750000D03*
X30000000Y25500000D03*
X30000000Y27750000D03*
X42000000Y33000000D03*
X31500000Y27750000D03*
X31500000Y26250000D03*
X39000000Y33000000D03*
X39000000Y33750000D03*
X30750000Y28500000D03*
X42000000Y33750000D03*
X40500000Y33750000D03*
X31500000Y27000000D03*
X41250000Y33000000D03*
X30750000Y24000000D03*
X31500000Y30000000D03*
X30000000Y30000000D03*
X39750000Y33000000D03*
X30000000Y24750000D03*
X41250000Y34500000D03*
X30000000Y27000000D03*
X32250000Y23750000D03*
X30000000Y24000000D03*
X41250000Y33750000D03*
X30750000Y27000000D03*
%TO.N,+3.54V*%
X38050000Y26300000D03*
X37350000Y16390000D03*
X33500000Y29350000D03*
X37325000Y23950000D03*
%TO.N,+3.3V*%
X18796603Y10202332D03*
X22150000Y10750000D03*
X45750000Y12500000D03*
X46495558Y11751589D03*
X45000000Y13250000D03*
X5900000Y34150000D03*
X18028611Y10191739D03*
X7600000Y9900000D03*
X45750000Y11750000D03*
X45750000Y13250000D03*
X46500000Y13250000D03*
X46495558Y12505736D03*
X10700000Y31000000D03*
X45000000Y12500000D03*
X16600000Y12200000D03*
X51000000Y20600000D03*
X12420000Y33400000D03*
%TO.N,/Project Architecture/Adjustable 5A Buck Converter/PMIC_VOUT*%
X29500000Y20500000D03*
X30500000Y19500000D03*
X28500000Y20500000D03*
X30500000Y18500000D03*
X30500000Y16500000D03*
X32500000Y17500000D03*
X24500000Y16500000D03*
X26500000Y18500000D03*
X26500000Y17500000D03*
X23500000Y17500000D03*
X29500000Y19500000D03*
X27500000Y16500000D03*
X35829617Y28412824D03*
X28500000Y16500000D03*
X25500000Y21500000D03*
X23500000Y19500000D03*
X29500000Y21500000D03*
X26500000Y23500000D03*
X30500000Y21500000D03*
X25500000Y16500000D03*
X29500000Y17500000D03*
X32500000Y20500000D03*
X27500000Y20500000D03*
X26500000Y22500000D03*
X26500000Y21500000D03*
X28500000Y21500000D03*
X32500000Y18500000D03*
X27500000Y17500000D03*
X25500000Y20500000D03*
X29500000Y18500000D03*
X21800000Y17800000D03*
X29500000Y16500000D03*
X27500000Y18500000D03*
X24500000Y19500000D03*
X25500000Y18500000D03*
X26500000Y16500000D03*
X31500000Y17500000D03*
X31500000Y18500000D03*
X28500000Y17500000D03*
X23500000Y18500000D03*
X24500000Y18500000D03*
X25500000Y19500000D03*
X27500000Y21500000D03*
X23500000Y16500000D03*
X32500000Y19500000D03*
X26500000Y20500000D03*
X31500000Y19500000D03*
X30500000Y20500000D03*
X30500000Y17500000D03*
X24500000Y17500000D03*
X26500000Y19500000D03*
X28500000Y19500000D03*
X31500000Y20500000D03*
X25500000Y17500000D03*
X28500000Y18500000D03*
X25500000Y22500000D03*
X27500000Y19500000D03*
X25500000Y23500000D03*
X33350000Y16000000D03*
%TO.N,SHIELD*%
X3005622Y28794977D03*
%TO.N,+5V*%
X17750000Y14000000D03*
D16*
X23463944Y12800000D03*
D17*
X19250000Y14000000D03*
X18500000Y14000000D03*
%TO.N,+5VA*%
X34614654Y26425945D03*
%TO.N,Net-(IC3-A0)*%
X5775000Y32210000D03*
%TO.N,Net-(IC3-A1)*%
X7050000Y33150000D03*
%TO.N,/Project Architecture/USB-PD Source Controller/VDD_PD*%
X9900000Y12260000D03*
%TO.N,/Project Architecture/USB-PD Source Controller/USB_D+*%
X8701132Y22130513D03*
X13065717Y22982585D03*
X2286758Y21631720D03*
X11410707Y22159239D03*
%TO.N,PGOOD_3V3*%
X39031491Y11045295D03*
X53100000Y22700000D03*
X20840892Y7873036D03*
%TO.N,Net-(JP1-C)*%
X16750000Y9000000D03*
%TO.N,/Project Architecture/USB-PD Source Controller/USB_D-*%
X8690539Y22857898D03*
X11386758Y22888282D03*
X2265572Y22389119D03*
X12532536Y23536952D03*
%TO.N,/Project Architecture/USB-PD Source Controller/CC2*%
X11446401Y20699596D03*
X14250022Y20107490D03*
%TO.N,/Project Architecture/USB-PD Source Controller/CC1*%
X11100000Y23850000D03*
X13300000Y20120000D03*
%TO.N,/Project Architecture/USB-PD Source Controller/VBUS_MEA*%
X21000000Y29500000D03*
X18000000Y31500000D03*
X20000000Y30500000D03*
X21000000Y32500000D03*
X18000000Y29500000D03*
X18000000Y32500000D03*
X7900000Y27550000D03*
X16392496Y30961700D03*
X7000000Y15500000D03*
X18000000Y30500000D03*
X19000000Y27500000D03*
X20998463Y30488307D03*
X19000000Y26500000D03*
X17000000Y29500000D03*
X17000000Y28500000D03*
X20000000Y28500000D03*
X19000000Y30500000D03*
X20000000Y31500000D03*
X21000000Y28500000D03*
X18000000Y26500000D03*
X21000000Y27500000D03*
X18000000Y28500000D03*
X20000000Y32500000D03*
X19000000Y31500000D03*
X21000000Y31500000D03*
X19000000Y28500000D03*
X17000000Y27500000D03*
X17000000Y31500000D03*
X21000000Y26500000D03*
X17000000Y30500000D03*
X17000000Y26500000D03*
X19000000Y29500000D03*
X20000000Y26500000D03*
X19000000Y32500000D03*
X17000000Y32500000D03*
X20000000Y29500000D03*
X20000000Y27500000D03*
X18000000Y27500000D03*
%TO.N,/Project Architecture/USB-PD Source Controller/DISCHRG*%
X26400000Y29850000D03*
X11475000Y19675000D03*
%TO.N,/Project Architecture/Adjustable 5A Buck Converter/PD_SCL*%
X37025000Y18735000D03*
X8614870Y16524871D03*
%TO.N,/Project Architecture/Adjustable 5A Buck Converter/PD_ADD*%
X33500000Y28300000D03*
X33536657Y25800000D03*
%TO.N,/Project Architecture/Adjustable 5A Buck Converter/PMIC_ENABLE*%
X51100000Y22044243D03*
X34550000Y30410000D03*
X20500000Y10200000D03*
X33550000Y23950000D03*
X15650000Y18800000D03*
%TO.N,/Project Architecture/Adjustable 5A Buck Converter/PD_SDA*%
X36481812Y18278189D03*
X9548231Y17370563D03*
%TO.N,/Project Architecture/Adjustable 5A Buck Converter/PD_ALT*%
X36350000Y17410000D03*
X7700000Y15700000D03*
%TO.N,/Project Architecture/USB-PD Source Controller/VDRV*%
X19200000Y25188223D03*
X10712905Y19397682D03*
X17100000Y23700000D03*
%TO.N,/Project Architecture/USB-PD Source Controller/I2C_SDCL*%
X8600000Y12050000D03*
X10200000Y33275000D03*
%TO.N,/Project Architecture/USB-PD Source Controller/PD_ATTACH*%
X14890000Y12680000D03*
%TO.N,/Project Architecture/USB-PD Source Controller/I2C_SDA*%
X14200000Y15230000D03*
X9450000Y33275000D03*
X6500000Y13600000D03*
%TO.N,/Project Architecture/USB-PD Source Controller/PD_ENABLE*%
X51600000Y15200000D03*
X14150000Y13805000D03*
X22200000Y7325000D03*
%TO.N,/Project Architecture/USB-PD Source Controller/VBUS*%
X14000000Y32500000D03*
X14000000Y31500000D03*
X7048301Y19637709D03*
X2274329Y20782903D03*
X15000000Y28500000D03*
X14000000Y27500000D03*
X13000000Y24500000D03*
X11000000Y27500000D03*
X15000000Y32500000D03*
X9557231Y20574378D03*
X9108429Y19611367D03*
X2273057Y19605652D03*
X14000000Y30500000D03*
X11000000Y29500000D03*
X13000000Y27500000D03*
X13000000Y28500000D03*
X12000000Y31500000D03*
X7000000Y24500000D03*
X15000000Y31500000D03*
X11000000Y25500000D03*
X13000000Y29500000D03*
X2000000Y23500000D03*
X6000000Y24500000D03*
X13000000Y25500000D03*
X15000000Y27500000D03*
X3384110Y20632467D03*
X14000000Y29500000D03*
X1273057Y19605652D03*
X8900000Y27500000D03*
X15510771Y30950000D03*
X11007944Y24597986D03*
X1274329Y20782903D03*
X15000000Y29500000D03*
X2000000Y24500000D03*
X4384110Y20632467D03*
X12000000Y32500000D03*
X13000000Y30500000D03*
X8095575Y24494378D03*
X14000000Y25500000D03*
X4003167Y23498734D03*
X11000000Y28500000D03*
X3368868Y19611685D03*
X12000000Y30500000D03*
X12000000Y28500000D03*
X13000000Y32500000D03*
X3000000Y24500000D03*
X8108429Y19611367D03*
X4000000Y24500000D03*
X13000000Y31500000D03*
X12000000Y29500000D03*
X10000000Y24500000D03*
X12000000Y27500000D03*
X15000000Y30500000D03*
X4800000Y23700000D03*
X10000000Y25500000D03*
X6245000Y19625000D03*
X3003167Y23498734D03*
X8557231Y20574378D03*
X14000000Y28500000D03*
X12000000Y25500000D03*
%TO.N,/Project Architecture/Board Connector and Supplies/PORT_EN*%
X7700000Y14950000D03*
X21496071Y8353930D03*
%TO.N,/Project Architecture/Board Connector and Supplies/VBUS_VMON_PORT0*%
X5000000Y16023250D03*
X19000000Y9000000D03*
X23297751Y7170273D03*
%TO.N,/Project Architecture/Board Connector and Supplies/PMIC_VMON_PORT0*%
X22412847Y14892435D03*
%TO.N,Net-(PMFB1-Pad1)*%
X36822536Y28412858D03*
%TO.N,/Project Architecture/USB-PD Source Controller/V_PMIC_OUT*%
X18000000Y20500000D03*
X18000000Y22500000D03*
X18000000Y16500000D03*
X19000000Y22500000D03*
X20800000Y17800000D03*
X19000000Y20500000D03*
X34300000Y16000000D03*
X17000000Y21500000D03*
X17000000Y19500000D03*
X18000000Y17500000D03*
X20000000Y18500000D03*
X17996071Y18518011D03*
X17000000Y20500000D03*
X19991976Y16522107D03*
X17000000Y17500000D03*
X20000000Y19500000D03*
X19000000Y17500000D03*
X20000000Y17500000D03*
X18000000Y21500000D03*
X17000000Y18500000D03*
X19000000Y21500000D03*
X18000000Y19500000D03*
X19000000Y18500000D03*
X17000000Y16500000D03*
X17000000Y22500000D03*
X19000000Y19500000D03*
X19000000Y16500000D03*
%TO.N,/Project Architecture/USB-PD Source Controller/T3T4DS*%
X19039034Y23713856D03*
X18401620Y23713856D03*
X17753582Y25201157D03*
X17085417Y24509662D03*
X17100000Y25200000D03*
X16500000Y25200000D03*
X17800000Y23697920D03*
X19703239Y23715013D03*
X16478984Y24441571D03*
X19700000Y24446882D03*
X18400000Y25200000D03*
X19049657Y24462818D03*
%TO.N,Net-(D2-Pad2)*%
X51650000Y17900000D03*
X1150000Y28300000D03*
%TD*%
D18*
%TO.N,+3.54V*%
X38050000Y24675000D02*
X37325000Y23950000D01*
X36829907Y29350000D02*
X37480322Y28699585D01*
X37480322Y28699585D02*
X37480322Y26869678D01*
X38050000Y26300000D02*
X38050000Y24675000D01*
X37480322Y26869678D02*
X38050000Y26300000D01*
X33500000Y29350000D02*
X36829907Y29350000D01*
D19*
%TO.N,/Project Architecture/USB-PD Source Controller/VBUS_MEA*%
X7000000Y15500000D02*
X7000000Y17200000D01*
X7900000Y26097545D02*
X7900000Y27550000D01*
X7574000Y17774000D02*
X7574000Y25771545D01*
X7000000Y17200000D02*
X7574000Y17774000D01*
X7574000Y25771545D02*
X7900000Y26097545D01*
%TD*%
%TA.AperFunction,Conductor*%
%TO.N,/Project Architecture/USB-PD Source Controller/VBUS*%
G36*
X4635758Y24749182D02*
G01*
X4676105Y24706868D01*
X4724505Y24623036D01*
X4813036Y24534505D01*
X4921464Y24471905D01*
X5042399Y24439500D01*
X5042401Y24439500D01*
X5167599Y24439500D01*
X5167601Y24439500D01*
X5288536Y24471905D01*
X5396964Y24534505D01*
X5485495Y24623036D01*
X5533894Y24706868D01*
X5584460Y24755082D01*
X5641281Y24768867D01*
X7171300Y24768867D01*
X7238339Y24749182D01*
X7284094Y24696378D01*
X7295300Y24644867D01*
X7295300Y19424000D01*
X7275615Y19356961D01*
X7222811Y19311206D01*
X7171300Y19300000D01*
X5630389Y19300000D01*
X5563350Y19319685D01*
X5523002Y19362000D01*
X5485497Y19426961D01*
X5485493Y19426966D01*
X5396965Y19515494D01*
X5396964Y19515495D01*
X5288536Y19578095D01*
X5288537Y19578095D01*
X5248224Y19588897D01*
X5167601Y19610500D01*
X5042399Y19610500D01*
X4961775Y19588897D01*
X4921463Y19578095D01*
X4813037Y19515496D01*
X4813034Y19515494D01*
X4724506Y19426966D01*
X4724502Y19426961D01*
X4686998Y19362000D01*
X4636432Y19313785D01*
X4579611Y19300000D01*
X624000Y19300000D01*
X556961Y19319685D01*
X511206Y19372489D01*
X500000Y19424000D01*
X500000Y22442267D01*
X1861872Y22442267D01*
X1861872Y22335971D01*
X1889383Y22233296D01*
X1942531Y22141241D01*
X1942533Y22141239D01*
X1996264Y22087508D01*
X2029749Y22026185D01*
X2024765Y21956493D01*
X1996265Y21912147D01*
X1963720Y21879602D01*
X1963715Y21879595D01*
X1910570Y21787546D01*
X1910570Y21787545D01*
X1910569Y21787543D01*
X1883058Y21684868D01*
X1883058Y21578572D01*
X1910569Y21475897D01*
X1963717Y21383842D01*
X2038880Y21308679D01*
X2130935Y21255531D01*
X2233610Y21228020D01*
X2233612Y21228020D01*
X2339904Y21228020D01*
X2339906Y21228020D01*
X2442581Y21255531D01*
X2534636Y21308679D01*
X2609799Y21383842D01*
X2662947Y21475897D01*
X2690458Y21578572D01*
X2690458Y21684868D01*
X2662947Y21787543D01*
X2609799Y21879598D01*
X2556065Y21933332D01*
X2522580Y21994655D01*
X2527564Y22064347D01*
X2556064Y22108693D01*
X2588613Y22141241D01*
X2641761Y22233296D01*
X2669272Y22335971D01*
X2669272Y22442267D01*
X2641761Y22544942D01*
X2588613Y22636997D01*
X2513450Y22712160D01*
X2421395Y22765308D01*
X2318720Y22792819D01*
X2212424Y22792819D01*
X2109749Y22765308D01*
X2109747Y22765307D01*
X2109746Y22765307D01*
X2017697Y22712162D01*
X2017691Y22712158D01*
X1942533Y22637000D01*
X1942529Y22636994D01*
X1889384Y22544945D01*
X1889384Y22544944D01*
X1889383Y22544942D01*
X1861872Y22442267D01*
X500000Y22442267D01*
X500000Y24644867D01*
X519685Y24711906D01*
X572489Y24757661D01*
X624000Y24768867D01*
X4568719Y24768867D01*
X4635758Y24749182D01*
G37*
%TD.AperFunction*%
%TA.AperFunction,Conductor*%
G36*
X9800000Y24100000D02*
G01*
X9900000Y24100000D01*
X9900000Y22920930D01*
X9880315Y22853891D01*
X9857532Y22829125D01*
X9857869Y22828788D01*
X9776958Y22747877D01*
X9776957Y22747875D01*
X9723812Y22655826D01*
X9723812Y22655825D01*
X9723811Y22655823D01*
X9696300Y22553148D01*
X9696300Y22446852D01*
X9723811Y22344177D01*
X9723812Y22344176D01*
X9723812Y22344175D01*
X9728548Y22335972D01*
X9776959Y22252122D01*
X9776961Y22252120D01*
X9857869Y22171212D01*
X9856810Y22170154D01*
X9892686Y22121029D01*
X9900000Y22079072D01*
X9900000Y19424000D01*
X9880315Y19356961D01*
X9827511Y19311206D01*
X9776000Y19300000D01*
X7976700Y19300000D01*
X7909661Y19319685D01*
X7863906Y19372489D01*
X7852700Y19424000D01*
X7852700Y21132774D01*
X7872385Y21199813D01*
X7925189Y21245568D01*
X7994347Y21255512D01*
X8008784Y21252551D01*
X8044183Y21243066D01*
X8044185Y21243066D01*
X8150477Y21243066D01*
X8150479Y21243066D01*
X8253154Y21270577D01*
X8345209Y21323725D01*
X8420372Y21398888D01*
X8473520Y21490943D01*
X8501031Y21593618D01*
X8501031Y21604766D01*
X8520716Y21671805D01*
X8573520Y21717560D01*
X8641225Y21727704D01*
X8647979Y21726815D01*
X8647984Y21726813D01*
X8647989Y21726813D01*
X8754278Y21726813D01*
X8754280Y21726813D01*
X8856955Y21754324D01*
X8949010Y21807472D01*
X9024173Y21882635D01*
X9077321Y21974690D01*
X9104832Y22077365D01*
X9104832Y22183661D01*
X9077321Y22286336D01*
X9024173Y22378391D01*
X8990743Y22411821D01*
X8957258Y22473144D01*
X8962242Y22542836D01*
X8990743Y22587183D01*
X9013580Y22610020D01*
X9066728Y22702075D01*
X9094239Y22804750D01*
X9094239Y22911046D01*
X9066728Y23013721D01*
X9013580Y23105776D01*
X8938417Y23180939D01*
X8846362Y23234087D01*
X8743687Y23261598D01*
X8637391Y23261598D01*
X8637390Y23261598D01*
X8634472Y23261214D01*
X8632010Y23261598D01*
X8629264Y23261598D01*
X8629264Y23262027D01*
X8565437Y23271983D01*
X8513183Y23318365D01*
X8498519Y23352057D01*
X8484113Y23405823D01*
X8430965Y23497878D01*
X8355802Y23573041D01*
X8263747Y23626189D01*
X8161072Y23653700D01*
X8054776Y23653700D01*
X8008792Y23641380D01*
X7938943Y23643042D01*
X7881080Y23682205D01*
X7853577Y23746434D01*
X7852700Y23761154D01*
X7852700Y24644867D01*
X7872385Y24711906D01*
X7925189Y24757661D01*
X7976700Y24768867D01*
X9800000Y24768867D01*
X9800000Y24100000D01*
G37*
%TD.AperFunction*%
%TD*%
%TA.AperFunction,Conductor*%
%TO.N,/Project Architecture/USB-PD Source Controller/T3T4DS*%
G36*
X16424000Y25791300D02*
G01*
X16424003Y25791300D01*
X18974384Y25791300D01*
X19041423Y25771615D01*
X19087178Y25718811D01*
X19097122Y25649653D01*
X19068097Y25586097D01*
X19036384Y25559913D01*
X18952125Y25511266D01*
X18952119Y25511262D01*
X18876961Y25436104D01*
X18876957Y25436098D01*
X18823812Y25344049D01*
X18823812Y25344048D01*
X18823811Y25344046D01*
X18796300Y25241371D01*
X18796300Y25135075D01*
X18823811Y25032400D01*
X18876959Y24940345D01*
X18952122Y24865182D01*
X19044177Y24812034D01*
X19146852Y24784523D01*
X19146854Y24784523D01*
X19253146Y24784523D01*
X19253148Y24784523D01*
X19355823Y24812034D01*
X19447878Y24865182D01*
X19523041Y24940345D01*
X19576189Y25032400D01*
X19603700Y25135075D01*
X19603700Y25241371D01*
X19576189Y25344046D01*
X19523041Y25436101D01*
X19447878Y25511264D01*
X19404556Y25536276D01*
X19363616Y25559913D01*
X19315400Y25610480D01*
X19302178Y25679087D01*
X19328146Y25743952D01*
X19385060Y25784480D01*
X19425616Y25791300D01*
X20126000Y25791300D01*
X20193039Y25771615D01*
X20238794Y25718811D01*
X20250000Y25667300D01*
X20250000Y23207564D01*
X20230315Y23140525D01*
X20177511Y23094770D01*
X20126000Y23083564D01*
X17299204Y23083564D01*
X17232165Y23103249D01*
X17186410Y23156053D01*
X17176466Y23225211D01*
X17205491Y23288767D01*
X17251756Y23322127D01*
X17255814Y23323809D01*
X17255823Y23323811D01*
X17347878Y23376959D01*
X17423041Y23452122D01*
X17476189Y23544177D01*
X17503700Y23646852D01*
X17503700Y23753148D01*
X17476189Y23855823D01*
X17423041Y23947878D01*
X17347878Y24023041D01*
X17255823Y24076189D01*
X17153148Y24103700D01*
X17046852Y24103700D01*
X16944177Y24076189D01*
X16944175Y24076188D01*
X16944174Y24076188D01*
X16852125Y24023043D01*
X16852119Y24023039D01*
X16776961Y23947881D01*
X16776957Y23947875D01*
X16723812Y23855826D01*
X16723812Y23855825D01*
X16723811Y23855823D01*
X16696300Y23753148D01*
X16696300Y23646852D01*
X16723811Y23544177D01*
X16776959Y23452122D01*
X16852122Y23376959D01*
X16944177Y23323811D01*
X16944182Y23323810D01*
X16948244Y23322127D01*
X16951151Y23319785D01*
X16951216Y23319747D01*
X16951210Y23319737D01*
X17002649Y23278288D01*
X17024717Y23211995D01*
X17007441Y23144295D01*
X16956305Y23096682D01*
X16900796Y23083564D01*
X16374000Y23083564D01*
X16306961Y23103249D01*
X16261206Y23156053D01*
X16250000Y23207564D01*
X16250000Y25673214D01*
X16269685Y25740253D01*
X16322489Y25786008D01*
X16391645Y25795952D01*
X16424000Y25791300D01*
G37*
%TD.AperFunction*%
%TD*%
%TA.AperFunction,Conductor*%
%TO.N,/Project Architecture/USB-PD Source Controller/VBUS_MEA*%
G36*
X21443039Y32749182D02*
G01*
X21488794Y32696378D01*
X21500000Y32644867D01*
X21500000Y26124000D01*
X21480315Y26056961D01*
X21427511Y26011206D01*
X21376000Y26000000D01*
X16424000Y26000000D01*
X16356961Y26019685D01*
X16311206Y26072489D01*
X16300000Y26124000D01*
X16300000Y32644867D01*
X16319685Y32711906D01*
X16372489Y32757661D01*
X16424000Y32768867D01*
X21376000Y32768867D01*
X21443039Y32749182D01*
G37*
%TD.AperFunction*%
%TD*%
%TA.AperFunction,Conductor*%
%TO.N,/Project Architecture/USB-PD Source Controller/V_PMIC_OUT*%
G36*
X17160964Y22909941D02*
G01*
X17173366Y22903003D01*
X17240405Y22883318D01*
X17240409Y22883318D01*
X17240411Y22883317D01*
X17249912Y22881952D01*
X17299204Y22874864D01*
X17299207Y22874864D01*
X20126000Y22874864D01*
X20193039Y22855179D01*
X20238794Y22802375D01*
X20250000Y22750864D01*
X20250000Y16301362D01*
X20230315Y16234323D01*
X20213681Y16213681D01*
X19786319Y15786319D01*
X19724996Y15752834D01*
X19698638Y15750000D01*
X18500000Y15750000D01*
X16801362Y15750000D01*
X16734323Y15769685D01*
X16713681Y15786319D01*
X16286319Y16213681D01*
X16252834Y16275004D01*
X16250000Y16301362D01*
X16250000Y22750864D01*
X16269685Y22817903D01*
X16322489Y22863658D01*
X16374000Y22874864D01*
X16900790Y22874864D01*
X16900796Y22874864D01*
X16948794Y22880458D01*
X17004303Y22893576D01*
X17018167Y22897361D01*
X17038243Y22908999D01*
X17106113Y22925590D01*
X17160964Y22909941D01*
G37*
%TD.AperFunction*%
%TD*%
%TA.AperFunction,Conductor*%
%TO.N,/Project Architecture/Adjustable 5A Buck Converter/PMIC_VOUT*%
G36*
X27543039Y25780315D02*
G01*
X27588794Y25727511D01*
X27600000Y25676000D01*
X27600000Y23000000D01*
X28200000Y22400000D01*
X32076000Y22400000D01*
X32143039Y22380315D01*
X32188794Y22327511D01*
X32200000Y22276000D01*
X32200000Y21400000D01*
X32379071Y21400000D01*
X32446110Y21380315D01*
X32470875Y21357533D01*
X32471212Y21357869D01*
X32476959Y21352122D01*
X32552122Y21276959D01*
X32644177Y21223811D01*
X32746852Y21196300D01*
X32746854Y21196300D01*
X32853146Y21196300D01*
X32853148Y21196300D01*
X32955823Y21223811D01*
X33047878Y21276959D01*
X33047882Y21276964D01*
X33050208Y21278306D01*
X33118108Y21294779D01*
X33174208Y21278307D01*
X33243437Y21238337D01*
X33346112Y21210826D01*
X33346114Y21210826D01*
X33452406Y21210826D01*
X33452408Y21210826D01*
X33555083Y21238337D01*
X33625052Y21278734D01*
X33692949Y21295206D01*
X33749050Y21278733D01*
X33752121Y21276960D01*
X33752122Y21276959D01*
X33844177Y21223811D01*
X33946852Y21196300D01*
X33946854Y21196300D01*
X34053146Y21196300D01*
X34053148Y21196300D01*
X34155823Y21223811D01*
X34238000Y21271257D01*
X34242683Y21272393D01*
X34246264Y21275621D01*
X34276307Y21280550D01*
X34305900Y21287729D01*
X34311767Y21286367D01*
X34315212Y21286932D01*
X34328472Y21282490D01*
X34349267Y21277662D01*
X34355813Y21274828D01*
X34444177Y21223811D01*
X34521499Y21203093D01*
X34529863Y21199472D01*
X34549990Y21182718D01*
X34572350Y21169089D01*
X34576414Y21160723D01*
X34583563Y21154772D01*
X34591437Y21129796D01*
X34602879Y21106242D01*
X34601774Y21097008D01*
X34604572Y21088135D01*
X34597692Y21062865D01*
X34594584Y21036867D01*
X34588083Y21027570D01*
X34586219Y21020719D01*
X34578305Y21013583D01*
X34565581Y20995382D01*
X33968799Y20433703D01*
X33906490Y20402091D01*
X33883814Y20400000D01*
X32999999Y20400000D01*
X32800000Y20200001D01*
X32800000Y19387235D01*
X32780315Y19320196D01*
X32760985Y19296938D01*
X32607786Y19152751D01*
X32576978Y19116251D01*
X32576977Y19116249D01*
X32545773Y19069273D01*
X32538529Y19057546D01*
X32538528Y19057543D01*
X32511455Y18968701D01*
X32511455Y18968698D01*
X32506471Y18899012D01*
X32506210Y18873478D01*
X32511507Y18854733D01*
X32531468Y18784098D01*
X32564953Y18722775D01*
X32564954Y18722773D01*
X32600544Y18675230D01*
X32600548Y18675225D01*
X32600551Y18675222D01*
X32600560Y18675213D01*
X32644495Y18631278D01*
X32664201Y18605598D01*
X32673547Y18589411D01*
X32685936Y18559503D01*
X32690775Y18541444D01*
X32695000Y18509350D01*
X32695000Y18490652D01*
X32690775Y18458558D01*
X32685936Y18440499D01*
X32673547Y18410591D01*
X32664201Y18394404D01*
X32644496Y18368725D01*
X32631275Y18355504D01*
X32605593Y18335797D01*
X32580057Y18321054D01*
X32560012Y18311755D01*
X32554067Y18309618D01*
X32554051Y18309612D01*
X32549093Y18307347D01*
X32515928Y18302581D01*
X32482887Y18297018D01*
X32480910Y18297548D01*
X32479934Y18297407D01*
X32448794Y18306147D01*
X32445559Y18307532D01*
X32443864Y18308258D01*
X32430666Y18314863D01*
X32394401Y18335800D01*
X32368721Y18355506D01*
X32315166Y18409061D01*
X32310685Y18413784D01*
X32301422Y18424075D01*
X32300621Y18424713D01*
X32300614Y18424719D01*
X32298115Y18426711D01*
X32298114Y18426712D01*
X32246785Y18467620D01*
X32246764Y18467635D01*
X32225882Y18482282D01*
X32225876Y18482285D01*
X32137896Y18512037D01*
X32137890Y18512039D01*
X32068390Y18519131D01*
X32051379Y18519820D01*
X32042877Y18520164D01*
X32042876Y18520164D01*
X32042874Y18520164D01*
X31952773Y18497627D01*
X31890474Y18466021D01*
X31890466Y18466016D01*
X31841859Y18431877D01*
X31572324Y18178197D01*
X31561369Y18167089D01*
X31548906Y18153467D01*
X31548905Y18153465D01*
X31509131Y18090153D01*
X31509129Y18090150D01*
X31509128Y18090147D01*
X31483170Y18025312D01*
X31483162Y18025291D01*
X31475142Y18001060D01*
X31475141Y18001054D01*
X31471980Y17908231D01*
X31471981Y17908227D01*
X31485204Y17839610D01*
X31491557Y17814896D01*
X31491558Y17814893D01*
X31539086Y17735095D01*
X31565427Y17707469D01*
X31587303Y17684525D01*
X31587307Y17684521D01*
X31599958Y17674573D01*
X31610981Y17664792D01*
X31644499Y17631274D01*
X31664203Y17605594D01*
X31678944Y17580061D01*
X31688243Y17560016D01*
X31690380Y17554071D01*
X31690385Y17554059D01*
X31690386Y17554057D01*
X31692169Y17550152D01*
X31692650Y17549100D01*
X31697421Y17515914D01*
X31702979Y17482870D01*
X31702454Y17480912D01*
X31702594Y17479941D01*
X31693846Y17448778D01*
X31691735Y17443848D01*
X31685133Y17430660D01*
X31678476Y17419129D01*
X31664201Y17394404D01*
X31644495Y17368724D01*
X31631275Y17355504D01*
X31605596Y17335799D01*
X31589409Y17326453D01*
X31559501Y17314065D01*
X31541440Y17309225D01*
X31509348Y17305000D01*
X31490651Y17305000D01*
X31458559Y17309225D01*
X31440497Y17314065D01*
X31410593Y17326451D01*
X31410590Y17326453D01*
X31394403Y17335799D01*
X31368723Y17355504D01*
X31355501Y17368726D01*
X31336876Y17393005D01*
X31336701Y17392898D01*
X31336008Y17394039D01*
X31335992Y17394067D01*
X31331187Y17401979D01*
X31331179Y17401991D01*
X31331166Y17402013D01*
X31325280Y17411237D01*
X31325276Y17411241D01*
X31325273Y17411247D01*
X31279413Y17462191D01*
X31224774Y17505737D01*
X31224768Y17505741D01*
X31224759Y17505748D01*
X31203877Y17520395D01*
X31203871Y17520398D01*
X31115891Y17550150D01*
X31115885Y17550152D01*
X31046385Y17557244D01*
X31029374Y17557933D01*
X31020872Y17558277D01*
X31020871Y17558277D01*
X31020869Y17558277D01*
X30930768Y17535740D01*
X30868465Y17504132D01*
X30819853Y17469989D01*
X30533575Y17200552D01*
X30522644Y17189466D01*
X30510165Y17175827D01*
X30510164Y17175826D01*
X30470394Y17112518D01*
X30470392Y17112514D01*
X30444418Y17047635D01*
X30436403Y17023417D01*
X30436402Y17023410D01*
X30433244Y16930593D01*
X30433245Y16930587D01*
X30446466Y16861988D01*
X30446475Y16861947D01*
X30452819Y16837265D01*
X30452821Y16837260D01*
X30452822Y16837257D01*
X30500350Y16757459D01*
X30548565Y16706891D01*
X30548566Y16706890D01*
X30548568Y16706888D01*
X30595252Y16670176D01*
X30595261Y16670169D01*
X30605600Y16664200D01*
X30631276Y16644497D01*
X30644496Y16631277D01*
X30664201Y16605598D01*
X30673547Y16589411D01*
X30685935Y16559506D01*
X30690560Y16542243D01*
X30690775Y16541444D01*
X30695000Y16509350D01*
X30695000Y16490651D01*
X30690773Y16458552D01*
X30685934Y16440496D01*
X30673548Y16410594D01*
X30664200Y16394403D01*
X30644494Y16368723D01*
X30631275Y16355504D01*
X30605596Y16335799D01*
X30589409Y16326453D01*
X30559501Y16314065D01*
X30541440Y16309225D01*
X30509348Y16305000D01*
X30490651Y16305000D01*
X30458559Y16309225D01*
X30440497Y16314065D01*
X30410593Y16326451D01*
X30410590Y16326453D01*
X30394403Y16335799D01*
X30368723Y16355504D01*
X30355503Y16368724D01*
X30335796Y16394406D01*
X30313996Y16432165D01*
X30313990Y16432176D01*
X30309186Y16440087D01*
X30303271Y16449357D01*
X30257409Y16500304D01*
X30205789Y16541444D01*
X30202779Y16543843D01*
X30202755Y16543861D01*
X30181873Y16558508D01*
X30181867Y16558511D01*
X30093887Y16588263D01*
X30093881Y16588265D01*
X30024381Y16595357D01*
X30007370Y16596046D01*
X29998868Y16596390D01*
X29998867Y16596390D01*
X29998865Y16596390D01*
X29908764Y16573853D01*
X29846459Y16542244D01*
X29797847Y16508101D01*
X29475933Y16205123D01*
X29285269Y16025674D01*
X29081300Y15833703D01*
X29018991Y15802091D01*
X28996315Y15800000D01*
X23401362Y15800000D01*
X23334323Y15819685D01*
X23313681Y15836319D01*
X22836319Y16313681D01*
X22802834Y16375004D01*
X22800000Y16401362D01*
X22800000Y25676000D01*
X22819685Y25743039D01*
X22872489Y25788794D01*
X22924000Y25800000D01*
X27476000Y25800000D01*
X27543039Y25780315D01*
G37*
%TD.AperFunction*%
%TD*%
%TA.AperFunction,Conductor*%
%TO.N,+24V_FILTERED*%
G36*
X30035674Y30198213D02*
G01*
X30036570Y30198255D01*
X30039025Y30197272D01*
X30051213Y30193852D01*
X30056162Y30191733D01*
X30069324Y30185144D01*
X30105597Y30164202D01*
X30131276Y30144497D01*
X30139746Y30136027D01*
X30151671Y30126417D01*
X30156141Y30122815D01*
X30159613Y30119911D01*
X30163586Y30116463D01*
X30167016Y30112933D01*
X30168841Y30111902D01*
X30169928Y30110959D01*
X30205062Y30088380D01*
X30205083Y30088367D01*
X30218835Y30079529D01*
X30227937Y30074002D01*
X30228060Y30073965D01*
X30228061Y30073964D01*
X30235981Y30071551D01*
X30247439Y30067384D01*
X30247884Y30067252D01*
X30247885Y30067251D01*
X30257657Y30064337D01*
X30306917Y30049648D01*
X30306918Y30049648D01*
X30314838Y30047286D01*
X30314849Y30047284D01*
X30314854Y30047282D01*
X30324664Y30045000D01*
X30339722Y30041497D01*
X30372798Y30043387D01*
X30372766Y30042928D01*
X30386457Y30041948D01*
X30412002Y30041687D01*
X30429475Y30046625D01*
X30432451Y30046795D01*
X30436822Y30048059D01*
X30442365Y30049661D01*
X30442374Y30049664D01*
X30478521Y30060113D01*
X30499555Y30066193D01*
X30499559Y30066195D01*
X30500287Y30066463D01*
X30501984Y30067192D01*
X30503179Y30067679D01*
X30506417Y30069293D01*
X30553707Y30090650D01*
X30565170Y30097950D01*
X30600637Y30126410D01*
X30618724Y30144497D01*
X30644398Y30164200D01*
X30662171Y30174461D01*
X30677434Y30181474D01*
X30677349Y30181668D01*
X30681682Y30183575D01*
X30681685Y30183575D01*
X30703222Y30193049D01*
X30772509Y30202023D01*
X30801956Y30193534D01*
X30806155Y30191736D01*
X30819324Y30185144D01*
X30855597Y30164202D01*
X30881276Y30144497D01*
X30889746Y30136027D01*
X30901671Y30126417D01*
X30906141Y30122815D01*
X30909613Y30119911D01*
X30913586Y30116463D01*
X30917016Y30112933D01*
X30918841Y30111902D01*
X30919928Y30110959D01*
X30955062Y30088380D01*
X30955083Y30088367D01*
X30968835Y30079529D01*
X30977937Y30074002D01*
X30978060Y30073965D01*
X30978061Y30073964D01*
X30985981Y30071551D01*
X30997439Y30067384D01*
X30997884Y30067252D01*
X30997885Y30067251D01*
X31007657Y30064337D01*
X31056917Y30049648D01*
X31056918Y30049648D01*
X31064838Y30047286D01*
X31064849Y30047284D01*
X31064854Y30047282D01*
X31074664Y30045000D01*
X31089722Y30041497D01*
X31122798Y30043387D01*
X31122766Y30042928D01*
X31136457Y30041948D01*
X31162002Y30041687D01*
X31179475Y30046625D01*
X31182451Y30046795D01*
X31186822Y30048059D01*
X31192365Y30049661D01*
X31192374Y30049664D01*
X31228521Y30060113D01*
X31249555Y30066193D01*
X31249559Y30066195D01*
X31250287Y30066463D01*
X31251984Y30067192D01*
X31253179Y30067679D01*
X31256417Y30069293D01*
X31303707Y30090650D01*
X31315170Y30097950D01*
X31350637Y30126410D01*
X31368724Y30144497D01*
X31394398Y30164200D01*
X31412171Y30174461D01*
X31427434Y30181474D01*
X31427349Y30181668D01*
X31431682Y30183575D01*
X31431685Y30183575D01*
X31448937Y30191164D01*
X31518225Y30200138D01*
X31546770Y30191840D01*
X31546807Y30191933D01*
X31547858Y30191523D01*
X31548183Y30191429D01*
X31548936Y30191102D01*
X31563284Y30186102D01*
X31584474Y30176398D01*
X31605595Y30164203D01*
X31605597Y30164202D01*
X31631277Y30144496D01*
X31644496Y30131277D01*
X31664199Y30105601D01*
X31672831Y30090650D01*
X31673547Y30089411D01*
X31685935Y30059506D01*
X31690760Y30041497D01*
X31690775Y30041444D01*
X31695000Y30009350D01*
X31695000Y29990652D01*
X31690776Y29958564D01*
X31690775Y29958558D01*
X31685936Y29940499D01*
X31673547Y29910591D01*
X31664201Y29894404D01*
X31644500Y29868729D01*
X31636035Y29860265D01*
X31636021Y29860249D01*
X31608037Y29825522D01*
X31608018Y29825496D01*
X31579538Y29781182D01*
X31574004Y29772069D01*
X31574003Y29772066D01*
X31546931Y29683225D01*
X31546931Y29683222D01*
X31541947Y29613536D01*
X31541686Y29588002D01*
X31566943Y29498625D01*
X31566944Y29498622D01*
X31600429Y29437299D01*
X31600430Y29437297D01*
X31636020Y29389754D01*
X31636036Y29389736D01*
X31637025Y29388747D01*
X31648694Y29378265D01*
X31648712Y29378250D01*
X31653649Y29373815D01*
X31674291Y29357181D01*
X31674292Y29357181D01*
X31674294Y29357179D01*
X31679392Y29353838D01*
X31679235Y29353599D01*
X31686786Y29348842D01*
X31687783Y29348096D01*
X31687784Y29348096D01*
X31687785Y29348095D01*
X31715337Y29335512D01*
X31715338Y29335512D01*
X31718362Y29334131D01*
X31746462Y29319434D01*
X31749058Y29318672D01*
X31749429Y29319943D01*
X31765956Y29312395D01*
X31765958Y29312394D01*
X31768487Y29311239D01*
X31768488Y29311239D01*
X31768492Y29311237D01*
X31786878Y29307238D01*
X31795440Y29305052D01*
X31813473Y29299756D01*
X31813477Y29299755D01*
X31813478Y29299755D01*
X31813481Y29299754D01*
X31872281Y29291300D01*
X31872284Y29291300D01*
X32276000Y29291300D01*
X32343039Y29271615D01*
X32388794Y29218811D01*
X32400000Y29167300D01*
X32400000Y24100000D01*
X33100000Y23400000D01*
X34876000Y23400000D01*
X34943039Y23380315D01*
X34988794Y23327511D01*
X35000000Y23276000D01*
X35000000Y22924000D01*
X34980315Y22856961D01*
X34927511Y22811206D01*
X34876000Y22800000D01*
X34800000Y22800000D01*
X34800000Y22725762D01*
X34780315Y22658723D01*
X34727511Y22612968D01*
X34659820Y22602822D01*
X34653149Y22603700D01*
X34653148Y22603700D01*
X34546852Y22603700D01*
X34444175Y22576189D01*
X34361999Y22528744D01*
X34294099Y22512272D01*
X34238001Y22528744D01*
X34155824Y22576189D01*
X34104485Y22589945D01*
X34053148Y22603700D01*
X33946852Y22603700D01*
X33844175Y22576189D01*
X33761999Y22528744D01*
X33694099Y22512272D01*
X33638001Y22528744D01*
X33555824Y22576189D01*
X33504485Y22589945D01*
X33453148Y22603700D01*
X33346852Y22603700D01*
X33244175Y22576189D01*
X33161999Y22528744D01*
X33094099Y22512272D01*
X33038001Y22528744D01*
X32955824Y22576189D01*
X32904485Y22589945D01*
X32853148Y22603700D01*
X32746852Y22603700D01*
X32644177Y22576189D01*
X32644175Y22576188D01*
X32644174Y22576188D01*
X32545083Y22518977D01*
X32543844Y22521122D01*
X32534165Y22517381D01*
X32514937Y22505023D01*
X32494653Y22502107D01*
X32490316Y22500430D01*
X32480002Y22500000D01*
X32369511Y22500000D01*
X32302472Y22519685D01*
X32289968Y22529867D01*
X32289942Y22529832D01*
X32282894Y22535222D01*
X32218948Y22570990D01*
X32201838Y22580561D01*
X32176843Y22587901D01*
X32134800Y22600246D01*
X32134792Y22600248D01*
X32076001Y22608700D01*
X32076000Y22608700D01*
X30098981Y22608700D01*
X30031942Y22628385D01*
X29986187Y22681189D01*
X29976243Y22750347D01*
X30005268Y22813903D01*
X30011300Y22820381D01*
X30043041Y22852122D01*
X30096189Y22944177D01*
X30123700Y23046852D01*
X30123700Y23153148D01*
X30096189Y23255823D01*
X30043041Y23347878D01*
X29967878Y23423041D01*
X29906508Y23458473D01*
X29875825Y23476188D01*
X29875824Y23476189D01*
X29875823Y23476189D01*
X29773148Y23503700D01*
X29666852Y23503700D01*
X29564177Y23476189D01*
X29564175Y23476188D01*
X29556327Y23474085D01*
X29555434Y23477416D01*
X29501571Y23471809D01*
X29439198Y23503295D01*
X29403749Y23563505D01*
X29400000Y23593764D01*
X29400000Y29167300D01*
X29419685Y29234339D01*
X29472489Y29280094D01*
X29524000Y29291300D01*
X29627720Y29291300D01*
X29629031Y29291371D01*
X29650030Y29292496D01*
X29676388Y29295330D01*
X29754097Y29319663D01*
X29815420Y29353148D01*
X29862973Y29388746D01*
X29863973Y29389746D01*
X29883472Y29412249D01*
X29904623Y29440503D01*
X29913697Y29460376D01*
X29914643Y29459768D01*
X29920462Y29468821D01*
X29925995Y29477933D01*
X29934578Y29506102D01*
X29941484Y29521223D01*
X29943015Y29528263D01*
X29943013Y29528264D01*
X29946133Y29542606D01*
X29946137Y29542621D01*
X29947211Y29547558D01*
X29953069Y29566780D01*
X29953889Y29578248D01*
X29956333Y29589482D01*
X29960224Y29614714D01*
X29957798Y29632902D01*
X29958053Y29636464D01*
X29958313Y29662002D01*
X29949986Y29691465D01*
X29947944Y29706779D01*
X29944780Y29715262D01*
X29940284Y29727316D01*
X29940283Y29727319D01*
X29938512Y29732066D01*
X29933054Y29751381D01*
X29927546Y29761467D01*
X29923529Y29772239D01*
X29918336Y29783925D01*
X29913163Y29795567D01*
X29913160Y29795571D01*
X29907860Y29801815D01*
X29902357Y29809246D01*
X29902228Y29809149D01*
X29863978Y29860248D01*
X29863975Y29860252D01*
X29863973Y29860254D01*
X29855502Y29868725D01*
X29835795Y29894408D01*
X29826451Y29910593D01*
X29814063Y29940502D01*
X29809224Y29958564D01*
X29805000Y29990653D01*
X29805000Y30009349D01*
X29809223Y30041435D01*
X29811427Y30049661D01*
X29814064Y30059503D01*
X29826448Y30089405D01*
X29835802Y30105607D01*
X29855501Y30131277D01*
X29868721Y30144497D01*
X29894394Y30164197D01*
X29919950Y30178952D01*
X29940003Y30188253D01*
X29945938Y30190386D01*
X29950895Y30192650D01*
X30020048Y30202598D01*
X30035674Y30198213D01*
G37*
%TD.AperFunction*%
%TA.AperFunction,Conductor*%
G36*
X39041438Y34690777D02*
G01*
X39059500Y34685937D01*
X39089407Y34673549D01*
X39105592Y34664205D01*
X39131275Y34644498D01*
X39139746Y34636027D01*
X39174485Y34608032D01*
X39174487Y34608031D01*
X39174504Y34608019D01*
X39218818Y34579539D01*
X39227931Y34574005D01*
X39227934Y34574004D01*
X39300770Y34551810D01*
X39316779Y34546931D01*
X39386471Y34541947D01*
X39411997Y34541686D01*
X39501378Y34566944D01*
X39562701Y34600429D01*
X39610256Y34636029D01*
X39618718Y34644493D01*
X39644396Y34664198D01*
X39660597Y34673551D01*
X39690501Y34685937D01*
X39708567Y34690777D01*
X39740652Y34695000D01*
X39759348Y34695000D01*
X39791438Y34690777D01*
X39809500Y34685937D01*
X39839407Y34673549D01*
X39855592Y34664205D01*
X39881275Y34644498D01*
X39889746Y34636027D01*
X39924485Y34608032D01*
X39924487Y34608031D01*
X39924504Y34608019D01*
X39968818Y34579539D01*
X39977931Y34574005D01*
X39977934Y34574004D01*
X40050770Y34551810D01*
X40066779Y34546931D01*
X40136471Y34541947D01*
X40161997Y34541686D01*
X40251378Y34566944D01*
X40312701Y34600429D01*
X40360256Y34636029D01*
X40368718Y34644493D01*
X40394396Y34664198D01*
X40410597Y34673551D01*
X40440501Y34685937D01*
X40458567Y34690777D01*
X40490652Y34695000D01*
X40509348Y34695000D01*
X40541438Y34690777D01*
X40559500Y34685937D01*
X40589407Y34673549D01*
X40605592Y34664205D01*
X40631275Y34644498D01*
X40639746Y34636027D01*
X40674485Y34608032D01*
X40674487Y34608031D01*
X40674504Y34608019D01*
X40718818Y34579539D01*
X40727931Y34574005D01*
X40727934Y34574004D01*
X40800770Y34551810D01*
X40816779Y34546931D01*
X40886471Y34541947D01*
X40911997Y34541686D01*
X41001378Y34566944D01*
X41062701Y34600429D01*
X41110256Y34636029D01*
X41118718Y34644493D01*
X41144396Y34664198D01*
X41160597Y34673551D01*
X41190501Y34685937D01*
X41208567Y34690777D01*
X41240652Y34695000D01*
X41259348Y34695000D01*
X41291438Y34690777D01*
X41309500Y34685937D01*
X41339407Y34673549D01*
X41355592Y34664205D01*
X41381275Y34644498D01*
X41389746Y34636027D01*
X41424485Y34608032D01*
X41424487Y34608031D01*
X41424504Y34608019D01*
X41468818Y34579539D01*
X41477931Y34574005D01*
X41477934Y34574004D01*
X41550770Y34551810D01*
X41566779Y34546931D01*
X41636471Y34541947D01*
X41661997Y34541686D01*
X41751378Y34566944D01*
X41812701Y34600429D01*
X41860256Y34636029D01*
X41868718Y34644493D01*
X41894396Y34664198D01*
X41910597Y34673551D01*
X41940501Y34685937D01*
X41958567Y34690777D01*
X41990652Y34695000D01*
X42009348Y34695000D01*
X42041438Y34690777D01*
X42059500Y34685937D01*
X42089407Y34673549D01*
X42105592Y34664205D01*
X42131275Y34644498D01*
X42139746Y34636027D01*
X42174485Y34608032D01*
X42174487Y34608031D01*
X42174504Y34608019D01*
X42218818Y34579539D01*
X42227931Y34574005D01*
X42227934Y34574004D01*
X42300770Y34551810D01*
X42316779Y34546931D01*
X42386471Y34541947D01*
X42411997Y34541686D01*
X42501378Y34566944D01*
X42562701Y34600429D01*
X42610256Y34636029D01*
X42618718Y34644493D01*
X42644396Y34664198D01*
X42660597Y34673551D01*
X42690501Y34685937D01*
X42708567Y34690777D01*
X42740652Y34695000D01*
X42759348Y34695000D01*
X42791438Y34690777D01*
X42809500Y34685937D01*
X42839407Y34673549D01*
X42855592Y34664205D01*
X42881275Y34644498D01*
X42894496Y34631277D01*
X42914201Y34605598D01*
X42923547Y34589411D01*
X42935935Y34559506D01*
X42940709Y34541688D01*
X42940775Y34541444D01*
X42945000Y34509350D01*
X42945000Y34490652D01*
X42940776Y34458564D01*
X42940775Y34458558D01*
X42935936Y34440499D01*
X42923547Y34410591D01*
X42914201Y34394404D01*
X42894500Y34368729D01*
X42886035Y34360265D01*
X42886021Y34360249D01*
X42858037Y34325522D01*
X42858018Y34325496D01*
X42829538Y34281182D01*
X42824004Y34272069D01*
X42824003Y34272066D01*
X42796931Y34183225D01*
X42796931Y34183222D01*
X42791947Y34113536D01*
X42791686Y34088002D01*
X42797684Y34066776D01*
X42816944Y33998622D01*
X42850429Y33937299D01*
X42850430Y33937297D01*
X42886020Y33889754D01*
X42886036Y33889736D01*
X42894496Y33881276D01*
X42914198Y33855601D01*
X42914199Y33855600D01*
X42923545Y33839414D01*
X42935936Y33809503D01*
X42940775Y33791444D01*
X42945000Y33759350D01*
X42945000Y33740652D01*
X42940775Y33708558D01*
X42935936Y33690499D01*
X42923547Y33660591D01*
X42914201Y33644404D01*
X42894500Y33618729D01*
X42886035Y33610265D01*
X42886021Y33610249D01*
X42858037Y33575522D01*
X42858018Y33575496D01*
X42829538Y33531182D01*
X42824004Y33522069D01*
X42824003Y33522066D01*
X42796931Y33433225D01*
X42796931Y33433222D01*
X42791947Y33363536D01*
X42791686Y33338002D01*
X42797684Y33316776D01*
X42816944Y33248622D01*
X42850429Y33187299D01*
X42850430Y33187297D01*
X42886020Y33139754D01*
X42886036Y33139736D01*
X42894496Y33131276D01*
X42914198Y33105601D01*
X42914199Y33105600D01*
X42923545Y33089414D01*
X42935936Y33059503D01*
X42940775Y33041444D01*
X42945000Y33009350D01*
X42945000Y32990652D01*
X42940776Y32958564D01*
X42939304Y32953069D01*
X42935936Y32940499D01*
X42923548Y32910593D01*
X42923547Y32910591D01*
X42914201Y32894404D01*
X42894496Y32868725D01*
X42881275Y32855504D01*
X42855596Y32835799D01*
X42839409Y32826453D01*
X42809501Y32814065D01*
X42791440Y32809225D01*
X42759348Y32805000D01*
X42740651Y32805000D01*
X42708559Y32809225D01*
X42690497Y32814065D01*
X42660593Y32826451D01*
X42660588Y32826454D01*
X42644403Y32835799D01*
X42618723Y32855504D01*
X42610257Y32863970D01*
X42610254Y32863973D01*
X42575515Y32891968D01*
X42575512Y32891970D01*
X42575495Y32891982D01*
X42531181Y32920462D01*
X42522068Y32925996D01*
X42522065Y32925997D01*
X42433223Y32953069D01*
X42363535Y32958053D01*
X42346511Y32958227D01*
X42338003Y32958314D01*
X42338002Y32958314D01*
X42338000Y32958314D01*
X42248624Y32933057D01*
X42248620Y32933055D01*
X42187299Y32899571D01*
X42187294Y32899569D01*
X42139757Y32863982D01*
X42139751Y32863978D01*
X42139746Y32863973D01*
X42139743Y32863970D01*
X42139739Y32863966D01*
X42131269Y32855497D01*
X42105599Y32835801D01*
X42089411Y32826454D01*
X42059501Y32814065D01*
X42041440Y32809225D01*
X42009348Y32805000D01*
X41990651Y32805000D01*
X41958559Y32809225D01*
X41940497Y32814065D01*
X41910593Y32826451D01*
X41910588Y32826454D01*
X41894403Y32835799D01*
X41868723Y32855504D01*
X41860257Y32863970D01*
X41860254Y32863973D01*
X41825515Y32891968D01*
X41825512Y32891970D01*
X41825495Y32891982D01*
X41781181Y32920462D01*
X41772068Y32925996D01*
X41772065Y32925997D01*
X41683223Y32953069D01*
X41613535Y32958053D01*
X41596511Y32958227D01*
X41588003Y32958314D01*
X41588002Y32958314D01*
X41588000Y32958314D01*
X41498624Y32933057D01*
X41498620Y32933055D01*
X41437299Y32899571D01*
X41437294Y32899569D01*
X41389757Y32863982D01*
X41389751Y32863978D01*
X41389746Y32863973D01*
X41389743Y32863970D01*
X41389739Y32863966D01*
X41381269Y32855497D01*
X41355599Y32835801D01*
X41339411Y32826454D01*
X41309501Y32814065D01*
X41291440Y32809225D01*
X41259348Y32805000D01*
X41240651Y32805000D01*
X41208559Y32809225D01*
X41190497Y32814065D01*
X41160593Y32826451D01*
X41160588Y32826454D01*
X41144403Y32835799D01*
X41118723Y32855504D01*
X41110257Y32863970D01*
X41110254Y32863973D01*
X41075515Y32891968D01*
X41075512Y32891970D01*
X41075495Y32891982D01*
X41031181Y32920462D01*
X41022068Y32925996D01*
X41022065Y32925997D01*
X40933223Y32953069D01*
X40863535Y32958053D01*
X40846511Y32958227D01*
X40838003Y32958314D01*
X40838002Y32958314D01*
X40838000Y32958314D01*
X40748624Y32933057D01*
X40748620Y32933055D01*
X40687299Y32899571D01*
X40687294Y32899569D01*
X40639757Y32863982D01*
X40639751Y32863978D01*
X40639746Y32863973D01*
X40639743Y32863970D01*
X40639739Y32863966D01*
X40631269Y32855497D01*
X40605599Y32835801D01*
X40589411Y32826454D01*
X40559501Y32814065D01*
X40541440Y32809225D01*
X40509348Y32805000D01*
X40490651Y32805000D01*
X40458559Y32809225D01*
X40440497Y32814065D01*
X40410593Y32826451D01*
X40410588Y32826454D01*
X40394403Y32835799D01*
X40368723Y32855504D01*
X40360257Y32863970D01*
X40360254Y32863973D01*
X40325515Y32891968D01*
X40325512Y32891970D01*
X40325495Y32891982D01*
X40281181Y32920462D01*
X40272068Y32925996D01*
X40272065Y32925997D01*
X40183223Y32953069D01*
X40113535Y32958053D01*
X40096511Y32958227D01*
X40088003Y32958314D01*
X40088002Y32958314D01*
X40088000Y32958314D01*
X39998624Y32933057D01*
X39998620Y32933055D01*
X39937299Y32899571D01*
X39937294Y32899569D01*
X39889757Y32863982D01*
X39889751Y32863978D01*
X39889746Y32863973D01*
X39889743Y32863970D01*
X39889739Y32863966D01*
X39881269Y32855497D01*
X39855599Y32835801D01*
X39839411Y32826454D01*
X39809501Y32814065D01*
X39791440Y32809225D01*
X39759348Y32805000D01*
X39740651Y32805000D01*
X39708559Y32809225D01*
X39690497Y32814065D01*
X39660593Y32826451D01*
X39660588Y32826454D01*
X39644403Y32835799D01*
X39618723Y32855504D01*
X39610257Y32863970D01*
X39610254Y32863973D01*
X39575515Y32891968D01*
X39575512Y32891970D01*
X39575495Y32891982D01*
X39531181Y32920462D01*
X39522068Y32925996D01*
X39522065Y32925997D01*
X39433223Y32953069D01*
X39363535Y32958053D01*
X39346511Y32958227D01*
X39338003Y32958314D01*
X39338002Y32958314D01*
X39338000Y32958314D01*
X39248624Y32933057D01*
X39248620Y32933055D01*
X39187299Y32899571D01*
X39187294Y32899569D01*
X39139757Y32863982D01*
X39139751Y32863978D01*
X39139746Y32863973D01*
X39139743Y32863970D01*
X39139739Y32863966D01*
X39131269Y32855497D01*
X39105599Y32835801D01*
X39089411Y32826454D01*
X39059501Y32814065D01*
X39041440Y32809225D01*
X39009348Y32805000D01*
X38990651Y32805000D01*
X38958559Y32809225D01*
X38940497Y32814065D01*
X38910593Y32826451D01*
X38910588Y32826454D01*
X38894403Y32835799D01*
X38868723Y32855504D01*
X38855502Y32868725D01*
X38835795Y32894408D01*
X38826451Y32910593D01*
X38814063Y32940502D01*
X38809224Y32958564D01*
X38805000Y32990653D01*
X38805000Y33009350D01*
X38809223Y33041434D01*
X38814061Y33059495D01*
X38826454Y33089414D01*
X38835801Y33105603D01*
X38855509Y33131283D01*
X38863971Y33139744D01*
X38891968Y33174485D01*
X38900202Y33187297D01*
X38920461Y33218819D01*
X38925995Y33227932D01*
X38925996Y33227935D01*
X38953068Y33316776D01*
X38953069Y33316779D01*
X38958053Y33386471D01*
X38958314Y33411997D01*
X38933056Y33501378D01*
X38899571Y33562701D01*
X38889993Y33575496D01*
X38863979Y33610247D01*
X38863963Y33610265D01*
X38855502Y33618726D01*
X38835796Y33644406D01*
X38826452Y33660590D01*
X38826452Y33660591D01*
X38814063Y33690502D01*
X38809224Y33708564D01*
X38805000Y33740653D01*
X38805000Y33759349D01*
X38809223Y33791434D01*
X38814061Y33809495D01*
X38826454Y33839414D01*
X38835801Y33855603D01*
X38855509Y33881283D01*
X38863971Y33889744D01*
X38891968Y33924485D01*
X38900202Y33937297D01*
X38920461Y33968819D01*
X38925995Y33977932D01*
X38925996Y33977935D01*
X38953068Y34066776D01*
X38953069Y34066779D01*
X38958053Y34136471D01*
X38958314Y34161997D01*
X38933056Y34251378D01*
X38899571Y34312701D01*
X38889993Y34325496D01*
X38863979Y34360247D01*
X38863963Y34360265D01*
X38855502Y34368726D01*
X38835796Y34394406D01*
X38826452Y34410590D01*
X38826452Y34410591D01*
X38814063Y34440502D01*
X38809224Y34458564D01*
X38805000Y34490653D01*
X38805000Y34509349D01*
X38809223Y34541435D01*
X38814061Y34559495D01*
X38826448Y34589405D01*
X38835802Y34605607D01*
X38855501Y34631277D01*
X38868721Y34644497D01*
X38894391Y34664195D01*
X38910597Y34673552D01*
X38940497Y34685936D01*
X38958567Y34690778D01*
X38990652Y34695000D01*
X39009348Y34695000D01*
X39041438Y34690777D01*
G37*
%TD.AperFunction*%
%TD*%
%TA.AperFunction,Conductor*%
%TO.N,/Project Architecture/USB-PD Source Controller/VBUS*%
G36*
X15243039Y32680315D02*
G01*
X15288794Y32627511D01*
X15300000Y32576000D01*
X15300000Y27355133D01*
X15280315Y27288094D01*
X15227511Y27242339D01*
X15176000Y27231133D01*
X10924000Y27231133D01*
X10856961Y27250818D01*
X10811206Y27303622D01*
X10800000Y27355133D01*
X10800000Y30519991D01*
X10819685Y30587030D01*
X10862001Y30627378D01*
X10947878Y30676959D01*
X11023041Y30752122D01*
X11076189Y30844177D01*
X11103700Y30946852D01*
X11103700Y31053148D01*
X11076189Y31155823D01*
X11023041Y31247878D01*
X10947878Y31323041D01*
X10945846Y31324215D01*
X10861999Y31372625D01*
X10813784Y31423192D01*
X10800000Y31480011D01*
X10800000Y32576000D01*
X10819685Y32643039D01*
X10872489Y32688794D01*
X10924000Y32700000D01*
X15176000Y32700000D01*
X15243039Y32680315D01*
G37*
%TD.AperFunction*%
%TD*%
%TA.AperFunction,Conductor*%
%TO.N,/Project Architecture/USB-PD Source Controller/VBUS*%
G36*
X14243039Y25749182D02*
G01*
X14288794Y25696378D01*
X14300000Y25644867D01*
X14300000Y24224000D01*
X14280315Y24156961D01*
X14227511Y24111206D01*
X14176000Y24100000D01*
X13366957Y24100000D01*
X13353148Y24103700D01*
X13246852Y24103700D01*
X13233043Y24100000D01*
X12428188Y24100000D01*
X12361149Y24119685D01*
X12315394Y24172489D01*
X12305567Y24217661D01*
X12305249Y24217619D01*
X12304747Y24221429D01*
X12304188Y24224000D01*
X12304188Y24225677D01*
X12304188Y24225679D01*
X12276677Y24328354D01*
X12223529Y24420409D01*
X12148366Y24495572D01*
X12056311Y24548720D01*
X11953636Y24576231D01*
X11847340Y24576231D01*
X11744665Y24548720D01*
X11744663Y24548719D01*
X11744662Y24548719D01*
X11652613Y24495574D01*
X11652607Y24495570D01*
X11577449Y24420412D01*
X11577445Y24420406D01*
X11524300Y24328357D01*
X11506448Y24261732D01*
X11470082Y24202071D01*
X11407235Y24171543D01*
X11337860Y24179838D01*
X11324674Y24186439D01*
X11255829Y24226187D01*
X11255825Y24226188D01*
X11255823Y24226189D01*
X11153148Y24253700D01*
X11046852Y24253700D01*
X10944177Y24226189D01*
X10944175Y24226188D01*
X10944174Y24226188D01*
X10852125Y24173043D01*
X10852119Y24173039D01*
X10815400Y24136319D01*
X10754077Y24102834D01*
X10727719Y24100000D01*
X9800000Y24100000D01*
X9800000Y25644867D01*
X9819685Y25711906D01*
X9872489Y25757661D01*
X9924000Y25768867D01*
X14176000Y25768867D01*
X14243039Y25749182D01*
G37*
%TD.AperFunction*%
%TD*%
%TA.AperFunction,Conductor*%
%TO.N,+3.3V*%
G36*
X11000000Y32908700D02*
G01*
X10924000Y32908700D01*
X10923992Y32908700D01*
X10879637Y32903931D01*
X10828118Y32892723D01*
X10820432Y32890845D01*
X10817788Y32890198D01*
X10782324Y32871300D01*
X10735818Y32846519D01*
X10683018Y32800767D01*
X10682998Y32800749D01*
X10664784Y32782902D01*
X10664778Y32782895D01*
X10619441Y32701842D01*
X10619438Y32701835D01*
X10599754Y32634801D01*
X10599752Y32634793D01*
X10591300Y32576002D01*
X10591300Y31480011D01*
X10597183Y31430808D01*
X10597184Y31430800D01*
X10610964Y31373999D01*
X10615210Y31358974D01*
X10615215Y31358963D01*
X10662736Y31279179D01*
X10662740Y31279173D01*
X10710955Y31228606D01*
X10757646Y31191887D01*
X10805597Y31164202D01*
X10831275Y31144498D01*
X10844496Y31131277D01*
X10864201Y31105598D01*
X10873547Y31089411D01*
X10885936Y31059503D01*
X10890775Y31041444D01*
X10895000Y31009350D01*
X10895000Y30990652D01*
X10890775Y30958558D01*
X10885936Y30940499D01*
X10873547Y30910591D01*
X10864201Y30894404D01*
X10844496Y30868725D01*
X10831280Y30855509D01*
X10805601Y30835804D01*
X10757659Y30808124D01*
X10757657Y30808123D01*
X10717981Y30778422D01*
X10675660Y30738069D01*
X10664783Y30726892D01*
X10664781Y30726889D01*
X10619440Y30645833D01*
X10619438Y30645826D01*
X10599754Y30578792D01*
X10599752Y30578784D01*
X10591300Y30519993D01*
X10591300Y27355126D01*
X10596069Y27310771D01*
X10607276Y27259258D01*
X10609802Y27248921D01*
X10653481Y27166952D01*
X10699236Y27114148D01*
X10699243Y27114141D01*
X10699251Y27114132D01*
X10717098Y27095918D01*
X10717105Y27095912D01*
X10757631Y27073244D01*
X10798162Y27050572D01*
X10865201Y27030887D01*
X10865205Y27030887D01*
X10865207Y27030886D01*
X10874708Y27029521D01*
X10924000Y27022433D01*
X10924003Y27022433D01*
X15175991Y27022433D01*
X15176000Y27022433D01*
X15220364Y27027203D01*
X15271875Y27038409D01*
X15282212Y27040935D01*
X15364181Y27084614D01*
X15416985Y27130369D01*
X15435218Y27148234D01*
X15480561Y27229295D01*
X15500246Y27296334D01*
X15508700Y27355133D01*
X15508700Y29500000D01*
X16000000Y29500000D01*
X16000000Y19278856D01*
X15980315Y19211817D01*
X15927511Y19166062D01*
X15858353Y19156118D01*
X15814005Y19171466D01*
X15805827Y19176187D01*
X15805825Y19176188D01*
X15805823Y19176189D01*
X15703148Y19203700D01*
X15596852Y19203700D01*
X15494177Y19176189D01*
X15494175Y19176188D01*
X15494174Y19176188D01*
X15402125Y19123043D01*
X15402119Y19123039D01*
X15326961Y19047881D01*
X15326957Y19047875D01*
X15273812Y18955826D01*
X15273812Y18955825D01*
X15273811Y18955823D01*
X15246300Y18853148D01*
X15246300Y18746852D01*
X15273811Y18644177D01*
X15326959Y18552122D01*
X15402122Y18476959D01*
X15494177Y18423811D01*
X15596852Y18396300D01*
X15596854Y18396300D01*
X15703146Y18396300D01*
X15703148Y18396300D01*
X15805823Y18423811D01*
X15814000Y18428533D01*
X15881900Y18445005D01*
X15947927Y18422153D01*
X15991118Y18367231D01*
X16000000Y18321145D01*
X16000000Y16000000D01*
X17000000Y15000000D01*
X21885147Y15000000D01*
X21952186Y14980315D01*
X21997941Y14927511D01*
X22009147Y14876000D01*
X22009147Y14839287D01*
X22036658Y14736612D01*
X22089806Y14644557D01*
X22164969Y14569394D01*
X22257024Y14516246D01*
X22359699Y14488735D01*
X22359701Y14488735D01*
X22465993Y14488735D01*
X22465995Y14488735D01*
X22568670Y14516246D01*
X22660725Y14569394D01*
X22735888Y14644557D01*
X22789036Y14736612D01*
X22816547Y14839287D01*
X22816547Y14876000D01*
X22836232Y14943039D01*
X22889036Y14988794D01*
X22940547Y15000000D01*
X23667300Y15000000D01*
X23734339Y14980315D01*
X23780094Y14927511D01*
X23791300Y14876000D01*
X23791300Y13369473D01*
X23771615Y13302434D01*
X23718811Y13256679D01*
X23649653Y13246735D01*
X23635208Y13249698D01*
X23526967Y13278700D01*
X23526966Y13278700D01*
X23400922Y13278700D01*
X23279173Y13246078D01*
X23279170Y13246077D01*
X23170018Y13183059D01*
X23170013Y13183055D01*
X23080889Y13093931D01*
X23080885Y13093926D01*
X23017867Y12984774D01*
X23017866Y12984771D01*
X22985244Y12863022D01*
X22985244Y12736978D01*
X23014752Y12626853D01*
X23017866Y12615230D01*
X23017867Y12615227D01*
X23080885Y12506075D01*
X23080887Y12506072D01*
X23080888Y12506071D01*
X23170015Y12416944D01*
X23170016Y12416943D01*
X23170018Y12416942D01*
X23224594Y12385433D01*
X23279173Y12353922D01*
X23400922Y12321300D01*
X23400924Y12321300D01*
X23526964Y12321300D01*
X23526966Y12321300D01*
X23635208Y12350303D01*
X23705057Y12348640D01*
X23762919Y12309477D01*
X23790423Y12245249D01*
X23791300Y12230528D01*
X23791300Y7547005D01*
X23771615Y7479966D01*
X23718811Y7434211D01*
X23649653Y7424267D01*
X23586097Y7453292D01*
X23579619Y7459324D01*
X23545631Y7493312D01*
X23545629Y7493314D01*
X23453574Y7546462D01*
X23350899Y7573973D01*
X23244603Y7573973D01*
X23141928Y7546462D01*
X23141926Y7546461D01*
X23141925Y7546461D01*
X23049876Y7493316D01*
X23049870Y7493312D01*
X22974712Y7418154D01*
X22974708Y7418148D01*
X22921563Y7326099D01*
X22921563Y7326098D01*
X22921562Y7326096D01*
X22894051Y7223421D01*
X22894051Y7117125D01*
X22921562Y7014450D01*
X22974710Y6922395D01*
X23049873Y6847232D01*
X23141928Y6794084D01*
X23244603Y6766573D01*
X23244605Y6766573D01*
X23350897Y6766573D01*
X23350899Y6766573D01*
X23453574Y6794084D01*
X23545629Y6847232D01*
X23579619Y6881222D01*
X23640942Y6914707D01*
X23710634Y6909723D01*
X23766567Y6867851D01*
X23790984Y6802387D01*
X23791300Y6793541D01*
X23791300Y6624000D01*
X23771615Y6556961D01*
X23718811Y6511206D01*
X23667300Y6500000D01*
X14524500Y6500000D01*
X14457461Y6519685D01*
X14411706Y6572489D01*
X14400500Y6624000D01*
X14400500Y7378148D01*
X21796300Y7378148D01*
X21796300Y7271852D01*
X21823811Y7169177D01*
X21876959Y7077122D01*
X21952122Y7001959D01*
X22044177Y6948811D01*
X22146852Y6921300D01*
X22146854Y6921300D01*
X22253146Y6921300D01*
X22253148Y6921300D01*
X22355823Y6948811D01*
X22447878Y7001959D01*
X22523041Y7077122D01*
X22576189Y7169177D01*
X22603700Y7271852D01*
X22603700Y7378148D01*
X22576189Y7480823D01*
X22523041Y7572878D01*
X22447878Y7648041D01*
X22355823Y7701189D01*
X22253148Y7728700D01*
X22146852Y7728700D01*
X22044177Y7701189D01*
X22044175Y7701188D01*
X22044174Y7701188D01*
X21952125Y7648043D01*
X21952119Y7648039D01*
X21876961Y7572881D01*
X21876957Y7572875D01*
X21823812Y7480826D01*
X21823812Y7480825D01*
X21823811Y7480823D01*
X21796300Y7378148D01*
X14400500Y7378148D01*
X14400500Y8014560D01*
X14400499Y8014564D01*
X14396668Y8028861D01*
X14390436Y8052122D01*
X14380022Y8090988D01*
X14340460Y8159511D01*
X14146823Y8353148D01*
X17296300Y8353148D01*
X17296300Y8246852D01*
X17323811Y8144177D01*
X17376959Y8052122D01*
X17452122Y7976959D01*
X17544177Y7923811D01*
X17646852Y7896300D01*
X17646854Y7896300D01*
X17753146Y7896300D01*
X17753148Y7896300D01*
X17855823Y7923811D01*
X17859933Y7926184D01*
X20437192Y7926184D01*
X20437192Y7819888D01*
X20464703Y7717213D01*
X20517851Y7625158D01*
X20593014Y7549995D01*
X20685069Y7496847D01*
X20787744Y7469336D01*
X20787746Y7469336D01*
X20894038Y7469336D01*
X20894040Y7469336D01*
X20996715Y7496847D01*
X21088770Y7549995D01*
X21163933Y7625158D01*
X21217081Y7717213D01*
X21244592Y7819888D01*
X21244592Y7841773D01*
X21264277Y7908812D01*
X21317081Y7954567D01*
X21386239Y7964511D01*
X21400674Y7961551D01*
X21442923Y7950230D01*
X21442925Y7950230D01*
X21549217Y7950230D01*
X21549219Y7950230D01*
X21651894Y7977741D01*
X21743949Y8030889D01*
X21819112Y8106052D01*
X21872260Y8198107D01*
X21899771Y8300782D01*
X21899771Y8407078D01*
X21872260Y8509753D01*
X21819112Y8601808D01*
X21743949Y8676971D01*
X21651894Y8730119D01*
X21549219Y8757630D01*
X21442923Y8757630D01*
X21340248Y8730119D01*
X21340246Y8730118D01*
X21340245Y8730118D01*
X21248196Y8676973D01*
X21248190Y8676969D01*
X21173032Y8601811D01*
X21173028Y8601805D01*
X21119883Y8509756D01*
X21119883Y8509755D01*
X21119882Y8509753D01*
X21097101Y8424731D01*
X21092371Y8407078D01*
X21092371Y8385194D01*
X21072686Y8318155D01*
X21019882Y8272400D01*
X20950724Y8262456D01*
X20936280Y8265419D01*
X20894044Y8276736D01*
X20894040Y8276736D01*
X20787744Y8276736D01*
X20685069Y8249225D01*
X20685067Y8249224D01*
X20685066Y8249224D01*
X20593017Y8196079D01*
X20593011Y8196075D01*
X20517853Y8120917D01*
X20517849Y8120911D01*
X20464704Y8028862D01*
X20464704Y8028861D01*
X20464703Y8028859D01*
X20437192Y7926184D01*
X17859933Y7926184D01*
X17947878Y7976959D01*
X18023041Y8052122D01*
X18076189Y8144177D01*
X18103700Y8246852D01*
X18103700Y8353148D01*
X18076189Y8455823D01*
X18023041Y8547878D01*
X17947878Y8623041D01*
X17855823Y8676189D01*
X17753148Y8703700D01*
X17646852Y8703700D01*
X17544177Y8676189D01*
X17544175Y8676188D01*
X17544174Y8676188D01*
X17452125Y8623043D01*
X17452119Y8623039D01*
X17376961Y8547881D01*
X17376957Y8547875D01*
X17323812Y8455826D01*
X17323812Y8455825D01*
X17323811Y8455823D01*
X17296300Y8353148D01*
X14146823Y8353148D01*
X13784511Y8715460D01*
X13775023Y8720938D01*
X13775022Y8720939D01*
X13715991Y8755020D01*
X13715990Y8755021D01*
X13690513Y8761848D01*
X13639562Y8775500D01*
X13639560Y8775500D01*
X3868315Y8775500D01*
X3801276Y8795185D01*
X3755521Y8847989D01*
X3745577Y8917147D01*
X3774602Y8980703D01*
X3802343Y9004494D01*
X3879775Y9053148D01*
X16346300Y9053148D01*
X16346300Y8946852D01*
X16373811Y8844177D01*
X16426959Y8752122D01*
X16502122Y8676959D01*
X16594177Y8623811D01*
X16696852Y8596300D01*
X16696854Y8596300D01*
X16803146Y8596300D01*
X16803148Y8596300D01*
X16905823Y8623811D01*
X16997878Y8676959D01*
X17073041Y8752122D01*
X17126189Y8844177D01*
X17153700Y8946852D01*
X17153700Y9053148D01*
X18596300Y9053148D01*
X18596300Y8946852D01*
X18623811Y8844177D01*
X18676959Y8752122D01*
X18752122Y8676959D01*
X18844177Y8623811D01*
X18946852Y8596300D01*
X18946854Y8596300D01*
X19053146Y8596300D01*
X19053148Y8596300D01*
X19155823Y8623811D01*
X19247878Y8676959D01*
X19323041Y8752122D01*
X19376189Y8844177D01*
X19403700Y8946852D01*
X19403700Y9053148D01*
X19376189Y9155823D01*
X19323041Y9247878D01*
X19247878Y9323041D01*
X19155823Y9376189D01*
X19053148Y9403700D01*
X18946852Y9403700D01*
X18844177Y9376189D01*
X18844175Y9376188D01*
X18844174Y9376188D01*
X18752125Y9323043D01*
X18752119Y9323039D01*
X18676961Y9247881D01*
X18676957Y9247875D01*
X18623812Y9155826D01*
X18623812Y9155825D01*
X18623811Y9155823D01*
X18596300Y9053148D01*
X17153700Y9053148D01*
X17126189Y9155823D01*
X17073041Y9247878D01*
X16997878Y9323041D01*
X16905823Y9376189D01*
X16803148Y9403700D01*
X16696852Y9403700D01*
X16594177Y9376189D01*
X16594175Y9376188D01*
X16594174Y9376188D01*
X16502125Y9323043D01*
X16502119Y9323039D01*
X16426961Y9247881D01*
X16426957Y9247875D01*
X16373812Y9155826D01*
X16373812Y9155825D01*
X16373811Y9155823D01*
X16346300Y9053148D01*
X3879775Y9053148D01*
X3893144Y9061548D01*
X3948830Y9105956D01*
X4014365Y9158218D01*
X4014370Y9158222D01*
X4041348Y9179737D01*
X4104221Y9229876D01*
X4295124Y9420779D01*
X4463452Y9631856D01*
X4607089Y9860453D01*
X4724228Y10103695D01*
X4813396Y10358522D01*
X4873472Y10621731D01*
X4903700Y10890011D01*
X4903700Y10933148D01*
X7196300Y10933148D01*
X7196300Y10826852D01*
X7223811Y10724177D01*
X7276959Y10632122D01*
X7352122Y10556959D01*
X7444177Y10503811D01*
X7546852Y10476300D01*
X7546854Y10476300D01*
X7653146Y10476300D01*
X7653148Y10476300D01*
X7755823Y10503811D01*
X7841277Y10553148D01*
X9496300Y10553148D01*
X9496300Y10446852D01*
X9523811Y10344177D01*
X9576959Y10252122D01*
X9652122Y10176959D01*
X9744177Y10123811D01*
X9846852Y10096300D01*
X9846854Y10096300D01*
X9953146Y10096300D01*
X9953148Y10096300D01*
X10055823Y10123811D01*
X10147878Y10176959D01*
X10223041Y10252122D01*
X10276189Y10344177D01*
X10280225Y10359244D01*
X10316589Y10418903D01*
X10379435Y10449433D01*
X10448811Y10441139D01*
X10502690Y10396654D01*
X10519773Y10359245D01*
X10523811Y10344177D01*
X10576959Y10252122D01*
X10652122Y10176959D01*
X10744177Y10123811D01*
X10846852Y10096300D01*
X10846854Y10096300D01*
X10953146Y10096300D01*
X10953148Y10096300D01*
X11055823Y10123811D01*
X11147878Y10176959D01*
X11223041Y10252122D01*
X11276189Y10344177D01*
X11303700Y10446852D01*
X11303700Y10469469D01*
X15175747Y10469469D01*
X15175747Y10363173D01*
X15203258Y10260498D01*
X15203259Y10260497D01*
X15203259Y10260496D01*
X15208094Y10252122D01*
X15256406Y10168443D01*
X15331569Y10093280D01*
X15423624Y10040132D01*
X15526299Y10012621D01*
X15526301Y10012621D01*
X15632593Y10012621D01*
X15632595Y10012621D01*
X15735270Y10040132D01*
X15827325Y10093280D01*
X15902488Y10168443D01*
X15951392Y10253148D01*
X20096300Y10253148D01*
X20096300Y10146852D01*
X20123811Y10044177D01*
X20176959Y9952122D01*
X20252122Y9876959D01*
X20344177Y9823811D01*
X20446852Y9796300D01*
X20446854Y9796300D01*
X20553146Y9796300D01*
X20553148Y9796300D01*
X20655823Y9823811D01*
X20747878Y9876959D01*
X20823041Y9952122D01*
X20876189Y10044177D01*
X20903700Y10146852D01*
X20903700Y10253148D01*
X20876189Y10355823D01*
X20823041Y10447878D01*
X20747878Y10523041D01*
X20655823Y10576189D01*
X20553148Y10603700D01*
X20446852Y10603700D01*
X20344177Y10576189D01*
X20344175Y10576188D01*
X20344174Y10576188D01*
X20252125Y10523043D01*
X20252119Y10523039D01*
X20176961Y10447881D01*
X20176957Y10447875D01*
X20123812Y10355826D01*
X20123812Y10355825D01*
X20123811Y10355823D01*
X20096300Y10253148D01*
X15951392Y10253148D01*
X15955636Y10260498D01*
X15983147Y10363173D01*
X15983147Y10469469D01*
X15955636Y10572144D01*
X15902488Y10664199D01*
X15827325Y10739362D01*
X15735270Y10792510D01*
X15632595Y10820021D01*
X15526299Y10820021D01*
X15423624Y10792510D01*
X15423622Y10792509D01*
X15423621Y10792509D01*
X15331572Y10739364D01*
X15331566Y10739360D01*
X15256408Y10664202D01*
X15256404Y10664196D01*
X15203259Y10572147D01*
X15203259Y10572146D01*
X15203258Y10572144D01*
X15175747Y10469469D01*
X11303700Y10469469D01*
X11303700Y10553148D01*
X11276189Y10655823D01*
X11223041Y10747878D01*
X11147878Y10823041D01*
X11055823Y10876189D01*
X10953148Y10903700D01*
X10846852Y10903700D01*
X10744177Y10876189D01*
X10744175Y10876188D01*
X10744174Y10876188D01*
X10652125Y10823043D01*
X10652119Y10823039D01*
X10576961Y10747881D01*
X10576957Y10747875D01*
X10523812Y10655826D01*
X10523812Y10655825D01*
X10523811Y10655823D01*
X10519774Y10640757D01*
X10483410Y10581097D01*
X10420563Y10550568D01*
X10351188Y10558863D01*
X10297310Y10603348D01*
X10280226Y10640756D01*
X10276189Y10655823D01*
X10223041Y10747878D01*
X10147878Y10823041D01*
X10055823Y10876189D01*
X9953148Y10903700D01*
X9846852Y10903700D01*
X9744177Y10876189D01*
X9744175Y10876188D01*
X9744174Y10876188D01*
X9652125Y10823043D01*
X9652119Y10823039D01*
X9576961Y10747881D01*
X9576957Y10747875D01*
X9523812Y10655826D01*
X9523812Y10655825D01*
X9523811Y10655823D01*
X9496300Y10553148D01*
X7841277Y10553148D01*
X7847878Y10556959D01*
X7923041Y10632122D01*
X7976189Y10724177D01*
X8003700Y10826852D01*
X8003700Y10933148D01*
X7976189Y11035823D01*
X7923041Y11127878D01*
X7847878Y11203041D01*
X7755823Y11256189D01*
X7653148Y11283700D01*
X7546852Y11283700D01*
X7444177Y11256189D01*
X7444175Y11256188D01*
X7444174Y11256188D01*
X7352125Y11203043D01*
X7352119Y11203039D01*
X7276961Y11127881D01*
X7276957Y11127875D01*
X7223812Y11035826D01*
X7223812Y11035825D01*
X7223811Y11035823D01*
X7196300Y10933148D01*
X4903700Y10933148D01*
X4903700Y11159989D01*
X4873472Y11428269D01*
X4813396Y11691478D01*
X4724228Y11946305D01*
X4724224Y11946312D01*
X4724221Y11946321D01*
X4670693Y12057474D01*
X4648697Y12103148D01*
X8196300Y12103148D01*
X8196300Y11996852D01*
X8223811Y11894177D01*
X8276959Y11802122D01*
X8352122Y11726959D01*
X8444177Y11673811D01*
X8546852Y11646300D01*
X8546854Y11646300D01*
X8653146Y11646300D01*
X8653148Y11646300D01*
X8755823Y11673811D01*
X8847878Y11726959D01*
X8923041Y11802122D01*
X8976189Y11894177D01*
X9003700Y11996852D01*
X9003700Y12103148D01*
X8976189Y12205823D01*
X8923041Y12297878D01*
X8907771Y12313148D01*
X9496300Y12313148D01*
X9496300Y12206852D01*
X9523811Y12104177D01*
X9576959Y12012122D01*
X9652122Y11936959D01*
X9744177Y11883811D01*
X9846852Y11856300D01*
X9846854Y11856300D01*
X9953146Y11856300D01*
X9953148Y11856300D01*
X10055823Y11883811D01*
X10147878Y11936959D01*
X10223041Y12012122D01*
X10276189Y12104177D01*
X10303700Y12206852D01*
X10303700Y12313148D01*
X10276189Y12415823D01*
X10223041Y12507878D01*
X10147878Y12583041D01*
X10058145Y12634849D01*
X10055824Y12636189D01*
X10004485Y12649945D01*
X9953148Y12663700D01*
X9846852Y12663700D01*
X9744177Y12636189D01*
X9744175Y12636188D01*
X9744174Y12636188D01*
X9652125Y12583043D01*
X9652119Y12583039D01*
X9576961Y12507881D01*
X9576957Y12507875D01*
X9523812Y12415826D01*
X9523812Y12415825D01*
X9523811Y12415823D01*
X9496300Y12313148D01*
X8907771Y12313148D01*
X8847878Y12373041D01*
X8786508Y12408473D01*
X8755825Y12426188D01*
X8755824Y12426189D01*
X8755823Y12426189D01*
X8653148Y12453700D01*
X8546852Y12453700D01*
X8444177Y12426189D01*
X8444175Y12426188D01*
X8444174Y12426188D01*
X8352125Y12373043D01*
X8352119Y12373039D01*
X8276961Y12297881D01*
X8276957Y12297875D01*
X8223812Y12205826D01*
X8223812Y12205825D01*
X8223811Y12205823D01*
X8196300Y12103148D01*
X4648697Y12103148D01*
X4607090Y12189545D01*
X4596860Y12205826D01*
X4463452Y12418144D01*
X4295124Y12629221D01*
X4191197Y12733148D01*
X14486300Y12733148D01*
X14486300Y12626852D01*
X14513811Y12524177D01*
X14513812Y12524176D01*
X14513812Y12524175D01*
X14524265Y12506070D01*
X14566959Y12432122D01*
X14642122Y12356959D01*
X14734177Y12303811D01*
X14836852Y12276300D01*
X14836854Y12276300D01*
X14943146Y12276300D01*
X14943148Y12276300D01*
X15045823Y12303811D01*
X15137878Y12356959D01*
X15213041Y12432122D01*
X15266189Y12524177D01*
X15293700Y12626852D01*
X15293700Y12733148D01*
X15266189Y12835823D01*
X15213041Y12927878D01*
X15137878Y13003041D01*
X15045823Y13056189D01*
X14943148Y13083700D01*
X14836852Y13083700D01*
X14734177Y13056189D01*
X14734175Y13056188D01*
X14734174Y13056188D01*
X14642125Y13003043D01*
X14642119Y13003039D01*
X14566961Y12927881D01*
X14566957Y12927875D01*
X14513812Y12835826D01*
X14513812Y12835825D01*
X14513811Y12835823D01*
X14486300Y12733148D01*
X4191197Y12733148D01*
X4104221Y12820124D01*
X3893144Y12988452D01*
X3664547Y13132089D01*
X3664544Y13132091D01*
X3421312Y13249225D01*
X3421298Y13249231D01*
X3166489Y13338393D01*
X3166477Y13338397D01*
X2963344Y13384761D01*
X2903269Y13398472D01*
X2903265Y13398473D01*
X2903256Y13398474D01*
X2634993Y13428700D01*
X2634989Y13428700D01*
X2365011Y13428700D01*
X2365006Y13428700D01*
X2096743Y13398474D01*
X2096731Y13398472D01*
X1833522Y13338397D01*
X1833510Y13338393D01*
X1578701Y13249231D01*
X1578687Y13249225D01*
X1335455Y13132091D01*
X1106857Y12988453D01*
X895779Y12820125D01*
X704875Y12629221D01*
X596447Y12493256D01*
X539258Y12453116D01*
X469447Y12450266D01*
X409177Y12485612D01*
X377584Y12547931D01*
X375500Y12570569D01*
X375500Y13653148D01*
X6096300Y13653148D01*
X6096300Y13546852D01*
X6123811Y13444177D01*
X6123812Y13444176D01*
X6123812Y13444175D01*
X6132747Y13428700D01*
X6176959Y13352122D01*
X6252122Y13276959D01*
X6344177Y13223811D01*
X6446852Y13196300D01*
X6446854Y13196300D01*
X6553146Y13196300D01*
X6553148Y13196300D01*
X6655823Y13223811D01*
X6747878Y13276959D01*
X6823041Y13352122D01*
X6876189Y13444177D01*
X6903700Y13546852D01*
X6903700Y13653148D01*
X6876189Y13755823D01*
X6823041Y13847878D01*
X6812771Y13858148D01*
X13746300Y13858148D01*
X13746300Y13751852D01*
X13773811Y13649177D01*
X13826959Y13557122D01*
X13902122Y13481959D01*
X13994177Y13428811D01*
X14096852Y13401300D01*
X14096854Y13401300D01*
X14203146Y13401300D01*
X14203148Y13401300D01*
X14305823Y13428811D01*
X14397878Y13481959D01*
X14473041Y13557122D01*
X14526189Y13649177D01*
X14553700Y13751852D01*
X14553700Y13858148D01*
X14526189Y13960823D01*
X14510049Y13988778D01*
X14503989Y13999275D01*
X14473043Y14052875D01*
X14473038Y14052881D01*
X14472771Y14053148D01*
X17346300Y14053148D01*
X17346300Y13946852D01*
X17373811Y13844177D01*
X17426959Y13752122D01*
X17502122Y13676959D01*
X17594177Y13623811D01*
X17696852Y13596300D01*
X17696854Y13596300D01*
X17803146Y13596300D01*
X17803148Y13596300D01*
X17905823Y13623811D01*
X17997878Y13676959D01*
X18037319Y13716400D01*
X18098642Y13749885D01*
X18168334Y13744901D01*
X18212681Y13716400D01*
X18252122Y13676959D01*
X18344177Y13623811D01*
X18446852Y13596300D01*
X18446854Y13596300D01*
X18553146Y13596300D01*
X18553148Y13596300D01*
X18655823Y13623811D01*
X18747878Y13676959D01*
X18787319Y13716400D01*
X18848642Y13749885D01*
X18918334Y13744901D01*
X18962681Y13716400D01*
X19002122Y13676959D01*
X19094177Y13623811D01*
X19196852Y13596300D01*
X19196854Y13596300D01*
X19303146Y13596300D01*
X19303148Y13596300D01*
X19405823Y13623811D01*
X19497878Y13676959D01*
X19573041Y13752122D01*
X19626189Y13844177D01*
X19653700Y13946852D01*
X19653700Y14053148D01*
X19626189Y14155823D01*
X19573041Y14247878D01*
X19497878Y14323041D01*
X19405823Y14376189D01*
X19303148Y14403700D01*
X19196852Y14403700D01*
X19094177Y14376189D01*
X19094175Y14376188D01*
X19094174Y14376188D01*
X19002125Y14323043D01*
X19002119Y14323039D01*
X18962681Y14283600D01*
X18901358Y14250115D01*
X18831666Y14255099D01*
X18787319Y14283600D01*
X18747880Y14323039D01*
X18747878Y14323041D01*
X18655823Y14376189D01*
X18553148Y14403700D01*
X18446852Y14403700D01*
X18344177Y14376189D01*
X18344175Y14376188D01*
X18344174Y14376188D01*
X18252125Y14323043D01*
X18252119Y14323039D01*
X18212681Y14283600D01*
X18151358Y14250115D01*
X18081666Y14255099D01*
X18037319Y14283600D01*
X17997880Y14323039D01*
X17997878Y14323041D01*
X17905823Y14376189D01*
X17803148Y14403700D01*
X17696852Y14403700D01*
X17594177Y14376189D01*
X17594175Y14376188D01*
X17594174Y14376188D01*
X17502125Y14323043D01*
X17502119Y14323039D01*
X17426961Y14247881D01*
X17426957Y14247875D01*
X17373812Y14155826D01*
X17373812Y14155825D01*
X17373811Y14155823D01*
X17346300Y14053148D01*
X14472771Y14053148D01*
X14397880Y14128039D01*
X14397878Y14128041D01*
X14305823Y14181189D01*
X14203148Y14208700D01*
X14096852Y14208700D01*
X13994177Y14181189D01*
X13994175Y14181188D01*
X13994174Y14181188D01*
X13902125Y14128043D01*
X13902119Y14128039D01*
X13826961Y14052881D01*
X13826957Y14052875D01*
X13773812Y13960826D01*
X13773812Y13960825D01*
X13773811Y13960823D01*
X13746300Y13858148D01*
X6812771Y13858148D01*
X6747878Y13923041D01*
X6682434Y13960825D01*
X6655825Y13976188D01*
X6655824Y13976189D01*
X6655823Y13976189D01*
X6553148Y14003700D01*
X6446852Y14003700D01*
X6344177Y13976189D01*
X6344175Y13976188D01*
X6344174Y13976188D01*
X6252125Y13923043D01*
X6252119Y13923039D01*
X6176961Y13847881D01*
X6176957Y13847875D01*
X6123812Y13755826D01*
X6123812Y13755825D01*
X6123811Y13755823D01*
X6096300Y13653148D01*
X375500Y13653148D01*
X375500Y15953148D01*
X1346300Y15953148D01*
X1346300Y15846852D01*
X1373811Y15744177D01*
X1426959Y15652122D01*
X1502122Y15576959D01*
X1594177Y15523811D01*
X1696852Y15496300D01*
X1696854Y15496300D01*
X1803146Y15496300D01*
X1803148Y15496300D01*
X1905823Y15523811D01*
X1997878Y15576959D01*
X2073041Y15652122D01*
X2126189Y15744177D01*
X2153700Y15846852D01*
X2153700Y15953148D01*
X2126906Y16053148D01*
X3546300Y16053148D01*
X3546300Y15946852D01*
X3573811Y15844177D01*
X3626959Y15752122D01*
X3702122Y15676959D01*
X3794177Y15623811D01*
X3896852Y15596300D01*
X3896854Y15596300D01*
X4003146Y15596300D01*
X4003148Y15596300D01*
X4105823Y15623811D01*
X4197878Y15676959D01*
X4273041Y15752122D01*
X4326189Y15844177D01*
X4353700Y15946852D01*
X4353700Y16053148D01*
X4347470Y16076398D01*
X4596300Y16076398D01*
X4596300Y15970102D01*
X4600767Y15953428D01*
X4600768Y15953425D01*
X4607977Y15926521D01*
X4622933Y15870702D01*
X4623812Y15867425D01*
X4633148Y15851254D01*
X4676959Y15775372D01*
X4752122Y15700209D01*
X4844177Y15647061D01*
X4946852Y15619550D01*
X4946854Y15619550D01*
X5053146Y15619550D01*
X5053148Y15619550D01*
X5155823Y15647061D01*
X5247878Y15700209D01*
X5323041Y15775372D01*
X5376189Y15867427D01*
X5403700Y15970102D01*
X5403700Y16076398D01*
X5376189Y16179073D01*
X5323041Y16271128D01*
X5247878Y16346291D01*
X5155823Y16399439D01*
X5053148Y16426950D01*
X4946852Y16426950D01*
X4844177Y16399439D01*
X4844175Y16399438D01*
X4844174Y16399438D01*
X4752125Y16346293D01*
X4752119Y16346289D01*
X4676961Y16271131D01*
X4676957Y16271125D01*
X4623812Y16179076D01*
X4623812Y16179075D01*
X4623811Y16179073D01*
X4612723Y16137690D01*
X4597997Y16082730D01*
X4596300Y16076398D01*
X4347470Y16076398D01*
X4326189Y16155823D01*
X4273041Y16247878D01*
X4197878Y16323041D01*
X4105823Y16376189D01*
X4003148Y16403700D01*
X3896852Y16403700D01*
X3794177Y16376189D01*
X3794175Y16376188D01*
X3794174Y16376188D01*
X3702125Y16323043D01*
X3702119Y16323039D01*
X3626961Y16247881D01*
X3626957Y16247875D01*
X3573812Y16155826D01*
X3573812Y16155825D01*
X3573811Y16155823D01*
X3546300Y16053148D01*
X2126906Y16053148D01*
X2126189Y16055823D01*
X2073041Y16147878D01*
X1997878Y16223041D01*
X1936508Y16258473D01*
X1905825Y16276188D01*
X1905824Y16276189D01*
X1905823Y16276189D01*
X1803148Y16303700D01*
X1696852Y16303700D01*
X1594177Y16276189D01*
X1594175Y16276188D01*
X1594174Y16276188D01*
X1502125Y16223043D01*
X1502119Y16223039D01*
X1426961Y16147881D01*
X1426957Y16147875D01*
X1373812Y16055826D01*
X1373812Y16055825D01*
X1373811Y16055823D01*
X1346300Y15953148D01*
X375500Y15953148D01*
X375500Y17159954D01*
X395185Y17226993D01*
X447989Y17272748D01*
X517147Y17282692D01*
X580703Y17253667D01*
X587181Y17247635D01*
X676414Y17158402D01*
X791676Y17081387D01*
X908017Y17033198D01*
X919738Y17028343D01*
X1036744Y17005069D01*
X1055687Y17001301D01*
X1055690Y17001300D01*
X1055692Y17001300D01*
X1794310Y17001300D01*
X1794311Y17001301D01*
X1930262Y17028343D01*
X1994294Y17054866D01*
X2058323Y17081387D01*
X2058324Y17081388D01*
X2058327Y17081389D01*
X2173583Y17158400D01*
X2271600Y17256417D01*
X2348611Y17371673D01*
X2353853Y17384327D01*
X2391131Y17474327D01*
X2401657Y17499738D01*
X2428700Y17635692D01*
X2428700Y17774308D01*
X2428700Y17774311D01*
X2428699Y17774313D01*
X2418567Y17825249D01*
X2401657Y17910262D01*
X2370559Y17985340D01*
X2348613Y18038324D01*
X2271598Y18153586D01*
X2269013Y18156171D01*
X2268091Y18157859D01*
X2267735Y18158293D01*
X2267817Y18158361D01*
X2235528Y18217494D01*
X2240512Y18287186D01*
X2282384Y18343119D01*
X2344941Y18366452D01*
X2344897Y18366791D01*
X2346370Y18366986D01*
X2347848Y18367536D01*
X2351562Y18367669D01*
X2352948Y18367852D01*
X2352957Y18367852D01*
X2455632Y18395363D01*
X2547687Y18448511D01*
X2622850Y18523674D01*
X2675998Y18615729D01*
X2703509Y18718404D01*
X2703509Y18824700D01*
X2675998Y18927375D01*
X2675997Y18927377D01*
X2673899Y18935207D01*
X2674494Y18960202D01*
X2670936Y18984947D01*
X2675311Y18994528D01*
X2675562Y19005057D01*
X2689574Y19025761D01*
X2699961Y19048503D01*
X2708822Y19054198D01*
X2714725Y19062919D01*
X2737705Y19072761D01*
X2758739Y19086277D01*
X2774594Y19088557D01*
X2778953Y19090423D01*
X2793674Y19091300D01*
X2859539Y19091300D01*
X2926578Y19071615D01*
X2972333Y19018811D01*
X2982277Y18949653D01*
X2979315Y18935214D01*
X2956595Y18850418D01*
X2956595Y18744122D01*
X2984106Y18641447D01*
X3037254Y18549392D01*
X3112417Y18474229D01*
X3204472Y18421081D01*
X3307147Y18393570D01*
X3307149Y18393570D01*
X3413441Y18393570D01*
X3413443Y18393570D01*
X3516118Y18421081D01*
X3608173Y18474229D01*
X3683336Y18549392D01*
X3736484Y18641447D01*
X3763995Y18744122D01*
X3763995Y18850418D01*
X3741276Y18935209D01*
X3742939Y19005057D01*
X3782102Y19062919D01*
X3846331Y19090423D01*
X3861051Y19091300D01*
X4529287Y19091300D01*
X4596326Y19071615D01*
X4642081Y19018811D01*
X4649061Y18999395D01*
X4661903Y18951469D01*
X4661905Y18951464D01*
X4724505Y18843036D01*
X4813036Y18754505D01*
X4921464Y18691905D01*
X5042399Y18659500D01*
X5042401Y18659500D01*
X5167599Y18659500D01*
X5167601Y18659500D01*
X5288536Y18691905D01*
X5396964Y18754505D01*
X5485495Y18843036D01*
X5548095Y18951464D01*
X5557067Y18984947D01*
X5560939Y18999395D01*
X5575431Y19023171D01*
X5587000Y19048503D01*
X5593365Y19052595D01*
X5597304Y19059055D01*
X5622350Y19071222D01*
X5645778Y19086277D01*
X5656527Y19087823D01*
X5660152Y19089583D01*
X5680713Y19091300D01*
X5736814Y19091300D01*
X5803853Y19071615D01*
X5849608Y19018811D01*
X5859552Y18949653D01*
X5856590Y18935215D01*
X5841300Y18878148D01*
X5841300Y18771852D01*
X5868811Y18669177D01*
X5868812Y18669176D01*
X5868812Y18669175D01*
X5911810Y18594700D01*
X5928283Y18526800D01*
X5905430Y18460773D01*
X5850509Y18417582D01*
X5804423Y18408700D01*
X4985689Y18408700D01*
X4849745Y18381659D01*
X4849733Y18381656D01*
X4721676Y18328614D01*
X4606414Y18251599D01*
X4508401Y18153586D01*
X4431386Y18038324D01*
X4378344Y17910267D01*
X4378341Y17910255D01*
X4351300Y17774313D01*
X4351300Y17635688D01*
X4378341Y17499746D01*
X4378344Y17499734D01*
X4431386Y17371677D01*
X4508401Y17256415D01*
X4606414Y17158402D01*
X4721676Y17081387D01*
X4838017Y17033198D01*
X4849738Y17028343D01*
X4966744Y17005069D01*
X4985687Y17001301D01*
X4985690Y17001300D01*
X4985692Y17001300D01*
X6224310Y17001300D01*
X6224311Y17001301D01*
X6360262Y17028343D01*
X6488327Y17081389D01*
X6528409Y17108172D01*
X6595087Y17129049D01*
X6662467Y17110564D01*
X6709157Y17058586D01*
X6721300Y17005069D01*
X6721300Y15843581D01*
X6701615Y15776542D01*
X6684981Y15755900D01*
X6676961Y15747881D01*
X6676957Y15747875D01*
X6623812Y15655826D01*
X6623812Y15655825D01*
X6623811Y15655823D01*
X6596300Y15553148D01*
X6596300Y15446852D01*
X6623811Y15344177D01*
X6676959Y15252122D01*
X6752122Y15176959D01*
X6844177Y15123811D01*
X6946852Y15096300D01*
X6946854Y15096300D01*
X7053145Y15096300D01*
X7053148Y15096300D01*
X7140210Y15119628D01*
X7210056Y15117965D01*
X7267919Y15078803D01*
X7295423Y15014574D01*
X7296300Y14999853D01*
X7296300Y14896852D01*
X7323811Y14794177D01*
X7376959Y14702122D01*
X7452122Y14626959D01*
X7544177Y14573811D01*
X7646852Y14546300D01*
X7646854Y14546300D01*
X7753146Y14546300D01*
X7753148Y14546300D01*
X7855823Y14573811D01*
X7947878Y14626959D01*
X8023041Y14702122D01*
X8076189Y14794177D01*
X8103700Y14896852D01*
X8103700Y15003148D01*
X8076189Y15105823D01*
X8023041Y15197878D01*
X7983600Y15237319D01*
X7950115Y15298642D01*
X7955099Y15368334D01*
X7983600Y15412681D01*
X8000838Y15429919D01*
X8023041Y15452122D01*
X8076189Y15544177D01*
X8103700Y15646852D01*
X8103700Y15753148D01*
X8076189Y15855823D01*
X8023041Y15947878D01*
X7947878Y16023041D01*
X7873284Y16066108D01*
X7855825Y16076188D01*
X7855824Y16076189D01*
X7855823Y16076189D01*
X7753148Y16103700D01*
X7646852Y16103700D01*
X7544177Y16076189D01*
X7544175Y16076188D01*
X7544174Y16076188D01*
X7464700Y16030303D01*
X7396800Y16013830D01*
X7330773Y16036683D01*
X7287582Y16091604D01*
X7278700Y16137690D01*
X7278700Y16578019D01*
X8211170Y16578019D01*
X8211170Y16471723D01*
X8238681Y16369048D01*
X8238682Y16369047D01*
X8238682Y16369046D01*
X8251819Y16346293D01*
X8291829Y16276993D01*
X8366992Y16201830D01*
X8459047Y16148682D01*
X8561722Y16121171D01*
X8561724Y16121171D01*
X8668016Y16121171D01*
X8668018Y16121171D01*
X8770693Y16148682D01*
X8862748Y16201830D01*
X8937911Y16276993D01*
X8991059Y16369048D01*
X9018570Y16471723D01*
X9018570Y16489731D01*
X10321300Y16489731D01*
X10321300Y16370269D01*
X10352219Y16254878D01*
X10411950Y16151422D01*
X10411951Y16151421D01*
X10416014Y16144384D01*
X10413653Y16143022D01*
X10434027Y16090300D01*
X10419978Y16021857D01*
X10415980Y16015636D01*
X10416014Y16015616D01*
X10411951Y16008580D01*
X10411950Y16008578D01*
X10352219Y15905122D01*
X10321300Y15789731D01*
X10321300Y15670269D01*
X10352219Y15554878D01*
X10411950Y15451422D01*
X10411951Y15451421D01*
X10416014Y15444384D01*
X10413653Y15443022D01*
X10434027Y15390300D01*
X10419978Y15321857D01*
X10415980Y15315636D01*
X10416014Y15315616D01*
X10411951Y15308580D01*
X10411950Y15308578D01*
X10352219Y15205122D01*
X10321300Y15089731D01*
X10321300Y14970269D01*
X10352219Y14854878D01*
X10411950Y14751422D01*
X10496422Y14666950D01*
X10599878Y14607219D01*
X10715269Y14576300D01*
X10715271Y14576300D01*
X10834728Y14576300D01*
X10834731Y14576300D01*
X10950122Y14607219D01*
X11053578Y14666950D01*
X11053579Y14666952D01*
X11060616Y14671014D01*
X11061981Y14668650D01*
X11114668Y14689025D01*
X11183114Y14674995D01*
X11189363Y14670979D01*
X11189384Y14671014D01*
X11196420Y14666952D01*
X11196422Y14666950D01*
X11299878Y14607219D01*
X11415269Y14576300D01*
X11415271Y14576300D01*
X11534728Y14576300D01*
X11534731Y14576300D01*
X11650122Y14607219D01*
X11753578Y14666950D01*
X11753579Y14666952D01*
X11760616Y14671014D01*
X11761981Y14668650D01*
X11814668Y14689025D01*
X11883114Y14674995D01*
X11889363Y14670979D01*
X11889384Y14671014D01*
X11896420Y14666952D01*
X11896422Y14666950D01*
X11999878Y14607219D01*
X12115269Y14576300D01*
X12115271Y14576300D01*
X12234728Y14576300D01*
X12234731Y14576300D01*
X12350122Y14607219D01*
X12453578Y14666950D01*
X12538050Y14751422D01*
X12597781Y14854878D01*
X12628700Y14970269D01*
X12628700Y15089731D01*
X12597781Y15205122D01*
X12597779Y15205126D01*
X12583994Y15229003D01*
X12583897Y15229170D01*
X12552732Y15283148D01*
X13796300Y15283148D01*
X13796300Y15176852D01*
X13823811Y15074177D01*
X13876959Y14982122D01*
X13952122Y14906959D01*
X14044177Y14853811D01*
X14146852Y14826300D01*
X14146854Y14826300D01*
X14253146Y14826300D01*
X14253148Y14826300D01*
X14355823Y14853811D01*
X14447878Y14906959D01*
X14523041Y14982122D01*
X14576189Y15074177D01*
X14603700Y15176852D01*
X14603700Y15283148D01*
X14576189Y15385823D01*
X14523041Y15477878D01*
X14447878Y15553041D01*
X14386508Y15588473D01*
X14355825Y15606188D01*
X14355824Y15606189D01*
X14355823Y15606189D01*
X14253148Y15633700D01*
X14146852Y15633700D01*
X14044177Y15606189D01*
X14044175Y15606188D01*
X14044174Y15606188D01*
X13952125Y15553043D01*
X13952119Y15553039D01*
X13876961Y15477881D01*
X13876957Y15477875D01*
X13823812Y15385826D01*
X13823812Y15385825D01*
X13823811Y15385823D01*
X13796300Y15283148D01*
X12552732Y15283148D01*
X12538050Y15308578D01*
X12537076Y15309552D01*
X12532395Y15317589D01*
X12525843Y15344151D01*
X12515975Y15369668D01*
X12517597Y15377583D01*
X12515663Y15385425D01*
X12524510Y15411309D01*
X12530005Y15438114D01*
X12534021Y15444364D01*
X12533986Y15444384D01*
X12538048Y15451421D01*
X12538050Y15451422D01*
X12597781Y15554878D01*
X12628700Y15670269D01*
X12628700Y15789731D01*
X12597781Y15905122D01*
X12538050Y16008578D01*
X12538048Y16008580D01*
X12533986Y16015616D01*
X12536350Y16016982D01*
X12515975Y16069668D01*
X12530005Y16138114D01*
X12534021Y16144364D01*
X12533986Y16144384D01*
X12538048Y16151421D01*
X12538050Y16151422D01*
X12597781Y16254878D01*
X12628700Y16370269D01*
X12628700Y16489731D01*
X12597781Y16605122D01*
X12538050Y16708578D01*
X12453578Y16793050D01*
X12350122Y16852781D01*
X12234731Y16883700D01*
X12115269Y16883700D01*
X11999878Y16852781D01*
X11896422Y16793050D01*
X11896420Y16793049D01*
X11889384Y16788986D01*
X11888021Y16791347D01*
X11835300Y16770973D01*
X11766857Y16785022D01*
X11760635Y16789020D01*
X11760616Y16788986D01*
X11753579Y16793049D01*
X11753578Y16793050D01*
X11650122Y16852781D01*
X11534731Y16883700D01*
X11415269Y16883700D01*
X11299878Y16852781D01*
X11196422Y16793050D01*
X11196420Y16793049D01*
X11189384Y16788986D01*
X11188021Y16791347D01*
X11135300Y16770973D01*
X11066857Y16785022D01*
X11060635Y16789020D01*
X11060616Y16788986D01*
X11053579Y16793049D01*
X11053578Y16793050D01*
X10950122Y16852781D01*
X10834731Y16883700D01*
X10715269Y16883700D01*
X10599878Y16852781D01*
X10599876Y16852781D01*
X10599876Y16852780D01*
X10496422Y16793050D01*
X10496419Y16793048D01*
X10411952Y16708581D01*
X10411950Y16708578D01*
X10352219Y16605122D01*
X10321300Y16489731D01*
X9018570Y16489731D01*
X9018570Y16578019D01*
X8991059Y16680694D01*
X8937911Y16772749D01*
X8862748Y16847912D01*
X8770693Y16901060D01*
X8668018Y16928571D01*
X8561722Y16928571D01*
X8459047Y16901060D01*
X8459045Y16901059D01*
X8459044Y16901059D01*
X8366995Y16847914D01*
X8366989Y16847910D01*
X8291831Y16772752D01*
X8291827Y16772746D01*
X8238682Y16680697D01*
X8238682Y16680696D01*
X8238681Y16680694D01*
X8211170Y16578019D01*
X7278700Y16578019D01*
X7278700Y17033198D01*
X7298385Y17100237D01*
X7315015Y17120875D01*
X7617850Y17423711D01*
X9144531Y17423711D01*
X9144531Y17317415D01*
X9172042Y17214740D01*
X9225190Y17122685D01*
X9300353Y17047522D01*
X9392408Y16994374D01*
X9495083Y16966863D01*
X9495085Y16966863D01*
X9601377Y16966863D01*
X9601379Y16966863D01*
X9704054Y16994374D01*
X9796109Y17047522D01*
X9871272Y17122685D01*
X9924420Y17214740D01*
X9951931Y17317415D01*
X9951931Y17423711D01*
X9924420Y17526386D01*
X9871272Y17618441D01*
X9796109Y17693604D01*
X9704054Y17746752D01*
X9601379Y17774263D01*
X9495083Y17774263D01*
X9392408Y17746752D01*
X9392406Y17746751D01*
X9392405Y17746751D01*
X9300356Y17693606D01*
X9300350Y17693602D01*
X9225192Y17618444D01*
X9225188Y17618438D01*
X9172043Y17526389D01*
X9172043Y17526388D01*
X9172042Y17526386D01*
X9144531Y17423711D01*
X7617850Y17423711D01*
X7734916Y17540777D01*
X7734921Y17540780D01*
X7745124Y17550984D01*
X7745126Y17550984D01*
X7797016Y17602874D01*
X7833707Y17666426D01*
X7838088Y17682776D01*
X7852701Y17737309D01*
X7852701Y17810692D01*
X7852700Y17810696D01*
X7852700Y18967300D01*
X7872385Y19034339D01*
X7925189Y19080094D01*
X7976700Y19091300D01*
X9775991Y19091300D01*
X9776000Y19091300D01*
X9820364Y19096070D01*
X9871875Y19107276D01*
X9882212Y19109802D01*
X9964181Y19153481D01*
X10016985Y19199236D01*
X10035218Y19217101D01*
X10080561Y19298162D01*
X10082169Y19303640D01*
X10119937Y19362417D01*
X10183491Y19391447D01*
X10252650Y19381508D01*
X10305458Y19335757D01*
X10320921Y19300806D01*
X10336716Y19241859D01*
X10389864Y19149804D01*
X10465027Y19074641D01*
X10557082Y19021493D01*
X10659757Y18993982D01*
X10659759Y18993982D01*
X10766051Y18993982D01*
X10766053Y18993982D01*
X10868728Y19021493D01*
X10960783Y19074641D01*
X11035946Y19149804D01*
X11089094Y19241859D01*
X11091309Y19250129D01*
X11127672Y19309788D01*
X11190519Y19340319D01*
X11259894Y19332025D01*
X11273081Y19325425D01*
X11319177Y19298811D01*
X11421852Y19271300D01*
X11421854Y19271300D01*
X11528146Y19271300D01*
X11528148Y19271300D01*
X11630823Y19298811D01*
X11722878Y19351959D01*
X11798041Y19427122D01*
X11851189Y19519177D01*
X11878700Y19621852D01*
X11878700Y19728148D01*
X11851189Y19830823D01*
X11798041Y19922878D01*
X11722878Y19998041D01*
X11630823Y20051189D01*
X11555557Y20071356D01*
X11495899Y20107720D01*
X11465370Y20170567D01*
X11465679Y20173148D01*
X12896300Y20173148D01*
X12896300Y20066852D01*
X12923811Y19964177D01*
X12976959Y19872122D01*
X13052122Y19796959D01*
X13144177Y19743811D01*
X13246852Y19716300D01*
X13246854Y19716300D01*
X13353146Y19716300D01*
X13353148Y19716300D01*
X13455823Y19743811D01*
X13547878Y19796959D01*
X13623041Y19872122D01*
X13664013Y19943089D01*
X13714578Y19991302D01*
X13783185Y20004526D01*
X13848050Y19978558D01*
X13878786Y19943088D01*
X13926981Y19859612D01*
X14002144Y19784449D01*
X14094199Y19731301D01*
X14196874Y19703790D01*
X14196876Y19703790D01*
X14303168Y19703790D01*
X14303170Y19703790D01*
X14405845Y19731301D01*
X14497900Y19784449D01*
X14573063Y19859612D01*
X14626211Y19951667D01*
X14653722Y20054342D01*
X14653722Y20160638D01*
X14626211Y20263313D01*
X14573063Y20355368D01*
X14497900Y20430531D01*
X14405845Y20483679D01*
X14303170Y20511190D01*
X14196874Y20511190D01*
X14094199Y20483679D01*
X14094197Y20483678D01*
X14094196Y20483678D01*
X14002147Y20430533D01*
X14002141Y20430529D01*
X13926983Y20355371D01*
X13926981Y20355368D01*
X13886009Y20284403D01*
X13835441Y20236188D01*
X13766834Y20222966D01*
X13701969Y20248934D01*
X13671235Y20284404D01*
X13630265Y20355365D01*
X13623041Y20367878D01*
X13547878Y20443041D01*
X13455823Y20496189D01*
X13353148Y20523700D01*
X13246852Y20523700D01*
X13144177Y20496189D01*
X13144175Y20496188D01*
X13144174Y20496188D01*
X13052125Y20443043D01*
X13052119Y20443039D01*
X12976961Y20367881D01*
X12976957Y20367875D01*
X12923812Y20275826D01*
X12923812Y20275825D01*
X12923811Y20275823D01*
X12896300Y20173148D01*
X11465679Y20173148D01*
X11473665Y20239943D01*
X11518150Y20293821D01*
X11555555Y20310903D01*
X11602224Y20323407D01*
X11694279Y20376555D01*
X11769442Y20451718D01*
X11822590Y20543773D01*
X11850101Y20646448D01*
X11850101Y20752744D01*
X11822590Y20855419D01*
X11769442Y20947474D01*
X11752222Y20964694D01*
X11718737Y21026017D01*
X11723721Y21095709D01*
X11752222Y21140056D01*
X11787048Y21174882D01*
X11840196Y21266937D01*
X11867707Y21369612D01*
X11867707Y21475908D01*
X11840196Y21578583D01*
X11787048Y21670638D01*
X11727717Y21729969D01*
X11694232Y21791292D01*
X11699216Y21860984D01*
X11727716Y21905330D01*
X11733748Y21911361D01*
X11786896Y22003416D01*
X11814407Y22106091D01*
X11814407Y22212387D01*
X11786896Y22315062D01*
X11733748Y22407117D01*
X11692811Y22448054D01*
X11659326Y22509377D01*
X11664310Y22579069D01*
X11692811Y22623416D01*
X11709799Y22640404D01*
X11762947Y22732459D01*
X11790458Y22835134D01*
X11790458Y22941430D01*
X11762947Y23044105D01*
X11709799Y23136160D01*
X11634636Y23211323D01*
X11542581Y23264471D01*
X11439906Y23291982D01*
X11403660Y23291982D01*
X11336621Y23311667D01*
X11290866Y23364471D01*
X11280922Y23433629D01*
X11309947Y23497185D01*
X11341660Y23523369D01*
X11341820Y23523462D01*
X11347878Y23526959D01*
X11423041Y23602122D01*
X11476189Y23694177D01*
X11494040Y23760800D01*
X11530403Y23820459D01*
X11593250Y23850989D01*
X11662626Y23842695D01*
X11675814Y23836093D01*
X11744665Y23796342D01*
X11847340Y23768831D01*
X11847342Y23768831D01*
X11953634Y23768831D01*
X11953636Y23768831D01*
X11986527Y23777644D01*
X12056375Y23775982D01*
X12114238Y23736821D01*
X12141743Y23672593D01*
X12138396Y23625780D01*
X12128836Y23590100D01*
X12128836Y23483804D01*
X12156347Y23381129D01*
X12156348Y23381128D01*
X12156348Y23381127D01*
X12169254Y23358774D01*
X12209495Y23289074D01*
X12284658Y23213911D01*
X12376713Y23160763D01*
X12479388Y23133252D01*
X12479390Y23133252D01*
X12538017Y23133252D01*
X12605056Y23113567D01*
X12650811Y23060763D01*
X12662017Y23009252D01*
X12662017Y22929437D01*
X12689528Y22826762D01*
X12742676Y22734707D01*
X12817839Y22659544D01*
X12909894Y22606396D01*
X13004879Y22580946D01*
X13064538Y22544583D01*
X13095068Y22481736D01*
X13095498Y22457714D01*
X13096330Y22457714D01*
X13096330Y22449587D01*
X13096330Y22343291D01*
X13123841Y22240616D01*
X13176989Y22148561D01*
X13252152Y22073398D01*
X13344207Y22020250D01*
X13446882Y21992739D01*
X13446884Y21992739D01*
X13553176Y21992739D01*
X13553178Y21992739D01*
X13655853Y22020250D01*
X13747908Y22073398D01*
X13823071Y22148561D01*
X13876219Y22240616D01*
X13903730Y22343291D01*
X13903730Y22449587D01*
X13876219Y22552262D01*
X13823071Y22644317D01*
X13747908Y22719480D01*
X13655853Y22772628D01*
X13560866Y22798079D01*
X13501207Y22834443D01*
X13470678Y22897289D01*
X13470252Y22921310D01*
X13469417Y22921310D01*
X13469417Y23035731D01*
X13469417Y23035733D01*
X13441906Y23138408D01*
X13427102Y23164049D01*
X13410630Y23231946D01*
X13433482Y23297973D01*
X13472489Y23333434D01*
X13547878Y23376959D01*
X13623041Y23452122D01*
X13676189Y23544177D01*
X13703700Y23646852D01*
X13703700Y23753148D01*
X13703700Y23761275D01*
X13705551Y23761275D01*
X13714735Y23820154D01*
X13761117Y23872408D01*
X13826907Y23891300D01*
X14175991Y23891300D01*
X14176000Y23891300D01*
X14220364Y23896070D01*
X14271875Y23907276D01*
X14282212Y23909802D01*
X14364181Y23953481D01*
X14416985Y23999236D01*
X14435218Y24017101D01*
X14480561Y24098162D01*
X14500246Y24165201D01*
X14508700Y24224000D01*
X14508700Y25644867D01*
X14503930Y25689231D01*
X14492724Y25740742D01*
X14490198Y25751079D01*
X14446519Y25833048D01*
X14400764Y25885852D01*
X14400755Y25885861D01*
X14400748Y25885869D01*
X14382901Y25904083D01*
X14382894Y25904089D01*
X14315584Y25941739D01*
X14301838Y25949428D01*
X14269975Y25958784D01*
X14234800Y25969113D01*
X14234792Y25969115D01*
X14176001Y25977567D01*
X14176000Y25977567D01*
X9924000Y25977567D01*
X9923992Y25977567D01*
X9879637Y25972798D01*
X9828118Y25961590D01*
X9820432Y25959712D01*
X9817788Y25959065D01*
X9776803Y25937226D01*
X9735818Y25915386D01*
X9683018Y25869634D01*
X9682998Y25869616D01*
X9664784Y25851769D01*
X9664778Y25851762D01*
X9619441Y25770709D01*
X9619438Y25770702D01*
X9599754Y25703668D01*
X9599752Y25703660D01*
X9591300Y25644869D01*
X9591300Y25101567D01*
X9571615Y25034528D01*
X9518811Y24988773D01*
X9467300Y24977567D01*
X7976700Y24977567D01*
X7909661Y24997252D01*
X7863906Y25050056D01*
X7852700Y25101567D01*
X7852700Y25604743D01*
X7861344Y25634184D01*
X7867868Y25664170D01*
X7871622Y25669186D01*
X7872385Y25671782D01*
X7889015Y25692420D01*
X8060916Y25864322D01*
X8060921Y25864325D01*
X8071124Y25874529D01*
X8071126Y25874529D01*
X8123016Y25926419D01*
X8159707Y25989971D01*
X8162930Y26002000D01*
X8178701Y26060853D01*
X8178701Y26134237D01*
X8178700Y26134241D01*
X8178700Y27206419D01*
X8198385Y27273458D01*
X8215019Y27294100D01*
X8217260Y27296341D01*
X8223041Y27302122D01*
X8276189Y27394177D01*
X8276191Y27394188D01*
X8278615Y27400038D01*
X8322451Y27454446D01*
X8388743Y27476518D01*
X8456444Y27459245D01*
X8504059Y27408113D01*
X8512954Y27384695D01*
X8523811Y27344177D01*
X8576959Y27252122D01*
X8652122Y27176959D01*
X8744177Y27123811D01*
X8846852Y27096300D01*
X8846854Y27096300D01*
X8953146Y27096300D01*
X8953148Y27096300D01*
X9055823Y27123811D01*
X9147878Y27176959D01*
X9223041Y27252122D01*
X9276189Y27344177D01*
X9303700Y27446852D01*
X9303700Y27553148D01*
X9276189Y27655823D01*
X9223041Y27747878D01*
X9147878Y27823041D01*
X9061279Y27873039D01*
X9055825Y27876188D01*
X9055824Y27876189D01*
X9055823Y27876189D01*
X8953148Y27903700D01*
X8846852Y27903700D01*
X8744177Y27876189D01*
X8744175Y27876188D01*
X8744174Y27876188D01*
X8652125Y27823043D01*
X8652119Y27823039D01*
X8576961Y27747881D01*
X8576957Y27747875D01*
X8523812Y27655826D01*
X8521380Y27649953D01*
X8477539Y27595549D01*
X8411245Y27573483D01*
X8343546Y27590762D01*
X8295935Y27641898D01*
X8287045Y27665307D01*
X8276189Y27705823D01*
X8223041Y27797878D01*
X8147878Y27873041D01*
X8059942Y27923811D01*
X8055825Y27926188D01*
X8055824Y27926189D01*
X8055823Y27926189D01*
X7953148Y27953700D01*
X7846852Y27953700D01*
X7744177Y27926189D01*
X7744175Y27926188D01*
X7744174Y27926188D01*
X7652125Y27873043D01*
X7652119Y27873039D01*
X7576961Y27797881D01*
X7576957Y27797875D01*
X7523812Y27705826D01*
X7523812Y27705825D01*
X7523811Y27705823D01*
X7496300Y27603148D01*
X7496300Y27496852D01*
X7523811Y27394177D01*
X7576959Y27302122D01*
X7576961Y27302120D01*
X7584981Y27294100D01*
X7618466Y27232777D01*
X7621300Y27206419D01*
X7621300Y26448382D01*
X7601615Y26381343D01*
X7548811Y26335588D01*
X7479653Y26325644D01*
X7416097Y26354669D01*
X7409619Y26360701D01*
X7405298Y26365022D01*
X7405296Y26365024D01*
X7313241Y26418172D01*
X7210566Y26445683D01*
X7104270Y26445683D01*
X7001595Y26418172D01*
X7001593Y26418171D01*
X6993745Y26416068D01*
X6992876Y26419311D01*
X6938802Y26413581D01*
X6876371Y26444953D01*
X6840811Y26505097D01*
X6839395Y26511360D01*
X6831657Y26550262D01*
X6819228Y26580268D01*
X6778613Y26678324D01*
X6701598Y26793586D01*
X6603585Y26891599D01*
X6488323Y26968614D01*
X6360266Y27021656D01*
X6360254Y27021659D01*
X6224311Y27048700D01*
X6224308Y27048700D01*
X4985692Y27048700D01*
X4985689Y27048700D01*
X4849745Y27021659D01*
X4849733Y27021656D01*
X4721676Y26968614D01*
X4606414Y26891599D01*
X4508401Y26793586D01*
X4431386Y26678324D01*
X4378344Y26550267D01*
X4378341Y26550257D01*
X4363590Y26476097D01*
X4331205Y26414186D01*
X4270489Y26379612D01*
X4200720Y26383352D01*
X4179973Y26392902D01*
X4179408Y26393228D01*
X4136204Y26418172D01*
X4087359Y26446373D01*
X4087358Y26446374D01*
X4087357Y26446374D01*
X3984682Y26473885D01*
X3878386Y26473885D01*
X3775711Y26446374D01*
X3775709Y26446373D01*
X3775708Y26446373D01*
X3683659Y26393228D01*
X3683653Y26393224D01*
X3608495Y26318066D01*
X3608491Y26318060D01*
X3555346Y26226011D01*
X3552237Y26218503D01*
X3549074Y26219813D01*
X3520876Y26173637D01*
X3458003Y26143160D01*
X3388635Y26151512D01*
X3334794Y26196042D01*
X3321880Y26224349D01*
X3321341Y26224125D01*
X3318234Y26231625D01*
X3318233Y26231630D01*
X3265085Y26323685D01*
X3189922Y26398848D01*
X3110066Y26444953D01*
X3097869Y26451995D01*
X3097868Y26451996D01*
X3097867Y26451996D01*
X2995192Y26479507D01*
X2888896Y26479507D01*
X2786221Y26451996D01*
X2786219Y26451995D01*
X2786218Y26451995D01*
X2694169Y26398850D01*
X2694167Y26398849D01*
X2639274Y26343956D01*
X2577950Y26310472D01*
X2508258Y26315457D01*
X2452325Y26357328D01*
X2432341Y26408822D01*
X2429889Y26408334D01*
X2404631Y26535311D01*
X2401657Y26550262D01*
X2389228Y26580268D01*
X2348613Y26678324D01*
X2271598Y26793586D01*
X2173585Y26891599D01*
X2058323Y26968614D01*
X1930266Y27021656D01*
X1930254Y27021659D01*
X1794311Y27048700D01*
X1794308Y27048700D01*
X1055692Y27048700D01*
X1055689Y27048700D01*
X919745Y27021659D01*
X919733Y27021656D01*
X791676Y26968614D01*
X676414Y26891599D01*
X676413Y26891598D01*
X587181Y26802365D01*
X525858Y26768880D01*
X456166Y26773864D01*
X400233Y26815736D01*
X375816Y26881200D01*
X375500Y26890046D01*
X375500Y29303148D01*
X746300Y29303148D01*
X746300Y29196852D01*
X773811Y29094177D01*
X773812Y29094176D01*
X773812Y29094175D01*
X780683Y29082275D01*
X826959Y29002122D01*
X902122Y28926959D01*
X979323Y28882387D01*
X1027538Y28831820D01*
X1040760Y28763212D01*
X1014792Y28698348D01*
X979323Y28667613D01*
X902122Y28623041D01*
X902119Y28623039D01*
X826961Y28547881D01*
X826957Y28547875D01*
X773812Y28455826D01*
X773812Y28455825D01*
X773811Y28455823D01*
X746300Y28353148D01*
X746300Y28246852D01*
X773811Y28144177D01*
X826959Y28052122D01*
X902122Y27976959D01*
X994177Y27923811D01*
X1096852Y27896300D01*
X1096854Y27896300D01*
X1203146Y27896300D01*
X1203148Y27896300D01*
X1305823Y27923811D01*
X1397878Y27976959D01*
X1473041Y28052122D01*
X1499360Y28097707D01*
X5558799Y28097707D01*
X5558799Y27991411D01*
X5586310Y27888736D01*
X5586311Y27888735D01*
X5586311Y27888734D01*
X5595373Y27873039D01*
X5639458Y27796681D01*
X5714621Y27721518D01*
X5806676Y27668370D01*
X5909351Y27640859D01*
X5909353Y27640859D01*
X6015645Y27640859D01*
X6015647Y27640859D01*
X6118322Y27668370D01*
X6210377Y27721518D01*
X6285540Y27796681D01*
X6338688Y27888736D01*
X6366199Y27991411D01*
X6366199Y28097707D01*
X6338688Y28200382D01*
X6285540Y28292437D01*
X6282200Y28296789D01*
X6257003Y28361958D01*
X6271039Y28430403D01*
X6282201Y28447770D01*
X6285534Y28452116D01*
X6285541Y28452122D01*
X6338689Y28544177D01*
X6366200Y28646852D01*
X6366200Y28753148D01*
X6338689Y28855823D01*
X6287327Y28944785D01*
X6270854Y29012685D01*
X6293707Y29078712D01*
X6296341Y29082275D01*
X6297452Y29083725D01*
X6297458Y29083730D01*
X6350606Y29175785D01*
X6378117Y29278460D01*
X6378117Y29384756D01*
X6350606Y29487431D01*
X6297458Y29579486D01*
X6222295Y29654649D01*
X6130240Y29707797D01*
X6027565Y29735308D01*
X5921269Y29735308D01*
X5818594Y29707797D01*
X5818592Y29707796D01*
X5818591Y29707796D01*
X5726542Y29654651D01*
X5726536Y29654647D01*
X5651378Y29579489D01*
X5651374Y29579483D01*
X5598229Y29487434D01*
X5598229Y29487433D01*
X5598228Y29487431D01*
X5570717Y29384756D01*
X5570717Y29278460D01*
X5598228Y29175785D01*
X5598229Y29175784D01*
X5598230Y29175779D01*
X5649589Y29086823D01*
X5666062Y29018923D01*
X5643209Y28952896D01*
X5640584Y28949346D01*
X5639461Y28947883D01*
X5586312Y28855826D01*
X5586312Y28855825D01*
X5586311Y28855823D01*
X5558800Y28753148D01*
X5558800Y28646852D01*
X5586311Y28544177D01*
X5637322Y28455823D01*
X5639460Y28452121D01*
X5642799Y28447769D01*
X5667995Y28382601D01*
X5653958Y28314156D01*
X5642805Y28296800D01*
X5639459Y28292440D01*
X5586311Y28200385D01*
X5586311Y28200384D01*
X5586310Y28200382D01*
X5558799Y28097707D01*
X1499360Y28097707D01*
X1526189Y28144177D01*
X1553700Y28246852D01*
X1553700Y28353148D01*
X1526189Y28455823D01*
X1473041Y28547878D01*
X1397878Y28623041D01*
X1320676Y28667614D01*
X1319653Y28668687D01*
X1318218Y28669070D01*
X1295613Y28693899D01*
X1272461Y28718180D01*
X1272180Y28719638D01*
X1271181Y28720735D01*
X1265593Y28753813D01*
X1259238Y28786787D01*
X1259790Y28788167D01*
X1259543Y28789629D01*
X1272724Y28820475D01*
X1283794Y28848125D01*
X2601922Y28848125D01*
X2601922Y28741829D01*
X2629433Y28639154D01*
X2629434Y28639153D01*
X2629434Y28639152D01*
X2638735Y28623043D01*
X2682581Y28547099D01*
X2757744Y28471936D01*
X2849799Y28418788D01*
X2952474Y28391277D01*
X2952476Y28391277D01*
X3058768Y28391277D01*
X3058770Y28391277D01*
X3161445Y28418788D01*
X3253500Y28471936D01*
X3328663Y28547099D01*
X3381811Y28639154D01*
X3409322Y28741829D01*
X3409322Y28848125D01*
X3381811Y28950800D01*
X3328663Y29042855D01*
X3253500Y29118018D01*
X3161445Y29171166D01*
X3058770Y29198677D01*
X2952474Y29198677D01*
X2849799Y29171166D01*
X2849797Y29171165D01*
X2849796Y29171165D01*
X2757747Y29118020D01*
X2757741Y29118016D01*
X2682583Y29042858D01*
X2682579Y29042852D01*
X2629434Y28950803D01*
X2629434Y28950802D01*
X2629433Y28950800D01*
X2601922Y28848125D01*
X1283794Y28848125D01*
X1285206Y28851652D01*
X1286604Y28852956D01*
X1286999Y28853878D01*
X1293519Y28859399D01*
X1313097Y28877638D01*
X1316802Y28880150D01*
X1397878Y28926959D01*
X1473041Y29002122D01*
X1526189Y29094177D01*
X1553700Y29196852D01*
X1553700Y29303148D01*
X1526189Y29405823D01*
X1473041Y29497878D01*
X1397878Y29573041D01*
X1305823Y29626189D01*
X1203148Y29653700D01*
X1096852Y29653700D01*
X994177Y29626189D01*
X994175Y29626188D01*
X994174Y29626188D01*
X902125Y29573043D01*
X902119Y29573039D01*
X826961Y29497881D01*
X826957Y29497875D01*
X773812Y29405826D01*
X773812Y29405825D01*
X773811Y29405823D01*
X746300Y29303148D01*
X375500Y29303148D01*
X375500Y29753148D01*
X9246300Y29753148D01*
X9246300Y29646852D01*
X9273811Y29544177D01*
X9326959Y29452122D01*
X9402122Y29376959D01*
X9494177Y29323811D01*
X9596852Y29296300D01*
X9596854Y29296300D01*
X9703146Y29296300D01*
X9703148Y29296300D01*
X9805823Y29323811D01*
X9897878Y29376959D01*
X9973041Y29452122D01*
X10026189Y29544177D01*
X10053700Y29646852D01*
X10053700Y29753148D01*
X10026189Y29855823D01*
X9973041Y29947878D01*
X9897878Y30023041D01*
X9805823Y30076189D01*
X9703148Y30103700D01*
X9596852Y30103700D01*
X9494177Y30076189D01*
X9494175Y30076188D01*
X9494174Y30076188D01*
X9402125Y30023043D01*
X9402119Y30023039D01*
X9326961Y29947881D01*
X9326957Y29947875D01*
X9273812Y29855826D01*
X9273812Y29855825D01*
X9273811Y29855823D01*
X9246300Y29753148D01*
X375500Y29753148D01*
X375500Y31479432D01*
X395185Y31546471D01*
X447989Y31592226D01*
X517147Y31602170D01*
X580703Y31573145D01*
X596446Y31556746D01*
X604640Y31546471D01*
X696884Y31430800D01*
X704876Y31420779D01*
X895779Y31229876D01*
X1106856Y31061548D01*
X1335453Y30917911D01*
X1578695Y30800772D01*
X1616667Y30787485D01*
X1833510Y30711608D01*
X1833522Y30711604D01*
X2096731Y30651528D01*
X2365007Y30621301D01*
X2365008Y30621300D01*
X2365011Y30621300D01*
X2634992Y30621300D01*
X2634992Y30621301D01*
X2903269Y30651528D01*
X3166478Y30711604D01*
X3421305Y30800772D01*
X3664547Y30917911D01*
X3893144Y31061548D01*
X4101255Y31227511D01*
X5149526Y31227511D01*
X5149526Y31121215D01*
X5177037Y31018540D01*
X5177038Y31018539D01*
X5177038Y31018538D01*
X5182343Y31009350D01*
X5230185Y30926485D01*
X5305348Y30851322D01*
X5397403Y30798174D01*
X5500078Y30770663D01*
X5500080Y30770663D01*
X5606372Y30770663D01*
X5606374Y30770663D01*
X5709049Y30798174D01*
X5801104Y30851322D01*
X5876267Y30926485D01*
X5929415Y31018540D01*
X5956926Y31121215D01*
X5956926Y31227511D01*
X5929415Y31330186D01*
X5876267Y31422241D01*
X5801104Y31497404D01*
X5739734Y31532836D01*
X5709051Y31550551D01*
X5709050Y31550552D01*
X5709049Y31550552D01*
X5606374Y31578063D01*
X5500078Y31578063D01*
X5397403Y31550552D01*
X5397401Y31550551D01*
X5397400Y31550551D01*
X5305351Y31497406D01*
X5305345Y31497402D01*
X5230187Y31422244D01*
X5230183Y31422238D01*
X5177038Y31330189D01*
X5177038Y31330188D01*
X5177037Y31330186D01*
X5149526Y31227511D01*
X4101255Y31227511D01*
X4104221Y31229876D01*
X4295124Y31420779D01*
X4421962Y31579829D01*
X6397633Y31579829D01*
X6397633Y31473533D01*
X6425144Y31370858D01*
X6425145Y31370857D01*
X6425145Y31370856D01*
X6435050Y31353700D01*
X6478292Y31278803D01*
X6553455Y31203640D01*
X6645510Y31150492D01*
X6748185Y31122981D01*
X6748187Y31122981D01*
X6854479Y31122981D01*
X6854481Y31122981D01*
X6957156Y31150492D01*
X7049211Y31203640D01*
X7124374Y31278803D01*
X7177522Y31370858D01*
X7205033Y31473533D01*
X7205033Y31579829D01*
X7177522Y31682504D01*
X7124374Y31774559D01*
X7049211Y31849722D01*
X6957156Y31902870D01*
X6854481Y31930381D01*
X6748185Y31930381D01*
X6645510Y31902870D01*
X6645508Y31902869D01*
X6645507Y31902869D01*
X6553458Y31849724D01*
X6553452Y31849720D01*
X6478294Y31774562D01*
X6478290Y31774556D01*
X6425145Y31682507D01*
X6425145Y31682506D01*
X6425144Y31682504D01*
X6397633Y31579829D01*
X4421962Y31579829D01*
X4463452Y31631856D01*
X4607089Y31860453D01*
X4724228Y32103695D01*
X4767791Y32228192D01*
X4780023Y32263148D01*
X5371300Y32263148D01*
X5371300Y32156852D01*
X5398811Y32054177D01*
X5451959Y31962122D01*
X5527122Y31886959D01*
X5619177Y31833811D01*
X5721852Y31806300D01*
X5721854Y31806300D01*
X5828146Y31806300D01*
X5828148Y31806300D01*
X5930823Y31833811D01*
X6022878Y31886959D01*
X6098041Y31962122D01*
X6151189Y32054177D01*
X6178700Y32156852D01*
X6178700Y32263148D01*
X6151189Y32365823D01*
X6098041Y32457878D01*
X6022878Y32533041D01*
X5948471Y32576000D01*
X5930825Y32586188D01*
X5930824Y32586189D01*
X5930823Y32586189D01*
X5828148Y32613700D01*
X5721852Y32613700D01*
X5619177Y32586189D01*
X5619175Y32586188D01*
X5619174Y32586188D01*
X5527125Y32533043D01*
X5527119Y32533039D01*
X5451961Y32457881D01*
X5451957Y32457875D01*
X5398812Y32365826D01*
X5398812Y32365825D01*
X5398811Y32365823D01*
X5371300Y32263148D01*
X4780023Y32263148D01*
X4797198Y32312230D01*
X4797198Y32312231D01*
X4813394Y32358517D01*
X4813396Y32358523D01*
X4815063Y32365826D01*
X4873472Y32621731D01*
X4903700Y32890011D01*
X4903700Y33159989D01*
X4899486Y33197392D01*
X4898837Y33203148D01*
X6646300Y33203148D01*
X6646300Y33096852D01*
X6673811Y32994177D01*
X6726959Y32902122D01*
X6802122Y32826959D01*
X6894177Y32773811D01*
X6996852Y32746300D01*
X6996854Y32746300D01*
X7103146Y32746300D01*
X7103148Y32746300D01*
X7205823Y32773811D01*
X7297878Y32826959D01*
X7373041Y32902122D01*
X7426189Y32994177D01*
X7453700Y33096852D01*
X7453700Y33203148D01*
X7426189Y33305823D01*
X7413300Y33328148D01*
X9046300Y33328148D01*
X9046300Y33221852D01*
X9073811Y33119177D01*
X9126959Y33027122D01*
X9202122Y32951959D01*
X9294177Y32898811D01*
X9396852Y32871300D01*
X9396854Y32871300D01*
X9503146Y32871300D01*
X9503148Y32871300D01*
X9605823Y32898811D01*
X9697878Y32951959D01*
X9737319Y32991400D01*
X9798642Y33024885D01*
X9868334Y33019901D01*
X9912681Y32991400D01*
X9952122Y32951959D01*
X10044177Y32898811D01*
X10146852Y32871300D01*
X10146854Y32871300D01*
X10253146Y32871300D01*
X10253148Y32871300D01*
X10355823Y32898811D01*
X10447878Y32951959D01*
X10523041Y33027122D01*
X10576189Y33119177D01*
X10603700Y33221852D01*
X10603700Y33328148D01*
X10576189Y33430823D01*
X10523041Y33522878D01*
X10447878Y33598041D01*
X10355823Y33651189D01*
X10253148Y33678700D01*
X10146852Y33678700D01*
X10044177Y33651189D01*
X10044175Y33651188D01*
X10044174Y33651188D01*
X9952125Y33598043D01*
X9952119Y33598039D01*
X9912681Y33558600D01*
X9851358Y33525115D01*
X9781666Y33530099D01*
X9737319Y33558600D01*
X9697880Y33598039D01*
X9697878Y33598041D01*
X9605823Y33651189D01*
X9503148Y33678700D01*
X9396852Y33678700D01*
X9294177Y33651189D01*
X9294175Y33651188D01*
X9294174Y33651188D01*
X9202125Y33598043D01*
X9202119Y33598039D01*
X9126961Y33522881D01*
X9126957Y33522875D01*
X9073812Y33430826D01*
X9073812Y33430825D01*
X9073811Y33430823D01*
X9046300Y33328148D01*
X7413300Y33328148D01*
X7373041Y33397878D01*
X7297878Y33473041D01*
X7205823Y33526189D01*
X7103148Y33553700D01*
X6996852Y33553700D01*
X6894177Y33526189D01*
X6894175Y33526188D01*
X6894174Y33526188D01*
X6802125Y33473043D01*
X6802119Y33473039D01*
X6726961Y33397881D01*
X6726957Y33397875D01*
X6673812Y33305826D01*
X6673812Y33305825D01*
X6673811Y33305823D01*
X6646300Y33203148D01*
X4898837Y33203148D01*
X4873474Y33428255D01*
X4873473Y33428260D01*
X4873472Y33428269D01*
X4813396Y33691478D01*
X4811708Y33696301D01*
X4724230Y33946299D01*
X4724221Y33946321D01*
X4646614Y34107474D01*
X4607090Y34189545D01*
X4565445Y34255823D01*
X4463452Y34418144D01*
X4295124Y34629221D01*
X4104221Y34820124D01*
X3893144Y34988452D01*
X3893142Y34988453D01*
X3893140Y34988455D01*
X3881917Y34995507D01*
X3835627Y35047842D01*
X3824979Y35116895D01*
X3853354Y35180743D01*
X3911744Y35219115D01*
X3947890Y35224500D01*
X11000000Y35224500D01*
X11000000Y32908700D01*
G37*
%TD.AperFunction*%
%TD*%
%TA.AperFunction,Conductor*%
%TO.N,+3.3V*%
G36*
X50119149Y35204815D02*
G01*
X50164904Y35152011D01*
X50174848Y35082853D01*
X50145823Y35019297D01*
X50118083Y34995507D01*
X50106859Y34988455D01*
X49895779Y34820125D01*
X49704875Y34629221D01*
X49536547Y34418143D01*
X49392909Y34189545D01*
X49275775Y33946313D01*
X49275769Y33946299D01*
X49186607Y33691490D01*
X49186603Y33691478D01*
X49126528Y33428269D01*
X49126526Y33428257D01*
X49096300Y33159994D01*
X49096300Y32890007D01*
X49126526Y32621744D01*
X49126527Y32621735D01*
X49126528Y32621731D01*
X49136964Y32576008D01*
X49186603Y32358523D01*
X49186607Y32358511D01*
X49275769Y32103702D01*
X49275775Y32103688D01*
X49392909Y31860456D01*
X49403139Y31844175D01*
X49536548Y31631856D01*
X49638678Y31503789D01*
X49691261Y31437851D01*
X49704876Y31420779D01*
X49895779Y31229876D01*
X50106856Y31061548D01*
X50335453Y30917911D01*
X50578695Y30800772D01*
X50642568Y30778422D01*
X50833510Y30711608D01*
X50833522Y30711604D01*
X51096731Y30651528D01*
X51365007Y30621301D01*
X51365008Y30621300D01*
X51365011Y30621300D01*
X51634992Y30621300D01*
X51634992Y30621301D01*
X51903269Y30651528D01*
X52166478Y30711604D01*
X52421305Y30800772D01*
X52664547Y30917911D01*
X52893144Y31061548D01*
X53104221Y31229876D01*
X53295124Y31420779D01*
X53463452Y31631856D01*
X53470505Y31643080D01*
X53522838Y31689373D01*
X53591891Y31700023D01*
X53655740Y31671649D01*
X53694114Y31613260D01*
X53699500Y31577111D01*
X53699500Y23831812D01*
X53679815Y23764773D01*
X53627011Y23719018D01*
X53557853Y23709074D01*
X53494297Y23738099D01*
X53468113Y23769811D01*
X53458614Y23786263D01*
X53423041Y23847878D01*
X53347878Y23923041D01*
X53326848Y23935183D01*
X53278634Y23985749D01*
X53265410Y24054356D01*
X53291378Y24119221D01*
X53301152Y24130234D01*
X53373041Y24202122D01*
X53426189Y24294177D01*
X53453700Y24396852D01*
X53453700Y24503148D01*
X53426189Y24605823D01*
X53373041Y24697878D01*
X53297878Y24773041D01*
X53205823Y24826189D01*
X53103148Y24853700D01*
X52996852Y24853700D01*
X52894177Y24826189D01*
X52894175Y24826188D01*
X52894174Y24826188D01*
X52802125Y24773043D01*
X52802119Y24773039D01*
X52726961Y24697881D01*
X52726957Y24697875D01*
X52673812Y24605826D01*
X52673812Y24605825D01*
X52673811Y24605823D01*
X52646300Y24503148D01*
X52646300Y24396852D01*
X52673811Y24294177D01*
X52726959Y24202122D01*
X52802122Y24126959D01*
X52823151Y24114818D01*
X52871365Y24064254D01*
X52884589Y23995647D01*
X52858622Y23930782D01*
X52848832Y23919751D01*
X52776958Y23847877D01*
X52776957Y23847875D01*
X52723812Y23755826D01*
X52723812Y23755825D01*
X52723811Y23755823D01*
X52696300Y23653148D01*
X52696300Y23546852D01*
X52723811Y23444177D01*
X52776959Y23352122D01*
X52852122Y23276959D01*
X52886022Y23257387D01*
X52934237Y23206819D01*
X52947459Y23138212D01*
X52921491Y23073348D01*
X52886022Y23042613D01*
X52852122Y23023041D01*
X52852119Y23023039D01*
X52776961Y22947881D01*
X52776957Y22947875D01*
X52723812Y22855826D01*
X52723812Y22855825D01*
X52723811Y22855823D01*
X52696300Y22753148D01*
X52696300Y22646852D01*
X52723811Y22544177D01*
X52776959Y22452122D01*
X52852122Y22376959D01*
X52944177Y22323811D01*
X53046852Y22296300D01*
X53046854Y22296300D01*
X53153146Y22296300D01*
X53153148Y22296300D01*
X53255823Y22323811D01*
X53347878Y22376959D01*
X53423041Y22452122D01*
X53468113Y22530190D01*
X53518680Y22578405D01*
X53587287Y22591628D01*
X53652152Y22565660D01*
X53692680Y22508745D01*
X53699500Y22468189D01*
X53699500Y12472890D01*
X53679815Y12405851D01*
X53627011Y12360096D01*
X53557853Y12350152D01*
X53494297Y12379177D01*
X53470507Y12406917D01*
X53463454Y12418141D01*
X53463453Y12418142D01*
X53463452Y12418144D01*
X53295124Y12629221D01*
X53104221Y12820124D01*
X52893144Y12988452D01*
X52664547Y13132089D01*
X52664544Y13132091D01*
X52421312Y13249225D01*
X52421298Y13249231D01*
X52166489Y13338393D01*
X52166477Y13338397D01*
X51963344Y13384761D01*
X51903269Y13398472D01*
X51903265Y13398473D01*
X51903256Y13398474D01*
X51634993Y13428700D01*
X51634989Y13428700D01*
X51365011Y13428700D01*
X51365006Y13428700D01*
X51096743Y13398474D01*
X51096731Y13398472D01*
X50833522Y13338397D01*
X50833510Y13338393D01*
X50578701Y13249231D01*
X50578687Y13249225D01*
X50335455Y13132091D01*
X50106857Y12988453D01*
X49895779Y12820125D01*
X49704875Y12629221D01*
X49536547Y12418143D01*
X49392909Y12189545D01*
X49275775Y11946313D01*
X49275769Y11946299D01*
X49186607Y11691490D01*
X49186603Y11691478D01*
X49126528Y11428269D01*
X49126526Y11428257D01*
X49096300Y11159994D01*
X49096300Y10890007D01*
X49126526Y10621744D01*
X49126527Y10621735D01*
X49126528Y10621731D01*
X49133071Y10593063D01*
X49186603Y10358523D01*
X49186607Y10358511D01*
X49275769Y10103702D01*
X49275775Y10103688D01*
X49392909Y9860456D01*
X49392911Y9860453D01*
X49536548Y9631856D01*
X49704876Y9420779D01*
X49895779Y9229876D01*
X50106856Y9061548D01*
X50139081Y9041300D01*
X50197657Y9004494D01*
X50243948Y8952159D01*
X50254596Y8883106D01*
X50226221Y8819257D01*
X50167832Y8780885D01*
X50131685Y8775500D01*
X45970985Y8775500D01*
X45903946Y8795185D01*
X45858191Y8847989D01*
X45848247Y8917147D01*
X45877272Y8980703D01*
X45936050Y9018477D01*
X45938850Y9019264D01*
X45955823Y9023811D01*
X46047878Y9076959D01*
X46123041Y9152122D01*
X46176189Y9244177D01*
X46203700Y9346852D01*
X46203700Y9453148D01*
X46176189Y9555823D01*
X46123041Y9647878D01*
X46047878Y9723041D01*
X45961279Y9773039D01*
X45955825Y9776188D01*
X45955824Y9776189D01*
X45955823Y9776189D01*
X45853148Y9803700D01*
X45746852Y9803700D01*
X45644177Y9776189D01*
X45644175Y9776188D01*
X45644174Y9776188D01*
X45552125Y9723043D01*
X45552119Y9723039D01*
X45476961Y9647881D01*
X45476957Y9647875D01*
X45423812Y9555826D01*
X45423812Y9555825D01*
X45423811Y9555823D01*
X45396300Y9453148D01*
X45396300Y9346852D01*
X45423811Y9244177D01*
X45476959Y9152122D01*
X45552122Y9076959D01*
X45644177Y9023811D01*
X45661109Y9019275D01*
X45720769Y8982910D01*
X45751298Y8920063D01*
X45743003Y8850688D01*
X45698518Y8796810D01*
X45631966Y8775535D01*
X45629015Y8775500D01*
X36832700Y8775500D01*
X36765661Y8795185D01*
X36719906Y8847989D01*
X36708700Y8899500D01*
X36708700Y9853148D01*
X37191300Y9853148D01*
X37191300Y9746852D01*
X37218811Y9644177D01*
X37218812Y9644176D01*
X37218812Y9644175D01*
X37233802Y9618211D01*
X37271959Y9552122D01*
X37347122Y9476959D01*
X37439177Y9423811D01*
X37541852Y9396300D01*
X37541854Y9396300D01*
X37648146Y9396300D01*
X37648148Y9396300D01*
X37750823Y9423811D01*
X37842878Y9476959D01*
X37869067Y9503148D01*
X42446300Y9503148D01*
X42446300Y9396852D01*
X42473811Y9294177D01*
X42526959Y9202122D01*
X42602122Y9126959D01*
X42694177Y9073811D01*
X42796852Y9046300D01*
X42796854Y9046300D01*
X42903146Y9046300D01*
X42903148Y9046300D01*
X43005823Y9073811D01*
X43097878Y9126959D01*
X43173041Y9202122D01*
X43226189Y9294177D01*
X43253700Y9396852D01*
X43253700Y9498148D01*
X43671300Y9498148D01*
X43671300Y9391852D01*
X43698811Y9289177D01*
X43751959Y9197122D01*
X43827122Y9121959D01*
X43919177Y9068811D01*
X44021852Y9041300D01*
X44021854Y9041300D01*
X44128146Y9041300D01*
X44128148Y9041300D01*
X44230823Y9068811D01*
X44322878Y9121959D01*
X44398041Y9197122D01*
X44451189Y9289177D01*
X44478700Y9391852D01*
X44478700Y9498148D01*
X44451189Y9600823D01*
X44398041Y9692878D01*
X44322878Y9768041D01*
X44230823Y9821189D01*
X44128148Y9848700D01*
X44021852Y9848700D01*
X43919177Y9821189D01*
X43919175Y9821188D01*
X43919174Y9821188D01*
X43827125Y9768043D01*
X43827119Y9768039D01*
X43751961Y9692881D01*
X43751957Y9692875D01*
X43698812Y9600826D01*
X43698812Y9600825D01*
X43698811Y9600823D01*
X43671300Y9498148D01*
X43253700Y9498148D01*
X43253700Y9503148D01*
X43226189Y9605823D01*
X43173041Y9697878D01*
X43097878Y9773041D01*
X43005823Y9826189D01*
X42903148Y9853700D01*
X42796852Y9853700D01*
X42694177Y9826189D01*
X42694175Y9826188D01*
X42694174Y9826188D01*
X42602125Y9773043D01*
X42602119Y9773039D01*
X42526961Y9697881D01*
X42526957Y9697875D01*
X42473812Y9605826D01*
X42473812Y9605825D01*
X42473811Y9605823D01*
X42446300Y9503148D01*
X37869067Y9503148D01*
X37918041Y9552122D01*
X37971189Y9644177D01*
X37998700Y9746852D01*
X37998700Y9853148D01*
X37971189Y9955823D01*
X37918041Y10047878D01*
X37842878Y10123041D01*
X37781508Y10158473D01*
X37750825Y10176188D01*
X37750824Y10176189D01*
X37750823Y10176189D01*
X37648148Y10203700D01*
X37541852Y10203700D01*
X37439177Y10176189D01*
X37439175Y10176188D01*
X37439174Y10176188D01*
X37347125Y10123043D01*
X37347119Y10123039D01*
X37271961Y10047881D01*
X37271957Y10047875D01*
X37218812Y9955826D01*
X37218812Y9955825D01*
X37218811Y9955823D01*
X37191300Y9853148D01*
X36708700Y9853148D01*
X36708700Y10862193D01*
X36728385Y10929232D01*
X36745019Y10949874D01*
X36893588Y11098443D01*
X38627791Y11098443D01*
X38627791Y10992147D01*
X38655302Y10889472D01*
X38708450Y10797417D01*
X38783613Y10722254D01*
X38875668Y10669106D01*
X38978343Y10641595D01*
X38978345Y10641595D01*
X39084637Y10641595D01*
X39084639Y10641595D01*
X39187314Y10669106D01*
X39279369Y10722254D01*
X39354532Y10797417D01*
X39407680Y10889472D01*
X39435191Y10992147D01*
X39435191Y11098443D01*
X39407680Y11201118D01*
X39354532Y11293173D01*
X39279369Y11368336D01*
X39187314Y11421484D01*
X39084639Y11448995D01*
X38978343Y11448995D01*
X38875668Y11421484D01*
X38875666Y11421483D01*
X38875665Y11421483D01*
X38783616Y11368338D01*
X38783610Y11368334D01*
X38708452Y11293176D01*
X38708448Y11293170D01*
X38655303Y11201121D01*
X38655303Y11201120D01*
X38655302Y11201118D01*
X38627791Y11098443D01*
X36893588Y11098443D01*
X37638835Y11843690D01*
X40366299Y11843690D01*
X40400627Y11715578D01*
X40400628Y11715577D01*
X40466937Y11600725D01*
X40466939Y11600722D01*
X40466940Y11600721D01*
X40560721Y11506940D01*
X40675579Y11440627D01*
X40796719Y11408167D01*
X40856378Y11371803D01*
X40886907Y11308955D01*
X40880541Y11252858D01*
X40882731Y11252271D01*
X40880628Y11244423D01*
X40880627Y11244421D01*
X40846300Y11116313D01*
X40846300Y11116311D01*
X40846300Y10983690D01*
X40846299Y10983690D01*
X40846300Y10983687D01*
X40880627Y10855579D01*
X40880627Y10855578D01*
X40882731Y10847729D01*
X40880468Y10847123D01*
X40886654Y10789590D01*
X40855378Y10727111D01*
X40796719Y10691834D01*
X40675583Y10659375D01*
X40675576Y10659372D01*
X40560724Y10593063D01*
X40560719Y10593059D01*
X40466941Y10499281D01*
X40466937Y10499276D01*
X40400628Y10384424D01*
X40400627Y10384423D01*
X40393687Y10358522D01*
X40366300Y10256313D01*
X40366300Y10256311D01*
X40366300Y10123690D01*
X40366299Y10123690D01*
X40400627Y9995578D01*
X40400628Y9995577D01*
X40466937Y9880725D01*
X40466939Y9880722D01*
X40466940Y9880721D01*
X40560721Y9786940D01*
X40560722Y9786939D01*
X40560724Y9786938D01*
X40618150Y9753784D01*
X40675579Y9720627D01*
X40803687Y9686300D01*
X40803690Y9686300D01*
X40936310Y9686300D01*
X40936313Y9686300D01*
X41064421Y9720627D01*
X41179279Y9786940D01*
X41262319Y9869980D01*
X41323642Y9903465D01*
X41393334Y9898481D01*
X41437681Y9869980D01*
X41520721Y9786940D01*
X41520722Y9786939D01*
X41520724Y9786938D01*
X41578150Y9753784D01*
X41635579Y9720627D01*
X41763687Y9686300D01*
X41763690Y9686300D01*
X41896310Y9686300D01*
X41896313Y9686300D01*
X42024421Y9720627D01*
X42139279Y9786940D01*
X42233060Y9880721D01*
X42299373Y9995579D01*
X42333700Y10123687D01*
X42333700Y10256313D01*
X42299373Y10384421D01*
X42233060Y10499279D01*
X42139279Y10593060D01*
X42139278Y10593061D01*
X42139275Y10593063D01*
X42024423Y10659372D01*
X42024422Y10659373D01*
X42024421Y10659373D01*
X41903279Y10691834D01*
X41843620Y10728199D01*
X41813092Y10791046D01*
X41819466Y10847141D01*
X41817269Y10847729D01*
X41819371Y10855578D01*
X41819373Y10855579D01*
X41853700Y10983687D01*
X41853700Y11116313D01*
X41819373Y11244421D01*
X41819371Y11244423D01*
X41817269Y11252271D01*
X41819532Y11252878D01*
X41813343Y11310395D01*
X41844610Y11372878D01*
X41903278Y11408167D01*
X42024421Y11440627D01*
X42139279Y11506940D01*
X42233060Y11600721D01*
X42299373Y11715579D01*
X42333700Y11843687D01*
X42333700Y11976313D01*
X42299373Y12104421D01*
X42233060Y12219279D01*
X42139279Y12313060D01*
X42139278Y12313061D01*
X42139275Y12313063D01*
X42024423Y12379372D01*
X42024422Y12379373D01*
X41992394Y12387955D01*
X41896313Y12413700D01*
X41763687Y12413700D01*
X41686822Y12393104D01*
X41635577Y12379373D01*
X41635576Y12379372D01*
X41520724Y12313063D01*
X41520719Y12313059D01*
X41437681Y12230020D01*
X41376358Y12196535D01*
X41306666Y12201519D01*
X41262319Y12230020D01*
X41179280Y12313059D01*
X41179275Y12313063D01*
X41064423Y12379372D01*
X41064422Y12379373D01*
X41032394Y12387955D01*
X40936313Y12413700D01*
X40803687Y12413700D01*
X40726822Y12393104D01*
X40675577Y12379373D01*
X40675576Y12379372D01*
X40560724Y12313063D01*
X40560719Y12313059D01*
X40466941Y12219281D01*
X40466937Y12219276D01*
X40400628Y12104424D01*
X40400627Y12104423D01*
X40390000Y12064762D01*
X40366300Y11976313D01*
X40366300Y11976311D01*
X40366300Y11843690D01*
X40366299Y11843690D01*
X37638835Y11843690D01*
X41048293Y15253148D01*
X51196300Y15253148D01*
X51196300Y15146852D01*
X51223811Y15044177D01*
X51276959Y14952122D01*
X51352122Y14876959D01*
X51444177Y14823811D01*
X51546852Y14796300D01*
X51546854Y14796300D01*
X51653146Y14796300D01*
X51653148Y14796300D01*
X51755823Y14823811D01*
X51847878Y14876959D01*
X51923041Y14952122D01*
X51976189Y15044177D01*
X52003700Y15146852D01*
X52003700Y15253148D01*
X51976189Y15355823D01*
X51923041Y15447878D01*
X51847878Y15523041D01*
X51786508Y15558473D01*
X51755825Y15576188D01*
X51755824Y15576189D01*
X51755823Y15576189D01*
X51653148Y15603700D01*
X51546852Y15603700D01*
X51444177Y15576189D01*
X51444175Y15576188D01*
X51444174Y15576188D01*
X51352125Y15523043D01*
X51352119Y15523039D01*
X51276961Y15447881D01*
X51276957Y15447875D01*
X51223812Y15355826D01*
X51223812Y15355825D01*
X51223811Y15355823D01*
X51196300Y15253148D01*
X41048293Y15253148D01*
X41050126Y15254981D01*
X41111449Y15288466D01*
X41137807Y15291300D01*
X44375991Y15291300D01*
X44376000Y15291300D01*
X44420364Y15296070D01*
X44471875Y15307276D01*
X44482212Y15309802D01*
X44564181Y15353481D01*
X44616985Y15399236D01*
X44635218Y15417101D01*
X44680561Y15498162D01*
X44700246Y15565201D01*
X44708700Y15624000D01*
X44708700Y17953148D01*
X51246300Y17953148D01*
X51246300Y17846852D01*
X51273811Y17744177D01*
X51326959Y17652122D01*
X51402122Y17576959D01*
X51494177Y17523811D01*
X51596852Y17496300D01*
X51596854Y17496300D01*
X51703146Y17496300D01*
X51703148Y17496300D01*
X51805823Y17523811D01*
X51897878Y17576959D01*
X51973041Y17652122D01*
X52026189Y17744177D01*
X52053700Y17846852D01*
X52053700Y17953148D01*
X52026189Y18055823D01*
X51973041Y18147878D01*
X51897878Y18223041D01*
X51805823Y18276189D01*
X51703148Y18303700D01*
X51596852Y18303700D01*
X51494177Y18276189D01*
X51494175Y18276188D01*
X51494174Y18276188D01*
X51402125Y18223043D01*
X51402119Y18223039D01*
X51326961Y18147881D01*
X51326957Y18147875D01*
X51273812Y18055826D01*
X51273812Y18055825D01*
X51273811Y18055823D01*
X51246300Y17953148D01*
X44708700Y17953148D01*
X44708700Y21303148D01*
X52546300Y21303148D01*
X52546300Y21196852D01*
X52573811Y21094177D01*
X52626959Y21002122D01*
X52702122Y20926959D01*
X52794177Y20873811D01*
X52896852Y20846300D01*
X52896854Y20846300D01*
X53003146Y20846300D01*
X53003148Y20846300D01*
X53105823Y20873811D01*
X53197878Y20926959D01*
X53273041Y21002122D01*
X53326189Y21094177D01*
X53353700Y21196852D01*
X53353700Y21303148D01*
X53326189Y21405823D01*
X53273041Y21497878D01*
X53197878Y21573041D01*
X53105823Y21626189D01*
X53003148Y21653700D01*
X52896852Y21653700D01*
X52794177Y21626189D01*
X52794175Y21626188D01*
X52794174Y21626188D01*
X52702125Y21573043D01*
X52702119Y21573039D01*
X52626961Y21497881D01*
X52626957Y21497875D01*
X52573812Y21405826D01*
X52573812Y21405825D01*
X52573811Y21405823D01*
X52546300Y21303148D01*
X44708700Y21303148D01*
X44708700Y22097391D01*
X50696300Y22097391D01*
X50696300Y21991095D01*
X50723811Y21888420D01*
X50723812Y21888419D01*
X50723812Y21888418D01*
X50733915Y21870919D01*
X50776959Y21796365D01*
X50852122Y21721202D01*
X50944177Y21668054D01*
X51046852Y21640543D01*
X51046854Y21640543D01*
X51153146Y21640543D01*
X51153148Y21640543D01*
X51255823Y21668054D01*
X51347878Y21721202D01*
X51423041Y21796365D01*
X51476189Y21888420D01*
X51503700Y21991095D01*
X51503700Y22097391D01*
X51476189Y22200066D01*
X51423041Y22292121D01*
X51347878Y22367284D01*
X51255823Y22420432D01*
X51153148Y22447943D01*
X51046852Y22447943D01*
X50944177Y22420432D01*
X50944175Y22420431D01*
X50944174Y22420431D01*
X50852125Y22367286D01*
X50852119Y22367282D01*
X50776961Y22292124D01*
X50776957Y22292118D01*
X50723812Y22200069D01*
X50723812Y22200068D01*
X50723811Y22200066D01*
X50696300Y22097391D01*
X44708700Y22097391D01*
X44708700Y29403148D01*
X52046300Y29403148D01*
X52046300Y29296852D01*
X52073811Y29194177D01*
X52126959Y29102122D01*
X52202122Y29026959D01*
X52294177Y28973811D01*
X52396852Y28946300D01*
X52396854Y28946300D01*
X52503146Y28946300D01*
X52503148Y28946300D01*
X52605823Y28973811D01*
X52697878Y29026959D01*
X52773041Y29102122D01*
X52826189Y29194177D01*
X52853700Y29296852D01*
X52853700Y29403148D01*
X52826189Y29505823D01*
X52773041Y29597878D01*
X52697878Y29673041D01*
X52605823Y29726189D01*
X52503148Y29753700D01*
X52396852Y29753700D01*
X52294177Y29726189D01*
X52294175Y29726188D01*
X52294174Y29726188D01*
X52202125Y29673043D01*
X52202119Y29673039D01*
X52126961Y29597881D01*
X52126957Y29597875D01*
X52073812Y29505826D01*
X52073812Y29505825D01*
X52073811Y29505823D01*
X52046300Y29403148D01*
X44708700Y29403148D01*
X44708700Y30876000D01*
X44703930Y30920364D01*
X44692724Y30971875D01*
X44690198Y30982212D01*
X44646519Y31064181D01*
X44600764Y31116985D01*
X44600755Y31116994D01*
X44600748Y31117002D01*
X44582901Y31135216D01*
X44582894Y31135222D01*
X44518948Y31170990D01*
X44501838Y31180561D01*
X44476843Y31187901D01*
X44434800Y31200246D01*
X44434792Y31200248D01*
X44376001Y31208700D01*
X44376000Y31208700D01*
X37124000Y31208700D01*
X37123992Y31208700D01*
X37079637Y31203931D01*
X37028118Y31192723D01*
X37020432Y31190845D01*
X37017788Y31190198D01*
X36976803Y31168359D01*
X36935818Y31146519D01*
X36883018Y31100767D01*
X36882998Y31100749D01*
X36864784Y31082902D01*
X36864778Y31082895D01*
X36819441Y31001842D01*
X36819438Y31001835D01*
X36799754Y30934801D01*
X36799752Y30934793D01*
X36791300Y30876002D01*
X36791300Y29852700D01*
X36771615Y29785661D01*
X36718811Y29739906D01*
X36667300Y29728700D01*
X33662776Y29728700D01*
X33630684Y29732925D01*
X33553149Y29753700D01*
X33553148Y29753700D01*
X33446852Y29753700D01*
X33344177Y29726189D01*
X33344175Y29726188D01*
X33344174Y29726188D01*
X33252125Y29673043D01*
X33252119Y29673039D01*
X33176961Y29597881D01*
X33176957Y29597875D01*
X33156245Y29562000D01*
X33105678Y29513785D01*
X33048858Y29500000D01*
X31872281Y29500000D01*
X31842840Y29508645D01*
X31812854Y29515168D01*
X31807838Y29518923D01*
X31805242Y29519685D01*
X31784600Y29536319D01*
X31783600Y29537319D01*
X31750115Y29598642D01*
X31755099Y29668334D01*
X31783600Y29712681D01*
X31799619Y29728700D01*
X31823041Y29752122D01*
X31876189Y29844177D01*
X31903700Y29946852D01*
X31903700Y30053148D01*
X31876189Y30155823D01*
X31823041Y30247878D01*
X31747878Y30323041D01*
X31689316Y30356852D01*
X31683289Y30360332D01*
X31683285Y30360334D01*
X31655823Y30376189D01*
X31631926Y30382592D01*
X31623541Y30386226D01*
X31603439Y30402972D01*
X31581097Y30416589D01*
X31577021Y30424978D01*
X31569857Y30430946D01*
X31561999Y30455902D01*
X31558479Y30463148D01*
X34146300Y30463148D01*
X34146300Y30356852D01*
X34173811Y30254177D01*
X34226959Y30162122D01*
X34302122Y30086959D01*
X34394177Y30033811D01*
X34496852Y30006300D01*
X34496854Y30006300D01*
X34603146Y30006300D01*
X34603148Y30006300D01*
X34705823Y30033811D01*
X34797878Y30086959D01*
X34873041Y30162122D01*
X34926189Y30254177D01*
X34953700Y30356852D01*
X34953700Y30463148D01*
X34926189Y30565823D01*
X34873041Y30657878D01*
X34797878Y30733041D01*
X34719276Y30778422D01*
X34705825Y30786188D01*
X34705824Y30786189D01*
X34705823Y30786189D01*
X34603148Y30813700D01*
X34496852Y30813700D01*
X34394177Y30786189D01*
X34394175Y30786188D01*
X34394174Y30786188D01*
X34302125Y30733043D01*
X34302119Y30733039D01*
X34226961Y30657881D01*
X34226957Y30657875D01*
X34173812Y30565826D01*
X34173812Y30565825D01*
X34173811Y30565823D01*
X34146300Y30463148D01*
X31558479Y30463148D01*
X31550567Y30479435D01*
X31551673Y30488695D01*
X31548873Y30497590D01*
X31555755Y30522835D01*
X31558861Y30548811D01*
X31564798Y30556002D01*
X31567251Y30564999D01*
X31586687Y30582514D01*
X31603346Y30602690D01*
X31614966Y30607997D01*
X31619156Y30611772D01*
X31625511Y30612813D01*
X31640755Y30619774D01*
X31655823Y30623811D01*
X31747878Y30676959D01*
X31823041Y30752122D01*
X31876189Y30844177D01*
X31903700Y30946852D01*
X31903700Y31053148D01*
X31876189Y31155823D01*
X31823041Y31247878D01*
X31747878Y31323041D01*
X31655823Y31376189D01*
X31553148Y31403700D01*
X31446852Y31403700D01*
X31344177Y31376189D01*
X31344175Y31376188D01*
X31344174Y31376188D01*
X31252125Y31323043D01*
X31252119Y31323039D01*
X31212681Y31283600D01*
X31151358Y31250115D01*
X31081666Y31255099D01*
X31037319Y31283600D01*
X30997880Y31323039D01*
X30997878Y31323041D01*
X30905823Y31376189D01*
X30803148Y31403700D01*
X30696852Y31403700D01*
X30594177Y31376189D01*
X30594175Y31376188D01*
X30594174Y31376188D01*
X30502125Y31323043D01*
X30502119Y31323039D01*
X30462681Y31283600D01*
X30401358Y31250115D01*
X30331666Y31255099D01*
X30287319Y31283600D01*
X30247880Y31323039D01*
X30247878Y31323041D01*
X30155823Y31376189D01*
X30053148Y31403700D01*
X29946852Y31403700D01*
X29844177Y31376189D01*
X29844175Y31376188D01*
X29844174Y31376188D01*
X29752125Y31323043D01*
X29752119Y31323039D01*
X29676961Y31247881D01*
X29676957Y31247875D01*
X29623812Y31155826D01*
X29623812Y31155825D01*
X29623811Y31155823D01*
X29596300Y31053148D01*
X29596300Y30946852D01*
X29623811Y30844177D01*
X29623812Y30844176D01*
X29623812Y30844175D01*
X29625000Y30842118D01*
X29676959Y30752122D01*
X29752122Y30676959D01*
X29844177Y30623811D01*
X29859243Y30619775D01*
X29918903Y30583410D01*
X29949432Y30520563D01*
X29941137Y30451188D01*
X29896652Y30397310D01*
X29859244Y30380227D01*
X29844177Y30376189D01*
X29844175Y30376188D01*
X29844174Y30376188D01*
X29752125Y30323043D01*
X29752119Y30323039D01*
X29676961Y30247881D01*
X29676957Y30247875D01*
X29623812Y30155826D01*
X29623812Y30155825D01*
X29623811Y30155823D01*
X29596300Y30053148D01*
X29596300Y29946852D01*
X29623811Y29844177D01*
X29676959Y29752122D01*
X29676961Y29752120D01*
X29716400Y29712681D01*
X29720738Y29704736D01*
X29727986Y29699310D01*
X29737220Y29674551D01*
X29749885Y29651358D01*
X29749239Y29642329D01*
X29752403Y29633846D01*
X29746786Y29608026D01*
X29744901Y29581666D01*
X29739082Y29572613D01*
X29737551Y29565573D01*
X29716400Y29537319D01*
X29715400Y29536319D01*
X29654077Y29502834D01*
X29627719Y29500000D01*
X26878855Y29500000D01*
X26811816Y29519685D01*
X26766061Y29572489D01*
X26756117Y29641647D01*
X26771468Y29686000D01*
X26776189Y29694177D01*
X26803700Y29796852D01*
X26803700Y29903148D01*
X26776189Y30005823D01*
X26723041Y30097878D01*
X26647878Y30173041D01*
X26555823Y30226189D01*
X26453148Y30253700D01*
X26346852Y30253700D01*
X26244177Y30226189D01*
X26244175Y30226188D01*
X26244174Y30226188D01*
X26152125Y30173043D01*
X26152119Y30173039D01*
X26076961Y30097881D01*
X26076957Y30097875D01*
X26023812Y30005826D01*
X26023812Y30005825D01*
X26023811Y30005823D01*
X25996300Y29903148D01*
X25996300Y29796852D01*
X26023811Y29694177D01*
X26023812Y29694176D01*
X26023812Y29694175D01*
X26028532Y29686000D01*
X26045005Y29618100D01*
X26022153Y29552073D01*
X25967231Y29508882D01*
X25921145Y29500000D01*
X21832700Y29500000D01*
X21765661Y29519685D01*
X21719906Y29572489D01*
X21708700Y29624000D01*
X21708700Y32053148D01*
X24746300Y32053148D01*
X24746300Y31946852D01*
X24773811Y31844177D01*
X24826959Y31752122D01*
X24902122Y31676959D01*
X24994177Y31623811D01*
X24994178Y31623811D01*
X24997507Y31621889D01*
X25045722Y31571323D01*
X25058946Y31502716D01*
X25032978Y31437851D01*
X24997508Y31407115D01*
X24916953Y31360606D01*
X24916950Y31360604D01*
X24841792Y31285446D01*
X24841788Y31285440D01*
X24788643Y31193391D01*
X24788643Y31193390D01*
X24788642Y31193388D01*
X24761131Y31090713D01*
X24761131Y30984417D01*
X24788642Y30881742D01*
X24788643Y30881741D01*
X24788643Y30881740D01*
X24791956Y30876002D01*
X24841790Y30789687D01*
X24916953Y30714524D01*
X25009008Y30661376D01*
X25111683Y30633865D01*
X25111685Y30633865D01*
X25217977Y30633865D01*
X25217979Y30633865D01*
X25320654Y30661376D01*
X25412709Y30714524D01*
X25452150Y30753965D01*
X25513473Y30787450D01*
X25583165Y30782466D01*
X25627512Y30753965D01*
X25666953Y30714524D01*
X25759008Y30661376D01*
X25861683Y30633865D01*
X25861685Y30633865D01*
X25967977Y30633865D01*
X25967979Y30633865D01*
X26070654Y30661376D01*
X26162709Y30714524D01*
X26202150Y30753965D01*
X26263473Y30787450D01*
X26333165Y30782466D01*
X26377512Y30753965D01*
X26416953Y30714524D01*
X26509008Y30661376D01*
X26611683Y30633865D01*
X26611685Y30633865D01*
X26717977Y30633865D01*
X26717979Y30633865D01*
X26820654Y30661376D01*
X26912709Y30714524D01*
X26987872Y30789687D01*
X27041020Y30881742D01*
X27068531Y30984417D01*
X27068531Y31090713D01*
X27041020Y31193388D01*
X26987872Y31285443D01*
X26912709Y31360606D01*
X26820654Y31413754D01*
X26820653Y31413755D01*
X26817323Y31415677D01*
X26769107Y31466244D01*
X26755884Y31534851D01*
X26781852Y31599716D01*
X26817321Y31630450D01*
X26897878Y31676959D01*
X26973041Y31752122D01*
X27026189Y31844177D01*
X27053700Y31946852D01*
X27053700Y32008475D01*
X47069553Y32008475D01*
X47069553Y31882431D01*
X47079804Y31844175D01*
X47102175Y31760683D01*
X47102176Y31760680D01*
X47165194Y31651528D01*
X47165196Y31651525D01*
X47165197Y31651524D01*
X47254324Y31562397D01*
X47363482Y31499375D01*
X47485231Y31466753D01*
X47485233Y31466753D01*
X47611273Y31466753D01*
X47611275Y31466753D01*
X47733024Y31499375D01*
X47842182Y31562397D01*
X47931309Y31651524D01*
X47994331Y31760682D01*
X48026953Y31882431D01*
X48026953Y32008475D01*
X47994331Y32130224D01*
X47931309Y32239382D01*
X47842182Y32328509D01*
X47842181Y32328510D01*
X47842178Y32328512D01*
X47733026Y32391530D01*
X47733025Y32391531D01*
X47733024Y32391531D01*
X47611275Y32424153D01*
X47485231Y32424153D01*
X47363482Y32391531D01*
X47363479Y32391530D01*
X47254327Y32328512D01*
X47254322Y32328508D01*
X47165198Y32239384D01*
X47165194Y32239379D01*
X47102176Y32130227D01*
X47102175Y32130224D01*
X47069553Y32008475D01*
X27053700Y32008475D01*
X27053700Y32053148D01*
X27026189Y32155823D01*
X26973041Y32247878D01*
X26897878Y32323041D01*
X26805823Y32376189D01*
X26703148Y32403700D01*
X26596852Y32403700D01*
X26494177Y32376189D01*
X26494175Y32376188D01*
X26494174Y32376188D01*
X26402125Y32323043D01*
X26402119Y32323039D01*
X26362681Y32283600D01*
X26301358Y32250115D01*
X26231666Y32255099D01*
X26187319Y32283600D01*
X26147880Y32323039D01*
X26147878Y32323041D01*
X26055823Y32376189D01*
X25953148Y32403700D01*
X25846852Y32403700D01*
X25744177Y32376189D01*
X25744175Y32376188D01*
X25744174Y32376188D01*
X25652125Y32323043D01*
X25652119Y32323039D01*
X25612681Y32283600D01*
X25551358Y32250115D01*
X25481666Y32255099D01*
X25437319Y32283600D01*
X25397880Y32323039D01*
X25397878Y32323041D01*
X25305823Y32376189D01*
X25203148Y32403700D01*
X25096852Y32403700D01*
X24994177Y32376189D01*
X24994175Y32376188D01*
X24994174Y32376188D01*
X24902125Y32323043D01*
X24902119Y32323039D01*
X24826961Y32247881D01*
X24826957Y32247875D01*
X24773812Y32155826D01*
X24773812Y32155825D01*
X24773811Y32155823D01*
X24746300Y32053148D01*
X21708700Y32053148D01*
X21708700Y32644859D01*
X21708699Y32644869D01*
X21703930Y32689231D01*
X21692724Y32740742D01*
X21690198Y32751079D01*
X21646519Y32833048D01*
X21600764Y32885852D01*
X21600755Y32885861D01*
X21600748Y32885869D01*
X21582901Y32904083D01*
X21582894Y32904089D01*
X21506441Y32946853D01*
X21501838Y32949428D01*
X21476843Y32956768D01*
X21434800Y32969113D01*
X21434792Y32969115D01*
X21376001Y32977567D01*
X21376000Y32977567D01*
X16424000Y32977567D01*
X16423992Y32977567D01*
X16379637Y32972798D01*
X16328118Y32961590D01*
X16320432Y32959712D01*
X16317788Y32959065D01*
X16294873Y32946854D01*
X16235818Y32915386D01*
X16183018Y32869634D01*
X16182998Y32869616D01*
X16164784Y32851769D01*
X16164778Y32851762D01*
X16119441Y32770709D01*
X16119438Y32770702D01*
X16099754Y32703668D01*
X16099752Y32703660D01*
X16091300Y32644869D01*
X16091300Y31280140D01*
X16087022Y31264385D01*
X16087607Y31250103D01*
X16077398Y31228940D01*
X16074272Y31217426D01*
X16069976Y31210100D01*
X16069455Y31209578D01*
X16055477Y31185369D01*
X16055227Y31184941D01*
X16030084Y31161286D01*
X16005072Y31137438D01*
X16004651Y31137357D01*
X16004339Y31137063D01*
X15970361Y31130750D01*
X15936465Y31124217D01*
X15936067Y31124377D01*
X15935646Y31124298D01*
X15903654Y31137353D01*
X15871601Y31150186D01*
X15871269Y31150569D01*
X15870955Y31150697D01*
X15870086Y31151934D01*
X15840867Y31185657D01*
X15833812Y31197878D01*
X15758649Y31273041D01*
X15672050Y31323039D01*
X15666596Y31326188D01*
X15666597Y31326188D01*
X15666594Y31326189D01*
X15600606Y31343870D01*
X15540946Y31380236D01*
X15510417Y31443083D01*
X15508700Y31463645D01*
X15508700Y32575992D01*
X15508699Y32576008D01*
X15503930Y32620363D01*
X15503930Y32620364D01*
X15492724Y32671875D01*
X15490198Y32682212D01*
X15446519Y32764181D01*
X15400764Y32816985D01*
X15400755Y32816994D01*
X15400748Y32817002D01*
X15382901Y32835216D01*
X15382894Y32835222D01*
X15318948Y32870990D01*
X15301838Y32880561D01*
X15269655Y32890011D01*
X15234800Y32900246D01*
X15234792Y32900248D01*
X15176001Y32908700D01*
X15176000Y32908700D01*
X11000000Y32908700D01*
X11000000Y34153148D01*
X12996300Y34153148D01*
X12996300Y34046852D01*
X13023811Y33944177D01*
X13076959Y33852122D01*
X13152122Y33776959D01*
X13244177Y33723811D01*
X13346852Y33696300D01*
X13346854Y33696300D01*
X13453146Y33696300D01*
X13453148Y33696300D01*
X13555823Y33723811D01*
X13647878Y33776959D01*
X13723041Y33852122D01*
X13776189Y33944177D01*
X13803700Y34046852D01*
X13803700Y34153148D01*
X24496300Y34153148D01*
X24496300Y34046852D01*
X24523811Y33944177D01*
X24576959Y33852122D01*
X24652122Y33776959D01*
X24744177Y33723811D01*
X24846852Y33696300D01*
X24846854Y33696300D01*
X24953146Y33696300D01*
X24953148Y33696300D01*
X25055823Y33723811D01*
X25147878Y33776959D01*
X25223041Y33852122D01*
X25276189Y33944177D01*
X25303700Y34046852D01*
X25303700Y34153148D01*
X25276189Y34255823D01*
X25223041Y34347878D01*
X25147878Y34423041D01*
X25055823Y34476189D01*
X24953148Y34503700D01*
X24846852Y34503700D01*
X24744177Y34476189D01*
X24744175Y34476188D01*
X24744174Y34476188D01*
X24652125Y34423043D01*
X24652119Y34423039D01*
X24576961Y34347881D01*
X24576957Y34347875D01*
X24523812Y34255826D01*
X24523812Y34255825D01*
X24523811Y34255823D01*
X24496300Y34153148D01*
X13803700Y34153148D01*
X13776189Y34255823D01*
X13723041Y34347878D01*
X13647878Y34423041D01*
X13555823Y34476189D01*
X13453148Y34503700D01*
X13346852Y34503700D01*
X13244177Y34476189D01*
X13244175Y34476188D01*
X13244174Y34476188D01*
X13152125Y34423043D01*
X13152119Y34423039D01*
X13076961Y34347881D01*
X13076957Y34347875D01*
X13023812Y34255826D01*
X13023812Y34255825D01*
X13023811Y34255823D01*
X12996300Y34153148D01*
X11000000Y34153148D01*
X11000000Y34553148D01*
X38596300Y34553148D01*
X38596300Y34446852D01*
X38623811Y34344177D01*
X38676959Y34252122D01*
X38676961Y34252120D01*
X38716400Y34212681D01*
X38749885Y34151358D01*
X38744901Y34081666D01*
X38716400Y34037319D01*
X38676961Y33997881D01*
X38676957Y33997875D01*
X38623812Y33905826D01*
X38623812Y33905825D01*
X38623811Y33905823D01*
X38596300Y33803148D01*
X38596300Y33696852D01*
X38623811Y33594177D01*
X38676959Y33502122D01*
X38676961Y33502120D01*
X38716400Y33462681D01*
X38749885Y33401358D01*
X38744901Y33331666D01*
X38716400Y33287319D01*
X38676961Y33247881D01*
X38676957Y33247875D01*
X38623812Y33155826D01*
X38623812Y33155825D01*
X38623811Y33155823D01*
X38596300Y33053148D01*
X38596300Y32946852D01*
X38623811Y32844177D01*
X38676959Y32752122D01*
X38752122Y32676959D01*
X38844177Y32623811D01*
X38946852Y32596300D01*
X38946854Y32596300D01*
X39053146Y32596300D01*
X39053148Y32596300D01*
X39155823Y32623811D01*
X39247878Y32676959D01*
X39287319Y32716400D01*
X39348642Y32749885D01*
X39418334Y32744901D01*
X39462681Y32716400D01*
X39502122Y32676959D01*
X39594177Y32623811D01*
X39696852Y32596300D01*
X39696854Y32596300D01*
X39803146Y32596300D01*
X39803148Y32596300D01*
X39905823Y32623811D01*
X39997878Y32676959D01*
X40037319Y32716400D01*
X40098642Y32749885D01*
X40168334Y32744901D01*
X40212681Y32716400D01*
X40252122Y32676959D01*
X40344177Y32623811D01*
X40446852Y32596300D01*
X40446854Y32596300D01*
X40553146Y32596300D01*
X40553148Y32596300D01*
X40655823Y32623811D01*
X40747878Y32676959D01*
X40787319Y32716400D01*
X40848642Y32749885D01*
X40918334Y32744901D01*
X40962681Y32716400D01*
X41002122Y32676959D01*
X41094177Y32623811D01*
X41196852Y32596300D01*
X41196854Y32596300D01*
X41303146Y32596300D01*
X41303148Y32596300D01*
X41405823Y32623811D01*
X41497878Y32676959D01*
X41537319Y32716400D01*
X41598642Y32749885D01*
X41668334Y32744901D01*
X41712681Y32716400D01*
X41752122Y32676959D01*
X41844177Y32623811D01*
X41946852Y32596300D01*
X41946854Y32596300D01*
X42053146Y32596300D01*
X42053148Y32596300D01*
X42155823Y32623811D01*
X42247878Y32676959D01*
X42287319Y32716400D01*
X42348642Y32749885D01*
X42418334Y32744901D01*
X42462681Y32716400D01*
X42502122Y32676959D01*
X42594177Y32623811D01*
X42696852Y32596300D01*
X42696854Y32596300D01*
X42803146Y32596300D01*
X42803148Y32596300D01*
X42905823Y32623811D01*
X42997878Y32676959D01*
X43073041Y32752122D01*
X43126189Y32844177D01*
X43153700Y32946852D01*
X43153700Y33053148D01*
X43126189Y33155823D01*
X43073041Y33247878D01*
X43033600Y33287319D01*
X43000115Y33348642D01*
X43005099Y33418334D01*
X43033600Y33462681D01*
X43073041Y33502122D01*
X43126189Y33594177D01*
X43153700Y33696852D01*
X43153700Y33803148D01*
X43126189Y33905823D01*
X43073041Y33997878D01*
X43033600Y34037319D01*
X43000115Y34098642D01*
X43005099Y34168334D01*
X43033600Y34212681D01*
X43073041Y34252122D01*
X43126189Y34344177D01*
X43153700Y34446852D01*
X43153700Y34553148D01*
X43126189Y34655823D01*
X43073041Y34747878D01*
X42997878Y34823041D01*
X42905823Y34876189D01*
X42803148Y34903700D01*
X42696852Y34903700D01*
X42594177Y34876189D01*
X42594175Y34876188D01*
X42594174Y34876188D01*
X42502125Y34823043D01*
X42502119Y34823039D01*
X42462681Y34783600D01*
X42401358Y34750115D01*
X42331666Y34755099D01*
X42287319Y34783600D01*
X42247880Y34823039D01*
X42247878Y34823041D01*
X42155823Y34876189D01*
X42053148Y34903700D01*
X41946852Y34903700D01*
X41844177Y34876189D01*
X41844175Y34876188D01*
X41844174Y34876188D01*
X41752125Y34823043D01*
X41752119Y34823039D01*
X41712681Y34783600D01*
X41651358Y34750115D01*
X41581666Y34755099D01*
X41537319Y34783600D01*
X41497880Y34823039D01*
X41497878Y34823041D01*
X41405823Y34876189D01*
X41303148Y34903700D01*
X41196852Y34903700D01*
X41094177Y34876189D01*
X41094175Y34876188D01*
X41094174Y34876188D01*
X41002125Y34823043D01*
X41002119Y34823039D01*
X40962681Y34783600D01*
X40901358Y34750115D01*
X40831666Y34755099D01*
X40787319Y34783600D01*
X40747880Y34823039D01*
X40747878Y34823041D01*
X40655823Y34876189D01*
X40553148Y34903700D01*
X40446852Y34903700D01*
X40344177Y34876189D01*
X40344175Y34876188D01*
X40344174Y34876188D01*
X40252125Y34823043D01*
X40252119Y34823039D01*
X40212681Y34783600D01*
X40151358Y34750115D01*
X40081666Y34755099D01*
X40037319Y34783600D01*
X39997880Y34823039D01*
X39997878Y34823041D01*
X39905823Y34876189D01*
X39803148Y34903700D01*
X39696852Y34903700D01*
X39594177Y34876189D01*
X39594175Y34876188D01*
X39594174Y34876188D01*
X39502125Y34823043D01*
X39502119Y34823039D01*
X39462681Y34783600D01*
X39401358Y34750115D01*
X39331666Y34755099D01*
X39287319Y34783600D01*
X39247880Y34823039D01*
X39247878Y34823041D01*
X39155823Y34876189D01*
X39053148Y34903700D01*
X38946852Y34903700D01*
X38844177Y34876189D01*
X38844175Y34876188D01*
X38844174Y34876188D01*
X38752125Y34823043D01*
X38752119Y34823039D01*
X38676961Y34747881D01*
X38676957Y34747875D01*
X38623812Y34655826D01*
X38623812Y34655825D01*
X38623811Y34655823D01*
X38596300Y34553148D01*
X11000000Y34553148D01*
X11000000Y35224500D01*
X50052110Y35224500D01*
X50119149Y35204815D01*
G37*
%TD.AperFunction*%
%TA.AperFunction,Conductor*%
G36*
X16031662Y30761518D02*
G01*
X16062399Y30726044D01*
X16073520Y30706781D01*
X16070888Y30705262D01*
X16090869Y30653585D01*
X16091300Y30643261D01*
X16091300Y29624000D01*
X16071615Y29556961D01*
X16018811Y29511206D01*
X16009091Y29509092D01*
X16000000Y29500000D01*
X15508700Y29500000D01*
X15508700Y30436356D01*
X15528385Y30503395D01*
X15581189Y30549150D01*
X15600599Y30556129D01*
X15666594Y30573811D01*
X15758649Y30626959D01*
X15833812Y30702122D01*
X15847625Y30726048D01*
X15898190Y30774261D01*
X15966796Y30787485D01*
X16031662Y30761518D01*
G37*
%TD.AperFunction*%
%TD*%
%TA.AperFunction,Conductor*%
%TO.N,+24V*%
G36*
X44443039Y30980315D02*
G01*
X44488794Y30927511D01*
X44500000Y30876000D01*
X44500000Y15624000D01*
X44480315Y15556961D01*
X44427511Y15511206D01*
X44376000Y15500000D01*
X40999999Y15500000D01*
X36500000Y11000001D01*
X36500000Y8899500D01*
X36480315Y8832461D01*
X36427511Y8786706D01*
X36376000Y8775500D01*
X34860438Y8775500D01*
X34784010Y8755022D01*
X34715489Y8715460D01*
X34715486Y8715458D01*
X34159541Y8159513D01*
X34159535Y8159505D01*
X34119982Y8090996D01*
X34119979Y8090991D01*
X34099500Y8014561D01*
X34099500Y7731812D01*
X34079815Y7664773D01*
X34027011Y7619018D01*
X33957853Y7609074D01*
X33894297Y7638099D01*
X33868113Y7669811D01*
X33823041Y7747878D01*
X33747878Y7823041D01*
X33655823Y7876189D01*
X33640756Y7880226D01*
X33581097Y7916589D01*
X33550567Y7979435D01*
X33558861Y8048811D01*
X33603346Y8102690D01*
X33640755Y8119774D01*
X33655823Y8123811D01*
X33747878Y8176959D01*
X33823041Y8252122D01*
X33876189Y8344177D01*
X33903700Y8446852D01*
X33903700Y8553148D01*
X33876189Y8655823D01*
X33823041Y8747878D01*
X33747878Y8823041D01*
X33655823Y8876189D01*
X33640756Y8880226D01*
X33581097Y8916589D01*
X33550567Y8979435D01*
X33558861Y9048811D01*
X33603346Y9102690D01*
X33640755Y9119774D01*
X33655823Y9123811D01*
X33747878Y9176959D01*
X33823041Y9252122D01*
X33876189Y9344177D01*
X33903700Y9446852D01*
X33903700Y9553148D01*
X33876189Y9655823D01*
X33823041Y9747878D01*
X33747878Y9823041D01*
X33655823Y9876189D01*
X33553148Y9903700D01*
X33446852Y9903700D01*
X33344177Y9876189D01*
X33344175Y9876188D01*
X33344174Y9876188D01*
X33252125Y9823043D01*
X33252119Y9823039D01*
X33176961Y9747881D01*
X33176957Y9747875D01*
X33123812Y9655826D01*
X33123812Y9655825D01*
X33123811Y9655823D01*
X33119774Y9640757D01*
X33083410Y9581097D01*
X33020563Y9550568D01*
X32951188Y9558863D01*
X32897310Y9603348D01*
X32880226Y9640756D01*
X32876189Y9655823D01*
X32823041Y9747878D01*
X32747878Y9823041D01*
X32655823Y9876189D01*
X32553148Y9903700D01*
X32446852Y9903700D01*
X32344177Y9876189D01*
X32344175Y9876188D01*
X32344174Y9876188D01*
X32252125Y9823043D01*
X32252119Y9823039D01*
X32176961Y9747881D01*
X32176957Y9747875D01*
X32123812Y9655826D01*
X32123812Y9655825D01*
X32123811Y9655823D01*
X32119774Y9640757D01*
X32083410Y9581097D01*
X32020563Y9550568D01*
X31951188Y9558863D01*
X31897310Y9603348D01*
X31880226Y9640756D01*
X31876189Y9655823D01*
X31823041Y9747878D01*
X31747878Y9823041D01*
X31655823Y9876189D01*
X31553148Y9903700D01*
X31446852Y9903700D01*
X31344177Y9876189D01*
X31344175Y9876188D01*
X31344174Y9876188D01*
X31252125Y9823043D01*
X31252119Y9823039D01*
X31176961Y9747881D01*
X31176957Y9747875D01*
X31123812Y9655826D01*
X31123812Y9655825D01*
X31123811Y9655823D01*
X31096300Y9553148D01*
X31096300Y9446852D01*
X31123811Y9344177D01*
X31176959Y9252122D01*
X31252122Y9176959D01*
X31344177Y9123811D01*
X31359243Y9119775D01*
X31418903Y9083410D01*
X31449432Y9020563D01*
X31441137Y8951188D01*
X31396652Y8897310D01*
X31359244Y8880227D01*
X31344177Y8876189D01*
X31344175Y8876188D01*
X31344174Y8876188D01*
X31252125Y8823043D01*
X31252119Y8823039D01*
X31176961Y8747881D01*
X31176957Y8747875D01*
X31123812Y8655826D01*
X31123812Y8655825D01*
X31123811Y8655823D01*
X31119774Y8640757D01*
X31083410Y8581097D01*
X31020563Y8550568D01*
X30951188Y8558863D01*
X30897310Y8603348D01*
X30880226Y8640756D01*
X30876189Y8655823D01*
X30823041Y8747878D01*
X30747878Y8823041D01*
X30655823Y8876189D01*
X30553148Y8903700D01*
X30446852Y8903700D01*
X30344177Y8876189D01*
X30344175Y8876188D01*
X30344174Y8876188D01*
X30252125Y8823043D01*
X30252119Y8823039D01*
X30176961Y8747881D01*
X30176957Y8747875D01*
X30123812Y8655826D01*
X30123812Y8655825D01*
X30123811Y8655823D01*
X30096300Y8553148D01*
X30096300Y8446852D01*
X30123811Y8344177D01*
X30176959Y8252122D01*
X30252122Y8176959D01*
X30344177Y8123811D01*
X30359243Y8119775D01*
X30418903Y8083410D01*
X30449432Y8020563D01*
X30441137Y7951188D01*
X30396652Y7897310D01*
X30359244Y7880227D01*
X30344177Y7876189D01*
X30344175Y7876188D01*
X30344174Y7876188D01*
X30252125Y7823043D01*
X30252119Y7823039D01*
X30176961Y7747881D01*
X30176957Y7747875D01*
X30123812Y7655826D01*
X30123812Y7655825D01*
X30123811Y7655823D01*
X30096300Y7553148D01*
X30096300Y7446852D01*
X30123811Y7344177D01*
X30176959Y7252122D01*
X30252122Y7176959D01*
X30344177Y7123811D01*
X30446852Y7096300D01*
X30446854Y7096300D01*
X30553146Y7096300D01*
X30553148Y7096300D01*
X30655823Y7123811D01*
X30747878Y7176959D01*
X30823041Y7252122D01*
X30876189Y7344177D01*
X30880225Y7359244D01*
X30916589Y7418903D01*
X30979435Y7449433D01*
X31048811Y7441139D01*
X31102690Y7396654D01*
X31119773Y7359245D01*
X31123811Y7344177D01*
X31176959Y7252122D01*
X31252122Y7176959D01*
X31344177Y7123811D01*
X31446852Y7096300D01*
X31446854Y7096300D01*
X31553146Y7096300D01*
X31553148Y7096300D01*
X31655823Y7123811D01*
X31747878Y7176959D01*
X31823041Y7252122D01*
X31876189Y7344177D01*
X31880225Y7359244D01*
X31916589Y7418903D01*
X31979435Y7449433D01*
X32048811Y7441139D01*
X32102690Y7396654D01*
X32119773Y7359245D01*
X32123811Y7344177D01*
X32176959Y7252122D01*
X32252122Y7176959D01*
X32344177Y7123811D01*
X32446852Y7096300D01*
X32446854Y7096300D01*
X32553146Y7096300D01*
X32553148Y7096300D01*
X32655823Y7123811D01*
X32747878Y7176959D01*
X32823041Y7252122D01*
X32876189Y7344177D01*
X32880225Y7359244D01*
X32916589Y7418903D01*
X32979435Y7449433D01*
X33048811Y7441139D01*
X33102690Y7396654D01*
X33119773Y7359245D01*
X33123811Y7344177D01*
X33176959Y7252122D01*
X33252122Y7176959D01*
X33344177Y7123811D01*
X33446852Y7096300D01*
X33446854Y7096300D01*
X33553146Y7096300D01*
X33553148Y7096300D01*
X33655823Y7123811D01*
X33747878Y7176959D01*
X33823041Y7252122D01*
X33868113Y7330190D01*
X33918680Y7378405D01*
X33987287Y7391628D01*
X34052152Y7365660D01*
X34092680Y7308745D01*
X34099500Y7268189D01*
X34099500Y6624000D01*
X34079815Y6556961D01*
X34027011Y6511206D01*
X33975500Y6500000D01*
X27624500Y6500000D01*
X27557461Y6519685D01*
X27511706Y6572489D01*
X27500500Y6624000D01*
X27500500Y7623423D01*
X27469709Y7817827D01*
X27426377Y7951188D01*
X27408884Y8005025D01*
X27408882Y8005028D01*
X27408882Y8005030D01*
X27361743Y8097545D01*
X27319524Y8180405D01*
X27203828Y8339646D01*
X27064646Y8478828D01*
X26905405Y8594524D01*
X26888087Y8603348D01*
X26730029Y8683883D01*
X26542826Y8744710D01*
X26348422Y8775500D01*
X26348417Y8775500D01*
X26297595Y8775500D01*
X26250000Y8775500D01*
X26151583Y8775500D01*
X26151578Y8775500D01*
X25957173Y8744710D01*
X25769970Y8683883D01*
X25594594Y8594524D01*
X25576114Y8581097D01*
X25435354Y8478828D01*
X25435352Y8478826D01*
X25435351Y8478826D01*
X25296174Y8339649D01*
X25296174Y8339648D01*
X25296172Y8339646D01*
X25260457Y8290489D01*
X25180476Y8180406D01*
X25091117Y8005030D01*
X25030290Y7817827D01*
X24999500Y7623423D01*
X24999500Y6624000D01*
X24979815Y6556961D01*
X24927011Y6511206D01*
X24875500Y6500000D01*
X24124000Y6500000D01*
X24056961Y6519685D01*
X24011206Y6572489D01*
X24000000Y6624000D01*
X24000000Y13944681D01*
X26042582Y13944681D01*
X26042582Y13838385D01*
X26070093Y13735710D01*
X26123241Y13643655D01*
X26198404Y13568492D01*
X26290459Y13515344D01*
X26393134Y13487833D01*
X26393136Y13487833D01*
X26499428Y13487833D01*
X26499430Y13487833D01*
X26602105Y13515344D01*
X26694160Y13568492D01*
X26769323Y13643655D01*
X26822471Y13735710D01*
X26849982Y13838385D01*
X26849982Y13922193D01*
X27105160Y13922193D01*
X27105160Y13815897D01*
X27132671Y13713222D01*
X27185819Y13621167D01*
X27260982Y13546004D01*
X27353037Y13492856D01*
X27455712Y13465345D01*
X27455714Y13465345D01*
X27562006Y13465345D01*
X27562008Y13465345D01*
X27664683Y13492856D01*
X27756738Y13546004D01*
X27831901Y13621167D01*
X27885049Y13713222D01*
X27912560Y13815897D01*
X27912560Y13922193D01*
X27908041Y13939059D01*
X28145249Y13939059D01*
X28145249Y13832763D01*
X28172760Y13730088D01*
X28225908Y13638033D01*
X28301071Y13562870D01*
X28393126Y13509722D01*
X28495801Y13482211D01*
X28495803Y13482211D01*
X28602095Y13482211D01*
X28602097Y13482211D01*
X28704772Y13509722D01*
X28796827Y13562870D01*
X28871990Y13638033D01*
X28925138Y13730088D01*
X28952649Y13832763D01*
X28952649Y13933437D01*
X29202204Y13933437D01*
X29202204Y13827141D01*
X29229715Y13724466D01*
X29282863Y13632411D01*
X29358026Y13557248D01*
X29450081Y13504100D01*
X29552756Y13476589D01*
X29552758Y13476589D01*
X29659050Y13476589D01*
X29659052Y13476589D01*
X29761727Y13504100D01*
X29853782Y13557248D01*
X29928945Y13632411D01*
X29982093Y13724466D01*
X30009604Y13827141D01*
X30009604Y13933437D01*
X29982093Y14036112D01*
X29928945Y14128167D01*
X29853782Y14203330D01*
X29761727Y14256478D01*
X29659052Y14283989D01*
X29552756Y14283989D01*
X29450081Y14256478D01*
X29450079Y14256477D01*
X29450078Y14256477D01*
X29358029Y14203332D01*
X29358023Y14203328D01*
X29282865Y14128170D01*
X29282861Y14128164D01*
X29229716Y14036115D01*
X29229716Y14036114D01*
X29229715Y14036112D01*
X29202204Y13933437D01*
X28952649Y13933437D01*
X28952649Y13939059D01*
X28925138Y14041734D01*
X28871990Y14133789D01*
X28796827Y14208952D01*
X28735457Y14244384D01*
X28704774Y14262099D01*
X28704773Y14262100D01*
X28704772Y14262100D01*
X28602097Y14289611D01*
X28495801Y14289611D01*
X28393126Y14262100D01*
X28393124Y14262099D01*
X28393123Y14262099D01*
X28301074Y14208954D01*
X28301068Y14208950D01*
X28225910Y14133792D01*
X28225906Y14133786D01*
X28172761Y14041737D01*
X28172761Y14041736D01*
X28172760Y14041734D01*
X28171254Y14036114D01*
X28151020Y13960601D01*
X28151020Y13960598D01*
X28145249Y13939059D01*
X27908041Y13939059D01*
X27885049Y14024868D01*
X27831901Y14116923D01*
X27756738Y14192086D01*
X27664683Y14245234D01*
X27562008Y14272745D01*
X27455712Y14272745D01*
X27353037Y14245234D01*
X27353035Y14245233D01*
X27353034Y14245233D01*
X27260985Y14192088D01*
X27260979Y14192084D01*
X27185821Y14116926D01*
X27185817Y14116920D01*
X27132672Y14024871D01*
X27132672Y14024870D01*
X27132671Y14024868D01*
X27105160Y13922193D01*
X26849982Y13922193D01*
X26849982Y13944681D01*
X26822471Y14047356D01*
X26769323Y14139411D01*
X26694160Y14214574D01*
X26621580Y14256478D01*
X26602107Y14267721D01*
X26602106Y14267722D01*
X26602105Y14267722D01*
X26499430Y14295233D01*
X26393134Y14295233D01*
X26290459Y14267722D01*
X26290457Y14267721D01*
X26290456Y14267721D01*
X26198407Y14214576D01*
X26198401Y14214572D01*
X26123243Y14139414D01*
X26123239Y14139408D01*
X26070094Y14047359D01*
X26070094Y14047358D01*
X26070093Y14047356D01*
X26042582Y13944681D01*
X24000000Y13944681D01*
X24000000Y14876000D01*
X24019685Y14943039D01*
X24072489Y14988794D01*
X24124000Y15000000D01*
X24722300Y15000000D01*
X24789339Y14980315D01*
X24835094Y14927511D01*
X24846300Y14876000D01*
X24846300Y14796852D01*
X24873811Y14694177D01*
X24926959Y14602122D01*
X25002122Y14526959D01*
X25094177Y14473811D01*
X25196852Y14446300D01*
X25196854Y14446300D01*
X25303146Y14446300D01*
X25303148Y14446300D01*
X25405823Y14473811D01*
X25497878Y14526959D01*
X25573041Y14602122D01*
X25626189Y14694177D01*
X25653700Y14796852D01*
X25653700Y14876000D01*
X25673385Y14943039D01*
X25726189Y14988794D01*
X25777700Y15000000D01*
X28499999Y15000000D01*
X28500000Y15000000D01*
X28928345Y15403148D01*
X31696300Y15403148D01*
X31696300Y15296852D01*
X31723811Y15194177D01*
X31776959Y15102122D01*
X31852122Y15026959D01*
X31944177Y14973811D01*
X32046852Y14946300D01*
X32046854Y14946300D01*
X32153146Y14946300D01*
X32153148Y14946300D01*
X32255823Y14973811D01*
X32347878Y15026959D01*
X32423041Y15102122D01*
X32476189Y15194177D01*
X32503700Y15296852D01*
X32503700Y15403148D01*
X32476189Y15505823D01*
X32423041Y15597878D01*
X32347878Y15673041D01*
X32255823Y15726189D01*
X32153148Y15753700D01*
X32046852Y15753700D01*
X31944177Y15726189D01*
X31944175Y15726188D01*
X31944174Y15726188D01*
X31852125Y15673043D01*
X31852119Y15673039D01*
X31776961Y15597881D01*
X31776957Y15597875D01*
X31723812Y15505826D01*
X31723812Y15505825D01*
X31723811Y15505823D01*
X31696300Y15403148D01*
X28928345Y15403148D01*
X29618969Y16053148D01*
X32946300Y16053148D01*
X32946300Y15946852D01*
X32973811Y15844177D01*
X33026959Y15752122D01*
X33102122Y15676959D01*
X33194177Y15623811D01*
X33296852Y15596300D01*
X33296854Y15596300D01*
X33403146Y15596300D01*
X33403148Y15596300D01*
X33505823Y15623811D01*
X33597878Y15676959D01*
X33673041Y15752122D01*
X33717613Y15829324D01*
X33768180Y15877539D01*
X33836787Y15890762D01*
X33901652Y15864794D01*
X33932386Y15829324D01*
X33976959Y15752122D01*
X34052122Y15676959D01*
X34144177Y15623811D01*
X34246852Y15596300D01*
X34246854Y15596300D01*
X34353146Y15596300D01*
X34353148Y15596300D01*
X34455823Y15623811D01*
X34547878Y15676959D01*
X34584165Y15713247D01*
X34645485Y15746731D01*
X34715177Y15741747D01*
X34771111Y15699877D01*
X34791620Y15657659D01*
X34813581Y15575698D01*
X34866729Y15483643D01*
X34941892Y15408480D01*
X35033947Y15355332D01*
X35136622Y15327821D01*
X35136624Y15327821D01*
X35242916Y15327821D01*
X35242918Y15327821D01*
X35345593Y15355332D01*
X35437648Y15408480D01*
X35512811Y15483643D01*
X35565959Y15575698D01*
X35593470Y15678373D01*
X35593470Y15784669D01*
X35565959Y15887344D01*
X35512811Y15979399D01*
X35437648Y16054562D01*
X35345593Y16107710D01*
X35242918Y16135221D01*
X35136622Y16135221D01*
X35033947Y16107710D01*
X35033945Y16107709D01*
X35033944Y16107709D01*
X34941895Y16054564D01*
X34941888Y16054559D01*
X34905604Y16018275D01*
X34844281Y15984790D01*
X34774589Y15989776D01*
X34718656Y16031648D01*
X34698149Y16073864D01*
X34676189Y16155823D01*
X34623041Y16247878D01*
X34547878Y16323041D01*
X34455823Y16376189D01*
X34353148Y16403700D01*
X34246852Y16403700D01*
X34144177Y16376189D01*
X34144175Y16376188D01*
X34144174Y16376188D01*
X34052125Y16323043D01*
X34052119Y16323039D01*
X33976961Y16247881D01*
X33976959Y16247878D01*
X33932387Y16170677D01*
X33881820Y16122462D01*
X33813212Y16109240D01*
X33748348Y16135208D01*
X33717613Y16170677D01*
X33680952Y16234175D01*
X33673041Y16247878D01*
X33597878Y16323041D01*
X33505823Y16376189D01*
X33403148Y16403700D01*
X33296852Y16403700D01*
X33194177Y16376189D01*
X33194175Y16376188D01*
X33194174Y16376188D01*
X33102125Y16323043D01*
X33102119Y16323039D01*
X33026961Y16247881D01*
X33026957Y16247875D01*
X32973812Y16155826D01*
X32973812Y16155825D01*
X32973811Y16155823D01*
X32946300Y16053148D01*
X29618969Y16053148D01*
X29940882Y16356125D01*
X30003188Y16387735D01*
X30072697Y16380642D01*
X30127336Y16337096D01*
X30133251Y16327826D01*
X30176959Y16252122D01*
X30252122Y16176959D01*
X30344177Y16123811D01*
X30446852Y16096300D01*
X30446854Y16096300D01*
X30553146Y16096300D01*
X30553148Y16096300D01*
X30655823Y16123811D01*
X30747878Y16176959D01*
X30823041Y16252122D01*
X30876189Y16344177D01*
X30902708Y16443148D01*
X36946300Y16443148D01*
X36946300Y16336852D01*
X36973811Y16234177D01*
X37026959Y16142122D01*
X37102122Y16066959D01*
X37194177Y16013811D01*
X37296852Y15986300D01*
X37296854Y15986300D01*
X37403146Y15986300D01*
X37403148Y15986300D01*
X37505823Y16013811D01*
X37597878Y16066959D01*
X37673041Y16142122D01*
X37726189Y16234177D01*
X37753700Y16336852D01*
X37753700Y16443148D01*
X37726189Y16545823D01*
X37673041Y16637878D01*
X37597878Y16713041D01*
X37505823Y16766189D01*
X37403148Y16793700D01*
X37296852Y16793700D01*
X37194177Y16766189D01*
X37194175Y16766188D01*
X37194174Y16766188D01*
X37102125Y16713043D01*
X37102119Y16713039D01*
X37026961Y16637881D01*
X37026957Y16637875D01*
X36973812Y16545826D01*
X36973812Y16545825D01*
X36973811Y16545823D01*
X36946300Y16443148D01*
X30902708Y16443148D01*
X30903700Y16446852D01*
X30903700Y16553148D01*
X30876189Y16655823D01*
X30823041Y16747878D01*
X30747878Y16823041D01*
X30699611Y16850908D01*
X30651396Y16901476D01*
X30638174Y16970083D01*
X30664142Y17034948D01*
X30676614Y17048579D01*
X30962888Y17318013D01*
X31025192Y17349622D01*
X31094701Y17342529D01*
X31149340Y17298983D01*
X31155254Y17289715D01*
X31170049Y17264090D01*
X31176959Y17252122D01*
X31252122Y17176959D01*
X31344177Y17123811D01*
X31446852Y17096300D01*
X31446854Y17096300D01*
X31553146Y17096300D01*
X31553148Y17096300D01*
X31655823Y17123811D01*
X31747878Y17176959D01*
X31823041Y17252122D01*
X31876189Y17344177D01*
X31880225Y17359244D01*
X31916589Y17418903D01*
X31979435Y17449433D01*
X32048811Y17441139D01*
X32102690Y17396654D01*
X32119773Y17359245D01*
X32123811Y17344177D01*
X32176959Y17252122D01*
X32252122Y17176959D01*
X32344177Y17123811D01*
X32446852Y17096300D01*
X32446854Y17096300D01*
X32553146Y17096300D01*
X32553148Y17096300D01*
X32655823Y17123811D01*
X32747878Y17176959D01*
X32823041Y17252122D01*
X32876189Y17344177D01*
X32903700Y17446852D01*
X32903700Y17463148D01*
X35946300Y17463148D01*
X35946300Y17356852D01*
X35973811Y17254177D01*
X35973812Y17254176D01*
X35973812Y17254175D01*
X35991527Y17223492D01*
X36026959Y17162122D01*
X36102122Y17086959D01*
X36194177Y17033811D01*
X36296852Y17006300D01*
X36296854Y17006300D01*
X36403146Y17006300D01*
X36403148Y17006300D01*
X36505823Y17033811D01*
X36597878Y17086959D01*
X36673041Y17162122D01*
X36726189Y17254177D01*
X36753700Y17356852D01*
X36753700Y17463148D01*
X36726189Y17565823D01*
X36673041Y17657878D01*
X36619582Y17711337D01*
X36586097Y17772660D01*
X36591081Y17842352D01*
X36632953Y17898285D01*
X36645247Y17906395D01*
X36729690Y17955148D01*
X36804853Y18030311D01*
X36858001Y18122366D01*
X36885512Y18225041D01*
X36885512Y18225043D01*
X36887615Y18232891D01*
X36889271Y18232448D01*
X36913573Y18287382D01*
X36971898Y18325853D01*
X37008246Y18331300D01*
X37078146Y18331300D01*
X37078148Y18331300D01*
X37180823Y18358811D01*
X37272878Y18411959D01*
X37348041Y18487122D01*
X37401189Y18579177D01*
X37428700Y18681852D01*
X37428700Y18788148D01*
X37401189Y18890823D01*
X37348041Y18982878D01*
X37272878Y19058041D01*
X37211508Y19093473D01*
X37180825Y19111188D01*
X37180824Y19111189D01*
X37180823Y19111189D01*
X37078148Y19138700D01*
X36971852Y19138700D01*
X36869177Y19111189D01*
X36869175Y19111188D01*
X36869174Y19111188D01*
X36777125Y19058043D01*
X36777119Y19058039D01*
X36701961Y18982881D01*
X36701957Y18982875D01*
X36648812Y18890826D01*
X36648812Y18890825D01*
X36648811Y18890823D01*
X36621300Y18788148D01*
X36619197Y18780298D01*
X36617540Y18780742D01*
X36593239Y18725807D01*
X36534914Y18687336D01*
X36498566Y18681889D01*
X36428664Y18681889D01*
X36325989Y18654378D01*
X36325987Y18654377D01*
X36325986Y18654377D01*
X36233937Y18601232D01*
X36233931Y18601228D01*
X36158773Y18526070D01*
X36158769Y18526064D01*
X36105624Y18434015D01*
X36105624Y18434014D01*
X36105623Y18434012D01*
X36078112Y18331337D01*
X36078112Y18225041D01*
X36105623Y18122366D01*
X36158771Y18030311D01*
X36158773Y18030309D01*
X36212229Y17976853D01*
X36245714Y17915530D01*
X36240730Y17845838D01*
X36198858Y17789905D01*
X36186549Y17781785D01*
X36102122Y17733041D01*
X36102119Y17733039D01*
X36026961Y17657881D01*
X36026957Y17657875D01*
X35973812Y17565826D01*
X35973812Y17565825D01*
X35973811Y17565823D01*
X35946300Y17463148D01*
X32903700Y17463148D01*
X32903700Y17553148D01*
X32876189Y17655823D01*
X32823041Y17747878D01*
X32747878Y17823041D01*
X32686508Y17858473D01*
X32655825Y17876188D01*
X32655823Y17876189D01*
X32640756Y17880226D01*
X32581097Y17916589D01*
X32550567Y17979435D01*
X32558861Y18048811D01*
X32603346Y18102690D01*
X32640755Y18119774D01*
X32655823Y18123811D01*
X32747878Y18176959D01*
X32823041Y18252122D01*
X32876189Y18344177D01*
X32903700Y18446852D01*
X32903700Y18553148D01*
X32876189Y18655823D01*
X32823041Y18747878D01*
X32748124Y18822795D01*
X32714639Y18884118D01*
X32719623Y18953810D01*
X32750817Y19000770D01*
X37000000Y23000000D01*
X37000000Y23458308D01*
X37019685Y23525347D01*
X37072489Y23571102D01*
X37141647Y23581046D01*
X37161260Y23575666D01*
X37161327Y23575915D01*
X37169174Y23573813D01*
X37169177Y23573811D01*
X37271852Y23546300D01*
X37271854Y23546300D01*
X37378146Y23546300D01*
X37378148Y23546300D01*
X37480823Y23573811D01*
X37572878Y23626959D01*
X37648041Y23702122D01*
X37688178Y23771644D01*
X37707879Y23797318D01*
X38353036Y24442473D01*
X38390278Y24506979D01*
X38402892Y24528827D01*
X38428700Y24625143D01*
X38428700Y26137225D01*
X38432925Y26169318D01*
X38435642Y26179457D01*
X38453700Y26246852D01*
X38453700Y26353148D01*
X38426189Y26455823D01*
X38373041Y26547878D01*
X38297878Y26623041D01*
X38297876Y26623042D01*
X38297874Y26623044D01*
X38244452Y26653887D01*
X38244451Y26653887D01*
X38228357Y26663179D01*
X38202678Y26682884D01*
X38132414Y26753148D01*
X39046300Y26753148D01*
X39046300Y26646852D01*
X39073811Y26544177D01*
X39126959Y26452122D01*
X39202122Y26376959D01*
X39294177Y26323811D01*
X39396852Y26296300D01*
X39396854Y26296300D01*
X39503146Y26296300D01*
X39503148Y26296300D01*
X39605823Y26323811D01*
X39697878Y26376959D01*
X39773041Y26452122D01*
X39826189Y26544177D01*
X39853700Y26646852D01*
X39853700Y26753148D01*
X39826189Y26855823D01*
X39773041Y26947878D01*
X39697878Y27023041D01*
X39605823Y27076189D01*
X39503148Y27103700D01*
X39396852Y27103700D01*
X39294177Y27076189D01*
X39294175Y27076188D01*
X39294174Y27076188D01*
X39202125Y27023043D01*
X39202119Y27023039D01*
X39126961Y26947881D01*
X39126957Y26947875D01*
X39073812Y26855826D01*
X39073812Y26855825D01*
X39073811Y26855823D01*
X39046300Y26753148D01*
X38132414Y26753148D01*
X37895341Y26990222D01*
X37861856Y27051545D01*
X37859022Y27077903D01*
X37859022Y27735030D01*
X37878707Y27802069D01*
X37931511Y27847824D01*
X38000669Y27857768D01*
X38015100Y27854808D01*
X38046852Y27846300D01*
X38046854Y27846300D01*
X38153146Y27846300D01*
X38153148Y27846300D01*
X38255823Y27873811D01*
X38347878Y27926959D01*
X38423041Y28002122D01*
X38476189Y28094177D01*
X38503700Y28196852D01*
X38503700Y28303148D01*
X38476189Y28405823D01*
X38423041Y28497878D01*
X38347878Y28573041D01*
X38283176Y28610397D01*
X38255825Y28626188D01*
X38255824Y28626189D01*
X38255823Y28626189D01*
X38153148Y28653700D01*
X38046852Y28653700D01*
X38046850Y28653700D01*
X38014172Y28644944D01*
X37944322Y28646608D01*
X37886460Y28685771D01*
X37862055Y28741841D01*
X37861125Y28741591D01*
X37859460Y28747803D01*
X37859140Y28748539D01*
X37859022Y28749429D01*
X37859022Y28749442D01*
X37833214Y28845758D01*
X37783358Y28932112D01*
X37712849Y29002621D01*
X37062434Y29653036D01*
X37062433Y29653037D01*
X37062430Y29653039D01*
X37062000Y29653287D01*
X37061709Y29653592D01*
X37055983Y29657986D01*
X37056668Y29658879D01*
X37013784Y29703854D01*
X37000000Y29760674D01*
X37000000Y30876000D01*
X37019685Y30943039D01*
X37072489Y30988794D01*
X37124000Y31000000D01*
X44376000Y31000000D01*
X44443039Y30980315D01*
G37*
%TD.AperFunction*%
%TD*%
M02*
