0
SECTION
2
HEADER
9
$INSUNITS
70
4
9
$ACADVER
1
AC1014
9
$HANDSEED
5
FFFF
0
ENDSEC
0
SECTION
2
TABLES
0
TABLE
2
VPORT
5
8
100
AcDbSymbolTable
0
ENDTAB
0
TABLE
2
LTYPE
5
5
100
AcDbSymbolTable
0
LTYPE
5
14
100
AcDbSymbolTableRecord
100
AcDbLinetypeTableRecord
2
BYBLOCK
70
0
0
LTYPE
5
15
100
AcDbSymbolTableRecord
100
AcDbLinetypeTableRecord
2
BYLAYER
70
0
0
LTYPE
5
16
100
AcDbSymbolTableRecord
100
AcDbLinetypeTableRecord
2
DASHED
70
0
3
Dashed __ __ __ __ __ __ __ __ __ __ __ __ __ _
72
65
73
2
40
0.75
49
0.5
74
0
49
-0.25
74
0
0
ENDTAB
0
TABLE
2
LAYER
5
2
100
AcDbSymbolTable
70
2
0
LAYER
5
50
100
AcDbSymbolTableRecord
100
AcDbLayerTableRecord
2
0
70
0
62
7
6
CONTINUOUS
0
ENDTAB
0
TABLE
2
STYLE
5
3
100
AcDbSymbolTable
70
1
0
STYLE
5
11
100
AcDbSymbolTableRecord
100
AcDbTextStyleTableRecord
2
STANDARD
70
0
0
ENDTAB
0
TABLE
2
VIEW
5
6
100
AcDbSymbolTable
70
0
0
ENDTAB
0
TABLE
2
UCS
5
7
100
AcDbSymbolTable
70
0
0
ENDTAB
0
TABLE
2
APPID
5
9
100
AcDbSymbolTable
70
2
0
APPID
5
12
100
AcDbSymbolTableRecord
100
AcDbRegAppTableRecord
2
ACAD
70
0
0
ENDTAB
0
TABLE
2
DIMSTYLE
5
A
100
AcDbSymbolTable
70
1
0
ENDTAB
0
TABLE
2
BLOCK_RECORD
5
1
100
AcDbSymbolTable
70
1
0
BLOCK_RECORD
5
1F
100
AcDbSymbolTableRecord
100
AcDbBlockTableRecord
2
*MODEL_SPACE
0
BLOCK_RECORD
5
1B
100
AcDbSymbolTableRecord
100
AcDbBlockTableRecord
2
*PAPER_SPACE
0
ENDTAB
0
ENDSEC
0
SECTION
2
BLOCKS
0
BLOCK
5
20
100
AcDbEntity
100
AcDbBlockBegin
2
*MODEL_SPACE
0
ENDBLK
5
21
100
AcDbEntity
100
AcDbBlockEnd
0
BLOCK
5
1C
100
AcDbEntity
100
AcDbBlockBegin
2
*PAPER_SPACE
0
ENDBLK
5
1D
100
AcDbEntity
100
AcDbBlockEnd
0
ENDSEC
0
SECTION
2
ENTITIES
0
LWPOLYLINE
5
100
100
AcDbEntity
8
0
100
AcDbPolyline
90
4
70
1
43
0.0
10
-10.35
20
-37.149999999999999
10
10.35
20
-37.149999999999999
10
10.349999999620001
20
-0.15166852264520081
10
-10.35
20
-0.1516685226452
0
LWPOLYLINE
5
101
100
AcDbEntity
8
0
100
AcDbPolyline
90
52
70
1
43
0.0
10
-3.5000000000000004
20
-44.699999999999996
42
0.15697731687819622
10
-3.1499999999999995
20
-44.587339717240447
10
-3.1499999999999999
20
-49.299999999999997
10
-2.1499999999999999
20
-50.300000000000004
10
2.1499999999999977
20
-50.300000000000004
10
3.1499999999999999
20
-49.299999999999997
10
3.1500000000000039
20
-44.587339717240454
42
0.15697731687819247
10
3.5000000000000004
20
-44.700000000000003
10
3.5000000000000004
20
-51.70000000000001
10
4.5
20
-52.700000000000003
10
8.8000000000000043
20
-52.700000000000003
10
9.8000000000000007
20
-51.70000000000001
10
9.8000000000000007
20
-44.699999999999996
42
0.41421356237309503
10
10.4
20
-44.100000000000001
10
10.4
20
-43.100000000000009
10
10.855948168962289
20
-43.100000000000009
10
11.15
20
-43.100000000000009
10
11.15
20
-38.650000000000006
10
12.549999999999999
20
-38.650000000000006
42
0.41421356237309548
10
14.050000000000002
20
-37.149999999999999
10
14.050000000000001
20
-0.1516685226452
10
13.5
20
-0.1516685226452
10
13.5
20
0
10
15.5
20
0
10
15.5
20
2.8999999999999999
42
0.41421356237309503
10
15.199999999999999
20
3.2000000000000006
10
14.500000000000002
20
3.2000000000000006
10
14.500000000000002
20
5.2000000000000002
42
0.41421356237309503
10
14.000000000000002
20
5.7000000000000011
10
11
20
5.7000000000000011
10
-11
20
5.7000000000000011
10
-14.000000000000002
20
5.7000000000000011
42
0.41421356237309503
10
-14.500000000000002
20
5.2000000000000002
10
-14.500000000000002
20
3.2000000000000006
10
-15.199999999999999
20
3.1999999999999993
42
0.41421356237309503
10
-15.5
20
2.8999999999999999
10
-15.5
20
0
10
-13.5
20
0
10
-13.5
20
-0.1516685226452
10
-14.050000000000002
20
-0.1516685226452
10
-14.050000000000002
20
-37.149999999999999
42
0.41421356237309548
10
-12.549999999999999
20
-38.650000000000006
10
-11.15
20
-38.650000000000006
10
-11.150000000000002
20
-43.100000000000009
10
-10.855948168959999
20
-43.100000000000009
10
-10.4
20
-43.100000000000009
10
-10.4
20
-44.100000000000001
42
0.41421356237309503
10
-9.8000000000000007
20
-44.700000000000003
10
-9.8000000000000007
20
-51.70000000000001
10
-8.8000000000000007
20
-52.700000000000003
10
-4.4999999999999982
20
-52.700000000000003
10
-3.5000000000000004
20
-51.70000000000001
0
LWPOLYLINE
5
102
100
AcDbEntity
8
0
100
AcDbPolyline
90
4
70
1
43
0.0
10
-7.6500000000000012
20
-46.5
10
-7.6500000000000012
20
-48.500000000000007
42
0.99999999999999989
10
-5.6500000000000004
20
-48.500000000000007
10
-5.6500000000000004
20
-46.5
42
0.99999999999999989
0
LWPOLYLINE
5
103
100
AcDbEntity
8
0
100
AcDbPolyline
90
4
70
1
43
0.0
10
5.6500000000000004
20
-46.5
10
5.6500000000000004
20
-48.500000000000007
42
0.99999999999999989
10
7.6500000000000004
20
-48.500000000000007
10
7.6500000000000012
20
-46.5
42
0.99999999999999989
0
LWPOLYLINE
5
104
100
AcDbEntity
8
0
100
AcDbPolyline
90
4
70
1
43
0.0
10
1
20
-44.299999999999997
42
0.99999999999999989
10
-1
20
-44.299999999999997
10
-1
20
-46.299999999999997
42
0.99999999999999989
10
1
20
-46.299999999999997
0
ENDSEC
0
SECTION
2
OBJECTS
0
DICTIONARY
5
C
100
AcDbDictionary
3
ACAD_GROUP
350
D
3
ACAD_MLINESTYLE
350
17
0
DICTIONARY
5
D
100
AcDbDictionary
0
DICTIONARY
5
1A
330
C
100
AcDbDictionary
0
DICTIONARY
5
17
100
AcDbDictionary
0
ENDSEC
0
EOF
