%TF.GenerationSoftware,KiCad,Pcbnew,9.0.7*%
%TF.CreationDate,2026-02-27T18:20:13+01:00*%
%TF.ProjectId,PDNode-PDCard-4242,50444e6f-6465-42d5-9044-436172642d34,rev?*%
%TF.SameCoordinates,Original*%
%TF.FileFunction,Copper,L6,Bot*%
%TF.FilePolarity,Positive*%
%FSLAX46Y46*%
G04 Gerber Fmt 4.6, Leading zero omitted, Abs format (unit mm)*
G04 Created by KiCad (PCBNEW 9.0.7) date 2026-02-27 18:20:13*
%MOMM*%
%LPD*%
G01*
G04 APERTURE LIST*
G04 Aperture macros list*
%AMRoundRect*
0 Rectangle with rounded corners*
0 $1 Rounding radius*
0 $2 $3 $4 $5 $6 $7 $8 $9 X,Y pos of 4 corners*
0 Add a 4 corners polygon primitive as box body*
4,1,4,$2,$3,$4,$5,$6,$7,$8,$9,$2,$3,0*
0 Add four circle primitives for the rounded corners*
1,1,$1+$1,$2,$3*
1,1,$1+$1,$4,$5*
1,1,$1+$1,$6,$7*
1,1,$1+$1,$8,$9*
0 Add four rect primitives between the rounded corners*
20,1,$1+$1,$2,$3,$4,$5,0*
20,1,$1+$1,$4,$5,$6,$7,0*
20,1,$1+$1,$6,$7,$8,$9,0*
20,1,$1+$1,$8,$9,$2,$3,0*%
G04 Aperture macros list end*
%TA.AperFunction,ConnectorPad*%
%ADD10R,0.700000X3.200000*%
%TD*%
%TA.AperFunction,ConnectorPad*%
%ADD11R,0.700000X4.300000*%
%TD*%
%TA.AperFunction,ComponentPad*%
%ADD12C,0.700000*%
%TD*%
%TA.AperFunction,ComponentPad*%
%ADD13C,4.400000*%
%TD*%
%TA.AperFunction,HeatsinkPad*%
%ADD14O,2.100000X1.000000*%
%TD*%
%TA.AperFunction,HeatsinkPad*%
%ADD15O,1.600000X1.000000*%
%TD*%
%TA.AperFunction,SMDPad,CuDef*%
%ADD16C,0.600000*%
%TD*%
%TA.AperFunction,SMDPad,CuDef*%
%ADD17RoundRect,0.147500X0.172500X-0.147500X0.172500X0.147500X-0.172500X0.147500X-0.172500X-0.147500X0*%
%TD*%
%TA.AperFunction,SMDPad,CuDef*%
%ADD18RoundRect,0.140000X-0.170000X0.140000X-0.170000X-0.140000X0.170000X-0.140000X0.170000X0.140000X0*%
%TD*%
%TA.AperFunction,SMDPad,CuDef*%
%ADD19RoundRect,0.135000X-0.135000X-0.185000X0.135000X-0.185000X0.135000X0.185000X-0.135000X0.185000X0*%
%TD*%
%TA.AperFunction,SMDPad,CuDef*%
%ADD20RoundRect,0.250000X0.250000X0.475000X-0.250000X0.475000X-0.250000X-0.475000X0.250000X-0.475000X0*%
%TD*%
%TA.AperFunction,SMDPad,CuDef*%
%ADD21RoundRect,0.140000X0.170000X-0.140000X0.170000X0.140000X-0.170000X0.140000X-0.170000X-0.140000X0*%
%TD*%
%TA.AperFunction,SMDPad,CuDef*%
%ADD22RoundRect,0.140000X-0.140000X-0.170000X0.140000X-0.170000X0.140000X0.170000X-0.140000X0.170000X0*%
%TD*%
%TA.AperFunction,SMDPad,CuDef*%
%ADD23RoundRect,0.150000X-0.512500X-0.150000X0.512500X-0.150000X0.512500X0.150000X-0.512500X0.150000X0*%
%TD*%
%TA.AperFunction,SMDPad,CuDef*%
%ADD24RoundRect,0.100000X0.400000X0.100000X-0.400000X0.100000X-0.400000X-0.100000X0.400000X-0.100000X0*%
%TD*%
%TA.AperFunction,SMDPad,CuDef*%
%ADD25RoundRect,0.135000X0.185000X-0.135000X0.185000X0.135000X-0.185000X0.135000X-0.185000X-0.135000X0*%
%TD*%
%TA.AperFunction,ViaPad*%
%ADD26C,0.400000*%
%TD*%
%TA.AperFunction,ViaPad*%
%ADD27C,0.500000*%
%TD*%
%TA.AperFunction,Conductor*%
%ADD28C,0.174000*%
%TD*%
%TA.AperFunction,Conductor*%
%ADD29C,0.200000*%
%TD*%
%TA.AperFunction,Conductor*%
%ADD30C,0.300000*%
%TD*%
%TA.AperFunction,Conductor*%
%ADD31C,0.500000*%
%TD*%
%TA.AperFunction,Conductor*%
%ADD32C,0.400000*%
%TD*%
%TA.AperFunction,Conductor*%
%ADD33C,0.090000*%
%TD*%
%TA.AperFunction,Conductor*%
%ADD34C,0.150000*%
%TD*%
G04 APERTURE END LIST*
D10*
%TO.P,J2,A1,A1*%
%TO.N,+5V*%
X14675000Y4000000D03*
D11*
%TO.P,J2,A2,A2*%
%TO.N,/Project Architecture/Board Connector and Supplies/SPI_MOSI*%
X15675000Y3450000D03*
%TO.P,J2,A3,A3*%
%TO.N,/Project Architecture/Board Connector and Supplies/SPI_CLK*%
X16675000Y3450000D03*
%TO.P,J2,A4,A4*%
%TO.N,GND*%
X17675000Y3450000D03*
%TO.P,J2,A5,A5*%
%TO.N,/Project Architecture/Board Connector and Supplies/PD_IRQ*%
X18675000Y3450000D03*
%TO.P,J2,A6,A6*%
%TO.N,/Project Architecture/USB-PD Source Controller/I2C_SCL*%
X19675000Y3450000D03*
%TO.P,J2,A7,A7*%
%TO.N,/Project Architecture/Board Connector and Supplies/PMIC_EN*%
X20675000Y3450000D03*
%TO.P,J2,A8,A8*%
%TO.N,/Project Architecture/USB-PD Source Controller/PD_ENABLE*%
X21675000Y3450000D03*
%TO.P,J2,A9,A9*%
%TO.N,+5V*%
X22675000Y3450000D03*
%TO.P,J2,A10,A10*%
%TO.N,/Project Architecture/USB-PD Source Controller/PD_ATTACH*%
X23675000Y3450000D03*
%TO.P,J2,A11,A11*%
%TO.N,+24V*%
X24675000Y3450000D03*
%TO.P,J2,A12,A12*%
X27675000Y3450000D03*
%TO.P,J2,A13,A13*%
X28675000Y3450000D03*
%TO.P,J2,A14,A14*%
X29675000Y3450000D03*
%TO.P,J2,A15,A15*%
%TO.N,GND*%
X30675000Y3450000D03*
%TO.P,J2,A16,A16*%
X31675000Y3450000D03*
%TO.P,J2,A17,A17*%
X32675000Y3450000D03*
%TO.P,J2,A18,A18*%
X33675000Y3450000D03*
%TD*%
D12*
%TO.P,H1,1,1*%
%TO.N,GND*%
X1275000Y4950000D03*
X1758274Y6116726D03*
X1758274Y3783274D03*
X2925000Y6600000D03*
D13*
X2925000Y4950000D03*
D12*
X2925000Y3300000D03*
X4091726Y6116726D03*
X4091726Y3783274D03*
X4575000Y4950000D03*
%TD*%
%TO.P,H2,1,1*%
%TO.N,GND*%
X1275000Y26950000D03*
X1758274Y28116726D03*
X1758274Y25783274D03*
X2925000Y28600000D03*
D13*
X2925000Y26950000D03*
D12*
X2925000Y25300000D03*
X4091726Y28116726D03*
X4091726Y25783274D03*
X4575000Y26950000D03*
%TD*%
D14*
%TO.P,J1,S1,SHIELD*%
%TO.N,SHIELD*%
X5510000Y20520000D03*
D15*
X1330000Y20520000D03*
D14*
X5510000Y11880000D03*
D15*
X1330000Y11880000D03*
%TD*%
D16*
%TO.P,PDOUT1,1*%
%TO.N,/Project Architecture/USB-PD Source Controller/PD_OUT*%
X14700000Y11000000D03*
%TD*%
%TO.P,CC1,1*%
%TO.N,/Project Architecture/USB-PD Source Controller/CC1*%
X11500000Y19000000D03*
%TD*%
D17*
%TO.P,D1,1*%
%TO.N,GND*%
X800000Y8930000D03*
%TO.P,D1,2*%
%TO.N,Net-(D1-Pad2)*%
X800000Y9900000D03*
%TD*%
D18*
%TO.P,C31,1*%
%TO.N,+3.3V*%
X20100000Y21780000D03*
%TO.P,C31,2*%
%TO.N,GND*%
X20100000Y20820000D03*
%TD*%
D16*
%TO.P,VMON1,1*%
%TO.N,/Project Architecture/Board Connector and Supplies/VBUS_VMON_PORT0*%
X7850000Y7300000D03*
%TD*%
%TO.P,CC2,1*%
%TO.N,/Project Architecture/USB-PD Source Controller/CC2*%
X9500000Y13500000D03*
%TD*%
D19*
%TO.P,R49,1*%
%TO.N,Net-(D1-Pad2)*%
X1790000Y9900000D03*
%TO.P,R49,2*%
%TO.N,/Project Architecture/Board Connector and Supplies/PORT_EN*%
X2810000Y9900000D03*
%TD*%
D16*
%TO.P,V24,1*%
%TO.N,+24V*%
X32650000Y9650000D03*
%TD*%
D20*
%TO.P,C6,1*%
%TO.N,+24V*%
X30800000Y12600000D03*
%TO.P,C6,2*%
%TO.N,GND*%
X28900000Y12600000D03*
%TD*%
D16*
%TO.P,VDRV1,1*%
%TO.N,/Project Architecture/USB-PD Source Controller/VDRV*%
X41500000Y28300000D03*
%TD*%
%TO.P,PDEN1,1*%
%TO.N,/Project Architecture/USB-PD Source Controller/PD_ENABLE*%
X32550000Y18350000D03*
%TD*%
D21*
%TO.P,C35,1*%
%TO.N,/Project Architecture/USB-PD Source Controller/USB_D-*%
X12500000Y16740000D03*
%TO.P,C35,2*%
%TO.N,GND*%
X12500000Y17700000D03*
%TD*%
D16*
%TO.P,PDAT1,1*%
%TO.N,/Project Architecture/USB-PD Source Controller/PD_ATTACH*%
X31500000Y21500000D03*
%TD*%
D19*
%TO.P,R3,1*%
%TO.N,GND*%
X11740000Y26250000D03*
%TO.P,R3,2*%
%TO.N,/Project Architecture/USB-PD Source Controller/ISEN-*%
X12760000Y26250000D03*
%TD*%
D22*
%TO.P,C25,1*%
%TO.N,+3.3V*%
X50550000Y25459999D03*
%TO.P,C25,2*%
%TO.N,GND*%
X51510000Y25459999D03*
%TD*%
D18*
%TO.P,C34,1*%
%TO.N,/Project Architecture/USB-PD Source Controller/USB_D+*%
X12500000Y15600000D03*
%TO.P,C34,2*%
%TO.N,GND*%
X12500000Y14640000D03*
%TD*%
D23*
%TO.P,IC20,1,SCL*%
%TO.N,/Project Architecture/USB-PD Source Controller/I2C_SCL*%
X16225000Y19900000D03*
%TO.P,IC20,2,V_{SS}*%
%TO.N,GND*%
X16225000Y20850000D03*
%TO.P,IC20,3,SDA*%
%TO.N,/Project Architecture/USB-PD Source Controller/I2C_SDA*%
X16225000Y21800000D03*
%TO.P,IC20,4,V_{CC}*%
%TO.N,+3.3V*%
X18500000Y21800000D03*
%TO.P,IC20,5,NC*%
%TO.N,unconnected-(IC20-NC-Pad5)*%
X18500000Y19900000D03*
%TD*%
D16*
%TO.P,V24F1,1*%
%TO.N,+24V_FILTERED*%
X28950000Y26650000D03*
%TD*%
D24*
%TO.P,IC5,1,IN1*%
%TO.N,GND*%
X51917500Y24309999D03*
%TO.P,IC5,2,GND*%
X51917500Y23659999D03*
%TO.P,IC5,3,IN0*%
%TO.N,/Project Architecture/USB-PD Source Controller/PD_ENABLE*%
X51917500Y23009999D03*
%TO.P,IC5,4,Y*%
%TO.N,Net-(IC5-Y)*%
X50142500Y23009999D03*
%TO.P,IC5,5,VCC*%
%TO.N,+3.3V*%
X50142500Y23659999D03*
%TO.P,IC5,6,IN2*%
%TO.N,/Project Architecture/Board Connector and Supplies/PORT_EN*%
X50142500Y24309999D03*
%TD*%
D19*
%TO.P,R4,1*%
%TO.N,GND_USB*%
X11740000Y25300000D03*
%TO.P,R4,2*%
%TO.N,/Project Architecture/USB-PD Source Controller/ISEN+*%
X12760000Y25300000D03*
%TD*%
D25*
%TO.P,R41,1*%
%TO.N,Net-(IC5-Y)*%
X48630000Y23149999D03*
%TO.P,R41,2*%
%TO.N,Net-(D2-Pad2)*%
X48630000Y24169999D03*
%TD*%
D26*
%TO.N,GND*%
X11700000Y15600000D03*
X11700000Y16800000D03*
X11800000Y9950000D03*
X37500000Y15300000D03*
X36000000Y22100000D03*
%TO.N,/Project Architecture/USB-PD Source Controller/I2C_SDA*%
X15700000Y21800000D03*
%TO.N,GND*%
X14800000Y13700000D03*
D27*
%TO.N,+24V_FILTERED*%
X25400000Y21000000D03*
D26*
X36939330Y13545640D03*
X36939330Y9645640D03*
X36039330Y10495640D03*
D27*
X27800000Y22200000D03*
X25400000Y23600000D03*
X24200000Y25200000D03*
X36800000Y27800000D03*
D26*
X36039330Y11245640D03*
D27*
X27800000Y25200000D03*
X38000000Y26600000D03*
D26*
X36939330Y11245640D03*
D27*
X24200000Y23600000D03*
X26600000Y21000000D03*
X36800000Y25400000D03*
X29200000Y22200000D03*
X29000000Y26600000D03*
X27800000Y26600000D03*
D26*
X36039330Y9645640D03*
D27*
X29975000Y19400000D03*
D26*
X36939330Y12795640D03*
D27*
X30775000Y19400000D03*
X31575000Y19400000D03*
X25400000Y26600000D03*
X25400000Y25200000D03*
D26*
X36039330Y13545640D03*
X36939330Y11995640D03*
D27*
X38000000Y25400000D03*
X24200000Y21000000D03*
X24200000Y26600000D03*
X29200000Y23600000D03*
X39200000Y27800000D03*
X26600000Y25200000D03*
X38000000Y27800000D03*
D26*
X36039330Y12795640D03*
D27*
X25400000Y22200000D03*
X39200000Y25400000D03*
X29000000Y25200000D03*
X26600000Y22200000D03*
X24200000Y22200000D03*
X26600000Y23600000D03*
X27800000Y23600000D03*
X29200000Y21000000D03*
X39200000Y26600000D03*
X27800000Y21000000D03*
X26600000Y26600000D03*
D26*
X36939330Y10495640D03*
D27*
X36800000Y26600000D03*
D26*
X36039330Y11995640D03*
D27*
X28474507Y19736811D03*
D26*
%TO.N,GND*%
X19600000Y25500000D03*
X18900000Y29000000D03*
D27*
X26500000Y16900000D03*
D26*
X20400000Y24800000D03*
X7800000Y4500000D03*
X27300000Y12900000D03*
D27*
X10400000Y29100000D03*
D26*
X30671455Y6401869D03*
D27*
X7200000Y28400000D03*
D26*
X34000000Y21750000D03*
X16000000Y6600000D03*
X9900000Y16200000D03*
X12500000Y18300000D03*
X27300000Y12200000D03*
D27*
X7200000Y29100000D03*
X8800000Y29100000D03*
D26*
X20900000Y20800000D03*
X13500000Y24200000D03*
X27300000Y11500000D03*
D27*
X27798351Y17464383D03*
D26*
X31671455Y6401869D03*
X33050000Y23900000D03*
D27*
X25300000Y16900000D03*
D26*
X52300000Y28350000D03*
X11000000Y14100000D03*
D27*
X10400000Y28400000D03*
D26*
X25800000Y12200000D03*
X29200000Y12900000D03*
X20400000Y25500000D03*
X21100000Y24800000D03*
X32050000Y23900000D03*
X12000000Y14000000D03*
X13200000Y29000000D03*
X52830000Y23659999D03*
X19600000Y24100000D03*
D27*
X29975000Y18100000D03*
D26*
X29200000Y12200000D03*
X32671455Y6401869D03*
X34100000Y23900000D03*
D27*
X8000000Y28400000D03*
X25398351Y18332062D03*
D26*
X33671455Y7751869D03*
D27*
X32400000Y16975000D03*
D26*
X52230000Y25459999D03*
D27*
X31575000Y18600000D03*
X29000000Y18600000D03*
X25300000Y19800000D03*
D26*
X21000000Y19200000D03*
X20400000Y24100000D03*
D27*
X30775000Y18600000D03*
D26*
X28500000Y12900000D03*
X17675000Y6600000D03*
X14300000Y26600000D03*
X31671455Y7051869D03*
D27*
X31575000Y18100000D03*
D26*
X21100000Y24100000D03*
D27*
X9600000Y29100000D03*
D26*
X26600000Y12200000D03*
D27*
X27798351Y18332062D03*
D26*
X33671455Y6401869D03*
X19600000Y24800000D03*
X15800000Y20800000D03*
D27*
X26598351Y18332062D03*
D26*
X800000Y8200000D03*
X32671455Y7751869D03*
D27*
X9600000Y28400000D03*
X8000000Y29100000D03*
D26*
X26600000Y11500000D03*
X25800000Y11500000D03*
X28500000Y12200000D03*
X52830000Y24359999D03*
X16850000Y7400000D03*
D27*
X24198351Y18332062D03*
D26*
X30671455Y7051869D03*
X21100000Y25500000D03*
D27*
X26500000Y19800000D03*
D26*
X30671455Y7751869D03*
X13000000Y20300000D03*
X16850000Y6600000D03*
X7000000Y5300000D03*
X31671455Y7751869D03*
D27*
X24100000Y19800000D03*
X24100000Y16900000D03*
X30775000Y18100000D03*
X29975000Y18600000D03*
X32400000Y19675000D03*
D26*
X16000000Y7350000D03*
X13627977Y17111882D03*
D27*
X8800000Y28400000D03*
D26*
X11100000Y18300000D03*
X32671455Y7051869D03*
D27*
X27800000Y19200000D03*
D26*
X26600000Y12900000D03*
X25800000Y12900000D03*
X33671455Y7051869D03*
D27*
%TO.N,/Project Architecture/USB-PD Source Controller/PD_OUT*%
X23000000Y14500000D03*
X21600000Y14500000D03*
X28484363Y16874240D03*
X14000000Y10200000D03*
X20400000Y10400000D03*
X26600000Y14800000D03*
X31575000Y17350000D03*
X14000000Y11800000D03*
X23000000Y11750000D03*
X23000000Y10400000D03*
X21600000Y10400000D03*
X27600000Y15800000D03*
X25400000Y14800000D03*
X26600000Y15800000D03*
X24200000Y15800000D03*
X28600000Y14800000D03*
X30775000Y17350000D03*
X19200000Y10400000D03*
X20400000Y11750000D03*
X27600000Y14800000D03*
X14700000Y11000000D03*
X29975000Y17350000D03*
X19200000Y13150000D03*
X20400000Y13150000D03*
X14000000Y11000000D03*
X25400000Y15800000D03*
X21600000Y13150000D03*
X21600000Y11750000D03*
X19200000Y11750000D03*
X14700000Y10200000D03*
X23000000Y13150000D03*
X20400000Y14500000D03*
X24200000Y14800000D03*
X19200000Y14500000D03*
X14700000Y11800000D03*
D26*
%TO.N,/Project Architecture/USB-PD Source Controller/VDRV*%
X41500000Y28300000D03*
X34550000Y22200000D03*
%TO.N,+5V*%
X16100000Y28200000D03*
X17600000Y27800000D03*
X14800000Y28200000D03*
X23050000Y6850000D03*
X32508538Y14997753D03*
X17200000Y28200000D03*
X22700000Y6450000D03*
X14650000Y8150000D03*
%TO.N,+3.3V*%
X17600000Y23700000D03*
X49830000Y25459999D03*
X20900000Y20100000D03*
X20900000Y21800000D03*
X13000000Y19300000D03*
X13000000Y21300000D03*
X17600000Y24700000D03*
%TO.N,/Project Architecture/USB-PD Source Controller/PD_CC2*%
X13350000Y15664999D03*
X29450000Y15450000D03*
X18700000Y15664999D03*
%TO.N,/Project Architecture/USB-PD Source Controller/USB_D+*%
X12478531Y15865507D03*
X2944460Y15875000D03*
X30973574Y14199000D03*
%TO.N,/Project Architecture/USB-PD Source Controller/USB_D-*%
X2935106Y16523537D03*
X12475000Y16500000D03*
X31575000Y14200000D03*
%TO.N,/Project Architecture/USB-PD Source Controller/PD_CC1*%
X31808751Y14900000D03*
X22700000Y16850000D03*
X15700000Y16800000D03*
X19000000Y16900000D03*
%TO.N,/Project Architecture/USB-PD Source Controller/I2C_SDA*%
X25200000Y10600000D03*
X33521446Y14971446D03*
X19000000Y7650000D03*
X14681389Y22342319D03*
%TO.N,/Project Architecture/USB-PD Source Controller/PD_ENABLE*%
X21350000Y7900000D03*
X51930000Y22359999D03*
X32503707Y18333632D03*
X21859898Y20782909D03*
%TO.N,/Project Architecture/USB-PD Source Controller/PD_ATTACH*%
X31500000Y21500000D03*
X22900000Y20800000D03*
X21550000Y8500000D03*
D27*
%TO.N,GND_USB*%
X10400000Y22400000D03*
X8800000Y22400000D03*
D26*
X4300000Y13000000D03*
X2200000Y19400000D03*
D27*
X5200000Y23200000D03*
X8000000Y23100000D03*
D26*
X3600000Y19400000D03*
X7200000Y13000000D03*
D27*
X7200000Y23100000D03*
X4400000Y23200000D03*
X10400000Y23100000D03*
D26*
X5800000Y19400000D03*
X6500000Y13000000D03*
X5800000Y13000000D03*
D27*
X8000000Y22400000D03*
D26*
X2900000Y19400000D03*
D27*
X5200000Y22500000D03*
X7200000Y22400000D03*
D26*
X2900000Y13000000D03*
X6000000Y10000000D03*
X6000000Y8950000D03*
D27*
X9600000Y22400000D03*
D26*
X6500000Y19400000D03*
X7200000Y19400000D03*
X3600000Y13000000D03*
D27*
X4400000Y22500000D03*
D26*
X4300000Y19400000D03*
D27*
X8800000Y23100000D03*
X9600000Y23100000D03*
D26*
%TO.N,/Project Architecture/USB-PD Source Controller/VBUS*%
X4900000Y13986000D03*
X5811719Y13797973D03*
X2900000Y13797973D03*
D27*
X8746957Y10198351D03*
D26*
X8400000Y18600000D03*
X6500000Y18600000D03*
X2900000Y18600000D03*
X5800000Y18600000D03*
X8411719Y13797973D03*
D27*
X8746957Y11798351D03*
D26*
X7811719Y13797973D03*
X7200000Y18600000D03*
X3600000Y13797973D03*
X2200000Y13797973D03*
X4199746Y13986000D03*
X4276308Y18414000D03*
D27*
X8046957Y10998351D03*
X8046957Y10198351D03*
D26*
X3600000Y18600000D03*
D27*
X8746957Y10998351D03*
X8046957Y11798351D03*
D26*
X6511719Y13797973D03*
X5100000Y18414000D03*
X7211719Y13797973D03*
X2200000Y18600000D03*
X7800000Y18600000D03*
%TO.N,/Project Architecture/USB-PD Source Controller/CC1*%
X11359586Y17494265D03*
%TO.N,/Project Architecture/USB-PD Source Controller/CC2*%
X9500000Y13500000D03*
%TO.N,/Project Architecture/Board Connector and Supplies/VBUS_VMON_PORT0*%
X22950000Y7850000D03*
X7800000Y7290000D03*
%TO.N,Net-(D2-Pad2)*%
X49650000Y28250000D03*
%TO.N,+24V*%
X28677175Y7599997D03*
X33550000Y10500000D03*
X28675703Y9030818D03*
X32650000Y10500000D03*
X29674231Y9036639D03*
X30800000Y12950000D03*
X33550000Y9650000D03*
X27674297Y8269182D03*
X28675000Y8275000D03*
X27675769Y6838361D03*
X33550000Y12800000D03*
X32650000Y11250000D03*
X27676472Y7594179D03*
X32650000Y12800000D03*
X32650000Y9650000D03*
X24675000Y7550000D03*
X29675703Y7605818D03*
X27675000Y9025000D03*
X30800000Y12250000D03*
X28676472Y6844179D03*
X24675000Y8225000D03*
X29673528Y8280821D03*
X24675000Y6850000D03*
X29675000Y6850000D03*
X33550000Y12000000D03*
X32650000Y12000000D03*
X33550000Y11250000D03*
%TO.N,/Project Architecture/Board Connector and Supplies/PORT_EN*%
X3450000Y8900000D03*
X49430000Y24759999D03*
X20850000Y7350000D03*
%TO.N,/Project Architecture/USB-PD Source Controller/ISEN+*%
X12750000Y25250000D03*
X30400000Y23050000D03*
%TO.N,/Project Architecture/USB-PD Source Controller/ISEN-*%
X12750000Y26250000D03*
X31050000Y23100000D03*
%TO.N,/Project Architecture/USB-PD Source Controller/I2C_SCL*%
X24900000Y10037639D03*
X34200000Y15000000D03*
X19400000Y8150000D03*
X16262500Y19875000D03*
%TD*%
D28*
%TO.N,GND*%
X12500000Y14500000D02*
X12000000Y14000000D01*
X12500000Y14640000D02*
X12500000Y14500000D01*
D29*
X8800000Y26700000D02*
X8800000Y28400000D01*
D30*
X51917500Y23659999D02*
X52830000Y23659999D01*
D29*
X11740000Y26250000D02*
X11440000Y25950000D01*
D30*
X52780000Y24309999D02*
X52830000Y24359999D01*
D31*
X31675000Y7748324D02*
X31671455Y7751869D01*
D30*
X51917500Y24309999D02*
X52780000Y24309999D01*
D29*
X11440000Y25950000D02*
X9550000Y25950000D01*
D31*
X32675000Y6100000D02*
X32675000Y7748324D01*
D29*
X20100000Y20820000D02*
X20880000Y20820000D01*
D31*
X31675000Y5900000D02*
X31675000Y6575000D01*
X30675000Y3450000D02*
X30675000Y6100000D01*
D29*
X16225000Y20850000D02*
X15850000Y20850000D01*
D31*
X33675000Y7748324D02*
X33671455Y7751869D01*
D32*
X16850000Y7400000D02*
X16850000Y6600000D01*
D31*
X30675000Y7748324D02*
X30671455Y7751869D01*
X33675000Y6150000D02*
X33675000Y7748324D01*
D29*
X15850000Y20850000D02*
X15800000Y20800000D01*
D31*
X31675000Y5900000D02*
X31675000Y7748324D01*
X31675000Y3450000D02*
X31675000Y5900000D01*
X30675000Y6100000D02*
X30675000Y7748324D01*
D28*
X12500000Y17700000D02*
X12500000Y18300000D01*
D31*
X33675000Y3450000D02*
X33675000Y6150000D01*
X51510000Y25459999D02*
X52230000Y25459999D01*
X30675000Y6100000D02*
X30675000Y6575000D01*
X33675000Y6150000D02*
X33675000Y6575000D01*
D29*
X800000Y8930000D02*
X800000Y8200000D01*
D30*
X51917500Y23659999D02*
X51917500Y24309999D01*
D31*
X17675000Y6600000D02*
X17675000Y3450000D01*
D29*
X20880000Y20820000D02*
X20900000Y20800000D01*
D31*
X32675000Y3450000D02*
X32675000Y6100000D01*
X17675000Y6600000D02*
X16000000Y6600000D01*
X16000000Y6600000D02*
X16000000Y7350000D01*
D29*
X9550000Y25950000D02*
X8800000Y26700000D01*
D31*
X32675000Y6100000D02*
X32675000Y6575000D01*
X32675000Y7748324D02*
X32671455Y7751869D01*
D30*
%TO.N,/Project Architecture/USB-PD Source Controller/VDRV*%
X35200000Y28250000D02*
X35200000Y22850000D01*
X35200000Y22850000D02*
X34550000Y22200000D01*
X40615902Y29050000D02*
X36000000Y29050000D01*
X36000000Y29050000D02*
X35200000Y28250000D01*
X41500000Y28300000D02*
X41365902Y28300000D01*
X41365902Y28300000D02*
X40615902Y29050000D01*
D32*
%TO.N,+5V*%
X22675000Y6425000D02*
X22700000Y6450000D01*
X14675000Y8125000D02*
X14650000Y8150000D01*
X22675000Y3450000D02*
X22675000Y6425000D01*
X14675000Y4000000D02*
X14675000Y8125000D01*
D29*
%TO.N,+3.3V*%
X20880000Y21780000D02*
X20900000Y21800000D01*
D30*
X50550000Y25150000D02*
X50550000Y25459999D01*
X50142500Y23659999D02*
X50642499Y23659999D01*
D31*
X50550000Y25459999D02*
X49830000Y25459999D01*
D29*
X18500000Y21800000D02*
X20080000Y21800000D01*
X20100000Y21780000D02*
X20880000Y21780000D01*
D30*
X50993500Y24011000D02*
X50993500Y24706500D01*
D29*
X20080000Y21800000D02*
X20100000Y21780000D01*
D30*
X50993500Y24706500D02*
X50550000Y25150000D01*
X50642499Y23659999D02*
X50993500Y24011000D01*
D29*
%TO.N,/Project Architecture/USB-PD Source Controller/PD_CC2*%
X13350000Y15664999D02*
X18700000Y15664999D01*
D33*
%TO.N,/Project Architecture/USB-PD Source Controller/USB_D+*%
X31072750Y14320988D02*
X31183749Y14431987D01*
X10084740Y15754000D02*
X9715260Y15754000D01*
X30973574Y14199000D02*
X30973575Y14198999D01*
X2944460Y15955000D02*
X2944460Y15875000D01*
X12315260Y15999000D02*
X12204260Y16110000D01*
X3099460Y16110000D02*
X2944460Y15955000D01*
X21037279Y16109999D02*
X22337280Y17410000D01*
X22337280Y17410000D02*
X26862720Y17410000D01*
X31183749Y14688971D02*
X30834476Y15038244D01*
X12478531Y15933531D02*
X12544000Y15999000D01*
X9715260Y15754000D02*
X9359260Y16110000D01*
X31027749Y14198999D02*
X31072750Y14244000D01*
X10440740Y16110000D02*
X10084740Y15754000D01*
X30736360Y15736360D02*
X30834476Y15638244D01*
X30362720Y16110000D02*
X30834476Y15638244D01*
X12709999Y16109999D02*
X21037279Y16109999D01*
X31072750Y14244000D02*
X31072750Y14320988D01*
X31183749Y14431987D02*
X31183749Y14688971D01*
X12204260Y16110000D02*
X10440740Y16110000D01*
X12478531Y15976469D02*
X12456000Y15999000D01*
X12544000Y15999000D02*
X12599000Y15999000D01*
X12478531Y15865507D02*
X12478531Y15933531D01*
X12599000Y15999000D02*
X12709999Y16109999D01*
X30973575Y14198999D02*
X31027749Y14198999D01*
X9359260Y16110000D02*
X3099460Y16110000D01*
X26862720Y17410000D02*
X28162720Y16110000D01*
X12478531Y15865507D02*
X12478531Y15976469D01*
X30834476Y15038244D02*
X30834476Y15638244D01*
X28162720Y16110000D02*
X30362720Y16110000D01*
X12456000Y15999000D02*
X12315260Y15999000D01*
%TO.N,/Project Architecture/USB-PD Source Controller/USB_D-*%
X31518750Y14200000D02*
X31474750Y14244000D01*
X31575000Y14200000D02*
X31518750Y14200000D01*
X31474750Y14244000D02*
X31474750Y14305373D01*
X12315260Y16401000D02*
X12204260Y16290000D01*
X12475000Y16500000D02*
X12475000Y16470000D01*
X12654999Y16290001D02*
X20962721Y16290001D01*
X3135000Y16290000D02*
X3024000Y16401000D01*
X3024000Y16401000D02*
X2988460Y16401000D01*
X12204260Y16290000D02*
X10440740Y16290000D01*
X30437280Y16290000D02*
X31014476Y15712804D01*
X2988460Y16401000D02*
X2935106Y16454354D01*
X28237280Y16290000D02*
X30437280Y16290000D01*
X20962721Y16290001D02*
X22262720Y17590000D01*
X30863640Y15863640D02*
X31014476Y15712804D01*
X26937280Y17590000D02*
X28237280Y16290000D01*
X10440740Y16290000D02*
X10084740Y16646000D01*
X12475000Y16470000D02*
X12654999Y16290001D01*
X31363751Y14763529D02*
X31014476Y15112804D01*
X12475000Y16500000D02*
X12475000Y16420000D01*
X31014476Y15112804D02*
X31014476Y15712804D01*
X10084740Y16646000D02*
X9715260Y16646000D01*
X12475000Y16420000D02*
X12456000Y16401000D01*
X9359260Y16290000D02*
X3135000Y16290000D01*
X12456000Y16401000D02*
X12315260Y16401000D01*
X22262720Y17590000D02*
X26937280Y17590000D01*
X2935106Y16454354D02*
X2935106Y16523537D01*
X9715260Y16646000D02*
X9359260Y16290000D01*
X31474750Y14305373D02*
X31363751Y14416372D01*
X31363751Y14416372D02*
X31363751Y14763529D01*
D29*
%TO.N,/Project Architecture/USB-PD Source Controller/PD_CC1*%
X32200000Y14508751D02*
X32200000Y13975000D01*
X15700000Y16800000D02*
X18900000Y16800000D01*
X18900000Y16800000D02*
X19000000Y16900000D01*
X32200000Y13975000D02*
X31924000Y13699000D01*
X31808751Y14900000D02*
X32200000Y14508751D01*
X24521768Y13699000D02*
X23649000Y14571768D01*
X31924000Y13699000D02*
X24521768Y13699000D01*
X23649000Y14571768D02*
X23649000Y15901000D01*
X23649000Y15901000D02*
X22700000Y16850000D01*
%TO.N,/Project Architecture/USB-PD Source Controller/I2C_SDA*%
X19500000Y9400000D02*
X18899000Y8799000D01*
X23550000Y9400000D02*
X19500000Y9400000D01*
X25200000Y10600000D02*
X24750000Y10600000D01*
X18899000Y7751000D02*
X19000000Y7650000D01*
X15223708Y21800000D02*
X14681389Y22342319D01*
X16225000Y21800000D02*
X15223708Y21800000D01*
X24750000Y10600000D02*
X23550000Y9400000D01*
X18899000Y8799000D02*
X18899000Y7751000D01*
%TO.N,/Project Architecture/USB-PD Source Controller/PD_ENABLE*%
X21675000Y3450000D02*
X21675000Y7575000D01*
D30*
X51917500Y22372499D02*
X51930000Y22359999D01*
D29*
X21675000Y7575000D02*
X21350000Y7900000D01*
D30*
X51917500Y23009999D02*
X51917500Y22372499D01*
D29*
%TO.N,/Project Architecture/USB-PD Source Controller/PD_ATTACH*%
X23675000Y7975000D02*
X23675000Y3450000D01*
X23150000Y8500000D02*
X23675000Y7975000D01*
X21550000Y8500000D02*
X23150000Y8500000D01*
%TO.N,GND_USB*%
X8800000Y24850000D02*
X8800000Y23100000D01*
X11740000Y25300000D02*
X11440000Y25600000D01*
X9550000Y25600000D02*
X8800000Y24850000D01*
X11440000Y25600000D02*
X9550000Y25600000D01*
D30*
%TO.N,/Project Architecture/USB-PD Source Controller/CC1*%
X11651000Y18849000D02*
X11651000Y17785679D01*
X11500000Y19000000D02*
X11651000Y18849000D01*
X11651000Y17785679D02*
X11359586Y17494265D01*
%TO.N,Net-(IC5-Y)*%
X48770000Y23009999D02*
X48630000Y23149999D01*
X50142500Y23009999D02*
X48770000Y23009999D01*
%TO.N,Net-(D2-Pad2)*%
X49430000Y28059999D02*
X49459999Y28059999D01*
X49459999Y28059999D02*
X49650000Y28250000D01*
X48630000Y24169999D02*
X48630000Y27259999D01*
X48630000Y27259999D02*
X49430000Y28059999D01*
D31*
%TO.N,+24V*%
X27675000Y3450000D02*
X27675000Y9025000D01*
X29675000Y9035870D02*
X29674231Y9036639D01*
X29675000Y3450000D02*
X29675000Y9035870D01*
X28675000Y3450000D02*
X28675000Y9030115D01*
X24675000Y8225000D02*
X24675000Y3450000D01*
X28675000Y9030115D02*
X28675703Y9030818D01*
D29*
%TO.N,/Project Architecture/Board Connector and Supplies/PORT_EN*%
X3450000Y9250000D02*
X3450000Y8900000D01*
D30*
X50142500Y24309999D02*
X49880000Y24309999D01*
D29*
X2810000Y9890000D02*
X3450000Y9250000D01*
D30*
X49880000Y24309999D02*
X49430000Y24759999D01*
D29*
X2810000Y9900000D02*
X2810000Y9890000D01*
%TO.N,Net-(D1-Pad2)*%
X800000Y9900000D02*
X1790000Y9900000D01*
D34*
%TO.N,/Project Architecture/USB-PD Source Controller/ISEN+*%
X12760000Y25260000D02*
X12750000Y25250000D01*
X12760000Y25300000D02*
X12760000Y25260000D01*
%TO.N,/Project Architecture/USB-PD Source Controller/ISEN-*%
X12760000Y26250000D02*
X12750000Y26250000D01*
D29*
%TO.N,/Project Architecture/USB-PD Source Controller/I2C_SCL*%
X23750000Y9000000D02*
X19750000Y9000000D01*
X19675000Y7875000D02*
X19400000Y8150000D01*
X24900000Y10037639D02*
X24787639Y10037639D01*
X19750000Y9000000D02*
X19400000Y8650000D01*
X16225000Y19900000D02*
X16237500Y19900000D01*
X24787639Y10037639D02*
X23750000Y9000000D01*
X19400000Y8650000D02*
X19400000Y8150000D01*
X16237500Y19900000D02*
X16262500Y19875000D01*
X19675000Y3450000D02*
X19675000Y7875000D01*
%TD*%
%TA.AperFunction,Conductor*%
%TO.N,GND*%
G36*
X478961Y9434195D02*
G01*
X525901Y9411247D01*
X525902Y9411247D01*
X525904Y9411246D01*
X594170Y9401300D01*
X594176Y9401300D01*
X924036Y9401300D01*
X991075Y9381615D01*
X1036830Y9328811D01*
X1041346Y9317478D01*
X1044586Y9308018D01*
X1053578Y9255356D01*
X1071806Y9198824D01*
X1105801Y9129285D01*
X1108310Y9121959D01*
X1108928Y9108024D01*
X1115000Y9081781D01*
X1115000Y8773281D01*
X1113704Y8755403D01*
X1111333Y8739130D01*
X1107139Y8720522D01*
X1101766Y8703072D01*
X1101765Y8703070D01*
X1101765Y8703067D01*
X1094646Y8611948D01*
X1094646Y8611945D01*
X1104589Y8542795D01*
X1109761Y8517789D01*
X1131011Y8477911D01*
X1153441Y8435819D01*
X1199196Y8383015D01*
X1199203Y8383008D01*
X1199211Y8382999D01*
X1217058Y8364785D01*
X1217065Y8364779D01*
X1252719Y8344836D01*
X1298122Y8319439D01*
X1365161Y8299754D01*
X1365165Y8299754D01*
X1365167Y8299753D01*
X1374668Y8298388D01*
X1423960Y8291300D01*
X1423963Y8291300D01*
X3000018Y8291300D01*
X3039495Y8295070D01*
X3039500Y8295071D01*
X3039512Y8295072D01*
X3085599Y8303955D01*
X3091157Y8305105D01*
X3175111Y8344835D01*
X3230032Y8388026D01*
X3241097Y8397881D01*
X3249091Y8405000D01*
X3249091Y8405001D01*
X3249095Y8405004D01*
X3270673Y8439607D01*
X3278149Y8446265D01*
X3282327Y8455367D01*
X3303803Y8469114D01*
X3322847Y8486074D01*
X3334308Y8488638D01*
X3341175Y8493033D01*
X3360601Y8494520D01*
X3376119Y8497991D01*
X3390641Y8497965D01*
X3396852Y8496300D01*
X3503148Y8496300D01*
X3508542Y8497746D01*
X3522282Y8497720D01*
X3548195Y8490059D01*
X3574890Y8485899D01*
X3581197Y8480303D01*
X3589285Y8477911D01*
X3606940Y8457459D01*
X3625148Y8441302D01*
X3625525Y8441560D01*
X3626566Y8440044D01*
X3627151Y8439525D01*
X3628373Y8437413D01*
X3629465Y8435823D01*
X3629467Y8435821D01*
X3629468Y8435819D01*
X3675223Y8383015D01*
X3675230Y8383008D01*
X3675238Y8382999D01*
X3693085Y8364785D01*
X3693092Y8364779D01*
X3728746Y8344836D01*
X3774149Y8319439D01*
X3841188Y8299754D01*
X3841192Y8299754D01*
X3841194Y8299753D01*
X3850695Y8298388D01*
X3899987Y8291300D01*
X8707801Y8291300D01*
X8774840Y8271615D01*
X8820595Y8218811D01*
X8830539Y8149653D01*
X8815470Y8108014D01*
X8816226Y8107627D01*
X8814000Y8103278D01*
X8813999Y8103275D01*
X8795605Y8067320D01*
X8720445Y7920405D01*
X8656760Y7725108D01*
X8624525Y7522250D01*
X8624523Y7522233D01*
X8624510Y7466980D01*
X8624500Y7466808D01*
X8624500Y2931093D01*
X8623903Y2918939D01*
X8623903Y2918938D01*
X8612256Y2800689D01*
X8607514Y2776849D01*
X8574798Y2668998D01*
X8565495Y2646539D01*
X8512370Y2547151D01*
X8498866Y2526941D01*
X8427369Y2439821D01*
X8410179Y2422631D01*
X8323059Y2351134D01*
X8302849Y2337630D01*
X8203461Y2284505D01*
X8181002Y2275202D01*
X8073151Y2242486D01*
X8049311Y2237744D01*
X7962215Y2229166D01*
X7931060Y2226097D01*
X7918907Y2225500D01*
X2004428Y2225500D01*
X1995582Y2225816D01*
X1766982Y2242166D01*
X1749470Y2244684D01*
X1529862Y2292457D01*
X1512887Y2297441D01*
X1302311Y2375981D01*
X1286217Y2383331D01*
X1088963Y2491041D01*
X1074080Y2500606D01*
X894163Y2635290D01*
X880792Y2646876D01*
X721875Y2805793D01*
X710289Y2819164D01*
X575605Y2999081D01*
X566040Y3013964D01*
X458330Y3211218D01*
X450983Y3227306D01*
X372437Y3437897D01*
X367458Y3454856D01*
X319683Y3674471D01*
X317165Y3691983D01*
X300816Y3920582D01*
X300500Y3929428D01*
X300500Y7233690D01*
X7346299Y7233690D01*
X7380627Y7105578D01*
X7380628Y7105577D01*
X7446937Y6990725D01*
X7446939Y6990722D01*
X7446940Y6990721D01*
X7540721Y6896940D01*
X7655579Y6830627D01*
X7783687Y6796300D01*
X7783690Y6796300D01*
X7916310Y6796300D01*
X7916313Y6796300D01*
X8044421Y6830627D01*
X8159279Y6896940D01*
X8253060Y6990721D01*
X8319373Y7105579D01*
X8353700Y7233687D01*
X8353700Y7366313D01*
X8319373Y7494421D01*
X8259644Y7597875D01*
X8253062Y7609276D01*
X8253058Y7609281D01*
X8159280Y7703059D01*
X8159275Y7703063D01*
X8044423Y7769372D01*
X8044422Y7769373D01*
X8012394Y7777955D01*
X7916313Y7803700D01*
X7783687Y7803700D01*
X7706822Y7783104D01*
X7655577Y7769373D01*
X7655576Y7769372D01*
X7540724Y7703063D01*
X7540719Y7703059D01*
X7446941Y7609281D01*
X7446937Y7609276D01*
X7380628Y7494424D01*
X7380627Y7494423D01*
X7373490Y7467786D01*
X7346300Y7366313D01*
X7346300Y7366311D01*
X7346300Y7233690D01*
X7346299Y7233690D01*
X300500Y7233690D01*
X300500Y9322795D01*
X320185Y9389834D01*
X372989Y9435589D01*
X442147Y9445533D01*
X478961Y9434195D01*
G37*
%TD.AperFunction*%
%TA.AperFunction,Conductor*%
G36*
X35902638Y29604815D02*
G01*
X35948393Y29552011D01*
X35958337Y29482853D01*
X35929312Y29419297D01*
X35870534Y29381523D01*
X35867722Y29380734D01*
X35865895Y29380245D01*
X35863475Y29379596D01*
X35782823Y29333030D01*
X35782820Y29333028D01*
X34916972Y28467180D01*
X34916970Y28467177D01*
X34870404Y28386524D01*
X34846300Y28296565D01*
X34846300Y23047870D01*
X34826615Y22980831D01*
X34809981Y22960189D01*
X34461116Y22611325D01*
X34405532Y22579232D01*
X34394177Y22576190D01*
X34302122Y22523041D01*
X34302119Y22523039D01*
X34226961Y22447881D01*
X34226957Y22447875D01*
X34173812Y22355826D01*
X34173812Y22355825D01*
X34173811Y22355823D01*
X34146300Y22253148D01*
X34146300Y22146852D01*
X34173811Y22044177D01*
X34226959Y21952122D01*
X34302122Y21876959D01*
X34394177Y21823811D01*
X34496852Y21796300D01*
X34496854Y21796300D01*
X34603146Y21796300D01*
X34603148Y21796300D01*
X34705823Y21823811D01*
X34797878Y21876959D01*
X34873041Y21952122D01*
X34926189Y22044177D01*
X34929230Y22055528D01*
X34961323Y22111118D01*
X35483030Y22632823D01*
X35529596Y22713477D01*
X35553700Y22803435D01*
X35553700Y22896565D01*
X35553700Y24344681D01*
X48106300Y24344681D01*
X48106300Y23995318D01*
X48106301Y23995301D01*
X48112793Y23945985D01*
X48112794Y23945984D01*
X48163273Y23837732D01*
X48253325Y23747680D01*
X48286810Y23686357D01*
X48281826Y23616665D01*
X48253325Y23572318D01*
X48163273Y23482267D01*
X48112794Y23374015D01*
X48112793Y23374014D01*
X48106301Y23324698D01*
X48106300Y23324681D01*
X48106300Y22975318D01*
X48106301Y22975301D01*
X48112793Y22925985D01*
X48112794Y22925984D01*
X48141393Y22864654D01*
X48163273Y22817732D01*
X48247733Y22733272D01*
X48290184Y22713477D01*
X48355984Y22682794D01*
X48355985Y22682793D01*
X48365484Y22681543D01*
X48405312Y22676299D01*
X48632468Y22676299D01*
X48664560Y22672074D01*
X48687710Y22665872D01*
X48723435Y22656299D01*
X49539039Y22656299D01*
X49589124Y22645734D01*
X49671763Y22609245D01*
X49697155Y22606299D01*
X50587844Y22606300D01*
X50613237Y22609245D01*
X50717105Y22655107D01*
X50797392Y22735394D01*
X50843254Y22839262D01*
X50846200Y22864654D01*
X50846199Y23155343D01*
X50846199Y23155346D01*
X51213800Y23155346D01*
X51213800Y22864662D01*
X51213802Y22864639D01*
X51216745Y22839265D01*
X51216746Y22839262D01*
X51262607Y22735395D01*
X51262608Y22735394D01*
X51342895Y22655107D01*
X51446763Y22609245D01*
X51446765Y22609245D01*
X51450671Y22608182D01*
X51454498Y22605830D01*
X51455296Y22605477D01*
X51455248Y22605369D01*
X51510193Y22571592D01*
X51540484Y22508630D01*
X51537899Y22456438D01*
X51526300Y22413149D01*
X51526300Y22413147D01*
X51526300Y22306851D01*
X51553811Y22204176D01*
X51553812Y22204175D01*
X51553812Y22204174D01*
X51564019Y22186495D01*
X51606959Y22112121D01*
X51682122Y22036958D01*
X51774177Y21983810D01*
X51876852Y21956299D01*
X51876854Y21956299D01*
X51983146Y21956299D01*
X51983148Y21956299D01*
X52085823Y21983810D01*
X52177878Y22036958D01*
X52253041Y22112121D01*
X52306189Y22204176D01*
X52333700Y22306851D01*
X52333700Y22413147D01*
X52319980Y22464352D01*
X52321643Y22534200D01*
X52360806Y22592062D01*
X52389669Y22609877D01*
X52441636Y22632823D01*
X52492105Y22655107D01*
X52572392Y22735394D01*
X52618254Y22839262D01*
X52621200Y22864654D01*
X52621199Y23155343D01*
X52618254Y23180736D01*
X52572392Y23284604D01*
X52492105Y23364891D01*
X52483429Y23368722D01*
X52388238Y23410753D01*
X52362845Y23413699D01*
X51472162Y23413699D01*
X51472139Y23413697D01*
X51446765Y23410754D01*
X51446762Y23410753D01*
X51342895Y23364892D01*
X51262608Y23284605D01*
X51216746Y23180739D01*
X51216746Y23180737D01*
X51213800Y23155346D01*
X50846199Y23155346D01*
X50846199Y23155348D01*
X50843254Y23180734D01*
X50843254Y23180736D01*
X50822050Y23228758D01*
X50812979Y23298033D01*
X50842802Y23361218D01*
X50858930Y23376224D01*
X50859673Y23376968D01*
X50859676Y23376969D01*
X51276530Y23793822D01*
X51323096Y23874477D01*
X51326441Y23886964D01*
X51326444Y23886968D01*
X51326443Y23886968D01*
X51335391Y23920364D01*
X51347200Y23964435D01*
X51347200Y24753065D01*
X51323096Y24843023D01*
X51276530Y24923677D01*
X51210677Y24989530D01*
X51067258Y25132949D01*
X51033773Y25194272D01*
X51032000Y25236818D01*
X51033700Y25249727D01*
X51033700Y25670271D01*
X51027110Y25720327D01*
X50975886Y25830178D01*
X50890179Y25915885D01*
X50869952Y25925317D01*
X50780331Y25967108D01*
X50780329Y25967109D01*
X50780328Y25967109D01*
X50780325Y25967110D01*
X50780323Y25967110D01*
X50730282Y25973698D01*
X50730277Y25973699D01*
X50730272Y25973699D01*
X50369728Y25973699D01*
X50369722Y25973699D01*
X50369717Y25973698D01*
X50319676Y25967110D01*
X50319668Y25967108D01*
X50230048Y25925317D01*
X50177643Y25913699D01*
X49770269Y25913699D01*
X49654878Y25882780D01*
X49654876Y25882780D01*
X49654876Y25882779D01*
X49551422Y25823049D01*
X49551419Y25823047D01*
X49466952Y25738580D01*
X49466950Y25738577D01*
X49407219Y25635121D01*
X49376300Y25519730D01*
X49376300Y25400268D01*
X49403385Y25299183D01*
X49401723Y25229334D01*
X49362561Y25171471D01*
X49337486Y25155405D01*
X49326975Y25150336D01*
X49274177Y25136188D01*
X49182122Y25083040D01*
X49177136Y25078055D01*
X49161575Y25070548D01*
X49139181Y25066846D01*
X49118010Y25058662D01*
X49105369Y25061256D01*
X49092641Y25059151D01*
X49071801Y25068143D01*
X49049566Y25072705D01*
X49040335Y25081720D01*
X49028489Y25086831D01*
X49015818Y25105663D01*
X48999579Y25121522D01*
X48996037Y25135063D01*
X48989485Y25144801D01*
X48989134Y25161456D01*
X48983700Y25182233D01*
X48983700Y27062131D01*
X49003385Y27129170D01*
X49020015Y27149808D01*
X49594655Y27724449D01*
X49620331Y27744151D01*
X49677176Y27776969D01*
X49738883Y27838677D01*
X49794475Y27870771D01*
X49805823Y27873811D01*
X49897878Y27926959D01*
X49973041Y28002122D01*
X50026189Y28094177D01*
X50053700Y28196852D01*
X50053700Y28303148D01*
X50026189Y28405823D01*
X49973041Y28497878D01*
X49897878Y28573041D01*
X49805823Y28626189D01*
X49703148Y28653700D01*
X49596852Y28653700D01*
X49494177Y28626189D01*
X49494175Y28626188D01*
X49494174Y28626188D01*
X49402125Y28573043D01*
X49402119Y28573039D01*
X49326961Y28497881D01*
X49326957Y28497875D01*
X49269747Y28398784D01*
X49267945Y28399825D01*
X49231055Y28354052D01*
X49222348Y28348529D01*
X49212826Y28343032D01*
X49212820Y28343027D01*
X48346972Y27477179D01*
X48346970Y27477176D01*
X48300404Y27396523D01*
X48276300Y27306564D01*
X48276300Y24666655D01*
X48256615Y24599616D01*
X48239981Y24578974D01*
X48163273Y24502267D01*
X48112794Y24394015D01*
X48112793Y24394014D01*
X48106301Y24344698D01*
X48106300Y24344681D01*
X35553700Y24344681D01*
X35553700Y25459731D01*
X36346300Y25459731D01*
X36346300Y25340269D01*
X36377219Y25224878D01*
X36436950Y25121422D01*
X36521422Y25036950D01*
X36624878Y24977219D01*
X36740269Y24946300D01*
X36740271Y24946300D01*
X36859728Y24946300D01*
X36859731Y24946300D01*
X36975122Y24977219D01*
X37078578Y25036950D01*
X37163050Y25121422D01*
X37222781Y25224878D01*
X37253700Y25340269D01*
X37253700Y25459731D01*
X37546300Y25459731D01*
X37546300Y25340269D01*
X37577219Y25224878D01*
X37636950Y25121422D01*
X37721422Y25036950D01*
X37824878Y24977219D01*
X37940269Y24946300D01*
X37940271Y24946300D01*
X38059728Y24946300D01*
X38059731Y24946300D01*
X38175122Y24977219D01*
X38278578Y25036950D01*
X38363050Y25121422D01*
X38422781Y25224878D01*
X38453700Y25340269D01*
X38453700Y25459731D01*
X38746300Y25459731D01*
X38746300Y25340269D01*
X38777219Y25224878D01*
X38836950Y25121422D01*
X38921422Y25036950D01*
X39024878Y24977219D01*
X39140269Y24946300D01*
X39140271Y24946300D01*
X39259728Y24946300D01*
X39259731Y24946300D01*
X39375122Y24977219D01*
X39478578Y25036950D01*
X39563050Y25121422D01*
X39622781Y25224878D01*
X39653700Y25340269D01*
X39653700Y25459731D01*
X39622781Y25575122D01*
X39563050Y25678578D01*
X39478578Y25763050D01*
X39375122Y25822781D01*
X39259731Y25853700D01*
X39140269Y25853700D01*
X39024878Y25822781D01*
X39024876Y25822781D01*
X39024876Y25822780D01*
X38921422Y25763050D01*
X38921419Y25763048D01*
X38836952Y25678581D01*
X38836950Y25678578D01*
X38816519Y25643190D01*
X38777219Y25575122D01*
X38746300Y25459731D01*
X38453700Y25459731D01*
X38422781Y25575122D01*
X38363050Y25678578D01*
X38278578Y25763050D01*
X38175122Y25822781D01*
X38059731Y25853700D01*
X37940269Y25853700D01*
X37824878Y25822781D01*
X37824876Y25822781D01*
X37824876Y25822780D01*
X37721422Y25763050D01*
X37721419Y25763048D01*
X37636952Y25678581D01*
X37636950Y25678578D01*
X37616519Y25643190D01*
X37577219Y25575122D01*
X37546300Y25459731D01*
X37253700Y25459731D01*
X37222781Y25575122D01*
X37163050Y25678578D01*
X37078578Y25763050D01*
X36975122Y25822781D01*
X36859731Y25853700D01*
X36740269Y25853700D01*
X36624878Y25822781D01*
X36624876Y25822781D01*
X36624876Y25822780D01*
X36521422Y25763050D01*
X36521419Y25763048D01*
X36436952Y25678581D01*
X36436950Y25678578D01*
X36416519Y25643190D01*
X36377219Y25575122D01*
X36346300Y25459731D01*
X35553700Y25459731D01*
X35553700Y26659731D01*
X36346300Y26659731D01*
X36346300Y26540269D01*
X36377219Y26424878D01*
X36436950Y26321422D01*
X36521422Y26236950D01*
X36624878Y26177219D01*
X36740269Y26146300D01*
X36740271Y26146300D01*
X36859728Y26146300D01*
X36859731Y26146300D01*
X36975122Y26177219D01*
X37078578Y26236950D01*
X37163050Y26321422D01*
X37222781Y26424878D01*
X37253700Y26540269D01*
X37253700Y26659731D01*
X37546300Y26659731D01*
X37546300Y26540269D01*
X37577219Y26424878D01*
X37636950Y26321422D01*
X37721422Y26236950D01*
X37824878Y26177219D01*
X37940269Y26146300D01*
X37940271Y26146300D01*
X38059728Y26146300D01*
X38059731Y26146300D01*
X38175122Y26177219D01*
X38278578Y26236950D01*
X38363050Y26321422D01*
X38422781Y26424878D01*
X38453700Y26540269D01*
X38453700Y26659731D01*
X38746300Y26659731D01*
X38746300Y26540269D01*
X38777219Y26424878D01*
X38836950Y26321422D01*
X38921422Y26236950D01*
X39024878Y26177219D01*
X39140269Y26146300D01*
X39140271Y26146300D01*
X39259728Y26146300D01*
X39259731Y26146300D01*
X39375122Y26177219D01*
X39478578Y26236950D01*
X39563050Y26321422D01*
X39622781Y26424878D01*
X39653700Y26540269D01*
X39653700Y26659731D01*
X39622781Y26775122D01*
X39563050Y26878578D01*
X39478578Y26963050D01*
X39375122Y27022781D01*
X39259731Y27053700D01*
X39140269Y27053700D01*
X39024878Y27022781D01*
X39024876Y27022781D01*
X39024876Y27022780D01*
X38921422Y26963050D01*
X38921419Y26963048D01*
X38836952Y26878581D01*
X38836950Y26878578D01*
X38777219Y26775122D01*
X38746300Y26659731D01*
X38453700Y26659731D01*
X38422781Y26775122D01*
X38363050Y26878578D01*
X38278578Y26963050D01*
X38175122Y27022781D01*
X38059731Y27053700D01*
X37940269Y27053700D01*
X37824878Y27022781D01*
X37824876Y27022781D01*
X37824876Y27022780D01*
X37721422Y26963050D01*
X37721419Y26963048D01*
X37636952Y26878581D01*
X37636950Y26878578D01*
X37577219Y26775122D01*
X37546300Y26659731D01*
X37253700Y26659731D01*
X37222781Y26775122D01*
X37163050Y26878578D01*
X37078578Y26963050D01*
X36975122Y27022781D01*
X36859731Y27053700D01*
X36740269Y27053700D01*
X36624878Y27022781D01*
X36624876Y27022781D01*
X36624876Y27022780D01*
X36521422Y26963050D01*
X36521419Y26963048D01*
X36436952Y26878581D01*
X36436950Y26878578D01*
X36377219Y26775122D01*
X36346300Y26659731D01*
X35553700Y26659731D01*
X35553700Y27859731D01*
X36346300Y27859731D01*
X36346300Y27740269D01*
X36377219Y27624878D01*
X36436950Y27521422D01*
X36521422Y27436950D01*
X36624878Y27377219D01*
X36740269Y27346300D01*
X36740271Y27346300D01*
X36859728Y27346300D01*
X36859731Y27346300D01*
X36975122Y27377219D01*
X37078578Y27436950D01*
X37163050Y27521422D01*
X37222781Y27624878D01*
X37253700Y27740269D01*
X37253700Y27859731D01*
X37546300Y27859731D01*
X37546300Y27740269D01*
X37577219Y27624878D01*
X37636950Y27521422D01*
X37721422Y27436950D01*
X37824878Y27377219D01*
X37940269Y27346300D01*
X37940271Y27346300D01*
X38059728Y27346300D01*
X38059731Y27346300D01*
X38175122Y27377219D01*
X38278578Y27436950D01*
X38363050Y27521422D01*
X38422781Y27624878D01*
X38453700Y27740269D01*
X38453700Y27859731D01*
X38746300Y27859731D01*
X38746300Y27740269D01*
X38777219Y27624878D01*
X38836950Y27521422D01*
X38921422Y27436950D01*
X39024878Y27377219D01*
X39140269Y27346300D01*
X39140271Y27346300D01*
X39259728Y27346300D01*
X39259731Y27346300D01*
X39375122Y27377219D01*
X39478578Y27436950D01*
X39563050Y27521422D01*
X39622781Y27624878D01*
X39653700Y27740269D01*
X39653700Y27859731D01*
X39622781Y27975122D01*
X39563050Y28078578D01*
X39478578Y28163050D01*
X39375122Y28222781D01*
X39259731Y28253700D01*
X39140269Y28253700D01*
X39024878Y28222781D01*
X39024876Y28222781D01*
X39024876Y28222780D01*
X38921422Y28163050D01*
X38921419Y28163048D01*
X38836952Y28078581D01*
X38836950Y28078578D01*
X38786225Y27990720D01*
X38777219Y27975122D01*
X38746300Y27859731D01*
X38453700Y27859731D01*
X38422781Y27975122D01*
X38363050Y28078578D01*
X38278578Y28163050D01*
X38175122Y28222781D01*
X38059731Y28253700D01*
X37940269Y28253700D01*
X37824878Y28222781D01*
X37824876Y28222781D01*
X37824876Y28222780D01*
X37721422Y28163050D01*
X37721419Y28163048D01*
X37636952Y28078581D01*
X37636950Y28078578D01*
X37586225Y27990720D01*
X37577219Y27975122D01*
X37546300Y27859731D01*
X37253700Y27859731D01*
X37222781Y27975122D01*
X37163050Y28078578D01*
X37078578Y28163050D01*
X36975122Y28222781D01*
X36859731Y28253700D01*
X36740269Y28253700D01*
X36624878Y28222781D01*
X36624876Y28222781D01*
X36624876Y28222780D01*
X36521422Y28163050D01*
X36521419Y28163048D01*
X36436952Y28078581D01*
X36436950Y28078578D01*
X36386225Y27990720D01*
X36377219Y27975122D01*
X36346300Y27859731D01*
X35553700Y27859731D01*
X35553700Y28052131D01*
X35573385Y28119170D01*
X35590019Y28139812D01*
X36110188Y28659981D01*
X36171511Y28693466D01*
X36197869Y28696300D01*
X40418033Y28696300D01*
X40485072Y28676615D01*
X40505714Y28659981D01*
X40996338Y28169357D01*
X41028430Y28113775D01*
X41030624Y28105585D01*
X41030628Y28105577D01*
X41096937Y27990725D01*
X41096939Y27990722D01*
X41096940Y27990721D01*
X41190721Y27896940D01*
X41190722Y27896939D01*
X41190724Y27896938D01*
X41248150Y27863784D01*
X41305579Y27830627D01*
X41433687Y27796300D01*
X41433690Y27796300D01*
X41566310Y27796300D01*
X41566313Y27796300D01*
X41694421Y27830627D01*
X41809279Y27896940D01*
X41903060Y27990721D01*
X41969373Y28105579D01*
X42003700Y28233687D01*
X42003700Y28366313D01*
X41969373Y28494421D01*
X41922165Y28576188D01*
X41903062Y28609276D01*
X41903058Y28609281D01*
X41809280Y28703059D01*
X41809275Y28703063D01*
X41694423Y28769372D01*
X41694422Y28769373D01*
X41662394Y28777955D01*
X41566313Y28803700D01*
X41433687Y28803700D01*
X41433685Y28803700D01*
X41431322Y28803389D01*
X41429328Y28803700D01*
X41425559Y28803700D01*
X41425559Y28804288D01*
X41362287Y28814158D01*
X41327461Y28838648D01*
X40833081Y29333028D01*
X40833079Y29333030D01*
X40771332Y29368680D01*
X40752426Y29379596D01*
X40750728Y29380051D01*
X40748208Y29380726D01*
X40745052Y29382650D01*
X40744921Y29382704D01*
X40744929Y29382725D01*
X40688550Y29417090D01*
X40658020Y29479936D01*
X40666314Y29549312D01*
X40710799Y29603190D01*
X40777351Y29624465D01*
X40780303Y29624500D01*
X51377405Y29624500D01*
X51421249Y29624500D01*
X51428736Y29624274D01*
X51682638Y29608916D01*
X51697495Y29607112D01*
X51944000Y29561939D01*
X51958536Y29558356D01*
X52197791Y29483800D01*
X52211788Y29478492D01*
X52440319Y29375639D01*
X52453578Y29368680D01*
X52512554Y29333028D01*
X52668045Y29239030D01*
X52680356Y29230532D01*
X52877636Y29075973D01*
X52888844Y29066043D01*
X53066042Y28888845D01*
X53075972Y28877637D01*
X53212742Y28703063D01*
X53230527Y28680363D01*
X53239033Y28668040D01*
X53368679Y28453579D01*
X53375638Y28440320D01*
X53478491Y28211789D01*
X53483800Y28197789D01*
X53558354Y27958539D01*
X53561938Y27943999D01*
X53607110Y27697500D01*
X53608915Y27682636D01*
X53624274Y27428737D01*
X53624500Y27421250D01*
X53624500Y3929428D01*
X53624184Y3920582D01*
X53607834Y3691983D01*
X53605316Y3674471D01*
X53557543Y3454863D01*
X53552559Y3437888D01*
X53474019Y3227312D01*
X53466669Y3211218D01*
X53358959Y3013964D01*
X53349394Y2999081D01*
X53214710Y2819164D01*
X53203124Y2805793D01*
X53044207Y2646876D01*
X53030836Y2635290D01*
X52850919Y2500606D01*
X52836036Y2491041D01*
X52638782Y2383331D01*
X52622688Y2375981D01*
X52412112Y2297441D01*
X52395137Y2292457D01*
X52175529Y2244684D01*
X52158017Y2242166D01*
X51929418Y2225816D01*
X51920572Y2225500D01*
X40931093Y2225500D01*
X40918939Y2226097D01*
X40868081Y2231107D01*
X40800688Y2237744D01*
X40776848Y2242486D01*
X40668997Y2275202D01*
X40646541Y2284504D01*
X40547150Y2337630D01*
X40526940Y2351134D01*
X40439820Y2422631D01*
X40422630Y2439821D01*
X40351133Y2526941D01*
X40337629Y2547151D01*
X40298441Y2620466D01*
X40284501Y2646547D01*
X40275201Y2668998D01*
X40255881Y2732689D01*
X40242483Y2776855D01*
X40237744Y2800683D01*
X40226097Y2918939D01*
X40225500Y2931093D01*
X40225500Y7467786D01*
X40225474Y7468169D01*
X40225462Y7522747D01*
X40225461Y7522760D01*
X40210015Y7619979D01*
X40193243Y7725549D01*
X40129600Y7920777D01*
X40057651Y8061476D01*
X40036112Y8103597D01*
X40024624Y8119344D01*
X39915090Y8269488D01*
X39769538Y8414330D01*
X39603061Y8534538D01*
X39586735Y8542786D01*
X39419788Y8627131D01*
X39419779Y8627135D01*
X39224243Y8689822D01*
X39021297Y8721048D01*
X39021294Y8721048D01*
X39020431Y8721044D01*
X38965998Y8720792D01*
X38965820Y8720802D01*
X38907361Y8720516D01*
X38907362Y8720515D01*
X38871031Y8720337D01*
X38871030Y8720337D01*
X34824561Y8700501D01*
X34824560Y8700502D01*
X34824156Y8700500D01*
X34785438Y8700500D01*
X34784712Y8700306D01*
X34783965Y8700302D01*
X34783961Y8700302D01*
X34783957Y8700301D01*
X34747010Y8690206D01*
X34746427Y8690048D01*
X34709014Y8680023D01*
X34708088Y8679639D01*
X34708086Y8679639D01*
X34708082Y8679637D01*
X34707663Y8679464D01*
X34674381Y8660033D01*
X34674382Y8660032D01*
X34674026Y8659824D01*
X34640489Y8640460D01*
X34639959Y8639931D01*
X34639313Y8639553D01*
X34639302Y8639543D01*
X34639302Y8639542D01*
X34612185Y8612159D01*
X34611759Y8611732D01*
X34140489Y8140460D01*
X34084541Y8084513D01*
X34084535Y8084505D01*
X34044982Y8015996D01*
X34044979Y8015991D01*
X34036520Y7984421D01*
X34026730Y7947882D01*
X34024500Y7939561D01*
X34024500Y6124000D01*
X34004815Y6056961D01*
X33952011Y6011206D01*
X33900500Y6000000D01*
X30252700Y6000000D01*
X30185661Y6019685D01*
X30139906Y6072489D01*
X30128700Y6124000D01*
X30128700Y9095598D01*
X30128699Y9095605D01*
X30117748Y9136476D01*
X30097782Y9210991D01*
X30038051Y9314448D01*
X29952809Y9399690D01*
X29849352Y9459420D01*
X29849353Y9459420D01*
X29820504Y9467150D01*
X29733962Y9490339D01*
X29614500Y9490339D01*
X29527957Y9467150D01*
X29499109Y9459420D01*
X29395654Y9399691D01*
X29395651Y9399689D01*
X29311181Y9315219D01*
X29311177Y9315214D01*
X29280673Y9262378D01*
X29230106Y9214162D01*
X29161499Y9200939D01*
X29096634Y9226907D01*
X29065899Y9262378D01*
X29042115Y9303572D01*
X29038753Y9309396D01*
X28954281Y9393868D01*
X28850824Y9453599D01*
X28735434Y9484517D01*
X28615972Y9484517D01*
X28500582Y9453599D01*
X28500579Y9453598D01*
X28397125Y9393869D01*
X28311948Y9308693D01*
X28311947Y9308692D01*
X28280910Y9254933D01*
X28230343Y9206717D01*
X28161736Y9193495D01*
X28096871Y9219463D01*
X28066137Y9254932D01*
X28038053Y9303572D01*
X28038050Y9303578D01*
X27953578Y9388050D01*
X27850122Y9447781D01*
X27734731Y9478700D01*
X27615269Y9478700D01*
X27499878Y9447781D01*
X27499876Y9447781D01*
X27499876Y9447780D01*
X27396422Y9388050D01*
X27396419Y9388048D01*
X27311952Y9303581D01*
X27311950Y9303578D01*
X27279249Y9246938D01*
X27252219Y9200122D01*
X27221300Y9084731D01*
X27221300Y9084729D01*
X27221300Y8471536D01*
X27201615Y8404497D01*
X27148811Y8358742D01*
X27079653Y8348798D01*
X27016097Y8377823D01*
X27009619Y8383855D01*
X26989648Y8403826D01*
X26989646Y8403828D01*
X26830405Y8519524D01*
X26817320Y8526191D01*
X26655029Y8608883D01*
X26467826Y8669710D01*
X26273422Y8700500D01*
X26273417Y8700500D01*
X26222595Y8700500D01*
X26175000Y8700500D01*
X26076583Y8700500D01*
X26076578Y8700500D01*
X25882173Y8669710D01*
X25694970Y8608883D01*
X25519594Y8519524D01*
X25360355Y8403829D01*
X25304354Y8347828D01*
X25243030Y8314344D01*
X25173338Y8319329D01*
X25117405Y8361200D01*
X25101932Y8393051D01*
X25100889Y8392618D01*
X25097781Y8400122D01*
X25077171Y8435819D01*
X25038050Y8503578D01*
X24953578Y8588050D01*
X24850122Y8647781D01*
X24734731Y8678700D01*
X24615269Y8678700D01*
X24499878Y8647781D01*
X24499876Y8647781D01*
X24499876Y8647780D01*
X24396422Y8588050D01*
X24396419Y8588048D01*
X24311952Y8503581D01*
X24311950Y8503578D01*
X24254358Y8403826D01*
X24252219Y8400122D01*
X24221300Y8284731D01*
X24221300Y8284729D01*
X24221300Y8051460D01*
X24201615Y7984421D01*
X24148811Y7938666D01*
X24079653Y7928722D01*
X24016097Y7957747D01*
X23978323Y8016525D01*
X23977525Y8019368D01*
X23958005Y8092223D01*
X23918021Y8161476D01*
X23857145Y8222352D01*
X23857134Y8222362D01*
X23594878Y8484619D01*
X23561393Y8545942D01*
X23566377Y8615634D01*
X23608249Y8671567D01*
X23673713Y8695984D01*
X23682559Y8696300D01*
X23789980Y8696300D01*
X23789983Y8696300D01*
X23860305Y8715142D01*
X23867221Y8716995D01*
X23867221Y8716996D01*
X23867224Y8716996D01*
X23936476Y8756979D01*
X24763184Y9583690D01*
X32146299Y9583690D01*
X32180627Y9455578D01*
X32180628Y9455577D01*
X32246937Y9340725D01*
X32246939Y9340722D01*
X32246940Y9340721D01*
X32340721Y9246940D01*
X32340722Y9246939D01*
X32340724Y9246938D01*
X32349381Y9241940D01*
X32455579Y9180627D01*
X32583687Y9146300D01*
X32583690Y9146300D01*
X32716310Y9146300D01*
X32716313Y9146300D01*
X32844421Y9180627D01*
X32959279Y9246940D01*
X33053060Y9340721D01*
X33058385Y9349944D01*
X33108951Y9398160D01*
X33177557Y9411385D01*
X33242423Y9385418D01*
X33253454Y9375627D01*
X33302122Y9326959D01*
X33394177Y9273811D01*
X33496852Y9246300D01*
X33496854Y9246300D01*
X33603146Y9246300D01*
X33603148Y9246300D01*
X33705823Y9273811D01*
X33797878Y9326959D01*
X33873041Y9402122D01*
X33926189Y9494177D01*
X33953700Y9596852D01*
X33953700Y9703148D01*
X33926189Y9805823D01*
X33873041Y9897878D01*
X33797878Y9973041D01*
X33797876Y9973042D01*
X33793208Y9976624D01*
X33752005Y10033051D01*
X33747850Y10102797D01*
X33782062Y10163718D01*
X33793208Y10173376D01*
X33797871Y10176956D01*
X33797878Y10176959D01*
X33873041Y10252122D01*
X33926189Y10344177D01*
X33953700Y10446852D01*
X33953700Y10553148D01*
X33926189Y10655823D01*
X33873041Y10747878D01*
X33833600Y10787319D01*
X33800115Y10848642D01*
X33805099Y10918334D01*
X33833600Y10962681D01*
X33847108Y10976189D01*
X33873041Y11002122D01*
X33926189Y11094177D01*
X33953700Y11196852D01*
X33953700Y11303148D01*
X33926189Y11405823D01*
X33873041Y11497878D01*
X33833600Y11537319D01*
X33800115Y11598642D01*
X33805099Y11668334D01*
X33833600Y11712681D01*
X33840265Y11719346D01*
X33873041Y11752122D01*
X33926189Y11844177D01*
X33953700Y11946852D01*
X33953700Y12053148D01*
X33926189Y12155823D01*
X33873041Y12247878D01*
X33808600Y12312319D01*
X33775115Y12373642D01*
X33780099Y12443334D01*
X33808600Y12487681D01*
X33873041Y12552122D01*
X33926189Y12644177D01*
X33953700Y12746852D01*
X33953700Y12853148D01*
X33926189Y12955823D01*
X33873041Y13047878D01*
X33797878Y13123041D01*
X33705823Y13176189D01*
X33603148Y13203700D01*
X33496852Y13203700D01*
X33394177Y13176189D01*
X33394175Y13176188D01*
X33394174Y13176188D01*
X33302125Y13123043D01*
X33302119Y13123039D01*
X33226961Y13047881D01*
X33226959Y13047878D01*
X33224444Y13043521D01*
X33207387Y13013978D01*
X33156819Y12965763D01*
X33088212Y12952541D01*
X33023348Y12978509D01*
X32992613Y13013978D01*
X32973041Y13047878D01*
X32897878Y13123041D01*
X32805823Y13176189D01*
X32703148Y13203700D01*
X32596852Y13203700D01*
X32494177Y13176189D01*
X32494175Y13176188D01*
X32494174Y13176188D01*
X32402125Y13123043D01*
X32402119Y13123039D01*
X32326961Y13047881D01*
X32326957Y13047875D01*
X32273812Y12955826D01*
X32273812Y12955825D01*
X32273811Y12955823D01*
X32246300Y12853148D01*
X32246300Y12746852D01*
X32273811Y12644177D01*
X32326959Y12552122D01*
X32326961Y12552120D01*
X32391400Y12487681D01*
X32424885Y12426358D01*
X32419901Y12356666D01*
X32391400Y12312319D01*
X32326961Y12247881D01*
X32326957Y12247875D01*
X32273812Y12155826D01*
X32273812Y12155825D01*
X32273811Y12155823D01*
X32246300Y12053148D01*
X32246300Y11946852D01*
X32273811Y11844177D01*
X32326959Y11752122D01*
X32326961Y11752120D01*
X32366400Y11712681D01*
X32399885Y11651358D01*
X32394901Y11581666D01*
X32366400Y11537319D01*
X32326961Y11497881D01*
X32326957Y11497875D01*
X32273812Y11405826D01*
X32273812Y11405825D01*
X32273811Y11405823D01*
X32246300Y11303148D01*
X32246300Y11196852D01*
X32273811Y11094177D01*
X32326959Y11002122D01*
X32326961Y11002120D01*
X32366400Y10962681D01*
X32399885Y10901358D01*
X32394901Y10831666D01*
X32366400Y10787319D01*
X32326961Y10747881D01*
X32326957Y10747875D01*
X32273812Y10655826D01*
X32273812Y10655825D01*
X32273811Y10655823D01*
X32246300Y10553148D01*
X32246300Y10446852D01*
X32273811Y10344177D01*
X32273812Y10344176D01*
X32273812Y10344175D01*
X32276067Y10340269D01*
X32326959Y10252122D01*
X32326961Y10252120D01*
X32345690Y10233391D01*
X32379175Y10172068D01*
X32374191Y10102376D01*
X32345690Y10058029D01*
X32246941Y9959281D01*
X32246937Y9959276D01*
X32180628Y9844424D01*
X32180627Y9844423D01*
X32169117Y9801466D01*
X32146300Y9716313D01*
X32146300Y9716311D01*
X32146300Y9583690D01*
X32146299Y9583690D01*
X24763184Y9583690D01*
X24777115Y9597621D01*
X24838438Y9631105D01*
X24864796Y9633939D01*
X24953146Y9633939D01*
X24953148Y9633939D01*
X25055823Y9661450D01*
X25147878Y9714598D01*
X25223041Y9789761D01*
X25276189Y9881816D01*
X25303700Y9984491D01*
X25303700Y10090787D01*
X25303699Y10090789D01*
X25302639Y10098843D01*
X25304706Y10099116D01*
X25306100Y10157861D01*
X25345257Y10215727D01*
X25362210Y10227499D01*
X25447878Y10276959D01*
X25523041Y10352122D01*
X25576189Y10444177D01*
X25603700Y10546852D01*
X25603700Y10653148D01*
X25576189Y10755823D01*
X25523041Y10847878D01*
X25447878Y10923041D01*
X25355823Y10976189D01*
X25253148Y11003700D01*
X25146852Y11003700D01*
X25044177Y10976189D01*
X25044175Y10976188D01*
X25044174Y10976188D01*
X24947397Y10920313D01*
X24885397Y10903700D01*
X24710016Y10903700D01*
X24632774Y10883004D01*
X24563524Y10843021D01*
X24563521Y10843019D01*
X23460522Y9740019D01*
X23399199Y9706534D01*
X23372841Y9703700D01*
X21696208Y9703700D01*
X21629169Y9723385D01*
X21599871Y9757197D01*
X21573295Y9725009D01*
X21506743Y9703735D01*
X21503792Y9703700D01*
X19460016Y9703700D01*
X19382774Y9683004D01*
X19313524Y9643021D01*
X19313521Y9643019D01*
X19268123Y9597620D01*
X19256979Y9586476D01*
X19256977Y9586474D01*
X18979195Y9308692D01*
X18695083Y9024581D01*
X18655982Y8985480D01*
X18655979Y8985476D01*
X18615994Y8916222D01*
X18595300Y8838987D01*
X18595300Y7710560D01*
X18596300Y7695293D01*
X18596300Y7596852D01*
X18623811Y7494177D01*
X18623812Y7494176D01*
X18623812Y7494175D01*
X18641527Y7463492D01*
X18676959Y7402122D01*
X18752122Y7326959D01*
X18844177Y7273811D01*
X18946852Y7246300D01*
X18946854Y7246300D01*
X19053146Y7246300D01*
X19053148Y7246300D01*
X19155823Y7273811D01*
X19185302Y7290831D01*
X19253199Y7307303D01*
X19319226Y7284451D01*
X19362417Y7229530D01*
X19371300Y7183443D01*
X19371300Y6124000D01*
X19351615Y6056961D01*
X19298811Y6011206D01*
X19247300Y6000000D01*
X15202700Y6000000D01*
X15135661Y6019685D01*
X15089906Y6072489D01*
X15078700Y6124000D01*
X15078700Y8178147D01*
X15078700Y8178148D01*
X15073836Y8196300D01*
X15051189Y8280823D01*
X15040259Y8299754D01*
X14998041Y8372878D01*
X14922878Y8448041D01*
X14897878Y8473041D01*
X14805823Y8526189D01*
X14805822Y8526190D01*
X14805821Y8526190D01*
X14805819Y8526191D01*
X14784126Y8532003D01*
X14784124Y8532005D01*
X14784124Y8532003D01*
X14703148Y8553701D01*
X14596852Y8553701D01*
X14515874Y8532003D01*
X14515873Y8532004D01*
X14494177Y8526190D01*
X14402122Y8473041D01*
X14402119Y8473039D01*
X14326961Y8397881D01*
X14326957Y8397875D01*
X14270548Y8300172D01*
X14219981Y8251956D01*
X14151374Y8238734D01*
X14086509Y8264702D01*
X14075480Y8274491D01*
X13738016Y8611955D01*
X13710815Y8639454D01*
X13710097Y8639874D01*
X13709511Y8640460D01*
X13709510Y8640461D01*
X13676176Y8659707D01*
X13676176Y8659708D01*
X13675703Y8659981D01*
X13642509Y8679386D01*
X13641708Y8679606D01*
X13640988Y8680021D01*
X13640974Y8680025D01*
X13619568Y8685761D01*
X13603872Y8689968D01*
X13603314Y8690118D01*
X13566195Y8700281D01*
X13565100Y8700431D01*
X13565099Y8700432D01*
X13564600Y8700500D01*
X13564562Y8700500D01*
X13526205Y8700500D01*
X13525531Y8700502D01*
X10832026Y8715142D01*
X10765095Y8735190D01*
X10719627Y8788242D01*
X10708700Y8839140D01*
X10708700Y11859731D01*
X13546300Y11859731D01*
X13546300Y11740269D01*
X13577219Y11624878D01*
X13636950Y11521422D01*
X13636952Y11521420D01*
X13670691Y11487681D01*
X13704176Y11426358D01*
X13699192Y11356666D01*
X13670691Y11312319D01*
X13636952Y11278581D01*
X13636950Y11278578D01*
X13588363Y11194423D01*
X13577219Y11175122D01*
X13546300Y11059731D01*
X13546300Y10940269D01*
X13577219Y10824878D01*
X13636950Y10721422D01*
X13636952Y10721420D01*
X13670691Y10687681D01*
X13704176Y10626358D01*
X13699192Y10556666D01*
X13670691Y10512319D01*
X13636952Y10478581D01*
X13636950Y10478578D01*
X13616116Y10442492D01*
X13577219Y10375122D01*
X13546300Y10259731D01*
X13546300Y10140269D01*
X13577219Y10024878D01*
X13636950Y9921422D01*
X13721422Y9836950D01*
X13824878Y9777219D01*
X13940269Y9746300D01*
X13940271Y9746300D01*
X14059728Y9746300D01*
X14059731Y9746300D01*
X14175122Y9777219D01*
X14278578Y9836950D01*
X14278579Y9836952D01*
X14285616Y9841014D01*
X14286981Y9838650D01*
X14339668Y9859025D01*
X14408114Y9844995D01*
X14414363Y9840979D01*
X14414384Y9841014D01*
X14421420Y9836952D01*
X14421422Y9836950D01*
X14524878Y9777219D01*
X14640269Y9746300D01*
X14640271Y9746300D01*
X14759728Y9746300D01*
X14759731Y9746300D01*
X14875122Y9777219D01*
X14978578Y9836950D01*
X15063050Y9921422D01*
X15122781Y10024878D01*
X15153700Y10140269D01*
X15153700Y10259731D01*
X15122781Y10375122D01*
X15122779Y10375126D01*
X15106034Y10404130D01*
X15106020Y10404153D01*
X15073931Y10459731D01*
X18746300Y10459731D01*
X18746300Y10340269D01*
X18777219Y10224878D01*
X18836950Y10121422D01*
X18921422Y10036950D01*
X19024878Y9977219D01*
X19140269Y9946300D01*
X19140271Y9946300D01*
X19259728Y9946300D01*
X19259731Y9946300D01*
X19375122Y9977219D01*
X19478578Y10036950D01*
X19563050Y10121422D01*
X19622781Y10224878D01*
X19653700Y10340269D01*
X19653700Y10459731D01*
X19946300Y10459731D01*
X19946300Y10340269D01*
X19977219Y10224878D01*
X20036950Y10121422D01*
X20121422Y10036950D01*
X20224878Y9977219D01*
X20340269Y9946300D01*
X20459731Y9946300D01*
X20575122Y9977219D01*
X20678578Y10036950D01*
X20763050Y10121422D01*
X20822781Y10224878D01*
X20853700Y10340269D01*
X20853700Y10459731D01*
X21146300Y10459731D01*
X21146300Y10340269D01*
X21177219Y10224878D01*
X21236950Y10121422D01*
X21321422Y10036950D01*
X21424878Y9977219D01*
X21535887Y9947474D01*
X21595546Y9911110D01*
X21599647Y9902668D01*
X21602495Y9908903D01*
X21661273Y9946677D01*
X21664069Y9947463D01*
X21775122Y9977219D01*
X21878578Y10036950D01*
X21963050Y10121422D01*
X22022781Y10224878D01*
X22053700Y10340269D01*
X22053700Y10459731D01*
X22546300Y10459731D01*
X22546300Y10340269D01*
X22577219Y10224878D01*
X22636950Y10121422D01*
X22721422Y10036950D01*
X22824878Y9977219D01*
X22940269Y9946300D01*
X23059731Y9946300D01*
X23175122Y9977219D01*
X23278578Y10036950D01*
X23363050Y10121422D01*
X23422781Y10224878D01*
X23453700Y10340269D01*
X23453700Y10459731D01*
X23422781Y10575122D01*
X23363050Y10678578D01*
X23278578Y10763050D01*
X23175122Y10822781D01*
X23059731Y10853700D01*
X22940269Y10853700D01*
X22824878Y10822781D01*
X22824876Y10822781D01*
X22824876Y10822780D01*
X22721422Y10763050D01*
X22721419Y10763048D01*
X22636952Y10678581D01*
X22636950Y10678578D01*
X22577219Y10575122D01*
X22546300Y10459731D01*
X22053700Y10459731D01*
X22022781Y10575122D01*
X21963050Y10678578D01*
X21878578Y10763050D01*
X21775122Y10822781D01*
X21659731Y10853700D01*
X21540269Y10853700D01*
X21424878Y10822781D01*
X21424876Y10822781D01*
X21424876Y10822780D01*
X21321422Y10763050D01*
X21321419Y10763048D01*
X21236952Y10678581D01*
X21236950Y10678578D01*
X21177219Y10575122D01*
X21146300Y10459731D01*
X20853700Y10459731D01*
X20822781Y10575122D01*
X20763050Y10678578D01*
X20678578Y10763050D01*
X20575122Y10822781D01*
X20459731Y10853700D01*
X20340269Y10853700D01*
X20224878Y10822781D01*
X20224876Y10822781D01*
X20224876Y10822780D01*
X20121422Y10763050D01*
X20121419Y10763048D01*
X20036952Y10678581D01*
X20036950Y10678578D01*
X19977219Y10575122D01*
X19946300Y10459731D01*
X19653700Y10459731D01*
X19622781Y10575122D01*
X19563050Y10678578D01*
X19478578Y10763050D01*
X19375122Y10822781D01*
X19259731Y10853700D01*
X19140269Y10853700D01*
X19024878Y10822781D01*
X19024876Y10822781D01*
X19024876Y10822780D01*
X18921422Y10763050D01*
X18921419Y10763048D01*
X18836952Y10678581D01*
X18836950Y10678578D01*
X18777219Y10575122D01*
X18746300Y10459731D01*
X15073931Y10459731D01*
X15063050Y10478578D01*
X15054539Y10487089D01*
X15046991Y10499249D01*
X15041337Y10519684D01*
X15031179Y10538287D01*
X15032208Y10552680D01*
X15028360Y10566589D01*
X15034650Y10586833D01*
X15036163Y10607979D01*
X15045957Y10623220D01*
X15049094Y10633312D01*
X15056369Y10639419D01*
X15064663Y10652325D01*
X15103060Y10690721D01*
X15169373Y10805579D01*
X15203700Y10933687D01*
X15203700Y11066313D01*
X15169373Y11194421D01*
X15120785Y11278578D01*
X15103062Y11309276D01*
X15103058Y11309281D01*
X15064664Y11347675D01*
X15031179Y11408998D01*
X15036163Y11478690D01*
X15059029Y11514266D01*
X15058103Y11514976D01*
X15063042Y11521415D01*
X15063050Y11521422D01*
X15122781Y11624878D01*
X15153700Y11740269D01*
X15153700Y11809731D01*
X18746300Y11809731D01*
X18746300Y11690269D01*
X18777219Y11574878D01*
X18836950Y11471422D01*
X18921422Y11386950D01*
X19024878Y11327219D01*
X19140269Y11296300D01*
X19140271Y11296300D01*
X19259728Y11296300D01*
X19259731Y11296300D01*
X19375122Y11327219D01*
X19478578Y11386950D01*
X19563050Y11471422D01*
X19622781Y11574878D01*
X19653700Y11690269D01*
X19653700Y11809731D01*
X19946300Y11809731D01*
X19946300Y11690269D01*
X19977219Y11574878D01*
X20036950Y11471422D01*
X20121422Y11386950D01*
X20224878Y11327219D01*
X20340269Y11296300D01*
X20340271Y11296300D01*
X20459728Y11296300D01*
X20459731Y11296300D01*
X20575122Y11327219D01*
X20678578Y11386950D01*
X20763050Y11471422D01*
X20822781Y11574878D01*
X20853700Y11690269D01*
X20853700Y11809731D01*
X21146300Y11809731D01*
X21146300Y11690269D01*
X21177219Y11574878D01*
X21236950Y11471422D01*
X21321422Y11386950D01*
X21424878Y11327219D01*
X21540269Y11296300D01*
X21540271Y11296300D01*
X21659728Y11296300D01*
X21659731Y11296300D01*
X21775122Y11327219D01*
X21878578Y11386950D01*
X21963050Y11471422D01*
X22022781Y11574878D01*
X22053700Y11690269D01*
X22053700Y11809731D01*
X22546300Y11809731D01*
X22546300Y11690269D01*
X22577219Y11574878D01*
X22636950Y11471422D01*
X22721422Y11386950D01*
X22824878Y11327219D01*
X22940269Y11296300D01*
X22940271Y11296300D01*
X23059728Y11296300D01*
X23059731Y11296300D01*
X23175122Y11327219D01*
X23278578Y11386950D01*
X23363050Y11471422D01*
X23422781Y11574878D01*
X23453700Y11690269D01*
X23453700Y11809731D01*
X23422781Y11925122D01*
X23363050Y12028578D01*
X23278578Y12113050D01*
X23175122Y12172781D01*
X23059731Y12203700D01*
X22940269Y12203700D01*
X22824878Y12172781D01*
X22824876Y12172781D01*
X22824876Y12172780D01*
X22721422Y12113050D01*
X22721419Y12113048D01*
X22636952Y12028581D01*
X22636950Y12028578D01*
X22589766Y11946853D01*
X22577219Y11925122D01*
X22546300Y11809731D01*
X22053700Y11809731D01*
X22022781Y11925122D01*
X21963050Y12028578D01*
X21878578Y12113050D01*
X21775122Y12172781D01*
X21659731Y12203700D01*
X21540269Y12203700D01*
X21424878Y12172781D01*
X21424876Y12172781D01*
X21424876Y12172780D01*
X21321422Y12113050D01*
X21321419Y12113048D01*
X21236952Y12028581D01*
X21236950Y12028578D01*
X21189766Y11946853D01*
X21177219Y11925122D01*
X21146300Y11809731D01*
X20853700Y11809731D01*
X20822781Y11925122D01*
X20763050Y12028578D01*
X20678578Y12113050D01*
X20575122Y12172781D01*
X20459731Y12203700D01*
X20340269Y12203700D01*
X20224878Y12172781D01*
X20224876Y12172781D01*
X20224876Y12172780D01*
X20121422Y12113050D01*
X20121419Y12113048D01*
X20036952Y12028581D01*
X20036950Y12028578D01*
X19989766Y11946853D01*
X19977219Y11925122D01*
X19946300Y11809731D01*
X19653700Y11809731D01*
X19622781Y11925122D01*
X19563050Y12028578D01*
X19478578Y12113050D01*
X19375122Y12172781D01*
X19259731Y12203700D01*
X19140269Y12203700D01*
X19024878Y12172781D01*
X19024876Y12172781D01*
X19024876Y12172780D01*
X18921422Y12113050D01*
X18921419Y12113048D01*
X18836952Y12028581D01*
X18836950Y12028578D01*
X18789766Y11946853D01*
X18777219Y11925122D01*
X18746300Y11809731D01*
X15153700Y11809731D01*
X15153700Y11859731D01*
X15122781Y11975122D01*
X15063050Y12078578D01*
X14978578Y12163050D01*
X14875122Y12222781D01*
X14759731Y12253700D01*
X14640269Y12253700D01*
X14524878Y12222781D01*
X14421422Y12163050D01*
X14421420Y12163049D01*
X14414384Y12158986D01*
X14413021Y12161347D01*
X14360300Y12140973D01*
X14291857Y12155022D01*
X14285635Y12159020D01*
X14285616Y12158986D01*
X14278579Y12163049D01*
X14278578Y12163050D01*
X14175122Y12222781D01*
X14059731Y12253700D01*
X13940269Y12253700D01*
X13824878Y12222781D01*
X13824876Y12222781D01*
X13824876Y12222780D01*
X13721422Y12163050D01*
X13721419Y12163048D01*
X13636952Y12078581D01*
X13636950Y12078578D01*
X13577219Y11975122D01*
X13546300Y11859731D01*
X10708700Y11859731D01*
X10708700Y13209731D01*
X18746300Y13209731D01*
X18746300Y13090269D01*
X18777219Y12974878D01*
X18836950Y12871422D01*
X18921422Y12786950D01*
X19024878Y12727219D01*
X19140269Y12696300D01*
X19140271Y12696300D01*
X19259728Y12696300D01*
X19259731Y12696300D01*
X19375122Y12727219D01*
X19478578Y12786950D01*
X19563050Y12871422D01*
X19622781Y12974878D01*
X19653700Y13090269D01*
X19653700Y13209731D01*
X19946300Y13209731D01*
X19946300Y13090269D01*
X19977219Y12974878D01*
X20036950Y12871422D01*
X20121422Y12786950D01*
X20224878Y12727219D01*
X20340269Y12696300D01*
X20340271Y12696300D01*
X20459728Y12696300D01*
X20459731Y12696300D01*
X20575122Y12727219D01*
X20678578Y12786950D01*
X20763050Y12871422D01*
X20822781Y12974878D01*
X20853700Y13090269D01*
X20853700Y13209731D01*
X21146300Y13209731D01*
X21146300Y13090269D01*
X21177219Y12974878D01*
X21236950Y12871422D01*
X21321422Y12786950D01*
X21424878Y12727219D01*
X21540269Y12696300D01*
X21540271Y12696300D01*
X21659728Y12696300D01*
X21659731Y12696300D01*
X21775122Y12727219D01*
X21878578Y12786950D01*
X21963050Y12871422D01*
X22022781Y12974878D01*
X22053700Y13090269D01*
X22053700Y13209731D01*
X22546300Y13209731D01*
X22546300Y13090269D01*
X22577219Y12974878D01*
X22636950Y12871422D01*
X22721422Y12786950D01*
X22824878Y12727219D01*
X22940269Y12696300D01*
X22940271Y12696300D01*
X23059728Y12696300D01*
X23059731Y12696300D01*
X23175122Y12727219D01*
X23278578Y12786950D01*
X23363050Y12871422D01*
X23422781Y12974878D01*
X23453700Y13090269D01*
X23453700Y13209731D01*
X23422781Y13325122D01*
X23363050Y13428578D01*
X23278578Y13513050D01*
X23175122Y13572781D01*
X23059731Y13603700D01*
X22940269Y13603700D01*
X22824878Y13572781D01*
X22824876Y13572781D01*
X22824876Y13572780D01*
X22721422Y13513050D01*
X22721419Y13513048D01*
X22636952Y13428581D01*
X22636950Y13428578D01*
X22614571Y13389816D01*
X22577219Y13325122D01*
X22546300Y13209731D01*
X22053700Y13209731D01*
X22022781Y13325122D01*
X21963050Y13428578D01*
X21878578Y13513050D01*
X21775122Y13572781D01*
X21659731Y13603700D01*
X21540269Y13603700D01*
X21424878Y13572781D01*
X21424876Y13572781D01*
X21424876Y13572780D01*
X21321422Y13513050D01*
X21321419Y13513048D01*
X21236952Y13428581D01*
X21236950Y13428578D01*
X21214571Y13389816D01*
X21177219Y13325122D01*
X21146300Y13209731D01*
X20853700Y13209731D01*
X20822781Y13325122D01*
X20763050Y13428578D01*
X20678578Y13513050D01*
X20575122Y13572781D01*
X20459731Y13603700D01*
X20340269Y13603700D01*
X20224878Y13572781D01*
X20224876Y13572781D01*
X20224876Y13572780D01*
X20121422Y13513050D01*
X20121419Y13513048D01*
X20036952Y13428581D01*
X20036950Y13428578D01*
X20014571Y13389816D01*
X19977219Y13325122D01*
X19946300Y13209731D01*
X19653700Y13209731D01*
X19622781Y13325122D01*
X19563050Y13428578D01*
X19478578Y13513050D01*
X19375122Y13572781D01*
X19259731Y13603700D01*
X19140269Y13603700D01*
X19024878Y13572781D01*
X19024876Y13572781D01*
X19024876Y13572780D01*
X18921422Y13513050D01*
X18921419Y13513048D01*
X18836952Y13428581D01*
X18836950Y13428578D01*
X18814571Y13389816D01*
X18777219Y13325122D01*
X18746300Y13209731D01*
X10708700Y13209731D01*
X10708700Y14559731D01*
X18746300Y14559731D01*
X18746300Y14440269D01*
X18777219Y14324878D01*
X18836950Y14221422D01*
X18921422Y14136950D01*
X19024878Y14077219D01*
X19140269Y14046300D01*
X19140271Y14046300D01*
X19259728Y14046300D01*
X19259731Y14046300D01*
X19375122Y14077219D01*
X19478578Y14136950D01*
X19563050Y14221422D01*
X19622781Y14324878D01*
X19653700Y14440269D01*
X19653700Y14559731D01*
X19946300Y14559731D01*
X19946300Y14440269D01*
X19977219Y14324878D01*
X20036950Y14221422D01*
X20121422Y14136950D01*
X20224878Y14077219D01*
X20340269Y14046300D01*
X20340271Y14046300D01*
X20459728Y14046300D01*
X20459731Y14046300D01*
X20575122Y14077219D01*
X20678578Y14136950D01*
X20763050Y14221422D01*
X20822781Y14324878D01*
X20853700Y14440269D01*
X20853700Y14559731D01*
X21146300Y14559731D01*
X21146300Y14440269D01*
X21177219Y14324878D01*
X21236950Y14221422D01*
X21321422Y14136950D01*
X21424878Y14077219D01*
X21540269Y14046300D01*
X21540271Y14046300D01*
X21659728Y14046300D01*
X21659731Y14046300D01*
X21775122Y14077219D01*
X21878578Y14136950D01*
X21963050Y14221422D01*
X22022781Y14324878D01*
X22053700Y14440269D01*
X22053700Y14559731D01*
X22022781Y14675122D01*
X21963050Y14778578D01*
X21878578Y14863050D01*
X21775122Y14922781D01*
X21659731Y14953700D01*
X21540269Y14953700D01*
X21424878Y14922781D01*
X21424876Y14922781D01*
X21424876Y14922780D01*
X21321422Y14863050D01*
X21321419Y14863048D01*
X21236952Y14778581D01*
X21236950Y14778578D01*
X21178280Y14676959D01*
X21177219Y14675122D01*
X21146300Y14559731D01*
X20853700Y14559731D01*
X20822781Y14675122D01*
X20763050Y14778578D01*
X20678578Y14863050D01*
X20575122Y14922781D01*
X20459731Y14953700D01*
X20340269Y14953700D01*
X20224878Y14922781D01*
X20224876Y14922781D01*
X20224876Y14922780D01*
X20121422Y14863050D01*
X20121419Y14863048D01*
X20036952Y14778581D01*
X20036950Y14778578D01*
X19978280Y14676959D01*
X19977219Y14675122D01*
X19946300Y14559731D01*
X19653700Y14559731D01*
X19622781Y14675122D01*
X19563050Y14778578D01*
X19478578Y14863050D01*
X19375122Y14922781D01*
X19259731Y14953700D01*
X19140269Y14953700D01*
X19024878Y14922781D01*
X19024876Y14922781D01*
X19024876Y14922780D01*
X18921422Y14863050D01*
X18921419Y14863048D01*
X18836952Y14778581D01*
X18836950Y14778578D01*
X18778280Y14676959D01*
X18777219Y14675122D01*
X18746300Y14559731D01*
X10708700Y14559731D01*
X10708700Y15518188D01*
X10708642Y15521423D01*
X10708567Y15525633D01*
X10708251Y15534480D01*
X10695226Y15599962D01*
X10690204Y15613426D01*
X10686907Y15627406D01*
X10679539Y15651844D01*
X10670992Y15664935D01*
X10670808Y15665429D01*
X10661247Y15686942D01*
X10652010Y15756198D01*
X10681681Y15819455D01*
X10740842Y15856627D01*
X10774561Y15861300D01*
X11862300Y15861300D01*
X11929339Y15841615D01*
X11975094Y15788811D01*
X11986300Y15737300D01*
X11986300Y15419735D01*
X11986301Y15419718D01*
X11992889Y15369677D01*
X11992891Y15369669D01*
X12036482Y15276188D01*
X12044114Y15259821D01*
X12129821Y15174114D01*
X12239672Y15122890D01*
X12289728Y15116300D01*
X12289735Y15116300D01*
X12710265Y15116300D01*
X12710272Y15116300D01*
X12760328Y15122890D01*
X12870179Y15174114D01*
X12955886Y15259821D01*
X12959892Y15268413D01*
X13006063Y15320851D01*
X13073256Y15340004D01*
X13134274Y15323395D01*
X13194177Y15288810D01*
X13296852Y15261299D01*
X13296854Y15261299D01*
X13403146Y15261299D01*
X13403148Y15261299D01*
X13505823Y15288810D01*
X13597878Y15341958D01*
X13597878Y15341959D01*
X13602603Y15344686D01*
X13664603Y15361299D01*
X18385397Y15361299D01*
X18447397Y15344686D01*
X18452121Y15341959D01*
X18452122Y15341958D01*
X18544177Y15288810D01*
X18646852Y15261299D01*
X18646854Y15261299D01*
X18753146Y15261299D01*
X18753148Y15261299D01*
X18855823Y15288810D01*
X18947878Y15341958D01*
X19023041Y15417121D01*
X19076189Y15509176D01*
X19103700Y15611851D01*
X19103700Y15718147D01*
X19103310Y15721108D01*
X19103700Y15723610D01*
X19103700Y15726274D01*
X19104115Y15726274D01*
X19114072Y15790144D01*
X19160450Y15842402D01*
X19226248Y15861299D01*
X21086746Y15861299D01*
X21086748Y15861299D01*
X21151379Y15888072D01*
X21151382Y15888072D01*
X21162472Y15892667D01*
X21178157Y15899162D01*
X22097846Y16818852D01*
X22159167Y16852335D01*
X22228858Y16847351D01*
X22284792Y16805480D01*
X22305299Y16763264D01*
X22322487Y16699118D01*
X22323812Y16694175D01*
X22331795Y16680348D01*
X22376959Y16602122D01*
X22452122Y16526959D01*
X22544177Y16473811D01*
X22646852Y16446300D01*
X22646854Y16446300D01*
X22652120Y16444889D01*
X22707708Y16412795D01*
X23308981Y15811522D01*
X23342466Y15750199D01*
X23345300Y15723841D01*
X23345300Y15037871D01*
X23325615Y14970832D01*
X23272811Y14925077D01*
X23203653Y14915133D01*
X23183003Y14920796D01*
X23182972Y14920677D01*
X23175123Y14922780D01*
X23175122Y14922781D01*
X23059731Y14953700D01*
X22940269Y14953700D01*
X22824878Y14922781D01*
X22824876Y14922781D01*
X22824876Y14922780D01*
X22721422Y14863050D01*
X22721419Y14863048D01*
X22636952Y14778581D01*
X22636950Y14778578D01*
X22578280Y14676959D01*
X22577219Y14675122D01*
X22546300Y14559731D01*
X22546300Y14440269D01*
X22577219Y14324878D01*
X22636950Y14221422D01*
X22721422Y14136950D01*
X22824878Y14077219D01*
X22940269Y14046300D01*
X22940271Y14046300D01*
X23059728Y14046300D01*
X23059731Y14046300D01*
X23175122Y14077219D01*
X23278578Y14136950D01*
X23363050Y14221422D01*
X23363054Y14221430D01*
X23366755Y14226252D01*
X23423180Y14267459D01*
X23492925Y14271619D01*
X23552817Y14238454D01*
X23922589Y13868683D01*
X24278745Y13512527D01*
X24278747Y13512524D01*
X24335292Y13455979D01*
X24394519Y13421784D01*
X24402230Y13417332D01*
X24402234Y13417329D01*
X24404540Y13415998D01*
X24404541Y13415998D01*
X24404544Y13415996D01*
X24481784Y13395300D01*
X24481785Y13395300D01*
X30006642Y13395300D01*
X30073681Y13375615D01*
X30119436Y13322811D01*
X30129380Y13253653D01*
X30123683Y13230345D01*
X30099173Y13160304D01*
X30099173Y13160302D01*
X30096300Y13129658D01*
X30096300Y12070354D01*
X30096301Y12070348D01*
X30099174Y12039699D01*
X30099174Y12039697D01*
X30099175Y12039694D01*
X30144345Y11910607D01*
X30225561Y11800562D01*
X30280583Y11759954D01*
X30335605Y11719346D01*
X30367113Y11708321D01*
X30464697Y11674174D01*
X30472694Y11673425D01*
X30495347Y11671300D01*
X31104652Y11671301D01*
X31135301Y11674174D01*
X31264395Y11719346D01*
X31374438Y11800562D01*
X31455654Y11910605D01*
X31496936Y12028581D01*
X31500826Y12039697D01*
X31500826Y12039699D01*
X31502087Y12053148D01*
X31503700Y12070347D01*
X31503699Y13129652D01*
X31500826Y13160301D01*
X31485640Y13203700D01*
X31476317Y13230345D01*
X31472755Y13300124D01*
X31507483Y13360751D01*
X31569477Y13392979D01*
X31593358Y13395300D01*
X31963980Y13395300D01*
X31963983Y13395300D01*
X32002603Y13405648D01*
X32041221Y13415995D01*
X32041221Y13415996D01*
X32041224Y13415996D01*
X32110476Y13455979D01*
X32253285Y13598788D01*
X35635630Y13598788D01*
X35635630Y13492492D01*
X35663141Y13389817D01*
X35663142Y13389816D01*
X35663142Y13389815D01*
X35679922Y13360751D01*
X35716289Y13297762D01*
X35716291Y13297760D01*
X35755730Y13258321D01*
X35789215Y13196998D01*
X35784231Y13127306D01*
X35755730Y13082959D01*
X35716291Y13043521D01*
X35716287Y13043515D01*
X35663142Y12951466D01*
X35663142Y12951465D01*
X35663141Y12951463D01*
X35635630Y12848788D01*
X35635630Y12742492D01*
X35663141Y12639817D01*
X35716289Y12547762D01*
X35716291Y12547760D01*
X35780730Y12483321D01*
X35814215Y12421998D01*
X35809231Y12352306D01*
X35780730Y12307959D01*
X35716291Y12243521D01*
X35716287Y12243515D01*
X35663142Y12151466D01*
X35663142Y12151465D01*
X35663141Y12151463D01*
X35635630Y12048788D01*
X35635630Y11942492D01*
X35663141Y11839817D01*
X35716289Y11747762D01*
X35716291Y11747760D01*
X35755730Y11708321D01*
X35789215Y11646998D01*
X35784231Y11577306D01*
X35755730Y11532959D01*
X35716291Y11493521D01*
X35716287Y11493515D01*
X35663142Y11401466D01*
X35663142Y11401465D01*
X35663141Y11401463D01*
X35635630Y11298788D01*
X35635630Y11192492D01*
X35663141Y11089817D01*
X35716289Y10997762D01*
X35716291Y10997760D01*
X35755730Y10958321D01*
X35789215Y10896998D01*
X35784231Y10827306D01*
X35755730Y10782959D01*
X35716291Y10743521D01*
X35716287Y10743515D01*
X35663142Y10651466D01*
X35663142Y10651465D01*
X35663141Y10651463D01*
X35635630Y10548788D01*
X35635630Y10442492D01*
X35663141Y10339817D01*
X35716289Y10247762D01*
X35716291Y10247760D01*
X35791452Y10172599D01*
X35796125Y10169013D01*
X35837326Y10112584D01*
X35841478Y10042838D01*
X35807264Y9981919D01*
X35796125Y9972267D01*
X35791452Y9968682D01*
X35716291Y9893521D01*
X35716287Y9893515D01*
X35663142Y9801466D01*
X35663142Y9801465D01*
X35663141Y9801463D01*
X35635630Y9698788D01*
X35635630Y9592492D01*
X35663141Y9489817D01*
X35716289Y9397762D01*
X35791452Y9322599D01*
X35883507Y9269451D01*
X35986182Y9241940D01*
X35986184Y9241940D01*
X36092476Y9241940D01*
X36092478Y9241940D01*
X36195153Y9269451D01*
X36287208Y9322599D01*
X36362371Y9397762D01*
X36381943Y9431663D01*
X36432510Y9479877D01*
X36501117Y9493101D01*
X36565981Y9467133D01*
X36596716Y9431663D01*
X36616289Y9397762D01*
X36691452Y9322599D01*
X36783507Y9269451D01*
X36886182Y9241940D01*
X36886184Y9241940D01*
X36992476Y9241940D01*
X36992478Y9241940D01*
X37095153Y9269451D01*
X37187208Y9322599D01*
X37262371Y9397762D01*
X37315519Y9489817D01*
X37343030Y9592492D01*
X37343030Y9698788D01*
X37315519Y9801463D01*
X37262371Y9893518D01*
X37187208Y9968681D01*
X37187206Y9968682D01*
X37182538Y9972264D01*
X37141335Y10028691D01*
X37137180Y10098437D01*
X37171392Y10159358D01*
X37182538Y10169016D01*
X37187201Y10172596D01*
X37187208Y10172599D01*
X37262371Y10247762D01*
X37315519Y10339817D01*
X37343030Y10442492D01*
X37343030Y10548788D01*
X37315519Y10651463D01*
X37262371Y10743518D01*
X37222930Y10782959D01*
X37189445Y10844282D01*
X37194429Y10913974D01*
X37222930Y10958321D01*
X37240798Y10976189D01*
X37262371Y10997762D01*
X37315519Y11089817D01*
X37343030Y11192492D01*
X37343030Y11298788D01*
X37315519Y11401463D01*
X37262371Y11493518D01*
X37222930Y11532959D01*
X37189445Y11594282D01*
X37194429Y11663974D01*
X37222930Y11708321D01*
X37233955Y11719346D01*
X37262371Y11747762D01*
X37315519Y11839817D01*
X37343030Y11942492D01*
X37343030Y12048788D01*
X37315519Y12151463D01*
X37262371Y12243518D01*
X37197930Y12307959D01*
X37164445Y12369282D01*
X37169429Y12438974D01*
X37197930Y12483321D01*
X37202290Y12487681D01*
X37262371Y12547762D01*
X37315519Y12639817D01*
X37343030Y12742492D01*
X37343030Y12848788D01*
X37315519Y12951463D01*
X37262371Y13043518D01*
X37222930Y13082959D01*
X37189445Y13144282D01*
X37194429Y13213974D01*
X37222930Y13258321D01*
X37262371Y13297762D01*
X37315519Y13389817D01*
X37343030Y13492492D01*
X37343030Y13598788D01*
X37315519Y13701463D01*
X37262371Y13793518D01*
X37187208Y13868681D01*
X37095153Y13921829D01*
X36992478Y13949340D01*
X36886182Y13949340D01*
X36783507Y13921829D01*
X36783505Y13921828D01*
X36783504Y13921828D01*
X36691455Y13868683D01*
X36691449Y13868679D01*
X36616291Y13793521D01*
X36616289Y13793518D01*
X36596717Y13759618D01*
X36546149Y13711403D01*
X36477542Y13698181D01*
X36412678Y13724149D01*
X36381943Y13759618D01*
X36365255Y13788522D01*
X36362371Y13793518D01*
X36287208Y13868681D01*
X36195153Y13921829D01*
X36092478Y13949340D01*
X35986182Y13949340D01*
X35883507Y13921829D01*
X35883505Y13921828D01*
X35883504Y13921828D01*
X35791455Y13868683D01*
X35791449Y13868679D01*
X35716291Y13793521D01*
X35716287Y13793515D01*
X35663142Y13701466D01*
X35663142Y13701465D01*
X35663141Y13701463D01*
X35635630Y13598788D01*
X32253285Y13598788D01*
X32443021Y13788524D01*
X32483004Y13857776D01*
X32485927Y13868683D01*
X32503699Y13935014D01*
X32503700Y13935017D01*
X32503700Y14014983D01*
X32503700Y14483368D01*
X32523385Y14550407D01*
X32576189Y14596162D01*
X32595598Y14603140D01*
X32664361Y14621564D01*
X32756416Y14674712D01*
X32831579Y14749875D01*
X32884727Y14841930D01*
X32891694Y14867932D01*
X32928055Y14927588D01*
X32990901Y14958119D01*
X33060277Y14949825D01*
X33114156Y14905341D01*
X33131241Y14867932D01*
X33145257Y14815623D01*
X33198405Y14723568D01*
X33273568Y14648405D01*
X33365623Y14595257D01*
X33468298Y14567746D01*
X33468300Y14567746D01*
X33574592Y14567746D01*
X33574594Y14567746D01*
X33677269Y14595257D01*
X33769324Y14648405D01*
X33787952Y14667034D01*
X33849272Y14700519D01*
X33918964Y14695536D01*
X33951123Y14677726D01*
X33952123Y14676958D01*
X33969316Y14667032D01*
X34044177Y14623811D01*
X34146852Y14596300D01*
X34146854Y14596300D01*
X34253146Y14596300D01*
X34253148Y14596300D01*
X34355823Y14623811D01*
X34447878Y14676959D01*
X34523041Y14752122D01*
X34576189Y14844177D01*
X34603700Y14946852D01*
X34603700Y15053148D01*
X34576189Y15155823D01*
X34523041Y15247878D01*
X34447878Y15323041D01*
X34355823Y15376189D01*
X34253148Y15403700D01*
X34146852Y15403700D01*
X34044177Y15376189D01*
X34044175Y15376188D01*
X34044174Y15376188D01*
X33952125Y15323043D01*
X33952118Y15323038D01*
X33933491Y15304411D01*
X33872168Y15270927D01*
X33802476Y15275913D01*
X33770324Y15293719D01*
X33769328Y15294483D01*
X33769324Y15294487D01*
X33682377Y15344686D01*
X33677271Y15347634D01*
X33677270Y15347635D01*
X33677269Y15347635D01*
X33574594Y15375146D01*
X33468298Y15375146D01*
X33365623Y15347635D01*
X33365621Y15347634D01*
X33365620Y15347634D01*
X33273571Y15294489D01*
X33273565Y15294485D01*
X33198407Y15219327D01*
X33198403Y15219321D01*
X33145258Y15127272D01*
X33145256Y15127267D01*
X33138290Y15101269D01*
X33101925Y15041609D01*
X33039077Y15011081D01*
X32969702Y15019376D01*
X32915825Y15063862D01*
X32898742Y15101269D01*
X32884727Y15153576D01*
X32831579Y15245631D01*
X32756416Y15320794D01*
X32664361Y15373942D01*
X32561686Y15401453D01*
X32455390Y15401453D01*
X32352715Y15373942D01*
X32352713Y15373941D01*
X32352712Y15373941D01*
X32260663Y15320796D01*
X32260661Y15320795D01*
X32191286Y15251420D01*
X32129962Y15217936D01*
X32060271Y15222921D01*
X32041605Y15231715D01*
X31964576Y15276188D01*
X31964575Y15276189D01*
X31964574Y15276189D01*
X31861899Y15303700D01*
X31755603Y15303700D01*
X31652928Y15276189D01*
X31652926Y15276188D01*
X31652925Y15276188D01*
X31560876Y15223043D01*
X31560874Y15223042D01*
X31496094Y15158262D01*
X31488147Y15153924D01*
X31482723Y15146677D01*
X31457963Y15137443D01*
X31434770Y15124778D01*
X31425741Y15125424D01*
X31417259Y15122260D01*
X31391434Y15127878D01*
X31365079Y15129763D01*
X31356027Y15135581D01*
X31348986Y15137112D01*
X31320732Y15158263D01*
X31299495Y15179500D01*
X31266010Y15240823D01*
X31263176Y15267181D01*
X31263176Y15762272D01*
X31263176Y15762273D01*
X31232662Y15835939D01*
X31225313Y15853682D01*
X31225311Y15853684D01*
X31225311Y15853685D01*
X31004518Y16074477D01*
X30578160Y16500835D01*
X30578158Y16500837D01*
X30578154Y16500839D01*
X30578152Y16500840D01*
X30539147Y16516996D01*
X30486751Y16538700D01*
X30486749Y16538700D01*
X29025760Y16538700D01*
X28958721Y16558385D01*
X28912966Y16611189D01*
X28903022Y16680347D01*
X28905985Y16694793D01*
X28909577Y16708198D01*
X28938063Y16814509D01*
X28938063Y16933971D01*
X28907144Y17049362D01*
X28847413Y17152818D01*
X28762941Y17237290D01*
X28711213Y17267156D01*
X28659486Y17297021D01*
X28657943Y17297434D01*
X28544094Y17327940D01*
X28424632Y17327940D01*
X28309241Y17297021D01*
X28309239Y17297021D01*
X28309239Y17297020D01*
X28205785Y17237290D01*
X28205782Y17237288D01*
X28121315Y17152821D01*
X28121313Y17152818D01*
X28057518Y17042323D01*
X28054517Y17044056D01*
X28020294Y17002034D01*
X27953886Y16980313D01*
X27886277Y16997942D01*
X27862421Y17016574D01*
X27469264Y17409731D01*
X29521300Y17409731D01*
X29521300Y17290269D01*
X29552219Y17174878D01*
X29611950Y17071422D01*
X29696422Y16986950D01*
X29799878Y16927219D01*
X29915269Y16896300D01*
X29915271Y16896300D01*
X30034728Y16896300D01*
X30034731Y16896300D01*
X30150122Y16927219D01*
X30253578Y16986950D01*
X30287319Y17020691D01*
X30348642Y17054176D01*
X30418334Y17049192D01*
X30462681Y17020691D01*
X30496422Y16986950D01*
X30599878Y16927219D01*
X30715269Y16896300D01*
X30715271Y16896300D01*
X30834728Y16896300D01*
X30834731Y16896300D01*
X30950122Y16927219D01*
X31053578Y16986950D01*
X31087319Y17020691D01*
X31148642Y17054176D01*
X31218334Y17049192D01*
X31262681Y17020691D01*
X31296422Y16986950D01*
X31399878Y16927219D01*
X31515269Y16896300D01*
X31515271Y16896300D01*
X31634728Y16896300D01*
X31634731Y16896300D01*
X31750122Y16927219D01*
X31853578Y16986950D01*
X31938050Y17071422D01*
X31997781Y17174878D01*
X32028700Y17290269D01*
X32028700Y17409731D01*
X31997781Y17525122D01*
X31938050Y17628578D01*
X31853578Y17713050D01*
X31750122Y17772781D01*
X31634731Y17803700D01*
X31515269Y17803700D01*
X31399878Y17772781D01*
X31399876Y17772781D01*
X31399876Y17772780D01*
X31296422Y17713050D01*
X31296419Y17713048D01*
X31262681Y17679309D01*
X31201358Y17645824D01*
X31131666Y17650808D01*
X31087319Y17679309D01*
X31053580Y17713048D01*
X31053578Y17713050D01*
X30950122Y17772781D01*
X30834731Y17803700D01*
X30715269Y17803700D01*
X30599878Y17772781D01*
X30599876Y17772781D01*
X30599876Y17772780D01*
X30496422Y17713050D01*
X30496419Y17713048D01*
X30462681Y17679309D01*
X30401358Y17645824D01*
X30331666Y17650808D01*
X30287319Y17679309D01*
X30253580Y17713048D01*
X30253578Y17713050D01*
X30150122Y17772781D01*
X30034731Y17803700D01*
X29915269Y17803700D01*
X29799878Y17772781D01*
X29799876Y17772781D01*
X29799876Y17772780D01*
X29696422Y17713050D01*
X29696419Y17713048D01*
X29611952Y17628581D01*
X29611950Y17628578D01*
X29552219Y17525122D01*
X29521300Y17409731D01*
X27469264Y17409731D01*
X27078157Y17800838D01*
X27051386Y17811926D01*
X27051383Y17811929D01*
X27051383Y17811928D01*
X26986749Y17838700D01*
X22213251Y17838700D01*
X22213249Y17838700D01*
X22148615Y17811927D01*
X22121840Y17800837D01*
X20896025Y16575020D01*
X20834702Y16541535D01*
X20808344Y16538701D01*
X19472332Y16538701D01*
X19405293Y16558386D01*
X19359538Y16611190D01*
X19349594Y16680348D01*
X19364944Y16724700D01*
X19376188Y16744176D01*
X19376189Y16744177D01*
X19403700Y16846852D01*
X19403700Y16953148D01*
X19376189Y17055823D01*
X19323041Y17147878D01*
X19247878Y17223041D01*
X19155823Y17276189D01*
X19053148Y17303700D01*
X18946852Y17303700D01*
X18844177Y17276189D01*
X18844175Y17276188D01*
X18844174Y17276188D01*
X18752125Y17223043D01*
X18752119Y17223039D01*
X18671212Y17142131D01*
X18669215Y17144128D01*
X18623844Y17111006D01*
X18581910Y17103700D01*
X16014603Y17103700D01*
X15952603Y17120313D01*
X15855825Y17176188D01*
X15855824Y17176189D01*
X15855823Y17176189D01*
X15753148Y17203700D01*
X15646852Y17203700D01*
X15544177Y17176189D01*
X15544175Y17176188D01*
X15544174Y17176188D01*
X15452125Y17123043D01*
X15452119Y17123039D01*
X15376961Y17047881D01*
X15376957Y17047875D01*
X15323812Y16955826D01*
X15323812Y16955825D01*
X15323811Y16955823D01*
X15296300Y16853148D01*
X15296300Y16746852D01*
X15302235Y16724700D01*
X15310249Y16694794D01*
X15308586Y16624944D01*
X15269423Y16567082D01*
X15205195Y16539578D01*
X15190474Y16538701D01*
X13137700Y16538701D01*
X13070661Y16558386D01*
X13024906Y16611190D01*
X13013700Y16662701D01*
X13013700Y16920266D01*
X13013700Y16920272D01*
X13007110Y16970328D01*
X12955886Y17080179D01*
X12870179Y17165886D01*
X12850898Y17174877D01*
X12760331Y17217109D01*
X12760329Y17217110D01*
X12760328Y17217110D01*
X12760325Y17217111D01*
X12760323Y17217111D01*
X12710282Y17223699D01*
X12710277Y17223700D01*
X12710272Y17223700D01*
X12289728Y17223700D01*
X12289722Y17223700D01*
X12289717Y17223699D01*
X12239676Y17217111D01*
X12239668Y17217109D01*
X12129820Y17165886D01*
X12044114Y17080180D01*
X11992891Y16970332D01*
X11992889Y16970324D01*
X11986301Y16920283D01*
X11986300Y16920266D01*
X11986300Y16662700D01*
X11966615Y16595661D01*
X11913811Y16549906D01*
X11862300Y16538700D01*
X10770998Y16538700D01*
X10703959Y16558385D01*
X10658204Y16611189D01*
X10648260Y16680347D01*
X10655647Y16708198D01*
X10659985Y16719197D01*
X10667191Y16732080D01*
X10667656Y16731815D01*
X10678087Y16750150D01*
X10689335Y16773083D01*
X10695554Y16809229D01*
X10696145Y16809055D01*
X10700242Y16823004D01*
X10708700Y16881817D01*
X10708700Y17547413D01*
X10955886Y17547413D01*
X10955886Y17441117D01*
X10983397Y17338442D01*
X11036545Y17246387D01*
X11111708Y17171224D01*
X11203763Y17118076D01*
X11306438Y17090565D01*
X11306440Y17090565D01*
X11412732Y17090565D01*
X11412734Y17090565D01*
X11515409Y17118076D01*
X11607464Y17171224D01*
X11682627Y17246387D01*
X11735775Y17338442D01*
X11738816Y17349795D01*
X11770909Y17405383D01*
X11934030Y17568502D01*
X11980596Y17649156D01*
X12004700Y17739114D01*
X12004700Y17832244D01*
X12004700Y18283690D01*
X32046299Y18283690D01*
X32080627Y18155578D01*
X32080628Y18155577D01*
X32146937Y18040725D01*
X32146939Y18040722D01*
X32146940Y18040721D01*
X32240721Y17946940D01*
X32355579Y17880627D01*
X32483687Y17846300D01*
X32483690Y17846300D01*
X32616310Y17846300D01*
X32616313Y17846300D01*
X32744421Y17880627D01*
X32859279Y17946940D01*
X32953060Y18040721D01*
X33019373Y18155579D01*
X33053700Y18283687D01*
X33053700Y18416313D01*
X33019373Y18544421D01*
X32986216Y18601850D01*
X32953062Y18659276D01*
X32953058Y18659281D01*
X32859280Y18753059D01*
X32859275Y18753063D01*
X32744423Y18819372D01*
X32744422Y18819373D01*
X32712394Y18827955D01*
X32616313Y18853700D01*
X32483687Y18853700D01*
X32409551Y18833835D01*
X32355577Y18819373D01*
X32355576Y18819372D01*
X32240724Y18753063D01*
X32240719Y18753059D01*
X32146941Y18659281D01*
X32146937Y18659276D01*
X32080628Y18544424D01*
X32080627Y18544423D01*
X32074254Y18520638D01*
X32046300Y18416313D01*
X32046300Y18416311D01*
X32046300Y18283690D01*
X32046299Y18283690D01*
X12004700Y18283690D01*
X12004700Y18895565D01*
X12004700Y18895566D01*
X12003822Y18902232D01*
X12003822Y18925558D01*
X12003700Y18925558D01*
X12003700Y19066311D01*
X12003700Y19066313D01*
X11969373Y19194421D01*
X11903060Y19309279D01*
X11859191Y19353148D01*
X12596300Y19353148D01*
X12596300Y19246852D01*
X12623811Y19144177D01*
X12676959Y19052122D01*
X12752122Y18976959D01*
X12844177Y18923811D01*
X12946852Y18896300D01*
X12946854Y18896300D01*
X13053146Y18896300D01*
X13053148Y18896300D01*
X13155823Y18923811D01*
X13247878Y18976959D01*
X13323041Y19052122D01*
X13376189Y19144177D01*
X13403700Y19246852D01*
X13403700Y19353148D01*
X13376189Y19455823D01*
X13323041Y19547878D01*
X13247878Y19623041D01*
X13155823Y19676189D01*
X13053148Y19703700D01*
X12946852Y19703700D01*
X12844177Y19676189D01*
X12844175Y19676188D01*
X12844174Y19676188D01*
X12752125Y19623043D01*
X12752119Y19623039D01*
X12676961Y19547881D01*
X12676957Y19547875D01*
X12623812Y19455826D01*
X12623812Y19455825D01*
X12623811Y19455823D01*
X12596300Y19353148D01*
X11859191Y19353148D01*
X11809279Y19403060D01*
X11809278Y19403061D01*
X11809275Y19403063D01*
X11694423Y19469372D01*
X11694422Y19469373D01*
X11662394Y19477955D01*
X11566313Y19503700D01*
X11433687Y19503700D01*
X11356822Y19483104D01*
X11305577Y19469373D01*
X11305576Y19469372D01*
X11190724Y19403063D01*
X11190719Y19403059D01*
X11096941Y19309281D01*
X11096937Y19309276D01*
X11030628Y19194424D01*
X11030627Y19194423D01*
X11028215Y19185421D01*
X10996300Y19066313D01*
X10996300Y19066311D01*
X10996300Y18933690D01*
X10996299Y18933690D01*
X11030627Y18805578D01*
X11030628Y18805577D01*
X11096937Y18690725D01*
X11096939Y18690722D01*
X11096940Y18690721D01*
X11190721Y18596940D01*
X11235298Y18571204D01*
X11283515Y18520638D01*
X11297300Y18463816D01*
X11297300Y17990666D01*
X11277615Y17923627D01*
X11224811Y17877872D01*
X11205397Y17870892D01*
X11203763Y17870455D01*
X11111708Y17817306D01*
X11111705Y17817304D01*
X11036547Y17742146D01*
X11036543Y17742140D01*
X10983398Y17650091D01*
X10983398Y17650090D01*
X10983397Y17650088D01*
X10955886Y17547413D01*
X10708700Y17547413D01*
X10708700Y20083570D01*
X15358800Y20083570D01*
X15358800Y19716437D01*
X15364534Y19677080D01*
X15368817Y19647681D01*
X15404287Y19575124D01*
X15420662Y19541629D01*
X15504128Y19458163D01*
X15504129Y19458163D01*
X15504131Y19458161D01*
X15610181Y19406317D01*
X15610184Y19406317D01*
X15610186Y19406316D01*
X15626764Y19403901D01*
X15678931Y19396300D01*
X16771068Y19396301D01*
X16839819Y19406317D01*
X16945869Y19458161D01*
X17029339Y19541631D01*
X17081183Y19647681D01*
X17091200Y19716431D01*
X17091199Y20083568D01*
X17091199Y20083570D01*
X17633800Y20083570D01*
X17633800Y19716437D01*
X17639534Y19677080D01*
X17643817Y19647681D01*
X17679287Y19575124D01*
X17695662Y19541629D01*
X17779128Y19458163D01*
X17779129Y19458163D01*
X17779131Y19458161D01*
X17885181Y19406317D01*
X17885184Y19406317D01*
X17885186Y19406316D01*
X17901764Y19403901D01*
X17953931Y19396300D01*
X19046068Y19396301D01*
X19114819Y19406317D01*
X19220869Y19458161D01*
X19304339Y19541631D01*
X19356183Y19647681D01*
X19366200Y19716431D01*
X19366199Y20083568D01*
X19356183Y20152319D01*
X19355778Y20153148D01*
X20496300Y20153148D01*
X20496300Y20046852D01*
X20523811Y19944177D01*
X20576959Y19852122D01*
X20652122Y19776959D01*
X20744177Y19723811D01*
X20846852Y19696300D01*
X20846854Y19696300D01*
X20953146Y19696300D01*
X20953148Y19696300D01*
X21055823Y19723811D01*
X21147878Y19776959D01*
X21167461Y19796542D01*
X28020807Y19796542D01*
X28020807Y19677080D01*
X28051726Y19561689D01*
X28111457Y19458233D01*
X28195929Y19373761D01*
X28299385Y19314030D01*
X28414776Y19283111D01*
X28414778Y19283111D01*
X28534235Y19283111D01*
X28534238Y19283111D01*
X28649629Y19314030D01*
X28753085Y19373761D01*
X28837557Y19458233D01*
X28838422Y19459731D01*
X29521300Y19459731D01*
X29521300Y19340269D01*
X29552219Y19224878D01*
X29611950Y19121422D01*
X29696422Y19036950D01*
X29799878Y18977219D01*
X29915269Y18946300D01*
X29915271Y18946300D01*
X30034728Y18946300D01*
X30034731Y18946300D01*
X30150122Y18977219D01*
X30253578Y19036950D01*
X30287319Y19070691D01*
X30348642Y19104176D01*
X30418334Y19099192D01*
X30462681Y19070691D01*
X30496422Y19036950D01*
X30599878Y18977219D01*
X30715269Y18946300D01*
X30715271Y18946300D01*
X30834728Y18946300D01*
X30834731Y18946300D01*
X30950122Y18977219D01*
X31053578Y19036950D01*
X31087319Y19070691D01*
X31148642Y19104176D01*
X31218334Y19099192D01*
X31262681Y19070691D01*
X31296422Y19036950D01*
X31399878Y18977219D01*
X31515269Y18946300D01*
X31515271Y18946300D01*
X31634728Y18946300D01*
X31634731Y18946300D01*
X31750122Y18977219D01*
X31853578Y19036950D01*
X31938050Y19121422D01*
X31997781Y19224878D01*
X32028700Y19340269D01*
X32028700Y19459731D01*
X31997781Y19575122D01*
X31938050Y19678578D01*
X31853578Y19763050D01*
X31750122Y19822781D01*
X31634731Y19853700D01*
X31515269Y19853700D01*
X31399878Y19822781D01*
X31399876Y19822781D01*
X31399876Y19822780D01*
X31296422Y19763050D01*
X31296419Y19763048D01*
X31262681Y19729309D01*
X31201358Y19695824D01*
X31131666Y19700808D01*
X31087319Y19729309D01*
X31053580Y19763048D01*
X31053578Y19763050D01*
X30950122Y19822781D01*
X30834731Y19853700D01*
X30715269Y19853700D01*
X30599878Y19822781D01*
X30599876Y19822781D01*
X30599876Y19822780D01*
X30496422Y19763050D01*
X30496419Y19763048D01*
X30462681Y19729309D01*
X30401358Y19695824D01*
X30331666Y19700808D01*
X30287319Y19729309D01*
X30253580Y19763048D01*
X30253578Y19763050D01*
X30150122Y19822781D01*
X30034731Y19853700D01*
X29915269Y19853700D01*
X29799878Y19822781D01*
X29799876Y19822781D01*
X29799876Y19822780D01*
X29696422Y19763050D01*
X29696419Y19763048D01*
X29611952Y19678581D01*
X29611950Y19678578D01*
X29579887Y19623043D01*
X29552219Y19575122D01*
X29521300Y19459731D01*
X28838422Y19459731D01*
X28863808Y19503700D01*
X28878912Y19529859D01*
X28897286Y19561686D01*
X28897287Y19561688D01*
X28897288Y19561689D01*
X28928207Y19677080D01*
X28928207Y19796542D01*
X28897288Y19911933D01*
X28837557Y20015389D01*
X28753085Y20099861D01*
X28649629Y20159592D01*
X28534238Y20190511D01*
X28414776Y20190511D01*
X28299385Y20159592D01*
X28299383Y20159592D01*
X28299383Y20159591D01*
X28195929Y20099861D01*
X28195926Y20099859D01*
X28111459Y20015392D01*
X28111457Y20015389D01*
X28051726Y19911933D01*
X28020807Y19796542D01*
X21167461Y19796542D01*
X21223041Y19852122D01*
X21228051Y19860801D01*
X21231441Y19866670D01*
X21257574Y19911935D01*
X21276189Y19944177D01*
X21303700Y20046852D01*
X21303700Y20153148D01*
X21276189Y20255823D01*
X21223041Y20347878D01*
X21147878Y20423041D01*
X21055823Y20476189D01*
X20953148Y20503700D01*
X20846852Y20503700D01*
X20744177Y20476189D01*
X20744175Y20476188D01*
X20744174Y20476188D01*
X20652125Y20423043D01*
X20652119Y20423039D01*
X20576961Y20347881D01*
X20576957Y20347875D01*
X20523812Y20255826D01*
X20523812Y20255825D01*
X20523811Y20255823D01*
X20496300Y20153148D01*
X19355778Y20153148D01*
X19304339Y20258369D01*
X19304337Y20258371D01*
X19304337Y20258372D01*
X19220871Y20341838D01*
X19144424Y20379210D01*
X19114819Y20393683D01*
X19114817Y20393684D01*
X19114813Y20393685D01*
X19046069Y20403700D01*
X17953936Y20403700D01*
X17885180Y20393683D01*
X17779128Y20341838D01*
X17695662Y20258372D01*
X17643817Y20152319D01*
X17643815Y20152314D01*
X17633800Y20083570D01*
X17091199Y20083570D01*
X17081183Y20152319D01*
X17029339Y20258369D01*
X17029337Y20258371D01*
X17029337Y20258372D01*
X16945871Y20341838D01*
X16869424Y20379210D01*
X16839819Y20393683D01*
X16839817Y20393684D01*
X16839813Y20393685D01*
X16771069Y20403700D01*
X15678936Y20403700D01*
X15610180Y20393683D01*
X15504128Y20341838D01*
X15420662Y20258372D01*
X15368817Y20152319D01*
X15368815Y20152314D01*
X15358800Y20083570D01*
X10708700Y20083570D01*
X10708700Y20836057D01*
X21456198Y20836057D01*
X21456198Y20729761D01*
X21483709Y20627086D01*
X21536857Y20535031D01*
X21612020Y20459868D01*
X21704075Y20406720D01*
X21806750Y20379209D01*
X21806752Y20379209D01*
X21913044Y20379209D01*
X21913046Y20379209D01*
X22015721Y20406720D01*
X22107776Y20459868D01*
X22182939Y20535031D01*
X22236087Y20627086D01*
X22263598Y20729761D01*
X22263598Y20836057D01*
X22259019Y20853148D01*
X22496300Y20853148D01*
X22496300Y20746852D01*
X22505857Y20711185D01*
X22523812Y20644175D01*
X22533678Y20627086D01*
X22576959Y20552122D01*
X22652122Y20476959D01*
X22744177Y20423811D01*
X22846852Y20396300D01*
X22846854Y20396300D01*
X22953146Y20396300D01*
X22953148Y20396300D01*
X23055823Y20423811D01*
X23147878Y20476959D01*
X23223041Y20552122D01*
X23276189Y20644177D01*
X23303700Y20746852D01*
X23303700Y20853148D01*
X23276189Y20955823D01*
X23223041Y21047878D01*
X23211188Y21059731D01*
X23746300Y21059731D01*
X23746300Y20940269D01*
X23777219Y20824878D01*
X23836950Y20721422D01*
X23921422Y20636950D01*
X24024878Y20577219D01*
X24140269Y20546300D01*
X24140271Y20546300D01*
X24259728Y20546300D01*
X24259731Y20546300D01*
X24375122Y20577219D01*
X24478578Y20636950D01*
X24563050Y20721422D01*
X24622781Y20824878D01*
X24653700Y20940269D01*
X24653700Y21059731D01*
X24946300Y21059731D01*
X24946300Y20940269D01*
X24977219Y20824878D01*
X25036950Y20721422D01*
X25121422Y20636950D01*
X25224878Y20577219D01*
X25340269Y20546300D01*
X25340271Y20546300D01*
X25459728Y20546300D01*
X25459731Y20546300D01*
X25575122Y20577219D01*
X25678578Y20636950D01*
X25763050Y20721422D01*
X25822781Y20824878D01*
X25853700Y20940269D01*
X25853700Y21059731D01*
X26146300Y21059731D01*
X26146300Y20940269D01*
X26177219Y20824878D01*
X26236950Y20721422D01*
X26321422Y20636950D01*
X26424878Y20577219D01*
X26540269Y20546300D01*
X26540271Y20546300D01*
X26659728Y20546300D01*
X26659731Y20546300D01*
X26775122Y20577219D01*
X26878578Y20636950D01*
X26963050Y20721422D01*
X27022781Y20824878D01*
X27053700Y20940269D01*
X27053700Y21059731D01*
X27346300Y21059731D01*
X27346300Y20940269D01*
X27377219Y20824878D01*
X27436950Y20721422D01*
X27521422Y20636950D01*
X27624878Y20577219D01*
X27740269Y20546300D01*
X27740271Y20546300D01*
X27859728Y20546300D01*
X27859731Y20546300D01*
X27975122Y20577219D01*
X28078578Y20636950D01*
X28163050Y20721422D01*
X28222781Y20824878D01*
X28253700Y20940269D01*
X28253700Y21059731D01*
X28746300Y21059731D01*
X28746300Y20940269D01*
X28777219Y20824878D01*
X28836950Y20721422D01*
X28921422Y20636950D01*
X29024878Y20577219D01*
X29140269Y20546300D01*
X29140271Y20546300D01*
X29259728Y20546300D01*
X29259731Y20546300D01*
X29375122Y20577219D01*
X29478578Y20636950D01*
X29563050Y20721422D01*
X29622781Y20824878D01*
X29653700Y20940269D01*
X29653700Y21059731D01*
X29622781Y21175122D01*
X29563050Y21278578D01*
X29478578Y21363050D01*
X29375122Y21422781D01*
X29334409Y21433690D01*
X30996299Y21433690D01*
X31030627Y21305578D01*
X31030628Y21305577D01*
X31096937Y21190725D01*
X31096939Y21190722D01*
X31096940Y21190721D01*
X31190721Y21096940D01*
X31305579Y21030627D01*
X31433687Y20996300D01*
X31433690Y20996300D01*
X31566310Y20996300D01*
X31566313Y20996300D01*
X31694421Y21030627D01*
X31809279Y21096940D01*
X31903060Y21190721D01*
X31969373Y21305579D01*
X32003700Y21433687D01*
X32003700Y21566313D01*
X31969373Y21694421D01*
X31921569Y21777221D01*
X31903062Y21809276D01*
X31903058Y21809281D01*
X31809280Y21903059D01*
X31809275Y21903063D01*
X31694423Y21969372D01*
X31694422Y21969373D01*
X31641445Y21983568D01*
X31566313Y22003700D01*
X31433687Y22003700D01*
X31359465Y21983812D01*
X31305577Y21969373D01*
X31305576Y21969372D01*
X31190724Y21903063D01*
X31190719Y21903059D01*
X31096941Y21809281D01*
X31096937Y21809276D01*
X31030628Y21694424D01*
X31030627Y21694423D01*
X31025741Y21676188D01*
X30996300Y21566313D01*
X30996300Y21566311D01*
X30996300Y21433690D01*
X30996299Y21433690D01*
X29334409Y21433690D01*
X29259731Y21453700D01*
X29140269Y21453700D01*
X29024878Y21422781D01*
X29024876Y21422781D01*
X29024876Y21422780D01*
X28921422Y21363050D01*
X28921419Y21363048D01*
X28836952Y21278581D01*
X28836950Y21278578D01*
X28786225Y21190720D01*
X28777219Y21175122D01*
X28746300Y21059731D01*
X28253700Y21059731D01*
X28222781Y21175122D01*
X28163050Y21278578D01*
X28078578Y21363050D01*
X27975122Y21422781D01*
X27859731Y21453700D01*
X27740269Y21453700D01*
X27624878Y21422781D01*
X27624876Y21422781D01*
X27624876Y21422780D01*
X27521422Y21363050D01*
X27521419Y21363048D01*
X27436952Y21278581D01*
X27436950Y21278578D01*
X27386225Y21190720D01*
X27377219Y21175122D01*
X27346300Y21059731D01*
X27053700Y21059731D01*
X27022781Y21175122D01*
X26963050Y21278578D01*
X26878578Y21363050D01*
X26775122Y21422781D01*
X26659731Y21453700D01*
X26540269Y21453700D01*
X26424878Y21422781D01*
X26424876Y21422781D01*
X26424876Y21422780D01*
X26321422Y21363050D01*
X26321419Y21363048D01*
X26236952Y21278581D01*
X26236950Y21278578D01*
X26186225Y21190720D01*
X26177219Y21175122D01*
X26146300Y21059731D01*
X25853700Y21059731D01*
X25822781Y21175122D01*
X25763050Y21278578D01*
X25678578Y21363050D01*
X25575122Y21422781D01*
X25459731Y21453700D01*
X25340269Y21453700D01*
X25224878Y21422781D01*
X25224876Y21422781D01*
X25224876Y21422780D01*
X25121422Y21363050D01*
X25121419Y21363048D01*
X25036952Y21278581D01*
X25036950Y21278578D01*
X24986225Y21190720D01*
X24977219Y21175122D01*
X24946300Y21059731D01*
X24653700Y21059731D01*
X24622781Y21175122D01*
X24563050Y21278578D01*
X24478578Y21363050D01*
X24375122Y21422781D01*
X24259731Y21453700D01*
X24140269Y21453700D01*
X24024878Y21422781D01*
X24024876Y21422781D01*
X24024876Y21422780D01*
X23921422Y21363050D01*
X23921419Y21363048D01*
X23836952Y21278581D01*
X23836950Y21278578D01*
X23786225Y21190720D01*
X23777219Y21175122D01*
X23746300Y21059731D01*
X23211188Y21059731D01*
X23147878Y21123041D01*
X23055823Y21176189D01*
X22953148Y21203700D01*
X22846852Y21203700D01*
X22744177Y21176189D01*
X22744175Y21176188D01*
X22744174Y21176188D01*
X22652125Y21123043D01*
X22652119Y21123039D01*
X22576961Y21047881D01*
X22576957Y21047875D01*
X22523812Y20955826D01*
X22523812Y20955825D01*
X22523811Y20955823D01*
X22519232Y20938734D01*
X22502040Y20874573D01*
X22502040Y20874571D01*
X22496300Y20853148D01*
X22259019Y20853148D01*
X22236087Y20938732D01*
X22182939Y21030787D01*
X22107776Y21105950D01*
X22015721Y21159098D01*
X21913046Y21186609D01*
X21806750Y21186609D01*
X21704075Y21159098D01*
X21704073Y21159097D01*
X21704072Y21159097D01*
X21612023Y21105952D01*
X21612017Y21105948D01*
X21536859Y21030790D01*
X21536855Y21030784D01*
X21483710Y20938735D01*
X21483710Y20938734D01*
X21483709Y20938732D01*
X21456198Y20836057D01*
X10708700Y20836057D01*
X10708700Y21353148D01*
X12596300Y21353148D01*
X12596300Y21246852D01*
X12623811Y21144177D01*
X12676959Y21052122D01*
X12752122Y20976959D01*
X12844177Y20923811D01*
X12946852Y20896300D01*
X12946854Y20896300D01*
X13053146Y20896300D01*
X13053148Y20896300D01*
X13155823Y20923811D01*
X13247878Y20976959D01*
X13323041Y21052122D01*
X13376189Y21144177D01*
X13403700Y21246852D01*
X13403700Y21353148D01*
X13376189Y21455823D01*
X13323041Y21547878D01*
X13247878Y21623041D01*
X13155823Y21676189D01*
X13053148Y21703700D01*
X12946852Y21703700D01*
X12844177Y21676189D01*
X12844175Y21676188D01*
X12844174Y21676188D01*
X12752125Y21623043D01*
X12752119Y21623039D01*
X12676961Y21547881D01*
X12676957Y21547875D01*
X12623812Y21455826D01*
X12623812Y21455825D01*
X12623811Y21455823D01*
X12596300Y21353148D01*
X10708700Y21353148D01*
X10708700Y22015710D01*
X10728385Y22082749D01*
X10745019Y22103391D01*
X10753753Y22112125D01*
X10763050Y22121422D01*
X10822781Y22224878D01*
X10853700Y22340269D01*
X10853700Y22395467D01*
X14277689Y22395467D01*
X14277689Y22289171D01*
X14305200Y22186496D01*
X14358348Y22094441D01*
X14433511Y22019278D01*
X14525566Y21966130D01*
X14628241Y21938619D01*
X14628243Y21938619D01*
X14633509Y21937208D01*
X14689097Y21905114D01*
X14980687Y21613524D01*
X15037232Y21556979D01*
X15106484Y21516996D01*
X15106486Y21516995D01*
X15183721Y21496301D01*
X15183725Y21496300D01*
X15317800Y21496300D01*
X15384839Y21476615D01*
X15418720Y21444350D01*
X15420664Y21441627D01*
X15504128Y21358163D01*
X15504129Y21358163D01*
X15504131Y21358161D01*
X15610181Y21306317D01*
X15610184Y21306317D01*
X15610186Y21306316D01*
X15626764Y21303901D01*
X15678931Y21296300D01*
X16771068Y21296301D01*
X16839819Y21306317D01*
X16945869Y21358161D01*
X17029339Y21441631D01*
X17081183Y21547681D01*
X17091200Y21616431D01*
X17091199Y21983568D01*
X17091199Y21983570D01*
X17633800Y21983570D01*
X17633800Y21616437D01*
X17643817Y21547681D01*
X17695662Y21441629D01*
X17779128Y21358163D01*
X17779129Y21358163D01*
X17779131Y21358161D01*
X17885181Y21306317D01*
X17885184Y21306317D01*
X17885186Y21306316D01*
X17901764Y21303901D01*
X17953931Y21296300D01*
X19046068Y21296301D01*
X19114819Y21306317D01*
X19220869Y21358161D01*
X19304339Y21441631D01*
X19304341Y21441637D01*
X19306280Y21444350D01*
X19309893Y21447185D01*
X19311196Y21448488D01*
X19313487Y21453503D01*
X19338168Y21469365D01*
X19361254Y21487474D01*
X19368518Y21488870D01*
X19372265Y21491277D01*
X19407200Y21496300D01*
X19540016Y21496300D01*
X19607055Y21476615D01*
X19641590Y21443424D01*
X19644110Y21439825D01*
X19644113Y21439822D01*
X19644114Y21439821D01*
X19729821Y21354114D01*
X19839672Y21302890D01*
X19889728Y21296300D01*
X19889735Y21296300D01*
X20310265Y21296300D01*
X20310272Y21296300D01*
X20360328Y21302890D01*
X20470179Y21354114D01*
X20547375Y21431310D01*
X20608698Y21464795D01*
X20678390Y21459811D01*
X20697057Y21451016D01*
X20744177Y21423811D01*
X20846852Y21396300D01*
X20846854Y21396300D01*
X20953146Y21396300D01*
X20953148Y21396300D01*
X21055823Y21423811D01*
X21147878Y21476959D01*
X21223041Y21552122D01*
X21276189Y21644177D01*
X21303700Y21746852D01*
X21303700Y21853148D01*
X21276189Y21955823D01*
X21223041Y22047878D01*
X21147878Y22123041D01*
X21055823Y22176189D01*
X20953148Y22203700D01*
X20846852Y22203700D01*
X20744177Y22176189D01*
X20744175Y22176188D01*
X20744174Y22176188D01*
X20671697Y22134343D01*
X20603796Y22117870D01*
X20537770Y22140723D01*
X20522016Y22154049D01*
X20470179Y22205886D01*
X20360331Y22257109D01*
X20360329Y22257110D01*
X20360328Y22257110D01*
X20360325Y22257111D01*
X20360323Y22257111D01*
X20340422Y22259731D01*
X23746300Y22259731D01*
X23746300Y22140269D01*
X23777219Y22024878D01*
X23836950Y21921422D01*
X23921422Y21836950D01*
X24024878Y21777219D01*
X24140269Y21746300D01*
X24140271Y21746300D01*
X24259728Y21746300D01*
X24259731Y21746300D01*
X24375122Y21777219D01*
X24478578Y21836950D01*
X24563050Y21921422D01*
X24622781Y22024878D01*
X24653700Y22140269D01*
X24653700Y22259731D01*
X24946300Y22259731D01*
X24946300Y22140269D01*
X24977219Y22024878D01*
X25036950Y21921422D01*
X25121422Y21836950D01*
X25224878Y21777219D01*
X25340269Y21746300D01*
X25340271Y21746300D01*
X25459728Y21746300D01*
X25459731Y21746300D01*
X25575122Y21777219D01*
X25678578Y21836950D01*
X25763050Y21921422D01*
X25822781Y22024878D01*
X25853700Y22140269D01*
X25853700Y22259731D01*
X26146300Y22259731D01*
X26146300Y22140269D01*
X26177219Y22024878D01*
X26236950Y21921422D01*
X26321422Y21836950D01*
X26424878Y21777219D01*
X26540269Y21746300D01*
X26540271Y21746300D01*
X26659728Y21746300D01*
X26659731Y21746300D01*
X26775122Y21777219D01*
X26878578Y21836950D01*
X26963050Y21921422D01*
X27022781Y22024878D01*
X27053700Y22140269D01*
X27053700Y22259731D01*
X27346300Y22259731D01*
X27346300Y22140269D01*
X27377219Y22024878D01*
X27436950Y21921422D01*
X27521422Y21836950D01*
X27624878Y21777219D01*
X27740269Y21746300D01*
X27740271Y21746300D01*
X27859728Y21746300D01*
X27859731Y21746300D01*
X27975122Y21777219D01*
X28078578Y21836950D01*
X28163050Y21921422D01*
X28222781Y22024878D01*
X28253700Y22140269D01*
X28253700Y22259731D01*
X28746300Y22259731D01*
X28746300Y22140269D01*
X28777219Y22024878D01*
X28836950Y21921422D01*
X28921422Y21836950D01*
X29024878Y21777219D01*
X29140269Y21746300D01*
X29140271Y21746300D01*
X29259728Y21746300D01*
X29259731Y21746300D01*
X29375122Y21777219D01*
X29478578Y21836950D01*
X29563050Y21921422D01*
X29622781Y22024878D01*
X29653700Y22140269D01*
X29653700Y22259731D01*
X29622781Y22375122D01*
X29563050Y22478578D01*
X29478578Y22563050D01*
X29375122Y22622781D01*
X29259731Y22653700D01*
X29140269Y22653700D01*
X29024878Y22622781D01*
X29024876Y22622781D01*
X29024876Y22622780D01*
X28921422Y22563050D01*
X28921419Y22563048D01*
X28836952Y22478581D01*
X28836950Y22478578D01*
X28777219Y22375122D01*
X28746300Y22259731D01*
X28253700Y22259731D01*
X28222781Y22375122D01*
X28163050Y22478578D01*
X28078578Y22563050D01*
X27975122Y22622781D01*
X27859731Y22653700D01*
X27740269Y22653700D01*
X27624878Y22622781D01*
X27624876Y22622781D01*
X27624876Y22622780D01*
X27521422Y22563050D01*
X27521419Y22563048D01*
X27436952Y22478581D01*
X27436950Y22478578D01*
X27377219Y22375122D01*
X27346300Y22259731D01*
X27053700Y22259731D01*
X27022781Y22375122D01*
X26963050Y22478578D01*
X26878578Y22563050D01*
X26775122Y22622781D01*
X26659731Y22653700D01*
X26540269Y22653700D01*
X26424878Y22622781D01*
X26424876Y22622781D01*
X26424876Y22622780D01*
X26321422Y22563050D01*
X26321419Y22563048D01*
X26236952Y22478581D01*
X26236950Y22478578D01*
X26177219Y22375122D01*
X26146300Y22259731D01*
X25853700Y22259731D01*
X25822781Y22375122D01*
X25763050Y22478578D01*
X25678578Y22563050D01*
X25575122Y22622781D01*
X25459731Y22653700D01*
X25340269Y22653700D01*
X25224878Y22622781D01*
X25224876Y22622781D01*
X25224876Y22622780D01*
X25121422Y22563050D01*
X25121419Y22563048D01*
X25036952Y22478581D01*
X25036950Y22478578D01*
X24977219Y22375122D01*
X24946300Y22259731D01*
X24653700Y22259731D01*
X24622781Y22375122D01*
X24563050Y22478578D01*
X24478578Y22563050D01*
X24375122Y22622781D01*
X24259731Y22653700D01*
X24140269Y22653700D01*
X24024878Y22622781D01*
X24024876Y22622781D01*
X24024876Y22622780D01*
X23921422Y22563050D01*
X23921419Y22563048D01*
X23836952Y22478581D01*
X23836950Y22478578D01*
X23777219Y22375122D01*
X23746300Y22259731D01*
X20340422Y22259731D01*
X20310282Y22263699D01*
X20310277Y22263700D01*
X20310272Y22263700D01*
X19889728Y22263700D01*
X19889722Y22263700D01*
X19889717Y22263699D01*
X19839676Y22257111D01*
X19839668Y22257109D01*
X19729822Y22205887D01*
X19663953Y22140018D01*
X19637022Y22125314D01*
X19611207Y22108723D01*
X19605004Y22107832D01*
X19602629Y22106534D01*
X19576272Y22103700D01*
X19407200Y22103700D01*
X19340161Y22123385D01*
X19306280Y22155650D01*
X19304335Y22158374D01*
X19220871Y22241838D01*
X19184274Y22259729D01*
X19114819Y22293683D01*
X19114817Y22293684D01*
X19114813Y22293685D01*
X19046069Y22303700D01*
X17953936Y22303700D01*
X17885180Y22293683D01*
X17779128Y22241838D01*
X17695662Y22158372D01*
X17643817Y22052319D01*
X17643815Y22052314D01*
X17633800Y21983570D01*
X17091199Y21983570D01*
X17081183Y22052319D01*
X17029339Y22158369D01*
X17029337Y22158371D01*
X17029337Y22158372D01*
X16945871Y22241838D01*
X16909274Y22259729D01*
X16839819Y22293683D01*
X16839817Y22293684D01*
X16839813Y22293685D01*
X16771069Y22303700D01*
X15678936Y22303700D01*
X15610180Y22293683D01*
X15504128Y22241838D01*
X15445429Y22183138D01*
X15437483Y22178800D01*
X15432058Y22171552D01*
X15407298Y22162318D01*
X15384106Y22149653D01*
X15375076Y22150299D01*
X15366594Y22147135D01*
X15340773Y22152752D01*
X15314414Y22154637D01*
X15305360Y22160456D01*
X15298321Y22161987D01*
X15270067Y22183138D01*
X15118594Y22334611D01*
X15086500Y22390199D01*
X15085089Y22395465D01*
X15085089Y22395467D01*
X15057578Y22498142D01*
X15004430Y22590197D01*
X14929267Y22665360D01*
X14837212Y22718508D01*
X14734537Y22746019D01*
X14628241Y22746019D01*
X14525566Y22718508D01*
X14525564Y22718507D01*
X14525563Y22718507D01*
X14433514Y22665362D01*
X14433508Y22665358D01*
X14358350Y22590200D01*
X14358346Y22590194D01*
X14305201Y22498145D01*
X14305201Y22498144D01*
X14305200Y22498142D01*
X14277689Y22395467D01*
X10853700Y22395467D01*
X10853700Y22459731D01*
X10822781Y22575122D01*
X10763050Y22678578D01*
X10763048Y22678580D01*
X10758986Y22685616D01*
X10761350Y22686982D01*
X10740975Y22739668D01*
X10755005Y22808114D01*
X10759021Y22814364D01*
X10758986Y22814384D01*
X10763048Y22821421D01*
X10763050Y22821422D01*
X10822781Y22924878D01*
X10853700Y23040269D01*
X10853700Y23103148D01*
X29996300Y23103148D01*
X29996300Y22996852D01*
X30023811Y22894177D01*
X30076959Y22802122D01*
X30152122Y22726959D01*
X30244177Y22673811D01*
X30346852Y22646300D01*
X30346854Y22646300D01*
X30453146Y22646300D01*
X30453148Y22646300D01*
X30555823Y22673811D01*
X30647878Y22726959D01*
X30668755Y22747837D01*
X30730074Y22781320D01*
X30799765Y22776337D01*
X30818434Y22767541D01*
X30852568Y22747834D01*
X30894177Y22723811D01*
X30996852Y22696300D01*
X30996854Y22696300D01*
X31103146Y22696300D01*
X31103148Y22696300D01*
X31205823Y22723811D01*
X31297878Y22776959D01*
X31373041Y22852122D01*
X31426189Y22944177D01*
X31453700Y23046852D01*
X31453700Y23153148D01*
X31426189Y23255823D01*
X31373041Y23347878D01*
X31297878Y23423041D01*
X31205823Y23476189D01*
X31103148Y23503700D01*
X30996852Y23503700D01*
X30894177Y23476189D01*
X30894175Y23476188D01*
X30894174Y23476188D01*
X30802125Y23423043D01*
X30802121Y23423041D01*
X30781242Y23402162D01*
X30719918Y23368680D01*
X30650226Y23373667D01*
X30631564Y23382460D01*
X30555825Y23426188D01*
X30555824Y23426189D01*
X30555823Y23426189D01*
X30453148Y23453700D01*
X30346852Y23453700D01*
X30244177Y23426189D01*
X30244175Y23426188D01*
X30244174Y23426188D01*
X30152125Y23373043D01*
X30152119Y23373039D01*
X30076961Y23297881D01*
X30076957Y23297875D01*
X30023812Y23205826D01*
X30023812Y23205825D01*
X30023811Y23205823D01*
X29996300Y23103148D01*
X10853700Y23103148D01*
X10853700Y23159731D01*
X10822781Y23275122D01*
X10763050Y23378578D01*
X10745019Y23396609D01*
X10711534Y23457932D01*
X10708700Y23484290D01*
X10708700Y23875992D01*
X10708699Y23876008D01*
X10707520Y23886969D01*
X10703930Y23920364D01*
X10692724Y23971875D01*
X10690198Y23982212D01*
X10646519Y24064181D01*
X10600764Y24116985D01*
X10600755Y24116994D01*
X10600748Y24117002D01*
X10582901Y24135216D01*
X10582894Y24135222D01*
X10518948Y24170990D01*
X10501838Y24180561D01*
X10476843Y24187901D01*
X10434800Y24200246D01*
X10434792Y24200248D01*
X10376001Y24208700D01*
X10376000Y24208700D01*
X9227700Y24208700D01*
X9160661Y24228385D01*
X9114906Y24281189D01*
X9103700Y24332700D01*
X9103700Y24672842D01*
X9123385Y24739881D01*
X9134076Y24753148D01*
X17196300Y24753148D01*
X17196300Y24646852D01*
X17223811Y24544177D01*
X17276959Y24452122D01*
X17352122Y24376959D01*
X17444177Y24323811D01*
X17459243Y24319775D01*
X17518903Y24283410D01*
X17549432Y24220563D01*
X17541137Y24151188D01*
X17496652Y24097310D01*
X17459244Y24080227D01*
X17444177Y24076189D01*
X17444175Y24076188D01*
X17444174Y24076188D01*
X17352125Y24023043D01*
X17352119Y24023039D01*
X17276961Y23947881D01*
X17276957Y23947875D01*
X17223812Y23855826D01*
X17223812Y23855825D01*
X17223811Y23855823D01*
X17196300Y23753148D01*
X17196300Y23646852D01*
X17223811Y23544177D01*
X17223812Y23544176D01*
X17223812Y23544175D01*
X17226067Y23540269D01*
X17276959Y23452122D01*
X17352122Y23376959D01*
X17444177Y23323811D01*
X17546852Y23296300D01*
X17546854Y23296300D01*
X17653146Y23296300D01*
X17653148Y23296300D01*
X17755823Y23323811D01*
X17847878Y23376959D01*
X17923041Y23452122D01*
X17976189Y23544177D01*
X18003700Y23646852D01*
X18003700Y23659731D01*
X23746300Y23659731D01*
X23746300Y23540269D01*
X23777219Y23424878D01*
X23836950Y23321422D01*
X23921422Y23236950D01*
X24024878Y23177219D01*
X24140269Y23146300D01*
X24140271Y23146300D01*
X24259728Y23146300D01*
X24259731Y23146300D01*
X24375122Y23177219D01*
X24478578Y23236950D01*
X24563050Y23321422D01*
X24622781Y23424878D01*
X24653700Y23540269D01*
X24653700Y23659731D01*
X24946300Y23659731D01*
X24946300Y23540269D01*
X24977219Y23424878D01*
X25036950Y23321422D01*
X25121422Y23236950D01*
X25224878Y23177219D01*
X25340269Y23146300D01*
X25340271Y23146300D01*
X25459728Y23146300D01*
X25459731Y23146300D01*
X25575122Y23177219D01*
X25678578Y23236950D01*
X25763050Y23321422D01*
X25822781Y23424878D01*
X25853700Y23540269D01*
X25853700Y23659731D01*
X26146300Y23659731D01*
X26146300Y23540269D01*
X26177219Y23424878D01*
X26236950Y23321422D01*
X26321422Y23236950D01*
X26424878Y23177219D01*
X26540269Y23146300D01*
X26540271Y23146300D01*
X26659728Y23146300D01*
X26659731Y23146300D01*
X26775122Y23177219D01*
X26878578Y23236950D01*
X26963050Y23321422D01*
X27022781Y23424878D01*
X27053700Y23540269D01*
X27053700Y23659731D01*
X27346300Y23659731D01*
X27346300Y23540269D01*
X27377219Y23424878D01*
X27436950Y23321422D01*
X27521422Y23236950D01*
X27624878Y23177219D01*
X27740269Y23146300D01*
X27740271Y23146300D01*
X27859728Y23146300D01*
X27859731Y23146300D01*
X27975122Y23177219D01*
X28078578Y23236950D01*
X28163050Y23321422D01*
X28222781Y23424878D01*
X28253700Y23540269D01*
X28253700Y23659731D01*
X28746300Y23659731D01*
X28746300Y23540269D01*
X28777219Y23424878D01*
X28836950Y23321422D01*
X28921422Y23236950D01*
X29024878Y23177219D01*
X29140269Y23146300D01*
X29140271Y23146300D01*
X29259728Y23146300D01*
X29259731Y23146300D01*
X29375122Y23177219D01*
X29478578Y23236950D01*
X29563050Y23321422D01*
X29622781Y23424878D01*
X29653700Y23540269D01*
X29653700Y23659731D01*
X29622781Y23775122D01*
X29563050Y23878578D01*
X29478578Y23963050D01*
X29375122Y24022781D01*
X29259731Y24053700D01*
X29140269Y24053700D01*
X29024878Y24022781D01*
X29024876Y24022781D01*
X29024876Y24022780D01*
X28921422Y23963050D01*
X28921419Y23963048D01*
X28836952Y23878581D01*
X28836950Y23878578D01*
X28788016Y23793822D01*
X28777219Y23775122D01*
X28746300Y23659731D01*
X28253700Y23659731D01*
X28222781Y23775122D01*
X28163050Y23878578D01*
X28078578Y23963050D01*
X27975122Y24022781D01*
X27859731Y24053700D01*
X27740269Y24053700D01*
X27624878Y24022781D01*
X27624876Y24022781D01*
X27624876Y24022780D01*
X27521422Y23963050D01*
X27521419Y23963048D01*
X27436952Y23878581D01*
X27436950Y23878578D01*
X27388016Y23793822D01*
X27377219Y23775122D01*
X27346300Y23659731D01*
X27053700Y23659731D01*
X27022781Y23775122D01*
X26963050Y23878578D01*
X26878578Y23963050D01*
X26775122Y24022781D01*
X26659731Y24053700D01*
X26540269Y24053700D01*
X26424878Y24022781D01*
X26424876Y24022781D01*
X26424876Y24022780D01*
X26321422Y23963050D01*
X26321419Y23963048D01*
X26236952Y23878581D01*
X26236950Y23878578D01*
X26188016Y23793822D01*
X26177219Y23775122D01*
X26146300Y23659731D01*
X25853700Y23659731D01*
X25822781Y23775122D01*
X25763050Y23878578D01*
X25678578Y23963050D01*
X25575122Y24022781D01*
X25459731Y24053700D01*
X25340269Y24053700D01*
X25224878Y24022781D01*
X25224876Y24022781D01*
X25224876Y24022780D01*
X25121422Y23963050D01*
X25121419Y23963048D01*
X25036952Y23878581D01*
X25036950Y23878578D01*
X24988016Y23793822D01*
X24977219Y23775122D01*
X24946300Y23659731D01*
X24653700Y23659731D01*
X24622781Y23775122D01*
X24563050Y23878578D01*
X24478578Y23963050D01*
X24375122Y24022781D01*
X24259731Y24053700D01*
X24140269Y24053700D01*
X24024878Y24022781D01*
X24024876Y24022781D01*
X24024876Y24022780D01*
X23921422Y23963050D01*
X23921419Y23963048D01*
X23836952Y23878581D01*
X23836950Y23878578D01*
X23788016Y23793822D01*
X23777219Y23775122D01*
X23746300Y23659731D01*
X18003700Y23659731D01*
X18003700Y23753148D01*
X17976189Y23855823D01*
X17923041Y23947878D01*
X17847878Y24023041D01*
X17786508Y24058473D01*
X17755825Y24076188D01*
X17755823Y24076189D01*
X17740756Y24080226D01*
X17681097Y24116589D01*
X17650567Y24179435D01*
X17658861Y24248811D01*
X17703346Y24302690D01*
X17740755Y24319774D01*
X17755823Y24323811D01*
X17847878Y24376959D01*
X17923041Y24452122D01*
X17976189Y24544177D01*
X18003700Y24646852D01*
X18003700Y24753148D01*
X17976189Y24855823D01*
X17923041Y24947878D01*
X17847878Y25023041D01*
X17769759Y25068143D01*
X17755825Y25076188D01*
X17755824Y25076189D01*
X17755823Y25076189D01*
X17653148Y25103700D01*
X17546852Y25103700D01*
X17444177Y25076189D01*
X17444175Y25076188D01*
X17444174Y25076188D01*
X17352125Y25023043D01*
X17352119Y25023039D01*
X17276961Y24947881D01*
X17276957Y24947875D01*
X17223812Y24855826D01*
X17223812Y24855825D01*
X17223811Y24855823D01*
X17196300Y24753148D01*
X9134076Y24753148D01*
X9140019Y24760523D01*
X9639477Y25259981D01*
X9700800Y25293466D01*
X9727158Y25296300D01*
X11142300Y25296300D01*
X11209339Y25276615D01*
X11255094Y25223811D01*
X11266300Y25172300D01*
X11266300Y25075319D01*
X11266301Y25075302D01*
X11272793Y25025986D01*
X11272794Y25025985D01*
X11309952Y24946300D01*
X11323273Y24917733D01*
X11407733Y24833273D01*
X11450894Y24813147D01*
X11515984Y24782795D01*
X11515985Y24782794D01*
X11525484Y24781544D01*
X11565312Y24776300D01*
X11565319Y24776300D01*
X11914681Y24776300D01*
X11914688Y24776300D01*
X11964014Y24782794D01*
X12072267Y24833273D01*
X12156727Y24917733D01*
X12156727Y24917734D01*
X12162319Y24923325D01*
X12223642Y24956810D01*
X12293334Y24951826D01*
X12337681Y24923325D01*
X12343273Y24917733D01*
X12427733Y24833273D01*
X12470894Y24813147D01*
X12535984Y24782795D01*
X12535985Y24782794D01*
X12545484Y24781544D01*
X12585312Y24776300D01*
X12585319Y24776300D01*
X12934681Y24776300D01*
X12934688Y24776300D01*
X12984014Y24782794D01*
X13092267Y24833273D01*
X13176727Y24917733D01*
X13227206Y25025986D01*
X13233700Y25075312D01*
X13233700Y25259731D01*
X23746300Y25259731D01*
X23746300Y25140269D01*
X23777219Y25024878D01*
X23836950Y24921422D01*
X23921422Y24836950D01*
X24024878Y24777219D01*
X24140269Y24746300D01*
X24140271Y24746300D01*
X24259728Y24746300D01*
X24259731Y24746300D01*
X24375122Y24777219D01*
X24478578Y24836950D01*
X24563050Y24921422D01*
X24622781Y25024878D01*
X24653700Y25140269D01*
X24653700Y25259731D01*
X24946300Y25259731D01*
X24946300Y25140269D01*
X24977219Y25024878D01*
X25036950Y24921422D01*
X25121422Y24836950D01*
X25224878Y24777219D01*
X25340269Y24746300D01*
X25340271Y24746300D01*
X25459728Y24746300D01*
X25459731Y24746300D01*
X25575122Y24777219D01*
X25678578Y24836950D01*
X25763050Y24921422D01*
X25822781Y25024878D01*
X25853700Y25140269D01*
X25853700Y25259731D01*
X26146300Y25259731D01*
X26146300Y25140269D01*
X26177219Y25024878D01*
X26236950Y24921422D01*
X26321422Y24836950D01*
X26424878Y24777219D01*
X26540269Y24746300D01*
X26540271Y24746300D01*
X26659728Y24746300D01*
X26659731Y24746300D01*
X26775122Y24777219D01*
X26878578Y24836950D01*
X26963050Y24921422D01*
X27022781Y25024878D01*
X27053700Y25140269D01*
X27053700Y25259731D01*
X27346300Y25259731D01*
X27346300Y25140269D01*
X27377219Y25024878D01*
X27436950Y24921422D01*
X27521422Y24836950D01*
X27624878Y24777219D01*
X27740269Y24746300D01*
X27740271Y24746300D01*
X27859728Y24746300D01*
X27859731Y24746300D01*
X27975122Y24777219D01*
X28078578Y24836950D01*
X28163050Y24921422D01*
X28222781Y25024878D01*
X28253700Y25140269D01*
X28253700Y25259731D01*
X28546300Y25259731D01*
X28546300Y25140269D01*
X28577219Y25024878D01*
X28636950Y24921422D01*
X28721422Y24836950D01*
X28824878Y24777219D01*
X28940269Y24746300D01*
X28940271Y24746300D01*
X29059728Y24746300D01*
X29059731Y24746300D01*
X29175122Y24777219D01*
X29278578Y24836950D01*
X29363050Y24921422D01*
X29422781Y25024878D01*
X29453700Y25140269D01*
X29453700Y25259731D01*
X29422781Y25375122D01*
X29363050Y25478578D01*
X29278578Y25563050D01*
X29175122Y25622781D01*
X29059731Y25653700D01*
X28940269Y25653700D01*
X28824878Y25622781D01*
X28824876Y25622781D01*
X28824876Y25622780D01*
X28721422Y25563050D01*
X28721419Y25563048D01*
X28636952Y25478581D01*
X28636950Y25478578D01*
X28577219Y25375122D01*
X28546300Y25259731D01*
X28253700Y25259731D01*
X28222781Y25375122D01*
X28163050Y25478578D01*
X28078578Y25563050D01*
X27975122Y25622781D01*
X27859731Y25653700D01*
X27740269Y25653700D01*
X27624878Y25622781D01*
X27624876Y25622781D01*
X27624876Y25622780D01*
X27521422Y25563050D01*
X27521419Y25563048D01*
X27436952Y25478581D01*
X27436950Y25478578D01*
X27377219Y25375122D01*
X27346300Y25259731D01*
X27053700Y25259731D01*
X27022781Y25375122D01*
X26963050Y25478578D01*
X26878578Y25563050D01*
X26775122Y25622781D01*
X26659731Y25653700D01*
X26540269Y25653700D01*
X26424878Y25622781D01*
X26424876Y25622781D01*
X26424876Y25622780D01*
X26321422Y25563050D01*
X26321419Y25563048D01*
X26236952Y25478581D01*
X26236950Y25478578D01*
X26177219Y25375122D01*
X26146300Y25259731D01*
X25853700Y25259731D01*
X25822781Y25375122D01*
X25763050Y25478578D01*
X25678578Y25563050D01*
X25575122Y25622781D01*
X25459731Y25653700D01*
X25340269Y25653700D01*
X25224878Y25622781D01*
X25224876Y25622781D01*
X25224876Y25622780D01*
X25121422Y25563050D01*
X25121419Y25563048D01*
X25036952Y25478581D01*
X25036950Y25478578D01*
X24977219Y25375122D01*
X24946300Y25259731D01*
X24653700Y25259731D01*
X24622781Y25375122D01*
X24563050Y25478578D01*
X24478578Y25563050D01*
X24375122Y25622781D01*
X24259731Y25653700D01*
X24140269Y25653700D01*
X24024878Y25622781D01*
X24024876Y25622781D01*
X24024876Y25622780D01*
X23921422Y25563050D01*
X23921419Y25563048D01*
X23836952Y25478581D01*
X23836950Y25478578D01*
X23777219Y25375122D01*
X23746300Y25259731D01*
X13233700Y25259731D01*
X13233700Y25524688D01*
X13227206Y25574014D01*
X13176727Y25682267D01*
X13171675Y25687319D01*
X13138190Y25748642D01*
X13143174Y25818334D01*
X13171675Y25862681D01*
X13176727Y25867733D01*
X13227206Y25975986D01*
X13233700Y26025312D01*
X13233700Y26474688D01*
X13227206Y26524014D01*
X13176727Y26632267D01*
X13149263Y26659731D01*
X23746300Y26659731D01*
X23746300Y26540269D01*
X23777219Y26424878D01*
X23836950Y26321422D01*
X23921422Y26236950D01*
X24024878Y26177219D01*
X24140269Y26146300D01*
X24140271Y26146300D01*
X24259728Y26146300D01*
X24259731Y26146300D01*
X24375122Y26177219D01*
X24478578Y26236950D01*
X24563050Y26321422D01*
X24622781Y26424878D01*
X24653700Y26540269D01*
X24653700Y26659731D01*
X24946300Y26659731D01*
X24946300Y26540269D01*
X24977219Y26424878D01*
X25036950Y26321422D01*
X25121422Y26236950D01*
X25224878Y26177219D01*
X25340269Y26146300D01*
X25340271Y26146300D01*
X25459728Y26146300D01*
X25459731Y26146300D01*
X25575122Y26177219D01*
X25678578Y26236950D01*
X25763050Y26321422D01*
X25822781Y26424878D01*
X25853700Y26540269D01*
X25853700Y26659731D01*
X26146300Y26659731D01*
X26146300Y26540269D01*
X26177219Y26424878D01*
X26236950Y26321422D01*
X26321422Y26236950D01*
X26424878Y26177219D01*
X26540269Y26146300D01*
X26540271Y26146300D01*
X26659728Y26146300D01*
X26659731Y26146300D01*
X26775122Y26177219D01*
X26878578Y26236950D01*
X26963050Y26321422D01*
X27022781Y26424878D01*
X27053700Y26540269D01*
X27053700Y26659731D01*
X27346300Y26659731D01*
X27346300Y26540269D01*
X27377219Y26424878D01*
X27436950Y26321422D01*
X27521422Y26236950D01*
X27624878Y26177219D01*
X27740269Y26146300D01*
X27740271Y26146300D01*
X27859728Y26146300D01*
X27859731Y26146300D01*
X27975122Y26177219D01*
X28078578Y26236950D01*
X28163050Y26321422D01*
X28222781Y26424878D01*
X28236043Y26474373D01*
X28272407Y26534032D01*
X28335254Y26564561D01*
X28404629Y26556266D01*
X28458507Y26511781D01*
X28475590Y26474376D01*
X28475592Y26474371D01*
X28480627Y26455578D01*
X28480628Y26455577D01*
X28546937Y26340725D01*
X28546939Y26340722D01*
X28546940Y26340721D01*
X28640721Y26246940D01*
X28640722Y26246939D01*
X28640724Y26246938D01*
X28658024Y26236950D01*
X28755579Y26180627D01*
X28883687Y26146300D01*
X28883690Y26146300D01*
X29059728Y26146300D01*
X29059731Y26146300D01*
X29175122Y26177219D01*
X29278578Y26236950D01*
X29363050Y26321422D01*
X29422781Y26424878D01*
X29453700Y26540269D01*
X29453700Y26659731D01*
X29453700Y26716313D01*
X29419373Y26844421D01*
X29353060Y26959279D01*
X29259279Y27053060D01*
X29259278Y27053061D01*
X29259275Y27053063D01*
X29144423Y27119372D01*
X29144422Y27119373D01*
X29107859Y27129170D01*
X29016313Y27153700D01*
X28883687Y27153700D01*
X28806822Y27133104D01*
X28755577Y27119373D01*
X28755576Y27119372D01*
X28640724Y27053063D01*
X28640719Y27053059D01*
X28546941Y26959281D01*
X28546937Y26959276D01*
X28480628Y26844424D01*
X28480625Y26844417D01*
X28462193Y26775628D01*
X28425828Y26715968D01*
X28362981Y26685440D01*
X28293605Y26693735D01*
X28239728Y26738221D01*
X28226238Y26767763D01*
X28225889Y26767618D01*
X28222781Y26775122D01*
X28222489Y26775628D01*
X28163050Y26878578D01*
X28078578Y26963050D01*
X27975122Y27022781D01*
X27859731Y27053700D01*
X27740269Y27053700D01*
X27624878Y27022781D01*
X27624876Y27022781D01*
X27624876Y27022780D01*
X27521422Y26963050D01*
X27521419Y26963048D01*
X27436952Y26878581D01*
X27436950Y26878578D01*
X27377219Y26775122D01*
X27346300Y26659731D01*
X27053700Y26659731D01*
X27022781Y26775122D01*
X26963050Y26878578D01*
X26878578Y26963050D01*
X26775122Y27022781D01*
X26659731Y27053700D01*
X26540269Y27053700D01*
X26424878Y27022781D01*
X26424876Y27022781D01*
X26424876Y27022780D01*
X26321422Y26963050D01*
X26321419Y26963048D01*
X26236952Y26878581D01*
X26236950Y26878578D01*
X26177219Y26775122D01*
X26146300Y26659731D01*
X25853700Y26659731D01*
X25822781Y26775122D01*
X25763050Y26878578D01*
X25678578Y26963050D01*
X25575122Y27022781D01*
X25459731Y27053700D01*
X25340269Y27053700D01*
X25224878Y27022781D01*
X25224876Y27022781D01*
X25224876Y27022780D01*
X25121422Y26963050D01*
X25121419Y26963048D01*
X25036952Y26878581D01*
X25036950Y26878578D01*
X24977219Y26775122D01*
X24946300Y26659731D01*
X24653700Y26659731D01*
X24622781Y26775122D01*
X24563050Y26878578D01*
X24478578Y26963050D01*
X24375122Y27022781D01*
X24259731Y27053700D01*
X24140269Y27053700D01*
X24024878Y27022781D01*
X24024876Y27022781D01*
X24024876Y27022780D01*
X23921422Y26963050D01*
X23921419Y26963048D01*
X23836952Y26878581D01*
X23836950Y26878578D01*
X23777219Y26775122D01*
X23746300Y26659731D01*
X13149263Y26659731D01*
X13092267Y26716727D01*
X13046173Y26738221D01*
X12984015Y26767206D01*
X12984014Y26767207D01*
X12934698Y26773699D01*
X12934693Y26773700D01*
X12934688Y26773700D01*
X12585312Y26773700D01*
X12585306Y26773700D01*
X12585301Y26773699D01*
X12535985Y26767207D01*
X12535984Y26767206D01*
X12427732Y26716727D01*
X12343273Y26632268D01*
X12292794Y26524016D01*
X12292793Y26524015D01*
X12286301Y26474699D01*
X12286300Y26474682D01*
X12286300Y26025319D01*
X12286301Y26025302D01*
X12292793Y25975986D01*
X12292794Y25975985D01*
X12343273Y25867733D01*
X12348325Y25862681D01*
X12352663Y25854736D01*
X12359911Y25849310D01*
X12369145Y25824551D01*
X12381810Y25801358D01*
X12381164Y25792329D01*
X12384328Y25783846D01*
X12378711Y25758026D01*
X12376826Y25731666D01*
X12371007Y25722613D01*
X12369476Y25715573D01*
X12348325Y25687319D01*
X12337681Y25676675D01*
X12276358Y25643190D01*
X12206666Y25648174D01*
X12162319Y25676675D01*
X12072267Y25766727D01*
X11964015Y25817206D01*
X11964014Y25817207D01*
X11914698Y25823699D01*
X11914693Y25823700D01*
X11914688Y25823700D01*
X11914681Y25823700D01*
X11693166Y25823700D01*
X11631165Y25840314D01*
X11557224Y25883005D01*
X11479986Y25903700D01*
X11479983Y25903700D01*
X9510017Y25903700D01*
X9510013Y25903700D01*
X9432778Y25883006D01*
X9363524Y25843021D01*
X9363521Y25843019D01*
X9306977Y25786474D01*
X8596083Y25075581D01*
X8556982Y25036480D01*
X8556979Y25036476D01*
X8516994Y24967222D01*
X8496300Y24889987D01*
X8496300Y24332700D01*
X8476615Y24265661D01*
X8423811Y24219906D01*
X8372300Y24208700D01*
X424500Y24208700D01*
X357461Y24228385D01*
X311706Y24281189D01*
X300500Y24332700D01*
X300500Y27421250D01*
X300726Y27428737D01*
X306332Y27521420D01*
X316084Y27682641D01*
X317889Y27697500D01*
X321408Y27716699D01*
X363062Y27944005D01*
X366645Y27958539D01*
X371813Y27975122D01*
X441202Y28197798D01*
X446504Y28211781D01*
X465122Y28253148D01*
X14396300Y28253148D01*
X14396300Y28146852D01*
X14423811Y28044177D01*
X14476959Y27952122D01*
X14552122Y27876959D01*
X14644177Y27823811D01*
X14746852Y27796300D01*
X14746854Y27796300D01*
X14853146Y27796300D01*
X14853148Y27796300D01*
X14955823Y27823811D01*
X15047878Y27876959D01*
X15123041Y27952122D01*
X15176189Y28044177D01*
X15203700Y28146852D01*
X15203700Y28253148D01*
X15696300Y28253148D01*
X15696300Y28146852D01*
X15723811Y28044177D01*
X15776959Y27952122D01*
X15852122Y27876959D01*
X15944177Y27823811D01*
X16046852Y27796300D01*
X16046854Y27796300D01*
X16153146Y27796300D01*
X16153148Y27796300D01*
X16255823Y27823811D01*
X16347878Y27876959D01*
X16423041Y27952122D01*
X16476189Y28044177D01*
X16503700Y28146852D01*
X16503700Y28253148D01*
X16796300Y28253148D01*
X16796300Y28146852D01*
X16823811Y28044177D01*
X16876959Y27952122D01*
X16952122Y27876959D01*
X17044177Y27823811D01*
X17116697Y27804380D01*
X17176358Y27768015D01*
X17204379Y27716699D01*
X17211501Y27690120D01*
X17223811Y27644177D01*
X17276959Y27552122D01*
X17352122Y27476959D01*
X17444177Y27423811D01*
X17546852Y27396300D01*
X17546854Y27396300D01*
X17653146Y27396300D01*
X17653148Y27396300D01*
X17755823Y27423811D01*
X17847878Y27476959D01*
X17923041Y27552122D01*
X17976189Y27644177D01*
X18003700Y27746852D01*
X18003700Y27853148D01*
X17976189Y27955823D01*
X17923041Y28047878D01*
X17847878Y28123041D01*
X17778580Y28163050D01*
X17755825Y28176188D01*
X17755826Y28176188D01*
X17755823Y28176189D01*
X17725392Y28184343D01*
X17683301Y28195621D01*
X17623640Y28231987D01*
X17595620Y28283303D01*
X17576189Y28355823D01*
X17523041Y28447878D01*
X17447878Y28523041D01*
X17361279Y28573039D01*
X17355825Y28576188D01*
X17355824Y28576189D01*
X17355823Y28576189D01*
X17253148Y28603700D01*
X17146852Y28603700D01*
X17044177Y28576189D01*
X17044175Y28576188D01*
X17044174Y28576188D01*
X16952125Y28523043D01*
X16952119Y28523039D01*
X16876961Y28447881D01*
X16876957Y28447875D01*
X16823812Y28355826D01*
X16823812Y28355825D01*
X16823811Y28355823D01*
X16796300Y28253148D01*
X16503700Y28253148D01*
X16476189Y28355823D01*
X16423041Y28447878D01*
X16347878Y28523041D01*
X16261279Y28573039D01*
X16255825Y28576188D01*
X16255824Y28576189D01*
X16255823Y28576189D01*
X16153148Y28603700D01*
X16046852Y28603700D01*
X15944177Y28576189D01*
X15944175Y28576188D01*
X15944174Y28576188D01*
X15852125Y28523043D01*
X15852119Y28523039D01*
X15776961Y28447881D01*
X15776957Y28447875D01*
X15723812Y28355826D01*
X15723812Y28355825D01*
X15723811Y28355823D01*
X15696300Y28253148D01*
X15203700Y28253148D01*
X15176189Y28355823D01*
X15123041Y28447878D01*
X15047878Y28523041D01*
X14961279Y28573039D01*
X14955825Y28576188D01*
X14955824Y28576189D01*
X14955823Y28576189D01*
X14853148Y28603700D01*
X14746852Y28603700D01*
X14644177Y28576189D01*
X14644175Y28576188D01*
X14644174Y28576188D01*
X14552125Y28523043D01*
X14552119Y28523039D01*
X14476961Y28447881D01*
X14476957Y28447875D01*
X14423812Y28355826D01*
X14423812Y28355825D01*
X14423811Y28355823D01*
X14396300Y28253148D01*
X465122Y28253148D01*
X549361Y28440321D01*
X556320Y28453579D01*
X583100Y28497878D01*
X685975Y28668054D01*
X694462Y28680350D01*
X849034Y28877646D01*
X858949Y28888837D01*
X1036163Y29066051D01*
X1047354Y29075966D01*
X1244650Y29230538D01*
X1256946Y29239025D01*
X1471421Y29368681D01*
X1484680Y29375639D01*
X1500425Y29382725D01*
X1713219Y29478496D01*
X1727202Y29483798D01*
X1966467Y29558357D01*
X1980995Y29561938D01*
X2227506Y29607112D01*
X2242359Y29608916D01*
X2496264Y29624274D01*
X2503751Y29624500D01*
X2547595Y29624500D01*
X35835599Y29624500D01*
X35902638Y29604815D01*
G37*
%TD.AperFunction*%
%TA.AperFunction,Conductor*%
G36*
X26775382Y17141615D02*
G01*
X26796024Y17124981D01*
X27488591Y16432414D01*
X27522076Y16371091D01*
X27517092Y16301399D01*
X27475220Y16245466D01*
X27433005Y16224959D01*
X27424879Y16222782D01*
X27424878Y16222782D01*
X27321422Y16163050D01*
X27321419Y16163048D01*
X27236952Y16078581D01*
X27236945Y16078572D01*
X27207386Y16027374D01*
X27156819Y15979159D01*
X27088212Y15965937D01*
X27023347Y15991905D01*
X26992614Y16027374D01*
X26963054Y16078572D01*
X26963051Y16078575D01*
X26963050Y16078578D01*
X26878578Y16163050D01*
X26775122Y16222781D01*
X26659731Y16253700D01*
X26540269Y16253700D01*
X26424878Y16222781D01*
X26424876Y16222781D01*
X26424876Y16222780D01*
X26321422Y16163050D01*
X26321419Y16163048D01*
X26236952Y16078581D01*
X26236950Y16078578D01*
X26177219Y15975122D01*
X26146300Y15859731D01*
X26146300Y15740269D01*
X26177219Y15624878D01*
X26236950Y15521422D01*
X26321422Y15436950D01*
X26321425Y15436949D01*
X26321428Y15436946D01*
X26372626Y15407386D01*
X26420841Y15356819D01*
X26434063Y15288212D01*
X26408095Y15223347D01*
X26372626Y15192614D01*
X26321428Y15163055D01*
X26321419Y15163048D01*
X26236952Y15078581D01*
X26236950Y15078578D01*
X26213448Y15037871D01*
X26177219Y14975122D01*
X26146300Y14859731D01*
X26146300Y14740269D01*
X26177219Y14624878D01*
X26236950Y14521422D01*
X26321422Y14436950D01*
X26424878Y14377219D01*
X26540269Y14346300D01*
X26540271Y14346300D01*
X26659728Y14346300D01*
X26659731Y14346300D01*
X26775122Y14377219D01*
X26878578Y14436950D01*
X26963050Y14521422D01*
X26992614Y14572629D01*
X27043180Y14620842D01*
X27111788Y14634064D01*
X27176652Y14608096D01*
X27207385Y14572629D01*
X27236950Y14521422D01*
X27321422Y14436950D01*
X27424878Y14377219D01*
X27540269Y14346300D01*
X27540271Y14346300D01*
X27659728Y14346300D01*
X27659731Y14346300D01*
X27775122Y14377219D01*
X27878578Y14436950D01*
X27963050Y14521422D01*
X27992614Y14572629D01*
X28043180Y14620842D01*
X28111788Y14634064D01*
X28176652Y14608096D01*
X28207385Y14572629D01*
X28236950Y14521422D01*
X28321422Y14436950D01*
X28424878Y14377219D01*
X28540269Y14346300D01*
X28540271Y14346300D01*
X28659728Y14346300D01*
X28659731Y14346300D01*
X28775122Y14377219D01*
X28878578Y14436950D01*
X28963050Y14521422D01*
X29022781Y14624878D01*
X29053700Y14740269D01*
X29053700Y14859731D01*
X29022781Y14975122D01*
X29022779Y14975124D01*
X29020677Y14982972D01*
X29022450Y14983448D01*
X29016070Y15042744D01*
X29047340Y15105226D01*
X29107425Y15140884D01*
X29177251Y15138396D01*
X29200102Y15128125D01*
X29210261Y15122260D01*
X29294177Y15073811D01*
X29396852Y15046300D01*
X29396854Y15046300D01*
X29503146Y15046300D01*
X29503148Y15046300D01*
X29605823Y15073811D01*
X29697878Y15126959D01*
X29773041Y15202122D01*
X29826189Y15294177D01*
X29853700Y15396852D01*
X29853700Y15503148D01*
X29826189Y15605823D01*
X29786075Y15675302D01*
X29769603Y15743200D01*
X29792455Y15809227D01*
X29847376Y15852417D01*
X29893463Y15861300D01*
X30208343Y15861300D01*
X30275382Y15841615D01*
X30296024Y15824981D01*
X30549457Y15571548D01*
X30582942Y15510225D01*
X30585776Y15483867D01*
X30585776Y14988775D01*
X30603141Y14946852D01*
X30604072Y14944606D01*
X30604072Y14944605D01*
X30623639Y14897366D01*
X30784672Y14736333D01*
X30818157Y14675010D01*
X30813173Y14605318D01*
X30771301Y14549385D01*
X30758993Y14541266D01*
X30725699Y14522044D01*
X30725693Y14522039D01*
X30650535Y14446881D01*
X30650531Y14446875D01*
X30597386Y14354826D01*
X30597386Y14354825D01*
X30597385Y14354823D01*
X30569874Y14252148D01*
X30569874Y14145853D01*
X30570264Y14142891D01*
X30569874Y14140390D01*
X30569874Y14137725D01*
X30569459Y14137725D01*
X30559502Y14073855D01*
X30513124Y14021597D01*
X30447326Y14002700D01*
X24698926Y14002700D01*
X24631887Y14022385D01*
X24611245Y14039019D01*
X24424675Y14225589D01*
X24391190Y14286912D01*
X24396174Y14356604D01*
X24438046Y14412537D01*
X24450345Y14420650D01*
X24478578Y14436950D01*
X24563050Y14521422D01*
X24622781Y14624878D01*
X24653700Y14740269D01*
X24653700Y14859731D01*
X24622781Y14975122D01*
X24563050Y15078578D01*
X24478578Y15163050D01*
X24427371Y15192615D01*
X24379158Y15243180D01*
X24365936Y15311788D01*
X24391904Y15376652D01*
X24427371Y15407386D01*
X24478578Y15436950D01*
X24563050Y15521422D01*
X24622781Y15624878D01*
X24653700Y15740269D01*
X24653700Y15859731D01*
X24946300Y15859731D01*
X24946300Y15740269D01*
X24977219Y15624878D01*
X25036950Y15521422D01*
X25121422Y15436950D01*
X25121425Y15436949D01*
X25121428Y15436946D01*
X25172626Y15407386D01*
X25220841Y15356819D01*
X25234063Y15288212D01*
X25208095Y15223347D01*
X25172626Y15192614D01*
X25121428Y15163055D01*
X25121419Y15163048D01*
X25036952Y15078581D01*
X25036950Y15078578D01*
X25013448Y15037871D01*
X24977219Y14975122D01*
X24946300Y14859731D01*
X24946300Y14740269D01*
X24977219Y14624878D01*
X25036950Y14521422D01*
X25121422Y14436950D01*
X25224878Y14377219D01*
X25340269Y14346300D01*
X25340271Y14346300D01*
X25459728Y14346300D01*
X25459731Y14346300D01*
X25575122Y14377219D01*
X25678578Y14436950D01*
X25763050Y14521422D01*
X25822781Y14624878D01*
X25853700Y14740269D01*
X25853700Y14859731D01*
X25822781Y14975122D01*
X25763050Y15078578D01*
X25678578Y15163050D01*
X25627371Y15192615D01*
X25579158Y15243180D01*
X25565936Y15311788D01*
X25591904Y15376652D01*
X25627371Y15407386D01*
X25678578Y15436950D01*
X25763050Y15521422D01*
X25822781Y15624878D01*
X25853700Y15740269D01*
X25853700Y15859731D01*
X25822781Y15975122D01*
X25763050Y16078578D01*
X25678578Y16163050D01*
X25575122Y16222781D01*
X25459731Y16253700D01*
X25340269Y16253700D01*
X25224878Y16222781D01*
X25224876Y16222781D01*
X25224876Y16222780D01*
X25121422Y16163050D01*
X25121419Y16163048D01*
X25036952Y16078581D01*
X25036950Y16078578D01*
X24977219Y15975122D01*
X24946300Y15859731D01*
X24653700Y15859731D01*
X24622781Y15975122D01*
X24563050Y16078578D01*
X24478578Y16163050D01*
X24375122Y16222781D01*
X24259731Y16253700D01*
X24140269Y16253700D01*
X24024878Y16222781D01*
X23948321Y16178580D01*
X23937272Y16172201D01*
X23869372Y16155728D01*
X23803344Y16178580D01*
X23787590Y16191907D01*
X23137205Y16842292D01*
X23129187Y16856179D01*
X23119005Y16865435D01*
X23105111Y16897880D01*
X23103700Y16903146D01*
X23103700Y16903148D01*
X23076353Y17005211D01*
X23078016Y17075057D01*
X23117179Y17132919D01*
X23181407Y17160423D01*
X23196128Y17161300D01*
X26708343Y17161300D01*
X26775382Y17141615D01*
G37*
%TD.AperFunction*%
%TD*%
%TA.AperFunction,Conductor*%
%TO.N,GND_USB*%
G36*
X10443039Y23980315D02*
G01*
X10488794Y23927511D01*
X10500000Y23876000D01*
X10500000Y16881817D01*
X10495903Y16867868D01*
X10496688Y16853350D01*
X10486257Y16835015D01*
X10480315Y16814778D01*
X10469329Y16805259D01*
X10462139Y16792620D01*
X10443449Y16782835D01*
X10427511Y16769023D01*
X10413121Y16766955D01*
X10400242Y16760210D01*
X10379231Y16762082D01*
X10358353Y16759079D01*
X10345128Y16765119D01*
X10330647Y16766408D01*
X10299970Y16783861D01*
X10293822Y16788633D01*
X10225618Y16856837D01*
X10198844Y16867927D01*
X10134209Y16894700D01*
X9665791Y16894700D01*
X9665789Y16894700D01*
X9601155Y16867927D01*
X9574380Y16856837D01*
X9292564Y16575019D01*
X9231241Y16541534D01*
X9204883Y16538700D01*
X3444132Y16538700D01*
X3377093Y16558385D01*
X3331338Y16611189D01*
X3324359Y16630600D01*
X3311295Y16679360D01*
X3258147Y16771415D01*
X3182984Y16846578D01*
X3090929Y16899726D01*
X2988254Y16927237D01*
X2881958Y16927237D01*
X2779283Y16899726D01*
X2779281Y16899725D01*
X2779280Y16899725D01*
X2687231Y16846580D01*
X2687225Y16846576D01*
X2612067Y16771418D01*
X2612063Y16771412D01*
X2558918Y16679363D01*
X2558918Y16679362D01*
X2558917Y16679360D01*
X2531406Y16576685D01*
X2531406Y16470389D01*
X2558917Y16367714D01*
X2612065Y16275659D01*
X2612069Y16275655D01*
X2617012Y16269213D01*
X2614320Y16267148D01*
X2640281Y16219605D01*
X2635297Y16149913D01*
X2624533Y16130464D01*
X2625482Y16129916D01*
X2568272Y16030826D01*
X2568272Y16030825D01*
X2568271Y16030823D01*
X2540760Y15928148D01*
X2540760Y15821852D01*
X2568271Y15719177D01*
X2621419Y15627122D01*
X2696582Y15551959D01*
X2788637Y15498811D01*
X2891312Y15471300D01*
X2891314Y15471300D01*
X2997606Y15471300D01*
X2997608Y15471300D01*
X3100283Y15498811D01*
X3192338Y15551959D01*
X3267501Y15627122D01*
X3320649Y15719177D01*
X3334104Y15769395D01*
X3370467Y15829053D01*
X3433314Y15859583D01*
X3453878Y15861300D01*
X9204883Y15861300D01*
X9271922Y15841615D01*
X9292564Y15824981D01*
X9574379Y15543165D01*
X9574380Y15543165D01*
X9574382Y15543163D01*
X9601151Y15532076D01*
X9601153Y15532074D01*
X9601154Y15532074D01*
X9613332Y15527030D01*
X9665791Y15505300D01*
X9665792Y15505300D01*
X10134207Y15505300D01*
X10134209Y15505300D01*
X10198844Y15532074D01*
X10225618Y15543163D01*
X10293825Y15611371D01*
X10299972Y15616141D01*
X10325533Y15626186D01*
X10349641Y15639349D01*
X10357587Y15638781D01*
X10365001Y15641694D01*
X10391936Y15636325D01*
X10419333Y15634365D01*
X10425709Y15629592D01*
X10433522Y15628034D01*
X10453278Y15608955D01*
X10475267Y15592494D01*
X10478051Y15585030D01*
X10483780Y15579497D01*
X10490084Y15552769D01*
X10499684Y15527030D01*
X10500000Y15518183D01*
X10500000Y8841622D01*
X10480315Y8774583D01*
X10427511Y8728828D01*
X10375326Y8717624D01*
X9884992Y8720289D01*
X9884060Y8720234D01*
X9829397Y8720521D01*
X9829387Y8720520D01*
X9626359Y8689399D01*
X9626345Y8689395D01*
X9430716Y8626786D01*
X9430707Y8626782D01*
X9247326Y8534235D01*
X9232369Y8523442D01*
X9166486Y8500180D01*
X9159815Y8500000D01*
X3899987Y8500000D01*
X3832948Y8519685D01*
X3787193Y8572489D01*
X3777249Y8641647D01*
X3792598Y8685997D01*
X3826189Y8744177D01*
X3853700Y8846852D01*
X3853700Y8953148D01*
X3826189Y9055823D01*
X3773041Y9147878D01*
X3773040Y9147879D01*
X3770313Y9152603D01*
X3753700Y9214603D01*
X3753700Y9289980D01*
X3753699Y9289987D01*
X3733005Y9367222D01*
X3732974Y9367276D01*
X3693021Y9436476D01*
X3636476Y9493021D01*
X3320019Y9809478D01*
X3286534Y9870801D01*
X3283700Y9897159D01*
X3283700Y10124682D01*
X3283700Y10124688D01*
X3277206Y10174014D01*
X3226727Y10282267D01*
X3142267Y10366727D01*
X3095030Y10388754D01*
X3034015Y10417206D01*
X3034014Y10417207D01*
X2984698Y10423699D01*
X2984693Y10423700D01*
X2984688Y10423700D01*
X2635312Y10423700D01*
X2635306Y10423700D01*
X2635301Y10423699D01*
X2585985Y10417207D01*
X2585984Y10417206D01*
X2477732Y10366727D01*
X2387681Y10276675D01*
X2326358Y10243190D01*
X2256666Y10248174D01*
X2212319Y10276675D01*
X2122267Y10366727D01*
X2014015Y10417206D01*
X2014014Y10417207D01*
X1964698Y10423699D01*
X1964693Y10423700D01*
X1964688Y10423700D01*
X1615312Y10423700D01*
X1615306Y10423700D01*
X1615301Y10423699D01*
X1565985Y10417207D01*
X1565984Y10417206D01*
X1457734Y10366728D01*
X1391520Y10300514D01*
X1330196Y10267030D01*
X1260505Y10272015D01*
X1216158Y10300515D01*
X1179395Y10337278D01*
X1074099Y10388753D01*
X1074097Y10388754D01*
X1074096Y10388754D01*
X1005830Y10398700D01*
X594170Y10398700D01*
X548659Y10392070D01*
X525901Y10388754D01*
X478959Y10365805D01*
X410086Y10354047D01*
X345789Y10381391D01*
X306482Y10439155D01*
X300500Y10477206D01*
X300500Y11314954D01*
X320185Y11381993D01*
X372989Y11427748D01*
X442147Y11437692D01*
X505703Y11408667D01*
X512181Y11402635D01*
X581414Y11333402D01*
X696676Y11256387D01*
X824733Y11203345D01*
X824738Y11203343D01*
X960687Y11176301D01*
X960690Y11176300D01*
X960692Y11176300D01*
X1699310Y11176300D01*
X1699311Y11176301D01*
X1835262Y11203343D01*
X1899294Y11229866D01*
X1963323Y11256387D01*
X1963324Y11256388D01*
X1963327Y11256389D01*
X2078583Y11333400D01*
X2176600Y11431417D01*
X2253611Y11546673D01*
X2306657Y11674738D01*
X2333700Y11810692D01*
X2333700Y11949308D01*
X2333700Y11949311D01*
X2333699Y11949313D01*
X4256300Y11949313D01*
X4256300Y11810688D01*
X4283341Y11674746D01*
X4283344Y11674734D01*
X4336386Y11546677D01*
X4413401Y11431415D01*
X4511414Y11333402D01*
X4626676Y11256387D01*
X4754733Y11203345D01*
X4754738Y11203343D01*
X4890687Y11176301D01*
X4890690Y11176300D01*
X4890692Y11176300D01*
X6129310Y11176300D01*
X6129311Y11176301D01*
X6265262Y11203343D01*
X6329294Y11229866D01*
X6393323Y11256387D01*
X6393324Y11256388D01*
X6393327Y11256389D01*
X6508583Y11333400D01*
X6606600Y11431417D01*
X6683611Y11546673D01*
X6736657Y11674738D01*
X6763700Y11810692D01*
X6763700Y11858082D01*
X7593257Y11858082D01*
X7593257Y11738620D01*
X7624176Y11623229D01*
X7683907Y11519773D01*
X7683909Y11519771D01*
X7717648Y11486032D01*
X7751133Y11424709D01*
X7746149Y11355017D01*
X7717648Y11310670D01*
X7683909Y11276932D01*
X7683907Y11276929D01*
X7624176Y11173473D01*
X7593257Y11058082D01*
X7593257Y10938620D01*
X7624176Y10823229D01*
X7683907Y10719773D01*
X7683909Y10719771D01*
X7717648Y10686032D01*
X7751133Y10624709D01*
X7746149Y10555017D01*
X7717648Y10510670D01*
X7683909Y10476932D01*
X7683907Y10476929D01*
X7628748Y10381391D01*
X7624176Y10373473D01*
X7593257Y10258082D01*
X7593257Y10138620D01*
X7624176Y10023229D01*
X7683907Y9919773D01*
X7768379Y9835301D01*
X7871835Y9775570D01*
X7987226Y9744651D01*
X7987228Y9744651D01*
X8106685Y9744651D01*
X8106688Y9744651D01*
X8222079Y9775570D01*
X8325535Y9835301D01*
X8325536Y9835303D01*
X8332573Y9839365D01*
X8333938Y9837001D01*
X8386625Y9857376D01*
X8455071Y9843346D01*
X8461320Y9839330D01*
X8461341Y9839365D01*
X8468377Y9835303D01*
X8468379Y9835301D01*
X8571835Y9775570D01*
X8687226Y9744651D01*
X8687228Y9744651D01*
X8806685Y9744651D01*
X8806688Y9744651D01*
X8922079Y9775570D01*
X9025535Y9835301D01*
X9110007Y9919773D01*
X9169738Y10023229D01*
X9200657Y10138620D01*
X9200657Y10258082D01*
X9169738Y10373473D01*
X9110007Y10476929D01*
X9076266Y10510670D01*
X9042781Y10571993D01*
X9047765Y10641685D01*
X9076266Y10686032D01*
X9110007Y10719773D01*
X9169738Y10823229D01*
X9200657Y10938620D01*
X9200657Y11058082D01*
X9169738Y11173473D01*
X9110007Y11276929D01*
X9076266Y11310670D01*
X9042781Y11371993D01*
X9047765Y11441685D01*
X9076266Y11486032D01*
X9110007Y11519773D01*
X9169738Y11623229D01*
X9200657Y11738620D01*
X9200657Y11858082D01*
X9169738Y11973473D01*
X9110007Y12076929D01*
X9025535Y12161401D01*
X8922079Y12221132D01*
X8806688Y12252051D01*
X8687226Y12252051D01*
X8571835Y12221132D01*
X8468379Y12161401D01*
X8468377Y12161400D01*
X8461341Y12157337D01*
X8459978Y12159698D01*
X8407257Y12139324D01*
X8338814Y12153373D01*
X8332592Y12157371D01*
X8332573Y12157337D01*
X8325536Y12161400D01*
X8325535Y12161401D01*
X8222079Y12221132D01*
X8106688Y12252051D01*
X7987226Y12252051D01*
X7871835Y12221132D01*
X7871833Y12221132D01*
X7871833Y12221131D01*
X7768379Y12161401D01*
X7768376Y12161399D01*
X7683909Y12076932D01*
X7683907Y12076929D01*
X7624176Y11973473D01*
X7593257Y11858082D01*
X6763700Y11858082D01*
X6763700Y11949308D01*
X6763700Y11949311D01*
X6763699Y11949313D01*
X6758893Y11973475D01*
X6736657Y12085262D01*
X6705825Y12159698D01*
X6683613Y12213324D01*
X6606598Y12328586D01*
X6508585Y12426599D01*
X6393323Y12503614D01*
X6265266Y12556656D01*
X6265254Y12556659D01*
X6129311Y12583700D01*
X6129308Y12583700D01*
X4890692Y12583700D01*
X4890689Y12583700D01*
X4754745Y12556659D01*
X4754733Y12556656D01*
X4626676Y12503614D01*
X4511414Y12426599D01*
X4413401Y12328586D01*
X4336386Y12213324D01*
X4283344Y12085267D01*
X4283341Y12085255D01*
X4256300Y11949313D01*
X2333699Y11949313D01*
X2328893Y11973475D01*
X2306657Y12085262D01*
X2275825Y12159698D01*
X2253613Y12213324D01*
X2176598Y12328586D01*
X2078585Y12426599D01*
X1963323Y12503614D01*
X1835266Y12556656D01*
X1835254Y12556659D01*
X1699311Y12583700D01*
X1699308Y12583700D01*
X960692Y12583700D01*
X960689Y12583700D01*
X824745Y12556659D01*
X824733Y12556656D01*
X696676Y12503614D01*
X581414Y12426599D01*
X581413Y12426598D01*
X512181Y12357365D01*
X450858Y12323880D01*
X381166Y12328864D01*
X325233Y12370736D01*
X300816Y12436200D01*
X300500Y12445046D01*
X300500Y13851121D01*
X1796300Y13851121D01*
X1796300Y13744825D01*
X1823811Y13642150D01*
X1823812Y13642149D01*
X1823812Y13642148D01*
X1833277Y13625754D01*
X1876959Y13550095D01*
X1952122Y13474932D01*
X2044177Y13421784D01*
X2146852Y13394273D01*
X2146854Y13394273D01*
X2253146Y13394273D01*
X2253148Y13394273D01*
X2355823Y13421784D01*
X2447878Y13474932D01*
X2462319Y13489373D01*
X2523642Y13522858D01*
X2593334Y13517874D01*
X2637681Y13489373D01*
X2652122Y13474932D01*
X2744177Y13421784D01*
X2846852Y13394273D01*
X2846854Y13394273D01*
X2953146Y13394273D01*
X2953148Y13394273D01*
X3055823Y13421784D01*
X3147878Y13474932D01*
X3162319Y13489373D01*
X3223642Y13522858D01*
X3293334Y13517874D01*
X3337681Y13489373D01*
X3352122Y13474932D01*
X3444177Y13421784D01*
X3546852Y13394273D01*
X3546854Y13394273D01*
X3653146Y13394273D01*
X3653148Y13394273D01*
X3755823Y13421784D01*
X3847878Y13474932D01*
X3923041Y13550095D01*
X3923045Y13550103D01*
X3927989Y13556544D01*
X3929683Y13555244D01*
X3972083Y13595674D01*
X4040689Y13608900D01*
X4060992Y13605238D01*
X4146598Y13582300D01*
X4146600Y13582300D01*
X4252892Y13582300D01*
X4252894Y13582300D01*
X4355569Y13609811D01*
X4383183Y13625755D01*
X4451083Y13642228D01*
X4517110Y13619376D01*
X4560301Y13564455D01*
X4566943Y13494902D01*
X4564959Y13486274D01*
X4534500Y13372601D01*
X4534500Y13247399D01*
X4566905Y13126464D01*
X4629505Y13018036D01*
X4718036Y12929505D01*
X4826464Y12866905D01*
X4947399Y12834500D01*
X4947401Y12834500D01*
X5072599Y12834500D01*
X5072601Y12834500D01*
X5193536Y12866905D01*
X5301964Y12929505D01*
X5390495Y13018036D01*
X5453095Y13126464D01*
X5485500Y13247399D01*
X5485500Y13306786D01*
X5505185Y13373825D01*
X5557989Y13419580D01*
X5627147Y13429524D01*
X5648021Y13423798D01*
X5648046Y13423888D01*
X5655893Y13421786D01*
X5655896Y13421784D01*
X5758571Y13394273D01*
X5758573Y13394273D01*
X5864865Y13394273D01*
X5864867Y13394273D01*
X5967542Y13421784D01*
X6059597Y13474932D01*
X6074038Y13489373D01*
X6135361Y13522858D01*
X6205053Y13517874D01*
X6249400Y13489373D01*
X6263841Y13474932D01*
X6355896Y13421784D01*
X6458571Y13394273D01*
X6458573Y13394273D01*
X6564865Y13394273D01*
X6564867Y13394273D01*
X6667542Y13421784D01*
X6759597Y13474932D01*
X6774038Y13489373D01*
X6835361Y13522858D01*
X6905053Y13517874D01*
X6949400Y13489373D01*
X6963841Y13474932D01*
X7055896Y13421784D01*
X7158571Y13394273D01*
X7158573Y13394273D01*
X7264865Y13394273D01*
X7264867Y13394273D01*
X7367542Y13421784D01*
X7449719Y13469230D01*
X7517619Y13485702D01*
X7573718Y13469230D01*
X7655896Y13421784D01*
X7758571Y13394273D01*
X7758573Y13394273D01*
X7864865Y13394273D01*
X7864867Y13394273D01*
X7967542Y13421784D01*
X8049719Y13469230D01*
X8117619Y13485702D01*
X8173718Y13469230D01*
X8255896Y13421784D01*
X8358571Y13394273D01*
X8358573Y13394273D01*
X8464865Y13394273D01*
X8464867Y13394273D01*
X8567542Y13421784D01*
X8659597Y13474932D01*
X8734760Y13550095D01*
X8764913Y13602323D01*
X8815480Y13650537D01*
X8884087Y13663761D01*
X8948951Y13637793D01*
X8989480Y13580879D01*
X8996300Y13540322D01*
X8996300Y13433690D01*
X8996299Y13433690D01*
X9030627Y13305578D01*
X9030628Y13305577D01*
X9096937Y13190725D01*
X9096939Y13190722D01*
X9096940Y13190721D01*
X9190721Y13096940D01*
X9305579Y13030627D01*
X9433687Y12996300D01*
X9433690Y12996300D01*
X9566310Y12996300D01*
X9566313Y12996300D01*
X9694421Y13030627D01*
X9809279Y13096940D01*
X9903060Y13190721D01*
X9969373Y13305579D01*
X10003700Y13433687D01*
X10003700Y13566313D01*
X9969373Y13694421D01*
X9903060Y13809279D01*
X9809279Y13903060D01*
X9809278Y13903061D01*
X9809275Y13903063D01*
X9694423Y13969372D01*
X9694422Y13969373D01*
X9662394Y13977955D01*
X9566313Y14003700D01*
X9433687Y14003700D01*
X9356822Y13983104D01*
X9305577Y13969373D01*
X9305576Y13969372D01*
X9190724Y13903063D01*
X9190719Y13903059D01*
X9096941Y13809281D01*
X9096937Y13809276D01*
X9046806Y13722445D01*
X8996239Y13674229D01*
X8927632Y13661006D01*
X8862767Y13686974D01*
X8822239Y13743889D01*
X8815419Y13784445D01*
X8815419Y13851119D01*
X8815419Y13851121D01*
X8787908Y13953796D01*
X8734760Y14045851D01*
X8659597Y14121014D01*
X8567542Y14174162D01*
X8464867Y14201673D01*
X8358571Y14201673D01*
X8255894Y14174162D01*
X8173718Y14126717D01*
X8105818Y14110245D01*
X8049720Y14126717D01*
X7967543Y14174162D01*
X7914837Y14188284D01*
X7864867Y14201673D01*
X7758571Y14201673D01*
X7655894Y14174162D01*
X7573718Y14126717D01*
X7505818Y14110245D01*
X7449720Y14126717D01*
X7367543Y14174162D01*
X7314837Y14188284D01*
X7264867Y14201673D01*
X7158571Y14201673D01*
X7055896Y14174162D01*
X7055894Y14174161D01*
X7055893Y14174161D01*
X6963844Y14121016D01*
X6963838Y14121012D01*
X6949400Y14106573D01*
X6888077Y14073088D01*
X6818385Y14078072D01*
X6774038Y14106573D01*
X6759599Y14121012D01*
X6759597Y14121014D01*
X6667542Y14174162D01*
X6564867Y14201673D01*
X6458571Y14201673D01*
X6355896Y14174162D01*
X6355894Y14174161D01*
X6355893Y14174161D01*
X6263844Y14121016D01*
X6263838Y14121012D01*
X6249400Y14106573D01*
X6188077Y14073088D01*
X6118385Y14078072D01*
X6074038Y14106573D01*
X6059599Y14121012D01*
X6059597Y14121014D01*
X5967542Y14174162D01*
X5864867Y14201673D01*
X5758571Y14201673D01*
X5655896Y14174162D01*
X5655894Y14174161D01*
X5655893Y14174161D01*
X5563844Y14121016D01*
X5563842Y14121015D01*
X5493242Y14050415D01*
X5431918Y14016931D01*
X5362227Y14021916D01*
X5306293Y14063787D01*
X5285786Y14106004D01*
X5284650Y14110245D01*
X5276189Y14141823D01*
X5223041Y14233878D01*
X5147878Y14309041D01*
X5055823Y14362189D01*
X4953148Y14389700D01*
X4846852Y14389700D01*
X4744177Y14362189D01*
X4744175Y14362188D01*
X4744174Y14362188D01*
X4652125Y14309043D01*
X4652119Y14309039D01*
X4637554Y14294473D01*
X4576231Y14260988D01*
X4506539Y14265972D01*
X4462192Y14294473D01*
X4447626Y14309039D01*
X4447624Y14309041D01*
X4355569Y14362189D01*
X4252894Y14389700D01*
X4146598Y14389700D01*
X4043923Y14362189D01*
X4043921Y14362188D01*
X4043920Y14362188D01*
X3951871Y14309043D01*
X3951865Y14309039D01*
X3876707Y14233881D01*
X3871757Y14227429D01*
X3870066Y14228727D01*
X3827633Y14188284D01*
X3759023Y14175077D01*
X3738746Y14178738D01*
X3653149Y14201673D01*
X3653148Y14201673D01*
X3546852Y14201673D01*
X3444177Y14174162D01*
X3444175Y14174161D01*
X3444174Y14174161D01*
X3352125Y14121016D01*
X3352119Y14121012D01*
X3337681Y14106573D01*
X3276358Y14073088D01*
X3206666Y14078072D01*
X3162319Y14106573D01*
X3147880Y14121012D01*
X3147878Y14121014D01*
X3055823Y14174162D01*
X2953148Y14201673D01*
X2846852Y14201673D01*
X2744177Y14174162D01*
X2744175Y14174161D01*
X2744174Y14174161D01*
X2652125Y14121016D01*
X2652119Y14121012D01*
X2637681Y14106573D01*
X2576358Y14073088D01*
X2506666Y14078072D01*
X2462319Y14106573D01*
X2447880Y14121012D01*
X2447878Y14121014D01*
X2355823Y14174162D01*
X2253148Y14201673D01*
X2146852Y14201673D01*
X2044177Y14174162D01*
X2044175Y14174161D01*
X2044174Y14174161D01*
X1952125Y14121016D01*
X1952119Y14121012D01*
X1876961Y14045854D01*
X1876957Y14045848D01*
X1823812Y13953799D01*
X1823812Y13953798D01*
X1823811Y13953796D01*
X1796300Y13851121D01*
X300500Y13851121D01*
X300500Y18653148D01*
X1796300Y18653148D01*
X1796300Y18546852D01*
X1823811Y18444177D01*
X1876959Y18352122D01*
X1952122Y18276959D01*
X2044177Y18223811D01*
X2146852Y18196300D01*
X2146854Y18196300D01*
X2253146Y18196300D01*
X2253148Y18196300D01*
X2355823Y18223811D01*
X2447878Y18276959D01*
X2462319Y18291400D01*
X2523642Y18324885D01*
X2593334Y18319901D01*
X2637681Y18291400D01*
X2652122Y18276959D01*
X2744177Y18223811D01*
X2846852Y18196300D01*
X2846854Y18196300D01*
X2953146Y18196300D01*
X2953148Y18196300D01*
X3055823Y18223811D01*
X3147878Y18276959D01*
X3162319Y18291400D01*
X3223642Y18324885D01*
X3293334Y18319901D01*
X3337681Y18291400D01*
X3352122Y18276959D01*
X3444177Y18223811D01*
X3546852Y18196300D01*
X3546854Y18196300D01*
X3653146Y18196300D01*
X3653148Y18196300D01*
X3755823Y18223811D01*
X3771536Y18232884D01*
X3839434Y18249358D01*
X3905462Y18226508D01*
X3940924Y18187500D01*
X3953267Y18166122D01*
X4028430Y18090959D01*
X4120485Y18037811D01*
X4223160Y18010300D01*
X4223162Y18010300D01*
X4329454Y18010300D01*
X4329456Y18010300D01*
X4432131Y18037811D01*
X4524186Y18090959D01*
X4599349Y18166122D01*
X4599349Y18166123D01*
X4600473Y18167246D01*
X4661796Y18200731D01*
X4731488Y18195747D01*
X4775835Y18167246D01*
X4776958Y18166123D01*
X4776959Y18166122D01*
X4852122Y18090959D01*
X4944177Y18037811D01*
X5046852Y18010300D01*
X5046854Y18010300D01*
X5153146Y18010300D01*
X5153148Y18010300D01*
X5255823Y18037811D01*
X5347878Y18090959D01*
X5423041Y18166122D01*
X5441306Y18197758D01*
X5491871Y18245972D01*
X5560478Y18259196D01*
X5610689Y18243146D01*
X5644177Y18223811D01*
X5746852Y18196300D01*
X5746854Y18196300D01*
X5853146Y18196300D01*
X5853148Y18196300D01*
X5955823Y18223811D01*
X6047878Y18276959D01*
X6062319Y18291400D01*
X6123642Y18324885D01*
X6193334Y18319901D01*
X6237681Y18291400D01*
X6252122Y18276959D01*
X6344177Y18223811D01*
X6446852Y18196300D01*
X6446854Y18196300D01*
X6553146Y18196300D01*
X6553148Y18196300D01*
X6655823Y18223811D01*
X6747878Y18276959D01*
X6762319Y18291400D01*
X6823642Y18324885D01*
X6893334Y18319901D01*
X6937681Y18291400D01*
X6952122Y18276959D01*
X7044177Y18223811D01*
X7146852Y18196300D01*
X7146854Y18196300D01*
X7253146Y18196300D01*
X7253148Y18196300D01*
X7355823Y18223811D01*
X7438000Y18271257D01*
X7505900Y18287729D01*
X7561999Y18271257D01*
X7644177Y18223811D01*
X7746852Y18196300D01*
X7746854Y18196300D01*
X7853146Y18196300D01*
X7853148Y18196300D01*
X7955823Y18223811D01*
X8038000Y18271257D01*
X8105900Y18287729D01*
X8161999Y18271257D01*
X8244177Y18223811D01*
X8346852Y18196300D01*
X8346854Y18196300D01*
X8453146Y18196300D01*
X8453148Y18196300D01*
X8555823Y18223811D01*
X8647878Y18276959D01*
X8723041Y18352122D01*
X8776189Y18444177D01*
X8803700Y18546852D01*
X8803700Y18653148D01*
X8776189Y18755823D01*
X8723041Y18847878D01*
X8647878Y18923041D01*
X8586508Y18958473D01*
X8555825Y18976188D01*
X8555824Y18976189D01*
X8555823Y18976189D01*
X8453148Y19003700D01*
X8346852Y19003700D01*
X8244175Y18976189D01*
X8161999Y18928744D01*
X8094099Y18912272D01*
X8038001Y18928744D01*
X7955824Y18976189D01*
X7904485Y18989945D01*
X7853148Y19003700D01*
X7746852Y19003700D01*
X7644175Y18976189D01*
X7561999Y18928744D01*
X7494099Y18912272D01*
X7438001Y18928744D01*
X7355824Y18976189D01*
X7304485Y18989945D01*
X7253148Y19003700D01*
X7146852Y19003700D01*
X7044177Y18976189D01*
X7044175Y18976188D01*
X7044174Y18976188D01*
X6952125Y18923043D01*
X6952119Y18923039D01*
X6937681Y18908600D01*
X6876358Y18875115D01*
X6806666Y18880099D01*
X6762319Y18908600D01*
X6747880Y18923039D01*
X6747878Y18923041D01*
X6686508Y18958473D01*
X6655825Y18976188D01*
X6655824Y18976189D01*
X6655823Y18976189D01*
X6553148Y19003700D01*
X6446852Y19003700D01*
X6344177Y18976189D01*
X6344175Y18976188D01*
X6344174Y18976188D01*
X6252125Y18923043D01*
X6252119Y18923039D01*
X6237681Y18908600D01*
X6176358Y18875115D01*
X6106666Y18880099D01*
X6062319Y18908600D01*
X6047880Y18923039D01*
X6047878Y18923041D01*
X5986508Y18958473D01*
X5955825Y18976188D01*
X5955824Y18976189D01*
X5955823Y18976189D01*
X5853148Y19003700D01*
X5746852Y19003700D01*
X5644177Y18976189D01*
X5644174Y18976188D01*
X5641593Y18975496D01*
X5571743Y18977159D01*
X5513881Y19016322D01*
X5486377Y19080550D01*
X5485500Y19095271D01*
X5485500Y19152600D01*
X5485500Y19152601D01*
X5453095Y19273536D01*
X5390495Y19381964D01*
X5301964Y19470495D01*
X5193536Y19533095D01*
X5193537Y19533095D01*
X5153224Y19543897D01*
X5072601Y19565500D01*
X4947399Y19565500D01*
X4866775Y19543897D01*
X4826463Y19533095D01*
X4718037Y19470496D01*
X4718034Y19470494D01*
X4629506Y19381966D01*
X4629504Y19381963D01*
X4566905Y19273537D01*
X4566905Y19273536D01*
X4534500Y19152601D01*
X4534500Y19027399D01*
X4548408Y18975496D01*
X4555308Y18949745D01*
X4553645Y18879895D01*
X4514483Y18822032D01*
X4450255Y18794528D01*
X4403442Y18797876D01*
X4329456Y18817700D01*
X4223160Y18817700D01*
X4120485Y18790189D01*
X4120483Y18790189D01*
X4120483Y18790188D01*
X4120480Y18790187D01*
X4104767Y18781115D01*
X4036866Y18764644D01*
X3970840Y18787497D01*
X3935382Y18826503D01*
X3923043Y18847875D01*
X3923038Y18847881D01*
X3847880Y18923039D01*
X3847878Y18923041D01*
X3786508Y18958473D01*
X3755825Y18976188D01*
X3755824Y18976189D01*
X3755823Y18976189D01*
X3653148Y19003700D01*
X3546852Y19003700D01*
X3444177Y18976189D01*
X3444175Y18976188D01*
X3444174Y18976188D01*
X3352125Y18923043D01*
X3352119Y18923039D01*
X3337681Y18908600D01*
X3276358Y18875115D01*
X3206666Y18880099D01*
X3162319Y18908600D01*
X3147880Y18923039D01*
X3147878Y18923041D01*
X3086508Y18958473D01*
X3055825Y18976188D01*
X3055824Y18976189D01*
X3055823Y18976189D01*
X2953148Y19003700D01*
X2846852Y19003700D01*
X2744177Y18976189D01*
X2744175Y18976188D01*
X2744174Y18976188D01*
X2652125Y18923043D01*
X2652119Y18923039D01*
X2637681Y18908600D01*
X2576358Y18875115D01*
X2506666Y18880099D01*
X2462319Y18908600D01*
X2447880Y18923039D01*
X2447878Y18923041D01*
X2386508Y18958473D01*
X2355825Y18976188D01*
X2355824Y18976189D01*
X2355823Y18976189D01*
X2253148Y19003700D01*
X2146852Y19003700D01*
X2044177Y18976189D01*
X2044175Y18976188D01*
X2044174Y18976188D01*
X1952125Y18923043D01*
X1952119Y18923039D01*
X1876961Y18847881D01*
X1876957Y18847875D01*
X1823812Y18755826D01*
X1823812Y18755825D01*
X1823811Y18755823D01*
X1796300Y18653148D01*
X300500Y18653148D01*
X300500Y19954954D01*
X320185Y20021993D01*
X372989Y20067748D01*
X442147Y20077692D01*
X505703Y20048667D01*
X512181Y20042635D01*
X581414Y19973402D01*
X696676Y19896387D01*
X824733Y19843345D01*
X824738Y19843343D01*
X960687Y19816301D01*
X960690Y19816300D01*
X960692Y19816300D01*
X1699310Y19816300D01*
X1699311Y19816301D01*
X1835262Y19843343D01*
X1899294Y19869866D01*
X1963323Y19896387D01*
X1963324Y19896388D01*
X1963327Y19896389D01*
X2078583Y19973400D01*
X2176600Y20071417D01*
X2253611Y20186673D01*
X2306657Y20314738D01*
X2333700Y20450692D01*
X2333700Y20589308D01*
X2333700Y20589311D01*
X2333699Y20589313D01*
X4256300Y20589313D01*
X4256300Y20450688D01*
X4283341Y20314746D01*
X4283344Y20314734D01*
X4336386Y20186677D01*
X4413401Y20071415D01*
X4511414Y19973402D01*
X4626676Y19896387D01*
X4754733Y19843345D01*
X4754738Y19843343D01*
X4890687Y19816301D01*
X4890690Y19816300D01*
X4890692Y19816300D01*
X6129310Y19816300D01*
X6129311Y19816301D01*
X6265262Y19843343D01*
X6329294Y19869866D01*
X6393323Y19896387D01*
X6393324Y19896388D01*
X6393327Y19896389D01*
X6508583Y19973400D01*
X6606600Y20071417D01*
X6683611Y20186673D01*
X6736657Y20314738D01*
X6763700Y20450692D01*
X6763700Y20589308D01*
X6763700Y20589311D01*
X6763699Y20589313D01*
X6736658Y20725255D01*
X6736657Y20725262D01*
X6736655Y20725267D01*
X6683613Y20853324D01*
X6606598Y20968586D01*
X6508585Y21066599D01*
X6393323Y21143614D01*
X6265266Y21196656D01*
X6265254Y21196659D01*
X6129311Y21223700D01*
X6129308Y21223700D01*
X4890692Y21223700D01*
X4890689Y21223700D01*
X4754745Y21196659D01*
X4754733Y21196656D01*
X4626676Y21143614D01*
X4511414Y21066599D01*
X4413401Y20968586D01*
X4336386Y20853324D01*
X4283344Y20725267D01*
X4283341Y20725255D01*
X4256300Y20589313D01*
X2333699Y20589313D01*
X2306658Y20725255D01*
X2306657Y20725262D01*
X2306655Y20725267D01*
X2253613Y20853324D01*
X2176598Y20968586D01*
X2078585Y21066599D01*
X1963323Y21143614D01*
X1835266Y21196656D01*
X1835254Y21196659D01*
X1699311Y21223700D01*
X1699308Y21223700D01*
X960692Y21223700D01*
X960689Y21223700D01*
X824745Y21196659D01*
X824733Y21196656D01*
X696676Y21143614D01*
X581414Y21066599D01*
X581413Y21066598D01*
X512181Y20997365D01*
X450858Y20963880D01*
X381166Y20968864D01*
X325233Y21010736D01*
X300816Y21076200D01*
X300500Y21085046D01*
X300500Y23876000D01*
X320185Y23943039D01*
X372989Y23988794D01*
X424500Y24000000D01*
X10376000Y24000000D01*
X10443039Y23980315D01*
G37*
%TD.AperFunction*%
%TD*%
M02*
