%TF.GenerationSoftware,KiCad,Pcbnew,9.0.7*%
%TF.CreationDate,2026-02-27T18:20:13+01:00*%
%TF.ProjectId,PDNode-PDCard-4242,50444e6f-6465-42d5-9044-436172642d34,rev?*%
%TF.SameCoordinates,Original*%
%TF.FileFunction,Soldermask,Top*%
%TF.FilePolarity,Negative*%
%FSLAX46Y46*%
G04 Gerber Fmt 4.6, Leading zero omitted, Abs format (unit mm)*
G04 Created by KiCad (PCBNEW 9.0.7) date 2026-02-27 18:20:13*
%MOMM*%
%LPD*%
G01*
G04 APERTURE LIST*
G04 APERTURE END LIST*
G36*
X35739632Y5873559D02*
G01*
X35766668Y5862360D01*
X35787360Y5841668D01*
X35798559Y5814632D01*
X35800000Y5800000D01*
X35800000Y-800000D01*
X35798559Y-814632D01*
X35787360Y-841668D01*
X35766668Y-862360D01*
X35739632Y-873559D01*
X35725000Y-875000D01*
X35722546Y-875000D01*
X12902454Y-875000D01*
X12900000Y-875000D01*
X12885368Y-873559D01*
X12858332Y-862360D01*
X12837640Y-841668D01*
X12826441Y-814632D01*
X12825000Y-800000D01*
X12825000Y5800000D01*
X12826441Y5814632D01*
X12837640Y5841668D01*
X12858332Y5862360D01*
X12885368Y5873559D01*
X12900000Y5875000D01*
X35725000Y5875000D01*
X35739632Y5873559D01*
G37*
G36*
X3363953Y7156767D02*
G01*
X3648239Y7080593D01*
X3920150Y6967964D01*
X4175033Y6820807D01*
X4408528Y6641640D01*
X4616640Y6433528D01*
X4795807Y6200033D01*
X4942964Y5945150D01*
X5055593Y5673239D01*
X5131767Y5388953D01*
X5170183Y5097157D01*
X5170183Y4802843D01*
X5131767Y4511047D01*
X5055593Y4226761D01*
X4942964Y3954850D01*
X4795807Y3699967D01*
X4616640Y3466472D01*
X4408528Y3258360D01*
X4175033Y3079193D01*
X3920150Y2932036D01*
X3648239Y2819407D01*
X3363953Y2743233D01*
X3072157Y2704817D01*
X2777843Y2704817D01*
X2486047Y2743233D01*
X2201761Y2819407D01*
X1929850Y2932036D01*
X1674967Y3079193D01*
X1441472Y3258360D01*
X1233360Y3466472D01*
X1054193Y3699967D01*
X907036Y3954850D01*
X794407Y4226761D01*
X718233Y4511047D01*
X679817Y4802843D01*
X679817Y5097157D01*
X718233Y5388953D01*
X794407Y5673239D01*
X907036Y5945150D01*
X1054193Y6200033D01*
X1233360Y6433528D01*
X1441472Y6641640D01*
X1674967Y6820807D01*
X1929850Y6967964D01*
X2201761Y7080593D01*
X2486047Y7156767D01*
X2777843Y7195183D01*
X3072157Y7195183D01*
X3363953Y7156767D01*
G37*
G36*
X8055796Y5595918D02*
G01*
X8115815Y5555815D01*
X8155918Y5495796D01*
X8170000Y5425000D01*
X8170000Y5155000D01*
X8155918Y5084204D01*
X8115815Y5024185D01*
X8055796Y4984082D01*
X7985000Y4970000D01*
X7615000Y4970000D01*
X7544204Y4984082D01*
X7484185Y5024185D01*
X7444082Y5084204D01*
X7430000Y5155000D01*
X7430000Y5425000D01*
X7444082Y5495796D01*
X7484185Y5555815D01*
X7544204Y5595918D01*
X7615000Y5610000D01*
X7985000Y5610000D01*
X8055796Y5595918D01*
G37*
G36*
X8055796Y6615918D02*
G01*
X8115815Y6575815D01*
X8155918Y6515796D01*
X8170000Y6445000D01*
X8170000Y6175000D01*
X8155918Y6104204D01*
X8115815Y6044185D01*
X8055796Y6004082D01*
X7985000Y5990000D01*
X7615000Y5990000D01*
X7544204Y6004082D01*
X7484185Y6044185D01*
X7444082Y6104204D01*
X7430000Y6175000D01*
X7430000Y6445000D01*
X7444082Y6515796D01*
X7484185Y6575815D01*
X7544204Y6615918D01*
X7615000Y6630000D01*
X7985000Y6630000D01*
X8055796Y6615918D01*
G37*
G36*
X8055796Y7595918D02*
G01*
X8115815Y7555815D01*
X8155918Y7495796D01*
X8170000Y7425000D01*
X8170000Y7155000D01*
X8155918Y7084204D01*
X8115815Y7024185D01*
X8055796Y6984082D01*
X7985000Y6970000D01*
X7615000Y6970000D01*
X7544204Y6984082D01*
X7484185Y7024185D01*
X7444082Y7084204D01*
X7430000Y7155000D01*
X7430000Y7425000D01*
X7444082Y7495796D01*
X7484185Y7555815D01*
X7544204Y7595918D01*
X7615000Y7610000D01*
X7985000Y7610000D01*
X8055796Y7595918D01*
G37*
G36*
X8055796Y8615918D02*
G01*
X8115815Y8575815D01*
X8155918Y8515796D01*
X8170000Y8445000D01*
X8170000Y8175000D01*
X8155918Y8104204D01*
X8115815Y8044185D01*
X8055796Y8004082D01*
X7985000Y7990000D01*
X7615000Y7990000D01*
X7544204Y8004082D01*
X7484185Y8044185D01*
X7444082Y8104204D01*
X7430000Y8175000D01*
X7430000Y8445000D01*
X7444082Y8515796D01*
X7484185Y8575815D01*
X7544204Y8615918D01*
X7615000Y8630000D01*
X7985000Y8630000D01*
X8055796Y8615918D01*
G37*
G36*
X2398685Y10417031D02*
G01*
X2407358Y10413202D01*
X2414925Y10412099D01*
X2462223Y10388977D01*
X2499541Y10372499D01*
X2502996Y10369044D01*
X2503920Y10368592D01*
X2573591Y10298921D01*
X2574042Y10297998D01*
X2577499Y10294541D01*
X2593978Y10257218D01*
X2617098Y10209927D01*
X2618200Y10202361D01*
X2622031Y10193685D01*
X2630000Y10125000D01*
X2630000Y8875000D01*
X2622031Y8806315D01*
X2618199Y8797639D01*
X2617098Y8790075D01*
X2593985Y8742798D01*
X2577499Y8705459D01*
X2574041Y8702002D01*
X2573591Y8701080D01*
X2503920Y8631409D01*
X2502998Y8630959D01*
X2499541Y8627501D01*
X2462207Y8611017D01*
X2414926Y8587902D01*
X2407361Y8586800D01*
X2398685Y8582969D01*
X2330000Y8575000D01*
X1705000Y8575000D01*
X1636315Y8582969D01*
X1627638Y8586800D01*
X1620074Y8587902D01*
X1572787Y8611019D01*
X1535459Y8627501D01*
X1532002Y8630958D01*
X1531079Y8631409D01*
X1461408Y8701080D01*
X1460956Y8702004D01*
X1457501Y8705459D01*
X1441025Y8742772D01*
X1417901Y8790074D01*
X1416798Y8797643D01*
X1412969Y8806315D01*
X1405000Y8875000D01*
X1405000Y10125000D01*
X1412969Y10193685D01*
X1416798Y10202358D01*
X1417901Y10209926D01*
X1441028Y10257234D01*
X1457501Y10294541D01*
X1460955Y10297996D01*
X1461408Y10298921D01*
X1531079Y10368592D01*
X1532004Y10369045D01*
X1535459Y10372499D01*
X1572761Y10388970D01*
X1620073Y10412099D01*
X1627642Y10413202D01*
X1636315Y10417031D01*
X1705000Y10425000D01*
X2330000Y10425000D01*
X2398685Y10417031D01*
G37*
G36*
X5323685Y10417031D02*
G01*
X5332358Y10413202D01*
X5339925Y10412099D01*
X5387223Y10388977D01*
X5424541Y10372499D01*
X5427996Y10369044D01*
X5428920Y10368592D01*
X5498591Y10298921D01*
X5499042Y10297998D01*
X5502499Y10294541D01*
X5518978Y10257218D01*
X5542098Y10209927D01*
X5543200Y10202361D01*
X5547031Y10193685D01*
X5555000Y10125000D01*
X5555000Y8875000D01*
X5547031Y8806315D01*
X5543199Y8797639D01*
X5542098Y8790075D01*
X5518985Y8742798D01*
X5502499Y8705459D01*
X5499041Y8702002D01*
X5498591Y8701080D01*
X5428920Y8631409D01*
X5427998Y8630959D01*
X5424541Y8627501D01*
X5387207Y8611017D01*
X5339926Y8587902D01*
X5332361Y8586800D01*
X5323685Y8582969D01*
X5255000Y8575000D01*
X4630000Y8575000D01*
X4561315Y8582969D01*
X4552638Y8586800D01*
X4545074Y8587902D01*
X4497787Y8611019D01*
X4460459Y8627501D01*
X4457002Y8630958D01*
X4456079Y8631409D01*
X4386408Y8701080D01*
X4385956Y8702004D01*
X4382501Y8705459D01*
X4366025Y8742772D01*
X4342901Y8790074D01*
X4341798Y8797643D01*
X4337969Y8806315D01*
X4330000Y8875000D01*
X4330000Y10125000D01*
X4337969Y10193685D01*
X4341798Y10202358D01*
X4342901Y10209926D01*
X4366028Y10257234D01*
X4382501Y10294541D01*
X4385955Y10297996D01*
X4386408Y10298921D01*
X4456079Y10368592D01*
X4457004Y10369045D01*
X4460459Y10372499D01*
X4497761Y10388970D01*
X4545073Y10412099D01*
X4552642Y10413202D01*
X4561315Y10417031D01*
X4630000Y10425000D01*
X5255000Y10425000D01*
X5323685Y10417031D01*
G37*
G36*
X33751175Y14038561D02*
G01*
X33756627Y14036019D01*
X33759404Y14035614D01*
X33798855Y14016328D01*
X33856844Y13989287D01*
X33939287Y13906844D01*
X33966338Y13848833D01*
X33985613Y13809405D01*
X33986017Y13806631D01*
X33988561Y13801175D01*
X34000000Y13714286D01*
X34000000Y9585714D01*
X33988561Y9498825D01*
X33986017Y9493370D01*
X33985613Y9490596D01*
X33966348Y9451190D01*
X33939287Y9393156D01*
X33856844Y9310713D01*
X33798810Y9283652D01*
X33759404Y9264387D01*
X33756630Y9263983D01*
X33751175Y9261439D01*
X33664286Y9250000D01*
X32635714Y9250000D01*
X32548825Y9261439D01*
X32543369Y9263983D01*
X32540595Y9264387D01*
X32501167Y9283662D01*
X32443156Y9310713D01*
X32360713Y9393156D01*
X32333672Y9451145D01*
X32314386Y9490596D01*
X32313981Y9493373D01*
X32311439Y9498825D01*
X32300000Y9585714D01*
X32300000Y13714286D01*
X32311439Y13801175D01*
X32313981Y13806627D01*
X32314386Y13809405D01*
X32333682Y13848877D01*
X32360713Y13906844D01*
X32443156Y13989287D01*
X32501123Y14016318D01*
X32540595Y14035614D01*
X32543373Y14036019D01*
X32548825Y14038561D01*
X32635714Y14050000D01*
X33664286Y14050000D01*
X33751175Y14038561D01*
G37*
G36*
X37051175Y14038561D02*
G01*
X37056627Y14036019D01*
X37059404Y14035614D01*
X37098855Y14016328D01*
X37156844Y13989287D01*
X37239287Y13906844D01*
X37266338Y13848833D01*
X37285613Y13809405D01*
X37286017Y13806631D01*
X37288561Y13801175D01*
X37300000Y13714286D01*
X37300000Y9585714D01*
X37288561Y9498825D01*
X37286017Y9493370D01*
X37285613Y9490596D01*
X37266348Y9451190D01*
X37239287Y9393156D01*
X37156844Y9310713D01*
X37098810Y9283652D01*
X37059404Y9264387D01*
X37056630Y9263983D01*
X37051175Y9261439D01*
X36964286Y9250000D01*
X35935714Y9250000D01*
X35848825Y9261439D01*
X35843369Y9263983D01*
X35840595Y9264387D01*
X35801167Y9283662D01*
X35743156Y9310713D01*
X35660713Y9393156D01*
X35633672Y9451145D01*
X35614386Y9490596D01*
X35613981Y9493373D01*
X35611439Y9498825D01*
X35600000Y9585714D01*
X35600000Y13714286D01*
X35611439Y13801175D01*
X35613981Y13806627D01*
X35614386Y13809405D01*
X35633682Y13848877D01*
X35660713Y13906844D01*
X35743156Y13989287D01*
X35801123Y14016318D01*
X35840595Y14035614D01*
X35843373Y14036019D01*
X35848825Y14038561D01*
X35935714Y14050000D01*
X36964286Y14050000D01*
X37051175Y14038561D01*
G37*
G36*
X8843685Y12717031D02*
G01*
X8852358Y12713202D01*
X8859925Y12712099D01*
X8907223Y12688977D01*
X8944541Y12672499D01*
X8947996Y12669044D01*
X8948920Y12668592D01*
X9018591Y12598921D01*
X9019042Y12597998D01*
X9022499Y12594541D01*
X9038978Y12557218D01*
X9062098Y12509927D01*
X9063200Y12502361D01*
X9067031Y12493685D01*
X9075000Y12425000D01*
X9075000Y9575000D01*
X9067031Y9506315D01*
X9063199Y9497639D01*
X9062098Y9490075D01*
X9038985Y9442798D01*
X9022499Y9405459D01*
X9019041Y9402002D01*
X9018591Y9401080D01*
X8948920Y9331409D01*
X8947998Y9330959D01*
X8944541Y9327501D01*
X8907207Y9311017D01*
X8859926Y9287902D01*
X8852361Y9286800D01*
X8843685Y9282969D01*
X8775000Y9275000D01*
X8050000Y9275000D01*
X7981315Y9282969D01*
X7972638Y9286800D01*
X7965074Y9287902D01*
X7917787Y9311019D01*
X7880459Y9327501D01*
X7877002Y9330958D01*
X7876079Y9331409D01*
X7806408Y9401080D01*
X7805956Y9402004D01*
X7802501Y9405459D01*
X7786025Y9442772D01*
X7762901Y9490074D01*
X7761798Y9497643D01*
X7757969Y9506315D01*
X7750000Y9575000D01*
X7750000Y12425000D01*
X7757969Y12493685D01*
X7761798Y12502358D01*
X7762901Y12509926D01*
X7786028Y12557234D01*
X7802501Y12594541D01*
X7805955Y12597996D01*
X7806408Y12598921D01*
X7876079Y12668592D01*
X7877004Y12669045D01*
X7880459Y12672499D01*
X7917761Y12688970D01*
X7965073Y12712099D01*
X7972642Y12713202D01*
X7981315Y12717031D01*
X8050000Y12725000D01*
X8775000Y12725000D01*
X8843685Y12717031D01*
G37*
G36*
X14768685Y12717031D02*
G01*
X14777358Y12713202D01*
X14784925Y12712099D01*
X14832223Y12688977D01*
X14869541Y12672499D01*
X14872996Y12669044D01*
X14873920Y12668592D01*
X14943591Y12598921D01*
X14944042Y12597998D01*
X14947499Y12594541D01*
X14963978Y12557218D01*
X14987098Y12509927D01*
X14988200Y12502361D01*
X14992031Y12493685D01*
X15000000Y12425000D01*
X15000000Y9575000D01*
X14992031Y9506315D01*
X14988199Y9497639D01*
X14987098Y9490075D01*
X14963985Y9442798D01*
X14947499Y9405459D01*
X14944041Y9402002D01*
X14943591Y9401080D01*
X14873920Y9331409D01*
X14872998Y9330959D01*
X14869541Y9327501D01*
X14832207Y9311017D01*
X14784926Y9287902D01*
X14777361Y9286800D01*
X14768685Y9282969D01*
X14700000Y9275000D01*
X13975000Y9275000D01*
X13906315Y9282969D01*
X13897638Y9286800D01*
X13890074Y9287902D01*
X13842787Y9311019D01*
X13805459Y9327501D01*
X13802002Y9330958D01*
X13801079Y9331409D01*
X13731408Y9401080D01*
X13730956Y9402004D01*
X13727501Y9405459D01*
X13711025Y9442772D01*
X13687901Y9490074D01*
X13686798Y9497643D01*
X13682969Y9506315D01*
X13675000Y9575000D01*
X13675000Y12425000D01*
X13682969Y12493685D01*
X13686798Y12502358D01*
X13687901Y12509926D01*
X13711028Y12557234D01*
X13727501Y12594541D01*
X13730955Y12597996D01*
X13731408Y12598921D01*
X13801079Y12668592D01*
X13802004Y12669045D01*
X13805459Y12672499D01*
X13842761Y12688970D01*
X13890073Y12712099D01*
X13897642Y12713202D01*
X13906315Y12717031D01*
X13975000Y12725000D01*
X14700000Y12725000D01*
X14768685Y12717031D01*
G37*
G36*
X47184129Y16700764D02*
G01*
X47200350Y16689925D01*
X47211189Y16673704D01*
X47214995Y16654570D01*
X47214995Y10045490D01*
X47211189Y10026356D01*
X47200350Y10010135D01*
X47184129Y9999296D01*
X47164995Y9995490D01*
X42084995Y9995490D01*
X42065861Y9999296D01*
X42049640Y10010135D01*
X42038801Y10026356D01*
X42034995Y10045490D01*
X42034995Y16654570D01*
X42038801Y16673704D01*
X42049640Y16689925D01*
X42065861Y16700764D01*
X42084995Y16704570D01*
X47164995Y16704570D01*
X47184129Y16700764D01*
G37*
G36*
X21221185Y13542031D02*
G01*
X21229858Y13538202D01*
X21237425Y13537099D01*
X21284723Y13513977D01*
X21322041Y13497499D01*
X21325496Y13494044D01*
X21326420Y13493592D01*
X21396091Y13423921D01*
X21396542Y13422998D01*
X21399999Y13419541D01*
X21416478Y13382218D01*
X21439598Y13334927D01*
X21440700Y13327361D01*
X21444531Y13318685D01*
X21452500Y13250000D01*
X21452500Y11160000D01*
X21444531Y11091315D01*
X21440699Y11082639D01*
X21439598Y11075075D01*
X21416485Y11027798D01*
X21399999Y10990459D01*
X21396541Y10987002D01*
X21396091Y10986080D01*
X21326420Y10916409D01*
X21325498Y10915959D01*
X21322041Y10912501D01*
X21284707Y10896017D01*
X21237426Y10872902D01*
X21229861Y10871800D01*
X21221185Y10867969D01*
X21152500Y10860000D01*
X19582500Y10860000D01*
X19513815Y10867969D01*
X19505138Y10871800D01*
X19497574Y10872902D01*
X19450287Y10896019D01*
X19412959Y10912501D01*
X19409502Y10915958D01*
X19408579Y10916409D01*
X19338908Y10986080D01*
X19338456Y10987004D01*
X19335001Y10990459D01*
X19318525Y11027772D01*
X19295401Y11075074D01*
X19294298Y11082643D01*
X19290469Y11091315D01*
X19282500Y11160000D01*
X19282500Y13250000D01*
X19290469Y13318685D01*
X19294298Y13327358D01*
X19295401Y13334926D01*
X19318528Y13382234D01*
X19335001Y13419541D01*
X19338455Y13422996D01*
X19338908Y13423921D01*
X19408579Y13493592D01*
X19409504Y13494045D01*
X19412959Y13497499D01*
X19450261Y13513970D01*
X19497573Y13537099D01*
X19505142Y13538202D01*
X19513815Y13542031D01*
X19582500Y13550000D01*
X21152500Y13550000D01*
X21221185Y13542031D01*
G37*
G36*
X27461185Y13542031D02*
G01*
X27469858Y13538202D01*
X27477425Y13537099D01*
X27524723Y13513977D01*
X27562041Y13497499D01*
X27565496Y13494044D01*
X27566420Y13493592D01*
X27636091Y13423921D01*
X27636542Y13422998D01*
X27639999Y13419541D01*
X27656478Y13382218D01*
X27679598Y13334927D01*
X27680700Y13327361D01*
X27684531Y13318685D01*
X27692500Y13250000D01*
X27692500Y11160000D01*
X27684531Y11091315D01*
X27680699Y11082639D01*
X27679598Y11075075D01*
X27656485Y11027798D01*
X27639999Y10990459D01*
X27636541Y10987002D01*
X27636091Y10986080D01*
X27566420Y10916409D01*
X27565498Y10915959D01*
X27562041Y10912501D01*
X27524707Y10896017D01*
X27477426Y10872902D01*
X27469861Y10871800D01*
X27461185Y10867969D01*
X27392500Y10860000D01*
X25822500Y10860000D01*
X25753815Y10867969D01*
X25745138Y10871800D01*
X25737574Y10872902D01*
X25690287Y10896019D01*
X25652959Y10912501D01*
X25649502Y10915958D01*
X25648579Y10916409D01*
X25578908Y10986080D01*
X25578456Y10987004D01*
X25575001Y10990459D01*
X25558525Y11027772D01*
X25535401Y11075074D01*
X25534298Y11082643D01*
X25530469Y11091315D01*
X25522500Y11160000D01*
X25522500Y13250000D01*
X25530469Y13318685D01*
X25534298Y13327358D01*
X25535401Y13334926D01*
X25558528Y13382234D01*
X25575001Y13419541D01*
X25578455Y13422996D01*
X25578908Y13423921D01*
X25648579Y13493592D01*
X25649504Y13494045D01*
X25652959Y13497499D01*
X25690261Y13513970D01*
X25737573Y13537099D01*
X25745142Y13538202D01*
X25753815Y13542031D01*
X25822500Y13550000D01*
X27392500Y13550000D01*
X27461185Y13542031D01*
G37*
G36*
X1701789Y12425295D02*
G01*
X1840476Y12388134D01*
X1964819Y12316344D01*
X2066344Y12214819D01*
X2138134Y12090476D01*
X2175295Y11951789D01*
X2175295Y11808211D01*
X2138134Y11669524D01*
X2066344Y11545181D01*
X1964819Y11443656D01*
X1840476Y11371866D01*
X1701789Y11334705D01*
X1630000Y11330000D01*
X1628363Y11330000D01*
X1031637Y11330000D01*
X1030000Y11330000D01*
X958211Y11334705D01*
X819524Y11371866D01*
X695181Y11443656D01*
X593656Y11545181D01*
X521866Y11669524D01*
X484705Y11808211D01*
X484705Y11951789D01*
X521866Y12090476D01*
X593656Y12214819D01*
X695181Y12316344D01*
X819524Y12388134D01*
X958211Y12425295D01*
X1030000Y12430000D01*
X1630000Y12430000D01*
X1701789Y12425295D01*
G37*
G36*
X6131789Y12425295D02*
G01*
X6270476Y12388134D01*
X6394819Y12316344D01*
X6496344Y12214819D01*
X6568134Y12090476D01*
X6605295Y11951789D01*
X6605295Y11808211D01*
X6568134Y11669524D01*
X6496344Y11545181D01*
X6394819Y11443656D01*
X6270476Y11371866D01*
X6131789Y11334705D01*
X6060000Y11330000D01*
X6058363Y11330000D01*
X4961637Y11330000D01*
X4960000Y11330000D01*
X4888211Y11334705D01*
X4749524Y11371866D01*
X4625181Y11443656D01*
X4523656Y11545181D01*
X4451866Y11669524D01*
X4414705Y11808211D01*
X4414705Y11951789D01*
X4451866Y12090476D01*
X4523656Y12214819D01*
X4625181Y12316344D01*
X4749524Y12388134D01*
X4888211Y12425295D01*
X4960000Y12430000D01*
X6060000Y12430000D01*
X6131789Y12425295D01*
G37*
G36*
X29218685Y13367031D02*
G01*
X29227358Y13363202D01*
X29234925Y13362099D01*
X29282223Y13338977D01*
X29319541Y13322499D01*
X29322996Y13319044D01*
X29323920Y13318592D01*
X29393591Y13248921D01*
X29394042Y13247998D01*
X29397499Y13244541D01*
X29413978Y13207218D01*
X29437098Y13159927D01*
X29438200Y13152361D01*
X29442031Y13143685D01*
X29450000Y13075000D01*
X29450000Y12125000D01*
X29442031Y12056315D01*
X29438199Y12047639D01*
X29437098Y12040075D01*
X29413985Y11992798D01*
X29397499Y11955459D01*
X29394041Y11952002D01*
X29393591Y11951080D01*
X29323920Y11881409D01*
X29322998Y11880959D01*
X29319541Y11877501D01*
X29282207Y11861017D01*
X29234926Y11837902D01*
X29227361Y11836800D01*
X29218685Y11832969D01*
X29150000Y11825000D01*
X28650000Y11825000D01*
X28581315Y11832969D01*
X28572638Y11836800D01*
X28565074Y11837902D01*
X28517787Y11861019D01*
X28480459Y11877501D01*
X28477002Y11880958D01*
X28476079Y11881409D01*
X28406408Y11951080D01*
X28405956Y11952004D01*
X28402501Y11955459D01*
X28386025Y11992772D01*
X28362901Y12040074D01*
X28361798Y12047643D01*
X28357969Y12056315D01*
X28350000Y12125000D01*
X28350000Y13075000D01*
X28357969Y13143685D01*
X28361798Y13152358D01*
X28362901Y13159926D01*
X28386028Y13207234D01*
X28402501Y13244541D01*
X28405955Y13247996D01*
X28406408Y13248921D01*
X28476079Y13318592D01*
X28477004Y13319045D01*
X28480459Y13322499D01*
X28517761Y13338970D01*
X28565073Y13362099D01*
X28572642Y13363202D01*
X28581315Y13367031D01*
X28650000Y13375000D01*
X29150000Y13375000D01*
X29218685Y13367031D01*
G37*
G36*
X31118685Y13367031D02*
G01*
X31127358Y13363202D01*
X31134925Y13362099D01*
X31182223Y13338977D01*
X31219541Y13322499D01*
X31222996Y13319044D01*
X31223920Y13318592D01*
X31293591Y13248921D01*
X31294042Y13247998D01*
X31297499Y13244541D01*
X31313978Y13207218D01*
X31337098Y13159927D01*
X31338200Y13152361D01*
X31342031Y13143685D01*
X31350000Y13075000D01*
X31350000Y12125000D01*
X31342031Y12056315D01*
X31338199Y12047639D01*
X31337098Y12040075D01*
X31313985Y11992798D01*
X31297499Y11955459D01*
X31294041Y11952002D01*
X31293591Y11951080D01*
X31223920Y11881409D01*
X31222998Y11880959D01*
X31219541Y11877501D01*
X31182207Y11861017D01*
X31134926Y11837902D01*
X31127361Y11836800D01*
X31118685Y11832969D01*
X31050000Y11825000D01*
X30550000Y11825000D01*
X30481315Y11832969D01*
X30472638Y11836800D01*
X30465074Y11837902D01*
X30417787Y11861019D01*
X30380459Y11877501D01*
X30377002Y11880958D01*
X30376079Y11881409D01*
X30306408Y11951080D01*
X30305956Y11952004D01*
X30302501Y11955459D01*
X30286025Y11992772D01*
X30262901Y12040074D01*
X30261798Y12047643D01*
X30257969Y12056315D01*
X30250000Y12125000D01*
X30250000Y13075000D01*
X30257969Y13143685D01*
X30261798Y13152358D01*
X30262901Y13159926D01*
X30286028Y13207234D01*
X30302501Y13244541D01*
X30305955Y13247996D01*
X30306408Y13248921D01*
X30376079Y13318592D01*
X30377004Y13319045D01*
X30380459Y13322499D01*
X30417761Y13338970D01*
X30465073Y13362099D01*
X30472642Y13363202D01*
X30481315Y13367031D01*
X30550000Y13375000D01*
X31050000Y13375000D01*
X31118685Y13367031D01*
G37*
G36*
X6726537Y13334776D02*
G01*
X6791421Y13291421D01*
X6834776Y13226537D01*
X6850000Y13150000D01*
X6850000Y12850000D01*
X6834776Y12773463D01*
X6791421Y12708579D01*
X6726537Y12665224D01*
X6650000Y12650000D01*
X5650000Y12650000D01*
X5573463Y12665224D01*
X5508579Y12708579D01*
X5465224Y12773463D01*
X5450000Y12850000D01*
X5450000Y13150000D01*
X5465224Y13226537D01*
X5508579Y13291421D01*
X5573463Y13334776D01*
X5650000Y13350000D01*
X6650000Y13350000D01*
X6726537Y13334776D01*
G37*
G36*
X5134372Y13610261D02*
G01*
X5207847Y13567840D01*
X5267840Y13507847D01*
X5310261Y13434372D01*
X5332220Y13352421D01*
X5332220Y13267579D01*
X5310261Y13185628D01*
X5267840Y13112153D01*
X5207847Y13052160D01*
X5134372Y13009739D01*
X5052421Y12987780D01*
X4967579Y12987780D01*
X4885628Y13009739D01*
X4812153Y13052160D01*
X4752160Y13112153D01*
X4709739Y13185628D01*
X4687780Y13267579D01*
X4687780Y13352421D01*
X4709739Y13434372D01*
X4752160Y13507847D01*
X4812153Y13567840D01*
X4885628Y13610261D01*
X4967579Y13632220D01*
X5052421Y13632220D01*
X5134372Y13610261D01*
G37*
G36*
X6726537Y14134776D02*
G01*
X6791421Y14091421D01*
X6834776Y14026537D01*
X6850000Y13950000D01*
X6850000Y13650000D01*
X6834776Y13573463D01*
X6791421Y13508579D01*
X6726537Y13465224D01*
X6650000Y13450000D01*
X5650000Y13450000D01*
X5573463Y13465224D01*
X5508579Y13508579D01*
X5465224Y13573463D01*
X5450000Y13650000D01*
X5450000Y13950000D01*
X5465224Y14026537D01*
X5508579Y14091421D01*
X5573463Y14134776D01*
X5650000Y14150000D01*
X6650000Y14150000D01*
X6726537Y14134776D01*
G37*
G36*
X9587040Y14460049D02*
G01*
X9648680Y14418862D01*
X9689867Y14357222D01*
X9704330Y14284512D01*
X9704330Y13944512D01*
X9689867Y13871802D01*
X9648680Y13810162D01*
X9587040Y13768975D01*
X9514330Y13754512D01*
X9234330Y13754512D01*
X9161620Y13768975D01*
X9099980Y13810162D01*
X9058793Y13871802D01*
X9044330Y13944512D01*
X9044330Y14284512D01*
X9058793Y14357222D01*
X9099980Y14418862D01*
X9161620Y14460049D01*
X9234330Y14474512D01*
X9514330Y14474512D01*
X9587040Y14460049D01*
G37*
G36*
X10547040Y14460049D02*
G01*
X10608680Y14418862D01*
X10649867Y14357222D01*
X10664330Y14284512D01*
X10664330Y13944512D01*
X10649867Y13871802D01*
X10608680Y13810162D01*
X10547040Y13768975D01*
X10474330Y13754512D01*
X10194330Y13754512D01*
X10121620Y13768975D01*
X10059980Y13810162D01*
X10018793Y13871802D01*
X10004330Y13944512D01*
X10004330Y14284512D01*
X10018793Y14357222D01*
X10059980Y14418862D01*
X10121620Y14460049D01*
X10194330Y14474512D01*
X10474330Y14474512D01*
X10547040Y14460049D01*
G37*
G36*
X6772835Y14640485D02*
G01*
X6813388Y14613388D01*
X6840485Y14572835D01*
X6850000Y14525000D01*
X6850000Y14375000D01*
X6840485Y14327165D01*
X6813388Y14286612D01*
X6772835Y14259515D01*
X6725000Y14250000D01*
X5575000Y14250000D01*
X5527165Y14259515D01*
X5486612Y14286612D01*
X5459515Y14327165D01*
X5450000Y14375000D01*
X5450000Y14525000D01*
X5459515Y14572835D01*
X5486612Y14613388D01*
X5527165Y14640485D01*
X5575000Y14650000D01*
X6725000Y14650000D01*
X6772835Y14640485D01*
G37*
G36*
X14895796Y15155918D02*
G01*
X14955815Y15115815D01*
X14995918Y15055796D01*
X15010000Y14985000D01*
X15010000Y14615000D01*
X14995918Y14544204D01*
X14955815Y14484185D01*
X14895796Y14444082D01*
X14825000Y14430000D01*
X14555000Y14430000D01*
X14484204Y14444082D01*
X14424185Y14484185D01*
X14384082Y14544204D01*
X14370000Y14615000D01*
X14370000Y14985000D01*
X14384082Y15055796D01*
X14424185Y15115815D01*
X14484204Y15155918D01*
X14555000Y15170000D01*
X14825000Y15170000D01*
X14895796Y15155918D01*
G37*
G36*
X15915796Y15155918D02*
G01*
X15975815Y15115815D01*
X16015918Y15055796D01*
X16030000Y14985000D01*
X16030000Y14615000D01*
X16015918Y14544204D01*
X15975815Y14484185D01*
X15915796Y14444082D01*
X15845000Y14430000D01*
X15575000Y14430000D01*
X15504204Y14444082D01*
X15444185Y14484185D01*
X15404082Y14544204D01*
X15390000Y14615000D01*
X15390000Y14985000D01*
X15404082Y15055796D01*
X15444185Y15115815D01*
X15504204Y15155918D01*
X15575000Y15170000D01*
X15845000Y15170000D01*
X15915796Y15155918D01*
G37*
G36*
X11558385Y15198161D02*
G01*
X11618404Y15158058D01*
X11658507Y15098039D01*
X11672589Y15027243D01*
X11672589Y14657243D01*
X11658507Y14586447D01*
X11618404Y14526428D01*
X11558385Y14486325D01*
X11487589Y14472243D01*
X11217589Y14472243D01*
X11146793Y14486325D01*
X11086774Y14526428D01*
X11046671Y14586447D01*
X11032589Y14657243D01*
X11032589Y15027243D01*
X11046671Y15098039D01*
X11086774Y15158058D01*
X11146793Y15198161D01*
X11217589Y15212243D01*
X11487589Y15212243D01*
X11558385Y15198161D01*
G37*
G36*
X12578385Y15198161D02*
G01*
X12638404Y15158058D01*
X12678507Y15098039D01*
X12692589Y15027243D01*
X12692589Y14657243D01*
X12678507Y14586447D01*
X12638404Y14526428D01*
X12578385Y14486325D01*
X12507589Y14472243D01*
X12237589Y14472243D01*
X12166793Y14486325D01*
X12106774Y14526428D01*
X12066671Y14586447D01*
X12052589Y14657243D01*
X12052589Y15027243D01*
X12066671Y15098039D01*
X12106774Y15158058D01*
X12166793Y15198161D01*
X12237589Y15212243D01*
X12507589Y15212243D01*
X12578385Y15198161D01*
G37*
G36*
X6772835Y15140485D02*
G01*
X6813388Y15113388D01*
X6840485Y15072835D01*
X6850000Y15025000D01*
X6850000Y14875000D01*
X6840485Y14827165D01*
X6813388Y14786612D01*
X6772835Y14759515D01*
X6725000Y14750000D01*
X5575000Y14750000D01*
X5527165Y14759515D01*
X5486612Y14786612D01*
X5459515Y14827165D01*
X5450000Y14875000D01*
X5450000Y15025000D01*
X5459515Y15072835D01*
X5486612Y15113388D01*
X5527165Y15140485D01*
X5575000Y15150000D01*
X6725000Y15150000D01*
X6772835Y15140485D01*
G37*
G36*
X9809571Y15377071D02*
G01*
X9812500Y15370000D01*
X9812500Y15030000D01*
X9809571Y15022929D01*
X9802500Y15020000D01*
X9792556Y15020000D01*
X9107444Y15020000D01*
X9097500Y15020000D01*
X9090429Y15022929D01*
X9087500Y15030000D01*
X9087500Y15370000D01*
X9090429Y15377071D01*
X9097500Y15380000D01*
X9802500Y15380000D01*
X9809571Y15377071D01*
G37*
G36*
X10644571Y15377071D02*
G01*
X10647500Y15370000D01*
X10647500Y15030000D01*
X10644571Y15022929D01*
X10637500Y15020000D01*
X10627556Y15020000D01*
X9942444Y15020000D01*
X9932500Y15020000D01*
X9925429Y15022929D01*
X9922500Y15030000D01*
X9922500Y15370000D01*
X9925429Y15377071D01*
X9932500Y15380000D01*
X10637500Y15380000D01*
X10644571Y15377071D01*
G37*
G36*
X25331185Y16147031D02*
G01*
X25339858Y16143202D01*
X25347425Y16142099D01*
X25394723Y16118977D01*
X25432041Y16102499D01*
X25435496Y16099044D01*
X25436420Y16098592D01*
X25506091Y16028921D01*
X25506542Y16027998D01*
X25509999Y16024541D01*
X25526478Y15987218D01*
X25549598Y15939927D01*
X25550700Y15932361D01*
X25554531Y15923685D01*
X25562500Y15855000D01*
X25562500Y15355000D01*
X25554531Y15286315D01*
X25550699Y15277639D01*
X25549598Y15270075D01*
X25526485Y15222798D01*
X25509999Y15185459D01*
X25506541Y15182002D01*
X25506091Y15181080D01*
X25436420Y15111409D01*
X25435498Y15110959D01*
X25432041Y15107501D01*
X25394707Y15091017D01*
X25347426Y15067902D01*
X25339861Y15066800D01*
X25331185Y15062969D01*
X25262500Y15055000D01*
X24312500Y15055000D01*
X24243815Y15062969D01*
X24235138Y15066800D01*
X24227574Y15067902D01*
X24180287Y15091019D01*
X24142959Y15107501D01*
X24139502Y15110958D01*
X24138579Y15111409D01*
X24068908Y15181080D01*
X24068456Y15182004D01*
X24065001Y15185459D01*
X24048525Y15222772D01*
X24025401Y15270074D01*
X24024298Y15277643D01*
X24020469Y15286315D01*
X24012500Y15355000D01*
X24012500Y15855000D01*
X24020469Y15923685D01*
X24024298Y15932358D01*
X24025401Y15939926D01*
X24048528Y15987234D01*
X24065001Y16024541D01*
X24068455Y16027996D01*
X24068908Y16028921D01*
X24138579Y16098592D01*
X24139504Y16099045D01*
X24142959Y16102499D01*
X24180261Y16118970D01*
X24227573Y16142099D01*
X24235142Y16143202D01*
X24243815Y16147031D01*
X24312500Y16155000D01*
X25262500Y16155000D01*
X25331185Y16147031D01*
G37*
G36*
X27431185Y16147031D02*
G01*
X27439858Y16143202D01*
X27447425Y16142099D01*
X27494723Y16118977D01*
X27532041Y16102499D01*
X27535496Y16099044D01*
X27536420Y16098592D01*
X27606091Y16028921D01*
X27606542Y16027998D01*
X27609999Y16024541D01*
X27626478Y15987218D01*
X27649598Y15939927D01*
X27650700Y15932361D01*
X27654531Y15923685D01*
X27662500Y15855000D01*
X27662500Y15355000D01*
X27654531Y15286315D01*
X27650699Y15277639D01*
X27649598Y15270075D01*
X27626485Y15222798D01*
X27609999Y15185459D01*
X27606541Y15182002D01*
X27606091Y15181080D01*
X27536420Y15111409D01*
X27535498Y15110959D01*
X27532041Y15107501D01*
X27494707Y15091017D01*
X27447426Y15067902D01*
X27439861Y15066800D01*
X27431185Y15062969D01*
X27362500Y15055000D01*
X26412500Y15055000D01*
X26343815Y15062969D01*
X26335138Y15066800D01*
X26327574Y15067902D01*
X26280287Y15091019D01*
X26242959Y15107501D01*
X26239502Y15110958D01*
X26238579Y15111409D01*
X26168908Y15181080D01*
X26168456Y15182004D01*
X26165001Y15185459D01*
X26148525Y15222772D01*
X26125401Y15270074D01*
X26124298Y15277643D01*
X26120469Y15286315D01*
X26112500Y15355000D01*
X26112500Y15855000D01*
X26120469Y15923685D01*
X26124298Y15932358D01*
X26125401Y15939926D01*
X26148528Y15987234D01*
X26165001Y16024541D01*
X26168455Y16027996D01*
X26168908Y16028921D01*
X26238579Y16098592D01*
X26239504Y16099045D01*
X26242959Y16102499D01*
X26280261Y16118970D01*
X26327573Y16142099D01*
X26335142Y16143202D01*
X26343815Y16147031D01*
X26412500Y16155000D01*
X27362500Y16155000D01*
X27431185Y16147031D01*
G37*
G36*
X6772835Y15640485D02*
G01*
X6813388Y15613388D01*
X6840485Y15572835D01*
X6850000Y15525000D01*
X6850000Y15375000D01*
X6840485Y15327165D01*
X6813388Y15286612D01*
X6772835Y15259515D01*
X6725000Y15250000D01*
X5575000Y15250000D01*
X5527165Y15259515D01*
X5486612Y15286612D01*
X5459515Y15327165D01*
X5450000Y15375000D01*
X5450000Y15525000D01*
X5459515Y15572835D01*
X5486612Y15613388D01*
X5527165Y15640485D01*
X5575000Y15650000D01*
X6725000Y15650000D01*
X6772835Y15640485D01*
G37*
G36*
X36717710Y16035537D02*
G01*
X36779350Y15994350D01*
X36820537Y15932710D01*
X36835000Y15860000D01*
X36835000Y15580000D01*
X36820537Y15507290D01*
X36779350Y15445650D01*
X36717710Y15404463D01*
X36645000Y15390000D01*
X36305000Y15390000D01*
X36232290Y15404463D01*
X36170650Y15445650D01*
X36129463Y15507290D01*
X36115000Y15580000D01*
X36115000Y15860000D01*
X36129463Y15932710D01*
X36170650Y15994350D01*
X36232290Y16035537D01*
X36305000Y16050000D01*
X36645000Y16050000D01*
X36717710Y16035537D01*
G37*
G36*
X35555796Y16020918D02*
G01*
X35615815Y15980815D01*
X35655918Y15920796D01*
X35670000Y15850000D01*
X35670000Y15580000D01*
X35655918Y15509204D01*
X35615815Y15449185D01*
X35555796Y15409082D01*
X35485000Y15395000D01*
X35115000Y15395000D01*
X35044204Y15409082D01*
X34984185Y15449185D01*
X34944082Y15509204D01*
X34930000Y15580000D01*
X34930000Y15850000D01*
X34944082Y15920796D01*
X34984185Y15980815D01*
X35044204Y16020918D01*
X35115000Y16035000D01*
X35485000Y16035000D01*
X35555796Y16020918D01*
G37*
G36*
X14905796Y16155918D02*
G01*
X14965815Y16115815D01*
X15005918Y16055796D01*
X15020000Y15985000D01*
X15020000Y15615000D01*
X15005918Y15544204D01*
X14965815Y15484185D01*
X14905796Y15444082D01*
X14835000Y15430000D01*
X14565000Y15430000D01*
X14494204Y15444082D01*
X14434185Y15484185D01*
X14394082Y15544204D01*
X14380000Y15615000D01*
X14380000Y15985000D01*
X14394082Y16055796D01*
X14434185Y16115815D01*
X14494204Y16155918D01*
X14565000Y16170000D01*
X14835000Y16170000D01*
X14905796Y16155918D01*
G37*
G36*
X15925796Y16155918D02*
G01*
X15985815Y16115815D01*
X16025918Y16055796D01*
X16040000Y15985000D01*
X16040000Y15615000D01*
X16025918Y15544204D01*
X15985815Y15484185D01*
X15925796Y15444082D01*
X15855000Y15430000D01*
X15585000Y15430000D01*
X15514204Y15444082D01*
X15454185Y15484185D01*
X15414082Y15544204D01*
X15400000Y15615000D01*
X15400000Y15985000D01*
X15414082Y16055796D01*
X15454185Y16115815D01*
X15514204Y16155918D01*
X15585000Y16170000D01*
X15855000Y16170000D01*
X15925796Y16155918D01*
G37*
G36*
X30650384Y16536194D02*
G01*
X30666605Y16525355D01*
X30677444Y16509134D01*
X30681250Y16490000D01*
X30681250Y15540000D01*
X30677444Y15520866D01*
X30666605Y15504645D01*
X30650384Y15493806D01*
X30631250Y15490000D01*
X30331250Y15490000D01*
X30312116Y15493806D01*
X30295895Y15504645D01*
X30285056Y15520866D01*
X30281250Y15540000D01*
X30281250Y16110712D01*
X30251962Y16140000D01*
X29743750Y16140000D01*
X29724616Y16143806D01*
X29708395Y16154645D01*
X29697556Y16170866D01*
X29693750Y16190000D01*
X29693750Y16490000D01*
X29697556Y16509134D01*
X29708395Y16525355D01*
X29724616Y16536194D01*
X29743750Y16540000D01*
X30631250Y16540000D01*
X30650384Y16536194D01*
G37*
G36*
X31166634Y16536194D02*
G01*
X31182855Y16525355D01*
X31193694Y16509134D01*
X31197500Y16490000D01*
X31197500Y15540000D01*
X31193694Y15520866D01*
X31182855Y15504645D01*
X31166634Y15493806D01*
X31147500Y15490000D01*
X30897500Y15490000D01*
X30878366Y15493806D01*
X30862145Y15504645D01*
X30851306Y15520866D01*
X30847500Y15540000D01*
X30847500Y16490000D01*
X30851306Y16509134D01*
X30862145Y16525355D01*
X30878366Y16536194D01*
X30897500Y16540000D01*
X31147500Y16540000D01*
X31166634Y16536194D01*
G37*
G36*
X31669134Y16536194D02*
G01*
X31685355Y16525355D01*
X31696194Y16509134D01*
X31700000Y16490000D01*
X31700000Y15540000D01*
X31696194Y15520866D01*
X31685355Y15504645D01*
X31669134Y15493806D01*
X31650000Y15490000D01*
X31400000Y15490000D01*
X31380866Y15493806D01*
X31364645Y15504645D01*
X31353806Y15520866D01*
X31350000Y15540000D01*
X31350000Y16490000D01*
X31353806Y16509134D01*
X31364645Y16525355D01*
X31380866Y16536194D01*
X31400000Y16540000D01*
X31650000Y16540000D01*
X31669134Y16536194D01*
G37*
G36*
X32169134Y16536194D02*
G01*
X32185355Y16525355D01*
X32196194Y16509134D01*
X32200000Y16490000D01*
X32200000Y15540000D01*
X32196194Y15520866D01*
X32185355Y15504645D01*
X32169134Y15493806D01*
X32150000Y15490000D01*
X31900000Y15490000D01*
X31880866Y15493806D01*
X31864645Y15504645D01*
X31853806Y15520866D01*
X31850000Y15540000D01*
X31850000Y16490000D01*
X31853806Y16509134D01*
X31864645Y16525355D01*
X31880866Y16536194D01*
X31900000Y16540000D01*
X32150000Y16540000D01*
X32169134Y16536194D01*
G37*
G36*
X32666634Y16536194D02*
G01*
X32682855Y16525355D01*
X32693694Y16509134D01*
X32697500Y16490000D01*
X32697500Y15540000D01*
X32693694Y15520866D01*
X32682855Y15504645D01*
X32666634Y15493806D01*
X32647500Y15490000D01*
X32397500Y15490000D01*
X32378366Y15493806D01*
X32362145Y15504645D01*
X32351306Y15520866D01*
X32347500Y15540000D01*
X32347500Y16490000D01*
X32351306Y16509134D01*
X32362145Y16525355D01*
X32378366Y16536194D01*
X32397500Y16540000D01*
X32647500Y16540000D01*
X32666634Y16536194D01*
G37*
G36*
X33166634Y16536194D02*
G01*
X33182855Y16525355D01*
X33193694Y16509134D01*
X33197500Y16490000D01*
X33197500Y15540000D01*
X33193694Y15520866D01*
X33182855Y15504645D01*
X33166634Y15493806D01*
X33147500Y15490000D01*
X32897500Y15490000D01*
X32878366Y15493806D01*
X32862145Y15504645D01*
X32851306Y15520866D01*
X32847500Y15540000D01*
X32847500Y16490000D01*
X32851306Y16509134D01*
X32862145Y16525355D01*
X32878366Y16536194D01*
X32897500Y16540000D01*
X33147500Y16540000D01*
X33166634Y16536194D01*
G37*
G36*
X34325384Y16536194D02*
G01*
X34341605Y16525355D01*
X34352444Y16509134D01*
X34356250Y16490000D01*
X34356250Y16190000D01*
X34352444Y16170866D01*
X34341605Y16154645D01*
X34325384Y16143806D01*
X34306250Y16140000D01*
X33801162Y16140000D01*
X33771875Y16110713D01*
X33771875Y15540000D01*
X33768069Y15520866D01*
X33757230Y15504645D01*
X33741009Y15493806D01*
X33721875Y15490000D01*
X33421875Y15490000D01*
X33402741Y15493806D01*
X33386520Y15504645D01*
X33375681Y15520866D01*
X33371875Y15540000D01*
X33371875Y16490000D01*
X33375681Y16509134D01*
X33386520Y16525355D01*
X33402741Y16536194D01*
X33421875Y16540000D01*
X33721875Y16540000D01*
X34301327Y16540000D01*
X34306250Y16540000D01*
X34325384Y16536194D01*
G37*
G36*
X9809571Y16877071D02*
G01*
X9812500Y16870000D01*
X9812500Y16530000D01*
X9809571Y16522929D01*
X9804597Y16520869D01*
X9800073Y16509946D01*
X9800073Y16490054D01*
X9804597Y16479132D01*
X9809571Y16477071D01*
X9812500Y16470000D01*
X9812500Y15930000D01*
X9809571Y15922929D01*
X9804597Y15920869D01*
X9800073Y15909946D01*
X9800073Y15890054D01*
X9804597Y15879132D01*
X9809571Y15877071D01*
X9812500Y15870000D01*
X9812500Y15530000D01*
X9809571Y15522929D01*
X9802500Y15520000D01*
X9792556Y15520000D01*
X9107444Y15520000D01*
X9097500Y15520000D01*
X9090429Y15522929D01*
X9087500Y15530000D01*
X9087500Y15870000D01*
X9090429Y15877071D01*
X9095400Y15879131D01*
X9099926Y15890055D01*
X9099926Y15909945D01*
X9095401Y15920870D01*
X9090429Y15922929D01*
X9087500Y15930000D01*
X9087500Y16470000D01*
X9090429Y16477071D01*
X9095400Y16479131D01*
X9099926Y16490055D01*
X9099926Y16509945D01*
X9095401Y16520870D01*
X9090429Y16522929D01*
X9087500Y16530000D01*
X9087500Y16870000D01*
X9090429Y16877071D01*
X9097500Y16880000D01*
X9802500Y16880000D01*
X9809571Y16877071D01*
G37*
G36*
X10644571Y16877071D02*
G01*
X10647500Y16870000D01*
X10647500Y16530000D01*
X10644571Y16522929D01*
X10639597Y16520869D01*
X10635073Y16509946D01*
X10635073Y16490054D01*
X10639597Y16479132D01*
X10644571Y16477071D01*
X10647500Y16470000D01*
X10647500Y15930000D01*
X10644571Y15922929D01*
X10639597Y15920869D01*
X10635073Y15909946D01*
X10635073Y15890054D01*
X10639597Y15879132D01*
X10644571Y15877071D01*
X10647500Y15870000D01*
X10647500Y15530000D01*
X10644571Y15522929D01*
X10637500Y15520000D01*
X10627556Y15520000D01*
X9942444Y15520000D01*
X9932500Y15520000D01*
X9925429Y15522929D01*
X9922500Y15530000D01*
X9922500Y15870000D01*
X9925429Y15877071D01*
X9930400Y15879131D01*
X9934926Y15890055D01*
X9934926Y15909945D01*
X9930401Y15920870D01*
X9925429Y15922929D01*
X9922500Y15930000D01*
X9922500Y16470000D01*
X9925429Y16477071D01*
X9930400Y16479131D01*
X9934926Y16490055D01*
X9934926Y16509945D01*
X9930401Y16520870D01*
X9925429Y16522929D01*
X9922500Y16530000D01*
X9922500Y16870000D01*
X9925429Y16877071D01*
X9932500Y16880000D01*
X10637500Y16880000D01*
X10644571Y16877071D01*
G37*
G36*
X6772835Y16140485D02*
G01*
X6813388Y16113388D01*
X6840485Y16072835D01*
X6850000Y16025000D01*
X6850000Y15875000D01*
X6840485Y15827165D01*
X6813388Y15786612D01*
X6772835Y15759515D01*
X6725000Y15750000D01*
X5575000Y15750000D01*
X5527165Y15759515D01*
X5486612Y15786612D01*
X5459515Y15827165D01*
X5450000Y15875000D01*
X5450000Y16025000D01*
X5459515Y16072835D01*
X5486612Y16113388D01*
X5527165Y16140485D01*
X5575000Y16150000D01*
X6725000Y16150000D01*
X6772835Y16140485D01*
G37*
G36*
X17152710Y16945537D02*
G01*
X17214350Y16904350D01*
X17255537Y16842710D01*
X17270000Y16770000D01*
X17270000Y16430000D01*
X17255537Y16357290D01*
X17214350Y16295650D01*
X17152710Y16254463D01*
X17080000Y16240000D01*
X16800000Y16240000D01*
X16727290Y16254463D01*
X16665650Y16295650D01*
X16624463Y16357290D01*
X16610000Y16430000D01*
X16610000Y16770000D01*
X16624463Y16842710D01*
X16665650Y16904350D01*
X16727290Y16945537D01*
X16800000Y16960000D01*
X17080000Y16960000D01*
X17152710Y16945537D01*
G37*
G36*
X18112710Y16945537D02*
G01*
X18174350Y16904350D01*
X18215537Y16842710D01*
X18230000Y16770000D01*
X18230000Y16430000D01*
X18215537Y16357290D01*
X18174350Y16295650D01*
X18112710Y16254463D01*
X18040000Y16240000D01*
X17760000Y16240000D01*
X17687290Y16254463D01*
X17625650Y16295650D01*
X17584463Y16357290D01*
X17570000Y16430000D01*
X17570000Y16770000D01*
X17584463Y16842710D01*
X17625650Y16904350D01*
X17687290Y16945537D01*
X17760000Y16960000D01*
X18040000Y16960000D01*
X18112710Y16945537D01*
G37*
G36*
X6772835Y16640485D02*
G01*
X6813388Y16613388D01*
X6840485Y16572835D01*
X6850000Y16525000D01*
X6850000Y16375000D01*
X6840485Y16327165D01*
X6813388Y16286612D01*
X6772835Y16259515D01*
X6725000Y16250000D01*
X5575000Y16250000D01*
X5527165Y16259515D01*
X5486612Y16286612D01*
X5459515Y16327165D01*
X5450000Y16375000D01*
X5450000Y16525000D01*
X5459515Y16572835D01*
X5486612Y16613388D01*
X5527165Y16640485D01*
X5575000Y16650000D01*
X6725000Y16650000D01*
X6772835Y16640485D01*
G37*
G36*
X36717710Y16995537D02*
G01*
X36779350Y16954350D01*
X36820537Y16892710D01*
X36835000Y16820000D01*
X36835000Y16540000D01*
X36820537Y16467290D01*
X36779350Y16405650D01*
X36717710Y16364463D01*
X36645000Y16350000D01*
X36305000Y16350000D01*
X36232290Y16364463D01*
X36170650Y16405650D01*
X36129463Y16467290D01*
X36115000Y16540000D01*
X36115000Y16820000D01*
X36129463Y16892710D01*
X36170650Y16954350D01*
X36232290Y16995537D01*
X36305000Y17010000D01*
X36645000Y17010000D01*
X36717710Y16995537D01*
G37*
G36*
X35555796Y17040918D02*
G01*
X35615815Y17000815D01*
X35655918Y16940796D01*
X35670000Y16870000D01*
X35670000Y16600000D01*
X35655918Y16529204D01*
X35615815Y16469185D01*
X35555796Y16429082D01*
X35485000Y16415000D01*
X35115000Y16415000D01*
X35044204Y16429082D01*
X34984185Y16469185D01*
X34944082Y16529204D01*
X34930000Y16600000D01*
X34930000Y16870000D01*
X34944082Y16940796D01*
X34984185Y17000815D01*
X35044204Y17040918D01*
X35115000Y17055000D01*
X35485000Y17055000D01*
X35555796Y17040918D01*
G37*
G36*
X28717710Y17185537D02*
G01*
X28779350Y17144350D01*
X28820537Y17082710D01*
X28835000Y17010000D01*
X28835000Y16730000D01*
X28820537Y16657290D01*
X28779350Y16595650D01*
X28717710Y16554463D01*
X28645000Y16540000D01*
X28305000Y16540000D01*
X28232290Y16554463D01*
X28170650Y16595650D01*
X28129463Y16657290D01*
X28115000Y16730000D01*
X28115000Y17010000D01*
X28129463Y17082710D01*
X28170650Y17144350D01*
X28232290Y17185537D01*
X28305000Y17200000D01*
X28645000Y17200000D01*
X28717710Y17185537D01*
G37*
G36*
X13833773Y17467800D02*
G01*
X13893792Y17427697D01*
X13933895Y17367678D01*
X13947977Y17296882D01*
X13947977Y16926882D01*
X13933895Y16856086D01*
X13893792Y16796067D01*
X13833773Y16755964D01*
X13762977Y16741882D01*
X13492977Y16741882D01*
X13422181Y16755964D01*
X13362162Y16796067D01*
X13322059Y16856086D01*
X13307977Y16926882D01*
X13307977Y17296882D01*
X13322059Y17367678D01*
X13362162Y17427697D01*
X13422181Y17467800D01*
X13492977Y17481882D01*
X13762977Y17481882D01*
X13833773Y17467800D01*
G37*
G36*
X14853773Y17467800D02*
G01*
X14913792Y17427697D01*
X14953895Y17367678D01*
X14967977Y17296882D01*
X14967977Y16926882D01*
X14953895Y16856086D01*
X14913792Y16796067D01*
X14853773Y16755964D01*
X14782977Y16741882D01*
X14512977Y16741882D01*
X14442181Y16755964D01*
X14382162Y16796067D01*
X14342059Y16856086D01*
X14327977Y16926882D01*
X14327977Y17296882D01*
X14342059Y17367678D01*
X14382162Y17427697D01*
X14442181Y17467800D01*
X14512977Y17481882D01*
X14782977Y17481882D01*
X14853773Y17467800D01*
G37*
G36*
X6772835Y17140485D02*
G01*
X6813388Y17113388D01*
X6840485Y17072835D01*
X6850000Y17025000D01*
X6850000Y16875000D01*
X6840485Y16827165D01*
X6813388Y16786612D01*
X6772835Y16759515D01*
X6725000Y16750000D01*
X5575000Y16750000D01*
X5527165Y16759515D01*
X5486612Y16786612D01*
X5459515Y16827165D01*
X5450000Y16875000D01*
X5450000Y17025000D01*
X5459515Y17072835D01*
X5486612Y17113388D01*
X5527165Y17140485D01*
X5575000Y17150000D01*
X6725000Y17150000D01*
X6772835Y17140485D01*
G37*
G36*
X31844134Y17336194D02*
G01*
X31860355Y17325355D01*
X31871194Y17309134D01*
X31875000Y17290000D01*
X31875000Y16890000D01*
X31871194Y16870866D01*
X31860355Y16854645D01*
X31844134Y16843806D01*
X31825000Y16840000D01*
X29725000Y16840000D01*
X29705866Y16843806D01*
X29689645Y16854645D01*
X29678806Y16870866D01*
X29675000Y16890000D01*
X29675000Y17290000D01*
X29678806Y17309134D01*
X29689645Y17325355D01*
X29705866Y17336194D01*
X29725000Y17340000D01*
X31825000Y17340000D01*
X31844134Y17336194D01*
G37*
G36*
X34344134Y17236194D02*
G01*
X34360355Y17225355D01*
X34371194Y17209134D01*
X34375000Y17190000D01*
X34375000Y16890000D01*
X34371194Y16870866D01*
X34360355Y16854645D01*
X34344134Y16843806D01*
X34325000Y16840000D01*
X33025000Y16840000D01*
X33005866Y16843806D01*
X32989645Y16854645D01*
X32978806Y16870866D01*
X32975000Y16890000D01*
X32975000Y17190000D01*
X32978806Y17209134D01*
X32989645Y17225355D01*
X33005866Y17236194D01*
X33025000Y17240000D01*
X34325000Y17240000D01*
X34344134Y17236194D01*
G37*
G36*
X25331185Y18047031D02*
G01*
X25339858Y18043202D01*
X25347425Y18042099D01*
X25394723Y18018977D01*
X25432041Y18002499D01*
X25435496Y17999044D01*
X25436420Y17998592D01*
X25506091Y17928921D01*
X25506542Y17927998D01*
X25509999Y17924541D01*
X25526478Y17887218D01*
X25549598Y17839927D01*
X25550700Y17832361D01*
X25554531Y17823685D01*
X25562500Y17755000D01*
X25562500Y17255000D01*
X25554531Y17186315D01*
X25550699Y17177639D01*
X25549598Y17170075D01*
X25526485Y17122798D01*
X25509999Y17085459D01*
X25506541Y17082002D01*
X25506091Y17081080D01*
X25436420Y17011409D01*
X25435498Y17010959D01*
X25432041Y17007501D01*
X25394707Y16991017D01*
X25347426Y16967902D01*
X25339861Y16966800D01*
X25331185Y16962969D01*
X25262500Y16955000D01*
X24312500Y16955000D01*
X24243815Y16962969D01*
X24235138Y16966800D01*
X24227574Y16967902D01*
X24180287Y16991019D01*
X24142959Y17007501D01*
X24139502Y17010958D01*
X24138579Y17011409D01*
X24068908Y17081080D01*
X24068456Y17082004D01*
X24065001Y17085459D01*
X24048525Y17122772D01*
X24025401Y17170074D01*
X24024298Y17177643D01*
X24020469Y17186315D01*
X24012500Y17255000D01*
X24012500Y17755000D01*
X24020469Y17823685D01*
X24024298Y17832358D01*
X24025401Y17839926D01*
X24048528Y17887234D01*
X24065001Y17924541D01*
X24068455Y17927996D01*
X24068908Y17928921D01*
X24138579Y17998592D01*
X24139504Y17999045D01*
X24142959Y18002499D01*
X24180261Y18018970D01*
X24227573Y18042099D01*
X24235142Y18043202D01*
X24243815Y18047031D01*
X24312500Y18055000D01*
X25262500Y18055000D01*
X25331185Y18047031D01*
G37*
G36*
X27431185Y18047031D02*
G01*
X27439858Y18043202D01*
X27447425Y18042099D01*
X27494723Y18018977D01*
X27532041Y18002499D01*
X27535496Y17999044D01*
X27536420Y17998592D01*
X27606091Y17928921D01*
X27606542Y17927998D01*
X27609999Y17924541D01*
X27626478Y17887218D01*
X27649598Y17839927D01*
X27650700Y17832361D01*
X27654531Y17823685D01*
X27662500Y17755000D01*
X27662500Y17255000D01*
X27654531Y17186315D01*
X27650699Y17177639D01*
X27649598Y17170075D01*
X27626485Y17122798D01*
X27609999Y17085459D01*
X27606541Y17082002D01*
X27606091Y17081080D01*
X27536420Y17011409D01*
X27535498Y17010959D01*
X27532041Y17007501D01*
X27494707Y16991017D01*
X27447426Y16967902D01*
X27439861Y16966800D01*
X27431185Y16962969D01*
X27362500Y16955000D01*
X26412500Y16955000D01*
X26343815Y16962969D01*
X26335138Y16966800D01*
X26327574Y16967902D01*
X26280287Y16991019D01*
X26242959Y17007501D01*
X26239502Y17010958D01*
X26238579Y17011409D01*
X26168908Y17081080D01*
X26168456Y17082004D01*
X26165001Y17085459D01*
X26148525Y17122772D01*
X26125401Y17170074D01*
X26124298Y17177643D01*
X26120469Y17186315D01*
X26112500Y17255000D01*
X26112500Y17755000D01*
X26120469Y17823685D01*
X26124298Y17832358D01*
X26125401Y17839926D01*
X26148528Y17887234D01*
X26165001Y17924541D01*
X26168455Y17927996D01*
X26168908Y17928921D01*
X26238579Y17998592D01*
X26239504Y17999045D01*
X26242959Y18002499D01*
X26280261Y18018970D01*
X26327573Y18042099D01*
X26335142Y18043202D01*
X26343815Y18047031D01*
X26412500Y18055000D01*
X27362500Y18055000D01*
X27431185Y18047031D01*
G37*
G36*
X9809571Y17377071D02*
G01*
X9812500Y17370000D01*
X9812500Y17030000D01*
X9809571Y17022929D01*
X9802500Y17020000D01*
X9792556Y17020000D01*
X9107444Y17020000D01*
X9097500Y17020000D01*
X9090429Y17022929D01*
X9087500Y17030000D01*
X9087500Y17370000D01*
X9090429Y17377071D01*
X9097500Y17380000D01*
X9802500Y17380000D01*
X9809571Y17377071D01*
G37*
G36*
X10644571Y17377071D02*
G01*
X10647500Y17370000D01*
X10647500Y17030000D01*
X10644571Y17022929D01*
X10637500Y17020000D01*
X10627556Y17020000D01*
X9942444Y17020000D01*
X9932500Y17020000D01*
X9925429Y17022929D01*
X9922500Y17030000D01*
X9922500Y17370000D01*
X9925429Y17377071D01*
X9932500Y17380000D01*
X10637500Y17380000D01*
X10644571Y17377071D01*
G37*
G36*
X11565382Y17850183D02*
G01*
X11625401Y17810080D01*
X11665504Y17750061D01*
X11679586Y17679265D01*
X11679586Y17309265D01*
X11665504Y17238469D01*
X11625401Y17178450D01*
X11565382Y17138347D01*
X11494586Y17124265D01*
X11224586Y17124265D01*
X11153790Y17138347D01*
X11093771Y17178450D01*
X11053668Y17238469D01*
X11039586Y17309265D01*
X11039586Y17679265D01*
X11053668Y17750061D01*
X11093771Y17810080D01*
X11153790Y17850183D01*
X11224586Y17864265D01*
X11494586Y17864265D01*
X11565382Y17850183D01*
G37*
G36*
X12585382Y17850183D02*
G01*
X12645401Y17810080D01*
X12685504Y17750061D01*
X12699586Y17679265D01*
X12699586Y17309265D01*
X12685504Y17238469D01*
X12645401Y17178450D01*
X12585382Y17138347D01*
X12514586Y17124265D01*
X12244586Y17124265D01*
X12173790Y17138347D01*
X12113771Y17178450D01*
X12073668Y17238469D01*
X12059586Y17309265D01*
X12059586Y17679265D01*
X12073668Y17750061D01*
X12113771Y17810080D01*
X12173790Y17850183D01*
X12244586Y17864265D01*
X12514586Y17864265D01*
X12585382Y17850183D01*
G37*
G36*
X6772835Y17640485D02*
G01*
X6813388Y17613388D01*
X6840485Y17572835D01*
X6850000Y17525000D01*
X6850000Y17375000D01*
X6840485Y17327165D01*
X6813388Y17286612D01*
X6772835Y17259515D01*
X6725000Y17250000D01*
X5575000Y17250000D01*
X5527165Y17259515D01*
X5486612Y17286612D01*
X5459515Y17327165D01*
X5450000Y17375000D01*
X5450000Y17525000D01*
X5459515Y17572835D01*
X5486612Y17613388D01*
X5527165Y17640485D01*
X5575000Y17650000D01*
X6725000Y17650000D01*
X6772835Y17640485D01*
G37*
G36*
X34344134Y17836194D02*
G01*
X34360355Y17825355D01*
X34371194Y17809134D01*
X34375000Y17790000D01*
X34375000Y17490000D01*
X34371194Y17470866D01*
X34360355Y17454645D01*
X34344134Y17443806D01*
X34325000Y17440000D01*
X32225000Y17440000D01*
X32205866Y17443806D01*
X32189645Y17454645D01*
X32178806Y17470866D01*
X32175000Y17490000D01*
X32175000Y17790000D01*
X32178806Y17809134D01*
X32189645Y17825355D01*
X32205866Y17836194D01*
X32225000Y17840000D01*
X34325000Y17840000D01*
X34344134Y17836194D01*
G37*
G36*
X28717710Y18145537D02*
G01*
X28779350Y18104350D01*
X28820537Y18042710D01*
X28835000Y17970000D01*
X28835000Y17690000D01*
X28820537Y17617290D01*
X28779350Y17555650D01*
X28717710Y17514463D01*
X28645000Y17500000D01*
X28305000Y17500000D01*
X28232290Y17514463D01*
X28170650Y17555650D01*
X28129463Y17617290D01*
X28115000Y17690000D01*
X28115000Y17970000D01*
X28129463Y18042710D01*
X28170650Y18104350D01*
X28232290Y18145537D01*
X28305000Y18160000D01*
X28645000Y18160000D01*
X28717710Y18145537D01*
G37*
G36*
X16866970Y20161679D02*
G01*
X16923744Y20123744D01*
X16961679Y20066970D01*
X16975000Y20000000D01*
X16975000Y19750000D01*
X16961679Y19683030D01*
X16923744Y19626256D01*
X16866970Y19588321D01*
X16864505Y19587831D01*
X16847885Y19576725D01*
X16847885Y19523275D01*
X16864506Y19512170D01*
X16866970Y19511679D01*
X16923744Y19473744D01*
X16961679Y19416970D01*
X16975000Y19350000D01*
X16975000Y19100000D01*
X16961679Y19033030D01*
X16923744Y18976256D01*
X16866970Y18938321D01*
X16864505Y18937831D01*
X16847885Y18926725D01*
X16847885Y18873275D01*
X16864506Y18862170D01*
X16866970Y18861679D01*
X16923744Y18823744D01*
X16961679Y18766970D01*
X16975000Y18700000D01*
X16975000Y18450000D01*
X16961679Y18383030D01*
X16923744Y18326256D01*
X16866970Y18288321D01*
X16864505Y18287831D01*
X16847885Y18276725D01*
X16847885Y18223275D01*
X16864506Y18212170D01*
X16866970Y18211679D01*
X16923744Y18173744D01*
X16961679Y18116970D01*
X16975000Y18050000D01*
X16975000Y17800000D01*
X16961679Y17733030D01*
X16923744Y17676256D01*
X16866970Y17638321D01*
X16800000Y17625000D01*
X15725000Y17625000D01*
X15658030Y17638321D01*
X15601256Y17676256D01*
X15563321Y17733030D01*
X15550000Y17800000D01*
X15550000Y18050000D01*
X15563321Y18116970D01*
X15601256Y18173744D01*
X15658030Y18211679D01*
X15660491Y18212169D01*
X15677114Y18223275D01*
X15677114Y18276725D01*
X15660492Y18287832D01*
X15658030Y18288321D01*
X15601256Y18326256D01*
X15563321Y18383030D01*
X15550000Y18450000D01*
X15550000Y18700000D01*
X15563321Y18766970D01*
X15601256Y18823744D01*
X15658030Y18861679D01*
X15660491Y18862169D01*
X15677114Y18873275D01*
X15677114Y18926725D01*
X15660492Y18937832D01*
X15658030Y18938321D01*
X15601256Y18976256D01*
X15563321Y19033030D01*
X15550000Y19100000D01*
X15550000Y19350000D01*
X15563321Y19416970D01*
X15601256Y19473744D01*
X15658030Y19511679D01*
X15660491Y19512169D01*
X15677114Y19523275D01*
X15677114Y19576725D01*
X15660492Y19587832D01*
X15658030Y19588321D01*
X15601256Y19626256D01*
X15563321Y19683030D01*
X15550000Y19750000D01*
X15550000Y20000000D01*
X15563321Y20066970D01*
X15601256Y20123744D01*
X15658030Y20161679D01*
X15725000Y20175000D01*
X16800000Y20175000D01*
X16866970Y20161679D01*
G37*
G36*
X19141970Y20161679D02*
G01*
X19198744Y20123744D01*
X19236679Y20066970D01*
X19250000Y20000000D01*
X19250000Y19750000D01*
X19236679Y19683030D01*
X19198744Y19626256D01*
X19141970Y19588321D01*
X19139505Y19587831D01*
X19122885Y19576725D01*
X19122885Y19523275D01*
X19139506Y19512170D01*
X19141970Y19511679D01*
X19198744Y19473744D01*
X19236679Y19416970D01*
X19250000Y19350000D01*
X19250000Y19100000D01*
X19236679Y19033030D01*
X19198744Y18976256D01*
X19141970Y18938321D01*
X19139505Y18937831D01*
X19122885Y18926725D01*
X19122885Y18873275D01*
X19139506Y18862170D01*
X19141970Y18861679D01*
X19198744Y18823744D01*
X19236679Y18766970D01*
X19250000Y18700000D01*
X19250000Y18450000D01*
X19236679Y18383030D01*
X19198744Y18326256D01*
X19141970Y18288321D01*
X19139505Y18287831D01*
X19122885Y18276725D01*
X19122885Y18223275D01*
X19139506Y18212170D01*
X19141970Y18211679D01*
X19198744Y18173744D01*
X19236679Y18116970D01*
X19250000Y18050000D01*
X19250000Y17800000D01*
X19236679Y17733030D01*
X19198744Y17676256D01*
X19141970Y17638321D01*
X19075000Y17625000D01*
X18000000Y17625000D01*
X17933030Y17638321D01*
X17876256Y17676256D01*
X17838321Y17733030D01*
X17825000Y17800000D01*
X17825000Y18050000D01*
X17838321Y18116970D01*
X17876256Y18173744D01*
X17933030Y18211679D01*
X17935491Y18212169D01*
X17952114Y18223275D01*
X17952114Y18276725D01*
X17935492Y18287832D01*
X17933030Y18288321D01*
X17876256Y18326256D01*
X17838321Y18383030D01*
X17825000Y18450000D01*
X17825000Y18700000D01*
X17838321Y18766970D01*
X17876256Y18823744D01*
X17933030Y18861679D01*
X17935491Y18862169D01*
X17952114Y18873275D01*
X17952114Y18926725D01*
X17935492Y18937832D01*
X17933030Y18938321D01*
X17876256Y18976256D01*
X17838321Y19033030D01*
X17825000Y19100000D01*
X17825000Y19350000D01*
X17838321Y19416970D01*
X17876256Y19473744D01*
X17933030Y19511679D01*
X17935491Y19512169D01*
X17952114Y19523275D01*
X17952114Y19576725D01*
X17935492Y19587832D01*
X17933030Y19588321D01*
X17876256Y19626256D01*
X17838321Y19683030D01*
X17825000Y19750000D01*
X17825000Y20000000D01*
X17838321Y20066970D01*
X17876256Y20123744D01*
X17933030Y20161679D01*
X18000000Y20175000D01*
X19075000Y20175000D01*
X19141970Y20161679D01*
G37*
G36*
X6772835Y18140485D02*
G01*
X6813388Y18113388D01*
X6840485Y18072835D01*
X6850000Y18025000D01*
X6850000Y17875000D01*
X6840485Y17827165D01*
X6813388Y17786612D01*
X6772835Y17759515D01*
X6725000Y17750000D01*
X5575000Y17750000D01*
X5527165Y17759515D01*
X5486612Y17786612D01*
X5459515Y17827165D01*
X5450000Y17875000D01*
X5450000Y18025000D01*
X5459515Y18072835D01*
X5486612Y18113388D01*
X5527165Y18140485D01*
X5575000Y18150000D01*
X6725000Y18150000D01*
X6772835Y18140485D01*
G37*
G36*
X13839776Y18538176D02*
G01*
X13899795Y18498073D01*
X13939898Y18438054D01*
X13953980Y18367258D01*
X13953980Y17997258D01*
X13939898Y17926462D01*
X13899795Y17866443D01*
X13839776Y17826340D01*
X13768980Y17812258D01*
X13498980Y17812258D01*
X13428184Y17826340D01*
X13368165Y17866443D01*
X13328062Y17926462D01*
X13313980Y17997258D01*
X13313980Y18367258D01*
X13328062Y18438054D01*
X13368165Y18498073D01*
X13428184Y18538176D01*
X13498980Y18552258D01*
X13768980Y18552258D01*
X13839776Y18538176D01*
G37*
G36*
X14859776Y18538176D02*
G01*
X14919795Y18498073D01*
X14959898Y18438054D01*
X14973980Y18367258D01*
X14973980Y17997258D01*
X14959898Y17926462D01*
X14919795Y17866443D01*
X14859776Y17826340D01*
X14788980Y17812258D01*
X14518980Y17812258D01*
X14448184Y17826340D01*
X14388165Y17866443D01*
X14348062Y17926462D01*
X14333980Y17997258D01*
X14333980Y18367258D01*
X14348062Y18438054D01*
X14388165Y18498073D01*
X14448184Y18538176D01*
X14518980Y18552258D01*
X14788980Y18552258D01*
X14859776Y18538176D01*
G37*
G36*
X9617710Y18595537D02*
G01*
X9679350Y18554350D01*
X9720537Y18492710D01*
X9735000Y18420000D01*
X9735000Y18080000D01*
X9720537Y18007290D01*
X9679350Y17945650D01*
X9617710Y17904463D01*
X9545000Y17890000D01*
X9265000Y17890000D01*
X9192290Y17904463D01*
X9130650Y17945650D01*
X9089463Y18007290D01*
X9075000Y18080000D01*
X9075000Y18420000D01*
X9089463Y18492710D01*
X9130650Y18554350D01*
X9192290Y18595537D01*
X9265000Y18610000D01*
X9545000Y18610000D01*
X9617710Y18595537D01*
G37*
G36*
X10577710Y18595537D02*
G01*
X10639350Y18554350D01*
X10680537Y18492710D01*
X10695000Y18420000D01*
X10695000Y18080000D01*
X10680537Y18007290D01*
X10639350Y17945650D01*
X10577710Y17904463D01*
X10505000Y17890000D01*
X10225000Y17890000D01*
X10152290Y17904463D01*
X10090650Y17945650D01*
X10049463Y18007290D01*
X10035000Y18080000D01*
X10035000Y18420000D01*
X10049463Y18492710D01*
X10090650Y18554350D01*
X10152290Y18595537D01*
X10225000Y18610000D01*
X10505000Y18610000D01*
X10577710Y18595537D01*
G37*
G36*
X31844134Y18586194D02*
G01*
X31860355Y18575355D01*
X31871194Y18559134D01*
X31875000Y18540000D01*
X31875000Y18140000D01*
X31871194Y18120866D01*
X31860355Y18104645D01*
X31844134Y18093806D01*
X31825000Y18090000D01*
X29725000Y18090000D01*
X29705866Y18093806D01*
X29689645Y18104645D01*
X29678806Y18120866D01*
X29675000Y18140000D01*
X29675000Y18540000D01*
X29678806Y18559134D01*
X29689645Y18575355D01*
X29705866Y18586194D01*
X29725000Y18590000D01*
X31825000Y18590000D01*
X31844134Y18586194D01*
G37*
G36*
X34344134Y18536194D02*
G01*
X34360355Y18525355D01*
X34371194Y18509134D01*
X34375000Y18490000D01*
X34375000Y18190000D01*
X34371194Y18170866D01*
X34360355Y18154645D01*
X34344134Y18143806D01*
X34325000Y18140000D01*
X33025000Y18140000D01*
X33005866Y18143806D01*
X32989645Y18154645D01*
X32978806Y18170866D01*
X32975000Y18190000D01*
X32975000Y18490000D01*
X32978806Y18509134D01*
X32989645Y18525355D01*
X33005866Y18536194D01*
X33025000Y18540000D01*
X34325000Y18540000D01*
X34344134Y18536194D01*
G37*
G36*
X6726537Y18934776D02*
G01*
X6791421Y18891421D01*
X6834776Y18826537D01*
X6850000Y18750000D01*
X6850000Y18450000D01*
X6834776Y18373463D01*
X6791421Y18308579D01*
X6726537Y18265224D01*
X6650000Y18250000D01*
X5650000Y18250000D01*
X5573463Y18265224D01*
X5508579Y18308579D01*
X5465224Y18373463D01*
X5450000Y18450000D01*
X5450000Y18750000D01*
X5465224Y18826537D01*
X5508579Y18891421D01*
X5573463Y18934776D01*
X5650000Y18950000D01*
X6650000Y18950000D01*
X6726537Y18934776D01*
G37*
G36*
X28717710Y19090537D02*
G01*
X28779350Y19049350D01*
X28820537Y18987710D01*
X28835000Y18915000D01*
X28835000Y18635000D01*
X28820537Y18562290D01*
X28779350Y18500650D01*
X28717710Y18459463D01*
X28645000Y18445000D01*
X28305000Y18445000D01*
X28232290Y18459463D01*
X28170650Y18500650D01*
X28129463Y18562290D01*
X28115000Y18635000D01*
X28115000Y18915000D01*
X28129463Y18987710D01*
X28170650Y19049350D01*
X28232290Y19090537D01*
X28305000Y19105000D01*
X28645000Y19105000D01*
X28717710Y19090537D01*
G37*
G36*
X27418685Y19647031D02*
G01*
X27427358Y19643202D01*
X27434925Y19642099D01*
X27482223Y19618977D01*
X27519541Y19602499D01*
X27522996Y19599044D01*
X27523920Y19598592D01*
X27593591Y19528921D01*
X27594042Y19527998D01*
X27597499Y19524541D01*
X27613978Y19487218D01*
X27637098Y19439927D01*
X27638200Y19432361D01*
X27642031Y19423685D01*
X27650000Y19355000D01*
X27650000Y18855000D01*
X27642031Y18786315D01*
X27638199Y18777639D01*
X27637098Y18770075D01*
X27613985Y18722798D01*
X27597499Y18685459D01*
X27594041Y18682002D01*
X27593591Y18681080D01*
X27523920Y18611409D01*
X27522998Y18610959D01*
X27519541Y18607501D01*
X27482207Y18591017D01*
X27434926Y18567902D01*
X27427361Y18566800D01*
X27418685Y18562969D01*
X27350000Y18555000D01*
X26400000Y18555000D01*
X26331315Y18562969D01*
X26322638Y18566800D01*
X26315074Y18567902D01*
X26267787Y18591019D01*
X26230459Y18607501D01*
X26227002Y18610958D01*
X26226079Y18611409D01*
X26156408Y18681080D01*
X26155956Y18682004D01*
X26152501Y18685459D01*
X26136025Y18722772D01*
X26112901Y18770074D01*
X26111798Y18777643D01*
X26107969Y18786315D01*
X26100000Y18855000D01*
X26100000Y19355000D01*
X26107969Y19423685D01*
X26111798Y19432358D01*
X26112901Y19439926D01*
X26136028Y19487234D01*
X26152501Y19524541D01*
X26155955Y19527996D01*
X26156408Y19528921D01*
X26226079Y19598592D01*
X26227004Y19599045D01*
X26230459Y19602499D01*
X26267761Y19618970D01*
X26315073Y19642099D01*
X26322642Y19643202D01*
X26331315Y19647031D01*
X26400000Y19655000D01*
X27350000Y19655000D01*
X27418685Y19647031D01*
G37*
G36*
X25323469Y19649357D02*
G01*
X25332142Y19645528D01*
X25339709Y19644425D01*
X25387007Y19621303D01*
X25424325Y19604825D01*
X25427780Y19601370D01*
X25428704Y19600918D01*
X25498375Y19531247D01*
X25498826Y19530324D01*
X25502283Y19526867D01*
X25518762Y19489544D01*
X25541882Y19442253D01*
X25542984Y19434687D01*
X25546815Y19426011D01*
X25554784Y19357326D01*
X25554784Y18857326D01*
X25546815Y18788641D01*
X25542983Y18779965D01*
X25541882Y18772401D01*
X25518769Y18725124D01*
X25502283Y18687785D01*
X25498825Y18684328D01*
X25498375Y18683406D01*
X25428704Y18613735D01*
X25427782Y18613285D01*
X25424325Y18609827D01*
X25386991Y18593343D01*
X25339710Y18570228D01*
X25332145Y18569126D01*
X25323469Y18565295D01*
X25254784Y18557326D01*
X24304784Y18557326D01*
X24236099Y18565295D01*
X24227422Y18569126D01*
X24219858Y18570228D01*
X24172571Y18593345D01*
X24135243Y18609827D01*
X24131786Y18613284D01*
X24130863Y18613735D01*
X24061192Y18683406D01*
X24060740Y18684330D01*
X24057285Y18687785D01*
X24040809Y18725098D01*
X24017685Y18772400D01*
X24016582Y18779969D01*
X24012753Y18788641D01*
X24004784Y18857326D01*
X24004784Y19357326D01*
X24012753Y19426011D01*
X24016582Y19434684D01*
X24017685Y19442252D01*
X24040812Y19489560D01*
X24057285Y19526867D01*
X24060739Y19530322D01*
X24061192Y19531247D01*
X24130863Y19600918D01*
X24131788Y19601371D01*
X24135243Y19604825D01*
X24172545Y19621296D01*
X24219857Y19644425D01*
X24227426Y19645528D01*
X24236099Y19649357D01*
X24304784Y19657326D01*
X25254784Y19657326D01*
X25323469Y19649357D01*
G37*
G36*
X5134372Y19390261D02*
G01*
X5207847Y19347840D01*
X5267840Y19287847D01*
X5310261Y19214372D01*
X5332220Y19132421D01*
X5332220Y19047579D01*
X5310261Y18965628D01*
X5267840Y18892153D01*
X5207847Y18832160D01*
X5134372Y18789739D01*
X5052421Y18767780D01*
X4967579Y18767780D01*
X4885628Y18789739D01*
X4812153Y18832160D01*
X4752160Y18892153D01*
X4709739Y18965628D01*
X4687780Y19047579D01*
X4687780Y19132421D01*
X4709739Y19214372D01*
X4752160Y19287847D01*
X4812153Y19347840D01*
X4885628Y19390261D01*
X4967579Y19412220D01*
X5052421Y19412220D01*
X5134372Y19390261D01*
G37*
G36*
X20387710Y19475537D02*
G01*
X20449350Y19434350D01*
X20490537Y19372710D01*
X20505000Y19300000D01*
X20505000Y19020000D01*
X20490537Y18947290D01*
X20449350Y18885650D01*
X20387710Y18844463D01*
X20315000Y18830000D01*
X19975000Y18830000D01*
X19902290Y18844463D01*
X19840650Y18885650D01*
X19799463Y18947290D01*
X19785000Y19020000D01*
X19785000Y19300000D01*
X19799463Y19372710D01*
X19840650Y19434350D01*
X19902290Y19475537D01*
X19975000Y19490000D01*
X20315000Y19490000D01*
X20387710Y19475537D01*
G37*
G36*
X34344134Y19236194D02*
G01*
X34360355Y19225355D01*
X34371194Y19209134D01*
X34375000Y19190000D01*
X34375000Y18890000D01*
X34371194Y18870866D01*
X34360355Y18854645D01*
X34344134Y18843806D01*
X34325000Y18840000D01*
X32225000Y18840000D01*
X32205866Y18843806D01*
X32189645Y18854645D01*
X32178806Y18870866D01*
X32175000Y18890000D01*
X32175000Y19190000D01*
X32178806Y19209134D01*
X32189645Y19225355D01*
X32205866Y19236194D01*
X32225000Y19240000D01*
X34325000Y19240000D01*
X34344134Y19236194D01*
G37*
G36*
X13840796Y19595918D02*
G01*
X13900815Y19555815D01*
X13940918Y19495796D01*
X13955000Y19425000D01*
X13955000Y19055000D01*
X13940918Y18984204D01*
X13900815Y18924185D01*
X13840796Y18884082D01*
X13770000Y18870000D01*
X13500000Y18870000D01*
X13429204Y18884082D01*
X13369185Y18924185D01*
X13329082Y18984204D01*
X13315000Y19055000D01*
X13315000Y19425000D01*
X13329082Y19495796D01*
X13369185Y19555815D01*
X13429204Y19595918D01*
X13500000Y19610000D01*
X13770000Y19610000D01*
X13840796Y19595918D01*
G37*
G36*
X14860796Y19595918D02*
G01*
X14920815Y19555815D01*
X14960918Y19495796D01*
X14975000Y19425000D01*
X14975000Y19055000D01*
X14960918Y18984204D01*
X14920815Y18924185D01*
X14860796Y18884082D01*
X14790000Y18870000D01*
X14520000Y18870000D01*
X14449204Y18884082D01*
X14389185Y18924185D01*
X14349082Y18984204D01*
X14335000Y19055000D01*
X14335000Y19425000D01*
X14349082Y19495796D01*
X14389185Y19555815D01*
X14449204Y19595918D01*
X14520000Y19610000D01*
X14790000Y19610000D01*
X14860796Y19595918D01*
G37*
G36*
X6726537Y19734776D02*
G01*
X6791421Y19691421D01*
X6834776Y19626537D01*
X6850000Y19550000D01*
X6850000Y19250000D01*
X6834776Y19173463D01*
X6791421Y19108579D01*
X6726537Y19065224D01*
X6650000Y19050000D01*
X5650000Y19050000D01*
X5573463Y19065224D01*
X5508579Y19108579D01*
X5465224Y19173463D01*
X5450000Y19250000D01*
X5450000Y19550000D01*
X5465224Y19626537D01*
X5508579Y19691421D01*
X5573463Y19734776D01*
X5650000Y19750000D01*
X6650000Y19750000D01*
X6726537Y19734776D01*
G37*
G36*
X28717710Y20050537D02*
G01*
X28779350Y20009350D01*
X28820537Y19947710D01*
X28835000Y19875000D01*
X28835000Y19595000D01*
X28820537Y19522290D01*
X28779350Y19460650D01*
X28717710Y19419463D01*
X28645000Y19405000D01*
X28305000Y19405000D01*
X28232290Y19419463D01*
X28170650Y19460650D01*
X28129463Y19522290D01*
X28115000Y19595000D01*
X28115000Y19875000D01*
X28129463Y19947710D01*
X28170650Y20009350D01*
X28232290Y20050537D01*
X28305000Y20065000D01*
X28645000Y20065000D01*
X28717710Y20050537D01*
G37*
G36*
X31844134Y19836194D02*
G01*
X31860355Y19825355D01*
X31871194Y19809134D01*
X31875000Y19790000D01*
X31875000Y19490000D01*
X31871194Y19470866D01*
X31860355Y19454645D01*
X31844134Y19443806D01*
X31825000Y19440000D01*
X29725000Y19440000D01*
X29705866Y19443806D01*
X29689645Y19454645D01*
X29678806Y19470866D01*
X29675000Y19490000D01*
X29675000Y19790000D01*
X29678806Y19809134D01*
X29689645Y19825355D01*
X29705866Y19836194D01*
X29725000Y19840000D01*
X31825000Y19840000D01*
X31844134Y19836194D01*
G37*
G36*
X34344134Y19836194D02*
G01*
X34360355Y19825355D01*
X34371194Y19809134D01*
X34375000Y19790000D01*
X34375000Y19490000D01*
X34371194Y19470866D01*
X34360355Y19454645D01*
X34344134Y19443806D01*
X34325000Y19440000D01*
X33025000Y19440000D01*
X33005866Y19443806D01*
X32989645Y19454645D01*
X32978806Y19470866D01*
X32975000Y19490000D01*
X32975000Y19790000D01*
X32978806Y19809134D01*
X32989645Y19825355D01*
X33005866Y19836194D01*
X33025000Y19840000D01*
X34325000Y19840000D01*
X34344134Y19836194D01*
G37*
G36*
X35555796Y20320918D02*
G01*
X35615815Y20280815D01*
X35655918Y20220796D01*
X35670000Y20150000D01*
X35670000Y19880000D01*
X35655918Y19809204D01*
X35615815Y19749185D01*
X35555796Y19709082D01*
X35485000Y19695000D01*
X35115000Y19695000D01*
X35044204Y19709082D01*
X34984185Y19749185D01*
X34944082Y19809204D01*
X34930000Y19880000D01*
X34930000Y20150000D01*
X34944082Y20220796D01*
X34984185Y20280815D01*
X35044204Y20320918D01*
X35115000Y20335000D01*
X35485000Y20335000D01*
X35555796Y20320918D01*
G37*
G36*
X36742710Y20375746D02*
G01*
X36804350Y20334559D01*
X36845537Y20272919D01*
X36860000Y20200209D01*
X36860000Y19920209D01*
X36845537Y19847499D01*
X36804350Y19785859D01*
X36742710Y19744672D01*
X36670000Y19730209D01*
X36330000Y19730209D01*
X36257290Y19744672D01*
X36195650Y19785859D01*
X36154463Y19847499D01*
X36140000Y19920209D01*
X36140000Y20200209D01*
X36154463Y20272919D01*
X36195650Y20334559D01*
X36257290Y20375746D01*
X36330000Y20390209D01*
X36670000Y20390209D01*
X36742710Y20375746D01*
G37*
G36*
X20387710Y20435537D02*
G01*
X20449350Y20394350D01*
X20490537Y20332710D01*
X20505000Y20260000D01*
X20505000Y19980000D01*
X20490537Y19907290D01*
X20449350Y19845650D01*
X20387710Y19804463D01*
X20315000Y19790000D01*
X19975000Y19790000D01*
X19902290Y19804463D01*
X19840650Y19845650D01*
X19799463Y19907290D01*
X19785000Y19980000D01*
X19785000Y20260000D01*
X19799463Y20332710D01*
X19840650Y20394350D01*
X19902290Y20435537D01*
X19975000Y20450000D01*
X20315000Y20450000D01*
X20387710Y20435537D01*
G37*
G36*
X13852128Y20642419D02*
G01*
X13912147Y20602316D01*
X13952250Y20542297D01*
X13966332Y20471501D01*
X13966332Y20101501D01*
X13952250Y20030705D01*
X13912147Y19970686D01*
X13852128Y19930583D01*
X13781332Y19916501D01*
X13511332Y19916501D01*
X13440536Y19930583D01*
X13380517Y19970686D01*
X13340414Y20030705D01*
X13326332Y20101501D01*
X13326332Y20471501D01*
X13340414Y20542297D01*
X13380517Y20602316D01*
X13440536Y20642419D01*
X13511332Y20656501D01*
X13781332Y20656501D01*
X13852128Y20642419D01*
G37*
G36*
X14872128Y20642419D02*
G01*
X14932147Y20602316D01*
X14972250Y20542297D01*
X14986332Y20471501D01*
X14986332Y20101501D01*
X14972250Y20030705D01*
X14932147Y19970686D01*
X14872128Y19930583D01*
X14801332Y19916501D01*
X14531332Y19916501D01*
X14460536Y19930583D01*
X14400517Y19970686D01*
X14360414Y20030705D01*
X14346332Y20101501D01*
X14346332Y20471501D01*
X14360414Y20542297D01*
X14400517Y20602316D01*
X14460536Y20642419D01*
X14531332Y20656501D01*
X14801332Y20656501D01*
X14872128Y20642419D01*
G37*
G36*
X1701789Y21065295D02*
G01*
X1840476Y21028134D01*
X1964819Y20956344D01*
X2066344Y20854819D01*
X2138134Y20730476D01*
X2175295Y20591789D01*
X2175295Y20448211D01*
X2138134Y20309524D01*
X2066344Y20185181D01*
X1964819Y20083656D01*
X1840476Y20011866D01*
X1701789Y19974705D01*
X1630000Y19970000D01*
X1628363Y19970000D01*
X1031637Y19970000D01*
X1030000Y19970000D01*
X958211Y19974705D01*
X819524Y20011866D01*
X695181Y20083656D01*
X593656Y20185181D01*
X521866Y20309524D01*
X484705Y20448211D01*
X484705Y20591789D01*
X521866Y20730476D01*
X593656Y20854819D01*
X695181Y20956344D01*
X819524Y21028134D01*
X958211Y21065295D01*
X1030000Y21070000D01*
X1630000Y21070000D01*
X1701789Y21065295D01*
G37*
G36*
X6131789Y21065295D02*
G01*
X6270476Y21028134D01*
X6394819Y20956344D01*
X6496344Y20854819D01*
X6568134Y20730476D01*
X6605295Y20591789D01*
X6605295Y20448211D01*
X6568134Y20309524D01*
X6496344Y20185181D01*
X6394819Y20083656D01*
X6270476Y20011866D01*
X6131789Y19974705D01*
X6060000Y19970000D01*
X6058363Y19970000D01*
X4961637Y19970000D01*
X4960000Y19970000D01*
X4888211Y19974705D01*
X4749524Y20011866D01*
X4625181Y20083656D01*
X4523656Y20185181D01*
X4451866Y20309524D01*
X4414705Y20448211D01*
X4414705Y20591789D01*
X4451866Y20730476D01*
X4523656Y20854819D01*
X4625181Y20956344D01*
X4749524Y21028134D01*
X4888211Y21065295D01*
X4960000Y21070000D01*
X6060000Y21070000D01*
X6131789Y21065295D01*
G37*
G36*
X30637259Y21187194D02*
G01*
X30653480Y21176355D01*
X30664319Y21160134D01*
X30668125Y21141000D01*
X30668125Y20191000D01*
X30664319Y20171866D01*
X30653480Y20155645D01*
X30637259Y20144806D01*
X30618125Y20141000D01*
X30601277Y20141000D01*
X30596250Y20140000D01*
X29733750Y20140000D01*
X29714616Y20143806D01*
X29698395Y20154645D01*
X29687556Y20170866D01*
X29683750Y20190000D01*
X29683750Y20490000D01*
X29687556Y20509134D01*
X29698395Y20525355D01*
X29714616Y20536194D01*
X29733750Y20540000D01*
X30238836Y20540000D01*
X30268125Y20569289D01*
X30268125Y21136078D01*
X30268125Y21141000D01*
X30271931Y21160134D01*
X30282770Y21176355D01*
X30298991Y21187194D01*
X30318125Y21191000D01*
X30618125Y21191000D01*
X30637259Y21187194D01*
G37*
G36*
X33727884Y21187194D02*
G01*
X33744105Y21176355D01*
X33754944Y21160134D01*
X33758750Y21141000D01*
X33758750Y20569288D01*
X33788038Y20540000D01*
X34296250Y20540000D01*
X34315384Y20536194D01*
X34331605Y20525355D01*
X34342444Y20509134D01*
X34346250Y20490000D01*
X34346250Y20190000D01*
X34342444Y20170866D01*
X34331605Y20154645D01*
X34315384Y20143806D01*
X34296250Y20140000D01*
X33408750Y20140000D01*
X33389616Y20143806D01*
X33373395Y20154645D01*
X33362556Y20170866D01*
X33358750Y20190000D01*
X33358750Y20490000D01*
X33358750Y21141000D01*
X33362556Y21160134D01*
X33373395Y21176355D01*
X33389616Y21187194D01*
X33408750Y21191000D01*
X33708750Y21191000D01*
X33727884Y21187194D01*
G37*
G36*
X31161634Y21187194D02*
G01*
X31177855Y21176355D01*
X31188694Y21160134D01*
X31192500Y21141000D01*
X31192500Y20191000D01*
X31188694Y20171866D01*
X31177855Y20155645D01*
X31161634Y20144806D01*
X31142500Y20141000D01*
X30892500Y20141000D01*
X30873366Y20144806D01*
X30857145Y20155645D01*
X30846306Y20171866D01*
X30842500Y20191000D01*
X30842500Y21141000D01*
X30846306Y21160134D01*
X30857145Y21176355D01*
X30873366Y21187194D01*
X30892500Y21191000D01*
X31142500Y21191000D01*
X31161634Y21187194D01*
G37*
G36*
X31661634Y21187194D02*
G01*
X31677855Y21176355D01*
X31688694Y21160134D01*
X31692500Y21141000D01*
X31692500Y20191000D01*
X31688694Y20171866D01*
X31677855Y20155645D01*
X31661634Y20144806D01*
X31642500Y20141000D01*
X31392500Y20141000D01*
X31373366Y20144806D01*
X31357145Y20155645D01*
X31346306Y20171866D01*
X31342500Y20191000D01*
X31342500Y21141000D01*
X31346306Y21160134D01*
X31357145Y21176355D01*
X31373366Y21187194D01*
X31392500Y21191000D01*
X31642500Y21191000D01*
X31661634Y21187194D01*
G37*
G36*
X32159134Y21187194D02*
G01*
X32175355Y21176355D01*
X32186194Y21160134D01*
X32190000Y21141000D01*
X32190000Y20191000D01*
X32186194Y20171866D01*
X32175355Y20155645D01*
X32159134Y20144806D01*
X32140000Y20141000D01*
X31890000Y20141000D01*
X31870866Y20144806D01*
X31854645Y20155645D01*
X31843806Y20171866D01*
X31840000Y20191000D01*
X31840000Y21141000D01*
X31843806Y21160134D01*
X31854645Y21176355D01*
X31870866Y21187194D01*
X31890000Y21191000D01*
X32140000Y21191000D01*
X32159134Y21187194D01*
G37*
G36*
X32659134Y21187194D02*
G01*
X32675355Y21176355D01*
X32686194Y21160134D01*
X32690000Y21141000D01*
X32690000Y20191000D01*
X32686194Y20171866D01*
X32675355Y20155645D01*
X32659134Y20144806D01*
X32640000Y20141000D01*
X32390000Y20141000D01*
X32370866Y20144806D01*
X32354645Y20155645D01*
X32343806Y20171866D01*
X32340000Y20191000D01*
X32340000Y21141000D01*
X32343806Y21160134D01*
X32354645Y21176355D01*
X32370866Y21187194D01*
X32390000Y21191000D01*
X32640000Y21191000D01*
X32659134Y21187194D01*
G37*
G36*
X33161634Y21187194D02*
G01*
X33177855Y21176355D01*
X33188694Y21160134D01*
X33192500Y21141000D01*
X33192500Y20191000D01*
X33188694Y20171866D01*
X33177855Y20155645D01*
X33161634Y20144806D01*
X33142500Y20141000D01*
X32892500Y20141000D01*
X32873366Y20144806D01*
X32857145Y20155645D01*
X32846306Y20171866D01*
X32842500Y20191000D01*
X32842500Y21141000D01*
X32846306Y21160134D01*
X32857145Y21176355D01*
X32873366Y21187194D01*
X32892500Y21191000D01*
X33142500Y21191000D01*
X33161634Y21187194D01*
G37*
G36*
X47184129Y27100744D02*
G01*
X47200350Y27089905D01*
X47211189Y27073684D01*
X47214995Y27054550D01*
X47214995Y20445470D01*
X47211189Y20426336D01*
X47200350Y20410115D01*
X47184129Y20399276D01*
X47164995Y20395470D01*
X42084995Y20395470D01*
X42065861Y20399276D01*
X42049640Y20410115D01*
X42038801Y20426336D01*
X42034995Y20445470D01*
X42034995Y27054550D01*
X42038801Y27073684D01*
X42049640Y27089905D01*
X42065861Y27100744D01*
X42084995Y27104550D01*
X47164995Y27104550D01*
X47184129Y27100744D01*
G37*
G36*
X27418685Y21547031D02*
G01*
X27427358Y21543202D01*
X27434925Y21542099D01*
X27482223Y21518977D01*
X27519541Y21502499D01*
X27522996Y21499044D01*
X27523920Y21498592D01*
X27593591Y21428921D01*
X27594042Y21427998D01*
X27597499Y21424541D01*
X27613978Y21387218D01*
X27637098Y21339927D01*
X27638200Y21332361D01*
X27642031Y21323685D01*
X27650000Y21255000D01*
X27650000Y20755000D01*
X27642031Y20686315D01*
X27638199Y20677639D01*
X27637098Y20670075D01*
X27613985Y20622798D01*
X27597499Y20585459D01*
X27594041Y20582002D01*
X27593591Y20581080D01*
X27523920Y20511409D01*
X27522998Y20510959D01*
X27519541Y20507501D01*
X27482207Y20491017D01*
X27434926Y20467902D01*
X27427361Y20466800D01*
X27418685Y20462969D01*
X27350000Y20455000D01*
X26400000Y20455000D01*
X26331315Y20462969D01*
X26322638Y20466800D01*
X26315074Y20467902D01*
X26267787Y20491019D01*
X26230459Y20507501D01*
X26227002Y20510958D01*
X26226079Y20511409D01*
X26156408Y20581080D01*
X26155956Y20582004D01*
X26152501Y20585459D01*
X26136025Y20622772D01*
X26112901Y20670074D01*
X26111798Y20677643D01*
X26107969Y20686315D01*
X26100000Y20755000D01*
X26100000Y21255000D01*
X26107969Y21323685D01*
X26111798Y21332358D01*
X26112901Y21339926D01*
X26136028Y21387234D01*
X26152501Y21424541D01*
X26155955Y21427996D01*
X26156408Y21428921D01*
X26226079Y21498592D01*
X26227004Y21499045D01*
X26230459Y21502499D01*
X26267761Y21518970D01*
X26315073Y21542099D01*
X26322642Y21543202D01*
X26331315Y21547031D01*
X26400000Y21555000D01*
X27350000Y21555000D01*
X27418685Y21547031D01*
G37*
G36*
X25323469Y21549357D02*
G01*
X25332142Y21545528D01*
X25339709Y21544425D01*
X25387007Y21521303D01*
X25424325Y21504825D01*
X25427780Y21501370D01*
X25428704Y21500918D01*
X25498375Y21431247D01*
X25498826Y21430324D01*
X25502283Y21426867D01*
X25518762Y21389544D01*
X25541882Y21342253D01*
X25542984Y21334687D01*
X25546815Y21326011D01*
X25554784Y21257326D01*
X25554784Y20757326D01*
X25546815Y20688641D01*
X25542983Y20679965D01*
X25541882Y20672401D01*
X25518769Y20625124D01*
X25502283Y20587785D01*
X25498825Y20584328D01*
X25498375Y20583406D01*
X25428704Y20513735D01*
X25427782Y20513285D01*
X25424325Y20509827D01*
X25386991Y20493343D01*
X25339710Y20470228D01*
X25332145Y20469126D01*
X25323469Y20465295D01*
X25254784Y20457326D01*
X24304784Y20457326D01*
X24236099Y20465295D01*
X24227422Y20469126D01*
X24219858Y20470228D01*
X24172571Y20493345D01*
X24135243Y20509827D01*
X24131786Y20513284D01*
X24130863Y20513735D01*
X24061192Y20583406D01*
X24060740Y20584330D01*
X24057285Y20587785D01*
X24040809Y20625098D01*
X24017685Y20672400D01*
X24016582Y20679969D01*
X24012753Y20688641D01*
X24004784Y20757326D01*
X24004784Y21257326D01*
X24012753Y21326011D01*
X24016582Y21334684D01*
X24017685Y21342252D01*
X24040812Y21389560D01*
X24057285Y21426867D01*
X24060739Y21430322D01*
X24061192Y21431247D01*
X24130863Y21500918D01*
X24131788Y21501371D01*
X24135243Y21504825D01*
X24172545Y21521296D01*
X24219857Y21544425D01*
X24227426Y21545528D01*
X24236099Y21549357D01*
X24304784Y21557326D01*
X25254784Y21557326D01*
X25323469Y21549357D01*
G37*
G36*
X23155796Y21085918D02*
G01*
X23215815Y21045815D01*
X23255918Y20985796D01*
X23270000Y20915000D01*
X23270000Y20645000D01*
X23255918Y20574204D01*
X23215815Y20514185D01*
X23155796Y20474082D01*
X23085000Y20460000D01*
X22715000Y20460000D01*
X22644204Y20474082D01*
X22584185Y20514185D01*
X22544082Y20574204D01*
X22530000Y20645000D01*
X22530000Y20915000D01*
X22544082Y20985796D01*
X22584185Y21045815D01*
X22644204Y21085918D01*
X22715000Y21100000D01*
X23085000Y21100000D01*
X23155796Y21085918D01*
G37*
G36*
X22115694Y21088827D02*
G01*
X22175713Y21048724D01*
X22215816Y20988705D01*
X22229898Y20917909D01*
X22229898Y20647909D01*
X22215816Y20577113D01*
X22175713Y20517094D01*
X22115694Y20476991D01*
X22044898Y20462909D01*
X21674898Y20462909D01*
X21604102Y20476991D01*
X21544083Y20517094D01*
X21503980Y20577113D01*
X21489898Y20647909D01*
X21489898Y20917909D01*
X21503980Y20988705D01*
X21544083Y21048724D01*
X21604102Y21088827D01*
X21674898Y21102909D01*
X22044898Y21102909D01*
X22115694Y21088827D01*
G37*
G36*
X36742710Y21335746D02*
G01*
X36804350Y21294559D01*
X36845537Y21232919D01*
X36860000Y21160209D01*
X36860000Y20880209D01*
X36845537Y20807499D01*
X36804350Y20745859D01*
X36742710Y20704672D01*
X36670000Y20690209D01*
X36330000Y20690209D01*
X36257290Y20704672D01*
X36195650Y20745859D01*
X36154463Y20807499D01*
X36140000Y20880209D01*
X36140000Y21160209D01*
X36154463Y21232919D01*
X36195650Y21294559D01*
X36257290Y21335746D01*
X36330000Y21350209D01*
X36670000Y21350209D01*
X36742710Y21335746D01*
G37*
G36*
X35555796Y21340918D02*
G01*
X35615815Y21300815D01*
X35655918Y21240796D01*
X35670000Y21170000D01*
X35670000Y20900000D01*
X35655918Y20829204D01*
X35615815Y20769185D01*
X35555796Y20729082D01*
X35485000Y20715000D01*
X35115000Y20715000D01*
X35044204Y20729082D01*
X34984185Y20769185D01*
X34944082Y20829204D01*
X34930000Y20900000D01*
X34930000Y21170000D01*
X34944082Y21240796D01*
X34984185Y21300815D01*
X35044204Y21340918D01*
X35115000Y21355000D01*
X35485000Y21355000D01*
X35555796Y21340918D01*
G37*
G36*
X13857344Y21655918D02*
G01*
X13917363Y21615815D01*
X13957466Y21555796D01*
X13971548Y21485000D01*
X13971548Y21115000D01*
X13957466Y21044204D01*
X13917363Y20984185D01*
X13857344Y20944082D01*
X13786548Y20930000D01*
X13516548Y20930000D01*
X13445752Y20944082D01*
X13385733Y20984185D01*
X13345630Y21044204D01*
X13331548Y21115000D01*
X13331548Y21485000D01*
X13345630Y21555796D01*
X13385733Y21615815D01*
X13445752Y21655918D01*
X13516548Y21670000D01*
X13786548Y21670000D01*
X13857344Y21655918D01*
G37*
G36*
X14877344Y21655918D02*
G01*
X14937363Y21615815D01*
X14977466Y21555796D01*
X14991548Y21485000D01*
X14991548Y21115000D01*
X14977466Y21044204D01*
X14937363Y20984185D01*
X14877344Y20944082D01*
X14806548Y20930000D01*
X14536548Y20930000D01*
X14465752Y20944082D01*
X14405733Y20984185D01*
X14365630Y21044204D01*
X14351548Y21115000D01*
X14351548Y21485000D01*
X14365630Y21555796D01*
X14405733Y21615815D01*
X14465752Y21655918D01*
X14536548Y21670000D01*
X14806548Y21670000D01*
X14877344Y21655918D01*
G37*
G36*
X23155796Y22105918D02*
G01*
X23215815Y22065815D01*
X23255918Y22005796D01*
X23270000Y21935000D01*
X23270000Y21665000D01*
X23255918Y21594204D01*
X23215815Y21534185D01*
X23155796Y21494082D01*
X23085000Y21480000D01*
X22715000Y21480000D01*
X22644204Y21494082D01*
X22584185Y21534185D01*
X22544082Y21594204D01*
X22530000Y21665000D01*
X22530000Y21935000D01*
X22544082Y22005796D01*
X22584185Y22065815D01*
X22644204Y22105918D01*
X22715000Y22120000D01*
X23085000Y22120000D01*
X23155796Y22105918D01*
G37*
G36*
X22115694Y22108827D02*
G01*
X22175713Y22068724D01*
X22215816Y22008705D01*
X22229898Y21937909D01*
X22229898Y21667909D01*
X22215816Y21597113D01*
X22175713Y21537094D01*
X22115694Y21496991D01*
X22044898Y21482909D01*
X21674898Y21482909D01*
X21604102Y21496991D01*
X21544083Y21537094D01*
X21503980Y21597113D01*
X21489898Y21667909D01*
X21489898Y21937909D01*
X21503980Y22008705D01*
X21544083Y22068724D01*
X21604102Y22108827D01*
X21674898Y22122909D01*
X22044898Y22122909D01*
X22115694Y22108827D01*
G37*
G36*
X32284574Y22480314D02*
G01*
X32346214Y22439127D01*
X32387401Y22377487D01*
X32401864Y22304777D01*
X32401864Y22024777D01*
X32387401Y21952067D01*
X32346214Y21890427D01*
X32284574Y21849240D01*
X32211864Y21834777D01*
X31871864Y21834777D01*
X31799154Y21849240D01*
X31737514Y21890427D01*
X31696327Y21952067D01*
X31681864Y22024777D01*
X31681864Y22304777D01*
X31696327Y22377487D01*
X31737514Y22439127D01*
X31799154Y22480314D01*
X31871864Y22494777D01*
X32211864Y22494777D01*
X32284574Y22480314D01*
G37*
G36*
X33321414Y22480314D02*
G01*
X33383054Y22439127D01*
X33424241Y22377487D01*
X33438704Y22304777D01*
X33438704Y22024777D01*
X33424241Y21952067D01*
X33383054Y21890427D01*
X33321414Y21849240D01*
X33248704Y21834777D01*
X32908704Y21834777D01*
X32835994Y21849240D01*
X32774354Y21890427D01*
X32733167Y21952067D01*
X32718704Y22024777D01*
X32718704Y22304777D01*
X32733167Y22377487D01*
X32774354Y22439127D01*
X32835994Y22480314D01*
X32908704Y22494777D01*
X33248704Y22494777D01*
X33321414Y22480314D01*
G37*
G36*
X2273685Y23842031D02*
G01*
X2282358Y23838202D01*
X2289925Y23837099D01*
X2337223Y23813977D01*
X2374541Y23797499D01*
X2377996Y23794044D01*
X2378920Y23793592D01*
X2448591Y23723921D01*
X2449042Y23722998D01*
X2452499Y23719541D01*
X2468978Y23682218D01*
X2492098Y23634927D01*
X2493200Y23627361D01*
X2497031Y23618685D01*
X2505000Y23550000D01*
X2505000Y22250000D01*
X2497031Y22181315D01*
X2493199Y22172639D01*
X2492098Y22165075D01*
X2468985Y22117798D01*
X2452499Y22080459D01*
X2449041Y22077002D01*
X2448591Y22076080D01*
X2378920Y22006409D01*
X2377998Y22005959D01*
X2374541Y22002501D01*
X2337207Y21986017D01*
X2289926Y21962902D01*
X2282361Y21961800D01*
X2273685Y21957969D01*
X2205000Y21950000D01*
X1555000Y21950000D01*
X1486315Y21957969D01*
X1477638Y21961800D01*
X1470074Y21962902D01*
X1422787Y21986019D01*
X1385459Y22002501D01*
X1382002Y22005958D01*
X1381079Y22006409D01*
X1311408Y22076080D01*
X1310956Y22077004D01*
X1307501Y22080459D01*
X1291025Y22117772D01*
X1267901Y22165074D01*
X1266798Y22172643D01*
X1262969Y22181315D01*
X1255000Y22250000D01*
X1255000Y23550000D01*
X1262969Y23618685D01*
X1266798Y23627358D01*
X1267901Y23634926D01*
X1291028Y23682234D01*
X1307501Y23719541D01*
X1310955Y23722996D01*
X1311408Y23723921D01*
X1381079Y23793592D01*
X1382004Y23794045D01*
X1385459Y23797499D01*
X1422761Y23813970D01*
X1470073Y23837099D01*
X1477642Y23838202D01*
X1486315Y23842031D01*
X1555000Y23850000D01*
X2205000Y23850000D01*
X2273685Y23842031D01*
G37*
G36*
X5223685Y23842031D02*
G01*
X5232358Y23838202D01*
X5239925Y23837099D01*
X5287223Y23813977D01*
X5324541Y23797499D01*
X5327996Y23794044D01*
X5328920Y23793592D01*
X5398591Y23723921D01*
X5399042Y23722998D01*
X5402499Y23719541D01*
X5418978Y23682218D01*
X5442098Y23634927D01*
X5443200Y23627361D01*
X5447031Y23618685D01*
X5455000Y23550000D01*
X5455000Y22250000D01*
X5447031Y22181315D01*
X5443199Y22172639D01*
X5442098Y22165075D01*
X5418985Y22117798D01*
X5402499Y22080459D01*
X5399041Y22077002D01*
X5398591Y22076080D01*
X5328920Y22006409D01*
X5327998Y22005959D01*
X5324541Y22002501D01*
X5287207Y21986017D01*
X5239926Y21962902D01*
X5232361Y21961800D01*
X5223685Y21957969D01*
X5155000Y21950000D01*
X4505000Y21950000D01*
X4436315Y21957969D01*
X4427638Y21961800D01*
X4420074Y21962902D01*
X4372787Y21986019D01*
X4335459Y22002501D01*
X4332002Y22005958D01*
X4331079Y22006409D01*
X4261408Y22076080D01*
X4260956Y22077004D01*
X4257501Y22080459D01*
X4241025Y22117772D01*
X4217901Y22165074D01*
X4216798Y22172643D01*
X4212969Y22181315D01*
X4205000Y22250000D01*
X4205000Y23550000D01*
X4212969Y23618685D01*
X4216798Y23627358D01*
X4217901Y23634926D01*
X4241028Y23682234D01*
X4257501Y23719541D01*
X4260955Y23722996D01*
X4261408Y23723921D01*
X4331079Y23793592D01*
X4332004Y23794045D01*
X4335459Y23797499D01*
X4372761Y23813970D01*
X4420073Y23837099D01*
X4427642Y23838202D01*
X4436315Y23842031D01*
X4505000Y23850000D01*
X5155000Y23850000D01*
X5223685Y23842031D01*
G37*
G36*
X13867185Y22698237D02*
G01*
X13927204Y22658134D01*
X13967307Y22598115D01*
X13981389Y22527319D01*
X13981389Y22157319D01*
X13967307Y22086523D01*
X13927204Y22026504D01*
X13867185Y21986401D01*
X13796389Y21972319D01*
X13526389Y21972319D01*
X13455593Y21986401D01*
X13395574Y22026504D01*
X13355471Y22086523D01*
X13341389Y22157319D01*
X13341389Y22527319D01*
X13355471Y22598115D01*
X13395574Y22658134D01*
X13455593Y22698237D01*
X13526389Y22712319D01*
X13796389Y22712319D01*
X13867185Y22698237D01*
G37*
G36*
X14887185Y22698237D02*
G01*
X14947204Y22658134D01*
X14987307Y22598115D01*
X15001389Y22527319D01*
X15001389Y22157319D01*
X14987307Y22086523D01*
X14947204Y22026504D01*
X14887185Y21986401D01*
X14816389Y21972319D01*
X14546389Y21972319D01*
X14475593Y21986401D01*
X14415574Y22026504D01*
X14375471Y22086523D01*
X14361389Y22157319D01*
X14361389Y22527319D01*
X14375471Y22598115D01*
X14415574Y22658134D01*
X14475593Y22698237D01*
X14546389Y22712319D01*
X14816389Y22712319D01*
X14887185Y22698237D01*
G37*
G36*
X10243685Y23442031D02*
G01*
X10252358Y23438202D01*
X10259925Y23437099D01*
X10307223Y23413977D01*
X10344541Y23397499D01*
X10347996Y23394044D01*
X10348920Y23393592D01*
X10418591Y23323921D01*
X10419042Y23322998D01*
X10422499Y23319541D01*
X10438978Y23282218D01*
X10462098Y23234927D01*
X10463200Y23227361D01*
X10467031Y23218685D01*
X10475000Y23150000D01*
X10475000Y22425000D01*
X10467031Y22356315D01*
X10463199Y22347639D01*
X10462098Y22340075D01*
X10438985Y22292798D01*
X10422499Y22255459D01*
X10419041Y22252002D01*
X10418591Y22251080D01*
X10348920Y22181409D01*
X10347998Y22180959D01*
X10344541Y22177501D01*
X10307207Y22161017D01*
X10259926Y22137902D01*
X10252361Y22136800D01*
X10243685Y22132969D01*
X10175000Y22125000D01*
X7325000Y22125000D01*
X7256315Y22132969D01*
X7247638Y22136800D01*
X7240074Y22137902D01*
X7192787Y22161019D01*
X7155459Y22177501D01*
X7152002Y22180958D01*
X7151079Y22181409D01*
X7081408Y22251080D01*
X7080956Y22252004D01*
X7077501Y22255459D01*
X7061025Y22292772D01*
X7037901Y22340074D01*
X7036798Y22347643D01*
X7032969Y22356315D01*
X7025000Y22425000D01*
X7025000Y23150000D01*
X7032969Y23218685D01*
X7036798Y23227358D01*
X7037901Y23234926D01*
X7061028Y23282234D01*
X7077501Y23319541D01*
X7080955Y23322996D01*
X7081408Y23323921D01*
X7151079Y23393592D01*
X7152004Y23394045D01*
X7155459Y23397499D01*
X7192761Y23413970D01*
X7240073Y23437099D01*
X7247642Y23438202D01*
X7256315Y23442031D01*
X7325000Y23450000D01*
X10175000Y23450000D01*
X10243685Y23442031D01*
G37*
G36*
X36210796Y23480918D02*
G01*
X36270815Y23440815D01*
X36310918Y23380796D01*
X36325000Y23310000D01*
X36325000Y22940000D01*
X36310918Y22869204D01*
X36270815Y22809185D01*
X36210796Y22769082D01*
X36140000Y22755000D01*
X35870000Y22755000D01*
X35799204Y22769082D01*
X35739185Y22809185D01*
X35699082Y22869204D01*
X35685000Y22940000D01*
X35685000Y23310000D01*
X35699082Y23380796D01*
X35739185Y23440815D01*
X35799204Y23480918D01*
X35870000Y23495000D01*
X36140000Y23495000D01*
X36210796Y23480918D01*
G37*
G36*
X37230796Y23480918D02*
G01*
X37290815Y23440815D01*
X37330918Y23380796D01*
X37345000Y23310000D01*
X37345000Y22940000D01*
X37330918Y22869204D01*
X37290815Y22809185D01*
X37230796Y22769082D01*
X37160000Y22755000D01*
X36890000Y22755000D01*
X36819204Y22769082D01*
X36759185Y22809185D01*
X36719082Y22869204D01*
X36705000Y22940000D01*
X36705000Y23310000D01*
X36719082Y23380796D01*
X36759185Y23440815D01*
X36819204Y23480918D01*
X36890000Y23495000D01*
X37160000Y23495000D01*
X37230796Y23480918D01*
G37*
G36*
X34327710Y23470537D02*
G01*
X34389350Y23429350D01*
X34430537Y23367710D01*
X34445000Y23295000D01*
X34445000Y22955000D01*
X34430537Y22882290D01*
X34389350Y22820650D01*
X34327710Y22779463D01*
X34255000Y22765000D01*
X33975000Y22765000D01*
X33902290Y22779463D01*
X33840650Y22820650D01*
X33799463Y22882290D01*
X33785000Y22955000D01*
X33785000Y23295000D01*
X33799463Y23367710D01*
X33840650Y23429350D01*
X33902290Y23470537D01*
X33975000Y23485000D01*
X34255000Y23485000D01*
X34327710Y23470537D01*
G37*
G36*
X35287710Y23470537D02*
G01*
X35349350Y23429350D01*
X35390537Y23367710D01*
X35405000Y23295000D01*
X35405000Y22955000D01*
X35390537Y22882290D01*
X35349350Y22820650D01*
X35287710Y22779463D01*
X35215000Y22765000D01*
X34935000Y22765000D01*
X34862290Y22779463D01*
X34800650Y22820650D01*
X34759463Y22882290D01*
X34745000Y22955000D01*
X34745000Y23295000D01*
X34759463Y23367710D01*
X34800650Y23429350D01*
X34862290Y23470537D01*
X34935000Y23485000D01*
X35215000Y23485000D01*
X35287710Y23470537D01*
G37*
G36*
X32284574Y23440314D02*
G01*
X32346214Y23399127D01*
X32387401Y23337487D01*
X32401864Y23264777D01*
X32401864Y22984777D01*
X32387401Y22912067D01*
X32346214Y22850427D01*
X32284574Y22809240D01*
X32211864Y22794777D01*
X31871864Y22794777D01*
X31799154Y22809240D01*
X31737514Y22850427D01*
X31696327Y22912067D01*
X31681864Y22984777D01*
X31681864Y23264777D01*
X31696327Y23337487D01*
X31737514Y23399127D01*
X31799154Y23440314D01*
X31871864Y23454777D01*
X32211864Y23454777D01*
X32284574Y23440314D01*
G37*
G36*
X33321414Y23440314D02*
G01*
X33383054Y23399127D01*
X33424241Y23337487D01*
X33438704Y23264777D01*
X33438704Y22984777D01*
X33424241Y22912067D01*
X33383054Y22850427D01*
X33321414Y22809240D01*
X33248704Y22794777D01*
X32908704Y22794777D01*
X32835994Y22809240D01*
X32774354Y22850427D01*
X32733167Y22912067D01*
X32718704Y22984777D01*
X32718704Y23264777D01*
X32733167Y23337487D01*
X32774354Y23399127D01*
X32835994Y23440314D01*
X32908704Y23454777D01*
X33248704Y23454777D01*
X33321414Y23440314D01*
G37*
G36*
X14998685Y25142031D02*
G01*
X15007358Y25138202D01*
X15014925Y25137099D01*
X15062223Y25113977D01*
X15099541Y25097499D01*
X15102996Y25094044D01*
X15103920Y25093592D01*
X15173591Y25023921D01*
X15174042Y25022998D01*
X15177499Y25019541D01*
X15193978Y24982218D01*
X15217098Y24934927D01*
X15218200Y24927361D01*
X15222031Y24918685D01*
X15230000Y24850000D01*
X15230000Y23550000D01*
X15222031Y23481315D01*
X15218199Y23472639D01*
X15217098Y23465075D01*
X15193985Y23417798D01*
X15177499Y23380459D01*
X15174041Y23377002D01*
X15173591Y23376080D01*
X15103920Y23306409D01*
X15102998Y23305959D01*
X15099541Y23302501D01*
X15062207Y23286017D01*
X15014926Y23262902D01*
X15007361Y23261800D01*
X14998685Y23257969D01*
X14930000Y23250000D01*
X14280000Y23250000D01*
X14211315Y23257969D01*
X14202638Y23261800D01*
X14195074Y23262902D01*
X14147787Y23286019D01*
X14110459Y23302501D01*
X14107002Y23305958D01*
X14106079Y23306409D01*
X14036408Y23376080D01*
X14035956Y23377004D01*
X14032501Y23380459D01*
X14016025Y23417772D01*
X13992901Y23465074D01*
X13991798Y23472643D01*
X13987969Y23481315D01*
X13980000Y23550000D01*
X13980000Y24850000D01*
X13987969Y24918685D01*
X13991798Y24927358D01*
X13992901Y24934926D01*
X14016028Y24982234D01*
X14032501Y25019541D01*
X14035955Y25022996D01*
X14036408Y25023921D01*
X14106079Y25093592D01*
X14107004Y25094045D01*
X14110459Y25097499D01*
X14147761Y25113970D01*
X14195073Y25137099D01*
X14202642Y25138202D01*
X14211315Y25142031D01*
X14280000Y25150000D01*
X14930000Y25150000D01*
X14998685Y25142031D01*
G37*
G36*
X17948685Y25142031D02*
G01*
X17957358Y25138202D01*
X17964925Y25137099D01*
X18012223Y25113977D01*
X18049541Y25097499D01*
X18052996Y25094044D01*
X18053920Y25093592D01*
X18123591Y25023921D01*
X18124042Y25022998D01*
X18127499Y25019541D01*
X18143978Y24982218D01*
X18167098Y24934927D01*
X18168200Y24927361D01*
X18172031Y24918685D01*
X18180000Y24850000D01*
X18180000Y23550000D01*
X18172031Y23481315D01*
X18168199Y23472639D01*
X18167098Y23465075D01*
X18143985Y23417798D01*
X18127499Y23380459D01*
X18124041Y23377002D01*
X18123591Y23376080D01*
X18053920Y23306409D01*
X18052998Y23305959D01*
X18049541Y23302501D01*
X18012207Y23286017D01*
X17964926Y23262902D01*
X17957361Y23261800D01*
X17948685Y23257969D01*
X17880000Y23250000D01*
X17230000Y23250000D01*
X17161315Y23257969D01*
X17152638Y23261800D01*
X17145074Y23262902D01*
X17097787Y23286019D01*
X17060459Y23302501D01*
X17057002Y23305958D01*
X17056079Y23306409D01*
X16986408Y23376080D01*
X16985956Y23377004D01*
X16982501Y23380459D01*
X16966025Y23417772D01*
X16942901Y23465074D01*
X16941798Y23472643D01*
X16937969Y23481315D01*
X16930000Y23550000D01*
X16930000Y24850000D01*
X16937969Y24918685D01*
X16941798Y24927358D01*
X16942901Y24934926D01*
X16966028Y24982234D01*
X16982501Y25019541D01*
X16985955Y25022996D01*
X16986408Y25023921D01*
X17056079Y25093592D01*
X17057004Y25094045D01*
X17060459Y25097499D01*
X17097761Y25113970D01*
X17145073Y25137099D01*
X17152642Y25138202D01*
X17161315Y25142031D01*
X17230000Y25150000D01*
X17880000Y25150000D01*
X17948685Y25142031D01*
G37*
G36*
X21233685Y26137031D02*
G01*
X21242358Y26133202D01*
X21249925Y26132099D01*
X21297223Y26108977D01*
X21334541Y26092499D01*
X21337996Y26089044D01*
X21338920Y26088592D01*
X21408591Y26018921D01*
X21409042Y26017998D01*
X21412499Y26014541D01*
X21428978Y25977218D01*
X21452098Y25929927D01*
X21453200Y25922361D01*
X21457031Y25913685D01*
X21465000Y25845000D01*
X21465000Y23755000D01*
X21457031Y23686315D01*
X21453199Y23677639D01*
X21452098Y23670075D01*
X21428985Y23622798D01*
X21412499Y23585459D01*
X21409041Y23582002D01*
X21408591Y23581080D01*
X21338920Y23511409D01*
X21337998Y23510959D01*
X21334541Y23507501D01*
X21297207Y23491017D01*
X21249926Y23467902D01*
X21242361Y23466800D01*
X21233685Y23462969D01*
X21165000Y23455000D01*
X19595000Y23455000D01*
X19526315Y23462969D01*
X19517638Y23466800D01*
X19510074Y23467902D01*
X19462787Y23491019D01*
X19425459Y23507501D01*
X19422002Y23510958D01*
X19421079Y23511409D01*
X19351408Y23581080D01*
X19350956Y23582004D01*
X19347501Y23585459D01*
X19331025Y23622772D01*
X19307901Y23670074D01*
X19306798Y23677643D01*
X19302969Y23686315D01*
X19295000Y23755000D01*
X19295000Y25845000D01*
X19302969Y25913685D01*
X19306798Y25922358D01*
X19307901Y25929926D01*
X19331028Y25977234D01*
X19347501Y26014541D01*
X19350955Y26017996D01*
X19351408Y26018921D01*
X19421079Y26088592D01*
X19422004Y26089045D01*
X19425459Y26092499D01*
X19462761Y26108970D01*
X19510073Y26132099D01*
X19517642Y26133202D01*
X19526315Y26137031D01*
X19595000Y26145000D01*
X21165000Y26145000D01*
X21233685Y26137031D01*
G37*
G36*
X27473685Y26137031D02*
G01*
X27482358Y26133202D01*
X27489925Y26132099D01*
X27537223Y26108977D01*
X27574541Y26092499D01*
X27577996Y26089044D01*
X27578920Y26088592D01*
X27648591Y26018921D01*
X27649042Y26017998D01*
X27652499Y26014541D01*
X27668978Y25977218D01*
X27692098Y25929927D01*
X27693200Y25922361D01*
X27697031Y25913685D01*
X27705000Y25845000D01*
X27705000Y23755000D01*
X27697031Y23686315D01*
X27693199Y23677639D01*
X27692098Y23670075D01*
X27668985Y23622798D01*
X27652499Y23585459D01*
X27649041Y23582002D01*
X27648591Y23581080D01*
X27578920Y23511409D01*
X27577998Y23510959D01*
X27574541Y23507501D01*
X27537207Y23491017D01*
X27489926Y23467902D01*
X27482361Y23466800D01*
X27473685Y23462969D01*
X27405000Y23455000D01*
X25835000Y23455000D01*
X25766315Y23462969D01*
X25757638Y23466800D01*
X25750074Y23467902D01*
X25702787Y23491019D01*
X25665459Y23507501D01*
X25662002Y23510958D01*
X25661079Y23511409D01*
X25591408Y23581080D01*
X25590956Y23582004D01*
X25587501Y23585459D01*
X25571025Y23622772D01*
X25547901Y23670074D01*
X25546798Y23677643D01*
X25542969Y23686315D01*
X25535000Y23755000D01*
X25535000Y25845000D01*
X25542969Y25913685D01*
X25546798Y25922358D01*
X25547901Y25929926D01*
X25571028Y25977234D01*
X25587501Y26014541D01*
X25590955Y26017996D01*
X25591408Y26018921D01*
X25661079Y26088592D01*
X25662004Y26089045D01*
X25665459Y26092499D01*
X25702761Y26108970D01*
X25750073Y26132099D01*
X25757642Y26133202D01*
X25766315Y26137031D01*
X25835000Y26145000D01*
X27405000Y26145000D01*
X27473685Y26137031D01*
G37*
G36*
X3363953Y29156767D02*
G01*
X3648239Y29080593D01*
X3920150Y28967964D01*
X4175033Y28820807D01*
X4408528Y28641640D01*
X4616640Y28433528D01*
X4795807Y28200033D01*
X4942964Y27945150D01*
X5055593Y27673239D01*
X5131767Y27388953D01*
X5170183Y27097157D01*
X5170183Y26802843D01*
X5131767Y26511047D01*
X5055593Y26226761D01*
X4942964Y25954850D01*
X4795807Y25699967D01*
X4616640Y25466472D01*
X4408528Y25258360D01*
X4175033Y25079193D01*
X3920150Y24932036D01*
X3648239Y24819407D01*
X3363953Y24743233D01*
X3072157Y24704817D01*
X2777843Y24704817D01*
X2486047Y24743233D01*
X2201761Y24819407D01*
X1929850Y24932036D01*
X1674967Y25079193D01*
X1441472Y25258360D01*
X1233360Y25466472D01*
X1054193Y25699967D01*
X907036Y25954850D01*
X794407Y26226761D01*
X718233Y26511047D01*
X679817Y26802843D01*
X679817Y27097157D01*
X718233Y27388953D01*
X794407Y27673239D01*
X907036Y27945150D01*
X1054193Y28200033D01*
X1233360Y28433528D01*
X1441472Y28641640D01*
X1674967Y28820807D01*
X1929850Y28967964D01*
X2201761Y29080593D01*
X2486047Y29156767D01*
X2777843Y29195183D01*
X3072157Y29195183D01*
X3363953Y29156767D01*
G37*
G36*
X15356537Y27297276D02*
G01*
X15421421Y27253921D01*
X15464776Y27189037D01*
X15480000Y27112500D01*
X15480000Y25937500D01*
X15464776Y25860963D01*
X15421421Y25796079D01*
X15356537Y25752724D01*
X15280000Y25737500D01*
X14980000Y25737500D01*
X14903463Y25752724D01*
X14838579Y25796079D01*
X14795224Y25860963D01*
X14780000Y25937500D01*
X14780000Y27112500D01*
X14795224Y27189037D01*
X14838579Y27253921D01*
X14903463Y27297276D01*
X14980000Y27312500D01*
X15280000Y27312500D01*
X15356537Y27297276D01*
G37*
G36*
X17256537Y27297276D02*
G01*
X17321421Y27253921D01*
X17364776Y27189037D01*
X17380000Y27112500D01*
X17380000Y25937500D01*
X17364776Y25860963D01*
X17321421Y25796079D01*
X17256537Y25752724D01*
X17180000Y25737500D01*
X16880000Y25737500D01*
X16803463Y25752724D01*
X16738579Y25796079D01*
X16695224Y25860963D01*
X16680000Y25937500D01*
X16680000Y27112500D01*
X16695224Y27189037D01*
X16738579Y27253921D01*
X16803463Y27297276D01*
X16880000Y27312500D01*
X17180000Y27312500D01*
X17256537Y27297276D01*
G37*
G36*
X38098869Y28570212D02*
G01*
X39367943Y28570212D01*
X39371875Y28570212D01*
X39460035Y28558605D01*
X39469708Y28554095D01*
X39476940Y28552949D01*
X39528455Y28526701D01*
X39567249Y28508611D01*
X39570667Y28505193D01*
X39571720Y28504656D01*
X39646943Y28429433D01*
X39647479Y28428381D01*
X39650899Y28424961D01*
X39668993Y28386157D01*
X39695236Y28334653D01*
X39696381Y28327423D01*
X39700893Y28317747D01*
X39712499Y28229586D01*
X39712499Y28225663D01*
X39712500Y28225656D01*
X39712500Y27319552D01*
X39712500Y26438125D01*
X39700893Y26349965D01*
X39696380Y26340289D01*
X39695236Y26333060D01*
X39668999Y26281568D01*
X39650899Y26242751D01*
X39647478Y26239331D01*
X39646943Y26238280D01*
X39571720Y26163057D01*
X39570669Y26162522D01*
X39567249Y26159101D01*
X39528432Y26141001D01*
X39476940Y26114764D01*
X39469711Y26113620D01*
X39460035Y26109107D01*
X39371874Y26097501D01*
X39367949Y26097501D01*
X39367943Y26097500D01*
X38017696Y26097500D01*
X38015625Y26097500D01*
X37350500Y26097500D01*
X37307257Y26106102D01*
X37270597Y26130597D01*
X37246102Y26167257D01*
X37237500Y26210500D01*
X37237500Y26504500D01*
X37246102Y26547743D01*
X37270597Y26584403D01*
X37307257Y26608898D01*
X37350500Y26617500D01*
X37645711Y26617500D01*
X37675000Y26646789D01*
X37675000Y26718232D01*
X37645712Y26747520D01*
X37347232Y26747520D01*
X37303989Y26756122D01*
X37267329Y26780617D01*
X37242834Y26817277D01*
X37234232Y26860520D01*
X37234232Y27154520D01*
X37242834Y27197763D01*
X37267329Y27234423D01*
X37303989Y27258918D01*
X37347232Y27267520D01*
X37645711Y27267520D01*
X37675000Y27296809D01*
X37675000Y27368262D01*
X37645712Y27397550D01*
X37349864Y27397550D01*
X37306621Y27406152D01*
X37269961Y27430647D01*
X37245466Y27467307D01*
X37236864Y27510550D01*
X37236864Y27804550D01*
X37245466Y27847793D01*
X37269961Y27884453D01*
X37306621Y27908948D01*
X37349864Y27917550D01*
X37645711Y27917550D01*
X37675000Y27946839D01*
X37675000Y28020925D01*
X37645712Y28050213D01*
X37349864Y28050213D01*
X37306621Y28058815D01*
X37269961Y28083310D01*
X37245466Y28119970D01*
X37236864Y28163213D01*
X37236864Y28457213D01*
X37245466Y28500456D01*
X37269961Y28537116D01*
X37306621Y28561611D01*
X37349864Y28570213D01*
X38098864Y28570213D01*
X38098869Y28570212D01*
G37*
G36*
X40941816Y26605701D02*
G01*
X40992102Y26572102D01*
X41025701Y26521816D01*
X41037500Y26462500D01*
X41037500Y26252500D01*
X41025701Y26193184D01*
X40992102Y26142898D01*
X40941816Y26109299D01*
X40882500Y26097500D01*
X40392500Y26097500D01*
X40333184Y26109299D01*
X40282898Y26142898D01*
X40249299Y26193184D01*
X40237500Y26252500D01*
X40237500Y26462500D01*
X40249299Y26521816D01*
X40282898Y26572102D01*
X40333184Y26605701D01*
X40392500Y26617500D01*
X40882500Y26617500D01*
X40941816Y26605701D01*
G37*
G36*
X40941816Y27255701D02*
G01*
X40992102Y27222102D01*
X41025701Y27171816D01*
X41037500Y27112500D01*
X41037500Y26902500D01*
X41025701Y26843184D01*
X40992102Y26792898D01*
X40941816Y26759299D01*
X40882500Y26747500D01*
X40392500Y26747500D01*
X40333184Y26759299D01*
X40282898Y26792898D01*
X40249299Y26843184D01*
X40237500Y26902500D01*
X40237500Y27112500D01*
X40249299Y27171816D01*
X40282898Y27222102D01*
X40333184Y27255701D01*
X40392500Y27267500D01*
X40882500Y27267500D01*
X40941816Y27255701D01*
G37*
G36*
X40941816Y27905701D02*
G01*
X40992102Y27872102D01*
X41025701Y27821816D01*
X41037500Y27762500D01*
X41037500Y27552500D01*
X41025701Y27493184D01*
X40992102Y27442898D01*
X40941816Y27409299D01*
X40882500Y27397500D01*
X40392500Y27397500D01*
X40333184Y27409299D01*
X40282898Y27442898D01*
X40249299Y27493184D01*
X40237500Y27552500D01*
X40237500Y27762500D01*
X40249299Y27821816D01*
X40282898Y27872102D01*
X40333184Y27905701D01*
X40392500Y27917500D01*
X40882500Y27917500D01*
X40941816Y27905701D01*
G37*
G36*
X16306537Y29172276D02*
G01*
X16371421Y29128921D01*
X16414776Y29064037D01*
X16430000Y28987500D01*
X16430000Y27812500D01*
X16414776Y27735963D01*
X16371421Y27671079D01*
X16306537Y27627724D01*
X16230000Y27612500D01*
X15930000Y27612500D01*
X15853463Y27627724D01*
X15788579Y27671079D01*
X15745224Y27735963D01*
X15730000Y27812500D01*
X15730000Y28987500D01*
X15745224Y29064037D01*
X15788579Y29128921D01*
X15853463Y29172276D01*
X15930000Y29187500D01*
X16230000Y29187500D01*
X16306537Y29172276D01*
G37*
G36*
X50738080Y28704966D02*
G01*
X50802154Y28662154D01*
X50844966Y28598080D01*
X50860000Y28522500D01*
X50860000Y28177500D01*
X50844966Y28101920D01*
X50802154Y28037846D01*
X50738080Y27995034D01*
X50662500Y27980000D01*
X50367500Y27980000D01*
X50291920Y27995034D01*
X50227846Y28037846D01*
X50185034Y28101920D01*
X50170000Y28177500D01*
X50170000Y28522500D01*
X50185034Y28598080D01*
X50227846Y28662154D01*
X50291920Y28704966D01*
X50367500Y28720000D01*
X50662500Y28720000D01*
X50738080Y28704966D01*
G37*
G36*
X51708080Y28704966D02*
G01*
X51772154Y28662154D01*
X51814966Y28598080D01*
X51830000Y28522500D01*
X51830000Y28177500D01*
X51814966Y28101920D01*
X51772154Y28037846D01*
X51708080Y27995034D01*
X51632500Y27980000D01*
X51337500Y27980000D01*
X51261920Y27995034D01*
X51197846Y28037846D01*
X51155034Y28101920D01*
X51140000Y28177500D01*
X51140000Y28522500D01*
X51155034Y28598080D01*
X51197846Y28662154D01*
X51261920Y28704966D01*
X51337500Y28720000D01*
X51632500Y28720000D01*
X51708080Y28704966D01*
G37*
G36*
X40941816Y28555701D02*
G01*
X40992102Y28522102D01*
X41025701Y28471816D01*
X41037500Y28412500D01*
X41037500Y28202500D01*
X41025701Y28143184D01*
X40992102Y28092898D01*
X40941816Y28059299D01*
X40882500Y28047500D01*
X40392500Y28047500D01*
X40333184Y28059299D01*
X40282898Y28092898D01*
X40249299Y28143184D01*
X40237500Y28202500D01*
X40237500Y28412500D01*
X40249299Y28471816D01*
X40282898Y28522102D01*
X40333184Y28555701D01*
X40392500Y28567500D01*
X40882500Y28567500D01*
X40941816Y28555701D01*
G37*
G36*
X10243685Y29367031D02*
G01*
X10252358Y29363202D01*
X10259925Y29362099D01*
X10307223Y29338977D01*
X10344541Y29322499D01*
X10347996Y29319044D01*
X10348920Y29318592D01*
X10418591Y29248921D01*
X10419042Y29247998D01*
X10422499Y29244541D01*
X10438978Y29207218D01*
X10462098Y29159927D01*
X10463200Y29152361D01*
X10467031Y29143685D01*
X10475000Y29075000D01*
X10475000Y28350000D01*
X10467031Y28281315D01*
X10463199Y28272639D01*
X10462098Y28265075D01*
X10438985Y28217798D01*
X10422499Y28180459D01*
X10419041Y28177002D01*
X10418591Y28176080D01*
X10348920Y28106409D01*
X10347998Y28105959D01*
X10344541Y28102501D01*
X10307207Y28086017D01*
X10259926Y28062902D01*
X10252361Y28061800D01*
X10243685Y28057969D01*
X10175000Y28050000D01*
X7325000Y28050000D01*
X7256315Y28057969D01*
X7247638Y28061800D01*
X7240074Y28062902D01*
X7192787Y28086019D01*
X7155459Y28102501D01*
X7152002Y28105958D01*
X7151079Y28106409D01*
X7081408Y28176080D01*
X7080956Y28177004D01*
X7077501Y28180459D01*
X7061025Y28217772D01*
X7037901Y28265074D01*
X7036798Y28272643D01*
X7032969Y28281315D01*
X7025000Y28350000D01*
X7025000Y29075000D01*
X7032969Y29143685D01*
X7036798Y29152358D01*
X7037901Y29159926D01*
X7061028Y29207234D01*
X7077501Y29244541D01*
X7080955Y29247996D01*
X7081408Y29248921D01*
X7151079Y29318592D01*
X7152004Y29319045D01*
X7155459Y29322499D01*
X7192761Y29338970D01*
X7240073Y29362099D01*
X7247642Y29363202D01*
X7256315Y29367031D01*
X7325000Y29375000D01*
X10175000Y29375000D01*
X10243685Y29367031D01*
G37*
G36*
X14112710Y29345537D02*
G01*
X14174350Y29304350D01*
X14215537Y29242710D01*
X14230000Y29170000D01*
X14230000Y28830000D01*
X14215537Y28757290D01*
X14174350Y28695650D01*
X14112710Y28654463D01*
X14040000Y28640000D01*
X13760000Y28640000D01*
X13687290Y28654463D01*
X13625650Y28695650D01*
X13584463Y28757290D01*
X13570000Y28830000D01*
X13570000Y29170000D01*
X13584463Y29242710D01*
X13625650Y29304350D01*
X13687290Y29345537D01*
X13760000Y29360000D01*
X14040000Y29360000D01*
X14112710Y29345537D01*
G37*
G36*
X15072710Y29345537D02*
G01*
X15134350Y29304350D01*
X15175537Y29242710D01*
X15190000Y29170000D01*
X15190000Y28830000D01*
X15175537Y28757290D01*
X15134350Y28695650D01*
X15072710Y28654463D01*
X15000000Y28640000D01*
X14720000Y28640000D01*
X14647290Y28654463D01*
X14585650Y28695650D01*
X14544463Y28757290D01*
X14530000Y28830000D01*
X14530000Y29170000D01*
X14544463Y29242710D01*
X14585650Y29304350D01*
X14647290Y29345537D01*
X14720000Y29360000D01*
X15000000Y29360000D01*
X15072710Y29345537D01*
G37*
G36*
X17412710Y29345537D02*
G01*
X17474350Y29304350D01*
X17515537Y29242710D01*
X17530000Y29170000D01*
X17530000Y28830000D01*
X17515537Y28757290D01*
X17474350Y28695650D01*
X17412710Y28654463D01*
X17340000Y28640000D01*
X17060000Y28640000D01*
X16987290Y28654463D01*
X16925650Y28695650D01*
X16884463Y28757290D01*
X16870000Y28830000D01*
X16870000Y29170000D01*
X16884463Y29242710D01*
X16925650Y29304350D01*
X16987290Y29345537D01*
X17060000Y29360000D01*
X17340000Y29360000D01*
X17412710Y29345537D01*
G37*
G36*
X18372710Y29345537D02*
G01*
X18434350Y29304350D01*
X18475537Y29242710D01*
X18490000Y29170000D01*
X18490000Y28830000D01*
X18475537Y28757290D01*
X18434350Y28695650D01*
X18372710Y28654463D01*
X18300000Y28640000D01*
X18020000Y28640000D01*
X17947290Y28654463D01*
X17885650Y28695650D01*
X17844463Y28757290D01*
X17830000Y28830000D01*
X17830000Y29170000D01*
X17844463Y29242710D01*
X17885650Y29304350D01*
X17947290Y29345537D01*
X18020000Y29360000D01*
X18300000Y29360000D01*
X18372710Y29345537D01*
G37*
M02*
