%TF.GenerationSoftware,KiCad,Pcbnew,9.0.7*%
%TF.CreationDate,2026-02-27T18:20:13+01:00*%
%TF.ProjectId,PDNode-PDCard-4242,50444e6f-6465-42d5-9044-436172642d34,rev?*%
%TF.SameCoordinates,Original*%
%TF.FileFunction,Soldermask,Bot*%
%TF.FilePolarity,Negative*%
%FSLAX46Y46*%
G04 Gerber Fmt 4.6, Leading zero omitted, Abs format (unit mm)*
G04 Created by KiCad (PCBNEW 9.0.7) date 2026-02-27 18:20:13*
%MOMM*%
%LPD*%
G01*
G04 APERTURE LIST*
G04 APERTURE END LIST*
G36*
X35739632Y5873559D02*
G01*
X35766668Y5862360D01*
X35787360Y5841668D01*
X35798559Y5814632D01*
X35800000Y5800000D01*
X35800000Y-800000D01*
X35798559Y-814632D01*
X35787360Y-841668D01*
X35766668Y-862360D01*
X35739632Y-873559D01*
X35725000Y-875000D01*
X35722546Y-875000D01*
X12902454Y-875000D01*
X12900000Y-875000D01*
X12885368Y-873559D01*
X12858332Y-862360D01*
X12837640Y-841668D01*
X12826441Y-814632D01*
X12825000Y-800000D01*
X12825000Y5800000D01*
X12826441Y5814632D01*
X12837640Y5841668D01*
X12858332Y5862360D01*
X12885368Y5873559D01*
X12900000Y5875000D01*
X35725000Y5875000D01*
X35739632Y5873559D01*
G37*
G36*
X3363953Y7156767D02*
G01*
X3648239Y7080593D01*
X3920150Y6967964D01*
X4175033Y6820807D01*
X4408528Y6641640D01*
X4616640Y6433528D01*
X4795807Y6200033D01*
X4942964Y5945150D01*
X5055593Y5673239D01*
X5131767Y5388953D01*
X5170183Y5097157D01*
X5170183Y4802843D01*
X5131767Y4511047D01*
X5055593Y4226761D01*
X4942964Y3954850D01*
X4795807Y3699967D01*
X4616640Y3466472D01*
X4408528Y3258360D01*
X4175033Y3079193D01*
X3920150Y2932036D01*
X3648239Y2819407D01*
X3363953Y2743233D01*
X3072157Y2704817D01*
X2777843Y2704817D01*
X2486047Y2743233D01*
X2201761Y2819407D01*
X1929850Y2932036D01*
X1674967Y3079193D01*
X1441472Y3258360D01*
X1233360Y3466472D01*
X1054193Y3699967D01*
X907036Y3954850D01*
X794407Y4226761D01*
X718233Y4511047D01*
X679817Y4802843D01*
X679817Y5097157D01*
X718233Y5388953D01*
X794407Y5673239D01*
X907036Y5945150D01*
X1054193Y6200033D01*
X1233360Y6433528D01*
X1441472Y6641640D01*
X1674967Y6820807D01*
X1929850Y6967964D01*
X2201761Y7080593D01*
X2486047Y7156767D01*
X2777843Y7195183D01*
X3072157Y7195183D01*
X3363953Y7156767D01*
G37*
G36*
X7983939Y7623358D02*
G01*
X8063067Y7577674D01*
X8127674Y7513067D01*
X8173358Y7433939D01*
X8197006Y7345684D01*
X8197006Y7254316D01*
X8173358Y7166061D01*
X8127674Y7086933D01*
X8063067Y7022326D01*
X7983939Y6976642D01*
X7895684Y6952994D01*
X7804316Y6952994D01*
X7716061Y6976642D01*
X7636933Y7022326D01*
X7572326Y7086933D01*
X7526642Y7166061D01*
X7502994Y7254316D01*
X7502994Y7345684D01*
X7526642Y7433939D01*
X7572326Y7513067D01*
X7636933Y7577674D01*
X7716061Y7623358D01*
X7804316Y7647006D01*
X7895684Y7647006D01*
X7983939Y7623358D01*
G37*
G36*
X1048080Y9259966D02*
G01*
X1112154Y9217154D01*
X1154966Y9153080D01*
X1170000Y9077500D01*
X1170000Y8782500D01*
X1154966Y8706920D01*
X1112154Y8642846D01*
X1048080Y8600034D01*
X972500Y8585000D01*
X627500Y8585000D01*
X551920Y8600034D01*
X487846Y8642846D01*
X445034Y8706920D01*
X430000Y8782500D01*
X430000Y9077500D01*
X445034Y9153080D01*
X487846Y9217154D01*
X551920Y9259966D01*
X627500Y9275000D01*
X972500Y9275000D01*
X1048080Y9259966D01*
G37*
G36*
X32783939Y9973358D02*
G01*
X32863067Y9927674D01*
X32927674Y9863067D01*
X32973358Y9783939D01*
X32997006Y9695684D01*
X32997006Y9604316D01*
X32973358Y9516061D01*
X32927674Y9436933D01*
X32863067Y9372326D01*
X32783939Y9326642D01*
X32695684Y9302994D01*
X32604316Y9302994D01*
X32516061Y9326642D01*
X32436933Y9372326D01*
X32372326Y9436933D01*
X32326642Y9516061D01*
X32302994Y9604316D01*
X32302994Y9695684D01*
X32326642Y9783939D01*
X32372326Y9863067D01*
X32436933Y9927674D01*
X32516061Y9973358D01*
X32604316Y9997006D01*
X32695684Y9997006D01*
X32783939Y9973358D01*
G37*
G36*
X1995796Y10255918D02*
G01*
X2055815Y10215815D01*
X2095918Y10155796D01*
X2110000Y10085000D01*
X2110000Y9715000D01*
X2095918Y9644204D01*
X2055815Y9584185D01*
X1995796Y9544082D01*
X1925000Y9530000D01*
X1655000Y9530000D01*
X1584204Y9544082D01*
X1524185Y9584185D01*
X1484082Y9644204D01*
X1470000Y9715000D01*
X1470000Y10085000D01*
X1484082Y10155796D01*
X1524185Y10215815D01*
X1584204Y10255918D01*
X1655000Y10270000D01*
X1925000Y10270000D01*
X1995796Y10255918D01*
G37*
G36*
X3015796Y10255918D02*
G01*
X3075815Y10215815D01*
X3115918Y10155796D01*
X3130000Y10085000D01*
X3130000Y9715000D01*
X3115918Y9644204D01*
X3075815Y9584185D01*
X3015796Y9544082D01*
X2945000Y9530000D01*
X2675000Y9530000D01*
X2604204Y9544082D01*
X2544185Y9584185D01*
X2504082Y9644204D01*
X2490000Y9715000D01*
X2490000Y10085000D01*
X2504082Y10155796D01*
X2544185Y10215815D01*
X2604204Y10255918D01*
X2675000Y10270000D01*
X2945000Y10270000D01*
X3015796Y10255918D01*
G37*
G36*
X1048080Y10229966D02*
G01*
X1112154Y10187154D01*
X1154966Y10123080D01*
X1170000Y10047500D01*
X1170000Y9752500D01*
X1154966Y9676920D01*
X1112154Y9612846D01*
X1048080Y9570034D01*
X972500Y9555000D01*
X627500Y9555000D01*
X551920Y9570034D01*
X487846Y9612846D01*
X445034Y9676920D01*
X430000Y9752500D01*
X430000Y10047500D01*
X445034Y10123080D01*
X487846Y10187154D01*
X551920Y10229966D01*
X627500Y10245000D01*
X972500Y10245000D01*
X1048080Y10229966D01*
G37*
G36*
X14833939Y11323358D02*
G01*
X14913067Y11277674D01*
X14977674Y11213067D01*
X15023358Y11133939D01*
X15047006Y11045684D01*
X15047006Y10954316D01*
X15023358Y10866061D01*
X14977674Y10786933D01*
X14913067Y10722326D01*
X14833939Y10676642D01*
X14745684Y10652994D01*
X14654316Y10652994D01*
X14566061Y10676642D01*
X14486933Y10722326D01*
X14422326Y10786933D01*
X14376642Y10866061D01*
X14352994Y10954316D01*
X14352994Y11045684D01*
X14376642Y11133939D01*
X14422326Y11213067D01*
X14486933Y11277674D01*
X14566061Y11323358D01*
X14654316Y11347006D01*
X14745684Y11347006D01*
X14833939Y11323358D01*
G37*
G36*
X1701789Y12425295D02*
G01*
X1840476Y12388134D01*
X1964819Y12316344D01*
X2066344Y12214819D01*
X2138134Y12090476D01*
X2175295Y11951789D01*
X2175295Y11808211D01*
X2138134Y11669524D01*
X2066344Y11545181D01*
X1964819Y11443656D01*
X1840476Y11371866D01*
X1701789Y11334705D01*
X1630000Y11330000D01*
X1628363Y11330000D01*
X1031637Y11330000D01*
X1030000Y11330000D01*
X958211Y11334705D01*
X819524Y11371866D01*
X695181Y11443656D01*
X593656Y11545181D01*
X521866Y11669524D01*
X484705Y11808211D01*
X484705Y11951789D01*
X521866Y12090476D01*
X593656Y12214819D01*
X695181Y12316344D01*
X819524Y12388134D01*
X958211Y12425295D01*
X1030000Y12430000D01*
X1630000Y12430000D01*
X1701789Y12425295D01*
G37*
G36*
X6131789Y12425295D02*
G01*
X6270476Y12388134D01*
X6394819Y12316344D01*
X6496344Y12214819D01*
X6568134Y12090476D01*
X6605295Y11951789D01*
X6605295Y11808211D01*
X6568134Y11669524D01*
X6496344Y11545181D01*
X6394819Y11443656D01*
X6270476Y11371866D01*
X6131789Y11334705D01*
X6060000Y11330000D01*
X6058363Y11330000D01*
X4961637Y11330000D01*
X4960000Y11330000D01*
X4888211Y11334705D01*
X4749524Y11371866D01*
X4625181Y11443656D01*
X4523656Y11545181D01*
X4451866Y11669524D01*
X4414705Y11808211D01*
X4414705Y11951789D01*
X4451866Y12090476D01*
X4523656Y12214819D01*
X4625181Y12316344D01*
X4749524Y12388134D01*
X4888211Y12425295D01*
X4960000Y12430000D01*
X6060000Y12430000D01*
X6131789Y12425295D01*
G37*
G36*
X29218685Y13367031D02*
G01*
X29227358Y13363202D01*
X29234925Y13362099D01*
X29282223Y13338977D01*
X29319541Y13322499D01*
X29322996Y13319044D01*
X29323920Y13318592D01*
X29393591Y13248921D01*
X29394042Y13247998D01*
X29397499Y13244541D01*
X29413978Y13207218D01*
X29437098Y13159927D01*
X29438200Y13152361D01*
X29442031Y13143685D01*
X29450000Y13075000D01*
X29450000Y12125000D01*
X29442031Y12056315D01*
X29438199Y12047639D01*
X29437098Y12040075D01*
X29413985Y11992798D01*
X29397499Y11955459D01*
X29394041Y11952002D01*
X29393591Y11951080D01*
X29323920Y11881409D01*
X29322998Y11880959D01*
X29319541Y11877501D01*
X29282207Y11861017D01*
X29234926Y11837902D01*
X29227361Y11836800D01*
X29218685Y11832969D01*
X29150000Y11825000D01*
X28650000Y11825000D01*
X28581315Y11832969D01*
X28572638Y11836800D01*
X28565074Y11837902D01*
X28517787Y11861019D01*
X28480459Y11877501D01*
X28477002Y11880958D01*
X28476079Y11881409D01*
X28406408Y11951080D01*
X28405956Y11952004D01*
X28402501Y11955459D01*
X28386025Y11992772D01*
X28362901Y12040074D01*
X28361798Y12047643D01*
X28357969Y12056315D01*
X28350000Y12125000D01*
X28350000Y13075000D01*
X28357969Y13143685D01*
X28361798Y13152358D01*
X28362901Y13159926D01*
X28386028Y13207234D01*
X28402501Y13244541D01*
X28405955Y13247996D01*
X28406408Y13248921D01*
X28476079Y13318592D01*
X28477004Y13319045D01*
X28480459Y13322499D01*
X28517761Y13338970D01*
X28565073Y13362099D01*
X28572642Y13363202D01*
X28581315Y13367031D01*
X28650000Y13375000D01*
X29150000Y13375000D01*
X29218685Y13367031D01*
G37*
G36*
X31118685Y13367031D02*
G01*
X31127358Y13363202D01*
X31134925Y13362099D01*
X31182223Y13338977D01*
X31219541Y13322499D01*
X31222996Y13319044D01*
X31223920Y13318592D01*
X31293591Y13248921D01*
X31294042Y13247998D01*
X31297499Y13244541D01*
X31313978Y13207218D01*
X31337098Y13159927D01*
X31338200Y13152361D01*
X31342031Y13143685D01*
X31350000Y13075000D01*
X31350000Y12125000D01*
X31342031Y12056315D01*
X31338199Y12047639D01*
X31337098Y12040075D01*
X31313985Y11992798D01*
X31297499Y11955459D01*
X31294041Y11952002D01*
X31293591Y11951080D01*
X31223920Y11881409D01*
X31222998Y11880959D01*
X31219541Y11877501D01*
X31182207Y11861017D01*
X31134926Y11837902D01*
X31127361Y11836800D01*
X31118685Y11832969D01*
X31050000Y11825000D01*
X30550000Y11825000D01*
X30481315Y11832969D01*
X30472638Y11836800D01*
X30465074Y11837902D01*
X30417787Y11861019D01*
X30380459Y11877501D01*
X30377002Y11880958D01*
X30376079Y11881409D01*
X30306408Y11951080D01*
X30305956Y11952004D01*
X30302501Y11955459D01*
X30286025Y11992772D01*
X30262901Y12040074D01*
X30261798Y12047643D01*
X30257969Y12056315D01*
X30250000Y12125000D01*
X30250000Y13075000D01*
X30257969Y13143685D01*
X30261798Y13152358D01*
X30262901Y13159926D01*
X30286028Y13207234D01*
X30302501Y13244541D01*
X30305955Y13247996D01*
X30306408Y13248921D01*
X30376079Y13318592D01*
X30377004Y13319045D01*
X30380459Y13322499D01*
X30417761Y13338970D01*
X30465073Y13362099D01*
X30472642Y13363202D01*
X30481315Y13367031D01*
X30550000Y13375000D01*
X31050000Y13375000D01*
X31118685Y13367031D01*
G37*
G36*
X5134372Y13610261D02*
G01*
X5207847Y13567840D01*
X5267840Y13507847D01*
X5310261Y13434372D01*
X5332220Y13352421D01*
X5332220Y13267579D01*
X5310261Y13185628D01*
X5267840Y13112153D01*
X5207847Y13052160D01*
X5134372Y13009739D01*
X5052421Y12987780D01*
X4967579Y12987780D01*
X4885628Y13009739D01*
X4812153Y13052160D01*
X4752160Y13112153D01*
X4709739Y13185628D01*
X4687780Y13267579D01*
X4687780Y13352421D01*
X4709739Y13434372D01*
X4752160Y13507847D01*
X4812153Y13567840D01*
X4885628Y13610261D01*
X4967579Y13632220D01*
X5052421Y13632220D01*
X5134372Y13610261D01*
G37*
G36*
X9633939Y13823358D02*
G01*
X9713067Y13777674D01*
X9777674Y13713067D01*
X9823358Y13633939D01*
X9847006Y13545684D01*
X9847006Y13454316D01*
X9823358Y13366061D01*
X9777674Y13286933D01*
X9713067Y13222326D01*
X9633939Y13176642D01*
X9545684Y13152994D01*
X9454316Y13152994D01*
X9366061Y13176642D01*
X9286933Y13222326D01*
X9222326Y13286933D01*
X9176642Y13366061D01*
X9152994Y13454316D01*
X9152994Y13545684D01*
X9176642Y13633939D01*
X9222326Y13713067D01*
X9286933Y13777674D01*
X9366061Y13823358D01*
X9454316Y13847006D01*
X9545684Y13847006D01*
X9633939Y13823358D01*
G37*
G36*
X12742710Y14955537D02*
G01*
X12804350Y14914350D01*
X12845537Y14852710D01*
X12860000Y14780000D01*
X12860000Y14500000D01*
X12845537Y14427290D01*
X12804350Y14365650D01*
X12742710Y14324463D01*
X12670000Y14310000D01*
X12330000Y14310000D01*
X12257290Y14324463D01*
X12195650Y14365650D01*
X12154463Y14427290D01*
X12140000Y14500000D01*
X12140000Y14780000D01*
X12154463Y14852710D01*
X12195650Y14914350D01*
X12257290Y14955537D01*
X12330000Y14970000D01*
X12670000Y14970000D01*
X12742710Y14955537D01*
G37*
G36*
X12742710Y15915537D02*
G01*
X12804350Y15874350D01*
X12845537Y15812710D01*
X12860000Y15740000D01*
X12860000Y15460000D01*
X12845537Y15387290D01*
X12804350Y15325650D01*
X12742710Y15284463D01*
X12670000Y15270000D01*
X12330000Y15270000D01*
X12257290Y15284463D01*
X12195650Y15325650D01*
X12154463Y15387290D01*
X12140000Y15460000D01*
X12140000Y15740000D01*
X12154463Y15812710D01*
X12195650Y15874350D01*
X12257290Y15915537D01*
X12330000Y15930000D01*
X12670000Y15930000D01*
X12742710Y15915537D01*
G37*
G36*
X12742710Y17055537D02*
G01*
X12804350Y17014350D01*
X12845537Y16952710D01*
X12860000Y16880000D01*
X12860000Y16600000D01*
X12845537Y16527290D01*
X12804350Y16465650D01*
X12742710Y16424463D01*
X12670000Y16410000D01*
X12330000Y16410000D01*
X12257290Y16424463D01*
X12195650Y16465650D01*
X12154463Y16527290D01*
X12140000Y16600000D01*
X12140000Y16880000D01*
X12154463Y16952710D01*
X12195650Y17014350D01*
X12257290Y17055537D01*
X12330000Y17070000D01*
X12670000Y17070000D01*
X12742710Y17055537D01*
G37*
G36*
X12742710Y18015537D02*
G01*
X12804350Y17974350D01*
X12845537Y17912710D01*
X12860000Y17840000D01*
X12860000Y17560000D01*
X12845537Y17487290D01*
X12804350Y17425650D01*
X12742710Y17384463D01*
X12670000Y17370000D01*
X12330000Y17370000D01*
X12257290Y17384463D01*
X12195650Y17425650D01*
X12154463Y17487290D01*
X12140000Y17560000D01*
X12140000Y17840000D01*
X12154463Y17912710D01*
X12195650Y17974350D01*
X12257290Y18015537D01*
X12330000Y18030000D01*
X12670000Y18030000D01*
X12742710Y18015537D01*
G37*
G36*
X32683939Y18673358D02*
G01*
X32763067Y18627674D01*
X32827674Y18563067D01*
X32873358Y18483939D01*
X32897006Y18395684D01*
X32897006Y18304316D01*
X32873358Y18216061D01*
X32827674Y18136933D01*
X32763067Y18072326D01*
X32683939Y18026642D01*
X32595684Y18002994D01*
X32504316Y18002994D01*
X32416061Y18026642D01*
X32336933Y18072326D01*
X32272326Y18136933D01*
X32226642Y18216061D01*
X32202994Y18304316D01*
X32202994Y18395684D01*
X32226642Y18483939D01*
X32272326Y18563067D01*
X32336933Y18627674D01*
X32416061Y18673358D01*
X32504316Y18697006D01*
X32595684Y18697006D01*
X32683939Y18673358D01*
G37*
G36*
X11633939Y19323358D02*
G01*
X11713067Y19277674D01*
X11777674Y19213067D01*
X11823358Y19133939D01*
X11847006Y19045684D01*
X11847006Y18954316D01*
X11823358Y18866061D01*
X11777674Y18786933D01*
X11713067Y18722326D01*
X11633939Y18676642D01*
X11545684Y18652994D01*
X11454316Y18652994D01*
X11366061Y18676642D01*
X11286933Y18722326D01*
X11222326Y18786933D01*
X11176642Y18866061D01*
X11152994Y18954316D01*
X11152994Y19045684D01*
X11176642Y19133939D01*
X11222326Y19213067D01*
X11286933Y19277674D01*
X11366061Y19323358D01*
X11454316Y19347006D01*
X11545684Y19347006D01*
X11633939Y19323358D01*
G37*
G36*
X5134372Y19390261D02*
G01*
X5207847Y19347840D01*
X5267840Y19287847D01*
X5310261Y19214372D01*
X5332220Y19132421D01*
X5332220Y19047579D01*
X5310261Y18965628D01*
X5267840Y18892153D01*
X5207847Y18832160D01*
X5134372Y18789739D01*
X5052421Y18767780D01*
X4967579Y18767780D01*
X4885628Y18789739D01*
X4812153Y18832160D01*
X4752160Y18892153D01*
X4709739Y18965628D01*
X4687780Y19047579D01*
X4687780Y19132421D01*
X4709739Y19214372D01*
X4752160Y19287847D01*
X4812153Y19347840D01*
X4885628Y19390261D01*
X4967579Y19412220D01*
X5052421Y19412220D01*
X5134372Y19390261D01*
G37*
G36*
X16814037Y20234776D02*
G01*
X16878921Y20191421D01*
X16922276Y20126537D01*
X16937500Y20050000D01*
X16937500Y19750000D01*
X16922276Y19673463D01*
X16878921Y19608579D01*
X16814037Y19565224D01*
X16737500Y19550000D01*
X15712500Y19550000D01*
X15635963Y19565224D01*
X15571079Y19608579D01*
X15527724Y19673463D01*
X15512500Y19750000D01*
X15512500Y20050000D01*
X15527724Y20126537D01*
X15571079Y20191421D01*
X15635963Y20234776D01*
X15712500Y20250000D01*
X16737500Y20250000D01*
X16814037Y20234776D01*
G37*
G36*
X19089037Y20234776D02*
G01*
X19153921Y20191421D01*
X19197276Y20126537D01*
X19212500Y20050000D01*
X19212500Y19750000D01*
X19197276Y19673463D01*
X19153921Y19608579D01*
X19089037Y19565224D01*
X19012500Y19550000D01*
X17987500Y19550000D01*
X17910963Y19565224D01*
X17846079Y19608579D01*
X17802724Y19673463D01*
X17787500Y19750000D01*
X17787500Y20050000D01*
X17802724Y20126537D01*
X17846079Y20191421D01*
X17910963Y20234776D01*
X17987500Y20250000D01*
X19012500Y20250000D01*
X19089037Y20234776D01*
G37*
G36*
X1701789Y21065295D02*
G01*
X1840476Y21028134D01*
X1964819Y20956344D01*
X2066344Y20854819D01*
X2138134Y20730476D01*
X2175295Y20591789D01*
X2175295Y20448211D01*
X2138134Y20309524D01*
X2066344Y20185181D01*
X1964819Y20083656D01*
X1840476Y20011866D01*
X1701789Y19974705D01*
X1630000Y19970000D01*
X1628363Y19970000D01*
X1031637Y19970000D01*
X1030000Y19970000D01*
X958211Y19974705D01*
X819524Y20011866D01*
X695181Y20083656D01*
X593656Y20185181D01*
X521866Y20309524D01*
X484705Y20448211D01*
X484705Y20591789D01*
X521866Y20730476D01*
X593656Y20854819D01*
X695181Y20956344D01*
X819524Y21028134D01*
X958211Y21065295D01*
X1030000Y21070000D01*
X1630000Y21070000D01*
X1701789Y21065295D01*
G37*
G36*
X6131789Y21065295D02*
G01*
X6270476Y21028134D01*
X6394819Y20956344D01*
X6496344Y20854819D01*
X6568134Y20730476D01*
X6605295Y20591789D01*
X6605295Y20448211D01*
X6568134Y20309524D01*
X6496344Y20185181D01*
X6394819Y20083656D01*
X6270476Y20011866D01*
X6131789Y19974705D01*
X6060000Y19970000D01*
X6058363Y19970000D01*
X4961637Y19970000D01*
X4960000Y19970000D01*
X4888211Y19974705D01*
X4749524Y20011866D01*
X4625181Y20083656D01*
X4523656Y20185181D01*
X4451866Y20309524D01*
X4414705Y20448211D01*
X4414705Y20591789D01*
X4451866Y20730476D01*
X4523656Y20854819D01*
X4625181Y20956344D01*
X4749524Y21028134D01*
X4888211Y21065295D01*
X4960000Y21070000D01*
X6060000Y21070000D01*
X6131789Y21065295D01*
G37*
G36*
X20342710Y21135537D02*
G01*
X20404350Y21094350D01*
X20445537Y21032710D01*
X20460000Y20960000D01*
X20460000Y20680000D01*
X20445537Y20607290D01*
X20404350Y20545650D01*
X20342710Y20504463D01*
X20270000Y20490000D01*
X19930000Y20490000D01*
X19857290Y20504463D01*
X19795650Y20545650D01*
X19754463Y20607290D01*
X19740000Y20680000D01*
X19740000Y20960000D01*
X19754463Y21032710D01*
X19795650Y21094350D01*
X19857290Y21135537D01*
X19930000Y21150000D01*
X20270000Y21150000D01*
X20342710Y21135537D01*
G37*
G36*
X16814037Y21184776D02*
G01*
X16878921Y21141421D01*
X16922276Y21076537D01*
X16937500Y21000000D01*
X16937500Y20700000D01*
X16922276Y20623463D01*
X16878921Y20558579D01*
X16814037Y20515224D01*
X16737500Y20500000D01*
X15712500Y20500000D01*
X15635963Y20515224D01*
X15571079Y20558579D01*
X15527724Y20623463D01*
X15512500Y20700000D01*
X15512500Y21000000D01*
X15527724Y21076537D01*
X15571079Y21141421D01*
X15635963Y21184776D01*
X15712500Y21200000D01*
X16737500Y21200000D01*
X16814037Y21184776D01*
G37*
G36*
X31633939Y21823358D02*
G01*
X31713067Y21777674D01*
X31777674Y21713067D01*
X31823358Y21633939D01*
X31847006Y21545684D01*
X31847006Y21454316D01*
X31823358Y21366061D01*
X31777674Y21286933D01*
X31713067Y21222326D01*
X31633939Y21176642D01*
X31545684Y21152994D01*
X31454316Y21152994D01*
X31366061Y21176642D01*
X31286933Y21222326D01*
X31222326Y21286933D01*
X31176642Y21366061D01*
X31152994Y21454316D01*
X31152994Y21545684D01*
X31176642Y21633939D01*
X31222326Y21713067D01*
X31286933Y21777674D01*
X31366061Y21823358D01*
X31454316Y21847006D01*
X31545684Y21847006D01*
X31633939Y21823358D01*
G37*
G36*
X16814037Y22134776D02*
G01*
X16878921Y22091421D01*
X16922276Y22026537D01*
X16937500Y21950000D01*
X16937500Y21650000D01*
X16922276Y21573463D01*
X16878921Y21508579D01*
X16814037Y21465224D01*
X16737500Y21450000D01*
X15712500Y21450000D01*
X15635963Y21465224D01*
X15571079Y21508579D01*
X15527724Y21573463D01*
X15512500Y21650000D01*
X15512500Y21950000D01*
X15527724Y22026537D01*
X15571079Y22091421D01*
X15635963Y22134776D01*
X15712500Y22150000D01*
X16737500Y22150000D01*
X16814037Y22134776D01*
G37*
G36*
X19089037Y22134776D02*
G01*
X19153921Y22091421D01*
X19197276Y22026537D01*
X19212500Y21950000D01*
X19212500Y21650000D01*
X19197276Y21573463D01*
X19153921Y21508579D01*
X19089037Y21465224D01*
X19012500Y21450000D01*
X17987500Y21450000D01*
X17910963Y21465224D01*
X17846079Y21508579D01*
X17802724Y21573463D01*
X17787500Y21650000D01*
X17787500Y21950000D01*
X17802724Y22026537D01*
X17846079Y22091421D01*
X17910963Y22134776D01*
X17987500Y22150000D01*
X19012500Y22150000D01*
X19089037Y22134776D01*
G37*
G36*
X20342710Y22095537D02*
G01*
X20404350Y22054350D01*
X20445537Y21992710D01*
X20460000Y21920000D01*
X20460000Y21640000D01*
X20445537Y21567290D01*
X20404350Y21505650D01*
X20342710Y21464463D01*
X20270000Y21450000D01*
X19930000Y21450000D01*
X19857290Y21464463D01*
X19795650Y21505650D01*
X19754463Y21567290D01*
X19740000Y21640000D01*
X19740000Y21920000D01*
X19754463Y21992710D01*
X19795650Y22054350D01*
X19857290Y22095537D01*
X19930000Y22110000D01*
X20270000Y22110000D01*
X20342710Y22095537D01*
G37*
G36*
X50599903Y23248581D02*
G01*
X50648566Y23216065D01*
X50681082Y23167402D01*
X50692500Y23109999D01*
X50692500Y22909999D01*
X50681082Y22852596D01*
X50648566Y22803933D01*
X50599903Y22771417D01*
X50542500Y22759999D01*
X49742500Y22759999D01*
X49685097Y22771417D01*
X49636434Y22803933D01*
X49603918Y22852596D01*
X49592500Y22909999D01*
X49592500Y23109999D01*
X49603918Y23167402D01*
X49636434Y23216065D01*
X49685097Y23248581D01*
X49742500Y23259999D01*
X50542500Y23259999D01*
X50599903Y23248581D01*
G37*
G36*
X52374903Y23248581D02*
G01*
X52423566Y23216065D01*
X52456082Y23167402D01*
X52467500Y23109999D01*
X52467500Y22909999D01*
X52456082Y22852596D01*
X52423566Y22803933D01*
X52374903Y22771417D01*
X52317500Y22759999D01*
X51517500Y22759999D01*
X51460097Y22771417D01*
X51411434Y22803933D01*
X51378918Y22852596D01*
X51367500Y22909999D01*
X51367500Y23109999D01*
X51378918Y23167402D01*
X51411434Y23216065D01*
X51460097Y23248581D01*
X51517500Y23259999D01*
X52317500Y23259999D01*
X52374903Y23248581D01*
G37*
G36*
X48885796Y23455917D02*
G01*
X48945815Y23415814D01*
X48985918Y23355795D01*
X49000000Y23284999D01*
X49000000Y23014999D01*
X48985918Y22944203D01*
X48945815Y22884184D01*
X48885796Y22844081D01*
X48815000Y22829999D01*
X48445000Y22829999D01*
X48374204Y22844081D01*
X48314185Y22884184D01*
X48274082Y22944203D01*
X48260000Y23014999D01*
X48260000Y23284999D01*
X48274082Y23355795D01*
X48314185Y23415814D01*
X48374204Y23455917D01*
X48445000Y23469999D01*
X48815000Y23469999D01*
X48885796Y23455917D01*
G37*
G36*
X50599903Y23898581D02*
G01*
X50648566Y23866065D01*
X50681082Y23817402D01*
X50692500Y23759999D01*
X50692500Y23559999D01*
X50681082Y23502596D01*
X50648566Y23453933D01*
X50599903Y23421417D01*
X50542500Y23409999D01*
X49742500Y23409999D01*
X49685097Y23421417D01*
X49636434Y23453933D01*
X49603918Y23502596D01*
X49592500Y23559999D01*
X49592500Y23759999D01*
X49603918Y23817402D01*
X49636434Y23866065D01*
X49685097Y23898581D01*
X49742500Y23909999D01*
X50542500Y23909999D01*
X50599903Y23898581D01*
G37*
G36*
X52374903Y23898581D02*
G01*
X52423566Y23866065D01*
X52456082Y23817402D01*
X52467500Y23759999D01*
X52467500Y23559999D01*
X52456082Y23502596D01*
X52423566Y23453933D01*
X52374903Y23421417D01*
X52317500Y23409999D01*
X51517500Y23409999D01*
X51460097Y23421417D01*
X51411434Y23453933D01*
X51378918Y23502596D01*
X51367500Y23559999D01*
X51367500Y23759999D01*
X51378918Y23817402D01*
X51411434Y23866065D01*
X51460097Y23898581D01*
X51517500Y23909999D01*
X52317500Y23909999D01*
X52374903Y23898581D01*
G37*
G36*
X48885796Y24475917D02*
G01*
X48945815Y24435814D01*
X48985918Y24375795D01*
X49000000Y24304999D01*
X49000000Y24034999D01*
X48985918Y23964203D01*
X48945815Y23904184D01*
X48885796Y23864081D01*
X48815000Y23849999D01*
X48445000Y23849999D01*
X48374204Y23864081D01*
X48314185Y23904184D01*
X48274082Y23964203D01*
X48260000Y24034999D01*
X48260000Y24304999D01*
X48274082Y24375795D01*
X48314185Y24435814D01*
X48374204Y24475917D01*
X48445000Y24489999D01*
X48815000Y24489999D01*
X48885796Y24475917D01*
G37*
G36*
X50599903Y24548581D02*
G01*
X50648566Y24516065D01*
X50681082Y24467402D01*
X50692500Y24409999D01*
X50692500Y24209999D01*
X50681082Y24152596D01*
X50648566Y24103933D01*
X50599903Y24071417D01*
X50542500Y24059999D01*
X49742500Y24059999D01*
X49685097Y24071417D01*
X49636434Y24103933D01*
X49603918Y24152596D01*
X49592500Y24209999D01*
X49592500Y24409999D01*
X49603918Y24467402D01*
X49636434Y24516065D01*
X49685097Y24548581D01*
X49742500Y24559999D01*
X50542500Y24559999D01*
X50599903Y24548581D01*
G37*
G36*
X52374903Y24548581D02*
G01*
X52423566Y24516065D01*
X52456082Y24467402D01*
X52467500Y24409999D01*
X52467500Y24209999D01*
X52456082Y24152596D01*
X52423566Y24103933D01*
X52374903Y24071417D01*
X52317500Y24059999D01*
X51517500Y24059999D01*
X51460097Y24071417D01*
X51411434Y24103933D01*
X51378918Y24152596D01*
X51367500Y24209999D01*
X51367500Y24409999D01*
X51378918Y24467402D01*
X51411434Y24516065D01*
X51460097Y24548581D01*
X51517500Y24559999D01*
X52317500Y24559999D01*
X52374903Y24548581D01*
G37*
G36*
X3363953Y29156767D02*
G01*
X3648239Y29080593D01*
X3920150Y28967964D01*
X4175033Y28820807D01*
X4408528Y28641640D01*
X4616640Y28433528D01*
X4795807Y28200033D01*
X4942964Y27945150D01*
X5055593Y27673239D01*
X5131767Y27388953D01*
X5170183Y27097157D01*
X5170183Y26802843D01*
X5131767Y26511047D01*
X5055593Y26226761D01*
X4942964Y25954850D01*
X4795807Y25699967D01*
X4616640Y25466472D01*
X4408528Y25258360D01*
X4175033Y25079193D01*
X3920150Y24932036D01*
X3648239Y24819407D01*
X3363953Y24743233D01*
X3072157Y24704817D01*
X2777843Y24704817D01*
X2486047Y24743233D01*
X2201761Y24819407D01*
X1929850Y24932036D01*
X1674967Y25079193D01*
X1441472Y25258360D01*
X1233360Y25466472D01*
X1054193Y25699967D01*
X907036Y25954850D01*
X794407Y26226761D01*
X718233Y26511047D01*
X679817Y26802843D01*
X679817Y27097157D01*
X718233Y27388953D01*
X794407Y27673239D01*
X907036Y27945150D01*
X1054193Y28200033D01*
X1233360Y28433528D01*
X1441472Y28641640D01*
X1674967Y28820807D01*
X1929850Y28967964D01*
X2201761Y29080593D01*
X2486047Y29156767D01*
X2777843Y29195183D01*
X3072157Y29195183D01*
X3363953Y29156767D01*
G37*
G36*
X11945796Y25655918D02*
G01*
X12005815Y25615815D01*
X12045918Y25555796D01*
X12060000Y25485000D01*
X12060000Y25115000D01*
X12045918Y25044204D01*
X12005815Y24984185D01*
X11945796Y24944082D01*
X11875000Y24930000D01*
X11605000Y24930000D01*
X11534204Y24944082D01*
X11474185Y24984185D01*
X11434082Y25044204D01*
X11420000Y25115000D01*
X11420000Y25485000D01*
X11434082Y25555796D01*
X11474185Y25615815D01*
X11534204Y25655918D01*
X11605000Y25670000D01*
X11875000Y25670000D01*
X11945796Y25655918D01*
G37*
G36*
X12965796Y25655918D02*
G01*
X13025815Y25615815D01*
X13065918Y25555796D01*
X13080000Y25485000D01*
X13080000Y25115000D01*
X13065918Y25044204D01*
X13025815Y24984185D01*
X12965796Y24944082D01*
X12895000Y24930000D01*
X12625000Y24930000D01*
X12554204Y24944082D01*
X12494185Y24984185D01*
X12454082Y25044204D01*
X12440000Y25115000D01*
X12440000Y25485000D01*
X12454082Y25555796D01*
X12494185Y25615815D01*
X12554204Y25655918D01*
X12625000Y25670000D01*
X12895000Y25670000D01*
X12965796Y25655918D01*
G37*
G36*
X50762710Y25805536D02*
G01*
X50824350Y25764349D01*
X50865537Y25702709D01*
X50880000Y25629999D01*
X50880000Y25289999D01*
X50865537Y25217289D01*
X50824350Y25155649D01*
X50762710Y25114462D01*
X50690000Y25099999D01*
X50410000Y25099999D01*
X50337290Y25114462D01*
X50275650Y25155649D01*
X50234463Y25217289D01*
X50220000Y25289999D01*
X50220000Y25629999D01*
X50234463Y25702709D01*
X50275650Y25764349D01*
X50337290Y25805536D01*
X50410000Y25819999D01*
X50690000Y25819999D01*
X50762710Y25805536D01*
G37*
G36*
X51722710Y25805536D02*
G01*
X51784350Y25764349D01*
X51825537Y25702709D01*
X51840000Y25629999D01*
X51840000Y25289999D01*
X51825537Y25217289D01*
X51784350Y25155649D01*
X51722710Y25114462D01*
X51650000Y25099999D01*
X51370000Y25099999D01*
X51297290Y25114462D01*
X51235650Y25155649D01*
X51194463Y25217289D01*
X51180000Y25289999D01*
X51180000Y25629999D01*
X51194463Y25702709D01*
X51235650Y25764349D01*
X51297290Y25805536D01*
X51370000Y25819999D01*
X51650000Y25819999D01*
X51722710Y25805536D01*
G37*
G36*
X11945796Y26605918D02*
G01*
X12005815Y26565815D01*
X12045918Y26505796D01*
X12060000Y26435000D01*
X12060000Y26065000D01*
X12045918Y25994204D01*
X12005815Y25934185D01*
X11945796Y25894082D01*
X11875000Y25880000D01*
X11605000Y25880000D01*
X11534204Y25894082D01*
X11474185Y25934185D01*
X11434082Y25994204D01*
X11420000Y26065000D01*
X11420000Y26435000D01*
X11434082Y26505796D01*
X11474185Y26565815D01*
X11534204Y26605918D01*
X11605000Y26620000D01*
X11875000Y26620000D01*
X11945796Y26605918D01*
G37*
G36*
X12965796Y26605918D02*
G01*
X13025815Y26565815D01*
X13065918Y26505796D01*
X13080000Y26435000D01*
X13080000Y26065000D01*
X13065918Y25994204D01*
X13025815Y25934185D01*
X12965796Y25894082D01*
X12895000Y25880000D01*
X12625000Y25880000D01*
X12554204Y25894082D01*
X12494185Y25934185D01*
X12454082Y25994204D01*
X12440000Y26065000D01*
X12440000Y26435000D01*
X12454082Y26505796D01*
X12494185Y26565815D01*
X12554204Y26605918D01*
X12625000Y26620000D01*
X12895000Y26620000D01*
X12965796Y26605918D01*
G37*
G36*
X29083939Y26973358D02*
G01*
X29163067Y26927674D01*
X29227674Y26863067D01*
X29273358Y26783939D01*
X29297006Y26695684D01*
X29297006Y26604316D01*
X29273358Y26516061D01*
X29227674Y26436933D01*
X29163067Y26372326D01*
X29083939Y26326642D01*
X28995684Y26302994D01*
X28904316Y26302994D01*
X28816061Y26326642D01*
X28736933Y26372326D01*
X28672326Y26436933D01*
X28626642Y26516061D01*
X28602994Y26604316D01*
X28602994Y26695684D01*
X28626642Y26783939D01*
X28672326Y26863067D01*
X28736933Y26927674D01*
X28816061Y26973358D01*
X28904316Y26997006D01*
X28995684Y26997006D01*
X29083939Y26973358D01*
G37*
G36*
X41633939Y28623358D02*
G01*
X41713067Y28577674D01*
X41777674Y28513067D01*
X41823358Y28433939D01*
X41847006Y28345684D01*
X41847006Y28254316D01*
X41823358Y28166061D01*
X41777674Y28086933D01*
X41713067Y28022326D01*
X41633939Y27976642D01*
X41545684Y27952994D01*
X41454316Y27952994D01*
X41366061Y27976642D01*
X41286933Y28022326D01*
X41222326Y28086933D01*
X41176642Y28166061D01*
X41152994Y28254316D01*
X41152994Y28345684D01*
X41176642Y28433939D01*
X41222326Y28513067D01*
X41286933Y28577674D01*
X41366061Y28623358D01*
X41454316Y28647006D01*
X41545684Y28647006D01*
X41633939Y28623358D01*
G37*
M02*
