M48
; DRILL file {KiCad 9.0.7} date 2026-02-27T18:20:13+0100
; FORMAT={-:-/ absolute / inch / decimal}
; #@! TF.CreationDate,2026-02-27T18:20:13+01:00
; #@! TF.GenerationSoftware,Kicad,Pcbnew,9.0.7
; #@! TF.FileFunction,Plated,1,6,PTH
FMAT,2
INCH
; #@! TA.AperFunction,Plated,PTH,ViaDrill
T1C0.0079
; #@! TA.AperFunction,Plated,PTH,ViaDrill
T2C0.0098
; #@! TA.AperFunction,Plated,PTH,ComponentDrill
T3C0.0157
; #@! TA.AperFunction,Plated,PTH,ComponentDrill
T4C0.0236
; #@! TA.AperFunction,Plated,PTH,ComponentDrill
T5C0.0866
%
G90
G05
T1
X0.0315Y0.3228
X0.0866Y0.7638
X0.0866Y0.7323
X0.0866Y0.5432
X0.1142Y0.7638
X0.1142Y0.7323
X0.1142Y0.5432
X0.1142Y0.5118
X0.1156Y0.6505
X0.1159Y0.625
X0.1358Y0.3504
X0.1417Y0.7638
X0.1417Y0.7323
X0.1417Y0.5432
X0.1417Y0.5118
X0.1653Y0.5506
X0.1684Y0.725
X0.1693Y0.7638
X0.1693Y0.5118
X0.1929Y0.5506
X0.2008Y0.725
X0.2283Y0.7638
X0.2283Y0.7323
X0.2283Y0.5118
X0.2288Y0.5432
X0.2362Y0.3937
X0.2362Y0.3524
X0.2559Y0.7638
X0.2559Y0.7323
X0.2559Y0.5118
X0.2564Y0.5432
X0.2756Y0.2087
X0.2835Y0.7638
X0.2835Y0.7323
X0.2835Y0.5118
X0.2839Y0.5432
X0.3071Y0.7323
X0.3071Y0.287
X0.3071Y0.1772
X0.3075Y0.5432
X0.3307Y0.7323
X0.3312Y0.5432
X0.374Y0.5315
X0.3898Y0.6378
X0.4331Y0.5551
X0.437Y0.7205
X0.4472Y0.6888
X0.4606Y0.6614
X0.4606Y0.6142
X0.4646Y0.3917
X0.4724Y0.5512
X0.4911Y0.6496
X0.4913Y0.6246
X0.4921Y0.7205
X0.502Y1.0335
X0.502Y0.9941
X0.5118Y0.8386
X0.5118Y0.7992
X0.5118Y0.7598
X0.5197Y1.1417
X0.5256Y0.6167
X0.5315Y0.9528
X0.5365Y0.6737
X0.563Y1.0472
X0.5768Y0.3209
X0.578Y0.8796
X0.5827Y1.1102
X0.5827Y0.5394
X0.6181Y0.8583
X0.6181Y0.6614
X0.622Y0.8189
X0.6299Y0.2894
X0.6299Y0.2598
X0.6339Y1.1102
X0.6403Y0.7825
X0.6634Y0.2913
X0.6634Y0.2598
X0.6772Y1.1102
X0.6929Y1.0945
X0.6929Y0.9724
X0.6929Y0.9331
X0.6959Y0.2598
X0.7362Y0.6167
X0.7441Y1.1417
X0.748Y0.6654
X0.748Y0.3012
X0.7638Y0.3209
X0.7717Y1.0039
X0.7717Y0.9764
X0.7717Y0.9488
X0.8031Y1.0039
X0.8031Y0.9764
X0.8031Y0.9488
X0.8209Y0.2894
X0.8228Y0.8583
X0.8228Y0.8189
X0.8228Y0.7913
X0.8268Y0.7559
X0.8307Y1.0039
X0.8307Y0.9764
X0.8307Y0.9488
X0.8406Y0.311
X0.8484Y0.3346
X0.8606Y0.8182
X0.8937Y0.6634
X0.8937Y0.2539
X0.9016Y0.8189
X0.9035Y0.3091
X0.9075Y0.2697
X0.9715Y0.3238
X0.9715Y0.2972
X0.9715Y0.2697
X0.9803Y0.3952
X0.9921Y0.4173
X1.0157Y0.5079
X1.0157Y0.4803
X1.0157Y0.4528
X1.0472Y0.5079
X1.0472Y0.4803
X1.0472Y0.4528
X1.0748Y0.5079
X1.0748Y0.4803
X1.0748Y0.4528
X1.0895Y0.3256
X1.0896Y0.3553
X1.0896Y0.2692
X1.0896Y0.299
X1.122Y0.5079
X1.122Y0.4803
X1.1289Y0.3258
X1.129Y0.3555
X1.129Y0.2695
X1.129Y0.2992
X1.1496Y0.5079
X1.1496Y0.4803
X1.1594Y0.6083
X1.1682Y0.326
X1.1683Y0.3558
X1.1683Y0.2697
X1.1683Y0.2994
X1.1969Y0.9075
X1.2075Y0.3052
X1.2075Y0.2776
X1.2075Y0.252
X1.2126Y0.5098
X1.2126Y0.4823
X1.2194Y0.559
X1.2224Y0.9094
X1.2402Y0.8465
X1.2431Y0.5591
X1.2469Y0.3052
X1.2469Y0.2776
X1.2469Y0.252
X1.2523Y0.5866
X1.2618Y0.9409
X1.2797Y0.7218
X1.2799Y0.5905
X1.2854Y0.5039
X1.2854Y0.4724
X1.2854Y0.4429
X1.2854Y0.4134
X1.2854Y0.3799
X1.2863Y0.3052
X1.2863Y0.2776
X1.2863Y0.252
X1.3012Y0.9409
X1.3197Y0.5894
X1.3209Y0.5039
X1.3209Y0.4724
X1.3209Y0.4429
X1.3209Y0.4134
X1.3209Y0.3799
X1.3256Y0.3052
X1.3256Y0.2776
X1.3256Y0.252
X1.3386Y0.8563
X1.3425Y0.9409
X1.3465Y0.5906
X1.3602Y0.874
X1.4173Y0.8701
X1.4189Y0.5333
X1.4189Y0.5038
X1.4189Y0.4723
X1.4189Y0.4427
X1.4189Y0.4132
X1.4189Y0.3797
X1.4543Y0.5333
X1.4543Y0.5038
X1.4543Y0.4723
X1.4543Y0.4427
X1.4543Y0.4132
X1.4543Y0.3797
X1.4764Y0.6024
X1.6339Y1.1142
X1.9461Y0.9748
X1.9547Y1.1122
X1.9618Y1.0024
X2.0445Y0.8803
X2.0563Y1.0024
X2.0591Y1.1161
X2.0799Y0.9591
X2.0799Y0.9315
T2
X0.1732Y0.9134
X0.1732Y0.8858
X0.2047Y0.9134
X0.2047Y0.8858
X0.2835Y1.1457
X0.2835Y1.1181
X0.2835Y0.9094
X0.2835Y0.8819
X0.315Y1.1457
X0.315Y1.1181
X0.315Y0.9094
X0.315Y0.8819
X0.3168Y0.4645
X0.3168Y0.433
X0.3168Y0.4015
X0.3444Y0.4645
X0.3444Y0.433
X0.3444Y0.4015
X0.3465Y1.1457
X0.3465Y1.1181
X0.3465Y0.9094
X0.3465Y0.8819
X0.378Y1.1457
X0.378Y1.1181
X0.378Y0.9094
X0.378Y0.8819
X0.4094Y1.1457
X0.4094Y1.1181
X0.4094Y0.9094
X0.4094Y0.8819
X0.5512Y0.4646
X0.5512Y0.4331
X0.5512Y0.4016
X0.5787Y0.4646
X0.5787Y0.4331
X0.5787Y0.4016
X0.7559Y0.5709
X0.7559Y0.5177
X0.7559Y0.4626
X0.7559Y0.4094
X0.8031Y0.5709
X0.8031Y0.5177
X0.8031Y0.4626
X0.8031Y0.4094
X0.8504Y0.5709
X0.8504Y0.5177
X0.8504Y0.4626
X0.8504Y0.4094
X0.9055Y0.5709
X0.9055Y0.5177
X0.9055Y0.4626
X0.9055Y0.4094
X0.9488Y0.7795
X0.9488Y0.6654
X0.9527Y0.7217
X0.9528Y1.0472
X0.9528Y0.9921
X0.9528Y0.9291
X0.9528Y0.874
X0.9528Y0.8268
X0.9528Y0.622
X0.9528Y0.5827
X0.9961Y0.7795
X0.9961Y0.6654
X0.9999Y0.7217
X1.0Y1.0472
X1.0Y0.9921
X1.0Y0.9291
X1.0Y0.874
X1.0Y0.8268
X1.0Y0.622
X1.0Y0.5827
X1.0433Y0.7795
X1.0433Y0.6654
X1.0472Y0.7217
X1.0472Y1.0472
X1.0472Y0.9921
X1.0472Y0.9291
X1.0472Y0.874
X1.0472Y0.8268
X1.0472Y0.622
X1.0472Y0.5827
X1.0866Y0.622
X1.0866Y0.5827
X1.0944Y0.7217
X1.0944Y0.6876
X1.0945Y1.0472
X1.0945Y0.9921
X1.0945Y0.9291
X1.0945Y0.874
X1.0945Y0.8268
X1.0945Y0.7559
X1.121Y0.777
X1.1214Y0.6643
X1.126Y0.5827
X1.1417Y1.0472
X1.1417Y0.9921
X1.1417Y0.7323
X1.1496Y0.9291
X1.1496Y0.874
X1.1496Y0.8268
X1.1801Y0.7638
X1.1801Y0.7323
X1.1801Y0.7126
X1.1801Y0.6831
X1.2116Y0.7638
X1.2116Y0.7323
X1.2116Y0.7126
X1.2116Y0.6831
X1.2431Y0.7638
X1.2431Y0.7323
X1.2431Y0.7126
X1.2431Y0.6831
X1.2756Y0.7746
X1.2756Y0.6683
X1.4488Y1.0945
X1.4488Y1.0472
X1.4488Y1.0
X1.4961Y1.0945
X1.4961Y1.0472
X1.4961Y1.0
X1.5433Y1.0945
X1.5433Y1.0472
X1.5433Y1.0
T3
X0.0502Y1.061
X0.0502Y0.1949
X0.0692Y1.107
X0.0692Y1.0151
X0.0692Y0.2408
X0.0692Y0.1489
X0.1152Y1.126
X0.1152Y0.9961
X0.1152Y0.2598
X0.1152Y0.1299
X0.1611Y1.107
X0.1611Y1.0151
X0.1611Y0.2408
X0.1611Y0.1489
X0.1801Y1.061
X0.1801Y0.1949
T5
X0.1152Y1.061
X0.1152Y0.1949
T4
G00X0.0642Y0.8079
M15
G01X0.0406Y0.8079
M16
G05
G00X0.0642Y0.4677
M15
G01X0.0406Y0.4677
M16
G05
G00X0.2386Y0.8079
M15
G01X0.1953Y0.8079
M16
G05
G00X0.2386Y0.4677
M15
G01X0.1953Y0.4677
M16
G05
M30
