M48
; DRILL file {KiCad 9.0.7} date 2026-03-06T11:51:23+0100
; FORMAT={-:-/ absolute / inch / decimal}
; #@! TF.CreationDate,2026-03-06T11:51:23+01:00
; #@! TF.GenerationSoftware,Kicad,Pcbnew,9.0.7
; #@! TF.FileFunction,Plated,1,6,PTH
FMAT,2
INCH
; #@! TA.AperFunction,Plated,PTH,ViaDrill
T1C0.0079
; #@! TA.AperFunction,Plated,PTH,ViaDrill
T2C0.0098
; #@! TA.AperFunction,Plated,PTH,ViaDrill
T3C0.0118
; #@! TA.AperFunction,Plated,PTH,ComponentDrill
T4C0.0236
%
G90
G05
T1
X0.0492Y1.0531
X0.0492Y1.0138
X0.0492Y0.9744
X0.0492Y0.2854
X0.0492Y0.2461
X0.0492Y0.2067
X0.0802Y0.5432
X0.0807Y0.7638
X0.0807Y0.7323
X0.0886Y1.0531
X0.0886Y1.0138
X0.0886Y0.9744
X0.0886Y0.2854
X0.0886Y0.2461
X0.0886Y0.2067
X0.1078Y0.5432
X0.1078Y0.5118
X0.1083Y0.7638
X0.1083Y0.7323
X0.1249Y0.6583
X0.128Y1.0531
X0.128Y1.0138
X0.128Y0.9744
X0.128Y0.2854
X0.128Y0.2461
X0.128Y0.2067
X0.1353Y0.5432
X0.1353Y0.5118
X0.1358Y0.7638
X0.1358Y0.7323
X0.1443Y0.6785
X0.1589Y0.5506
X0.1625Y0.725
X0.1629Y0.5118
X0.1634Y0.7638
X0.1865Y0.5506
X0.1949Y0.725
X0.2219Y0.5118
X0.2224Y0.5432
X0.2224Y0.7638
X0.2224Y0.7323
X0.2382Y0.2835
X0.2495Y0.5118
X0.25Y0.5432
X0.25Y0.7638
X0.25Y0.7323
X0.2539Y0.9843
X0.2539Y0.1496
X0.2618Y1.1339
X0.2643Y1.092
X0.2771Y0.5118
X0.2775Y0.5432
X0.2776Y0.7638
X0.2776Y0.7323
X0.2854Y1.1102
X0.2854Y0.315
X0.2854Y0.252
X0.3012Y0.5432
X0.3012Y0.9606
X0.3012Y0.7323
X0.315Y0.4429
X0.3168Y0.6693
X0.3168Y0.6457
X0.3169Y0.6924
X0.3169Y0.622
X0.3248Y0.5432
X0.3248Y0.7323
X0.3248Y0.3892
X0.3248Y0.3543
X0.3278Y0.961
X0.3484Y0.2913
X0.3874Y0.3278
X0.3992Y0.5776
X0.4016Y0.7776
X0.4035Y0.2087
X0.4213Y0.6575
X0.435Y0.287
X0.435Y0.1772
X0.4382Y0.5787
X0.439Y0.7382
X0.4823Y0.7236
X0.4823Y0.5933
X0.5197Y0.5128
X0.5197Y0.4715
X0.5748Y0.6949
X0.5748Y0.6713
X0.5748Y0.6437
X0.5748Y0.6181
X0.5925Y0.3917
X0.6299Y1.0335
X0.6299Y0.9941
X0.6319Y0.9291
X0.6398Y0.8386
X0.6398Y0.7992
X0.6398Y0.7598
X0.6476Y1.1417
X0.6535Y0.6167
X0.6594Y0.9528
X0.6645Y0.6737
X0.6909Y1.0472
X0.7047Y0.3209
X0.706Y0.8796
X0.7106Y1.1102
X0.7106Y0.5394
X0.75Y0.8189
X0.7549Y0.6703
X0.7579Y0.3937
X0.7579Y0.2894
X0.7579Y0.2598
X0.7618Y1.1102
X0.7682Y0.7825
X0.7913Y0.2913
X0.7913Y0.2598
X0.8051Y1.1102
X0.8209Y0.9724
X0.8209Y0.9331
X0.8238Y0.2598
X0.8681Y0.5974
X0.872Y1.1417
X0.876Y0.3012
X0.8796Y0.6706
X0.8917Y0.3209
X0.8996Y1.0039
X0.8996Y0.9764
X0.8996Y0.9488
X0.9311Y1.0039
X0.9311Y0.9764
X0.9311Y0.9488
X0.9488Y0.2894
X0.9508Y0.8583
X0.9508Y0.8189
X0.9508Y0.7913
X0.9547Y0.7559
X0.9587Y1.0039
X0.9587Y0.9764
X0.9587Y0.9488
X0.9685Y0.311
X0.9764Y0.3346
X0.9886Y0.8182
X1.0217Y0.6634
X1.0217Y0.2539
X1.0295Y0.8189
X1.0315Y0.3091
X1.0994Y0.3238
X1.0994Y0.2972
X1.0994Y0.2697
X1.1083Y0.3952
X1.1201Y0.4173
X1.1437Y0.5079
X1.1437Y0.4803
X1.1437Y0.4528
X1.1752Y0.5079
X1.1752Y0.4803
X1.1752Y0.4528
X1.2028Y0.5079
X1.2028Y0.4803
X1.2028Y0.4528
X1.2175Y0.3256
X1.2175Y0.3553
X1.2175Y0.2692
X1.2176Y0.299
X1.25Y0.5079
X1.25Y0.4803
X1.2569Y0.3258
X1.2569Y0.3555
X1.2569Y0.2695
X1.257Y0.2992
X1.2776Y0.5079
X1.2776Y0.4803
X1.2874Y0.6083
X1.2962Y0.326
X1.2962Y0.3558
X1.2963Y0.2697
X1.2963Y0.2994
X1.3248Y0.9075
X1.3355Y0.3052
X1.3355Y0.2776
X1.3355Y0.252
X1.3406Y0.5098
X1.3406Y0.4823
X1.3474Y0.559
X1.3504Y0.9094
X1.3681Y0.8465
X1.3711Y0.5591
X1.3749Y0.3052
X1.3749Y0.2776
X1.3749Y0.252
X1.3898Y0.9409
X1.3942Y0.5688
X1.4076Y0.7218
X1.4078Y0.5905
X1.4134Y0.5039
X1.4134Y0.4724
X1.4134Y0.4429
X1.4134Y0.4134
X1.4134Y0.3799
X1.4142Y0.3052
X1.4142Y0.2776
X1.4142Y0.252
X1.4291Y0.9409
X1.4477Y0.5894
X1.4488Y0.5039
X1.4488Y0.4724
X1.4488Y0.4429
X1.4488Y0.4134
X1.4488Y0.3799
X1.4536Y0.3052
X1.4536Y0.2776
X1.4536Y0.252
X1.4665Y0.8563
X1.4705Y0.9409
X1.4744Y0.5906
X1.4882Y0.874
X1.5453Y0.8701
X1.5468Y0.5333
X1.5468Y0.5038
X1.5468Y0.4723
X1.5468Y0.4427
X1.5468Y0.4132
X1.5468Y0.3797
X1.5823Y0.5333
X1.5823Y0.5038
X1.5823Y0.4723
X1.5823Y0.4427
X1.5823Y0.4132
X1.5823Y0.3797
X1.6043Y0.6024
X1.7618Y1.1142
T2
X0.3282Y0.9089
X0.3282Y0.8813
X0.3597Y0.9089
X0.3597Y0.8813
X0.4114Y1.1457
X0.4114Y1.1181
X0.4114Y0.9094
X0.4114Y0.8819
X0.4429Y1.1457
X0.4429Y1.1181
X0.4429Y0.9094
X0.4429Y0.8819
X0.4448Y0.4645
X0.4448Y0.433
X0.4448Y0.4015
X0.4723Y0.4645
X0.4723Y0.433
X0.4723Y0.4015
X0.4744Y1.1457
X0.4744Y1.1181
X0.4744Y0.9094
X0.4744Y0.8819
X0.5059Y1.1457
X0.5059Y1.1181
X0.5059Y0.9094
X0.5059Y0.8819
X0.5374Y1.1457
X0.5374Y1.1181
X0.5374Y0.9094
X0.5374Y0.8819
X0.6791Y0.4646
X0.6791Y0.4331
X0.6791Y0.4016
X0.7067Y0.4646
X0.7067Y0.4331
X0.7067Y0.4016
X0.8839Y0.5709
X0.8839Y0.5177
X0.8839Y0.4626
X0.8839Y0.4094
X0.9311Y0.5709
X0.9311Y0.5177
X0.9311Y0.4626
X0.9311Y0.4094
X0.9783Y0.5709
X0.9783Y0.5177
X0.9783Y0.4626
X0.9783Y0.4094
X1.0335Y0.5709
X1.0335Y0.5177
X1.0335Y0.4626
X1.0335Y0.4094
X1.0768Y0.7795
X1.0768Y0.6654
X1.0806Y0.7217
X1.0807Y1.0472
X1.0807Y0.9921
X1.0807Y0.9291
X1.0807Y0.874
X1.0807Y0.8268
X1.0807Y0.622
X1.0807Y0.5827
X1.124Y0.7795
X1.124Y0.6654
X1.1279Y0.7217
X1.128Y1.0472
X1.128Y0.9921
X1.128Y0.9291
X1.128Y0.874
X1.128Y0.8268
X1.128Y0.622
X1.128Y0.5827
X1.1654Y0.6634
X1.1713Y0.7795
X1.1751Y0.7217
X1.1752Y1.0472
X1.1752Y0.9921
X1.1752Y0.9291
X1.1752Y0.874
X1.1752Y0.8268
X1.1752Y0.622
X1.1752Y0.5827
X1.2067Y0.6221
X1.2146Y0.5827
X1.2224Y0.7217
X1.2224Y0.6876
X1.2224Y1.0472
X1.2224Y0.9921
X1.2224Y0.9291
X1.2224Y0.874
X1.2224Y0.8268
X1.2224Y0.7559
X1.249Y0.777
X1.2494Y0.6643
X1.2539Y0.5827
X1.2697Y1.0472
X1.2697Y0.9921
X1.2697Y0.7323
X1.2776Y0.9291
X1.2776Y0.874
X1.2776Y0.8268
X1.3081Y0.7638
X1.3081Y0.7323
X1.3081Y0.7126
X1.3081Y0.6831
X1.3396Y0.7638
X1.3396Y0.7323
X1.3396Y0.7126
X1.3396Y0.6831
X1.3711Y0.7638
X1.3711Y0.7323
X1.3711Y0.7126
X1.3711Y0.6831
X1.4035Y0.7746
X1.4035Y0.6683
X1.5768Y1.0945
X1.5768Y1.0472
X1.5768Y1.0
X1.624Y1.0945
X1.624Y1.0472
X1.624Y1.0
X1.6713Y1.0945
X1.6713Y1.0472
X1.6713Y1.0
T3
X0.9658Y1.1281
X0.9658Y1.0592
X1.0236Y1.0039
X1.0236Y0.935
X1.0248Y1.1281
X1.0248Y1.0592
X1.1122Y1.1319
X1.1614Y0.4035
X1.1811Y1.1319
X1.2008Y0.4035
X1.2402Y1.1319
X1.2402Y0.4429
X1.2402Y0.4035
X1.2795Y0.4429
X1.2795Y0.4035
X1.3091Y1.1319
X1.3583Y0.3346
X1.3681Y1.1319
X1.3976Y0.3346
X1.437Y1.1319
X1.437Y0.3346
X1.6043Y0.935
X1.6043Y0.8957
X1.6043Y0.8563
X1.6043Y0.8169
X1.6043Y0.689
X1.6437Y0.935
X1.6437Y0.8957
X1.6437Y0.8563
X1.6437Y0.8169
X1.6437Y0.689
X1.6831Y0.9449
X1.6831Y0.8957
X1.6831Y0.8563
X1.6831Y0.8169
X1.6831Y0.689
X1.6831Y0.5906
X1.7224Y0.9449
X1.7224Y0.8957
X1.7224Y0.8563
X1.7224Y0.8169
X1.7224Y0.689
X1.7224Y0.5906
X1.7224Y0.4921
X1.7421Y0.3051
X1.7421Y0.2362
X1.7618Y1.0433
X1.7618Y1.0039
X1.7618Y0.8957
X1.7618Y0.689
X1.7618Y0.5906
X1.7618Y0.4921
X1.8012Y1.0433
X1.8012Y1.0039
X1.8012Y0.8957
X1.8012Y0.7972
X1.8012Y0.689
X1.8012Y0.5906
X1.8012Y0.4921
X1.8012Y0.3051
X1.8012Y0.2362
X1.811Y0.3937
X1.8406Y1.0433
X1.8406Y1.0039
X1.8406Y0.8957
X1.8406Y0.7972
X1.8406Y0.689
X1.8406Y0.5906
X1.8406Y0.4921
X1.8504Y0.3937
X1.8602Y0.3051
X1.8602Y0.2362
X1.8799Y1.0433
X1.8799Y1.0039
X1.8799Y0.8957
X1.8799Y0.7972
X1.8799Y0.689
X1.8799Y0.5906
X1.8799Y0.4921
X1.8898Y0.3937
X1.9193Y1.0433
X1.9193Y1.0039
X1.9193Y0.8957
X1.9193Y0.7972
X1.9193Y0.689
X1.9193Y0.5906
X1.9193Y0.4921
X1.9193Y0.3051
X1.9193Y0.2362
X1.9291Y0.3937
X1.9587Y1.0433
X1.9587Y1.0039
X1.9587Y0.8957
X1.9587Y0.7972
X1.9587Y0.689
X1.9587Y0.5906
X1.9587Y0.4921
X1.9685Y0.3937
X1.9803Y0.3051
X1.9803Y0.2362
X2.0472Y1.1122
X2.0472Y1.0433
X2.0472Y0.9843
X2.0472Y0.9154
X2.0472Y0.8563
X2.0472Y0.7874
X2.0472Y0.7283
X2.0472Y0.6594
X2.0472Y0.5906
X2.0472Y0.3051
X2.0472Y0.2362
X2.0669Y0.5177
X2.0669Y0.4882
X2.0669Y0.4567
X2.0669Y0.4272
X2.0669Y0.3976
X2.0669Y0.3642
X2.1024Y0.5177
X2.1024Y0.4882
X2.1024Y0.4567
X2.1024Y0.4272
X2.1024Y0.3976
X2.1024Y0.3642
X2.1063Y1.1122
X2.1063Y1.0433
X2.1063Y0.9843
X2.1063Y0.9154
X2.1063Y0.8563
X2.1063Y0.7874
X2.1063Y0.7283
X2.1063Y0.6594
X2.1063Y0.5906
X2.1063Y0.3051
X2.1063Y0.2362
X2.1358Y0.5177
X2.1358Y0.4882
X2.1358Y0.4567
X2.1358Y0.4272
X2.1358Y0.3976
X2.1358Y0.3642
X2.1673Y1.1122
X2.1673Y1.0433
X2.1673Y0.9843
X2.1673Y0.9154
X2.1673Y0.8563
X2.1673Y0.7874
X2.1673Y0.7283
X2.1673Y0.6594
X2.1673Y0.5906
X2.1673Y0.3051
X2.1673Y0.2362
X2.1713Y0.5177
X2.1713Y0.4882
X2.1713Y0.4567
X2.1713Y0.4272
X2.1713Y0.3976
X2.1713Y0.3642
T4
G00X0.061Y0.8079
M15
G01X0.0374Y0.8079
M16
G05
G00X0.061Y0.4677
M15
G01X0.0374Y0.4677
M16
G05
G00X0.2354Y0.8079
M15
G01X0.1921Y0.8079
M16
G05
G00X0.2354Y0.4677
M15
G01X0.1921Y0.4677
M16
G05
M30
