%TF.GenerationSoftware,KiCad,Pcbnew,9.0.7*%
%TF.CreationDate,2026-02-27T18:20:13+01:00*%
%TF.ProjectId,PDNode-PDCard-4242,50444e6f-6465-42d5-9044-436172642d34,rev?*%
%TF.SameCoordinates,Original*%
%TF.FileFunction,Copper,L4,Inr*%
%TF.FilePolarity,Positive*%
%FSLAX46Y46*%
G04 Gerber Fmt 4.6, Leading zero omitted, Abs format (unit mm)*
G04 Created by KiCad (PCBNEW 9.0.7) date 2026-02-27 18:20:13*
%MOMM*%
%LPD*%
G01*
G04 APERTURE LIST*
%TA.AperFunction,ComponentPad*%
%ADD10C,0.700000*%
%TD*%
%TA.AperFunction,ComponentPad*%
%ADD11C,4.400000*%
%TD*%
%TA.AperFunction,HeatsinkPad*%
%ADD12O,2.100000X1.000000*%
%TD*%
%TA.AperFunction,HeatsinkPad*%
%ADD13O,1.600000X1.000000*%
%TD*%
%TA.AperFunction,ViaPad*%
%ADD14C,0.400000*%
%TD*%
%TA.AperFunction,ViaPad*%
%ADD15C,0.500000*%
%TD*%
%TA.AperFunction,Conductor*%
%ADD16C,0.400000*%
%TD*%
%TA.AperFunction,Conductor*%
%ADD17C,0.500000*%
%TD*%
%TA.AperFunction,Conductor*%
%ADD18C,0.300000*%
%TD*%
G04 APERTURE END LIST*
D10*
%TO.N,GND*%
%TO.C,H1*%
X1275000Y4950000D03*
X1758274Y6116726D03*
X1758274Y3783274D03*
X2925000Y6600000D03*
D11*
X2925000Y4950000D03*
D10*
X2925000Y3300000D03*
X4091726Y6116726D03*
X4091726Y3783274D03*
X4575000Y4950000D03*
%TD*%
%TO.N,GND*%
%TO.C,H2*%
X1275000Y26950000D03*
X1758274Y28116726D03*
X1758274Y25783274D03*
X2925000Y28600000D03*
D11*
X2925000Y26950000D03*
D10*
X2925000Y25300000D03*
X4091726Y28116726D03*
X4091726Y25783274D03*
X4575000Y26950000D03*
%TD*%
D12*
%TO.N,SHIELD*%
%TO.C,J1*%
X5510000Y20520000D03*
D13*
X1330000Y20520000D03*
D12*
X5510000Y11880000D03*
D13*
X1330000Y11880000D03*
%TD*%
D14*
%TO.N,GND*%
X11700000Y15600000D03*
X11700000Y16800000D03*
X11800000Y9950000D03*
X37500000Y15300000D03*
X36000000Y22100000D03*
%TO.N,/Project Architecture/USB-PD Source Controller/I2C_SDA*%
X15700000Y21800000D03*
%TO.N,GND*%
X14800000Y13700000D03*
D15*
%TO.N,+24V_FILTERED*%
X25400000Y21000000D03*
D14*
X36939330Y13545640D03*
X36939330Y9645640D03*
X36039330Y10495640D03*
D15*
X27800000Y22200000D03*
X25400000Y23600000D03*
X24200000Y25200000D03*
X36800000Y27800000D03*
D14*
X36039330Y11245640D03*
D15*
X27800000Y25200000D03*
X38000000Y26600000D03*
D14*
X36939330Y11245640D03*
D15*
X24200000Y23600000D03*
X26600000Y21000000D03*
X36800000Y25400000D03*
X29200000Y22200000D03*
X29000000Y26600000D03*
X27800000Y26600000D03*
D14*
X36039330Y9645640D03*
D15*
X29975000Y19400000D03*
D14*
X36939330Y12795640D03*
D15*
X30775000Y19400000D03*
X31575000Y19400000D03*
X25400000Y26600000D03*
X25400000Y25200000D03*
D14*
X36039330Y13545640D03*
X36939330Y11995640D03*
D15*
X38000000Y25400000D03*
X24200000Y21000000D03*
X24200000Y26600000D03*
X29200000Y23600000D03*
X39200000Y27800000D03*
X26600000Y25200000D03*
X38000000Y27800000D03*
D14*
X36039330Y12795640D03*
D15*
X25400000Y22200000D03*
X39200000Y25400000D03*
X29000000Y25200000D03*
X26600000Y22200000D03*
X24200000Y22200000D03*
X26600000Y23600000D03*
X27800000Y23600000D03*
X29200000Y21000000D03*
X39200000Y26600000D03*
X27800000Y21000000D03*
X26600000Y26600000D03*
D14*
X36939330Y10495640D03*
D15*
X36800000Y26600000D03*
D14*
X36039330Y11995640D03*
D15*
X28474507Y19736811D03*
D14*
%TO.N,GND*%
X19600000Y25500000D03*
X18900000Y29000000D03*
D15*
X26500000Y16900000D03*
D14*
X20400000Y24800000D03*
X7800000Y4500000D03*
X27300000Y12900000D03*
D15*
X10400000Y29100000D03*
D14*
X30671455Y6401869D03*
D15*
X7200000Y28400000D03*
D14*
X34000000Y21750000D03*
X16000000Y6600000D03*
X9900000Y16200000D03*
X12500000Y18300000D03*
X27300000Y12200000D03*
D15*
X7200000Y29100000D03*
X8800000Y29100000D03*
D14*
X20900000Y20800000D03*
X13500000Y24200000D03*
X27300000Y11500000D03*
D15*
X27798351Y17464383D03*
D14*
X31671455Y6401869D03*
X33050000Y23900000D03*
D15*
X25300000Y16900000D03*
D14*
X52300000Y28350000D03*
X11000000Y14100000D03*
D15*
X10400000Y28400000D03*
D14*
X25800000Y12200000D03*
X29200000Y12900000D03*
X20400000Y25500000D03*
X21100000Y24800000D03*
X32050000Y23900000D03*
X12000000Y14000000D03*
X13200000Y29000000D03*
X52830000Y23659999D03*
X19600000Y24100000D03*
D15*
X29975000Y18100000D03*
D14*
X29200000Y12200000D03*
X32671455Y6401869D03*
X34100000Y23900000D03*
D15*
X8000000Y28400000D03*
X25398351Y18332062D03*
D14*
X33671455Y7751869D03*
D15*
X32400000Y16975000D03*
D14*
X52230000Y25459999D03*
D15*
X31575000Y18600000D03*
X29000000Y18600000D03*
X25300000Y19800000D03*
D14*
X21000000Y19200000D03*
X20400000Y24100000D03*
D15*
X30775000Y18600000D03*
D14*
X28500000Y12900000D03*
X17675000Y6600000D03*
X14300000Y26600000D03*
X31671455Y7051869D03*
D15*
X31575000Y18100000D03*
D14*
X21100000Y24100000D03*
D15*
X9600000Y29100000D03*
D14*
X26600000Y12200000D03*
D15*
X27798351Y18332062D03*
D14*
X33671455Y6401869D03*
X19600000Y24800000D03*
X15800000Y20800000D03*
D15*
X26598351Y18332062D03*
D14*
X800000Y8200000D03*
X32671455Y7751869D03*
D15*
X9600000Y28400000D03*
X8000000Y29100000D03*
D14*
X26600000Y11500000D03*
X25800000Y11500000D03*
X28500000Y12200000D03*
X52830000Y24359999D03*
X16850000Y7400000D03*
D15*
X24198351Y18332062D03*
D14*
X30671455Y7051869D03*
X21100000Y25500000D03*
D15*
X26500000Y19800000D03*
D14*
X30671455Y7751869D03*
X13000000Y20300000D03*
X16850000Y6600000D03*
X7000000Y5300000D03*
X31671455Y7751869D03*
D15*
X24100000Y19800000D03*
X24100000Y16900000D03*
X30775000Y18100000D03*
X29975000Y18600000D03*
X32400000Y19675000D03*
D14*
X16000000Y7350000D03*
X13627977Y17111882D03*
D15*
X8800000Y28400000D03*
D14*
X11100000Y18300000D03*
X32671455Y7051869D03*
D15*
X27800000Y19200000D03*
D14*
X26600000Y12900000D03*
X25800000Y12900000D03*
X33671455Y7051869D03*
D15*
%TO.N,/Project Architecture/USB-PD Source Controller/PD_OUT*%
X23000000Y14500000D03*
X21600000Y14500000D03*
X28484363Y16874240D03*
X14000000Y10200000D03*
X20400000Y10400000D03*
X26600000Y14800000D03*
X31575000Y17350000D03*
X14000000Y11800000D03*
X23000000Y11750000D03*
X23000000Y10400000D03*
X21600000Y10400000D03*
X27600000Y15800000D03*
X25400000Y14800000D03*
X26600000Y15800000D03*
X24200000Y15800000D03*
X28600000Y14800000D03*
X30775000Y17350000D03*
X19200000Y10400000D03*
X20400000Y11750000D03*
X27600000Y14800000D03*
X14700000Y11000000D03*
X29975000Y17350000D03*
X19200000Y13150000D03*
X20400000Y13150000D03*
X14000000Y11000000D03*
X25400000Y15800000D03*
X21600000Y13150000D03*
X21600000Y11750000D03*
X19200000Y11750000D03*
X14700000Y10200000D03*
X23000000Y13150000D03*
X20400000Y14500000D03*
X24200000Y14800000D03*
X19200000Y14500000D03*
X14700000Y11800000D03*
D14*
%TO.N,/Project Architecture/USB-PD Source Controller/VDRV*%
X41500000Y28300000D03*
X34550000Y22200000D03*
%TO.N,+5V*%
X16100000Y28200000D03*
X17600000Y27800000D03*
X14800000Y28200000D03*
X23050000Y6850000D03*
X32508538Y14997753D03*
X17200000Y28200000D03*
X22700000Y6450000D03*
X14650000Y8150000D03*
%TO.N,+3.3V*%
X17600000Y23700000D03*
X49830000Y25459999D03*
X20900000Y20100000D03*
X20900000Y21800000D03*
X13000000Y19300000D03*
X13000000Y21300000D03*
X17600000Y24700000D03*
%TO.N,/Project Architecture/USB-PD Source Controller/PD_CC2*%
X13350000Y15664999D03*
X29450000Y15450000D03*
X18700000Y15664999D03*
%TO.N,/Project Architecture/USB-PD Source Controller/USB_D+*%
X12478531Y15865507D03*
X2944460Y15875000D03*
X30973574Y14199000D03*
%TO.N,/Project Architecture/USB-PD Source Controller/USB_D-*%
X2935106Y16523537D03*
X12475000Y16500000D03*
X31575000Y14200000D03*
%TO.N,/Project Architecture/USB-PD Source Controller/PD_CC1*%
X31808751Y14900000D03*
X22700000Y16850000D03*
X15700000Y16800000D03*
X19000000Y16900000D03*
%TO.N,/Project Architecture/USB-PD Source Controller/I2C_SDA*%
X25200000Y10600000D03*
X33521446Y14971446D03*
X19000000Y7650000D03*
X14681389Y22342319D03*
%TO.N,/Project Architecture/USB-PD Source Controller/PD_ENABLE*%
X21350000Y7900000D03*
X51930000Y22359999D03*
X32503707Y18333632D03*
X21859898Y20782909D03*
%TO.N,/Project Architecture/USB-PD Source Controller/PD_ATTACH*%
X31500000Y21500000D03*
X22900000Y20800000D03*
X21550000Y8500000D03*
D15*
%TO.N,GND_USB*%
X10400000Y22400000D03*
X8800000Y22400000D03*
D14*
X4300000Y13000000D03*
X2200000Y19400000D03*
D15*
X5200000Y23200000D03*
X8000000Y23100000D03*
D14*
X3600000Y19400000D03*
X7200000Y13000000D03*
D15*
X7200000Y23100000D03*
X4400000Y23200000D03*
X10400000Y23100000D03*
D14*
X5800000Y19400000D03*
X6500000Y13000000D03*
X5800000Y13000000D03*
D15*
X8000000Y22400000D03*
D14*
X2900000Y19400000D03*
D15*
X5200000Y22500000D03*
X7200000Y22400000D03*
D14*
X2900000Y13000000D03*
X6000000Y10000000D03*
X6000000Y8950000D03*
D15*
X9600000Y22400000D03*
D14*
X6500000Y19400000D03*
X7200000Y19400000D03*
X3600000Y13000000D03*
D15*
X4400000Y22500000D03*
D14*
X4300000Y19400000D03*
D15*
X8800000Y23100000D03*
X9600000Y23100000D03*
D14*
%TO.N,/Project Architecture/USB-PD Source Controller/VBUS*%
X4900000Y13986000D03*
X5811719Y13797973D03*
X2900000Y13797973D03*
D15*
X8746957Y10198351D03*
D14*
X8400000Y18600000D03*
X6500000Y18600000D03*
X2900000Y18600000D03*
X5800000Y18600000D03*
X8411719Y13797973D03*
D15*
X8746957Y11798351D03*
D14*
X7811719Y13797973D03*
X7200000Y18600000D03*
X3600000Y13797973D03*
X2200000Y13797973D03*
X4199746Y13986000D03*
X4276308Y18414000D03*
D15*
X8046957Y10998351D03*
X8046957Y10198351D03*
D14*
X3600000Y18600000D03*
D15*
X8746957Y10998351D03*
X8046957Y11798351D03*
D14*
X6511719Y13797973D03*
X5100000Y18414000D03*
X7211719Y13797973D03*
X2200000Y18600000D03*
X7800000Y18600000D03*
%TO.N,/Project Architecture/USB-PD Source Controller/CC1*%
X11359586Y17494265D03*
%TO.N,/Project Architecture/USB-PD Source Controller/CC2*%
X9500000Y13500000D03*
%TO.N,/Project Architecture/Board Connector and Supplies/VBUS_VMON_PORT0*%
X22950000Y7850000D03*
X7800000Y7290000D03*
%TO.N,Net-(D2-Pad2)*%
X49650000Y28250000D03*
%TO.N,+24V*%
X28677175Y7599997D03*
X33550000Y10500000D03*
X28675703Y9030818D03*
X32650000Y10500000D03*
X29674231Y9036639D03*
X30800000Y12950000D03*
X33550000Y9650000D03*
X27674297Y8269182D03*
X28675000Y8275000D03*
X27675769Y6838361D03*
X33550000Y12800000D03*
X32650000Y11250000D03*
X27676472Y7594179D03*
X32650000Y12800000D03*
X32650000Y9650000D03*
X24675000Y7550000D03*
X29675703Y7605818D03*
X27675000Y9025000D03*
X30800000Y12250000D03*
X28676472Y6844179D03*
X24675000Y8225000D03*
X29673528Y8280821D03*
X24675000Y6850000D03*
X29675000Y6850000D03*
X33550000Y12000000D03*
X32650000Y12000000D03*
X33550000Y11250000D03*
%TO.N,/Project Architecture/Board Connector and Supplies/PORT_EN*%
X3450000Y8900000D03*
X49430000Y24759999D03*
X20850000Y7350000D03*
%TO.N,/Project Architecture/USB-PD Source Controller/ISEN+*%
X12750000Y25250000D03*
X30400000Y23050000D03*
%TO.N,/Project Architecture/USB-PD Source Controller/ISEN-*%
X12750000Y26250000D03*
X31050000Y23100000D03*
%TO.N,/Project Architecture/USB-PD Source Controller/I2C_SCL*%
X24900000Y10037639D03*
X34200000Y15000000D03*
X19400000Y8150000D03*
X16262500Y19875000D03*
%TD*%
D16*
%TO.N,+5V*%
X23050000Y6850000D02*
X23600000Y7400000D01*
D17*
X14800000Y28200000D02*
X17200000Y28200000D01*
X23600000Y9250000D02*
X25150000Y9250000D01*
X14500000Y21250000D02*
X13850000Y21900000D01*
X12450000Y10350000D02*
X12450000Y12750000D01*
D16*
X22700000Y6500000D02*
X23050000Y6850000D01*
D17*
X13850000Y23450000D02*
X16100000Y25700000D01*
D16*
X23600000Y7400000D02*
X23600000Y9250000D01*
D17*
X17200000Y28200000D02*
X17600000Y27800000D01*
X25150000Y9250000D02*
X25900000Y10000000D01*
X14650000Y8150000D02*
X12450000Y10350000D01*
X28150000Y10000000D02*
X29900000Y11750000D01*
X17200000Y8150000D02*
X18300000Y9250000D01*
X14500000Y14800000D02*
X14500000Y21250000D01*
X29749000Y14549000D02*
X31150000Y15950000D01*
X25900000Y10000000D02*
X28150000Y10000000D01*
X32508538Y15191462D02*
X32508538Y14997753D01*
X18300000Y9250000D02*
X23600000Y9250000D01*
X31150000Y15950000D02*
X31750000Y15950000D01*
X12450000Y12750000D02*
X14500000Y14800000D01*
X16100000Y25700000D02*
X16100000Y28200000D01*
X14650000Y8150000D02*
X17200000Y8150000D01*
X31750000Y15950000D02*
X32508538Y15191462D01*
X29900000Y11750000D02*
X29900000Y13250000D01*
X29900000Y13250000D02*
X29749000Y13401000D01*
X13850000Y21900000D02*
X13850000Y23450000D01*
X29749000Y13401000D02*
X29749000Y14549000D01*
D16*
X22700000Y6450000D02*
X22700000Y6500000D01*
D18*
%TO.N,+3.3V*%
X48800000Y27750000D02*
X47250000Y29300000D01*
X47250000Y29300000D02*
X21200000Y29300000D01*
X21200000Y29300000D02*
X17600000Y25700000D01*
X48800000Y26489999D02*
X48800000Y27750000D01*
X49830000Y25459999D02*
X48800000Y26489999D01*
X17600000Y25700000D02*
X17600000Y24700000D01*
%TD*%
%TA.AperFunction,Conductor*%
%TO.N,/Project Architecture/USB-PD Source Controller/VBUS*%
G36*
X428814Y20075776D02*
G01*
X442147Y20077692D01*
X462290Y20068493D01*
X483927Y20063786D01*
X501652Y20050518D01*
X505703Y20048667D01*
X512181Y20042635D01*
X581414Y19973402D01*
X696676Y19896387D01*
X810291Y19849327D01*
X824738Y19843343D01*
X949858Y19818455D01*
X960687Y19816301D01*
X960690Y19816300D01*
X960692Y19816300D01*
X1699309Y19816300D01*
X1713107Y19819045D01*
X1741446Y19824682D01*
X1811037Y19818455D01*
X1866215Y19775593D01*
X1889460Y19709704D01*
X1873393Y19641707D01*
X1873025Y19641065D01*
X1823812Y19555826D01*
X1823812Y19555825D01*
X1823811Y19555823D01*
X1796300Y19453148D01*
X1796300Y19346852D01*
X1823811Y19244177D01*
X1876959Y19152122D01*
X1876961Y19152120D01*
X1957869Y19071212D01*
X1956810Y19070154D01*
X1992686Y19021029D01*
X1995581Y19004419D01*
X2000000Y19000000D01*
X2133043Y19000000D01*
X2146852Y18996300D01*
X2253148Y18996300D01*
X2266957Y19000000D01*
X2816720Y19000000D01*
X2838763Y18997099D01*
X2838798Y18997361D01*
X2846849Y18996301D01*
X2846852Y18996300D01*
X2846855Y18996300D01*
X2953145Y18996300D01*
X2953148Y18996300D01*
X2953150Y18996301D01*
X2961202Y18997361D01*
X2961236Y18997099D01*
X2983280Y19000000D01*
X3533043Y19000000D01*
X3546852Y18996300D01*
X3653148Y18996300D01*
X3666957Y19000000D01*
X4216720Y19000000D01*
X4238763Y18997099D01*
X4238798Y18997361D01*
X4246849Y18996301D01*
X4246852Y18996300D01*
X4246855Y18996300D01*
X4353145Y18996300D01*
X4353148Y18996300D01*
X4353150Y18996301D01*
X4361202Y18997361D01*
X4361236Y18997099D01*
X4383280Y19000000D01*
X4446694Y19000000D01*
X4513733Y18980315D01*
X4559488Y18927511D01*
X4566468Y18908095D01*
X4566905Y18906464D01*
X4629505Y18798036D01*
X4718036Y18709505D01*
X4826464Y18646905D01*
X4947399Y18614500D01*
X4947401Y18614500D01*
X5072599Y18614500D01*
X5072601Y18614500D01*
X5193536Y18646905D01*
X5301964Y18709505D01*
X5390495Y18798036D01*
X5453095Y18906464D01*
X5453531Y18908093D01*
X5454273Y18909311D01*
X5456204Y18913971D01*
X5456930Y18913670D01*
X5468023Y18931870D01*
X5479593Y18957203D01*
X5485957Y18961294D01*
X5489895Y18967753D01*
X5514944Y18979922D01*
X5538371Y18994977D01*
X5549115Y18996522D01*
X5552741Y18998283D01*
X5573306Y19000000D01*
X5716720Y19000000D01*
X5738763Y18997099D01*
X5738798Y18997361D01*
X5746849Y18996301D01*
X5746852Y18996300D01*
X5746855Y18996300D01*
X5853145Y18996300D01*
X5853148Y18996300D01*
X5853150Y18996301D01*
X5861202Y18997361D01*
X5861236Y18997099D01*
X5883280Y19000000D01*
X6433043Y19000000D01*
X6446852Y18996300D01*
X6553148Y18996300D01*
X6566957Y19000000D01*
X7116720Y19000000D01*
X7138763Y18997099D01*
X7138798Y18997361D01*
X7146849Y18996301D01*
X7146852Y18996300D01*
X7146855Y18996300D01*
X7253145Y18996300D01*
X7253148Y18996300D01*
X7253150Y18996301D01*
X7261202Y18997361D01*
X7261236Y18997099D01*
X7283280Y19000000D01*
X10667300Y19000000D01*
X10734339Y18980315D01*
X10780094Y18927511D01*
X10789473Y18897207D01*
X10791300Y18886682D01*
X10791300Y18827700D01*
X10796070Y18783336D01*
X10807276Y18731825D01*
X10809802Y18721488D01*
X10824888Y18693177D01*
X10828286Y18673602D01*
X10826484Y18657831D01*
X10829700Y18642286D01*
X10822601Y18623831D01*
X10820357Y18604183D01*
X10810314Y18591890D01*
X10804616Y18577074D01*
X10793796Y18564716D01*
X10776962Y18547882D01*
X10776957Y18547875D01*
X10723812Y18455826D01*
X10723812Y18455825D01*
X10723811Y18455823D01*
X10696300Y18353148D01*
X10696300Y18246852D01*
X10723811Y18144177D01*
X10776959Y18052122D01*
X10852122Y17976959D01*
X10937999Y17927378D01*
X10946281Y17918692D01*
X10957203Y17913704D01*
X10969948Y17893872D01*
X10986215Y17876812D01*
X10989431Y17863556D01*
X10994977Y17854926D01*
X11000000Y17819991D01*
X11000000Y17712071D01*
X10985514Y17658001D01*
X10986505Y17657590D01*
X10983395Y17650083D01*
X10955886Y17547415D01*
X10955886Y17441118D01*
X10964559Y17408747D01*
X10962894Y17338898D01*
X10925987Y17282945D01*
X10883021Y17245715D01*
X10882998Y17245694D01*
X10864784Y17227847D01*
X10864778Y17227840D01*
X10819441Y17146787D01*
X10819438Y17146780D01*
X10799754Y17079746D01*
X10799752Y17079738D01*
X10791300Y17020947D01*
X10791300Y14613079D01*
X10792022Y14595734D01*
X10793740Y14575168D01*
X10793741Y14575160D01*
X10798917Y14556294D01*
X10797669Y14486435D01*
X10758852Y14428341D01*
X10754825Y14425116D01*
X10752125Y14423045D01*
X10676958Y14347877D01*
X10676957Y14347875D01*
X10623812Y14255826D01*
X10623812Y14255825D01*
X10623811Y14255823D01*
X10596300Y14153148D01*
X10596300Y14046852D01*
X10623811Y13944177D01*
X10676959Y13852122D01*
X10752122Y13776959D01*
X10752124Y13776958D01*
X10755014Y13774740D01*
X10756834Y13772247D01*
X10757869Y13771212D01*
X10757707Y13771051D01*
X10796213Y13718310D01*
X10800690Y13650019D01*
X10799754Y13645719D01*
X10791300Y13586913D01*
X10791300Y13123993D01*
X10796069Y13079638D01*
X10807276Y13028125D01*
X10809802Y13017788D01*
X10853481Y12935819D01*
X10899236Y12883015D01*
X10899243Y12883008D01*
X10899251Y12882999D01*
X10913593Y12868362D01*
X10917101Y12864782D01*
X10936534Y12853912D01*
X10985432Y12804007D01*
X11000000Y12745692D01*
X11000000Y9124000D01*
X10980315Y9056961D01*
X10927511Y9011206D01*
X10876000Y9000000D01*
X6499692Y9000000D01*
X6432653Y9019685D01*
X6386898Y9072489D01*
X6379919Y9091900D01*
X6376189Y9105823D01*
X6323041Y9197878D01*
X6247878Y9273041D01*
X6155823Y9326189D01*
X6053148Y9353700D01*
X5946852Y9353700D01*
X5844177Y9326189D01*
X5844175Y9326188D01*
X5844174Y9326188D01*
X5752125Y9273043D01*
X5752119Y9273039D01*
X5676961Y9197881D01*
X5676957Y9197875D01*
X5623812Y9105826D01*
X5623811Y9105824D01*
X5623811Y9105823D01*
X5620081Y9091905D01*
X5583719Y9032247D01*
X5520872Y9001717D01*
X5500308Y9000000D01*
X3930010Y9000000D01*
X3862971Y9019685D01*
X3822623Y9062000D01*
X3786827Y9124000D01*
X3773041Y9147878D01*
X3697878Y9223041D01*
X3611279Y9273039D01*
X3605825Y9276188D01*
X3605824Y9276189D01*
X3605823Y9276189D01*
X3503148Y9303700D01*
X3396852Y9303700D01*
X3294177Y9276189D01*
X3294175Y9276188D01*
X3294174Y9276188D01*
X3202125Y9223043D01*
X3202119Y9223039D01*
X3126961Y9147881D01*
X3126957Y9147875D01*
X3077377Y9062000D01*
X3026810Y9013784D01*
X2969990Y9000000D01*
X424500Y9000000D01*
X357461Y9019685D01*
X311706Y9072489D01*
X300500Y9124000D01*
X300500Y10053148D01*
X5596300Y10053148D01*
X5596300Y9946852D01*
X5623811Y9844177D01*
X5676959Y9752122D01*
X5752122Y9676959D01*
X5844177Y9623811D01*
X5946852Y9596300D01*
X6053148Y9596300D01*
X6155823Y9623811D01*
X6247878Y9676959D01*
X6323041Y9752122D01*
X6376189Y9844177D01*
X6403700Y9946852D01*
X6403700Y10053148D01*
X6376189Y10155823D01*
X6323041Y10247878D01*
X6247878Y10323041D01*
X6155823Y10376189D01*
X6053148Y10403700D01*
X5946852Y10403700D01*
X5844177Y10376189D01*
X5844175Y10376188D01*
X5844174Y10376188D01*
X5752125Y10323043D01*
X5752119Y10323039D01*
X5676961Y10247881D01*
X5676957Y10247875D01*
X5623812Y10155826D01*
X5623812Y10155825D01*
X5623811Y10155823D01*
X5596300Y10053148D01*
X300500Y10053148D01*
X300500Y11314954D01*
X320185Y11381993D01*
X372989Y11427748D01*
X442147Y11437692D01*
X505703Y11408667D01*
X512181Y11402635D01*
X581414Y11333402D01*
X696676Y11256387D01*
X824733Y11203345D01*
X824738Y11203343D01*
X960687Y11176301D01*
X960690Y11176300D01*
X960692Y11176300D01*
X1699310Y11176300D01*
X1699311Y11176301D01*
X1835262Y11203343D01*
X1899294Y11229866D01*
X1963323Y11256387D01*
X1963324Y11256388D01*
X1963327Y11256389D01*
X2078583Y11333400D01*
X2176600Y11431417D01*
X2253611Y11546673D01*
X2306657Y11674738D01*
X2333700Y11810692D01*
X2333700Y11949308D01*
X2333700Y11949311D01*
X2333699Y11949313D01*
X2306658Y12085255D01*
X2306657Y12085262D01*
X2306655Y12085267D01*
X2253613Y12213324D01*
X2176598Y12328586D01*
X2078585Y12426599D01*
X1963323Y12503614D01*
X1835266Y12556656D01*
X1835254Y12556659D01*
X1699311Y12583700D01*
X1699308Y12583700D01*
X960692Y12583700D01*
X960689Y12583700D01*
X824745Y12556659D01*
X824733Y12556656D01*
X696676Y12503614D01*
X581414Y12426599D01*
X581413Y12426598D01*
X512181Y12357365D01*
X450858Y12323880D01*
X381166Y12328864D01*
X325233Y12370736D01*
X300816Y12436200D01*
X300500Y12445046D01*
X300500Y13053148D01*
X2496300Y13053148D01*
X2496300Y12946852D01*
X2523811Y12844177D01*
X2576959Y12752122D01*
X2652122Y12676959D01*
X2744177Y12623811D01*
X2846852Y12596300D01*
X2846854Y12596300D01*
X2953146Y12596300D01*
X2953148Y12596300D01*
X3055823Y12623811D01*
X3147878Y12676959D01*
X3162319Y12691400D01*
X3223642Y12724885D01*
X3293334Y12719901D01*
X3337681Y12691400D01*
X3352122Y12676959D01*
X3444177Y12623811D01*
X3546852Y12596300D01*
X3546854Y12596300D01*
X3653146Y12596300D01*
X3653148Y12596300D01*
X3755823Y12623811D01*
X3847878Y12676959D01*
X3862319Y12691400D01*
X3923642Y12724885D01*
X3993334Y12719901D01*
X4037681Y12691400D01*
X4052122Y12676959D01*
X4144177Y12623811D01*
X4246852Y12596300D01*
X4246854Y12596300D01*
X4353145Y12596300D01*
X4353148Y12596300D01*
X4354151Y12596569D01*
X4355030Y12596549D01*
X4361204Y12597361D01*
X4361330Y12596399D01*
X4423999Y12594910D01*
X4481864Y12555751D01*
X4509371Y12491524D01*
X4497788Y12422621D01*
X4473931Y12389115D01*
X4413400Y12328584D01*
X4336386Y12213324D01*
X4283344Y12085267D01*
X4283341Y12085255D01*
X4256300Y11949313D01*
X4256300Y11810688D01*
X4283341Y11674746D01*
X4283344Y11674734D01*
X4336386Y11546677D01*
X4413401Y11431415D01*
X4511414Y11333402D01*
X4626676Y11256387D01*
X4754733Y11203345D01*
X4754738Y11203343D01*
X4890687Y11176301D01*
X4890690Y11176300D01*
X4890692Y11176300D01*
X6129310Y11176300D01*
X6129311Y11176301D01*
X6265262Y11203343D01*
X6329294Y11229866D01*
X6393323Y11256387D01*
X6393324Y11256388D01*
X6393327Y11256389D01*
X6508583Y11333400D01*
X6606600Y11431417D01*
X6683611Y11546673D01*
X6736657Y11674738D01*
X6763700Y11810692D01*
X6763700Y11949308D01*
X6763700Y11949311D01*
X6763699Y11949313D01*
X6736658Y12085255D01*
X6736657Y12085262D01*
X6736655Y12085267D01*
X6683613Y12213324D01*
X6606598Y12328586D01*
X6536031Y12399153D01*
X6502546Y12460476D01*
X6507530Y12530168D01*
X6549402Y12586101D01*
X6591616Y12606608D01*
X6655823Y12623811D01*
X6747878Y12676959D01*
X6762319Y12691400D01*
X6823642Y12724885D01*
X6893334Y12719901D01*
X6937681Y12691400D01*
X6952122Y12676959D01*
X7044177Y12623811D01*
X7146852Y12596300D01*
X7146854Y12596300D01*
X7253146Y12596300D01*
X7253148Y12596300D01*
X7355823Y12623811D01*
X7447878Y12676959D01*
X7523041Y12752122D01*
X7576189Y12844177D01*
X7603700Y12946852D01*
X7603700Y13053148D01*
X7576189Y13155823D01*
X7523041Y13247878D01*
X7447878Y13323041D01*
X7370984Y13367436D01*
X7355825Y13376188D01*
X7355824Y13376189D01*
X7355823Y13376189D01*
X7253148Y13403700D01*
X7146852Y13403700D01*
X7044177Y13376189D01*
X7044175Y13376188D01*
X7044174Y13376188D01*
X6952125Y13323043D01*
X6952119Y13323039D01*
X6937681Y13308600D01*
X6876358Y13275115D01*
X6806666Y13280099D01*
X6762319Y13308600D01*
X6747880Y13323039D01*
X6747878Y13323041D01*
X6670984Y13367436D01*
X6655825Y13376188D01*
X6655824Y13376189D01*
X6655823Y13376189D01*
X6553148Y13403700D01*
X6446852Y13403700D01*
X6344177Y13376189D01*
X6344175Y13376188D01*
X6344174Y13376188D01*
X6252125Y13323043D01*
X6252119Y13323039D01*
X6237681Y13308600D01*
X6176358Y13275115D01*
X6106666Y13280099D01*
X6062319Y13308600D01*
X6047880Y13323039D01*
X6047878Y13323041D01*
X5970984Y13367436D01*
X5955825Y13376188D01*
X5955824Y13376189D01*
X5955823Y13376189D01*
X5853148Y13403700D01*
X5746852Y13403700D01*
X5644177Y13376189D01*
X5644175Y13376189D01*
X5644175Y13376188D01*
X5636664Y13373077D01*
X5635965Y13374764D01*
X5625848Y13372310D01*
X5607560Y13362840D01*
X5592583Y13364244D01*
X5577964Y13360698D01*
X5558501Y13367436D01*
X5537995Y13369357D01*
X5526153Y13378635D01*
X5511939Y13383556D01*
X5499208Y13399748D01*
X5482996Y13412450D01*
X5473635Y13432272D01*
X5468753Y13438481D01*
X5466768Y13443791D01*
X5465275Y13448079D01*
X5453095Y13493536D01*
X5418679Y13553148D01*
X9096300Y13553148D01*
X9096300Y13446852D01*
X9123811Y13344177D01*
X9176959Y13252122D01*
X9252122Y13176959D01*
X9344177Y13123811D01*
X9446852Y13096300D01*
X9446854Y13096300D01*
X9553146Y13096300D01*
X9553148Y13096300D01*
X9655823Y13123811D01*
X9747878Y13176959D01*
X9823041Y13252122D01*
X9876189Y13344177D01*
X9903700Y13446852D01*
X9903700Y13553148D01*
X9876189Y13655823D01*
X9823041Y13747878D01*
X9747878Y13823041D01*
X9655823Y13876189D01*
X9553148Y13903700D01*
X9446852Y13903700D01*
X9344177Y13876189D01*
X9344175Y13876188D01*
X9344174Y13876188D01*
X9252125Y13823043D01*
X9252119Y13823039D01*
X9176961Y13747881D01*
X9176957Y13747875D01*
X9123812Y13655826D01*
X9123812Y13655825D01*
X9123811Y13655823D01*
X9096300Y13553148D01*
X5418679Y13553148D01*
X5390495Y13601964D01*
X5301964Y13690495D01*
X5193536Y13753095D01*
X5193537Y13753095D01*
X5126524Y13771051D01*
X5072601Y13785500D01*
X4947399Y13785500D01*
X4893476Y13771051D01*
X4826463Y13753095D01*
X4718037Y13690496D01*
X4718034Y13690494D01*
X4629506Y13601966D01*
X4629504Y13601963D01*
X4566905Y13493537D01*
X4566905Y13493536D01*
X4562219Y13476049D01*
X4525851Y13416390D01*
X4463003Y13385863D01*
X4410354Y13388372D01*
X4353148Y13403700D01*
X4246852Y13403700D01*
X4144177Y13376189D01*
X4144175Y13376188D01*
X4144174Y13376188D01*
X4052125Y13323043D01*
X4052119Y13323039D01*
X4037681Y13308600D01*
X3976358Y13275115D01*
X3906666Y13280099D01*
X3862319Y13308600D01*
X3847880Y13323039D01*
X3847878Y13323041D01*
X3770984Y13367436D01*
X3755825Y13376188D01*
X3755824Y13376189D01*
X3755823Y13376189D01*
X3653148Y13403700D01*
X3546852Y13403700D01*
X3444177Y13376189D01*
X3444175Y13376188D01*
X3444174Y13376188D01*
X3352125Y13323043D01*
X3352119Y13323039D01*
X3337681Y13308600D01*
X3276358Y13275115D01*
X3206666Y13280099D01*
X3162319Y13308600D01*
X3147880Y13323039D01*
X3147878Y13323041D01*
X3070984Y13367436D01*
X3055825Y13376188D01*
X3055824Y13376189D01*
X3055823Y13376189D01*
X2953148Y13403700D01*
X2846852Y13403700D01*
X2744177Y13376189D01*
X2744175Y13376188D01*
X2744174Y13376188D01*
X2652125Y13323043D01*
X2652119Y13323039D01*
X2576961Y13247881D01*
X2576957Y13247875D01*
X2523812Y13155826D01*
X2523812Y13155825D01*
X2523811Y13155823D01*
X2496300Y13053148D01*
X300500Y13053148D01*
X300500Y16576685D01*
X2531406Y16576685D01*
X2531406Y16470389D01*
X2558917Y16367714D01*
X2558918Y16367713D01*
X2558918Y16367712D01*
X2565781Y16355825D01*
X2612065Y16275659D01*
X2612069Y16275655D01*
X2617012Y16269213D01*
X2614320Y16267148D01*
X2640281Y16219605D01*
X2635297Y16149913D01*
X2624533Y16130464D01*
X2625482Y16129916D01*
X2568272Y16030826D01*
X2568272Y16030825D01*
X2568271Y16030823D01*
X2540760Y15928148D01*
X2540760Y15821852D01*
X2568271Y15719177D01*
X2568272Y15719176D01*
X2568272Y15719175D01*
X2584728Y15690673D01*
X2621419Y15627122D01*
X2696582Y15551959D01*
X2788637Y15498811D01*
X2891312Y15471300D01*
X2891314Y15471300D01*
X2997606Y15471300D01*
X2997608Y15471300D01*
X3100283Y15498811D01*
X3192338Y15551959D01*
X3267501Y15627122D01*
X3320649Y15719177D01*
X3348160Y15821852D01*
X3348160Y15928148D01*
X3320649Y16030823D01*
X3267501Y16122878D01*
X3267495Y16122884D01*
X3262554Y16129324D01*
X3265245Y16131389D01*
X3259326Y16142228D01*
X3243134Y16165131D01*
X3242808Y16172478D01*
X3239284Y16178933D01*
X3241284Y16206913D01*
X3240045Y16234932D01*
X3243855Y16242862D01*
X3244268Y16248625D01*
X3246409Y16253148D01*
X9496300Y16253148D01*
X9496300Y16146852D01*
X9523811Y16044177D01*
X9576959Y15952122D01*
X9652122Y15876959D01*
X9744177Y15823811D01*
X9846852Y15796300D01*
X9846854Y15796300D01*
X9953146Y15796300D01*
X9953148Y15796300D01*
X10055823Y15823811D01*
X10147878Y15876959D01*
X10223041Y15952122D01*
X10276189Y16044177D01*
X10303700Y16146852D01*
X10303700Y16253148D01*
X10276189Y16355823D01*
X10223041Y16447878D01*
X10147878Y16523041D01*
X10086508Y16558473D01*
X10055825Y16576188D01*
X10055824Y16576189D01*
X10055823Y16576189D01*
X9953148Y16603700D01*
X9846852Y16603700D01*
X9744177Y16576189D01*
X9744175Y16576188D01*
X9744174Y16576188D01*
X9652125Y16523043D01*
X9652119Y16523039D01*
X9576961Y16447881D01*
X9576957Y16447875D01*
X9523812Y16355826D01*
X9523812Y16355825D01*
X9523811Y16355823D01*
X9496300Y16253148D01*
X3246409Y16253148D01*
X3253273Y16267653D01*
X3257631Y16275144D01*
X3258147Y16275659D01*
X3311295Y16367714D01*
X3338806Y16470389D01*
X3338806Y16576685D01*
X3311295Y16679360D01*
X3258147Y16771415D01*
X3182984Y16846578D01*
X3090929Y16899726D01*
X2988254Y16927237D01*
X2881958Y16927237D01*
X2779283Y16899726D01*
X2779281Y16899725D01*
X2779280Y16899725D01*
X2687231Y16846580D01*
X2687225Y16846576D01*
X2612067Y16771418D01*
X2612063Y16771412D01*
X2558918Y16679363D01*
X2558918Y16679362D01*
X2558917Y16679360D01*
X2531406Y16576685D01*
X300500Y16576685D01*
X300500Y19954954D01*
X306738Y19976200D01*
X308318Y19998288D01*
X316390Y20009072D01*
X320185Y20021993D01*
X336918Y20036493D01*
X350190Y20054221D01*
X362810Y20058929D01*
X372989Y20067748D01*
X394906Y20070900D01*
X415654Y20078638D01*
X428814Y20075776D01*
G37*
%TD.AperFunction*%
%TD*%
%TA.AperFunction,Conductor*%
%TO.N,GND_USB*%
G36*
X10734339Y24230315D02*
G01*
X10780094Y24177511D01*
X10791300Y24126000D01*
X10791300Y19332700D01*
X10771615Y19265661D01*
X10718811Y19219906D01*
X10667300Y19208700D01*
X7283280Y19208700D01*
X7267720Y19207681D01*
X7256044Y19206916D01*
X7256043Y19206916D01*
X7249928Y19206111D01*
X7249554Y19206061D01*
X7249546Y19206060D01*
X7233365Y19205000D01*
X7166636Y19205000D01*
X7150455Y19206060D01*
X7150447Y19206061D01*
X7150072Y19206111D01*
X7143958Y19206916D01*
X7132037Y19207697D01*
X7116720Y19208700D01*
X6566957Y19208700D01*
X6566956Y19208700D01*
X6546911Y19206061D01*
X6530726Y19205000D01*
X6469274Y19205000D01*
X6453089Y19206061D01*
X6433044Y19208700D01*
X6433043Y19208700D01*
X5883280Y19208700D01*
X5867720Y19207681D01*
X5856044Y19206916D01*
X5856043Y19206916D01*
X5849928Y19206111D01*
X5849554Y19206061D01*
X5849546Y19206060D01*
X5833365Y19205000D01*
X5766636Y19205000D01*
X5750455Y19206060D01*
X5750447Y19206061D01*
X5750072Y19206111D01*
X5743958Y19206916D01*
X5732037Y19207697D01*
X5716720Y19208700D01*
X5573306Y19208700D01*
X5567482Y19208458D01*
X5499682Y19225334D01*
X5454933Y19270351D01*
X5453095Y19273534D01*
X5453095Y19273536D01*
X5390495Y19381964D01*
X5301964Y19470495D01*
X5193536Y19533095D01*
X5193537Y19533095D01*
X5153224Y19543897D01*
X5072601Y19565500D01*
X4947399Y19565500D01*
X4866775Y19543897D01*
X4826463Y19533095D01*
X4718037Y19470496D01*
X4718034Y19470494D01*
X4629506Y19381966D01*
X4629502Y19381961D01*
X4564999Y19270236D01*
X4557476Y19263064D01*
X4553407Y19253501D01*
X4532622Y19239366D01*
X4514432Y19222021D01*
X4502693Y19219011D01*
X4495633Y19214209D01*
X4473594Y19211549D01*
X4460840Y19208278D01*
X4451348Y19208031D01*
X4446694Y19208700D01*
X4383280Y19208700D01*
X4356050Y19206916D01*
X4343097Y19205212D01*
X4336593Y19205042D01*
X4336081Y19205178D01*
X4333365Y19205000D01*
X4266636Y19205000D01*
X4250455Y19206060D01*
X4250447Y19206061D01*
X4250072Y19206111D01*
X4243958Y19206916D01*
X4232037Y19207697D01*
X4216720Y19208700D01*
X3666957Y19208700D01*
X3666956Y19208700D01*
X3646911Y19206061D01*
X3630726Y19205000D01*
X3569274Y19205000D01*
X3553089Y19206061D01*
X3533044Y19208700D01*
X3533043Y19208700D01*
X2983280Y19208700D01*
X2967720Y19207681D01*
X2956044Y19206916D01*
X2956043Y19206916D01*
X2949928Y19206111D01*
X2949554Y19206061D01*
X2949546Y19206060D01*
X2933365Y19205000D01*
X2866636Y19205000D01*
X2850455Y19206060D01*
X2850447Y19206061D01*
X2850072Y19206111D01*
X2843958Y19206916D01*
X2832037Y19207697D01*
X2816720Y19208700D01*
X2266957Y19208700D01*
X2266956Y19208700D01*
X2246911Y19206061D01*
X2230726Y19205000D01*
X2170589Y19205000D01*
X2103550Y19224685D01*
X2082908Y19241319D01*
X2055502Y19268725D01*
X2035795Y19294408D01*
X2026451Y19310593D01*
X2014063Y19340502D01*
X2009224Y19358564D01*
X2005000Y19390653D01*
X2005000Y19409353D01*
X2009224Y19441440D01*
X2014062Y19459498D01*
X2026448Y19489403D01*
X2047268Y19525465D01*
X2053827Y19536823D01*
X2054088Y19537278D01*
X2054456Y19537920D01*
X2076500Y19593715D01*
X2092567Y19661712D01*
X2096907Y19686868D01*
X2086271Y19779137D01*
X2063026Y19845026D01*
X2062039Y19847359D01*
X2054038Y19916769D01*
X2084833Y19979486D01*
X2088529Y19983347D01*
X2176600Y20071417D01*
X2253611Y20186673D01*
X2306657Y20314738D01*
X2333700Y20450692D01*
X2333700Y20589308D01*
X2333700Y20589311D01*
X2333699Y20589313D01*
X4256300Y20589313D01*
X4256300Y20450688D01*
X4283341Y20314746D01*
X4283344Y20314734D01*
X4336386Y20186677D01*
X4413401Y20071415D01*
X4511414Y19973402D01*
X4626676Y19896387D01*
X4750675Y19845026D01*
X4754738Y19843343D01*
X4890687Y19816301D01*
X4890690Y19816300D01*
X4890692Y19816300D01*
X6129310Y19816300D01*
X6129311Y19816301D01*
X6265262Y19843343D01*
X6329294Y19869866D01*
X6393323Y19896387D01*
X6393324Y19896388D01*
X6393327Y19896389D01*
X6508583Y19973400D01*
X6606600Y20071417D01*
X6683611Y20186673D01*
X6736657Y20314738D01*
X6763700Y20450692D01*
X6763700Y20589308D01*
X6763700Y20589311D01*
X6763699Y20589313D01*
X6749007Y20663174D01*
X6736657Y20725262D01*
X6713677Y20780741D01*
X6683613Y20853324D01*
X6606598Y20968586D01*
X6508585Y21066599D01*
X6393323Y21143614D01*
X6265266Y21196656D01*
X6265254Y21196659D01*
X6129311Y21223700D01*
X6129308Y21223700D01*
X4890692Y21223700D01*
X4890689Y21223700D01*
X4754745Y21196659D01*
X4754733Y21196656D01*
X4626676Y21143614D01*
X4511414Y21066599D01*
X4413401Y20968586D01*
X4336386Y20853324D01*
X4283344Y20725267D01*
X4283341Y20725255D01*
X4256300Y20589313D01*
X2333699Y20589313D01*
X2319007Y20663174D01*
X2306657Y20725262D01*
X2283677Y20780741D01*
X2253613Y20853324D01*
X2176598Y20968586D01*
X2166756Y20978428D01*
X2133271Y21039751D01*
X2138255Y21109443D01*
X2146217Y21126643D01*
X2180559Y21188038D01*
X2180561Y21188041D01*
X2200246Y21255080D01*
X2208700Y21313879D01*
X2208700Y21376000D01*
X2203930Y21420364D01*
X2192724Y21471875D01*
X2190198Y21482212D01*
X2146519Y21564181D01*
X2100764Y21616985D01*
X2100755Y21616994D01*
X2100748Y21617002D01*
X2082901Y21635216D01*
X2082894Y21635222D01*
X2018948Y21670990D01*
X2001838Y21680561D01*
X1971835Y21689371D01*
X1934800Y21700246D01*
X1934792Y21700248D01*
X1876001Y21708700D01*
X1876000Y21708700D01*
X424500Y21708700D01*
X357461Y21728385D01*
X311706Y21781189D01*
X300500Y21832700D01*
X300500Y24126000D01*
X320185Y24193039D01*
X372989Y24238794D01*
X424500Y24250000D01*
X10667300Y24250000D01*
X10734339Y24230315D01*
G37*
%TD.AperFunction*%
%TD*%
%TA.AperFunction,Conductor*%
%TO.N,+24V*%
G36*
X33237650Y14680315D02*
G01*
X33258292Y14663681D01*
X33273568Y14648405D01*
X33365623Y14595257D01*
X33468298Y14567746D01*
X33468300Y14567746D01*
X33574592Y14567746D01*
X33574594Y14567746D01*
X33677269Y14595257D01*
X33769324Y14648405D01*
X33784600Y14663681D01*
X33811527Y14678385D01*
X33837346Y14694977D01*
X33843546Y14695869D01*
X33845923Y14697166D01*
X33872281Y14700000D01*
X33880002Y14700000D01*
X33945017Y14680910D01*
X33945083Y14681023D01*
X33945551Y14680753D01*
X33947041Y14680315D01*
X33950402Y14677952D01*
X33952122Y14676959D01*
X34044177Y14623811D01*
X34146852Y14596300D01*
X34146854Y14596300D01*
X34253146Y14596300D01*
X34253148Y14596300D01*
X34355823Y14623811D01*
X34355832Y14623817D01*
X34363336Y14626923D01*
X34363887Y14625593D01*
X34423200Y14639982D01*
X34489227Y14617129D01*
X34532418Y14562208D01*
X34541300Y14516122D01*
X34541300Y8824738D01*
X34546177Y8779892D01*
X34546180Y8779869D01*
X34557629Y8727852D01*
X34560326Y8716992D01*
X34571405Y8696445D01*
X34585895Y8628094D01*
X34561132Y8562760D01*
X34549941Y8549914D01*
X34140489Y8140460D01*
X34140488Y8140459D01*
X34084272Y8084244D01*
X34022949Y8050760D01*
X33953257Y8055745D01*
X33921109Y8073548D01*
X33919336Y8074908D01*
X33919329Y8074912D01*
X33827278Y8128058D01*
X33724603Y8155569D01*
X33618307Y8155569D01*
X33515632Y8128058D01*
X33515630Y8128057D01*
X33515629Y8128057D01*
X33423580Y8074912D01*
X33423574Y8074908D01*
X33348416Y7999750D01*
X33348412Y7999744D01*
X33295267Y7907695D01*
X33295267Y7907694D01*
X33295266Y7907692D01*
X33291229Y7892626D01*
X33254865Y7832966D01*
X33192018Y7802437D01*
X33122643Y7810732D01*
X33068765Y7855217D01*
X33051681Y7892625D01*
X33047644Y7907692D01*
X32994496Y7999747D01*
X32919333Y8074910D01*
X32827278Y8128058D01*
X32724603Y8155569D01*
X32618307Y8155569D01*
X32515632Y8128058D01*
X32515630Y8128057D01*
X32515629Y8128057D01*
X32423580Y8074912D01*
X32423574Y8074908D01*
X32348416Y7999750D01*
X32348412Y7999744D01*
X32295267Y7907695D01*
X32295267Y7907694D01*
X32295266Y7907692D01*
X32291229Y7892626D01*
X32254865Y7832966D01*
X32192018Y7802437D01*
X32122643Y7810732D01*
X32068765Y7855217D01*
X32051681Y7892625D01*
X32047644Y7907692D01*
X31994496Y7999747D01*
X31919333Y8074910D01*
X31827278Y8128058D01*
X31724603Y8155569D01*
X31618307Y8155569D01*
X31515632Y8128058D01*
X31515630Y8128057D01*
X31515629Y8128057D01*
X31423580Y8074912D01*
X31423574Y8074908D01*
X31348416Y7999750D01*
X31348412Y7999744D01*
X31295267Y7907695D01*
X31295267Y7907694D01*
X31295266Y7907692D01*
X31291229Y7892626D01*
X31254865Y7832966D01*
X31192018Y7802437D01*
X31122643Y7810732D01*
X31068765Y7855217D01*
X31051681Y7892625D01*
X31047644Y7907692D01*
X30994496Y7999747D01*
X30919333Y8074910D01*
X30827278Y8128058D01*
X30724603Y8155569D01*
X30618307Y8155569D01*
X30515632Y8128058D01*
X30515630Y8128057D01*
X30515629Y8128057D01*
X30423580Y8074912D01*
X30423574Y8074908D01*
X30348416Y7999750D01*
X30348412Y7999744D01*
X30295267Y7907695D01*
X30295267Y7907694D01*
X30295266Y7907692D01*
X30267755Y7805017D01*
X30267755Y7698721D01*
X30295266Y7596046D01*
X30348414Y7503991D01*
X30348416Y7503989D01*
X30362855Y7489550D01*
X30396340Y7428227D01*
X30391356Y7358535D01*
X30362855Y7314188D01*
X30348416Y7299750D01*
X30348412Y7299744D01*
X30295267Y7207695D01*
X30295267Y7207694D01*
X30295266Y7207692D01*
X30267755Y7105017D01*
X30267755Y6998721D01*
X30295266Y6896046D01*
X30295267Y6896045D01*
X30295267Y6896044D01*
X30348413Y6803992D01*
X30349671Y6802353D01*
X30350301Y6800722D01*
X30352478Y6796952D01*
X30351890Y6796613D01*
X30374863Y6737183D01*
X30360823Y6668739D01*
X30349671Y6651385D01*
X30348413Y6649747D01*
X30295267Y6557695D01*
X30295267Y6557694D01*
X30295266Y6557692D01*
X30267755Y6455017D01*
X30267755Y6348721D01*
X30292574Y6256090D01*
X30290912Y6186244D01*
X30251750Y6128381D01*
X30187521Y6100877D01*
X30172800Y6100000D01*
X27549500Y6100000D01*
X27482461Y6119685D01*
X27436706Y6172489D01*
X27425500Y6224000D01*
X27425500Y7548423D01*
X27394709Y7742827D01*
X27333882Y7930030D01*
X27260061Y8074912D01*
X27244524Y8105405D01*
X27128828Y8264646D01*
X26989646Y8403828D01*
X26830405Y8519524D01*
X26655029Y8608883D01*
X26467826Y8669710D01*
X26273422Y8700500D01*
X26273417Y8700500D01*
X26222595Y8700500D01*
X26175000Y8700500D01*
X26076583Y8700500D01*
X26076578Y8700500D01*
X25882173Y8669710D01*
X25694970Y8608883D01*
X25519594Y8519524D01*
X25455460Y8472927D01*
X25360354Y8403828D01*
X25360352Y8403826D01*
X25360351Y8403826D01*
X25221174Y8264649D01*
X25221174Y8264648D01*
X25221172Y8264646D01*
X25214001Y8254776D01*
X25105476Y8105406D01*
X25016117Y7930030D01*
X24955290Y7742827D01*
X24924500Y7548423D01*
X24924500Y6224000D01*
X24904815Y6156961D01*
X24852011Y6111206D01*
X24800500Y6100000D01*
X24374000Y6100000D01*
X24306961Y6119685D01*
X24261206Y6172489D01*
X24250000Y6224000D01*
X24250000Y8672300D01*
X24269685Y8739339D01*
X24322489Y8785094D01*
X24374000Y8796300D01*
X25209728Y8796300D01*
X25209731Y8796300D01*
X25325122Y8827219D01*
X25362989Y8849082D01*
X25428578Y8886949D01*
X26005309Y9463682D01*
X26066632Y9497166D01*
X26092990Y9500000D01*
X27200000Y9500000D01*
X27204072Y9504589D01*
X27263286Y9541676D01*
X27296832Y9546300D01*
X28209728Y9546300D01*
X28209731Y9546300D01*
X28325122Y9577219D01*
X28369665Y9602936D01*
X28428578Y9636949D01*
X30263051Y11471422D01*
X30310235Y11553148D01*
X30322781Y11574878D01*
X30353700Y11690269D01*
X30353700Y13309731D01*
X30322781Y13425122D01*
X30263050Y13528578D01*
X30246313Y13545315D01*
X30212828Y13606638D01*
X30217812Y13676330D01*
X30259593Y13732195D01*
X30522057Y13929043D01*
X30587494Y13953517D01*
X30655780Y13938727D01*
X30684133Y13917522D01*
X30725696Y13875959D01*
X30817751Y13822811D01*
X30920426Y13795300D01*
X30920428Y13795300D01*
X31026720Y13795300D01*
X31026722Y13795300D01*
X31129397Y13822811D01*
X31213154Y13871169D01*
X31281053Y13887641D01*
X31337151Y13871169D01*
X31419177Y13823811D01*
X31521852Y13796300D01*
X31521854Y13796300D01*
X31628146Y13796300D01*
X31628148Y13796300D01*
X31730823Y13823811D01*
X31822878Y13876959D01*
X31898041Y13952122D01*
X31951189Y14044177D01*
X31978700Y14146852D01*
X31978700Y14253148D01*
X31951189Y14355823D01*
X31948158Y14361072D01*
X31943793Y14368633D01*
X31943211Y14371029D01*
X31941495Y14372796D01*
X31935019Y14404803D01*
X31927322Y14436533D01*
X31928127Y14438862D01*
X31927639Y14441278D01*
X31939496Y14471710D01*
X31950174Y14502560D01*
X31952388Y14504795D01*
X31953006Y14506380D01*
X31960150Y14512629D01*
X31978324Y14530970D01*
X31983564Y14534776D01*
X32056629Y14576959D01*
X32096315Y14616646D01*
X32104224Y14622388D01*
X32128291Y14630968D01*
X32150721Y14643216D01*
X32160655Y14642506D01*
X32170037Y14645850D01*
X32194925Y14640055D01*
X32220413Y14638232D01*
X32237671Y14630102D01*
X32238086Y14630005D01*
X32238262Y14629823D01*
X32239075Y14629440D01*
X32333416Y14574972D01*
X32448807Y14544053D01*
X32448809Y14544053D01*
X32568266Y14544053D01*
X32568269Y14544053D01*
X32683660Y14574972D01*
X32787116Y14634703D01*
X32816094Y14663681D01*
X32877417Y14697166D01*
X32903775Y14700000D01*
X33170611Y14700000D01*
X33237650Y14680315D01*
G37*
%TD.AperFunction*%
%TD*%
%TA.AperFunction,Conductor*%
%TO.N,/Project Architecture/USB-PD Source Controller/PD_OUT*%
G36*
X29702592Y17733388D02*
G01*
X29799878Y17677219D01*
X29915269Y17646300D01*
X29915271Y17646300D01*
X30034728Y17646300D01*
X30034731Y17646300D01*
X30150122Y17677219D01*
X30247407Y17733388D01*
X30262895Y17737538D01*
X30274472Y17744977D01*
X30309407Y17750000D01*
X30440593Y17750000D01*
X30502592Y17733388D01*
X30599878Y17677219D01*
X30715269Y17646300D01*
X30715271Y17646300D01*
X30834728Y17646300D01*
X30834731Y17646300D01*
X30950122Y17677219D01*
X31047407Y17733388D01*
X31062895Y17737538D01*
X31074472Y17744977D01*
X31109407Y17750000D01*
X31240593Y17750000D01*
X31302592Y17733388D01*
X31399878Y17677219D01*
X31515269Y17646300D01*
X31515271Y17646300D01*
X31634728Y17646300D01*
X31634731Y17646300D01*
X31635357Y17646468D01*
X31635905Y17646455D01*
X31642787Y17647361D01*
X31642928Y17646289D01*
X31649355Y17646136D01*
X31662629Y17650602D01*
X31683593Y17645324D01*
X31705205Y17644811D01*
X31716803Y17636963D01*
X31730384Y17633543D01*
X31745166Y17617770D01*
X31763071Y17605653D01*
X31769547Y17591753D01*
X31778161Y17582561D01*
X31784283Y17560124D01*
X31789415Y17549110D01*
X31791300Y17538854D01*
X31791300Y17533167D01*
X31793085Y17505926D01*
X31797310Y17473834D01*
X31802636Y17447062D01*
X31814341Y17403376D01*
X31817910Y17391481D01*
X31818968Y17388300D01*
X31819409Y17385905D01*
X31822288Y17378327D01*
X31822566Y17377491D01*
X31822569Y17377484D01*
X31822622Y17377386D01*
X31827419Y17367435D01*
X31837973Y17342790D01*
X31846884Y17330276D01*
X31846884Y17330275D01*
X31848909Y17327431D01*
X31851384Y17323956D01*
X31856530Y17314397D01*
X31859459Y17310672D01*
X31860346Y17311370D01*
X31875826Y17289631D01*
X31875835Y17289619D01*
X31889437Y17270518D01*
X31892381Y17267200D01*
X31898453Y17260876D01*
X31898464Y17260884D01*
X31898702Y17260616D01*
X31899175Y17260124D01*
X31899716Y17259478D01*
X31908156Y17250000D01*
X31916706Y17240400D01*
X31916708Y17240399D01*
X31923488Y17234684D01*
X31921509Y17232337D01*
X31957826Y17191548D01*
X31968700Y17122530D01*
X31965511Y17106430D01*
X31946300Y17034733D01*
X31946300Y16915270D01*
X31962828Y16853585D01*
X31961165Y16783735D01*
X31943300Y16748509D01*
X31934960Y16737054D01*
X31883015Y16692043D01*
X31864782Y16674178D01*
X31819439Y16593117D01*
X31812185Y16568416D01*
X31799519Y16551017D01*
X31788196Y16542304D01*
X31780473Y16530286D01*
X31761060Y16521421D01*
X31744147Y16508405D01*
X31729911Y16507197D01*
X31716917Y16501262D01*
X31699272Y16500000D01*
X29499999Y16500000D01*
X29000000Y16000001D01*
X29000000Y14124000D01*
X28980315Y14056961D01*
X28927511Y14011206D01*
X28876000Y14000000D01*
X24749999Y14000000D01*
X24250000Y13500001D01*
X24250000Y9827700D01*
X24230315Y9760661D01*
X24177511Y9714906D01*
X24126000Y9703700D01*
X23659731Y9703700D01*
X18240269Y9703700D01*
X18124878Y9672781D01*
X18124877Y9672781D01*
X18124875Y9672780D01*
X18097595Y9657030D01*
X18091829Y9653700D01*
X18070911Y9641624D01*
X18021422Y9613052D01*
X18021420Y9613050D01*
X17294690Y8886319D01*
X17233367Y8852834D01*
X17207009Y8850000D01*
X14642991Y8850000D01*
X14575952Y8869685D01*
X14555310Y8886319D01*
X13536319Y9905310D01*
X13502834Y9966633D01*
X13500000Y9992991D01*
X13500000Y12668468D01*
X13519685Y12735507D01*
X13572489Y12781262D01*
X13636494Y12790466D01*
X13636577Y12791616D01*
X13640988Y12791301D01*
X13640991Y12791300D01*
X13640994Y12791300D01*
X15198639Y12791300D01*
X15199950Y12791371D01*
X15220949Y12792496D01*
X15247307Y12795330D01*
X15325016Y12819663D01*
X15386339Y12853148D01*
X15433892Y12888746D01*
X18114993Y15569850D01*
X18176316Y15603334D01*
X18246007Y15598350D01*
X18301941Y15556478D01*
X18322447Y15514266D01*
X18323811Y15509176D01*
X18323812Y15509174D01*
X18339667Y15481712D01*
X18376959Y15417121D01*
X18452122Y15341958D01*
X18544177Y15288810D01*
X18646852Y15261299D01*
X18646854Y15261299D01*
X18753146Y15261299D01*
X18753148Y15261299D01*
X18855823Y15288810D01*
X18947878Y15341958D01*
X19023041Y15417121D01*
X19076189Y15509176D01*
X19103700Y15611851D01*
X19103700Y15718147D01*
X19076189Y15820822D01*
X19023041Y15912877D01*
X18947878Y15988040D01*
X18855825Y16041187D01*
X18855826Y16041187D01*
X18855823Y16041188D01*
X18850734Y16042552D01*
X18791077Y16078916D01*
X18760548Y16141763D01*
X18768843Y16211138D01*
X18795149Y16250005D01*
X18849432Y16304287D01*
X18877427Y16339026D01*
X18881160Y16344834D01*
X18905920Y16383360D01*
X18908751Y16388021D01*
X18911454Y16392473D01*
X18915271Y16404999D01*
X18916322Y16408446D01*
X18929240Y16428105D01*
X18938188Y16449861D01*
X18948073Y16456763D01*
X18954694Y16466836D01*
X18976188Y16476389D01*
X18995479Y16489855D01*
X19012888Y16492699D01*
X19018542Y16495211D01*
X19030196Y16496209D01*
X19032574Y16496300D01*
X19053148Y16496300D01*
X19056574Y16497219D01*
X19067311Y16497629D01*
X19095826Y16490428D01*
X19124890Y16485899D01*
X19129316Y16481971D01*
X19135054Y16480522D01*
X19155148Y16459049D01*
X19175148Y16441302D01*
X19175525Y16441560D01*
X19176566Y16440044D01*
X19177151Y16439525D01*
X19178373Y16437413D01*
X19179465Y16435823D01*
X19179467Y16435821D01*
X19179468Y16435819D01*
X19225223Y16383015D01*
X19225230Y16383008D01*
X19225238Y16382999D01*
X19243085Y16364785D01*
X19243092Y16364779D01*
X19278751Y16344833D01*
X19324149Y16319439D01*
X19391188Y16299754D01*
X19391192Y16299754D01*
X19391194Y16299753D01*
X19400695Y16298388D01*
X19449987Y16291300D01*
X19449990Y16291300D01*
X22221140Y16291300D01*
X22221145Y16291300D01*
X22260640Y16295071D01*
X22306726Y16303953D01*
X22312286Y16305103D01*
X22396241Y16344833D01*
X22451163Y16388024D01*
X22470227Y16405003D01*
X22470229Y16405008D01*
X22475945Y16411786D01*
X22477433Y16410532D01*
X22521151Y16449473D01*
X22590167Y16460361D01*
X22606285Y16457170D01*
X22646852Y16446300D01*
X22646854Y16446300D01*
X22753145Y16446300D01*
X22753148Y16446300D01*
X22796750Y16457983D01*
X22866597Y16456320D01*
X22922553Y16419412D01*
X22954091Y16383015D01*
X22954098Y16383008D01*
X22954106Y16382999D01*
X22971953Y16364785D01*
X22971960Y16364779D01*
X23007619Y16344833D01*
X23053017Y16319439D01*
X23120056Y16299754D01*
X23120060Y16299754D01*
X23120062Y16299753D01*
X23129563Y16298388D01*
X23178855Y16291300D01*
X23178858Y16291300D01*
X23592283Y16291300D01*
X23631760Y16295070D01*
X23631765Y16295071D01*
X23631777Y16295072D01*
X23677864Y16303955D01*
X23683422Y16305105D01*
X23767376Y16344835D01*
X23822297Y16388026D01*
X23839896Y16403700D01*
X23841355Y16404999D01*
X23841355Y16405001D01*
X23841360Y16405004D01*
X23843304Y16408122D01*
X23846047Y16410566D01*
X23847074Y16411783D01*
X23847249Y16411636D01*
X23895474Y16454590D01*
X23964490Y16465478D01*
X23980601Y16462288D01*
X24040269Y16446300D01*
X24040272Y16446300D01*
X24159728Y16446300D01*
X24159731Y16446300D01*
X24275122Y16477219D01*
X24285807Y16483389D01*
X24347805Y16500000D01*
X25052195Y16500000D01*
X25114192Y16483389D01*
X25124878Y16477219D01*
X25240269Y16446300D01*
X25240271Y16446300D01*
X25359728Y16446300D01*
X25359731Y16446300D01*
X25475122Y16477219D01*
X25485807Y16483389D01*
X25547805Y16500000D01*
X26252195Y16500000D01*
X26314192Y16483389D01*
X26324878Y16477219D01*
X26440269Y16446300D01*
X26440271Y16446300D01*
X26559728Y16446300D01*
X26559731Y16446300D01*
X26675122Y16477219D01*
X26685807Y16483389D01*
X26747805Y16500000D01*
X27250000Y16500000D01*
X27500000Y16750000D01*
X27724364Y16974364D01*
X27785687Y17007849D01*
X27812045Y17010683D01*
X27858079Y17010683D01*
X27858082Y17010683D01*
X27973473Y17041602D01*
X28076929Y17101333D01*
X28161401Y17185805D01*
X28162667Y17187999D01*
X28164218Y17189477D01*
X28166349Y17192254D01*
X28166781Y17191922D01*
X28213233Y17236214D01*
X28270055Y17250000D01*
X28500000Y17250000D01*
X28963681Y17713681D01*
X29025004Y17747166D01*
X29051362Y17750000D01*
X29640593Y17750000D01*
X29702592Y17733388D01*
G37*
%TD.AperFunction*%
%TD*%
%TA.AperFunction,Conductor*%
%TO.N,+3.3V*%
G36*
X13096054Y29604815D02*
G01*
X13141809Y29552011D01*
X13151753Y29482853D01*
X13122728Y29419297D01*
X13063950Y29381523D01*
X13061149Y29380737D01*
X13044177Y29376189D01*
X13044175Y29376188D01*
X13044174Y29376188D01*
X12952125Y29323043D01*
X12952119Y29323039D01*
X12876961Y29247881D01*
X12876957Y29247875D01*
X12823812Y29155826D01*
X12823812Y29155825D01*
X12823811Y29155823D01*
X12796300Y29053148D01*
X12796300Y28946852D01*
X12823811Y28844177D01*
X12823812Y28844176D01*
X12823812Y28844175D01*
X12836442Y28822300D01*
X12876959Y28752122D01*
X12952122Y28676959D01*
X13044177Y28623811D01*
X13146852Y28596300D01*
X13146854Y28596300D01*
X13253146Y28596300D01*
X13253148Y28596300D01*
X13355823Y28623811D01*
X13447878Y28676959D01*
X13523041Y28752122D01*
X13576189Y28844177D01*
X13603700Y28946852D01*
X13603700Y29053148D01*
X13576189Y29155823D01*
X13523041Y29247878D01*
X13447878Y29323041D01*
X13355823Y29376189D01*
X13338890Y29380726D01*
X13279231Y29417090D01*
X13248702Y29479937D01*
X13256997Y29549312D01*
X13301482Y29603190D01*
X13368034Y29624465D01*
X13370985Y29624500D01*
X18729015Y29624500D01*
X18796054Y29604815D01*
X18841809Y29552011D01*
X18851753Y29482853D01*
X18822728Y29419297D01*
X18763950Y29381523D01*
X18761149Y29380737D01*
X18744177Y29376189D01*
X18744175Y29376188D01*
X18744174Y29376188D01*
X18652125Y29323043D01*
X18652119Y29323039D01*
X18576961Y29247881D01*
X18576957Y29247875D01*
X18523812Y29155826D01*
X18523812Y29155825D01*
X18523811Y29155823D01*
X18496300Y29053148D01*
X18496300Y28946852D01*
X18523811Y28844177D01*
X18523812Y28844176D01*
X18523812Y28844175D01*
X18536442Y28822300D01*
X18576959Y28752122D01*
X18652122Y28676959D01*
X18744177Y28623811D01*
X18846852Y28596300D01*
X18846854Y28596300D01*
X18953146Y28596300D01*
X18953148Y28596300D01*
X19055823Y28623811D01*
X19147878Y28676959D01*
X19223041Y28752122D01*
X19276189Y28844177D01*
X19303700Y28946852D01*
X19303700Y29053148D01*
X19276189Y29155823D01*
X19223041Y29247878D01*
X19147878Y29323041D01*
X19055823Y29376189D01*
X19038890Y29380726D01*
X18979231Y29417090D01*
X18948702Y29479937D01*
X18956997Y29549312D01*
X19001482Y29603190D01*
X19068034Y29624465D01*
X19070985Y29624500D01*
X23626000Y29624500D01*
X23693039Y29604815D01*
X23738794Y29552011D01*
X23750000Y29500500D01*
X23750000Y29201450D01*
X23730315Y29134411D01*
X23690746Y29097940D01*
X23691557Y29096759D01*
X23685817Y29092818D01*
X23633018Y29047067D01*
X23632998Y29047049D01*
X23614784Y29029202D01*
X23614778Y29029195D01*
X23569441Y28948142D01*
X23569438Y28948135D01*
X23549754Y28881101D01*
X23549752Y28881093D01*
X23541300Y28822302D01*
X23541300Y20373993D01*
X23546069Y20329638D01*
X23557151Y20278700D01*
X23557276Y20278125D01*
X23559802Y20267788D01*
X23603481Y20185819D01*
X23649236Y20133015D01*
X23649244Y20133007D01*
X23649252Y20132998D01*
X23658315Y20123748D01*
X23691171Y20062086D01*
X23685475Y19992449D01*
X23677321Y19975369D01*
X23677219Y19975124D01*
X23677219Y19975122D01*
X23646300Y19859731D01*
X23646300Y19740269D01*
X23672431Y19642747D01*
X23677220Y19624874D01*
X23677221Y19624873D01*
X23733386Y19527595D01*
X23750000Y19465594D01*
X23750000Y18411756D01*
X23744651Y18391793D01*
X23744651Y18272331D01*
X23750000Y18252369D01*
X23750000Y17234407D01*
X23733387Y17172408D01*
X23677219Y17075122D01*
X23646300Y16959731D01*
X23646300Y16840269D01*
X23677219Y16724878D01*
X23694945Y16694176D01*
X23699665Y16686001D01*
X23716138Y16618101D01*
X23693286Y16552074D01*
X23638365Y16508883D01*
X23592278Y16500000D01*
X23178855Y16500000D01*
X23111816Y16519685D01*
X23066061Y16572489D01*
X23056117Y16641647D01*
X23071468Y16686000D01*
X23071469Y16686001D01*
X23076189Y16694177D01*
X23103700Y16796852D01*
X23103700Y16903148D01*
X23076189Y17005823D01*
X23023041Y17097878D01*
X22947878Y17173041D01*
X22861279Y17223039D01*
X22855825Y17226188D01*
X22855824Y17226189D01*
X22855823Y17226189D01*
X22753148Y17253700D01*
X22646852Y17253700D01*
X22544177Y17226189D01*
X22544175Y17226188D01*
X22544174Y17226188D01*
X22452125Y17173043D01*
X22452119Y17173039D01*
X22376961Y17097881D01*
X22376957Y17097875D01*
X22323812Y17005826D01*
X22323812Y17005825D01*
X22323811Y17005823D01*
X22296300Y16903148D01*
X22296300Y16796852D01*
X22323811Y16694177D01*
X22323812Y16694176D01*
X22323812Y16694175D01*
X22328532Y16686000D01*
X22345005Y16618100D01*
X22322153Y16552073D01*
X22267231Y16508882D01*
X22221145Y16500000D01*
X19449987Y16500000D01*
X19382948Y16519685D01*
X19337193Y16572489D01*
X19327249Y16641647D01*
X19342600Y16686000D01*
X19376189Y16744177D01*
X19403700Y16846852D01*
X19403700Y16953148D01*
X19376189Y17055823D01*
X19323041Y17147878D01*
X19247878Y17223041D01*
X19170513Y17267708D01*
X19155825Y17276188D01*
X19155824Y17276189D01*
X19155823Y17276189D01*
X19053148Y17303700D01*
X18946852Y17303700D01*
X18844177Y17276189D01*
X18844175Y17276188D01*
X18844174Y17276188D01*
X18752125Y17223043D01*
X18752119Y17223039D01*
X18676961Y17147881D01*
X18676957Y17147875D01*
X18623812Y17055826D01*
X18623812Y17055825D01*
X18623811Y17055823D01*
X18596300Y16953148D01*
X18596300Y16846852D01*
X18623811Y16744177D01*
X18676959Y16652122D01*
X18676961Y16652120D01*
X18701859Y16627222D01*
X18735344Y16565899D01*
X18730360Y16496207D01*
X18701859Y16451860D01*
X15286319Y13036319D01*
X15224996Y13002834D01*
X15198638Y13000000D01*
X13640991Y13000000D01*
X13573952Y13019685D01*
X13528197Y13072489D01*
X13518253Y13141647D01*
X13547278Y13205203D01*
X13553310Y13211681D01*
X14184619Y13842990D01*
X14245942Y13876475D01*
X14315634Y13871491D01*
X14371567Y13829619D01*
X14395984Y13764155D01*
X14396300Y13755309D01*
X14396300Y13753148D01*
X14396300Y13646852D01*
X14423811Y13544177D01*
X14476959Y13452122D01*
X14552122Y13376959D01*
X14644177Y13323811D01*
X14746852Y13296300D01*
X14746854Y13296300D01*
X14853146Y13296300D01*
X14853148Y13296300D01*
X14955823Y13323811D01*
X15047878Y13376959D01*
X15123041Y13452122D01*
X15176189Y13544177D01*
X15203700Y13646852D01*
X15203700Y13753148D01*
X15176189Y13855823D01*
X15123041Y13947878D01*
X15047878Y14023041D01*
X14955823Y14076189D01*
X14853148Y14103700D01*
X14746852Y14103700D01*
X14744691Y14103700D01*
X14677652Y14123385D01*
X14631897Y14176189D01*
X14621953Y14245347D01*
X14650978Y14308903D01*
X14657010Y14315381D01*
X14745329Y14403700D01*
X14863051Y14521422D01*
X14916952Y14614782D01*
X14922781Y14624878D01*
X14953700Y14740269D01*
X14953700Y16853148D01*
X15296300Y16853148D01*
X15296300Y16746852D01*
X15323811Y16644177D01*
X15376959Y16552122D01*
X15452122Y16476959D01*
X15544177Y16423811D01*
X15646852Y16396300D01*
X15646854Y16396300D01*
X15753146Y16396300D01*
X15753148Y16396300D01*
X15855823Y16423811D01*
X15947878Y16476959D01*
X16023041Y16552122D01*
X16076189Y16644177D01*
X16103700Y16746852D01*
X16103700Y16853148D01*
X16076189Y16955823D01*
X16023041Y17047878D01*
X15947878Y17123041D01*
X15881194Y17161541D01*
X15855825Y17176188D01*
X15855824Y17176189D01*
X15855823Y17176189D01*
X15753148Y17203700D01*
X15646852Y17203700D01*
X15544177Y17176189D01*
X15544175Y17176188D01*
X15544174Y17176188D01*
X15452125Y17123043D01*
X15452119Y17123039D01*
X15376961Y17047881D01*
X15376957Y17047875D01*
X15323812Y16955826D01*
X15323812Y16955825D01*
X15323811Y16955823D01*
X15296300Y16853148D01*
X14953700Y16853148D01*
X14953700Y19253148D01*
X20596300Y19253148D01*
X20596300Y19146852D01*
X20623811Y19044177D01*
X20676959Y18952122D01*
X20752122Y18876959D01*
X20844177Y18823811D01*
X20946852Y18796300D01*
X20946854Y18796300D01*
X21053146Y18796300D01*
X21053148Y18796300D01*
X21155823Y18823811D01*
X21247878Y18876959D01*
X21323041Y18952122D01*
X21376189Y19044177D01*
X21403700Y19146852D01*
X21403700Y19253148D01*
X21376189Y19355823D01*
X21323041Y19447878D01*
X21247878Y19523041D01*
X21155823Y19576189D01*
X21053148Y19603700D01*
X20946852Y19603700D01*
X20844177Y19576189D01*
X20844175Y19576188D01*
X20844174Y19576188D01*
X20752125Y19523043D01*
X20752119Y19523039D01*
X20676961Y19447881D01*
X20676957Y19447875D01*
X20623812Y19355826D01*
X20623812Y19355825D01*
X20623811Y19355823D01*
X20596300Y19253148D01*
X14953700Y19253148D01*
X14953700Y19928148D01*
X15858800Y19928148D01*
X15858800Y19821852D01*
X15886311Y19719177D01*
X15939459Y19627122D01*
X16014622Y19551959D01*
X16106677Y19498811D01*
X16209352Y19471300D01*
X16209354Y19471300D01*
X16315646Y19471300D01*
X16315648Y19471300D01*
X16418323Y19498811D01*
X16510378Y19551959D01*
X16585541Y19627122D01*
X16638689Y19719177D01*
X16666200Y19821852D01*
X16666200Y19928148D01*
X16638689Y20030823D01*
X16585541Y20122878D01*
X16510378Y20198041D01*
X16425833Y20246853D01*
X16418325Y20251188D01*
X16418324Y20251189D01*
X16418323Y20251189D01*
X16315648Y20278700D01*
X16209352Y20278700D01*
X16209350Y20278700D01*
X16176255Y20269833D01*
X16176249Y20269831D01*
X16106677Y20251189D01*
X16014622Y20198041D01*
X16002478Y20185898D01*
X16002477Y20185897D01*
X15939458Y20122877D01*
X15939457Y20122875D01*
X15886312Y20030826D01*
X15886312Y20030825D01*
X15886311Y20030823D01*
X15858800Y19928148D01*
X14953700Y19928148D01*
X14953700Y21309731D01*
X14922781Y21425122D01*
X14892853Y21476959D01*
X14863051Y21528578D01*
X14663561Y21728068D01*
X14630076Y21789391D01*
X14634636Y21853148D01*
X15296300Y21853148D01*
X15296300Y21746852D01*
X15323811Y21644177D01*
X15376959Y21552122D01*
X15452122Y21476959D01*
X15544177Y21423811D01*
X15616257Y21404498D01*
X15675916Y21368135D01*
X15706446Y21305288D01*
X15698152Y21235913D01*
X15653667Y21182034D01*
X15646164Y21177338D01*
X15552128Y21123045D01*
X15552119Y21123039D01*
X15476961Y21047881D01*
X15476957Y21047875D01*
X15423812Y20955826D01*
X15423812Y20955825D01*
X15423811Y20955823D01*
X15396300Y20853148D01*
X15396300Y20746852D01*
X15423811Y20644177D01*
X15476959Y20552122D01*
X15552122Y20476959D01*
X15644177Y20423811D01*
X15746852Y20396300D01*
X15746854Y20396300D01*
X15853146Y20396300D01*
X15853148Y20396300D01*
X15955823Y20423811D01*
X16047878Y20476959D01*
X16123041Y20552122D01*
X16176189Y20644177D01*
X16203700Y20746852D01*
X16203700Y20853148D01*
X20496300Y20853148D01*
X20496300Y20746852D01*
X20523811Y20644177D01*
X20576959Y20552122D01*
X20652122Y20476959D01*
X20744177Y20423811D01*
X20846852Y20396300D01*
X20846854Y20396300D01*
X20953146Y20396300D01*
X20953148Y20396300D01*
X21055823Y20423811D01*
X21147878Y20476959D01*
X21223041Y20552122D01*
X21267628Y20629350D01*
X21318194Y20677565D01*
X21386801Y20690789D01*
X21451666Y20664821D01*
X21482402Y20629350D01*
X21483708Y20627087D01*
X21483709Y20627086D01*
X21536857Y20535031D01*
X21612020Y20459868D01*
X21704075Y20406720D01*
X21806750Y20379209D01*
X21806752Y20379209D01*
X21913044Y20379209D01*
X21913046Y20379209D01*
X22015721Y20406720D01*
X22107776Y20459868D01*
X22182939Y20535031D01*
X22236087Y20627086D01*
X22263598Y20729761D01*
X22263598Y20836057D01*
X22259019Y20853148D01*
X22496300Y20853148D01*
X22496300Y20746852D01*
X22523811Y20644177D01*
X22576959Y20552122D01*
X22652122Y20476959D01*
X22744177Y20423811D01*
X22846852Y20396300D01*
X22846854Y20396300D01*
X22953146Y20396300D01*
X22953148Y20396300D01*
X23055823Y20423811D01*
X23147878Y20476959D01*
X23223041Y20552122D01*
X23276189Y20644177D01*
X23303700Y20746852D01*
X23303700Y20853148D01*
X23276189Y20955823D01*
X23223041Y21047878D01*
X23147878Y21123041D01*
X23055823Y21176189D01*
X22953148Y21203700D01*
X22846852Y21203700D01*
X22744177Y21176189D01*
X22744175Y21176188D01*
X22744174Y21176188D01*
X22652125Y21123043D01*
X22652119Y21123039D01*
X22576961Y21047881D01*
X22576957Y21047875D01*
X22523812Y20955826D01*
X22523812Y20955825D01*
X22523811Y20955823D01*
X22519232Y20938732D01*
X22502040Y20874573D01*
X22502040Y20874571D01*
X22496300Y20853148D01*
X22259019Y20853148D01*
X22236087Y20938732D01*
X22182939Y21030787D01*
X22107776Y21105950D01*
X22015721Y21159098D01*
X21913046Y21186609D01*
X21806750Y21186609D01*
X21704075Y21159098D01*
X21704073Y21159097D01*
X21704072Y21159097D01*
X21612023Y21105952D01*
X21612017Y21105948D01*
X21536859Y21030790D01*
X21536857Y21030787D01*
X21492269Y20953559D01*
X21441701Y20905344D01*
X21373094Y20892122D01*
X21308229Y20918090D01*
X21277495Y20953560D01*
X21276189Y20955822D01*
X21276189Y20955823D01*
X21223041Y21047878D01*
X21147878Y21123041D01*
X21055823Y21176189D01*
X20953148Y21203700D01*
X20846852Y21203700D01*
X20744177Y21176189D01*
X20744175Y21176188D01*
X20744174Y21176188D01*
X20652125Y21123043D01*
X20652119Y21123039D01*
X20576961Y21047881D01*
X20576957Y21047875D01*
X20523812Y20955826D01*
X20523812Y20955825D01*
X20523811Y20955823D01*
X20496300Y20853148D01*
X16203700Y20853148D01*
X16176189Y20955823D01*
X16123041Y21047878D01*
X16047878Y21123041D01*
X15955823Y21176189D01*
X15883742Y21195503D01*
X15824082Y21231867D01*
X15793553Y21294714D01*
X15801848Y21364089D01*
X15846333Y21417967D01*
X15853836Y21422664D01*
X15855823Y21423811D01*
X15947878Y21476959D01*
X16023041Y21552122D01*
X16076189Y21644177D01*
X16103700Y21746852D01*
X16103700Y21853148D01*
X16076189Y21955823D01*
X16023041Y22047878D01*
X15947878Y22123041D01*
X15855823Y22176189D01*
X15753148Y22203700D01*
X15646852Y22203700D01*
X15544177Y22176189D01*
X15544175Y22176188D01*
X15544174Y22176188D01*
X15452125Y22123043D01*
X15452119Y22123039D01*
X15376961Y22047881D01*
X15376957Y22047875D01*
X15323812Y21955826D01*
X15323812Y21955825D01*
X15323811Y21955823D01*
X15296300Y21853148D01*
X14634636Y21853148D01*
X14635060Y21859083D01*
X14676932Y21915016D01*
X14715740Y21934558D01*
X14729330Y21938619D01*
X14734537Y21938619D01*
X14837212Y21966130D01*
X14929267Y22019278D01*
X15004430Y22094441D01*
X15057578Y22186496D01*
X15085089Y22289171D01*
X15085089Y22395467D01*
X15057578Y22498142D01*
X15004430Y22590197D01*
X14929267Y22665360D01*
X14837212Y22718508D01*
X14734537Y22746019D01*
X14628241Y22746019D01*
X14525566Y22718508D01*
X14525564Y22718507D01*
X14525563Y22718507D01*
X14489700Y22697801D01*
X14421799Y22681328D01*
X14355773Y22704181D01*
X14312582Y22759102D01*
X14303700Y22805188D01*
X14303700Y23210709D01*
X14323385Y23277748D01*
X14340019Y23298390D01*
X15397455Y24355826D01*
X16463051Y25421422D01*
X16522782Y25524879D01*
X16530356Y25553146D01*
X16530357Y25553148D01*
X19196300Y25553148D01*
X19196300Y25446852D01*
X19223811Y25344177D01*
X19276959Y25252122D01*
X19276961Y25252120D01*
X19291400Y25237681D01*
X19324885Y25176358D01*
X19319901Y25106666D01*
X19291400Y25062319D01*
X19276961Y25047881D01*
X19276957Y25047875D01*
X19223812Y24955826D01*
X19223812Y24955825D01*
X19223811Y24955823D01*
X19196300Y24853148D01*
X19196300Y24746852D01*
X19223811Y24644177D01*
X19276959Y24552122D01*
X19276961Y24552120D01*
X19291400Y24537681D01*
X19324885Y24476358D01*
X19319901Y24406666D01*
X19291400Y24362319D01*
X19276961Y24347881D01*
X19276957Y24347875D01*
X19223812Y24255826D01*
X19223812Y24255825D01*
X19223811Y24255823D01*
X19196300Y24153148D01*
X19196300Y24046852D01*
X19223811Y23944177D01*
X19276959Y23852122D01*
X19352122Y23776959D01*
X19444177Y23723811D01*
X19546852Y23696300D01*
X19546854Y23696300D01*
X19653146Y23696300D01*
X19653148Y23696300D01*
X19755823Y23723811D01*
X19847878Y23776959D01*
X19912319Y23841400D01*
X19973642Y23874885D01*
X20043334Y23869901D01*
X20087681Y23841400D01*
X20152122Y23776959D01*
X20244177Y23723811D01*
X20346852Y23696300D01*
X20346854Y23696300D01*
X20453146Y23696300D01*
X20453148Y23696300D01*
X20555823Y23723811D01*
X20647878Y23776959D01*
X20662319Y23791400D01*
X20723642Y23824885D01*
X20793334Y23819901D01*
X20837681Y23791400D01*
X20852122Y23776959D01*
X20944177Y23723811D01*
X21046852Y23696300D01*
X21046854Y23696300D01*
X21153146Y23696300D01*
X21153148Y23696300D01*
X21255823Y23723811D01*
X21347878Y23776959D01*
X21423041Y23852122D01*
X21476189Y23944177D01*
X21503700Y24046852D01*
X21503700Y24153148D01*
X21476189Y24255823D01*
X21423041Y24347878D01*
X21408600Y24362319D01*
X21375115Y24423642D01*
X21380099Y24493334D01*
X21408600Y24537681D01*
X21412630Y24541711D01*
X21423041Y24552122D01*
X21476189Y24644177D01*
X21503700Y24746852D01*
X21503700Y24853148D01*
X21476189Y24955823D01*
X21423041Y25047878D01*
X21408600Y25062319D01*
X21375115Y25123642D01*
X21380099Y25193334D01*
X21408600Y25237681D01*
X21423041Y25252122D01*
X21476189Y25344177D01*
X21503700Y25446852D01*
X21503700Y25553148D01*
X21476189Y25655823D01*
X21423041Y25747878D01*
X21347878Y25823041D01*
X21286508Y25858473D01*
X21255825Y25876188D01*
X21255824Y25876189D01*
X21255823Y25876189D01*
X21153148Y25903700D01*
X21046852Y25903700D01*
X20944177Y25876189D01*
X20944175Y25876188D01*
X20944174Y25876188D01*
X20852125Y25823043D01*
X20852119Y25823039D01*
X20837681Y25808600D01*
X20776358Y25775115D01*
X20706666Y25780099D01*
X20662319Y25808600D01*
X20647880Y25823039D01*
X20647878Y25823041D01*
X20586508Y25858473D01*
X20555825Y25876188D01*
X20555824Y25876189D01*
X20555823Y25876189D01*
X20453148Y25903700D01*
X20346852Y25903700D01*
X20244177Y25876189D01*
X20244175Y25876188D01*
X20244174Y25876188D01*
X20152125Y25823043D01*
X20152119Y25823039D01*
X20087681Y25758600D01*
X20026358Y25725115D01*
X19956666Y25730099D01*
X19912319Y25758600D01*
X19847880Y25823039D01*
X19847878Y25823041D01*
X19786508Y25858473D01*
X19755825Y25876188D01*
X19755824Y25876189D01*
X19755823Y25876189D01*
X19653148Y25903700D01*
X19546852Y25903700D01*
X19444177Y25876189D01*
X19444175Y25876188D01*
X19444174Y25876188D01*
X19352125Y25823043D01*
X19352119Y25823039D01*
X19276961Y25747881D01*
X19276957Y25747875D01*
X19223812Y25655826D01*
X19223812Y25655825D01*
X19223811Y25655823D01*
X19196300Y25553148D01*
X16530357Y25553148D01*
X16541133Y25593367D01*
X16541133Y25593368D01*
X16549927Y25626189D01*
X16553700Y25640270D01*
X16553700Y25759731D01*
X16553700Y27622300D01*
X16573385Y27689339D01*
X16626189Y27735094D01*
X16677700Y27746300D01*
X16960709Y27746300D01*
X17027748Y27726615D01*
X17048390Y27709981D01*
X17206241Y27552131D01*
X17321422Y27436950D01*
X17424878Y27377219D01*
X17540269Y27346301D01*
X17540272Y27346301D01*
X17659727Y27346301D01*
X17659730Y27346301D01*
X17730348Y27365223D01*
X17775119Y27377218D01*
X17775119Y27377219D01*
X17775121Y27377219D01*
X17878578Y27436950D01*
X17963050Y27521422D01*
X18022781Y27624879D01*
X18053699Y27740270D01*
X18053699Y27859731D01*
X18022781Y27975122D01*
X17963050Y28078578D01*
X17478578Y28563051D01*
X17478577Y28563052D01*
X17478574Y28563054D01*
X17420988Y28596300D01*
X17408171Y28603700D01*
X17408169Y28603702D01*
X17408169Y28603701D01*
X17408167Y28603702D01*
X17375122Y28622781D01*
X17259731Y28653700D01*
X14740269Y28653700D01*
X14624878Y28622781D01*
X14624876Y28622781D01*
X14624876Y28622780D01*
X14521422Y28563050D01*
X14521419Y28563048D01*
X14436952Y28478581D01*
X14436950Y28478578D01*
X14417564Y28445000D01*
X14377219Y28375122D01*
X14346300Y28259731D01*
X14346300Y28140269D01*
X14377219Y28024878D01*
X14436950Y27921422D01*
X14521422Y27836950D01*
X14624878Y27777219D01*
X14740269Y27746300D01*
X15522300Y27746300D01*
X15589339Y27726615D01*
X15635094Y27673811D01*
X15646300Y27622300D01*
X15646300Y25939292D01*
X15626615Y25872253D01*
X15609981Y25851611D01*
X14077122Y24318753D01*
X14015799Y24285268D01*
X13946107Y24290252D01*
X13890174Y24332124D01*
X13880580Y24348974D01*
X13880253Y24348784D01*
X13876187Y24355826D01*
X13823041Y24447878D01*
X13747878Y24523041D01*
X13655823Y24576189D01*
X13553148Y24603700D01*
X13446852Y24603700D01*
X13344177Y24576189D01*
X13344175Y24576188D01*
X13344174Y24576188D01*
X13252125Y24523043D01*
X13252119Y24523039D01*
X13176961Y24447881D01*
X13176957Y24447875D01*
X13123812Y24355826D01*
X13123812Y24355825D01*
X13123811Y24355823D01*
X13096300Y24253148D01*
X13096300Y24146852D01*
X13123811Y24044177D01*
X13176959Y23952122D01*
X13252122Y23876959D01*
X13344177Y23823811D01*
X13359344Y23819747D01*
X13419004Y23783383D01*
X13449533Y23720537D01*
X13441239Y23651161D01*
X13434640Y23637977D01*
X13427220Y23625126D01*
X13427219Y23625122D01*
X13396300Y23509731D01*
X13396300Y21840269D01*
X13427219Y21724878D01*
X13444469Y21695000D01*
X13473812Y21644176D01*
X13486948Y21621424D01*
X13486950Y21621421D01*
X14009981Y21098390D01*
X14043466Y21037067D01*
X14046300Y21010709D01*
X14046300Y17551291D01*
X14026615Y17484252D01*
X13973811Y17438497D01*
X13904653Y17428553D01*
X13860300Y17443904D01*
X13783802Y17488070D01*
X13783801Y17488071D01*
X13783800Y17488071D01*
X13681125Y17515582D01*
X13574829Y17515582D01*
X13472154Y17488071D01*
X13472152Y17488070D01*
X13472151Y17488070D01*
X13380102Y17434925D01*
X13380096Y17434921D01*
X13304938Y17359763D01*
X13304934Y17359757D01*
X13251789Y17267708D01*
X13251789Y17267707D01*
X13251788Y17267705D01*
X13224277Y17165030D01*
X13224277Y17058734D01*
X13251788Y16956059D01*
X13251789Y16956058D01*
X13251789Y16956057D01*
X13251923Y16955825D01*
X13304936Y16864004D01*
X13380099Y16788841D01*
X13472154Y16735693D01*
X13574829Y16708182D01*
X13574831Y16708182D01*
X13681123Y16708182D01*
X13681125Y16708182D01*
X13783800Y16735693D01*
X13860302Y16779862D01*
X13928199Y16796334D01*
X13994226Y16773482D01*
X14037417Y16718561D01*
X14046300Y16672474D01*
X14046300Y15039291D01*
X14026615Y14972252D01*
X14009981Y14951610D01*
X12094690Y13036319D01*
X12033367Y13002834D01*
X12007009Y13000000D01*
X11124000Y13000000D01*
X11056961Y13019685D01*
X11011206Y13072489D01*
X11000000Y13124000D01*
X11000000Y13586911D01*
X11019685Y13653950D01*
X11072489Y13699705D01*
X11091898Y13706683D01*
X11155823Y13723811D01*
X11247878Y13776959D01*
X11323041Y13852122D01*
X11376189Y13944177D01*
X11376189Y13944178D01*
X11377336Y13946164D01*
X11427903Y13994380D01*
X11496510Y14007603D01*
X11561375Y13981635D01*
X11601903Y13924721D01*
X11604495Y13916265D01*
X11623811Y13844177D01*
X11676959Y13752122D01*
X11752122Y13676959D01*
X11844177Y13623811D01*
X11946852Y13596300D01*
X11946854Y13596300D01*
X12053146Y13596300D01*
X12053148Y13596300D01*
X12155823Y13623811D01*
X12247878Y13676959D01*
X12323041Y13752122D01*
X12376189Y13844177D01*
X12403700Y13946852D01*
X12403700Y14053148D01*
X12376189Y14155823D01*
X12323041Y14247878D01*
X12247878Y14323041D01*
X12155823Y14376189D01*
X12053148Y14403700D01*
X11946852Y14403700D01*
X11844177Y14376189D01*
X11844175Y14376188D01*
X11844174Y14376188D01*
X11752125Y14323043D01*
X11752119Y14323039D01*
X11676961Y14247881D01*
X11676955Y14247872D01*
X11622662Y14153836D01*
X11572095Y14105621D01*
X11503488Y14092399D01*
X11438623Y14118367D01*
X11398095Y14175282D01*
X11395507Y14183726D01*
X11376189Y14255823D01*
X11323041Y14347878D01*
X11247878Y14423041D01*
X11155825Y14476188D01*
X11155826Y14476188D01*
X11155823Y14476189D01*
X11091905Y14493316D01*
X11032246Y14529681D01*
X11001717Y14592528D01*
X11000000Y14613090D01*
X11000000Y17020945D01*
X11019685Y17087984D01*
X11072489Y17133739D01*
X11141647Y17143683D01*
X11169116Y17136446D01*
X11177863Y17133030D01*
X11203763Y17118076D01*
X11243191Y17107512D01*
X11249580Y17105016D01*
X11272009Y17087681D01*
X11296217Y17072926D01*
X11299293Y17066594D01*
X11304863Y17062289D01*
X11314360Y17035577D01*
X11326747Y17010079D01*
X11326354Y17001844D01*
X11328270Y16996457D01*
X11325542Y16984786D01*
X11324239Y16957423D01*
X11296300Y16853150D01*
X11296300Y16853148D01*
X11296300Y16746852D01*
X11323811Y16644177D01*
X11376959Y16552122D01*
X11452122Y16476959D01*
X11544177Y16423811D01*
X11646852Y16396300D01*
X11646854Y16396300D01*
X11753146Y16396300D01*
X11753148Y16396300D01*
X11855823Y16423811D01*
X11907828Y16453837D01*
X11975727Y16470310D01*
X12041754Y16447458D01*
X12081294Y16400777D01*
X12086516Y16390062D01*
X12098811Y16344177D01*
X12151959Y16252122D01*
X12155445Y16248636D01*
X12162334Y16234502D01*
X12166165Y16211896D01*
X12174437Y16190509D01*
X12171893Y16178102D01*
X12174010Y16165615D01*
X12165011Y16144525D01*
X12160407Y16122062D01*
X12158255Y16118175D01*
X12102343Y16021333D01*
X12100664Y16015066D01*
X12064297Y15955407D01*
X12001449Y15924880D01*
X11932074Y15933177D01*
X11918890Y15939777D01*
X11855825Y15976188D01*
X11855824Y15976189D01*
X11855823Y15976189D01*
X11753148Y16003700D01*
X11646852Y16003700D01*
X11544177Y15976189D01*
X11544175Y15976188D01*
X11544174Y15976188D01*
X11452125Y15923043D01*
X11452119Y15923039D01*
X11376961Y15847881D01*
X11376957Y15847875D01*
X11323812Y15755826D01*
X11323812Y15755825D01*
X11323811Y15755823D01*
X11296300Y15653148D01*
X11296300Y15546852D01*
X11323811Y15444177D01*
X11323812Y15444176D01*
X11323812Y15444175D01*
X11337922Y15419736D01*
X11376959Y15352122D01*
X11452122Y15276959D01*
X11544177Y15223811D01*
X11646852Y15196300D01*
X11646854Y15196300D01*
X11753146Y15196300D01*
X11753148Y15196300D01*
X11855823Y15223811D01*
X11947878Y15276959D01*
X12023041Y15352122D01*
X12076189Y15444177D01*
X12077865Y15450435D01*
X12114225Y15510094D01*
X12177071Y15540626D01*
X12246447Y15532335D01*
X12259624Y15525740D01*
X12322708Y15489318D01*
X12425383Y15461807D01*
X12425385Y15461807D01*
X12531677Y15461807D01*
X12531679Y15461807D01*
X12634354Y15489318D01*
X12726409Y15542466D01*
X12762627Y15578685D01*
X12823947Y15612169D01*
X12893639Y15607185D01*
X12949573Y15565315D01*
X12970082Y15523095D01*
X12973811Y15509176D01*
X12973812Y15509174D01*
X12985275Y15489320D01*
X13026959Y15417121D01*
X13102122Y15341958D01*
X13194177Y15288810D01*
X13296852Y15261299D01*
X13296854Y15261299D01*
X13403146Y15261299D01*
X13403148Y15261299D01*
X13505823Y15288810D01*
X13597878Y15341958D01*
X13673041Y15417121D01*
X13726189Y15509176D01*
X13753700Y15611851D01*
X13753700Y15718147D01*
X13726189Y15820822D01*
X13673041Y15912877D01*
X13597878Y15988040D01*
X13505823Y16041188D01*
X13403148Y16068699D01*
X13296852Y16068699D01*
X13194177Y16041188D01*
X13194175Y16041187D01*
X13194174Y16041187D01*
X13102125Y15988042D01*
X13102118Y15988037D01*
X13065903Y15951822D01*
X13004580Y15918337D01*
X12934888Y15923323D01*
X12878955Y15965195D01*
X12868125Y15982457D01*
X12861934Y15994405D01*
X12854720Y16021330D01*
X12801572Y16113385D01*
X12798900Y16116057D01*
X12792564Y16128286D01*
X12787896Y16152237D01*
X12779094Y16174993D01*
X12781332Y16185918D01*
X12779199Y16196865D01*
X12788221Y16219539D01*
X12793120Y16243441D01*
X12795275Y16247334D01*
X12798037Y16252119D01*
X12798041Y16252122D01*
X12851189Y16344177D01*
X12878700Y16446852D01*
X12878700Y16553148D01*
X12851189Y16655823D01*
X12798041Y16747878D01*
X12722878Y16823041D01*
X12661508Y16858473D01*
X12630825Y16876188D01*
X12630824Y16876189D01*
X12630823Y16876189D01*
X12528148Y16903700D01*
X12421852Y16903700D01*
X12319175Y16876189D01*
X12267170Y16846163D01*
X12199270Y16829691D01*
X12133243Y16852544D01*
X12090053Y16907466D01*
X12085398Y16921451D01*
X12076189Y16955823D01*
X12023041Y17047878D01*
X11947878Y17123041D01*
X11881194Y17161541D01*
X11855825Y17176188D01*
X11855826Y17176188D01*
X11855823Y17176189D01*
X11823025Y17184977D01*
X11763367Y17221342D01*
X11732838Y17284189D01*
X11735346Y17336844D01*
X11735773Y17338440D01*
X11735775Y17338442D01*
X11763286Y17441117D01*
X11763286Y17547413D01*
X11735775Y17650088D01*
X11682627Y17742143D01*
X11607464Y17817306D01*
X11515409Y17870454D01*
X11500671Y17874403D01*
X11441012Y17910770D01*
X11410484Y17973617D01*
X11418781Y18042993D01*
X11425369Y18056156D01*
X11476189Y18144177D01*
X11503700Y18246852D01*
X11503700Y18353148D01*
X12096300Y18353148D01*
X12096300Y18246852D01*
X12123811Y18144177D01*
X12176959Y18052122D01*
X12252122Y17976959D01*
X12344177Y17923811D01*
X12446852Y17896300D01*
X12446854Y17896300D01*
X12553146Y17896300D01*
X12553148Y17896300D01*
X12655823Y17923811D01*
X12747878Y17976959D01*
X12823041Y18052122D01*
X12876189Y18144177D01*
X12903700Y18246852D01*
X12903700Y18353148D01*
X12876189Y18455823D01*
X12823041Y18547878D01*
X12747878Y18623041D01*
X12655823Y18676189D01*
X12553148Y18703700D01*
X12446852Y18703700D01*
X12344177Y18676189D01*
X12344175Y18676188D01*
X12344174Y18676188D01*
X12252125Y18623043D01*
X12252119Y18623039D01*
X12176961Y18547881D01*
X12176957Y18547875D01*
X12123812Y18455826D01*
X12123812Y18455825D01*
X12123811Y18455823D01*
X12096300Y18353148D01*
X11503700Y18353148D01*
X11476189Y18455823D01*
X11423041Y18547878D01*
X11347878Y18623041D01*
X11255823Y18676189D01*
X11153148Y18703700D01*
X11124000Y18703700D01*
X11056961Y18723385D01*
X11011206Y18776189D01*
X11000000Y18827700D01*
X11000000Y20353148D01*
X12596300Y20353148D01*
X12596300Y20246852D01*
X12623811Y20144177D01*
X12676959Y20052122D01*
X12752122Y19976959D01*
X12844177Y19923811D01*
X12946852Y19896300D01*
X12946854Y19896300D01*
X13053146Y19896300D01*
X13053148Y19896300D01*
X13155823Y19923811D01*
X13247878Y19976959D01*
X13323041Y20052122D01*
X13376189Y20144177D01*
X13403700Y20246852D01*
X13403700Y20353148D01*
X13376189Y20455823D01*
X13323041Y20547878D01*
X13247878Y20623041D01*
X13155823Y20676189D01*
X13053148Y20703700D01*
X12946852Y20703700D01*
X12844177Y20676189D01*
X12844175Y20676188D01*
X12844174Y20676188D01*
X12752125Y20623043D01*
X12752119Y20623039D01*
X12676961Y20547881D01*
X12676957Y20547875D01*
X12623812Y20455826D01*
X12623812Y20455825D01*
X12623811Y20455823D01*
X12596300Y20353148D01*
X11000000Y20353148D01*
X11000000Y26303148D01*
X12346300Y26303148D01*
X12346300Y26196852D01*
X12373811Y26094177D01*
X12426959Y26002122D01*
X12502122Y25926959D01*
X12594177Y25873811D01*
X12609243Y25869775D01*
X12668903Y25833410D01*
X12699432Y25770563D01*
X12691137Y25701188D01*
X12646652Y25647310D01*
X12609244Y25630227D01*
X12594177Y25626189D01*
X12594175Y25626188D01*
X12594174Y25626188D01*
X12502125Y25573043D01*
X12502119Y25573039D01*
X12426961Y25497881D01*
X12426957Y25497875D01*
X12373812Y25405826D01*
X12373812Y25405825D01*
X12373811Y25405823D01*
X12346300Y25303148D01*
X12346300Y25196852D01*
X12373811Y25094177D01*
X12426959Y25002122D01*
X12502122Y24926959D01*
X12594177Y24873811D01*
X12696852Y24846300D01*
X12696854Y24846300D01*
X12803146Y24846300D01*
X12803148Y24846300D01*
X12905823Y24873811D01*
X12997878Y24926959D01*
X13073041Y25002122D01*
X13126189Y25094177D01*
X13153700Y25196852D01*
X13153700Y25303148D01*
X13126189Y25405823D01*
X13073041Y25497878D01*
X12997878Y25573041D01*
X12905823Y25626189D01*
X12890756Y25630226D01*
X12831097Y25666589D01*
X12800567Y25729435D01*
X12808861Y25798811D01*
X12853346Y25852690D01*
X12890755Y25869774D01*
X12905823Y25873811D01*
X12997878Y25926959D01*
X13073041Y26002122D01*
X13126189Y26094177D01*
X13153700Y26196852D01*
X13153700Y26303148D01*
X13126189Y26405823D01*
X13073041Y26497878D01*
X12997878Y26573041D01*
X12905823Y26626189D01*
X12805208Y26653148D01*
X13896300Y26653148D01*
X13896300Y26546852D01*
X13923811Y26444177D01*
X13976959Y26352122D01*
X14052122Y26276959D01*
X14144177Y26223811D01*
X14246852Y26196300D01*
X14246854Y26196300D01*
X14353146Y26196300D01*
X14353148Y26196300D01*
X14455823Y26223811D01*
X14547878Y26276959D01*
X14623041Y26352122D01*
X14676189Y26444177D01*
X14703700Y26546852D01*
X14703700Y26653148D01*
X14676189Y26755823D01*
X14623041Y26847878D01*
X14547878Y26923041D01*
X14455823Y26976189D01*
X14353148Y27003700D01*
X14246852Y27003700D01*
X14144177Y26976189D01*
X14144175Y26976188D01*
X14144174Y26976188D01*
X14052125Y26923043D01*
X14052119Y26923039D01*
X13976961Y26847881D01*
X13976957Y26847875D01*
X13923812Y26755826D01*
X13923812Y26755825D01*
X13923811Y26755823D01*
X13896300Y26653148D01*
X12805208Y26653148D01*
X12803148Y26653700D01*
X12696852Y26653700D01*
X12594177Y26626189D01*
X12594175Y26626188D01*
X12594174Y26626188D01*
X12502125Y26573043D01*
X12502119Y26573039D01*
X12426961Y26497881D01*
X12426957Y26497875D01*
X12373812Y26405826D01*
X12373812Y26405825D01*
X12373811Y26405823D01*
X12346300Y26303148D01*
X11000000Y26303148D01*
X11000000Y29500500D01*
X11019685Y29567539D01*
X11072489Y29613294D01*
X11124000Y29624500D01*
X13029015Y29624500D01*
X13096054Y29604815D01*
G37*
%TD.AperFunction*%
%TD*%
%TA.AperFunction,Conductor*%
%TO.N,+24V_FILTERED*%
G36*
X51428736Y29624274D02*
G01*
X51682638Y29608916D01*
X51697495Y29607112D01*
X51944000Y29561939D01*
X51958536Y29558356D01*
X52197791Y29483800D01*
X52211788Y29478492D01*
X52440319Y29375639D01*
X52453578Y29368680D01*
X52490161Y29346565D01*
X52668045Y29239030D01*
X52680356Y29230532D01*
X52868893Y29082823D01*
X52877636Y29075973D01*
X52888844Y29066043D01*
X53066042Y28888845D01*
X53075972Y28877637D01*
X53212243Y28703700D01*
X53230527Y28680363D01*
X53239033Y28668040D01*
X53368679Y28453579D01*
X53375638Y28440320D01*
X53478491Y28211789D01*
X53483800Y28197789D01*
X53558354Y27958539D01*
X53561938Y27943999D01*
X53607110Y27697500D01*
X53608915Y27682636D01*
X53624274Y27428737D01*
X53624500Y27421250D01*
X53624500Y3929428D01*
X53624184Y3920582D01*
X53607834Y3691983D01*
X53605316Y3674471D01*
X53557543Y3454863D01*
X53552559Y3437888D01*
X53474019Y3227312D01*
X53466669Y3211218D01*
X53358959Y3013964D01*
X53349394Y2999081D01*
X53214710Y2819164D01*
X53203124Y2805793D01*
X53044207Y2646876D01*
X53030836Y2635290D01*
X52850919Y2500606D01*
X52836036Y2491041D01*
X52638782Y2383331D01*
X52622688Y2375981D01*
X52412112Y2297441D01*
X52395137Y2292457D01*
X52175529Y2244684D01*
X52158017Y2242166D01*
X51929418Y2225816D01*
X51920572Y2225500D01*
X40931093Y2225500D01*
X40918939Y2226097D01*
X40868081Y2231107D01*
X40800688Y2237744D01*
X40776848Y2242486D01*
X40668997Y2275202D01*
X40646541Y2284504D01*
X40547150Y2337630D01*
X40526940Y2351134D01*
X40439820Y2422631D01*
X40422630Y2439821D01*
X40351133Y2526941D01*
X40337629Y2547151D01*
X40298441Y2620466D01*
X40284501Y2646547D01*
X40275201Y2668998D01*
X40255881Y2732689D01*
X40242483Y2776855D01*
X40237744Y2800683D01*
X40226097Y2918939D01*
X40225500Y2931093D01*
X40225500Y7467786D01*
X40225474Y7468169D01*
X40225462Y7522747D01*
X40225461Y7522760D01*
X40197505Y7698721D01*
X40193243Y7725549D01*
X40129600Y7920777D01*
X40078194Y8021304D01*
X40036112Y8103597D01*
X40033831Y8106724D01*
X39915090Y8269488D01*
X39769538Y8414330D01*
X39603061Y8534538D01*
X39576334Y8548041D01*
X39419788Y8627131D01*
X39419779Y8627135D01*
X39224243Y8689822D01*
X39021297Y8721048D01*
X39021294Y8721048D01*
X39020431Y8721044D01*
X38965998Y8720792D01*
X38965820Y8720802D01*
X38907361Y8720516D01*
X38907362Y8720515D01*
X38871031Y8720337D01*
X38871030Y8720337D01*
X38841874Y8720195D01*
X34874608Y8700747D01*
X34807473Y8720103D01*
X34761459Y8772682D01*
X34750000Y8824746D01*
X34750000Y14750000D01*
X34712553Y14750000D01*
X34645514Y14769685D01*
X34599759Y14822489D01*
X34589815Y14891647D01*
X34592774Y14906075D01*
X34603700Y14946852D01*
X34603700Y15053148D01*
X34576189Y15155823D01*
X34523041Y15247878D01*
X34447878Y15323041D01*
X34395731Y15353148D01*
X37096300Y15353148D01*
X37096300Y15246852D01*
X37123811Y15144177D01*
X37176959Y15052122D01*
X37252122Y14976959D01*
X37344177Y14923811D01*
X37446852Y14896300D01*
X37446854Y14896300D01*
X37553146Y14896300D01*
X37553148Y14896300D01*
X37655823Y14923811D01*
X37747878Y14976959D01*
X37823041Y15052122D01*
X37876189Y15144177D01*
X37903700Y15246852D01*
X37903700Y15353148D01*
X37876189Y15455823D01*
X37823041Y15547878D01*
X37747878Y15623041D01*
X37655823Y15676189D01*
X37553148Y15703700D01*
X37446852Y15703700D01*
X37344177Y15676189D01*
X37344175Y15676188D01*
X37344174Y15676188D01*
X37252125Y15623043D01*
X37252119Y15623039D01*
X37176961Y15547881D01*
X37176957Y15547875D01*
X37123812Y15455826D01*
X37123812Y15455825D01*
X37123811Y15455823D01*
X37096300Y15353148D01*
X34395731Y15353148D01*
X34355823Y15376189D01*
X34253148Y15403700D01*
X34146852Y15403700D01*
X34044177Y15376189D01*
X34044175Y15376188D01*
X34044174Y15376188D01*
X33952125Y15323043D01*
X33952118Y15323038D01*
X33933491Y15304411D01*
X33872168Y15270927D01*
X33802476Y15275913D01*
X33770324Y15293719D01*
X33769328Y15294483D01*
X33769324Y15294487D01*
X33707954Y15329919D01*
X33677271Y15347634D01*
X33677270Y15347635D01*
X33677269Y15347635D01*
X33574594Y15375146D01*
X33468298Y15375146D01*
X33365623Y15347635D01*
X33365621Y15347634D01*
X33365620Y15347634D01*
X33273571Y15294489D01*
X33273565Y15294485D01*
X33198407Y15219327D01*
X33198403Y15219321D01*
X33192152Y15208494D01*
X33141584Y15160279D01*
X33072977Y15147058D01*
X33008112Y15173027D01*
X32968832Y15226505D01*
X32962238Y15243883D01*
X32962238Y15251193D01*
X32931319Y15366584D01*
X32890693Y15436950D01*
X32879795Y15455826D01*
X32871591Y15470037D01*
X32871587Y15470042D01*
X32036319Y16305311D01*
X32021615Y16332239D01*
X32005023Y16358057D01*
X32004131Y16364258D01*
X32002834Y16366634D01*
X32000000Y16392992D01*
X32000000Y16467279D01*
X32019685Y16534318D01*
X32072489Y16580073D01*
X32141647Y16590017D01*
X32185999Y16574667D01*
X32224878Y16552219D01*
X32340269Y16521300D01*
X32340271Y16521300D01*
X32459728Y16521300D01*
X32459731Y16521300D01*
X32575122Y16552219D01*
X32678578Y16611950D01*
X32763050Y16696422D01*
X32822781Y16799878D01*
X32853700Y16915269D01*
X32853700Y17034731D01*
X32822781Y17150122D01*
X32763050Y17253578D01*
X32678578Y17338050D01*
X32575122Y17397781D01*
X32459731Y17428700D01*
X32340269Y17428700D01*
X32269647Y17409777D01*
X32224873Y17397780D01*
X32224872Y17397779D01*
X32197703Y17382093D01*
X32173408Y17376200D01*
X32150425Y17366358D01*
X32140037Y17368105D01*
X32129803Y17365622D01*
X32106179Y17373799D01*
X32081522Y17377945D01*
X32073727Y17385031D01*
X32063776Y17388475D01*
X32048323Y17408126D01*
X32029823Y17424944D01*
X32023516Y17439672D01*
X32020587Y17443397D01*
X32015930Y17457389D01*
X32004225Y17501075D01*
X32000000Y17533167D01*
X32000000Y17916835D01*
X32004225Y17948927D01*
X32014838Y17988537D01*
X32051202Y18048198D01*
X32114049Y18078728D01*
X32183424Y18070434D01*
X32222294Y18044126D01*
X32255829Y18010591D01*
X32347884Y17957443D01*
X32450559Y17929932D01*
X32450561Y17929932D01*
X32556853Y17929932D01*
X32556855Y17929932D01*
X32659530Y17957443D01*
X32751585Y18010591D01*
X32826748Y18085754D01*
X32879896Y18177809D01*
X32907407Y18280484D01*
X32907407Y18386780D01*
X32879896Y18489455D01*
X32826748Y18581510D01*
X32751585Y18656673D01*
X32659530Y18709821D01*
X32556855Y18737332D01*
X32450559Y18737332D01*
X32347884Y18709821D01*
X32347882Y18709820D01*
X32347881Y18709820D01*
X32255832Y18656675D01*
X32255829Y18656673D01*
X32229211Y18630055D01*
X32223882Y18627146D01*
X32220480Y18622118D01*
X32193575Y18610598D01*
X32167887Y18596571D01*
X32161830Y18597005D01*
X32156251Y18594615D01*
X32127391Y18599469D01*
X32098196Y18601557D01*
X32093336Y18605196D01*
X32087349Y18606202D01*
X32065691Y18625891D01*
X32042263Y18643429D01*
X32038992Y18650162D01*
X32035649Y18653201D01*
X32021756Y18685646D01*
X32004225Y18751075D01*
X32000000Y18783167D01*
X32000000Y19167279D01*
X32019685Y19234318D01*
X32072489Y19280073D01*
X32141647Y19290017D01*
X32185999Y19274667D01*
X32224878Y19252219D01*
X32340269Y19221300D01*
X32340271Y19221300D01*
X32459728Y19221300D01*
X32459731Y19221300D01*
X32575122Y19252219D01*
X32678578Y19311950D01*
X32763050Y19396422D01*
X32822781Y19499878D01*
X32853700Y19615269D01*
X32853700Y19734731D01*
X32822781Y19850122D01*
X32763050Y19953578D01*
X32678578Y20038050D01*
X32575122Y20097781D01*
X32459731Y20128700D01*
X32340269Y20128700D01*
X32224878Y20097781D01*
X32224876Y20097781D01*
X32224876Y20097780D01*
X32121422Y20038050D01*
X32121419Y20038048D01*
X32036952Y19953581D01*
X32036950Y19953578D01*
X31977219Y19850122D01*
X31946300Y19734731D01*
X31946300Y19615269D01*
X31977219Y19499878D01*
X31977220Y19499877D01*
X32014099Y19436001D01*
X32030572Y19368101D01*
X32007720Y19302074D01*
X31952799Y19258883D01*
X31906712Y19250000D01*
X29301362Y19250000D01*
X29234323Y19269685D01*
X29213681Y19286319D01*
X29000000Y19500000D01*
X28301362Y19500000D01*
X28234323Y19519685D01*
X28213681Y19536319D01*
X27500000Y20250000D01*
X26573540Y20250000D01*
X26559731Y20253700D01*
X26440269Y20253700D01*
X26426460Y20250000D01*
X25389863Y20250000D01*
X25367819Y20252902D01*
X25367785Y20252639D01*
X25359734Y20253699D01*
X25359731Y20253700D01*
X25240269Y20253700D01*
X25240265Y20253699D01*
X25232215Y20252639D01*
X25232180Y20252902D01*
X25210137Y20250000D01*
X24173540Y20250000D01*
X24159731Y20253700D01*
X24040269Y20253700D01*
X24026460Y20250000D01*
X23874000Y20250000D01*
X23806961Y20269685D01*
X23761206Y20322489D01*
X23750000Y20374000D01*
X23750000Y21553148D01*
X31096300Y21553148D01*
X31096300Y21446852D01*
X31123811Y21344177D01*
X31176959Y21252122D01*
X31252122Y21176959D01*
X31344177Y21123811D01*
X31446852Y21096300D01*
X31446854Y21096300D01*
X31553146Y21096300D01*
X31553148Y21096300D01*
X31655823Y21123811D01*
X31747878Y21176959D01*
X31823041Y21252122D01*
X31876189Y21344177D01*
X31903700Y21446852D01*
X31903700Y21553148D01*
X31876189Y21655823D01*
X31823041Y21747878D01*
X31767771Y21803148D01*
X33596300Y21803148D01*
X33596300Y21696852D01*
X33623811Y21594177D01*
X33676959Y21502122D01*
X33752122Y21426959D01*
X33844177Y21373811D01*
X33946852Y21346300D01*
X33946854Y21346300D01*
X34053146Y21346300D01*
X34053148Y21346300D01*
X34155823Y21373811D01*
X34247878Y21426959D01*
X34323041Y21502122D01*
X34376189Y21594177D01*
X34403700Y21696852D01*
X34403700Y21696855D01*
X34405720Y21704393D01*
X34442085Y21764054D01*
X34504931Y21794583D01*
X34525495Y21796300D01*
X34603146Y21796300D01*
X34603148Y21796300D01*
X34705823Y21823811D01*
X34797878Y21876959D01*
X34873041Y21952122D01*
X34926189Y22044177D01*
X34953700Y22146852D01*
X34953700Y22153148D01*
X35596300Y22153148D01*
X35596300Y22046852D01*
X35623811Y21944177D01*
X35676959Y21852122D01*
X35752122Y21776959D01*
X35844177Y21723811D01*
X35946852Y21696300D01*
X35946854Y21696300D01*
X36053146Y21696300D01*
X36053148Y21696300D01*
X36155823Y21723811D01*
X36247878Y21776959D01*
X36323041Y21852122D01*
X36376189Y21944177D01*
X36403700Y22046852D01*
X36403700Y22153148D01*
X36376189Y22255823D01*
X36323041Y22347878D01*
X36257772Y22413147D01*
X51526300Y22413147D01*
X51526300Y22306851D01*
X51553811Y22204176D01*
X51606959Y22112121D01*
X51682122Y22036958D01*
X51774177Y21983810D01*
X51876852Y21956299D01*
X51876854Y21956299D01*
X51983146Y21956299D01*
X51983148Y21956299D01*
X52085823Y21983810D01*
X52177878Y22036958D01*
X52253041Y22112121D01*
X52306189Y22204176D01*
X52333700Y22306851D01*
X52333700Y22413147D01*
X52306189Y22515822D01*
X52253041Y22607877D01*
X52177878Y22683040D01*
X52085823Y22736188D01*
X51983148Y22763699D01*
X51876852Y22763699D01*
X51774177Y22736188D01*
X51774175Y22736187D01*
X51774174Y22736187D01*
X51682125Y22683042D01*
X51682119Y22683038D01*
X51606961Y22607880D01*
X51606957Y22607874D01*
X51553812Y22515825D01*
X51553812Y22515824D01*
X51553811Y22515822D01*
X51526300Y22413147D01*
X36257772Y22413147D01*
X36247878Y22423041D01*
X36155823Y22476189D01*
X36053148Y22503700D01*
X35946852Y22503700D01*
X35844177Y22476189D01*
X35844175Y22476188D01*
X35844174Y22476188D01*
X35752125Y22423043D01*
X35752119Y22423039D01*
X35676961Y22347881D01*
X35676957Y22347875D01*
X35623812Y22255826D01*
X35623812Y22255825D01*
X35623811Y22255823D01*
X35596300Y22153148D01*
X34953700Y22153148D01*
X34953700Y22253148D01*
X34926189Y22355823D01*
X34873041Y22447878D01*
X34797878Y22523041D01*
X34705823Y22576189D01*
X34603148Y22603700D01*
X34496852Y22603700D01*
X34394177Y22576189D01*
X34394175Y22576188D01*
X34394174Y22576188D01*
X34302125Y22523043D01*
X34302119Y22523039D01*
X34226961Y22447881D01*
X34226957Y22447875D01*
X34173812Y22355826D01*
X34173812Y22355825D01*
X34173811Y22355823D01*
X34146300Y22253148D01*
X34146300Y22253147D01*
X34144280Y22245607D01*
X34107915Y22185946D01*
X34045069Y22155417D01*
X34024505Y22153700D01*
X33946852Y22153700D01*
X33844177Y22126189D01*
X33844175Y22126188D01*
X33844174Y22126188D01*
X33752125Y22073043D01*
X33752119Y22073039D01*
X33676961Y21997881D01*
X33676957Y21997875D01*
X33623812Y21905826D01*
X33623812Y21905825D01*
X33623811Y21905823D01*
X33596300Y21803148D01*
X31767771Y21803148D01*
X31747878Y21823041D01*
X31655823Y21876189D01*
X31553148Y21903700D01*
X31446852Y21903700D01*
X31344177Y21876189D01*
X31344175Y21876188D01*
X31344174Y21876188D01*
X31252125Y21823043D01*
X31252119Y21823039D01*
X31176961Y21747881D01*
X31176957Y21747875D01*
X31123812Y21655826D01*
X31123812Y21655825D01*
X31123811Y21655823D01*
X31096300Y21553148D01*
X23750000Y21553148D01*
X23750000Y23103148D01*
X29996300Y23103148D01*
X29996300Y22996852D01*
X30023811Y22894177D01*
X30076959Y22802122D01*
X30152122Y22726959D01*
X30244177Y22673811D01*
X30346852Y22646300D01*
X30346854Y22646300D01*
X30453146Y22646300D01*
X30453148Y22646300D01*
X30555823Y22673811D01*
X30647878Y22726959D01*
X30668755Y22747837D01*
X30730074Y22781320D01*
X30799765Y22776337D01*
X30818434Y22767541D01*
X30894177Y22723811D01*
X30996852Y22696300D01*
X30996854Y22696300D01*
X31103146Y22696300D01*
X31103148Y22696300D01*
X31205823Y22723811D01*
X31297878Y22776959D01*
X31373041Y22852122D01*
X31426189Y22944177D01*
X31453700Y23046852D01*
X31453700Y23153148D01*
X31426189Y23255823D01*
X31373041Y23347878D01*
X31297878Y23423041D01*
X31205823Y23476189D01*
X31103148Y23503700D01*
X30996852Y23503700D01*
X30894177Y23476189D01*
X30894175Y23476188D01*
X30894174Y23476188D01*
X30802125Y23423043D01*
X30802121Y23423041D01*
X30781242Y23402162D01*
X30719918Y23368680D01*
X30650226Y23373667D01*
X30631564Y23382460D01*
X30555825Y23426188D01*
X30555824Y23426189D01*
X30555823Y23426189D01*
X30453148Y23453700D01*
X30346852Y23453700D01*
X30244177Y23426189D01*
X30244175Y23426188D01*
X30244174Y23426188D01*
X30152125Y23373043D01*
X30152119Y23373039D01*
X30076961Y23297881D01*
X30076957Y23297875D01*
X30023812Y23205826D01*
X30023812Y23205825D01*
X30023811Y23205823D01*
X29996300Y23103148D01*
X23750000Y23103148D01*
X23750000Y23953148D01*
X31646300Y23953148D01*
X31646300Y23846852D01*
X31673811Y23744177D01*
X31726959Y23652122D01*
X31802122Y23576959D01*
X31894177Y23523811D01*
X31996852Y23496300D01*
X31996854Y23496300D01*
X32103146Y23496300D01*
X32103148Y23496300D01*
X32205823Y23523811D01*
X32297878Y23576959D01*
X32373041Y23652122D01*
X32426189Y23744177D01*
X32430225Y23759244D01*
X32466589Y23818903D01*
X32529435Y23849433D01*
X32598811Y23841139D01*
X32652690Y23796654D01*
X32669773Y23759245D01*
X32673811Y23744177D01*
X32726959Y23652122D01*
X32802122Y23576959D01*
X32894177Y23523811D01*
X32996852Y23496300D01*
X32996854Y23496300D01*
X33103146Y23496300D01*
X33103148Y23496300D01*
X33205823Y23523811D01*
X33297878Y23576959D01*
X33373041Y23652122D01*
X33426189Y23744177D01*
X33453700Y23846852D01*
X33453700Y23953148D01*
X33696300Y23953148D01*
X33696300Y23846852D01*
X33723811Y23744177D01*
X33776959Y23652122D01*
X33852122Y23576959D01*
X33944177Y23523811D01*
X34046852Y23496300D01*
X34046854Y23496300D01*
X34153146Y23496300D01*
X34153148Y23496300D01*
X34255823Y23523811D01*
X34347878Y23576959D01*
X34423041Y23652122D01*
X34476189Y23744177D01*
X34503700Y23846852D01*
X34503700Y23953148D01*
X34476189Y24055823D01*
X34423041Y24147878D01*
X34347878Y24223041D01*
X34255823Y24276189D01*
X34153148Y24303700D01*
X34046852Y24303700D01*
X33944177Y24276189D01*
X33944175Y24276188D01*
X33944174Y24276188D01*
X33852125Y24223043D01*
X33852119Y24223039D01*
X33776961Y24147881D01*
X33776957Y24147875D01*
X33723812Y24055826D01*
X33723812Y24055825D01*
X33723811Y24055823D01*
X33696300Y23953148D01*
X33453700Y23953148D01*
X33426189Y24055823D01*
X33373041Y24147878D01*
X33297878Y24223041D01*
X33205823Y24276189D01*
X33103148Y24303700D01*
X32996852Y24303700D01*
X32894177Y24276189D01*
X32894175Y24276188D01*
X32894174Y24276188D01*
X32802125Y24223043D01*
X32802119Y24223039D01*
X32726961Y24147881D01*
X32726957Y24147875D01*
X32673812Y24055826D01*
X32673812Y24055825D01*
X32673811Y24055823D01*
X32669774Y24040757D01*
X32633410Y23981097D01*
X32570563Y23950568D01*
X32501188Y23958863D01*
X32447310Y24003348D01*
X32430226Y24040756D01*
X32426189Y24055823D01*
X32373041Y24147878D01*
X32297878Y24223041D01*
X32205823Y24276189D01*
X32103148Y24303700D01*
X31996852Y24303700D01*
X31894177Y24276189D01*
X31894175Y24276188D01*
X31894174Y24276188D01*
X31802125Y24223043D01*
X31802119Y24223039D01*
X31726961Y24147881D01*
X31726957Y24147875D01*
X31673812Y24055826D01*
X31673812Y24055825D01*
X31673811Y24055823D01*
X31646300Y23953148D01*
X23750000Y23953148D01*
X23750000Y28353148D01*
X41096300Y28353148D01*
X41096300Y28246852D01*
X41123811Y28144177D01*
X41176959Y28052122D01*
X41252122Y27976959D01*
X41344177Y27923811D01*
X41446852Y27896300D01*
X41446854Y27896300D01*
X41553146Y27896300D01*
X41553148Y27896300D01*
X41655823Y27923811D01*
X41747878Y27976959D01*
X41823041Y28052122D01*
X41876189Y28144177D01*
X41903700Y28246852D01*
X41903700Y28353148D01*
X41876189Y28455823D01*
X41823041Y28547878D01*
X41747878Y28623041D01*
X41686508Y28658473D01*
X41655825Y28676188D01*
X41655824Y28676189D01*
X41655823Y28676189D01*
X41553148Y28703700D01*
X41446852Y28703700D01*
X41344177Y28676189D01*
X41344175Y28676188D01*
X41344174Y28676188D01*
X41252125Y28623043D01*
X41252119Y28623039D01*
X41176961Y28547881D01*
X41176957Y28547875D01*
X41123812Y28455826D01*
X41123812Y28455825D01*
X41123811Y28455823D01*
X41096300Y28353148D01*
X23750000Y28353148D01*
X23750000Y28822300D01*
X23769685Y28889339D01*
X23822489Y28935094D01*
X23874000Y28946300D01*
X47052131Y28946300D01*
X47119170Y28926615D01*
X47139812Y28909981D01*
X48409981Y27639812D01*
X48443466Y27578489D01*
X48446300Y27552131D01*
X48446300Y26536564D01*
X48446300Y26443434D01*
X48470404Y26353476D01*
X48516970Y26272822D01*
X48516972Y26272820D01*
X49418674Y25371118D01*
X49426690Y25357235D01*
X49436873Y25347978D01*
X49450767Y25315534D01*
X49451680Y25312127D01*
X49450019Y25242277D01*
X49410858Y25184413D01*
X49363999Y25160256D01*
X49274177Y25136188D01*
X49274175Y25136187D01*
X49274174Y25136187D01*
X49182125Y25083042D01*
X49182119Y25083038D01*
X49106961Y25007880D01*
X49106957Y25007874D01*
X49053812Y24915825D01*
X49053812Y24915824D01*
X49053811Y24915822D01*
X49026300Y24813147D01*
X49026300Y24706851D01*
X49053811Y24604176D01*
X49106959Y24512121D01*
X49182122Y24436958D01*
X49274177Y24383810D01*
X49376852Y24356299D01*
X49376854Y24356299D01*
X49483146Y24356299D01*
X49483148Y24356299D01*
X49585823Y24383810D01*
X49636636Y24413147D01*
X52426300Y24413147D01*
X52426300Y24306851D01*
X52453811Y24204176D01*
X52506959Y24112121D01*
X52506961Y24112119D01*
X52521400Y24097680D01*
X52554885Y24036357D01*
X52549901Y23966665D01*
X52521400Y23922318D01*
X52506961Y23907880D01*
X52506957Y23907874D01*
X52453812Y23815825D01*
X52453812Y23815824D01*
X52453811Y23815822D01*
X52426300Y23713147D01*
X52426300Y23606851D01*
X52453811Y23504176D01*
X52506959Y23412121D01*
X52582122Y23336958D01*
X52674177Y23283810D01*
X52776852Y23256299D01*
X52776854Y23256299D01*
X52883146Y23256299D01*
X52883148Y23256299D01*
X52985823Y23283810D01*
X53077878Y23336958D01*
X53153041Y23412121D01*
X53206189Y23504176D01*
X53233700Y23606851D01*
X53233700Y23713147D01*
X53206189Y23815822D01*
X53153041Y23907877D01*
X53138600Y23922318D01*
X53105115Y23983641D01*
X53110099Y24053333D01*
X53138600Y24097680D01*
X53153041Y24112121D01*
X53206189Y24204176D01*
X53233700Y24306851D01*
X53233700Y24413147D01*
X53206189Y24515822D01*
X53153041Y24607877D01*
X53077878Y24683040D01*
X52985823Y24736188D01*
X52883148Y24763699D01*
X52776852Y24763699D01*
X52674177Y24736188D01*
X52674175Y24736187D01*
X52674174Y24736187D01*
X52582125Y24683042D01*
X52582119Y24683038D01*
X52506961Y24607880D01*
X52506957Y24607874D01*
X52453812Y24515825D01*
X52453812Y24515824D01*
X52453811Y24515822D01*
X52426300Y24413147D01*
X49636636Y24413147D01*
X49677878Y24436958D01*
X49753041Y24512121D01*
X49806189Y24604176D01*
X49833700Y24706851D01*
X49833700Y24813147D01*
X49808317Y24907880D01*
X49809980Y24977724D01*
X49849142Y25035587D01*
X49895996Y25059742D01*
X49985823Y25083810D01*
X50077878Y25136958D01*
X50153041Y25212121D01*
X50206189Y25304176D01*
X50233700Y25406851D01*
X50233700Y25513147D01*
X51826300Y25513147D01*
X51826300Y25406851D01*
X51853811Y25304176D01*
X51906959Y25212121D01*
X51982122Y25136958D01*
X52074177Y25083810D01*
X52176852Y25056299D01*
X52176854Y25056299D01*
X52283146Y25056299D01*
X52283148Y25056299D01*
X52385823Y25083810D01*
X52477878Y25136958D01*
X52553041Y25212121D01*
X52606189Y25304176D01*
X52633700Y25406851D01*
X52633700Y25513147D01*
X52606189Y25615822D01*
X52553041Y25707877D01*
X52477878Y25783040D01*
X52385823Y25836188D01*
X52283148Y25863699D01*
X52176852Y25863699D01*
X52074177Y25836188D01*
X52074175Y25836187D01*
X52074174Y25836187D01*
X51982125Y25783042D01*
X51982119Y25783038D01*
X51906961Y25707880D01*
X51906957Y25707874D01*
X51853812Y25615825D01*
X51853812Y25615824D01*
X51853811Y25615822D01*
X51826300Y25513147D01*
X50233700Y25513147D01*
X50206189Y25615822D01*
X50153041Y25707877D01*
X50077878Y25783040D01*
X49985823Y25836188D01*
X49974464Y25839232D01*
X49918881Y25871325D01*
X49190019Y26600187D01*
X49156534Y26661510D01*
X49153700Y26687868D01*
X49153700Y27796563D01*
X49153700Y27796565D01*
X49129596Y27886523D01*
X49083030Y27967177D01*
X49017177Y28033030D01*
X48747059Y28303148D01*
X49246300Y28303148D01*
X49246300Y28196852D01*
X49273811Y28094177D01*
X49326959Y28002122D01*
X49402122Y27926959D01*
X49494177Y27873811D01*
X49596852Y27846300D01*
X49596854Y27846300D01*
X49703146Y27846300D01*
X49703148Y27846300D01*
X49805823Y27873811D01*
X49897878Y27926959D01*
X49973041Y28002122D01*
X50026189Y28094177D01*
X50053700Y28196852D01*
X50053700Y28303148D01*
X50026906Y28403148D01*
X51896300Y28403148D01*
X51896300Y28296852D01*
X51923811Y28194177D01*
X51976959Y28102122D01*
X52052122Y28026959D01*
X52144177Y27973811D01*
X52246852Y27946300D01*
X52246854Y27946300D01*
X52353146Y27946300D01*
X52353148Y27946300D01*
X52455823Y27973811D01*
X52547878Y28026959D01*
X52623041Y28102122D01*
X52676189Y28194177D01*
X52703700Y28296852D01*
X52703700Y28403148D01*
X52676189Y28505823D01*
X52623041Y28597878D01*
X52547878Y28673041D01*
X52455823Y28726189D01*
X52353148Y28753700D01*
X52246852Y28753700D01*
X52144177Y28726189D01*
X52144175Y28726188D01*
X52144174Y28726188D01*
X52052125Y28673043D01*
X52052119Y28673039D01*
X51976961Y28597881D01*
X51976957Y28597875D01*
X51923812Y28505826D01*
X51923812Y28505825D01*
X51923811Y28505823D01*
X51896300Y28403148D01*
X50026906Y28403148D01*
X50026189Y28405823D01*
X49973041Y28497878D01*
X49897878Y28573041D01*
X49811279Y28623039D01*
X49805825Y28626188D01*
X49805824Y28626189D01*
X49805823Y28626189D01*
X49703148Y28653700D01*
X49596852Y28653700D01*
X49494177Y28626189D01*
X49494175Y28626188D01*
X49494174Y28626188D01*
X49402125Y28573043D01*
X49402119Y28573039D01*
X49326961Y28497881D01*
X49326957Y28497875D01*
X49273812Y28405826D01*
X49273812Y28405825D01*
X49273811Y28405823D01*
X49246300Y28303148D01*
X48747059Y28303148D01*
X47637388Y29412819D01*
X47603903Y29474142D01*
X47608887Y29543834D01*
X47650759Y29599767D01*
X47716223Y29624184D01*
X47725069Y29624500D01*
X51377405Y29624500D01*
X51421249Y29624500D01*
X51428736Y29624274D01*
G37*
%TD.AperFunction*%
%TD*%
M02*
