%TF.GenerationSoftware,KiCad,Pcbnew,9.0.7*%
%TF.CreationDate,2026-02-28T14:03:02+01:00*%
%TF.ProjectId,PDNode-PDCard-4242,50444e6f-6465-42d5-9044-436172642d34,rev?*%
%TF.SameCoordinates,Original*%
%TF.FileFunction,Copper,L2,Inr*%
%TF.FilePolarity,Positive*%
%FSLAX46Y46*%
G04 Gerber Fmt 4.6, Leading zero omitted, Abs format (unit mm)*
G04 Created by KiCad (PCBNEW 9.0.7) date 2026-02-28 14:03:02*
%MOMM*%
%LPD*%
G01*
G04 APERTURE LIST*
%TA.AperFunction,HeatsinkPad*%
%ADD10O,2.100000X1.000000*%
%TD*%
%TA.AperFunction,HeatsinkPad*%
%ADD11O,1.600000X1.000000*%
%TD*%
%TA.AperFunction,ComponentPad*%
%ADD12C,0.700000*%
%TD*%
%TA.AperFunction,ComponentPad*%
%ADD13C,4.400000*%
%TD*%
%TA.AperFunction,ViaPad*%
%ADD14C,0.400000*%
%TD*%
%TA.AperFunction,ViaPad*%
%ADD15C,0.450000*%
%TD*%
%TA.AperFunction,ViaPad*%
%ADD16C,0.500000*%
%TD*%
%TA.AperFunction,Conductor*%
%ADD17C,0.174000*%
%TD*%
G04 APERTURE END LIST*
D10*
%TO.N,SHIELD*%
%TO.C,J1*%
X2180000Y20520000D03*
D11*
X-2000000Y20520000D03*
D10*
X2180000Y11880000D03*
D11*
X-2000000Y11880000D03*
%TD*%
D12*
%TO.N,GND*%
%TO.C,H1*%
X-2055000Y4950000D03*
X-1571726Y6116726D03*
X-1571726Y3783274D03*
X-405000Y6600000D03*
D13*
X-405000Y4950000D03*
D12*
X-405000Y3300000D03*
X761726Y6116726D03*
X761726Y3783274D03*
X1245000Y4950000D03*
%TD*%
%TO.N,GND*%
%TO.C,H2*%
X-2055000Y26950000D03*
X-1571726Y28116726D03*
X-1571726Y25783274D03*
X-405000Y28600000D03*
D13*
X-405000Y26950000D03*
D12*
X-405000Y25300000D03*
X761726Y28116726D03*
X761726Y25783274D03*
X1245000Y26950000D03*
%TD*%
D14*
%TO.N,GND*%
X9950000Y11975000D03*
X9950000Y13025000D03*
D15*
%TO.N,Net-(D2-Pad2)*%
X3400000Y28800000D03*
D14*
%TO.N,+3.3V*%
X20900000Y20100000D03*
D16*
%TO.N,GND*%
X8800000Y28400000D03*
%TO.N,GND_USB*%
X8800000Y23100000D03*
D14*
%TO.N,+3.3V*%
X20900000Y21800000D03*
D16*
%TO.N,+24V_FILTERED*%
X25400000Y25200000D03*
X24200000Y25200000D03*
X24200000Y23600000D03*
D14*
%TO.N,GND*%
X21100000Y24800000D03*
X21100000Y24100000D03*
X13500000Y24200000D03*
X14300000Y26600000D03*
D16*
X25300000Y19800000D03*
%TO.N,+24V_FILTERED*%
X25400000Y21000000D03*
D14*
X36939330Y13545640D03*
X36939330Y9645640D03*
X36039330Y10495640D03*
D16*
X27800000Y22200000D03*
X25400000Y23600000D03*
X36800000Y27800000D03*
D14*
X36039330Y11245640D03*
D16*
X27800000Y25200000D03*
X38000000Y26600000D03*
D14*
X36939330Y11245640D03*
D16*
X26600000Y21000000D03*
X36800000Y25400000D03*
X29200000Y22200000D03*
X29000000Y26600000D03*
X27800000Y26600000D03*
D14*
X36039330Y9645640D03*
D16*
X29975000Y19400000D03*
D14*
X36939330Y12795640D03*
D16*
X30775000Y19400000D03*
X31575000Y19400000D03*
X25400000Y26600000D03*
D14*
X36039330Y13545640D03*
X36939330Y11995640D03*
D16*
X38000000Y25400000D03*
X24200000Y21000000D03*
X24200000Y26600000D03*
X29200000Y23600000D03*
X39200000Y27800000D03*
X26600000Y25200000D03*
X38000000Y27800000D03*
D14*
X36039330Y12795640D03*
D16*
X25400000Y22200000D03*
X39200000Y25400000D03*
X29000000Y25200000D03*
X26600000Y22200000D03*
X24200000Y22200000D03*
X26600000Y23600000D03*
X27800000Y23600000D03*
X29200000Y21000000D03*
X39200000Y26600000D03*
X27800000Y21000000D03*
X26600000Y26600000D03*
D14*
X36939330Y10495640D03*
D16*
X36800000Y26600000D03*
D14*
X36039330Y11995640D03*
D16*
X28474507Y19736811D03*
D14*
%TO.N,GND*%
X19600000Y25500000D03*
X18900000Y29000000D03*
D16*
X26350000Y16851000D03*
D14*
X20400000Y24800000D03*
X7800000Y4500000D03*
X11800000Y9950000D03*
X27300000Y12900000D03*
D16*
X10400000Y29100000D03*
D14*
X30671455Y6401869D03*
D16*
X7200000Y28400000D03*
D14*
X34000000Y21750000D03*
X16000000Y6600000D03*
X27300000Y12200000D03*
D16*
X7200000Y29100000D03*
X8800000Y29100000D03*
D14*
X20900000Y20800000D03*
D15*
X4400000Y24400000D03*
D14*
X27300000Y11500000D03*
D16*
X27798351Y17464383D03*
D14*
X31671455Y6401869D03*
X33050000Y23900000D03*
D16*
X25300000Y16900000D03*
X10400000Y28400000D03*
D14*
X25800000Y12200000D03*
X29200000Y12900000D03*
X20400000Y25500000D03*
X32050000Y23900000D03*
X13200000Y29000000D03*
X19600000Y24100000D03*
D15*
X4800000Y15800000D03*
X9000000Y18380000D03*
D16*
X29975000Y18100000D03*
D14*
X29200000Y12200000D03*
X32671455Y6401869D03*
X34100000Y23900000D03*
D16*
X8000000Y28400000D03*
X25398351Y18332062D03*
D14*
X33671455Y7751869D03*
D16*
X32400000Y16975000D03*
X31575000Y18600000D03*
X29000000Y18600000D03*
D14*
X21000000Y19200000D03*
X20400000Y24100000D03*
D15*
X5076587Y24409366D03*
D16*
X30775000Y18600000D03*
D14*
X37500000Y15300000D03*
D15*
X2800000Y7200000D03*
X7450000Y16700000D03*
D14*
X28500000Y12900000D03*
X17675000Y6600000D03*
X31671455Y7051869D03*
D15*
X7880000Y14700000D03*
D16*
X31575000Y18100000D03*
X9600000Y29100000D03*
D14*
X26600000Y12200000D03*
D16*
X27798351Y18332062D03*
D15*
X7900000Y18750000D03*
D14*
X33671455Y6401869D03*
D15*
X9000000Y15070000D03*
D14*
X19600000Y24800000D03*
X14800000Y13700000D03*
X15800000Y20800000D03*
D16*
X26598351Y18332062D03*
D14*
X-2600000Y8200000D03*
X32671455Y7751869D03*
D16*
X9600000Y28400000D03*
X8000000Y29100000D03*
D15*
X3200000Y25000000D03*
D14*
X26600000Y11500000D03*
X25800000Y11500000D03*
D15*
X6400000Y8400000D03*
X4000000Y8000000D03*
D14*
X28500000Y12200000D03*
X16850000Y7400000D03*
D16*
X24198351Y18332062D03*
D14*
X30671455Y7051869D03*
X21100000Y25500000D03*
D16*
X26500000Y19800000D03*
D14*
X30671455Y7751869D03*
D15*
X4800000Y17588000D03*
X11350000Y17650000D03*
D14*
X13000000Y20300000D03*
X16850000Y6600000D03*
X7000000Y5300000D03*
X36000000Y22100000D03*
X31671455Y7751869D03*
D16*
X24100000Y19800000D03*
X24100000Y16900000D03*
D15*
X11350000Y15700000D03*
D16*
X30775000Y18100000D03*
X29975000Y18600000D03*
X32400000Y19675000D03*
D15*
X4000000Y6400000D03*
D14*
X16000000Y7350000D03*
X13627977Y17111882D03*
X32671455Y7051869D03*
D16*
X27800000Y19200000D03*
D14*
X26600000Y12900000D03*
X25800000Y12900000D03*
X33671455Y7051869D03*
D16*
%TO.N,/Project Architecture/USB-PD Source Controller/PD_OUT*%
X23000000Y14500000D03*
X21600000Y14500000D03*
X28484363Y16874240D03*
X14000000Y10200000D03*
X20400000Y10400000D03*
X26600000Y14800000D03*
X31575000Y17350000D03*
X14000000Y11800000D03*
X23000000Y11750000D03*
X23000000Y10400000D03*
X21600000Y10400000D03*
X27400000Y15801000D03*
X25400000Y14800000D03*
X26600000Y15800000D03*
X24200000Y15800000D03*
X28600000Y14800000D03*
X30775000Y17350000D03*
X19200000Y10400000D03*
X20400000Y11750000D03*
X27600000Y14800000D03*
X14700000Y11000000D03*
X29975000Y17350000D03*
X19200000Y13150000D03*
X20400000Y13150000D03*
X14000000Y11000000D03*
X25400000Y15800000D03*
X21600000Y13150000D03*
X21600000Y11750000D03*
X19200000Y11750000D03*
X14700000Y10200000D03*
X23000000Y13150000D03*
X20400000Y14500000D03*
X24200000Y14800000D03*
X19200000Y14500000D03*
X14700000Y11800000D03*
D14*
%TO.N,/Project Architecture/USB-PD Source Controller/VDRV*%
X41500000Y28300000D03*
X34550000Y22200000D03*
%TO.N,+5V*%
X16100000Y28200000D03*
X14800000Y28200000D03*
X32508538Y14997753D03*
X17200000Y28200000D03*
X22700000Y6450000D03*
X14650000Y8150000D03*
D15*
%TO.N,PGOOD_3V3*%
X3200000Y3800000D03*
X16000000Y10000000D03*
D14*
%TO.N,+3.3V*%
X17600000Y23700000D03*
D15*
X3462039Y27737961D03*
D14*
X13000000Y19300000D03*
X13000000Y21300000D03*
X17600000Y24700000D03*
D15*
X5600000Y7400000D03*
D14*
%TO.N,/Project Architecture/USB-PD Source Controller/PD_CC2*%
X13350000Y15664999D03*
X29450000Y15450000D03*
X18800000Y15175000D03*
D15*
%TO.N,/Project Architecture/USB-PD Source Controller/USB_D+*%
X-76703Y16720739D03*
X11350000Y16350000D03*
X4796772Y16400000D03*
D14*
X30973574Y14199000D03*
D15*
%TO.N,/Project Architecture/USB-PD Source Controller/USB_D-*%
X11350000Y17050000D03*
D14*
X31575000Y14200000D03*
D15*
X415893Y17233338D03*
X4796772Y17000000D03*
D14*
%TO.N,/Project Architecture/USB-PD Source Controller/PD_CC1*%
X32161688Y14448030D03*
X22700000Y16850000D03*
X15925000Y17025000D03*
X19091054Y17033946D03*
%TO.N,/Project Architecture/USB-PD Source Controller/I2C_SDA*%
X25200000Y10600000D03*
X33521446Y14971446D03*
X19000000Y7650000D03*
X14681389Y22342319D03*
D15*
%TO.N,/Project Architecture/USB-PD Source Controller/PD_ENABLE*%
X12800000Y23600000D03*
D14*
X21350000Y7900000D03*
X32503707Y18333632D03*
X21859898Y20782909D03*
%TO.N,/Project Architecture/USB-PD Source Controller/PD_ATTACH*%
X31500000Y21500000D03*
X22900000Y20800000D03*
X21550000Y8500000D03*
D16*
%TO.N,GND_USB*%
X10400000Y22400000D03*
X8800000Y22400000D03*
D14*
X887500Y13000000D03*
X-1200000Y19400000D03*
D16*
X1654826Y23093833D03*
X8000000Y23100000D03*
D14*
X200000Y19400000D03*
X3787500Y13000000D03*
D16*
X7200000Y23100000D03*
X854826Y23093833D03*
X10400000Y23100000D03*
D14*
X2400000Y19400000D03*
X3087500Y13000000D03*
X2387500Y13000000D03*
D16*
X8000000Y22400000D03*
D14*
X-500000Y19400000D03*
D16*
X1654826Y22393833D03*
X7200000Y22400000D03*
D14*
X-512500Y13000000D03*
X1800000Y9942500D03*
X1800000Y9057500D03*
D16*
X9600000Y22400000D03*
D14*
X3100000Y19400000D03*
X3800000Y19400000D03*
X187500Y13000000D03*
D16*
X854826Y22393833D03*
D14*
X900000Y19400000D03*
D16*
X9600000Y23100000D03*
D14*
%TO.N,/Project Architecture/USB-PD Source Controller/VBUS*%
X1487500Y13986000D03*
X2399219Y13797973D03*
X-512500Y13797973D03*
D16*
X8746957Y10198351D03*
D14*
X5000000Y18600000D03*
X3100000Y18600000D03*
X-500000Y18600000D03*
X2400000Y18600000D03*
X4999219Y13797973D03*
D16*
X8746957Y11798351D03*
D14*
X4399219Y13797973D03*
X3800000Y18600000D03*
X187500Y13797973D03*
X-1212500Y13797973D03*
X787246Y13986000D03*
X876308Y18414000D03*
D16*
X8046957Y10998351D03*
X8046957Y10198351D03*
D14*
X200000Y18600000D03*
D16*
X8746957Y10998351D03*
X8046957Y11798351D03*
D14*
X3099219Y13797973D03*
X1700000Y18414000D03*
X3799219Y13797973D03*
X-1200000Y18600000D03*
X4400000Y18600000D03*
D15*
%TO.N,/Project Architecture/USB-PD Source Controller/CC1*%
X6950000Y19750000D03*
%TO.N,/Project Architecture/USB-PD Source Controller/CC2*%
X6890000Y14670000D03*
D14*
%TO.N,/Project Architecture/Board Connector and Supplies/VBUS_VMON_PORT0*%
X22950000Y7850000D03*
X7800000Y7290000D03*
%TO.N,+24V*%
X28677175Y7599997D03*
X33550000Y10500000D03*
X28675703Y9030818D03*
X32650000Y10500000D03*
X29674231Y9036639D03*
X30800000Y12950000D03*
X33550000Y9650000D03*
X27674297Y8269182D03*
X28675000Y8275000D03*
X27675769Y6838361D03*
X33550000Y12800000D03*
X32650000Y11250000D03*
X27676472Y7594179D03*
X32650000Y12800000D03*
X32650000Y9650000D03*
X24675000Y7550000D03*
X29675703Y7605818D03*
X27675000Y9025000D03*
X30800000Y12250000D03*
X28676472Y6844179D03*
X24675000Y8225000D03*
X29673528Y8280821D03*
X24675000Y6850000D03*
X29675000Y6850000D03*
X33550000Y12000000D03*
X32650000Y12000000D03*
X33550000Y11250000D03*
%TO.N,/Project Architecture/Board Connector and Supplies/PORT_EN*%
X1000000Y8200000D03*
D15*
X4000000Y28200000D03*
D14*
X20850000Y7350000D03*
%TO.N,/Project Architecture/USB-PD Source Controller/ISEN+*%
X12750000Y25250000D03*
X30400000Y23050000D03*
%TO.N,/Project Architecture/USB-PD Source Controller/ISEN-*%
X12750000Y26250000D03*
X31050000Y23100000D03*
%TO.N,/Project Architecture/USB-PD Source Controller/I2C_SCL*%
X24900000Y10037639D03*
X34200000Y15000000D03*
X19400000Y8150000D03*
X16262500Y19875000D03*
%TD*%
D17*
%TO.N,GND*%
X4800000Y15800000D02*
X6550000Y15800000D01*
X4800000Y17588000D02*
X6562000Y17588000D01*
X6562000Y17588000D02*
X7450000Y16700000D01*
X6550000Y15800000D02*
X7450000Y16700000D01*
%TD*%
%TA.AperFunction,Conductor*%
%TO.N,GND*%
G36*
X30496422Y17713050D02*
G01*
X30496419Y17713048D01*
X30462681Y17679309D01*
X30401358Y17645824D01*
X30331666Y17650808D01*
X30287319Y17679309D01*
X30253580Y17713048D01*
X30253578Y17713050D01*
X30189579Y17750000D01*
X30560420Y17750000D01*
X30496422Y17713050D01*
G37*
%TD.AperFunction*%
%TA.AperFunction,Conductor*%
G36*
X31296422Y17713050D02*
G01*
X31296419Y17713048D01*
X31262681Y17679309D01*
X31201358Y17645824D01*
X31131666Y17650808D01*
X31087319Y17679309D01*
X31053580Y17713048D01*
X31053578Y17713050D01*
X30989579Y17750000D01*
X31360420Y17750000D01*
X31296422Y17713050D01*
G37*
%TD.AperFunction*%
%TA.AperFunction,Conductor*%
G36*
X30418334Y19099192D02*
G01*
X30462681Y19070691D01*
X30496422Y19036950D01*
X30560421Y19000000D01*
X30189579Y19000000D01*
X30253578Y19036950D01*
X30287319Y19070691D01*
X30348642Y19104176D01*
X30418334Y19099192D01*
G37*
%TD.AperFunction*%
%TA.AperFunction,Conductor*%
G36*
X31218334Y19099192D02*
G01*
X31262681Y19070691D01*
X31296422Y19036950D01*
X31360421Y19000000D01*
X30989579Y19000000D01*
X31053578Y19036950D01*
X31087319Y19070691D01*
X31148642Y19104176D01*
X31218334Y19099192D01*
G37*
%TD.AperFunction*%
%TA.AperFunction,Conductor*%
G36*
X51428736Y29624274D02*
G01*
X51682638Y29608916D01*
X51697495Y29607112D01*
X51944000Y29561939D01*
X51958536Y29558356D01*
X52197791Y29483800D01*
X52211788Y29478492D01*
X52440319Y29375639D01*
X52453578Y29368680D01*
X52560808Y29303857D01*
X52668045Y29239030D01*
X52680356Y29230532D01*
X52682695Y29228700D01*
X52877636Y29075973D01*
X52888844Y29066043D01*
X53066042Y28888845D01*
X53075972Y28877637D01*
X53212243Y28703700D01*
X53230527Y28680363D01*
X53239033Y28668040D01*
X53368679Y28453579D01*
X53375638Y28440320D01*
X53478491Y28211789D01*
X53483800Y28197789D01*
X53558354Y27958539D01*
X53561938Y27943999D01*
X53607110Y27697500D01*
X53608915Y27682636D01*
X53624274Y27428737D01*
X53624500Y27421250D01*
X53624500Y3929428D01*
X53624184Y3920582D01*
X53607834Y3691983D01*
X53605316Y3674471D01*
X53557543Y3454863D01*
X53552559Y3437888D01*
X53474019Y3227312D01*
X53466669Y3211218D01*
X53358959Y3013964D01*
X53349394Y2999081D01*
X53214710Y2819164D01*
X53203124Y2805793D01*
X53044207Y2646876D01*
X53030836Y2635290D01*
X52850919Y2500606D01*
X52836036Y2491041D01*
X52638782Y2383331D01*
X52622688Y2375981D01*
X52412112Y2297441D01*
X52395137Y2292457D01*
X52175529Y2244684D01*
X52158017Y2242166D01*
X51929418Y2225816D01*
X51920572Y2225500D01*
X40931093Y2225500D01*
X40918939Y2226097D01*
X40868081Y2231107D01*
X40800688Y2237744D01*
X40776848Y2242486D01*
X40668997Y2275202D01*
X40646541Y2284504D01*
X40547150Y2337630D01*
X40526940Y2351134D01*
X40439820Y2422631D01*
X40422630Y2439821D01*
X40351133Y2526941D01*
X40337629Y2547151D01*
X40298441Y2620466D01*
X40284501Y2646547D01*
X40275201Y2668998D01*
X40255881Y2732689D01*
X40242483Y2776855D01*
X40237744Y2800683D01*
X40226097Y2918939D01*
X40225500Y2931093D01*
X40225500Y7467786D01*
X40225474Y7468169D01*
X40225467Y7497963D01*
X40225462Y7522752D01*
X40225293Y7523813D01*
X40211118Y7613039D01*
X40193243Y7725549D01*
X40129600Y7920777D01*
X40080908Y8015996D01*
X40036112Y8103597D01*
X40028992Y8113357D01*
X39915090Y8269488D01*
X39769538Y8414330D01*
X39603061Y8534538D01*
X39542368Y8565201D01*
X39419788Y8627131D01*
X39419779Y8627135D01*
X39224243Y8689822D01*
X39021297Y8721048D01*
X39021294Y8721048D01*
X39020431Y8721044D01*
X38965998Y8720792D01*
X38965820Y8720802D01*
X38907361Y8720516D01*
X38907362Y8720515D01*
X38871031Y8720337D01*
X38871030Y8720337D01*
X34824561Y8700501D01*
X34824560Y8700502D01*
X34824156Y8700500D01*
X34785438Y8700500D01*
X34784712Y8700306D01*
X34783965Y8700302D01*
X34783961Y8700302D01*
X34783957Y8700301D01*
X34747010Y8690206D01*
X34746427Y8690048D01*
X34709014Y8680023D01*
X34708088Y8679639D01*
X34708086Y8679639D01*
X34708082Y8679637D01*
X34707663Y8679464D01*
X34674381Y8660033D01*
X34674382Y8660032D01*
X34674026Y8659824D01*
X34640489Y8640460D01*
X34639959Y8639931D01*
X34639313Y8639553D01*
X34639302Y8639543D01*
X34639302Y8639542D01*
X34612185Y8612159D01*
X34611759Y8611732D01*
X34140489Y8140460D01*
X34084541Y8084513D01*
X34084535Y8084505D01*
X34044982Y8015996D01*
X34044979Y8015991D01*
X34035852Y7981927D01*
X34026685Y7947714D01*
X34024500Y7939561D01*
X34024500Y6124000D01*
X34004815Y6056961D01*
X33952011Y6011206D01*
X33900500Y6000000D01*
X27549500Y6000000D01*
X27482461Y6019685D01*
X27436706Y6072489D01*
X27425500Y6124000D01*
X27425500Y6325880D01*
X27445185Y6392919D01*
X27497989Y6438674D01*
X27567147Y6448618D01*
X27581576Y6445659D01*
X27622621Y6434661D01*
X27622624Y6434661D01*
X27728915Y6434661D01*
X27728917Y6434661D01*
X27831592Y6462172D01*
X27923647Y6515320D01*
X27998810Y6590483D01*
X28051958Y6682538D01*
X28057125Y6701825D01*
X28093486Y6761482D01*
X28156332Y6792013D01*
X28225707Y6783721D01*
X28279587Y6739238D01*
X28296673Y6701829D01*
X28300283Y6688356D01*
X28353431Y6596301D01*
X28428594Y6521138D01*
X28520649Y6467990D01*
X28623324Y6440479D01*
X28623326Y6440479D01*
X28729618Y6440479D01*
X28729620Y6440479D01*
X28832295Y6467990D01*
X28924350Y6521138D01*
X28999513Y6596301D01*
X29052661Y6688356D01*
X29056741Y6703586D01*
X29093101Y6763243D01*
X29155947Y6793774D01*
X29225323Y6785482D01*
X29279203Y6740999D01*
X29296288Y6703591D01*
X29298811Y6694177D01*
X29351959Y6602122D01*
X29427122Y6526959D01*
X29519177Y6473811D01*
X29621852Y6446300D01*
X29621854Y6446300D01*
X29728146Y6446300D01*
X29728148Y6446300D01*
X29830823Y6473811D01*
X29922878Y6526959D01*
X29998041Y6602122D01*
X30051189Y6694177D01*
X30078700Y6796852D01*
X30078700Y6903148D01*
X30051189Y7005823D01*
X29998041Y7097878D01*
X29956042Y7139877D01*
X29922557Y7201200D01*
X29927541Y7270892D01*
X29956041Y7315238D01*
X29998744Y7357940D01*
X30051892Y7449995D01*
X30079403Y7552670D01*
X30079403Y7658966D01*
X30051892Y7761641D01*
X29998744Y7853696D01*
X29998741Y7853699D01*
X29998739Y7853702D01*
X29995709Y7856732D01*
X29993971Y7859916D01*
X29993797Y7860142D01*
X29993832Y7860170D01*
X29962227Y7918057D01*
X29967216Y7987748D01*
X29991956Y8026241D01*
X29991622Y8026497D01*
X29994696Y8030504D01*
X29995716Y8032091D01*
X29996569Y8032943D01*
X30049717Y8124998D01*
X30077228Y8227673D01*
X30077228Y8333969D01*
X30049717Y8436644D01*
X29996569Y8528699D01*
X29954570Y8570698D01*
X29921085Y8632021D01*
X29926069Y8701713D01*
X29954569Y8746059D01*
X29997272Y8788761D01*
X30050420Y8880816D01*
X30077931Y8983491D01*
X30077931Y9089787D01*
X30050420Y9192462D01*
X29997272Y9284517D01*
X29922109Y9359680D01*
X29848597Y9402122D01*
X29830056Y9412827D01*
X29830055Y9412828D01*
X29830054Y9412828D01*
X29727379Y9440339D01*
X29621083Y9440339D01*
X29518408Y9412828D01*
X29518406Y9412827D01*
X29518405Y9412827D01*
X29426356Y9359682D01*
X29426350Y9359678D01*
X29351192Y9284520D01*
X29351188Y9284514D01*
X29298043Y9192465D01*
X29298041Y9192460D01*
X29293961Y9177232D01*
X29257596Y9117572D01*
X29194749Y9087044D01*
X29125373Y9095339D01*
X29071496Y9139825D01*
X29054413Y9177229D01*
X29051892Y9186641D01*
X28998744Y9278696D01*
X28923581Y9353859D01*
X28831526Y9407007D01*
X28728851Y9434518D01*
X28622555Y9434518D01*
X28519880Y9407007D01*
X28519878Y9407006D01*
X28519877Y9407006D01*
X28427828Y9353861D01*
X28427822Y9353857D01*
X28352664Y9278699D01*
X28352660Y9278693D01*
X28299515Y9186644D01*
X28299514Y9186642D01*
X28299514Y9186641D01*
X28294346Y9167354D01*
X28257981Y9107694D01*
X28195134Y9077166D01*
X28125759Y9085461D01*
X28071881Y9129947D01*
X28054798Y9167352D01*
X28051189Y9180823D01*
X27998041Y9272878D01*
X27922878Y9348041D01*
X27830823Y9401189D01*
X27728148Y9428700D01*
X27621852Y9428700D01*
X27519177Y9401189D01*
X27519175Y9401188D01*
X27519174Y9401188D01*
X27427125Y9348043D01*
X27427119Y9348039D01*
X27351961Y9272881D01*
X27351957Y9272875D01*
X27298812Y9180826D01*
X27298812Y9180825D01*
X27298811Y9180823D01*
X27271300Y9078148D01*
X27271300Y8971852D01*
X27298811Y8869177D01*
X27351959Y8777122D01*
X27351961Y8777120D01*
X27393957Y8735124D01*
X27427442Y8673801D01*
X27422458Y8604109D01*
X27393958Y8559763D01*
X27351259Y8517064D01*
X27351254Y8517057D01*
X27298109Y8425008D01*
X27298108Y8425006D01*
X27298108Y8425005D01*
X27284794Y8375314D01*
X27284035Y8372482D01*
X27247669Y8312822D01*
X27184822Y8282293D01*
X27115447Y8290588D01*
X27076579Y8316895D01*
X26989648Y8403826D01*
X26989646Y8403828D01*
X26830405Y8519524D01*
X26801533Y8534235D01*
X26655029Y8608883D01*
X26467826Y8669710D01*
X26273422Y8700500D01*
X26273417Y8700500D01*
X26222595Y8700500D01*
X26175000Y8700500D01*
X26076583Y8700500D01*
X26076578Y8700500D01*
X25882173Y8669710D01*
X25694970Y8608883D01*
X25519594Y8519524D01*
X25360355Y8403829D01*
X25263529Y8307003D01*
X25202205Y8273519D01*
X25132514Y8278503D01*
X25076581Y8320375D01*
X25056074Y8362591D01*
X25051189Y8380823D01*
X24998041Y8472878D01*
X24922878Y8548041D01*
X24845485Y8592724D01*
X24830825Y8601188D01*
X24830824Y8601189D01*
X24830823Y8601189D01*
X24728148Y8628700D01*
X24621852Y8628700D01*
X24519177Y8601189D01*
X24519175Y8601188D01*
X24519174Y8601188D01*
X24427125Y8548043D01*
X24427119Y8548039D01*
X24351961Y8472881D01*
X24351957Y8472875D01*
X24298812Y8380826D01*
X24298812Y8380825D01*
X24298811Y8380823D01*
X24271300Y8278148D01*
X24271300Y8171852D01*
X24298811Y8069177D01*
X24342113Y7994175D01*
X24351957Y7977126D01*
X24351960Y7977121D01*
X24353905Y7975176D01*
X24355019Y7973135D01*
X24356906Y7970676D01*
X24356522Y7970382D01*
X24387386Y7913850D01*
X24382397Y7844159D01*
X24356832Y7804381D01*
X24356906Y7804324D01*
X24356234Y7803450D01*
X24353905Y7799824D01*
X24351960Y7797880D01*
X24351957Y7797875D01*
X24298812Y7705826D01*
X24298812Y7705825D01*
X24298811Y7705823D01*
X24271300Y7603148D01*
X24271300Y7496852D01*
X24298811Y7394177D01*
X24298812Y7394176D01*
X24298812Y7394175D01*
X24311330Y7372493D01*
X24351959Y7302122D01*
X24351961Y7302120D01*
X24366400Y7287681D01*
X24399885Y7226358D01*
X24394901Y7156666D01*
X24366400Y7112319D01*
X24351961Y7097881D01*
X24351957Y7097875D01*
X24298812Y7005826D01*
X24298812Y7005825D01*
X24298811Y7005823D01*
X24271300Y6903148D01*
X24271300Y6796852D01*
X24298811Y6694177D01*
X24351959Y6602122D01*
X24427122Y6526959D01*
X24519177Y6473811D01*
X24621852Y6446300D01*
X24621854Y6446300D01*
X24728145Y6446300D01*
X24728148Y6446300D01*
X24768410Y6457088D01*
X24838256Y6455425D01*
X24896118Y6416263D01*
X24923623Y6352035D01*
X24924500Y6337313D01*
X24924500Y6124000D01*
X24904815Y6056961D01*
X24852011Y6011206D01*
X24800500Y6000000D01*
X23119394Y6000000D01*
X23052355Y6019685D01*
X23006600Y6072489D01*
X22996656Y6141647D01*
X23019127Y6194997D01*
X23018977Y6195083D01*
X23019668Y6196282D01*
X23021020Y6199489D01*
X23023035Y6202117D01*
X23023041Y6202122D01*
X23076189Y6294177D01*
X23103700Y6396852D01*
X23103700Y6503148D01*
X23076189Y6605823D01*
X23023041Y6697878D01*
X22947878Y6773041D01*
X22855823Y6826189D01*
X22753148Y6853700D01*
X22646852Y6853700D01*
X22544177Y6826189D01*
X22544175Y6826188D01*
X22544174Y6826188D01*
X22452125Y6773043D01*
X22452119Y6773039D01*
X22376961Y6697881D01*
X22376957Y6697875D01*
X22323812Y6605826D01*
X22323812Y6605825D01*
X22323811Y6605823D01*
X22296300Y6503148D01*
X22296300Y6396852D01*
X22323811Y6294177D01*
X22323812Y6294176D01*
X22323812Y6294175D01*
X22376957Y6202125D01*
X22378980Y6199489D01*
X22379995Y6196864D01*
X22381023Y6195083D01*
X22380745Y6194923D01*
X22404176Y6134320D01*
X22390139Y6065875D01*
X22341327Y6015884D01*
X22280606Y6000000D01*
X14449500Y6000000D01*
X14382461Y6019685D01*
X14336706Y6072489D01*
X14325500Y6124000D01*
X14325500Y7658101D01*
X14338727Y7703148D01*
X18596300Y7703148D01*
X18596300Y7596852D01*
X18623811Y7494177D01*
X18623812Y7494176D01*
X18623812Y7494175D01*
X18641527Y7463492D01*
X18676959Y7402122D01*
X18752122Y7326959D01*
X18844177Y7273811D01*
X18946852Y7246300D01*
X18946854Y7246300D01*
X19053146Y7246300D01*
X19053148Y7246300D01*
X19155823Y7273811D01*
X19247878Y7326959D01*
X19323041Y7402122D01*
X19323633Y7403148D01*
X20446300Y7403148D01*
X20446300Y7296852D01*
X20473811Y7194177D01*
X20526959Y7102122D01*
X20602122Y7026959D01*
X20694177Y6973811D01*
X20796852Y6946300D01*
X20796854Y6946300D01*
X20903146Y6946300D01*
X20903148Y6946300D01*
X21005823Y6973811D01*
X21097878Y7026959D01*
X21173041Y7102122D01*
X21226189Y7194177D01*
X21253700Y7296852D01*
X21253700Y7372300D01*
X21273385Y7439339D01*
X21326189Y7485094D01*
X21377700Y7496300D01*
X21403146Y7496300D01*
X21403148Y7496300D01*
X21505823Y7523811D01*
X21597878Y7576959D01*
X21673041Y7652122D01*
X21726189Y7744177D01*
X21753700Y7846852D01*
X21753700Y7903148D01*
X22546300Y7903148D01*
X22546300Y7796852D01*
X22573811Y7694177D01*
X22626959Y7602122D01*
X22702122Y7526959D01*
X22794177Y7473811D01*
X22896852Y7446300D01*
X22896854Y7446300D01*
X23003146Y7446300D01*
X23003148Y7446300D01*
X23105823Y7473811D01*
X23197878Y7526959D01*
X23273041Y7602122D01*
X23326189Y7694177D01*
X23353700Y7796852D01*
X23353700Y7903148D01*
X23326189Y8005823D01*
X23273041Y8097878D01*
X23197878Y8173041D01*
X23111279Y8223039D01*
X23105825Y8226188D01*
X23105824Y8226189D01*
X23105823Y8226189D01*
X23003148Y8253700D01*
X22896852Y8253700D01*
X22794177Y8226189D01*
X22794175Y8226188D01*
X22794174Y8226188D01*
X22702125Y8173043D01*
X22702119Y8173039D01*
X22626961Y8097881D01*
X22626957Y8097875D01*
X22573812Y8005826D01*
X22573812Y8005825D01*
X22573811Y8005823D01*
X22546300Y7903148D01*
X21753700Y7903148D01*
X21753700Y7953148D01*
X21730754Y8038784D01*
X21729769Y8044701D01*
X21733277Y8073663D01*
X21733972Y8102830D01*
X21737430Y8107940D01*
X21738172Y8114063D01*
X21756782Y8136533D01*
X21773135Y8160692D01*
X21781745Y8166671D01*
X21782741Y8167872D01*
X21784097Y8168304D01*
X21790080Y8172458D01*
X21797878Y8176959D01*
X21873041Y8252122D01*
X21926189Y8344177D01*
X21953700Y8446852D01*
X21953700Y8553148D01*
X21926189Y8655823D01*
X21873041Y8747878D01*
X21797878Y8823041D01*
X21705823Y8876189D01*
X21603148Y8903700D01*
X21496852Y8903700D01*
X21394177Y8876189D01*
X21394175Y8876188D01*
X21394174Y8876188D01*
X21302125Y8823043D01*
X21302119Y8823039D01*
X21226961Y8747881D01*
X21226957Y8747875D01*
X21173812Y8655826D01*
X21173812Y8655825D01*
X21173811Y8655823D01*
X21159172Y8601189D01*
X21146300Y8553148D01*
X21146300Y8446851D01*
X21167690Y8367020D01*
X21166027Y8297170D01*
X21126864Y8239308D01*
X21109919Y8227543D01*
X21102125Y8223044D01*
X21102119Y8223039D01*
X21026961Y8147881D01*
X21026957Y8147875D01*
X20973812Y8055826D01*
X20973812Y8055825D01*
X20973811Y8055823D01*
X20950918Y7970382D01*
X20946300Y7953148D01*
X20946300Y7877700D01*
X20926615Y7810661D01*
X20873811Y7764906D01*
X20822300Y7753700D01*
X20796852Y7753700D01*
X20694177Y7726189D01*
X20694175Y7726188D01*
X20694174Y7726188D01*
X20602125Y7673043D01*
X20602119Y7673039D01*
X20526961Y7597881D01*
X20526957Y7597875D01*
X20473812Y7505826D01*
X20473812Y7505825D01*
X20473811Y7505823D01*
X20446300Y7403148D01*
X19323633Y7403148D01*
X19376189Y7494177D01*
X19403700Y7596852D01*
X19403700Y7653049D01*
X19407344Y7667745D01*
X19417637Y7685368D01*
X19423385Y7704942D01*
X19434897Y7714918D01*
X19442584Y7728077D01*
X19460770Y7737337D01*
X19476189Y7750697D01*
X19495595Y7757674D01*
X19555823Y7773811D01*
X19647878Y7826959D01*
X19723041Y7902122D01*
X19776189Y7994177D01*
X19803700Y8096852D01*
X19803700Y8203148D01*
X19776189Y8305823D01*
X19723041Y8397878D01*
X19647878Y8473041D01*
X19555823Y8526189D01*
X19453148Y8553700D01*
X19346852Y8553700D01*
X19244177Y8526189D01*
X19244175Y8526188D01*
X19244174Y8526188D01*
X19152125Y8473043D01*
X19152119Y8473039D01*
X19076961Y8397881D01*
X19076957Y8397875D01*
X19023812Y8305826D01*
X19023812Y8305825D01*
X19023811Y8305823D01*
X19002047Y8224595D01*
X18996300Y8203148D01*
X18996300Y8162098D01*
X18976615Y8095059D01*
X18923811Y8049304D01*
X18904397Y8042325D01*
X18844177Y8026189D01*
X18844175Y8026188D01*
X18844174Y8026188D01*
X18752125Y7973043D01*
X18752119Y7973039D01*
X18676961Y7897881D01*
X18676957Y7897875D01*
X18623812Y7805826D01*
X18623812Y7805825D01*
X18623811Y7805823D01*
X18596300Y7703148D01*
X14338727Y7703148D01*
X14345185Y7725140D01*
X14397989Y7770895D01*
X14467147Y7780839D01*
X14486242Y7775601D01*
X14486327Y7775915D01*
X14494174Y7773813D01*
X14494177Y7773811D01*
X14596852Y7746300D01*
X14596854Y7746300D01*
X14703146Y7746300D01*
X14703148Y7746300D01*
X14805823Y7773811D01*
X14897878Y7826959D01*
X14973041Y7902122D01*
X15026189Y7994177D01*
X15053700Y8096852D01*
X15053700Y8203148D01*
X15026189Y8305823D01*
X14973041Y8397878D01*
X14897878Y8473041D01*
X14805823Y8526189D01*
X14703148Y8553700D01*
X14596852Y8553700D01*
X14494177Y8526189D01*
X14494175Y8526188D01*
X14494174Y8526188D01*
X14402125Y8473043D01*
X14402119Y8473039D01*
X14326961Y8397881D01*
X14326957Y8397875D01*
X14270548Y8300172D01*
X14219981Y8251956D01*
X14151374Y8238734D01*
X14086509Y8264702D01*
X14075480Y8274491D01*
X13738016Y8611955D01*
X13710815Y8639454D01*
X13710097Y8639874D01*
X13709511Y8640460D01*
X13709510Y8640461D01*
X13676176Y8659707D01*
X13676176Y8659708D01*
X13675737Y8659961D01*
X13642509Y8679386D01*
X13641708Y8679606D01*
X13640988Y8680021D01*
X13640974Y8680025D01*
X13621458Y8685255D01*
X13603872Y8689968D01*
X13603314Y8690118D01*
X13566195Y8700281D01*
X13565100Y8700431D01*
X13565099Y8700432D01*
X13564600Y8700500D01*
X13564562Y8700500D01*
X13526205Y8700500D01*
X13525531Y8700502D01*
X9884993Y8720289D01*
X9884061Y8720234D01*
X9829397Y8720521D01*
X9829387Y8720520D01*
X9626359Y8689399D01*
X9626345Y8689395D01*
X9430716Y8626786D01*
X9430707Y8626782D01*
X9247326Y8534235D01*
X9080750Y8414047D01*
X8935105Y8269201D01*
X8935100Y8269195D01*
X8814000Y8103277D01*
X8720445Y7920405D01*
X8656760Y7725108D01*
X8624525Y7522250D01*
X8624523Y7522233D01*
X8624510Y7466980D01*
X8624500Y7466808D01*
X8624500Y2931093D01*
X8623903Y2918939D01*
X8623903Y2918938D01*
X8612256Y2800689D01*
X8607514Y2776849D01*
X8574798Y2668998D01*
X8565495Y2646539D01*
X8512370Y2547151D01*
X8498866Y2526941D01*
X8427369Y2439821D01*
X8410179Y2422631D01*
X8323059Y2351134D01*
X8302849Y2337630D01*
X8203461Y2284505D01*
X8181002Y2275202D01*
X8073151Y2242486D01*
X8049311Y2237744D01*
X7962215Y2229166D01*
X7931060Y2226097D01*
X7918907Y2225500D01*
X-1245572Y2225500D01*
X-1254418Y2225816D01*
X-1483018Y2242166D01*
X-1500530Y2244684D01*
X-1720138Y2292457D01*
X-1737113Y2297441D01*
X-1947689Y2375981D01*
X-1963783Y2383331D01*
X-2161037Y2491041D01*
X-2175920Y2500606D01*
X-2355837Y2635290D01*
X-2369208Y2646876D01*
X-2528125Y2805793D01*
X-2539711Y2819164D01*
X-2674395Y2999081D01*
X-2683960Y3013964D01*
X-2791670Y3211218D01*
X-2799017Y3227306D01*
X-2877563Y3437897D01*
X-2882542Y3454856D01*
X-2930317Y3674471D01*
X-2932835Y3691983D01*
X-2944545Y3855720D01*
X-2944596Y3856439D01*
X2771300Y3856439D01*
X2771300Y3743562D01*
X2800515Y3634527D01*
X2828735Y3585650D01*
X2856955Y3536772D01*
X2936772Y3456955D01*
X3034528Y3400515D01*
X3143561Y3371300D01*
X3143563Y3371300D01*
X3256437Y3371300D01*
X3256439Y3371300D01*
X3365472Y3400515D01*
X3463228Y3456955D01*
X3543045Y3536772D01*
X3599485Y3634528D01*
X3628700Y3743561D01*
X3628700Y3856439D01*
X3599485Y3965472D01*
X3595372Y3972595D01*
X3591922Y3978572D01*
X3543045Y4063228D01*
X3463228Y4143045D01*
X3414350Y4171265D01*
X3365473Y4199485D01*
X3310955Y4214093D01*
X3256439Y4228700D01*
X3143561Y4228700D01*
X3034526Y4199485D01*
X2936772Y4143045D01*
X2936769Y4143043D01*
X2856957Y4063231D01*
X2856955Y4063228D01*
X2800515Y3965474D01*
X2771300Y3856439D01*
X-2944596Y3856439D01*
X-2949184Y3920582D01*
X-2949500Y3929428D01*
X-2949500Y7456439D01*
X5171300Y7456439D01*
X5171300Y7343561D01*
X5175749Y7326958D01*
X5200515Y7234527D01*
X5212049Y7214550D01*
X5256955Y7136772D01*
X5336772Y7056955D01*
X5434528Y7000515D01*
X5543561Y6971300D01*
X5543563Y6971300D01*
X5656437Y6971300D01*
X5656439Y6971300D01*
X5765472Y7000515D01*
X5863228Y7056955D01*
X5943045Y7136772D01*
X5999485Y7234528D01*
X6028589Y7343148D01*
X7396300Y7343148D01*
X7396300Y7236852D01*
X7423811Y7134177D01*
X7476959Y7042122D01*
X7552122Y6966959D01*
X7644177Y6913811D01*
X7746852Y6886300D01*
X7746854Y6886300D01*
X7853146Y6886300D01*
X7853148Y6886300D01*
X7955823Y6913811D01*
X8047878Y6966959D01*
X8123041Y7042122D01*
X8176189Y7134177D01*
X8203700Y7236852D01*
X8203700Y7343148D01*
X8176189Y7445823D01*
X8123041Y7537878D01*
X8047878Y7613041D01*
X7978416Y7653145D01*
X7955825Y7666188D01*
X7955824Y7666189D01*
X7955823Y7666189D01*
X7853148Y7693700D01*
X7746852Y7693700D01*
X7644177Y7666189D01*
X7644175Y7666188D01*
X7644174Y7666188D01*
X7552125Y7613043D01*
X7552119Y7613039D01*
X7476961Y7537881D01*
X7476957Y7537875D01*
X7423812Y7445826D01*
X7423812Y7445825D01*
X7423811Y7445823D01*
X7396300Y7343148D01*
X6028589Y7343148D01*
X6028700Y7343561D01*
X6028700Y7456439D01*
X5999485Y7565472D01*
X5992853Y7576958D01*
X5982710Y7594527D01*
X5943045Y7663228D01*
X5863228Y7743045D01*
X5770989Y7796300D01*
X5765473Y7799485D01*
X5701433Y7816644D01*
X5656439Y7828700D01*
X5543561Y7828700D01*
X5434526Y7799485D01*
X5336772Y7743045D01*
X5336769Y7743043D01*
X5256957Y7663231D01*
X5256955Y7663228D01*
X5200515Y7565474D01*
X5181876Y7495911D01*
X5171300Y7456439D01*
X-2949500Y7456439D01*
X-2949500Y8227868D01*
X-2929815Y8294907D01*
X-2877011Y8340662D01*
X-2847457Y8349909D01*
X-2837406Y8351718D01*
X-2782203Y8352467D01*
X-2714303Y8368938D01*
X-2696813Y8375940D01*
X-2641438Y8390777D01*
X-2609353Y8395000D01*
X-2590649Y8395000D01*
X-2558565Y8390777D01*
X-2540499Y8385937D01*
X-2510596Y8373551D01*
X-2454752Y8341309D01*
X-2449966Y8338546D01*
X-2449497Y8338275D01*
X-2449494Y8338274D01*
X-2449079Y8338034D01*
X-2446437Y8336509D01*
X-2446424Y8336502D01*
X-2428289Y8326032D01*
X-2413757Y8321764D01*
X-2409204Y8320116D01*
X-2405962Y8319328D01*
X-2400192Y8317777D01*
X-2355479Y8304601D01*
X-2355055Y8304527D01*
X-2338801Y8299754D01*
X-2338796Y8299754D01*
X-2338795Y8299753D01*
X-2329294Y8298388D01*
X-2280002Y8291300D01*
X472300Y8291300D01*
X539339Y8271615D01*
X585094Y8218811D01*
X596300Y8167300D01*
X596300Y8146852D01*
X623811Y8044177D01*
X623812Y8044176D01*
X623812Y8044175D01*
X637014Y8021309D01*
X676959Y7952122D01*
X752122Y7876959D01*
X844177Y7823811D01*
X946852Y7796300D01*
X946854Y7796300D01*
X1053146Y7796300D01*
X1053148Y7796300D01*
X1155823Y7823811D01*
X1247878Y7876959D01*
X1323041Y7952122D01*
X1376189Y8044177D01*
X1403700Y8146852D01*
X1403700Y8167300D01*
X1423385Y8234339D01*
X1476189Y8280094D01*
X1527700Y8291300D01*
X5875991Y8291300D01*
X5876000Y8291300D01*
X5920364Y8296070D01*
X5971875Y8307276D01*
X5982212Y8309802D01*
X6064181Y8353481D01*
X6116985Y8399236D01*
X6135218Y8417101D01*
X6180561Y8498162D01*
X6200246Y8565201D01*
X6208700Y8624000D01*
X6208700Y11858082D01*
X7593257Y11858082D01*
X7593257Y11738620D01*
X7624176Y11623229D01*
X7683907Y11519773D01*
X7683909Y11519771D01*
X7717648Y11486032D01*
X7751133Y11424709D01*
X7746149Y11355017D01*
X7717648Y11310670D01*
X7683909Y11276932D01*
X7683907Y11276929D01*
X7637675Y11196853D01*
X7624176Y11173473D01*
X7593257Y11058082D01*
X7593257Y10938620D01*
X7624176Y10823229D01*
X7683907Y10719773D01*
X7683909Y10719771D01*
X7717648Y10686032D01*
X7751133Y10624709D01*
X7746149Y10555017D01*
X7717648Y10510670D01*
X7683909Y10476932D01*
X7683907Y10476929D01*
X7624176Y10373473D01*
X7593257Y10258082D01*
X7593257Y10138620D01*
X7624176Y10023229D01*
X7683907Y9919773D01*
X7768379Y9835301D01*
X7871835Y9775570D01*
X7987226Y9744651D01*
X7987228Y9744651D01*
X8106685Y9744651D01*
X8106688Y9744651D01*
X8222079Y9775570D01*
X8325535Y9835301D01*
X8325536Y9835303D01*
X8332573Y9839365D01*
X8333938Y9837001D01*
X8386625Y9857376D01*
X8455071Y9843346D01*
X8461320Y9839330D01*
X8461341Y9839365D01*
X8468377Y9835303D01*
X8468379Y9835301D01*
X8571835Y9775570D01*
X8687226Y9744651D01*
X8687228Y9744651D01*
X8806685Y9744651D01*
X8806688Y9744651D01*
X8922079Y9775570D01*
X9025535Y9835301D01*
X9110007Y9919773D01*
X9169738Y10023229D01*
X9200657Y10138620D01*
X9200657Y10258082D01*
X9169738Y10373473D01*
X9110007Y10476929D01*
X9076266Y10510670D01*
X9042781Y10571993D01*
X9047765Y10641685D01*
X9076266Y10686032D01*
X9077915Y10687681D01*
X9110007Y10719773D01*
X9169738Y10823229D01*
X9200657Y10938620D01*
X9200657Y11058082D01*
X9169738Y11173473D01*
X9110007Y11276929D01*
X9076266Y11310670D01*
X9042781Y11371993D01*
X9047765Y11441685D01*
X9076266Y11486032D01*
X9088115Y11497881D01*
X9110007Y11519773D01*
X9169738Y11623229D01*
X9200657Y11738620D01*
X9200657Y11858082D01*
X9200215Y11859731D01*
X13546300Y11859731D01*
X13546300Y11740269D01*
X13577219Y11624878D01*
X13636950Y11521422D01*
X13636952Y11521420D01*
X13670691Y11487681D01*
X13704176Y11426358D01*
X13699192Y11356666D01*
X13670691Y11312319D01*
X13636952Y11278581D01*
X13636950Y11278578D01*
X13589766Y11196853D01*
X13577219Y11175122D01*
X13546300Y11059731D01*
X13546300Y10940269D01*
X13577219Y10824878D01*
X13636950Y10721422D01*
X13636952Y10721420D01*
X13670691Y10687681D01*
X13704176Y10626358D01*
X13699192Y10556666D01*
X13670691Y10512319D01*
X13636952Y10478581D01*
X13636950Y10478578D01*
X13616116Y10442492D01*
X13577219Y10375122D01*
X13546300Y10259731D01*
X13546300Y10140269D01*
X13577219Y10024878D01*
X13636950Y9921422D01*
X13721422Y9836950D01*
X13824878Y9777219D01*
X13940269Y9746300D01*
X13940271Y9746300D01*
X14059728Y9746300D01*
X14059731Y9746300D01*
X14175122Y9777219D01*
X14278578Y9836950D01*
X14278579Y9836952D01*
X14285616Y9841014D01*
X14286981Y9838650D01*
X14339668Y9859025D01*
X14408114Y9844995D01*
X14414363Y9840979D01*
X14414384Y9841014D01*
X14421420Y9836952D01*
X14421422Y9836950D01*
X14524878Y9777219D01*
X14640269Y9746300D01*
X14640271Y9746300D01*
X14759728Y9746300D01*
X14759731Y9746300D01*
X14875122Y9777219D01*
X14978578Y9836950D01*
X15063050Y9921422D01*
X15122781Y10024878D01*
X15131238Y10056439D01*
X15571300Y10056439D01*
X15571300Y9943561D01*
X15580729Y9908372D01*
X15600515Y9834527D01*
X15619604Y9801465D01*
X15656955Y9736772D01*
X15736772Y9656955D01*
X15834528Y9600515D01*
X15943561Y9571300D01*
X15943563Y9571300D01*
X16056437Y9571300D01*
X16056439Y9571300D01*
X16165472Y9600515D01*
X16263228Y9656955D01*
X16343045Y9736772D01*
X16399485Y9834528D01*
X16428700Y9943561D01*
X16428700Y10056439D01*
X16399485Y10165472D01*
X16343045Y10263228D01*
X16263228Y10343045D01*
X16207666Y10375124D01*
X16165473Y10399485D01*
X16110955Y10414093D01*
X16056439Y10428700D01*
X15943561Y10428700D01*
X15834526Y10399485D01*
X15736772Y10343045D01*
X15736769Y10343043D01*
X15656957Y10263231D01*
X15656955Y10263228D01*
X15600515Y10165474D01*
X15580812Y10091940D01*
X15571300Y10056439D01*
X15131238Y10056439D01*
X15153700Y10140269D01*
X15153700Y10259731D01*
X15122781Y10375122D01*
X15073931Y10459731D01*
X18746300Y10459731D01*
X18746300Y10340269D01*
X18777219Y10224878D01*
X18836950Y10121422D01*
X18921422Y10036950D01*
X19024878Y9977219D01*
X19140269Y9946300D01*
X19140271Y9946300D01*
X19259728Y9946300D01*
X19259731Y9946300D01*
X19375122Y9977219D01*
X19478578Y10036950D01*
X19563050Y10121422D01*
X19622781Y10224878D01*
X19653700Y10340269D01*
X19653700Y10459731D01*
X19946300Y10459731D01*
X19946300Y10340269D01*
X19977219Y10224878D01*
X20036950Y10121422D01*
X20121422Y10036950D01*
X20224878Y9977219D01*
X20340269Y9946300D01*
X20340271Y9946300D01*
X20459728Y9946300D01*
X20459731Y9946300D01*
X20575122Y9977219D01*
X20678578Y10036950D01*
X20763050Y10121422D01*
X20822781Y10224878D01*
X20853700Y10340269D01*
X20853700Y10459731D01*
X21146300Y10459731D01*
X21146300Y10340269D01*
X21177219Y10224878D01*
X21236950Y10121422D01*
X21321422Y10036950D01*
X21424878Y9977219D01*
X21540269Y9946300D01*
X21540271Y9946300D01*
X21659728Y9946300D01*
X21659731Y9946300D01*
X21775122Y9977219D01*
X21878578Y10036950D01*
X21963050Y10121422D01*
X22022781Y10224878D01*
X22053700Y10340269D01*
X22053700Y10459731D01*
X22546300Y10459731D01*
X22546300Y10340269D01*
X22577219Y10224878D01*
X22636950Y10121422D01*
X22721422Y10036950D01*
X22824878Y9977219D01*
X22940269Y9946300D01*
X22940271Y9946300D01*
X23059728Y9946300D01*
X23059731Y9946300D01*
X23175122Y9977219D01*
X23278578Y10036950D01*
X23332415Y10090787D01*
X24496300Y10090787D01*
X24496300Y9984491D01*
X24523811Y9881816D01*
X24576959Y9789761D01*
X24652122Y9714598D01*
X24744177Y9661450D01*
X24846852Y9633939D01*
X24846854Y9633939D01*
X24953146Y9633939D01*
X24953148Y9633939D01*
X25055823Y9661450D01*
X25147878Y9714598D01*
X25223041Y9789761D01*
X25276189Y9881816D01*
X25303700Y9984491D01*
X25303700Y10090787D01*
X25303699Y10090789D01*
X25302639Y10098843D01*
X25304706Y10099116D01*
X25306100Y10157861D01*
X25345257Y10215727D01*
X25362210Y10227499D01*
X25447878Y10276959D01*
X25523041Y10352122D01*
X25576189Y10444177D01*
X25603700Y10546852D01*
X25603700Y10653148D01*
X25576189Y10755823D01*
X25523041Y10847878D01*
X25447878Y10923041D01*
X25355823Y10976189D01*
X25253148Y11003700D01*
X25146852Y11003700D01*
X25044177Y10976189D01*
X25044175Y10976188D01*
X25044174Y10976188D01*
X24952125Y10923043D01*
X24952119Y10923039D01*
X24876961Y10847881D01*
X24876957Y10847875D01*
X24823812Y10755826D01*
X24823812Y10755825D01*
X24823811Y10755823D01*
X24814594Y10721423D01*
X24796300Y10653148D01*
X24796300Y10546854D01*
X24797361Y10538796D01*
X24795295Y10538525D01*
X24793894Y10479763D01*
X24754729Y10421902D01*
X24737785Y10410138D01*
X24652122Y10360680D01*
X24652119Y10360678D01*
X24576961Y10285520D01*
X24576957Y10285514D01*
X24523812Y10193465D01*
X24523812Y10193464D01*
X24523811Y10193462D01*
X24496300Y10090787D01*
X23332415Y10090787D01*
X23363050Y10121422D01*
X23422781Y10224878D01*
X23453700Y10340269D01*
X23453700Y10459731D01*
X23422781Y10575122D01*
X23363050Y10678578D01*
X23278578Y10763050D01*
X23175122Y10822781D01*
X23059731Y10853700D01*
X22940269Y10853700D01*
X22824878Y10822781D01*
X22824876Y10822781D01*
X22824876Y10822780D01*
X22721422Y10763050D01*
X22721419Y10763048D01*
X22636952Y10678581D01*
X22636950Y10678578D01*
X22577219Y10575122D01*
X22546300Y10459731D01*
X22053700Y10459731D01*
X22022781Y10575122D01*
X21963050Y10678578D01*
X21878578Y10763050D01*
X21775122Y10822781D01*
X21659731Y10853700D01*
X21540269Y10853700D01*
X21424878Y10822781D01*
X21424876Y10822781D01*
X21424876Y10822780D01*
X21321422Y10763050D01*
X21321419Y10763048D01*
X21236952Y10678581D01*
X21236950Y10678578D01*
X21177219Y10575122D01*
X21146300Y10459731D01*
X20853700Y10459731D01*
X20822781Y10575122D01*
X20763050Y10678578D01*
X20678578Y10763050D01*
X20575122Y10822781D01*
X20459731Y10853700D01*
X20340269Y10853700D01*
X20224878Y10822781D01*
X20224876Y10822781D01*
X20224876Y10822780D01*
X20121422Y10763050D01*
X20121419Y10763048D01*
X20036952Y10678581D01*
X20036950Y10678578D01*
X19977219Y10575122D01*
X19946300Y10459731D01*
X19653700Y10459731D01*
X19622781Y10575122D01*
X19563050Y10678578D01*
X19478578Y10763050D01*
X19375122Y10822781D01*
X19259731Y10853700D01*
X19140269Y10853700D01*
X19024878Y10822781D01*
X19024876Y10822781D01*
X19024876Y10822780D01*
X18921422Y10763050D01*
X18921419Y10763048D01*
X18836952Y10678581D01*
X18836950Y10678578D01*
X18777219Y10575122D01*
X18746300Y10459731D01*
X15073931Y10459731D01*
X15063050Y10478578D01*
X15029309Y10512319D01*
X14995824Y10573642D01*
X15000808Y10643334D01*
X15029309Y10687681D01*
X15063050Y10721422D01*
X15122781Y10824878D01*
X15153700Y10940269D01*
X15153700Y11059731D01*
X15122781Y11175122D01*
X15063050Y11278578D01*
X15029309Y11312319D01*
X14995824Y11373642D01*
X15000808Y11443334D01*
X15029309Y11487681D01*
X15039509Y11497881D01*
X15063050Y11521422D01*
X15122781Y11624878D01*
X15153700Y11740269D01*
X15153700Y11809731D01*
X18746300Y11809731D01*
X18746300Y11690269D01*
X18777219Y11574878D01*
X18836950Y11471422D01*
X18921422Y11386950D01*
X19024878Y11327219D01*
X19140269Y11296300D01*
X19140271Y11296300D01*
X19259728Y11296300D01*
X19259731Y11296300D01*
X19375122Y11327219D01*
X19478578Y11386950D01*
X19563050Y11471422D01*
X19622781Y11574878D01*
X19653700Y11690269D01*
X19653700Y11809731D01*
X19946300Y11809731D01*
X19946300Y11690269D01*
X19977219Y11574878D01*
X20036950Y11471422D01*
X20121422Y11386950D01*
X20224878Y11327219D01*
X20340269Y11296300D01*
X20340271Y11296300D01*
X20459728Y11296300D01*
X20459731Y11296300D01*
X20575122Y11327219D01*
X20678578Y11386950D01*
X20763050Y11471422D01*
X20822781Y11574878D01*
X20853700Y11690269D01*
X20853700Y11809731D01*
X21146300Y11809731D01*
X21146300Y11690269D01*
X21177219Y11574878D01*
X21236950Y11471422D01*
X21321422Y11386950D01*
X21424878Y11327219D01*
X21540269Y11296300D01*
X21540271Y11296300D01*
X21659728Y11296300D01*
X21659731Y11296300D01*
X21775122Y11327219D01*
X21878578Y11386950D01*
X21963050Y11471422D01*
X22022781Y11574878D01*
X22053700Y11690269D01*
X22053700Y11809731D01*
X22546300Y11809731D01*
X22546300Y11690269D01*
X22577219Y11574878D01*
X22636950Y11471422D01*
X22721422Y11386950D01*
X22824878Y11327219D01*
X22940269Y11296300D01*
X22940271Y11296300D01*
X23059728Y11296300D01*
X23059731Y11296300D01*
X23175122Y11327219D01*
X23278578Y11386950D01*
X23363050Y11471422D01*
X23422781Y11574878D01*
X23453700Y11690269D01*
X23453700Y11809731D01*
X23422781Y11925122D01*
X23363050Y12028578D01*
X23278578Y12113050D01*
X23175122Y12172781D01*
X23059731Y12203700D01*
X22940269Y12203700D01*
X22824878Y12172781D01*
X22824876Y12172781D01*
X22824876Y12172780D01*
X22721422Y12113050D01*
X22721419Y12113048D01*
X22636952Y12028581D01*
X22636950Y12028578D01*
X22578280Y11926959D01*
X22577219Y11925122D01*
X22546300Y11809731D01*
X22053700Y11809731D01*
X22022781Y11925122D01*
X21963050Y12028578D01*
X21878578Y12113050D01*
X21775122Y12172781D01*
X21659731Y12203700D01*
X21540269Y12203700D01*
X21424878Y12172781D01*
X21424876Y12172781D01*
X21424876Y12172780D01*
X21321422Y12113050D01*
X21321419Y12113048D01*
X21236952Y12028581D01*
X21236950Y12028578D01*
X21178280Y11926959D01*
X21177219Y11925122D01*
X21146300Y11809731D01*
X20853700Y11809731D01*
X20822781Y11925122D01*
X20763050Y12028578D01*
X20678578Y12113050D01*
X20575122Y12172781D01*
X20459731Y12203700D01*
X20340269Y12203700D01*
X20224878Y12172781D01*
X20224876Y12172781D01*
X20224876Y12172780D01*
X20121422Y12113050D01*
X20121419Y12113048D01*
X20036952Y12028581D01*
X20036950Y12028578D01*
X19978280Y11926959D01*
X19977219Y11925122D01*
X19946300Y11809731D01*
X19653700Y11809731D01*
X19622781Y11925122D01*
X19563050Y12028578D01*
X19478578Y12113050D01*
X19375122Y12172781D01*
X19259731Y12203700D01*
X19140269Y12203700D01*
X19024878Y12172781D01*
X19024876Y12172781D01*
X19024876Y12172780D01*
X18921422Y12113050D01*
X18921419Y12113048D01*
X18836952Y12028581D01*
X18836950Y12028578D01*
X18778280Y11926959D01*
X18777219Y11925122D01*
X18746300Y11809731D01*
X15153700Y11809731D01*
X15153700Y11859731D01*
X15122781Y11975122D01*
X15063050Y12078578D01*
X14978578Y12163050D01*
X14875122Y12222781D01*
X14759731Y12253700D01*
X14640269Y12253700D01*
X14524878Y12222781D01*
X14421422Y12163050D01*
X14421420Y12163049D01*
X14414384Y12158986D01*
X14413021Y12161347D01*
X14360300Y12140973D01*
X14291857Y12155022D01*
X14285635Y12159020D01*
X14285616Y12158986D01*
X14278579Y12163049D01*
X14278578Y12163050D01*
X14175122Y12222781D01*
X14059731Y12253700D01*
X13940269Y12253700D01*
X13824878Y12222781D01*
X13824876Y12222781D01*
X13824876Y12222780D01*
X13721422Y12163050D01*
X13721419Y12163048D01*
X13636952Y12078581D01*
X13636950Y12078578D01*
X13577219Y11975122D01*
X13546300Y11859731D01*
X9200215Y11859731D01*
X9169738Y11973473D01*
X9110007Y12076929D01*
X9025535Y12161401D01*
X8922079Y12221132D01*
X8806688Y12252051D01*
X8687226Y12252051D01*
X8571835Y12221132D01*
X8468379Y12161401D01*
X8468377Y12161400D01*
X8461341Y12157337D01*
X8459978Y12159698D01*
X8407257Y12139324D01*
X8338814Y12153373D01*
X8332592Y12157371D01*
X8332573Y12157337D01*
X8325536Y12161400D01*
X8325535Y12161401D01*
X8222079Y12221132D01*
X8106688Y12252051D01*
X7987226Y12252051D01*
X7871835Y12221132D01*
X7871833Y12221132D01*
X7871833Y12221131D01*
X7768379Y12161401D01*
X7768376Y12161399D01*
X7683909Y12076932D01*
X7683907Y12076929D01*
X7640716Y12002120D01*
X7624176Y11973473D01*
X7593257Y11858082D01*
X6208700Y11858082D01*
X6208700Y13209731D01*
X18746300Y13209731D01*
X18746300Y13090269D01*
X18777219Y12974878D01*
X18836950Y12871422D01*
X18921422Y12786950D01*
X19024878Y12727219D01*
X19140269Y12696300D01*
X19140271Y12696300D01*
X19259728Y12696300D01*
X19259731Y12696300D01*
X19375122Y12727219D01*
X19478578Y12786950D01*
X19563050Y12871422D01*
X19622781Y12974878D01*
X19653700Y13090269D01*
X19653700Y13209731D01*
X19946300Y13209731D01*
X19946300Y13090269D01*
X19977219Y12974878D01*
X20036950Y12871422D01*
X20121422Y12786950D01*
X20224878Y12727219D01*
X20340269Y12696300D01*
X20340271Y12696300D01*
X20459728Y12696300D01*
X20459731Y12696300D01*
X20575122Y12727219D01*
X20678578Y12786950D01*
X20763050Y12871422D01*
X20822781Y12974878D01*
X20853700Y13090269D01*
X20853700Y13209731D01*
X21146300Y13209731D01*
X21146300Y13090269D01*
X21177219Y12974878D01*
X21236950Y12871422D01*
X21321422Y12786950D01*
X21424878Y12727219D01*
X21540269Y12696300D01*
X21540271Y12696300D01*
X21659728Y12696300D01*
X21659731Y12696300D01*
X21775122Y12727219D01*
X21878578Y12786950D01*
X21963050Y12871422D01*
X22022781Y12974878D01*
X22053700Y13090269D01*
X22053700Y13209731D01*
X22546300Y13209731D01*
X22546300Y13090269D01*
X22577219Y12974878D01*
X22636950Y12871422D01*
X22721422Y12786950D01*
X22824878Y12727219D01*
X22940269Y12696300D01*
X22940271Y12696300D01*
X23059728Y12696300D01*
X23059731Y12696300D01*
X23175122Y12727219D01*
X23278578Y12786950D01*
X23363050Y12871422D01*
X23422781Y12974878D01*
X23430356Y13003148D01*
X30396300Y13003148D01*
X30396300Y12896852D01*
X30423811Y12794177D01*
X30423812Y12794176D01*
X30423812Y12794175D01*
X30441527Y12763492D01*
X30476959Y12702122D01*
X30476961Y12702120D01*
X30491400Y12687681D01*
X30524885Y12626358D01*
X30519901Y12556666D01*
X30491400Y12512319D01*
X30476961Y12497881D01*
X30476957Y12497875D01*
X30423812Y12405826D01*
X30423812Y12405825D01*
X30423811Y12405823D01*
X30396300Y12303148D01*
X30396300Y12196852D01*
X30423811Y12094177D01*
X30476959Y12002122D01*
X30552122Y11926959D01*
X30644177Y11873811D01*
X30746852Y11846300D01*
X30746854Y11846300D01*
X30853146Y11846300D01*
X30853148Y11846300D01*
X30955823Y11873811D01*
X31047878Y11926959D01*
X31123041Y12002122D01*
X31176189Y12094177D01*
X31203700Y12196852D01*
X31203700Y12303148D01*
X31176189Y12405823D01*
X31123041Y12497878D01*
X31108600Y12512319D01*
X31075115Y12573642D01*
X31080099Y12643334D01*
X31108600Y12687681D01*
X31123041Y12702122D01*
X31176189Y12794177D01*
X31191990Y12853148D01*
X32246300Y12853148D01*
X32246300Y12746852D01*
X32273811Y12644177D01*
X32326959Y12552122D01*
X32326961Y12552120D01*
X32391400Y12487681D01*
X32424885Y12426358D01*
X32419901Y12356666D01*
X32391400Y12312319D01*
X32326961Y12247881D01*
X32326957Y12247875D01*
X32273812Y12155826D01*
X32273812Y12155825D01*
X32273811Y12155823D01*
X32246300Y12053148D01*
X32246300Y11946852D01*
X32273811Y11844177D01*
X32326959Y11752122D01*
X32326961Y11752120D01*
X32366400Y11712681D01*
X32399885Y11651358D01*
X32394901Y11581666D01*
X32366400Y11537319D01*
X32326961Y11497881D01*
X32326957Y11497875D01*
X32273812Y11405826D01*
X32273812Y11405825D01*
X32273811Y11405823D01*
X32246300Y11303148D01*
X32246300Y11196852D01*
X32273811Y11094177D01*
X32326959Y11002122D01*
X32326961Y11002120D01*
X32366400Y10962681D01*
X32399885Y10901358D01*
X32394901Y10831666D01*
X32366400Y10787319D01*
X32326961Y10747881D01*
X32326957Y10747875D01*
X32273812Y10655826D01*
X32273812Y10655825D01*
X32273811Y10655823D01*
X32246300Y10553148D01*
X32246300Y10446852D01*
X32273811Y10344177D01*
X32273812Y10344176D01*
X32273812Y10344175D01*
X32276067Y10340269D01*
X32326959Y10252122D01*
X32326961Y10252120D01*
X32402122Y10176959D01*
X32406795Y10173373D01*
X32447996Y10116944D01*
X32452148Y10047198D01*
X32417934Y9986279D01*
X32406795Y9976627D01*
X32402122Y9973042D01*
X32326961Y9897881D01*
X32326957Y9897875D01*
X32273812Y9805826D01*
X32273812Y9805825D01*
X32273811Y9805823D01*
X32246300Y9703148D01*
X32246300Y9596852D01*
X32273811Y9494177D01*
X32326959Y9402122D01*
X32402122Y9326959D01*
X32494177Y9273811D01*
X32596852Y9246300D01*
X32596854Y9246300D01*
X32703146Y9246300D01*
X32703148Y9246300D01*
X32805823Y9273811D01*
X32897878Y9326959D01*
X32973041Y9402122D01*
X32992613Y9436023D01*
X33043180Y9484237D01*
X33111787Y9497461D01*
X33176651Y9471493D01*
X33207386Y9436023D01*
X33226959Y9402122D01*
X33302122Y9326959D01*
X33394177Y9273811D01*
X33496852Y9246300D01*
X33496854Y9246300D01*
X33603146Y9246300D01*
X33603148Y9246300D01*
X33705823Y9273811D01*
X33797878Y9326959D01*
X33873041Y9402122D01*
X33926189Y9494177D01*
X33953700Y9596852D01*
X33953700Y9703148D01*
X33926189Y9805823D01*
X33873041Y9897878D01*
X33797878Y9973041D01*
X33797876Y9973042D01*
X33793208Y9976624D01*
X33752005Y10033051D01*
X33747850Y10102797D01*
X33782062Y10163718D01*
X33793208Y10173376D01*
X33797871Y10176956D01*
X33797878Y10176959D01*
X33873041Y10252122D01*
X33926189Y10344177D01*
X33953700Y10446852D01*
X33953700Y10553148D01*
X33926189Y10655823D01*
X33873041Y10747878D01*
X33833600Y10787319D01*
X33800115Y10848642D01*
X33805099Y10918334D01*
X33833600Y10962681D01*
X33847108Y10976189D01*
X33873041Y11002122D01*
X33926189Y11094177D01*
X33953700Y11196852D01*
X33953700Y11303148D01*
X33926189Y11405823D01*
X33873041Y11497878D01*
X33833600Y11537319D01*
X33800115Y11598642D01*
X33805099Y11668334D01*
X33833600Y11712681D01*
X33873041Y11752122D01*
X33926189Y11844177D01*
X33953700Y11946852D01*
X33953700Y12053148D01*
X33926189Y12155823D01*
X33873041Y12247878D01*
X33808600Y12312319D01*
X33775115Y12373642D01*
X33780099Y12443334D01*
X33808600Y12487681D01*
X33833238Y12512319D01*
X33873041Y12552122D01*
X33926189Y12644177D01*
X33953700Y12746852D01*
X33953700Y12853148D01*
X33926189Y12955823D01*
X33873041Y13047878D01*
X33797878Y13123041D01*
X33705823Y13176189D01*
X33603148Y13203700D01*
X33496852Y13203700D01*
X33394177Y13176189D01*
X33394175Y13176188D01*
X33394174Y13176188D01*
X33302125Y13123043D01*
X33302119Y13123039D01*
X33226961Y13047881D01*
X33226959Y13047878D01*
X33224444Y13043521D01*
X33207387Y13013978D01*
X33156819Y12965763D01*
X33088212Y12952541D01*
X33023348Y12978509D01*
X32992613Y13013978D01*
X32973041Y13047878D01*
X32897878Y13123041D01*
X32805823Y13176189D01*
X32703148Y13203700D01*
X32596852Y13203700D01*
X32494177Y13176189D01*
X32494175Y13176188D01*
X32494174Y13176188D01*
X32402125Y13123043D01*
X32402119Y13123039D01*
X32326961Y13047881D01*
X32326957Y13047875D01*
X32273812Y12955826D01*
X32273812Y12955825D01*
X32273811Y12955823D01*
X32246300Y12853148D01*
X31191990Y12853148D01*
X31203700Y12896852D01*
X31203700Y13003148D01*
X31176189Y13105823D01*
X31123041Y13197878D01*
X31047878Y13273041D01*
X30955823Y13326189D01*
X30853148Y13353700D01*
X30746852Y13353700D01*
X30644177Y13326189D01*
X30644175Y13326188D01*
X30644174Y13326188D01*
X30552125Y13273043D01*
X30552119Y13273039D01*
X30476961Y13197881D01*
X30476957Y13197875D01*
X30423812Y13105826D01*
X30423812Y13105825D01*
X30423811Y13105823D01*
X30396300Y13003148D01*
X23430356Y13003148D01*
X23453700Y13090269D01*
X23453700Y13209731D01*
X23422781Y13325122D01*
X23363050Y13428578D01*
X23278578Y13513050D01*
X23175122Y13572781D01*
X23078063Y13598788D01*
X35635630Y13598788D01*
X35635630Y13492492D01*
X35663141Y13389817D01*
X35716289Y13297762D01*
X35716291Y13297760D01*
X35755730Y13258321D01*
X35789215Y13196998D01*
X35784231Y13127306D01*
X35755730Y13082959D01*
X35716291Y13043521D01*
X35716287Y13043515D01*
X35663142Y12951466D01*
X35663142Y12951465D01*
X35663141Y12951463D01*
X35635630Y12848788D01*
X35635630Y12742492D01*
X35663141Y12639817D01*
X35663142Y12639816D01*
X35663142Y12639815D01*
X35680857Y12609132D01*
X35716289Y12547762D01*
X35716291Y12547760D01*
X35780730Y12483321D01*
X35814215Y12421998D01*
X35809231Y12352306D01*
X35780730Y12307959D01*
X35716291Y12243521D01*
X35716287Y12243515D01*
X35663142Y12151466D01*
X35663142Y12151465D01*
X35663141Y12151463D01*
X35635630Y12048788D01*
X35635630Y11942492D01*
X35663141Y11839817D01*
X35716289Y11747762D01*
X35716291Y11747760D01*
X35755730Y11708321D01*
X35789215Y11646998D01*
X35784231Y11577306D01*
X35755730Y11532959D01*
X35716291Y11493521D01*
X35716287Y11493515D01*
X35663142Y11401466D01*
X35663142Y11401465D01*
X35663141Y11401463D01*
X35635630Y11298788D01*
X35635630Y11192492D01*
X35663141Y11089817D01*
X35716289Y10997762D01*
X35716291Y10997760D01*
X35755730Y10958321D01*
X35789215Y10896998D01*
X35784231Y10827306D01*
X35755730Y10782959D01*
X35716291Y10743521D01*
X35716287Y10743515D01*
X35663142Y10651466D01*
X35663142Y10651465D01*
X35663141Y10651463D01*
X35635630Y10548788D01*
X35635630Y10442492D01*
X35663141Y10339817D01*
X35663142Y10339816D01*
X35663142Y10339815D01*
X35668880Y10329877D01*
X35716289Y10247762D01*
X35716291Y10247760D01*
X35791452Y10172599D01*
X35796125Y10169013D01*
X35837326Y10112584D01*
X35841478Y10042838D01*
X35807264Y9981919D01*
X35796125Y9972267D01*
X35791452Y9968682D01*
X35716291Y9893521D01*
X35716287Y9893515D01*
X35663142Y9801466D01*
X35663142Y9801465D01*
X35663141Y9801463D01*
X35635630Y9698788D01*
X35635630Y9592492D01*
X35663141Y9489817D01*
X35663142Y9489816D01*
X35663142Y9489815D01*
X35668880Y9479877D01*
X35716289Y9397762D01*
X35791452Y9322599D01*
X35883507Y9269451D01*
X35986182Y9241940D01*
X35986184Y9241940D01*
X36092476Y9241940D01*
X36092478Y9241940D01*
X36195153Y9269451D01*
X36287208Y9322599D01*
X36362371Y9397762D01*
X36381943Y9431663D01*
X36432510Y9479877D01*
X36501117Y9493101D01*
X36565981Y9467133D01*
X36596716Y9431663D01*
X36616289Y9397762D01*
X36691452Y9322599D01*
X36783507Y9269451D01*
X36886182Y9241940D01*
X36886184Y9241940D01*
X36992476Y9241940D01*
X36992478Y9241940D01*
X37095153Y9269451D01*
X37187208Y9322599D01*
X37262371Y9397762D01*
X37315519Y9489817D01*
X37343030Y9592492D01*
X37343030Y9698788D01*
X37315519Y9801463D01*
X37262371Y9893518D01*
X37187208Y9968681D01*
X37187206Y9968682D01*
X37182538Y9972264D01*
X37141335Y10028691D01*
X37137180Y10098437D01*
X37171392Y10159358D01*
X37182538Y10169016D01*
X37187201Y10172596D01*
X37187208Y10172599D01*
X37262371Y10247762D01*
X37315519Y10339817D01*
X37343030Y10442492D01*
X37343030Y10548788D01*
X37315519Y10651463D01*
X37262371Y10743518D01*
X37222930Y10782959D01*
X37189445Y10844282D01*
X37194429Y10913974D01*
X37222930Y10958321D01*
X37240798Y10976189D01*
X37262371Y10997762D01*
X37315519Y11089817D01*
X37343030Y11192492D01*
X37343030Y11298788D01*
X37315519Y11401463D01*
X37262371Y11493518D01*
X37222930Y11532959D01*
X37189445Y11594282D01*
X37194429Y11663974D01*
X37222930Y11708321D01*
X37227290Y11712681D01*
X37262371Y11747762D01*
X37315519Y11839817D01*
X37343030Y11942492D01*
X37343030Y12048788D01*
X37315519Y12151463D01*
X37262371Y12243518D01*
X37197930Y12307959D01*
X37164445Y12369282D01*
X37169429Y12438974D01*
X37197930Y12483321D01*
X37226928Y12512319D01*
X37262371Y12547762D01*
X37315519Y12639817D01*
X37343030Y12742492D01*
X37343030Y12848788D01*
X37315519Y12951463D01*
X37262371Y13043518D01*
X37222930Y13082959D01*
X37189445Y13144282D01*
X37194429Y13213974D01*
X37222930Y13258321D01*
X37237652Y13273043D01*
X37262371Y13297762D01*
X37315519Y13389817D01*
X37343030Y13492492D01*
X37343030Y13598788D01*
X37315519Y13701463D01*
X37262371Y13793518D01*
X37187208Y13868681D01*
X37095153Y13921829D01*
X36992478Y13949340D01*
X36886182Y13949340D01*
X36783507Y13921829D01*
X36783505Y13921828D01*
X36783504Y13921828D01*
X36691455Y13868683D01*
X36691449Y13868679D01*
X36616291Y13793521D01*
X36616289Y13793518D01*
X36596717Y13759618D01*
X36546149Y13711403D01*
X36477542Y13698181D01*
X36412678Y13724149D01*
X36381943Y13759618D01*
X36379767Y13763387D01*
X36362371Y13793518D01*
X36287208Y13868681D01*
X36195153Y13921829D01*
X36092478Y13949340D01*
X35986182Y13949340D01*
X35883507Y13921829D01*
X35883505Y13921828D01*
X35883504Y13921828D01*
X35791455Y13868683D01*
X35791449Y13868679D01*
X35716291Y13793521D01*
X35716287Y13793515D01*
X35663142Y13701466D01*
X35663142Y13701465D01*
X35663141Y13701463D01*
X35635630Y13598788D01*
X23078063Y13598788D01*
X23059731Y13603700D01*
X22940269Y13603700D01*
X22824878Y13572781D01*
X22824876Y13572781D01*
X22824876Y13572780D01*
X22721422Y13513050D01*
X22721419Y13513048D01*
X22636952Y13428581D01*
X22636950Y13428578D01*
X22614571Y13389816D01*
X22577219Y13325122D01*
X22546300Y13209731D01*
X22053700Y13209731D01*
X22022781Y13325122D01*
X21963050Y13428578D01*
X21878578Y13513050D01*
X21775122Y13572781D01*
X21659731Y13603700D01*
X21540269Y13603700D01*
X21424878Y13572781D01*
X21424876Y13572781D01*
X21424876Y13572780D01*
X21321422Y13513050D01*
X21321419Y13513048D01*
X21236952Y13428581D01*
X21236950Y13428578D01*
X21214571Y13389816D01*
X21177219Y13325122D01*
X21146300Y13209731D01*
X20853700Y13209731D01*
X20822781Y13325122D01*
X20763050Y13428578D01*
X20678578Y13513050D01*
X20575122Y13572781D01*
X20459731Y13603700D01*
X20340269Y13603700D01*
X20224878Y13572781D01*
X20224876Y13572781D01*
X20224876Y13572780D01*
X20121422Y13513050D01*
X20121419Y13513048D01*
X20036952Y13428581D01*
X20036950Y13428578D01*
X20014571Y13389816D01*
X19977219Y13325122D01*
X19946300Y13209731D01*
X19653700Y13209731D01*
X19622781Y13325122D01*
X19563050Y13428578D01*
X19478578Y13513050D01*
X19375122Y13572781D01*
X19259731Y13603700D01*
X19140269Y13603700D01*
X19024878Y13572781D01*
X19024876Y13572781D01*
X19024876Y13572780D01*
X18921422Y13513050D01*
X18921419Y13513048D01*
X18836952Y13428581D01*
X18836950Y13428578D01*
X18814571Y13389816D01*
X18777219Y13325122D01*
X18746300Y13209731D01*
X6208700Y13209731D01*
X6208700Y14726439D01*
X6461300Y14726439D01*
X6461300Y14613561D01*
X6466527Y14594053D01*
X6490515Y14504527D01*
X6510620Y14469706D01*
X6546955Y14406772D01*
X6626772Y14326955D01*
X6724528Y14270515D01*
X6833561Y14241300D01*
X6833563Y14241300D01*
X6946437Y14241300D01*
X6946439Y14241300D01*
X7055472Y14270515D01*
X7153228Y14326955D01*
X7233045Y14406772D01*
X7289485Y14504528D01*
X7318700Y14613561D01*
X7318700Y14726439D01*
X7289485Y14835472D01*
X7285756Y14841930D01*
X7270745Y14867930D01*
X7233045Y14933228D01*
X7153228Y15013045D01*
X7095629Y15046300D01*
X7055473Y15069485D01*
X7000955Y15084093D01*
X6946439Y15098700D01*
X6833561Y15098700D01*
X6724526Y15069485D01*
X6626772Y15013045D01*
X6626769Y15013043D01*
X6546957Y14933231D01*
X6546955Y14933228D01*
X6490515Y14835474D01*
X6465006Y14740269D01*
X6461300Y14726439D01*
X6208700Y14726439D01*
X6208700Y15228148D01*
X18396300Y15228148D01*
X18396300Y15121852D01*
X18423811Y15019177D01*
X18423812Y15019176D01*
X18423812Y15019175D01*
X18441527Y14988492D01*
X18476959Y14927122D01*
X18552122Y14851959D01*
X18644177Y14798811D01*
X18679453Y14789359D01*
X18739113Y14752997D01*
X18769644Y14690150D01*
X18767136Y14637492D01*
X18763756Y14624878D01*
X18746300Y14559731D01*
X18746300Y14440269D01*
X18777219Y14324878D01*
X18836950Y14221422D01*
X18921422Y14136950D01*
X19024878Y14077219D01*
X19140269Y14046300D01*
X19140271Y14046300D01*
X19259728Y14046300D01*
X19259731Y14046300D01*
X19375122Y14077219D01*
X19478578Y14136950D01*
X19563050Y14221422D01*
X19622781Y14324878D01*
X19653700Y14440269D01*
X19653700Y14559731D01*
X19946300Y14559731D01*
X19946300Y14440269D01*
X19977219Y14324878D01*
X20036950Y14221422D01*
X20121422Y14136950D01*
X20224878Y14077219D01*
X20340269Y14046300D01*
X20340271Y14046300D01*
X20459728Y14046300D01*
X20459731Y14046300D01*
X20575122Y14077219D01*
X20678578Y14136950D01*
X20763050Y14221422D01*
X20822781Y14324878D01*
X20853700Y14440269D01*
X20853700Y14559731D01*
X21146300Y14559731D01*
X21146300Y14440269D01*
X21177219Y14324878D01*
X21236950Y14221422D01*
X21321422Y14136950D01*
X21424878Y14077219D01*
X21540269Y14046300D01*
X21540271Y14046300D01*
X21659728Y14046300D01*
X21659731Y14046300D01*
X21775122Y14077219D01*
X21878578Y14136950D01*
X21963050Y14221422D01*
X22022781Y14324878D01*
X22053700Y14440269D01*
X22053700Y14559731D01*
X22546300Y14559731D01*
X22546300Y14440269D01*
X22577219Y14324878D01*
X22636950Y14221422D01*
X22721422Y14136950D01*
X22824878Y14077219D01*
X22940269Y14046300D01*
X22940271Y14046300D01*
X23059728Y14046300D01*
X23059731Y14046300D01*
X23175122Y14077219D01*
X23278578Y14136950D01*
X23363050Y14221422D01*
X23380790Y14252148D01*
X30569874Y14252148D01*
X30569874Y14145852D01*
X30597385Y14043177D01*
X30650533Y13951122D01*
X30725696Y13875959D01*
X30817751Y13822811D01*
X30920426Y13795300D01*
X30920428Y13795300D01*
X31026720Y13795300D01*
X31026722Y13795300D01*
X31129397Y13822811D01*
X31213154Y13871169D01*
X31281053Y13887641D01*
X31337151Y13871169D01*
X31419177Y13823811D01*
X31521852Y13796300D01*
X31521854Y13796300D01*
X31628146Y13796300D01*
X31628148Y13796300D01*
X31730823Y13823811D01*
X31822878Y13876959D01*
X31898041Y13952122D01*
X31924773Y13998425D01*
X31975338Y14046638D01*
X32043944Y14059862D01*
X32064243Y14056199D01*
X32108540Y14044330D01*
X32108542Y14044330D01*
X32214834Y14044330D01*
X32214836Y14044330D01*
X32317511Y14071841D01*
X32409566Y14124989D01*
X32484729Y14200152D01*
X32537877Y14292207D01*
X32565388Y14394882D01*
X32565388Y14499897D01*
X32585073Y14566936D01*
X32637877Y14612691D01*
X32657289Y14619670D01*
X32664361Y14621564D01*
X32756416Y14674712D01*
X32831579Y14749875D01*
X32884727Y14841930D01*
X32891694Y14867932D01*
X32928055Y14927588D01*
X32990901Y14958119D01*
X33060277Y14949825D01*
X33114156Y14905341D01*
X33131241Y14867932D01*
X33145257Y14815623D01*
X33198405Y14723568D01*
X33273568Y14648405D01*
X33365623Y14595257D01*
X33468298Y14567746D01*
X33468300Y14567746D01*
X33574592Y14567746D01*
X33574594Y14567746D01*
X33677269Y14595257D01*
X33769324Y14648405D01*
X33787952Y14667034D01*
X33849272Y14700519D01*
X33918964Y14695536D01*
X33951123Y14677726D01*
X33952123Y14676958D01*
X33969316Y14667032D01*
X34044177Y14623811D01*
X34146852Y14596300D01*
X34146854Y14596300D01*
X34253146Y14596300D01*
X34253148Y14596300D01*
X34355823Y14623811D01*
X34447878Y14676959D01*
X34523041Y14752122D01*
X34576189Y14844177D01*
X34603700Y14946852D01*
X34603700Y15053148D01*
X34576189Y15155823D01*
X34523041Y15247878D01*
X34447878Y15323041D01*
X34356164Y15375992D01*
X34355825Y15376188D01*
X34355824Y15376189D01*
X34355823Y15376189D01*
X34253148Y15403700D01*
X34146852Y15403700D01*
X34044177Y15376189D01*
X34044175Y15376188D01*
X34044174Y15376188D01*
X33952125Y15323043D01*
X33952118Y15323038D01*
X33933491Y15304411D01*
X33872168Y15270927D01*
X33802476Y15275913D01*
X33770324Y15293719D01*
X33769328Y15294483D01*
X33769324Y15294487D01*
X33706383Y15330826D01*
X33677271Y15347634D01*
X33677270Y15347635D01*
X33677269Y15347635D01*
X33574594Y15375146D01*
X33468298Y15375146D01*
X33365623Y15347635D01*
X33365621Y15347634D01*
X33365620Y15347634D01*
X33273571Y15294489D01*
X33273565Y15294485D01*
X33198407Y15219327D01*
X33198403Y15219321D01*
X33145258Y15127272D01*
X33145256Y15127267D01*
X33138290Y15101269D01*
X33101925Y15041609D01*
X33039077Y15011081D01*
X32969702Y15019376D01*
X32915825Y15063862D01*
X32898742Y15101269D01*
X32884727Y15153576D01*
X32831579Y15245631D01*
X32756416Y15320794D01*
X32674779Y15367927D01*
X32664363Y15373941D01*
X32664362Y15373942D01*
X32664361Y15373942D01*
X32561686Y15401453D01*
X32455390Y15401453D01*
X32352715Y15373942D01*
X32352713Y15373941D01*
X32352712Y15373941D01*
X32260663Y15320796D01*
X32260657Y15320792D01*
X32185499Y15245634D01*
X32185495Y15245628D01*
X32132350Y15153579D01*
X32132350Y15153578D01*
X32132349Y15153576D01*
X32108311Y15063862D01*
X32104838Y15050901D01*
X32104838Y14945887D01*
X32085153Y14878848D01*
X32032349Y14833093D01*
X32012934Y14826113D01*
X32005865Y14824219D01*
X32005862Y14824218D01*
X31913813Y14771073D01*
X31913807Y14771069D01*
X31838649Y14695911D01*
X31838645Y14695905D01*
X31811914Y14649607D01*
X31761346Y14601392D01*
X31692739Y14588171D01*
X31672437Y14591834D01*
X31628152Y14603700D01*
X31628148Y14603700D01*
X31521852Y14603700D01*
X31419175Y14576189D01*
X31335419Y14527832D01*
X31267519Y14511361D01*
X31211420Y14527833D01*
X31129399Y14575188D01*
X31129398Y14575189D01*
X31129397Y14575189D01*
X31026722Y14602700D01*
X30920426Y14602700D01*
X30817751Y14575189D01*
X30817749Y14575188D01*
X30817748Y14575188D01*
X30725699Y14522043D01*
X30725693Y14522039D01*
X30650535Y14446881D01*
X30650531Y14446875D01*
X30597386Y14354826D01*
X30597386Y14354825D01*
X30597385Y14354823D01*
X30569874Y14252148D01*
X23380790Y14252148D01*
X23422781Y14324878D01*
X23453700Y14440269D01*
X23453700Y14559731D01*
X23422781Y14675122D01*
X23363050Y14778578D01*
X23278578Y14863050D01*
X23175122Y14922781D01*
X23059731Y14953700D01*
X22940269Y14953700D01*
X22824878Y14922781D01*
X22824876Y14922781D01*
X22824876Y14922780D01*
X22721422Y14863050D01*
X22721419Y14863048D01*
X22636952Y14778581D01*
X22636950Y14778578D01*
X22578280Y14676959D01*
X22577219Y14675122D01*
X22546300Y14559731D01*
X22053700Y14559731D01*
X22022781Y14675122D01*
X21963050Y14778578D01*
X21878578Y14863050D01*
X21775122Y14922781D01*
X21659731Y14953700D01*
X21540269Y14953700D01*
X21424878Y14922781D01*
X21424876Y14922781D01*
X21424876Y14922780D01*
X21321422Y14863050D01*
X21321419Y14863048D01*
X21236952Y14778581D01*
X21236950Y14778578D01*
X21178280Y14676959D01*
X21177219Y14675122D01*
X21146300Y14559731D01*
X20853700Y14559731D01*
X20822781Y14675122D01*
X20763050Y14778578D01*
X20678578Y14863050D01*
X20575122Y14922781D01*
X20459731Y14953700D01*
X20340269Y14953700D01*
X20224878Y14922781D01*
X20224876Y14922781D01*
X20224876Y14922780D01*
X20121422Y14863050D01*
X20121419Y14863048D01*
X20036952Y14778581D01*
X20036950Y14778578D01*
X19978280Y14676959D01*
X19977219Y14675122D01*
X19946300Y14559731D01*
X19653700Y14559731D01*
X19622781Y14675122D01*
X19563050Y14778578D01*
X19478578Y14863050D01*
X19375122Y14922781D01*
X19285187Y14946879D01*
X19225529Y14983243D01*
X19195000Y15046090D01*
X19197509Y15098748D01*
X19203700Y15121852D01*
X19203700Y15228148D01*
X19176189Y15330823D01*
X19123041Y15422878D01*
X19047878Y15498041D01*
X18955823Y15551189D01*
X18853148Y15578700D01*
X18746852Y15578700D01*
X18644177Y15551189D01*
X18644175Y15551188D01*
X18644174Y15551188D01*
X18552125Y15498043D01*
X18552119Y15498039D01*
X18476961Y15422881D01*
X18476957Y15422875D01*
X18423812Y15330826D01*
X18423812Y15330825D01*
X18423811Y15330823D01*
X18396300Y15228148D01*
X6208700Y15228148D01*
X6208700Y15376000D01*
X6203930Y15420364D01*
X6192724Y15471875D01*
X6190198Y15482212D01*
X6146519Y15564181D01*
X6100764Y15616985D01*
X6100755Y15616994D01*
X6100748Y15617002D01*
X6082900Y15635217D01*
X6082894Y15635222D01*
X6018948Y15670990D01*
X6001838Y15680561D01*
X5942874Y15697875D01*
X5934800Y15700246D01*
X5934792Y15700248D01*
X5876001Y15708700D01*
X5876000Y15708700D01*
X5157635Y15708700D01*
X5157634Y15708700D01*
X5135339Y15707505D01*
X5135330Y15707505D01*
X5135324Y15707504D01*
X5135318Y15707504D01*
X5135287Y15707501D01*
X5108970Y15704671D01*
X5108959Y15704669D01*
X5031259Y15680338D01*
X5031255Y15680336D01*
X4969941Y15646857D01*
X4969925Y15646846D01*
X4959639Y15639147D01*
X4947340Y15631035D01*
X4899053Y15603156D01*
X4869149Y15590769D01*
X4844733Y15584226D01*
X4812636Y15580000D01*
X4787363Y15580000D01*
X4755270Y15584225D01*
X4730851Y15590768D01*
X4700947Y15603155D01*
X4679049Y15615798D01*
X4653372Y15635501D01*
X4635499Y15653374D01*
X4615796Y15679050D01*
X4603151Y15700952D01*
X4596029Y15718147D01*
X12946300Y15718147D01*
X12946300Y15611851D01*
X12973811Y15509176D01*
X12973812Y15509175D01*
X12973812Y15509174D01*
X12983721Y15492012D01*
X13026959Y15417121D01*
X13102122Y15341958D01*
X13194177Y15288810D01*
X13296852Y15261299D01*
X13296854Y15261299D01*
X13403146Y15261299D01*
X13403148Y15261299D01*
X13505823Y15288810D01*
X13597878Y15341958D01*
X13673041Y15417121D01*
X13726189Y15509176D01*
X13753700Y15611851D01*
X13753700Y15718147D01*
X13726189Y15820822D01*
X13703725Y15859731D01*
X23746300Y15859731D01*
X23746300Y15740269D01*
X23777219Y15624878D01*
X23836950Y15521422D01*
X23921422Y15436950D01*
X23921425Y15436949D01*
X23921428Y15436946D01*
X23972626Y15407386D01*
X24020841Y15356819D01*
X24034063Y15288212D01*
X24008095Y15223347D01*
X23972626Y15192614D01*
X23921428Y15163055D01*
X23921419Y15163048D01*
X23836952Y15078581D01*
X23836950Y15078578D01*
X23789505Y14996401D01*
X23777219Y14975122D01*
X23746300Y14859731D01*
X23746300Y14740269D01*
X23777219Y14624878D01*
X23836950Y14521422D01*
X23921422Y14436950D01*
X24024878Y14377219D01*
X24140269Y14346300D01*
X24140271Y14346300D01*
X24259728Y14346300D01*
X24259731Y14346300D01*
X24375122Y14377219D01*
X24478578Y14436950D01*
X24563050Y14521422D01*
X24622781Y14624878D01*
X24653700Y14740269D01*
X24653700Y14859731D01*
X24622781Y14975122D01*
X24563050Y15078578D01*
X24478578Y15163050D01*
X24427371Y15192615D01*
X24379158Y15243180D01*
X24365936Y15311788D01*
X24391904Y15376652D01*
X24427371Y15407386D01*
X24478578Y15436950D01*
X24563050Y15521422D01*
X24622781Y15624878D01*
X24653700Y15740269D01*
X24653700Y15859731D01*
X24946300Y15859731D01*
X24946300Y15740269D01*
X24977219Y15624878D01*
X25036950Y15521422D01*
X25121422Y15436950D01*
X25121425Y15436949D01*
X25121428Y15436946D01*
X25172626Y15407386D01*
X25220841Y15356819D01*
X25234063Y15288212D01*
X25208095Y15223347D01*
X25172626Y15192614D01*
X25121428Y15163055D01*
X25121419Y15163048D01*
X25036952Y15078581D01*
X25036950Y15078578D01*
X24989505Y14996401D01*
X24977219Y14975122D01*
X24946300Y14859731D01*
X24946300Y14740269D01*
X24977219Y14624878D01*
X25036950Y14521422D01*
X25121422Y14436950D01*
X25224878Y14377219D01*
X25340269Y14346300D01*
X25340271Y14346300D01*
X25459728Y14346300D01*
X25459731Y14346300D01*
X25575122Y14377219D01*
X25678578Y14436950D01*
X25763050Y14521422D01*
X25822781Y14624878D01*
X25853700Y14740269D01*
X25853700Y14859731D01*
X25822781Y14975122D01*
X25763050Y15078578D01*
X25678578Y15163050D01*
X25627371Y15192615D01*
X25579158Y15243180D01*
X25565936Y15311788D01*
X25591904Y15376652D01*
X25627371Y15407386D01*
X25678578Y15436950D01*
X25763050Y15521422D01*
X25822781Y15624878D01*
X25853700Y15740269D01*
X25853700Y15859731D01*
X26146300Y15859731D01*
X26146300Y15740269D01*
X26177219Y15624878D01*
X26236950Y15521422D01*
X26321422Y15436950D01*
X26321425Y15436949D01*
X26321428Y15436946D01*
X26372626Y15407386D01*
X26420841Y15356819D01*
X26434063Y15288212D01*
X26408095Y15223347D01*
X26372626Y15192614D01*
X26321428Y15163055D01*
X26321419Y15163048D01*
X26236952Y15078581D01*
X26236950Y15078578D01*
X26189505Y14996401D01*
X26177219Y14975122D01*
X26146300Y14859731D01*
X26146300Y14740269D01*
X26177219Y14624878D01*
X26236950Y14521422D01*
X26321422Y14436950D01*
X26424878Y14377219D01*
X26540269Y14346300D01*
X26540271Y14346300D01*
X26659728Y14346300D01*
X26659731Y14346300D01*
X26775122Y14377219D01*
X26878578Y14436950D01*
X26963050Y14521422D01*
X26992614Y14572629D01*
X27043180Y14620842D01*
X27111788Y14634064D01*
X27176652Y14608096D01*
X27207385Y14572629D01*
X27236950Y14521422D01*
X27321422Y14436950D01*
X27424878Y14377219D01*
X27540269Y14346300D01*
X27540271Y14346300D01*
X27659728Y14346300D01*
X27659731Y14346300D01*
X27775122Y14377219D01*
X27878578Y14436950D01*
X27963050Y14521422D01*
X27992614Y14572629D01*
X28043180Y14620842D01*
X28111788Y14634064D01*
X28176652Y14608096D01*
X28207385Y14572629D01*
X28236950Y14521422D01*
X28321422Y14436950D01*
X28424878Y14377219D01*
X28540269Y14346300D01*
X28540271Y14346300D01*
X28659728Y14346300D01*
X28659731Y14346300D01*
X28775122Y14377219D01*
X28878578Y14436950D01*
X28963050Y14521422D01*
X29022781Y14624878D01*
X29053700Y14740269D01*
X29053700Y14859731D01*
X29022781Y14975122D01*
X29022779Y14975124D01*
X29020677Y14982972D01*
X29022450Y14983448D01*
X29016070Y15042744D01*
X29047340Y15105226D01*
X29107425Y15140884D01*
X29177251Y15138396D01*
X29200102Y15128125D01*
X29210969Y15121851D01*
X29294177Y15073811D01*
X29396852Y15046300D01*
X29396854Y15046300D01*
X29503146Y15046300D01*
X29503148Y15046300D01*
X29605823Y15073811D01*
X29697878Y15126959D01*
X29773041Y15202122D01*
X29826189Y15294177D01*
X29853700Y15396852D01*
X29853700Y15503148D01*
X29826189Y15605823D01*
X29773041Y15697878D01*
X29697878Y15773041D01*
X29615119Y15820822D01*
X29605825Y15826188D01*
X29605824Y15826189D01*
X29605823Y15826189D01*
X29503148Y15853700D01*
X29396852Y15853700D01*
X29294177Y15826189D01*
X29294175Y15826188D01*
X29294174Y15826188D01*
X29202125Y15773043D01*
X29202119Y15773039D01*
X29126961Y15697881D01*
X29126957Y15697875D01*
X29073812Y15605826D01*
X29073812Y15605825D01*
X29073811Y15605823D01*
X29046300Y15503148D01*
X29046300Y15396852D01*
X29073811Y15294177D01*
X29074026Y15293375D01*
X29072363Y15223525D01*
X29033200Y15165663D01*
X28968971Y15138159D01*
X28900069Y15149746D01*
X28878759Y15162910D01*
X28878575Y15163052D01*
X28827372Y15192614D01*
X28775122Y15222781D01*
X28659731Y15253700D01*
X28540269Y15253700D01*
X28424878Y15222781D01*
X28424876Y15222781D01*
X28424876Y15222780D01*
X28321422Y15163050D01*
X28321419Y15163048D01*
X28236952Y15078581D01*
X28236945Y15078572D01*
X28207386Y15027374D01*
X28156819Y14979159D01*
X28088212Y14965937D01*
X28023347Y14991905D01*
X27992614Y15027374D01*
X27963054Y15078572D01*
X27963051Y15078575D01*
X27963050Y15078578D01*
X27878578Y15163050D01*
X27775122Y15222781D01*
X27736734Y15233067D01*
X27677076Y15269431D01*
X27646547Y15332278D01*
X27654842Y15401654D01*
X27681144Y15440517D01*
X27763050Y15522422D01*
X27822781Y15625878D01*
X27853700Y15741269D01*
X27853700Y15860731D01*
X27822781Y15976122D01*
X27763050Y16079578D01*
X27678578Y16164050D01*
X27575122Y16223781D01*
X27459731Y16254700D01*
X27340269Y16254700D01*
X27224878Y16223781D01*
X27224876Y16223781D01*
X27224876Y16223780D01*
X27121422Y16164050D01*
X27121417Y16164047D01*
X27087178Y16129808D01*
X27025854Y16096324D01*
X26956163Y16101310D01*
X26911818Y16129810D01*
X26878580Y16163048D01*
X26878578Y16163050D01*
X26775122Y16222781D01*
X26659731Y16253700D01*
X26540269Y16253700D01*
X26424878Y16222781D01*
X26424876Y16222781D01*
X26424876Y16222780D01*
X26321422Y16163050D01*
X26321419Y16163048D01*
X26236952Y16078581D01*
X26236950Y16078578D01*
X26177798Y15976124D01*
X26177219Y15975122D01*
X26146300Y15859731D01*
X25853700Y15859731D01*
X25822781Y15975122D01*
X25763050Y16078578D01*
X25678578Y16163050D01*
X25575122Y16222781D01*
X25459731Y16253700D01*
X25340269Y16253700D01*
X25224878Y16222781D01*
X25224876Y16222781D01*
X25224876Y16222780D01*
X25121422Y16163050D01*
X25121419Y16163048D01*
X25036952Y16078581D01*
X25036950Y16078578D01*
X24977798Y15976124D01*
X24977219Y15975122D01*
X24946300Y15859731D01*
X24653700Y15859731D01*
X24622781Y15975122D01*
X24563050Y16078578D01*
X24478578Y16163050D01*
X24375122Y16222781D01*
X24259731Y16253700D01*
X24140269Y16253700D01*
X24024878Y16222781D01*
X24024876Y16222781D01*
X24024876Y16222780D01*
X23921422Y16163050D01*
X23921419Y16163048D01*
X23836952Y16078581D01*
X23836950Y16078578D01*
X23777798Y15976124D01*
X23777219Y15975122D01*
X23746300Y15859731D01*
X13703725Y15859731D01*
X13673041Y15912877D01*
X13597878Y15988040D01*
X13505823Y16041188D01*
X13403148Y16068699D01*
X13296852Y16068699D01*
X13194177Y16041188D01*
X13194175Y16041187D01*
X13194174Y16041187D01*
X13102125Y15988042D01*
X13102119Y15988038D01*
X13026961Y15912880D01*
X13026957Y15912874D01*
X12973812Y15820825D01*
X12973812Y15820824D01*
X12973811Y15820822D01*
X12946300Y15718147D01*
X4596029Y15718147D01*
X4590766Y15730854D01*
X4584223Y15755272D01*
X4580000Y15787359D01*
X4580000Y15812640D01*
X4584225Y15844731D01*
X4590767Y15869148D01*
X4603155Y15899057D01*
X4610182Y15911228D01*
X4625062Y15925417D01*
X4627130Y15928809D01*
X4630168Y15930285D01*
X4660749Y15959444D01*
X4729356Y15972666D01*
X4733763Y15972166D01*
X4740328Y15971302D01*
X4740333Y15971300D01*
X4740338Y15971300D01*
X4853209Y15971300D01*
X4853211Y15971300D01*
X4962244Y16000515D01*
X5060000Y16056955D01*
X5139817Y16136772D01*
X5196257Y16234528D01*
X5225472Y16343561D01*
X5225472Y16456439D01*
X5196257Y16565472D01*
X5196256Y16565473D01*
X5196256Y16565475D01*
X5164628Y16620254D01*
X5154382Y16638001D01*
X5137909Y16705898D01*
X5154382Y16762000D01*
X5196257Y16834528D01*
X5225472Y16943561D01*
X5225472Y17056439D01*
X5212075Y17106439D01*
X10921300Y17106439D01*
X10921300Y16993561D01*
X10924719Y16980801D01*
X10950515Y16884527D01*
X10959379Y16869175D01*
X11006955Y16786772D01*
X11006958Y16786769D01*
X11011902Y16780326D01*
X11010606Y16779333D01*
X11039533Y16726346D01*
X11034541Y16656654D01*
X11011147Y16620254D01*
X11011902Y16619674D01*
X11006955Y16613228D01*
X10950515Y16515474D01*
X10921300Y16406439D01*
X10921300Y16293562D01*
X10950515Y16184527D01*
X10978087Y16136773D01*
X11006955Y16086772D01*
X11086772Y16006955D01*
X11184528Y15950515D01*
X11293561Y15921300D01*
X11293563Y15921300D01*
X11406437Y15921300D01*
X11406439Y15921300D01*
X11515472Y15950515D01*
X11613228Y16006955D01*
X11693045Y16086772D01*
X11749485Y16184528D01*
X11778700Y16293561D01*
X11778700Y16406439D01*
X11749485Y16515472D01*
X11742853Y16526958D01*
X11720615Y16565475D01*
X11693045Y16613228D01*
X11693040Y16613233D01*
X11688098Y16619674D01*
X11689394Y16620669D01*
X11660469Y16673642D01*
X11665453Y16743334D01*
X11688854Y16779746D01*
X11688098Y16780326D01*
X11693037Y16786765D01*
X11693045Y16786772D01*
X11749485Y16884528D01*
X11778700Y16993561D01*
X11778700Y17078148D01*
X15521300Y17078148D01*
X15521300Y16971852D01*
X15548811Y16869177D01*
X15601959Y16777122D01*
X15677122Y16701959D01*
X15769177Y16648811D01*
X15871852Y16621300D01*
X15871854Y16621300D01*
X15978146Y16621300D01*
X15978148Y16621300D01*
X16080823Y16648811D01*
X16172878Y16701959D01*
X16248041Y16777122D01*
X16301189Y16869177D01*
X16328700Y16971852D01*
X16328700Y17078148D01*
X16326303Y17087094D01*
X18687354Y17087094D01*
X18687354Y16980798D01*
X18714865Y16878123D01*
X18714866Y16878122D01*
X18714866Y16878121D01*
X18720031Y16869175D01*
X18750000Y16817268D01*
X18750000Y16500000D01*
X22498816Y16500000D01*
X22544177Y16473811D01*
X22646852Y16446300D01*
X22646854Y16446300D01*
X22753146Y16446300D01*
X22753148Y16446300D01*
X22855823Y16473811D01*
X22901184Y16500000D01*
X27250000Y16500000D01*
X28000000Y17250000D01*
X28227799Y17250000D01*
X28205785Y17237290D01*
X28205782Y17237288D01*
X28121315Y17152821D01*
X28121313Y17152818D01*
X28061582Y17049362D01*
X28030663Y16933971D01*
X28030663Y16814509D01*
X28061582Y16699118D01*
X28121313Y16595662D01*
X28205785Y16511190D01*
X28309241Y16451459D01*
X28424632Y16420540D01*
X28424634Y16420540D01*
X28544091Y16420540D01*
X28544094Y16420540D01*
X28659485Y16451459D01*
X28762941Y16511190D01*
X28847413Y16595662D01*
X28907144Y16699118D01*
X28938063Y16814509D01*
X28938063Y16933971D01*
X28907144Y17049362D01*
X28847413Y17152818D01*
X28762941Y17237290D01*
X28701307Y17272875D01*
X28659486Y17297021D01*
X28657943Y17297434D01*
X28570787Y17320788D01*
X29000000Y17750000D01*
X29760420Y17750000D01*
X29696422Y17713050D01*
X29696419Y17713048D01*
X29611952Y17628581D01*
X29611950Y17628578D01*
X29552219Y17525122D01*
X29521300Y17409731D01*
X29521300Y17290269D01*
X29552219Y17174878D01*
X29611950Y17071422D01*
X29696422Y16986950D01*
X29799878Y16927219D01*
X29915269Y16896300D01*
X29915271Y16896300D01*
X30034728Y16896300D01*
X30034731Y16896300D01*
X30150122Y16927219D01*
X30253578Y16986950D01*
X30287319Y17020691D01*
X30348642Y17054176D01*
X30418334Y17049192D01*
X30462681Y17020691D01*
X30496422Y16986950D01*
X30599878Y16927219D01*
X30715269Y16896300D01*
X30715271Y16896300D01*
X30834728Y16896300D01*
X30834731Y16896300D01*
X30950122Y16927219D01*
X31053578Y16986950D01*
X31087319Y17020691D01*
X31148642Y17054176D01*
X31218334Y17049192D01*
X31262681Y17020691D01*
X31296422Y16986950D01*
X31399878Y16927219D01*
X31515269Y16896300D01*
X31515271Y16896300D01*
X31634728Y16896300D01*
X31634731Y16896300D01*
X31750122Y16927219D01*
X31853578Y16986950D01*
X31938050Y17071422D01*
X31997781Y17174878D01*
X32028700Y17290269D01*
X32028700Y17409731D01*
X31997781Y17525122D01*
X31938050Y17628578D01*
X31853578Y17713050D01*
X31789579Y17750000D01*
X32025000Y17750000D01*
X32012264Y18386780D01*
X32100007Y18386780D01*
X32100007Y18280484D01*
X32127518Y18177809D01*
X32180666Y18085754D01*
X32255829Y18010591D01*
X32347884Y17957443D01*
X32450559Y17929932D01*
X32450561Y17929932D01*
X32556853Y17929932D01*
X32556855Y17929932D01*
X32659530Y17957443D01*
X32751585Y18010591D01*
X32826748Y18085754D01*
X32879896Y18177809D01*
X32907407Y18280484D01*
X32907407Y18386780D01*
X32879896Y18489455D01*
X32826748Y18581510D01*
X32751585Y18656673D01*
X32683249Y18696127D01*
X32659532Y18709820D01*
X32659531Y18709821D01*
X32659530Y18709821D01*
X32556855Y18737332D01*
X32450559Y18737332D01*
X32347884Y18709821D01*
X32347882Y18709820D01*
X32347881Y18709820D01*
X32255832Y18656675D01*
X32255826Y18656671D01*
X32180668Y18581513D01*
X32180664Y18581507D01*
X32127519Y18489458D01*
X32127519Y18489457D01*
X32127518Y18489455D01*
X32100007Y18386780D01*
X32012264Y18386780D01*
X32000000Y19000000D01*
X31789579Y19000000D01*
X31853578Y19036950D01*
X31938050Y19121422D01*
X31997781Y19224878D01*
X32028700Y19340269D01*
X32028700Y19459731D01*
X31997781Y19575122D01*
X31938050Y19678578D01*
X31853578Y19763050D01*
X31750122Y19822781D01*
X31634731Y19853700D01*
X31515269Y19853700D01*
X31399878Y19822781D01*
X31399876Y19822781D01*
X31399876Y19822780D01*
X31296422Y19763050D01*
X31296419Y19763048D01*
X31262681Y19729309D01*
X31201358Y19695824D01*
X31131666Y19700808D01*
X31087319Y19729309D01*
X31053580Y19763048D01*
X31053578Y19763050D01*
X30950122Y19822781D01*
X30834731Y19853700D01*
X30715269Y19853700D01*
X30599878Y19822781D01*
X30599876Y19822781D01*
X30599876Y19822780D01*
X30496422Y19763050D01*
X30496419Y19763048D01*
X30462681Y19729309D01*
X30401358Y19695824D01*
X30331666Y19700808D01*
X30287319Y19729309D01*
X30253580Y19763048D01*
X30253578Y19763050D01*
X30150122Y19822781D01*
X30034731Y19853700D01*
X29915269Y19853700D01*
X29799878Y19822781D01*
X29799876Y19822781D01*
X29799876Y19822780D01*
X29696422Y19763050D01*
X29696419Y19763048D01*
X29611952Y19678581D01*
X29611950Y19678578D01*
X29579887Y19623043D01*
X29552219Y19575122D01*
X29521300Y19459731D01*
X29521300Y19340269D01*
X29552219Y19224878D01*
X29611950Y19121422D01*
X29696422Y19036950D01*
X29760421Y19000000D01*
X29000000Y19000000D01*
X28750000Y19250000D01*
X28250000Y19250000D01*
X27703458Y19796542D01*
X28020807Y19796542D01*
X28020807Y19677080D01*
X28051726Y19561689D01*
X28111457Y19458233D01*
X28195929Y19373761D01*
X28299385Y19314030D01*
X28414776Y19283111D01*
X28414778Y19283111D01*
X28534235Y19283111D01*
X28534238Y19283111D01*
X28649629Y19314030D01*
X28753085Y19373761D01*
X28837557Y19458233D01*
X28838880Y19460525D01*
X28878912Y19529859D01*
X28897286Y19561686D01*
X28897287Y19561688D01*
X28897288Y19561689D01*
X28928207Y19677080D01*
X28928207Y19796542D01*
X28897288Y19911933D01*
X28837557Y20015389D01*
X28753085Y20099861D01*
X28649629Y20159592D01*
X28534238Y20190511D01*
X28414776Y20190511D01*
X28299385Y20159592D01*
X28299383Y20159592D01*
X28299383Y20159591D01*
X28195929Y20099861D01*
X28195926Y20099859D01*
X28111459Y20015392D01*
X28111457Y20015389D01*
X28051726Y19911933D01*
X28020807Y19796542D01*
X27703458Y19796542D01*
X27500000Y20000000D01*
X21291146Y20000000D01*
X21303700Y20046852D01*
X21303700Y20153148D01*
X21276189Y20255823D01*
X21223041Y20347878D01*
X21147878Y20423041D01*
X21055823Y20476189D01*
X20953148Y20503700D01*
X20846852Y20503700D01*
X20744177Y20476189D01*
X20744175Y20476188D01*
X20744174Y20476188D01*
X20652125Y20423043D01*
X20652119Y20423039D01*
X20576961Y20347881D01*
X20576957Y20347875D01*
X20523812Y20255826D01*
X20523812Y20255825D01*
X20523811Y20255823D01*
X20496300Y20153148D01*
X20496300Y20046852D01*
X20508854Y20000000D01*
X18750000Y20000000D01*
X18750000Y17250626D01*
X18714866Y17189772D01*
X18714866Y17189771D01*
X18714865Y17189769D01*
X18687354Y17087094D01*
X16326303Y17087094D01*
X16301189Y17180823D01*
X16248041Y17272878D01*
X16172878Y17348041D01*
X16094929Y17393045D01*
X16080825Y17401188D01*
X16080824Y17401189D01*
X16080823Y17401189D01*
X15978148Y17428700D01*
X15871852Y17428700D01*
X15769177Y17401189D01*
X15769175Y17401188D01*
X15769174Y17401188D01*
X15677125Y17348043D01*
X15677119Y17348039D01*
X15601961Y17272881D01*
X15601957Y17272875D01*
X15548812Y17180826D01*
X15548812Y17180825D01*
X15548811Y17180823D01*
X15521300Y17078148D01*
X11778700Y17078148D01*
X11778700Y17106439D01*
X11749485Y17215472D01*
X11743297Y17226189D01*
X11727414Y17253700D01*
X11693045Y17313228D01*
X11613228Y17393045D01*
X11553310Y17427639D01*
X11515473Y17449485D01*
X11437419Y17470399D01*
X11406439Y17478700D01*
X11293561Y17478700D01*
X11184526Y17449485D01*
X11086772Y17393045D01*
X11086769Y17393043D01*
X11006957Y17313231D01*
X11006955Y17313228D01*
X10950515Y17215474D01*
X10921300Y17106439D01*
X5212075Y17106439D01*
X5196257Y17165472D01*
X5139817Y17263228D01*
X5060000Y17343045D01*
X5011122Y17371265D01*
X4962245Y17399485D01*
X4907727Y17414093D01*
X4853211Y17428700D01*
X4740333Y17428700D01*
X4740329Y17428699D01*
X4732279Y17427639D01*
X4731989Y17429839D01*
X4715705Y17430228D01*
X4687980Y17427585D01*
X4681260Y17431051D01*
X4673702Y17431231D01*
X4650637Y17446845D01*
X4625883Y17459612D01*
X4619178Y17468142D01*
X4615843Y17470399D01*
X4604071Y17487359D01*
X4603143Y17488967D01*
X4590766Y17518854D01*
X4584223Y17543274D01*
X4580000Y17575362D01*
X4580000Y17600644D01*
X4584222Y17632727D01*
X4590767Y17657154D01*
X4603154Y17687056D01*
X4618163Y17713050D01*
X4621502Y17718835D01*
X4632340Y17734642D01*
X4645497Y17750968D01*
X4646107Y17752695D01*
X4646437Y17754525D01*
X4647404Y17756416D01*
X4650730Y17762775D01*
X4655639Y17771313D01*
X4655972Y17771845D01*
X4655984Y17771859D01*
X4656963Y17773890D01*
X4656961Y17773891D01*
X4660983Y17782232D01*
X4662810Y17785867D01*
X4665652Y17791300D01*
X4680563Y17819805D01*
X4680564Y17819809D01*
X4682845Y17825456D01*
X4682920Y17825426D01*
X4684884Y17830525D01*
X4684673Y17830609D01*
X4686304Y17834719D01*
X4686312Y17834735D01*
X4704246Y17891378D01*
X4705906Y17901421D01*
X4707797Y17924458D01*
X4732901Y17989661D01*
X4789272Y18030941D01*
X4859012Y18035192D01*
X4919980Y18001064D01*
X4940812Y17972626D01*
X4960426Y17935819D01*
X5006181Y17883015D01*
X5006188Y17883008D01*
X5006196Y17882999D01*
X5024043Y17864785D01*
X5024050Y17864779D01*
X5064576Y17842111D01*
X5105107Y17819439D01*
X5172146Y17799754D01*
X5172150Y17799754D01*
X5172152Y17799753D01*
X5181653Y17798388D01*
X5230945Y17791300D01*
X5230948Y17791300D01*
X5875991Y17791300D01*
X5876000Y17791300D01*
X5920364Y17796070D01*
X5971875Y17807276D01*
X5982212Y17809802D01*
X6064181Y17853481D01*
X6116985Y17899236D01*
X6135218Y17917101D01*
X6180561Y17998162D01*
X6200246Y18065201D01*
X6208700Y18124000D01*
X6208700Y19167300D01*
X6228385Y19234339D01*
X6281189Y19280094D01*
X6332700Y19291300D01*
X6411569Y19291300D01*
X6413550Y19291360D01*
X6423976Y19291669D01*
X6438697Y19292546D01*
X6508440Y19309027D01*
X6572669Y19336531D01*
X6595481Y19347998D01*
X6602239Y19354313D01*
X6664662Y19385694D01*
X6734144Y19378347D01*
X6748887Y19371092D01*
X6784528Y19350515D01*
X6893561Y19321300D01*
X6893563Y19321300D01*
X7006437Y19321300D01*
X7006439Y19321300D01*
X7115472Y19350515D01*
X7120033Y19353148D01*
X7144251Y19367131D01*
X7149099Y19369931D01*
X7216999Y19386404D01*
X7272688Y19367131D01*
X7273796Y19369111D01*
X7309594Y19349087D01*
X7362597Y19319439D01*
X7429636Y19299754D01*
X7429640Y19299754D01*
X7429642Y19299753D01*
X7439143Y19298388D01*
X7488435Y19291300D01*
X7488438Y19291300D01*
X11375991Y19291300D01*
X11376000Y19291300D01*
X11420364Y19296070D01*
X11471875Y19307276D01*
X11482212Y19309802D01*
X11563556Y19353148D01*
X12596300Y19353148D01*
X12596300Y19246852D01*
X12623811Y19144177D01*
X12676959Y19052122D01*
X12752122Y18976959D01*
X12844177Y18923811D01*
X12946852Y18896300D01*
X12946854Y18896300D01*
X13053146Y18896300D01*
X13053148Y18896300D01*
X13155823Y18923811D01*
X13247878Y18976959D01*
X13323041Y19052122D01*
X13376189Y19144177D01*
X13403700Y19246852D01*
X13403700Y19353148D01*
X13376189Y19455823D01*
X13323041Y19547878D01*
X13247878Y19623041D01*
X13155823Y19676189D01*
X13053148Y19703700D01*
X12946852Y19703700D01*
X12844177Y19676189D01*
X12844175Y19676188D01*
X12844174Y19676188D01*
X12752125Y19623043D01*
X12752119Y19623039D01*
X12676961Y19547881D01*
X12676957Y19547875D01*
X12623812Y19455826D01*
X12623812Y19455825D01*
X12623811Y19455823D01*
X12596300Y19353148D01*
X11563556Y19353148D01*
X11564181Y19353481D01*
X11616985Y19399236D01*
X11635218Y19417101D01*
X11680561Y19498162D01*
X11700246Y19565201D01*
X11708700Y19624000D01*
X11708700Y19928148D01*
X15858800Y19928148D01*
X15858800Y19821852D01*
X15886311Y19719177D01*
X15939459Y19627122D01*
X16014622Y19551959D01*
X16106677Y19498811D01*
X16209352Y19471300D01*
X16209354Y19471300D01*
X16315646Y19471300D01*
X16315648Y19471300D01*
X16418323Y19498811D01*
X16510378Y19551959D01*
X16585541Y19627122D01*
X16638689Y19719177D01*
X16666200Y19821852D01*
X16666200Y19928148D01*
X16638689Y20030823D01*
X16585541Y20122878D01*
X16510378Y20198041D01*
X16449008Y20233473D01*
X16418325Y20251188D01*
X16418324Y20251189D01*
X16418323Y20251189D01*
X16315648Y20278700D01*
X16209352Y20278700D01*
X16106677Y20251189D01*
X16106675Y20251188D01*
X16106674Y20251188D01*
X16014625Y20198043D01*
X16014619Y20198039D01*
X15939461Y20122881D01*
X15939457Y20122875D01*
X15886312Y20030826D01*
X15886312Y20030825D01*
X15886311Y20030823D01*
X15858800Y19928148D01*
X11708700Y19928148D01*
X11708700Y20836057D01*
X21456198Y20836057D01*
X21456198Y20729761D01*
X21483709Y20627086D01*
X21536857Y20535031D01*
X21612020Y20459868D01*
X21704075Y20406720D01*
X21806750Y20379209D01*
X21806752Y20379209D01*
X21913044Y20379209D01*
X21913046Y20379209D01*
X22015721Y20406720D01*
X22107776Y20459868D01*
X22182939Y20535031D01*
X22236087Y20627086D01*
X22263598Y20729761D01*
X22263598Y20836057D01*
X22259019Y20853148D01*
X22496300Y20853148D01*
X22496300Y20746852D01*
X22505857Y20711185D01*
X22523812Y20644175D01*
X22533678Y20627086D01*
X22576959Y20552122D01*
X22652122Y20476959D01*
X22744177Y20423811D01*
X22846852Y20396300D01*
X22846854Y20396300D01*
X22953146Y20396300D01*
X22953148Y20396300D01*
X23055823Y20423811D01*
X23147878Y20476959D01*
X23223041Y20552122D01*
X23276189Y20644177D01*
X23303700Y20746852D01*
X23303700Y20853148D01*
X23276189Y20955823D01*
X23223041Y21047878D01*
X23211188Y21059731D01*
X23746300Y21059731D01*
X23746300Y20940269D01*
X23777219Y20824878D01*
X23836950Y20721422D01*
X23921422Y20636950D01*
X24024878Y20577219D01*
X24140269Y20546300D01*
X24140271Y20546300D01*
X24259728Y20546300D01*
X24259731Y20546300D01*
X24375122Y20577219D01*
X24478578Y20636950D01*
X24563050Y20721422D01*
X24622781Y20824878D01*
X24653700Y20940269D01*
X24653700Y21059731D01*
X24946300Y21059731D01*
X24946300Y20940269D01*
X24977219Y20824878D01*
X25036950Y20721422D01*
X25121422Y20636950D01*
X25224878Y20577219D01*
X25340269Y20546300D01*
X25340271Y20546300D01*
X25459728Y20546300D01*
X25459731Y20546300D01*
X25575122Y20577219D01*
X25678578Y20636950D01*
X25763050Y20721422D01*
X25822781Y20824878D01*
X25853700Y20940269D01*
X25853700Y21059731D01*
X26146300Y21059731D01*
X26146300Y20940269D01*
X26177219Y20824878D01*
X26236950Y20721422D01*
X26321422Y20636950D01*
X26424878Y20577219D01*
X26540269Y20546300D01*
X26540271Y20546300D01*
X26659728Y20546300D01*
X26659731Y20546300D01*
X26775122Y20577219D01*
X26878578Y20636950D01*
X26963050Y20721422D01*
X27022781Y20824878D01*
X27053700Y20940269D01*
X27053700Y21059731D01*
X27346300Y21059731D01*
X27346300Y20940269D01*
X27377219Y20824878D01*
X27436950Y20721422D01*
X27521422Y20636950D01*
X27624878Y20577219D01*
X27740269Y20546300D01*
X27740271Y20546300D01*
X27859728Y20546300D01*
X27859731Y20546300D01*
X27975122Y20577219D01*
X28078578Y20636950D01*
X28163050Y20721422D01*
X28222781Y20824878D01*
X28253700Y20940269D01*
X28253700Y21059731D01*
X28746300Y21059731D01*
X28746300Y20940269D01*
X28777219Y20824878D01*
X28836950Y20721422D01*
X28921422Y20636950D01*
X29024878Y20577219D01*
X29140269Y20546300D01*
X29140271Y20546300D01*
X29259728Y20546300D01*
X29259731Y20546300D01*
X29375122Y20577219D01*
X29478578Y20636950D01*
X29563050Y20721422D01*
X29622781Y20824878D01*
X29653700Y20940269D01*
X29653700Y21059731D01*
X29622781Y21175122D01*
X29563050Y21278578D01*
X29478578Y21363050D01*
X29375122Y21422781D01*
X29305259Y21441501D01*
X29284715Y21447006D01*
X29259731Y21453700D01*
X29140269Y21453700D01*
X29024878Y21422781D01*
X29024876Y21422781D01*
X29024876Y21422780D01*
X28921422Y21363050D01*
X28921419Y21363048D01*
X28836952Y21278581D01*
X28836950Y21278578D01*
X28778280Y21176959D01*
X28777219Y21175122D01*
X28746300Y21059731D01*
X28253700Y21059731D01*
X28222781Y21175122D01*
X28163050Y21278578D01*
X28078578Y21363050D01*
X27975122Y21422781D01*
X27859731Y21453700D01*
X27740269Y21453700D01*
X27624878Y21422781D01*
X27624876Y21422781D01*
X27624876Y21422780D01*
X27521422Y21363050D01*
X27521419Y21363048D01*
X27436952Y21278581D01*
X27436950Y21278578D01*
X27378280Y21176959D01*
X27377219Y21175122D01*
X27346300Y21059731D01*
X27053700Y21059731D01*
X27022781Y21175122D01*
X26963050Y21278578D01*
X26878578Y21363050D01*
X26775122Y21422781D01*
X26659731Y21453700D01*
X26540269Y21453700D01*
X26424878Y21422781D01*
X26424876Y21422781D01*
X26424876Y21422780D01*
X26321422Y21363050D01*
X26321419Y21363048D01*
X26236952Y21278581D01*
X26236950Y21278578D01*
X26178280Y21176959D01*
X26177219Y21175122D01*
X26146300Y21059731D01*
X25853700Y21059731D01*
X25822781Y21175122D01*
X25763050Y21278578D01*
X25678578Y21363050D01*
X25575122Y21422781D01*
X25459731Y21453700D01*
X25340269Y21453700D01*
X25224878Y21422781D01*
X25224876Y21422781D01*
X25224876Y21422780D01*
X25121422Y21363050D01*
X25121419Y21363048D01*
X25036952Y21278581D01*
X25036950Y21278578D01*
X24978280Y21176959D01*
X24977219Y21175122D01*
X24946300Y21059731D01*
X24653700Y21059731D01*
X24622781Y21175122D01*
X24563050Y21278578D01*
X24478578Y21363050D01*
X24375122Y21422781D01*
X24259731Y21453700D01*
X24140269Y21453700D01*
X24024878Y21422781D01*
X24024876Y21422781D01*
X24024876Y21422780D01*
X23921422Y21363050D01*
X23921419Y21363048D01*
X23836952Y21278581D01*
X23836950Y21278578D01*
X23778280Y21176959D01*
X23777219Y21175122D01*
X23746300Y21059731D01*
X23211188Y21059731D01*
X23147878Y21123041D01*
X23055823Y21176189D01*
X22953148Y21203700D01*
X22846852Y21203700D01*
X22744177Y21176189D01*
X22744175Y21176188D01*
X22744174Y21176188D01*
X22652125Y21123043D01*
X22652119Y21123039D01*
X22576961Y21047881D01*
X22576957Y21047875D01*
X22523812Y20955826D01*
X22523812Y20955825D01*
X22523811Y20955823D01*
X22519232Y20938734D01*
X22502040Y20874573D01*
X22502040Y20874571D01*
X22496300Y20853148D01*
X22259019Y20853148D01*
X22236087Y20938732D01*
X22182939Y21030787D01*
X22107776Y21105950D01*
X22015721Y21159098D01*
X21913046Y21186609D01*
X21806750Y21186609D01*
X21704075Y21159098D01*
X21704073Y21159097D01*
X21704072Y21159097D01*
X21612023Y21105952D01*
X21612017Y21105948D01*
X21536859Y21030790D01*
X21536855Y21030784D01*
X21483710Y20938735D01*
X21483710Y20938734D01*
X21483709Y20938732D01*
X21456198Y20836057D01*
X11708700Y20836057D01*
X11708700Y21353148D01*
X12596300Y21353148D01*
X12596300Y21246852D01*
X12623811Y21144177D01*
X12676959Y21052122D01*
X12752122Y20976959D01*
X12844177Y20923811D01*
X12946852Y20896300D01*
X12946854Y20896300D01*
X13053146Y20896300D01*
X13053148Y20896300D01*
X13155823Y20923811D01*
X13247878Y20976959D01*
X13323041Y21052122D01*
X13376189Y21144177D01*
X13403700Y21246852D01*
X13403700Y21353148D01*
X13376189Y21455823D01*
X13323041Y21547878D01*
X13247878Y21623041D01*
X13155823Y21676189D01*
X13053148Y21703700D01*
X12946852Y21703700D01*
X12844177Y21676189D01*
X12844175Y21676188D01*
X12844174Y21676188D01*
X12752125Y21623043D01*
X12752119Y21623039D01*
X12676961Y21547881D01*
X12676957Y21547875D01*
X12623812Y21455826D01*
X12623812Y21455825D01*
X12623811Y21455823D01*
X12596300Y21353148D01*
X11708700Y21353148D01*
X11708700Y21853148D01*
X20496300Y21853148D01*
X20496300Y21746852D01*
X20523811Y21644177D01*
X20576959Y21552122D01*
X20652122Y21476959D01*
X20744177Y21423811D01*
X20846852Y21396300D01*
X20846854Y21396300D01*
X20953146Y21396300D01*
X20953148Y21396300D01*
X21055823Y21423811D01*
X21147878Y21476959D01*
X21223041Y21552122D01*
X21223633Y21553148D01*
X31096300Y21553148D01*
X31096300Y21446852D01*
X31123811Y21344177D01*
X31176959Y21252122D01*
X31252122Y21176959D01*
X31344177Y21123811D01*
X31446852Y21096300D01*
X31446854Y21096300D01*
X31553146Y21096300D01*
X31553148Y21096300D01*
X31655823Y21123811D01*
X31747878Y21176959D01*
X31823041Y21252122D01*
X31876189Y21344177D01*
X31903700Y21446852D01*
X31903700Y21553148D01*
X31876189Y21655823D01*
X31823041Y21747878D01*
X31747878Y21823041D01*
X31655823Y21876189D01*
X31553148Y21903700D01*
X31446852Y21903700D01*
X31344177Y21876189D01*
X31344175Y21876188D01*
X31344174Y21876188D01*
X31252125Y21823043D01*
X31252119Y21823039D01*
X31176961Y21747881D01*
X31176957Y21747875D01*
X31123812Y21655826D01*
X31123812Y21655825D01*
X31123811Y21655823D01*
X31096300Y21553148D01*
X21223633Y21553148D01*
X21276189Y21644177D01*
X21303700Y21746852D01*
X21303700Y21853148D01*
X21276189Y21955823D01*
X21223041Y22047878D01*
X21147878Y22123041D01*
X21055823Y22176189D01*
X20953148Y22203700D01*
X20846852Y22203700D01*
X20744177Y22176189D01*
X20744175Y22176188D01*
X20744174Y22176188D01*
X20652125Y22123043D01*
X20652119Y22123039D01*
X20576961Y22047881D01*
X20576957Y22047875D01*
X20523812Y21955826D01*
X20523812Y21955825D01*
X20523811Y21955823D01*
X20496300Y21853148D01*
X11708700Y21853148D01*
X11708700Y22395467D01*
X14277689Y22395467D01*
X14277689Y22289171D01*
X14305200Y22186496D01*
X14358348Y22094441D01*
X14433511Y22019278D01*
X14525566Y21966130D01*
X14628241Y21938619D01*
X14628243Y21938619D01*
X14734535Y21938619D01*
X14734537Y21938619D01*
X14837212Y21966130D01*
X14839956Y21967715D01*
X14841600Y21968663D01*
X14862657Y21980822D01*
X14929267Y22019278D01*
X15004430Y22094441D01*
X15057578Y22186496D01*
X15077201Y22259731D01*
X23746300Y22259731D01*
X23746300Y22140269D01*
X23777219Y22024878D01*
X23836950Y21921422D01*
X23921422Y21836950D01*
X24024878Y21777219D01*
X24140269Y21746300D01*
X24140271Y21746300D01*
X24259728Y21746300D01*
X24259731Y21746300D01*
X24375122Y21777219D01*
X24478578Y21836950D01*
X24563050Y21921422D01*
X24622781Y22024878D01*
X24653700Y22140269D01*
X24653700Y22259731D01*
X24946300Y22259731D01*
X24946300Y22140269D01*
X24977219Y22024878D01*
X25036950Y21921422D01*
X25121422Y21836950D01*
X25224878Y21777219D01*
X25340269Y21746300D01*
X25340271Y21746300D01*
X25459728Y21746300D01*
X25459731Y21746300D01*
X25575122Y21777219D01*
X25678578Y21836950D01*
X25763050Y21921422D01*
X25822781Y22024878D01*
X25853700Y22140269D01*
X25853700Y22259731D01*
X26146300Y22259731D01*
X26146300Y22140269D01*
X26177219Y22024878D01*
X26236950Y21921422D01*
X26321422Y21836950D01*
X26424878Y21777219D01*
X26540269Y21746300D01*
X26540271Y21746300D01*
X26659728Y21746300D01*
X26659731Y21746300D01*
X26775122Y21777219D01*
X26878578Y21836950D01*
X26963050Y21921422D01*
X27022781Y22024878D01*
X27053700Y22140269D01*
X27053700Y22259731D01*
X27346300Y22259731D01*
X27346300Y22140269D01*
X27377219Y22024878D01*
X27436950Y21921422D01*
X27521422Y21836950D01*
X27624878Y21777219D01*
X27740269Y21746300D01*
X27740271Y21746300D01*
X27859728Y21746300D01*
X27859731Y21746300D01*
X27975122Y21777219D01*
X28078578Y21836950D01*
X28163050Y21921422D01*
X28222781Y22024878D01*
X28253700Y22140269D01*
X28253700Y22259731D01*
X28746300Y22259731D01*
X28746300Y22140269D01*
X28777219Y22024878D01*
X28836950Y21921422D01*
X28921422Y21836950D01*
X29024878Y21777219D01*
X29140269Y21746300D01*
X29140271Y21746300D01*
X29259728Y21746300D01*
X29259731Y21746300D01*
X29375122Y21777219D01*
X29478578Y21836950D01*
X29563050Y21921422D01*
X29622781Y22024878D01*
X29653700Y22140269D01*
X29653700Y22253148D01*
X34146300Y22253148D01*
X34146300Y22146852D01*
X34173811Y22044177D01*
X34226959Y21952122D01*
X34302122Y21876959D01*
X34394177Y21823811D01*
X34496852Y21796300D01*
X34496854Y21796300D01*
X34603146Y21796300D01*
X34603148Y21796300D01*
X34705823Y21823811D01*
X34797878Y21876959D01*
X34873041Y21952122D01*
X34926189Y22044177D01*
X34953700Y22146852D01*
X34953700Y22253148D01*
X34926189Y22355823D01*
X34873041Y22447878D01*
X34797878Y22523041D01*
X34705823Y22576189D01*
X34603148Y22603700D01*
X34496852Y22603700D01*
X34394177Y22576189D01*
X34394175Y22576188D01*
X34394174Y22576188D01*
X34302125Y22523043D01*
X34302119Y22523039D01*
X34226961Y22447881D01*
X34226957Y22447875D01*
X34173812Y22355826D01*
X34173812Y22355825D01*
X34173811Y22355823D01*
X34146300Y22253148D01*
X29653700Y22253148D01*
X29653700Y22259731D01*
X29622781Y22375122D01*
X29563050Y22478578D01*
X29478578Y22563050D01*
X29375122Y22622781D01*
X29259731Y22653700D01*
X29140269Y22653700D01*
X29024878Y22622781D01*
X29024876Y22622781D01*
X29024876Y22622780D01*
X28921422Y22563050D01*
X28921419Y22563048D01*
X28836952Y22478581D01*
X28836950Y22478578D01*
X28777219Y22375122D01*
X28746300Y22259731D01*
X28253700Y22259731D01*
X28222781Y22375122D01*
X28163050Y22478578D01*
X28078578Y22563050D01*
X27975122Y22622781D01*
X27859731Y22653700D01*
X27740269Y22653700D01*
X27624878Y22622781D01*
X27624876Y22622781D01*
X27624876Y22622780D01*
X27521422Y22563050D01*
X27521419Y22563048D01*
X27436952Y22478581D01*
X27436950Y22478578D01*
X27377219Y22375122D01*
X27346300Y22259731D01*
X27053700Y22259731D01*
X27022781Y22375122D01*
X26963050Y22478578D01*
X26878578Y22563050D01*
X26775122Y22622781D01*
X26659731Y22653700D01*
X26540269Y22653700D01*
X26424878Y22622781D01*
X26424876Y22622781D01*
X26424876Y22622780D01*
X26321422Y22563050D01*
X26321419Y22563048D01*
X26236952Y22478581D01*
X26236950Y22478578D01*
X26177219Y22375122D01*
X26146300Y22259731D01*
X25853700Y22259731D01*
X25822781Y22375122D01*
X25763050Y22478578D01*
X25678578Y22563050D01*
X25575122Y22622781D01*
X25459731Y22653700D01*
X25340269Y22653700D01*
X25224878Y22622781D01*
X25224876Y22622781D01*
X25224876Y22622780D01*
X25121422Y22563050D01*
X25121419Y22563048D01*
X25036952Y22478581D01*
X25036950Y22478578D01*
X24977219Y22375122D01*
X24946300Y22259731D01*
X24653700Y22259731D01*
X24622781Y22375122D01*
X24563050Y22478578D01*
X24478578Y22563050D01*
X24375122Y22622781D01*
X24259731Y22653700D01*
X24140269Y22653700D01*
X24024878Y22622781D01*
X24024876Y22622781D01*
X24024876Y22622780D01*
X23921422Y22563050D01*
X23921419Y22563048D01*
X23836952Y22478581D01*
X23836950Y22478578D01*
X23777219Y22375122D01*
X23746300Y22259731D01*
X15077201Y22259731D01*
X15085089Y22289171D01*
X15085089Y22395467D01*
X15057578Y22498142D01*
X15004430Y22590197D01*
X14929267Y22665360D01*
X14837212Y22718508D01*
X14734537Y22746019D01*
X14628241Y22746019D01*
X14525566Y22718508D01*
X14525564Y22718507D01*
X14525563Y22718507D01*
X14433514Y22665362D01*
X14433508Y22665358D01*
X14358350Y22590200D01*
X14358346Y22590194D01*
X14305201Y22498145D01*
X14305201Y22498144D01*
X14305200Y22498142D01*
X14277689Y22395467D01*
X11708700Y22395467D01*
X11708700Y23103148D01*
X29996300Y23103148D01*
X29996300Y22996852D01*
X30023811Y22894177D01*
X30076959Y22802122D01*
X30152122Y22726959D01*
X30244177Y22673811D01*
X30346852Y22646300D01*
X30346854Y22646300D01*
X30453146Y22646300D01*
X30453148Y22646300D01*
X30555823Y22673811D01*
X30647878Y22726959D01*
X30668755Y22747837D01*
X30730074Y22781320D01*
X30799765Y22776337D01*
X30818434Y22767541D01*
X30894177Y22723811D01*
X30996852Y22696300D01*
X30996854Y22696300D01*
X31103146Y22696300D01*
X31103148Y22696300D01*
X31205823Y22723811D01*
X31297878Y22776959D01*
X31373041Y22852122D01*
X31426189Y22944177D01*
X31453700Y23046852D01*
X31453700Y23153148D01*
X31426189Y23255823D01*
X31373041Y23347878D01*
X31297878Y23423041D01*
X31205823Y23476189D01*
X31103148Y23503700D01*
X30996852Y23503700D01*
X30894177Y23476189D01*
X30894175Y23476188D01*
X30894174Y23476188D01*
X30802125Y23423043D01*
X30802121Y23423041D01*
X30781242Y23402162D01*
X30719918Y23368680D01*
X30650226Y23373667D01*
X30631564Y23382460D01*
X30555825Y23426188D01*
X30555824Y23426189D01*
X30555823Y23426189D01*
X30453148Y23453700D01*
X30346852Y23453700D01*
X30244177Y23426189D01*
X30244175Y23426188D01*
X30244174Y23426188D01*
X30152125Y23373043D01*
X30152119Y23373039D01*
X30076961Y23297881D01*
X30076957Y23297875D01*
X30023812Y23205826D01*
X30023812Y23205825D01*
X30023811Y23205823D01*
X29996300Y23103148D01*
X11708700Y23103148D01*
X11708700Y23656439D01*
X12371300Y23656439D01*
X12371300Y23543561D01*
X12372182Y23540269D01*
X12400515Y23434527D01*
X12407147Y23423041D01*
X12456955Y23336772D01*
X12536772Y23256955D01*
X12634528Y23200515D01*
X12743561Y23171300D01*
X12743563Y23171300D01*
X12856437Y23171300D01*
X12856439Y23171300D01*
X12965472Y23200515D01*
X13063228Y23256955D01*
X13143045Y23336772D01*
X13199485Y23434528D01*
X13228700Y23543561D01*
X13228700Y23656439D01*
X13199485Y23765472D01*
X13143045Y23863228D01*
X13063228Y23943045D01*
X13013281Y23971882D01*
X12965473Y23999485D01*
X12910955Y24014093D01*
X12856439Y24028700D01*
X12743561Y24028700D01*
X12634526Y23999485D01*
X12536772Y23943045D01*
X12536769Y23943043D01*
X12456957Y23863231D01*
X12456955Y23863228D01*
X12400515Y23765474D01*
X12397212Y23753146D01*
X12371300Y23656439D01*
X11708700Y23656439D01*
X11708700Y23876000D01*
X11703930Y23920364D01*
X11692724Y23971875D01*
X11690198Y23982212D01*
X11646519Y24064181D01*
X11600764Y24116985D01*
X11600755Y24116994D01*
X11600748Y24117002D01*
X11582901Y24135216D01*
X11582894Y24135222D01*
X11518948Y24170990D01*
X11501838Y24180561D01*
X11471852Y24189366D01*
X11434800Y24200246D01*
X11434792Y24200248D01*
X11376001Y24208700D01*
X11376000Y24208700D01*
X5221507Y24208700D01*
X5194273Y24206915D01*
X5172877Y24204099D01*
X5162179Y24202691D01*
X5162176Y24202691D01*
X5135395Y24197365D01*
X5121319Y24193592D01*
X5089223Y24189366D01*
X5063952Y24189366D01*
X5031860Y24193591D01*
X5017776Y24197365D01*
X4990995Y24202691D01*
X4982971Y24203747D01*
X4958902Y24206915D01*
X4931667Y24208700D01*
X4579875Y24208700D01*
X4568566Y24207960D01*
X4552639Y24206916D01*
X4552623Y24206914D01*
X4520539Y24202690D01*
X4520538Y24202690D01*
X4493767Y24197364D01*
X4444731Y24184225D01*
X4412638Y24180000D01*
X4387362Y24180000D01*
X4355270Y24184225D01*
X4306241Y24197362D01*
X4306235Y24197364D01*
X4306232Y24197364D01*
X4279458Y24202690D01*
X4270039Y24203930D01*
X4247376Y24206914D01*
X4247360Y24206916D01*
X4232052Y24207919D01*
X4220125Y24208700D01*
X-2825500Y24208700D01*
X-2892539Y24228385D01*
X-2938294Y24281189D01*
X-2949500Y24332700D01*
X-2949500Y24753148D01*
X17196300Y24753148D01*
X17196300Y24646852D01*
X17223811Y24544177D01*
X17276959Y24452122D01*
X17352122Y24376959D01*
X17444177Y24323811D01*
X17459243Y24319775D01*
X17518903Y24283410D01*
X17549432Y24220563D01*
X17541137Y24151188D01*
X17496652Y24097310D01*
X17459244Y24080227D01*
X17444177Y24076189D01*
X17444175Y24076188D01*
X17444174Y24076188D01*
X17352125Y24023043D01*
X17352119Y24023039D01*
X17276961Y23947881D01*
X17276957Y23947875D01*
X17223812Y23855826D01*
X17223812Y23855825D01*
X17223811Y23855823D01*
X17196300Y23753148D01*
X17196300Y23646852D01*
X17223811Y23544177D01*
X17223812Y23544176D01*
X17223812Y23544175D01*
X17226067Y23540269D01*
X17276959Y23452122D01*
X17352122Y23376959D01*
X17444177Y23323811D01*
X17546852Y23296300D01*
X17546854Y23296300D01*
X17653146Y23296300D01*
X17653148Y23296300D01*
X17755823Y23323811D01*
X17847878Y23376959D01*
X17923041Y23452122D01*
X17976189Y23544177D01*
X18003700Y23646852D01*
X18003700Y23659731D01*
X23746300Y23659731D01*
X23746300Y23540269D01*
X23777219Y23424878D01*
X23836950Y23321422D01*
X23921422Y23236950D01*
X24024878Y23177219D01*
X24140269Y23146300D01*
X24140271Y23146300D01*
X24259728Y23146300D01*
X24259731Y23146300D01*
X24375122Y23177219D01*
X24478578Y23236950D01*
X24563050Y23321422D01*
X24622781Y23424878D01*
X24653700Y23540269D01*
X24653700Y23659731D01*
X24946300Y23659731D01*
X24946300Y23540269D01*
X24977219Y23424878D01*
X25036950Y23321422D01*
X25121422Y23236950D01*
X25224878Y23177219D01*
X25340269Y23146300D01*
X25340271Y23146300D01*
X25459728Y23146300D01*
X25459731Y23146300D01*
X25575122Y23177219D01*
X25678578Y23236950D01*
X25763050Y23321422D01*
X25822781Y23424878D01*
X25853700Y23540269D01*
X25853700Y23659731D01*
X26146300Y23659731D01*
X26146300Y23540269D01*
X26177219Y23424878D01*
X26236950Y23321422D01*
X26321422Y23236950D01*
X26424878Y23177219D01*
X26540269Y23146300D01*
X26540271Y23146300D01*
X26659728Y23146300D01*
X26659731Y23146300D01*
X26775122Y23177219D01*
X26878578Y23236950D01*
X26963050Y23321422D01*
X27022781Y23424878D01*
X27053700Y23540269D01*
X27053700Y23659731D01*
X27346300Y23659731D01*
X27346300Y23540269D01*
X27377219Y23424878D01*
X27436950Y23321422D01*
X27521422Y23236950D01*
X27624878Y23177219D01*
X27740269Y23146300D01*
X27740271Y23146300D01*
X27859728Y23146300D01*
X27859731Y23146300D01*
X27975122Y23177219D01*
X28078578Y23236950D01*
X28163050Y23321422D01*
X28222781Y23424878D01*
X28253700Y23540269D01*
X28253700Y23659731D01*
X28746300Y23659731D01*
X28746300Y23540269D01*
X28777219Y23424878D01*
X28836950Y23321422D01*
X28921422Y23236950D01*
X29024878Y23177219D01*
X29140269Y23146300D01*
X29140271Y23146300D01*
X29259728Y23146300D01*
X29259731Y23146300D01*
X29375122Y23177219D01*
X29478578Y23236950D01*
X29563050Y23321422D01*
X29622781Y23424878D01*
X29653700Y23540269D01*
X29653700Y23659731D01*
X29622781Y23775122D01*
X29563050Y23878578D01*
X29478578Y23963050D01*
X29375122Y24022781D01*
X29259731Y24053700D01*
X29140269Y24053700D01*
X29024878Y24022781D01*
X29024876Y24022781D01*
X29024876Y24022780D01*
X28921422Y23963050D01*
X28921419Y23963048D01*
X28836952Y23878581D01*
X28836950Y23878578D01*
X28777219Y23775122D01*
X28746300Y23659731D01*
X28253700Y23659731D01*
X28222781Y23775122D01*
X28163050Y23878578D01*
X28078578Y23963050D01*
X27975122Y24022781D01*
X27859731Y24053700D01*
X27740269Y24053700D01*
X27624878Y24022781D01*
X27624876Y24022781D01*
X27624876Y24022780D01*
X27521422Y23963050D01*
X27521419Y23963048D01*
X27436952Y23878581D01*
X27436950Y23878578D01*
X27377219Y23775122D01*
X27346300Y23659731D01*
X27053700Y23659731D01*
X27022781Y23775122D01*
X26963050Y23878578D01*
X26878578Y23963050D01*
X26775122Y24022781D01*
X26659731Y24053700D01*
X26540269Y24053700D01*
X26424878Y24022781D01*
X26424876Y24022781D01*
X26424876Y24022780D01*
X26321422Y23963050D01*
X26321419Y23963048D01*
X26236952Y23878581D01*
X26236950Y23878578D01*
X26177219Y23775122D01*
X26146300Y23659731D01*
X25853700Y23659731D01*
X25822781Y23775122D01*
X25763050Y23878578D01*
X25678578Y23963050D01*
X25575122Y24022781D01*
X25459731Y24053700D01*
X25340269Y24053700D01*
X25224878Y24022781D01*
X25224876Y24022781D01*
X25224876Y24022780D01*
X25121422Y23963050D01*
X25121419Y23963048D01*
X25036952Y23878581D01*
X25036950Y23878578D01*
X24977219Y23775122D01*
X24946300Y23659731D01*
X24653700Y23659731D01*
X24622781Y23775122D01*
X24563050Y23878578D01*
X24478578Y23963050D01*
X24375122Y24022781D01*
X24259731Y24053700D01*
X24140269Y24053700D01*
X24024878Y24022781D01*
X24024876Y24022781D01*
X24024876Y24022780D01*
X23921422Y23963050D01*
X23921419Y23963048D01*
X23836952Y23878581D01*
X23836950Y23878578D01*
X23777219Y23775122D01*
X23746300Y23659731D01*
X18003700Y23659731D01*
X18003700Y23753148D01*
X17976189Y23855823D01*
X17923041Y23947878D01*
X17847878Y24023041D01*
X17786508Y24058473D01*
X17755825Y24076188D01*
X17755823Y24076189D01*
X17740756Y24080226D01*
X17681097Y24116589D01*
X17650567Y24179435D01*
X17658861Y24248811D01*
X17703346Y24302690D01*
X17740755Y24319774D01*
X17755823Y24323811D01*
X17847878Y24376959D01*
X17923041Y24452122D01*
X17976189Y24544177D01*
X18003700Y24646852D01*
X18003700Y24753148D01*
X17976189Y24855823D01*
X17923041Y24947878D01*
X17847878Y25023041D01*
X17755823Y25076189D01*
X17653148Y25103700D01*
X17546852Y25103700D01*
X17444177Y25076189D01*
X17444175Y25076188D01*
X17444174Y25076188D01*
X17352125Y25023043D01*
X17352119Y25023039D01*
X17276961Y24947881D01*
X17276957Y24947875D01*
X17223812Y24855826D01*
X17223812Y24855825D01*
X17223811Y24855823D01*
X17196300Y24753148D01*
X-2949500Y24753148D01*
X-2949500Y26303148D01*
X12346300Y26303148D01*
X12346300Y26196852D01*
X12373811Y26094177D01*
X12426959Y26002122D01*
X12502122Y25926959D01*
X12594177Y25873811D01*
X12609243Y25869775D01*
X12668903Y25833410D01*
X12699432Y25770563D01*
X12691137Y25701188D01*
X12646652Y25647310D01*
X12609244Y25630227D01*
X12594177Y25626189D01*
X12594175Y25626188D01*
X12594174Y25626188D01*
X12502125Y25573043D01*
X12502119Y25573039D01*
X12426961Y25497881D01*
X12426957Y25497875D01*
X12373812Y25405826D01*
X12373812Y25405825D01*
X12373811Y25405823D01*
X12346300Y25303148D01*
X12346300Y25196852D01*
X12373811Y25094177D01*
X12426959Y25002122D01*
X12502122Y24926959D01*
X12594177Y24873811D01*
X12696852Y24846300D01*
X12696854Y24846300D01*
X12803146Y24846300D01*
X12803148Y24846300D01*
X12905823Y24873811D01*
X12997878Y24926959D01*
X13073041Y25002122D01*
X13126189Y25094177D01*
X13153700Y25196852D01*
X13153700Y25259731D01*
X23746300Y25259731D01*
X23746300Y25140269D01*
X23777219Y25024878D01*
X23836950Y24921422D01*
X23921422Y24836950D01*
X24024878Y24777219D01*
X24140269Y24746300D01*
X24140271Y24746300D01*
X24259728Y24746300D01*
X24259731Y24746300D01*
X24375122Y24777219D01*
X24478578Y24836950D01*
X24563050Y24921422D01*
X24622781Y25024878D01*
X24653700Y25140269D01*
X24653700Y25259731D01*
X24946300Y25259731D01*
X24946300Y25140269D01*
X24977219Y25024878D01*
X25036950Y24921422D01*
X25121422Y24836950D01*
X25224878Y24777219D01*
X25340269Y24746300D01*
X25340271Y24746300D01*
X25459728Y24746300D01*
X25459731Y24746300D01*
X25575122Y24777219D01*
X25678578Y24836950D01*
X25763050Y24921422D01*
X25822781Y25024878D01*
X25853700Y25140269D01*
X25853700Y25259731D01*
X26146300Y25259731D01*
X26146300Y25140269D01*
X26177219Y25024878D01*
X26236950Y24921422D01*
X26321422Y24836950D01*
X26424878Y24777219D01*
X26540269Y24746300D01*
X26540271Y24746300D01*
X26659728Y24746300D01*
X26659731Y24746300D01*
X26775122Y24777219D01*
X26878578Y24836950D01*
X26963050Y24921422D01*
X27022781Y25024878D01*
X27053700Y25140269D01*
X27053700Y25259731D01*
X27346300Y25259731D01*
X27346300Y25140269D01*
X27377219Y25024878D01*
X27436950Y24921422D01*
X27521422Y24836950D01*
X27624878Y24777219D01*
X27740269Y24746300D01*
X27740271Y24746300D01*
X27859728Y24746300D01*
X27859731Y24746300D01*
X27975122Y24777219D01*
X28078578Y24836950D01*
X28163050Y24921422D01*
X28222781Y25024878D01*
X28253700Y25140269D01*
X28253700Y25259731D01*
X28546300Y25259731D01*
X28546300Y25140269D01*
X28577219Y25024878D01*
X28636950Y24921422D01*
X28721422Y24836950D01*
X28824878Y24777219D01*
X28940269Y24746300D01*
X28940271Y24746300D01*
X29059728Y24746300D01*
X29059731Y24746300D01*
X29175122Y24777219D01*
X29278578Y24836950D01*
X29363050Y24921422D01*
X29422781Y25024878D01*
X29453700Y25140269D01*
X29453700Y25259731D01*
X29422781Y25375122D01*
X29405056Y25405823D01*
X29405036Y25405858D01*
X29405035Y25405860D01*
X29378641Y25451574D01*
X29373931Y25459731D01*
X36346300Y25459731D01*
X36346300Y25340269D01*
X36377219Y25224878D01*
X36436950Y25121422D01*
X36521422Y25036950D01*
X36624878Y24977219D01*
X36740269Y24946300D01*
X36740271Y24946300D01*
X36859728Y24946300D01*
X36859731Y24946300D01*
X36975122Y24977219D01*
X37078578Y25036950D01*
X37163050Y25121422D01*
X37222781Y25224878D01*
X37253700Y25340269D01*
X37253700Y25459731D01*
X37546300Y25459731D01*
X37546300Y25340269D01*
X37577219Y25224878D01*
X37636950Y25121422D01*
X37721422Y25036950D01*
X37824878Y24977219D01*
X37940269Y24946300D01*
X37940271Y24946300D01*
X38059728Y24946300D01*
X38059731Y24946300D01*
X38175122Y24977219D01*
X38278578Y25036950D01*
X38363050Y25121422D01*
X38422781Y25224878D01*
X38453700Y25340269D01*
X38453700Y25459731D01*
X38746300Y25459731D01*
X38746300Y25340269D01*
X38777219Y25224878D01*
X38836950Y25121422D01*
X38921422Y25036950D01*
X39024878Y24977219D01*
X39140269Y24946300D01*
X39140271Y24946300D01*
X39259728Y24946300D01*
X39259731Y24946300D01*
X39375122Y24977219D01*
X39478578Y25036950D01*
X39563050Y25121422D01*
X39622781Y25224878D01*
X39653700Y25340269D01*
X39653700Y25459731D01*
X39622781Y25575122D01*
X39563050Y25678578D01*
X39478578Y25763050D01*
X39375122Y25822781D01*
X39259731Y25853700D01*
X39140269Y25853700D01*
X39024878Y25822781D01*
X39024876Y25822781D01*
X39024876Y25822780D01*
X38921422Y25763050D01*
X38921419Y25763048D01*
X38836952Y25678581D01*
X38836950Y25678578D01*
X38822587Y25653700D01*
X38777219Y25575122D01*
X38746300Y25459731D01*
X38453700Y25459731D01*
X38422781Y25575122D01*
X38363050Y25678578D01*
X38278578Y25763050D01*
X38175122Y25822781D01*
X38059731Y25853700D01*
X37940269Y25853700D01*
X37824878Y25822781D01*
X37824876Y25822781D01*
X37824876Y25822780D01*
X37721422Y25763050D01*
X37721419Y25763048D01*
X37636952Y25678581D01*
X37636950Y25678578D01*
X37622587Y25653700D01*
X37577219Y25575122D01*
X37546300Y25459731D01*
X37253700Y25459731D01*
X37222781Y25575122D01*
X37163050Y25678578D01*
X37078578Y25763050D01*
X36975122Y25822781D01*
X36859731Y25853700D01*
X36740269Y25853700D01*
X36624878Y25822781D01*
X36624876Y25822781D01*
X36624876Y25822780D01*
X36521422Y25763050D01*
X36521419Y25763048D01*
X36436952Y25678581D01*
X36436950Y25678578D01*
X36422587Y25653700D01*
X36377219Y25575122D01*
X36346300Y25459731D01*
X29373931Y25459731D01*
X29363050Y25478578D01*
X29278578Y25563050D01*
X29175122Y25622781D01*
X29059731Y25653700D01*
X28940269Y25653700D01*
X28824878Y25622781D01*
X28824876Y25622781D01*
X28824876Y25622780D01*
X28721422Y25563050D01*
X28721419Y25563048D01*
X28636952Y25478581D01*
X28636950Y25478578D01*
X28594946Y25405825D01*
X28577219Y25375122D01*
X28546300Y25259731D01*
X28253700Y25259731D01*
X28222781Y25375122D01*
X28163050Y25478578D01*
X28078578Y25563050D01*
X27975122Y25622781D01*
X27859731Y25653700D01*
X27740269Y25653700D01*
X27624878Y25622781D01*
X27624876Y25622781D01*
X27624876Y25622780D01*
X27521422Y25563050D01*
X27521419Y25563048D01*
X27436952Y25478581D01*
X27436950Y25478578D01*
X27394946Y25405825D01*
X27377219Y25375122D01*
X27346300Y25259731D01*
X27053700Y25259731D01*
X27022781Y25375122D01*
X26963050Y25478578D01*
X26878578Y25563050D01*
X26775122Y25622781D01*
X26659731Y25653700D01*
X26540269Y25653700D01*
X26424878Y25622781D01*
X26424876Y25622781D01*
X26424876Y25622780D01*
X26321422Y25563050D01*
X26321419Y25563048D01*
X26236952Y25478581D01*
X26236950Y25478578D01*
X26194946Y25405825D01*
X26177219Y25375122D01*
X26146300Y25259731D01*
X25853700Y25259731D01*
X25822781Y25375122D01*
X25763050Y25478578D01*
X25678578Y25563050D01*
X25575122Y25622781D01*
X25459731Y25653700D01*
X25340269Y25653700D01*
X25224878Y25622781D01*
X25224876Y25622781D01*
X25224876Y25622780D01*
X25121422Y25563050D01*
X25121419Y25563048D01*
X25036952Y25478581D01*
X25036950Y25478578D01*
X24994946Y25405825D01*
X24977219Y25375122D01*
X24946300Y25259731D01*
X24653700Y25259731D01*
X24622781Y25375122D01*
X24563050Y25478578D01*
X24478578Y25563050D01*
X24375122Y25622781D01*
X24259731Y25653700D01*
X24140269Y25653700D01*
X24024878Y25622781D01*
X24024876Y25622781D01*
X24024876Y25622780D01*
X23921422Y25563050D01*
X23921419Y25563048D01*
X23836952Y25478581D01*
X23836950Y25478578D01*
X23794946Y25405825D01*
X23777219Y25375122D01*
X23746300Y25259731D01*
X13153700Y25259731D01*
X13153700Y25303148D01*
X13126189Y25405823D01*
X13073041Y25497878D01*
X12997878Y25573041D01*
X12905823Y25626189D01*
X12890756Y25630226D01*
X12831097Y25666589D01*
X12800567Y25729435D01*
X12808861Y25798811D01*
X12853346Y25852690D01*
X12890755Y25869774D01*
X12905823Y25873811D01*
X12997878Y25926959D01*
X13073041Y26002122D01*
X13126189Y26094177D01*
X13153700Y26196852D01*
X13153700Y26303148D01*
X13126189Y26405823D01*
X13073041Y26497878D01*
X12997878Y26573041D01*
X12905823Y26626189D01*
X12803148Y26653700D01*
X12696852Y26653700D01*
X12594177Y26626189D01*
X12594175Y26626188D01*
X12594174Y26626188D01*
X12502125Y26573043D01*
X12502119Y26573039D01*
X12426961Y26497881D01*
X12426957Y26497875D01*
X12373812Y26405826D01*
X12373812Y26405825D01*
X12373811Y26405823D01*
X12346300Y26303148D01*
X-2949500Y26303148D01*
X-2949500Y26659731D01*
X23746300Y26659731D01*
X23746300Y26540269D01*
X23777219Y26424878D01*
X23836950Y26321422D01*
X23921422Y26236950D01*
X24024878Y26177219D01*
X24140269Y26146300D01*
X24140271Y26146300D01*
X24259728Y26146300D01*
X24259731Y26146300D01*
X24375122Y26177219D01*
X24478578Y26236950D01*
X24563050Y26321422D01*
X24622781Y26424878D01*
X24653700Y26540269D01*
X24653700Y26659731D01*
X24946300Y26659731D01*
X24946300Y26540269D01*
X24977219Y26424878D01*
X25036950Y26321422D01*
X25121422Y26236950D01*
X25224878Y26177219D01*
X25340269Y26146300D01*
X25340271Y26146300D01*
X25459728Y26146300D01*
X25459731Y26146300D01*
X25575122Y26177219D01*
X25678578Y26236950D01*
X25763050Y26321422D01*
X25822781Y26424878D01*
X25853700Y26540269D01*
X25853700Y26659731D01*
X26146300Y26659731D01*
X26146300Y26540269D01*
X26177219Y26424878D01*
X26236950Y26321422D01*
X26321422Y26236950D01*
X26424878Y26177219D01*
X26540269Y26146300D01*
X26540271Y26146300D01*
X26659728Y26146300D01*
X26659731Y26146300D01*
X26775122Y26177219D01*
X26878578Y26236950D01*
X26963050Y26321422D01*
X27022781Y26424878D01*
X27053700Y26540269D01*
X27053700Y26659731D01*
X27346300Y26659731D01*
X27346300Y26540269D01*
X27377219Y26424878D01*
X27436950Y26321422D01*
X27521422Y26236950D01*
X27624878Y26177219D01*
X27740269Y26146300D01*
X27740271Y26146300D01*
X27859728Y26146300D01*
X27859731Y26146300D01*
X27975122Y26177219D01*
X28078578Y26236950D01*
X28163050Y26321422D01*
X28222781Y26424878D01*
X28253700Y26540269D01*
X28253700Y26659731D01*
X28546300Y26659731D01*
X28546300Y26540269D01*
X28577219Y26424878D01*
X28636950Y26321422D01*
X28721422Y26236950D01*
X28824878Y26177219D01*
X28940269Y26146300D01*
X28940271Y26146300D01*
X29059728Y26146300D01*
X29059731Y26146300D01*
X29175122Y26177219D01*
X29278578Y26236950D01*
X29363050Y26321422D01*
X29422781Y26424878D01*
X29453700Y26540269D01*
X29453700Y26659731D01*
X36346300Y26659731D01*
X36346300Y26540269D01*
X36377219Y26424878D01*
X36436950Y26321422D01*
X36521422Y26236950D01*
X36624878Y26177219D01*
X36740269Y26146300D01*
X36740271Y26146300D01*
X36859728Y26146300D01*
X36859731Y26146300D01*
X36975122Y26177219D01*
X37078578Y26236950D01*
X37163050Y26321422D01*
X37222781Y26424878D01*
X37253700Y26540269D01*
X37253700Y26659731D01*
X37546300Y26659731D01*
X37546300Y26540269D01*
X37577219Y26424878D01*
X37636950Y26321422D01*
X37721422Y26236950D01*
X37824878Y26177219D01*
X37940269Y26146300D01*
X37940271Y26146300D01*
X38059728Y26146300D01*
X38059731Y26146300D01*
X38175122Y26177219D01*
X38278578Y26236950D01*
X38363050Y26321422D01*
X38422781Y26424878D01*
X38453700Y26540269D01*
X38453700Y26659731D01*
X38746300Y26659731D01*
X38746300Y26540269D01*
X38777219Y26424878D01*
X38836950Y26321422D01*
X38921422Y26236950D01*
X39024878Y26177219D01*
X39140269Y26146300D01*
X39140271Y26146300D01*
X39259728Y26146300D01*
X39259731Y26146300D01*
X39375122Y26177219D01*
X39478578Y26236950D01*
X39563050Y26321422D01*
X39622781Y26424878D01*
X39653700Y26540269D01*
X39653700Y26659731D01*
X39622781Y26775122D01*
X39563050Y26878578D01*
X39478578Y26963050D01*
X39375122Y27022781D01*
X39259731Y27053700D01*
X39140269Y27053700D01*
X39024878Y27022781D01*
X39024876Y27022781D01*
X39024876Y27022780D01*
X38921422Y26963050D01*
X38921419Y26963048D01*
X38836952Y26878581D01*
X38836950Y26878578D01*
X38777219Y26775122D01*
X38746300Y26659731D01*
X38453700Y26659731D01*
X38422781Y26775122D01*
X38363050Y26878578D01*
X38278578Y26963050D01*
X38175122Y27022781D01*
X38059731Y27053700D01*
X37940269Y27053700D01*
X37824878Y27022781D01*
X37824876Y27022781D01*
X37824876Y27022780D01*
X37721422Y26963050D01*
X37721419Y26963048D01*
X37636952Y26878581D01*
X37636950Y26878578D01*
X37577219Y26775122D01*
X37546300Y26659731D01*
X37253700Y26659731D01*
X37222781Y26775122D01*
X37163050Y26878578D01*
X37078578Y26963050D01*
X36975122Y27022781D01*
X36859731Y27053700D01*
X36740269Y27053700D01*
X36624878Y27022781D01*
X36624876Y27022781D01*
X36624876Y27022780D01*
X36521422Y26963050D01*
X36521419Y26963048D01*
X36436952Y26878581D01*
X36436950Y26878578D01*
X36377219Y26775122D01*
X36346300Y26659731D01*
X29453700Y26659731D01*
X29422781Y26775122D01*
X29363050Y26878578D01*
X29278578Y26963050D01*
X29175122Y27022781D01*
X29059731Y27053700D01*
X28940269Y27053700D01*
X28824878Y27022781D01*
X28824876Y27022781D01*
X28824876Y27022780D01*
X28721422Y26963050D01*
X28721419Y26963048D01*
X28636952Y26878581D01*
X28636950Y26878578D01*
X28577219Y26775122D01*
X28546300Y26659731D01*
X28253700Y26659731D01*
X28222781Y26775122D01*
X28163050Y26878578D01*
X28078578Y26963050D01*
X27975122Y27022781D01*
X27859731Y27053700D01*
X27740269Y27053700D01*
X27624878Y27022781D01*
X27624876Y27022781D01*
X27624876Y27022780D01*
X27521422Y26963050D01*
X27521419Y26963048D01*
X27436952Y26878581D01*
X27436950Y26878578D01*
X27377219Y26775122D01*
X27346300Y26659731D01*
X27053700Y26659731D01*
X27022781Y26775122D01*
X26963050Y26878578D01*
X26878578Y26963050D01*
X26775122Y27022781D01*
X26659731Y27053700D01*
X26540269Y27053700D01*
X26424878Y27022781D01*
X26424876Y27022781D01*
X26424876Y27022780D01*
X26321422Y26963050D01*
X26321419Y26963048D01*
X26236952Y26878581D01*
X26236950Y26878578D01*
X26177219Y26775122D01*
X26146300Y26659731D01*
X25853700Y26659731D01*
X25822781Y26775122D01*
X25763050Y26878578D01*
X25678578Y26963050D01*
X25575122Y27022781D01*
X25459731Y27053700D01*
X25340269Y27053700D01*
X25224878Y27022781D01*
X25224876Y27022781D01*
X25224876Y27022780D01*
X25121422Y26963050D01*
X25121419Y26963048D01*
X25036952Y26878581D01*
X25036950Y26878578D01*
X24977219Y26775122D01*
X24946300Y26659731D01*
X24653700Y26659731D01*
X24622781Y26775122D01*
X24563050Y26878578D01*
X24478578Y26963050D01*
X24375122Y27022781D01*
X24259731Y27053700D01*
X24140269Y27053700D01*
X24024878Y27022781D01*
X24024876Y27022781D01*
X24024876Y27022780D01*
X23921422Y26963050D01*
X23921419Y26963048D01*
X23836952Y26878581D01*
X23836950Y26878578D01*
X23777219Y26775122D01*
X23746300Y26659731D01*
X-2949500Y26659731D01*
X-2949500Y27421250D01*
X-2949274Y27428737D01*
X-2943668Y27521420D01*
X-2933916Y27682641D01*
X-2932111Y27697500D01*
X-2924272Y27740272D01*
X-2886938Y27944005D01*
X-2883355Y27958539D01*
X-2878187Y27975122D01*
X-2808798Y28197798D01*
X-2803496Y28211781D01*
X-2700639Y28440321D01*
X-2693680Y28453579D01*
X-2691639Y28456955D01*
X-2564025Y28668054D01*
X-2555538Y28680350D01*
X-2417581Y28856439D01*
X2971300Y28856439D01*
X2971300Y28743562D01*
X3000515Y28634527D01*
X3007147Y28623041D01*
X3056955Y28536772D01*
X3136772Y28456955D01*
X3234528Y28400515D01*
X3309436Y28380444D01*
X3369097Y28344079D01*
X3399626Y28281232D01*
X3391331Y28211857D01*
X3346846Y28157979D01*
X3309439Y28140896D01*
X3296567Y28137446D01*
X3296565Y28137446D01*
X3296565Y28137445D01*
X3198811Y28081006D01*
X3198808Y28081004D01*
X3118996Y28001192D01*
X3118994Y28001189D01*
X3062554Y27903435D01*
X3034978Y27800516D01*
X3033339Y27794400D01*
X3033339Y27681522D01*
X3047946Y27627006D01*
X3062554Y27572488D01*
X3090774Y27523611D01*
X3118994Y27474733D01*
X3198811Y27394916D01*
X3296567Y27338476D01*
X3405600Y27309261D01*
X3405602Y27309261D01*
X3518476Y27309261D01*
X3518478Y27309261D01*
X3627511Y27338476D01*
X3725267Y27394916D01*
X3805084Y27474733D01*
X3861524Y27572489D01*
X3890168Y27679395D01*
X3926533Y27739054D01*
X3989380Y27769583D01*
X4009943Y27771300D01*
X4056437Y27771300D01*
X4056439Y27771300D01*
X4165472Y27800515D01*
X4263228Y27856955D01*
X4343045Y27936772D01*
X4399485Y28034528D01*
X4428700Y28143561D01*
X4428700Y28253148D01*
X14396300Y28253148D01*
X14396300Y28146852D01*
X14423811Y28044177D01*
X14476959Y27952122D01*
X14552122Y27876959D01*
X14644177Y27823811D01*
X14746852Y27796300D01*
X14746854Y27796300D01*
X14853146Y27796300D01*
X14853148Y27796300D01*
X14955823Y27823811D01*
X15047878Y27876959D01*
X15123041Y27952122D01*
X15176189Y28044177D01*
X15203700Y28146852D01*
X15203700Y28253148D01*
X15696300Y28253148D01*
X15696300Y28146852D01*
X15723811Y28044177D01*
X15776959Y27952122D01*
X15852122Y27876959D01*
X15944177Y27823811D01*
X16046852Y27796300D01*
X16046854Y27796300D01*
X16153146Y27796300D01*
X16153148Y27796300D01*
X16255823Y27823811D01*
X16347878Y27876959D01*
X16423041Y27952122D01*
X16476189Y28044177D01*
X16503700Y28146852D01*
X16503700Y28253148D01*
X16796300Y28253148D01*
X16796300Y28146852D01*
X16823811Y28044177D01*
X16876959Y27952122D01*
X16952122Y27876959D01*
X17044177Y27823811D01*
X17146852Y27796300D01*
X17146854Y27796300D01*
X17253146Y27796300D01*
X17253148Y27796300D01*
X17355823Y27823811D01*
X17418038Y27859731D01*
X36346300Y27859731D01*
X36346300Y27740269D01*
X36377219Y27624878D01*
X36436950Y27521422D01*
X36521422Y27436950D01*
X36624878Y27377219D01*
X36740269Y27346300D01*
X36740271Y27346300D01*
X36859728Y27346300D01*
X36859731Y27346300D01*
X36975122Y27377219D01*
X37078578Y27436950D01*
X37163050Y27521422D01*
X37222781Y27624878D01*
X37253700Y27740269D01*
X37253700Y27859731D01*
X37546300Y27859731D01*
X37546300Y27740269D01*
X37577219Y27624878D01*
X37636950Y27521422D01*
X37721422Y27436950D01*
X37824878Y27377219D01*
X37940269Y27346300D01*
X37940271Y27346300D01*
X38059728Y27346300D01*
X38059731Y27346300D01*
X38175122Y27377219D01*
X38278578Y27436950D01*
X38363050Y27521422D01*
X38422781Y27624878D01*
X38453700Y27740269D01*
X38453700Y27859731D01*
X38746300Y27859731D01*
X38746300Y27740269D01*
X38777219Y27624878D01*
X38836950Y27521422D01*
X38921422Y27436950D01*
X39024878Y27377219D01*
X39140269Y27346300D01*
X39140271Y27346300D01*
X39259728Y27346300D01*
X39259731Y27346300D01*
X39375122Y27377219D01*
X39478578Y27436950D01*
X39563050Y27521422D01*
X39622781Y27624878D01*
X39653700Y27740269D01*
X39653700Y27859731D01*
X39622781Y27975122D01*
X39563050Y28078578D01*
X39478578Y28163050D01*
X39375122Y28222781D01*
X39305259Y28241501D01*
X39284715Y28247006D01*
X39259731Y28253700D01*
X39140269Y28253700D01*
X39024878Y28222781D01*
X39024876Y28222781D01*
X39024876Y28222780D01*
X38921422Y28163050D01*
X38921419Y28163048D01*
X38836952Y28078581D01*
X38836950Y28078578D01*
X38778280Y27976959D01*
X38777219Y27975122D01*
X38746300Y27859731D01*
X38453700Y27859731D01*
X38422781Y27975122D01*
X38363050Y28078578D01*
X38278578Y28163050D01*
X38175122Y28222781D01*
X38059731Y28253700D01*
X37940269Y28253700D01*
X37824878Y28222781D01*
X37824876Y28222781D01*
X37824876Y28222780D01*
X37721422Y28163050D01*
X37721419Y28163048D01*
X37636952Y28078581D01*
X37636950Y28078578D01*
X37578280Y27976959D01*
X37577219Y27975122D01*
X37546300Y27859731D01*
X37253700Y27859731D01*
X37222781Y27975122D01*
X37163050Y28078578D01*
X37078578Y28163050D01*
X36975122Y28222781D01*
X36859731Y28253700D01*
X36740269Y28253700D01*
X36624878Y28222781D01*
X36624876Y28222781D01*
X36624876Y28222780D01*
X36521422Y28163050D01*
X36521419Y28163048D01*
X36436952Y28078581D01*
X36436950Y28078578D01*
X36378280Y27976959D01*
X36377219Y27975122D01*
X36346300Y27859731D01*
X17418038Y27859731D01*
X17447878Y27876959D01*
X17523041Y27952122D01*
X17576189Y28044177D01*
X17603700Y28146852D01*
X17603700Y28253148D01*
X17576906Y28353148D01*
X41096300Y28353148D01*
X41096300Y28246852D01*
X41123811Y28144177D01*
X41123812Y28144176D01*
X41123812Y28144175D01*
X41125706Y28140894D01*
X41176959Y28052122D01*
X41252122Y27976959D01*
X41344177Y27923811D01*
X41446852Y27896300D01*
X41446854Y27896300D01*
X41553146Y27896300D01*
X41553148Y27896300D01*
X41655823Y27923811D01*
X41747878Y27976959D01*
X41823041Y28052122D01*
X41876189Y28144177D01*
X41903700Y28246852D01*
X41903700Y28353148D01*
X41876189Y28455823D01*
X41823041Y28547878D01*
X41747878Y28623041D01*
X41686508Y28658473D01*
X41655825Y28676188D01*
X41655824Y28676189D01*
X41655823Y28676189D01*
X41553148Y28703700D01*
X41446852Y28703700D01*
X41344177Y28676189D01*
X41344175Y28676188D01*
X41344174Y28676188D01*
X41252125Y28623043D01*
X41252119Y28623039D01*
X41176961Y28547881D01*
X41176957Y28547875D01*
X41123812Y28455826D01*
X41123812Y28455825D01*
X41123811Y28455823D01*
X41096300Y28353148D01*
X17576906Y28353148D01*
X17576189Y28355823D01*
X17523041Y28447878D01*
X17447878Y28523041D01*
X17355823Y28576189D01*
X17253148Y28603700D01*
X17146852Y28603700D01*
X17044177Y28576189D01*
X17044175Y28576188D01*
X17044174Y28576188D01*
X16952125Y28523043D01*
X16952119Y28523039D01*
X16876961Y28447881D01*
X16876957Y28447875D01*
X16823812Y28355826D01*
X16823812Y28355825D01*
X16823811Y28355823D01*
X16796300Y28253148D01*
X16503700Y28253148D01*
X16476189Y28355823D01*
X16423041Y28447878D01*
X16347878Y28523041D01*
X16255823Y28576189D01*
X16153148Y28603700D01*
X16046852Y28603700D01*
X15944177Y28576189D01*
X15944175Y28576188D01*
X15944174Y28576188D01*
X15852125Y28523043D01*
X15852119Y28523039D01*
X15776961Y28447881D01*
X15776957Y28447875D01*
X15723812Y28355826D01*
X15723812Y28355825D01*
X15723811Y28355823D01*
X15696300Y28253148D01*
X15203700Y28253148D01*
X15176189Y28355823D01*
X15123041Y28447878D01*
X15047878Y28523041D01*
X14955823Y28576189D01*
X14853148Y28603700D01*
X14746852Y28603700D01*
X14644177Y28576189D01*
X14644175Y28576188D01*
X14644174Y28576188D01*
X14552125Y28523043D01*
X14552119Y28523039D01*
X14476961Y28447881D01*
X14476957Y28447875D01*
X14423812Y28355826D01*
X14423812Y28355825D01*
X14423811Y28355823D01*
X14396300Y28253148D01*
X4428700Y28253148D01*
X4428700Y28256439D01*
X4399485Y28365472D01*
X4343045Y28463228D01*
X4263228Y28543045D01*
X4205823Y28576188D01*
X4165473Y28599485D01*
X4077566Y28623039D01*
X4056439Y28628700D01*
X3952700Y28628700D01*
X3885661Y28648385D01*
X3839906Y28701189D01*
X3828700Y28752700D01*
X3828700Y28856437D01*
X3828700Y28856439D01*
X3799485Y28965472D01*
X3743045Y29063228D01*
X3663228Y29143045D01*
X3614350Y29171265D01*
X3565473Y29199485D01*
X3510955Y29214093D01*
X3456439Y29228700D01*
X3343561Y29228700D01*
X3234526Y29199485D01*
X3136772Y29143045D01*
X3136769Y29143043D01*
X3056957Y29063231D01*
X3056955Y29063228D01*
X3000515Y28965474D01*
X2971300Y28856439D01*
X-2417581Y28856439D01*
X-2400966Y28877646D01*
X-2391051Y28888837D01*
X-2213837Y29066051D01*
X-2202646Y29075966D01*
X-2005350Y29230538D01*
X-1993054Y29239025D01*
X-1778579Y29368681D01*
X-1765320Y29375639D01*
X-1536781Y29478496D01*
X-1522798Y29483798D01*
X-1283533Y29558357D01*
X-1269005Y29561938D01*
X-1022494Y29607112D01*
X-1007641Y29608916D01*
X-753736Y29624274D01*
X-746249Y29624500D01*
X-702405Y29624500D01*
X51377405Y29624500D01*
X51421249Y29624500D01*
X51428736Y29624274D01*
G37*
%TD.AperFunction*%
%TD*%
%TA.AperFunction,Conductor*%
%TO.N,GND*%
G36*
X20523811Y19944177D02*
G01*
X20576959Y19852122D01*
X20652122Y19776959D01*
X20744177Y19723811D01*
X20846852Y19696300D01*
X20846854Y19696300D01*
X20953146Y19696300D01*
X20953148Y19696300D01*
X21055823Y19723811D01*
X21147878Y19776959D01*
X21223041Y19852122D01*
X21276189Y19944177D01*
X21291146Y20000000D01*
X27500000Y20000000D01*
X28250000Y19250000D01*
X28750000Y19250000D01*
X29000000Y19000000D01*
X29760421Y19000000D01*
X29799878Y18977219D01*
X29915269Y18946300D01*
X29915271Y18946300D01*
X30034728Y18946300D01*
X30034731Y18946300D01*
X30150122Y18977219D01*
X30189579Y19000000D01*
X30560421Y19000000D01*
X30599878Y18977219D01*
X30715269Y18946300D01*
X30715271Y18946300D01*
X30834728Y18946300D01*
X30834731Y18946300D01*
X30950122Y18977219D01*
X30989579Y19000000D01*
X31360421Y19000000D01*
X31399878Y18977219D01*
X31515269Y18946300D01*
X31515271Y18946300D01*
X31634728Y18946300D01*
X31634731Y18946300D01*
X31750122Y18977219D01*
X31789579Y19000000D01*
X32000000Y19000000D01*
X32025000Y17750000D01*
X31789579Y17750000D01*
X31750122Y17772781D01*
X31634731Y17803700D01*
X31515269Y17803700D01*
X31399878Y17772781D01*
X31399876Y17772781D01*
X31399876Y17772780D01*
X31360420Y17750000D01*
X30989579Y17750000D01*
X30950122Y17772781D01*
X30834731Y17803700D01*
X30715269Y17803700D01*
X30599878Y17772781D01*
X30599876Y17772781D01*
X30599876Y17772780D01*
X30560420Y17750000D01*
X30189579Y17750000D01*
X30150122Y17772781D01*
X30034731Y17803700D01*
X29915269Y17803700D01*
X29799878Y17772781D01*
X29799876Y17772781D01*
X29799876Y17772780D01*
X29760420Y17750000D01*
X29000000Y17750000D01*
X28570787Y17320788D01*
X28559625Y17323779D01*
X28544094Y17327940D01*
X28424632Y17327940D01*
X28309241Y17297021D01*
X28309239Y17297021D01*
X28309239Y17297020D01*
X28227799Y17250000D01*
X28000000Y17250000D01*
X27250000Y16500000D01*
X22901184Y16500000D01*
X22947878Y16526959D01*
X23023041Y16602122D01*
X23076189Y16694177D01*
X23103700Y16796852D01*
X23103700Y16903148D01*
X23076189Y17005823D01*
X23023041Y17097878D01*
X22947878Y17173041D01*
X22855823Y17226189D01*
X22753148Y17253700D01*
X22646852Y17253700D01*
X22544177Y17226189D01*
X22544175Y17226188D01*
X22544174Y17226188D01*
X22452125Y17173043D01*
X22452119Y17173039D01*
X22376961Y17097881D01*
X22376957Y17097875D01*
X22323812Y17005826D01*
X22323812Y17005825D01*
X22323811Y17005823D01*
X22296300Y16903148D01*
X22296300Y16796852D01*
X22323811Y16694177D01*
X22376959Y16602122D01*
X22452122Y16526959D01*
X22498816Y16500000D01*
X18750000Y16500000D01*
X18750000Y16817268D01*
X18768013Y16786068D01*
X18843176Y16710905D01*
X18935231Y16657757D01*
X19037906Y16630246D01*
X19037908Y16630246D01*
X19144200Y16630246D01*
X19144202Y16630246D01*
X19246877Y16657757D01*
X19338932Y16710905D01*
X19414095Y16786068D01*
X19467243Y16878123D01*
X19494754Y16980798D01*
X19494754Y17087094D01*
X19467243Y17189769D01*
X19414095Y17281824D01*
X19338932Y17356987D01*
X19246877Y17410135D01*
X19144202Y17437646D01*
X19037906Y17437646D01*
X18935231Y17410135D01*
X18935229Y17410134D01*
X18935228Y17410134D01*
X18843179Y17356989D01*
X18843173Y17356985D01*
X18768015Y17281827D01*
X18768011Y17281821D01*
X18750000Y17250625D01*
X18750000Y20000000D01*
X20508854Y20000000D01*
X20523811Y19944177D01*
G37*
%TD.AperFunction*%
%TD*%
%TA.AperFunction,Conductor*%
%TO.N,GND_USB*%
G36*
X4252218Y23995775D02*
G01*
X4343561Y23971300D01*
X4343563Y23971300D01*
X4456437Y23971300D01*
X4456439Y23971300D01*
X4547782Y23995775D01*
X4579875Y24000000D01*
X4931667Y24000000D01*
X4963759Y23995776D01*
X5020148Y23980666D01*
X5020150Y23980666D01*
X5133024Y23980666D01*
X5133026Y23980666D01*
X5189414Y23995776D01*
X5221507Y24000000D01*
X11376000Y24000000D01*
X11443039Y23980315D01*
X11488794Y23927511D01*
X11500000Y23876000D01*
X11500000Y19624000D01*
X11480315Y19556961D01*
X11427511Y19511206D01*
X11376000Y19500000D01*
X7488435Y19500000D01*
X7421396Y19519685D01*
X7375641Y19572489D01*
X7365697Y19641647D01*
X7368657Y19656081D01*
X7378700Y19693561D01*
X7378700Y19806439D01*
X7349485Y19915472D01*
X7293045Y20013228D01*
X7213228Y20093045D01*
X7164350Y20121265D01*
X7115473Y20149485D01*
X7060955Y20164093D01*
X7006439Y20178700D01*
X6893561Y20178700D01*
X6784526Y20149485D01*
X6686772Y20093045D01*
X6686769Y20093043D01*
X6606957Y20013231D01*
X6606955Y20013228D01*
X6550515Y19915474D01*
X6531189Y19843345D01*
X6521300Y19806439D01*
X6521300Y19693561D01*
X6531339Y19656092D01*
X6529677Y19586244D01*
X6490515Y19528381D01*
X6426286Y19500877D01*
X6411565Y19500000D01*
X6000000Y19500000D01*
X6000000Y18124000D01*
X5980315Y18056961D01*
X5927511Y18011206D01*
X5876000Y18000000D01*
X5230945Y18000000D01*
X5163906Y18019685D01*
X5118151Y18072489D01*
X5108207Y18141647D01*
X5137232Y18205203D01*
X5168945Y18231387D01*
X5171536Y18232883D01*
X5247878Y18276959D01*
X5323041Y18352122D01*
X5376189Y18444177D01*
X5403700Y18546852D01*
X5403700Y18653148D01*
X5376189Y18755823D01*
X5323041Y18847878D01*
X5247878Y18923041D01*
X5155823Y18976189D01*
X5053148Y19003700D01*
X4946852Y19003700D01*
X4844175Y18976189D01*
X4761999Y18928744D01*
X4694099Y18912272D01*
X4638001Y18928744D01*
X4555824Y18976189D01*
X4482195Y18995917D01*
X4453148Y19003700D01*
X4346852Y19003700D01*
X4244175Y18976189D01*
X4161999Y18928744D01*
X4094099Y18912272D01*
X4038001Y18928744D01*
X3955824Y18976189D01*
X3882195Y18995917D01*
X3853148Y19003700D01*
X3746852Y19003700D01*
X3644177Y18976189D01*
X3644175Y18976188D01*
X3644174Y18976188D01*
X3552125Y18923043D01*
X3552119Y18923039D01*
X3537681Y18908600D01*
X3476358Y18875115D01*
X3406666Y18880099D01*
X3362319Y18908600D01*
X3347880Y18923039D01*
X3347878Y18923041D01*
X3255823Y18976189D01*
X3153148Y19003700D01*
X3046852Y19003700D01*
X2944177Y18976189D01*
X2944175Y18976188D01*
X2944174Y18976188D01*
X2852125Y18923043D01*
X2852119Y18923039D01*
X2837681Y18908600D01*
X2776358Y18875115D01*
X2706666Y18880099D01*
X2662319Y18908600D01*
X2647880Y18923039D01*
X2647878Y18923041D01*
X2555823Y18976189D01*
X2453148Y19003700D01*
X2346852Y19003700D01*
X2311591Y18994252D01*
X2241741Y18995917D01*
X2183879Y19035081D01*
X2156377Y19099310D01*
X2155500Y19114028D01*
X2155500Y19152600D01*
X2155500Y19152601D01*
X2123095Y19273536D01*
X2060495Y19381964D01*
X1971964Y19470495D01*
X1863536Y19533095D01*
X1863537Y19533095D01*
X1823224Y19543897D01*
X1742601Y19565500D01*
X1617399Y19565500D01*
X1536775Y19543897D01*
X1496463Y19533095D01*
X1388037Y19470496D01*
X1388034Y19470494D01*
X1299506Y19381966D01*
X1299504Y19381963D01*
X1236905Y19273537D01*
X1236905Y19273536D01*
X1204500Y19152601D01*
X1204500Y19027399D01*
X1230935Y18928744D01*
X1233758Y18918209D01*
X1232095Y18848359D01*
X1192933Y18790496D01*
X1128704Y18762992D01*
X1059802Y18774578D01*
X1051985Y18778727D01*
X1032135Y18790187D01*
X1032133Y18790188D01*
X1032131Y18790189D01*
X929456Y18817700D01*
X823160Y18817700D01*
X720485Y18790189D01*
X720483Y18790189D01*
X720483Y18790188D01*
X720480Y18790187D01*
X704767Y18781115D01*
X636866Y18764644D01*
X570840Y18787497D01*
X535382Y18826503D01*
X523043Y18847875D01*
X523038Y18847881D01*
X447880Y18923039D01*
X447878Y18923041D01*
X355823Y18976189D01*
X253148Y19003700D01*
X146852Y19003700D01*
X44177Y18976189D01*
X44175Y18976188D01*
X44174Y18976188D01*
X-47875Y18923043D01*
X-47881Y18923039D01*
X-62319Y18908600D01*
X-123642Y18875115D01*
X-193334Y18880099D01*
X-237681Y18908600D01*
X-252120Y18923039D01*
X-252122Y18923041D01*
X-344177Y18976189D01*
X-446852Y19003700D01*
X-553148Y19003700D01*
X-655823Y18976189D01*
X-655825Y18976188D01*
X-655826Y18976188D01*
X-747875Y18923043D01*
X-747881Y18923039D01*
X-762319Y18908600D01*
X-823642Y18875115D01*
X-893334Y18880099D01*
X-937681Y18908600D01*
X-952120Y18923039D01*
X-952122Y18923041D01*
X-1044177Y18976189D01*
X-1146852Y19003700D01*
X-1253148Y19003700D01*
X-1355823Y18976189D01*
X-1355825Y18976188D01*
X-1355826Y18976188D01*
X-1447875Y18923043D01*
X-1447881Y18923039D01*
X-1523039Y18847881D01*
X-1523043Y18847875D01*
X-1576188Y18755826D01*
X-1576188Y18755825D01*
X-1576189Y18755823D01*
X-1603700Y18653148D01*
X-1603700Y18546852D01*
X-1576189Y18444177D01*
X-1576188Y18444176D01*
X-1576188Y18444175D01*
X-1558473Y18413492D01*
X-1523041Y18352122D01*
X-1447878Y18276959D01*
X-1355823Y18223811D01*
X-1253148Y18196300D01*
X-1253146Y18196300D01*
X-1146854Y18196300D01*
X-1146852Y18196300D01*
X-1044177Y18223811D01*
X-952122Y18276959D01*
X-937681Y18291400D01*
X-876358Y18324885D01*
X-806666Y18319901D01*
X-762319Y18291400D01*
X-747878Y18276959D01*
X-655823Y18223811D01*
X-553148Y18196300D01*
X-553146Y18196300D01*
X-446854Y18196300D01*
X-446852Y18196300D01*
X-344177Y18223811D01*
X-252122Y18276959D01*
X-237681Y18291400D01*
X-176358Y18324885D01*
X-106666Y18319901D01*
X-62319Y18291400D01*
X-47878Y18276959D01*
X44177Y18223811D01*
X146852Y18196300D01*
X146854Y18196300D01*
X253146Y18196300D01*
X253148Y18196300D01*
X355823Y18223811D01*
X371536Y18232884D01*
X439434Y18249358D01*
X505462Y18226508D01*
X540924Y18187500D01*
X553267Y18166122D01*
X628430Y18090959D01*
X720485Y18037811D01*
X823160Y18010300D01*
X823162Y18010300D01*
X929454Y18010300D01*
X929456Y18010300D01*
X1032131Y18037811D01*
X1124186Y18090959D01*
X1199349Y18166122D01*
X1199349Y18166123D01*
X1200473Y18167246D01*
X1261796Y18200731D01*
X1331488Y18195747D01*
X1375835Y18167246D01*
X1376958Y18166123D01*
X1376959Y18166122D01*
X1452122Y18090959D01*
X1544177Y18037811D01*
X1646852Y18010300D01*
X1646854Y18010300D01*
X1753146Y18010300D01*
X1753148Y18010300D01*
X1855823Y18037811D01*
X1947878Y18090959D01*
X2023041Y18166122D01*
X2041306Y18197758D01*
X2091871Y18245972D01*
X2160478Y18259196D01*
X2210689Y18243146D01*
X2244177Y18223811D01*
X2346852Y18196300D01*
X2346854Y18196300D01*
X2453146Y18196300D01*
X2453148Y18196300D01*
X2555823Y18223811D01*
X2647878Y18276959D01*
X2662319Y18291400D01*
X2723642Y18324885D01*
X2793334Y18319901D01*
X2837681Y18291400D01*
X2852122Y18276959D01*
X2944177Y18223811D01*
X3046852Y18196300D01*
X3046854Y18196300D01*
X3153146Y18196300D01*
X3153148Y18196300D01*
X3255823Y18223811D01*
X3347878Y18276959D01*
X3362319Y18291400D01*
X3423642Y18324885D01*
X3493334Y18319901D01*
X3537681Y18291400D01*
X3552122Y18276959D01*
X3644177Y18223811D01*
X3746852Y18196300D01*
X3746854Y18196300D01*
X3853146Y18196300D01*
X3853148Y18196300D01*
X3955823Y18223811D01*
X4038000Y18271257D01*
X4105900Y18287729D01*
X4161999Y18271257D01*
X4244177Y18223811D01*
X4346852Y18196300D01*
X4346854Y18196300D01*
X4396938Y18196300D01*
X4463977Y18176615D01*
X4509732Y18123811D01*
X4519676Y18054653D01*
X4519278Y18052077D01*
X4510670Y18000000D01*
X4500000Y18000000D01*
X4500000Y17935455D01*
X4498340Y17925412D01*
X4487404Y17902742D01*
X4480315Y17878596D01*
X4468964Y17864511D01*
X4467985Y17862480D01*
X4466686Y17861684D01*
X4463681Y17857954D01*
X4456957Y17851231D01*
X4456955Y17851228D01*
X4400515Y17753474D01*
X4376016Y17662038D01*
X4371300Y17644439D01*
X4371300Y17531561D01*
X4400515Y17422528D01*
X4437311Y17358796D01*
X4453784Y17290897D01*
X4437311Y17234796D01*
X4397288Y17165476D01*
X4397288Y17165475D01*
X4368072Y17056439D01*
X4368072Y16943562D01*
X4397287Y16834527D01*
X4439161Y16762001D01*
X4455634Y16694100D01*
X4439161Y16637999D01*
X4397287Y16565474D01*
X4368072Y16456439D01*
X4368072Y16343562D01*
X4397287Y16234527D01*
X4440775Y16159206D01*
X4457248Y16091306D01*
X4440775Y16035205D01*
X4400516Y15965476D01*
X4400516Y15965475D01*
X4371300Y15856439D01*
X4371300Y15743562D01*
X4400515Y15634527D01*
X4428735Y15585650D01*
X4456955Y15536772D01*
X4536772Y15456955D01*
X4634528Y15400515D01*
X4743561Y15371300D01*
X4743563Y15371300D01*
X4856437Y15371300D01*
X4856439Y15371300D01*
X4965472Y15400515D01*
X5063228Y15456955D01*
X5069954Y15463681D01*
X5131277Y15497166D01*
X5157635Y15500000D01*
X5876000Y15500000D01*
X5943039Y15480315D01*
X5988794Y15427511D01*
X6000000Y15376000D01*
X6000000Y8624000D01*
X5980315Y8556961D01*
X5927511Y8511206D01*
X5876000Y8500000D01*
X1319998Y8500000D01*
X1254982Y8519091D01*
X1254917Y8518977D01*
X1254448Y8519248D01*
X1252959Y8519685D01*
X1249597Y8522049D01*
X1155825Y8576188D01*
X1155824Y8576189D01*
X1155823Y8576189D01*
X1053148Y8603700D01*
X946852Y8603700D01*
X844177Y8576189D01*
X844175Y8576188D01*
X844174Y8576188D01*
X745083Y8518977D01*
X743844Y8521122D01*
X690316Y8500430D01*
X680002Y8500000D01*
X-2280002Y8500000D01*
X-2345018Y8519091D01*
X-2345083Y8518977D01*
X-2345552Y8519248D01*
X-2347041Y8519685D01*
X-2350403Y8522049D01*
X-2444175Y8576188D01*
X-2444176Y8576189D01*
X-2444177Y8576189D01*
X-2546852Y8603700D01*
X-2653148Y8603700D01*
X-2755823Y8576189D01*
X-2755825Y8576189D01*
X-2755825Y8576188D01*
X-2755828Y8576187D01*
X-2763502Y8571756D01*
X-2831402Y8555285D01*
X-2897429Y8578138D01*
X-2940618Y8633060D01*
X-2949500Y8679144D01*
X-2949500Y11236112D01*
X-2929815Y11303151D01*
X-2877011Y11348906D01*
X-2807853Y11358850D01*
X-2754588Y11335382D01*
X-2753649Y11336785D01*
X-2633324Y11256387D01*
X-2505267Y11203345D01*
X-2505262Y11203343D01*
X-2369313Y11176301D01*
X-2369310Y11176300D01*
X-2369308Y11176300D01*
X-1630690Y11176300D01*
X-1630689Y11176301D01*
X-1494738Y11203343D01*
X-1415626Y11236112D01*
X-1366677Y11256387D01*
X-1366676Y11256388D01*
X-1366673Y11256389D01*
X-1251417Y11333400D01*
X-1153400Y11431417D01*
X-1076389Y11546673D01*
X-1023343Y11674738D01*
X-996300Y11810692D01*
X-996300Y11949308D01*
X-996300Y11949311D01*
X-996301Y11949313D01*
X926300Y11949313D01*
X926300Y11810688D01*
X953341Y11674746D01*
X953344Y11674734D01*
X1006386Y11546677D01*
X1083401Y11431415D01*
X1181414Y11333402D01*
X1296676Y11256387D01*
X1424733Y11203345D01*
X1424738Y11203343D01*
X1560687Y11176301D01*
X1560690Y11176300D01*
X1560692Y11176300D01*
X2799310Y11176300D01*
X2799311Y11176301D01*
X2935262Y11203343D01*
X3014374Y11236112D01*
X3063323Y11256387D01*
X3063324Y11256388D01*
X3063327Y11256389D01*
X3178583Y11333400D01*
X3276600Y11431417D01*
X3353611Y11546673D01*
X3406657Y11674738D01*
X3433700Y11810692D01*
X3433700Y11949308D01*
X3433700Y11949311D01*
X3433699Y11949313D01*
X3428893Y11973473D01*
X3406657Y12085262D01*
X3379500Y12150826D01*
X3353613Y12213324D01*
X3276598Y12328586D01*
X3178585Y12426599D01*
X3063323Y12503614D01*
X2935266Y12556656D01*
X2935254Y12556659D01*
X2799311Y12583700D01*
X2799308Y12583700D01*
X1560692Y12583700D01*
X1560689Y12583700D01*
X1424745Y12556659D01*
X1424733Y12556656D01*
X1296676Y12503614D01*
X1181414Y12426599D01*
X1083401Y12328586D01*
X1006386Y12213324D01*
X953344Y12085267D01*
X953341Y12085255D01*
X926300Y11949313D01*
X-996301Y11949313D01*
X-1001107Y11973473D01*
X-1023343Y12085262D01*
X-1050500Y12150826D01*
X-1076387Y12213324D01*
X-1153402Y12328586D01*
X-1251415Y12426599D01*
X-1366677Y12503614D01*
X-1494734Y12556656D01*
X-1494746Y12556659D01*
X-1630689Y12583700D01*
X-1630692Y12583700D01*
X-2369308Y12583700D01*
X-2369311Y12583700D01*
X-2505255Y12556659D01*
X-2505267Y12556656D01*
X-2633324Y12503614D01*
X-2753649Y12423215D01*
X-2754649Y12424712D01*
X-2811171Y12400720D01*
X-2880036Y12412525D01*
X-2931586Y12459688D01*
X-2949500Y12523889D01*
X-2949500Y13851121D01*
X-1616200Y13851121D01*
X-1616200Y13744825D01*
X-1588689Y13642150D01*
X-1535541Y13550095D01*
X-1460378Y13474932D01*
X-1368323Y13421784D01*
X-1265648Y13394273D01*
X-1265646Y13394273D01*
X-1159354Y13394273D01*
X-1159352Y13394273D01*
X-1056677Y13421784D01*
X-964622Y13474932D01*
X-950181Y13489373D01*
X-888858Y13522858D01*
X-819166Y13517874D01*
X-774819Y13489373D01*
X-760378Y13474932D01*
X-668323Y13421784D01*
X-565648Y13394273D01*
X-565646Y13394273D01*
X-459354Y13394273D01*
X-459352Y13394273D01*
X-356677Y13421784D01*
X-264622Y13474932D01*
X-250181Y13489373D01*
X-188858Y13522858D01*
X-119166Y13517874D01*
X-74819Y13489373D01*
X-60378Y13474932D01*
X31677Y13421784D01*
X134352Y13394273D01*
X134354Y13394273D01*
X240646Y13394273D01*
X240648Y13394273D01*
X343323Y13421784D01*
X435378Y13474932D01*
X510541Y13550095D01*
X510545Y13550103D01*
X515489Y13556544D01*
X517183Y13555244D01*
X559583Y13595674D01*
X628189Y13608900D01*
X648492Y13605238D01*
X734098Y13582300D01*
X734100Y13582300D01*
X840392Y13582300D01*
X840394Y13582300D01*
X943069Y13609811D01*
X1035124Y13662959D01*
X1049692Y13677527D01*
X1057637Y13681866D01*
X1063063Y13689113D01*
X1087822Y13698348D01*
X1111015Y13711012D01*
X1120044Y13710367D01*
X1128527Y13713530D01*
X1154347Y13707914D01*
X1180707Y13706028D01*
X1189760Y13700210D01*
X1196800Y13698678D01*
X1225054Y13677527D01*
X1232632Y13669949D01*
X1266117Y13608626D01*
X1261133Y13538934D01*
X1252339Y13520270D01*
X1236907Y13493541D01*
X1236905Y13493538D01*
X1219532Y13428700D01*
X1204500Y13372601D01*
X1204500Y13247399D01*
X1236905Y13126464D01*
X1299505Y13018036D01*
X1388036Y12929505D01*
X1496464Y12866905D01*
X1617399Y12834500D01*
X1617401Y12834500D01*
X1742599Y12834500D01*
X1742601Y12834500D01*
X1863536Y12866905D01*
X1971964Y12929505D01*
X2060495Y13018036D01*
X2123095Y13126464D01*
X2155500Y13247399D01*
X2155500Y13283737D01*
X2175185Y13350776D01*
X2227989Y13396531D01*
X2297147Y13406475D01*
X2311575Y13403516D01*
X2346071Y13394273D01*
X2346074Y13394273D01*
X2452365Y13394273D01*
X2452367Y13394273D01*
X2555042Y13421784D01*
X2647097Y13474932D01*
X2661538Y13489373D01*
X2722861Y13522858D01*
X2792553Y13517874D01*
X2836900Y13489373D01*
X2851341Y13474932D01*
X2943396Y13421784D01*
X3046071Y13394273D01*
X3046073Y13394273D01*
X3152365Y13394273D01*
X3152367Y13394273D01*
X3255042Y13421784D01*
X3347097Y13474932D01*
X3361538Y13489373D01*
X3422861Y13522858D01*
X3492553Y13517874D01*
X3536900Y13489373D01*
X3551341Y13474932D01*
X3643396Y13421784D01*
X3746071Y13394273D01*
X3746073Y13394273D01*
X3852365Y13394273D01*
X3852367Y13394273D01*
X3955042Y13421784D01*
X4037219Y13469230D01*
X4105119Y13485702D01*
X4161218Y13469230D01*
X4243396Y13421784D01*
X4346071Y13394273D01*
X4346073Y13394273D01*
X4452365Y13394273D01*
X4452367Y13394273D01*
X4555042Y13421784D01*
X4637219Y13469230D01*
X4705119Y13485702D01*
X4761218Y13469230D01*
X4843396Y13421784D01*
X4946071Y13394273D01*
X4946073Y13394273D01*
X5052365Y13394273D01*
X5052367Y13394273D01*
X5155042Y13421784D01*
X5247097Y13474932D01*
X5322260Y13550095D01*
X5375408Y13642150D01*
X5402919Y13744825D01*
X5402919Y13851121D01*
X5375408Y13953796D01*
X5322260Y14045851D01*
X5247097Y14121014D01*
X5155042Y14174162D01*
X5052367Y14201673D01*
X4946071Y14201673D01*
X4843394Y14174162D01*
X4761218Y14126717D01*
X4693318Y14110245D01*
X4637220Y14126717D01*
X4555043Y14174162D01*
X4502337Y14188284D01*
X4452367Y14201673D01*
X4346071Y14201673D01*
X4243394Y14174162D01*
X4161218Y14126717D01*
X4093318Y14110245D01*
X4037220Y14126717D01*
X3955043Y14174162D01*
X3902337Y14188284D01*
X3852367Y14201673D01*
X3746071Y14201673D01*
X3643396Y14174162D01*
X3643394Y14174161D01*
X3643393Y14174161D01*
X3551344Y14121016D01*
X3551338Y14121012D01*
X3536900Y14106573D01*
X3475577Y14073088D01*
X3405885Y14078072D01*
X3361538Y14106573D01*
X3347099Y14121012D01*
X3347097Y14121014D01*
X3255042Y14174162D01*
X3152367Y14201673D01*
X3046071Y14201673D01*
X2943396Y14174162D01*
X2943394Y14174161D01*
X2943393Y14174161D01*
X2851344Y14121016D01*
X2851338Y14121012D01*
X2836900Y14106573D01*
X2775577Y14073088D01*
X2705885Y14078072D01*
X2661538Y14106573D01*
X2647099Y14121012D01*
X2647097Y14121014D01*
X2555042Y14174162D01*
X2452367Y14201673D01*
X2346071Y14201673D01*
X2243396Y14174162D01*
X2243394Y14174161D01*
X2243393Y14174161D01*
X2151344Y14121016D01*
X2151342Y14121015D01*
X2080742Y14050415D01*
X2019418Y14016931D01*
X1949727Y14021916D01*
X1893793Y14063787D01*
X1873286Y14106004D01*
X1872150Y14110245D01*
X1863689Y14141823D01*
X1810541Y14233878D01*
X1735378Y14309041D01*
X1643323Y14362189D01*
X1540648Y14389700D01*
X1434352Y14389700D01*
X1331677Y14362189D01*
X1331675Y14362188D01*
X1331674Y14362188D01*
X1239625Y14309043D01*
X1239619Y14309039D01*
X1225054Y14294473D01*
X1163731Y14260988D01*
X1094039Y14265972D01*
X1049692Y14294473D01*
X1035126Y14309039D01*
X1035124Y14309041D01*
X943069Y14362189D01*
X840394Y14389700D01*
X734098Y14389700D01*
X631423Y14362189D01*
X631421Y14362188D01*
X631420Y14362188D01*
X539371Y14309043D01*
X539365Y14309039D01*
X464207Y14233881D01*
X459257Y14227429D01*
X457566Y14228727D01*
X415133Y14188284D01*
X346523Y14175077D01*
X326246Y14178738D01*
X240649Y14201673D01*
X240648Y14201673D01*
X134352Y14201673D01*
X31677Y14174162D01*
X31675Y14174161D01*
X31674Y14174161D01*
X-60375Y14121016D01*
X-60381Y14121012D01*
X-74819Y14106573D01*
X-136142Y14073088D01*
X-205834Y14078072D01*
X-250181Y14106573D01*
X-264620Y14121012D01*
X-264622Y14121014D01*
X-356677Y14174162D01*
X-459352Y14201673D01*
X-565648Y14201673D01*
X-668323Y14174162D01*
X-668325Y14174161D01*
X-668326Y14174161D01*
X-760375Y14121016D01*
X-760381Y14121012D01*
X-774819Y14106573D01*
X-836142Y14073088D01*
X-905834Y14078072D01*
X-950181Y14106573D01*
X-964620Y14121012D01*
X-964622Y14121014D01*
X-1056677Y14174162D01*
X-1159352Y14201673D01*
X-1265648Y14201673D01*
X-1368323Y14174162D01*
X-1368325Y14174161D01*
X-1368326Y14174161D01*
X-1460375Y14121016D01*
X-1460381Y14121012D01*
X-1535539Y14045854D01*
X-1535543Y14045848D01*
X-1588688Y13953799D01*
X-1588688Y13953798D01*
X-1588689Y13953796D01*
X-1616200Y13851121D01*
X-2949500Y13851121D01*
X-2949500Y16777178D01*
X-505403Y16777178D01*
X-505403Y16664300D01*
X-499846Y16643561D01*
X-476188Y16555266D01*
X-453212Y16515472D01*
X-419748Y16457511D01*
X-339931Y16377694D01*
X-242175Y16321254D01*
X-133142Y16292039D01*
X-133140Y16292039D01*
X-20266Y16292039D01*
X-20264Y16292039D01*
X88769Y16321254D01*
X186525Y16377694D01*
X266342Y16457511D01*
X322782Y16555267D01*
X351997Y16664300D01*
X351997Y16680638D01*
X371682Y16747677D01*
X424486Y16793432D01*
X464462Y16802129D01*
X464272Y16803577D01*
X472323Y16804638D01*
X472332Y16804638D01*
X581365Y16833853D01*
X679121Y16890293D01*
X758938Y16970110D01*
X815378Y17067866D01*
X844593Y17176899D01*
X844593Y17289777D01*
X815378Y17398810D01*
X758938Y17496566D01*
X679121Y17576383D01*
X630243Y17604603D01*
X581366Y17632823D01*
X526848Y17647431D01*
X472332Y17662038D01*
X359454Y17662038D01*
X250419Y17632823D01*
X152665Y17576383D01*
X152662Y17576381D01*
X72850Y17496569D01*
X72848Y17496566D01*
X16408Y17398812D01*
X-12807Y17289777D01*
X-12807Y17273439D01*
X-32492Y17206400D01*
X-85296Y17160645D01*
X-125273Y17151949D01*
X-125082Y17150500D01*
X-133142Y17149439D01*
X-242177Y17120224D01*
X-339931Y17063784D01*
X-339934Y17063782D01*
X-419746Y16983970D01*
X-419748Y16983967D01*
X-476188Y16886213D01*
X-501048Y16793432D01*
X-505403Y16777178D01*
X-2949500Y16777178D01*
X-2949500Y19876112D01*
X-2929815Y19943151D01*
X-2877011Y19988906D01*
X-2807853Y19998850D01*
X-2754588Y19975382D01*
X-2753649Y19976785D01*
X-2633324Y19896387D01*
X-2505267Y19843345D01*
X-2505262Y19843343D01*
X-2369313Y19816301D01*
X-2369310Y19816300D01*
X-2369308Y19816300D01*
X-1630690Y19816300D01*
X-1630689Y19816301D01*
X-1494738Y19843343D01*
X-1415626Y19876112D01*
X-1366677Y19896387D01*
X-1366676Y19896388D01*
X-1366673Y19896389D01*
X-1251417Y19973400D01*
X-1153400Y20071417D01*
X-1076389Y20186673D01*
X-1023343Y20314738D01*
X-996300Y20450692D01*
X-996300Y20589308D01*
X-996300Y20589311D01*
X-996301Y20589313D01*
X926300Y20589313D01*
X926300Y20450688D01*
X953341Y20314746D01*
X953344Y20314734D01*
X1006386Y20186677D01*
X1083401Y20071415D01*
X1181414Y19973402D01*
X1296676Y19896387D01*
X1424733Y19843345D01*
X1424738Y19843343D01*
X1560687Y19816301D01*
X1560690Y19816300D01*
X1560692Y19816300D01*
X2799310Y19816300D01*
X2799311Y19816301D01*
X2935262Y19843343D01*
X3014374Y19876112D01*
X3063323Y19896387D01*
X3063324Y19896388D01*
X3063327Y19896389D01*
X3178583Y19973400D01*
X3276600Y20071417D01*
X3353611Y20186673D01*
X3406657Y20314738D01*
X3433700Y20450692D01*
X3433700Y20589308D01*
X3433700Y20589311D01*
X3433699Y20589313D01*
X3406658Y20725255D01*
X3406657Y20725262D01*
X3379500Y20790826D01*
X3353613Y20853324D01*
X3276598Y20968586D01*
X3178585Y21066599D01*
X3063323Y21143614D01*
X2935266Y21196656D01*
X2935254Y21196659D01*
X2799311Y21223700D01*
X2799308Y21223700D01*
X1560692Y21223700D01*
X1560689Y21223700D01*
X1424745Y21196659D01*
X1424733Y21196656D01*
X1296676Y21143614D01*
X1181414Y21066599D01*
X1083401Y20968586D01*
X1006386Y20853324D01*
X953344Y20725267D01*
X953341Y20725255D01*
X926300Y20589313D01*
X-996301Y20589313D01*
X-1023342Y20725255D01*
X-1023343Y20725262D01*
X-1050500Y20790826D01*
X-1076387Y20853324D01*
X-1153402Y20968586D01*
X-1251415Y21066599D01*
X-1366677Y21143614D01*
X-1494734Y21196656D01*
X-1494746Y21196659D01*
X-1630689Y21223700D01*
X-1630692Y21223700D01*
X-2369308Y21223700D01*
X-2369311Y21223700D01*
X-2505255Y21196659D01*
X-2505267Y21196656D01*
X-2633324Y21143614D01*
X-2753649Y21063215D01*
X-2754649Y21064712D01*
X-2811171Y21040720D01*
X-2880036Y21052525D01*
X-2931586Y21099688D01*
X-2949500Y21163889D01*
X-2949500Y23876000D01*
X-2929815Y23943039D01*
X-2877011Y23988794D01*
X-2825500Y24000000D01*
X4220125Y24000000D01*
X4252218Y23995775D01*
G37*
%TD.AperFunction*%
%TD*%
M02*
