%TF.GenerationSoftware,KiCad,Pcbnew,9.0.7*%
%TF.CreationDate,2026-03-06T11:51:23+01:00*%
%TF.ProjectId,PDNode-PDCard-4242,50444e6f-6465-42d5-9044-436172642d34,rev?*%
%TF.SameCoordinates,PX102846b8PY6584c50*%
%TF.FileFunction,Soldermask,Top*%
%TF.FilePolarity,Negative*%
%FSLAX46Y46*%
G04 Gerber Fmt 4.6, Leading zero omitted, Abs format (unit mm)*
G04 Created by KiCad (PCBNEW 9.0.7) date 2026-03-06 11:51:23*
%MOMM*%
%LPD*%
G01*
G04 APERTURE LIST*
G04 APERTURE END LIST*
G36*
X38989632Y5873559D02*
G01*
X39016668Y5862360D01*
X39037360Y5841668D01*
X39048559Y5814632D01*
X39050000Y5800000D01*
X39050000Y-800000D01*
X39048559Y-814632D01*
X39037360Y-841668D01*
X39016668Y-862360D01*
X38989632Y-873559D01*
X38975000Y-875000D01*
X38972546Y-875000D01*
X16152454Y-875000D01*
X16150000Y-875000D01*
X16135368Y-873559D01*
X16108332Y-862360D01*
X16087640Y-841668D01*
X16076441Y-814632D01*
X16075000Y-800000D01*
X16075000Y5800000D01*
X16076441Y5814632D01*
X16087640Y5841668D01*
X16108332Y5862360D01*
X16135368Y5873559D01*
X16150000Y5875000D01*
X38975000Y5875000D01*
X38989632Y5873559D01*
G37*
G36*
X2256359Y9861898D02*
G01*
X2371757Y9860006D01*
X2371776Y9860006D01*
X2372164Y9859999D01*
X2372495Y9859988D01*
X2493495Y9853988D01*
X2493824Y9853966D01*
X2494204Y9853935D01*
X2494213Y9853934D01*
X2614316Y9844008D01*
X2614824Y9843966D01*
X2615230Y9843924D01*
X2615706Y9843865D01*
X2615735Y9843862D01*
X2735879Y9828968D01*
X2735915Y9828964D01*
X2736230Y9828924D01*
X2736483Y9828889D01*
X2736803Y9828841D01*
X2855960Y9810968D01*
X2855985Y9810964D01*
X2856483Y9810889D01*
X2856898Y9810818D01*
X2857408Y9810720D01*
X2857457Y9810711D01*
X2975544Y9787888D01*
X2975660Y9787864D01*
X2975898Y9787818D01*
X2976135Y9787770D01*
X3095135Y9761770D01*
X3095464Y9761692D01*
X3095895Y9761583D01*
X3095901Y9761581D01*
X3212928Y9731829D01*
X3212958Y9731821D01*
X3213464Y9731692D01*
X3213889Y9731574D01*
X3329889Y9696574D01*
X3330113Y9696503D01*
X3330335Y9696431D01*
X3330355Y9696424D01*
X3414260Y9668938D01*
X3446113Y9658503D01*
X3446457Y9658383D01*
X3446798Y9658258D01*
X3446871Y9658232D01*
X3560004Y9616551D01*
X3560056Y9616531D01*
X3560457Y9616383D01*
X3560799Y9616250D01*
X3561205Y9616083D01*
X3561221Y9616077D01*
X3626317Y9589341D01*
X3672799Y9570250D01*
X3673107Y9570118D01*
X3673470Y9569955D01*
X3673499Y9569942D01*
X3783757Y9520276D01*
X3783775Y9520268D01*
X3784107Y9520118D01*
X3784373Y9519993D01*
X3893373Y9466993D01*
X3893749Y9466800D01*
X3894224Y9466544D01*
X3894235Y9466538D01*
X4010997Y9403524D01*
X4010998Y9403523D01*
X4019749Y9398800D01*
X4024581Y9392864D01*
X4025000Y9390000D01*
X4025000Y3110000D01*
X4022071Y3102929D01*
X4019749Y3101200D01*
X3893749Y3033200D01*
X3893373Y3033007D01*
X3784373Y2980007D01*
X3784107Y2979882D01*
X3673107Y2929882D01*
X3672799Y2929750D01*
X3560799Y2883750D01*
X3560457Y2883617D01*
X3560008Y2883452D01*
X3560004Y2883450D01*
X3446871Y2841769D01*
X3446846Y2841761D01*
X3446457Y2841617D01*
X3446113Y2841497D01*
X3330113Y2803497D01*
X3329889Y2803426D01*
X3213889Y2768426D01*
X3213464Y2768308D01*
X3095464Y2738308D01*
X3095135Y2738230D01*
X2976135Y2712230D01*
X2975898Y2712182D01*
X2975586Y2712122D01*
X2975544Y2712113D01*
X2857457Y2689290D01*
X2856898Y2689182D01*
X2856483Y2689111D01*
X2736483Y2671111D01*
X2736230Y2671076D01*
X2615230Y2656076D01*
X2614824Y2656034D01*
X2493824Y2646034D01*
X2493495Y2646012D01*
X2372495Y2640012D01*
X2372164Y2640001D01*
X2250164Y2638001D01*
X2249836Y2638001D01*
X2127836Y2640001D01*
X2127505Y2640012D01*
X2006505Y2646012D01*
X2006176Y2646034D01*
X1885176Y2656034D01*
X1884770Y2656076D01*
X1763770Y2671076D01*
X1763517Y2671111D01*
X1643517Y2689111D01*
X1643102Y2689182D01*
X1642552Y2689289D01*
X1642542Y2689290D01*
X1524455Y2712113D01*
X1524398Y2712125D01*
X1524102Y2712182D01*
X1523865Y2712230D01*
X1404865Y2738230D01*
X1404536Y2738308D01*
X1286536Y2768308D01*
X1286111Y2768426D01*
X1170111Y2803426D01*
X1169887Y2803497D01*
X1053887Y2841497D01*
X1053543Y2841617D01*
X1053170Y2841755D01*
X1053128Y2841769D01*
X939995Y2883450D01*
X939972Y2883459D01*
X939543Y2883617D01*
X939201Y2883750D01*
X827201Y2929750D01*
X826893Y2929882D01*
X715893Y2979882D01*
X715627Y2980007D01*
X606627Y3033007D01*
X606251Y3033200D01*
X480251Y3101200D01*
X475419Y3107136D01*
X475000Y3110000D01*
X475000Y9390000D01*
X477929Y9397071D01*
X480251Y9398800D01*
X483486Y9400547D01*
X483487Y9400547D01*
X605764Y9466538D01*
X605794Y9466554D01*
X606251Y9466800D01*
X606627Y9466993D01*
X607111Y9467229D01*
X607124Y9467235D01*
X715301Y9519835D01*
X715330Y9519849D01*
X715627Y9519993D01*
X715893Y9520118D01*
X716198Y9520256D01*
X716242Y9520276D01*
X826500Y9569942D01*
X826549Y9569964D01*
X826893Y9570118D01*
X827201Y9570250D01*
X827546Y9570392D01*
X827570Y9570402D01*
X938778Y9616077D01*
X938812Y9616091D01*
X939201Y9616250D01*
X939543Y9616383D01*
X939925Y9616524D01*
X939995Y9616551D01*
X1053128Y9658232D01*
X1053217Y9658264D01*
X1053543Y9658383D01*
X1053887Y9658503D01*
X1054262Y9658627D01*
X1054274Y9658630D01*
X1169644Y9696424D01*
X1169687Y9696438D01*
X1169887Y9696503D01*
X1170111Y9696574D01*
X1286111Y9731574D01*
X1286536Y9731692D01*
X1287030Y9731818D01*
X1287071Y9731829D01*
X1404098Y9761581D01*
X1404118Y9761586D01*
X1404536Y9761692D01*
X1404865Y9761770D01*
X1523865Y9787770D01*
X1524102Y9787818D01*
X1524324Y9787862D01*
X1524455Y9787888D01*
X1642542Y9810711D01*
X1642599Y9810721D01*
X1643102Y9810818D01*
X1643517Y9810889D01*
X1644006Y9810963D01*
X1644039Y9810968D01*
X1763196Y9828841D01*
X1763207Y9828843D01*
X1763517Y9828889D01*
X1763770Y9828924D01*
X1764074Y9828962D01*
X1764120Y9828968D01*
X1884264Y9843862D01*
X1884298Y9843866D01*
X1884770Y9843924D01*
X1885176Y9843966D01*
X1885678Y9844008D01*
X1885683Y9844008D01*
X2005786Y9853934D01*
X2005799Y9853935D01*
X2006176Y9853966D01*
X2006505Y9853988D01*
X2127505Y9859988D01*
X2127836Y9859999D01*
X2128221Y9860006D01*
X2128242Y9860006D01*
X2243902Y9861902D01*
X2249836Y9861999D01*
X2250164Y9861999D01*
X2256359Y9861898D01*
G37*
G36*
X7545796Y4155918D02*
G01*
X7605815Y4115815D01*
X7645918Y4055796D01*
X7660000Y3985000D01*
X7660000Y3615000D01*
X7645918Y3544204D01*
X7605815Y3484185D01*
X7545796Y3444082D01*
X7475000Y3430000D01*
X7205000Y3430000D01*
X7134204Y3444082D01*
X7074185Y3484185D01*
X7034082Y3544204D01*
X7020000Y3615000D01*
X7020000Y3985000D01*
X7034082Y4055796D01*
X7074185Y4115815D01*
X7134204Y4155918D01*
X7205000Y4170000D01*
X7475000Y4170000D01*
X7545796Y4155918D01*
G37*
G36*
X8565796Y4155918D02*
G01*
X8625815Y4115815D01*
X8665918Y4055796D01*
X8680000Y3985000D01*
X8680000Y3615000D01*
X8665918Y3544204D01*
X8625815Y3484185D01*
X8565796Y3444082D01*
X8495000Y3430000D01*
X8225000Y3430000D01*
X8154204Y3444082D01*
X8094185Y3484185D01*
X8054082Y3544204D01*
X8040000Y3615000D01*
X8040000Y3985000D01*
X8054082Y4055796D01*
X8094185Y4115815D01*
X8154204Y4155918D01*
X8225000Y4170000D01*
X8495000Y4170000D01*
X8565796Y4155918D01*
G37*
G36*
X7851537Y5609776D02*
G01*
X7916421Y5566421D01*
X7959776Y5501537D01*
X7975000Y5425000D01*
X7975000Y5125000D01*
X7959776Y5048463D01*
X7916421Y4983579D01*
X7851537Y4940224D01*
X7775000Y4925000D01*
X6725000Y4925000D01*
X6648463Y4940224D01*
X6583579Y4983579D01*
X6540224Y5048463D01*
X6525000Y5125000D01*
X6525000Y5425000D01*
X6540224Y5501537D01*
X6583579Y5566421D01*
X6648463Y5609776D01*
X6725000Y5625000D01*
X7775000Y5625000D01*
X7851537Y5609776D01*
G37*
G36*
X11305796Y5595918D02*
G01*
X11365815Y5555815D01*
X11405918Y5495796D01*
X11420000Y5425000D01*
X11420000Y5155000D01*
X11405918Y5084204D01*
X11365815Y5024185D01*
X11305796Y4984082D01*
X11235000Y4970000D01*
X10865000Y4970000D01*
X10794204Y4984082D01*
X10734185Y5024185D01*
X10694082Y5084204D01*
X10680000Y5155000D01*
X10680000Y5425000D01*
X10694082Y5495796D01*
X10734185Y5555815D01*
X10794204Y5595918D01*
X10865000Y5610000D01*
X11235000Y5610000D01*
X11305796Y5595918D01*
G37*
G36*
X9726537Y6559776D02*
G01*
X9791421Y6516421D01*
X9834776Y6451537D01*
X9850000Y6375000D01*
X9850000Y6075000D01*
X9834776Y5998463D01*
X9791421Y5933579D01*
X9726537Y5890224D01*
X9650000Y5875000D01*
X8600000Y5875000D01*
X8523463Y5890224D01*
X8458579Y5933579D01*
X8415224Y5998463D01*
X8400000Y6075000D01*
X8400000Y6375000D01*
X8415224Y6451537D01*
X8458579Y6516421D01*
X8523463Y6559776D01*
X8600000Y6575000D01*
X9650000Y6575000D01*
X9726537Y6559776D01*
G37*
G36*
X11305796Y6615918D02*
G01*
X11365815Y6575815D01*
X11405918Y6515796D01*
X11420000Y6445000D01*
X11420000Y6175000D01*
X11405918Y6104204D01*
X11365815Y6044185D01*
X11305796Y6004082D01*
X11235000Y5990000D01*
X10865000Y5990000D01*
X10794204Y6004082D01*
X10734185Y6044185D01*
X10694082Y6104204D01*
X10680000Y6175000D01*
X10680000Y6445000D01*
X10694082Y6515796D01*
X10734185Y6575815D01*
X10794204Y6615918D01*
X10865000Y6630000D01*
X11235000Y6630000D01*
X11305796Y6615918D01*
G37*
G36*
X7851537Y7509776D02*
G01*
X7916421Y7466421D01*
X7959776Y7401537D01*
X7975000Y7325000D01*
X7975000Y7025000D01*
X7959776Y6948463D01*
X7916421Y6883579D01*
X7851537Y6840224D01*
X7775000Y6825000D01*
X6725000Y6825000D01*
X6648463Y6840224D01*
X6583579Y6883579D01*
X6540224Y6948463D01*
X6525000Y7025000D01*
X6525000Y7325000D01*
X6540224Y7401537D01*
X6583579Y7466421D01*
X6648463Y7509776D01*
X6725000Y7525000D01*
X7775000Y7525000D01*
X7851537Y7509776D01*
G37*
G36*
X11305796Y7595918D02*
G01*
X11365815Y7555815D01*
X11405918Y7495796D01*
X11420000Y7425000D01*
X11420000Y7155000D01*
X11405918Y7084204D01*
X11365815Y7024185D01*
X11305796Y6984082D01*
X11235000Y6970000D01*
X10865000Y6970000D01*
X10794204Y6984082D01*
X10734185Y7024185D01*
X10694082Y7084204D01*
X10680000Y7155000D01*
X10680000Y7425000D01*
X10694082Y7495796D01*
X10734185Y7555815D01*
X10794204Y7595918D01*
X10865000Y7610000D01*
X11235000Y7610000D01*
X11305796Y7595918D01*
G37*
G36*
X10117313Y7644872D02*
G01*
X10178953Y7603685D01*
X10220140Y7542045D01*
X10234603Y7469335D01*
X10234603Y7189335D01*
X10220140Y7116625D01*
X10178953Y7054985D01*
X10117313Y7013798D01*
X10044603Y6999335D01*
X9704603Y6999335D01*
X9631893Y7013798D01*
X9570253Y7054985D01*
X9529066Y7116625D01*
X9514603Y7189335D01*
X9514603Y7469335D01*
X9529066Y7542045D01*
X9570253Y7603685D01*
X9631893Y7644872D01*
X9704603Y7659335D01*
X10044603Y7659335D01*
X10117313Y7644872D01*
G37*
G36*
X10117313Y8604872D02*
G01*
X10178953Y8563685D01*
X10220140Y8502045D01*
X10234603Y8429335D01*
X10234603Y8149335D01*
X10220140Y8076625D01*
X10178953Y8014985D01*
X10117313Y7973798D01*
X10044603Y7959335D01*
X9704603Y7959335D01*
X9631893Y7973798D01*
X9570253Y8014985D01*
X9529066Y8076625D01*
X9514603Y8149335D01*
X9514603Y8429335D01*
X9529066Y8502045D01*
X9570253Y8563685D01*
X9631893Y8604872D01*
X9704603Y8619335D01*
X10044603Y8619335D01*
X10117313Y8604872D01*
G37*
G36*
X11305796Y8615918D02*
G01*
X11365815Y8575815D01*
X11405918Y8515796D01*
X11420000Y8445000D01*
X11420000Y8175000D01*
X11405918Y8104204D01*
X11365815Y8044185D01*
X11305796Y8004082D01*
X11235000Y7990000D01*
X10865000Y7990000D01*
X10794204Y8004082D01*
X10734185Y8044185D01*
X10694082Y8104204D01*
X10680000Y8175000D01*
X10680000Y8445000D01*
X10694082Y8515796D01*
X10734185Y8575815D01*
X10794204Y8615918D01*
X10865000Y8630000D01*
X11235000Y8630000D01*
X11305796Y8615918D01*
G37*
G36*
X5918685Y10417031D02*
G01*
X5927358Y10413202D01*
X5934925Y10412099D01*
X5982223Y10388977D01*
X6019541Y10372499D01*
X6022996Y10369044D01*
X6023920Y10368592D01*
X6093591Y10298921D01*
X6094042Y10297998D01*
X6097499Y10294541D01*
X6113978Y10257218D01*
X6137098Y10209927D01*
X6138200Y10202361D01*
X6142031Y10193685D01*
X6150000Y10125000D01*
X6150000Y8875000D01*
X6142031Y8806315D01*
X6138199Y8797639D01*
X6137098Y8790075D01*
X6113985Y8742798D01*
X6097499Y8705459D01*
X6094041Y8702002D01*
X6093591Y8701080D01*
X6023920Y8631409D01*
X6022998Y8630959D01*
X6019541Y8627501D01*
X5982207Y8611017D01*
X5934926Y8587902D01*
X5927361Y8586800D01*
X5918685Y8582969D01*
X5850000Y8575000D01*
X5225000Y8575000D01*
X5156315Y8582969D01*
X5147638Y8586800D01*
X5140074Y8587902D01*
X5092787Y8611019D01*
X5055459Y8627501D01*
X5052002Y8630958D01*
X5051079Y8631409D01*
X4981408Y8701080D01*
X4980956Y8702004D01*
X4977501Y8705459D01*
X4961025Y8742772D01*
X4937901Y8790074D01*
X4936798Y8797643D01*
X4932969Y8806315D01*
X4925000Y8875000D01*
X4925000Y10125000D01*
X4932969Y10193685D01*
X4936798Y10202358D01*
X4937901Y10209926D01*
X4961028Y10257234D01*
X4977501Y10294541D01*
X4980955Y10297996D01*
X4981408Y10298921D01*
X5051079Y10368592D01*
X5052004Y10369045D01*
X5055459Y10372499D01*
X5092761Y10388970D01*
X5140073Y10412099D01*
X5147642Y10413202D01*
X5156315Y10417031D01*
X5225000Y10425000D01*
X5850000Y10425000D01*
X5918685Y10417031D01*
G37*
G36*
X8843685Y10417031D02*
G01*
X8852358Y10413202D01*
X8859925Y10412099D01*
X8907223Y10388977D01*
X8944541Y10372499D01*
X8947996Y10369044D01*
X8948920Y10368592D01*
X9018591Y10298921D01*
X9019042Y10297998D01*
X9022499Y10294541D01*
X9038978Y10257218D01*
X9062098Y10209927D01*
X9063200Y10202361D01*
X9067031Y10193685D01*
X9075000Y10125000D01*
X9075000Y8875000D01*
X9067031Y8806315D01*
X9063199Y8797639D01*
X9062098Y8790075D01*
X9038985Y8742798D01*
X9022499Y8705459D01*
X9019041Y8702002D01*
X9018591Y8701080D01*
X8948920Y8631409D01*
X8947998Y8630959D01*
X8944541Y8627501D01*
X8907207Y8611017D01*
X8859926Y8587902D01*
X8852361Y8586800D01*
X8843685Y8582969D01*
X8775000Y8575000D01*
X8150000Y8575000D01*
X8081315Y8582969D01*
X8072638Y8586800D01*
X8065074Y8587902D01*
X8017787Y8611019D01*
X7980459Y8627501D01*
X7977002Y8630958D01*
X7976079Y8631409D01*
X7906408Y8701080D01*
X7905956Y8702004D01*
X7902501Y8705459D01*
X7886025Y8742772D01*
X7862901Y8790074D01*
X7861798Y8797643D01*
X7857969Y8806315D01*
X7850000Y8875000D01*
X7850000Y10125000D01*
X7857969Y10193685D01*
X7861798Y10202358D01*
X7862901Y10209926D01*
X7886028Y10257234D01*
X7902501Y10294541D01*
X7905955Y10297996D01*
X7906408Y10298921D01*
X7976079Y10368592D01*
X7977004Y10369045D01*
X7980459Y10372499D01*
X8017761Y10388970D01*
X8065073Y10412099D01*
X8072642Y10413202D01*
X8081315Y10417031D01*
X8150000Y10425000D01*
X8775000Y10425000D01*
X8843685Y10417031D01*
G37*
G36*
X37001175Y14038561D02*
G01*
X37006627Y14036019D01*
X37009404Y14035614D01*
X37048855Y14016328D01*
X37106844Y13989287D01*
X37189287Y13906844D01*
X37216338Y13848833D01*
X37235613Y13809405D01*
X37236017Y13806631D01*
X37238561Y13801175D01*
X37250000Y13714286D01*
X37250000Y9585714D01*
X37238561Y9498825D01*
X37236017Y9493370D01*
X37235613Y9490596D01*
X37216348Y9451190D01*
X37189287Y9393156D01*
X37106844Y9310713D01*
X37048810Y9283652D01*
X37009404Y9264387D01*
X37006630Y9263983D01*
X37001175Y9261439D01*
X36914286Y9250000D01*
X35885714Y9250000D01*
X35798825Y9261439D01*
X35793369Y9263983D01*
X35790595Y9264387D01*
X35751167Y9283662D01*
X35693156Y9310713D01*
X35610713Y9393156D01*
X35583672Y9451145D01*
X35564386Y9490596D01*
X35563981Y9493373D01*
X35561439Y9498825D01*
X35550000Y9585714D01*
X35550000Y13714286D01*
X35561439Y13801175D01*
X35563981Y13806627D01*
X35564386Y13809405D01*
X35583682Y13848877D01*
X35610713Y13906844D01*
X35693156Y13989287D01*
X35751123Y14016318D01*
X35790595Y14035614D01*
X35793373Y14036019D01*
X35798825Y14038561D01*
X35885714Y14050000D01*
X36914286Y14050000D01*
X37001175Y14038561D01*
G37*
G36*
X40301175Y14038561D02*
G01*
X40306627Y14036019D01*
X40309404Y14035614D01*
X40348855Y14016328D01*
X40406844Y13989287D01*
X40489287Y13906844D01*
X40516338Y13848833D01*
X40535613Y13809405D01*
X40536017Y13806631D01*
X40538561Y13801175D01*
X40550000Y13714286D01*
X40550000Y9585714D01*
X40538561Y9498825D01*
X40536017Y9493370D01*
X40535613Y9490596D01*
X40516348Y9451190D01*
X40489287Y9393156D01*
X40406844Y9310713D01*
X40348810Y9283652D01*
X40309404Y9264387D01*
X40306630Y9263983D01*
X40301175Y9261439D01*
X40214286Y9250000D01*
X39185714Y9250000D01*
X39098825Y9261439D01*
X39093369Y9263983D01*
X39090595Y9264387D01*
X39051167Y9283662D01*
X38993156Y9310713D01*
X38910713Y9393156D01*
X38883672Y9451145D01*
X38864386Y9490596D01*
X38863981Y9493373D01*
X38861439Y9498825D01*
X38850000Y9585714D01*
X38850000Y13714286D01*
X38861439Y13801175D01*
X38863981Y13806627D01*
X38864386Y13809405D01*
X38883682Y13848877D01*
X38910713Y13906844D01*
X38993156Y13989287D01*
X39051123Y14016318D01*
X39090595Y14035614D01*
X39093373Y14036019D01*
X39098825Y14038561D01*
X39185714Y14050000D01*
X40214286Y14050000D01*
X40301175Y14038561D01*
G37*
G36*
X12093685Y12717031D02*
G01*
X12102358Y12713202D01*
X12109925Y12712099D01*
X12157223Y12688977D01*
X12194541Y12672499D01*
X12197996Y12669044D01*
X12198920Y12668592D01*
X12268591Y12598921D01*
X12269042Y12597998D01*
X12272499Y12594541D01*
X12288978Y12557218D01*
X12312098Y12509927D01*
X12313200Y12502361D01*
X12317031Y12493685D01*
X12325000Y12425000D01*
X12325000Y9575000D01*
X12317031Y9506315D01*
X12313199Y9497639D01*
X12312098Y9490075D01*
X12288985Y9442798D01*
X12272499Y9405459D01*
X12269041Y9402002D01*
X12268591Y9401080D01*
X12198920Y9331409D01*
X12197998Y9330959D01*
X12194541Y9327501D01*
X12157207Y9311017D01*
X12109926Y9287902D01*
X12102361Y9286800D01*
X12093685Y9282969D01*
X12025000Y9275000D01*
X11300000Y9275000D01*
X11231315Y9282969D01*
X11222638Y9286800D01*
X11215074Y9287902D01*
X11167787Y9311019D01*
X11130459Y9327501D01*
X11127002Y9330958D01*
X11126079Y9331409D01*
X11056408Y9401080D01*
X11055956Y9402004D01*
X11052501Y9405459D01*
X11036025Y9442772D01*
X11012901Y9490074D01*
X11011798Y9497643D01*
X11007969Y9506315D01*
X11000000Y9575000D01*
X11000000Y12425000D01*
X11007969Y12493685D01*
X11011798Y12502358D01*
X11012901Y12509926D01*
X11036028Y12557234D01*
X11052501Y12594541D01*
X11055955Y12597996D01*
X11056408Y12598921D01*
X11126079Y12668592D01*
X11127004Y12669045D01*
X11130459Y12672499D01*
X11167761Y12688970D01*
X11215073Y12712099D01*
X11222642Y12713202D01*
X11231315Y12717031D01*
X11300000Y12725000D01*
X12025000Y12725000D01*
X12093685Y12717031D01*
G37*
G36*
X18018685Y12717031D02*
G01*
X18027358Y12713202D01*
X18034925Y12712099D01*
X18082223Y12688977D01*
X18119541Y12672499D01*
X18122996Y12669044D01*
X18123920Y12668592D01*
X18193591Y12598921D01*
X18194042Y12597998D01*
X18197499Y12594541D01*
X18213978Y12557218D01*
X18237098Y12509927D01*
X18238200Y12502361D01*
X18242031Y12493685D01*
X18250000Y12425000D01*
X18250000Y9575000D01*
X18242031Y9506315D01*
X18238199Y9497639D01*
X18237098Y9490075D01*
X18213985Y9442798D01*
X18197499Y9405459D01*
X18194041Y9402002D01*
X18193591Y9401080D01*
X18123920Y9331409D01*
X18122998Y9330959D01*
X18119541Y9327501D01*
X18082207Y9311017D01*
X18034926Y9287902D01*
X18027361Y9286800D01*
X18018685Y9282969D01*
X17950000Y9275000D01*
X17225000Y9275000D01*
X17156315Y9282969D01*
X17147638Y9286800D01*
X17140074Y9287902D01*
X17092787Y9311019D01*
X17055459Y9327501D01*
X17052002Y9330958D01*
X17051079Y9331409D01*
X16981408Y9401080D01*
X16980956Y9402004D01*
X16977501Y9405459D01*
X16961025Y9442772D01*
X16937901Y9490074D01*
X16936798Y9497643D01*
X16932969Y9506315D01*
X16925000Y9575000D01*
X16925000Y12425000D01*
X16932969Y12493685D01*
X16936798Y12502358D01*
X16937901Y12509926D01*
X16961028Y12557234D01*
X16977501Y12594541D01*
X16980955Y12597996D01*
X16981408Y12598921D01*
X17051079Y12668592D01*
X17052004Y12669045D01*
X17055459Y12672499D01*
X17092761Y12688970D01*
X17140073Y12712099D01*
X17147642Y12713202D01*
X17156315Y12717031D01*
X17225000Y12725000D01*
X17950000Y12725000D01*
X18018685Y12717031D01*
G37*
G36*
X50434129Y16700764D02*
G01*
X50450350Y16689925D01*
X50461189Y16673704D01*
X50464995Y16654570D01*
X50464995Y10045490D01*
X50461189Y10026356D01*
X50450350Y10010135D01*
X50434129Y9999296D01*
X50414995Y9995490D01*
X45334995Y9995490D01*
X45315861Y9999296D01*
X45299640Y10010135D01*
X45288801Y10026356D01*
X45284995Y10045490D01*
X45284995Y16654570D01*
X45288801Y16673704D01*
X45299640Y16689925D01*
X45315861Y16700764D01*
X45334995Y16704570D01*
X50414995Y16704570D01*
X50434129Y16700764D01*
G37*
G36*
X24471185Y13542031D02*
G01*
X24479858Y13538202D01*
X24487425Y13537099D01*
X24534723Y13513977D01*
X24572041Y13497499D01*
X24575496Y13494044D01*
X24576420Y13493592D01*
X24646091Y13423921D01*
X24646542Y13422998D01*
X24649999Y13419541D01*
X24666478Y13382218D01*
X24689598Y13334927D01*
X24690700Y13327361D01*
X24694531Y13318685D01*
X24702500Y13250000D01*
X24702500Y11160000D01*
X24694531Y11091315D01*
X24690699Y11082639D01*
X24689598Y11075075D01*
X24666485Y11027798D01*
X24649999Y10990459D01*
X24646541Y10987002D01*
X24646091Y10986080D01*
X24576420Y10916409D01*
X24575498Y10915959D01*
X24572041Y10912501D01*
X24534707Y10896017D01*
X24487426Y10872902D01*
X24479861Y10871800D01*
X24471185Y10867969D01*
X24402500Y10860000D01*
X22832500Y10860000D01*
X22763815Y10867969D01*
X22755138Y10871800D01*
X22747574Y10872902D01*
X22700287Y10896019D01*
X22662959Y10912501D01*
X22659502Y10915958D01*
X22658579Y10916409D01*
X22588908Y10986080D01*
X22588456Y10987004D01*
X22585001Y10990459D01*
X22568525Y11027772D01*
X22545401Y11075074D01*
X22544298Y11082643D01*
X22540469Y11091315D01*
X22532500Y11160000D01*
X22532500Y13250000D01*
X22540469Y13318685D01*
X22544298Y13327358D01*
X22545401Y13334926D01*
X22568528Y13382234D01*
X22585001Y13419541D01*
X22588455Y13422996D01*
X22588908Y13423921D01*
X22658579Y13493592D01*
X22659504Y13494045D01*
X22662959Y13497499D01*
X22700261Y13513970D01*
X22747573Y13537099D01*
X22755142Y13538202D01*
X22763815Y13542031D01*
X22832500Y13550000D01*
X24402500Y13550000D01*
X24471185Y13542031D01*
G37*
G36*
X30711185Y13542031D02*
G01*
X30719858Y13538202D01*
X30727425Y13537099D01*
X30774723Y13513977D01*
X30812041Y13497499D01*
X30815496Y13494044D01*
X30816420Y13493592D01*
X30886091Y13423921D01*
X30886542Y13422998D01*
X30889999Y13419541D01*
X30906478Y13382218D01*
X30929598Y13334927D01*
X30930700Y13327361D01*
X30934531Y13318685D01*
X30942500Y13250000D01*
X30942500Y11160000D01*
X30934531Y11091315D01*
X30930699Y11082639D01*
X30929598Y11075075D01*
X30906485Y11027798D01*
X30889999Y10990459D01*
X30886541Y10987002D01*
X30886091Y10986080D01*
X30816420Y10916409D01*
X30815498Y10915959D01*
X30812041Y10912501D01*
X30774707Y10896017D01*
X30727426Y10872902D01*
X30719861Y10871800D01*
X30711185Y10867969D01*
X30642500Y10860000D01*
X29072500Y10860000D01*
X29003815Y10867969D01*
X28995138Y10871800D01*
X28987574Y10872902D01*
X28940287Y10896019D01*
X28902959Y10912501D01*
X28899502Y10915958D01*
X28898579Y10916409D01*
X28828908Y10986080D01*
X28828456Y10987004D01*
X28825001Y10990459D01*
X28808525Y11027772D01*
X28785401Y11075074D01*
X28784298Y11082643D01*
X28780469Y11091315D01*
X28772500Y11160000D01*
X28772500Y13250000D01*
X28780469Y13318685D01*
X28784298Y13327358D01*
X28785401Y13334926D01*
X28808528Y13382234D01*
X28825001Y13419541D01*
X28828455Y13422996D01*
X28828908Y13423921D01*
X28898579Y13493592D01*
X28899504Y13494045D01*
X28902959Y13497499D01*
X28940261Y13513970D01*
X28987573Y13537099D01*
X28995142Y13538202D01*
X29003815Y13542031D01*
X29072500Y13550000D01*
X30642500Y13550000D01*
X30711185Y13542031D01*
G37*
G36*
X1621789Y12425295D02*
G01*
X1760476Y12388134D01*
X1884819Y12316344D01*
X1986344Y12214819D01*
X2058134Y12090476D01*
X2095295Y11951789D01*
X2095295Y11808211D01*
X2058134Y11669524D01*
X1986344Y11545181D01*
X1884819Y11443656D01*
X1760476Y11371866D01*
X1621789Y11334705D01*
X1550000Y11330000D01*
X1548363Y11330000D01*
X951637Y11330000D01*
X950000Y11330000D01*
X878211Y11334705D01*
X739524Y11371866D01*
X615181Y11443656D01*
X513656Y11545181D01*
X441866Y11669524D01*
X404705Y11808211D01*
X404705Y11951789D01*
X441866Y12090476D01*
X513656Y12214819D01*
X615181Y12316344D01*
X739524Y12388134D01*
X878211Y12425295D01*
X950000Y12430000D01*
X1550000Y12430000D01*
X1621789Y12425295D01*
G37*
G36*
X6051789Y12425295D02*
G01*
X6190476Y12388134D01*
X6314819Y12316344D01*
X6416344Y12214819D01*
X6488134Y12090476D01*
X6525295Y11951789D01*
X6525295Y11808211D01*
X6488134Y11669524D01*
X6416344Y11545181D01*
X6314819Y11443656D01*
X6190476Y11371866D01*
X6051789Y11334705D01*
X5980000Y11330000D01*
X5978363Y11330000D01*
X4881637Y11330000D01*
X4880000Y11330000D01*
X4808211Y11334705D01*
X4669524Y11371866D01*
X4545181Y11443656D01*
X4443656Y11545181D01*
X4371866Y11669524D01*
X4334705Y11808211D01*
X4334705Y11951789D01*
X4371866Y12090476D01*
X4443656Y12214819D01*
X4545181Y12316344D01*
X4669524Y12388134D01*
X4808211Y12425295D01*
X4880000Y12430000D01*
X5980000Y12430000D01*
X6051789Y12425295D01*
G37*
G36*
X32468685Y13367031D02*
G01*
X32477358Y13363202D01*
X32484925Y13362099D01*
X32532223Y13338977D01*
X32569541Y13322499D01*
X32572996Y13319044D01*
X32573920Y13318592D01*
X32643591Y13248921D01*
X32644042Y13247998D01*
X32647499Y13244541D01*
X32663978Y13207218D01*
X32687098Y13159927D01*
X32688200Y13152361D01*
X32692031Y13143685D01*
X32700000Y13075000D01*
X32700000Y12125000D01*
X32692031Y12056315D01*
X32688199Y12047639D01*
X32687098Y12040075D01*
X32663985Y11992798D01*
X32647499Y11955459D01*
X32644041Y11952002D01*
X32643591Y11951080D01*
X32573920Y11881409D01*
X32572998Y11880959D01*
X32569541Y11877501D01*
X32532207Y11861017D01*
X32484926Y11837902D01*
X32477361Y11836800D01*
X32468685Y11832969D01*
X32400000Y11825000D01*
X31900000Y11825000D01*
X31831315Y11832969D01*
X31822638Y11836800D01*
X31815074Y11837902D01*
X31767787Y11861019D01*
X31730459Y11877501D01*
X31727002Y11880958D01*
X31726079Y11881409D01*
X31656408Y11951080D01*
X31655956Y11952004D01*
X31652501Y11955459D01*
X31636025Y11992772D01*
X31612901Y12040074D01*
X31611798Y12047643D01*
X31607969Y12056315D01*
X31600000Y12125000D01*
X31600000Y13075000D01*
X31607969Y13143685D01*
X31611798Y13152358D01*
X31612901Y13159926D01*
X31636028Y13207234D01*
X31652501Y13244541D01*
X31655955Y13247996D01*
X31656408Y13248921D01*
X31726079Y13318592D01*
X31727004Y13319045D01*
X31730459Y13322499D01*
X31767761Y13338970D01*
X31815073Y13362099D01*
X31822642Y13363202D01*
X31831315Y13367031D01*
X31900000Y13375000D01*
X32400000Y13375000D01*
X32468685Y13367031D01*
G37*
G36*
X34368685Y13367031D02*
G01*
X34377358Y13363202D01*
X34384925Y13362099D01*
X34432223Y13338977D01*
X34469541Y13322499D01*
X34472996Y13319044D01*
X34473920Y13318592D01*
X34543591Y13248921D01*
X34544042Y13247998D01*
X34547499Y13244541D01*
X34563978Y13207218D01*
X34587098Y13159927D01*
X34588200Y13152361D01*
X34592031Y13143685D01*
X34600000Y13075000D01*
X34600000Y12125000D01*
X34592031Y12056315D01*
X34588199Y12047639D01*
X34587098Y12040075D01*
X34563985Y11992798D01*
X34547499Y11955459D01*
X34544041Y11952002D01*
X34543591Y11951080D01*
X34473920Y11881409D01*
X34472998Y11880959D01*
X34469541Y11877501D01*
X34432207Y11861017D01*
X34384926Y11837902D01*
X34377361Y11836800D01*
X34368685Y11832969D01*
X34300000Y11825000D01*
X33800000Y11825000D01*
X33731315Y11832969D01*
X33722638Y11836800D01*
X33715074Y11837902D01*
X33667787Y11861019D01*
X33630459Y11877501D01*
X33627002Y11880958D01*
X33626079Y11881409D01*
X33556408Y11951080D01*
X33555956Y11952004D01*
X33552501Y11955459D01*
X33536025Y11992772D01*
X33512901Y12040074D01*
X33511798Y12047643D01*
X33507969Y12056315D01*
X33500000Y12125000D01*
X33500000Y13075000D01*
X33507969Y13143685D01*
X33511798Y13152358D01*
X33512901Y13159926D01*
X33536028Y13207234D01*
X33552501Y13244541D01*
X33555955Y13247996D01*
X33556408Y13248921D01*
X33626079Y13318592D01*
X33627004Y13319045D01*
X33630459Y13322499D01*
X33667761Y13338970D01*
X33715073Y13362099D01*
X33722642Y13363202D01*
X33731315Y13367031D01*
X33800000Y13375000D01*
X34300000Y13375000D01*
X34368685Y13367031D01*
G37*
G36*
X6646537Y13334776D02*
G01*
X6711421Y13291421D01*
X6754776Y13226537D01*
X6770000Y13150000D01*
X6770000Y12850000D01*
X6754776Y12773463D01*
X6711421Y12708579D01*
X6646537Y12665224D01*
X6570000Y12650000D01*
X5570000Y12650000D01*
X5493463Y12665224D01*
X5428579Y12708579D01*
X5385224Y12773463D01*
X5370000Y12850000D01*
X5370000Y13150000D01*
X5385224Y13226537D01*
X5428579Y13291421D01*
X5493463Y13334776D01*
X5570000Y13350000D01*
X6570000Y13350000D01*
X6646537Y13334776D01*
G37*
G36*
X5054372Y13610261D02*
G01*
X5127847Y13567840D01*
X5187840Y13507847D01*
X5230261Y13434372D01*
X5252220Y13352421D01*
X5252220Y13267579D01*
X5230261Y13185628D01*
X5187840Y13112153D01*
X5127847Y13052160D01*
X5054372Y13009739D01*
X4972421Y12987780D01*
X4887579Y12987780D01*
X4805628Y13009739D01*
X4732153Y13052160D01*
X4672160Y13112153D01*
X4629739Y13185628D01*
X4607780Y13267579D01*
X4607780Y13352421D01*
X4629739Y13434372D01*
X4672160Y13507847D01*
X4732153Y13567840D01*
X4805628Y13610261D01*
X4887579Y13632220D01*
X4972421Y13632220D01*
X5054372Y13610261D01*
G37*
G36*
X10345796Y14055918D02*
G01*
X10405815Y14015815D01*
X10445918Y13955796D01*
X10460000Y13885000D01*
X10460000Y13515000D01*
X10445918Y13444204D01*
X10405815Y13384185D01*
X10345796Y13344082D01*
X10275000Y13330000D01*
X10005000Y13330000D01*
X9934204Y13344082D01*
X9874185Y13384185D01*
X9834082Y13444204D01*
X9820000Y13515000D01*
X9820000Y13885000D01*
X9834082Y13955796D01*
X9874185Y14015815D01*
X9934204Y14055918D01*
X10005000Y14070000D01*
X10275000Y14070000D01*
X10345796Y14055918D01*
G37*
G36*
X11365796Y14055918D02*
G01*
X11425815Y14015815D01*
X11465918Y13955796D01*
X11480000Y13885000D01*
X11480000Y13515000D01*
X11465918Y13444204D01*
X11425815Y13384185D01*
X11365796Y13344082D01*
X11295000Y13330000D01*
X11025000Y13330000D01*
X10954204Y13344082D01*
X10894185Y13384185D01*
X10854082Y13444204D01*
X10840000Y13515000D01*
X10840000Y13885000D01*
X10854082Y13955796D01*
X10894185Y14015815D01*
X10954204Y14055918D01*
X11025000Y14070000D01*
X11295000Y14070000D01*
X11365796Y14055918D01*
G37*
G36*
X6646537Y14134776D02*
G01*
X6711421Y14091421D01*
X6754776Y14026537D01*
X6770000Y13950000D01*
X6770000Y13650000D01*
X6754776Y13573463D01*
X6711421Y13508579D01*
X6646537Y13465224D01*
X6570000Y13450000D01*
X5570000Y13450000D01*
X5493463Y13465224D01*
X5428579Y13508579D01*
X5385224Y13573463D01*
X5370000Y13650000D01*
X5370000Y13950000D01*
X5385224Y14026537D01*
X5428579Y14091421D01*
X5493463Y14134776D01*
X5570000Y14150000D01*
X6570000Y14150000D01*
X6646537Y14134776D01*
G37*
G36*
X6692835Y14640485D02*
G01*
X6733388Y14613388D01*
X6760485Y14572835D01*
X6770000Y14525000D01*
X6770000Y14375000D01*
X6760485Y14327165D01*
X6733388Y14286612D01*
X6692835Y14259515D01*
X6645000Y14250000D01*
X5495000Y14250000D01*
X5447165Y14259515D01*
X5406612Y14286612D01*
X5379515Y14327165D01*
X5370000Y14375000D01*
X5370000Y14525000D01*
X5379515Y14572835D01*
X5406612Y14613388D01*
X5447165Y14640485D01*
X5495000Y14650000D01*
X6645000Y14650000D01*
X6692835Y14640485D01*
G37*
G36*
X10382710Y15045537D02*
G01*
X10444350Y15004350D01*
X10485537Y14942710D01*
X10500000Y14870000D01*
X10500000Y14530000D01*
X10485537Y14457290D01*
X10444350Y14395650D01*
X10382710Y14354463D01*
X10310000Y14340000D01*
X10030000Y14340000D01*
X9957290Y14354463D01*
X9895650Y14395650D01*
X9854463Y14457290D01*
X9840000Y14530000D01*
X9840000Y14870000D01*
X9854463Y14942710D01*
X9895650Y15004350D01*
X9957290Y15045537D01*
X10030000Y15060000D01*
X10310000Y15060000D01*
X10382710Y15045537D01*
G37*
G36*
X11342710Y15045537D02*
G01*
X11404350Y15004350D01*
X11445537Y14942710D01*
X11460000Y14870000D01*
X11460000Y14530000D01*
X11445537Y14457290D01*
X11404350Y14395650D01*
X11342710Y14354463D01*
X11270000Y14340000D01*
X10990000Y14340000D01*
X10917290Y14354463D01*
X10855650Y14395650D01*
X10814463Y14457290D01*
X10800000Y14530000D01*
X10800000Y14870000D01*
X10814463Y14942710D01*
X10855650Y15004350D01*
X10917290Y15045537D01*
X10990000Y15060000D01*
X11270000Y15060000D01*
X11342710Y15045537D01*
G37*
G36*
X18145796Y15155918D02*
G01*
X18205815Y15115815D01*
X18245918Y15055796D01*
X18260000Y14985000D01*
X18260000Y14615000D01*
X18245918Y14544204D01*
X18205815Y14484185D01*
X18145796Y14444082D01*
X18075000Y14430000D01*
X17805000Y14430000D01*
X17734204Y14444082D01*
X17674185Y14484185D01*
X17634082Y14544204D01*
X17620000Y14615000D01*
X17620000Y14985000D01*
X17634082Y15055796D01*
X17674185Y15115815D01*
X17734204Y15155918D01*
X17805000Y15170000D01*
X18075000Y15170000D01*
X18145796Y15155918D01*
G37*
G36*
X19165796Y15155918D02*
G01*
X19225815Y15115815D01*
X19265918Y15055796D01*
X19280000Y14985000D01*
X19280000Y14615000D01*
X19265918Y14544204D01*
X19225815Y14484185D01*
X19165796Y14444082D01*
X19095000Y14430000D01*
X18825000Y14430000D01*
X18754204Y14444082D01*
X18694185Y14484185D01*
X18654082Y14544204D01*
X18640000Y14615000D01*
X18640000Y14985000D01*
X18654082Y15055796D01*
X18694185Y15115815D01*
X18754204Y15155918D01*
X18825000Y15170000D01*
X19095000Y15170000D01*
X19165796Y15155918D01*
G37*
G36*
X12492710Y15385537D02*
G01*
X12554350Y15344350D01*
X12595537Y15282710D01*
X12610000Y15210000D01*
X12610000Y14930000D01*
X12595537Y14857290D01*
X12554350Y14795650D01*
X12492710Y14754463D01*
X12420000Y14740000D01*
X12080000Y14740000D01*
X12007290Y14754463D01*
X11945650Y14795650D01*
X11904463Y14857290D01*
X11890000Y14930000D01*
X11890000Y15210000D01*
X11904463Y15282710D01*
X11945650Y15344350D01*
X12007290Y15385537D01*
X12080000Y15400000D01*
X12420000Y15400000D01*
X12492710Y15385537D01*
G37*
G36*
X6692835Y15140485D02*
G01*
X6733388Y15113388D01*
X6760485Y15072835D01*
X6770000Y15025000D01*
X6770000Y14875000D01*
X6760485Y14827165D01*
X6733388Y14786612D01*
X6692835Y14759515D01*
X6645000Y14750000D01*
X5495000Y14750000D01*
X5447165Y14759515D01*
X5406612Y14786612D01*
X5379515Y14827165D01*
X5370000Y14875000D01*
X5370000Y15025000D01*
X5379515Y15072835D01*
X5406612Y15113388D01*
X5447165Y15140485D01*
X5495000Y15150000D01*
X6645000Y15150000D01*
X6692835Y15140485D01*
G37*
G36*
X28581185Y16147031D02*
G01*
X28589858Y16143202D01*
X28597425Y16142099D01*
X28644723Y16118977D01*
X28682041Y16102499D01*
X28685496Y16099044D01*
X28686420Y16098592D01*
X28756091Y16028921D01*
X28756542Y16027998D01*
X28759999Y16024541D01*
X28776478Y15987218D01*
X28799598Y15939927D01*
X28800700Y15932361D01*
X28804531Y15923685D01*
X28812500Y15855000D01*
X28812500Y15355000D01*
X28804531Y15286315D01*
X28800699Y15277639D01*
X28799598Y15270075D01*
X28776485Y15222798D01*
X28759999Y15185459D01*
X28756541Y15182002D01*
X28756091Y15181080D01*
X28686420Y15111409D01*
X28685498Y15110959D01*
X28682041Y15107501D01*
X28644707Y15091017D01*
X28597426Y15067902D01*
X28589861Y15066800D01*
X28581185Y15062969D01*
X28512500Y15055000D01*
X27562500Y15055000D01*
X27493815Y15062969D01*
X27485138Y15066800D01*
X27477574Y15067902D01*
X27430287Y15091019D01*
X27392959Y15107501D01*
X27389502Y15110958D01*
X27388579Y15111409D01*
X27318908Y15181080D01*
X27318456Y15182004D01*
X27315001Y15185459D01*
X27298525Y15222772D01*
X27275401Y15270074D01*
X27274298Y15277643D01*
X27270469Y15286315D01*
X27262500Y15355000D01*
X27262500Y15855000D01*
X27270469Y15923685D01*
X27274298Y15932358D01*
X27275401Y15939926D01*
X27298528Y15987234D01*
X27315001Y16024541D01*
X27318455Y16027996D01*
X27318908Y16028921D01*
X27388579Y16098592D01*
X27389504Y16099045D01*
X27392959Y16102499D01*
X27430261Y16118970D01*
X27477573Y16142099D01*
X27485142Y16143202D01*
X27493815Y16147031D01*
X27562500Y16155000D01*
X28512500Y16155000D01*
X28581185Y16147031D01*
G37*
G36*
X30681185Y16147031D02*
G01*
X30689858Y16143202D01*
X30697425Y16142099D01*
X30744723Y16118977D01*
X30782041Y16102499D01*
X30785496Y16099044D01*
X30786420Y16098592D01*
X30856091Y16028921D01*
X30856542Y16027998D01*
X30859999Y16024541D01*
X30876478Y15987218D01*
X30899598Y15939927D01*
X30900700Y15932361D01*
X30904531Y15923685D01*
X30912500Y15855000D01*
X30912500Y15355000D01*
X30904531Y15286315D01*
X30900699Y15277639D01*
X30899598Y15270075D01*
X30876485Y15222798D01*
X30859999Y15185459D01*
X30856541Y15182002D01*
X30856091Y15181080D01*
X30786420Y15111409D01*
X30785498Y15110959D01*
X30782041Y15107501D01*
X30744707Y15091017D01*
X30697426Y15067902D01*
X30689861Y15066800D01*
X30681185Y15062969D01*
X30612500Y15055000D01*
X29662500Y15055000D01*
X29593815Y15062969D01*
X29585138Y15066800D01*
X29577574Y15067902D01*
X29530287Y15091019D01*
X29492959Y15107501D01*
X29489502Y15110958D01*
X29488579Y15111409D01*
X29418908Y15181080D01*
X29418456Y15182004D01*
X29415001Y15185459D01*
X29398525Y15222772D01*
X29375401Y15270074D01*
X29374298Y15277643D01*
X29370469Y15286315D01*
X29362500Y15355000D01*
X29362500Y15855000D01*
X29370469Y15923685D01*
X29374298Y15932358D01*
X29375401Y15939926D01*
X29398528Y15987234D01*
X29415001Y16024541D01*
X29418455Y16027996D01*
X29418908Y16028921D01*
X29488579Y16098592D01*
X29489504Y16099045D01*
X29492959Y16102499D01*
X29530261Y16118970D01*
X29577573Y16142099D01*
X29585142Y16143202D01*
X29593815Y16147031D01*
X29662500Y16155000D01*
X30612500Y16155000D01*
X30681185Y16147031D01*
G37*
G36*
X6692835Y15640485D02*
G01*
X6733388Y15613388D01*
X6760485Y15572835D01*
X6770000Y15525000D01*
X6770000Y15375000D01*
X6760485Y15327165D01*
X6733388Y15286612D01*
X6692835Y15259515D01*
X6645000Y15250000D01*
X5495000Y15250000D01*
X5447165Y15259515D01*
X5406612Y15286612D01*
X5379515Y15327165D01*
X5370000Y15375000D01*
X5370000Y15525000D01*
X5379515Y15572835D01*
X5406612Y15613388D01*
X5447165Y15640485D01*
X5495000Y15650000D01*
X6645000Y15650000D01*
X6692835Y15640485D01*
G37*
G36*
X39967710Y16035537D02*
G01*
X40029350Y15994350D01*
X40070537Y15932710D01*
X40085000Y15860000D01*
X40085000Y15580000D01*
X40070537Y15507290D01*
X40029350Y15445650D01*
X39967710Y15404463D01*
X39895000Y15390000D01*
X39555000Y15390000D01*
X39482290Y15404463D01*
X39420650Y15445650D01*
X39379463Y15507290D01*
X39365000Y15580000D01*
X39365000Y15860000D01*
X39379463Y15932710D01*
X39420650Y15994350D01*
X39482290Y16035537D01*
X39555000Y16050000D01*
X39895000Y16050000D01*
X39967710Y16035537D01*
G37*
G36*
X38805796Y16020918D02*
G01*
X38865815Y15980815D01*
X38905918Y15920796D01*
X38920000Y15850000D01*
X38920000Y15580000D01*
X38905918Y15509204D01*
X38865815Y15449185D01*
X38805796Y15409082D01*
X38735000Y15395000D01*
X38365000Y15395000D01*
X38294204Y15409082D01*
X38234185Y15449185D01*
X38194082Y15509204D01*
X38180000Y15580000D01*
X38180000Y15850000D01*
X38194082Y15920796D01*
X38234185Y15980815D01*
X38294204Y16020918D01*
X38365000Y16035000D01*
X38735000Y16035000D01*
X38805796Y16020918D01*
G37*
G36*
X18155796Y16155918D02*
G01*
X18215815Y16115815D01*
X18255918Y16055796D01*
X18270000Y15985000D01*
X18270000Y15615000D01*
X18255918Y15544204D01*
X18215815Y15484185D01*
X18155796Y15444082D01*
X18085000Y15430000D01*
X17815000Y15430000D01*
X17744204Y15444082D01*
X17684185Y15484185D01*
X17644082Y15544204D01*
X17630000Y15615000D01*
X17630000Y15985000D01*
X17644082Y16055796D01*
X17684185Y16115815D01*
X17744204Y16155918D01*
X17815000Y16170000D01*
X18085000Y16170000D01*
X18155796Y16155918D01*
G37*
G36*
X19175796Y16155918D02*
G01*
X19235815Y16115815D01*
X19275918Y16055796D01*
X19290000Y15985000D01*
X19290000Y15615000D01*
X19275918Y15544204D01*
X19235815Y15484185D01*
X19175796Y15444082D01*
X19105000Y15430000D01*
X18835000Y15430000D01*
X18764204Y15444082D01*
X18704185Y15484185D01*
X18664082Y15544204D01*
X18650000Y15615000D01*
X18650000Y15985000D01*
X18664082Y16055796D01*
X18704185Y16115815D01*
X18764204Y16155918D01*
X18835000Y16170000D01*
X19105000Y16170000D01*
X19175796Y16155918D01*
G37*
G36*
X33900384Y16536194D02*
G01*
X33916605Y16525355D01*
X33927444Y16509134D01*
X33931250Y16490000D01*
X33931250Y15540000D01*
X33927444Y15520866D01*
X33916605Y15504645D01*
X33900384Y15493806D01*
X33881250Y15490000D01*
X33581250Y15490000D01*
X33562116Y15493806D01*
X33545895Y15504645D01*
X33535056Y15520866D01*
X33531250Y15540000D01*
X33531250Y16110712D01*
X33501962Y16140000D01*
X32993750Y16140000D01*
X32974616Y16143806D01*
X32958395Y16154645D01*
X32947556Y16170866D01*
X32943750Y16190000D01*
X32943750Y16490000D01*
X32947556Y16509134D01*
X32958395Y16525355D01*
X32974616Y16536194D01*
X32993750Y16540000D01*
X33881250Y16540000D01*
X33900384Y16536194D01*
G37*
G36*
X34416634Y16536194D02*
G01*
X34432855Y16525355D01*
X34443694Y16509134D01*
X34447500Y16490000D01*
X34447500Y15540000D01*
X34443694Y15520866D01*
X34432855Y15504645D01*
X34416634Y15493806D01*
X34397500Y15490000D01*
X34147500Y15490000D01*
X34128366Y15493806D01*
X34112145Y15504645D01*
X34101306Y15520866D01*
X34097500Y15540000D01*
X34097500Y16490000D01*
X34101306Y16509134D01*
X34112145Y16525355D01*
X34128366Y16536194D01*
X34147500Y16540000D01*
X34397500Y16540000D01*
X34416634Y16536194D01*
G37*
G36*
X34919134Y16536194D02*
G01*
X34935355Y16525355D01*
X34946194Y16509134D01*
X34950000Y16490000D01*
X34950000Y15540000D01*
X34946194Y15520866D01*
X34935355Y15504645D01*
X34919134Y15493806D01*
X34900000Y15490000D01*
X34650000Y15490000D01*
X34630866Y15493806D01*
X34614645Y15504645D01*
X34603806Y15520866D01*
X34600000Y15540000D01*
X34600000Y16490000D01*
X34603806Y16509134D01*
X34614645Y16525355D01*
X34630866Y16536194D01*
X34650000Y16540000D01*
X34900000Y16540000D01*
X34919134Y16536194D01*
G37*
G36*
X35419134Y16536194D02*
G01*
X35435355Y16525355D01*
X35446194Y16509134D01*
X35450000Y16490000D01*
X35450000Y15540000D01*
X35446194Y15520866D01*
X35435355Y15504645D01*
X35419134Y15493806D01*
X35400000Y15490000D01*
X35150000Y15490000D01*
X35130866Y15493806D01*
X35114645Y15504645D01*
X35103806Y15520866D01*
X35100000Y15540000D01*
X35100000Y16490000D01*
X35103806Y16509134D01*
X35114645Y16525355D01*
X35130866Y16536194D01*
X35150000Y16540000D01*
X35400000Y16540000D01*
X35419134Y16536194D01*
G37*
G36*
X35916634Y16536194D02*
G01*
X35932855Y16525355D01*
X35943694Y16509134D01*
X35947500Y16490000D01*
X35947500Y15540000D01*
X35943694Y15520866D01*
X35932855Y15504645D01*
X35916634Y15493806D01*
X35897500Y15490000D01*
X35647500Y15490000D01*
X35628366Y15493806D01*
X35612145Y15504645D01*
X35601306Y15520866D01*
X35597500Y15540000D01*
X35597500Y16490000D01*
X35601306Y16509134D01*
X35612145Y16525355D01*
X35628366Y16536194D01*
X35647500Y16540000D01*
X35897500Y16540000D01*
X35916634Y16536194D01*
G37*
G36*
X36416634Y16536194D02*
G01*
X36432855Y16525355D01*
X36443694Y16509134D01*
X36447500Y16490000D01*
X36447500Y15540000D01*
X36443694Y15520866D01*
X36432855Y15504645D01*
X36416634Y15493806D01*
X36397500Y15490000D01*
X36147500Y15490000D01*
X36128366Y15493806D01*
X36112145Y15504645D01*
X36101306Y15520866D01*
X36097500Y15540000D01*
X36097500Y16490000D01*
X36101306Y16509134D01*
X36112145Y16525355D01*
X36128366Y16536194D01*
X36147500Y16540000D01*
X36397500Y16540000D01*
X36416634Y16536194D01*
G37*
G36*
X37575384Y16536194D02*
G01*
X37591605Y16525355D01*
X37602444Y16509134D01*
X37606250Y16490000D01*
X37606250Y16190000D01*
X37602444Y16170866D01*
X37591605Y16154645D01*
X37575384Y16143806D01*
X37556250Y16140000D01*
X37051162Y16140000D01*
X37021875Y16110713D01*
X37021875Y15540000D01*
X37018069Y15520866D01*
X37007230Y15504645D01*
X36991009Y15493806D01*
X36971875Y15490000D01*
X36671875Y15490000D01*
X36652741Y15493806D01*
X36636520Y15504645D01*
X36625681Y15520866D01*
X36621875Y15540000D01*
X36621875Y16490000D01*
X36625681Y16509134D01*
X36636520Y16525355D01*
X36652741Y16536194D01*
X36671875Y16540000D01*
X36971875Y16540000D01*
X37551327Y16540000D01*
X37556250Y16540000D01*
X37575384Y16536194D01*
G37*
G36*
X10609571Y15877071D02*
G01*
X10612500Y15870000D01*
X10612500Y15530000D01*
X10609571Y15522929D01*
X10602500Y15520000D01*
X10592556Y15520000D01*
X9907444Y15520000D01*
X9897500Y15520000D01*
X9890429Y15522929D01*
X9887500Y15530000D01*
X9887500Y15870000D01*
X9890429Y15877071D01*
X9897500Y15880000D01*
X10602500Y15880000D01*
X10609571Y15877071D01*
G37*
G36*
X11444571Y15877071D02*
G01*
X11447500Y15870000D01*
X11447500Y15530000D01*
X11444571Y15522929D01*
X11437500Y15520000D01*
X11427556Y15520000D01*
X10742444Y15520000D01*
X10732500Y15520000D01*
X10725429Y15522929D01*
X10722500Y15530000D01*
X10722500Y15870000D01*
X10725429Y15877071D01*
X10732500Y15880000D01*
X11437500Y15880000D01*
X11444571Y15877071D01*
G37*
G36*
X12492710Y16345537D02*
G01*
X12554350Y16304350D01*
X12595537Y16242710D01*
X12610000Y16170000D01*
X12610000Y15890000D01*
X12595537Y15817290D01*
X12554350Y15755650D01*
X12492710Y15714463D01*
X12420000Y15700000D01*
X12080000Y15700000D01*
X12007290Y15714463D01*
X11945650Y15755650D01*
X11904463Y15817290D01*
X11890000Y15890000D01*
X11890000Y16170000D01*
X11904463Y16242710D01*
X11945650Y16304350D01*
X12007290Y16345537D01*
X12080000Y16360000D01*
X12420000Y16360000D01*
X12492710Y16345537D01*
G37*
G36*
X6692835Y16140485D02*
G01*
X6733388Y16113388D01*
X6760485Y16072835D01*
X6770000Y16025000D01*
X6770000Y15875000D01*
X6760485Y15827165D01*
X6733388Y15786612D01*
X6692835Y15759515D01*
X6645000Y15750000D01*
X5495000Y15750000D01*
X5447165Y15759515D01*
X5406612Y15786612D01*
X5379515Y15827165D01*
X5370000Y15875000D01*
X5370000Y16025000D01*
X5379515Y16072835D01*
X5406612Y16113388D01*
X5447165Y16140485D01*
X5495000Y16150000D01*
X6645000Y16150000D01*
X6692835Y16140485D01*
G37*
G36*
X10609571Y17377071D02*
G01*
X10612500Y17370000D01*
X10612500Y17030000D01*
X10609571Y17022929D01*
X10604597Y17020869D01*
X10600073Y17009946D01*
X10600073Y16990054D01*
X10604597Y16979132D01*
X10609571Y16977071D01*
X10612500Y16970000D01*
X10612500Y16430000D01*
X10609571Y16422929D01*
X10604597Y16420869D01*
X10600073Y16409946D01*
X10600073Y16390054D01*
X10604597Y16379132D01*
X10609571Y16377071D01*
X10612500Y16370000D01*
X10612500Y16030000D01*
X10609571Y16022929D01*
X10602500Y16020000D01*
X10592556Y16020000D01*
X9907444Y16020000D01*
X9897500Y16020000D01*
X9890429Y16022929D01*
X9887500Y16030000D01*
X9887500Y16370000D01*
X9890429Y16377071D01*
X9895400Y16379131D01*
X9899926Y16390055D01*
X9899926Y16409945D01*
X9895401Y16420870D01*
X9890429Y16422929D01*
X9887500Y16430000D01*
X9887500Y16970000D01*
X9890429Y16977071D01*
X9895400Y16979131D01*
X9899926Y16990055D01*
X9899926Y17009945D01*
X9895401Y17020870D01*
X9890429Y17022929D01*
X9887500Y17030000D01*
X9887500Y17370000D01*
X9890429Y17377071D01*
X9897500Y17380000D01*
X10602500Y17380000D01*
X10609571Y17377071D01*
G37*
G36*
X11444571Y17377071D02*
G01*
X11447500Y17370000D01*
X11447500Y17030000D01*
X11444571Y17022929D01*
X11439597Y17020869D01*
X11435073Y17009946D01*
X11435073Y16990054D01*
X11439597Y16979132D01*
X11444571Y16977071D01*
X11447500Y16970000D01*
X11447500Y16430000D01*
X11444571Y16422929D01*
X11439597Y16420869D01*
X11435073Y16409946D01*
X11435073Y16390054D01*
X11439597Y16379132D01*
X11444571Y16377071D01*
X11447500Y16370000D01*
X11447500Y16030000D01*
X11444571Y16022929D01*
X11437500Y16020000D01*
X11427556Y16020000D01*
X10742444Y16020000D01*
X10732500Y16020000D01*
X10725429Y16022929D01*
X10722500Y16030000D01*
X10722500Y16370000D01*
X10725429Y16377071D01*
X10730400Y16379131D01*
X10734926Y16390055D01*
X10734926Y16409945D01*
X10730401Y16420870D01*
X10725429Y16422929D01*
X10722500Y16430000D01*
X10722500Y16970000D01*
X10725429Y16977071D01*
X10730400Y16979131D01*
X10734926Y16990055D01*
X10734926Y17009945D01*
X10730401Y17020870D01*
X10725429Y17022929D01*
X10722500Y17030000D01*
X10722500Y17370000D01*
X10725429Y17377071D01*
X10732500Y17380000D01*
X11437500Y17380000D01*
X11444571Y17377071D01*
G37*
G36*
X20402710Y16945537D02*
G01*
X20464350Y16904350D01*
X20505537Y16842710D01*
X20520000Y16770000D01*
X20520000Y16430000D01*
X20505537Y16357290D01*
X20464350Y16295650D01*
X20402710Y16254463D01*
X20330000Y16240000D01*
X20050000Y16240000D01*
X19977290Y16254463D01*
X19915650Y16295650D01*
X19874463Y16357290D01*
X19860000Y16430000D01*
X19860000Y16770000D01*
X19874463Y16842710D01*
X19915650Y16904350D01*
X19977290Y16945537D01*
X20050000Y16960000D01*
X20330000Y16960000D01*
X20402710Y16945537D01*
G37*
G36*
X21362710Y16945537D02*
G01*
X21424350Y16904350D01*
X21465537Y16842710D01*
X21480000Y16770000D01*
X21480000Y16430000D01*
X21465537Y16357290D01*
X21424350Y16295650D01*
X21362710Y16254463D01*
X21290000Y16240000D01*
X21010000Y16240000D01*
X20937290Y16254463D01*
X20875650Y16295650D01*
X20834463Y16357290D01*
X20820000Y16430000D01*
X20820000Y16770000D01*
X20834463Y16842710D01*
X20875650Y16904350D01*
X20937290Y16945537D01*
X21010000Y16960000D01*
X21290000Y16960000D01*
X21362710Y16945537D01*
G37*
G36*
X6692835Y16640485D02*
G01*
X6733388Y16613388D01*
X6760485Y16572835D01*
X6770000Y16525000D01*
X6770000Y16375000D01*
X6760485Y16327165D01*
X6733388Y16286612D01*
X6692835Y16259515D01*
X6645000Y16250000D01*
X5495000Y16250000D01*
X5447165Y16259515D01*
X5406612Y16286612D01*
X5379515Y16327165D01*
X5370000Y16375000D01*
X5370000Y16525000D01*
X5379515Y16572835D01*
X5406612Y16613388D01*
X5447165Y16640485D01*
X5495000Y16650000D01*
X6645000Y16650000D01*
X6692835Y16640485D01*
G37*
G36*
X39967710Y16995537D02*
G01*
X40029350Y16954350D01*
X40070537Y16892710D01*
X40085000Y16820000D01*
X40085000Y16540000D01*
X40070537Y16467290D01*
X40029350Y16405650D01*
X39967710Y16364463D01*
X39895000Y16350000D01*
X39555000Y16350000D01*
X39482290Y16364463D01*
X39420650Y16405650D01*
X39379463Y16467290D01*
X39365000Y16540000D01*
X39365000Y16820000D01*
X39379463Y16892710D01*
X39420650Y16954350D01*
X39482290Y16995537D01*
X39555000Y17010000D01*
X39895000Y17010000D01*
X39967710Y16995537D01*
G37*
G36*
X38805796Y17040918D02*
G01*
X38865815Y17000815D01*
X38905918Y16940796D01*
X38920000Y16870000D01*
X38920000Y16600000D01*
X38905918Y16529204D01*
X38865815Y16469185D01*
X38805796Y16429082D01*
X38735000Y16415000D01*
X38365000Y16415000D01*
X38294204Y16429082D01*
X38234185Y16469185D01*
X38194082Y16529204D01*
X38180000Y16600000D01*
X38180000Y16870000D01*
X38194082Y16940796D01*
X38234185Y17000815D01*
X38294204Y17040918D01*
X38365000Y17055000D01*
X38735000Y17055000D01*
X38805796Y17040918D01*
G37*
G36*
X31967710Y17185537D02*
G01*
X32029350Y17144350D01*
X32070537Y17082710D01*
X32085000Y17010000D01*
X32085000Y16730000D01*
X32070537Y16657290D01*
X32029350Y16595650D01*
X31967710Y16554463D01*
X31895000Y16540000D01*
X31555000Y16540000D01*
X31482290Y16554463D01*
X31420650Y16595650D01*
X31379463Y16657290D01*
X31365000Y16730000D01*
X31365000Y17010000D01*
X31379463Y17082710D01*
X31420650Y17144350D01*
X31482290Y17185537D01*
X31555000Y17200000D01*
X31895000Y17200000D01*
X31967710Y17185537D01*
G37*
G36*
X17083773Y17467800D02*
G01*
X17143792Y17427697D01*
X17183895Y17367678D01*
X17197977Y17296882D01*
X17197977Y16926882D01*
X17183895Y16856086D01*
X17143792Y16796067D01*
X17083773Y16755964D01*
X17012977Y16741882D01*
X16742977Y16741882D01*
X16672181Y16755964D01*
X16612162Y16796067D01*
X16572059Y16856086D01*
X16557977Y16926882D01*
X16557977Y17296882D01*
X16572059Y17367678D01*
X16612162Y17427697D01*
X16672181Y17467800D01*
X16742977Y17481882D01*
X17012977Y17481882D01*
X17083773Y17467800D01*
G37*
G36*
X18103773Y17467800D02*
G01*
X18163792Y17427697D01*
X18203895Y17367678D01*
X18217977Y17296882D01*
X18217977Y16926882D01*
X18203895Y16856086D01*
X18163792Y16796067D01*
X18103773Y16755964D01*
X18032977Y16741882D01*
X17762977Y16741882D01*
X17692181Y16755964D01*
X17632162Y16796067D01*
X17592059Y16856086D01*
X17577977Y16926882D01*
X17577977Y17296882D01*
X17592059Y17367678D01*
X17632162Y17427697D01*
X17692181Y17467800D01*
X17762977Y17481882D01*
X18032977Y17481882D01*
X18103773Y17467800D01*
G37*
G36*
X6692835Y17140485D02*
G01*
X6733388Y17113388D01*
X6760485Y17072835D01*
X6770000Y17025000D01*
X6770000Y16875000D01*
X6760485Y16827165D01*
X6733388Y16786612D01*
X6692835Y16759515D01*
X6645000Y16750000D01*
X5495000Y16750000D01*
X5447165Y16759515D01*
X5406612Y16786612D01*
X5379515Y16827165D01*
X5370000Y16875000D01*
X5370000Y17025000D01*
X5379515Y17072835D01*
X5406612Y17113388D01*
X5447165Y17140485D01*
X5495000Y17150000D01*
X6645000Y17150000D01*
X6692835Y17140485D01*
G37*
G36*
X35094134Y17336194D02*
G01*
X35110355Y17325355D01*
X35121194Y17309134D01*
X35125000Y17290000D01*
X35125000Y16890000D01*
X35121194Y16870866D01*
X35110355Y16854645D01*
X35094134Y16843806D01*
X35075000Y16840000D01*
X32975000Y16840000D01*
X32955866Y16843806D01*
X32939645Y16854645D01*
X32928806Y16870866D01*
X32925000Y16890000D01*
X32925000Y17290000D01*
X32928806Y17309134D01*
X32939645Y17325355D01*
X32955866Y17336194D01*
X32975000Y17340000D01*
X35075000Y17340000D01*
X35094134Y17336194D01*
G37*
G36*
X37594134Y17236194D02*
G01*
X37610355Y17225355D01*
X37621194Y17209134D01*
X37625000Y17190000D01*
X37625000Y16890000D01*
X37621194Y16870866D01*
X37610355Y16854645D01*
X37594134Y16843806D01*
X37575000Y16840000D01*
X36275000Y16840000D01*
X36255866Y16843806D01*
X36239645Y16854645D01*
X36228806Y16870866D01*
X36225000Y16890000D01*
X36225000Y17190000D01*
X36228806Y17209134D01*
X36239645Y17225355D01*
X36255866Y17236194D01*
X36275000Y17240000D01*
X37575000Y17240000D01*
X37594134Y17236194D01*
G37*
G36*
X28581185Y18047031D02*
G01*
X28589858Y18043202D01*
X28597425Y18042099D01*
X28644723Y18018977D01*
X28682041Y18002499D01*
X28685496Y17999044D01*
X28686420Y17998592D01*
X28756091Y17928921D01*
X28756542Y17927998D01*
X28759999Y17924541D01*
X28776478Y17887218D01*
X28799598Y17839927D01*
X28800700Y17832361D01*
X28804531Y17823685D01*
X28812500Y17755000D01*
X28812500Y17255000D01*
X28804531Y17186315D01*
X28800699Y17177639D01*
X28799598Y17170075D01*
X28776485Y17122798D01*
X28759999Y17085459D01*
X28756541Y17082002D01*
X28756091Y17081080D01*
X28686420Y17011409D01*
X28685498Y17010959D01*
X28682041Y17007501D01*
X28644707Y16991017D01*
X28597426Y16967902D01*
X28589861Y16966800D01*
X28581185Y16962969D01*
X28512500Y16955000D01*
X27562500Y16955000D01*
X27493815Y16962969D01*
X27485138Y16966800D01*
X27477574Y16967902D01*
X27430287Y16991019D01*
X27392959Y17007501D01*
X27389502Y17010958D01*
X27388579Y17011409D01*
X27318908Y17081080D01*
X27318456Y17082004D01*
X27315001Y17085459D01*
X27298525Y17122772D01*
X27275401Y17170074D01*
X27274298Y17177643D01*
X27270469Y17186315D01*
X27262500Y17255000D01*
X27262500Y17755000D01*
X27270469Y17823685D01*
X27274298Y17832358D01*
X27275401Y17839926D01*
X27298528Y17887234D01*
X27315001Y17924541D01*
X27318455Y17927996D01*
X27318908Y17928921D01*
X27388579Y17998592D01*
X27389504Y17999045D01*
X27392959Y18002499D01*
X27430261Y18018970D01*
X27477573Y18042099D01*
X27485142Y18043202D01*
X27493815Y18047031D01*
X27562500Y18055000D01*
X28512500Y18055000D01*
X28581185Y18047031D01*
G37*
G36*
X30681185Y18047031D02*
G01*
X30689858Y18043202D01*
X30697425Y18042099D01*
X30744723Y18018977D01*
X30782041Y18002499D01*
X30785496Y17999044D01*
X30786420Y17998592D01*
X30856091Y17928921D01*
X30856542Y17927998D01*
X30859999Y17924541D01*
X30876478Y17887218D01*
X30899598Y17839927D01*
X30900700Y17832361D01*
X30904531Y17823685D01*
X30912500Y17755000D01*
X30912500Y17255000D01*
X30904531Y17186315D01*
X30900699Y17177639D01*
X30899598Y17170075D01*
X30876485Y17122798D01*
X30859999Y17085459D01*
X30856541Y17082002D01*
X30856091Y17081080D01*
X30786420Y17011409D01*
X30785498Y17010959D01*
X30782041Y17007501D01*
X30744707Y16991017D01*
X30697426Y16967902D01*
X30689861Y16966800D01*
X30681185Y16962969D01*
X30612500Y16955000D01*
X29662500Y16955000D01*
X29593815Y16962969D01*
X29585138Y16966800D01*
X29577574Y16967902D01*
X29530287Y16991019D01*
X29492959Y17007501D01*
X29489502Y17010958D01*
X29488579Y17011409D01*
X29418908Y17081080D01*
X29418456Y17082004D01*
X29415001Y17085459D01*
X29398525Y17122772D01*
X29375401Y17170074D01*
X29374298Y17177643D01*
X29370469Y17186315D01*
X29362500Y17255000D01*
X29362500Y17755000D01*
X29370469Y17823685D01*
X29374298Y17832358D01*
X29375401Y17839926D01*
X29398528Y17887234D01*
X29415001Y17924541D01*
X29418455Y17927996D01*
X29418908Y17928921D01*
X29488579Y17998592D01*
X29489504Y17999045D01*
X29492959Y18002499D01*
X29530261Y18018970D01*
X29577573Y18042099D01*
X29585142Y18043202D01*
X29593815Y18047031D01*
X29662500Y18055000D01*
X30612500Y18055000D01*
X30681185Y18047031D01*
G37*
G36*
X12492710Y17685537D02*
G01*
X12554350Y17644350D01*
X12595537Y17582710D01*
X12610000Y17510000D01*
X12610000Y17230000D01*
X12595537Y17157290D01*
X12554350Y17095650D01*
X12492710Y17054463D01*
X12420000Y17040000D01*
X12080000Y17040000D01*
X12007290Y17054463D01*
X11945650Y17095650D01*
X11904463Y17157290D01*
X11890000Y17230000D01*
X11890000Y17510000D01*
X11904463Y17582710D01*
X11945650Y17644350D01*
X12007290Y17685537D01*
X12080000Y17700000D01*
X12420000Y17700000D01*
X12492710Y17685537D01*
G37*
G36*
X6692835Y17640485D02*
G01*
X6733388Y17613388D01*
X6760485Y17572835D01*
X6770000Y17525000D01*
X6770000Y17375000D01*
X6760485Y17327165D01*
X6733388Y17286612D01*
X6692835Y17259515D01*
X6645000Y17250000D01*
X5495000Y17250000D01*
X5447165Y17259515D01*
X5406612Y17286612D01*
X5379515Y17327165D01*
X5370000Y17375000D01*
X5370000Y17525000D01*
X5379515Y17572835D01*
X5406612Y17613388D01*
X5447165Y17640485D01*
X5495000Y17650000D01*
X6645000Y17650000D01*
X6692835Y17640485D01*
G37*
G36*
X37594134Y17836194D02*
G01*
X37610355Y17825355D01*
X37621194Y17809134D01*
X37625000Y17790000D01*
X37625000Y17490000D01*
X37621194Y17470866D01*
X37610355Y17454645D01*
X37594134Y17443806D01*
X37575000Y17440000D01*
X35475000Y17440000D01*
X35455866Y17443806D01*
X35439645Y17454645D01*
X35428806Y17470866D01*
X35425000Y17490000D01*
X35425000Y17790000D01*
X35428806Y17809134D01*
X35439645Y17825355D01*
X35455866Y17836194D01*
X35475000Y17840000D01*
X37575000Y17840000D01*
X37594134Y17836194D01*
G37*
G36*
X31967710Y18145537D02*
G01*
X32029350Y18104350D01*
X32070537Y18042710D01*
X32085000Y17970000D01*
X32085000Y17690000D01*
X32070537Y17617290D01*
X32029350Y17555650D01*
X31967710Y17514463D01*
X31895000Y17500000D01*
X31555000Y17500000D01*
X31482290Y17514463D01*
X31420650Y17555650D01*
X31379463Y17617290D01*
X31365000Y17690000D01*
X31365000Y17970000D01*
X31379463Y18042710D01*
X31420650Y18104350D01*
X31482290Y18145537D01*
X31555000Y18160000D01*
X31895000Y18160000D01*
X31967710Y18145537D01*
G37*
G36*
X10609571Y17877071D02*
G01*
X10612500Y17870000D01*
X10612500Y17530000D01*
X10609571Y17522929D01*
X10602500Y17520000D01*
X10592556Y17520000D01*
X9907444Y17520000D01*
X9897500Y17520000D01*
X9890429Y17522929D01*
X9887500Y17530000D01*
X9887500Y17870000D01*
X9890429Y17877071D01*
X9897500Y17880000D01*
X10602500Y17880000D01*
X10609571Y17877071D01*
G37*
G36*
X11444571Y17877071D02*
G01*
X11447500Y17870000D01*
X11447500Y17530000D01*
X11444571Y17522929D01*
X11437500Y17520000D01*
X11427556Y17520000D01*
X10742444Y17520000D01*
X10732500Y17520000D01*
X10725429Y17522929D01*
X10722500Y17530000D01*
X10722500Y17870000D01*
X10725429Y17877071D01*
X10732500Y17880000D01*
X11437500Y17880000D01*
X11444571Y17877071D01*
G37*
G36*
X20116970Y20161679D02*
G01*
X20173744Y20123744D01*
X20211679Y20066970D01*
X20225000Y20000000D01*
X20225000Y19750000D01*
X20211679Y19683030D01*
X20173744Y19626256D01*
X20116970Y19588321D01*
X20114505Y19587831D01*
X20097885Y19576725D01*
X20097885Y19523275D01*
X20114506Y19512170D01*
X20116970Y19511679D01*
X20173744Y19473744D01*
X20211679Y19416970D01*
X20225000Y19350000D01*
X20225000Y19100000D01*
X20211679Y19033030D01*
X20173744Y18976256D01*
X20116970Y18938321D01*
X20114505Y18937831D01*
X20097885Y18926725D01*
X20097885Y18873275D01*
X20114506Y18862170D01*
X20116970Y18861679D01*
X20173744Y18823744D01*
X20211679Y18766970D01*
X20225000Y18700000D01*
X20225000Y18450000D01*
X20211679Y18383030D01*
X20173744Y18326256D01*
X20116970Y18288321D01*
X20114505Y18287831D01*
X20097885Y18276725D01*
X20097885Y18223275D01*
X20114506Y18212170D01*
X20116970Y18211679D01*
X20173744Y18173744D01*
X20211679Y18116970D01*
X20225000Y18050000D01*
X20225000Y17800000D01*
X20211679Y17733030D01*
X20173744Y17676256D01*
X20116970Y17638321D01*
X20050000Y17625000D01*
X18975000Y17625000D01*
X18908030Y17638321D01*
X18851256Y17676256D01*
X18813321Y17733030D01*
X18800000Y17800000D01*
X18800000Y18050000D01*
X18813321Y18116970D01*
X18851256Y18173744D01*
X18908030Y18211679D01*
X18910491Y18212169D01*
X18927114Y18223275D01*
X18927114Y18276725D01*
X18910492Y18287832D01*
X18908030Y18288321D01*
X18851256Y18326256D01*
X18813321Y18383030D01*
X18800000Y18450000D01*
X18800000Y18700000D01*
X18813321Y18766970D01*
X18851256Y18823744D01*
X18908030Y18861679D01*
X18910491Y18862169D01*
X18927114Y18873275D01*
X18927114Y18926725D01*
X18910492Y18937832D01*
X18908030Y18938321D01*
X18851256Y18976256D01*
X18813321Y19033030D01*
X18800000Y19100000D01*
X18800000Y19350000D01*
X18813321Y19416970D01*
X18851256Y19473744D01*
X18908030Y19511679D01*
X18910491Y19512169D01*
X18927114Y19523275D01*
X18927114Y19576725D01*
X18910492Y19587832D01*
X18908030Y19588321D01*
X18851256Y19626256D01*
X18813321Y19683030D01*
X18800000Y19750000D01*
X18800000Y20000000D01*
X18813321Y20066970D01*
X18851256Y20123744D01*
X18908030Y20161679D01*
X18975000Y20175000D01*
X20050000Y20175000D01*
X20116970Y20161679D01*
G37*
G36*
X22391970Y20161679D02*
G01*
X22448744Y20123744D01*
X22486679Y20066970D01*
X22500000Y20000000D01*
X22500000Y19750000D01*
X22486679Y19683030D01*
X22448744Y19626256D01*
X22391970Y19588321D01*
X22389505Y19587831D01*
X22372885Y19576725D01*
X22372885Y19523275D01*
X22389506Y19512170D01*
X22391970Y19511679D01*
X22448744Y19473744D01*
X22486679Y19416970D01*
X22500000Y19350000D01*
X22500000Y19100000D01*
X22486679Y19033030D01*
X22448744Y18976256D01*
X22391970Y18938321D01*
X22389505Y18937831D01*
X22372885Y18926725D01*
X22372885Y18873275D01*
X22389506Y18862170D01*
X22391970Y18861679D01*
X22448744Y18823744D01*
X22486679Y18766970D01*
X22500000Y18700000D01*
X22500000Y18450000D01*
X22486679Y18383030D01*
X22448744Y18326256D01*
X22391970Y18288321D01*
X22389505Y18287831D01*
X22372885Y18276725D01*
X22372885Y18223275D01*
X22389506Y18212170D01*
X22391970Y18211679D01*
X22448744Y18173744D01*
X22486679Y18116970D01*
X22500000Y18050000D01*
X22500000Y17800000D01*
X22486679Y17733030D01*
X22448744Y17676256D01*
X22391970Y17638321D01*
X22325000Y17625000D01*
X21250000Y17625000D01*
X21183030Y17638321D01*
X21126256Y17676256D01*
X21088321Y17733030D01*
X21075000Y17800000D01*
X21075000Y18050000D01*
X21088321Y18116970D01*
X21126256Y18173744D01*
X21183030Y18211679D01*
X21185491Y18212169D01*
X21202114Y18223275D01*
X21202114Y18276725D01*
X21185492Y18287832D01*
X21183030Y18288321D01*
X21126256Y18326256D01*
X21088321Y18383030D01*
X21075000Y18450000D01*
X21075000Y18700000D01*
X21088321Y18766970D01*
X21126256Y18823744D01*
X21183030Y18861679D01*
X21185491Y18862169D01*
X21202114Y18873275D01*
X21202114Y18926725D01*
X21185492Y18937832D01*
X21183030Y18938321D01*
X21126256Y18976256D01*
X21088321Y19033030D01*
X21075000Y19100000D01*
X21075000Y19350000D01*
X21088321Y19416970D01*
X21126256Y19473744D01*
X21183030Y19511679D01*
X21185491Y19512169D01*
X21202114Y19523275D01*
X21202114Y19576725D01*
X21185492Y19587832D01*
X21183030Y19588321D01*
X21126256Y19626256D01*
X21088321Y19683030D01*
X21075000Y19750000D01*
X21075000Y20000000D01*
X21088321Y20066970D01*
X21126256Y20123744D01*
X21183030Y20161679D01*
X21250000Y20175000D01*
X22325000Y20175000D01*
X22391970Y20161679D01*
G37*
G36*
X6692835Y18140485D02*
G01*
X6733388Y18113388D01*
X6760485Y18072835D01*
X6770000Y18025000D01*
X6770000Y17875000D01*
X6760485Y17827165D01*
X6733388Y17786612D01*
X6692835Y17759515D01*
X6645000Y17750000D01*
X5495000Y17750000D01*
X5447165Y17759515D01*
X5406612Y17786612D01*
X5379515Y17827165D01*
X5370000Y17875000D01*
X5370000Y18025000D01*
X5379515Y18072835D01*
X5406612Y18113388D01*
X5447165Y18140485D01*
X5495000Y18150000D01*
X6645000Y18150000D01*
X6692835Y18140485D01*
G37*
G36*
X17089776Y18538176D02*
G01*
X17149795Y18498073D01*
X17189898Y18438054D01*
X17203980Y18367258D01*
X17203980Y17997258D01*
X17189898Y17926462D01*
X17149795Y17866443D01*
X17089776Y17826340D01*
X17018980Y17812258D01*
X16748980Y17812258D01*
X16678184Y17826340D01*
X16618165Y17866443D01*
X16578062Y17926462D01*
X16563980Y17997258D01*
X16563980Y18367258D01*
X16578062Y18438054D01*
X16618165Y18498073D01*
X16678184Y18538176D01*
X16748980Y18552258D01*
X17018980Y18552258D01*
X17089776Y18538176D01*
G37*
G36*
X18109776Y18538176D02*
G01*
X18169795Y18498073D01*
X18209898Y18438054D01*
X18223980Y18367258D01*
X18223980Y17997258D01*
X18209898Y17926462D01*
X18169795Y17866443D01*
X18109776Y17826340D01*
X18038980Y17812258D01*
X17768980Y17812258D01*
X17698184Y17826340D01*
X17638165Y17866443D01*
X17598062Y17926462D01*
X17583980Y17997258D01*
X17583980Y18367258D01*
X17598062Y18438054D01*
X17638165Y18498073D01*
X17698184Y18538176D01*
X17768980Y18552258D01*
X18038980Y18552258D01*
X18109776Y18538176D01*
G37*
G36*
X12492710Y18645537D02*
G01*
X12554350Y18604350D01*
X12595537Y18542710D01*
X12610000Y18470000D01*
X12610000Y18190000D01*
X12595537Y18117290D01*
X12554350Y18055650D01*
X12492710Y18014463D01*
X12420000Y18000000D01*
X12080000Y18000000D01*
X12007290Y18014463D01*
X11945650Y18055650D01*
X11904463Y18117290D01*
X11890000Y18190000D01*
X11890000Y18470000D01*
X11904463Y18542710D01*
X11945650Y18604350D01*
X12007290Y18645537D01*
X12080000Y18660000D01*
X12420000Y18660000D01*
X12492710Y18645537D01*
G37*
G36*
X35094134Y18586194D02*
G01*
X35110355Y18575355D01*
X35121194Y18559134D01*
X35125000Y18540000D01*
X35125000Y18140000D01*
X35121194Y18120866D01*
X35110355Y18104645D01*
X35094134Y18093806D01*
X35075000Y18090000D01*
X32975000Y18090000D01*
X32955866Y18093806D01*
X32939645Y18104645D01*
X32928806Y18120866D01*
X32925000Y18140000D01*
X32925000Y18540000D01*
X32928806Y18559134D01*
X32939645Y18575355D01*
X32955866Y18586194D01*
X32975000Y18590000D01*
X35075000Y18590000D01*
X35094134Y18586194D01*
G37*
G36*
X37594134Y18536194D02*
G01*
X37610355Y18525355D01*
X37621194Y18509134D01*
X37625000Y18490000D01*
X37625000Y18190000D01*
X37621194Y18170866D01*
X37610355Y18154645D01*
X37594134Y18143806D01*
X37575000Y18140000D01*
X36275000Y18140000D01*
X36255866Y18143806D01*
X36239645Y18154645D01*
X36228806Y18170866D01*
X36225000Y18190000D01*
X36225000Y18490000D01*
X36228806Y18509134D01*
X36239645Y18525355D01*
X36255866Y18536194D01*
X36275000Y18540000D01*
X37575000Y18540000D01*
X37594134Y18536194D01*
G37*
G36*
X6646537Y18934776D02*
G01*
X6711421Y18891421D01*
X6754776Y18826537D01*
X6770000Y18750000D01*
X6770000Y18450000D01*
X6754776Y18373463D01*
X6711421Y18308579D01*
X6646537Y18265224D01*
X6570000Y18250000D01*
X5570000Y18250000D01*
X5493463Y18265224D01*
X5428579Y18308579D01*
X5385224Y18373463D01*
X5370000Y18450000D01*
X5370000Y18750000D01*
X5385224Y18826537D01*
X5428579Y18891421D01*
X5493463Y18934776D01*
X5570000Y18950000D01*
X6570000Y18950000D01*
X6646537Y18934776D01*
G37*
G36*
X10417710Y19095537D02*
G01*
X10479350Y19054350D01*
X10520537Y18992710D01*
X10535000Y18920000D01*
X10535000Y18580000D01*
X10520537Y18507290D01*
X10479350Y18445650D01*
X10417710Y18404463D01*
X10345000Y18390000D01*
X10065000Y18390000D01*
X9992290Y18404463D01*
X9930650Y18445650D01*
X9889463Y18507290D01*
X9875000Y18580000D01*
X9875000Y18920000D01*
X9889463Y18992710D01*
X9930650Y19054350D01*
X9992290Y19095537D01*
X10065000Y19110000D01*
X10345000Y19110000D01*
X10417710Y19095537D01*
G37*
G36*
X11377710Y19095537D02*
G01*
X11439350Y19054350D01*
X11480537Y18992710D01*
X11495000Y18920000D01*
X11495000Y18580000D01*
X11480537Y18507290D01*
X11439350Y18445650D01*
X11377710Y18404463D01*
X11305000Y18390000D01*
X11025000Y18390000D01*
X10952290Y18404463D01*
X10890650Y18445650D01*
X10849463Y18507290D01*
X10835000Y18580000D01*
X10835000Y18920000D01*
X10849463Y18992710D01*
X10890650Y19054350D01*
X10952290Y19095537D01*
X11025000Y19110000D01*
X11305000Y19110000D01*
X11377710Y19095537D01*
G37*
G36*
X31967710Y19090537D02*
G01*
X32029350Y19049350D01*
X32070537Y18987710D01*
X32085000Y18915000D01*
X32085000Y18635000D01*
X32070537Y18562290D01*
X32029350Y18500650D01*
X31967710Y18459463D01*
X31895000Y18445000D01*
X31555000Y18445000D01*
X31482290Y18459463D01*
X31420650Y18500650D01*
X31379463Y18562290D01*
X31365000Y18635000D01*
X31365000Y18915000D01*
X31379463Y18987710D01*
X31420650Y19049350D01*
X31482290Y19090537D01*
X31555000Y19105000D01*
X31895000Y19105000D01*
X31967710Y19090537D01*
G37*
G36*
X30668685Y19647031D02*
G01*
X30677358Y19643202D01*
X30684925Y19642099D01*
X30732223Y19618977D01*
X30769541Y19602499D01*
X30772996Y19599044D01*
X30773920Y19598592D01*
X30843591Y19528921D01*
X30844042Y19527998D01*
X30847499Y19524541D01*
X30863978Y19487218D01*
X30887098Y19439927D01*
X30888200Y19432361D01*
X30892031Y19423685D01*
X30900000Y19355000D01*
X30900000Y18855000D01*
X30892031Y18786315D01*
X30888199Y18777639D01*
X30887098Y18770075D01*
X30863985Y18722798D01*
X30847499Y18685459D01*
X30844041Y18682002D01*
X30843591Y18681080D01*
X30773920Y18611409D01*
X30772998Y18610959D01*
X30769541Y18607501D01*
X30732207Y18591017D01*
X30684926Y18567902D01*
X30677361Y18566800D01*
X30668685Y18562969D01*
X30600000Y18555000D01*
X29650000Y18555000D01*
X29581315Y18562969D01*
X29572638Y18566800D01*
X29565074Y18567902D01*
X29517787Y18591019D01*
X29480459Y18607501D01*
X29477002Y18610958D01*
X29476079Y18611409D01*
X29406408Y18681080D01*
X29405956Y18682004D01*
X29402501Y18685459D01*
X29386025Y18722772D01*
X29362901Y18770074D01*
X29361798Y18777643D01*
X29357969Y18786315D01*
X29350000Y18855000D01*
X29350000Y19355000D01*
X29357969Y19423685D01*
X29361798Y19432358D01*
X29362901Y19439926D01*
X29386028Y19487234D01*
X29402501Y19524541D01*
X29405955Y19527996D01*
X29406408Y19528921D01*
X29476079Y19598592D01*
X29477004Y19599045D01*
X29480459Y19602499D01*
X29517761Y19618970D01*
X29565073Y19642099D01*
X29572642Y19643202D01*
X29581315Y19647031D01*
X29650000Y19655000D01*
X30600000Y19655000D01*
X30668685Y19647031D01*
G37*
G36*
X28573469Y19649357D02*
G01*
X28582142Y19645528D01*
X28589709Y19644425D01*
X28637007Y19621303D01*
X28674325Y19604825D01*
X28677780Y19601370D01*
X28678704Y19600918D01*
X28748375Y19531247D01*
X28748826Y19530324D01*
X28752283Y19526867D01*
X28768762Y19489544D01*
X28791882Y19442253D01*
X28792984Y19434687D01*
X28796815Y19426011D01*
X28804784Y19357326D01*
X28804784Y18857326D01*
X28796815Y18788641D01*
X28792983Y18779965D01*
X28791882Y18772401D01*
X28768769Y18725124D01*
X28752283Y18687785D01*
X28748825Y18684328D01*
X28748375Y18683406D01*
X28678704Y18613735D01*
X28677782Y18613285D01*
X28674325Y18609827D01*
X28636991Y18593343D01*
X28589710Y18570228D01*
X28582145Y18569126D01*
X28573469Y18565295D01*
X28504784Y18557326D01*
X27554784Y18557326D01*
X27486099Y18565295D01*
X27477422Y18569126D01*
X27469858Y18570228D01*
X27422571Y18593345D01*
X27385243Y18609827D01*
X27381786Y18613284D01*
X27380863Y18613735D01*
X27311192Y18683406D01*
X27310740Y18684330D01*
X27307285Y18687785D01*
X27290809Y18725098D01*
X27267685Y18772400D01*
X27266582Y18779969D01*
X27262753Y18788641D01*
X27254784Y18857326D01*
X27254784Y19357326D01*
X27262753Y19426011D01*
X27266582Y19434684D01*
X27267685Y19442252D01*
X27290812Y19489560D01*
X27307285Y19526867D01*
X27310739Y19530322D01*
X27311192Y19531247D01*
X27380863Y19600918D01*
X27381788Y19601371D01*
X27385243Y19604825D01*
X27422545Y19621296D01*
X27469857Y19644425D01*
X27477426Y19645528D01*
X27486099Y19649357D01*
X27554784Y19657326D01*
X28504784Y19657326D01*
X28573469Y19649357D01*
G37*
G36*
X5054372Y19390261D02*
G01*
X5127847Y19347840D01*
X5187840Y19287847D01*
X5230261Y19214372D01*
X5252220Y19132421D01*
X5252220Y19047579D01*
X5230261Y18965628D01*
X5187840Y18892153D01*
X5127847Y18832160D01*
X5054372Y18789739D01*
X4972421Y18767780D01*
X4887579Y18767780D01*
X4805628Y18789739D01*
X4732153Y18832160D01*
X4672160Y18892153D01*
X4629739Y18965628D01*
X4607780Y19047579D01*
X4607780Y19132421D01*
X4629739Y19214372D01*
X4672160Y19287847D01*
X4732153Y19347840D01*
X4805628Y19390261D01*
X4887579Y19412220D01*
X4972421Y19412220D01*
X5054372Y19390261D01*
G37*
G36*
X23637710Y19475537D02*
G01*
X23699350Y19434350D01*
X23740537Y19372710D01*
X23755000Y19300000D01*
X23755000Y19020000D01*
X23740537Y18947290D01*
X23699350Y18885650D01*
X23637710Y18844463D01*
X23565000Y18830000D01*
X23225000Y18830000D01*
X23152290Y18844463D01*
X23090650Y18885650D01*
X23049463Y18947290D01*
X23035000Y19020000D01*
X23035000Y19300000D01*
X23049463Y19372710D01*
X23090650Y19434350D01*
X23152290Y19475537D01*
X23225000Y19490000D01*
X23565000Y19490000D01*
X23637710Y19475537D01*
G37*
G36*
X37594134Y19236194D02*
G01*
X37610355Y19225355D01*
X37621194Y19209134D01*
X37625000Y19190000D01*
X37625000Y18890000D01*
X37621194Y18870866D01*
X37610355Y18854645D01*
X37594134Y18843806D01*
X37575000Y18840000D01*
X35475000Y18840000D01*
X35455866Y18843806D01*
X35439645Y18854645D01*
X35428806Y18870866D01*
X35425000Y18890000D01*
X35425000Y19190000D01*
X35428806Y19209134D01*
X35439645Y19225355D01*
X35455866Y19236194D01*
X35475000Y19240000D01*
X37575000Y19240000D01*
X37594134Y19236194D01*
G37*
G36*
X17090796Y19595918D02*
G01*
X17150815Y19555815D01*
X17190918Y19495796D01*
X17205000Y19425000D01*
X17205000Y19055000D01*
X17190918Y18984204D01*
X17150815Y18924185D01*
X17090796Y18884082D01*
X17020000Y18870000D01*
X16750000Y18870000D01*
X16679204Y18884082D01*
X16619185Y18924185D01*
X16579082Y18984204D01*
X16565000Y19055000D01*
X16565000Y19425000D01*
X16579082Y19495796D01*
X16619185Y19555815D01*
X16679204Y19595918D01*
X16750000Y19610000D01*
X17020000Y19610000D01*
X17090796Y19595918D01*
G37*
G36*
X18110796Y19595918D02*
G01*
X18170815Y19555815D01*
X18210918Y19495796D01*
X18225000Y19425000D01*
X18225000Y19055000D01*
X18210918Y18984204D01*
X18170815Y18924185D01*
X18110796Y18884082D01*
X18040000Y18870000D01*
X17770000Y18870000D01*
X17699204Y18884082D01*
X17639185Y18924185D01*
X17599082Y18984204D01*
X17585000Y19055000D01*
X17585000Y19425000D01*
X17599082Y19495796D01*
X17639185Y19555815D01*
X17699204Y19595918D01*
X17770000Y19610000D01*
X18040000Y19610000D01*
X18110796Y19595918D01*
G37*
G36*
X6646537Y19734776D02*
G01*
X6711421Y19691421D01*
X6754776Y19626537D01*
X6770000Y19550000D01*
X6770000Y19250000D01*
X6754776Y19173463D01*
X6711421Y19108579D01*
X6646537Y19065224D01*
X6570000Y19050000D01*
X5570000Y19050000D01*
X5493463Y19065224D01*
X5428579Y19108579D01*
X5385224Y19173463D01*
X5370000Y19250000D01*
X5370000Y19550000D01*
X5385224Y19626537D01*
X5428579Y19691421D01*
X5493463Y19734776D01*
X5570000Y19750000D01*
X6570000Y19750000D01*
X6646537Y19734776D01*
G37*
G36*
X10405796Y20105918D02*
G01*
X10465815Y20065815D01*
X10505918Y20005796D01*
X10520000Y19935000D01*
X10520000Y19565000D01*
X10505918Y19494204D01*
X10465815Y19434185D01*
X10405796Y19394082D01*
X10335000Y19380000D01*
X10065000Y19380000D01*
X9994204Y19394082D01*
X9934185Y19434185D01*
X9894082Y19494204D01*
X9880000Y19565000D01*
X9880000Y19935000D01*
X9894082Y20005796D01*
X9934185Y20065815D01*
X9994204Y20105918D01*
X10065000Y20120000D01*
X10335000Y20120000D01*
X10405796Y20105918D01*
G37*
G36*
X11425796Y20105918D02*
G01*
X11485815Y20065815D01*
X11525918Y20005796D01*
X11540000Y19935000D01*
X11540000Y19565000D01*
X11525918Y19494204D01*
X11485815Y19434185D01*
X11425796Y19394082D01*
X11355000Y19380000D01*
X11085000Y19380000D01*
X11014204Y19394082D01*
X10954185Y19434185D01*
X10914082Y19494204D01*
X10900000Y19565000D01*
X10900000Y19935000D01*
X10914082Y20005796D01*
X10954185Y20065815D01*
X11014204Y20105918D01*
X11085000Y20120000D01*
X11355000Y20120000D01*
X11425796Y20105918D01*
G37*
G36*
X31967710Y20050537D02*
G01*
X32029350Y20009350D01*
X32070537Y19947710D01*
X32085000Y19875000D01*
X32085000Y19595000D01*
X32070537Y19522290D01*
X32029350Y19460650D01*
X31967710Y19419463D01*
X31895000Y19405000D01*
X31555000Y19405000D01*
X31482290Y19419463D01*
X31420650Y19460650D01*
X31379463Y19522290D01*
X31365000Y19595000D01*
X31365000Y19875000D01*
X31379463Y19947710D01*
X31420650Y20009350D01*
X31482290Y20050537D01*
X31555000Y20065000D01*
X31895000Y20065000D01*
X31967710Y20050537D01*
G37*
G36*
X35094134Y19836194D02*
G01*
X35110355Y19825355D01*
X35121194Y19809134D01*
X35125000Y19790000D01*
X35125000Y19490000D01*
X35121194Y19470866D01*
X35110355Y19454645D01*
X35094134Y19443806D01*
X35075000Y19440000D01*
X32975000Y19440000D01*
X32955866Y19443806D01*
X32939645Y19454645D01*
X32928806Y19470866D01*
X32925000Y19490000D01*
X32925000Y19790000D01*
X32928806Y19809134D01*
X32939645Y19825355D01*
X32955866Y19836194D01*
X32975000Y19840000D01*
X35075000Y19840000D01*
X35094134Y19836194D01*
G37*
G36*
X37594134Y19836194D02*
G01*
X37610355Y19825355D01*
X37621194Y19809134D01*
X37625000Y19790000D01*
X37625000Y19490000D01*
X37621194Y19470866D01*
X37610355Y19454645D01*
X37594134Y19443806D01*
X37575000Y19440000D01*
X36275000Y19440000D01*
X36255866Y19443806D01*
X36239645Y19454645D01*
X36228806Y19470866D01*
X36225000Y19490000D01*
X36225000Y19790000D01*
X36228806Y19809134D01*
X36239645Y19825355D01*
X36255866Y19836194D01*
X36275000Y19840000D01*
X37575000Y19840000D01*
X37594134Y19836194D01*
G37*
G36*
X38805796Y20320918D02*
G01*
X38865815Y20280815D01*
X38905918Y20220796D01*
X38920000Y20150000D01*
X38920000Y19880000D01*
X38905918Y19809204D01*
X38865815Y19749185D01*
X38805796Y19709082D01*
X38735000Y19695000D01*
X38365000Y19695000D01*
X38294204Y19709082D01*
X38234185Y19749185D01*
X38194082Y19809204D01*
X38180000Y19880000D01*
X38180000Y20150000D01*
X38194082Y20220796D01*
X38234185Y20280815D01*
X38294204Y20320918D01*
X38365000Y20335000D01*
X38735000Y20335000D01*
X38805796Y20320918D01*
G37*
G36*
X39992710Y20375746D02*
G01*
X40054350Y20334559D01*
X40095537Y20272919D01*
X40110000Y20200209D01*
X40110000Y19920209D01*
X40095537Y19847499D01*
X40054350Y19785859D01*
X39992710Y19744672D01*
X39920000Y19730209D01*
X39580000Y19730209D01*
X39507290Y19744672D01*
X39445650Y19785859D01*
X39404463Y19847499D01*
X39390000Y19920209D01*
X39390000Y20200209D01*
X39404463Y20272919D01*
X39445650Y20334559D01*
X39507290Y20375746D01*
X39580000Y20390209D01*
X39920000Y20390209D01*
X39992710Y20375746D01*
G37*
G36*
X23637710Y20435537D02*
G01*
X23699350Y20394350D01*
X23740537Y20332710D01*
X23755000Y20260000D01*
X23755000Y19980000D01*
X23740537Y19907290D01*
X23699350Y19845650D01*
X23637710Y19804463D01*
X23565000Y19790000D01*
X23225000Y19790000D01*
X23152290Y19804463D01*
X23090650Y19845650D01*
X23049463Y19907290D01*
X23035000Y19980000D01*
X23035000Y20260000D01*
X23049463Y20332710D01*
X23090650Y20394350D01*
X23152290Y20435537D01*
X23225000Y20450000D01*
X23565000Y20450000D01*
X23637710Y20435537D01*
G37*
G36*
X17102128Y20642419D02*
G01*
X17162147Y20602316D01*
X17202250Y20542297D01*
X17216332Y20471501D01*
X17216332Y20101501D01*
X17202250Y20030705D01*
X17162147Y19970686D01*
X17102128Y19930583D01*
X17031332Y19916501D01*
X16761332Y19916501D01*
X16690536Y19930583D01*
X16630517Y19970686D01*
X16590414Y20030705D01*
X16576332Y20101501D01*
X16576332Y20471501D01*
X16590414Y20542297D01*
X16630517Y20602316D01*
X16690536Y20642419D01*
X16761332Y20656501D01*
X17031332Y20656501D01*
X17102128Y20642419D01*
G37*
G36*
X18122128Y20642419D02*
G01*
X18182147Y20602316D01*
X18222250Y20542297D01*
X18236332Y20471501D01*
X18236332Y20101501D01*
X18222250Y20030705D01*
X18182147Y19970686D01*
X18122128Y19930583D01*
X18051332Y19916501D01*
X17781332Y19916501D01*
X17710536Y19930583D01*
X17650517Y19970686D01*
X17610414Y20030705D01*
X17596332Y20101501D01*
X17596332Y20471501D01*
X17610414Y20542297D01*
X17650517Y20602316D01*
X17710536Y20642419D01*
X17781332Y20656501D01*
X18051332Y20656501D01*
X18122128Y20642419D01*
G37*
G36*
X1621789Y21065295D02*
G01*
X1760476Y21028134D01*
X1884819Y20956344D01*
X1986344Y20854819D01*
X2058134Y20730476D01*
X2095295Y20591789D01*
X2095295Y20448211D01*
X2058134Y20309524D01*
X1986344Y20185181D01*
X1884819Y20083656D01*
X1760476Y20011866D01*
X1621789Y19974705D01*
X1550000Y19970000D01*
X1548363Y19970000D01*
X951637Y19970000D01*
X950000Y19970000D01*
X878211Y19974705D01*
X739524Y20011866D01*
X615181Y20083656D01*
X513656Y20185181D01*
X441866Y20309524D01*
X404705Y20448211D01*
X404705Y20591789D01*
X441866Y20730476D01*
X513656Y20854819D01*
X615181Y20956344D01*
X739524Y21028134D01*
X878211Y21065295D01*
X950000Y21070000D01*
X1550000Y21070000D01*
X1621789Y21065295D01*
G37*
G36*
X6051789Y21065295D02*
G01*
X6190476Y21028134D01*
X6314819Y20956344D01*
X6416344Y20854819D01*
X6488134Y20730476D01*
X6525295Y20591789D01*
X6525295Y20448211D01*
X6488134Y20309524D01*
X6416344Y20185181D01*
X6314819Y20083656D01*
X6190476Y20011866D01*
X6051789Y19974705D01*
X5980000Y19970000D01*
X5978363Y19970000D01*
X4881637Y19970000D01*
X4880000Y19970000D01*
X4808211Y19974705D01*
X4669524Y20011866D01*
X4545181Y20083656D01*
X4443656Y20185181D01*
X4371866Y20309524D01*
X4334705Y20448211D01*
X4334705Y20591789D01*
X4371866Y20730476D01*
X4443656Y20854819D01*
X4545181Y20956344D01*
X4669524Y21028134D01*
X4808211Y21065295D01*
X4880000Y21070000D01*
X5980000Y21070000D01*
X6051789Y21065295D01*
G37*
G36*
X33887259Y21187194D02*
G01*
X33903480Y21176355D01*
X33914319Y21160134D01*
X33918125Y21141000D01*
X33918125Y20191000D01*
X33914319Y20171866D01*
X33903480Y20155645D01*
X33887259Y20144806D01*
X33868125Y20141000D01*
X33851277Y20141000D01*
X33846250Y20140000D01*
X32983750Y20140000D01*
X32964616Y20143806D01*
X32948395Y20154645D01*
X32937556Y20170866D01*
X32933750Y20190000D01*
X32933750Y20490000D01*
X32937556Y20509134D01*
X32948395Y20525355D01*
X32964616Y20536194D01*
X32983750Y20540000D01*
X33488836Y20540000D01*
X33518125Y20569289D01*
X33518125Y21136078D01*
X33518125Y21141000D01*
X33521931Y21160134D01*
X33532770Y21176355D01*
X33548991Y21187194D01*
X33568125Y21191000D01*
X33868125Y21191000D01*
X33887259Y21187194D01*
G37*
G36*
X36977884Y21187194D02*
G01*
X36994105Y21176355D01*
X37004944Y21160134D01*
X37008750Y21141000D01*
X37008750Y20569288D01*
X37038038Y20540000D01*
X37546250Y20540000D01*
X37565384Y20536194D01*
X37581605Y20525355D01*
X37592444Y20509134D01*
X37596250Y20490000D01*
X37596250Y20190000D01*
X37592444Y20170866D01*
X37581605Y20154645D01*
X37565384Y20143806D01*
X37546250Y20140000D01*
X36658750Y20140000D01*
X36639616Y20143806D01*
X36623395Y20154645D01*
X36612556Y20170866D01*
X36608750Y20190000D01*
X36608750Y20490000D01*
X36608750Y21141000D01*
X36612556Y21160134D01*
X36623395Y21176355D01*
X36639616Y21187194D01*
X36658750Y21191000D01*
X36958750Y21191000D01*
X36977884Y21187194D01*
G37*
G36*
X34411634Y21187194D02*
G01*
X34427855Y21176355D01*
X34438694Y21160134D01*
X34442500Y21141000D01*
X34442500Y20191000D01*
X34438694Y20171866D01*
X34427855Y20155645D01*
X34411634Y20144806D01*
X34392500Y20141000D01*
X34142500Y20141000D01*
X34123366Y20144806D01*
X34107145Y20155645D01*
X34096306Y20171866D01*
X34092500Y20191000D01*
X34092500Y21141000D01*
X34096306Y21160134D01*
X34107145Y21176355D01*
X34123366Y21187194D01*
X34142500Y21191000D01*
X34392500Y21191000D01*
X34411634Y21187194D01*
G37*
G36*
X34911634Y21187194D02*
G01*
X34927855Y21176355D01*
X34938694Y21160134D01*
X34942500Y21141000D01*
X34942500Y20191000D01*
X34938694Y20171866D01*
X34927855Y20155645D01*
X34911634Y20144806D01*
X34892500Y20141000D01*
X34642500Y20141000D01*
X34623366Y20144806D01*
X34607145Y20155645D01*
X34596306Y20171866D01*
X34592500Y20191000D01*
X34592500Y21141000D01*
X34596306Y21160134D01*
X34607145Y21176355D01*
X34623366Y21187194D01*
X34642500Y21191000D01*
X34892500Y21191000D01*
X34911634Y21187194D01*
G37*
G36*
X35409134Y21187194D02*
G01*
X35425355Y21176355D01*
X35436194Y21160134D01*
X35440000Y21141000D01*
X35440000Y20191000D01*
X35436194Y20171866D01*
X35425355Y20155645D01*
X35409134Y20144806D01*
X35390000Y20141000D01*
X35140000Y20141000D01*
X35120866Y20144806D01*
X35104645Y20155645D01*
X35093806Y20171866D01*
X35090000Y20191000D01*
X35090000Y21141000D01*
X35093806Y21160134D01*
X35104645Y21176355D01*
X35120866Y21187194D01*
X35140000Y21191000D01*
X35390000Y21191000D01*
X35409134Y21187194D01*
G37*
G36*
X35909134Y21187194D02*
G01*
X35925355Y21176355D01*
X35936194Y21160134D01*
X35940000Y21141000D01*
X35940000Y20191000D01*
X35936194Y20171866D01*
X35925355Y20155645D01*
X35909134Y20144806D01*
X35890000Y20141000D01*
X35640000Y20141000D01*
X35620866Y20144806D01*
X35604645Y20155645D01*
X35593806Y20171866D01*
X35590000Y20191000D01*
X35590000Y21141000D01*
X35593806Y21160134D01*
X35604645Y21176355D01*
X35620866Y21187194D01*
X35640000Y21191000D01*
X35890000Y21191000D01*
X35909134Y21187194D01*
G37*
G36*
X36411634Y21187194D02*
G01*
X36427855Y21176355D01*
X36438694Y21160134D01*
X36442500Y21141000D01*
X36442500Y20191000D01*
X36438694Y20171866D01*
X36427855Y20155645D01*
X36411634Y20144806D01*
X36392500Y20141000D01*
X36142500Y20141000D01*
X36123366Y20144806D01*
X36107145Y20155645D01*
X36096306Y20171866D01*
X36092500Y20191000D01*
X36092500Y21141000D01*
X36096306Y21160134D01*
X36107145Y21176355D01*
X36123366Y21187194D01*
X36142500Y21191000D01*
X36392500Y21191000D01*
X36411634Y21187194D01*
G37*
G36*
X50434129Y27100744D02*
G01*
X50450350Y27089905D01*
X50461189Y27073684D01*
X50464995Y27054550D01*
X50464995Y20445470D01*
X50461189Y20426336D01*
X50450350Y20410115D01*
X50434129Y20399276D01*
X50414995Y20395470D01*
X45334995Y20395470D01*
X45315861Y20399276D01*
X45299640Y20410115D01*
X45288801Y20426336D01*
X45284995Y20445470D01*
X45284995Y27054550D01*
X45288801Y27073684D01*
X45299640Y27089905D01*
X45315861Y27100744D01*
X45334995Y27104550D01*
X50414995Y27104550D01*
X50434129Y27100744D01*
G37*
G36*
X30668685Y21547031D02*
G01*
X30677358Y21543202D01*
X30684925Y21542099D01*
X30732223Y21518977D01*
X30769541Y21502499D01*
X30772996Y21499044D01*
X30773920Y21498592D01*
X30843591Y21428921D01*
X30844042Y21427998D01*
X30847499Y21424541D01*
X30863978Y21387218D01*
X30887098Y21339927D01*
X30888200Y21332361D01*
X30892031Y21323685D01*
X30900000Y21255000D01*
X30900000Y20755000D01*
X30892031Y20686315D01*
X30888199Y20677639D01*
X30887098Y20670075D01*
X30863985Y20622798D01*
X30847499Y20585459D01*
X30844041Y20582002D01*
X30843591Y20581080D01*
X30773920Y20511409D01*
X30772998Y20510959D01*
X30769541Y20507501D01*
X30732207Y20491017D01*
X30684926Y20467902D01*
X30677361Y20466800D01*
X30668685Y20462969D01*
X30600000Y20455000D01*
X29650000Y20455000D01*
X29581315Y20462969D01*
X29572638Y20466800D01*
X29565074Y20467902D01*
X29517787Y20491019D01*
X29480459Y20507501D01*
X29477002Y20510958D01*
X29476079Y20511409D01*
X29406408Y20581080D01*
X29405956Y20582004D01*
X29402501Y20585459D01*
X29386025Y20622772D01*
X29362901Y20670074D01*
X29361798Y20677643D01*
X29357969Y20686315D01*
X29350000Y20755000D01*
X29350000Y21255000D01*
X29357969Y21323685D01*
X29361798Y21332358D01*
X29362901Y21339926D01*
X29386028Y21387234D01*
X29402501Y21424541D01*
X29405955Y21427996D01*
X29406408Y21428921D01*
X29476079Y21498592D01*
X29477004Y21499045D01*
X29480459Y21502499D01*
X29517761Y21518970D01*
X29565073Y21542099D01*
X29572642Y21543202D01*
X29581315Y21547031D01*
X29650000Y21555000D01*
X30600000Y21555000D01*
X30668685Y21547031D01*
G37*
G36*
X28573469Y21549357D02*
G01*
X28582142Y21545528D01*
X28589709Y21544425D01*
X28637007Y21521303D01*
X28674325Y21504825D01*
X28677780Y21501370D01*
X28678704Y21500918D01*
X28748375Y21431247D01*
X28748826Y21430324D01*
X28752283Y21426867D01*
X28768762Y21389544D01*
X28791882Y21342253D01*
X28792984Y21334687D01*
X28796815Y21326011D01*
X28804784Y21257326D01*
X28804784Y20757326D01*
X28796815Y20688641D01*
X28792983Y20679965D01*
X28791882Y20672401D01*
X28768769Y20625124D01*
X28752283Y20587785D01*
X28748825Y20584328D01*
X28748375Y20583406D01*
X28678704Y20513735D01*
X28677782Y20513285D01*
X28674325Y20509827D01*
X28636991Y20493343D01*
X28589710Y20470228D01*
X28582145Y20469126D01*
X28573469Y20465295D01*
X28504784Y20457326D01*
X27554784Y20457326D01*
X27486099Y20465295D01*
X27477422Y20469126D01*
X27469858Y20470228D01*
X27422571Y20493345D01*
X27385243Y20509827D01*
X27381786Y20513284D01*
X27380863Y20513735D01*
X27311192Y20583406D01*
X27310740Y20584330D01*
X27307285Y20587785D01*
X27290809Y20625098D01*
X27267685Y20672400D01*
X27266582Y20679969D01*
X27262753Y20688641D01*
X27254784Y20757326D01*
X27254784Y21257326D01*
X27262753Y21326011D01*
X27266582Y21334684D01*
X27267685Y21342252D01*
X27290812Y21389560D01*
X27307285Y21426867D01*
X27310739Y21430322D01*
X27311192Y21431247D01*
X27380863Y21500918D01*
X27381788Y21501371D01*
X27385243Y21504825D01*
X27422545Y21521296D01*
X27469857Y21544425D01*
X27477426Y21545528D01*
X27486099Y21549357D01*
X27554784Y21557326D01*
X28504784Y21557326D01*
X28573469Y21549357D01*
G37*
G36*
X26405796Y21085918D02*
G01*
X26465815Y21045815D01*
X26505918Y20985796D01*
X26520000Y20915000D01*
X26520000Y20645000D01*
X26505918Y20574204D01*
X26465815Y20514185D01*
X26405796Y20474082D01*
X26335000Y20460000D01*
X25965000Y20460000D01*
X25894204Y20474082D01*
X25834185Y20514185D01*
X25794082Y20574204D01*
X25780000Y20645000D01*
X25780000Y20915000D01*
X25794082Y20985796D01*
X25834185Y21045815D01*
X25894204Y21085918D01*
X25965000Y21100000D01*
X26335000Y21100000D01*
X26405796Y21085918D01*
G37*
G36*
X25365694Y21088827D02*
G01*
X25425713Y21048724D01*
X25465816Y20988705D01*
X25479898Y20917909D01*
X25479898Y20647909D01*
X25465816Y20577113D01*
X25425713Y20517094D01*
X25365694Y20476991D01*
X25294898Y20462909D01*
X24924898Y20462909D01*
X24854102Y20476991D01*
X24794083Y20517094D01*
X24753980Y20577113D01*
X24739898Y20647909D01*
X24739898Y20917909D01*
X24753980Y20988705D01*
X24794083Y21048724D01*
X24854102Y21088827D01*
X24924898Y21102909D01*
X25294898Y21102909D01*
X25365694Y21088827D01*
G37*
G36*
X39992710Y21335746D02*
G01*
X40054350Y21294559D01*
X40095537Y21232919D01*
X40110000Y21160209D01*
X40110000Y20880209D01*
X40095537Y20807499D01*
X40054350Y20745859D01*
X39992710Y20704672D01*
X39920000Y20690209D01*
X39580000Y20690209D01*
X39507290Y20704672D01*
X39445650Y20745859D01*
X39404463Y20807499D01*
X39390000Y20880209D01*
X39390000Y21160209D01*
X39404463Y21232919D01*
X39445650Y21294559D01*
X39507290Y21335746D01*
X39580000Y21350209D01*
X39920000Y21350209D01*
X39992710Y21335746D01*
G37*
G36*
X38805796Y21340918D02*
G01*
X38865815Y21300815D01*
X38905918Y21240796D01*
X38920000Y21170000D01*
X38920000Y20900000D01*
X38905918Y20829204D01*
X38865815Y20769185D01*
X38805796Y20729082D01*
X38735000Y20715000D01*
X38365000Y20715000D01*
X38294204Y20729082D01*
X38234185Y20769185D01*
X38194082Y20829204D01*
X38180000Y20900000D01*
X38180000Y21170000D01*
X38194082Y21240796D01*
X38234185Y21300815D01*
X38294204Y21340918D01*
X38365000Y21355000D01*
X38735000Y21355000D01*
X38805796Y21340918D01*
G37*
G36*
X17107344Y21655918D02*
G01*
X17167363Y21615815D01*
X17207466Y21555796D01*
X17221548Y21485000D01*
X17221548Y21115000D01*
X17207466Y21044204D01*
X17167363Y20984185D01*
X17107344Y20944082D01*
X17036548Y20930000D01*
X16766548Y20930000D01*
X16695752Y20944082D01*
X16635733Y20984185D01*
X16595630Y21044204D01*
X16581548Y21115000D01*
X16581548Y21485000D01*
X16595630Y21555796D01*
X16635733Y21615815D01*
X16695752Y21655918D01*
X16766548Y21670000D01*
X17036548Y21670000D01*
X17107344Y21655918D01*
G37*
G36*
X18127344Y21655918D02*
G01*
X18187363Y21615815D01*
X18227466Y21555796D01*
X18241548Y21485000D01*
X18241548Y21115000D01*
X18227466Y21044204D01*
X18187363Y20984185D01*
X18127344Y20944082D01*
X18056548Y20930000D01*
X17786548Y20930000D01*
X17715752Y20944082D01*
X17655733Y20984185D01*
X17615630Y21044204D01*
X17601548Y21115000D01*
X17601548Y21485000D01*
X17615630Y21555796D01*
X17655733Y21615815D01*
X17715752Y21655918D01*
X17786548Y21670000D01*
X18056548Y21670000D01*
X18127344Y21655918D01*
G37*
G36*
X26405796Y22105918D02*
G01*
X26465815Y22065815D01*
X26505918Y22005796D01*
X26520000Y21935000D01*
X26520000Y21665000D01*
X26505918Y21594204D01*
X26465815Y21534185D01*
X26405796Y21494082D01*
X26335000Y21480000D01*
X25965000Y21480000D01*
X25894204Y21494082D01*
X25834185Y21534185D01*
X25794082Y21594204D01*
X25780000Y21665000D01*
X25780000Y21935000D01*
X25794082Y22005796D01*
X25834185Y22065815D01*
X25894204Y22105918D01*
X25965000Y22120000D01*
X26335000Y22120000D01*
X26405796Y22105918D01*
G37*
G36*
X25365694Y22108827D02*
G01*
X25425713Y22068724D01*
X25465816Y22008705D01*
X25479898Y21937909D01*
X25479898Y21667909D01*
X25465816Y21597113D01*
X25425713Y21537094D01*
X25365694Y21496991D01*
X25294898Y21482909D01*
X24924898Y21482909D01*
X24854102Y21496991D01*
X24794083Y21537094D01*
X24753980Y21597113D01*
X24739898Y21667909D01*
X24739898Y21937909D01*
X24753980Y22008705D01*
X24794083Y22068724D01*
X24854102Y22108827D01*
X24924898Y22122909D01*
X25294898Y22122909D01*
X25365694Y22108827D01*
G37*
G36*
X6168685Y23692031D02*
G01*
X6177358Y23688202D01*
X6184925Y23687099D01*
X6232223Y23663977D01*
X6269541Y23647499D01*
X6272996Y23644044D01*
X6273920Y23643592D01*
X6343591Y23573921D01*
X6344042Y23572998D01*
X6347499Y23569541D01*
X6363978Y23532218D01*
X6387098Y23484927D01*
X6388200Y23477361D01*
X6392031Y23468685D01*
X6400000Y23400000D01*
X6400000Y22100000D01*
X6392031Y22031315D01*
X6388199Y22022639D01*
X6387098Y22015075D01*
X6363985Y21967798D01*
X6347499Y21930459D01*
X6344041Y21927002D01*
X6343591Y21926080D01*
X6273920Y21856409D01*
X6272998Y21855959D01*
X6269541Y21852501D01*
X6232207Y21836017D01*
X6184926Y21812902D01*
X6177361Y21811800D01*
X6168685Y21807969D01*
X6100000Y21800000D01*
X5450000Y21800000D01*
X5381315Y21807969D01*
X5372638Y21811800D01*
X5365074Y21812902D01*
X5317787Y21836019D01*
X5280459Y21852501D01*
X5277002Y21855958D01*
X5276079Y21856409D01*
X5206408Y21926080D01*
X5205956Y21927004D01*
X5202501Y21930459D01*
X5186025Y21967772D01*
X5162901Y22015074D01*
X5161798Y22022643D01*
X5157969Y22031315D01*
X5150000Y22100000D01*
X5150000Y23400000D01*
X5157969Y23468685D01*
X5161798Y23477358D01*
X5162901Y23484926D01*
X5186028Y23532234D01*
X5202501Y23569541D01*
X5205955Y23572996D01*
X5206408Y23573921D01*
X5276079Y23643592D01*
X5277004Y23644045D01*
X5280459Y23647499D01*
X5317761Y23663970D01*
X5365073Y23687099D01*
X5372642Y23688202D01*
X5381315Y23692031D01*
X5450000Y23700000D01*
X6100000Y23700000D01*
X6168685Y23692031D01*
G37*
G36*
X9118685Y23692031D02*
G01*
X9127358Y23688202D01*
X9134925Y23687099D01*
X9182223Y23663977D01*
X9219541Y23647499D01*
X9222996Y23644044D01*
X9223920Y23643592D01*
X9293591Y23573921D01*
X9294042Y23572998D01*
X9297499Y23569541D01*
X9313978Y23532218D01*
X9337098Y23484927D01*
X9338200Y23477361D01*
X9342031Y23468685D01*
X9350000Y23400000D01*
X9350000Y22100000D01*
X9342031Y22031315D01*
X9338199Y22022639D01*
X9337098Y22015075D01*
X9313985Y21967798D01*
X9297499Y21930459D01*
X9294041Y21927002D01*
X9293591Y21926080D01*
X9223920Y21856409D01*
X9222998Y21855959D01*
X9219541Y21852501D01*
X9182207Y21836017D01*
X9134926Y21812902D01*
X9127361Y21811800D01*
X9118685Y21807969D01*
X9050000Y21800000D01*
X8400000Y21800000D01*
X8331315Y21807969D01*
X8322638Y21811800D01*
X8315074Y21812902D01*
X8267787Y21836019D01*
X8230459Y21852501D01*
X8227002Y21855958D01*
X8226079Y21856409D01*
X8156408Y21926080D01*
X8155956Y21927004D01*
X8152501Y21930459D01*
X8136025Y21967772D01*
X8112901Y22015074D01*
X8111798Y22022643D01*
X8107969Y22031315D01*
X8100000Y22100000D01*
X8100000Y23400000D01*
X8107969Y23468685D01*
X8111798Y23477358D01*
X8112901Y23484926D01*
X8136028Y23532234D01*
X8152501Y23569541D01*
X8155955Y23572996D01*
X8156408Y23573921D01*
X8226079Y23643592D01*
X8227004Y23644045D01*
X8230459Y23647499D01*
X8267761Y23663970D01*
X8315073Y23687099D01*
X8322642Y23688202D01*
X8331315Y23692031D01*
X8400000Y23700000D01*
X9050000Y23700000D01*
X9118685Y23692031D01*
G37*
G36*
X35534574Y22480314D02*
G01*
X35596214Y22439127D01*
X35637401Y22377487D01*
X35651864Y22304777D01*
X35651864Y22024777D01*
X35637401Y21952067D01*
X35596214Y21890427D01*
X35534574Y21849240D01*
X35461864Y21834777D01*
X35121864Y21834777D01*
X35049154Y21849240D01*
X34987514Y21890427D01*
X34946327Y21952067D01*
X34931864Y22024777D01*
X34931864Y22304777D01*
X34946327Y22377487D01*
X34987514Y22439127D01*
X35049154Y22480314D01*
X35121864Y22494777D01*
X35461864Y22494777D01*
X35534574Y22480314D01*
G37*
G36*
X36571414Y22480314D02*
G01*
X36633054Y22439127D01*
X36674241Y22377487D01*
X36688704Y22304777D01*
X36688704Y22024777D01*
X36674241Y21952067D01*
X36633054Y21890427D01*
X36571414Y21849240D01*
X36498704Y21834777D01*
X36158704Y21834777D01*
X36085994Y21849240D01*
X36024354Y21890427D01*
X35983167Y21952067D01*
X35968704Y22024777D01*
X35968704Y22304777D01*
X35983167Y22377487D01*
X36024354Y22439127D01*
X36085994Y22480314D01*
X36158704Y22494777D01*
X36498704Y22494777D01*
X36571414Y22480314D01*
G37*
G36*
X17117185Y22698237D02*
G01*
X17177204Y22658134D01*
X17217307Y22598115D01*
X17231389Y22527319D01*
X17231389Y22157319D01*
X17217307Y22086523D01*
X17177204Y22026504D01*
X17117185Y21986401D01*
X17046389Y21972319D01*
X16776389Y21972319D01*
X16705593Y21986401D01*
X16645574Y22026504D01*
X16605471Y22086523D01*
X16591389Y22157319D01*
X16591389Y22527319D01*
X16605471Y22598115D01*
X16645574Y22658134D01*
X16705593Y22698237D01*
X16776389Y22712319D01*
X17046389Y22712319D01*
X17117185Y22698237D01*
G37*
G36*
X18137185Y22698237D02*
G01*
X18197204Y22658134D01*
X18237307Y22598115D01*
X18251389Y22527319D01*
X18251389Y22157319D01*
X18237307Y22086523D01*
X18197204Y22026504D01*
X18137185Y21986401D01*
X18066389Y21972319D01*
X17796389Y21972319D01*
X17725593Y21986401D01*
X17665574Y22026504D01*
X17625471Y22086523D01*
X17611389Y22157319D01*
X17611389Y22527319D01*
X17625471Y22598115D01*
X17665574Y22658134D01*
X17725593Y22698237D01*
X17796389Y22712319D01*
X18066389Y22712319D01*
X18137185Y22698237D01*
G37*
G36*
X13493685Y23442031D02*
G01*
X13502358Y23438202D01*
X13509925Y23437099D01*
X13557223Y23413977D01*
X13594541Y23397499D01*
X13597996Y23394044D01*
X13598920Y23393592D01*
X13668591Y23323921D01*
X13669042Y23322998D01*
X13672499Y23319541D01*
X13688978Y23282218D01*
X13712098Y23234927D01*
X13713200Y23227361D01*
X13717031Y23218685D01*
X13725000Y23150000D01*
X13725000Y22425000D01*
X13717031Y22356315D01*
X13713199Y22347639D01*
X13712098Y22340075D01*
X13688985Y22292798D01*
X13672499Y22255459D01*
X13669041Y22252002D01*
X13668591Y22251080D01*
X13598920Y22181409D01*
X13597998Y22180959D01*
X13594541Y22177501D01*
X13557207Y22161017D01*
X13509926Y22137902D01*
X13502361Y22136800D01*
X13493685Y22132969D01*
X13425000Y22125000D01*
X10575000Y22125000D01*
X10506315Y22132969D01*
X10497638Y22136800D01*
X10490074Y22137902D01*
X10442787Y22161019D01*
X10405459Y22177501D01*
X10402002Y22180958D01*
X10401079Y22181409D01*
X10331408Y22251080D01*
X10330956Y22252004D01*
X10327501Y22255459D01*
X10311025Y22292772D01*
X10287901Y22340074D01*
X10286798Y22347643D01*
X10282969Y22356315D01*
X10275000Y22425000D01*
X10275000Y23150000D01*
X10282969Y23218685D01*
X10286798Y23227358D01*
X10287901Y23234926D01*
X10311028Y23282234D01*
X10327501Y23319541D01*
X10330955Y23322996D01*
X10331408Y23323921D01*
X10401079Y23393592D01*
X10402004Y23394045D01*
X10405459Y23397499D01*
X10442761Y23413970D01*
X10490073Y23437099D01*
X10497642Y23438202D01*
X10506315Y23442031D01*
X10575000Y23450000D01*
X13425000Y23450000D01*
X13493685Y23442031D01*
G37*
G36*
X2256359Y29361898D02*
G01*
X2371757Y29360006D01*
X2371776Y29360006D01*
X2372164Y29359999D01*
X2372495Y29359988D01*
X2493495Y29353988D01*
X2493824Y29353966D01*
X2494204Y29353935D01*
X2494213Y29353934D01*
X2614316Y29344008D01*
X2614824Y29343966D01*
X2615230Y29343924D01*
X2615706Y29343865D01*
X2615735Y29343862D01*
X2735879Y29328968D01*
X2735915Y29328964D01*
X2736230Y29328924D01*
X2736483Y29328889D01*
X2736803Y29328841D01*
X2855960Y29310968D01*
X2855985Y29310964D01*
X2856483Y29310889D01*
X2856898Y29310818D01*
X2857408Y29310720D01*
X2857457Y29310711D01*
X2975544Y29287888D01*
X2975660Y29287864D01*
X2975898Y29287818D01*
X2976135Y29287770D01*
X3095135Y29261770D01*
X3095464Y29261692D01*
X3095895Y29261583D01*
X3095901Y29261581D01*
X3212928Y29231829D01*
X3212958Y29231821D01*
X3213464Y29231692D01*
X3213889Y29231574D01*
X3329889Y29196574D01*
X3330113Y29196503D01*
X3330335Y29196431D01*
X3330355Y29196424D01*
X3357596Y29187500D01*
X3446113Y29158503D01*
X3446457Y29158383D01*
X3446798Y29158258D01*
X3446871Y29158232D01*
X3560004Y29116551D01*
X3560056Y29116531D01*
X3560457Y29116383D01*
X3560799Y29116250D01*
X3561205Y29116083D01*
X3561221Y29116077D01*
X3605424Y29097922D01*
X3672799Y29070250D01*
X3673107Y29070118D01*
X3673470Y29069955D01*
X3673499Y29069942D01*
X3783757Y29020276D01*
X3783775Y29020268D01*
X3784107Y29020118D01*
X3784373Y29019993D01*
X3893373Y28966993D01*
X3893749Y28966800D01*
X3894224Y28966544D01*
X3894235Y28966538D01*
X4010997Y28903524D01*
X4010998Y28903523D01*
X4019749Y28898800D01*
X4024581Y28892864D01*
X4025000Y28890000D01*
X4025000Y22610000D01*
X4022071Y22602929D01*
X4019749Y22601200D01*
X3893749Y22533200D01*
X3893373Y22533007D01*
X3784373Y22480007D01*
X3784107Y22479882D01*
X3673107Y22429882D01*
X3672799Y22429750D01*
X3560799Y22383750D01*
X3560457Y22383617D01*
X3560008Y22383452D01*
X3560004Y22383450D01*
X3446871Y22341769D01*
X3446846Y22341761D01*
X3446457Y22341617D01*
X3446113Y22341497D01*
X3330113Y22303497D01*
X3329889Y22303426D01*
X3213889Y22268426D01*
X3213464Y22268308D01*
X3095464Y22238308D01*
X3095135Y22238230D01*
X2976135Y22212230D01*
X2975898Y22212182D01*
X2975586Y22212122D01*
X2975544Y22212113D01*
X2857457Y22189290D01*
X2856898Y22189182D01*
X2856483Y22189111D01*
X2736483Y22171111D01*
X2736230Y22171076D01*
X2615230Y22156076D01*
X2614824Y22156034D01*
X2493824Y22146034D01*
X2493495Y22146012D01*
X2372495Y22140012D01*
X2372164Y22140001D01*
X2250164Y22138001D01*
X2249836Y22138001D01*
X2127836Y22140001D01*
X2127505Y22140012D01*
X2006505Y22146012D01*
X2006176Y22146034D01*
X1885176Y22156034D01*
X1884770Y22156076D01*
X1763770Y22171076D01*
X1763517Y22171111D01*
X1643517Y22189111D01*
X1643102Y22189182D01*
X1642552Y22189289D01*
X1642542Y22189290D01*
X1524455Y22212113D01*
X1524398Y22212125D01*
X1524102Y22212182D01*
X1523865Y22212230D01*
X1404865Y22238230D01*
X1404536Y22238308D01*
X1286536Y22268308D01*
X1286111Y22268426D01*
X1170111Y22303426D01*
X1169887Y22303497D01*
X1053887Y22341497D01*
X1053543Y22341617D01*
X1053170Y22341755D01*
X1053128Y22341769D01*
X939995Y22383450D01*
X939972Y22383459D01*
X939543Y22383617D01*
X939201Y22383750D01*
X827201Y22429750D01*
X826893Y22429882D01*
X715893Y22479882D01*
X715627Y22480007D01*
X606627Y22533007D01*
X606251Y22533200D01*
X480251Y22601200D01*
X475419Y22607136D01*
X475000Y22610000D01*
X475000Y28890000D01*
X477929Y28897071D01*
X480251Y28898800D01*
X483486Y28900547D01*
X483487Y28900547D01*
X605764Y28966538D01*
X605794Y28966554D01*
X606251Y28966800D01*
X606627Y28966993D01*
X607111Y28967229D01*
X607124Y28967235D01*
X715301Y29019835D01*
X715330Y29019849D01*
X715627Y29019993D01*
X715893Y29020118D01*
X716198Y29020256D01*
X716242Y29020276D01*
X826500Y29069942D01*
X826549Y29069964D01*
X826893Y29070118D01*
X827201Y29070250D01*
X827546Y29070392D01*
X827570Y29070402D01*
X938778Y29116077D01*
X938812Y29116091D01*
X939201Y29116250D01*
X939543Y29116383D01*
X939925Y29116524D01*
X939995Y29116551D01*
X1053128Y29158232D01*
X1053217Y29158264D01*
X1053543Y29158383D01*
X1053887Y29158503D01*
X1054262Y29158627D01*
X1054274Y29158630D01*
X1169644Y29196424D01*
X1169687Y29196438D01*
X1169887Y29196503D01*
X1170111Y29196574D01*
X1286111Y29231574D01*
X1286536Y29231692D01*
X1287030Y29231818D01*
X1287071Y29231829D01*
X1404098Y29261581D01*
X1404118Y29261586D01*
X1404536Y29261692D01*
X1404865Y29261770D01*
X1523865Y29287770D01*
X1524102Y29287818D01*
X1524324Y29287862D01*
X1524455Y29287888D01*
X1642542Y29310711D01*
X1642599Y29310721D01*
X1643102Y29310818D01*
X1643517Y29310889D01*
X1644006Y29310963D01*
X1644039Y29310968D01*
X1763196Y29328841D01*
X1763207Y29328843D01*
X1763517Y29328889D01*
X1763770Y29328924D01*
X1764074Y29328962D01*
X1764120Y29328968D01*
X1884264Y29343862D01*
X1884298Y29343866D01*
X1884770Y29343924D01*
X1885176Y29343966D01*
X1885678Y29344008D01*
X1885683Y29344008D01*
X2005786Y29353934D01*
X2005799Y29353935D01*
X2006176Y29353966D01*
X2006505Y29353988D01*
X2127505Y29359988D01*
X2127836Y29359999D01*
X2128221Y29360006D01*
X2128242Y29360006D01*
X2243902Y29361902D01*
X2249836Y29361999D01*
X2250164Y29361999D01*
X2256359Y29361898D01*
G37*
G36*
X39460796Y23480918D02*
G01*
X39520815Y23440815D01*
X39560918Y23380796D01*
X39575000Y23310000D01*
X39575000Y22940000D01*
X39560918Y22869204D01*
X39520815Y22809185D01*
X39460796Y22769082D01*
X39390000Y22755000D01*
X39120000Y22755000D01*
X39049204Y22769082D01*
X38989185Y22809185D01*
X38949082Y22869204D01*
X38935000Y22940000D01*
X38935000Y23310000D01*
X38949082Y23380796D01*
X38989185Y23440815D01*
X39049204Y23480918D01*
X39120000Y23495000D01*
X39390000Y23495000D01*
X39460796Y23480918D01*
G37*
G36*
X40480796Y23480918D02*
G01*
X40540815Y23440815D01*
X40580918Y23380796D01*
X40595000Y23310000D01*
X40595000Y22940000D01*
X40580918Y22869204D01*
X40540815Y22809185D01*
X40480796Y22769082D01*
X40410000Y22755000D01*
X40140000Y22755000D01*
X40069204Y22769082D01*
X40009185Y22809185D01*
X39969082Y22869204D01*
X39955000Y22940000D01*
X39955000Y23310000D01*
X39969082Y23380796D01*
X40009185Y23440815D01*
X40069204Y23480918D01*
X40140000Y23495000D01*
X40410000Y23495000D01*
X40480796Y23480918D01*
G37*
G36*
X37577710Y23470537D02*
G01*
X37639350Y23429350D01*
X37680537Y23367710D01*
X37695000Y23295000D01*
X37695000Y22955000D01*
X37680537Y22882290D01*
X37639350Y22820650D01*
X37577710Y22779463D01*
X37505000Y22765000D01*
X37225000Y22765000D01*
X37152290Y22779463D01*
X37090650Y22820650D01*
X37049463Y22882290D01*
X37035000Y22955000D01*
X37035000Y23295000D01*
X37049463Y23367710D01*
X37090650Y23429350D01*
X37152290Y23470537D01*
X37225000Y23485000D01*
X37505000Y23485000D01*
X37577710Y23470537D01*
G37*
G36*
X38537710Y23470537D02*
G01*
X38599350Y23429350D01*
X38640537Y23367710D01*
X38655000Y23295000D01*
X38655000Y22955000D01*
X38640537Y22882290D01*
X38599350Y22820650D01*
X38537710Y22779463D01*
X38465000Y22765000D01*
X38185000Y22765000D01*
X38112290Y22779463D01*
X38050650Y22820650D01*
X38009463Y22882290D01*
X37995000Y22955000D01*
X37995000Y23295000D01*
X38009463Y23367710D01*
X38050650Y23429350D01*
X38112290Y23470537D01*
X38185000Y23485000D01*
X38465000Y23485000D01*
X38537710Y23470537D01*
G37*
G36*
X35534574Y23440314D02*
G01*
X35596214Y23399127D01*
X35637401Y23337487D01*
X35651864Y23264777D01*
X35651864Y22984777D01*
X35637401Y22912067D01*
X35596214Y22850427D01*
X35534574Y22809240D01*
X35461864Y22794777D01*
X35121864Y22794777D01*
X35049154Y22809240D01*
X34987514Y22850427D01*
X34946327Y22912067D01*
X34931864Y22984777D01*
X34931864Y23264777D01*
X34946327Y23337487D01*
X34987514Y23399127D01*
X35049154Y23440314D01*
X35121864Y23454777D01*
X35461864Y23454777D01*
X35534574Y23440314D01*
G37*
G36*
X36571414Y23440314D02*
G01*
X36633054Y23399127D01*
X36674241Y23337487D01*
X36688704Y23264777D01*
X36688704Y22984777D01*
X36674241Y22912067D01*
X36633054Y22850427D01*
X36571414Y22809240D01*
X36498704Y22794777D01*
X36158704Y22794777D01*
X36085994Y22809240D01*
X36024354Y22850427D01*
X35983167Y22912067D01*
X35968704Y22984777D01*
X35968704Y23264777D01*
X35983167Y23337487D01*
X36024354Y23399127D01*
X36085994Y23440314D01*
X36158704Y23454777D01*
X36498704Y23454777D01*
X36571414Y23440314D01*
G37*
G36*
X18248685Y25142031D02*
G01*
X18257358Y25138202D01*
X18264925Y25137099D01*
X18312223Y25113977D01*
X18349541Y25097499D01*
X18352996Y25094044D01*
X18353920Y25093592D01*
X18423591Y25023921D01*
X18424042Y25022998D01*
X18427499Y25019541D01*
X18443978Y24982218D01*
X18467098Y24934927D01*
X18468200Y24927361D01*
X18472031Y24918685D01*
X18480000Y24850000D01*
X18480000Y23550000D01*
X18472031Y23481315D01*
X18468199Y23472639D01*
X18467098Y23465075D01*
X18443985Y23417798D01*
X18427499Y23380459D01*
X18424041Y23377002D01*
X18423591Y23376080D01*
X18353920Y23306409D01*
X18352998Y23305959D01*
X18349541Y23302501D01*
X18312207Y23286017D01*
X18264926Y23262902D01*
X18257361Y23261800D01*
X18248685Y23257969D01*
X18180000Y23250000D01*
X17530000Y23250000D01*
X17461315Y23257969D01*
X17452638Y23261800D01*
X17445074Y23262902D01*
X17397787Y23286019D01*
X17360459Y23302501D01*
X17357002Y23305958D01*
X17356079Y23306409D01*
X17286408Y23376080D01*
X17285956Y23377004D01*
X17282501Y23380459D01*
X17266025Y23417772D01*
X17242901Y23465074D01*
X17241798Y23472643D01*
X17237969Y23481315D01*
X17230000Y23550000D01*
X17230000Y24850000D01*
X17237969Y24918685D01*
X17241798Y24927358D01*
X17242901Y24934926D01*
X17266028Y24982234D01*
X17282501Y25019541D01*
X17285955Y25022996D01*
X17286408Y25023921D01*
X17356079Y25093592D01*
X17357004Y25094045D01*
X17360459Y25097499D01*
X17397761Y25113970D01*
X17445073Y25137099D01*
X17452642Y25138202D01*
X17461315Y25142031D01*
X17530000Y25150000D01*
X18180000Y25150000D01*
X18248685Y25142031D01*
G37*
G36*
X21198685Y25142031D02*
G01*
X21207358Y25138202D01*
X21214925Y25137099D01*
X21262223Y25113977D01*
X21299541Y25097499D01*
X21302996Y25094044D01*
X21303920Y25093592D01*
X21373591Y25023921D01*
X21374042Y25022998D01*
X21377499Y25019541D01*
X21393978Y24982218D01*
X21417098Y24934927D01*
X21418200Y24927361D01*
X21422031Y24918685D01*
X21430000Y24850000D01*
X21430000Y23550000D01*
X21422031Y23481315D01*
X21418199Y23472639D01*
X21417098Y23465075D01*
X21393985Y23417798D01*
X21377499Y23380459D01*
X21374041Y23377002D01*
X21373591Y23376080D01*
X21303920Y23306409D01*
X21302998Y23305959D01*
X21299541Y23302501D01*
X21262207Y23286017D01*
X21214926Y23262902D01*
X21207361Y23261800D01*
X21198685Y23257969D01*
X21130000Y23250000D01*
X20480000Y23250000D01*
X20411315Y23257969D01*
X20402638Y23261800D01*
X20395074Y23262902D01*
X20347787Y23286019D01*
X20310459Y23302501D01*
X20307002Y23305958D01*
X20306079Y23306409D01*
X20236408Y23376080D01*
X20235956Y23377004D01*
X20232501Y23380459D01*
X20216025Y23417772D01*
X20192901Y23465074D01*
X20191798Y23472643D01*
X20187969Y23481315D01*
X20180000Y23550000D01*
X20180000Y24850000D01*
X20187969Y24918685D01*
X20191798Y24927358D01*
X20192901Y24934926D01*
X20216028Y24982234D01*
X20232501Y25019541D01*
X20235955Y25022996D01*
X20236408Y25023921D01*
X20306079Y25093592D01*
X20307004Y25094045D01*
X20310459Y25097499D01*
X20347761Y25113970D01*
X20395073Y25137099D01*
X20402642Y25138202D01*
X20411315Y25142031D01*
X20480000Y25150000D01*
X21130000Y25150000D01*
X21198685Y25142031D01*
G37*
G36*
X24483685Y26137031D02*
G01*
X24492358Y26133202D01*
X24499925Y26132099D01*
X24547223Y26108977D01*
X24584541Y26092499D01*
X24587996Y26089044D01*
X24588920Y26088592D01*
X24658591Y26018921D01*
X24659042Y26017998D01*
X24662499Y26014541D01*
X24678978Y25977218D01*
X24702098Y25929927D01*
X24703200Y25922361D01*
X24707031Y25913685D01*
X24715000Y25845000D01*
X24715000Y23755000D01*
X24707031Y23686315D01*
X24703199Y23677639D01*
X24702098Y23670075D01*
X24678985Y23622798D01*
X24662499Y23585459D01*
X24659041Y23582002D01*
X24658591Y23581080D01*
X24588920Y23511409D01*
X24587998Y23510959D01*
X24584541Y23507501D01*
X24547207Y23491017D01*
X24499926Y23467902D01*
X24492361Y23466800D01*
X24483685Y23462969D01*
X24415000Y23455000D01*
X22845000Y23455000D01*
X22776315Y23462969D01*
X22767638Y23466800D01*
X22760074Y23467902D01*
X22712787Y23491019D01*
X22675459Y23507501D01*
X22672002Y23510958D01*
X22671079Y23511409D01*
X22601408Y23581080D01*
X22600956Y23582004D01*
X22597501Y23585459D01*
X22581025Y23622772D01*
X22557901Y23670074D01*
X22556798Y23677643D01*
X22552969Y23686315D01*
X22545000Y23755000D01*
X22545000Y25845000D01*
X22552969Y25913685D01*
X22556798Y25922358D01*
X22557901Y25929926D01*
X22581028Y25977234D01*
X22597501Y26014541D01*
X22600955Y26017996D01*
X22601408Y26018921D01*
X22671079Y26088592D01*
X22672004Y26089045D01*
X22675459Y26092499D01*
X22712761Y26108970D01*
X22760073Y26132099D01*
X22767642Y26133202D01*
X22776315Y26137031D01*
X22845000Y26145000D01*
X24415000Y26145000D01*
X24483685Y26137031D01*
G37*
G36*
X30723685Y26137031D02*
G01*
X30732358Y26133202D01*
X30739925Y26132099D01*
X30787223Y26108977D01*
X30824541Y26092499D01*
X30827996Y26089044D01*
X30828920Y26088592D01*
X30898591Y26018921D01*
X30899042Y26017998D01*
X30902499Y26014541D01*
X30918978Y25977218D01*
X30942098Y25929927D01*
X30943200Y25922361D01*
X30947031Y25913685D01*
X30955000Y25845000D01*
X30955000Y23755000D01*
X30947031Y23686315D01*
X30943199Y23677639D01*
X30942098Y23670075D01*
X30918985Y23622798D01*
X30902499Y23585459D01*
X30899041Y23582002D01*
X30898591Y23581080D01*
X30828920Y23511409D01*
X30827998Y23510959D01*
X30824541Y23507501D01*
X30787207Y23491017D01*
X30739926Y23467902D01*
X30732361Y23466800D01*
X30723685Y23462969D01*
X30655000Y23455000D01*
X29085000Y23455000D01*
X29016315Y23462969D01*
X29007638Y23466800D01*
X29000074Y23467902D01*
X28952787Y23491019D01*
X28915459Y23507501D01*
X28912002Y23510958D01*
X28911079Y23511409D01*
X28841408Y23581080D01*
X28840956Y23582004D01*
X28837501Y23585459D01*
X28821025Y23622772D01*
X28797901Y23670074D01*
X28796798Y23677643D01*
X28792969Y23686315D01*
X28785000Y23755000D01*
X28785000Y25845000D01*
X28792969Y25913685D01*
X28796798Y25922358D01*
X28797901Y25929926D01*
X28821028Y25977234D01*
X28837501Y26014541D01*
X28840955Y26017996D01*
X28841408Y26018921D01*
X28911079Y26088592D01*
X28912004Y26089045D01*
X28915459Y26092499D01*
X28952761Y26108970D01*
X29000073Y26132099D01*
X29007642Y26133202D01*
X29016315Y26137031D01*
X29085000Y26145000D01*
X30655000Y26145000D01*
X30723685Y26137031D01*
G37*
G36*
X7807403Y26093582D02*
G01*
X7856066Y26061066D01*
X7888582Y26012403D01*
X7900000Y25955000D01*
X7900000Y25155000D01*
X7888582Y25097597D01*
X7856066Y25048934D01*
X7807403Y25016418D01*
X7750000Y25005000D01*
X7550000Y25005000D01*
X7492597Y25016418D01*
X7443934Y25048934D01*
X7411418Y25097597D01*
X7400000Y25155000D01*
X7400000Y25955000D01*
X7411418Y26012403D01*
X7443934Y26061066D01*
X7492597Y26093582D01*
X7550000Y26105000D01*
X7750000Y26105000D01*
X7807403Y26093582D01*
G37*
G36*
X8457403Y26093582D02*
G01*
X8506066Y26061066D01*
X8538582Y26012403D01*
X8550000Y25955000D01*
X8550000Y25155000D01*
X8538582Y25097597D01*
X8506066Y25048934D01*
X8457403Y25016418D01*
X8400000Y25005000D01*
X8200000Y25005000D01*
X8142597Y25016418D01*
X8093934Y25048934D01*
X8061418Y25097597D01*
X8050000Y25155000D01*
X8050000Y25955000D01*
X8061418Y26012403D01*
X8093934Y26061066D01*
X8142597Y26093582D01*
X8200000Y26105000D01*
X8400000Y26105000D01*
X8457403Y26093582D01*
G37*
G36*
X9107403Y26093582D02*
G01*
X9156066Y26061066D01*
X9188582Y26012403D01*
X9200000Y25955000D01*
X9200000Y25155000D01*
X9188582Y25097597D01*
X9156066Y25048934D01*
X9107403Y25016418D01*
X9050000Y25005000D01*
X8850000Y25005000D01*
X8792597Y25016418D01*
X8743934Y25048934D01*
X8711418Y25097597D01*
X8700000Y25155000D01*
X8700000Y25955000D01*
X8711418Y26012403D01*
X8743934Y26061066D01*
X8792597Y26093582D01*
X8850000Y26105000D01*
X9050000Y26105000D01*
X9107403Y26093582D01*
G37*
G36*
X6742710Y26278037D02*
G01*
X6804350Y26236850D01*
X6845537Y26175210D01*
X6860000Y26102500D01*
X6860000Y25822500D01*
X6845537Y25749790D01*
X6804350Y25688150D01*
X6742710Y25646963D01*
X6670000Y25632500D01*
X6330000Y25632500D01*
X6257290Y25646963D01*
X6195650Y25688150D01*
X6154463Y25749790D01*
X6140000Y25822500D01*
X6140000Y26102500D01*
X6154463Y26175210D01*
X6195650Y26236850D01*
X6257290Y26278037D01*
X6330000Y26292500D01*
X6670000Y26292500D01*
X6742710Y26278037D01*
G37*
G36*
X18606537Y27297276D02*
G01*
X18671421Y27253921D01*
X18714776Y27189037D01*
X18730000Y27112500D01*
X18730000Y25937500D01*
X18714776Y25860963D01*
X18671421Y25796079D01*
X18606537Y25752724D01*
X18530000Y25737500D01*
X18230000Y25737500D01*
X18153463Y25752724D01*
X18088579Y25796079D01*
X18045224Y25860963D01*
X18030000Y25937500D01*
X18030000Y27112500D01*
X18045224Y27189037D01*
X18088579Y27253921D01*
X18153463Y27297276D01*
X18230000Y27312500D01*
X18530000Y27312500D01*
X18606537Y27297276D01*
G37*
G36*
X20506537Y27297276D02*
G01*
X20571421Y27253921D01*
X20614776Y27189037D01*
X20630000Y27112500D01*
X20630000Y25937500D01*
X20614776Y25860963D01*
X20571421Y25796079D01*
X20506537Y25752724D01*
X20430000Y25737500D01*
X20130000Y25737500D01*
X20053463Y25752724D01*
X19988579Y25796079D01*
X19945224Y25860963D01*
X19930000Y25937500D01*
X19930000Y27112500D01*
X19945224Y27189037D01*
X19988579Y27253921D01*
X20053463Y27297276D01*
X20130000Y27312500D01*
X20430000Y27312500D01*
X20506537Y27297276D01*
G37*
G36*
X41348869Y28570212D02*
G01*
X42617943Y28570212D01*
X42621875Y28570212D01*
X42710035Y28558605D01*
X42719708Y28554095D01*
X42726940Y28552949D01*
X42778455Y28526701D01*
X42817249Y28508611D01*
X42820667Y28505193D01*
X42821720Y28504656D01*
X42896943Y28429433D01*
X42897479Y28428381D01*
X42900899Y28424961D01*
X42918993Y28386157D01*
X42945236Y28334653D01*
X42946381Y28327423D01*
X42950893Y28317747D01*
X42962499Y28229586D01*
X42962499Y28225663D01*
X42962500Y28225656D01*
X42962500Y27312500D01*
X42962500Y26438125D01*
X42950893Y26349965D01*
X42946380Y26340289D01*
X42945236Y26333060D01*
X42918999Y26281568D01*
X42900899Y26242751D01*
X42897478Y26239331D01*
X42896943Y26238280D01*
X42821720Y26163057D01*
X42820669Y26162522D01*
X42817249Y26159101D01*
X42778432Y26141001D01*
X42726940Y26114764D01*
X42719711Y26113620D01*
X42710035Y26109107D01*
X42621874Y26097501D01*
X42617949Y26097501D01*
X42617943Y26097500D01*
X41267696Y26097500D01*
X41265625Y26097500D01*
X40600500Y26097500D01*
X40557257Y26106102D01*
X40520597Y26130597D01*
X40496102Y26167257D01*
X40487500Y26210500D01*
X40487500Y26504500D01*
X40496102Y26547743D01*
X40520597Y26584403D01*
X40557257Y26608898D01*
X40600500Y26617500D01*
X40895711Y26617500D01*
X40925000Y26646789D01*
X40925000Y26718232D01*
X40895712Y26747520D01*
X40597232Y26747520D01*
X40553989Y26756122D01*
X40517329Y26780617D01*
X40492834Y26817277D01*
X40484232Y26860520D01*
X40484232Y27154520D01*
X40492834Y27197763D01*
X40517329Y27234423D01*
X40553989Y27258918D01*
X40597232Y27267520D01*
X40895711Y27267520D01*
X40925000Y27296809D01*
X40925000Y27368262D01*
X40895712Y27397550D01*
X40599864Y27397550D01*
X40556621Y27406152D01*
X40519961Y27430647D01*
X40495466Y27467307D01*
X40486864Y27510550D01*
X40486864Y27804550D01*
X40495466Y27847793D01*
X40519961Y27884453D01*
X40556621Y27908948D01*
X40599864Y27917550D01*
X40895711Y27917550D01*
X40925000Y27946839D01*
X40925000Y28020925D01*
X40895712Y28050213D01*
X40599864Y28050213D01*
X40556621Y28058815D01*
X40519961Y28083310D01*
X40495466Y28119970D01*
X40486864Y28163213D01*
X40486864Y28457213D01*
X40495466Y28500456D01*
X40519961Y28537116D01*
X40556621Y28561611D01*
X40599864Y28570213D01*
X41348864Y28570213D01*
X41348869Y28570212D01*
G37*
G36*
X44191816Y26605701D02*
G01*
X44242102Y26572102D01*
X44275701Y26521816D01*
X44287500Y26462500D01*
X44287500Y26252500D01*
X44275701Y26193184D01*
X44242102Y26142898D01*
X44191816Y26109299D01*
X44132500Y26097500D01*
X43642500Y26097500D01*
X43583184Y26109299D01*
X43532898Y26142898D01*
X43499299Y26193184D01*
X43487500Y26252500D01*
X43487500Y26462500D01*
X43499299Y26521816D01*
X43532898Y26572102D01*
X43583184Y26605701D01*
X43642500Y26617500D01*
X44132500Y26617500D01*
X44191816Y26605701D01*
G37*
G36*
X6742710Y27238037D02*
G01*
X6804350Y27196850D01*
X6845537Y27135210D01*
X6860000Y27062500D01*
X6860000Y26782500D01*
X6845537Y26709790D01*
X6804350Y26648150D01*
X6742710Y26606963D01*
X6670000Y26592500D01*
X6330000Y26592500D01*
X6257290Y26606963D01*
X6195650Y26648150D01*
X6154463Y26709790D01*
X6140000Y26782500D01*
X6140000Y27062500D01*
X6154463Y27135210D01*
X6195650Y27196850D01*
X6257290Y27238037D01*
X6330000Y27252500D01*
X6670000Y27252500D01*
X6742710Y27238037D01*
G37*
G36*
X44191816Y27255701D02*
G01*
X44242102Y27222102D01*
X44275701Y27171816D01*
X44287500Y27112500D01*
X44287500Y26902500D01*
X44275701Y26843184D01*
X44242102Y26792898D01*
X44191816Y26759299D01*
X44132500Y26747500D01*
X43642500Y26747500D01*
X43583184Y26759299D01*
X43532898Y26792898D01*
X43499299Y26843184D01*
X43487500Y26902500D01*
X43487500Y27112500D01*
X43499299Y27171816D01*
X43532898Y27222102D01*
X43583184Y27255701D01*
X43642500Y27267500D01*
X44132500Y27267500D01*
X44191816Y27255701D01*
G37*
G36*
X7807403Y27868582D02*
G01*
X7856066Y27836066D01*
X7888582Y27787403D01*
X7900000Y27730000D01*
X7900000Y26930000D01*
X7888582Y26872597D01*
X7856066Y26823934D01*
X7807403Y26791418D01*
X7750000Y26780000D01*
X7550000Y26780000D01*
X7492597Y26791418D01*
X7443934Y26823934D01*
X7411418Y26872597D01*
X7400000Y26930000D01*
X7400000Y27730000D01*
X7411418Y27787403D01*
X7443934Y27836066D01*
X7492597Y27868582D01*
X7550000Y27880000D01*
X7750000Y27880000D01*
X7807403Y27868582D01*
G37*
G36*
X8457403Y27868582D02*
G01*
X8506066Y27836066D01*
X8538582Y27787403D01*
X8550000Y27730000D01*
X8550000Y26930000D01*
X8538582Y26872597D01*
X8506066Y26823934D01*
X8457403Y26791418D01*
X8400000Y26780000D01*
X8200000Y26780000D01*
X8142597Y26791418D01*
X8093934Y26823934D01*
X8061418Y26872597D01*
X8050000Y26930000D01*
X8050000Y27730000D01*
X8061418Y27787403D01*
X8093934Y27836066D01*
X8142597Y27868582D01*
X8200000Y27880000D01*
X8400000Y27880000D01*
X8457403Y27868582D01*
G37*
G36*
X9107403Y27868582D02*
G01*
X9156066Y27836066D01*
X9188582Y27787403D01*
X9200000Y27730000D01*
X9200000Y26930000D01*
X9188582Y26872597D01*
X9156066Y26823934D01*
X9107403Y26791418D01*
X9050000Y26780000D01*
X8850000Y26780000D01*
X8792597Y26791418D01*
X8743934Y26823934D01*
X8711418Y26872597D01*
X8700000Y26930000D01*
X8700000Y27730000D01*
X8711418Y27787403D01*
X8743934Y27836066D01*
X8792597Y27868582D01*
X8850000Y27880000D01*
X9050000Y27880000D01*
X9107403Y27868582D01*
G37*
G36*
X44191816Y27905701D02*
G01*
X44242102Y27872102D01*
X44275701Y27821816D01*
X44287500Y27762500D01*
X44287500Y27552500D01*
X44275701Y27493184D01*
X44242102Y27442898D01*
X44191816Y27409299D01*
X44132500Y27397500D01*
X43642500Y27397500D01*
X43583184Y27409299D01*
X43532898Y27442898D01*
X43499299Y27493184D01*
X43487500Y27552500D01*
X43487500Y27762500D01*
X43499299Y27821816D01*
X43532898Y27872102D01*
X43583184Y27905701D01*
X43642500Y27917500D01*
X44132500Y27917500D01*
X44191816Y27905701D01*
G37*
G36*
X19556537Y29172276D02*
G01*
X19621421Y29128921D01*
X19664776Y29064037D01*
X19680000Y28987500D01*
X19680000Y27812500D01*
X19664776Y27735963D01*
X19621421Y27671079D01*
X19556537Y27627724D01*
X19480000Y27612500D01*
X19180000Y27612500D01*
X19103463Y27627724D01*
X19038579Y27671079D01*
X18995224Y27735963D01*
X18980000Y27812500D01*
X18980000Y28987500D01*
X18995224Y29064037D01*
X19038579Y29128921D01*
X19103463Y29172276D01*
X19180000Y29187500D01*
X19480000Y29187500D01*
X19556537Y29172276D01*
G37*
G36*
X44191816Y28555701D02*
G01*
X44242102Y28522102D01*
X44275701Y28471816D01*
X44287500Y28412500D01*
X44287500Y28202500D01*
X44275701Y28143184D01*
X44242102Y28092898D01*
X44191816Y28059299D01*
X44132500Y28047500D01*
X43642500Y28047500D01*
X43583184Y28059299D01*
X43532898Y28092898D01*
X43499299Y28143184D01*
X43487500Y28202500D01*
X43487500Y28412500D01*
X43499299Y28471816D01*
X43532898Y28522102D01*
X43583184Y28555701D01*
X43642500Y28567500D01*
X44132500Y28567500D01*
X44191816Y28555701D01*
G37*
G36*
X13493685Y29367031D02*
G01*
X13502358Y29363202D01*
X13509925Y29362099D01*
X13557223Y29338977D01*
X13594541Y29322499D01*
X13597996Y29319044D01*
X13598920Y29318592D01*
X13668591Y29248921D01*
X13669042Y29247998D01*
X13672499Y29244541D01*
X13688978Y29207218D01*
X13712098Y29159927D01*
X13713200Y29152361D01*
X13717031Y29143685D01*
X13725000Y29075000D01*
X13725000Y28350000D01*
X13717031Y28281315D01*
X13713199Y28272639D01*
X13712098Y28265075D01*
X13688985Y28217798D01*
X13672499Y28180459D01*
X13669041Y28177002D01*
X13668591Y28176080D01*
X13598920Y28106409D01*
X13597998Y28105959D01*
X13594541Y28102501D01*
X13557207Y28086017D01*
X13509926Y28062902D01*
X13502361Y28061800D01*
X13493685Y28057969D01*
X13425000Y28050000D01*
X10575000Y28050000D01*
X10506315Y28057969D01*
X10497638Y28061800D01*
X10490074Y28062902D01*
X10442787Y28086019D01*
X10405459Y28102501D01*
X10402002Y28105958D01*
X10401079Y28106409D01*
X10331408Y28176080D01*
X10330956Y28177004D01*
X10327501Y28180459D01*
X10311025Y28217772D01*
X10287901Y28265074D01*
X10286798Y28272643D01*
X10282969Y28281315D01*
X10275000Y28350000D01*
X10275000Y29075000D01*
X10282969Y29143685D01*
X10286798Y29152358D01*
X10287901Y29159926D01*
X10311028Y29207234D01*
X10327501Y29244541D01*
X10330955Y29247996D01*
X10331408Y29248921D01*
X10401079Y29318592D01*
X10402004Y29319045D01*
X10405459Y29322499D01*
X10442761Y29338970D01*
X10490073Y29362099D01*
X10497642Y29363202D01*
X10506315Y29367031D01*
X10575000Y29375000D01*
X13425000Y29375000D01*
X13493685Y29367031D01*
G37*
G36*
X7995796Y29198418D02*
G01*
X8055815Y29158315D01*
X8095918Y29098296D01*
X8110000Y29027500D01*
X8110000Y28657500D01*
X8095918Y28586704D01*
X8055815Y28526685D01*
X7995796Y28486582D01*
X7925000Y28472500D01*
X7655000Y28472500D01*
X7584204Y28486582D01*
X7524185Y28526685D01*
X7484082Y28586704D01*
X7470000Y28657500D01*
X7470000Y29027500D01*
X7484082Y29098296D01*
X7524185Y29158315D01*
X7584204Y29198418D01*
X7655000Y29212500D01*
X7925000Y29212500D01*
X7995796Y29198418D01*
G37*
G36*
X9015796Y29198418D02*
G01*
X9075815Y29158315D01*
X9115918Y29098296D01*
X9130000Y29027500D01*
X9130000Y28657500D01*
X9115918Y28586704D01*
X9075815Y28526685D01*
X9015796Y28486582D01*
X8945000Y28472500D01*
X8675000Y28472500D01*
X8604204Y28486582D01*
X8544185Y28526685D01*
X8504082Y28586704D01*
X8490000Y28657500D01*
X8490000Y29027500D01*
X8504082Y29098296D01*
X8544185Y29158315D01*
X8604204Y29198418D01*
X8675000Y29212500D01*
X8945000Y29212500D01*
X9015796Y29198418D01*
G37*
G36*
X17362710Y29345537D02*
G01*
X17424350Y29304350D01*
X17465537Y29242710D01*
X17480000Y29170000D01*
X17480000Y28830000D01*
X17465537Y28757290D01*
X17424350Y28695650D01*
X17362710Y28654463D01*
X17290000Y28640000D01*
X17010000Y28640000D01*
X16937290Y28654463D01*
X16875650Y28695650D01*
X16834463Y28757290D01*
X16820000Y28830000D01*
X16820000Y29170000D01*
X16834463Y29242710D01*
X16875650Y29304350D01*
X16937290Y29345537D01*
X17010000Y29360000D01*
X17290000Y29360000D01*
X17362710Y29345537D01*
G37*
G36*
X18322710Y29345537D02*
G01*
X18384350Y29304350D01*
X18425537Y29242710D01*
X18440000Y29170000D01*
X18440000Y28830000D01*
X18425537Y28757290D01*
X18384350Y28695650D01*
X18322710Y28654463D01*
X18250000Y28640000D01*
X17970000Y28640000D01*
X17897290Y28654463D01*
X17835650Y28695650D01*
X17794463Y28757290D01*
X17780000Y28830000D01*
X17780000Y29170000D01*
X17794463Y29242710D01*
X17835650Y29304350D01*
X17897290Y29345537D01*
X17970000Y29360000D01*
X18250000Y29360000D01*
X18322710Y29345537D01*
G37*
G36*
X20662710Y29345537D02*
G01*
X20724350Y29304350D01*
X20765537Y29242710D01*
X20780000Y29170000D01*
X20780000Y28830000D01*
X20765537Y28757290D01*
X20724350Y28695650D01*
X20662710Y28654463D01*
X20590000Y28640000D01*
X20310000Y28640000D01*
X20237290Y28654463D01*
X20175650Y28695650D01*
X20134463Y28757290D01*
X20120000Y28830000D01*
X20120000Y29170000D01*
X20134463Y29242710D01*
X20175650Y29304350D01*
X20237290Y29345537D01*
X20310000Y29360000D01*
X20590000Y29360000D01*
X20662710Y29345537D01*
G37*
G36*
X21622710Y29345537D02*
G01*
X21684350Y29304350D01*
X21725537Y29242710D01*
X21740000Y29170000D01*
X21740000Y28830000D01*
X21725537Y28757290D01*
X21684350Y28695650D01*
X21622710Y28654463D01*
X21550000Y28640000D01*
X21270000Y28640000D01*
X21197290Y28654463D01*
X21135650Y28695650D01*
X21094463Y28757290D01*
X21080000Y28830000D01*
X21080000Y29170000D01*
X21094463Y29242710D01*
X21135650Y29304350D01*
X21197290Y29345537D01*
X21270000Y29360000D01*
X21550000Y29360000D01*
X21622710Y29345537D01*
G37*
M02*
