%TF.GenerationSoftware,KiCad,Pcbnew,9.0.7*%
%TF.CreationDate,2026-02-28T14:03:02+01:00*%
%TF.ProjectId,PDNode-PDCard-4242,50444e6f-6465-42d5-9044-436172642d34,rev?*%
%TF.SameCoordinates,Original*%
%TF.FileFunction,Copper,L4,Inr*%
%TF.FilePolarity,Positive*%
%FSLAX46Y46*%
G04 Gerber Fmt 4.6, Leading zero omitted, Abs format (unit mm)*
G04 Created by KiCad (PCBNEW 9.0.7) date 2026-02-28 14:03:02*
%MOMM*%
%LPD*%
G01*
G04 APERTURE LIST*
%TA.AperFunction,HeatsinkPad*%
%ADD10O,2.100000X1.000000*%
%TD*%
%TA.AperFunction,HeatsinkPad*%
%ADD11O,1.600000X1.000000*%
%TD*%
%TA.AperFunction,ComponentPad*%
%ADD12C,0.700000*%
%TD*%
%TA.AperFunction,ComponentPad*%
%ADD13C,4.400000*%
%TD*%
%TA.AperFunction,ViaPad*%
%ADD14C,0.400000*%
%TD*%
%TA.AperFunction,ViaPad*%
%ADD15C,0.450000*%
%TD*%
%TA.AperFunction,ViaPad*%
%ADD16C,0.500000*%
%TD*%
%TA.AperFunction,Conductor*%
%ADD17C,0.400000*%
%TD*%
%TA.AperFunction,Conductor*%
%ADD18C,0.500000*%
%TD*%
%TA.AperFunction,Conductor*%
%ADD19C,0.174000*%
%TD*%
G04 APERTURE END LIST*
D10*
%TO.N,SHIELD*%
%TO.C,J1*%
X2180000Y20520000D03*
D11*
X-2000000Y20520000D03*
D10*
X2180000Y11880000D03*
D11*
X-2000000Y11880000D03*
%TD*%
D12*
%TO.N,GND*%
%TO.C,H1*%
X-2055000Y4950000D03*
X-1571726Y6116726D03*
X-1571726Y3783274D03*
X-405000Y6600000D03*
D13*
X-405000Y4950000D03*
D12*
X-405000Y3300000D03*
X761726Y6116726D03*
X761726Y3783274D03*
X1245000Y4950000D03*
%TD*%
%TO.N,GND*%
%TO.C,H2*%
X-2055000Y26950000D03*
X-1571726Y28116726D03*
X-1571726Y25783274D03*
X-405000Y28600000D03*
D13*
X-405000Y26950000D03*
D12*
X-405000Y25300000D03*
X761726Y28116726D03*
X761726Y25783274D03*
X1245000Y26950000D03*
%TD*%
D14*
%TO.N,GND*%
X9950000Y11975000D03*
X9950000Y13025000D03*
D15*
%TO.N,Net-(D2-Pad2)*%
X3400000Y28800000D03*
D14*
%TO.N,+3.3V*%
X20900000Y20100000D03*
D16*
%TO.N,GND*%
X8800000Y28400000D03*
%TO.N,GND_USB*%
X8800000Y23100000D03*
D14*
%TO.N,+3.3V*%
X20900000Y21800000D03*
D16*
%TO.N,+24V_FILTERED*%
X25400000Y25200000D03*
X24200000Y25200000D03*
X24200000Y23600000D03*
D14*
%TO.N,GND*%
X21100000Y24800000D03*
X21100000Y24100000D03*
X13500000Y24200000D03*
X14300000Y26600000D03*
D16*
X25300000Y19800000D03*
%TO.N,+24V_FILTERED*%
X25400000Y21000000D03*
D14*
X36939330Y13545640D03*
X36939330Y9645640D03*
X36039330Y10495640D03*
D16*
X27800000Y22200000D03*
X25400000Y23600000D03*
X36800000Y27800000D03*
D14*
X36039330Y11245640D03*
D16*
X27800000Y25200000D03*
X38000000Y26600000D03*
D14*
X36939330Y11245640D03*
D16*
X26600000Y21000000D03*
X36800000Y25400000D03*
X29200000Y22200000D03*
X29000000Y26600000D03*
X27800000Y26600000D03*
D14*
X36039330Y9645640D03*
D16*
X29975000Y19400000D03*
D14*
X36939330Y12795640D03*
D16*
X30775000Y19400000D03*
X31575000Y19400000D03*
X25400000Y26600000D03*
D14*
X36039330Y13545640D03*
X36939330Y11995640D03*
D16*
X38000000Y25400000D03*
X24200000Y21000000D03*
X24200000Y26600000D03*
X29200000Y23600000D03*
X39200000Y27800000D03*
X26600000Y25200000D03*
X38000000Y27800000D03*
D14*
X36039330Y12795640D03*
D16*
X25400000Y22200000D03*
X39200000Y25400000D03*
X29000000Y25200000D03*
X26600000Y22200000D03*
X24200000Y22200000D03*
X26600000Y23600000D03*
X27800000Y23600000D03*
X29200000Y21000000D03*
X39200000Y26600000D03*
X27800000Y21000000D03*
X26600000Y26600000D03*
D14*
X36939330Y10495640D03*
D16*
X36800000Y26600000D03*
D14*
X36039330Y11995640D03*
D16*
X28474507Y19736811D03*
D14*
%TO.N,GND*%
X19600000Y25500000D03*
X18900000Y29000000D03*
D16*
X26350000Y16851000D03*
D14*
X20400000Y24800000D03*
X7800000Y4500000D03*
X11800000Y9950000D03*
X27300000Y12900000D03*
D16*
X10400000Y29100000D03*
D14*
X30671455Y6401869D03*
D16*
X7200000Y28400000D03*
D14*
X34000000Y21750000D03*
X16000000Y6600000D03*
X27300000Y12200000D03*
D16*
X7200000Y29100000D03*
X8800000Y29100000D03*
D14*
X20900000Y20800000D03*
D15*
X4400000Y24400000D03*
D14*
X27300000Y11500000D03*
D16*
X27798351Y17464383D03*
D14*
X31671455Y6401869D03*
X33050000Y23900000D03*
D16*
X25300000Y16900000D03*
X10400000Y28400000D03*
D14*
X25800000Y12200000D03*
X29200000Y12900000D03*
X20400000Y25500000D03*
X32050000Y23900000D03*
X13200000Y29000000D03*
X19600000Y24100000D03*
D15*
X4800000Y15800000D03*
X9000000Y18380000D03*
D16*
X29975000Y18100000D03*
D14*
X29200000Y12200000D03*
X32671455Y6401869D03*
X34100000Y23900000D03*
D16*
X8000000Y28400000D03*
X25398351Y18332062D03*
D14*
X33671455Y7751869D03*
D16*
X32400000Y16975000D03*
X31575000Y18600000D03*
X29000000Y18600000D03*
D14*
X21000000Y19200000D03*
X20400000Y24100000D03*
D15*
X5076587Y24409366D03*
D16*
X30775000Y18600000D03*
D14*
X37500000Y15300000D03*
D15*
X2800000Y7200000D03*
X7450000Y16700000D03*
D14*
X28500000Y12900000D03*
X17675000Y6600000D03*
X31671455Y7051869D03*
D15*
X7880000Y14700000D03*
D16*
X31575000Y18100000D03*
X9600000Y29100000D03*
D14*
X26600000Y12200000D03*
D16*
X27798351Y18332062D03*
D15*
X7900000Y18750000D03*
D14*
X33671455Y6401869D03*
D15*
X9000000Y15070000D03*
D14*
X19600000Y24800000D03*
X14800000Y13700000D03*
X15800000Y20800000D03*
D16*
X26598351Y18332062D03*
D14*
X-2600000Y8200000D03*
X32671455Y7751869D03*
D16*
X9600000Y28400000D03*
X8000000Y29100000D03*
D15*
X3200000Y25000000D03*
D14*
X26600000Y11500000D03*
X25800000Y11500000D03*
D15*
X6400000Y8400000D03*
X4000000Y8000000D03*
D14*
X28500000Y12200000D03*
X16850000Y7400000D03*
D16*
X24198351Y18332062D03*
D14*
X30671455Y7051869D03*
X21100000Y25500000D03*
D16*
X26500000Y19800000D03*
D14*
X30671455Y7751869D03*
D15*
X4800000Y17588000D03*
X11350000Y17650000D03*
D14*
X13000000Y20300000D03*
X16850000Y6600000D03*
X7000000Y5300000D03*
X36000000Y22100000D03*
X31671455Y7751869D03*
D16*
X24100000Y19800000D03*
X24100000Y16900000D03*
D15*
X11350000Y15700000D03*
D16*
X30775000Y18100000D03*
X29975000Y18600000D03*
X32400000Y19675000D03*
D15*
X4000000Y6400000D03*
D14*
X16000000Y7350000D03*
X13627977Y17111882D03*
X32671455Y7051869D03*
D16*
X27800000Y19200000D03*
D14*
X26600000Y12900000D03*
X25800000Y12900000D03*
X33671455Y7051869D03*
D16*
%TO.N,/Project Architecture/USB-PD Source Controller/PD_OUT*%
X23000000Y14500000D03*
X21600000Y14500000D03*
X28484363Y16874240D03*
X14000000Y10200000D03*
X20400000Y10400000D03*
X26600000Y14800000D03*
X31575000Y17350000D03*
X14000000Y11800000D03*
X23000000Y11750000D03*
X23000000Y10400000D03*
X21600000Y10400000D03*
X27400000Y15801000D03*
X25400000Y14800000D03*
X26600000Y15800000D03*
X24200000Y15800000D03*
X28600000Y14800000D03*
X30775000Y17350000D03*
X19200000Y10400000D03*
X20400000Y11750000D03*
X27600000Y14800000D03*
X14700000Y11000000D03*
X29975000Y17350000D03*
X19200000Y13150000D03*
X20400000Y13150000D03*
X14000000Y11000000D03*
X25400000Y15800000D03*
X21600000Y13150000D03*
X21600000Y11750000D03*
X19200000Y11750000D03*
X14700000Y10200000D03*
X23000000Y13150000D03*
X20400000Y14500000D03*
X24200000Y14800000D03*
X19200000Y14500000D03*
X14700000Y11800000D03*
D14*
%TO.N,/Project Architecture/USB-PD Source Controller/VDRV*%
X41500000Y28300000D03*
X34550000Y22200000D03*
%TO.N,+5V*%
X16100000Y28200000D03*
X14800000Y28200000D03*
X32508538Y14997753D03*
X17200000Y28200000D03*
X22700000Y6450000D03*
X14650000Y8150000D03*
D15*
%TO.N,PGOOD_3V3*%
X3200000Y3800000D03*
X16000000Y10000000D03*
D14*
%TO.N,+3.3V*%
X17600000Y23700000D03*
D15*
X3462039Y27737961D03*
D14*
X13000000Y19300000D03*
X13000000Y21300000D03*
X17600000Y24700000D03*
D15*
X5600000Y7400000D03*
D14*
%TO.N,/Project Architecture/USB-PD Source Controller/PD_CC2*%
X13350000Y15664999D03*
X29450000Y15450000D03*
X18800000Y15175000D03*
D15*
%TO.N,/Project Architecture/USB-PD Source Controller/USB_D+*%
X-76703Y16720739D03*
X11350000Y16350000D03*
X4796772Y16400000D03*
D14*
X30973574Y14199000D03*
D15*
%TO.N,/Project Architecture/USB-PD Source Controller/USB_D-*%
X11350000Y17050000D03*
D14*
X31575000Y14200000D03*
D15*
X415893Y17233338D03*
X4796772Y17000000D03*
D14*
%TO.N,/Project Architecture/USB-PD Source Controller/PD_CC1*%
X32161688Y14448030D03*
X22700000Y16850000D03*
X15925000Y17025000D03*
X19091054Y17033946D03*
%TO.N,/Project Architecture/USB-PD Source Controller/I2C_SDA*%
X25200000Y10600000D03*
X33521446Y14971446D03*
X19000000Y7650000D03*
X14681389Y22342319D03*
D15*
%TO.N,/Project Architecture/USB-PD Source Controller/PD_ENABLE*%
X12800000Y23600000D03*
D14*
X21350000Y7900000D03*
X32503707Y18333632D03*
X21859898Y20782909D03*
%TO.N,/Project Architecture/USB-PD Source Controller/PD_ATTACH*%
X31500000Y21500000D03*
X22900000Y20800000D03*
X21550000Y8500000D03*
D16*
%TO.N,GND_USB*%
X10400000Y22400000D03*
X8800000Y22400000D03*
D14*
X887500Y13000000D03*
X-1200000Y19400000D03*
D16*
X1654826Y23093833D03*
X8000000Y23100000D03*
D14*
X200000Y19400000D03*
X3787500Y13000000D03*
D16*
X7200000Y23100000D03*
X854826Y23093833D03*
X10400000Y23100000D03*
D14*
X2400000Y19400000D03*
X3087500Y13000000D03*
X2387500Y13000000D03*
D16*
X8000000Y22400000D03*
D14*
X-500000Y19400000D03*
D16*
X1654826Y22393833D03*
X7200000Y22400000D03*
D14*
X-512500Y13000000D03*
X1800000Y9942500D03*
X1800000Y9057500D03*
D16*
X9600000Y22400000D03*
D14*
X3100000Y19400000D03*
X3800000Y19400000D03*
X187500Y13000000D03*
D16*
X854826Y22393833D03*
D14*
X900000Y19400000D03*
D16*
X9600000Y23100000D03*
D14*
%TO.N,/Project Architecture/USB-PD Source Controller/VBUS*%
X1487500Y13986000D03*
X2399219Y13797973D03*
X-512500Y13797973D03*
D16*
X8746957Y10198351D03*
D14*
X5000000Y18600000D03*
X3100000Y18600000D03*
X-500000Y18600000D03*
X2400000Y18600000D03*
X4999219Y13797973D03*
D16*
X8746957Y11798351D03*
D14*
X4399219Y13797973D03*
X3800000Y18600000D03*
X187500Y13797973D03*
X-1212500Y13797973D03*
X787246Y13986000D03*
X876308Y18414000D03*
D16*
X8046957Y10998351D03*
X8046957Y10198351D03*
D14*
X200000Y18600000D03*
D16*
X8746957Y10998351D03*
X8046957Y11798351D03*
D14*
X3099219Y13797973D03*
X1700000Y18414000D03*
X3799219Y13797973D03*
X-1200000Y18600000D03*
X4400000Y18600000D03*
D15*
%TO.N,/Project Architecture/USB-PD Source Controller/CC1*%
X6950000Y19750000D03*
%TO.N,/Project Architecture/USB-PD Source Controller/CC2*%
X6890000Y14670000D03*
D14*
%TO.N,/Project Architecture/Board Connector and Supplies/VBUS_VMON_PORT0*%
X22950000Y7850000D03*
X7800000Y7290000D03*
%TO.N,+24V*%
X28677175Y7599997D03*
X33550000Y10500000D03*
X28675703Y9030818D03*
X32650000Y10500000D03*
X29674231Y9036639D03*
X30800000Y12950000D03*
X33550000Y9650000D03*
X27674297Y8269182D03*
X28675000Y8275000D03*
X27675769Y6838361D03*
X33550000Y12800000D03*
X32650000Y11250000D03*
X27676472Y7594179D03*
X32650000Y12800000D03*
X32650000Y9650000D03*
X24675000Y7550000D03*
X29675703Y7605818D03*
X27675000Y9025000D03*
X30800000Y12250000D03*
X28676472Y6844179D03*
X24675000Y8225000D03*
X29673528Y8280821D03*
X24675000Y6850000D03*
X29675000Y6850000D03*
X33550000Y12000000D03*
X32650000Y12000000D03*
X33550000Y11250000D03*
%TO.N,/Project Architecture/Board Connector and Supplies/PORT_EN*%
X1000000Y8200000D03*
D15*
X4000000Y28200000D03*
D14*
X20850000Y7350000D03*
%TO.N,/Project Architecture/USB-PD Source Controller/ISEN+*%
X12750000Y25250000D03*
X30400000Y23050000D03*
%TO.N,/Project Architecture/USB-PD Source Controller/ISEN-*%
X12750000Y26250000D03*
X31050000Y23100000D03*
%TO.N,/Project Architecture/USB-PD Source Controller/I2C_SCL*%
X24900000Y10037639D03*
X34200000Y15000000D03*
X19400000Y8150000D03*
X16262500Y19875000D03*
%TD*%
D17*
%TO.N,+5V*%
X23050000Y6850000D02*
X23600000Y7400000D01*
D18*
X31150000Y15950000D02*
X31750000Y15950000D01*
X14800000Y28200000D02*
X17200000Y28200000D01*
X14500000Y21250000D02*
X13850000Y21900000D01*
X12450000Y10350000D02*
X12450000Y12750000D01*
D17*
X22700000Y6500000D02*
X23050000Y6850000D01*
D18*
X13850000Y23450000D02*
X16100000Y25700000D01*
D17*
X23600000Y7400000D02*
X23600000Y9250000D01*
D18*
X14650000Y8150000D02*
X12450000Y10350000D01*
X17200000Y8150000D02*
X18300000Y9250000D01*
X23650000Y9250000D02*
X24100000Y9700000D01*
X23000000Y9250000D02*
X23650000Y9250000D01*
X14500000Y14800000D02*
X14500000Y21250000D01*
X24100000Y12700000D02*
X25200000Y13800000D01*
X23000000Y9250000D02*
X23600000Y9250000D01*
X24100000Y9700000D02*
X24100000Y12700000D01*
X18300000Y9250000D02*
X23000000Y9250000D01*
X31750000Y15950000D02*
X32508538Y15191462D01*
X12450000Y12750000D02*
X14500000Y14800000D01*
X16100000Y25700000D02*
X16100000Y28200000D01*
X25200000Y13800000D02*
X29000000Y13800000D01*
X14650000Y8150000D02*
X17200000Y8150000D01*
X29000000Y13800000D02*
X31150000Y15950000D01*
X32508538Y15191462D02*
X32508538Y14997753D01*
X13850000Y21900000D02*
X13850000Y23450000D01*
D17*
X22700000Y6450000D02*
X22700000Y6500000D01*
D19*
%TO.N,+3.3V*%
X7925492Y9200000D02*
X10000000Y9200000D01*
X5600000Y7400000D02*
X6125492Y7400000D01*
X11100000Y19300000D02*
X13000000Y19300000D01*
X10000000Y9200000D02*
X10600000Y9800000D01*
X10600000Y18800000D02*
X11100000Y19300000D01*
X6125492Y7400000D02*
X7925492Y9200000D01*
X10600000Y9800000D02*
X10600000Y18800000D01*
%TD*%
%TA.AperFunction,Conductor*%
%TO.N,/Project Architecture/USB-PD Source Controller/VBUS*%
G36*
X-2754588Y19975382D02*
G01*
X-2753649Y19976785D01*
X-2633324Y19896387D01*
X-2505267Y19843345D01*
X-2505262Y19843343D01*
X-2369308Y19816300D01*
X-2369303Y19816300D01*
X-2363248Y19815703D01*
X-2363494Y19813215D01*
X-2306961Y19796615D01*
X-2261206Y19743811D01*
X-2250000Y19692300D01*
X-2250000Y19000000D01*
X-1266957Y19000000D01*
X-1253148Y18996300D01*
X-1146852Y18996300D01*
X-1133043Y19000000D01*
X-583280Y19000000D01*
X-561237Y18997099D01*
X-561202Y18997361D01*
X-553151Y18996301D01*
X-553148Y18996300D01*
X-553145Y18996300D01*
X-446855Y18996300D01*
X-446852Y18996300D01*
X-446850Y18996301D01*
X-438798Y18997361D01*
X-438764Y18997099D01*
X-416720Y19000000D01*
X133043Y19000000D01*
X146852Y18996300D01*
X253148Y18996300D01*
X266957Y19000000D01*
X816720Y19000000D01*
X838763Y18997099D01*
X838798Y18997361D01*
X846849Y18996301D01*
X846852Y18996300D01*
X846855Y18996300D01*
X953145Y18996300D01*
X953148Y18996300D01*
X953150Y18996301D01*
X961202Y18997361D01*
X961236Y18997099D01*
X983280Y19000000D01*
X1116694Y19000000D01*
X1183733Y18980315D01*
X1229488Y18927511D01*
X1236468Y18908095D01*
X1236905Y18906464D01*
X1299505Y18798036D01*
X1388036Y18709505D01*
X1496464Y18646905D01*
X1617399Y18614500D01*
X1617401Y18614500D01*
X1742599Y18614500D01*
X1742601Y18614500D01*
X1863536Y18646905D01*
X1971964Y18709505D01*
X2060495Y18798036D01*
X2123095Y18906464D01*
X2123531Y18908093D01*
X2124273Y18909311D01*
X2126204Y18913971D01*
X2126930Y18913670D01*
X2138023Y18931870D01*
X2149593Y18957203D01*
X2155957Y18961294D01*
X2159895Y18967753D01*
X2184944Y18979922D01*
X2208371Y18994977D01*
X2219115Y18996522D01*
X2222741Y18998283D01*
X2243306Y19000000D01*
X2316720Y19000000D01*
X2338763Y18997099D01*
X2338798Y18997361D01*
X2346849Y18996301D01*
X2346852Y18996300D01*
X2346855Y18996300D01*
X2453145Y18996300D01*
X2453148Y18996300D01*
X2453150Y18996301D01*
X2461202Y18997361D01*
X2461236Y18997099D01*
X2483280Y19000000D01*
X3033043Y19000000D01*
X3046852Y18996300D01*
X3153148Y18996300D01*
X3166957Y19000000D01*
X3716720Y19000000D01*
X3738763Y18997099D01*
X3738798Y18997361D01*
X3746849Y18996301D01*
X3746852Y18996300D01*
X3746855Y18996300D01*
X3853145Y18996300D01*
X3853148Y18996300D01*
X3853150Y18996301D01*
X3861202Y18997361D01*
X3861236Y18997099D01*
X3883280Y19000000D01*
X7361565Y19000000D01*
X7428604Y18980315D01*
X7474359Y18927511D01*
X7484303Y18858353D01*
X7481342Y18843920D01*
X7471300Y18806439D01*
X7471300Y18806437D01*
X7471300Y18693562D01*
X7500515Y18584527D01*
X7523063Y18545474D01*
X7556955Y18486772D01*
X7636772Y18406955D01*
X7734528Y18350515D01*
X7843561Y18321300D01*
X7843563Y18321300D01*
X7956437Y18321300D01*
X7956439Y18321300D01*
X8065472Y18350515D01*
X8163228Y18406955D01*
X8243045Y18486772D01*
X8299485Y18584528D01*
X8328700Y18693561D01*
X8328700Y18806439D01*
X8318660Y18843909D01*
X8320323Y18913756D01*
X8359485Y18971619D01*
X8423714Y18999123D01*
X8438435Y19000000D01*
X8753697Y19000000D01*
X8820736Y18980315D01*
X8866491Y18927511D01*
X8876435Y18858353D01*
X8847410Y18794797D01*
X8815699Y18768615D01*
X8736772Y18723045D01*
X8736769Y18723043D01*
X8656957Y18643231D01*
X8656955Y18643228D01*
X8600515Y18545474D01*
X8571300Y18436439D01*
X8571300Y18323562D01*
X8600515Y18214527D01*
X8628735Y18165650D01*
X8656955Y18116772D01*
X8736772Y18036955D01*
X8834528Y17980515D01*
X8943561Y17951300D01*
X8943563Y17951300D01*
X9056436Y17951300D01*
X9056439Y17951300D01*
X9093908Y17961340D01*
X9163756Y17959677D01*
X9221619Y17920515D01*
X9249123Y17856286D01*
X9250000Y17841565D01*
X9250000Y15608436D01*
X9230315Y15541397D01*
X9177511Y15495642D01*
X9108353Y15485698D01*
X9093909Y15488661D01*
X9056443Y15498700D01*
X9056439Y15498700D01*
X8943561Y15498700D01*
X8834526Y15469485D01*
X8736772Y15413045D01*
X8736769Y15413043D01*
X8656957Y15333231D01*
X8656955Y15333228D01*
X8600515Y15235474D01*
X8571906Y15128700D01*
X8571300Y15126439D01*
X8571300Y15013561D01*
X8571439Y15013043D01*
X8600515Y14904527D01*
X8619852Y14871035D01*
X8656955Y14806772D01*
X8736772Y14726955D01*
X8834528Y14670515D01*
X8943561Y14641300D01*
X8943563Y14641300D01*
X9056436Y14641300D01*
X9056439Y14641300D01*
X9093908Y14651340D01*
X9163756Y14649677D01*
X9221619Y14610515D01*
X9249123Y14546286D01*
X9250000Y14531565D01*
X9250000Y9614700D01*
X9230315Y9547661D01*
X9177511Y9501906D01*
X9126000Y9490700D01*
X7963763Y9490700D01*
X7887220Y9490700D01*
X7837930Y9477493D01*
X7813285Y9470889D01*
X7746999Y9432619D01*
X7746996Y9432617D01*
X7350699Y9036319D01*
X7289376Y9002834D01*
X7263018Y9000000D01*
X2327012Y9000000D01*
X2259973Y9019685D01*
X2214218Y9072489D01*
X2204073Y9107813D01*
X2203700Y9110641D01*
X2203700Y9110648D01*
X2176189Y9213323D01*
X2123041Y9305378D01*
X2047878Y9380541D01*
X2026967Y9392614D01*
X1978753Y9443179D01*
X1965529Y9511786D01*
X1991497Y9576651D01*
X2026966Y9607386D01*
X2047878Y9619459D01*
X2123041Y9694622D01*
X2176189Y9786677D01*
X2203700Y9889352D01*
X2203700Y9995648D01*
X2176189Y10098323D01*
X2123041Y10190378D01*
X2047878Y10265541D01*
X1955823Y10318689D01*
X1853148Y10346200D01*
X1746852Y10346200D01*
X1644177Y10318689D01*
X1644175Y10318688D01*
X1644174Y10318688D01*
X1552125Y10265543D01*
X1552119Y10265539D01*
X1476961Y10190381D01*
X1476957Y10190375D01*
X1423812Y10098326D01*
X1423812Y10098325D01*
X1423811Y10098323D01*
X1396300Y9995648D01*
X1396300Y9889352D01*
X1423811Y9786677D01*
X1476959Y9694622D01*
X1552122Y9619459D01*
X1573032Y9607387D01*
X1621247Y9556819D01*
X1634469Y9488212D01*
X1608501Y9423348D01*
X1573033Y9392615D01*
X1573030Y9392612D01*
X1552122Y9380541D01*
X1552119Y9380539D01*
X1476961Y9305381D01*
X1476957Y9305375D01*
X1423812Y9213326D01*
X1423812Y9213325D01*
X1396300Y9110648D01*
X1395927Y9107813D01*
X1394947Y9105600D01*
X1394197Y9102798D01*
X1393760Y9102916D01*
X1367659Y9043917D01*
X1309334Y9005446D01*
X1272988Y9000000D01*
X-2825500Y9000000D01*
X-2892539Y9019685D01*
X-2938294Y9072489D01*
X-2949500Y9124000D01*
X-2949500Y11236112D01*
X-2929815Y11303151D01*
X-2877011Y11348906D01*
X-2807853Y11358850D01*
X-2754588Y11335382D01*
X-2753649Y11336785D01*
X-2633324Y11256387D01*
X-2505267Y11203345D01*
X-2505262Y11203343D01*
X-2369313Y11176301D01*
X-2369310Y11176300D01*
X-2369308Y11176300D01*
X-1630690Y11176300D01*
X-1630689Y11176301D01*
X-1494738Y11203343D01*
X-1415626Y11236112D01*
X-1366677Y11256387D01*
X-1366676Y11256388D01*
X-1366673Y11256389D01*
X-1251417Y11333400D01*
X-1153400Y11431417D01*
X-1076389Y11546673D01*
X-1023343Y11674738D01*
X-996300Y11810692D01*
X-996300Y11949308D01*
X-996300Y11949311D01*
X-996301Y11949313D01*
X-1023342Y12085255D01*
X-1023343Y12085262D01*
X-1050500Y12150826D01*
X-1076387Y12213324D01*
X-1153402Y12328586D01*
X-1251415Y12426599D01*
X-1366677Y12503614D01*
X-1494734Y12556656D01*
X-1494746Y12556659D01*
X-1630689Y12583700D01*
X-1630692Y12583700D01*
X-2369308Y12583700D01*
X-2369311Y12583700D01*
X-2505255Y12556659D01*
X-2505267Y12556656D01*
X-2633324Y12503614D01*
X-2753649Y12423215D01*
X-2754649Y12424712D01*
X-2811171Y12400720D01*
X-2880036Y12412525D01*
X-2931586Y12459688D01*
X-2949500Y12523889D01*
X-2949500Y13053148D01*
X-916200Y13053148D01*
X-916200Y12946852D01*
X-888689Y12844177D01*
X-835541Y12752122D01*
X-760378Y12676959D01*
X-668323Y12623811D01*
X-565648Y12596300D01*
X-565646Y12596300D01*
X-459354Y12596300D01*
X-459352Y12596300D01*
X-356677Y12623811D01*
X-264622Y12676959D01*
X-250181Y12691400D01*
X-188858Y12724885D01*
X-119166Y12719901D01*
X-74819Y12691400D01*
X-60378Y12676959D01*
X31677Y12623811D01*
X134352Y12596300D01*
X134354Y12596300D01*
X240646Y12596300D01*
X240648Y12596300D01*
X343323Y12623811D01*
X435378Y12676959D01*
X449819Y12691400D01*
X511142Y12724885D01*
X580834Y12719901D01*
X625181Y12691400D01*
X639622Y12676959D01*
X731677Y12623811D01*
X834352Y12596300D01*
X834354Y12596300D01*
X940646Y12596300D01*
X940648Y12596300D01*
X1043323Y12623811D01*
X1135378Y12676959D01*
X1210541Y12752122D01*
X1263689Y12844177D01*
X1263689Y12844178D01*
X1267753Y12851216D01*
X1269878Y12849989D01*
X1305922Y12894733D01*
X1372212Y12916810D01*
X1438658Y12900279D01*
X1496464Y12866905D01*
X1617399Y12834500D01*
X1617401Y12834500D01*
X1742599Y12834500D01*
X1742601Y12834500D01*
X1863536Y12866905D01*
X1863539Y12866908D01*
X1871046Y12870016D01*
X1872344Y12866881D01*
X1924905Y12879691D01*
X1990957Y12856910D01*
X2026525Y12817825D01*
X2054310Y12769700D01*
X2070783Y12701800D01*
X2047930Y12635773D01*
X1993009Y12592582D01*
X1946923Y12583700D01*
X1560689Y12583700D01*
X1424745Y12556659D01*
X1424733Y12556656D01*
X1312854Y12510315D01*
X1312847Y12510311D01*
X1296673Y12503611D01*
X1181417Y12426600D01*
X1166469Y12411653D01*
X1166463Y12411648D01*
X1083400Y12328584D01*
X1006386Y12213324D01*
X953344Y12085267D01*
X953341Y12085255D01*
X926300Y11949313D01*
X926300Y11810688D01*
X953341Y11674746D01*
X953344Y11674734D01*
X1006386Y11546677D01*
X1083401Y11431415D01*
X1181414Y11333402D01*
X1296676Y11256387D01*
X1424733Y11203345D01*
X1424738Y11203343D01*
X1560687Y11176301D01*
X1560690Y11176300D01*
X1560692Y11176300D01*
X2799310Y11176300D01*
X2799311Y11176301D01*
X2935262Y11203343D01*
X3014374Y11236112D01*
X3063323Y11256387D01*
X3063324Y11256388D01*
X3063327Y11256389D01*
X3178583Y11333400D01*
X3276600Y11431417D01*
X3353611Y11546673D01*
X3406657Y11674738D01*
X3433700Y11810692D01*
X3433700Y11949308D01*
X3433700Y11949311D01*
X3433699Y11949313D01*
X3406658Y12085255D01*
X3406657Y12085262D01*
X3379500Y12150826D01*
X3353613Y12213324D01*
X3276598Y12328586D01*
X3188597Y12416587D01*
X3155112Y12477910D01*
X3160096Y12547602D01*
X3201968Y12603535D01*
X3211177Y12609804D01*
X3226635Y12619340D01*
X3243323Y12623811D01*
X3335378Y12676959D01*
X3360066Y12701648D01*
X3372399Y12709255D01*
X3392684Y12714807D01*
X3411142Y12724885D01*
X3425706Y12723844D01*
X3439791Y12727698D01*
X3459856Y12721402D01*
X3480834Y12719901D01*
X3496289Y12709969D01*
X3506455Y12706778D01*
X3512474Y12699567D01*
X3525181Y12691400D01*
X3539622Y12676959D01*
X3631677Y12623811D01*
X3734352Y12596300D01*
X3734354Y12596300D01*
X3840646Y12596300D01*
X3840648Y12596300D01*
X3943323Y12623811D01*
X4035378Y12676959D01*
X4110541Y12752122D01*
X4163689Y12844177D01*
X4191200Y12946852D01*
X4191200Y13053148D01*
X4163689Y13155823D01*
X4110541Y13247878D01*
X4035378Y13323041D01*
X3969591Y13361023D01*
X3943325Y13376188D01*
X3943324Y13376189D01*
X3943323Y13376189D01*
X3840648Y13403700D01*
X3734352Y13403700D01*
X3631677Y13376189D01*
X3631675Y13376188D01*
X3631674Y13376188D01*
X3539625Y13323043D01*
X3539619Y13323039D01*
X3525181Y13308600D01*
X3463858Y13275115D01*
X3394166Y13280099D01*
X3349819Y13308600D01*
X3335380Y13323039D01*
X3335378Y13323041D01*
X3269591Y13361023D01*
X3243325Y13376188D01*
X3243324Y13376189D01*
X3243323Y13376189D01*
X3140648Y13403700D01*
X3034352Y13403700D01*
X2931677Y13376189D01*
X2931675Y13376188D01*
X2931674Y13376188D01*
X2839625Y13323043D01*
X2839619Y13323039D01*
X2825181Y13308600D01*
X2763858Y13275115D01*
X2694166Y13280099D01*
X2649819Y13308600D01*
X2635380Y13323039D01*
X2635378Y13323041D01*
X2569591Y13361023D01*
X2543325Y13376188D01*
X2543324Y13376189D01*
X2543323Y13376189D01*
X2440648Y13403700D01*
X2334352Y13403700D01*
X2301034Y13394773D01*
X2279477Y13388997D01*
X2209627Y13390662D01*
X2151765Y13429826D01*
X2127612Y13476678D01*
X2123095Y13493536D01*
X2060495Y13601964D01*
X1971964Y13690495D01*
X1863536Y13753095D01*
X1863537Y13753095D01*
X1823224Y13763897D01*
X1742601Y13785500D01*
X1617399Y13785500D01*
X1536775Y13763897D01*
X1496463Y13753095D01*
X1388037Y13690496D01*
X1388034Y13690494D01*
X1299506Y13601966D01*
X1299504Y13601963D01*
X1236905Y13493537D01*
X1236904Y13493534D01*
X1225563Y13451211D01*
X1189197Y13391551D01*
X1126349Y13361023D01*
X1056974Y13369320D01*
X1043789Y13375920D01*
X1043325Y13376188D01*
X1043324Y13376189D01*
X1043323Y13376189D01*
X940648Y13403700D01*
X834352Y13403700D01*
X731677Y13376189D01*
X731675Y13376188D01*
X731674Y13376188D01*
X639625Y13323043D01*
X639619Y13323039D01*
X625181Y13308600D01*
X563858Y13275115D01*
X494166Y13280099D01*
X449819Y13308600D01*
X435380Y13323039D01*
X435378Y13323041D01*
X369591Y13361023D01*
X343325Y13376188D01*
X343324Y13376189D01*
X343323Y13376189D01*
X240648Y13403700D01*
X134352Y13403700D01*
X31677Y13376189D01*
X31675Y13376188D01*
X31674Y13376188D01*
X-60375Y13323043D01*
X-60381Y13323039D01*
X-74819Y13308600D01*
X-136142Y13275115D01*
X-205834Y13280099D01*
X-250181Y13308600D01*
X-264620Y13323039D01*
X-264622Y13323041D01*
X-330409Y13361023D01*
X-356675Y13376188D01*
X-356676Y13376189D01*
X-356677Y13376189D01*
X-459352Y13403700D01*
X-565648Y13403700D01*
X-668323Y13376189D01*
X-668325Y13376188D01*
X-668326Y13376188D01*
X-760375Y13323043D01*
X-760381Y13323039D01*
X-835539Y13247881D01*
X-835543Y13247875D01*
X-888688Y13155826D01*
X-888688Y13155825D01*
X-888689Y13155823D01*
X-916200Y13053148D01*
X-2949500Y13053148D01*
X-2949500Y14726439D01*
X6461300Y14726439D01*
X6461300Y14613561D01*
X6475907Y14559045D01*
X6490515Y14504527D01*
X6518735Y14455650D01*
X6546955Y14406772D01*
X6626772Y14326955D01*
X6711428Y14278078D01*
X6723166Y14271301D01*
X6724528Y14270515D01*
X6833561Y14241300D01*
X6833563Y14241300D01*
X6946437Y14241300D01*
X6946439Y14241300D01*
X7055472Y14270515D01*
X7153228Y14326955D01*
X7233045Y14406772D01*
X7286273Y14498966D01*
X7336840Y14547181D01*
X7405447Y14560403D01*
X7470312Y14534435D01*
X7501046Y14498967D01*
X7536955Y14436772D01*
X7616772Y14356955D01*
X7714528Y14300515D01*
X7823561Y14271300D01*
X7823563Y14271300D01*
X7936437Y14271300D01*
X7936439Y14271300D01*
X8045472Y14300515D01*
X8143228Y14356955D01*
X8223045Y14436772D01*
X8279485Y14534528D01*
X8308700Y14643561D01*
X8308700Y14756439D01*
X8279485Y14865472D01*
X8223045Y14963228D01*
X8143228Y15043045D01*
X8094350Y15071265D01*
X8045473Y15099485D01*
X7990955Y15114093D01*
X7936439Y15128700D01*
X7823561Y15128700D01*
X7714526Y15099485D01*
X7616772Y15043045D01*
X7616769Y15043043D01*
X7536957Y14963231D01*
X7536953Y14963225D01*
X7483725Y14871034D01*
X7433157Y14822820D01*
X7364550Y14809598D01*
X7299686Y14835567D01*
X7268952Y14871035D01*
X7233045Y14933228D01*
X7153228Y15013045D01*
X7104350Y15041265D01*
X7055473Y15069485D01*
X7000955Y15084093D01*
X6946439Y15098700D01*
X6833561Y15098700D01*
X6724526Y15069485D01*
X6626772Y15013045D01*
X6626769Y15013043D01*
X6546957Y14933231D01*
X6546955Y14933228D01*
X6490515Y14835474D01*
X6483582Y14809598D01*
X6461300Y14726439D01*
X-2949500Y14726439D01*
X-2949500Y16777178D01*
X-505403Y16777178D01*
X-505403Y16664300D01*
X-499846Y16643562D01*
X-476188Y16555266D01*
X-464214Y16534527D01*
X-419748Y16457511D01*
X-339931Y16377694D01*
X-242175Y16321254D01*
X-133142Y16292039D01*
X-133140Y16292039D01*
X-20266Y16292039D01*
X-20264Y16292039D01*
X88769Y16321254D01*
X186525Y16377694D01*
X266342Y16457511D01*
X322782Y16555267D01*
X351997Y16664300D01*
X351997Y16680638D01*
X371682Y16747677D01*
X424486Y16793432D01*
X464462Y16802129D01*
X464272Y16803577D01*
X472323Y16804638D01*
X472332Y16804638D01*
X581365Y16833853D01*
X679121Y16890293D01*
X758938Y16970110D01*
X808781Y17056439D01*
X4368072Y17056439D01*
X4368072Y17042379D01*
X4368072Y16943562D01*
X4397287Y16834527D01*
X4439161Y16762001D01*
X4455634Y16694100D01*
X4439161Y16637999D01*
X4397287Y16565474D01*
X4368072Y16456439D01*
X4368072Y16343562D01*
X4397287Y16234527D01*
X4440775Y16159206D01*
X4457248Y16091306D01*
X4440775Y16035205D01*
X4400516Y15965476D01*
X4400516Y15965475D01*
X4371300Y15856439D01*
X4371300Y15743562D01*
X4400515Y15634527D01*
X4415579Y15608436D01*
X4456955Y15536772D01*
X4536772Y15456955D01*
X4634528Y15400515D01*
X4743561Y15371300D01*
X4743563Y15371300D01*
X4856437Y15371300D01*
X4856439Y15371300D01*
X4965472Y15400515D01*
X5063228Y15456955D01*
X5143045Y15536772D01*
X5199485Y15634528D01*
X5228700Y15743561D01*
X5228700Y15856439D01*
X5199485Y15965472D01*
X5155997Y16040795D01*
X5139523Y16108695D01*
X5155995Y16164795D01*
X5196257Y16234528D01*
X5225472Y16343561D01*
X5225472Y16456439D01*
X5196257Y16565472D01*
X5196256Y16565474D01*
X5196256Y16565475D01*
X5174677Y16602849D01*
X5154382Y16638001D01*
X5151552Y16649667D01*
X5144589Y16659445D01*
X5143467Y16682987D01*
X5137909Y16705898D01*
X5141752Y16718990D01*
X5141265Y16729235D01*
X5152155Y16756439D01*
X7021300Y16756439D01*
X7021300Y16643561D01*
X7022791Y16637998D01*
X7050515Y16534527D01*
X7078735Y16485650D01*
X7106955Y16436772D01*
X7186772Y16356955D01*
X7284528Y16300515D01*
X7393561Y16271300D01*
X7393563Y16271300D01*
X7506437Y16271300D01*
X7506439Y16271300D01*
X7615472Y16300515D01*
X7713228Y16356955D01*
X7793045Y16436772D01*
X7849485Y16534528D01*
X7878700Y16643561D01*
X7878700Y16756439D01*
X7849485Y16865472D01*
X7793045Y16963228D01*
X7713228Y17043045D01*
X7664350Y17071265D01*
X7615473Y17099485D01*
X7538072Y17120224D01*
X7506439Y17128700D01*
X7393561Y17128700D01*
X7284526Y17099485D01*
X7186772Y17043045D01*
X7186769Y17043043D01*
X7106957Y16963231D01*
X7106955Y16963228D01*
X7050515Y16865474D01*
X7034215Y16804639D01*
X7021300Y16756439D01*
X5152155Y16756439D01*
X5154379Y16761995D01*
X5196257Y16834528D01*
X5225472Y16943561D01*
X5225472Y17056439D01*
X5196257Y17165472D01*
X5196256Y17165473D01*
X5196256Y17165475D01*
X5172627Y17206400D01*
X5159460Y17229205D01*
X5142987Y17297103D01*
X5159459Y17353204D01*
X5199485Y17422528D01*
X5228700Y17531561D01*
X5228700Y17644439D01*
X5199485Y17753472D01*
X5143045Y17851228D01*
X5063228Y17931045D01*
X5010756Y17961340D01*
X4965473Y17987485D01*
X4910955Y18002093D01*
X4856439Y18016700D01*
X4743561Y18016700D01*
X4634526Y17987485D01*
X4536772Y17931045D01*
X4536769Y17931043D01*
X4456957Y17851231D01*
X4456955Y17851228D01*
X4400515Y17753474D01*
X4376016Y17662038D01*
X4371300Y17644439D01*
X4371300Y17531561D01*
X4400515Y17422528D01*
X4437311Y17358796D01*
X4437628Y17357488D01*
X4438584Y17356538D01*
X4445837Y17323652D01*
X4453784Y17290897D01*
X4453371Y17289493D01*
X4453633Y17288308D01*
X4446231Y17253799D01*
X4442577Y17243918D01*
X4397287Y17165472D01*
X4368072Y17056439D01*
X808781Y17056439D01*
X815378Y17067866D01*
X844593Y17176899D01*
X844593Y17289777D01*
X815378Y17398810D01*
X758938Y17496566D01*
X679121Y17576383D01*
X630243Y17604603D01*
X581366Y17632823D01*
X526848Y17647431D01*
X472332Y17662038D01*
X359454Y17662038D01*
X250419Y17632823D01*
X152665Y17576383D01*
X152662Y17576381D01*
X72850Y17496569D01*
X72848Y17496566D01*
X16408Y17398812D01*
X-12807Y17289777D01*
X-12807Y17273439D01*
X-32492Y17206400D01*
X-85296Y17160645D01*
X-125273Y17151949D01*
X-125082Y17150500D01*
X-133142Y17149439D01*
X-242177Y17120224D01*
X-339931Y17063784D01*
X-339934Y17063782D01*
X-419746Y16983970D01*
X-419748Y16983967D01*
X-476188Y16886213D01*
X-501048Y16793432D01*
X-505403Y16777178D01*
X-2949500Y16777178D01*
X-2949500Y19876112D01*
X-2929815Y19943151D01*
X-2877011Y19988906D01*
X-2807853Y19998850D01*
X-2754588Y19975382D01*
G37*
%TD.AperFunction*%
%TD*%
%TA.AperFunction,Conductor*%
%TO.N,GND_USB*%
G36*
X3987030Y24230315D02*
G01*
X4027377Y24188002D01*
X4056955Y24136772D01*
X4136772Y24056955D01*
X4234528Y24000515D01*
X4343561Y23971300D01*
X4343563Y23971300D01*
X4456437Y23971300D01*
X4456439Y23971300D01*
X4565472Y24000515D01*
X4663228Y24056955D01*
X4663236Y24056964D01*
X4668917Y24061321D01*
X4734086Y24086518D01*
X4802531Y24072482D01*
X4806408Y24070335D01*
X4813357Y24066323D01*
X4813359Y24066321D01*
X4911115Y24009881D01*
X5020148Y23980666D01*
X5020150Y23980666D01*
X5133024Y23980666D01*
X5133026Y23980666D01*
X5242059Y24009881D01*
X5339815Y24066321D01*
X5419632Y24146138D01*
X5443801Y24188001D01*
X5494368Y24236216D01*
X5551188Y24250000D01*
X10876000Y24250000D01*
X10943039Y24230315D01*
X10988794Y24177511D01*
X11000000Y24126000D01*
X11000000Y19649529D01*
X10980315Y19582490D01*
X10938003Y19542143D01*
X10921507Y19532619D01*
X10921504Y19532617D01*
X10425207Y19036319D01*
X10363884Y19002834D01*
X10337526Y19000000D01*
X9132847Y19000000D01*
X9065808Y19019685D01*
X9029341Y19059253D01*
X9028159Y19058440D01*
X9024218Y19064178D01*
X9024216Y19064180D01*
X9024216Y19064181D01*
X8978461Y19116985D01*
X8978452Y19116994D01*
X8978445Y19117002D01*
X8960598Y19135216D01*
X8960591Y19135222D01*
X8882862Y19178700D01*
X8879535Y19180561D01*
X8841764Y19191652D01*
X8812497Y19200246D01*
X8812489Y19200248D01*
X8753698Y19208700D01*
X8753697Y19208700D01*
X8438435Y19208700D01*
X8438431Y19208700D01*
X8426044Y19208332D01*
X8426030Y19208332D01*
X8426024Y19208331D01*
X8416955Y19207791D01*
X8411301Y19207454D01*
X8411296Y19207453D01*
X8341561Y19190974D01*
X8277333Y19163471D01*
X8254520Y19152004D01*
X8254517Y19152002D01*
X8247755Y19145684D01*
X8185328Y19114305D01*
X8115846Y19121658D01*
X8101108Y19128911D01*
X8065475Y19149484D01*
X8065472Y19149485D01*
X7956439Y19178700D01*
X7843561Y19178700D01*
X7734525Y19149485D01*
X7700897Y19130069D01*
X7632996Y19113598D01*
X7577312Y19132871D01*
X7576204Y19130889D01*
X7517955Y19163471D01*
X7487403Y19180561D01*
X7449632Y19191652D01*
X7420365Y19200246D01*
X7420357Y19200248D01*
X7361566Y19208700D01*
X7361565Y19208700D01*
X7314335Y19208700D01*
X7247296Y19228385D01*
X7201541Y19281189D01*
X7191597Y19350347D01*
X7220622Y19413903D01*
X7226654Y19420381D01*
X7293045Y19486772D01*
X7349485Y19584528D01*
X7378700Y19693561D01*
X7378700Y19806439D01*
X7349485Y19915472D01*
X7293045Y20013228D01*
X7213228Y20093045D01*
X7164350Y20121265D01*
X7115473Y20149485D01*
X7029813Y20172437D01*
X7006439Y20178700D01*
X6893561Y20178700D01*
X6784526Y20149485D01*
X6686772Y20093045D01*
X6686769Y20093043D01*
X6606957Y20013231D01*
X6606955Y20013228D01*
X6550515Y19915474D01*
X6521300Y19806439D01*
X6521300Y19693562D01*
X6550515Y19584527D01*
X6561501Y19565500D01*
X6606955Y19486772D01*
X6606957Y19486770D01*
X6673346Y19420381D01*
X6706831Y19359058D01*
X6701847Y19289366D01*
X6659975Y19233433D01*
X6594511Y19209016D01*
X6585665Y19208700D01*
X3883280Y19208700D01*
X3867720Y19207681D01*
X3856044Y19206916D01*
X3856043Y19206916D01*
X3849928Y19206111D01*
X3849554Y19206061D01*
X3849546Y19206060D01*
X3833365Y19205000D01*
X3766636Y19205000D01*
X3750455Y19206060D01*
X3750447Y19206061D01*
X3750072Y19206111D01*
X3743958Y19206916D01*
X3732037Y19207697D01*
X3716720Y19208700D01*
X3166957Y19208700D01*
X3166956Y19208700D01*
X3146911Y19206061D01*
X3130726Y19205000D01*
X3069274Y19205000D01*
X3053089Y19206061D01*
X3033044Y19208700D01*
X3033043Y19208700D01*
X2483280Y19208700D01*
X2467720Y19207681D01*
X2456044Y19206916D01*
X2456043Y19206916D01*
X2449928Y19206111D01*
X2449554Y19206061D01*
X2449546Y19206060D01*
X2433365Y19205000D01*
X2366636Y19205000D01*
X2350455Y19206060D01*
X2350447Y19206061D01*
X2350072Y19206111D01*
X2343958Y19206916D01*
X2332037Y19207697D01*
X2316720Y19208700D01*
X2243306Y19208700D01*
X2237482Y19208458D01*
X2169682Y19225334D01*
X2124933Y19270351D01*
X2123095Y19273534D01*
X2123095Y19273536D01*
X2060495Y19381964D01*
X2036319Y19406140D01*
X2002834Y19467463D01*
X2000000Y19493821D01*
X2000000Y19692300D01*
X2019685Y19759339D01*
X2072489Y19805094D01*
X2124000Y19816300D01*
X2799310Y19816300D01*
X2799311Y19816301D01*
X2935262Y19843343D01*
X3024922Y19880481D01*
X3063323Y19896387D01*
X3063324Y19896388D01*
X3063327Y19896389D01*
X3178583Y19973400D01*
X3276600Y20071417D01*
X3353611Y20186673D01*
X3355118Y20190310D01*
X3406655Y20314734D01*
X3406657Y20314738D01*
X3433700Y20450692D01*
X3433700Y20589308D01*
X3433700Y20589311D01*
X3433699Y20589313D01*
X3406658Y20725255D01*
X3406657Y20725262D01*
X3362340Y20832254D01*
X3353613Y20853324D01*
X3276598Y20968586D01*
X3178585Y21066599D01*
X3063323Y21143614D01*
X2935266Y21196656D01*
X2935254Y21196659D01*
X2799311Y21223700D01*
X2799308Y21223700D01*
X2124000Y21223700D01*
X2056961Y21243385D01*
X2011206Y21296189D01*
X2000000Y21347700D01*
X2000000Y21500000D01*
X374000Y21500000D01*
X306961Y21519685D01*
X261206Y21572489D01*
X250000Y21624000D01*
X250000Y24126000D01*
X269685Y24193039D01*
X322489Y24238794D01*
X374000Y24250000D01*
X3919991Y24250000D01*
X3987030Y24230315D01*
G37*
%TD.AperFunction*%
%TD*%
%TA.AperFunction,Conductor*%
%TO.N,/Project Architecture/USB-PD Source Controller/PD_OUT*%
G36*
X27310616Y17730315D02*
G01*
X27356371Y17677511D01*
X27366315Y17608353D01*
X27363351Y17593907D01*
X27344651Y17524114D01*
X27344651Y17404652D01*
X27375570Y17289261D01*
X27435301Y17185805D01*
X27519773Y17101333D01*
X27623229Y17041602D01*
X27738620Y17010683D01*
X27738622Y17010683D01*
X27858079Y17010683D01*
X27858082Y17010683D01*
X27973473Y17041602D01*
X28076929Y17101333D01*
X28161401Y17185805D01*
X28221132Y17289261D01*
X28252051Y17404652D01*
X28252051Y17524114D01*
X28233350Y17593907D01*
X28235013Y17663757D01*
X28274176Y17721619D01*
X28338404Y17749123D01*
X28353125Y17750000D01*
X29640593Y17750000D01*
X29702592Y17733388D01*
X29799878Y17677219D01*
X29915269Y17646300D01*
X29915271Y17646300D01*
X30034728Y17646300D01*
X30034731Y17646300D01*
X30150122Y17677219D01*
X30247407Y17733388D01*
X30262895Y17737538D01*
X30274472Y17744977D01*
X30309407Y17750000D01*
X30440593Y17750000D01*
X30502592Y17733388D01*
X30599878Y17677219D01*
X30715269Y17646300D01*
X30715271Y17646300D01*
X30834728Y17646300D01*
X30834731Y17646300D01*
X30950122Y17677219D01*
X31047407Y17733388D01*
X31062895Y17737538D01*
X31074472Y17744977D01*
X31109407Y17750000D01*
X31240593Y17750000D01*
X31302592Y17733388D01*
X31399878Y17677219D01*
X31515269Y17646300D01*
X31515271Y17646300D01*
X31634728Y17646300D01*
X31634731Y17646300D01*
X31750122Y17677219D01*
X31839000Y17728534D01*
X31906898Y17745007D01*
X31972926Y17722155D01*
X32016117Y17667235D01*
X32025000Y17621147D01*
X32025000Y17266107D01*
X32008387Y17204107D01*
X31977220Y17150126D01*
X31977219Y17150122D01*
X31946300Y17034731D01*
X31946300Y16915269D01*
X31966396Y16840269D01*
X31977220Y16799874D01*
X31977221Y16799873D01*
X32008386Y16745895D01*
X32012536Y16730408D01*
X32019977Y16718829D01*
X32025000Y16683894D01*
X32025000Y16624000D01*
X32005315Y16556961D01*
X31952511Y16511206D01*
X31901000Y16500000D01*
X29000000Y16500000D01*
X29000000Y14492991D01*
X28991355Y14463551D01*
X28984832Y14433564D01*
X28981077Y14428549D01*
X28980315Y14425952D01*
X28963681Y14405310D01*
X28848390Y14290019D01*
X28787067Y14256534D01*
X28760709Y14253700D01*
X25140269Y14253700D01*
X25024878Y14222781D01*
X25024876Y14222781D01*
X25024872Y14222779D01*
X24987009Y14200919D01*
X24921428Y14163056D01*
X24921419Y14163049D01*
X24794690Y14036319D01*
X24733367Y14002834D01*
X24707009Y14000000D01*
X23899999Y14000000D01*
X23400000Y13500001D01*
X23400000Y9827700D01*
X23380315Y9760661D01*
X23327511Y9714906D01*
X23276000Y9703700D01*
X23059731Y9703700D01*
X18240269Y9703700D01*
X18124878Y9672781D01*
X18105253Y9661450D01*
X18097469Y9656956D01*
X18097467Y9656956D01*
X18021428Y9613056D01*
X18021420Y9613050D01*
X17294690Y8886319D01*
X17233367Y8852834D01*
X17207009Y8850000D01*
X14642991Y8850000D01*
X14575952Y8869685D01*
X14555310Y8886319D01*
X13385190Y10056439D01*
X15571300Y10056439D01*
X15571300Y9943562D01*
X15600515Y9834527D01*
X15623812Y9794177D01*
X15656955Y9736772D01*
X15736772Y9656955D01*
X15834528Y9600515D01*
X15943561Y9571300D01*
X15943563Y9571300D01*
X16056437Y9571300D01*
X16056439Y9571300D01*
X16165472Y9600515D01*
X16263228Y9656955D01*
X16343045Y9736772D01*
X16399485Y9834528D01*
X16428700Y9943561D01*
X16428700Y10056439D01*
X16399485Y10165472D01*
X16343045Y10263228D01*
X16263228Y10343045D01*
X16214350Y10371265D01*
X16165473Y10399485D01*
X16110955Y10414093D01*
X16056439Y10428700D01*
X15943561Y10428700D01*
X15834526Y10399485D01*
X15736772Y10343045D01*
X15736769Y10343043D01*
X15656957Y10263231D01*
X15656955Y10263228D01*
X15600515Y10165474D01*
X15571300Y10056439D01*
X13385190Y10056439D01*
X12940019Y10501610D01*
X12906534Y10562933D01*
X12903700Y10589291D01*
X12903700Y12510709D01*
X12923385Y12577748D01*
X12940019Y12598390D01*
X14184619Y13842990D01*
X14245942Y13876475D01*
X14315634Y13871491D01*
X14371567Y13829619D01*
X14395984Y13764155D01*
X14396300Y13755309D01*
X14396300Y13753148D01*
X14396300Y13646852D01*
X14423811Y13544177D01*
X14476959Y13452122D01*
X14552122Y13376959D01*
X14644177Y13323811D01*
X14746852Y13296300D01*
X14746854Y13296300D01*
X14853146Y13296300D01*
X14853148Y13296300D01*
X14955823Y13323811D01*
X15047878Y13376959D01*
X15123041Y13452122D01*
X15176189Y13544177D01*
X15203700Y13646852D01*
X15203700Y13753148D01*
X15176189Y13855823D01*
X15123041Y13947878D01*
X15047878Y14023041D01*
X14955823Y14076189D01*
X14853148Y14103700D01*
X14746852Y14103700D01*
X14744691Y14103700D01*
X14677652Y14123385D01*
X14631897Y14176189D01*
X14621953Y14245347D01*
X14650978Y14308903D01*
X14657010Y14315381D01*
X14746939Y14405310D01*
X14863051Y14521422D01*
X14909976Y14602700D01*
X14922781Y14624878D01*
X14953700Y14740269D01*
X14953700Y15070363D01*
X14962468Y15100224D01*
X14969308Y15130588D01*
X14972691Y15135039D01*
X14973385Y15137402D01*
X14990659Y15158680D01*
X15061156Y15228148D01*
X18396300Y15228148D01*
X18396300Y15121852D01*
X18423811Y15019177D01*
X18476959Y14927122D01*
X18552122Y14851959D01*
X18644177Y14798811D01*
X18746852Y14771300D01*
X18746854Y14771300D01*
X18853146Y14771300D01*
X18853148Y14771300D01*
X18955823Y14798811D01*
X19047878Y14851959D01*
X19123041Y14927122D01*
X19176189Y15019177D01*
X19203700Y15121852D01*
X19203700Y15228148D01*
X19176189Y15330823D01*
X19123041Y15422878D01*
X19047878Y15498041D01*
X18955823Y15551189D01*
X18853148Y15578700D01*
X18746852Y15578700D01*
X18644177Y15551189D01*
X18644175Y15551188D01*
X18644174Y15551188D01*
X18552125Y15498043D01*
X18552119Y15498039D01*
X18476961Y15422881D01*
X18476957Y15422875D01*
X18423812Y15330826D01*
X18423812Y15330825D01*
X18423811Y15330823D01*
X18396300Y15228148D01*
X15061156Y15228148D01*
X16188796Y16339325D01*
X16250363Y16372357D01*
X16275829Y16375000D01*
X24724999Y16375000D01*
X24725000Y16375000D01*
X24851181Y16520595D01*
X24909960Y16558361D01*
X24979829Y16558355D01*
X25014287Y16540848D01*
X25014384Y16541014D01*
X25017489Y16539221D01*
X25020369Y16537758D01*
X25021419Y16536953D01*
X25021422Y16536950D01*
X25124878Y16477219D01*
X25240269Y16446300D01*
X25240271Y16446300D01*
X25359728Y16446300D01*
X25359731Y16446300D01*
X25475122Y16477219D01*
X25578578Y16536950D01*
X25663050Y16621422D01*
X25704276Y16692828D01*
X25754843Y16741043D01*
X25823450Y16754265D01*
X25888315Y16728297D01*
X25922844Y16682738D01*
X25923155Y16682917D01*
X25924583Y16680444D01*
X25926225Y16678277D01*
X25927217Y16675881D01*
X25937681Y16657757D01*
X25986950Y16572422D01*
X26071422Y16487950D01*
X26174878Y16428219D01*
X26290269Y16397300D01*
X26290271Y16397300D01*
X26409728Y16397300D01*
X26409731Y16397300D01*
X26525122Y16428219D01*
X26628578Y16487950D01*
X26713050Y16572422D01*
X26772781Y16675878D01*
X26803700Y16791269D01*
X26803700Y16910731D01*
X26772781Y17026122D01*
X26713050Y17129578D01*
X26628578Y17214050D01*
X26525122Y17273781D01*
X26409731Y17304700D01*
X26404062Y17304700D01*
X26337023Y17324385D01*
X26291268Y17377189D01*
X26281324Y17446347D01*
X26310349Y17509903D01*
X26316381Y17516381D01*
X26513681Y17713681D01*
X26575004Y17747166D01*
X26601362Y17750000D01*
X27243577Y17750000D01*
X27310616Y17730315D01*
G37*
%TD.AperFunction*%
%TD*%
%TA.AperFunction,Conductor*%
%TO.N,+24V*%
G36*
X33237650Y14680315D02*
G01*
X33258292Y14663681D01*
X33273568Y14648405D01*
X33365623Y14595257D01*
X33468298Y14567746D01*
X33468300Y14567746D01*
X33574592Y14567746D01*
X33574594Y14567746D01*
X33677269Y14595257D01*
X33769324Y14648405D01*
X33784600Y14663681D01*
X33811527Y14678385D01*
X33837346Y14694977D01*
X33843546Y14695869D01*
X33845923Y14697166D01*
X33872281Y14700000D01*
X33880002Y14700000D01*
X33945017Y14680910D01*
X33945083Y14681023D01*
X33945551Y14680753D01*
X33947041Y14680315D01*
X33950402Y14677952D01*
X33952122Y14676959D01*
X34044177Y14623811D01*
X34146852Y14596300D01*
X34146854Y14596300D01*
X34253146Y14596300D01*
X34253148Y14596300D01*
X34355823Y14623811D01*
X34355832Y14623817D01*
X34363336Y14626923D01*
X34363887Y14625593D01*
X34423200Y14639982D01*
X34489227Y14617129D01*
X34532418Y14562208D01*
X34541300Y14516122D01*
X34541300Y8824738D01*
X34546177Y8779892D01*
X34546180Y8779869D01*
X34557629Y8727852D01*
X34560326Y8716992D01*
X34571405Y8696445D01*
X34585895Y8628094D01*
X34561132Y8562760D01*
X34549941Y8549914D01*
X34140489Y8140460D01*
X34140488Y8140459D01*
X34084272Y8084244D01*
X34022949Y8050760D01*
X33953257Y8055745D01*
X33921109Y8073548D01*
X33919336Y8074908D01*
X33919329Y8074912D01*
X33827278Y8128058D01*
X33724603Y8155569D01*
X33618307Y8155569D01*
X33515632Y8128058D01*
X33515630Y8128057D01*
X33515629Y8128057D01*
X33423580Y8074912D01*
X33423574Y8074908D01*
X33348416Y7999750D01*
X33348412Y7999744D01*
X33295267Y7907695D01*
X33295267Y7907694D01*
X33295266Y7907692D01*
X33291229Y7892626D01*
X33254865Y7832966D01*
X33192018Y7802437D01*
X33122643Y7810732D01*
X33068765Y7855217D01*
X33051681Y7892625D01*
X33047644Y7907692D01*
X32994496Y7999747D01*
X32919333Y8074910D01*
X32827278Y8128058D01*
X32724603Y8155569D01*
X32618307Y8155569D01*
X32515632Y8128058D01*
X32515630Y8128057D01*
X32515629Y8128057D01*
X32423580Y8074912D01*
X32423574Y8074908D01*
X32348416Y7999750D01*
X32348412Y7999744D01*
X32295267Y7907695D01*
X32295267Y7907694D01*
X32295266Y7907692D01*
X32291229Y7892626D01*
X32254865Y7832966D01*
X32192018Y7802437D01*
X32122643Y7810732D01*
X32068765Y7855217D01*
X32051681Y7892625D01*
X32047644Y7907692D01*
X31994496Y7999747D01*
X31919333Y8074910D01*
X31827278Y8128058D01*
X31724603Y8155569D01*
X31618307Y8155569D01*
X31515632Y8128058D01*
X31515630Y8128057D01*
X31515629Y8128057D01*
X31423580Y8074912D01*
X31423574Y8074908D01*
X31348416Y7999750D01*
X31348412Y7999744D01*
X31295267Y7907695D01*
X31295267Y7907694D01*
X31295266Y7907692D01*
X31291229Y7892626D01*
X31254865Y7832966D01*
X31192018Y7802437D01*
X31122643Y7810732D01*
X31068765Y7855217D01*
X31051681Y7892625D01*
X31047644Y7907692D01*
X30994496Y7999747D01*
X30919333Y8074910D01*
X30827278Y8128058D01*
X30724603Y8155569D01*
X30618307Y8155569D01*
X30515632Y8128058D01*
X30515630Y8128057D01*
X30515629Y8128057D01*
X30423580Y8074912D01*
X30423574Y8074908D01*
X30348416Y7999750D01*
X30348412Y7999744D01*
X30295267Y7907695D01*
X30295267Y7907694D01*
X30295266Y7907692D01*
X30267755Y7805017D01*
X30267755Y7698721D01*
X30295266Y7596046D01*
X30348414Y7503991D01*
X30348416Y7503989D01*
X30362855Y7489550D01*
X30396340Y7428227D01*
X30391356Y7358535D01*
X30362855Y7314188D01*
X30348416Y7299750D01*
X30348412Y7299744D01*
X30295267Y7207695D01*
X30295267Y7207694D01*
X30295266Y7207692D01*
X30267755Y7105017D01*
X30267755Y6998721D01*
X30295266Y6896046D01*
X30295267Y6896045D01*
X30295267Y6896044D01*
X30348413Y6803992D01*
X30349671Y6802353D01*
X30350301Y6800722D01*
X30352478Y6796952D01*
X30351890Y6796613D01*
X30374863Y6737183D01*
X30360823Y6668739D01*
X30349671Y6651385D01*
X30348413Y6649747D01*
X30295267Y6557695D01*
X30295267Y6557694D01*
X30295266Y6557692D01*
X30267755Y6455017D01*
X30267755Y6348721D01*
X30292574Y6256090D01*
X30290912Y6186244D01*
X30251750Y6128381D01*
X30187521Y6100877D01*
X30172800Y6100000D01*
X27549500Y6100000D01*
X27482461Y6119685D01*
X27436706Y6172489D01*
X27425500Y6224000D01*
X27425500Y7548423D01*
X27394709Y7742827D01*
X27333882Y7930030D01*
X27260061Y8074912D01*
X27244524Y8105405D01*
X27128828Y8264646D01*
X26989646Y8403828D01*
X26830405Y8519524D01*
X26655029Y8608883D01*
X26467826Y8669710D01*
X26273422Y8700500D01*
X26273417Y8700500D01*
X26222595Y8700500D01*
X26175000Y8700500D01*
X26076583Y8700500D01*
X26076578Y8700500D01*
X25882173Y8669710D01*
X25694970Y8608883D01*
X25519594Y8519524D01*
X25455460Y8472927D01*
X25360354Y8403828D01*
X25360352Y8403826D01*
X25360351Y8403826D01*
X25221174Y8264649D01*
X25221174Y8264648D01*
X25221172Y8264646D01*
X25214001Y8254776D01*
X25105476Y8105406D01*
X25016117Y7930030D01*
X24955290Y7742827D01*
X24924500Y7548423D01*
X24924500Y6224000D01*
X24904815Y6156961D01*
X24852011Y6111206D01*
X24800500Y6100000D01*
X24374000Y6100000D01*
X24306961Y6119685D01*
X24261206Y6172489D01*
X24250000Y6224000D01*
X24250000Y9157010D01*
X24269685Y9224049D01*
X24286319Y9244691D01*
X24351359Y9309731D01*
X24463050Y9421422D01*
X24494685Y9476215D01*
X24522781Y9524878D01*
X24544165Y9604685D01*
X24546804Y9611344D01*
X24564070Y9633461D01*
X24578673Y9657417D01*
X24585279Y9660627D01*
X24589800Y9666417D01*
X24616283Y9675688D01*
X24641519Y9687947D01*
X24648812Y9687076D01*
X24655746Y9689502D01*
X24683033Y9682984D01*
X24710895Y9679653D01*
X24723597Y9673295D01*
X24723704Y9673269D01*
X24723755Y9673216D01*
X24724080Y9673053D01*
X24744177Y9661450D01*
X24846852Y9633939D01*
X24846854Y9633939D01*
X24953146Y9633939D01*
X24953148Y9633939D01*
X25055823Y9661450D01*
X25147878Y9714598D01*
X25223041Y9789761D01*
X25276189Y9881816D01*
X25303700Y9984491D01*
X25303700Y10090787D01*
X25303699Y10090789D01*
X25302639Y10098843D01*
X25304706Y10099116D01*
X25306100Y10157861D01*
X25345257Y10215727D01*
X25362210Y10227499D01*
X25447878Y10276959D01*
X25523041Y10352122D01*
X25576189Y10444177D01*
X25603700Y10546852D01*
X25603700Y10653148D01*
X25576189Y10755823D01*
X25523041Y10847878D01*
X25447878Y10923041D01*
X25355823Y10976189D01*
X25253148Y11003700D01*
X25146852Y11003700D01*
X25044177Y10976189D01*
X25044175Y10976188D01*
X25044174Y10976188D01*
X24952125Y10923043D01*
X24952119Y10923039D01*
X24876961Y10847881D01*
X24876957Y10847875D01*
X24823812Y10755826D01*
X24823812Y10755825D01*
X24797475Y10657532D01*
X24761110Y10597871D01*
X24698263Y10567342D01*
X24628888Y10575637D01*
X24575010Y10620122D01*
X24553735Y10686674D01*
X24553700Y10689625D01*
X24553700Y12460709D01*
X24573385Y12527748D01*
X24590019Y12548390D01*
X24888483Y12846854D01*
X25216039Y13174411D01*
X25277360Y13207894D01*
X25347051Y13202910D01*
X25402985Y13161039D01*
X25427402Y13095574D01*
X25423493Y13054637D01*
X25396300Y12953148D01*
X25396300Y12846852D01*
X25423811Y12744177D01*
X25423812Y12744176D01*
X25423812Y12744175D01*
X25441527Y12713492D01*
X25476959Y12652122D01*
X25476961Y12652120D01*
X25491400Y12637681D01*
X25524885Y12576358D01*
X25519901Y12506666D01*
X25491400Y12462319D01*
X25476961Y12447881D01*
X25476957Y12447875D01*
X25423812Y12355826D01*
X25423812Y12355825D01*
X25423811Y12355823D01*
X25396300Y12253148D01*
X25396300Y12146852D01*
X25423811Y12044177D01*
X25476959Y11952122D01*
X25476961Y11952120D01*
X25491400Y11937681D01*
X25524885Y11876358D01*
X25519901Y11806666D01*
X25491400Y11762319D01*
X25476961Y11747881D01*
X25476957Y11747875D01*
X25423812Y11655826D01*
X25423812Y11655825D01*
X25423811Y11655823D01*
X25396300Y11553148D01*
X25396300Y11446852D01*
X25423811Y11344177D01*
X25476959Y11252122D01*
X25552122Y11176959D01*
X25644177Y11123811D01*
X25746852Y11096300D01*
X25746854Y11096300D01*
X25853146Y11096300D01*
X25853148Y11096300D01*
X25955823Y11123811D01*
X26047878Y11176959D01*
X26112319Y11241400D01*
X26173642Y11274885D01*
X26243334Y11269901D01*
X26287681Y11241400D01*
X26352122Y11176959D01*
X26444177Y11123811D01*
X26546852Y11096300D01*
X26546854Y11096300D01*
X26653146Y11096300D01*
X26653148Y11096300D01*
X26755823Y11123811D01*
X26847878Y11176959D01*
X26862319Y11191400D01*
X26923642Y11224885D01*
X26993334Y11219901D01*
X27037681Y11191400D01*
X27052122Y11176959D01*
X27144177Y11123811D01*
X27246852Y11096300D01*
X27246854Y11096300D01*
X27353146Y11096300D01*
X27353148Y11096300D01*
X27455823Y11123811D01*
X27547878Y11176959D01*
X27623041Y11252122D01*
X27676189Y11344177D01*
X27703700Y11446852D01*
X27703700Y11553148D01*
X27676189Y11655823D01*
X27623041Y11747878D01*
X27608600Y11762319D01*
X27575115Y11823642D01*
X27580099Y11893334D01*
X27608600Y11937681D01*
X27623041Y11952122D01*
X27676189Y12044177D01*
X27703700Y12146852D01*
X27703700Y12253148D01*
X27676189Y12355823D01*
X27623041Y12447878D01*
X27608600Y12462319D01*
X27575115Y12523642D01*
X27580099Y12593334D01*
X27608600Y12637681D01*
X27623041Y12652122D01*
X27676189Y12744177D01*
X27703700Y12846852D01*
X27703700Y12953148D01*
X27676189Y13055823D01*
X27623041Y13147878D01*
X27623040Y13147879D01*
X27618977Y13154917D01*
X27620406Y13155743D01*
X27598664Y13211976D01*
X27612698Y13280421D01*
X27661509Y13330414D01*
X27722233Y13346300D01*
X28077767Y13346300D01*
X28144806Y13326615D01*
X28190561Y13273811D01*
X28200505Y13204653D01*
X28179841Y13155599D01*
X28181023Y13154917D01*
X28123812Y13055826D01*
X28123812Y13055825D01*
X28123811Y13055823D01*
X28096300Y12953148D01*
X28096300Y12846852D01*
X28123811Y12744177D01*
X28123812Y12744176D01*
X28123812Y12744175D01*
X28141527Y12713492D01*
X28176959Y12652122D01*
X28176961Y12652120D01*
X28191400Y12637681D01*
X28224885Y12576358D01*
X28219901Y12506666D01*
X28191400Y12462319D01*
X28176961Y12447881D01*
X28176957Y12447875D01*
X28123812Y12355826D01*
X28123812Y12355825D01*
X28123811Y12355823D01*
X28096300Y12253148D01*
X28096300Y12146852D01*
X28123811Y12044177D01*
X28176959Y11952122D01*
X28252122Y11876959D01*
X28344177Y11823811D01*
X28446852Y11796300D01*
X28446854Y11796300D01*
X28553146Y11796300D01*
X28553148Y11796300D01*
X28655823Y11823811D01*
X28747878Y11876959D01*
X28762319Y11891400D01*
X28823642Y11924885D01*
X28893334Y11919901D01*
X28937681Y11891400D01*
X28952122Y11876959D01*
X29044177Y11823811D01*
X29146852Y11796300D01*
X29146854Y11796300D01*
X29253146Y11796300D01*
X29253148Y11796300D01*
X29355823Y11823811D01*
X29447878Y11876959D01*
X29523041Y11952122D01*
X29576189Y12044177D01*
X29603700Y12146852D01*
X29603700Y12253148D01*
X29576189Y12355823D01*
X29523041Y12447878D01*
X29508600Y12462319D01*
X29475115Y12523642D01*
X29480099Y12593334D01*
X29508600Y12637681D01*
X29523041Y12652122D01*
X29576189Y12744177D01*
X29603700Y12846852D01*
X29603700Y12953148D01*
X29576189Y13055823D01*
X29523041Y13147878D01*
X29447878Y13223041D01*
X29368944Y13268614D01*
X29320729Y13319180D01*
X29307506Y13387787D01*
X29333474Y13452652D01*
X29390389Y13493180D01*
X29430945Y13500000D01*
X29949999Y13500000D01*
X29950000Y13500000D01*
X30522057Y13929043D01*
X30587494Y13953517D01*
X30655780Y13938727D01*
X30684133Y13917522D01*
X30725696Y13875959D01*
X30817751Y13822811D01*
X30920426Y13795300D01*
X30920428Y13795300D01*
X31026720Y13795300D01*
X31026722Y13795300D01*
X31129397Y13822811D01*
X31213154Y13871169D01*
X31281053Y13887641D01*
X31337151Y13871169D01*
X31419177Y13823811D01*
X31521852Y13796300D01*
X31521854Y13796300D01*
X31628146Y13796300D01*
X31628148Y13796300D01*
X31730823Y13823811D01*
X31822878Y13876959D01*
X31898041Y13952122D01*
X31924773Y13998425D01*
X31975338Y14046638D01*
X32043944Y14059862D01*
X32064243Y14056199D01*
X32108540Y14044330D01*
X32108542Y14044330D01*
X32214834Y14044330D01*
X32214836Y14044330D01*
X32317511Y14071841D01*
X32409566Y14124989D01*
X32484729Y14200152D01*
X32537877Y14292207D01*
X32565388Y14394882D01*
X32565388Y14448133D01*
X32585073Y14515172D01*
X32625870Y14554629D01*
X32640659Y14563451D01*
X32683660Y14574972D01*
X32787116Y14634703D01*
X32827005Y14674593D01*
X32840257Y14682496D01*
X32859750Y14687520D01*
X32877417Y14697166D01*
X32903775Y14700000D01*
X33170611Y14700000D01*
X33237650Y14680315D01*
G37*
%TD.AperFunction*%
%TD*%
%TA.AperFunction,Conductor*%
%TO.N,+3.3V*%
G36*
X6850549Y29604815D02*
G01*
X6896304Y29552011D01*
X6906248Y29482853D01*
X6877223Y29419297D01*
X6871191Y29412819D01*
X6836952Y29378581D01*
X6836950Y29378578D01*
X6804887Y29323043D01*
X6777219Y29275122D01*
X6746300Y29159731D01*
X6746300Y29040269D01*
X6777219Y28924878D01*
X6836950Y28821422D01*
X6836951Y28821421D01*
X6841014Y28814384D01*
X6838653Y28813022D01*
X6859027Y28760300D01*
X6844978Y28691857D01*
X6840980Y28685636D01*
X6841014Y28685616D01*
X6836951Y28678580D01*
X6836950Y28678578D01*
X6777219Y28575122D01*
X6746300Y28459731D01*
X6746300Y28340269D01*
X6777219Y28224878D01*
X6836950Y28121422D01*
X6921422Y28036950D01*
X7024878Y27977219D01*
X7140269Y27946300D01*
X7140271Y27946300D01*
X7259728Y27946300D01*
X7259731Y27946300D01*
X7375122Y27977219D01*
X7478578Y28036950D01*
X7512319Y28070691D01*
X7573642Y28104176D01*
X7643334Y28099192D01*
X7687681Y28070691D01*
X7721422Y28036950D01*
X7824878Y27977219D01*
X7940269Y27946300D01*
X7940271Y27946300D01*
X8059728Y27946300D01*
X8059731Y27946300D01*
X8175122Y27977219D01*
X8278578Y28036950D01*
X8312319Y28070691D01*
X8373642Y28104176D01*
X8443334Y28099192D01*
X8487681Y28070691D01*
X8521422Y28036950D01*
X8624878Y27977219D01*
X8740269Y27946300D01*
X8740271Y27946300D01*
X8859728Y27946300D01*
X8859731Y27946300D01*
X8975122Y27977219D01*
X9078578Y28036950D01*
X9112319Y28070691D01*
X9173642Y28104176D01*
X9243334Y28099192D01*
X9287681Y28070691D01*
X9321422Y28036950D01*
X9424878Y27977219D01*
X9540269Y27946300D01*
X9540271Y27946300D01*
X9659728Y27946300D01*
X9659731Y27946300D01*
X9775122Y27977219D01*
X9878578Y28036950D01*
X9912319Y28070691D01*
X9973642Y28104176D01*
X10043334Y28099192D01*
X10087681Y28070691D01*
X10121422Y28036950D01*
X10224878Y27977219D01*
X10340269Y27946300D01*
X10340271Y27946300D01*
X10459728Y27946300D01*
X10459731Y27946300D01*
X10575122Y27977219D01*
X10678578Y28036950D01*
X10763050Y28121422D01*
X10822781Y28224878D01*
X10853700Y28340269D01*
X10853700Y28459731D01*
X10822781Y28575122D01*
X10763050Y28678578D01*
X10763048Y28678580D01*
X10758986Y28685616D01*
X10761350Y28686982D01*
X10740975Y28739668D01*
X10755005Y28808114D01*
X10759021Y28814364D01*
X10758986Y28814384D01*
X10763048Y28821421D01*
X10763050Y28821422D01*
X10822781Y28924878D01*
X10853700Y29040269D01*
X10853700Y29159731D01*
X10822781Y29275122D01*
X10763050Y29378578D01*
X10728809Y29412819D01*
X10695324Y29474142D01*
X10700308Y29543834D01*
X10742180Y29599767D01*
X10807644Y29624184D01*
X10816490Y29624500D01*
X13029015Y29624500D01*
X13096054Y29604815D01*
X13141809Y29552011D01*
X13151753Y29482853D01*
X13122728Y29419297D01*
X13063950Y29381523D01*
X13061149Y29380737D01*
X13044177Y29376189D01*
X13044175Y29376188D01*
X13044174Y29376188D01*
X12952125Y29323043D01*
X12952119Y29323039D01*
X12876961Y29247881D01*
X12876957Y29247875D01*
X12823812Y29155826D01*
X12823812Y29155825D01*
X12823811Y29155823D01*
X12796300Y29053148D01*
X12796300Y28946852D01*
X12823811Y28844177D01*
X12876959Y28752122D01*
X12952122Y28676959D01*
X13044177Y28623811D01*
X13146852Y28596300D01*
X13146854Y28596300D01*
X13253146Y28596300D01*
X13253148Y28596300D01*
X13355823Y28623811D01*
X13447878Y28676959D01*
X13523041Y28752122D01*
X13576189Y28844177D01*
X13603700Y28946852D01*
X13603700Y29053148D01*
X13576189Y29155823D01*
X13523041Y29247878D01*
X13447878Y29323041D01*
X13355823Y29376189D01*
X13338890Y29380726D01*
X13279231Y29417090D01*
X13248702Y29479937D01*
X13256997Y29549312D01*
X13301482Y29603190D01*
X13368034Y29624465D01*
X13370985Y29624500D01*
X18729015Y29624500D01*
X18796054Y29604815D01*
X18841809Y29552011D01*
X18851753Y29482853D01*
X18822728Y29419297D01*
X18763950Y29381523D01*
X18761149Y29380737D01*
X18744177Y29376189D01*
X18744175Y29376188D01*
X18744174Y29376188D01*
X18652125Y29323043D01*
X18652119Y29323039D01*
X18576961Y29247881D01*
X18576957Y29247875D01*
X18523812Y29155826D01*
X18523812Y29155825D01*
X18523811Y29155823D01*
X18496300Y29053148D01*
X18496300Y28946852D01*
X18523811Y28844177D01*
X18576959Y28752122D01*
X18652122Y28676959D01*
X18744177Y28623811D01*
X18846852Y28596300D01*
X18846854Y28596300D01*
X18953146Y28596300D01*
X18953148Y28596300D01*
X19055823Y28623811D01*
X19147878Y28676959D01*
X19223041Y28752122D01*
X19276189Y28844177D01*
X19303700Y28946852D01*
X19303700Y29053148D01*
X19276189Y29155823D01*
X19223041Y29247878D01*
X19147878Y29323041D01*
X19055823Y29376189D01*
X19038890Y29380726D01*
X18979231Y29417090D01*
X18948702Y29479937D01*
X18956997Y29549312D01*
X19001482Y29603190D01*
X19068034Y29624465D01*
X19070985Y29624500D01*
X23417300Y29624500D01*
X23484339Y29604815D01*
X23530094Y29552011D01*
X23541300Y29500500D01*
X23541300Y20373993D01*
X23546069Y20329638D01*
X23557151Y20278700D01*
X23557276Y20278125D01*
X23559802Y20267788D01*
X23603481Y20185819D01*
X23649236Y20133015D01*
X23649244Y20133007D01*
X23649252Y20132998D01*
X23658315Y20123748D01*
X23691171Y20062086D01*
X23685475Y19992449D01*
X23677321Y19975369D01*
X23677219Y19975124D01*
X23677219Y19975122D01*
X23646300Y19859731D01*
X23646300Y19740269D01*
X23662423Y19680099D01*
X23677220Y19624874D01*
X23677221Y19624873D01*
X23733386Y19527595D01*
X23750000Y19465594D01*
X23750000Y18411756D01*
X23744651Y18391793D01*
X23744651Y18272331D01*
X23750000Y18252369D01*
X23750000Y17234407D01*
X23733387Y17172408D01*
X23729128Y17165030D01*
X23679634Y17079304D01*
X23677219Y17075122D01*
X23646300Y16959731D01*
X23646300Y16840269D01*
X23673223Y16739793D01*
X23671560Y16669944D01*
X23632398Y16612081D01*
X23568169Y16584577D01*
X23553448Y16583700D01*
X23208186Y16583700D01*
X23141147Y16603385D01*
X23095392Y16656189D01*
X23085448Y16725347D01*
X23088411Y16739793D01*
X23103700Y16796852D01*
X23103700Y16903148D01*
X23076189Y17005823D01*
X23023041Y17097878D01*
X22947878Y17173041D01*
X22855823Y17226189D01*
X22753148Y17253700D01*
X22646852Y17253700D01*
X22544177Y17226189D01*
X22544175Y17226188D01*
X22544174Y17226188D01*
X22452125Y17173043D01*
X22452119Y17173039D01*
X22376961Y17097881D01*
X22376957Y17097875D01*
X22323812Y17005826D01*
X22323812Y17005825D01*
X22323811Y17005823D01*
X22296300Y16903148D01*
X22296300Y16796852D01*
X22311588Y16739794D01*
X22311589Y16739793D01*
X22309926Y16669943D01*
X22270763Y16612081D01*
X22206535Y16584577D01*
X22191814Y16583700D01*
X19510259Y16583700D01*
X19443220Y16603385D01*
X19397465Y16656189D01*
X19387521Y16725347D01*
X19410113Y16778982D01*
X19410031Y16779029D01*
X19410409Y16779685D01*
X19411886Y16783190D01*
X19414089Y16786063D01*
X19414095Y16786068D01*
X19467243Y16878123D01*
X19494754Y16980798D01*
X19494754Y17087094D01*
X19467243Y17189769D01*
X19414095Y17281824D01*
X19338932Y17356987D01*
X19246877Y17410135D01*
X19144202Y17437646D01*
X19037906Y17437646D01*
X18935231Y17410135D01*
X18935229Y17410134D01*
X18935228Y17410134D01*
X18843179Y17356989D01*
X18843173Y17356985D01*
X18768015Y17281827D01*
X18768011Y17281821D01*
X18714866Y17189772D01*
X18714866Y17189771D01*
X18714865Y17189769D01*
X18687354Y17087094D01*
X18687354Y16980798D01*
X18714865Y16878123D01*
X18714866Y16878122D01*
X18714866Y16878121D01*
X18768011Y16786071D01*
X18770222Y16783190D01*
X18771331Y16780320D01*
X18772077Y16779029D01*
X18771875Y16778913D01*
X18795419Y16718022D01*
X18781383Y16649577D01*
X18732571Y16599585D01*
X18671849Y16583700D01*
X16351070Y16583700D01*
X16284031Y16603385D01*
X16238276Y16656189D01*
X16228332Y16725347D01*
X16246553Y16768596D01*
X16243977Y16770083D01*
X16249075Y16778913D01*
X16301189Y16869177D01*
X16328700Y16971852D01*
X16328700Y17078148D01*
X16301189Y17180823D01*
X16248041Y17272878D01*
X16172878Y17348041D01*
X16080823Y17401189D01*
X15978148Y17428700D01*
X15871852Y17428700D01*
X15769177Y17401189D01*
X15769175Y17401188D01*
X15769174Y17401188D01*
X15677125Y17348043D01*
X15677119Y17348039D01*
X15601961Y17272881D01*
X15601957Y17272875D01*
X15548812Y17180826D01*
X15548812Y17180825D01*
X15548811Y17180823D01*
X15521300Y17078148D01*
X15521300Y16971852D01*
X15548811Y16869177D01*
X15601959Y16777122D01*
X15677122Y16701959D01*
X15769177Y16648811D01*
X15871852Y16621300D01*
X15871854Y16621300D01*
X15875104Y16621300D01*
X15877746Y16620525D01*
X15879912Y16620239D01*
X15879867Y16619902D01*
X15942143Y16601615D01*
X15987898Y16548811D01*
X15997842Y16479653D01*
X15968817Y16416097D01*
X15962138Y16408976D01*
X15164734Y15623214D01*
X15103166Y15590181D01*
X15033513Y15595678D01*
X14977889Y15637960D01*
X14953954Y15703602D01*
X14953700Y15711538D01*
X14953700Y19253148D01*
X20596300Y19253148D01*
X20596300Y19146852D01*
X20623811Y19044177D01*
X20676959Y18952122D01*
X20752122Y18876959D01*
X20844177Y18823811D01*
X20946852Y18796300D01*
X20946854Y18796300D01*
X21053146Y18796300D01*
X21053148Y18796300D01*
X21155823Y18823811D01*
X21247878Y18876959D01*
X21323041Y18952122D01*
X21376189Y19044177D01*
X21403700Y19146852D01*
X21403700Y19253148D01*
X21376189Y19355823D01*
X21323041Y19447878D01*
X21247878Y19523041D01*
X21155823Y19576189D01*
X21053148Y19603700D01*
X20946852Y19603700D01*
X20844177Y19576189D01*
X20844175Y19576188D01*
X20844174Y19576188D01*
X20752125Y19523043D01*
X20752119Y19523039D01*
X20676961Y19447881D01*
X20676957Y19447875D01*
X20623812Y19355826D01*
X20623812Y19355825D01*
X20623811Y19355823D01*
X20596300Y19253148D01*
X14953700Y19253148D01*
X14953700Y19928148D01*
X15858800Y19928148D01*
X15858800Y19821852D01*
X15886311Y19719177D01*
X15939459Y19627122D01*
X16014622Y19551959D01*
X16106677Y19498811D01*
X16209352Y19471300D01*
X16209354Y19471300D01*
X16315646Y19471300D01*
X16315648Y19471300D01*
X16418323Y19498811D01*
X16510378Y19551959D01*
X16585541Y19627122D01*
X16638689Y19719177D01*
X16666200Y19821852D01*
X16666200Y19928148D01*
X16638689Y20030823D01*
X16585541Y20122878D01*
X16510378Y20198041D01*
X16425833Y20246853D01*
X16418325Y20251188D01*
X16418324Y20251189D01*
X16418323Y20251189D01*
X16315648Y20278700D01*
X16209352Y20278700D01*
X16209350Y20278700D01*
X16176255Y20269833D01*
X16176249Y20269831D01*
X16106677Y20251189D01*
X16014622Y20198041D01*
X16002478Y20185898D01*
X16002477Y20185897D01*
X15939458Y20122877D01*
X15939457Y20122875D01*
X15886312Y20030826D01*
X15886312Y20030825D01*
X15886311Y20030823D01*
X15858800Y19928148D01*
X14953700Y19928148D01*
X14953700Y20853148D01*
X15396300Y20853148D01*
X15396300Y20746852D01*
X15423811Y20644177D01*
X15476959Y20552122D01*
X15552122Y20476959D01*
X15644177Y20423811D01*
X15746852Y20396300D01*
X15746854Y20396300D01*
X15853146Y20396300D01*
X15853148Y20396300D01*
X15955823Y20423811D01*
X16047878Y20476959D01*
X16123041Y20552122D01*
X16176189Y20644177D01*
X16203700Y20746852D01*
X16203700Y20853148D01*
X20496300Y20853148D01*
X20496300Y20746852D01*
X20523811Y20644177D01*
X20576959Y20552122D01*
X20652122Y20476959D01*
X20744177Y20423811D01*
X20846852Y20396300D01*
X20846854Y20396300D01*
X20953146Y20396300D01*
X20953148Y20396300D01*
X21055823Y20423811D01*
X21147878Y20476959D01*
X21223041Y20552122D01*
X21267628Y20629350D01*
X21318194Y20677565D01*
X21386801Y20690789D01*
X21451666Y20664821D01*
X21482402Y20629350D01*
X21483708Y20627087D01*
X21483709Y20627086D01*
X21536857Y20535031D01*
X21612020Y20459868D01*
X21704075Y20406720D01*
X21806750Y20379209D01*
X21806752Y20379209D01*
X21913044Y20379209D01*
X21913046Y20379209D01*
X22015721Y20406720D01*
X22107776Y20459868D01*
X22182939Y20535031D01*
X22236087Y20627086D01*
X22263598Y20729761D01*
X22263598Y20836057D01*
X22259019Y20853148D01*
X22496300Y20853148D01*
X22496300Y20746852D01*
X22523811Y20644177D01*
X22576959Y20552122D01*
X22652122Y20476959D01*
X22744177Y20423811D01*
X22846852Y20396300D01*
X22846854Y20396300D01*
X22953146Y20396300D01*
X22953148Y20396300D01*
X23055823Y20423811D01*
X23147878Y20476959D01*
X23223041Y20552122D01*
X23276189Y20644177D01*
X23303700Y20746852D01*
X23303700Y20853148D01*
X23276189Y20955823D01*
X23223041Y21047878D01*
X23147878Y21123041D01*
X23055823Y21176189D01*
X22953148Y21203700D01*
X22846852Y21203700D01*
X22744177Y21176189D01*
X22744175Y21176188D01*
X22744174Y21176188D01*
X22652125Y21123043D01*
X22652119Y21123039D01*
X22576961Y21047881D01*
X22576957Y21047875D01*
X22523812Y20955826D01*
X22523812Y20955825D01*
X22523811Y20955823D01*
X22519232Y20938732D01*
X22502040Y20874573D01*
X22502040Y20874571D01*
X22496300Y20853148D01*
X22259019Y20853148D01*
X22236087Y20938732D01*
X22182939Y21030787D01*
X22107776Y21105950D01*
X22015721Y21159098D01*
X21913046Y21186609D01*
X21806750Y21186609D01*
X21704075Y21159098D01*
X21704073Y21159097D01*
X21704072Y21159097D01*
X21612023Y21105952D01*
X21612017Y21105948D01*
X21536859Y21030790D01*
X21536857Y21030787D01*
X21492269Y20953559D01*
X21441701Y20905344D01*
X21373094Y20892122D01*
X21308229Y20918090D01*
X21277495Y20953560D01*
X21276189Y20955822D01*
X21276189Y20955823D01*
X21223041Y21047878D01*
X21147878Y21123041D01*
X21055823Y21176189D01*
X20953148Y21203700D01*
X20846852Y21203700D01*
X20744177Y21176189D01*
X20744175Y21176188D01*
X20744174Y21176188D01*
X20652125Y21123043D01*
X20652119Y21123039D01*
X20576961Y21047881D01*
X20576957Y21047875D01*
X20523812Y20955826D01*
X20523812Y20955825D01*
X20523811Y20955823D01*
X20496300Y20853148D01*
X16203700Y20853148D01*
X16176189Y20955823D01*
X16123041Y21047878D01*
X16047878Y21123041D01*
X15955823Y21176189D01*
X15853148Y21203700D01*
X15746852Y21203700D01*
X15644177Y21176189D01*
X15644175Y21176188D01*
X15644174Y21176188D01*
X15552125Y21123043D01*
X15552119Y21123039D01*
X15476961Y21047881D01*
X15476957Y21047875D01*
X15423812Y20955826D01*
X15423812Y20955825D01*
X15423811Y20955823D01*
X15396300Y20853148D01*
X14953700Y20853148D01*
X14953700Y21309729D01*
X14953700Y21309731D01*
X14922781Y21425122D01*
X14894372Y21474327D01*
X14863051Y21528578D01*
X14663561Y21728068D01*
X14630076Y21789391D01*
X14635060Y21859083D01*
X14676932Y21915016D01*
X14726986Y21935400D01*
X14726687Y21936516D01*
X14734535Y21938619D01*
X14734537Y21938619D01*
X14837212Y21966130D01*
X14929267Y22019278D01*
X15004430Y22094441D01*
X15057578Y22186496D01*
X15085089Y22289171D01*
X15085089Y22395467D01*
X15057578Y22498142D01*
X15004430Y22590197D01*
X14929267Y22665360D01*
X14837212Y22718508D01*
X14734537Y22746019D01*
X14628241Y22746019D01*
X14525566Y22718508D01*
X14525564Y22718507D01*
X14525563Y22718507D01*
X14489700Y22697801D01*
X14421799Y22681328D01*
X14355773Y22704181D01*
X14312582Y22759102D01*
X14303700Y22805188D01*
X14303700Y23210709D01*
X14323385Y23277748D01*
X14340019Y23298390D01*
X15397455Y24355826D01*
X16463051Y25421422D01*
X16522782Y25524879D01*
X16530356Y25553146D01*
X16530357Y25553148D01*
X19196300Y25553148D01*
X19196300Y25446852D01*
X19223811Y25344177D01*
X19223812Y25344176D01*
X19223812Y25344175D01*
X19224466Y25343043D01*
X19276959Y25252122D01*
X19276961Y25252120D01*
X19291400Y25237681D01*
X19324885Y25176358D01*
X19319901Y25106666D01*
X19291400Y25062319D01*
X19276961Y25047881D01*
X19276957Y25047875D01*
X19223812Y24955826D01*
X19223812Y24955825D01*
X19223811Y24955823D01*
X19196300Y24853148D01*
X19196300Y24746852D01*
X19223811Y24644177D01*
X19276959Y24552122D01*
X19276961Y24552120D01*
X19291400Y24537681D01*
X19324885Y24476358D01*
X19319901Y24406666D01*
X19291400Y24362319D01*
X19276961Y24347881D01*
X19276957Y24347875D01*
X19223812Y24255826D01*
X19223812Y24255825D01*
X19223811Y24255823D01*
X19196300Y24153148D01*
X19196300Y24046852D01*
X19223811Y23944177D01*
X19223812Y23944176D01*
X19223812Y23944175D01*
X19224466Y23943043D01*
X19276959Y23852122D01*
X19352122Y23776959D01*
X19444177Y23723811D01*
X19546852Y23696300D01*
X19546854Y23696300D01*
X19653146Y23696300D01*
X19653148Y23696300D01*
X19755823Y23723811D01*
X19847878Y23776959D01*
X19912319Y23841400D01*
X19973642Y23874885D01*
X20043334Y23869901D01*
X20087681Y23841400D01*
X20152122Y23776959D01*
X20244177Y23723811D01*
X20346852Y23696300D01*
X20346854Y23696300D01*
X20453146Y23696300D01*
X20453148Y23696300D01*
X20555823Y23723811D01*
X20647878Y23776959D01*
X20662319Y23791400D01*
X20723642Y23824885D01*
X20793334Y23819901D01*
X20837681Y23791400D01*
X20852122Y23776959D01*
X20944177Y23723811D01*
X21046852Y23696300D01*
X21046854Y23696300D01*
X21153146Y23696300D01*
X21153148Y23696300D01*
X21255823Y23723811D01*
X21347878Y23776959D01*
X21423041Y23852122D01*
X21476189Y23944177D01*
X21503700Y24046852D01*
X21503700Y24153148D01*
X21476189Y24255823D01*
X21423041Y24347878D01*
X21408600Y24362319D01*
X21375115Y24423642D01*
X21380099Y24493334D01*
X21408600Y24537681D01*
X21413910Y24542991D01*
X21423041Y24552122D01*
X21476189Y24644177D01*
X21503700Y24746852D01*
X21503700Y24853148D01*
X21476189Y24955823D01*
X21423041Y25047878D01*
X21408600Y25062319D01*
X21375115Y25123642D01*
X21380099Y25193334D01*
X21408600Y25237681D01*
X21423041Y25252122D01*
X21476189Y25344177D01*
X21503700Y25446852D01*
X21503700Y25553148D01*
X21476189Y25655823D01*
X21423041Y25747878D01*
X21347878Y25823041D01*
X21286508Y25858473D01*
X21255825Y25876188D01*
X21255824Y25876189D01*
X21255823Y25876189D01*
X21153148Y25903700D01*
X21046852Y25903700D01*
X20944177Y25876189D01*
X20944175Y25876188D01*
X20944174Y25876188D01*
X20852125Y25823043D01*
X20852119Y25823039D01*
X20837681Y25808600D01*
X20776358Y25775115D01*
X20706666Y25780099D01*
X20662319Y25808600D01*
X20647880Y25823039D01*
X20647878Y25823041D01*
X20586508Y25858473D01*
X20555825Y25876188D01*
X20555824Y25876189D01*
X20555823Y25876189D01*
X20453148Y25903700D01*
X20346852Y25903700D01*
X20244177Y25876189D01*
X20244175Y25876188D01*
X20244174Y25876188D01*
X20152125Y25823043D01*
X20152119Y25823039D01*
X20087681Y25758600D01*
X20026358Y25725115D01*
X19956666Y25730099D01*
X19912319Y25758600D01*
X19847880Y25823039D01*
X19847878Y25823041D01*
X19786508Y25858473D01*
X19755825Y25876188D01*
X19755824Y25876189D01*
X19755823Y25876189D01*
X19653148Y25903700D01*
X19546852Y25903700D01*
X19444177Y25876189D01*
X19444175Y25876188D01*
X19444174Y25876188D01*
X19352125Y25823043D01*
X19352119Y25823039D01*
X19276961Y25747881D01*
X19276957Y25747875D01*
X19223812Y25655826D01*
X19223812Y25655825D01*
X19223811Y25655823D01*
X19196300Y25553148D01*
X16530357Y25553148D01*
X16541133Y25593367D01*
X16550264Y25627446D01*
X16550265Y25627452D01*
X16553700Y25640270D01*
X16553700Y27622300D01*
X16573385Y27689339D01*
X16626189Y27735094D01*
X16677700Y27746300D01*
X17259728Y27746300D01*
X17259731Y27746300D01*
X17375122Y27777219D01*
X17478578Y27836950D01*
X17563050Y27921422D01*
X17622781Y28024878D01*
X17653700Y28140269D01*
X17653700Y28259731D01*
X17622781Y28375122D01*
X17563050Y28478578D01*
X17478578Y28563050D01*
X17375122Y28622781D01*
X17259731Y28653700D01*
X14740269Y28653700D01*
X14624878Y28622781D01*
X14624876Y28622781D01*
X14624876Y28622780D01*
X14521422Y28563050D01*
X14521419Y28563048D01*
X14436952Y28478581D01*
X14436950Y28478578D01*
X14377219Y28375122D01*
X14346300Y28259731D01*
X14346300Y28140269D01*
X14377219Y28024878D01*
X14436950Y27921422D01*
X14521422Y27836950D01*
X14624878Y27777219D01*
X14740269Y27746300D01*
X15522300Y27746300D01*
X15589339Y27726615D01*
X15635094Y27673811D01*
X15646300Y27622300D01*
X15646300Y25939292D01*
X15626615Y25872253D01*
X15609981Y25851611D01*
X14077122Y24318753D01*
X14015799Y24285268D01*
X13946107Y24290252D01*
X13890174Y24332124D01*
X13880580Y24348974D01*
X13880253Y24348784D01*
X13876187Y24355826D01*
X13823041Y24447878D01*
X13747878Y24523041D01*
X13658163Y24574838D01*
X13655825Y24576188D01*
X13655824Y24576189D01*
X13655823Y24576189D01*
X13553148Y24603700D01*
X13446852Y24603700D01*
X13344177Y24576189D01*
X13344175Y24576188D01*
X13344174Y24576188D01*
X13252125Y24523043D01*
X13252119Y24523039D01*
X13176961Y24447881D01*
X13176957Y24447875D01*
X13123812Y24355826D01*
X13123812Y24355825D01*
X13123811Y24355823D01*
X13109171Y24301184D01*
X13096300Y24253148D01*
X13096300Y24146853D01*
X13096972Y24141747D01*
X13086204Y24072712D01*
X13039822Y24020458D01*
X12972553Y24001575D01*
X12941940Y24005791D01*
X12856440Y24028700D01*
X12856439Y24028700D01*
X12743561Y24028700D01*
X12634526Y23999485D01*
X12536772Y23943045D01*
X12536769Y23943043D01*
X12456957Y23863231D01*
X12456955Y23863228D01*
X12400515Y23765474D01*
X12371300Y23656439D01*
X12371300Y23543562D01*
X12400515Y23434527D01*
X12407249Y23422864D01*
X12456955Y23336772D01*
X12536772Y23256955D01*
X12634528Y23200515D01*
X12743561Y23171300D01*
X12743563Y23171300D01*
X12856437Y23171300D01*
X12856439Y23171300D01*
X12965472Y23200515D01*
X13063228Y23256955D01*
X13143045Y23336772D01*
X13164914Y23374651D01*
X13215480Y23422864D01*
X13284088Y23436086D01*
X13348952Y23410118D01*
X13389480Y23353204D01*
X13396300Y23312648D01*
X13396300Y21840269D01*
X13427219Y21724878D01*
X13444469Y21695000D01*
X13466962Y21656041D01*
X13486948Y21621424D01*
X13486950Y21621421D01*
X14009981Y21098390D01*
X14043466Y21037067D01*
X14046300Y21010709D01*
X14046300Y17551291D01*
X14026615Y17484252D01*
X13973811Y17438497D01*
X13904653Y17428553D01*
X13860300Y17443904D01*
X13783802Y17488070D01*
X13783801Y17488071D01*
X13783800Y17488071D01*
X13681125Y17515582D01*
X13574829Y17515582D01*
X13472154Y17488071D01*
X13472152Y17488070D01*
X13472151Y17488070D01*
X13380102Y17434925D01*
X13380096Y17434921D01*
X13304938Y17359763D01*
X13304934Y17359757D01*
X13251789Y17267708D01*
X13251789Y17267707D01*
X13251788Y17267705D01*
X13224277Y17165030D01*
X13224277Y17058734D01*
X13251788Y16956059D01*
X13304936Y16864004D01*
X13380099Y16788841D01*
X13472154Y16735693D01*
X13574829Y16708182D01*
X13574831Y16708182D01*
X13681123Y16708182D01*
X13681125Y16708182D01*
X13783800Y16735693D01*
X13860302Y16779862D01*
X13928199Y16796334D01*
X13994226Y16773482D01*
X14037417Y16718561D01*
X14046300Y16672474D01*
X14046300Y15039292D01*
X14026615Y14972253D01*
X14009981Y14951611D01*
X12223694Y13165325D01*
X12162371Y13131840D01*
X12092679Y13136824D01*
X12075480Y13144785D01*
X12011521Y13180561D01*
X11986526Y13187901D01*
X11944483Y13200246D01*
X11944475Y13200248D01*
X11885684Y13208700D01*
X11885683Y13208700D01*
X11174000Y13208700D01*
X11173992Y13208700D01*
X11129637Y13203931D01*
X11078118Y13192723D01*
X11070432Y13190845D01*
X11067788Y13190198D01*
X11026803Y13168359D01*
X10985818Y13146519D01*
X10933018Y13100767D01*
X10932998Y13100749D01*
X10914784Y13082902D01*
X10914778Y13082895D01*
X10869441Y13001842D01*
X10869438Y13001835D01*
X10849754Y12934801D01*
X10849752Y12934793D01*
X10841300Y12876002D01*
X10841300Y8973993D01*
X10846069Y8929638D01*
X10857280Y8878107D01*
X10859487Y8869074D01*
X10856273Y8799279D01*
X10815835Y8742300D01*
X10751012Y8716229D01*
X10738355Y8715651D01*
X9884992Y8720289D01*
X9884060Y8720234D01*
X9829397Y8720521D01*
X9829387Y8720520D01*
X9626359Y8689399D01*
X9626345Y8689395D01*
X9430716Y8626786D01*
X9430707Y8626782D01*
X9247326Y8534235D01*
X9080750Y8414047D01*
X8935105Y8269201D01*
X8935100Y8269195D01*
X8814000Y8103277D01*
X8720445Y7920405D01*
X8656760Y7725108D01*
X8624525Y7522250D01*
X8624523Y7522233D01*
X8624510Y7466980D01*
X8624500Y7466808D01*
X8624500Y2931093D01*
X8623903Y2918938D01*
X8612256Y2800689D01*
X8607514Y2776849D01*
X8574798Y2668998D01*
X8565495Y2646539D01*
X8512370Y2547151D01*
X8498866Y2526941D01*
X8427369Y2439821D01*
X8410179Y2422631D01*
X8323059Y2351134D01*
X8302849Y2337630D01*
X8203461Y2284505D01*
X8181002Y2275202D01*
X8073151Y2242486D01*
X8049311Y2237744D01*
X7962215Y2229166D01*
X7931060Y2226097D01*
X7918907Y2225500D01*
X-1245572Y2225500D01*
X-1254418Y2225816D01*
X-1483018Y2242166D01*
X-1500530Y2244684D01*
X-1720138Y2292457D01*
X-1737113Y2297441D01*
X-1765075Y2307870D01*
X-1947689Y2375981D01*
X-1963783Y2383331D01*
X-2161037Y2491041D01*
X-2175920Y2500606D01*
X-2355837Y2635290D01*
X-2369208Y2646876D01*
X-2528125Y2805793D01*
X-2539711Y2819164D01*
X-2674395Y2999081D01*
X-2683960Y3013964D01*
X-2760633Y3154379D01*
X-2791673Y3211223D01*
X-2799017Y3227306D01*
X-2877563Y3437897D01*
X-2882542Y3454856D01*
X-2930317Y3674471D01*
X-2932835Y3691983D01*
X-2949184Y3920582D01*
X-2949500Y3929428D01*
X-2949500Y4214167D01*
X-2929815Y4281206D01*
X-2877011Y4326961D01*
X-2807853Y4336905D01*
X-2744297Y4307880D01*
X-2708459Y4255122D01*
X-2629231Y4028702D01*
X-2629225Y4028688D01*
X-2512091Y3785456D01*
X-2512089Y3785453D01*
X-2368452Y3556856D01*
X-2200124Y3345779D01*
X-2009221Y3154876D01*
X-1798144Y2986548D01*
X-1569547Y2842911D01*
X-1326305Y2725772D01*
X-1326299Y2725770D01*
X-1071490Y2636608D01*
X-1071478Y2636604D01*
X-808269Y2576528D01*
X-539993Y2546301D01*
X-539992Y2546300D01*
X-539989Y2546300D01*
X-270008Y2546300D01*
X-270008Y2546301D01*
X-1731Y2576528D01*
X261478Y2636604D01*
X516305Y2725772D01*
X759547Y2842911D01*
X988144Y2986548D01*
X1199221Y3154876D01*
X1390124Y3345779D01*
X1558452Y3556856D01*
X1702089Y3785453D01*
X1736274Y3856439D01*
X2771300Y3856439D01*
X2771300Y3743562D01*
X2800515Y3634527D01*
X2828735Y3585650D01*
X2856955Y3536772D01*
X2936772Y3456955D01*
X3034528Y3400515D01*
X3143561Y3371300D01*
X3143563Y3371300D01*
X3256437Y3371300D01*
X3256439Y3371300D01*
X3365472Y3400515D01*
X3463228Y3456955D01*
X3543045Y3536772D01*
X3599485Y3634528D01*
X3628700Y3743561D01*
X3628700Y3856439D01*
X3599485Y3965472D01*
X3595372Y3972595D01*
X3562991Y4028680D01*
X3543045Y4063228D01*
X3463228Y4143045D01*
X3404483Y4176962D01*
X3365473Y4199485D01*
X3310677Y4214167D01*
X3256439Y4228700D01*
X3143561Y4228700D01*
X3034526Y4199485D01*
X2936772Y4143045D01*
X2936769Y4143043D01*
X2856957Y4063231D01*
X2856955Y4063228D01*
X2800515Y3965474D01*
X2771300Y3856439D01*
X1736274Y3856439D01*
X1766098Y3918368D01*
X1766099Y3918370D01*
X1819221Y4028680D01*
X1819222Y4028684D01*
X1819228Y4028695D01*
X1908396Y4283522D01*
X1968472Y4546731D01*
X1969195Y4553148D01*
X7396300Y4553148D01*
X7396300Y4446852D01*
X7423811Y4344177D01*
X7476959Y4252122D01*
X7552122Y4176959D01*
X7644177Y4123811D01*
X7746852Y4096300D01*
X7746854Y4096300D01*
X7853146Y4096300D01*
X7853148Y4096300D01*
X7955823Y4123811D01*
X8047878Y4176959D01*
X8123041Y4252122D01*
X8176189Y4344177D01*
X8203700Y4446852D01*
X8203700Y4553148D01*
X8176189Y4655823D01*
X8123041Y4747878D01*
X8047878Y4823041D01*
X7955823Y4876189D01*
X7853148Y4903700D01*
X7746852Y4903700D01*
X7644177Y4876189D01*
X7644175Y4876188D01*
X7644174Y4876188D01*
X7552125Y4823043D01*
X7552119Y4823039D01*
X7476961Y4747881D01*
X7476957Y4747875D01*
X7423812Y4655826D01*
X7423812Y4655825D01*
X7423811Y4655823D01*
X7396300Y4553148D01*
X1969195Y4553148D01*
X1969443Y4555353D01*
X1971676Y4575160D01*
X1971676Y4575161D01*
X1998699Y4815005D01*
X1998700Y4815009D01*
X1998700Y5084992D01*
X1998699Y5084996D01*
X1969135Y5347392D01*
X1968486Y5353148D01*
X6596300Y5353148D01*
X6596300Y5246852D01*
X6623811Y5144177D01*
X6676959Y5052122D01*
X6752122Y4976959D01*
X6844177Y4923811D01*
X6946852Y4896300D01*
X6946854Y4896300D01*
X7053146Y4896300D01*
X7053148Y4896300D01*
X7155823Y4923811D01*
X7247878Y4976959D01*
X7323041Y5052122D01*
X7376189Y5144177D01*
X7403700Y5246852D01*
X7403700Y5353148D01*
X7376189Y5455823D01*
X7323041Y5547878D01*
X7247878Y5623041D01*
X7155823Y5676189D01*
X7053148Y5703700D01*
X6946852Y5703700D01*
X6844177Y5676189D01*
X6844175Y5676188D01*
X6844174Y5676188D01*
X6752125Y5623043D01*
X6752119Y5623039D01*
X6676961Y5547881D01*
X6676957Y5547875D01*
X6623812Y5455826D01*
X6623812Y5455825D01*
X6623811Y5455823D01*
X6596300Y5353148D01*
X1968486Y5353148D01*
X1968473Y5353260D01*
X1968472Y5353269D01*
X1908396Y5616478D01*
X1819228Y5871305D01*
X1702089Y6114547D01*
X1558452Y6343144D01*
X1468102Y6456439D01*
X3571300Y6456439D01*
X3571300Y6343562D01*
X3600515Y6234527D01*
X3622586Y6196300D01*
X3656955Y6136772D01*
X3736772Y6056955D01*
X3834528Y6000515D01*
X3943561Y5971300D01*
X3943563Y5971300D01*
X4056437Y5971300D01*
X4056439Y5971300D01*
X4165472Y6000515D01*
X4263228Y6056955D01*
X4343045Y6136772D01*
X4399485Y6234528D01*
X4428700Y6343561D01*
X4428700Y6456439D01*
X4399485Y6565472D01*
X4343045Y6663228D01*
X4263228Y6743045D01*
X4214288Y6771301D01*
X4165473Y6799485D01*
X4097869Y6817599D01*
X4056439Y6828700D01*
X3943561Y6828700D01*
X3834526Y6799485D01*
X3736772Y6743045D01*
X3736769Y6743043D01*
X3656957Y6663231D01*
X3656955Y6663228D01*
X3600515Y6565474D01*
X3571300Y6456439D01*
X1468102Y6456439D01*
X1390124Y6554221D01*
X1199221Y6745124D01*
X1185802Y6755825D01*
X1129763Y6800515D01*
X988144Y6913452D01*
X783367Y7042122D01*
X759544Y7057091D01*
X560706Y7152846D01*
X560704Y7152848D01*
X516320Y7174222D01*
X516298Y7174231D01*
X281362Y7256439D01*
X2371300Y7256439D01*
X2371300Y7143561D01*
X2373815Y7134176D01*
X2400515Y7034527D01*
X2418314Y7003700D01*
X2456955Y6936772D01*
X2536772Y6856955D01*
X2634528Y6800515D01*
X2743561Y6771300D01*
X2743563Y6771300D01*
X2856437Y6771300D01*
X2856439Y6771300D01*
X2965472Y6800515D01*
X3063228Y6856955D01*
X3143045Y6936772D01*
X3199485Y7034528D01*
X3228700Y7143561D01*
X3228700Y7256439D01*
X3205467Y7343148D01*
X7396300Y7343148D01*
X7396300Y7236852D01*
X7423811Y7134177D01*
X7476959Y7042122D01*
X7552122Y6966959D01*
X7644177Y6913811D01*
X7746852Y6886300D01*
X7746854Y6886300D01*
X7853146Y6886300D01*
X7853148Y6886300D01*
X7955823Y6913811D01*
X8047878Y6966959D01*
X8123041Y7042122D01*
X8176189Y7134177D01*
X8203700Y7236852D01*
X8203700Y7343148D01*
X8176189Y7445823D01*
X8123041Y7537878D01*
X8047878Y7613041D01*
X7955823Y7666189D01*
X7853148Y7693700D01*
X7746852Y7693700D01*
X7644177Y7666189D01*
X7644175Y7666188D01*
X7644174Y7666188D01*
X7552125Y7613043D01*
X7552119Y7613039D01*
X7476961Y7537881D01*
X7476957Y7537875D01*
X7423812Y7445826D01*
X7423812Y7445825D01*
X7423811Y7445823D01*
X7396300Y7343148D01*
X3205467Y7343148D01*
X3199485Y7365472D01*
X3143045Y7463228D01*
X3063228Y7543045D01*
X2973329Y7594949D01*
X2965473Y7599485D01*
X2874685Y7623811D01*
X2856439Y7628700D01*
X2743561Y7628700D01*
X2634526Y7599485D01*
X2536772Y7543045D01*
X2536769Y7543043D01*
X2456957Y7463231D01*
X2456955Y7463228D01*
X2400515Y7365474D01*
X2375955Y7273811D01*
X2371300Y7256439D01*
X281362Y7256439D01*
X261489Y7263393D01*
X261477Y7263397D01*
X58344Y7309761D01*
X-1731Y7323472D01*
X-1735Y7323473D01*
X-1744Y7323474D01*
X-270007Y7353700D01*
X-270011Y7353700D01*
X-539989Y7353700D01*
X-539994Y7353700D01*
X-808257Y7323474D01*
X-808269Y7323472D01*
X-1071478Y7263397D01*
X-1071490Y7263393D01*
X-1326299Y7174231D01*
X-1326313Y7174225D01*
X-1569545Y7057091D01*
X-1798143Y6913453D01*
X-2009221Y6745125D01*
X-2200125Y6554221D01*
X-2368453Y6343143D01*
X-2512091Y6114545D01*
X-2629225Y5871313D01*
X-2629231Y5871299D01*
X-2708459Y5644879D01*
X-2749181Y5588103D01*
X-2814133Y5562356D01*
X-2882695Y5575812D01*
X-2933098Y5624200D01*
X-2949500Y5685834D01*
X-2949500Y7720857D01*
X-2929815Y7787896D01*
X-2877011Y7833651D01*
X-2807853Y7843595D01*
X-2763501Y7828244D01*
X-2755823Y7823811D01*
X-2653148Y7796300D01*
X-2653146Y7796300D01*
X-2546854Y7796300D01*
X-2546852Y7796300D01*
X-2444177Y7823811D01*
X-2352122Y7876959D01*
X-2276959Y7952122D01*
X-2223811Y8044177D01*
X-2196300Y8146852D01*
X-2196300Y8253148D01*
X-2223811Y8355823D01*
X-2276959Y8447878D01*
X-2352122Y8523041D01*
X-2415986Y8559913D01*
X-2464202Y8610480D01*
X-2477425Y8679087D01*
X-2451456Y8743952D01*
X-2394542Y8784480D01*
X-2353986Y8791300D01*
X753986Y8791300D01*
X821025Y8771615D01*
X866780Y8718811D01*
X876724Y8649653D01*
X847699Y8586097D01*
X815986Y8559913D01*
X752125Y8523043D01*
X752119Y8523039D01*
X676961Y8447881D01*
X676957Y8447875D01*
X623812Y8355826D01*
X623812Y8355825D01*
X623811Y8355823D01*
X596300Y8253148D01*
X596300Y8146852D01*
X623811Y8044177D01*
X676959Y7952122D01*
X752122Y7876959D01*
X844177Y7823811D01*
X946852Y7796300D01*
X946854Y7796300D01*
X1053146Y7796300D01*
X1053148Y7796300D01*
X1155823Y7823811D01*
X1247878Y7876959D01*
X1323041Y7952122D01*
X1376189Y8044177D01*
X1379475Y8056439D01*
X3571300Y8056439D01*
X3571300Y7943561D01*
X3578818Y7915505D01*
X3600515Y7834527D01*
X3622586Y7796300D01*
X3656955Y7736772D01*
X3736772Y7656955D01*
X3785711Y7628700D01*
X3831744Y7602122D01*
X3834528Y7600515D01*
X3943561Y7571300D01*
X3943563Y7571300D01*
X4056437Y7571300D01*
X4056439Y7571300D01*
X4165472Y7600515D01*
X4263228Y7656955D01*
X4343045Y7736772D01*
X4399485Y7834528D01*
X4428700Y7943561D01*
X4428700Y8056439D01*
X4399485Y8165472D01*
X4343045Y8263228D01*
X4263228Y8343045D01*
X4214350Y8371265D01*
X4165473Y8399485D01*
X4110955Y8414093D01*
X4056439Y8428700D01*
X3943561Y8428700D01*
X3834526Y8399485D01*
X3736772Y8343045D01*
X3736769Y8343043D01*
X3656957Y8263231D01*
X3656955Y8263228D01*
X3600515Y8165474D01*
X3582077Y8096660D01*
X3571300Y8056439D01*
X1379475Y8056439D01*
X1403700Y8146852D01*
X1403700Y8253148D01*
X1376189Y8355823D01*
X1323041Y8447878D01*
X1247878Y8523041D01*
X1184014Y8559913D01*
X1135798Y8610480D01*
X1122575Y8679087D01*
X1148544Y8743952D01*
X1205458Y8784480D01*
X1225880Y8789655D01*
X1235877Y8791300D01*
X1272988Y8791300D01*
X1303914Y8793604D01*
X1340260Y8799050D01*
X1383377Y8815572D01*
X1395821Y8817619D01*
X1418476Y8814830D01*
X1441229Y8816661D01*
X1452492Y8810641D01*
X1465167Y8809080D01*
X1482715Y8794488D01*
X1502849Y8783726D01*
X1503636Y8782945D01*
X1552122Y8734459D01*
X1644177Y8681311D01*
X1746852Y8653800D01*
X1746854Y8653800D01*
X1853146Y8653800D01*
X1853148Y8653800D01*
X1955823Y8681311D01*
X2047878Y8734459D01*
X2096341Y8782923D01*
X2157662Y8816407D01*
X2218957Y8814218D01*
X2268213Y8799754D01*
X2268217Y8799754D01*
X2268219Y8799753D01*
X2273109Y8799050D01*
X2327012Y8791300D01*
X5916123Y8791300D01*
X5983162Y8771615D01*
X6028917Y8718811D01*
X6038861Y8649653D01*
X6023509Y8605298D01*
X6000515Y8565475D01*
X5975748Y8473041D01*
X5971300Y8456439D01*
X5971300Y8343561D01*
X5971439Y8343043D01*
X6000515Y8234527D01*
X6007147Y8223041D01*
X6056955Y8136772D01*
X6136772Y8056955D01*
X6234528Y8000515D01*
X6343561Y7971300D01*
X6343563Y7971300D01*
X6456437Y7971300D01*
X6456439Y7971300D01*
X6565472Y8000515D01*
X6663228Y8056955D01*
X6743045Y8136772D01*
X6799485Y8234528D01*
X6828700Y8343561D01*
X6828700Y8456439D01*
X6799485Y8565472D01*
X6799484Y8565473D01*
X6799484Y8565475D01*
X6776491Y8605298D01*
X6760017Y8673198D01*
X6782869Y8739226D01*
X6837789Y8782417D01*
X6883877Y8791300D01*
X7263019Y8791300D01*
X7264330Y8791371D01*
X7285329Y8792496D01*
X7311687Y8795330D01*
X7389396Y8819663D01*
X7450719Y8853148D01*
X7498272Y8888746D01*
X7855206Y9245683D01*
X7916527Y9279166D01*
X7942886Y9282000D01*
X9125991Y9282000D01*
X9126000Y9282000D01*
X9170364Y9286770D01*
X9221875Y9297976D01*
X9232212Y9300502D01*
X9314181Y9344181D01*
X9366985Y9389936D01*
X9385218Y9407801D01*
X9430561Y9488862D01*
X9450246Y9555901D01*
X9458700Y9614700D01*
X9458700Y11596019D01*
X9478385Y11663058D01*
X9531189Y11708813D01*
X9600347Y11718757D01*
X9663903Y11689732D01*
X9670381Y11683700D01*
X9702122Y11651959D01*
X9794177Y11598811D01*
X9896852Y11571300D01*
X9896854Y11571300D01*
X10003146Y11571300D01*
X10003148Y11571300D01*
X10105823Y11598811D01*
X10197878Y11651959D01*
X10273041Y11727122D01*
X10326189Y11819177D01*
X10353700Y11921852D01*
X10353700Y12028148D01*
X10326189Y12130823D01*
X10273041Y12222878D01*
X10197878Y12298041D01*
X10105823Y12351189D01*
X10003148Y12378700D01*
X9896852Y12378700D01*
X9794177Y12351189D01*
X9794175Y12351188D01*
X9794174Y12351188D01*
X9702125Y12298043D01*
X9702119Y12298039D01*
X9670381Y12266300D01*
X9609058Y12232815D01*
X9539366Y12237799D01*
X9483433Y12279671D01*
X9459016Y12345135D01*
X9458700Y12353981D01*
X9458700Y12646019D01*
X9478385Y12713058D01*
X9531189Y12758813D01*
X9600347Y12768757D01*
X9663903Y12739732D01*
X9670381Y12733700D01*
X9702122Y12701959D01*
X9794177Y12648811D01*
X9896852Y12621300D01*
X10003148Y12621300D01*
X10105823Y12648811D01*
X10197878Y12701959D01*
X10273041Y12777122D01*
X10326189Y12869177D01*
X10353700Y12971852D01*
X10353700Y13078148D01*
X10326189Y13180823D01*
X10273041Y13272878D01*
X10197878Y13348041D01*
X10105823Y13401189D01*
X10003148Y13428700D01*
X9896852Y13428700D01*
X9794177Y13401189D01*
X9794175Y13401188D01*
X9794174Y13401188D01*
X9702125Y13348043D01*
X9702119Y13348039D01*
X9670381Y13316300D01*
X9609058Y13282815D01*
X9539366Y13287799D01*
X9483433Y13329671D01*
X9459016Y13395135D01*
X9458700Y13403981D01*
X9458700Y14531569D01*
X9458638Y14533634D01*
X9458331Y14543976D01*
X9457454Y14558697D01*
X9440973Y14628440D01*
X9413469Y14692669D01*
X9402002Y14715481D01*
X9395686Y14722242D01*
X9364305Y14784667D01*
X9371655Y14854149D01*
X9378908Y14868889D01*
X9399485Y14904528D01*
X9428700Y15013561D01*
X9428700Y15126439D01*
X9399485Y15235472D01*
X9380068Y15269102D01*
X9363596Y15337001D01*
X9382869Y15392690D01*
X9380889Y15393797D01*
X9404928Y15436773D01*
X9430561Y15482598D01*
X9450246Y15549637D01*
X9458700Y15608436D01*
X9458700Y17706439D01*
X10921300Y17706439D01*
X10921300Y17593562D01*
X10950515Y17484527D01*
X10992389Y17412001D01*
X11008862Y17344100D01*
X10992389Y17287999D01*
X10950515Y17215474D01*
X10921300Y17106439D01*
X10921300Y16993562D01*
X10950515Y16884527D01*
X10967935Y16854356D01*
X11006955Y16786772D01*
X11006958Y16786769D01*
X11011902Y16780326D01*
X11010606Y16779333D01*
X11039533Y16726346D01*
X11034541Y16656654D01*
X11011147Y16620254D01*
X11011902Y16619674D01*
X11006955Y16613228D01*
X10950515Y16515474D01*
X10921300Y16406439D01*
X10921300Y16293562D01*
X10950515Y16184527D01*
X11006823Y16087001D01*
X11023296Y16019101D01*
X11006823Y15962999D01*
X10950515Y15865474D01*
X10921300Y15756439D01*
X10921300Y15643562D01*
X10950515Y15534527D01*
X10965153Y15509174D01*
X11006955Y15436772D01*
X11086772Y15356955D01*
X11184528Y15300515D01*
X11293561Y15271300D01*
X11293563Y15271300D01*
X11406437Y15271300D01*
X11406439Y15271300D01*
X11515472Y15300515D01*
X11613228Y15356955D01*
X11693045Y15436772D01*
X11749485Y15534528D01*
X11778700Y15643561D01*
X11778700Y15718147D01*
X12946300Y15718147D01*
X12946300Y15611851D01*
X12973811Y15509176D01*
X12973812Y15509175D01*
X12973812Y15509174D01*
X12989156Y15482598D01*
X13026959Y15417121D01*
X13102122Y15341958D01*
X13194177Y15288810D01*
X13296852Y15261299D01*
X13296854Y15261299D01*
X13403146Y15261299D01*
X13403148Y15261299D01*
X13505823Y15288810D01*
X13597878Y15341958D01*
X13673041Y15417121D01*
X13726189Y15509176D01*
X13753700Y15611851D01*
X13753700Y15718147D01*
X13726189Y15820822D01*
X13673041Y15912877D01*
X13597878Y15988040D01*
X13505823Y16041188D01*
X13403148Y16068699D01*
X13296852Y16068699D01*
X13194177Y16041188D01*
X13194175Y16041187D01*
X13194174Y16041187D01*
X13102125Y15988042D01*
X13102119Y15988038D01*
X13026961Y15912880D01*
X13026957Y15912874D01*
X12973812Y15820825D01*
X12973812Y15820824D01*
X12973811Y15820822D01*
X12946300Y15718147D01*
X11778700Y15718147D01*
X11778700Y15756439D01*
X11749485Y15865472D01*
X11722115Y15912877D01*
X11693177Y15962999D01*
X11676703Y16030899D01*
X11693177Y16087001D01*
X11749482Y16184523D01*
X11749481Y16184523D01*
X11749485Y16184528D01*
X11778700Y16293561D01*
X11778700Y16406439D01*
X11749485Y16515472D01*
X11693045Y16613228D01*
X11693040Y16613233D01*
X11688098Y16619674D01*
X11689394Y16620669D01*
X11660469Y16673642D01*
X11665453Y16743334D01*
X11688854Y16779746D01*
X11688098Y16780326D01*
X11693037Y16786765D01*
X11693045Y16786772D01*
X11749485Y16884528D01*
X11778700Y16993561D01*
X11778700Y17106439D01*
X11749485Y17215472D01*
X11749484Y17215474D01*
X11749484Y17215475D01*
X11727414Y17253700D01*
X11707610Y17288001D01*
X11691137Y17355898D01*
X11707611Y17412001D01*
X11749485Y17484528D01*
X11778700Y17593561D01*
X11778700Y17706439D01*
X11749485Y17815472D01*
X11693045Y17913228D01*
X11613228Y17993045D01*
X11564350Y18021265D01*
X11515473Y18049485D01*
X11460955Y18064093D01*
X11406439Y18078700D01*
X11293561Y18078700D01*
X11184526Y18049485D01*
X11086772Y17993045D01*
X11086769Y17993043D01*
X11006957Y17913231D01*
X11006955Y17913228D01*
X10950515Y17815474D01*
X10921300Y17706439D01*
X9458700Y17706439D01*
X9458700Y17841565D01*
X9458331Y17853976D01*
X9457454Y17868697D01*
X9440973Y17938440D01*
X9413469Y18002669D01*
X9402002Y18025481D01*
X9395686Y18032242D01*
X9364305Y18094667D01*
X9371655Y18164149D01*
X9378908Y18178889D01*
X9399485Y18214528D01*
X9428700Y18323561D01*
X9428700Y18436439D01*
X9399485Y18545472D01*
X9364942Y18605301D01*
X9348470Y18673199D01*
X9371322Y18739226D01*
X9426243Y18782417D01*
X9472330Y18791300D01*
X10337527Y18791300D01*
X10338838Y18791371D01*
X10359837Y18792496D01*
X10386195Y18795330D01*
X10463904Y18819663D01*
X10525227Y18853148D01*
X10572780Y18888746D01*
X11048357Y19364326D01*
X11061711Y19375897D01*
X11082027Y19391104D01*
X11124339Y19431451D01*
X11135218Y19442630D01*
X11180561Y19523691D01*
X11200246Y19590730D01*
X11208700Y19649529D01*
X11208700Y20353148D01*
X12596300Y20353148D01*
X12596300Y20246852D01*
X12623811Y20144177D01*
X12676959Y20052122D01*
X12752122Y19976959D01*
X12844177Y19923811D01*
X12946852Y19896300D01*
X12946854Y19896300D01*
X13053146Y19896300D01*
X13053148Y19896300D01*
X13155823Y19923811D01*
X13247878Y19976959D01*
X13323041Y20052122D01*
X13376189Y20144177D01*
X13403700Y20246852D01*
X13403700Y20353148D01*
X13376189Y20455823D01*
X13323041Y20547878D01*
X13247878Y20623041D01*
X13155823Y20676189D01*
X13053148Y20703700D01*
X12946852Y20703700D01*
X12844177Y20676189D01*
X12844175Y20676188D01*
X12844174Y20676188D01*
X12752125Y20623043D01*
X12752119Y20623039D01*
X12676961Y20547881D01*
X12676957Y20547875D01*
X12623812Y20455826D01*
X12623812Y20455825D01*
X12623811Y20455823D01*
X12596300Y20353148D01*
X11208700Y20353148D01*
X11208700Y24126000D01*
X11203930Y24170364D01*
X11192724Y24221875D01*
X11190198Y24232212D01*
X11146519Y24314181D01*
X11100764Y24366985D01*
X11100755Y24366994D01*
X11100748Y24367002D01*
X11082901Y24385216D01*
X11082894Y24385222D01*
X11014207Y24423642D01*
X11001838Y24430561D01*
X10976843Y24437901D01*
X10934800Y24450246D01*
X10934792Y24450248D01*
X10876001Y24458700D01*
X10876000Y24458700D01*
X5602339Y24458700D01*
X5535300Y24478385D01*
X5489545Y24531189D01*
X5482564Y24550608D01*
X5482159Y24552120D01*
X5476072Y24574838D01*
X5419632Y24672594D01*
X5339815Y24752411D01*
X5290937Y24780631D01*
X5242060Y24808851D01*
X5187542Y24823459D01*
X5133026Y24838066D01*
X5020148Y24838066D01*
X4911113Y24808851D01*
X4813353Y24752408D01*
X4807660Y24748039D01*
X4742489Y24722848D01*
X4674045Y24736891D01*
X4670178Y24739032D01*
X4663228Y24743045D01*
X4628833Y24762903D01*
X4565473Y24799485D01*
X4510955Y24814093D01*
X4456439Y24828700D01*
X4343561Y24828700D01*
X4234526Y24799485D01*
X4136772Y24743045D01*
X4136769Y24743043D01*
X4056957Y24663231D01*
X4056955Y24663228D01*
X4000514Y24565472D01*
X4000514Y24565471D01*
X3996531Y24550605D01*
X3960166Y24490945D01*
X3897319Y24460417D01*
X3876757Y24458700D01*
X3564335Y24458700D01*
X3497296Y24478385D01*
X3451541Y24531189D01*
X3441597Y24600347D01*
X3470622Y24663903D01*
X3476654Y24670381D01*
X3506014Y24699741D01*
X3543045Y24736772D01*
X3599485Y24834528D01*
X3628700Y24943561D01*
X3628700Y25056439D01*
X3599485Y25165472D01*
X3543045Y25263228D01*
X3463228Y25343045D01*
X3414350Y25371265D01*
X3365473Y25399485D01*
X3310955Y25414093D01*
X3256439Y25428700D01*
X3143561Y25428700D01*
X3034526Y25399485D01*
X2936772Y25343045D01*
X2936769Y25343043D01*
X2856957Y25263231D01*
X2856955Y25263228D01*
X2800515Y25165474D01*
X2771300Y25056439D01*
X2771300Y24943561D01*
X2775749Y24926958D01*
X2800515Y24834527D01*
X2820747Y24799485D01*
X2856955Y24736772D01*
X2856957Y24736770D01*
X2923346Y24670381D01*
X2956831Y24609058D01*
X2951847Y24539366D01*
X2909975Y24483433D01*
X2844511Y24459016D01*
X2835665Y24458700D01*
X482869Y24458700D01*
X415830Y24478385D01*
X370075Y24531189D01*
X360131Y24600347D01*
X389156Y24663903D01*
X441914Y24699741D01*
X477483Y24712188D01*
X516305Y24725772D01*
X759547Y24842911D01*
X988144Y24986548D01*
X1199221Y25154876D01*
X1390124Y25345779D01*
X1558452Y25556856D01*
X1702089Y25785453D01*
X1819228Y26028695D01*
X1908396Y26283522D01*
X1912876Y26303148D01*
X12346300Y26303148D01*
X12346300Y26196852D01*
X12373811Y26094177D01*
X12426959Y26002122D01*
X12502122Y25926959D01*
X12594177Y25873811D01*
X12609243Y25869775D01*
X12668903Y25833410D01*
X12699432Y25770563D01*
X12691137Y25701188D01*
X12646652Y25647310D01*
X12609244Y25630227D01*
X12594177Y25626189D01*
X12594175Y25626188D01*
X12594174Y25626188D01*
X12502125Y25573043D01*
X12502119Y25573039D01*
X12426961Y25497881D01*
X12426957Y25497875D01*
X12373812Y25405826D01*
X12373812Y25405825D01*
X12373811Y25405823D01*
X12346300Y25303148D01*
X12346300Y25196852D01*
X12373811Y25094177D01*
X12426959Y25002122D01*
X12502122Y24926959D01*
X12594177Y24873811D01*
X12696852Y24846300D01*
X12696854Y24846300D01*
X12803146Y24846300D01*
X12803148Y24846300D01*
X12905823Y24873811D01*
X12997878Y24926959D01*
X13073041Y25002122D01*
X13126189Y25094177D01*
X13153700Y25196852D01*
X13153700Y25303148D01*
X13126189Y25405823D01*
X13073041Y25497878D01*
X12997878Y25573041D01*
X12905823Y25626189D01*
X12890756Y25630226D01*
X12831097Y25666589D01*
X12800567Y25729435D01*
X12808861Y25798811D01*
X12853346Y25852690D01*
X12890755Y25869774D01*
X12905823Y25873811D01*
X12997878Y25926959D01*
X13073041Y26002122D01*
X13126189Y26094177D01*
X13153700Y26196852D01*
X13153700Y26303148D01*
X13126189Y26405823D01*
X13073041Y26497878D01*
X12997878Y26573041D01*
X12905823Y26626189D01*
X12805208Y26653148D01*
X13896300Y26653148D01*
X13896300Y26546852D01*
X13923811Y26444177D01*
X13976959Y26352122D01*
X14052122Y26276959D01*
X14144177Y26223811D01*
X14246852Y26196300D01*
X14246854Y26196300D01*
X14353146Y26196300D01*
X14353148Y26196300D01*
X14455823Y26223811D01*
X14547878Y26276959D01*
X14623041Y26352122D01*
X14676189Y26444177D01*
X14703700Y26546852D01*
X14703700Y26653148D01*
X14676189Y26755823D01*
X14623041Y26847878D01*
X14547878Y26923041D01*
X14455823Y26976189D01*
X14353148Y27003700D01*
X14246852Y27003700D01*
X14144177Y26976189D01*
X14144175Y26976188D01*
X14144174Y26976188D01*
X14052125Y26923043D01*
X14052119Y26923039D01*
X13976961Y26847881D01*
X13976957Y26847875D01*
X13923812Y26755826D01*
X13923812Y26755825D01*
X13923811Y26755823D01*
X13896300Y26653148D01*
X12805208Y26653148D01*
X12803148Y26653700D01*
X12696852Y26653700D01*
X12594177Y26626189D01*
X12594175Y26626188D01*
X12594174Y26626188D01*
X12502125Y26573043D01*
X12502119Y26573039D01*
X12426961Y26497881D01*
X12426957Y26497875D01*
X12373812Y26405826D01*
X12373812Y26405825D01*
X12373811Y26405823D01*
X12346300Y26303148D01*
X1912876Y26303148D01*
X1918311Y26326961D01*
X1921029Y26338868D01*
X1921029Y26338869D01*
X1957321Y26497875D01*
X1968472Y26546731D01*
X1998700Y26815011D01*
X1998700Y27084989D01*
X1968472Y27353269D01*
X1908396Y27616478D01*
X1889709Y27669881D01*
X1819230Y27871299D01*
X1819228Y27871304D01*
X1819228Y27871305D01*
X1702089Y28114547D01*
X1558452Y28343144D01*
X1390124Y28554221D01*
X1199221Y28745124D01*
X1199220Y28745125D01*
X1199214Y28745131D01*
X1171022Y28767612D01*
X1171013Y28767619D01*
X1059636Y28856439D01*
X2971300Y28856439D01*
X2971300Y28743562D01*
X3000515Y28634527D01*
X3022586Y28596300D01*
X3056955Y28536772D01*
X3136772Y28456955D01*
X3234528Y28400515D01*
X3343561Y28371300D01*
X3343563Y28371300D01*
X3447300Y28371300D01*
X3514339Y28351615D01*
X3560094Y28298811D01*
X3571300Y28247300D01*
X3571300Y28143561D01*
X3572182Y28140269D01*
X3600515Y28034527D01*
X3606086Y28024878D01*
X3656955Y27936772D01*
X3736772Y27856955D01*
X3834528Y27800515D01*
X3943561Y27771300D01*
X3943563Y27771300D01*
X4056437Y27771300D01*
X4056439Y27771300D01*
X4165472Y27800515D01*
X4263228Y27856955D01*
X4343045Y27936772D01*
X4399485Y28034528D01*
X4428700Y28143561D01*
X4428700Y28256439D01*
X4399485Y28365472D01*
X4343045Y28463228D01*
X4263228Y28543045D01*
X4170989Y28596300D01*
X4165473Y28599485D01*
X4109136Y28614580D01*
X4056439Y28628700D01*
X3952700Y28628700D01*
X3885661Y28648385D01*
X3839906Y28701189D01*
X3828700Y28752700D01*
X3828700Y28856437D01*
X3828700Y28856439D01*
X3799485Y28965472D01*
X3743045Y29063228D01*
X3663228Y29143045D01*
X3609213Y29174231D01*
X3565473Y29199485D01*
X3510955Y29214093D01*
X3456439Y29228700D01*
X3343561Y29228700D01*
X3234526Y29199485D01*
X3136772Y29143045D01*
X3136769Y29143043D01*
X3056957Y29063231D01*
X3056955Y29063228D01*
X3000515Y28965474D01*
X2971300Y28856439D01*
X1059636Y28856439D01*
X988144Y28913452D01*
X759547Y29057089D01*
X759544Y29057091D01*
X516312Y29174225D01*
X516298Y29174231D01*
X261489Y29263393D01*
X261477Y29263397D01*
X37227Y29314580D01*
X-1731Y29323472D01*
X-1735Y29323473D01*
X-1744Y29323474D01*
X-270007Y29353700D01*
X-270011Y29353700D01*
X-539989Y29353700D01*
X-539994Y29353700D01*
X-808257Y29323474D01*
X-808269Y29323472D01*
X-1071478Y29263397D01*
X-1071490Y29263393D01*
X-1326299Y29174231D01*
X-1326313Y29174225D01*
X-1569545Y29057091D01*
X-1798143Y28913453D01*
X-2009221Y28745125D01*
X-2200125Y28554221D01*
X-2368453Y28343143D01*
X-2512091Y28114545D01*
X-2629225Y27871313D01*
X-2629229Y27871304D01*
X-2672103Y27748778D01*
X-2687065Y27727919D01*
X-2698621Y27704989D01*
X-2707095Y27699994D01*
X-2712825Y27692003D01*
X-2736690Y27682544D01*
X-2758808Y27669502D01*
X-2768636Y27669881D01*
X-2777778Y27666256D01*
X-2802973Y27671202D01*
X-2828626Y27672188D01*
X-2836689Y27677819D01*
X-2846339Y27679713D01*
X-2864859Y27697493D01*
X-2885909Y27712193D01*
X-2889648Y27721290D01*
X-2896742Y27728100D01*
X-2902711Y27753075D01*
X-2912469Y27776818D01*
X-2911904Y27791538D01*
X-2912983Y27796056D01*
X-2911115Y27812075D01*
X-2886938Y27944008D01*
X-2883355Y27958539D01*
X-2862683Y28024877D01*
X-2808798Y28197798D01*
X-2803496Y28211781D01*
X-2700639Y28440321D01*
X-2693680Y28453579D01*
X-2691639Y28456955D01*
X-2564025Y28668054D01*
X-2555538Y28680350D01*
X-2400966Y28877646D01*
X-2391051Y28888837D01*
X-2213837Y29066051D01*
X-2202646Y29075966D01*
X-2005350Y29230538D01*
X-1993054Y29239025D01*
X-1778579Y29368681D01*
X-1765320Y29375639D01*
X-1706110Y29402287D01*
X-1536781Y29478496D01*
X-1522798Y29483798D01*
X-1283533Y29558357D01*
X-1269005Y29561938D01*
X-1022494Y29607112D01*
X-1007641Y29608916D01*
X-753736Y29624274D01*
X-746249Y29624500D01*
X-702405Y29624500D01*
X6783510Y29624500D01*
X6850549Y29604815D01*
G37*
%TD.AperFunction*%
%TD*%
%TA.AperFunction,Conductor*%
%TO.N,+24V_FILTERED*%
G36*
X51428736Y29624274D02*
G01*
X51682638Y29608916D01*
X51697495Y29607112D01*
X51944000Y29561939D01*
X51958536Y29558356D01*
X52197791Y29483800D01*
X52211788Y29478492D01*
X52440319Y29375639D01*
X52453578Y29368680D01*
X52560808Y29303857D01*
X52668045Y29239030D01*
X52680356Y29230532D01*
X52877636Y29075973D01*
X52888844Y29066043D01*
X53066042Y28888845D01*
X53075972Y28877637D01*
X53212243Y28703700D01*
X53230527Y28680363D01*
X53239033Y28668040D01*
X53368679Y28453579D01*
X53375638Y28440320D01*
X53478491Y28211789D01*
X53483800Y28197789D01*
X53558354Y27958539D01*
X53561938Y27943999D01*
X53607110Y27697500D01*
X53608915Y27682636D01*
X53624274Y27428737D01*
X53624500Y27421250D01*
X53624500Y3929428D01*
X53624184Y3920582D01*
X53607834Y3691983D01*
X53605316Y3674471D01*
X53557543Y3454863D01*
X53552559Y3437888D01*
X53474019Y3227312D01*
X53466669Y3211218D01*
X53358959Y3013964D01*
X53349394Y2999081D01*
X53214710Y2819164D01*
X53203124Y2805793D01*
X53044207Y2646876D01*
X53030836Y2635290D01*
X52850919Y2500606D01*
X52836036Y2491041D01*
X52638782Y2383331D01*
X52622688Y2375981D01*
X52412112Y2297441D01*
X52395137Y2292457D01*
X52175529Y2244684D01*
X52158017Y2242166D01*
X51929418Y2225816D01*
X51920572Y2225500D01*
X40931093Y2225500D01*
X40918939Y2226097D01*
X40868081Y2231107D01*
X40800688Y2237744D01*
X40776848Y2242486D01*
X40668997Y2275202D01*
X40646541Y2284504D01*
X40547150Y2337630D01*
X40526940Y2351134D01*
X40439820Y2422631D01*
X40422630Y2439821D01*
X40351133Y2526941D01*
X40337629Y2547151D01*
X40298441Y2620466D01*
X40284501Y2646547D01*
X40275201Y2668998D01*
X40255881Y2732689D01*
X40242483Y2776855D01*
X40237744Y2800683D01*
X40226097Y2918939D01*
X40225500Y2931093D01*
X40225500Y7467786D01*
X40225474Y7468169D01*
X40225462Y7522747D01*
X40225461Y7522760D01*
X40197505Y7698721D01*
X40193243Y7725549D01*
X40129600Y7920777D01*
X40078194Y8021304D01*
X40036112Y8103597D01*
X40033831Y8106724D01*
X39915090Y8269488D01*
X39769538Y8414330D01*
X39603061Y8534538D01*
X39576334Y8548041D01*
X39419788Y8627131D01*
X39419779Y8627135D01*
X39224243Y8689822D01*
X39021297Y8721048D01*
X39021294Y8721048D01*
X39020431Y8721044D01*
X38965998Y8720792D01*
X38965820Y8720802D01*
X38907361Y8720516D01*
X38907362Y8720515D01*
X38871031Y8720337D01*
X38871030Y8720337D01*
X38841874Y8720195D01*
X34874608Y8700747D01*
X34807473Y8720103D01*
X34761459Y8772682D01*
X34750000Y8824746D01*
X34750000Y14750000D01*
X34712553Y14750000D01*
X34645514Y14769685D01*
X34599759Y14822489D01*
X34589815Y14891647D01*
X34592774Y14906075D01*
X34603700Y14946852D01*
X34603700Y15053148D01*
X34576189Y15155823D01*
X34523041Y15247878D01*
X34447878Y15323041D01*
X34395731Y15353148D01*
X37096300Y15353148D01*
X37096300Y15246852D01*
X37123811Y15144177D01*
X37176959Y15052122D01*
X37252122Y14976959D01*
X37344177Y14923811D01*
X37446852Y14896300D01*
X37446854Y14896300D01*
X37553146Y14896300D01*
X37553148Y14896300D01*
X37655823Y14923811D01*
X37747878Y14976959D01*
X37823041Y15052122D01*
X37876189Y15144177D01*
X37903700Y15246852D01*
X37903700Y15353148D01*
X37876189Y15455823D01*
X37823041Y15547878D01*
X37747878Y15623041D01*
X37655823Y15676189D01*
X37553148Y15703700D01*
X37446852Y15703700D01*
X37344177Y15676189D01*
X37344175Y15676188D01*
X37344174Y15676188D01*
X37252125Y15623043D01*
X37252119Y15623039D01*
X37176961Y15547881D01*
X37176957Y15547875D01*
X37123812Y15455826D01*
X37123812Y15455825D01*
X37123811Y15455823D01*
X37096300Y15353148D01*
X34395731Y15353148D01*
X34355823Y15376189D01*
X34253148Y15403700D01*
X34146852Y15403700D01*
X34044177Y15376189D01*
X34044175Y15376188D01*
X34044174Y15376188D01*
X33952125Y15323043D01*
X33952118Y15323038D01*
X33933491Y15304411D01*
X33872168Y15270927D01*
X33802476Y15275913D01*
X33770324Y15293719D01*
X33769328Y15294483D01*
X33769324Y15294487D01*
X33677269Y15347635D01*
X33574594Y15375146D01*
X33468298Y15375146D01*
X33365623Y15347635D01*
X33365621Y15347634D01*
X33365620Y15347634D01*
X33273571Y15294489D01*
X33273565Y15294485D01*
X33198407Y15219327D01*
X33198403Y15219321D01*
X33192152Y15208494D01*
X33141584Y15160279D01*
X33072977Y15147058D01*
X33008112Y15173027D01*
X32968832Y15226505D01*
X32962238Y15243883D01*
X32962238Y15251193D01*
X32931319Y15366584D01*
X32890693Y15436950D01*
X32879795Y15455826D01*
X32871591Y15470037D01*
X32871587Y15470042D01*
X32129228Y16212402D01*
X32095743Y16273725D01*
X32100727Y16343417D01*
X32117685Y16374451D01*
X32125657Y16385089D01*
X32141985Y16399236D01*
X32160218Y16417101D01*
X32191305Y16472678D01*
X32196264Y16479293D01*
X32217889Y16495463D01*
X32237175Y16514358D01*
X32245452Y16516071D01*
X32252222Y16521132D01*
X32279156Y16523043D01*
X32305595Y16528512D01*
X32320304Y16525962D01*
X32321917Y16526076D01*
X32322971Y16525500D01*
X32327578Y16524701D01*
X32340269Y16521300D01*
X32340271Y16521300D01*
X32459728Y16521300D01*
X32459731Y16521300D01*
X32575122Y16552219D01*
X32678578Y16611950D01*
X32763050Y16696422D01*
X32822781Y16799878D01*
X32853700Y16915269D01*
X32853700Y17034731D01*
X32822781Y17150122D01*
X32763050Y17253578D01*
X32678578Y17338050D01*
X32575122Y17397781D01*
X32459731Y17428700D01*
X32357700Y17428700D01*
X32290661Y17448385D01*
X32244906Y17501189D01*
X32233700Y17552700D01*
X32233700Y17621151D01*
X32231696Y17642127D01*
X32229928Y17660645D01*
X32221045Y17706733D01*
X32219895Y17712294D01*
X32181937Y17792499D01*
X32171054Y17861509D01*
X32199210Y17925454D01*
X32257467Y17964027D01*
X32327330Y17964979D01*
X32341468Y17960101D01*
X32347875Y17957448D01*
X32347884Y17957443D01*
X32450559Y17929932D01*
X32450561Y17929932D01*
X32556853Y17929932D01*
X32556855Y17929932D01*
X32659530Y17957443D01*
X32751585Y18010591D01*
X32826748Y18085754D01*
X32879896Y18177809D01*
X32907407Y18280484D01*
X32907407Y18386780D01*
X32879896Y18489455D01*
X32826748Y18581510D01*
X32751585Y18656673D01*
X32659530Y18709821D01*
X32556855Y18737332D01*
X32450559Y18737332D01*
X32347884Y18709821D01*
X32347882Y18709820D01*
X32347881Y18709820D01*
X32255832Y18656675D01*
X32255829Y18656673D01*
X32229211Y18630055D01*
X32223882Y18627146D01*
X32220480Y18622118D01*
X32193575Y18610598D01*
X32167887Y18596571D01*
X32161830Y18597005D01*
X32156251Y18594615D01*
X32127391Y18599469D01*
X32098196Y18601557D01*
X32093336Y18605196D01*
X32087349Y18606202D01*
X32065691Y18625891D01*
X32042263Y18643429D01*
X32038992Y18650162D01*
X32035649Y18653201D01*
X32021756Y18685646D01*
X32004225Y18751075D01*
X32000000Y18783167D01*
X32000000Y19167279D01*
X32019685Y19234318D01*
X32072489Y19280073D01*
X32141647Y19290017D01*
X32185999Y19274667D01*
X32224878Y19252219D01*
X32340269Y19221300D01*
X32340271Y19221300D01*
X32459728Y19221300D01*
X32459731Y19221300D01*
X32575122Y19252219D01*
X32678578Y19311950D01*
X32763050Y19396422D01*
X32822781Y19499878D01*
X32853700Y19615269D01*
X32853700Y19734731D01*
X32822781Y19850122D01*
X32763050Y19953578D01*
X32678578Y20038050D01*
X32575122Y20097781D01*
X32459731Y20128700D01*
X32340269Y20128700D01*
X32224878Y20097781D01*
X32224876Y20097781D01*
X32224876Y20097780D01*
X32121422Y20038050D01*
X32121419Y20038048D01*
X32036952Y19953581D01*
X32036950Y19953578D01*
X31977219Y19850122D01*
X31946300Y19734731D01*
X31946300Y19615269D01*
X31977219Y19499878D01*
X31977220Y19499877D01*
X32014099Y19436001D01*
X32030572Y19368101D01*
X32007720Y19302074D01*
X31952799Y19258883D01*
X31906712Y19250000D01*
X29301362Y19250000D01*
X29234323Y19269685D01*
X29213681Y19286319D01*
X29000000Y19500000D01*
X28301362Y19500000D01*
X28234323Y19519685D01*
X28213681Y19536319D01*
X27500000Y20250000D01*
X26573540Y20250000D01*
X26559731Y20253700D01*
X26440269Y20253700D01*
X26426460Y20250000D01*
X25389863Y20250000D01*
X25367819Y20252902D01*
X25367785Y20252639D01*
X25359734Y20253699D01*
X25359731Y20253700D01*
X25240269Y20253700D01*
X25240265Y20253699D01*
X25232215Y20252639D01*
X25232180Y20252902D01*
X25210137Y20250000D01*
X24173540Y20250000D01*
X24159731Y20253700D01*
X24040269Y20253700D01*
X24026460Y20250000D01*
X23874000Y20250000D01*
X23806961Y20269685D01*
X23761206Y20322489D01*
X23750000Y20374000D01*
X23750000Y21553148D01*
X31096300Y21553148D01*
X31096300Y21446852D01*
X31123811Y21344177D01*
X31176959Y21252122D01*
X31252122Y21176959D01*
X31344177Y21123811D01*
X31446852Y21096300D01*
X31446854Y21096300D01*
X31553146Y21096300D01*
X31553148Y21096300D01*
X31655823Y21123811D01*
X31747878Y21176959D01*
X31823041Y21252122D01*
X31876189Y21344177D01*
X31903700Y21446852D01*
X31903700Y21553148D01*
X31876189Y21655823D01*
X31823041Y21747878D01*
X31767771Y21803148D01*
X33596300Y21803148D01*
X33596300Y21696852D01*
X33623811Y21594177D01*
X33676959Y21502122D01*
X33752122Y21426959D01*
X33844177Y21373811D01*
X33946852Y21346300D01*
X33946854Y21346300D01*
X34053146Y21346300D01*
X34053148Y21346300D01*
X34155823Y21373811D01*
X34247878Y21426959D01*
X34323041Y21502122D01*
X34376189Y21594177D01*
X34403700Y21696852D01*
X34403700Y21696855D01*
X34405720Y21704393D01*
X34442085Y21764054D01*
X34504931Y21794583D01*
X34525495Y21796300D01*
X34603146Y21796300D01*
X34603148Y21796300D01*
X34705823Y21823811D01*
X34797878Y21876959D01*
X34873041Y21952122D01*
X34926189Y22044177D01*
X34953700Y22146852D01*
X34953700Y22153148D01*
X35596300Y22153148D01*
X35596300Y22046852D01*
X35623811Y21944177D01*
X35676959Y21852122D01*
X35752122Y21776959D01*
X35844177Y21723811D01*
X35946852Y21696300D01*
X35946854Y21696300D01*
X36053146Y21696300D01*
X36053148Y21696300D01*
X36155823Y21723811D01*
X36247878Y21776959D01*
X36323041Y21852122D01*
X36376189Y21944177D01*
X36403700Y22046852D01*
X36403700Y22153148D01*
X36376189Y22255823D01*
X36323041Y22347878D01*
X36247878Y22423041D01*
X36155823Y22476189D01*
X36053148Y22503700D01*
X35946852Y22503700D01*
X35844177Y22476189D01*
X35844175Y22476188D01*
X35844174Y22476188D01*
X35752125Y22423043D01*
X35752119Y22423039D01*
X35676961Y22347881D01*
X35676957Y22347875D01*
X35623812Y22255826D01*
X35623812Y22255825D01*
X35623811Y22255823D01*
X35596300Y22153148D01*
X34953700Y22153148D01*
X34953700Y22253148D01*
X34926189Y22355823D01*
X34873041Y22447878D01*
X34797878Y22523041D01*
X34705823Y22576189D01*
X34603148Y22603700D01*
X34496852Y22603700D01*
X34394177Y22576189D01*
X34394175Y22576188D01*
X34394174Y22576188D01*
X34302125Y22523043D01*
X34302119Y22523039D01*
X34226961Y22447881D01*
X34226957Y22447875D01*
X34173812Y22355826D01*
X34173812Y22355825D01*
X34173811Y22355823D01*
X34146300Y22253148D01*
X34146300Y22253147D01*
X34144280Y22245607D01*
X34107915Y22185946D01*
X34045069Y22155417D01*
X34024505Y22153700D01*
X33946852Y22153700D01*
X33844177Y22126189D01*
X33844175Y22126188D01*
X33844174Y22126188D01*
X33752125Y22073043D01*
X33752119Y22073039D01*
X33676961Y21997881D01*
X33676957Y21997875D01*
X33623812Y21905826D01*
X33623812Y21905825D01*
X33623811Y21905823D01*
X33596300Y21803148D01*
X31767771Y21803148D01*
X31747878Y21823041D01*
X31655823Y21876189D01*
X31553148Y21903700D01*
X31446852Y21903700D01*
X31344177Y21876189D01*
X31344175Y21876188D01*
X31344174Y21876188D01*
X31252125Y21823043D01*
X31252119Y21823039D01*
X31176961Y21747881D01*
X31176957Y21747875D01*
X31123812Y21655826D01*
X31123812Y21655825D01*
X31123811Y21655823D01*
X31096300Y21553148D01*
X23750000Y21553148D01*
X23750000Y23103148D01*
X29996300Y23103148D01*
X29996300Y22996852D01*
X30023811Y22894177D01*
X30076959Y22802122D01*
X30152122Y22726959D01*
X30244177Y22673811D01*
X30346852Y22646300D01*
X30346854Y22646300D01*
X30453146Y22646300D01*
X30453148Y22646300D01*
X30555823Y22673811D01*
X30647878Y22726959D01*
X30668755Y22747837D01*
X30730074Y22781320D01*
X30799765Y22776337D01*
X30818434Y22767541D01*
X30894177Y22723811D01*
X30996852Y22696300D01*
X30996854Y22696300D01*
X31103146Y22696300D01*
X31103148Y22696300D01*
X31205823Y22723811D01*
X31297878Y22776959D01*
X31373041Y22852122D01*
X31426189Y22944177D01*
X31453700Y23046852D01*
X31453700Y23153148D01*
X31426189Y23255823D01*
X31373041Y23347878D01*
X31297878Y23423041D01*
X31205823Y23476189D01*
X31103148Y23503700D01*
X30996852Y23503700D01*
X30894177Y23476189D01*
X30894175Y23476188D01*
X30894174Y23476188D01*
X30802125Y23423043D01*
X30802121Y23423041D01*
X30781242Y23402162D01*
X30719918Y23368680D01*
X30650226Y23373667D01*
X30631564Y23382460D01*
X30555825Y23426188D01*
X30555824Y23426189D01*
X30555823Y23426189D01*
X30453148Y23453700D01*
X30346852Y23453700D01*
X30244177Y23426189D01*
X30244175Y23426188D01*
X30244174Y23426188D01*
X30152125Y23373043D01*
X30152119Y23373039D01*
X30076961Y23297881D01*
X30076957Y23297875D01*
X30023812Y23205826D01*
X30023812Y23205825D01*
X30023811Y23205823D01*
X29996300Y23103148D01*
X23750000Y23103148D01*
X23750000Y23953148D01*
X31646300Y23953148D01*
X31646300Y23846852D01*
X31673811Y23744177D01*
X31726959Y23652122D01*
X31802122Y23576959D01*
X31894177Y23523811D01*
X31996852Y23496300D01*
X31996854Y23496300D01*
X32103146Y23496300D01*
X32103148Y23496300D01*
X32205823Y23523811D01*
X32297878Y23576959D01*
X32373041Y23652122D01*
X32426189Y23744177D01*
X32430225Y23759244D01*
X32466589Y23818903D01*
X32529435Y23849433D01*
X32598811Y23841139D01*
X32652690Y23796654D01*
X32669773Y23759245D01*
X32673811Y23744177D01*
X32726959Y23652122D01*
X32802122Y23576959D01*
X32894177Y23523811D01*
X32996852Y23496300D01*
X32996854Y23496300D01*
X33103146Y23496300D01*
X33103148Y23496300D01*
X33205823Y23523811D01*
X33297878Y23576959D01*
X33373041Y23652122D01*
X33426189Y23744177D01*
X33453700Y23846852D01*
X33453700Y23953148D01*
X33696300Y23953148D01*
X33696300Y23846852D01*
X33723811Y23744177D01*
X33776959Y23652122D01*
X33852122Y23576959D01*
X33944177Y23523811D01*
X34046852Y23496300D01*
X34046854Y23496300D01*
X34153146Y23496300D01*
X34153148Y23496300D01*
X34255823Y23523811D01*
X34347878Y23576959D01*
X34423041Y23652122D01*
X34476189Y23744177D01*
X34503700Y23846852D01*
X34503700Y23953148D01*
X34476189Y24055823D01*
X34423041Y24147878D01*
X34347878Y24223041D01*
X34255823Y24276189D01*
X34153148Y24303700D01*
X34046852Y24303700D01*
X33944177Y24276189D01*
X33944175Y24276188D01*
X33944174Y24276188D01*
X33852125Y24223043D01*
X33852119Y24223039D01*
X33776961Y24147881D01*
X33776957Y24147875D01*
X33723812Y24055826D01*
X33723812Y24055825D01*
X33723811Y24055823D01*
X33696300Y23953148D01*
X33453700Y23953148D01*
X33426189Y24055823D01*
X33373041Y24147878D01*
X33297878Y24223041D01*
X33205823Y24276189D01*
X33103148Y24303700D01*
X32996852Y24303700D01*
X32894177Y24276189D01*
X32894175Y24276188D01*
X32894174Y24276188D01*
X32802125Y24223043D01*
X32802119Y24223039D01*
X32726961Y24147881D01*
X32726957Y24147875D01*
X32673812Y24055826D01*
X32673812Y24055825D01*
X32673811Y24055823D01*
X32669774Y24040757D01*
X32633410Y23981097D01*
X32570563Y23950568D01*
X32501188Y23958863D01*
X32447310Y24003348D01*
X32430226Y24040756D01*
X32426189Y24055823D01*
X32373041Y24147878D01*
X32297878Y24223041D01*
X32205823Y24276189D01*
X32103148Y24303700D01*
X31996852Y24303700D01*
X31894177Y24276189D01*
X31894175Y24276188D01*
X31894174Y24276188D01*
X31802125Y24223043D01*
X31802119Y24223039D01*
X31726961Y24147881D01*
X31726957Y24147875D01*
X31673812Y24055826D01*
X31673812Y24055825D01*
X31673811Y24055823D01*
X31646300Y23953148D01*
X23750000Y23953148D01*
X23750000Y28353148D01*
X41096300Y28353148D01*
X41096300Y28246852D01*
X41123811Y28144177D01*
X41176959Y28052122D01*
X41252122Y27976959D01*
X41344177Y27923811D01*
X41446852Y27896300D01*
X41446854Y27896300D01*
X41553146Y27896300D01*
X41553148Y27896300D01*
X41655823Y27923811D01*
X41747878Y27976959D01*
X41823041Y28052122D01*
X41876189Y28144177D01*
X41903700Y28246852D01*
X41903700Y28353148D01*
X41876189Y28455823D01*
X41823041Y28547878D01*
X41747878Y28623041D01*
X41686508Y28658473D01*
X41655825Y28676188D01*
X41655824Y28676189D01*
X41655823Y28676189D01*
X41553148Y28703700D01*
X41446852Y28703700D01*
X41344177Y28676189D01*
X41344175Y28676188D01*
X41344174Y28676188D01*
X41252125Y28623043D01*
X41252119Y28623039D01*
X41176961Y28547881D01*
X41176957Y28547875D01*
X41123812Y28455826D01*
X41123812Y28455825D01*
X41123811Y28455823D01*
X41096300Y28353148D01*
X23750000Y28353148D01*
X23750000Y29500500D01*
X23769685Y29567539D01*
X23822489Y29613294D01*
X23874000Y29624500D01*
X51377405Y29624500D01*
X51421249Y29624500D01*
X51428736Y29624274D01*
G37*
%TD.AperFunction*%
%TD*%
M02*
