%TF.GenerationSoftware,KiCad,Pcbnew,9.0.7*%
%TF.CreationDate,2026-03-06T11:51:23+01:00*%
%TF.ProjectId,PDNode-PDCard-4242,50444e6f-6465-42d5-9044-436172642d34,rev?*%
%TF.SameCoordinates,PX102846b8PY6584c50*%
%TF.FileFunction,Soldermask,Bot*%
%TF.FilePolarity,Negative*%
%FSLAX46Y46*%
G04 Gerber Fmt 4.6, Leading zero omitted, Abs format (unit mm)*
G04 Created by KiCad (PCBNEW 9.0.7) date 2026-03-06 11:51:23*
%MOMM*%
%LPD*%
G01*
G04 APERTURE LIST*
G04 APERTURE END LIST*
G36*
X38989632Y5873559D02*
G01*
X39016668Y5862360D01*
X39037360Y5841668D01*
X39048559Y5814632D01*
X39050000Y5800000D01*
X39050000Y-800000D01*
X39048559Y-814632D01*
X39037360Y-841668D01*
X39016668Y-862360D01*
X38989632Y-873559D01*
X38975000Y-875000D01*
X38972546Y-875000D01*
X16152454Y-875000D01*
X16150000Y-875000D01*
X16135368Y-873559D01*
X16108332Y-862360D01*
X16087640Y-841668D01*
X16076441Y-814632D01*
X16075000Y-800000D01*
X16075000Y5800000D01*
X16076441Y5814632D01*
X16087640Y5841668D01*
X16108332Y5862360D01*
X16135368Y5873559D01*
X16150000Y5875000D01*
X38975000Y5875000D01*
X38989632Y5873559D01*
G37*
G36*
X2454736Y3974276D02*
G01*
X2575687Y3904444D01*
X2674444Y3805687D01*
X2744276Y3684736D01*
X2780423Y3549832D01*
X2780423Y3410168D01*
X2744276Y3275264D01*
X2674444Y3154313D01*
X2575687Y3055556D01*
X2454736Y2985724D01*
X2319832Y2949577D01*
X2180168Y2949577D01*
X2045264Y2985724D01*
X1924313Y3055556D01*
X1825556Y3154313D01*
X1755724Y3275264D01*
X1719577Y3410168D01*
X1719577Y3549832D01*
X1755724Y3684736D01*
X1825556Y3805687D01*
X1924313Y3904444D01*
X2045264Y3974276D01*
X2180168Y4010423D01*
X2319832Y4010423D01*
X2454736Y3974276D01*
G37*
G36*
X11183939Y7598358D02*
G01*
X11263067Y7552674D01*
X11327674Y7488067D01*
X11373358Y7408939D01*
X11397006Y7320684D01*
X11397006Y7229316D01*
X11373358Y7141061D01*
X11327674Y7061933D01*
X11263067Y6997326D01*
X11183939Y6951642D01*
X11095684Y6927994D01*
X11004316Y6927994D01*
X10916061Y6951642D01*
X10836933Y6997326D01*
X10772326Y7061933D01*
X10726642Y7141061D01*
X10702994Y7229316D01*
X10702994Y7320684D01*
X10726642Y7408939D01*
X10772326Y7488067D01*
X10836933Y7552674D01*
X10916061Y7598358D01*
X11004316Y7622006D01*
X11095684Y7622006D01*
X11183939Y7598358D01*
G37*
G36*
X48993685Y9322031D02*
G01*
X49002358Y9318202D01*
X49009925Y9317099D01*
X49057223Y9293977D01*
X49094541Y9277499D01*
X49097996Y9274044D01*
X49098920Y9273592D01*
X49168591Y9203921D01*
X49169042Y9202998D01*
X49172499Y9199541D01*
X49188978Y9162218D01*
X49212098Y9114927D01*
X49213200Y9107361D01*
X49217031Y9098685D01*
X49225000Y9030000D01*
X49225000Y8530000D01*
X49217031Y8461315D01*
X49213199Y8452639D01*
X49212098Y8445075D01*
X49188985Y8397798D01*
X49172499Y8360459D01*
X49169041Y8357002D01*
X49168591Y8356080D01*
X49098920Y8286409D01*
X49097998Y8285959D01*
X49094541Y8282501D01*
X49057207Y8266017D01*
X49009926Y8242902D01*
X49002361Y8241800D01*
X48993685Y8237969D01*
X48925000Y8230000D01*
X46925000Y8230000D01*
X46856315Y8237969D01*
X46847638Y8241800D01*
X46840074Y8242902D01*
X46792787Y8266019D01*
X46755459Y8282501D01*
X46752002Y8285958D01*
X46751079Y8286409D01*
X46681408Y8356080D01*
X46680956Y8357004D01*
X46677501Y8360459D01*
X46661025Y8397772D01*
X46637901Y8445074D01*
X46636798Y8452643D01*
X46632969Y8461315D01*
X46625000Y8530000D01*
X46625000Y9030000D01*
X46632969Y9098685D01*
X46636798Y9107358D01*
X46637901Y9114926D01*
X46661028Y9162234D01*
X46677501Y9199541D01*
X46680955Y9202996D01*
X46681408Y9203921D01*
X46751079Y9273592D01*
X46752004Y9274045D01*
X46755459Y9277499D01*
X46792761Y9293970D01*
X46840073Y9317099D01*
X46847642Y9318202D01*
X46856315Y9322031D01*
X46925000Y9330000D01*
X48925000Y9330000D01*
X48993685Y9322031D01*
G37*
G36*
X2454736Y9514276D02*
G01*
X2575687Y9444444D01*
X2674444Y9345687D01*
X2744276Y9224736D01*
X2780423Y9089832D01*
X2780423Y8950168D01*
X2744276Y8815264D01*
X2674444Y8694313D01*
X2575687Y8595556D01*
X2454736Y8525724D01*
X2319832Y8489577D01*
X2180168Y8489577D01*
X2045264Y8525724D01*
X1924313Y8595556D01*
X1825556Y8694313D01*
X1755724Y8815264D01*
X1719577Y8950168D01*
X1719577Y9089832D01*
X1755724Y9224736D01*
X1825556Y9345687D01*
X1924313Y9444444D01*
X2045264Y9514276D01*
X2180168Y9550423D01*
X2319832Y9550423D01*
X2454736Y9514276D01*
G37*
G36*
X898080Y9259966D02*
G01*
X962154Y9217154D01*
X1004966Y9153080D01*
X1020000Y9077500D01*
X1020000Y8782500D01*
X1004966Y8706920D01*
X962154Y8642846D01*
X898080Y8600034D01*
X822500Y8585000D01*
X477500Y8585000D01*
X401920Y8600034D01*
X337846Y8642846D01*
X295034Y8706920D01*
X280000Y8782500D01*
X280000Y9077500D01*
X295034Y9153080D01*
X337846Y9217154D01*
X401920Y9259966D01*
X477500Y9275000D01*
X822500Y9275000D01*
X898080Y9259966D01*
G37*
G36*
X36033939Y9973358D02*
G01*
X36113067Y9927674D01*
X36177674Y9863067D01*
X36223358Y9783939D01*
X36247006Y9695684D01*
X36247006Y9604316D01*
X36223358Y9516061D01*
X36177674Y9436933D01*
X36113067Y9372326D01*
X36033939Y9326642D01*
X35945684Y9302994D01*
X35854316Y9302994D01*
X35766061Y9326642D01*
X35686933Y9372326D01*
X35622326Y9436933D01*
X35576642Y9516061D01*
X35552994Y9604316D01*
X35552994Y9695684D01*
X35576642Y9783939D01*
X35622326Y9863067D01*
X35686933Y9927674D01*
X35766061Y9973358D01*
X35854316Y9997006D01*
X35945684Y9997006D01*
X36033939Y9973358D01*
G37*
G36*
X898080Y10229966D02*
G01*
X962154Y10187154D01*
X1004966Y10123080D01*
X1020000Y10047500D01*
X1020000Y9752500D01*
X1004966Y9676920D01*
X962154Y9612846D01*
X898080Y9570034D01*
X822500Y9555000D01*
X477500Y9555000D01*
X401920Y9570034D01*
X337846Y9612846D01*
X295034Y9676920D01*
X280000Y9752500D01*
X280000Y10047500D01*
X295034Y10123080D01*
X337846Y10187154D01*
X401920Y10229966D01*
X477500Y10245000D01*
X822500Y10245000D01*
X898080Y10229966D01*
G37*
G36*
X1945796Y10855918D02*
G01*
X2005815Y10815815D01*
X2045918Y10755796D01*
X2060000Y10685000D01*
X2060000Y10315000D01*
X2045918Y10244204D01*
X2005815Y10184185D01*
X1945796Y10144082D01*
X1875000Y10130000D01*
X1605000Y10130000D01*
X1534204Y10144082D01*
X1474185Y10184185D01*
X1434082Y10244204D01*
X1420000Y10315000D01*
X1420000Y10685000D01*
X1434082Y10755796D01*
X1474185Y10815815D01*
X1534204Y10855918D01*
X1605000Y10870000D01*
X1875000Y10870000D01*
X1945796Y10855918D01*
G37*
G36*
X2965796Y10855918D02*
G01*
X3025815Y10815815D01*
X3065918Y10755796D01*
X3080000Y10685000D01*
X3080000Y10315000D01*
X3065918Y10244204D01*
X3025815Y10184185D01*
X2965796Y10144082D01*
X2895000Y10130000D01*
X2625000Y10130000D01*
X2554204Y10144082D01*
X2494185Y10184185D01*
X2454082Y10244204D01*
X2440000Y10315000D01*
X2440000Y10685000D01*
X2454082Y10755796D01*
X2494185Y10815815D01*
X2554204Y10855918D01*
X2625000Y10870000D01*
X2895000Y10870000D01*
X2965796Y10855918D01*
G37*
G36*
X48993685Y11862031D02*
G01*
X49002358Y11858202D01*
X49009925Y11857099D01*
X49057223Y11833977D01*
X49094541Y11817499D01*
X49097996Y11814044D01*
X49098920Y11813592D01*
X49168591Y11743921D01*
X49169042Y11742998D01*
X49172499Y11739541D01*
X49188978Y11702218D01*
X49212098Y11654927D01*
X49213200Y11647361D01*
X49217031Y11638685D01*
X49225000Y11570000D01*
X49225000Y11070000D01*
X49217031Y11001315D01*
X49213199Y10992639D01*
X49212098Y10985075D01*
X49188985Y10937798D01*
X49172499Y10900459D01*
X49169041Y10897002D01*
X49168591Y10896080D01*
X49098920Y10826409D01*
X49097998Y10825959D01*
X49094541Y10822501D01*
X49057207Y10806017D01*
X49009926Y10782902D01*
X49002361Y10781800D01*
X48993685Y10777969D01*
X48925000Y10770000D01*
X46925000Y10770000D01*
X46856315Y10777969D01*
X46847638Y10781800D01*
X46840074Y10782902D01*
X46792787Y10806019D01*
X46755459Y10822501D01*
X46752002Y10825958D01*
X46751079Y10826409D01*
X46681408Y10896080D01*
X46680956Y10897004D01*
X46677501Y10900459D01*
X46661025Y10937772D01*
X46637901Y10985074D01*
X46636798Y10992643D01*
X46632969Y11001315D01*
X46625000Y11070000D01*
X46625000Y11570000D01*
X46632969Y11638685D01*
X46636798Y11647358D01*
X46637901Y11654926D01*
X46661028Y11702234D01*
X46677501Y11739541D01*
X46680955Y11742996D01*
X46681408Y11743921D01*
X46751079Y11813592D01*
X46752004Y11814045D01*
X46755459Y11817499D01*
X46792761Y11833970D01*
X46840073Y11857099D01*
X46847642Y11858202D01*
X46856315Y11862031D01*
X46925000Y11870000D01*
X48925000Y11870000D01*
X48993685Y11862031D01*
G37*
G36*
X1621789Y12425295D02*
G01*
X1760476Y12388134D01*
X1884819Y12316344D01*
X1986344Y12214819D01*
X2058134Y12090476D01*
X2095295Y11951789D01*
X2095295Y11808211D01*
X2058134Y11669524D01*
X1986344Y11545181D01*
X1884819Y11443656D01*
X1760476Y11371866D01*
X1621789Y11334705D01*
X1550000Y11330000D01*
X1548363Y11330000D01*
X951637Y11330000D01*
X950000Y11330000D01*
X878211Y11334705D01*
X739524Y11371866D01*
X615181Y11443656D01*
X513656Y11545181D01*
X441866Y11669524D01*
X404705Y11808211D01*
X404705Y11951789D01*
X441866Y12090476D01*
X513656Y12214819D01*
X615181Y12316344D01*
X739524Y12388134D01*
X878211Y12425295D01*
X950000Y12430000D01*
X1550000Y12430000D01*
X1621789Y12425295D01*
G37*
G36*
X6051789Y12425295D02*
G01*
X6190476Y12388134D01*
X6314819Y12316344D01*
X6416344Y12214819D01*
X6488134Y12090476D01*
X6525295Y11951789D01*
X6525295Y11808211D01*
X6488134Y11669524D01*
X6416344Y11545181D01*
X6314819Y11443656D01*
X6190476Y11371866D01*
X6051789Y11334705D01*
X5980000Y11330000D01*
X5978363Y11330000D01*
X4881637Y11330000D01*
X4880000Y11330000D01*
X4808211Y11334705D01*
X4669524Y11371866D01*
X4545181Y11443656D01*
X4443656Y11545181D01*
X4371866Y11669524D01*
X4334705Y11808211D01*
X4334705Y11951789D01*
X4371866Y12090476D01*
X4443656Y12214819D01*
X4545181Y12316344D01*
X4669524Y12388134D01*
X4808211Y12425295D01*
X4880000Y12430000D01*
X5980000Y12430000D01*
X6051789Y12425295D01*
G37*
G36*
X17383939Y12148358D02*
G01*
X17463067Y12102674D01*
X17527674Y12038067D01*
X17573358Y11958939D01*
X17597006Y11870684D01*
X17597006Y11779316D01*
X17573358Y11691061D01*
X17527674Y11611933D01*
X17463067Y11547326D01*
X17383939Y11501642D01*
X17295684Y11477994D01*
X17204316Y11477994D01*
X17116061Y11501642D01*
X17036933Y11547326D01*
X16972326Y11611933D01*
X16926642Y11691061D01*
X16902994Y11779316D01*
X16902994Y11870684D01*
X16926642Y11958939D01*
X16972326Y12038067D01*
X17036933Y12102674D01*
X17116061Y12148358D01*
X17204316Y12172006D01*
X17295684Y12172006D01*
X17383939Y12148358D01*
G37*
G36*
X32468685Y13367031D02*
G01*
X32477358Y13363202D01*
X32484925Y13362099D01*
X32532223Y13338977D01*
X32569541Y13322499D01*
X32572996Y13319044D01*
X32573920Y13318592D01*
X32643591Y13248921D01*
X32644042Y13247998D01*
X32647499Y13244541D01*
X32663978Y13207218D01*
X32687098Y13159927D01*
X32688200Y13152361D01*
X32692031Y13143685D01*
X32700000Y13075000D01*
X32700000Y12125000D01*
X32692031Y12056315D01*
X32688199Y12047639D01*
X32687098Y12040075D01*
X32663985Y11992798D01*
X32647499Y11955459D01*
X32644041Y11952002D01*
X32643591Y11951080D01*
X32573920Y11881409D01*
X32572998Y11880959D01*
X32569541Y11877501D01*
X32532207Y11861017D01*
X32484926Y11837902D01*
X32477361Y11836800D01*
X32468685Y11832969D01*
X32400000Y11825000D01*
X31900000Y11825000D01*
X31831315Y11832969D01*
X31822638Y11836800D01*
X31815074Y11837902D01*
X31767787Y11861019D01*
X31730459Y11877501D01*
X31727002Y11880958D01*
X31726079Y11881409D01*
X31656408Y11951080D01*
X31655956Y11952004D01*
X31652501Y11955459D01*
X31636025Y11992772D01*
X31612901Y12040074D01*
X31611798Y12047643D01*
X31607969Y12056315D01*
X31600000Y12125000D01*
X31600000Y13075000D01*
X31607969Y13143685D01*
X31611798Y13152358D01*
X31612901Y13159926D01*
X31636028Y13207234D01*
X31652501Y13244541D01*
X31655955Y13247996D01*
X31656408Y13248921D01*
X31726079Y13318592D01*
X31727004Y13319045D01*
X31730459Y13322499D01*
X31767761Y13338970D01*
X31815073Y13362099D01*
X31822642Y13363202D01*
X31831315Y13367031D01*
X31900000Y13375000D01*
X32400000Y13375000D01*
X32468685Y13367031D01*
G37*
G36*
X34368685Y13367031D02*
G01*
X34377358Y13363202D01*
X34384925Y13362099D01*
X34432223Y13338977D01*
X34469541Y13322499D01*
X34472996Y13319044D01*
X34473920Y13318592D01*
X34543591Y13248921D01*
X34544042Y13247998D01*
X34547499Y13244541D01*
X34563978Y13207218D01*
X34587098Y13159927D01*
X34588200Y13152361D01*
X34592031Y13143685D01*
X34600000Y13075000D01*
X34600000Y12125000D01*
X34592031Y12056315D01*
X34588199Y12047639D01*
X34587098Y12040075D01*
X34563985Y11992798D01*
X34547499Y11955459D01*
X34544041Y11952002D01*
X34543591Y11951080D01*
X34473920Y11881409D01*
X34472998Y11880959D01*
X34469541Y11877501D01*
X34432207Y11861017D01*
X34384926Y11837902D01*
X34377361Y11836800D01*
X34368685Y11832969D01*
X34300000Y11825000D01*
X33800000Y11825000D01*
X33731315Y11832969D01*
X33722638Y11836800D01*
X33715074Y11837902D01*
X33667787Y11861019D01*
X33630459Y11877501D01*
X33627002Y11880958D01*
X33626079Y11881409D01*
X33556408Y11951080D01*
X33555956Y11952004D01*
X33552501Y11955459D01*
X33536025Y11992772D01*
X33512901Y12040074D01*
X33511798Y12047643D01*
X33507969Y12056315D01*
X33500000Y12125000D01*
X33500000Y13075000D01*
X33507969Y13143685D01*
X33511798Y13152358D01*
X33512901Y13159926D01*
X33536028Y13207234D01*
X33552501Y13244541D01*
X33555955Y13247996D01*
X33556408Y13248921D01*
X33626079Y13318592D01*
X33627004Y13319045D01*
X33630459Y13322499D01*
X33667761Y13338970D01*
X33715073Y13362099D01*
X33722642Y13363202D01*
X33731315Y13367031D01*
X33800000Y13375000D01*
X34300000Y13375000D01*
X34368685Y13367031D01*
G37*
G36*
X5054372Y13610261D02*
G01*
X5127847Y13567840D01*
X5187840Y13507847D01*
X5230261Y13434372D01*
X5252220Y13352421D01*
X5252220Y13267579D01*
X5230261Y13185628D01*
X5187840Y13112153D01*
X5127847Y13052160D01*
X5054372Y13009739D01*
X4972421Y12987780D01*
X4887579Y12987780D01*
X4805628Y13009739D01*
X4732153Y13052160D01*
X4672160Y13112153D01*
X4629739Y13185628D01*
X4607780Y13267579D01*
X4607780Y13352421D01*
X4629739Y13434372D01*
X4672160Y13507847D01*
X4732153Y13567840D01*
X4805628Y13610261D01*
X4887579Y13632220D01*
X4972421Y13632220D01*
X5054372Y13610261D01*
G37*
G36*
X10233939Y13823358D02*
G01*
X10313067Y13777674D01*
X10377674Y13713067D01*
X10423358Y13633939D01*
X10447006Y13545684D01*
X10447006Y13454316D01*
X10423358Y13366061D01*
X10377674Y13286933D01*
X10313067Y13222326D01*
X10233939Y13176642D01*
X10145684Y13152994D01*
X10054316Y13152994D01*
X9966061Y13176642D01*
X9886933Y13222326D01*
X9822326Y13286933D01*
X9776642Y13366061D01*
X9752994Y13454316D01*
X9752994Y13545684D01*
X9776642Y13633939D01*
X9822326Y13713067D01*
X9886933Y13777674D01*
X9966061Y13823358D01*
X10054316Y13847006D01*
X10145684Y13847006D01*
X10233939Y13823358D01*
G37*
G36*
X48993685Y14402031D02*
G01*
X49002358Y14398202D01*
X49009925Y14397099D01*
X49057223Y14373977D01*
X49094541Y14357499D01*
X49097996Y14354044D01*
X49098920Y14353592D01*
X49168591Y14283921D01*
X49169042Y14282998D01*
X49172499Y14279541D01*
X49188978Y14242218D01*
X49212098Y14194927D01*
X49213200Y14187361D01*
X49217031Y14178685D01*
X49225000Y14110000D01*
X49225000Y13610000D01*
X49217031Y13541315D01*
X49213199Y13532639D01*
X49212098Y13525075D01*
X49188985Y13477798D01*
X49172499Y13440459D01*
X49169041Y13437002D01*
X49168591Y13436080D01*
X49098920Y13366409D01*
X49097998Y13365959D01*
X49094541Y13362501D01*
X49057207Y13346017D01*
X49009926Y13322902D01*
X49002361Y13321800D01*
X48993685Y13317969D01*
X48925000Y13310000D01*
X46925000Y13310000D01*
X46856315Y13317969D01*
X46847638Y13321800D01*
X46840074Y13322902D01*
X46792787Y13346019D01*
X46755459Y13362501D01*
X46752002Y13365958D01*
X46751079Y13366409D01*
X46681408Y13436080D01*
X46680956Y13437004D01*
X46677501Y13440459D01*
X46661025Y13477772D01*
X46637901Y13525074D01*
X46636798Y13532643D01*
X46632969Y13541315D01*
X46625000Y13610000D01*
X46625000Y14110000D01*
X46632969Y14178685D01*
X46636798Y14187358D01*
X46637901Y14194926D01*
X46661028Y14242234D01*
X46677501Y14279541D01*
X46680955Y14282996D01*
X46681408Y14283921D01*
X46751079Y14353592D01*
X46752004Y14354045D01*
X46755459Y14357499D01*
X46792761Y14373970D01*
X46840073Y14397099D01*
X46847642Y14398202D01*
X46856315Y14402031D01*
X46925000Y14410000D01*
X48925000Y14410000D01*
X48993685Y14402031D01*
G37*
G36*
X48993685Y16942031D02*
G01*
X49002358Y16938202D01*
X49009925Y16937099D01*
X49057223Y16913977D01*
X49094541Y16897499D01*
X49097996Y16894044D01*
X49098920Y16893592D01*
X49168591Y16823921D01*
X49169042Y16822998D01*
X49172499Y16819541D01*
X49188978Y16782218D01*
X49212098Y16734927D01*
X49213200Y16727361D01*
X49217031Y16718685D01*
X49225000Y16650000D01*
X49225000Y16150000D01*
X49217031Y16081315D01*
X49213199Y16072639D01*
X49212098Y16065075D01*
X49188985Y16017798D01*
X49172499Y15980459D01*
X49169041Y15977002D01*
X49168591Y15976080D01*
X49098920Y15906409D01*
X49097998Y15905959D01*
X49094541Y15902501D01*
X49057207Y15886017D01*
X49009926Y15862902D01*
X49002361Y15861800D01*
X48993685Y15857969D01*
X48925000Y15850000D01*
X46925000Y15850000D01*
X46856315Y15857969D01*
X46847638Y15861800D01*
X46840074Y15862902D01*
X46792787Y15886019D01*
X46755459Y15902501D01*
X46752002Y15905958D01*
X46751079Y15906409D01*
X46681408Y15976080D01*
X46680956Y15977004D01*
X46677501Y15980459D01*
X46661025Y16017772D01*
X46637901Y16065074D01*
X46636798Y16072643D01*
X46632969Y16081315D01*
X46625000Y16150000D01*
X46625000Y16650000D01*
X46632969Y16718685D01*
X46636798Y16727358D01*
X46637901Y16734926D01*
X46661028Y16782234D01*
X46677501Y16819541D01*
X46680955Y16822996D01*
X46681408Y16823921D01*
X46751079Y16893592D01*
X46752004Y16894045D01*
X46755459Y16897499D01*
X46792761Y16913970D01*
X46840073Y16937099D01*
X46847642Y16938202D01*
X46856315Y16942031D01*
X46925000Y16950000D01*
X48925000Y16950000D01*
X48993685Y16942031D01*
G37*
G36*
X35883939Y18648358D02*
G01*
X35963067Y18602674D01*
X36027674Y18538067D01*
X36073358Y18458939D01*
X36097006Y18370684D01*
X36097006Y18279316D01*
X36073358Y18191061D01*
X36027674Y18111933D01*
X35963067Y18047326D01*
X35883939Y18001642D01*
X35795684Y17977994D01*
X35704316Y17977994D01*
X35616061Y18001642D01*
X35536933Y18047326D01*
X35472326Y18111933D01*
X35426642Y18191061D01*
X35402994Y18279316D01*
X35402994Y18370684D01*
X35426642Y18458939D01*
X35472326Y18538067D01*
X35536933Y18602674D01*
X35616061Y18648358D01*
X35704316Y18672006D01*
X35795684Y18672006D01*
X35883939Y18648358D01*
G37*
G36*
X48993685Y19482031D02*
G01*
X49002358Y19478202D01*
X49009925Y19477099D01*
X49057223Y19453977D01*
X49094541Y19437499D01*
X49097996Y19434044D01*
X49098920Y19433592D01*
X49168591Y19363921D01*
X49169042Y19362998D01*
X49172499Y19359541D01*
X49188978Y19322218D01*
X49212098Y19274927D01*
X49213200Y19267361D01*
X49217031Y19258685D01*
X49225000Y19190000D01*
X49225000Y18690000D01*
X49217031Y18621315D01*
X49213199Y18612639D01*
X49212098Y18605075D01*
X49188985Y18557798D01*
X49172499Y18520459D01*
X49169041Y18517002D01*
X49168591Y18516080D01*
X49098920Y18446409D01*
X49097998Y18445959D01*
X49094541Y18442501D01*
X49057207Y18426017D01*
X49009926Y18402902D01*
X49002361Y18401800D01*
X48993685Y18397969D01*
X48925000Y18390000D01*
X46925000Y18390000D01*
X46856315Y18397969D01*
X46847638Y18401800D01*
X46840074Y18402902D01*
X46792787Y18426019D01*
X46755459Y18442501D01*
X46752002Y18445958D01*
X46751079Y18446409D01*
X46681408Y18516080D01*
X46680956Y18517004D01*
X46677501Y18520459D01*
X46661025Y18557772D01*
X46637901Y18605074D01*
X46636798Y18612643D01*
X46632969Y18621315D01*
X46625000Y18690000D01*
X46625000Y19190000D01*
X46632969Y19258685D01*
X46636798Y19267358D01*
X46637901Y19274926D01*
X46661028Y19322234D01*
X46677501Y19359541D01*
X46680955Y19362996D01*
X46681408Y19363921D01*
X46751079Y19433592D01*
X46752004Y19434045D01*
X46755459Y19437499D01*
X46792761Y19453970D01*
X46840073Y19477099D01*
X46847642Y19478202D01*
X46856315Y19482031D01*
X46925000Y19490000D01*
X48925000Y19490000D01*
X48993685Y19482031D01*
G37*
G36*
X5054372Y19390261D02*
G01*
X5127847Y19347840D01*
X5187840Y19287847D01*
X5230261Y19214372D01*
X5252220Y19132421D01*
X5252220Y19047579D01*
X5230261Y18965628D01*
X5187840Y18892153D01*
X5127847Y18832160D01*
X5054372Y18789739D01*
X4972421Y18767780D01*
X4887579Y18767780D01*
X4805628Y18789739D01*
X4732153Y18832160D01*
X4672160Y18892153D01*
X4629739Y18965628D01*
X4607780Y19047579D01*
X4607780Y19132421D01*
X4629739Y19214372D01*
X4672160Y19287847D01*
X4732153Y19347840D01*
X4805628Y19390261D01*
X4887579Y19412220D01*
X4972421Y19412220D01*
X5054372Y19390261D01*
G37*
G36*
X20039037Y20234776D02*
G01*
X20103921Y20191421D01*
X20147276Y20126537D01*
X20162500Y20050000D01*
X20162500Y19750000D01*
X20147276Y19673463D01*
X20103921Y19608579D01*
X20039037Y19565224D01*
X19962500Y19550000D01*
X18937500Y19550000D01*
X18860963Y19565224D01*
X18796079Y19608579D01*
X18752724Y19673463D01*
X18737500Y19750000D01*
X18737500Y20050000D01*
X18752724Y20126537D01*
X18796079Y20191421D01*
X18860963Y20234776D01*
X18937500Y20250000D01*
X19962500Y20250000D01*
X20039037Y20234776D01*
G37*
G36*
X22314037Y20234776D02*
G01*
X22378921Y20191421D01*
X22422276Y20126537D01*
X22437500Y20050000D01*
X22437500Y19750000D01*
X22422276Y19673463D01*
X22378921Y19608579D01*
X22314037Y19565224D01*
X22237500Y19550000D01*
X21212500Y19550000D01*
X21135963Y19565224D01*
X21071079Y19608579D01*
X21027724Y19673463D01*
X21012500Y19750000D01*
X21012500Y20050000D01*
X21027724Y20126537D01*
X21071079Y20191421D01*
X21135963Y20234776D01*
X21212500Y20250000D01*
X22237500Y20250000D01*
X22314037Y20234776D01*
G37*
G36*
X1621789Y21065295D02*
G01*
X1760476Y21028134D01*
X1884819Y20956344D01*
X1986344Y20854819D01*
X2058134Y20730476D01*
X2095295Y20591789D01*
X2095295Y20448211D01*
X2058134Y20309524D01*
X1986344Y20185181D01*
X1884819Y20083656D01*
X1760476Y20011866D01*
X1621789Y19974705D01*
X1550000Y19970000D01*
X1548363Y19970000D01*
X951637Y19970000D01*
X950000Y19970000D01*
X878211Y19974705D01*
X739524Y20011866D01*
X615181Y20083656D01*
X513656Y20185181D01*
X441866Y20309524D01*
X404705Y20448211D01*
X404705Y20591789D01*
X441866Y20730476D01*
X513656Y20854819D01*
X615181Y20956344D01*
X739524Y21028134D01*
X878211Y21065295D01*
X950000Y21070000D01*
X1550000Y21070000D01*
X1621789Y21065295D01*
G37*
G36*
X6051789Y21065295D02*
G01*
X6190476Y21028134D01*
X6314819Y20956344D01*
X6416344Y20854819D01*
X6488134Y20730476D01*
X6525295Y20591789D01*
X6525295Y20448211D01*
X6488134Y20309524D01*
X6416344Y20185181D01*
X6314819Y20083656D01*
X6190476Y20011866D01*
X6051789Y19974705D01*
X5980000Y19970000D01*
X5978363Y19970000D01*
X4881637Y19970000D01*
X4880000Y19970000D01*
X4808211Y19974705D01*
X4669524Y20011866D01*
X4545181Y20083656D01*
X4443656Y20185181D01*
X4371866Y20309524D01*
X4334705Y20448211D01*
X4334705Y20591789D01*
X4371866Y20730476D01*
X4443656Y20854819D01*
X4545181Y20956344D01*
X4669524Y21028134D01*
X4808211Y21065295D01*
X4880000Y21070000D01*
X5980000Y21070000D01*
X6051789Y21065295D01*
G37*
G36*
X23592710Y21135537D02*
G01*
X23654350Y21094350D01*
X23695537Y21032710D01*
X23710000Y20960000D01*
X23710000Y20680000D01*
X23695537Y20607290D01*
X23654350Y20545650D01*
X23592710Y20504463D01*
X23520000Y20490000D01*
X23180000Y20490000D01*
X23107290Y20504463D01*
X23045650Y20545650D01*
X23004463Y20607290D01*
X22990000Y20680000D01*
X22990000Y20960000D01*
X23004463Y21032710D01*
X23045650Y21094350D01*
X23107290Y21135537D01*
X23180000Y21150000D01*
X23520000Y21150000D01*
X23592710Y21135537D01*
G37*
G36*
X20039037Y21184776D02*
G01*
X20103921Y21141421D01*
X20147276Y21076537D01*
X20162500Y21000000D01*
X20162500Y20700000D01*
X20147276Y20623463D01*
X20103921Y20558579D01*
X20039037Y20515224D01*
X19962500Y20500000D01*
X18937500Y20500000D01*
X18860963Y20515224D01*
X18796079Y20558579D01*
X18752724Y20623463D01*
X18737500Y20700000D01*
X18737500Y21000000D01*
X18752724Y21076537D01*
X18796079Y21141421D01*
X18860963Y21184776D01*
X18937500Y21200000D01*
X19962500Y21200000D01*
X20039037Y21184776D01*
G37*
G36*
X10333939Y21273358D02*
G01*
X10413067Y21227674D01*
X10477674Y21163067D01*
X10523358Y21083939D01*
X10547006Y20995684D01*
X10547006Y20904316D01*
X10523358Y20816061D01*
X10477674Y20736933D01*
X10413067Y20672326D01*
X10333939Y20626642D01*
X10245684Y20602994D01*
X10154316Y20602994D01*
X10066061Y20626642D01*
X9986933Y20672326D01*
X9922326Y20736933D01*
X9876642Y20816061D01*
X9852994Y20904316D01*
X9852994Y20995684D01*
X9876642Y21083939D01*
X9922326Y21163067D01*
X9986933Y21227674D01*
X10066061Y21273358D01*
X10154316Y21297006D01*
X10245684Y21297006D01*
X10333939Y21273358D01*
G37*
G36*
X48993685Y22022031D02*
G01*
X49002358Y22018202D01*
X49009925Y22017099D01*
X49057223Y21993977D01*
X49094541Y21977499D01*
X49097996Y21974044D01*
X49098920Y21973592D01*
X49168591Y21903921D01*
X49169042Y21902998D01*
X49172499Y21899541D01*
X49188978Y21862218D01*
X49212098Y21814927D01*
X49213200Y21807361D01*
X49217031Y21798685D01*
X49225000Y21730000D01*
X49225000Y21230000D01*
X49217031Y21161315D01*
X49213199Y21152639D01*
X49212098Y21145075D01*
X49188985Y21097798D01*
X49172499Y21060459D01*
X49169041Y21057002D01*
X49168591Y21056080D01*
X49098920Y20986409D01*
X49097998Y20985959D01*
X49094541Y20982501D01*
X49057207Y20966017D01*
X49009926Y20942902D01*
X49002361Y20941800D01*
X48993685Y20937969D01*
X48925000Y20930000D01*
X46925000Y20930000D01*
X46856315Y20937969D01*
X46847638Y20941800D01*
X46840074Y20942902D01*
X46792787Y20966019D01*
X46755459Y20982501D01*
X46752002Y20985958D01*
X46751079Y20986409D01*
X46681408Y21056080D01*
X46680956Y21057004D01*
X46677501Y21060459D01*
X46661025Y21097772D01*
X46637901Y21145074D01*
X46636798Y21152643D01*
X46632969Y21161315D01*
X46625000Y21230000D01*
X46625000Y21730000D01*
X46632969Y21798685D01*
X46636798Y21807358D01*
X46637901Y21814926D01*
X46661028Y21862234D01*
X46677501Y21899541D01*
X46680955Y21902996D01*
X46681408Y21903921D01*
X46751079Y21973592D01*
X46752004Y21974045D01*
X46755459Y21977499D01*
X46792761Y21993970D01*
X46840073Y22017099D01*
X46847642Y22018202D01*
X46856315Y22022031D01*
X46925000Y22030000D01*
X48925000Y22030000D01*
X48993685Y22022031D01*
G37*
G36*
X34883939Y21823358D02*
G01*
X34963067Y21777674D01*
X35027674Y21713067D01*
X35073358Y21633939D01*
X35097006Y21545684D01*
X35097006Y21454316D01*
X35073358Y21366061D01*
X35027674Y21286933D01*
X34963067Y21222326D01*
X34883939Y21176642D01*
X34795684Y21152994D01*
X34704316Y21152994D01*
X34616061Y21176642D01*
X34536933Y21222326D01*
X34472326Y21286933D01*
X34426642Y21366061D01*
X34402994Y21454316D01*
X34402994Y21545684D01*
X34426642Y21633939D01*
X34472326Y21713067D01*
X34536933Y21777674D01*
X34616061Y21823358D01*
X34704316Y21847006D01*
X34795684Y21847006D01*
X34883939Y21823358D01*
G37*
G36*
X20039037Y22134776D02*
G01*
X20103921Y22091421D01*
X20147276Y22026537D01*
X20162500Y21950000D01*
X20162500Y21650000D01*
X20147276Y21573463D01*
X20103921Y21508579D01*
X20039037Y21465224D01*
X19962500Y21450000D01*
X18937500Y21450000D01*
X18860963Y21465224D01*
X18796079Y21508579D01*
X18752724Y21573463D01*
X18737500Y21650000D01*
X18737500Y21950000D01*
X18752724Y22026537D01*
X18796079Y22091421D01*
X18860963Y22134776D01*
X18937500Y22150000D01*
X19962500Y22150000D01*
X20039037Y22134776D01*
G37*
G36*
X22314037Y22134776D02*
G01*
X22378921Y22091421D01*
X22422276Y22026537D01*
X22437500Y21950000D01*
X22437500Y21650000D01*
X22422276Y21573463D01*
X22378921Y21508579D01*
X22314037Y21465224D01*
X22237500Y21450000D01*
X21212500Y21450000D01*
X21135963Y21465224D01*
X21071079Y21508579D01*
X21027724Y21573463D01*
X21012500Y21650000D01*
X21012500Y21950000D01*
X21027724Y22026537D01*
X21071079Y22091421D01*
X21135963Y22134776D01*
X21212500Y22150000D01*
X22237500Y22150000D01*
X22314037Y22134776D01*
G37*
G36*
X23592710Y22095537D02*
G01*
X23654350Y22054350D01*
X23695537Y21992710D01*
X23710000Y21920000D01*
X23710000Y21640000D01*
X23695537Y21567290D01*
X23654350Y21505650D01*
X23592710Y21464463D01*
X23520000Y21450000D01*
X23180000Y21450000D01*
X23107290Y21464463D01*
X23045650Y21505650D01*
X23004463Y21567290D01*
X22990000Y21640000D01*
X22990000Y21920000D01*
X23004463Y21992710D01*
X23045650Y22054350D01*
X23107290Y22095537D01*
X23180000Y22110000D01*
X23520000Y22110000D01*
X23592710Y22095537D01*
G37*
G36*
X898080Y22644966D02*
G01*
X962154Y22602154D01*
X1004966Y22538080D01*
X1020000Y22462500D01*
X1020000Y22167500D01*
X1004966Y22091920D01*
X962154Y22027846D01*
X898080Y21985034D01*
X822500Y21970000D01*
X477500Y21970000D01*
X401920Y21985034D01*
X337846Y22027846D01*
X295034Y22091920D01*
X280000Y22167500D01*
X280000Y22462500D01*
X295034Y22538080D01*
X337846Y22602154D01*
X401920Y22644966D01*
X477500Y22660000D01*
X822500Y22660000D01*
X898080Y22644966D01*
G37*
G36*
X2454736Y23474276D02*
G01*
X2575687Y23404444D01*
X2674444Y23305687D01*
X2744276Y23184736D01*
X2780423Y23049832D01*
X2780423Y22910168D01*
X2744276Y22775264D01*
X2674444Y22654313D01*
X2575687Y22555556D01*
X2454736Y22485724D01*
X2319832Y22449577D01*
X2180168Y22449577D01*
X2045264Y22485724D01*
X1924313Y22555556D01*
X1825556Y22654313D01*
X1755724Y22775264D01*
X1719577Y22910168D01*
X1719577Y23049832D01*
X1755724Y23184736D01*
X1825556Y23305687D01*
X1924313Y23404444D01*
X2045264Y23474276D01*
X2180168Y23510423D01*
X2319832Y23510423D01*
X2454736Y23474276D01*
G37*
G36*
X898080Y23614966D02*
G01*
X962154Y23572154D01*
X1004966Y23508080D01*
X1020000Y23432500D01*
X1020000Y23137500D01*
X1004966Y23061920D01*
X962154Y22997846D01*
X898080Y22955034D01*
X822500Y22940000D01*
X477500Y22940000D01*
X401920Y22955034D01*
X337846Y22997846D01*
X295034Y23061920D01*
X280000Y23137500D01*
X280000Y23432500D01*
X295034Y23508080D01*
X337846Y23572154D01*
X401920Y23614966D01*
X477500Y23630000D01*
X822500Y23630000D01*
X898080Y23614966D01*
G37*
G36*
X48993685Y24562031D02*
G01*
X49002358Y24558202D01*
X49009925Y24557099D01*
X49057223Y24533977D01*
X49094541Y24517499D01*
X49097996Y24514044D01*
X49098920Y24513592D01*
X49168591Y24443921D01*
X49169042Y24442998D01*
X49172499Y24439541D01*
X49188978Y24402218D01*
X49212098Y24354927D01*
X49213200Y24347361D01*
X49217031Y24338685D01*
X49225000Y24270000D01*
X49225000Y23770000D01*
X49217031Y23701315D01*
X49213199Y23692639D01*
X49212098Y23685075D01*
X49188985Y23637798D01*
X49172499Y23600459D01*
X49169041Y23597002D01*
X49168591Y23596080D01*
X49098920Y23526409D01*
X49097998Y23525959D01*
X49094541Y23522501D01*
X49057207Y23506017D01*
X49009926Y23482902D01*
X49002361Y23481800D01*
X48993685Y23477969D01*
X48925000Y23470000D01*
X46925000Y23470000D01*
X46856315Y23477969D01*
X46847638Y23481800D01*
X46840074Y23482902D01*
X46792787Y23506019D01*
X46755459Y23522501D01*
X46752002Y23525958D01*
X46751079Y23526409D01*
X46681408Y23596080D01*
X46680956Y23597004D01*
X46677501Y23600459D01*
X46661025Y23637772D01*
X46637901Y23685074D01*
X46636798Y23692643D01*
X46632969Y23701315D01*
X46625000Y23770000D01*
X46625000Y24270000D01*
X46632969Y24338685D01*
X46636798Y24347358D01*
X46637901Y24354926D01*
X46661028Y24402234D01*
X46677501Y24439541D01*
X46680955Y24442996D01*
X46681408Y24443921D01*
X46751079Y24513592D01*
X46752004Y24514045D01*
X46755459Y24517499D01*
X46792761Y24533970D01*
X46840073Y24557099D01*
X46847642Y24558202D01*
X46856315Y24562031D01*
X46925000Y24570000D01*
X48925000Y24570000D01*
X48993685Y24562031D01*
G37*
G36*
X15195796Y25655918D02*
G01*
X15255815Y25615815D01*
X15295918Y25555796D01*
X15310000Y25485000D01*
X15310000Y25115000D01*
X15295918Y25044204D01*
X15255815Y24984185D01*
X15195796Y24944082D01*
X15125000Y24930000D01*
X14855000Y24930000D01*
X14784204Y24944082D01*
X14724185Y24984185D01*
X14684082Y25044204D01*
X14670000Y25115000D01*
X14670000Y25485000D01*
X14684082Y25555796D01*
X14724185Y25615815D01*
X14784204Y25655918D01*
X14855000Y25670000D01*
X15125000Y25670000D01*
X15195796Y25655918D01*
G37*
G36*
X16215796Y25655918D02*
G01*
X16275815Y25615815D01*
X16315918Y25555796D01*
X16330000Y25485000D01*
X16330000Y25115000D01*
X16315918Y25044204D01*
X16275815Y24984185D01*
X16215796Y24944082D01*
X16145000Y24930000D01*
X15875000Y24930000D01*
X15804204Y24944082D01*
X15744185Y24984185D01*
X15704082Y25044204D01*
X15690000Y25115000D01*
X15690000Y25485000D01*
X15704082Y25555796D01*
X15744185Y25615815D01*
X15804204Y25655918D01*
X15875000Y25670000D01*
X16145000Y25670000D01*
X16215796Y25655918D01*
G37*
G36*
X15195796Y26605918D02*
G01*
X15255815Y26565815D01*
X15295918Y26505796D01*
X15310000Y26435000D01*
X15310000Y26065000D01*
X15295918Y25994204D01*
X15255815Y25934185D01*
X15195796Y25894082D01*
X15125000Y25880000D01*
X14855000Y25880000D01*
X14784204Y25894082D01*
X14724185Y25934185D01*
X14684082Y25994204D01*
X14670000Y26065000D01*
X14670000Y26435000D01*
X14684082Y26505796D01*
X14724185Y26565815D01*
X14784204Y26605918D01*
X14855000Y26620000D01*
X15125000Y26620000D01*
X15195796Y26605918D01*
G37*
G36*
X16215796Y26605918D02*
G01*
X16275815Y26565815D01*
X16315918Y26505796D01*
X16330000Y26435000D01*
X16330000Y26065000D01*
X16315918Y25994204D01*
X16275815Y25934185D01*
X16215796Y25894082D01*
X16145000Y25880000D01*
X15875000Y25880000D01*
X15804204Y25894082D01*
X15744185Y25934185D01*
X15704082Y25994204D01*
X15690000Y26065000D01*
X15690000Y26435000D01*
X15704082Y26505796D01*
X15744185Y26565815D01*
X15804204Y26605918D01*
X15875000Y26620000D01*
X16145000Y26620000D01*
X16215796Y26605918D01*
G37*
G36*
X32383939Y26948358D02*
G01*
X32463067Y26902674D01*
X32527674Y26838067D01*
X32573358Y26758939D01*
X32597006Y26670684D01*
X32597006Y26579316D01*
X32573358Y26491061D01*
X32527674Y26411933D01*
X32463067Y26347326D01*
X32383939Y26301642D01*
X32295684Y26277994D01*
X32204316Y26277994D01*
X32116061Y26301642D01*
X32036933Y26347326D01*
X31972326Y26411933D01*
X31926642Y26491061D01*
X31902994Y26579316D01*
X31902994Y26670684D01*
X31926642Y26758939D01*
X31972326Y26838067D01*
X32036933Y26902674D01*
X32116061Y26948358D01*
X32204316Y26972006D01*
X32295684Y26972006D01*
X32383939Y26948358D01*
G37*
G36*
X44883939Y28623358D02*
G01*
X44963067Y28577674D01*
X45027674Y28513067D01*
X45073358Y28433939D01*
X45097006Y28345684D01*
X45097006Y28254316D01*
X45073358Y28166061D01*
X45027674Y28086933D01*
X44963067Y28022326D01*
X44883939Y27976642D01*
X44795684Y27952994D01*
X44704316Y27952994D01*
X44616061Y27976642D01*
X44536933Y28022326D01*
X44472326Y28086933D01*
X44426642Y28166061D01*
X44402994Y28254316D01*
X44402994Y28345684D01*
X44426642Y28433939D01*
X44472326Y28513067D01*
X44536933Y28577674D01*
X44616061Y28623358D01*
X44704316Y28647006D01*
X44795684Y28647006D01*
X44883939Y28623358D01*
G37*
G36*
X2454736Y29014276D02*
G01*
X2575687Y28944444D01*
X2674444Y28845687D01*
X2744276Y28724736D01*
X2780423Y28589832D01*
X2780423Y28450168D01*
X2744276Y28315264D01*
X2674444Y28194313D01*
X2575687Y28095556D01*
X2454736Y28025724D01*
X2319832Y27989577D01*
X2180168Y27989577D01*
X2045264Y28025724D01*
X1924313Y28095556D01*
X1825556Y28194313D01*
X1755724Y28315264D01*
X1719577Y28450168D01*
X1719577Y28589832D01*
X1755724Y28724736D01*
X1825556Y28845687D01*
X1924313Y28944444D01*
X2045264Y29014276D01*
X2180168Y29050423D01*
X2319832Y29050423D01*
X2454736Y29014276D01*
G37*
M02*
