%TF.GenerationSoftware,KiCad,Pcbnew,9.0.2*%
%TF.CreationDate,2026-02-04T23:22:00+01:00*%
%TF.ProjectId,PDNode-600,50444e6f-6465-42d3-9630-302e6b696361,rev?*%
%TF.SameCoordinates,Original*%
%TF.FileFunction,Soldermask,Top*%
%TF.FilePolarity,Negative*%
%FSLAX46Y46*%
G04 Gerber Fmt 4.6, Leading zero omitted, Abs format (unit mm)*
G04 Created by KiCad (PCBNEW 9.0.2) date 2026-02-04 23:22:00*
%MOMM*%
%LPD*%
G01*
G04 APERTURE LIST*
G04 Aperture macros list*
%AMRoundRect*
0 Rectangle with rounded corners*
0 $1 Rounding radius*
0 $2 $3 $4 $5 $6 $7 $8 $9 X,Y pos of 4 corners*
0 Add a 4 corners polygon primitive as box body*
4,1,4,$2,$3,$4,$5,$6,$7,$8,$9,$2,$3,0*
0 Add four circle primitives for the rounded corners*
1,1,$1+$1,$2,$3*
1,1,$1+$1,$4,$5*
1,1,$1+$1,$6,$7*
1,1,$1+$1,$8,$9*
0 Add four rect primitives between the rounded corners*
20,1,$1+$1,$2,$3,$4,$5,0*
20,1,$1+$1,$4,$5,$6,$7,0*
20,1,$1+$1,$6,$7,$8,$9,0*
20,1,$1+$1,$8,$9,$2,$3,0*%
%AMFreePoly0*
4,1,37,1.430355,1.220355,1.445000,1.185000,1.445000,0.765000,1.430355,0.729645,1.395000,0.715000,0.905000,0.715000,0.905000,0.585000,1.395000,0.585000,1.430355,0.570355,1.445000,0.535000,1.445000,0.115000,1.430355,0.079645,1.395000,0.065000,0.905000,0.065000,0.905000,-0.065000,1.395000,-0.065000,1.430355,-0.079645,1.445000,-0.115000,1.445000,-0.535000,1.430355,-0.570355,
1.395000,-0.585000,0.905000,-0.585000,0.905000,-0.715000,1.395000,-0.715000,1.430355,-0.729645,1.445000,-0.765000,1.445000,-1.185000,1.430355,-1.220355,1.395000,-1.235000,-0.855000,-1.235000,-0.890355,-1.220355,-0.905000,-1.185000,-0.905000,1.185000,-0.890355,1.220355,-0.855000,1.235000,1.395000,1.235000,1.430355,1.220355,1.430355,1.220355,$1*%
G04 Aperture macros list end*
%ADD10C,0.150000*%
%ADD11C,0.010000*%
%ADD12RoundRect,0.172500X-0.197500X0.172500X-0.197500X-0.172500X0.197500X-0.172500X0.197500X0.172500X0*%
%ADD13RoundRect,0.160000X-0.160000X-0.210000X0.160000X-0.210000X0.160000X0.210000X-0.160000X0.210000X0*%
%ADD14RoundRect,0.225000X-0.225000X-0.300000X0.225000X-0.300000X0.225000X0.300000X-0.225000X0.300000X0*%
%ADD15RoundRect,0.225000X0.225000X0.300000X-0.225000X0.300000X-0.225000X-0.300000X0.225000X-0.300000X0*%
%ADD16RoundRect,0.165000X-0.165000X-0.195000X0.165000X-0.195000X0.165000X0.195000X-0.165000X0.195000X0*%
%ADD17RoundRect,0.050000X0.500000X0.750000X-0.500000X0.750000X-0.500000X-0.750000X0.500000X-0.750000X0*%
%ADD18RoundRect,0.125000X-0.425000X-0.125000X0.425000X-0.125000X0.425000X0.125000X-0.425000X0.125000X0*%
%ADD19RoundRect,0.095000X0.380000X0.095000X-0.380000X0.095000X-0.380000X-0.095000X0.380000X-0.095000X0*%
%ADD20RoundRect,0.050000X0.140000X0.350000X-0.140000X0.350000X-0.140000X-0.350000X0.140000X-0.350000X0*%
%ADD21RoundRect,0.050000X0.825000X1.200000X-0.825000X1.200000X-0.825000X-1.200000X0.825000X-1.200000X0*%
%ADD22RoundRect,0.172500X0.197500X-0.172500X0.197500X0.172500X-0.197500X0.172500X-0.197500X-0.172500X0*%
%ADD23RoundRect,0.165000X0.195000X-0.165000X0.195000X0.165000X-0.195000X0.165000X-0.195000X-0.165000X0*%
%ADD24RoundRect,0.271739X-0.353261X-0.678261X0.353261X-0.678261X0.353261X0.678261X-0.353261X0.678261X0*%
%ADD25C,0.800000*%
%ADD26C,4.500000*%
%ADD27RoundRect,0.130000X0.130000X-0.270000X0.130000X0.270000X-0.130000X0.270000X-0.130000X-0.270000X0*%
%ADD28FreePoly0,90.000000*%
%ADD29RoundRect,0.050000X1.775000X1.750000X-1.775000X1.750000X-1.775000X-1.750000X1.775000X-1.750000X0*%
%ADD30RoundRect,0.265625X1.446875X0.584375X-1.446875X0.584375X-1.446875X-0.584375X1.446875X-0.584375X0*%
%ADD31RoundRect,0.087500X-0.375000X-0.087500X0.375000X-0.087500X0.375000X0.087500X-0.375000X0.087500X0*%
%ADD32RoundRect,0.087500X-0.087500X-0.375000X0.087500X-0.375000X0.087500X0.375000X-0.087500X0.375000X0*%
%ADD33RoundRect,0.050000X-1.300000X-1.300000X1.300000X-1.300000X1.300000X1.300000X-1.300000X1.300000X0*%
%ADD34RoundRect,0.160000X0.160000X0.210000X-0.160000X0.210000X-0.160000X-0.210000X0.160000X-0.210000X0*%
%ADD35RoundRect,0.274390X-0.288110X-0.475610X0.288110X-0.475610X0.288110X0.475610X-0.288110X0.475610X0*%
%ADD36RoundRect,0.271739X-0.678261X0.353261X-0.678261X-0.353261X0.678261X-0.353261X0.678261X0.353261X0*%
%ADD37RoundRect,0.160000X-0.210000X0.160000X-0.210000X-0.160000X0.210000X-0.160000X0.210000X0.160000X0*%
%ADD38RoundRect,0.200000X-0.450000X0.200000X-0.450000X-0.200000X0.450000X-0.200000X0.450000X0.200000X0*%
%ADD39RoundRect,0.215000X0.435000X-0.215000X0.435000X0.215000X-0.435000X0.215000X-0.435000X-0.215000X0*%
%ADD40RoundRect,0.225000X0.425000X-0.225000X0.425000X0.225000X-0.425000X0.225000X-0.425000X-0.225000X0*%
%ADD41RoundRect,0.200000X0.450000X-0.200000X0.450000X0.200000X-0.450000X0.200000X-0.450000X-0.200000X0*%
%ADD42RoundRect,0.215000X-0.435000X0.215000X-0.435000X-0.215000X0.435000X-0.215000X0.435000X0.215000X0*%
%ADD43RoundRect,0.225000X-0.425000X0.225000X-0.425000X-0.225000X0.425000X-0.225000X0.425000X0.225000X0*%
%ADD44O,1.800000X1.200000*%
%ADD45RoundRect,0.165000X0.165000X0.195000X-0.165000X0.195000X-0.165000X-0.195000X0.165000X-0.195000X0*%
%ADD46RoundRect,0.275000X0.500000X-0.275000X0.500000X0.275000X-0.500000X0.275000X-0.500000X-0.275000X0*%
%ADD47RoundRect,0.050000X-0.350000X-2.150000X0.350000X-2.150000X0.350000X2.150000X-0.350000X2.150000X0*%
%ADD48RoundRect,0.050000X-0.350000X-1.600000X0.350000X-1.600000X0.350000X1.600000X-0.350000X1.600000X0*%
%ADD49RoundRect,0.160000X0.210000X-0.160000X0.210000X0.160000X-0.210000X0.160000X-0.210000X-0.160000X0*%
%ADD50RoundRect,0.271739X0.353261X0.678261X-0.353261X0.678261X-0.353261X-0.678261X0.353261X-0.678261X0*%
%ADD51RoundRect,0.165000X-0.195000X0.165000X-0.195000X-0.165000X0.195000X-0.165000X0.195000X0.165000X0*%
%ADD52RoundRect,0.125000X0.425000X0.125000X-0.425000X0.125000X-0.425000X-0.125000X0.425000X-0.125000X0*%
%ADD53RoundRect,0.275000X-0.500000X0.275000X-0.500000X-0.275000X0.500000X-0.275000X0.500000X0.275000X0*%
%ADD54RoundRect,0.150000X0.562500X0.150000X-0.562500X0.150000X-0.562500X-0.150000X0.562500X-0.150000X0*%
%ADD55RoundRect,0.270409X-1.454591X0.392091X-1.454591X-0.392091X1.454591X-0.392091X1.454591X0.392091X0*%
G04 APERTURE END LIST*
D10*
X12975000Y5875000D02*
X35800000Y5875000D01*
X35800000Y-725000D01*
X12975000Y-725000D01*
X12975000Y5875000D01*
G36*
X12975000Y5875000D02*
G01*
X35800000Y5875000D01*
X35800000Y-725000D01*
X12975000Y-725000D01*
X12975000Y5875000D01*
G37*
D11*
%TO.C,T2*%
X52375000Y25560000D02*
X52035000Y25560000D01*
X52035000Y26210000D01*
X51725000Y26210000D01*
X51725000Y25560000D01*
X51385000Y25560000D01*
X51385000Y26210000D01*
X51075000Y26210000D01*
X51075000Y25560000D01*
X50735000Y25560000D01*
X50735000Y26210000D01*
X50425000Y26210000D01*
X50425000Y25560000D01*
X50085000Y25560000D01*
X50085000Y27920000D01*
X52375000Y27920000D01*
X52375000Y25560000D01*
G36*
X52375000Y25560000D02*
G01*
X52035000Y25560000D01*
X52035000Y26210000D01*
X51725000Y26210000D01*
X51725000Y25560000D01*
X51385000Y25560000D01*
X51385000Y26210000D01*
X51075000Y26210000D01*
X51075000Y25560000D01*
X50735000Y25560000D01*
X50735000Y26210000D01*
X50425000Y26210000D01*
X50425000Y25560000D01*
X50085000Y25560000D01*
X50085000Y27920000D01*
X52375000Y27920000D01*
X52375000Y25560000D01*
G37*
X51075000Y28910000D02*
X51385000Y28910000D01*
X51385000Y29360000D01*
X51725000Y29360000D01*
X51725000Y28910000D01*
X52035000Y28910000D01*
X52035000Y29360000D01*
X52375000Y29360000D01*
X52375000Y28460000D01*
X50735000Y28460000D01*
X50735000Y29360000D01*
X51075000Y29360000D01*
X51075000Y28910000D01*
G36*
X51075000Y28910000D02*
G01*
X51385000Y28910000D01*
X51385000Y29360000D01*
X51725000Y29360000D01*
X51725000Y28910000D01*
X52035000Y28910000D01*
X52035000Y29360000D01*
X52375000Y29360000D01*
X52375000Y28460000D01*
X50735000Y28460000D01*
X50735000Y29360000D01*
X51075000Y29360000D01*
X51075000Y28910000D01*
G37*
X50425000Y28460000D02*
X50085000Y28460000D01*
X50085000Y29360000D01*
X50425000Y29360000D01*
X50425000Y28460000D01*
G36*
X50425000Y28460000D02*
G01*
X50085000Y28460000D01*
X50085000Y29360000D01*
X50425000Y29360000D01*
X50425000Y28460000D01*
G37*
%TO.C,T1*%
X52375000Y21060000D02*
X52035000Y21060000D01*
X52035000Y21710000D01*
X51725000Y21710000D01*
X51725000Y21060000D01*
X51385000Y21060000D01*
X51385000Y21710000D01*
X51075000Y21710000D01*
X51075000Y21060000D01*
X50735000Y21060000D01*
X50735000Y21710000D01*
X50425000Y21710000D01*
X50425000Y21060000D01*
X50085000Y21060000D01*
X50085000Y23420000D01*
X52375000Y23420000D01*
X52375000Y21060000D01*
G36*
X52375000Y21060000D02*
G01*
X52035000Y21060000D01*
X52035000Y21710000D01*
X51725000Y21710000D01*
X51725000Y21060000D01*
X51385000Y21060000D01*
X51385000Y21710000D01*
X51075000Y21710000D01*
X51075000Y21060000D01*
X50735000Y21060000D01*
X50735000Y21710000D01*
X50425000Y21710000D01*
X50425000Y21060000D01*
X50085000Y21060000D01*
X50085000Y23420000D01*
X52375000Y23420000D01*
X52375000Y21060000D01*
G37*
X51075000Y24410000D02*
X51385000Y24410000D01*
X51385000Y24860000D01*
X51725000Y24860000D01*
X51725000Y24410000D01*
X52035000Y24410000D01*
X52035000Y24860000D01*
X52375000Y24860000D01*
X52375000Y23960000D01*
X50735000Y23960000D01*
X50735000Y24860000D01*
X51075000Y24860000D01*
X51075000Y24410000D01*
G36*
X51075000Y24410000D02*
G01*
X51385000Y24410000D01*
X51385000Y24860000D01*
X51725000Y24860000D01*
X51725000Y24410000D01*
X52035000Y24410000D01*
X52035000Y24860000D01*
X52375000Y24860000D01*
X52375000Y23960000D01*
X50735000Y23960000D01*
X50735000Y24860000D01*
X51075000Y24860000D01*
X51075000Y24410000D01*
G37*
X50425000Y23960000D02*
X50085000Y23960000D01*
X50085000Y24860000D01*
X50425000Y24860000D01*
X50425000Y23960000D01*
G36*
X50425000Y23960000D02*
G01*
X50085000Y23960000D01*
X50085000Y24860000D01*
X50425000Y24860000D01*
X50425000Y23960000D01*
G37*
%TO.C,JP1*%
G36*
X11825000Y9475000D02*
G01*
X10225000Y9475000D01*
X10225000Y10975000D01*
X11825000Y10975000D01*
X11825000Y9475000D01*
G37*
%TO.C,IC1*%
X28127500Y29414000D02*
X28133500Y29414000D01*
X28138500Y29413000D01*
X28143500Y29412000D01*
X28148500Y29410000D01*
X28153500Y29408000D01*
X28158500Y29406000D01*
X28162500Y29404000D01*
X28167500Y29402000D01*
X28171500Y29399000D01*
X28176500Y29396000D01*
X28180500Y29393000D01*
X28184500Y29389000D01*
X28188500Y29386000D01*
X28191500Y29382000D01*
X28195500Y29378000D01*
X28198500Y29374000D01*
X28201500Y29369000D01*
X28204500Y29365000D01*
X28206500Y29360000D01*
X28208500Y29356000D01*
X28210500Y29351000D01*
X28212500Y29346000D01*
X28214500Y29341000D01*
X28215500Y29336000D01*
X28216500Y29331000D01*
X28216500Y29325000D01*
X28217500Y29320000D01*
X28217500Y29315000D01*
X28217500Y29165000D01*
X28217500Y29160000D01*
X28216500Y29155000D01*
X28216500Y29149000D01*
X28215500Y29144000D01*
X28214500Y29139000D01*
X28212500Y29134000D01*
X28210500Y29129000D01*
X28208500Y29124000D01*
X28206500Y29120000D01*
X28204500Y29115000D01*
X28201500Y29111000D01*
X28198500Y29106000D01*
X28195500Y29102000D01*
X28191500Y29098000D01*
X28188500Y29094000D01*
X28184500Y29091000D01*
X28180500Y29087000D01*
X28176500Y29084000D01*
X28171500Y29081000D01*
X28167500Y29078000D01*
X28162500Y29076000D01*
X28158500Y29074000D01*
X28153500Y29072000D01*
X28148500Y29070000D01*
X28143500Y29068000D01*
X28138500Y29067000D01*
X28133500Y29066000D01*
X28127500Y29066000D01*
X28122500Y29065000D01*
X28117500Y29065000D01*
X27592500Y29065000D01*
X27587500Y29065000D01*
X27582500Y29066000D01*
X27576500Y29066000D01*
X27571500Y29067000D01*
X27566500Y29068000D01*
X27561500Y29070000D01*
X27556500Y29072000D01*
X27551500Y29074000D01*
X27547500Y29076000D01*
X27542500Y29078000D01*
X27538500Y29081000D01*
X27533500Y29084000D01*
X27529500Y29087000D01*
X27525500Y29091000D01*
X27521500Y29094000D01*
X27518500Y29098000D01*
X27514500Y29102000D01*
X27511500Y29106000D01*
X27508500Y29111000D01*
X27505500Y29115000D01*
X27503500Y29120000D01*
X27501500Y29124000D01*
X27499500Y29129000D01*
X27497500Y29134000D01*
X27495500Y29139000D01*
X27494500Y29144000D01*
X27493500Y29149000D01*
X27493500Y29155000D01*
X27492500Y29160000D01*
X27492500Y29165000D01*
X27492500Y29315000D01*
X27492500Y29320000D01*
X27493500Y29325000D01*
X27493500Y29331000D01*
X27494500Y29336000D01*
X27495500Y29341000D01*
X27497500Y29346000D01*
X27499500Y29351000D01*
X27501500Y29356000D01*
X27503500Y29360000D01*
X27505500Y29365000D01*
X27508500Y29369000D01*
X27511500Y29374000D01*
X27514500Y29378000D01*
X27518500Y29382000D01*
X27521500Y29386000D01*
X27525500Y29389000D01*
X27529500Y29393000D01*
X27533500Y29396000D01*
X27538500Y29399000D01*
X27542500Y29402000D01*
X27547500Y29404000D01*
X27551500Y29406000D01*
X27556500Y29408000D01*
X27561500Y29410000D01*
X27566500Y29412000D01*
X27571500Y29413000D01*
X27576500Y29414000D01*
X27582500Y29414000D01*
X27587500Y29415000D01*
X27592500Y29415000D01*
X28117500Y29415000D01*
X28122500Y29415000D01*
X28127500Y29414000D01*
G36*
X28127500Y29414000D02*
G01*
X28133500Y29414000D01*
X28138500Y29413000D01*
X28143500Y29412000D01*
X28148500Y29410000D01*
X28153500Y29408000D01*
X28158500Y29406000D01*
X28162500Y29404000D01*
X28167500Y29402000D01*
X28171500Y29399000D01*
X28176500Y29396000D01*
X28180500Y29393000D01*
X28184500Y29389000D01*
X28188500Y29386000D01*
X28191500Y29382000D01*
X28195500Y29378000D01*
X28198500Y29374000D01*
X28201500Y29369000D01*
X28204500Y29365000D01*
X28206500Y29360000D01*
X28208500Y29356000D01*
X28210500Y29351000D01*
X28212500Y29346000D01*
X28214500Y29341000D01*
X28215500Y29336000D01*
X28216500Y29331000D01*
X28216500Y29325000D01*
X28217500Y29320000D01*
X28217500Y29315000D01*
X28217500Y29165000D01*
X28217500Y29160000D01*
X28216500Y29155000D01*
X28216500Y29149000D01*
X28215500Y29144000D01*
X28214500Y29139000D01*
X28212500Y29134000D01*
X28210500Y29129000D01*
X28208500Y29124000D01*
X28206500Y29120000D01*
X28204500Y29115000D01*
X28201500Y29111000D01*
X28198500Y29106000D01*
X28195500Y29102000D01*
X28191500Y29098000D01*
X28188500Y29094000D01*
X28184500Y29091000D01*
X28180500Y29087000D01*
X28176500Y29084000D01*
X28171500Y29081000D01*
X28167500Y29078000D01*
X28162500Y29076000D01*
X28158500Y29074000D01*
X28153500Y29072000D01*
X28148500Y29070000D01*
X28143500Y29068000D01*
X28138500Y29067000D01*
X28133500Y29066000D01*
X28127500Y29066000D01*
X28122500Y29065000D01*
X28117500Y29065000D01*
X27592500Y29065000D01*
X27587500Y29065000D01*
X27582500Y29066000D01*
X27576500Y29066000D01*
X27571500Y29067000D01*
X27566500Y29068000D01*
X27561500Y29070000D01*
X27556500Y29072000D01*
X27551500Y29074000D01*
X27547500Y29076000D01*
X27542500Y29078000D01*
X27538500Y29081000D01*
X27533500Y29084000D01*
X27529500Y29087000D01*
X27525500Y29091000D01*
X27521500Y29094000D01*
X27518500Y29098000D01*
X27514500Y29102000D01*
X27511500Y29106000D01*
X27508500Y29111000D01*
X27505500Y29115000D01*
X27503500Y29120000D01*
X27501500Y29124000D01*
X27499500Y29129000D01*
X27497500Y29134000D01*
X27495500Y29139000D01*
X27494500Y29144000D01*
X27493500Y29149000D01*
X27493500Y29155000D01*
X27492500Y29160000D01*
X27492500Y29165000D01*
X27492500Y29315000D01*
X27492500Y29320000D01*
X27493500Y29325000D01*
X27493500Y29331000D01*
X27494500Y29336000D01*
X27495500Y29341000D01*
X27497500Y29346000D01*
X27499500Y29351000D01*
X27501500Y29356000D01*
X27503500Y29360000D01*
X27505500Y29365000D01*
X27508500Y29369000D01*
X27511500Y29374000D01*
X27514500Y29378000D01*
X27518500Y29382000D01*
X27521500Y29386000D01*
X27525500Y29389000D01*
X27529500Y29393000D01*
X27533500Y29396000D01*
X27538500Y29399000D01*
X27542500Y29402000D01*
X27547500Y29404000D01*
X27551500Y29406000D01*
X27556500Y29408000D01*
X27561500Y29410000D01*
X27566500Y29412000D01*
X27571500Y29413000D01*
X27576500Y29414000D01*
X27582500Y29414000D01*
X27587500Y29415000D01*
X27592500Y29415000D01*
X28117500Y29415000D01*
X28122500Y29415000D01*
X28127500Y29414000D01*
G37*
X28127500Y28914000D02*
X28133500Y28914000D01*
X28138500Y28913000D01*
X28143500Y28912000D01*
X28148500Y28910000D01*
X28153500Y28908000D01*
X28158500Y28906000D01*
X28162500Y28904000D01*
X28167500Y28902000D01*
X28171500Y28899000D01*
X28176500Y28896000D01*
X28180500Y28893000D01*
X28184500Y28889000D01*
X28188500Y28886000D01*
X28191500Y28882000D01*
X28195500Y28878000D01*
X28198500Y28874000D01*
X28201500Y28869000D01*
X28204500Y28865000D01*
X28206500Y28860000D01*
X28208500Y28856000D01*
X28210500Y28851000D01*
X28212500Y28846000D01*
X28214500Y28841000D01*
X28215500Y28836000D01*
X28216500Y28831000D01*
X28216500Y28825000D01*
X28217500Y28820000D01*
X28217500Y28815000D01*
X28217500Y28665000D01*
X28217500Y28660000D01*
X28216500Y28655000D01*
X28216500Y28649000D01*
X28215500Y28644000D01*
X28214500Y28639000D01*
X28212500Y28634000D01*
X28210500Y28629000D01*
X28208500Y28624000D01*
X28206500Y28620000D01*
X28204500Y28615000D01*
X28201500Y28611000D01*
X28198500Y28606000D01*
X28195500Y28602000D01*
X28191500Y28598000D01*
X28188500Y28594000D01*
X28184500Y28591000D01*
X28180500Y28587000D01*
X28176500Y28584000D01*
X28171500Y28581000D01*
X28167500Y28578000D01*
X28162500Y28576000D01*
X28158500Y28574000D01*
X28153500Y28572000D01*
X28148500Y28570000D01*
X28143500Y28568000D01*
X28138500Y28567000D01*
X28133500Y28566000D01*
X28127500Y28566000D01*
X28122500Y28565000D01*
X28117500Y28565000D01*
X27592500Y28565000D01*
X27587500Y28565000D01*
X27582500Y28566000D01*
X27576500Y28566000D01*
X27571500Y28567000D01*
X27566500Y28568000D01*
X27561500Y28570000D01*
X27556500Y28572000D01*
X27551500Y28574000D01*
X27547500Y28576000D01*
X27542500Y28578000D01*
X27538500Y28581000D01*
X27533500Y28584000D01*
X27529500Y28587000D01*
X27525500Y28591000D01*
X27521500Y28594000D01*
X27518500Y28598000D01*
X27514500Y28602000D01*
X27511500Y28606000D01*
X27508500Y28611000D01*
X27505500Y28615000D01*
X27503500Y28620000D01*
X27501500Y28624000D01*
X27499500Y28629000D01*
X27497500Y28634000D01*
X27495500Y28639000D01*
X27494500Y28644000D01*
X27493500Y28649000D01*
X27493500Y28655000D01*
X27492500Y28660000D01*
X27492500Y28665000D01*
X27492500Y28815000D01*
X27492500Y28820000D01*
X27493500Y28825000D01*
X27493500Y28831000D01*
X27494500Y28836000D01*
X27495500Y28841000D01*
X27497500Y28846000D01*
X27499500Y28851000D01*
X27501500Y28856000D01*
X27503500Y28860000D01*
X27505500Y28865000D01*
X27508500Y28869000D01*
X27511500Y28874000D01*
X27514500Y28878000D01*
X27518500Y28882000D01*
X27521500Y28886000D01*
X27525500Y28889000D01*
X27529500Y28893000D01*
X27533500Y28896000D01*
X27538500Y28899000D01*
X27542500Y28902000D01*
X27547500Y28904000D01*
X27551500Y28906000D01*
X27556500Y28908000D01*
X27561500Y28910000D01*
X27566500Y28912000D01*
X27571500Y28913000D01*
X27576500Y28914000D01*
X27582500Y28914000D01*
X27587500Y28915000D01*
X27592500Y28915000D01*
X28117500Y28915000D01*
X28122500Y28915000D01*
X28127500Y28914000D01*
G36*
X28127500Y28914000D02*
G01*
X28133500Y28914000D01*
X28138500Y28913000D01*
X28143500Y28912000D01*
X28148500Y28910000D01*
X28153500Y28908000D01*
X28158500Y28906000D01*
X28162500Y28904000D01*
X28167500Y28902000D01*
X28171500Y28899000D01*
X28176500Y28896000D01*
X28180500Y28893000D01*
X28184500Y28889000D01*
X28188500Y28886000D01*
X28191500Y28882000D01*
X28195500Y28878000D01*
X28198500Y28874000D01*
X28201500Y28869000D01*
X28204500Y28865000D01*
X28206500Y28860000D01*
X28208500Y28856000D01*
X28210500Y28851000D01*
X28212500Y28846000D01*
X28214500Y28841000D01*
X28215500Y28836000D01*
X28216500Y28831000D01*
X28216500Y28825000D01*
X28217500Y28820000D01*
X28217500Y28815000D01*
X28217500Y28665000D01*
X28217500Y28660000D01*
X28216500Y28655000D01*
X28216500Y28649000D01*
X28215500Y28644000D01*
X28214500Y28639000D01*
X28212500Y28634000D01*
X28210500Y28629000D01*
X28208500Y28624000D01*
X28206500Y28620000D01*
X28204500Y28615000D01*
X28201500Y28611000D01*
X28198500Y28606000D01*
X28195500Y28602000D01*
X28191500Y28598000D01*
X28188500Y28594000D01*
X28184500Y28591000D01*
X28180500Y28587000D01*
X28176500Y28584000D01*
X28171500Y28581000D01*
X28167500Y28578000D01*
X28162500Y28576000D01*
X28158500Y28574000D01*
X28153500Y28572000D01*
X28148500Y28570000D01*
X28143500Y28568000D01*
X28138500Y28567000D01*
X28133500Y28566000D01*
X28127500Y28566000D01*
X28122500Y28565000D01*
X28117500Y28565000D01*
X27592500Y28565000D01*
X27587500Y28565000D01*
X27582500Y28566000D01*
X27576500Y28566000D01*
X27571500Y28567000D01*
X27566500Y28568000D01*
X27561500Y28570000D01*
X27556500Y28572000D01*
X27551500Y28574000D01*
X27547500Y28576000D01*
X27542500Y28578000D01*
X27538500Y28581000D01*
X27533500Y28584000D01*
X27529500Y28587000D01*
X27525500Y28591000D01*
X27521500Y28594000D01*
X27518500Y28598000D01*
X27514500Y28602000D01*
X27511500Y28606000D01*
X27508500Y28611000D01*
X27505500Y28615000D01*
X27503500Y28620000D01*
X27501500Y28624000D01*
X27499500Y28629000D01*
X27497500Y28634000D01*
X27495500Y28639000D01*
X27494500Y28644000D01*
X27493500Y28649000D01*
X27493500Y28655000D01*
X27492500Y28660000D01*
X27492500Y28665000D01*
X27492500Y28815000D01*
X27492500Y28820000D01*
X27493500Y28825000D01*
X27493500Y28831000D01*
X27494500Y28836000D01*
X27495500Y28841000D01*
X27497500Y28846000D01*
X27499500Y28851000D01*
X27501500Y28856000D01*
X27503500Y28860000D01*
X27505500Y28865000D01*
X27508500Y28869000D01*
X27511500Y28874000D01*
X27514500Y28878000D01*
X27518500Y28882000D01*
X27521500Y28886000D01*
X27525500Y28889000D01*
X27529500Y28893000D01*
X27533500Y28896000D01*
X27538500Y28899000D01*
X27542500Y28902000D01*
X27547500Y28904000D01*
X27551500Y28906000D01*
X27556500Y28908000D01*
X27561500Y28910000D01*
X27566500Y28912000D01*
X27571500Y28913000D01*
X27576500Y28914000D01*
X27582500Y28914000D01*
X27587500Y28915000D01*
X27592500Y28915000D01*
X28117500Y28915000D01*
X28122500Y28915000D01*
X28127500Y28914000D01*
G37*
X28127500Y28414000D02*
X28133500Y28414000D01*
X28138500Y28413000D01*
X28143500Y28412000D01*
X28148500Y28410000D01*
X28153500Y28408000D01*
X28158500Y28406000D01*
X28162500Y28404000D01*
X28167500Y28402000D01*
X28171500Y28399000D01*
X28176500Y28396000D01*
X28180500Y28393000D01*
X28184500Y28389000D01*
X28188500Y28386000D01*
X28191500Y28382000D01*
X28195500Y28378000D01*
X28198500Y28374000D01*
X28201500Y28369000D01*
X28204500Y28365000D01*
X28206500Y28360000D01*
X28208500Y28356000D01*
X28210500Y28351000D01*
X28212500Y28346000D01*
X28214500Y28341000D01*
X28215500Y28336000D01*
X28216500Y28331000D01*
X28216500Y28325000D01*
X28217500Y28320000D01*
X28217500Y28315000D01*
X28217500Y28165000D01*
X28217500Y28160000D01*
X28216500Y28155000D01*
X28216500Y28149000D01*
X28215500Y28144000D01*
X28214500Y28139000D01*
X28212500Y28134000D01*
X28210500Y28129000D01*
X28208500Y28124000D01*
X28206500Y28120000D01*
X28204500Y28115000D01*
X28201500Y28111000D01*
X28198500Y28106000D01*
X28195500Y28102000D01*
X28191500Y28098000D01*
X28188500Y28094000D01*
X28184500Y28091000D01*
X28180500Y28087000D01*
X28176500Y28084000D01*
X28171500Y28081000D01*
X28167500Y28078000D01*
X28162500Y28076000D01*
X28158500Y28074000D01*
X28153500Y28072000D01*
X28148500Y28070000D01*
X28143500Y28068000D01*
X28138500Y28067000D01*
X28133500Y28066000D01*
X28127500Y28066000D01*
X28122500Y28065000D01*
X28117500Y28065000D01*
X27592500Y28065000D01*
X27587500Y28065000D01*
X27582500Y28066000D01*
X27576500Y28066000D01*
X27571500Y28067000D01*
X27566500Y28068000D01*
X27561500Y28070000D01*
X27556500Y28072000D01*
X27551500Y28074000D01*
X27547500Y28076000D01*
X27542500Y28078000D01*
X27538500Y28081000D01*
X27533500Y28084000D01*
X27529500Y28087000D01*
X27525500Y28091000D01*
X27521500Y28094000D01*
X27518500Y28098000D01*
X27514500Y28102000D01*
X27511500Y28106000D01*
X27508500Y28111000D01*
X27505500Y28115000D01*
X27503500Y28120000D01*
X27501500Y28124000D01*
X27499500Y28129000D01*
X27497500Y28134000D01*
X27495500Y28139000D01*
X27494500Y28144000D01*
X27493500Y28149000D01*
X27493500Y28155000D01*
X27492500Y28160000D01*
X27492500Y28165000D01*
X27492500Y28315000D01*
X27492500Y28320000D01*
X27493500Y28325000D01*
X27493500Y28331000D01*
X27494500Y28336000D01*
X27495500Y28341000D01*
X27497500Y28346000D01*
X27499500Y28351000D01*
X27501500Y28356000D01*
X27503500Y28360000D01*
X27505500Y28365000D01*
X27508500Y28369000D01*
X27511500Y28374000D01*
X27514500Y28378000D01*
X27518500Y28382000D01*
X27521500Y28386000D01*
X27525500Y28389000D01*
X27529500Y28393000D01*
X27533500Y28396000D01*
X27538500Y28399000D01*
X27542500Y28402000D01*
X27547500Y28404000D01*
X27551500Y28406000D01*
X27556500Y28408000D01*
X27561500Y28410000D01*
X27566500Y28412000D01*
X27571500Y28413000D01*
X27576500Y28414000D01*
X27582500Y28414000D01*
X27587500Y28415000D01*
X27592500Y28415000D01*
X28117500Y28415000D01*
X28122500Y28415000D01*
X28127500Y28414000D01*
G36*
X28127500Y28414000D02*
G01*
X28133500Y28414000D01*
X28138500Y28413000D01*
X28143500Y28412000D01*
X28148500Y28410000D01*
X28153500Y28408000D01*
X28158500Y28406000D01*
X28162500Y28404000D01*
X28167500Y28402000D01*
X28171500Y28399000D01*
X28176500Y28396000D01*
X28180500Y28393000D01*
X28184500Y28389000D01*
X28188500Y28386000D01*
X28191500Y28382000D01*
X28195500Y28378000D01*
X28198500Y28374000D01*
X28201500Y28369000D01*
X28204500Y28365000D01*
X28206500Y28360000D01*
X28208500Y28356000D01*
X28210500Y28351000D01*
X28212500Y28346000D01*
X28214500Y28341000D01*
X28215500Y28336000D01*
X28216500Y28331000D01*
X28216500Y28325000D01*
X28217500Y28320000D01*
X28217500Y28315000D01*
X28217500Y28165000D01*
X28217500Y28160000D01*
X28216500Y28155000D01*
X28216500Y28149000D01*
X28215500Y28144000D01*
X28214500Y28139000D01*
X28212500Y28134000D01*
X28210500Y28129000D01*
X28208500Y28124000D01*
X28206500Y28120000D01*
X28204500Y28115000D01*
X28201500Y28111000D01*
X28198500Y28106000D01*
X28195500Y28102000D01*
X28191500Y28098000D01*
X28188500Y28094000D01*
X28184500Y28091000D01*
X28180500Y28087000D01*
X28176500Y28084000D01*
X28171500Y28081000D01*
X28167500Y28078000D01*
X28162500Y28076000D01*
X28158500Y28074000D01*
X28153500Y28072000D01*
X28148500Y28070000D01*
X28143500Y28068000D01*
X28138500Y28067000D01*
X28133500Y28066000D01*
X28127500Y28066000D01*
X28122500Y28065000D01*
X28117500Y28065000D01*
X27592500Y28065000D01*
X27587500Y28065000D01*
X27582500Y28066000D01*
X27576500Y28066000D01*
X27571500Y28067000D01*
X27566500Y28068000D01*
X27561500Y28070000D01*
X27556500Y28072000D01*
X27551500Y28074000D01*
X27547500Y28076000D01*
X27542500Y28078000D01*
X27538500Y28081000D01*
X27533500Y28084000D01*
X27529500Y28087000D01*
X27525500Y28091000D01*
X27521500Y28094000D01*
X27518500Y28098000D01*
X27514500Y28102000D01*
X27511500Y28106000D01*
X27508500Y28111000D01*
X27505500Y28115000D01*
X27503500Y28120000D01*
X27501500Y28124000D01*
X27499500Y28129000D01*
X27497500Y28134000D01*
X27495500Y28139000D01*
X27494500Y28144000D01*
X27493500Y28149000D01*
X27493500Y28155000D01*
X27492500Y28160000D01*
X27492500Y28165000D01*
X27492500Y28315000D01*
X27492500Y28320000D01*
X27493500Y28325000D01*
X27493500Y28331000D01*
X27494500Y28336000D01*
X27495500Y28341000D01*
X27497500Y28346000D01*
X27499500Y28351000D01*
X27501500Y28356000D01*
X27503500Y28360000D01*
X27505500Y28365000D01*
X27508500Y28369000D01*
X27511500Y28374000D01*
X27514500Y28378000D01*
X27518500Y28382000D01*
X27521500Y28386000D01*
X27525500Y28389000D01*
X27529500Y28393000D01*
X27533500Y28396000D01*
X27538500Y28399000D01*
X27542500Y28402000D01*
X27547500Y28404000D01*
X27551500Y28406000D01*
X27556500Y28408000D01*
X27561500Y28410000D01*
X27566500Y28412000D01*
X27571500Y28413000D01*
X27576500Y28414000D01*
X27582500Y28414000D01*
X27587500Y28415000D01*
X27592500Y28415000D01*
X28117500Y28415000D01*
X28122500Y28415000D01*
X28127500Y28414000D01*
G37*
X28127500Y27664000D02*
X28133500Y27664000D01*
X28138500Y27663000D01*
X28143500Y27662000D01*
X28148500Y27660000D01*
X28153500Y27658000D01*
X28158500Y27656000D01*
X28162500Y27654000D01*
X28167500Y27652000D01*
X28171500Y27649000D01*
X28176500Y27646000D01*
X28180500Y27643000D01*
X28184500Y27639000D01*
X28188500Y27636000D01*
X28191500Y27632000D01*
X28195500Y27628000D01*
X28198500Y27624000D01*
X28201500Y27619000D01*
X28204500Y27615000D01*
X28206500Y27610000D01*
X28208500Y27606000D01*
X28210500Y27601000D01*
X28212500Y27596000D01*
X28214500Y27591000D01*
X28215500Y27586000D01*
X28216500Y27581000D01*
X28216500Y27575000D01*
X28217500Y27570000D01*
X28217500Y27565000D01*
X28217500Y27415000D01*
X28217500Y27410000D01*
X28216500Y27405000D01*
X28216500Y27399000D01*
X28215500Y27394000D01*
X28214500Y27389000D01*
X28212500Y27384000D01*
X28210500Y27379000D01*
X28208500Y27374000D01*
X28206500Y27370000D01*
X28204500Y27365000D01*
X28201500Y27361000D01*
X28198500Y27356000D01*
X28195500Y27352000D01*
X28191500Y27348000D01*
X28188500Y27344000D01*
X28184500Y27341000D01*
X28180500Y27337000D01*
X28176500Y27334000D01*
X28171500Y27331000D01*
X28167500Y27328000D01*
X28162500Y27326000D01*
X28158500Y27324000D01*
X28153500Y27322000D01*
X28148500Y27320000D01*
X28143500Y27318000D01*
X28138500Y27317000D01*
X28133500Y27316000D01*
X28127500Y27316000D01*
X28122500Y27315000D01*
X28117500Y27315000D01*
X27592500Y27315000D01*
X27587500Y27315000D01*
X27582500Y27316000D01*
X27576500Y27316000D01*
X27571500Y27317000D01*
X27566500Y27318000D01*
X27561500Y27320000D01*
X27556500Y27322000D01*
X27551500Y27324000D01*
X27547500Y27326000D01*
X27542500Y27328000D01*
X27538500Y27331000D01*
X27533500Y27334000D01*
X27529500Y27337000D01*
X27525500Y27341000D01*
X27521500Y27344000D01*
X27518500Y27348000D01*
X27514500Y27352000D01*
X27511500Y27356000D01*
X27508500Y27361000D01*
X27505500Y27365000D01*
X27503500Y27370000D01*
X27501500Y27374000D01*
X27499500Y27379000D01*
X27497500Y27384000D01*
X27495500Y27389000D01*
X27494500Y27394000D01*
X27493500Y27399000D01*
X27493500Y27405000D01*
X27492500Y27410000D01*
X27492500Y27415000D01*
X27492500Y27565000D01*
X27492500Y27570000D01*
X27493500Y27575000D01*
X27493500Y27581000D01*
X27494500Y27586000D01*
X27495500Y27591000D01*
X27497500Y27596000D01*
X27499500Y27601000D01*
X27501500Y27606000D01*
X27503500Y27610000D01*
X27505500Y27615000D01*
X27508500Y27619000D01*
X27511500Y27624000D01*
X27514500Y27628000D01*
X27518500Y27632000D01*
X27521500Y27636000D01*
X27525500Y27639000D01*
X27529500Y27643000D01*
X27533500Y27646000D01*
X27538500Y27649000D01*
X27542500Y27652000D01*
X27547500Y27654000D01*
X27551500Y27656000D01*
X27556500Y27658000D01*
X27561500Y27660000D01*
X27566500Y27662000D01*
X27571500Y27663000D01*
X27576500Y27664000D01*
X27582500Y27664000D01*
X27587500Y27665000D01*
X27592500Y27665000D01*
X28117500Y27665000D01*
X28122500Y27665000D01*
X28127500Y27664000D01*
G36*
X28127500Y27664000D02*
G01*
X28133500Y27664000D01*
X28138500Y27663000D01*
X28143500Y27662000D01*
X28148500Y27660000D01*
X28153500Y27658000D01*
X28158500Y27656000D01*
X28162500Y27654000D01*
X28167500Y27652000D01*
X28171500Y27649000D01*
X28176500Y27646000D01*
X28180500Y27643000D01*
X28184500Y27639000D01*
X28188500Y27636000D01*
X28191500Y27632000D01*
X28195500Y27628000D01*
X28198500Y27624000D01*
X28201500Y27619000D01*
X28204500Y27615000D01*
X28206500Y27610000D01*
X28208500Y27606000D01*
X28210500Y27601000D01*
X28212500Y27596000D01*
X28214500Y27591000D01*
X28215500Y27586000D01*
X28216500Y27581000D01*
X28216500Y27575000D01*
X28217500Y27570000D01*
X28217500Y27565000D01*
X28217500Y27415000D01*
X28217500Y27410000D01*
X28216500Y27405000D01*
X28216500Y27399000D01*
X28215500Y27394000D01*
X28214500Y27389000D01*
X28212500Y27384000D01*
X28210500Y27379000D01*
X28208500Y27374000D01*
X28206500Y27370000D01*
X28204500Y27365000D01*
X28201500Y27361000D01*
X28198500Y27356000D01*
X28195500Y27352000D01*
X28191500Y27348000D01*
X28188500Y27344000D01*
X28184500Y27341000D01*
X28180500Y27337000D01*
X28176500Y27334000D01*
X28171500Y27331000D01*
X28167500Y27328000D01*
X28162500Y27326000D01*
X28158500Y27324000D01*
X28153500Y27322000D01*
X28148500Y27320000D01*
X28143500Y27318000D01*
X28138500Y27317000D01*
X28133500Y27316000D01*
X28127500Y27316000D01*
X28122500Y27315000D01*
X28117500Y27315000D01*
X27592500Y27315000D01*
X27587500Y27315000D01*
X27582500Y27316000D01*
X27576500Y27316000D01*
X27571500Y27317000D01*
X27566500Y27318000D01*
X27561500Y27320000D01*
X27556500Y27322000D01*
X27551500Y27324000D01*
X27547500Y27326000D01*
X27542500Y27328000D01*
X27538500Y27331000D01*
X27533500Y27334000D01*
X27529500Y27337000D01*
X27525500Y27341000D01*
X27521500Y27344000D01*
X27518500Y27348000D01*
X27514500Y27352000D01*
X27511500Y27356000D01*
X27508500Y27361000D01*
X27505500Y27365000D01*
X27503500Y27370000D01*
X27501500Y27374000D01*
X27499500Y27379000D01*
X27497500Y27384000D01*
X27495500Y27389000D01*
X27494500Y27394000D01*
X27493500Y27399000D01*
X27493500Y27405000D01*
X27492500Y27410000D01*
X27492500Y27415000D01*
X27492500Y27565000D01*
X27492500Y27570000D01*
X27493500Y27575000D01*
X27493500Y27581000D01*
X27494500Y27586000D01*
X27495500Y27591000D01*
X27497500Y27596000D01*
X27499500Y27601000D01*
X27501500Y27606000D01*
X27503500Y27610000D01*
X27505500Y27615000D01*
X27508500Y27619000D01*
X27511500Y27624000D01*
X27514500Y27628000D01*
X27518500Y27632000D01*
X27521500Y27636000D01*
X27525500Y27639000D01*
X27529500Y27643000D01*
X27533500Y27646000D01*
X27538500Y27649000D01*
X27542500Y27652000D01*
X27547500Y27654000D01*
X27551500Y27656000D01*
X27556500Y27658000D01*
X27561500Y27660000D01*
X27566500Y27662000D01*
X27571500Y27663000D01*
X27576500Y27664000D01*
X27582500Y27664000D01*
X27587500Y27665000D01*
X27592500Y27665000D01*
X28117500Y27665000D01*
X28122500Y27665000D01*
X28127500Y27664000D01*
G37*
X28127500Y27164000D02*
X28133500Y27164000D01*
X28138500Y27163000D01*
X28143500Y27162000D01*
X28148500Y27160000D01*
X28153500Y27158000D01*
X28158500Y27156000D01*
X28162500Y27154000D01*
X28167500Y27152000D01*
X28171500Y27149000D01*
X28176500Y27146000D01*
X28180500Y27143000D01*
X28184500Y27139000D01*
X28188500Y27136000D01*
X28191500Y27132000D01*
X28195500Y27128000D01*
X28198500Y27124000D01*
X28201500Y27119000D01*
X28204500Y27115000D01*
X28206500Y27110000D01*
X28208500Y27106000D01*
X28210500Y27101000D01*
X28212500Y27096000D01*
X28214500Y27091000D01*
X28215500Y27086000D01*
X28216500Y27081000D01*
X28216500Y27075000D01*
X28217500Y27070000D01*
X28217500Y27065000D01*
X28217500Y26915000D01*
X28217500Y26910000D01*
X28216500Y26905000D01*
X28216500Y26899000D01*
X28215500Y26894000D01*
X28214500Y26889000D01*
X28212500Y26884000D01*
X28210500Y26879000D01*
X28208500Y26874000D01*
X28206500Y26870000D01*
X28204500Y26865000D01*
X28201500Y26861000D01*
X28198500Y26856000D01*
X28195500Y26852000D01*
X28191500Y26848000D01*
X28188500Y26844000D01*
X28184500Y26841000D01*
X28180500Y26837000D01*
X28176500Y26834000D01*
X28171500Y26831000D01*
X28167500Y26828000D01*
X28162500Y26826000D01*
X28158500Y26824000D01*
X28153500Y26822000D01*
X28148500Y26820000D01*
X28143500Y26818000D01*
X28138500Y26817000D01*
X28133500Y26816000D01*
X28127500Y26816000D01*
X28122500Y26815000D01*
X28117500Y26815000D01*
X27592500Y26815000D01*
X27587500Y26815000D01*
X27582500Y26816000D01*
X27576500Y26816000D01*
X27571500Y26817000D01*
X27566500Y26818000D01*
X27561500Y26820000D01*
X27556500Y26822000D01*
X27551500Y26824000D01*
X27547500Y26826000D01*
X27542500Y26828000D01*
X27538500Y26831000D01*
X27533500Y26834000D01*
X27529500Y26837000D01*
X27525500Y26841000D01*
X27521500Y26844000D01*
X27518500Y26848000D01*
X27514500Y26852000D01*
X27511500Y26856000D01*
X27508500Y26861000D01*
X27505500Y26865000D01*
X27503500Y26870000D01*
X27501500Y26874000D01*
X27499500Y26879000D01*
X27497500Y26884000D01*
X27495500Y26889000D01*
X27494500Y26894000D01*
X27493500Y26899000D01*
X27493500Y26905000D01*
X27492500Y26910000D01*
X27492500Y26915000D01*
X27492500Y27065000D01*
X27492500Y27070000D01*
X27493500Y27075000D01*
X27493500Y27081000D01*
X27494500Y27086000D01*
X27495500Y27091000D01*
X27497500Y27096000D01*
X27499500Y27101000D01*
X27501500Y27106000D01*
X27503500Y27110000D01*
X27505500Y27115000D01*
X27508500Y27119000D01*
X27511500Y27124000D01*
X27514500Y27128000D01*
X27518500Y27132000D01*
X27521500Y27136000D01*
X27525500Y27139000D01*
X27529500Y27143000D01*
X27533500Y27146000D01*
X27538500Y27149000D01*
X27542500Y27152000D01*
X27547500Y27154000D01*
X27551500Y27156000D01*
X27556500Y27158000D01*
X27561500Y27160000D01*
X27566500Y27162000D01*
X27571500Y27163000D01*
X27576500Y27164000D01*
X27582500Y27164000D01*
X27587500Y27165000D01*
X27592500Y27165000D01*
X28117500Y27165000D01*
X28122500Y27165000D01*
X28127500Y27164000D01*
G36*
X28127500Y27164000D02*
G01*
X28133500Y27164000D01*
X28138500Y27163000D01*
X28143500Y27162000D01*
X28148500Y27160000D01*
X28153500Y27158000D01*
X28158500Y27156000D01*
X28162500Y27154000D01*
X28167500Y27152000D01*
X28171500Y27149000D01*
X28176500Y27146000D01*
X28180500Y27143000D01*
X28184500Y27139000D01*
X28188500Y27136000D01*
X28191500Y27132000D01*
X28195500Y27128000D01*
X28198500Y27124000D01*
X28201500Y27119000D01*
X28204500Y27115000D01*
X28206500Y27110000D01*
X28208500Y27106000D01*
X28210500Y27101000D01*
X28212500Y27096000D01*
X28214500Y27091000D01*
X28215500Y27086000D01*
X28216500Y27081000D01*
X28216500Y27075000D01*
X28217500Y27070000D01*
X28217500Y27065000D01*
X28217500Y26915000D01*
X28217500Y26910000D01*
X28216500Y26905000D01*
X28216500Y26899000D01*
X28215500Y26894000D01*
X28214500Y26889000D01*
X28212500Y26884000D01*
X28210500Y26879000D01*
X28208500Y26874000D01*
X28206500Y26870000D01*
X28204500Y26865000D01*
X28201500Y26861000D01*
X28198500Y26856000D01*
X28195500Y26852000D01*
X28191500Y26848000D01*
X28188500Y26844000D01*
X28184500Y26841000D01*
X28180500Y26837000D01*
X28176500Y26834000D01*
X28171500Y26831000D01*
X28167500Y26828000D01*
X28162500Y26826000D01*
X28158500Y26824000D01*
X28153500Y26822000D01*
X28148500Y26820000D01*
X28143500Y26818000D01*
X28138500Y26817000D01*
X28133500Y26816000D01*
X28127500Y26816000D01*
X28122500Y26815000D01*
X28117500Y26815000D01*
X27592500Y26815000D01*
X27587500Y26815000D01*
X27582500Y26816000D01*
X27576500Y26816000D01*
X27571500Y26817000D01*
X27566500Y26818000D01*
X27561500Y26820000D01*
X27556500Y26822000D01*
X27551500Y26824000D01*
X27547500Y26826000D01*
X27542500Y26828000D01*
X27538500Y26831000D01*
X27533500Y26834000D01*
X27529500Y26837000D01*
X27525500Y26841000D01*
X27521500Y26844000D01*
X27518500Y26848000D01*
X27514500Y26852000D01*
X27511500Y26856000D01*
X27508500Y26861000D01*
X27505500Y26865000D01*
X27503500Y26870000D01*
X27501500Y26874000D01*
X27499500Y26879000D01*
X27497500Y26884000D01*
X27495500Y26889000D01*
X27494500Y26894000D01*
X27493500Y26899000D01*
X27493500Y26905000D01*
X27492500Y26910000D01*
X27492500Y26915000D01*
X27492500Y27065000D01*
X27492500Y27070000D01*
X27493500Y27075000D01*
X27493500Y27081000D01*
X27494500Y27086000D01*
X27495500Y27091000D01*
X27497500Y27096000D01*
X27499500Y27101000D01*
X27501500Y27106000D01*
X27503500Y27110000D01*
X27505500Y27115000D01*
X27508500Y27119000D01*
X27511500Y27124000D01*
X27514500Y27128000D01*
X27518500Y27132000D01*
X27521500Y27136000D01*
X27525500Y27139000D01*
X27529500Y27143000D01*
X27533500Y27146000D01*
X27538500Y27149000D01*
X27542500Y27152000D01*
X27547500Y27154000D01*
X27551500Y27156000D01*
X27556500Y27158000D01*
X27561500Y27160000D01*
X27566500Y27162000D01*
X27571500Y27163000D01*
X27576500Y27164000D01*
X27582500Y27164000D01*
X27587500Y27165000D01*
X27592500Y27165000D01*
X28117500Y27165000D01*
X28122500Y27165000D01*
X28127500Y27164000D01*
G37*
X28577500Y30364000D02*
X28583500Y30364000D01*
X28588500Y30363000D01*
X28593500Y30362000D01*
X28598500Y30360000D01*
X28603500Y30358000D01*
X28608500Y30356000D01*
X28612500Y30354000D01*
X28617500Y30352000D01*
X28621500Y30349000D01*
X28626500Y30346000D01*
X28630500Y30343000D01*
X28634500Y30339000D01*
X28638500Y30336000D01*
X28641500Y30332000D01*
X28645500Y30328000D01*
X28648500Y30324000D01*
X28651500Y30319000D01*
X28654500Y30315000D01*
X28656500Y30310000D01*
X28658500Y30306000D01*
X28660500Y30301000D01*
X28662500Y30296000D01*
X28664500Y30291000D01*
X28665500Y30286000D01*
X28666500Y30281000D01*
X28666500Y30275000D01*
X28667500Y30270000D01*
X28667500Y30265000D01*
X28667500Y29765000D01*
X28667500Y29760000D01*
X28666500Y29755000D01*
X28666500Y29749000D01*
X28665500Y29744000D01*
X28664500Y29739000D01*
X28662500Y29734000D01*
X28660500Y29729000D01*
X28658500Y29724000D01*
X28656500Y29720000D01*
X28654500Y29715000D01*
X28651500Y29711000D01*
X28648500Y29706000D01*
X28645500Y29702000D01*
X28641500Y29698000D01*
X28638500Y29694000D01*
X28634500Y29691000D01*
X28630500Y29687000D01*
X28626500Y29684000D01*
X28621500Y29681000D01*
X28617500Y29678000D01*
X28612500Y29676000D01*
X28608500Y29674000D01*
X28603500Y29672000D01*
X28598500Y29670000D01*
X28593500Y29668000D01*
X28588500Y29667000D01*
X28583500Y29666000D01*
X28577500Y29666000D01*
X28572500Y29665000D01*
X28567500Y29665000D01*
X28417500Y29665000D01*
X28412500Y29665000D01*
X28407500Y29666000D01*
X28401500Y29666000D01*
X28396500Y29667000D01*
X28391500Y29668000D01*
X28386500Y29670000D01*
X28381500Y29672000D01*
X28376500Y29674000D01*
X28372500Y29676000D01*
X28367500Y29678000D01*
X28363500Y29681000D01*
X28358500Y29684000D01*
X28354500Y29687000D01*
X28350500Y29691000D01*
X28346500Y29694000D01*
X28343500Y29698000D01*
X28339500Y29702000D01*
X28336500Y29706000D01*
X28333500Y29711000D01*
X28330500Y29715000D01*
X28328500Y29720000D01*
X28326500Y29724000D01*
X28324500Y29729000D01*
X28322500Y29734000D01*
X28320500Y29739000D01*
X28319500Y29744000D01*
X28318500Y29749000D01*
X28318500Y29755000D01*
X28317500Y29760000D01*
X28317500Y29765000D01*
X28317500Y30265000D01*
X28317500Y30270000D01*
X28318500Y30275000D01*
X28318500Y30281000D01*
X28319500Y30286000D01*
X28320500Y30291000D01*
X28322500Y30296000D01*
X28324500Y30301000D01*
X28326500Y30306000D01*
X28328500Y30310000D01*
X28330500Y30315000D01*
X28333500Y30319000D01*
X28336500Y30324000D01*
X28339500Y30328000D01*
X28343500Y30332000D01*
X28346500Y30336000D01*
X28350500Y30339000D01*
X28354500Y30343000D01*
X28358500Y30346000D01*
X28363500Y30349000D01*
X28367500Y30352000D01*
X28372500Y30354000D01*
X28376500Y30356000D01*
X28381500Y30358000D01*
X28386500Y30360000D01*
X28391500Y30362000D01*
X28396500Y30363000D01*
X28401500Y30364000D01*
X28407500Y30364000D01*
X28412500Y30365000D01*
X28417500Y30365000D01*
X28567500Y30365000D01*
X28572500Y30365000D01*
X28577500Y30364000D01*
G36*
X28577500Y30364000D02*
G01*
X28583500Y30364000D01*
X28588500Y30363000D01*
X28593500Y30362000D01*
X28598500Y30360000D01*
X28603500Y30358000D01*
X28608500Y30356000D01*
X28612500Y30354000D01*
X28617500Y30352000D01*
X28621500Y30349000D01*
X28626500Y30346000D01*
X28630500Y30343000D01*
X28634500Y30339000D01*
X28638500Y30336000D01*
X28641500Y30332000D01*
X28645500Y30328000D01*
X28648500Y30324000D01*
X28651500Y30319000D01*
X28654500Y30315000D01*
X28656500Y30310000D01*
X28658500Y30306000D01*
X28660500Y30301000D01*
X28662500Y30296000D01*
X28664500Y30291000D01*
X28665500Y30286000D01*
X28666500Y30281000D01*
X28666500Y30275000D01*
X28667500Y30270000D01*
X28667500Y30265000D01*
X28667500Y29765000D01*
X28667500Y29760000D01*
X28666500Y29755000D01*
X28666500Y29749000D01*
X28665500Y29744000D01*
X28664500Y29739000D01*
X28662500Y29734000D01*
X28660500Y29729000D01*
X28658500Y29724000D01*
X28656500Y29720000D01*
X28654500Y29715000D01*
X28651500Y29711000D01*
X28648500Y29706000D01*
X28645500Y29702000D01*
X28641500Y29698000D01*
X28638500Y29694000D01*
X28634500Y29691000D01*
X28630500Y29687000D01*
X28626500Y29684000D01*
X28621500Y29681000D01*
X28617500Y29678000D01*
X28612500Y29676000D01*
X28608500Y29674000D01*
X28603500Y29672000D01*
X28598500Y29670000D01*
X28593500Y29668000D01*
X28588500Y29667000D01*
X28583500Y29666000D01*
X28577500Y29666000D01*
X28572500Y29665000D01*
X28567500Y29665000D01*
X28417500Y29665000D01*
X28412500Y29665000D01*
X28407500Y29666000D01*
X28401500Y29666000D01*
X28396500Y29667000D01*
X28391500Y29668000D01*
X28386500Y29670000D01*
X28381500Y29672000D01*
X28376500Y29674000D01*
X28372500Y29676000D01*
X28367500Y29678000D01*
X28363500Y29681000D01*
X28358500Y29684000D01*
X28354500Y29687000D01*
X28350500Y29691000D01*
X28346500Y29694000D01*
X28343500Y29698000D01*
X28339500Y29702000D01*
X28336500Y29706000D01*
X28333500Y29711000D01*
X28330500Y29715000D01*
X28328500Y29720000D01*
X28326500Y29724000D01*
X28324500Y29729000D01*
X28322500Y29734000D01*
X28320500Y29739000D01*
X28319500Y29744000D01*
X28318500Y29749000D01*
X28318500Y29755000D01*
X28317500Y29760000D01*
X28317500Y29765000D01*
X28317500Y30265000D01*
X28317500Y30270000D01*
X28318500Y30275000D01*
X28318500Y30281000D01*
X28319500Y30286000D01*
X28320500Y30291000D01*
X28322500Y30296000D01*
X28324500Y30301000D01*
X28326500Y30306000D01*
X28328500Y30310000D01*
X28330500Y30315000D01*
X28333500Y30319000D01*
X28336500Y30324000D01*
X28339500Y30328000D01*
X28343500Y30332000D01*
X28346500Y30336000D01*
X28350500Y30339000D01*
X28354500Y30343000D01*
X28358500Y30346000D01*
X28363500Y30349000D01*
X28367500Y30352000D01*
X28372500Y30354000D01*
X28376500Y30356000D01*
X28381500Y30358000D01*
X28386500Y30360000D01*
X28391500Y30362000D01*
X28396500Y30363000D01*
X28401500Y30364000D01*
X28407500Y30364000D01*
X28412500Y30365000D01*
X28417500Y30365000D01*
X28567500Y30365000D01*
X28572500Y30365000D01*
X28577500Y30364000D01*
G37*
X28577500Y26564000D02*
X28583500Y26564000D01*
X28588500Y26563000D01*
X28593500Y26562000D01*
X28598500Y26560000D01*
X28603500Y26558000D01*
X28608500Y26556000D01*
X28612500Y26554000D01*
X28617500Y26552000D01*
X28621500Y26549000D01*
X28626500Y26546000D01*
X28630500Y26543000D01*
X28634500Y26539000D01*
X28638500Y26536000D01*
X28641500Y26532000D01*
X28645500Y26528000D01*
X28648500Y26524000D01*
X28651500Y26519000D01*
X28654500Y26515000D01*
X28656500Y26510000D01*
X28658500Y26506000D01*
X28660500Y26501000D01*
X28662500Y26496000D01*
X28664500Y26491000D01*
X28665500Y26486000D01*
X28666500Y26481000D01*
X28666500Y26475000D01*
X28667500Y26470000D01*
X28667500Y26465000D01*
X28667500Y25965000D01*
X28667500Y25960000D01*
X28666500Y25955000D01*
X28666500Y25949000D01*
X28665500Y25944000D01*
X28664500Y25939000D01*
X28662500Y25934000D01*
X28660500Y25929000D01*
X28658500Y25924000D01*
X28656500Y25920000D01*
X28654500Y25915000D01*
X28651500Y25911000D01*
X28648500Y25906000D01*
X28645500Y25902000D01*
X28641500Y25898000D01*
X28638500Y25894000D01*
X28634500Y25891000D01*
X28630500Y25887000D01*
X28626500Y25884000D01*
X28621500Y25881000D01*
X28617500Y25878000D01*
X28612500Y25876000D01*
X28608500Y25874000D01*
X28603500Y25872000D01*
X28598500Y25870000D01*
X28593500Y25868000D01*
X28588500Y25867000D01*
X28583500Y25866000D01*
X28577500Y25866000D01*
X28572500Y25865000D01*
X28567500Y25865000D01*
X28417500Y25865000D01*
X28412500Y25865000D01*
X28407500Y25866000D01*
X28401500Y25866000D01*
X28396500Y25867000D01*
X28391500Y25868000D01*
X28386500Y25870000D01*
X28381500Y25872000D01*
X28376500Y25874000D01*
X28372500Y25876000D01*
X28367500Y25878000D01*
X28363500Y25881000D01*
X28358500Y25884000D01*
X28354500Y25887000D01*
X28350500Y25891000D01*
X28346500Y25894000D01*
X28343500Y25898000D01*
X28339500Y25902000D01*
X28336500Y25906000D01*
X28333500Y25911000D01*
X28330500Y25915000D01*
X28328500Y25920000D01*
X28326500Y25924000D01*
X28324500Y25929000D01*
X28322500Y25934000D01*
X28320500Y25939000D01*
X28319500Y25944000D01*
X28318500Y25949000D01*
X28318500Y25955000D01*
X28317500Y25960000D01*
X28317500Y25965000D01*
X28317500Y26465000D01*
X28317500Y26470000D01*
X28318500Y26475000D01*
X28318500Y26481000D01*
X28319500Y26486000D01*
X28320500Y26491000D01*
X28322500Y26496000D01*
X28324500Y26501000D01*
X28326500Y26506000D01*
X28328500Y26510000D01*
X28330500Y26515000D01*
X28333500Y26519000D01*
X28336500Y26524000D01*
X28339500Y26528000D01*
X28343500Y26532000D01*
X28346500Y26536000D01*
X28350500Y26539000D01*
X28354500Y26543000D01*
X28358500Y26546000D01*
X28363500Y26549000D01*
X28367500Y26552000D01*
X28372500Y26554000D01*
X28376500Y26556000D01*
X28381500Y26558000D01*
X28386500Y26560000D01*
X28391500Y26562000D01*
X28396500Y26563000D01*
X28401500Y26564000D01*
X28407500Y26564000D01*
X28412500Y26565000D01*
X28417500Y26565000D01*
X28567500Y26565000D01*
X28572500Y26565000D01*
X28577500Y26564000D01*
G36*
X28577500Y26564000D02*
G01*
X28583500Y26564000D01*
X28588500Y26563000D01*
X28593500Y26562000D01*
X28598500Y26560000D01*
X28603500Y26558000D01*
X28608500Y26556000D01*
X28612500Y26554000D01*
X28617500Y26552000D01*
X28621500Y26549000D01*
X28626500Y26546000D01*
X28630500Y26543000D01*
X28634500Y26539000D01*
X28638500Y26536000D01*
X28641500Y26532000D01*
X28645500Y26528000D01*
X28648500Y26524000D01*
X28651500Y26519000D01*
X28654500Y26515000D01*
X28656500Y26510000D01*
X28658500Y26506000D01*
X28660500Y26501000D01*
X28662500Y26496000D01*
X28664500Y26491000D01*
X28665500Y26486000D01*
X28666500Y26481000D01*
X28666500Y26475000D01*
X28667500Y26470000D01*
X28667500Y26465000D01*
X28667500Y25965000D01*
X28667500Y25960000D01*
X28666500Y25955000D01*
X28666500Y25949000D01*
X28665500Y25944000D01*
X28664500Y25939000D01*
X28662500Y25934000D01*
X28660500Y25929000D01*
X28658500Y25924000D01*
X28656500Y25920000D01*
X28654500Y25915000D01*
X28651500Y25911000D01*
X28648500Y25906000D01*
X28645500Y25902000D01*
X28641500Y25898000D01*
X28638500Y25894000D01*
X28634500Y25891000D01*
X28630500Y25887000D01*
X28626500Y25884000D01*
X28621500Y25881000D01*
X28617500Y25878000D01*
X28612500Y25876000D01*
X28608500Y25874000D01*
X28603500Y25872000D01*
X28598500Y25870000D01*
X28593500Y25868000D01*
X28588500Y25867000D01*
X28583500Y25866000D01*
X28577500Y25866000D01*
X28572500Y25865000D01*
X28567500Y25865000D01*
X28417500Y25865000D01*
X28412500Y25865000D01*
X28407500Y25866000D01*
X28401500Y25866000D01*
X28396500Y25867000D01*
X28391500Y25868000D01*
X28386500Y25870000D01*
X28381500Y25872000D01*
X28376500Y25874000D01*
X28372500Y25876000D01*
X28367500Y25878000D01*
X28363500Y25881000D01*
X28358500Y25884000D01*
X28354500Y25887000D01*
X28350500Y25891000D01*
X28346500Y25894000D01*
X28343500Y25898000D01*
X28339500Y25902000D01*
X28336500Y25906000D01*
X28333500Y25911000D01*
X28330500Y25915000D01*
X28328500Y25920000D01*
X28326500Y25924000D01*
X28324500Y25929000D01*
X28322500Y25934000D01*
X28320500Y25939000D01*
X28319500Y25944000D01*
X28318500Y25949000D01*
X28318500Y25955000D01*
X28317500Y25960000D01*
X28317500Y25965000D01*
X28317500Y26465000D01*
X28317500Y26470000D01*
X28318500Y26475000D01*
X28318500Y26481000D01*
X28319500Y26486000D01*
X28320500Y26491000D01*
X28322500Y26496000D01*
X28324500Y26501000D01*
X28326500Y26506000D01*
X28328500Y26510000D01*
X28330500Y26515000D01*
X28333500Y26519000D01*
X28336500Y26524000D01*
X28339500Y26528000D01*
X28343500Y26532000D01*
X28346500Y26536000D01*
X28350500Y26539000D01*
X28354500Y26543000D01*
X28358500Y26546000D01*
X28363500Y26549000D01*
X28367500Y26552000D01*
X28372500Y26554000D01*
X28376500Y26556000D01*
X28381500Y26558000D01*
X28386500Y26560000D01*
X28391500Y26562000D01*
X28396500Y26563000D01*
X28401500Y26564000D01*
X28407500Y26564000D01*
X28412500Y26565000D01*
X28417500Y26565000D01*
X28567500Y26565000D01*
X28572500Y26565000D01*
X28577500Y26564000D01*
G37*
X29077500Y30364000D02*
X29083500Y30364000D01*
X29088500Y30363000D01*
X29093500Y30362000D01*
X29098500Y30360000D01*
X29103500Y30358000D01*
X29108500Y30356000D01*
X29112500Y30354000D01*
X29117500Y30352000D01*
X29121500Y30349000D01*
X29126500Y30346000D01*
X29130500Y30343000D01*
X29134500Y30339000D01*
X29138500Y30336000D01*
X29141500Y30332000D01*
X29145500Y30328000D01*
X29148500Y30324000D01*
X29151500Y30319000D01*
X29154500Y30315000D01*
X29156500Y30310000D01*
X29158500Y30306000D01*
X29160500Y30301000D01*
X29162500Y30296000D01*
X29164500Y30291000D01*
X29165500Y30286000D01*
X29166500Y30281000D01*
X29166500Y30275000D01*
X29167500Y30270000D01*
X29167500Y30265000D01*
X29167500Y29640000D01*
X29167500Y29635000D01*
X29166500Y29630000D01*
X29166500Y29624000D01*
X29165500Y29619000D01*
X29164500Y29614000D01*
X29162500Y29609000D01*
X29160500Y29604000D01*
X29158500Y29599000D01*
X29156500Y29595000D01*
X29154500Y29590000D01*
X29151500Y29586000D01*
X29148500Y29581000D01*
X29145500Y29577000D01*
X29141500Y29573000D01*
X29138500Y29569000D01*
X29134500Y29566000D01*
X29130500Y29562000D01*
X29126500Y29559000D01*
X29121500Y29556000D01*
X29117500Y29553000D01*
X29112500Y29551000D01*
X29108500Y29549000D01*
X29103500Y29547000D01*
X29098500Y29545000D01*
X29093500Y29543000D01*
X29088500Y29542000D01*
X29083500Y29541000D01*
X29077500Y29541000D01*
X29072500Y29540000D01*
X29067500Y29540000D01*
X28917500Y29540000D01*
X28912500Y29540000D01*
X28907500Y29541000D01*
X28901500Y29541000D01*
X28896500Y29542000D01*
X28891500Y29543000D01*
X28886500Y29545000D01*
X28881500Y29547000D01*
X28876500Y29549000D01*
X28872500Y29551000D01*
X28867500Y29553000D01*
X28863500Y29556000D01*
X28858500Y29559000D01*
X28854500Y29562000D01*
X28850500Y29566000D01*
X28846500Y29569000D01*
X28843500Y29573000D01*
X28839500Y29577000D01*
X28836500Y29581000D01*
X28833500Y29586000D01*
X28830500Y29590000D01*
X28828500Y29595000D01*
X28826500Y29599000D01*
X28824500Y29604000D01*
X28822500Y29609000D01*
X28820500Y29614000D01*
X28819500Y29619000D01*
X28818500Y29624000D01*
X28818500Y29630000D01*
X28817500Y29635000D01*
X28817500Y29640000D01*
X28817500Y30265000D01*
X28817500Y30270000D01*
X28818500Y30275000D01*
X28818500Y30281000D01*
X28819500Y30286000D01*
X28820500Y30291000D01*
X28822500Y30296000D01*
X28824500Y30301000D01*
X28826500Y30306000D01*
X28828500Y30310000D01*
X28830500Y30315000D01*
X28833500Y30319000D01*
X28836500Y30324000D01*
X28839500Y30328000D01*
X28843500Y30332000D01*
X28846500Y30336000D01*
X28850500Y30339000D01*
X28854500Y30343000D01*
X28858500Y30346000D01*
X28863500Y30349000D01*
X28867500Y30352000D01*
X28872500Y30354000D01*
X28876500Y30356000D01*
X28881500Y30358000D01*
X28886500Y30360000D01*
X28891500Y30362000D01*
X28896500Y30363000D01*
X28901500Y30364000D01*
X28907500Y30364000D01*
X28912500Y30365000D01*
X28917500Y30365000D01*
X29067500Y30365000D01*
X29072500Y30365000D01*
X29077500Y30364000D01*
G36*
X29077500Y30364000D02*
G01*
X29083500Y30364000D01*
X29088500Y30363000D01*
X29093500Y30362000D01*
X29098500Y30360000D01*
X29103500Y30358000D01*
X29108500Y30356000D01*
X29112500Y30354000D01*
X29117500Y30352000D01*
X29121500Y30349000D01*
X29126500Y30346000D01*
X29130500Y30343000D01*
X29134500Y30339000D01*
X29138500Y30336000D01*
X29141500Y30332000D01*
X29145500Y30328000D01*
X29148500Y30324000D01*
X29151500Y30319000D01*
X29154500Y30315000D01*
X29156500Y30310000D01*
X29158500Y30306000D01*
X29160500Y30301000D01*
X29162500Y30296000D01*
X29164500Y30291000D01*
X29165500Y30286000D01*
X29166500Y30281000D01*
X29166500Y30275000D01*
X29167500Y30270000D01*
X29167500Y30265000D01*
X29167500Y29640000D01*
X29167500Y29635000D01*
X29166500Y29630000D01*
X29166500Y29624000D01*
X29165500Y29619000D01*
X29164500Y29614000D01*
X29162500Y29609000D01*
X29160500Y29604000D01*
X29158500Y29599000D01*
X29156500Y29595000D01*
X29154500Y29590000D01*
X29151500Y29586000D01*
X29148500Y29581000D01*
X29145500Y29577000D01*
X29141500Y29573000D01*
X29138500Y29569000D01*
X29134500Y29566000D01*
X29130500Y29562000D01*
X29126500Y29559000D01*
X29121500Y29556000D01*
X29117500Y29553000D01*
X29112500Y29551000D01*
X29108500Y29549000D01*
X29103500Y29547000D01*
X29098500Y29545000D01*
X29093500Y29543000D01*
X29088500Y29542000D01*
X29083500Y29541000D01*
X29077500Y29541000D01*
X29072500Y29540000D01*
X29067500Y29540000D01*
X28917500Y29540000D01*
X28912500Y29540000D01*
X28907500Y29541000D01*
X28901500Y29541000D01*
X28896500Y29542000D01*
X28891500Y29543000D01*
X28886500Y29545000D01*
X28881500Y29547000D01*
X28876500Y29549000D01*
X28872500Y29551000D01*
X28867500Y29553000D01*
X28863500Y29556000D01*
X28858500Y29559000D01*
X28854500Y29562000D01*
X28850500Y29566000D01*
X28846500Y29569000D01*
X28843500Y29573000D01*
X28839500Y29577000D01*
X28836500Y29581000D01*
X28833500Y29586000D01*
X28830500Y29590000D01*
X28828500Y29595000D01*
X28826500Y29599000D01*
X28824500Y29604000D01*
X28822500Y29609000D01*
X28820500Y29614000D01*
X28819500Y29619000D01*
X28818500Y29624000D01*
X28818500Y29630000D01*
X28817500Y29635000D01*
X28817500Y29640000D01*
X28817500Y30265000D01*
X28817500Y30270000D01*
X28818500Y30275000D01*
X28818500Y30281000D01*
X28819500Y30286000D01*
X28820500Y30291000D01*
X28822500Y30296000D01*
X28824500Y30301000D01*
X28826500Y30306000D01*
X28828500Y30310000D01*
X28830500Y30315000D01*
X28833500Y30319000D01*
X28836500Y30324000D01*
X28839500Y30328000D01*
X28843500Y30332000D01*
X28846500Y30336000D01*
X28850500Y30339000D01*
X28854500Y30343000D01*
X28858500Y30346000D01*
X28863500Y30349000D01*
X28867500Y30352000D01*
X28872500Y30354000D01*
X28876500Y30356000D01*
X28881500Y30358000D01*
X28886500Y30360000D01*
X28891500Y30362000D01*
X28896500Y30363000D01*
X28901500Y30364000D01*
X28907500Y30364000D01*
X28912500Y30365000D01*
X28917500Y30365000D01*
X29067500Y30365000D01*
X29072500Y30365000D01*
X29077500Y30364000D01*
G37*
X29077500Y26689000D02*
X29083500Y26689000D01*
X29088500Y26688000D01*
X29093500Y26687000D01*
X29098500Y26685000D01*
X29103500Y26683000D01*
X29108500Y26681000D01*
X29112500Y26679000D01*
X29117500Y26677000D01*
X29121500Y26674000D01*
X29126500Y26671000D01*
X29130500Y26668000D01*
X29134500Y26664000D01*
X29138500Y26661000D01*
X29141500Y26657000D01*
X29145500Y26653000D01*
X29148500Y26649000D01*
X29151500Y26644000D01*
X29154500Y26640000D01*
X29156500Y26635000D01*
X29158500Y26631000D01*
X29160500Y26626000D01*
X29162500Y26621000D01*
X29164500Y26616000D01*
X29165500Y26611000D01*
X29166500Y26606000D01*
X29166500Y26600000D01*
X29167500Y26595000D01*
X29167500Y26590000D01*
X29167500Y25965000D01*
X29167500Y25960000D01*
X29166500Y25955000D01*
X29166500Y25949000D01*
X29165500Y25944000D01*
X29164500Y25939000D01*
X29162500Y25934000D01*
X29160500Y25929000D01*
X29158500Y25924000D01*
X29156500Y25920000D01*
X29154500Y25915000D01*
X29151500Y25911000D01*
X29148500Y25906000D01*
X29145500Y25902000D01*
X29141500Y25898000D01*
X29138500Y25894000D01*
X29134500Y25891000D01*
X29130500Y25887000D01*
X29126500Y25884000D01*
X29121500Y25881000D01*
X29117500Y25878000D01*
X29112500Y25876000D01*
X29108500Y25874000D01*
X29103500Y25872000D01*
X29098500Y25870000D01*
X29093500Y25868000D01*
X29088500Y25867000D01*
X29083500Y25866000D01*
X29077500Y25866000D01*
X29072500Y25865000D01*
X29067500Y25865000D01*
X28917500Y25865000D01*
X28912500Y25865000D01*
X28907500Y25866000D01*
X28901500Y25866000D01*
X28896500Y25867000D01*
X28891500Y25868000D01*
X28886500Y25870000D01*
X28881500Y25872000D01*
X28876500Y25874000D01*
X28872500Y25876000D01*
X28867500Y25878000D01*
X28863500Y25881000D01*
X28858500Y25884000D01*
X28854500Y25887000D01*
X28850500Y25891000D01*
X28846500Y25894000D01*
X28843500Y25898000D01*
X28839500Y25902000D01*
X28836500Y25906000D01*
X28833500Y25911000D01*
X28830500Y25915000D01*
X28828500Y25920000D01*
X28826500Y25924000D01*
X28824500Y25929000D01*
X28822500Y25934000D01*
X28820500Y25939000D01*
X28819500Y25944000D01*
X28818500Y25949000D01*
X28818500Y25955000D01*
X28817500Y25960000D01*
X28817500Y25965000D01*
X28817500Y26590000D01*
X28817500Y26595000D01*
X28818500Y26600000D01*
X28818500Y26606000D01*
X28819500Y26611000D01*
X28820500Y26616000D01*
X28822500Y26621000D01*
X28824500Y26626000D01*
X28826500Y26631000D01*
X28828500Y26635000D01*
X28830500Y26640000D01*
X28833500Y26644000D01*
X28836500Y26649000D01*
X28839500Y26653000D01*
X28843500Y26657000D01*
X28846500Y26661000D01*
X28850500Y26664000D01*
X28854500Y26668000D01*
X28858500Y26671000D01*
X28863500Y26674000D01*
X28867500Y26677000D01*
X28872500Y26679000D01*
X28876500Y26681000D01*
X28881500Y26683000D01*
X28886500Y26685000D01*
X28891500Y26687000D01*
X28896500Y26688000D01*
X28901500Y26689000D01*
X28907500Y26689000D01*
X28912500Y26690000D01*
X28917500Y26690000D01*
X29067500Y26690000D01*
X29072500Y26690000D01*
X29077500Y26689000D01*
G36*
X29077500Y26689000D02*
G01*
X29083500Y26689000D01*
X29088500Y26688000D01*
X29093500Y26687000D01*
X29098500Y26685000D01*
X29103500Y26683000D01*
X29108500Y26681000D01*
X29112500Y26679000D01*
X29117500Y26677000D01*
X29121500Y26674000D01*
X29126500Y26671000D01*
X29130500Y26668000D01*
X29134500Y26664000D01*
X29138500Y26661000D01*
X29141500Y26657000D01*
X29145500Y26653000D01*
X29148500Y26649000D01*
X29151500Y26644000D01*
X29154500Y26640000D01*
X29156500Y26635000D01*
X29158500Y26631000D01*
X29160500Y26626000D01*
X29162500Y26621000D01*
X29164500Y26616000D01*
X29165500Y26611000D01*
X29166500Y26606000D01*
X29166500Y26600000D01*
X29167500Y26595000D01*
X29167500Y26590000D01*
X29167500Y25965000D01*
X29167500Y25960000D01*
X29166500Y25955000D01*
X29166500Y25949000D01*
X29165500Y25944000D01*
X29164500Y25939000D01*
X29162500Y25934000D01*
X29160500Y25929000D01*
X29158500Y25924000D01*
X29156500Y25920000D01*
X29154500Y25915000D01*
X29151500Y25911000D01*
X29148500Y25906000D01*
X29145500Y25902000D01*
X29141500Y25898000D01*
X29138500Y25894000D01*
X29134500Y25891000D01*
X29130500Y25887000D01*
X29126500Y25884000D01*
X29121500Y25881000D01*
X29117500Y25878000D01*
X29112500Y25876000D01*
X29108500Y25874000D01*
X29103500Y25872000D01*
X29098500Y25870000D01*
X29093500Y25868000D01*
X29088500Y25867000D01*
X29083500Y25866000D01*
X29077500Y25866000D01*
X29072500Y25865000D01*
X29067500Y25865000D01*
X28917500Y25865000D01*
X28912500Y25865000D01*
X28907500Y25866000D01*
X28901500Y25866000D01*
X28896500Y25867000D01*
X28891500Y25868000D01*
X28886500Y25870000D01*
X28881500Y25872000D01*
X28876500Y25874000D01*
X28872500Y25876000D01*
X28867500Y25878000D01*
X28863500Y25881000D01*
X28858500Y25884000D01*
X28854500Y25887000D01*
X28850500Y25891000D01*
X28846500Y25894000D01*
X28843500Y25898000D01*
X28839500Y25902000D01*
X28836500Y25906000D01*
X28833500Y25911000D01*
X28830500Y25915000D01*
X28828500Y25920000D01*
X28826500Y25924000D01*
X28824500Y25929000D01*
X28822500Y25934000D01*
X28820500Y25939000D01*
X28819500Y25944000D01*
X28818500Y25949000D01*
X28818500Y25955000D01*
X28817500Y25960000D01*
X28817500Y25965000D01*
X28817500Y26590000D01*
X28817500Y26595000D01*
X28818500Y26600000D01*
X28818500Y26606000D01*
X28819500Y26611000D01*
X28820500Y26616000D01*
X28822500Y26621000D01*
X28824500Y26626000D01*
X28826500Y26631000D01*
X28828500Y26635000D01*
X28830500Y26640000D01*
X28833500Y26644000D01*
X28836500Y26649000D01*
X28839500Y26653000D01*
X28843500Y26657000D01*
X28846500Y26661000D01*
X28850500Y26664000D01*
X28854500Y26668000D01*
X28858500Y26671000D01*
X28863500Y26674000D01*
X28867500Y26677000D01*
X28872500Y26679000D01*
X28876500Y26681000D01*
X28881500Y26683000D01*
X28886500Y26685000D01*
X28891500Y26687000D01*
X28896500Y26688000D01*
X28901500Y26689000D01*
X28907500Y26689000D01*
X28912500Y26690000D01*
X28917500Y26690000D01*
X29067500Y26690000D01*
X29072500Y26690000D01*
X29077500Y26689000D01*
G37*
X29577500Y30364000D02*
X29583500Y30364000D01*
X29588500Y30363000D01*
X29593500Y30362000D01*
X29598500Y30360000D01*
X29603500Y30358000D01*
X29608500Y30356000D01*
X29612500Y30354000D01*
X29617500Y30352000D01*
X29621500Y30349000D01*
X29626500Y30346000D01*
X29630500Y30343000D01*
X29634500Y30339000D01*
X29638500Y30336000D01*
X29641500Y30332000D01*
X29645500Y30328000D01*
X29648500Y30324000D01*
X29651500Y30319000D01*
X29654500Y30315000D01*
X29656500Y30310000D01*
X29658500Y30306000D01*
X29660500Y30301000D01*
X29662500Y30296000D01*
X29664500Y30291000D01*
X29665500Y30286000D01*
X29666500Y30281000D01*
X29666500Y30275000D01*
X29667500Y30270000D01*
X29667500Y30265000D01*
X29667500Y29640000D01*
X29667500Y29635000D01*
X29666500Y29630000D01*
X29666500Y29624000D01*
X29665500Y29619000D01*
X29664500Y29614000D01*
X29662500Y29609000D01*
X29660500Y29604000D01*
X29658500Y29599000D01*
X29656500Y29595000D01*
X29654500Y29590000D01*
X29651500Y29586000D01*
X29648500Y29581000D01*
X29645500Y29577000D01*
X29641500Y29573000D01*
X29638500Y29569000D01*
X29634500Y29566000D01*
X29630500Y29562000D01*
X29626500Y29559000D01*
X29621500Y29556000D01*
X29617500Y29553000D01*
X29612500Y29551000D01*
X29608500Y29549000D01*
X29603500Y29547000D01*
X29598500Y29545000D01*
X29593500Y29543000D01*
X29588500Y29542000D01*
X29583500Y29541000D01*
X29577500Y29541000D01*
X29572500Y29540000D01*
X29567500Y29540000D01*
X29417500Y29540000D01*
X29412500Y29540000D01*
X29407500Y29541000D01*
X29401500Y29541000D01*
X29396500Y29542000D01*
X29391500Y29543000D01*
X29386500Y29545000D01*
X29381500Y29547000D01*
X29376500Y29549000D01*
X29372500Y29551000D01*
X29367500Y29553000D01*
X29363500Y29556000D01*
X29358500Y29559000D01*
X29354500Y29562000D01*
X29350500Y29566000D01*
X29346500Y29569000D01*
X29343500Y29573000D01*
X29339500Y29577000D01*
X29336500Y29581000D01*
X29333500Y29586000D01*
X29330500Y29590000D01*
X29328500Y29595000D01*
X29326500Y29599000D01*
X29324500Y29604000D01*
X29322500Y29609000D01*
X29320500Y29614000D01*
X29319500Y29619000D01*
X29318500Y29624000D01*
X29318500Y29630000D01*
X29317500Y29635000D01*
X29317500Y29640000D01*
X29317500Y30265000D01*
X29317500Y30270000D01*
X29318500Y30275000D01*
X29318500Y30281000D01*
X29319500Y30286000D01*
X29320500Y30291000D01*
X29322500Y30296000D01*
X29324500Y30301000D01*
X29326500Y30306000D01*
X29328500Y30310000D01*
X29330500Y30315000D01*
X29333500Y30319000D01*
X29336500Y30324000D01*
X29339500Y30328000D01*
X29343500Y30332000D01*
X29346500Y30336000D01*
X29350500Y30339000D01*
X29354500Y30343000D01*
X29358500Y30346000D01*
X29363500Y30349000D01*
X29367500Y30352000D01*
X29372500Y30354000D01*
X29376500Y30356000D01*
X29381500Y30358000D01*
X29386500Y30360000D01*
X29391500Y30362000D01*
X29396500Y30363000D01*
X29401500Y30364000D01*
X29407500Y30364000D01*
X29412500Y30365000D01*
X29417500Y30365000D01*
X29567500Y30365000D01*
X29572500Y30365000D01*
X29577500Y30364000D01*
G36*
X29577500Y30364000D02*
G01*
X29583500Y30364000D01*
X29588500Y30363000D01*
X29593500Y30362000D01*
X29598500Y30360000D01*
X29603500Y30358000D01*
X29608500Y30356000D01*
X29612500Y30354000D01*
X29617500Y30352000D01*
X29621500Y30349000D01*
X29626500Y30346000D01*
X29630500Y30343000D01*
X29634500Y30339000D01*
X29638500Y30336000D01*
X29641500Y30332000D01*
X29645500Y30328000D01*
X29648500Y30324000D01*
X29651500Y30319000D01*
X29654500Y30315000D01*
X29656500Y30310000D01*
X29658500Y30306000D01*
X29660500Y30301000D01*
X29662500Y30296000D01*
X29664500Y30291000D01*
X29665500Y30286000D01*
X29666500Y30281000D01*
X29666500Y30275000D01*
X29667500Y30270000D01*
X29667500Y30265000D01*
X29667500Y29640000D01*
X29667500Y29635000D01*
X29666500Y29630000D01*
X29666500Y29624000D01*
X29665500Y29619000D01*
X29664500Y29614000D01*
X29662500Y29609000D01*
X29660500Y29604000D01*
X29658500Y29599000D01*
X29656500Y29595000D01*
X29654500Y29590000D01*
X29651500Y29586000D01*
X29648500Y29581000D01*
X29645500Y29577000D01*
X29641500Y29573000D01*
X29638500Y29569000D01*
X29634500Y29566000D01*
X29630500Y29562000D01*
X29626500Y29559000D01*
X29621500Y29556000D01*
X29617500Y29553000D01*
X29612500Y29551000D01*
X29608500Y29549000D01*
X29603500Y29547000D01*
X29598500Y29545000D01*
X29593500Y29543000D01*
X29588500Y29542000D01*
X29583500Y29541000D01*
X29577500Y29541000D01*
X29572500Y29540000D01*
X29567500Y29540000D01*
X29417500Y29540000D01*
X29412500Y29540000D01*
X29407500Y29541000D01*
X29401500Y29541000D01*
X29396500Y29542000D01*
X29391500Y29543000D01*
X29386500Y29545000D01*
X29381500Y29547000D01*
X29376500Y29549000D01*
X29372500Y29551000D01*
X29367500Y29553000D01*
X29363500Y29556000D01*
X29358500Y29559000D01*
X29354500Y29562000D01*
X29350500Y29566000D01*
X29346500Y29569000D01*
X29343500Y29573000D01*
X29339500Y29577000D01*
X29336500Y29581000D01*
X29333500Y29586000D01*
X29330500Y29590000D01*
X29328500Y29595000D01*
X29326500Y29599000D01*
X29324500Y29604000D01*
X29322500Y29609000D01*
X29320500Y29614000D01*
X29319500Y29619000D01*
X29318500Y29624000D01*
X29318500Y29630000D01*
X29317500Y29635000D01*
X29317500Y29640000D01*
X29317500Y30265000D01*
X29317500Y30270000D01*
X29318500Y30275000D01*
X29318500Y30281000D01*
X29319500Y30286000D01*
X29320500Y30291000D01*
X29322500Y30296000D01*
X29324500Y30301000D01*
X29326500Y30306000D01*
X29328500Y30310000D01*
X29330500Y30315000D01*
X29333500Y30319000D01*
X29336500Y30324000D01*
X29339500Y30328000D01*
X29343500Y30332000D01*
X29346500Y30336000D01*
X29350500Y30339000D01*
X29354500Y30343000D01*
X29358500Y30346000D01*
X29363500Y30349000D01*
X29367500Y30352000D01*
X29372500Y30354000D01*
X29376500Y30356000D01*
X29381500Y30358000D01*
X29386500Y30360000D01*
X29391500Y30362000D01*
X29396500Y30363000D01*
X29401500Y30364000D01*
X29407500Y30364000D01*
X29412500Y30365000D01*
X29417500Y30365000D01*
X29567500Y30365000D01*
X29572500Y30365000D01*
X29577500Y30364000D01*
G37*
X29577500Y26689000D02*
X29583500Y26689000D01*
X29588500Y26688000D01*
X29593500Y26687000D01*
X29598500Y26685000D01*
X29603500Y26683000D01*
X29608500Y26681000D01*
X29612500Y26679000D01*
X29617500Y26677000D01*
X29621500Y26674000D01*
X29626500Y26671000D01*
X29630500Y26668000D01*
X29634500Y26664000D01*
X29638500Y26661000D01*
X29641500Y26657000D01*
X29645500Y26653000D01*
X29648500Y26649000D01*
X29651500Y26644000D01*
X29654500Y26640000D01*
X29656500Y26635000D01*
X29658500Y26631000D01*
X29660500Y26626000D01*
X29662500Y26621000D01*
X29664500Y26616000D01*
X29665500Y26611000D01*
X29666500Y26606000D01*
X29666500Y26600000D01*
X29667500Y26595000D01*
X29667500Y26590000D01*
X29667500Y25965000D01*
X29667500Y25960000D01*
X29666500Y25955000D01*
X29666500Y25949000D01*
X29665500Y25944000D01*
X29664500Y25939000D01*
X29662500Y25934000D01*
X29660500Y25929000D01*
X29658500Y25924000D01*
X29656500Y25920000D01*
X29654500Y25915000D01*
X29651500Y25911000D01*
X29648500Y25906000D01*
X29645500Y25902000D01*
X29641500Y25898000D01*
X29638500Y25894000D01*
X29634500Y25891000D01*
X29630500Y25887000D01*
X29626500Y25884000D01*
X29621500Y25881000D01*
X29617500Y25878000D01*
X29612500Y25876000D01*
X29608500Y25874000D01*
X29603500Y25872000D01*
X29598500Y25870000D01*
X29593500Y25868000D01*
X29588500Y25867000D01*
X29583500Y25866000D01*
X29577500Y25866000D01*
X29572500Y25865000D01*
X29567500Y25865000D01*
X29417500Y25865000D01*
X29412500Y25865000D01*
X29407500Y25866000D01*
X29401500Y25866000D01*
X29396500Y25867000D01*
X29391500Y25868000D01*
X29386500Y25870000D01*
X29381500Y25872000D01*
X29376500Y25874000D01*
X29372500Y25876000D01*
X29367500Y25878000D01*
X29363500Y25881000D01*
X29358500Y25884000D01*
X29354500Y25887000D01*
X29350500Y25891000D01*
X29346500Y25894000D01*
X29343500Y25898000D01*
X29339500Y25902000D01*
X29336500Y25906000D01*
X29333500Y25911000D01*
X29330500Y25915000D01*
X29328500Y25920000D01*
X29326500Y25924000D01*
X29324500Y25929000D01*
X29322500Y25934000D01*
X29320500Y25939000D01*
X29319500Y25944000D01*
X29318500Y25949000D01*
X29318500Y25955000D01*
X29317500Y25960000D01*
X29317500Y25965000D01*
X29317500Y26590000D01*
X29317500Y26595000D01*
X29318500Y26600000D01*
X29318500Y26606000D01*
X29319500Y26611000D01*
X29320500Y26616000D01*
X29322500Y26621000D01*
X29324500Y26626000D01*
X29326500Y26631000D01*
X29328500Y26635000D01*
X29330500Y26640000D01*
X29333500Y26644000D01*
X29336500Y26649000D01*
X29339500Y26653000D01*
X29343500Y26657000D01*
X29346500Y26661000D01*
X29350500Y26664000D01*
X29354500Y26668000D01*
X29358500Y26671000D01*
X29363500Y26674000D01*
X29367500Y26677000D01*
X29372500Y26679000D01*
X29376500Y26681000D01*
X29381500Y26683000D01*
X29386500Y26685000D01*
X29391500Y26687000D01*
X29396500Y26688000D01*
X29401500Y26689000D01*
X29407500Y26689000D01*
X29412500Y26690000D01*
X29417500Y26690000D01*
X29567500Y26690000D01*
X29572500Y26690000D01*
X29577500Y26689000D01*
G36*
X29577500Y26689000D02*
G01*
X29583500Y26689000D01*
X29588500Y26688000D01*
X29593500Y26687000D01*
X29598500Y26685000D01*
X29603500Y26683000D01*
X29608500Y26681000D01*
X29612500Y26679000D01*
X29617500Y26677000D01*
X29621500Y26674000D01*
X29626500Y26671000D01*
X29630500Y26668000D01*
X29634500Y26664000D01*
X29638500Y26661000D01*
X29641500Y26657000D01*
X29645500Y26653000D01*
X29648500Y26649000D01*
X29651500Y26644000D01*
X29654500Y26640000D01*
X29656500Y26635000D01*
X29658500Y26631000D01*
X29660500Y26626000D01*
X29662500Y26621000D01*
X29664500Y26616000D01*
X29665500Y26611000D01*
X29666500Y26606000D01*
X29666500Y26600000D01*
X29667500Y26595000D01*
X29667500Y26590000D01*
X29667500Y25965000D01*
X29667500Y25960000D01*
X29666500Y25955000D01*
X29666500Y25949000D01*
X29665500Y25944000D01*
X29664500Y25939000D01*
X29662500Y25934000D01*
X29660500Y25929000D01*
X29658500Y25924000D01*
X29656500Y25920000D01*
X29654500Y25915000D01*
X29651500Y25911000D01*
X29648500Y25906000D01*
X29645500Y25902000D01*
X29641500Y25898000D01*
X29638500Y25894000D01*
X29634500Y25891000D01*
X29630500Y25887000D01*
X29626500Y25884000D01*
X29621500Y25881000D01*
X29617500Y25878000D01*
X29612500Y25876000D01*
X29608500Y25874000D01*
X29603500Y25872000D01*
X29598500Y25870000D01*
X29593500Y25868000D01*
X29588500Y25867000D01*
X29583500Y25866000D01*
X29577500Y25866000D01*
X29572500Y25865000D01*
X29567500Y25865000D01*
X29417500Y25865000D01*
X29412500Y25865000D01*
X29407500Y25866000D01*
X29401500Y25866000D01*
X29396500Y25867000D01*
X29391500Y25868000D01*
X29386500Y25870000D01*
X29381500Y25872000D01*
X29376500Y25874000D01*
X29372500Y25876000D01*
X29367500Y25878000D01*
X29363500Y25881000D01*
X29358500Y25884000D01*
X29354500Y25887000D01*
X29350500Y25891000D01*
X29346500Y25894000D01*
X29343500Y25898000D01*
X29339500Y25902000D01*
X29336500Y25906000D01*
X29333500Y25911000D01*
X29330500Y25915000D01*
X29328500Y25920000D01*
X29326500Y25924000D01*
X29324500Y25929000D01*
X29322500Y25934000D01*
X29320500Y25939000D01*
X29319500Y25944000D01*
X29318500Y25949000D01*
X29318500Y25955000D01*
X29317500Y25960000D01*
X29317500Y25965000D01*
X29317500Y26590000D01*
X29317500Y26595000D01*
X29318500Y26600000D01*
X29318500Y26606000D01*
X29319500Y26611000D01*
X29320500Y26616000D01*
X29322500Y26621000D01*
X29324500Y26626000D01*
X29326500Y26631000D01*
X29328500Y26635000D01*
X29330500Y26640000D01*
X29333500Y26644000D01*
X29336500Y26649000D01*
X29339500Y26653000D01*
X29343500Y26657000D01*
X29346500Y26661000D01*
X29350500Y26664000D01*
X29354500Y26668000D01*
X29358500Y26671000D01*
X29363500Y26674000D01*
X29367500Y26677000D01*
X29372500Y26679000D01*
X29376500Y26681000D01*
X29381500Y26683000D01*
X29386500Y26685000D01*
X29391500Y26687000D01*
X29396500Y26688000D01*
X29401500Y26689000D01*
X29407500Y26689000D01*
X29412500Y26690000D01*
X29417500Y26690000D01*
X29567500Y26690000D01*
X29572500Y26690000D01*
X29577500Y26689000D01*
G37*
X30077500Y30364000D02*
X30083500Y30364000D01*
X30088500Y30363000D01*
X30093500Y30362000D01*
X30098500Y30360000D01*
X30103500Y30358000D01*
X30108500Y30356000D01*
X30112500Y30354000D01*
X30117500Y30352000D01*
X30121500Y30349000D01*
X30126500Y30346000D01*
X30130500Y30343000D01*
X30134500Y30339000D01*
X30138500Y30336000D01*
X30141500Y30332000D01*
X30145500Y30328000D01*
X30148500Y30324000D01*
X30151500Y30319000D01*
X30154500Y30315000D01*
X30156500Y30310000D01*
X30158500Y30306000D01*
X30160500Y30301000D01*
X30162500Y30296000D01*
X30164500Y30291000D01*
X30165500Y30286000D01*
X30166500Y30281000D01*
X30166500Y30275000D01*
X30167500Y30270000D01*
X30167500Y30265000D01*
X30167500Y29640000D01*
X30167500Y29635000D01*
X30166500Y29630000D01*
X30166500Y29624000D01*
X30165500Y29619000D01*
X30164500Y29614000D01*
X30162500Y29609000D01*
X30160500Y29604000D01*
X30158500Y29599000D01*
X30156500Y29595000D01*
X30154500Y29590000D01*
X30151500Y29586000D01*
X30148500Y29581000D01*
X30145500Y29577000D01*
X30141500Y29573000D01*
X30138500Y29569000D01*
X30134500Y29566000D01*
X30130500Y29562000D01*
X30126500Y29559000D01*
X30121500Y29556000D01*
X30117500Y29553000D01*
X30112500Y29551000D01*
X30108500Y29549000D01*
X30103500Y29547000D01*
X30098500Y29545000D01*
X30093500Y29543000D01*
X30088500Y29542000D01*
X30083500Y29541000D01*
X30077500Y29541000D01*
X30072500Y29540000D01*
X30067500Y29540000D01*
X29917500Y29540000D01*
X29912500Y29540000D01*
X29907500Y29541000D01*
X29901500Y29541000D01*
X29896500Y29542000D01*
X29891500Y29543000D01*
X29886500Y29545000D01*
X29881500Y29547000D01*
X29876500Y29549000D01*
X29872500Y29551000D01*
X29867500Y29553000D01*
X29863500Y29556000D01*
X29858500Y29559000D01*
X29854500Y29562000D01*
X29850500Y29566000D01*
X29846500Y29569000D01*
X29843500Y29573000D01*
X29839500Y29577000D01*
X29836500Y29581000D01*
X29833500Y29586000D01*
X29830500Y29590000D01*
X29828500Y29595000D01*
X29826500Y29599000D01*
X29824500Y29604000D01*
X29822500Y29609000D01*
X29820500Y29614000D01*
X29819500Y29619000D01*
X29818500Y29624000D01*
X29818500Y29630000D01*
X29817500Y29635000D01*
X29817500Y29640000D01*
X29817500Y30265000D01*
X29817500Y30270000D01*
X29818500Y30275000D01*
X29818500Y30281000D01*
X29819500Y30286000D01*
X29820500Y30291000D01*
X29822500Y30296000D01*
X29824500Y30301000D01*
X29826500Y30306000D01*
X29828500Y30310000D01*
X29830500Y30315000D01*
X29833500Y30319000D01*
X29836500Y30324000D01*
X29839500Y30328000D01*
X29843500Y30332000D01*
X29846500Y30336000D01*
X29850500Y30339000D01*
X29854500Y30343000D01*
X29858500Y30346000D01*
X29863500Y30349000D01*
X29867500Y30352000D01*
X29872500Y30354000D01*
X29876500Y30356000D01*
X29881500Y30358000D01*
X29886500Y30360000D01*
X29891500Y30362000D01*
X29896500Y30363000D01*
X29901500Y30364000D01*
X29907500Y30364000D01*
X29912500Y30365000D01*
X29917500Y30365000D01*
X30067500Y30365000D01*
X30072500Y30365000D01*
X30077500Y30364000D01*
G36*
X30077500Y30364000D02*
G01*
X30083500Y30364000D01*
X30088500Y30363000D01*
X30093500Y30362000D01*
X30098500Y30360000D01*
X30103500Y30358000D01*
X30108500Y30356000D01*
X30112500Y30354000D01*
X30117500Y30352000D01*
X30121500Y30349000D01*
X30126500Y30346000D01*
X30130500Y30343000D01*
X30134500Y30339000D01*
X30138500Y30336000D01*
X30141500Y30332000D01*
X30145500Y30328000D01*
X30148500Y30324000D01*
X30151500Y30319000D01*
X30154500Y30315000D01*
X30156500Y30310000D01*
X30158500Y30306000D01*
X30160500Y30301000D01*
X30162500Y30296000D01*
X30164500Y30291000D01*
X30165500Y30286000D01*
X30166500Y30281000D01*
X30166500Y30275000D01*
X30167500Y30270000D01*
X30167500Y30265000D01*
X30167500Y29640000D01*
X30167500Y29635000D01*
X30166500Y29630000D01*
X30166500Y29624000D01*
X30165500Y29619000D01*
X30164500Y29614000D01*
X30162500Y29609000D01*
X30160500Y29604000D01*
X30158500Y29599000D01*
X30156500Y29595000D01*
X30154500Y29590000D01*
X30151500Y29586000D01*
X30148500Y29581000D01*
X30145500Y29577000D01*
X30141500Y29573000D01*
X30138500Y29569000D01*
X30134500Y29566000D01*
X30130500Y29562000D01*
X30126500Y29559000D01*
X30121500Y29556000D01*
X30117500Y29553000D01*
X30112500Y29551000D01*
X30108500Y29549000D01*
X30103500Y29547000D01*
X30098500Y29545000D01*
X30093500Y29543000D01*
X30088500Y29542000D01*
X30083500Y29541000D01*
X30077500Y29541000D01*
X30072500Y29540000D01*
X30067500Y29540000D01*
X29917500Y29540000D01*
X29912500Y29540000D01*
X29907500Y29541000D01*
X29901500Y29541000D01*
X29896500Y29542000D01*
X29891500Y29543000D01*
X29886500Y29545000D01*
X29881500Y29547000D01*
X29876500Y29549000D01*
X29872500Y29551000D01*
X29867500Y29553000D01*
X29863500Y29556000D01*
X29858500Y29559000D01*
X29854500Y29562000D01*
X29850500Y29566000D01*
X29846500Y29569000D01*
X29843500Y29573000D01*
X29839500Y29577000D01*
X29836500Y29581000D01*
X29833500Y29586000D01*
X29830500Y29590000D01*
X29828500Y29595000D01*
X29826500Y29599000D01*
X29824500Y29604000D01*
X29822500Y29609000D01*
X29820500Y29614000D01*
X29819500Y29619000D01*
X29818500Y29624000D01*
X29818500Y29630000D01*
X29817500Y29635000D01*
X29817500Y29640000D01*
X29817500Y30265000D01*
X29817500Y30270000D01*
X29818500Y30275000D01*
X29818500Y30281000D01*
X29819500Y30286000D01*
X29820500Y30291000D01*
X29822500Y30296000D01*
X29824500Y30301000D01*
X29826500Y30306000D01*
X29828500Y30310000D01*
X29830500Y30315000D01*
X29833500Y30319000D01*
X29836500Y30324000D01*
X29839500Y30328000D01*
X29843500Y30332000D01*
X29846500Y30336000D01*
X29850500Y30339000D01*
X29854500Y30343000D01*
X29858500Y30346000D01*
X29863500Y30349000D01*
X29867500Y30352000D01*
X29872500Y30354000D01*
X29876500Y30356000D01*
X29881500Y30358000D01*
X29886500Y30360000D01*
X29891500Y30362000D01*
X29896500Y30363000D01*
X29901500Y30364000D01*
X29907500Y30364000D01*
X29912500Y30365000D01*
X29917500Y30365000D01*
X30067500Y30365000D01*
X30072500Y30365000D01*
X30077500Y30364000D01*
G37*
X30077500Y26689000D02*
X30083500Y26689000D01*
X30088500Y26688000D01*
X30093500Y26687000D01*
X30098500Y26685000D01*
X30103500Y26683000D01*
X30108500Y26681000D01*
X30112500Y26679000D01*
X30117500Y26677000D01*
X30121500Y26674000D01*
X30126500Y26671000D01*
X30130500Y26668000D01*
X30134500Y26664000D01*
X30138500Y26661000D01*
X30141500Y26657000D01*
X30145500Y26653000D01*
X30148500Y26649000D01*
X30151500Y26644000D01*
X30154500Y26640000D01*
X30156500Y26635000D01*
X30158500Y26631000D01*
X30160500Y26626000D01*
X30162500Y26621000D01*
X30164500Y26616000D01*
X30165500Y26611000D01*
X30166500Y26606000D01*
X30166500Y26600000D01*
X30167500Y26595000D01*
X30167500Y26590000D01*
X30167500Y25965000D01*
X30167500Y25960000D01*
X30166500Y25955000D01*
X30166500Y25949000D01*
X30165500Y25944000D01*
X30164500Y25939000D01*
X30162500Y25934000D01*
X30160500Y25929000D01*
X30158500Y25924000D01*
X30156500Y25920000D01*
X30154500Y25915000D01*
X30151500Y25911000D01*
X30148500Y25906000D01*
X30145500Y25902000D01*
X30141500Y25898000D01*
X30138500Y25894000D01*
X30134500Y25891000D01*
X30130500Y25887000D01*
X30126500Y25884000D01*
X30121500Y25881000D01*
X30117500Y25878000D01*
X30112500Y25876000D01*
X30108500Y25874000D01*
X30103500Y25872000D01*
X30098500Y25870000D01*
X30093500Y25868000D01*
X30088500Y25867000D01*
X30083500Y25866000D01*
X30077500Y25866000D01*
X30072500Y25865000D01*
X30067500Y25865000D01*
X29917500Y25865000D01*
X29912500Y25865000D01*
X29907500Y25866000D01*
X29901500Y25866000D01*
X29896500Y25867000D01*
X29891500Y25868000D01*
X29886500Y25870000D01*
X29881500Y25872000D01*
X29876500Y25874000D01*
X29872500Y25876000D01*
X29867500Y25878000D01*
X29863500Y25881000D01*
X29858500Y25884000D01*
X29854500Y25887000D01*
X29850500Y25891000D01*
X29846500Y25894000D01*
X29843500Y25898000D01*
X29839500Y25902000D01*
X29836500Y25906000D01*
X29833500Y25911000D01*
X29830500Y25915000D01*
X29828500Y25920000D01*
X29826500Y25924000D01*
X29824500Y25929000D01*
X29822500Y25934000D01*
X29820500Y25939000D01*
X29819500Y25944000D01*
X29818500Y25949000D01*
X29818500Y25955000D01*
X29817500Y25960000D01*
X29817500Y25965000D01*
X29817500Y26590000D01*
X29817500Y26595000D01*
X29818500Y26600000D01*
X29818500Y26606000D01*
X29819500Y26611000D01*
X29820500Y26616000D01*
X29822500Y26621000D01*
X29824500Y26626000D01*
X29826500Y26631000D01*
X29828500Y26635000D01*
X29830500Y26640000D01*
X29833500Y26644000D01*
X29836500Y26649000D01*
X29839500Y26653000D01*
X29843500Y26657000D01*
X29846500Y26661000D01*
X29850500Y26664000D01*
X29854500Y26668000D01*
X29858500Y26671000D01*
X29863500Y26674000D01*
X29867500Y26677000D01*
X29872500Y26679000D01*
X29876500Y26681000D01*
X29881500Y26683000D01*
X29886500Y26685000D01*
X29891500Y26687000D01*
X29896500Y26688000D01*
X29901500Y26689000D01*
X29907500Y26689000D01*
X29912500Y26690000D01*
X29917500Y26690000D01*
X30067500Y26690000D01*
X30072500Y26690000D01*
X30077500Y26689000D01*
G36*
X30077500Y26689000D02*
G01*
X30083500Y26689000D01*
X30088500Y26688000D01*
X30093500Y26687000D01*
X30098500Y26685000D01*
X30103500Y26683000D01*
X30108500Y26681000D01*
X30112500Y26679000D01*
X30117500Y26677000D01*
X30121500Y26674000D01*
X30126500Y26671000D01*
X30130500Y26668000D01*
X30134500Y26664000D01*
X30138500Y26661000D01*
X30141500Y26657000D01*
X30145500Y26653000D01*
X30148500Y26649000D01*
X30151500Y26644000D01*
X30154500Y26640000D01*
X30156500Y26635000D01*
X30158500Y26631000D01*
X30160500Y26626000D01*
X30162500Y26621000D01*
X30164500Y26616000D01*
X30165500Y26611000D01*
X30166500Y26606000D01*
X30166500Y26600000D01*
X30167500Y26595000D01*
X30167500Y26590000D01*
X30167500Y25965000D01*
X30167500Y25960000D01*
X30166500Y25955000D01*
X30166500Y25949000D01*
X30165500Y25944000D01*
X30164500Y25939000D01*
X30162500Y25934000D01*
X30160500Y25929000D01*
X30158500Y25924000D01*
X30156500Y25920000D01*
X30154500Y25915000D01*
X30151500Y25911000D01*
X30148500Y25906000D01*
X30145500Y25902000D01*
X30141500Y25898000D01*
X30138500Y25894000D01*
X30134500Y25891000D01*
X30130500Y25887000D01*
X30126500Y25884000D01*
X30121500Y25881000D01*
X30117500Y25878000D01*
X30112500Y25876000D01*
X30108500Y25874000D01*
X30103500Y25872000D01*
X30098500Y25870000D01*
X30093500Y25868000D01*
X30088500Y25867000D01*
X30083500Y25866000D01*
X30077500Y25866000D01*
X30072500Y25865000D01*
X30067500Y25865000D01*
X29917500Y25865000D01*
X29912500Y25865000D01*
X29907500Y25866000D01*
X29901500Y25866000D01*
X29896500Y25867000D01*
X29891500Y25868000D01*
X29886500Y25870000D01*
X29881500Y25872000D01*
X29876500Y25874000D01*
X29872500Y25876000D01*
X29867500Y25878000D01*
X29863500Y25881000D01*
X29858500Y25884000D01*
X29854500Y25887000D01*
X29850500Y25891000D01*
X29846500Y25894000D01*
X29843500Y25898000D01*
X29839500Y25902000D01*
X29836500Y25906000D01*
X29833500Y25911000D01*
X29830500Y25915000D01*
X29828500Y25920000D01*
X29826500Y25924000D01*
X29824500Y25929000D01*
X29822500Y25934000D01*
X29820500Y25939000D01*
X29819500Y25944000D01*
X29818500Y25949000D01*
X29818500Y25955000D01*
X29817500Y25960000D01*
X29817500Y25965000D01*
X29817500Y26590000D01*
X29817500Y26595000D01*
X29818500Y26600000D01*
X29818500Y26606000D01*
X29819500Y26611000D01*
X29820500Y26616000D01*
X29822500Y26621000D01*
X29824500Y26626000D01*
X29826500Y26631000D01*
X29828500Y26635000D01*
X29830500Y26640000D01*
X29833500Y26644000D01*
X29836500Y26649000D01*
X29839500Y26653000D01*
X29843500Y26657000D01*
X29846500Y26661000D01*
X29850500Y26664000D01*
X29854500Y26668000D01*
X29858500Y26671000D01*
X29863500Y26674000D01*
X29867500Y26677000D01*
X29872500Y26679000D01*
X29876500Y26681000D01*
X29881500Y26683000D01*
X29886500Y26685000D01*
X29891500Y26687000D01*
X29896500Y26688000D01*
X29901500Y26689000D01*
X29907500Y26689000D01*
X29912500Y26690000D01*
X29917500Y26690000D01*
X30067500Y26690000D01*
X30072500Y26690000D01*
X30077500Y26689000D01*
G37*
X30577500Y30364000D02*
X30583500Y30364000D01*
X30588500Y30363000D01*
X30593500Y30362000D01*
X30598500Y30360000D01*
X30603500Y30358000D01*
X30608500Y30356000D01*
X30612500Y30354000D01*
X30617500Y30352000D01*
X30621500Y30349000D01*
X30626500Y30346000D01*
X30630500Y30343000D01*
X30634500Y30339000D01*
X30638500Y30336000D01*
X30641500Y30332000D01*
X30645500Y30328000D01*
X30648500Y30324000D01*
X30651500Y30319000D01*
X30654500Y30315000D01*
X30656500Y30310000D01*
X30658500Y30306000D01*
X30660500Y30301000D01*
X30662500Y30296000D01*
X30664500Y30291000D01*
X30665500Y30286000D01*
X30666500Y30281000D01*
X30666500Y30275000D01*
X30667500Y30270000D01*
X30667500Y30265000D01*
X30667500Y29765000D01*
X30667500Y29760000D01*
X30666500Y29755000D01*
X30666500Y29749000D01*
X30665500Y29744000D01*
X30664500Y29739000D01*
X30662500Y29734000D01*
X30660500Y29729000D01*
X30658500Y29724000D01*
X30656500Y29720000D01*
X30654500Y29715000D01*
X30651500Y29711000D01*
X30648500Y29706000D01*
X30645500Y29702000D01*
X30641500Y29698000D01*
X30638500Y29694000D01*
X30634500Y29691000D01*
X30630500Y29687000D01*
X30626500Y29684000D01*
X30621500Y29681000D01*
X30617500Y29678000D01*
X30612500Y29676000D01*
X30608500Y29674000D01*
X30603500Y29672000D01*
X30598500Y29670000D01*
X30593500Y29668000D01*
X30588500Y29667000D01*
X30583500Y29666000D01*
X30577500Y29666000D01*
X30572500Y29665000D01*
X30567500Y29665000D01*
X30417500Y29665000D01*
X30412500Y29665000D01*
X30407500Y29666000D01*
X30401500Y29666000D01*
X30396500Y29667000D01*
X30391500Y29668000D01*
X30386500Y29670000D01*
X30381500Y29672000D01*
X30376500Y29674000D01*
X30372500Y29676000D01*
X30367500Y29678000D01*
X30363500Y29681000D01*
X30358500Y29684000D01*
X30354500Y29687000D01*
X30350500Y29691000D01*
X30346500Y29694000D01*
X30343500Y29698000D01*
X30339500Y29702000D01*
X30336500Y29706000D01*
X30333500Y29711000D01*
X30330500Y29715000D01*
X30328500Y29720000D01*
X30326500Y29724000D01*
X30324500Y29729000D01*
X30322500Y29734000D01*
X30320500Y29739000D01*
X30319500Y29744000D01*
X30318500Y29749000D01*
X30318500Y29755000D01*
X30317500Y29760000D01*
X30317500Y29765000D01*
X30317500Y30265000D01*
X30317500Y30270000D01*
X30318500Y30275000D01*
X30318500Y30281000D01*
X30319500Y30286000D01*
X30320500Y30291000D01*
X30322500Y30296000D01*
X30324500Y30301000D01*
X30326500Y30306000D01*
X30328500Y30310000D01*
X30330500Y30315000D01*
X30333500Y30319000D01*
X30336500Y30324000D01*
X30339500Y30328000D01*
X30343500Y30332000D01*
X30346500Y30336000D01*
X30350500Y30339000D01*
X30354500Y30343000D01*
X30358500Y30346000D01*
X30363500Y30349000D01*
X30367500Y30352000D01*
X30372500Y30354000D01*
X30376500Y30356000D01*
X30381500Y30358000D01*
X30386500Y30360000D01*
X30391500Y30362000D01*
X30396500Y30363000D01*
X30401500Y30364000D01*
X30407500Y30364000D01*
X30412500Y30365000D01*
X30417500Y30365000D01*
X30567500Y30365000D01*
X30572500Y30365000D01*
X30577500Y30364000D01*
G36*
X30577500Y30364000D02*
G01*
X30583500Y30364000D01*
X30588500Y30363000D01*
X30593500Y30362000D01*
X30598500Y30360000D01*
X30603500Y30358000D01*
X30608500Y30356000D01*
X30612500Y30354000D01*
X30617500Y30352000D01*
X30621500Y30349000D01*
X30626500Y30346000D01*
X30630500Y30343000D01*
X30634500Y30339000D01*
X30638500Y30336000D01*
X30641500Y30332000D01*
X30645500Y30328000D01*
X30648500Y30324000D01*
X30651500Y30319000D01*
X30654500Y30315000D01*
X30656500Y30310000D01*
X30658500Y30306000D01*
X30660500Y30301000D01*
X30662500Y30296000D01*
X30664500Y30291000D01*
X30665500Y30286000D01*
X30666500Y30281000D01*
X30666500Y30275000D01*
X30667500Y30270000D01*
X30667500Y30265000D01*
X30667500Y29765000D01*
X30667500Y29760000D01*
X30666500Y29755000D01*
X30666500Y29749000D01*
X30665500Y29744000D01*
X30664500Y29739000D01*
X30662500Y29734000D01*
X30660500Y29729000D01*
X30658500Y29724000D01*
X30656500Y29720000D01*
X30654500Y29715000D01*
X30651500Y29711000D01*
X30648500Y29706000D01*
X30645500Y29702000D01*
X30641500Y29698000D01*
X30638500Y29694000D01*
X30634500Y29691000D01*
X30630500Y29687000D01*
X30626500Y29684000D01*
X30621500Y29681000D01*
X30617500Y29678000D01*
X30612500Y29676000D01*
X30608500Y29674000D01*
X30603500Y29672000D01*
X30598500Y29670000D01*
X30593500Y29668000D01*
X30588500Y29667000D01*
X30583500Y29666000D01*
X30577500Y29666000D01*
X30572500Y29665000D01*
X30567500Y29665000D01*
X30417500Y29665000D01*
X30412500Y29665000D01*
X30407500Y29666000D01*
X30401500Y29666000D01*
X30396500Y29667000D01*
X30391500Y29668000D01*
X30386500Y29670000D01*
X30381500Y29672000D01*
X30376500Y29674000D01*
X30372500Y29676000D01*
X30367500Y29678000D01*
X30363500Y29681000D01*
X30358500Y29684000D01*
X30354500Y29687000D01*
X30350500Y29691000D01*
X30346500Y29694000D01*
X30343500Y29698000D01*
X30339500Y29702000D01*
X30336500Y29706000D01*
X30333500Y29711000D01*
X30330500Y29715000D01*
X30328500Y29720000D01*
X30326500Y29724000D01*
X30324500Y29729000D01*
X30322500Y29734000D01*
X30320500Y29739000D01*
X30319500Y29744000D01*
X30318500Y29749000D01*
X30318500Y29755000D01*
X30317500Y29760000D01*
X30317500Y29765000D01*
X30317500Y30265000D01*
X30317500Y30270000D01*
X30318500Y30275000D01*
X30318500Y30281000D01*
X30319500Y30286000D01*
X30320500Y30291000D01*
X30322500Y30296000D01*
X30324500Y30301000D01*
X30326500Y30306000D01*
X30328500Y30310000D01*
X30330500Y30315000D01*
X30333500Y30319000D01*
X30336500Y30324000D01*
X30339500Y30328000D01*
X30343500Y30332000D01*
X30346500Y30336000D01*
X30350500Y30339000D01*
X30354500Y30343000D01*
X30358500Y30346000D01*
X30363500Y30349000D01*
X30367500Y30352000D01*
X30372500Y30354000D01*
X30376500Y30356000D01*
X30381500Y30358000D01*
X30386500Y30360000D01*
X30391500Y30362000D01*
X30396500Y30363000D01*
X30401500Y30364000D01*
X30407500Y30364000D01*
X30412500Y30365000D01*
X30417500Y30365000D01*
X30567500Y30365000D01*
X30572500Y30365000D01*
X30577500Y30364000D01*
G37*
X30577500Y26564000D02*
X30583500Y26564000D01*
X30588500Y26563000D01*
X30593500Y26562000D01*
X30598500Y26560000D01*
X30603500Y26558000D01*
X30608500Y26556000D01*
X30612500Y26554000D01*
X30617500Y26552000D01*
X30621500Y26549000D01*
X30626500Y26546000D01*
X30630500Y26543000D01*
X30634500Y26539000D01*
X30638500Y26536000D01*
X30641500Y26532000D01*
X30645500Y26528000D01*
X30648500Y26524000D01*
X30651500Y26519000D01*
X30654500Y26515000D01*
X30656500Y26510000D01*
X30658500Y26506000D01*
X30660500Y26501000D01*
X30662500Y26496000D01*
X30664500Y26491000D01*
X30665500Y26486000D01*
X30666500Y26481000D01*
X30666500Y26475000D01*
X30667500Y26470000D01*
X30667500Y26465000D01*
X30667500Y25965000D01*
X30667500Y25960000D01*
X30666500Y25955000D01*
X30666500Y25949000D01*
X30665500Y25944000D01*
X30664500Y25939000D01*
X30662500Y25934000D01*
X30660500Y25929000D01*
X30658500Y25924000D01*
X30656500Y25920000D01*
X30654500Y25915000D01*
X30651500Y25911000D01*
X30648500Y25906000D01*
X30645500Y25902000D01*
X30641500Y25898000D01*
X30638500Y25894000D01*
X30634500Y25891000D01*
X30630500Y25887000D01*
X30626500Y25884000D01*
X30621500Y25881000D01*
X30617500Y25878000D01*
X30612500Y25876000D01*
X30608500Y25874000D01*
X30603500Y25872000D01*
X30598500Y25870000D01*
X30593500Y25868000D01*
X30588500Y25867000D01*
X30583500Y25866000D01*
X30577500Y25866000D01*
X30572500Y25865000D01*
X30567500Y25865000D01*
X30417500Y25865000D01*
X30412500Y25865000D01*
X30407500Y25866000D01*
X30401500Y25866000D01*
X30396500Y25867000D01*
X30391500Y25868000D01*
X30386500Y25870000D01*
X30381500Y25872000D01*
X30376500Y25874000D01*
X30372500Y25876000D01*
X30367500Y25878000D01*
X30363500Y25881000D01*
X30358500Y25884000D01*
X30354500Y25887000D01*
X30350500Y25891000D01*
X30346500Y25894000D01*
X30343500Y25898000D01*
X30339500Y25902000D01*
X30336500Y25906000D01*
X30333500Y25911000D01*
X30330500Y25915000D01*
X30328500Y25920000D01*
X30326500Y25924000D01*
X30324500Y25929000D01*
X30322500Y25934000D01*
X30320500Y25939000D01*
X30319500Y25944000D01*
X30318500Y25949000D01*
X30318500Y25955000D01*
X30317500Y25960000D01*
X30317500Y25965000D01*
X30317500Y26465000D01*
X30317500Y26470000D01*
X30318500Y26475000D01*
X30318500Y26481000D01*
X30319500Y26486000D01*
X30320500Y26491000D01*
X30322500Y26496000D01*
X30324500Y26501000D01*
X30326500Y26506000D01*
X30328500Y26510000D01*
X30330500Y26515000D01*
X30333500Y26519000D01*
X30336500Y26524000D01*
X30339500Y26528000D01*
X30343500Y26532000D01*
X30346500Y26536000D01*
X30350500Y26539000D01*
X30354500Y26543000D01*
X30358500Y26546000D01*
X30363500Y26549000D01*
X30367500Y26552000D01*
X30372500Y26554000D01*
X30376500Y26556000D01*
X30381500Y26558000D01*
X30386500Y26560000D01*
X30391500Y26562000D01*
X30396500Y26563000D01*
X30401500Y26564000D01*
X30407500Y26564000D01*
X30412500Y26565000D01*
X30417500Y26565000D01*
X30567500Y26565000D01*
X30572500Y26565000D01*
X30577500Y26564000D01*
G36*
X30577500Y26564000D02*
G01*
X30583500Y26564000D01*
X30588500Y26563000D01*
X30593500Y26562000D01*
X30598500Y26560000D01*
X30603500Y26558000D01*
X30608500Y26556000D01*
X30612500Y26554000D01*
X30617500Y26552000D01*
X30621500Y26549000D01*
X30626500Y26546000D01*
X30630500Y26543000D01*
X30634500Y26539000D01*
X30638500Y26536000D01*
X30641500Y26532000D01*
X30645500Y26528000D01*
X30648500Y26524000D01*
X30651500Y26519000D01*
X30654500Y26515000D01*
X30656500Y26510000D01*
X30658500Y26506000D01*
X30660500Y26501000D01*
X30662500Y26496000D01*
X30664500Y26491000D01*
X30665500Y26486000D01*
X30666500Y26481000D01*
X30666500Y26475000D01*
X30667500Y26470000D01*
X30667500Y26465000D01*
X30667500Y25965000D01*
X30667500Y25960000D01*
X30666500Y25955000D01*
X30666500Y25949000D01*
X30665500Y25944000D01*
X30664500Y25939000D01*
X30662500Y25934000D01*
X30660500Y25929000D01*
X30658500Y25924000D01*
X30656500Y25920000D01*
X30654500Y25915000D01*
X30651500Y25911000D01*
X30648500Y25906000D01*
X30645500Y25902000D01*
X30641500Y25898000D01*
X30638500Y25894000D01*
X30634500Y25891000D01*
X30630500Y25887000D01*
X30626500Y25884000D01*
X30621500Y25881000D01*
X30617500Y25878000D01*
X30612500Y25876000D01*
X30608500Y25874000D01*
X30603500Y25872000D01*
X30598500Y25870000D01*
X30593500Y25868000D01*
X30588500Y25867000D01*
X30583500Y25866000D01*
X30577500Y25866000D01*
X30572500Y25865000D01*
X30567500Y25865000D01*
X30417500Y25865000D01*
X30412500Y25865000D01*
X30407500Y25866000D01*
X30401500Y25866000D01*
X30396500Y25867000D01*
X30391500Y25868000D01*
X30386500Y25870000D01*
X30381500Y25872000D01*
X30376500Y25874000D01*
X30372500Y25876000D01*
X30367500Y25878000D01*
X30363500Y25881000D01*
X30358500Y25884000D01*
X30354500Y25887000D01*
X30350500Y25891000D01*
X30346500Y25894000D01*
X30343500Y25898000D01*
X30339500Y25902000D01*
X30336500Y25906000D01*
X30333500Y25911000D01*
X30330500Y25915000D01*
X30328500Y25920000D01*
X30326500Y25924000D01*
X30324500Y25929000D01*
X30322500Y25934000D01*
X30320500Y25939000D01*
X30319500Y25944000D01*
X30318500Y25949000D01*
X30318500Y25955000D01*
X30317500Y25960000D01*
X30317500Y25965000D01*
X30317500Y26465000D01*
X30317500Y26470000D01*
X30318500Y26475000D01*
X30318500Y26481000D01*
X30319500Y26486000D01*
X30320500Y26491000D01*
X30322500Y26496000D01*
X30324500Y26501000D01*
X30326500Y26506000D01*
X30328500Y26510000D01*
X30330500Y26515000D01*
X30333500Y26519000D01*
X30336500Y26524000D01*
X30339500Y26528000D01*
X30343500Y26532000D01*
X30346500Y26536000D01*
X30350500Y26539000D01*
X30354500Y26543000D01*
X30358500Y26546000D01*
X30363500Y26549000D01*
X30367500Y26552000D01*
X30372500Y26554000D01*
X30376500Y26556000D01*
X30381500Y26558000D01*
X30386500Y26560000D01*
X30391500Y26562000D01*
X30396500Y26563000D01*
X30401500Y26564000D01*
X30407500Y26564000D01*
X30412500Y26565000D01*
X30417500Y26565000D01*
X30567500Y26565000D01*
X30572500Y26565000D01*
X30577500Y26564000D01*
G37*
X31402500Y29339000D02*
X31408500Y29339000D01*
X31413500Y29338000D01*
X31418500Y29337000D01*
X31423500Y29335000D01*
X31428500Y29333000D01*
X31433500Y29331000D01*
X31437500Y29329000D01*
X31442500Y29327000D01*
X31446500Y29324000D01*
X31451500Y29321000D01*
X31455500Y29318000D01*
X31459500Y29314000D01*
X31463500Y29311000D01*
X31466500Y29307000D01*
X31470500Y29303000D01*
X31473500Y29299000D01*
X31476500Y29294000D01*
X31479500Y29290000D01*
X31481500Y29285000D01*
X31483500Y29281000D01*
X31485500Y29276000D01*
X31487500Y29271000D01*
X31489500Y29266000D01*
X31490500Y29261000D01*
X31491500Y29256000D01*
X31491500Y29250000D01*
X31492500Y29245000D01*
X31492500Y29240000D01*
X31492500Y29090000D01*
X31492500Y29085000D01*
X31491500Y29080000D01*
X31491500Y29074000D01*
X31490500Y29069000D01*
X31489500Y29064000D01*
X31487500Y29059000D01*
X31485500Y29054000D01*
X31483500Y29049000D01*
X31481500Y29045000D01*
X31479500Y29040000D01*
X31476500Y29036000D01*
X31473500Y29031000D01*
X31470500Y29027000D01*
X31466500Y29023000D01*
X31463500Y29019000D01*
X31459500Y29016000D01*
X31455500Y29012000D01*
X31451500Y29009000D01*
X31446500Y29006000D01*
X31442500Y29003000D01*
X31437500Y29001000D01*
X31433500Y28999000D01*
X31428500Y28997000D01*
X31423500Y28995000D01*
X31418500Y28993000D01*
X31413500Y28992000D01*
X31408500Y28991000D01*
X31402500Y28991000D01*
X31397500Y28990000D01*
X31392500Y28990000D01*
X30817500Y28990000D01*
X30812500Y28990000D01*
X30807500Y28991000D01*
X30801500Y28991000D01*
X30796500Y28992000D01*
X30791500Y28993000D01*
X30786500Y28995000D01*
X30781500Y28997000D01*
X30776500Y28999000D01*
X30772500Y29001000D01*
X30767500Y29003000D01*
X30763500Y29006000D01*
X30758500Y29009000D01*
X30754500Y29012000D01*
X30750500Y29016000D01*
X30746500Y29019000D01*
X30743500Y29023000D01*
X30739500Y29027000D01*
X30736500Y29031000D01*
X30733500Y29036000D01*
X30730500Y29040000D01*
X30728500Y29045000D01*
X30726500Y29049000D01*
X30724500Y29054000D01*
X30722500Y29059000D01*
X30720500Y29064000D01*
X30719500Y29069000D01*
X30718500Y29074000D01*
X30718500Y29080000D01*
X30717500Y29085000D01*
X30717500Y29090000D01*
X30717500Y29240000D01*
X30717500Y29245000D01*
X30718500Y29250000D01*
X30718500Y29256000D01*
X30719500Y29261000D01*
X30720500Y29266000D01*
X30722500Y29271000D01*
X30724500Y29276000D01*
X30726500Y29281000D01*
X30728500Y29285000D01*
X30730500Y29290000D01*
X30733500Y29294000D01*
X30736500Y29299000D01*
X30739500Y29303000D01*
X30743500Y29307000D01*
X30746500Y29311000D01*
X30750500Y29314000D01*
X30754500Y29318000D01*
X30758500Y29321000D01*
X30763500Y29324000D01*
X30767500Y29327000D01*
X30772500Y29329000D01*
X30776500Y29331000D01*
X30781500Y29333000D01*
X30786500Y29335000D01*
X30791500Y29337000D01*
X30796500Y29338000D01*
X30801500Y29339000D01*
X30807500Y29339000D01*
X30812500Y29340000D01*
X30817500Y29340000D01*
X31392500Y29340000D01*
X31397500Y29340000D01*
X31402500Y29339000D01*
G36*
X31402500Y29339000D02*
G01*
X31408500Y29339000D01*
X31413500Y29338000D01*
X31418500Y29337000D01*
X31423500Y29335000D01*
X31428500Y29333000D01*
X31433500Y29331000D01*
X31437500Y29329000D01*
X31442500Y29327000D01*
X31446500Y29324000D01*
X31451500Y29321000D01*
X31455500Y29318000D01*
X31459500Y29314000D01*
X31463500Y29311000D01*
X31466500Y29307000D01*
X31470500Y29303000D01*
X31473500Y29299000D01*
X31476500Y29294000D01*
X31479500Y29290000D01*
X31481500Y29285000D01*
X31483500Y29281000D01*
X31485500Y29276000D01*
X31487500Y29271000D01*
X31489500Y29266000D01*
X31490500Y29261000D01*
X31491500Y29256000D01*
X31491500Y29250000D01*
X31492500Y29245000D01*
X31492500Y29240000D01*
X31492500Y29090000D01*
X31492500Y29085000D01*
X31491500Y29080000D01*
X31491500Y29074000D01*
X31490500Y29069000D01*
X31489500Y29064000D01*
X31487500Y29059000D01*
X31485500Y29054000D01*
X31483500Y29049000D01*
X31481500Y29045000D01*
X31479500Y29040000D01*
X31476500Y29036000D01*
X31473500Y29031000D01*
X31470500Y29027000D01*
X31466500Y29023000D01*
X31463500Y29019000D01*
X31459500Y29016000D01*
X31455500Y29012000D01*
X31451500Y29009000D01*
X31446500Y29006000D01*
X31442500Y29003000D01*
X31437500Y29001000D01*
X31433500Y28999000D01*
X31428500Y28997000D01*
X31423500Y28995000D01*
X31418500Y28993000D01*
X31413500Y28992000D01*
X31408500Y28991000D01*
X31402500Y28991000D01*
X31397500Y28990000D01*
X31392500Y28990000D01*
X30817500Y28990000D01*
X30812500Y28990000D01*
X30807500Y28991000D01*
X30801500Y28991000D01*
X30796500Y28992000D01*
X30791500Y28993000D01*
X30786500Y28995000D01*
X30781500Y28997000D01*
X30776500Y28999000D01*
X30772500Y29001000D01*
X30767500Y29003000D01*
X30763500Y29006000D01*
X30758500Y29009000D01*
X30754500Y29012000D01*
X30750500Y29016000D01*
X30746500Y29019000D01*
X30743500Y29023000D01*
X30739500Y29027000D01*
X30736500Y29031000D01*
X30733500Y29036000D01*
X30730500Y29040000D01*
X30728500Y29045000D01*
X30726500Y29049000D01*
X30724500Y29054000D01*
X30722500Y29059000D01*
X30720500Y29064000D01*
X30719500Y29069000D01*
X30718500Y29074000D01*
X30718500Y29080000D01*
X30717500Y29085000D01*
X30717500Y29090000D01*
X30717500Y29240000D01*
X30717500Y29245000D01*
X30718500Y29250000D01*
X30718500Y29256000D01*
X30719500Y29261000D01*
X30720500Y29266000D01*
X30722500Y29271000D01*
X30724500Y29276000D01*
X30726500Y29281000D01*
X30728500Y29285000D01*
X30730500Y29290000D01*
X30733500Y29294000D01*
X30736500Y29299000D01*
X30739500Y29303000D01*
X30743500Y29307000D01*
X30746500Y29311000D01*
X30750500Y29314000D01*
X30754500Y29318000D01*
X30758500Y29321000D01*
X30763500Y29324000D01*
X30767500Y29327000D01*
X30772500Y29329000D01*
X30776500Y29331000D01*
X30781500Y29333000D01*
X30786500Y29335000D01*
X30791500Y29337000D01*
X30796500Y29338000D01*
X30801500Y29339000D01*
X30807500Y29339000D01*
X30812500Y29340000D01*
X30817500Y29340000D01*
X31392500Y29340000D01*
X31397500Y29340000D01*
X31402500Y29339000D01*
G37*
X31402500Y28539000D02*
X31408500Y28539000D01*
X31413500Y28538000D01*
X31418500Y28537000D01*
X31423500Y28535000D01*
X31428500Y28533000D01*
X31433500Y28531000D01*
X31437500Y28529000D01*
X31442500Y28527000D01*
X31446500Y28524000D01*
X31451500Y28521000D01*
X31455500Y28518000D01*
X31459500Y28514000D01*
X31463500Y28511000D01*
X31466500Y28507000D01*
X31470500Y28503000D01*
X31473500Y28499000D01*
X31476500Y28494000D01*
X31479500Y28490000D01*
X31481500Y28485000D01*
X31483500Y28481000D01*
X31485500Y28476000D01*
X31487500Y28471000D01*
X31489500Y28466000D01*
X31490500Y28461000D01*
X31491500Y28456000D01*
X31491500Y28450000D01*
X31492500Y28445000D01*
X31492500Y28440000D01*
X31492500Y28290000D01*
X31492500Y28285000D01*
X31491500Y28280000D01*
X31491500Y28274000D01*
X31490500Y28269000D01*
X31489500Y28264000D01*
X31487500Y28259000D01*
X31485500Y28254000D01*
X31483500Y28249000D01*
X31481500Y28245000D01*
X31479500Y28240000D01*
X31476500Y28236000D01*
X31473500Y28231000D01*
X31470500Y28227000D01*
X31466500Y28223000D01*
X31463500Y28219000D01*
X31459500Y28216000D01*
X31455500Y28212000D01*
X31451500Y28209000D01*
X31446500Y28206000D01*
X31442500Y28203000D01*
X31437500Y28201000D01*
X31433500Y28199000D01*
X31428500Y28197000D01*
X31423500Y28195000D01*
X31418500Y28193000D01*
X31413500Y28192000D01*
X31408500Y28191000D01*
X31402500Y28191000D01*
X31397500Y28190000D01*
X31392500Y28190000D01*
X30892500Y28190000D01*
X30887500Y28190000D01*
X30882500Y28191000D01*
X30876500Y28191000D01*
X30871500Y28192000D01*
X30866500Y28193000D01*
X30861500Y28195000D01*
X30856500Y28197000D01*
X30851500Y28199000D01*
X30847500Y28201000D01*
X30842500Y28203000D01*
X30838500Y28206000D01*
X30833500Y28209000D01*
X30829500Y28212000D01*
X30825500Y28216000D01*
X30821500Y28219000D01*
X30818500Y28223000D01*
X30814500Y28227000D01*
X30811500Y28231000D01*
X30808500Y28236000D01*
X30805500Y28240000D01*
X30803500Y28245000D01*
X30801500Y28249000D01*
X30799500Y28254000D01*
X30797500Y28259000D01*
X30795500Y28264000D01*
X30794500Y28269000D01*
X30793500Y28274000D01*
X30793500Y28280000D01*
X30792500Y28285000D01*
X30792500Y28290000D01*
X30792500Y28440000D01*
X30792500Y28445000D01*
X30793500Y28450000D01*
X30793500Y28456000D01*
X30794500Y28461000D01*
X30795500Y28466000D01*
X30797500Y28471000D01*
X30799500Y28476000D01*
X30801500Y28481000D01*
X30803500Y28485000D01*
X30805500Y28490000D01*
X30808500Y28494000D01*
X30811500Y28499000D01*
X30814500Y28503000D01*
X30818500Y28507000D01*
X30821500Y28511000D01*
X30825500Y28514000D01*
X30829500Y28518000D01*
X30833500Y28521000D01*
X30838500Y28524000D01*
X30842500Y28527000D01*
X30847500Y28529000D01*
X30851500Y28531000D01*
X30856500Y28533000D01*
X30861500Y28535000D01*
X30866500Y28537000D01*
X30871500Y28538000D01*
X30876500Y28539000D01*
X30882500Y28539000D01*
X30887500Y28540000D01*
X30892500Y28540000D01*
X31392500Y28540000D01*
X31397500Y28540000D01*
X31402500Y28539000D01*
G36*
X31402500Y28539000D02*
G01*
X31408500Y28539000D01*
X31413500Y28538000D01*
X31418500Y28537000D01*
X31423500Y28535000D01*
X31428500Y28533000D01*
X31433500Y28531000D01*
X31437500Y28529000D01*
X31442500Y28527000D01*
X31446500Y28524000D01*
X31451500Y28521000D01*
X31455500Y28518000D01*
X31459500Y28514000D01*
X31463500Y28511000D01*
X31466500Y28507000D01*
X31470500Y28503000D01*
X31473500Y28499000D01*
X31476500Y28494000D01*
X31479500Y28490000D01*
X31481500Y28485000D01*
X31483500Y28481000D01*
X31485500Y28476000D01*
X31487500Y28471000D01*
X31489500Y28466000D01*
X31490500Y28461000D01*
X31491500Y28456000D01*
X31491500Y28450000D01*
X31492500Y28445000D01*
X31492500Y28440000D01*
X31492500Y28290000D01*
X31492500Y28285000D01*
X31491500Y28280000D01*
X31491500Y28274000D01*
X31490500Y28269000D01*
X31489500Y28264000D01*
X31487500Y28259000D01*
X31485500Y28254000D01*
X31483500Y28249000D01*
X31481500Y28245000D01*
X31479500Y28240000D01*
X31476500Y28236000D01*
X31473500Y28231000D01*
X31470500Y28227000D01*
X31466500Y28223000D01*
X31463500Y28219000D01*
X31459500Y28216000D01*
X31455500Y28212000D01*
X31451500Y28209000D01*
X31446500Y28206000D01*
X31442500Y28203000D01*
X31437500Y28201000D01*
X31433500Y28199000D01*
X31428500Y28197000D01*
X31423500Y28195000D01*
X31418500Y28193000D01*
X31413500Y28192000D01*
X31408500Y28191000D01*
X31402500Y28191000D01*
X31397500Y28190000D01*
X31392500Y28190000D01*
X30892500Y28190000D01*
X30887500Y28190000D01*
X30882500Y28191000D01*
X30876500Y28191000D01*
X30871500Y28192000D01*
X30866500Y28193000D01*
X30861500Y28195000D01*
X30856500Y28197000D01*
X30851500Y28199000D01*
X30847500Y28201000D01*
X30842500Y28203000D01*
X30838500Y28206000D01*
X30833500Y28209000D01*
X30829500Y28212000D01*
X30825500Y28216000D01*
X30821500Y28219000D01*
X30818500Y28223000D01*
X30814500Y28227000D01*
X30811500Y28231000D01*
X30808500Y28236000D01*
X30805500Y28240000D01*
X30803500Y28245000D01*
X30801500Y28249000D01*
X30799500Y28254000D01*
X30797500Y28259000D01*
X30795500Y28264000D01*
X30794500Y28269000D01*
X30793500Y28274000D01*
X30793500Y28280000D01*
X30792500Y28285000D01*
X30792500Y28290000D01*
X30792500Y28440000D01*
X30792500Y28445000D01*
X30793500Y28450000D01*
X30793500Y28456000D01*
X30794500Y28461000D01*
X30795500Y28466000D01*
X30797500Y28471000D01*
X30799500Y28476000D01*
X30801500Y28481000D01*
X30803500Y28485000D01*
X30805500Y28490000D01*
X30808500Y28494000D01*
X30811500Y28499000D01*
X30814500Y28503000D01*
X30818500Y28507000D01*
X30821500Y28511000D01*
X30825500Y28514000D01*
X30829500Y28518000D01*
X30833500Y28521000D01*
X30838500Y28524000D01*
X30842500Y28527000D01*
X30847500Y28529000D01*
X30851500Y28531000D01*
X30856500Y28533000D01*
X30861500Y28535000D01*
X30866500Y28537000D01*
X30871500Y28538000D01*
X30876500Y28539000D01*
X30882500Y28539000D01*
X30887500Y28540000D01*
X30892500Y28540000D01*
X31392500Y28540000D01*
X31397500Y28540000D01*
X31402500Y28539000D01*
G37*
X31402500Y28039000D02*
X31408500Y28039000D01*
X31413500Y28038000D01*
X31418500Y28037000D01*
X31423500Y28035000D01*
X31428500Y28033000D01*
X31433500Y28031000D01*
X31437500Y28029000D01*
X31442500Y28027000D01*
X31446500Y28024000D01*
X31451500Y28021000D01*
X31455500Y28018000D01*
X31459500Y28014000D01*
X31463500Y28011000D01*
X31466500Y28007000D01*
X31470500Y28003000D01*
X31473500Y27999000D01*
X31476500Y27994000D01*
X31479500Y27990000D01*
X31481500Y27985000D01*
X31483500Y27981000D01*
X31485500Y27976000D01*
X31487500Y27971000D01*
X31489500Y27966000D01*
X31490500Y27961000D01*
X31491500Y27956000D01*
X31491500Y27950000D01*
X31492500Y27945000D01*
X31492500Y27940000D01*
X31492500Y27790000D01*
X31492500Y27785000D01*
X31491500Y27780000D01*
X31491500Y27774000D01*
X31490500Y27769000D01*
X31489500Y27764000D01*
X31487500Y27759000D01*
X31485500Y27754000D01*
X31483500Y27749000D01*
X31481500Y27745000D01*
X31479500Y27740000D01*
X31476500Y27736000D01*
X31473500Y27731000D01*
X31470500Y27727000D01*
X31466500Y27723000D01*
X31463500Y27719000D01*
X31459500Y27716000D01*
X31455500Y27712000D01*
X31451500Y27709000D01*
X31446500Y27706000D01*
X31442500Y27703000D01*
X31437500Y27701000D01*
X31433500Y27699000D01*
X31428500Y27697000D01*
X31423500Y27695000D01*
X31418500Y27693000D01*
X31413500Y27692000D01*
X31408500Y27691000D01*
X31402500Y27691000D01*
X31397500Y27690000D01*
X31392500Y27690000D01*
X30892500Y27690000D01*
X30887500Y27690000D01*
X30882500Y27691000D01*
X30876500Y27691000D01*
X30871500Y27692000D01*
X30866500Y27693000D01*
X30861500Y27695000D01*
X30856500Y27697000D01*
X30851500Y27699000D01*
X30847500Y27701000D01*
X30842500Y27703000D01*
X30838500Y27706000D01*
X30833500Y27709000D01*
X30829500Y27712000D01*
X30825500Y27716000D01*
X30821500Y27719000D01*
X30818500Y27723000D01*
X30814500Y27727000D01*
X30811500Y27731000D01*
X30808500Y27736000D01*
X30805500Y27740000D01*
X30803500Y27745000D01*
X30801500Y27749000D01*
X30799500Y27754000D01*
X30797500Y27759000D01*
X30795500Y27764000D01*
X30794500Y27769000D01*
X30793500Y27774000D01*
X30793500Y27780000D01*
X30792500Y27785000D01*
X30792500Y27790000D01*
X30792500Y27940000D01*
X30792500Y27945000D01*
X30793500Y27950000D01*
X30793500Y27956000D01*
X30794500Y27961000D01*
X30795500Y27966000D01*
X30797500Y27971000D01*
X30799500Y27976000D01*
X30801500Y27981000D01*
X30803500Y27985000D01*
X30805500Y27990000D01*
X30808500Y27994000D01*
X30811500Y27999000D01*
X30814500Y28003000D01*
X30818500Y28007000D01*
X30821500Y28011000D01*
X30825500Y28014000D01*
X30829500Y28018000D01*
X30833500Y28021000D01*
X30838500Y28024000D01*
X30842500Y28027000D01*
X30847500Y28029000D01*
X30851500Y28031000D01*
X30856500Y28033000D01*
X30861500Y28035000D01*
X30866500Y28037000D01*
X30871500Y28038000D01*
X30876500Y28039000D01*
X30882500Y28039000D01*
X30887500Y28040000D01*
X30892500Y28040000D01*
X31392500Y28040000D01*
X31397500Y28040000D01*
X31402500Y28039000D01*
G36*
X31402500Y28039000D02*
G01*
X31408500Y28039000D01*
X31413500Y28038000D01*
X31418500Y28037000D01*
X31423500Y28035000D01*
X31428500Y28033000D01*
X31433500Y28031000D01*
X31437500Y28029000D01*
X31442500Y28027000D01*
X31446500Y28024000D01*
X31451500Y28021000D01*
X31455500Y28018000D01*
X31459500Y28014000D01*
X31463500Y28011000D01*
X31466500Y28007000D01*
X31470500Y28003000D01*
X31473500Y27999000D01*
X31476500Y27994000D01*
X31479500Y27990000D01*
X31481500Y27985000D01*
X31483500Y27981000D01*
X31485500Y27976000D01*
X31487500Y27971000D01*
X31489500Y27966000D01*
X31490500Y27961000D01*
X31491500Y27956000D01*
X31491500Y27950000D01*
X31492500Y27945000D01*
X31492500Y27940000D01*
X31492500Y27790000D01*
X31492500Y27785000D01*
X31491500Y27780000D01*
X31491500Y27774000D01*
X31490500Y27769000D01*
X31489500Y27764000D01*
X31487500Y27759000D01*
X31485500Y27754000D01*
X31483500Y27749000D01*
X31481500Y27745000D01*
X31479500Y27740000D01*
X31476500Y27736000D01*
X31473500Y27731000D01*
X31470500Y27727000D01*
X31466500Y27723000D01*
X31463500Y27719000D01*
X31459500Y27716000D01*
X31455500Y27712000D01*
X31451500Y27709000D01*
X31446500Y27706000D01*
X31442500Y27703000D01*
X31437500Y27701000D01*
X31433500Y27699000D01*
X31428500Y27697000D01*
X31423500Y27695000D01*
X31418500Y27693000D01*
X31413500Y27692000D01*
X31408500Y27691000D01*
X31402500Y27691000D01*
X31397500Y27690000D01*
X31392500Y27690000D01*
X30892500Y27690000D01*
X30887500Y27690000D01*
X30882500Y27691000D01*
X30876500Y27691000D01*
X30871500Y27692000D01*
X30866500Y27693000D01*
X30861500Y27695000D01*
X30856500Y27697000D01*
X30851500Y27699000D01*
X30847500Y27701000D01*
X30842500Y27703000D01*
X30838500Y27706000D01*
X30833500Y27709000D01*
X30829500Y27712000D01*
X30825500Y27716000D01*
X30821500Y27719000D01*
X30818500Y27723000D01*
X30814500Y27727000D01*
X30811500Y27731000D01*
X30808500Y27736000D01*
X30805500Y27740000D01*
X30803500Y27745000D01*
X30801500Y27749000D01*
X30799500Y27754000D01*
X30797500Y27759000D01*
X30795500Y27764000D01*
X30794500Y27769000D01*
X30793500Y27774000D01*
X30793500Y27780000D01*
X30792500Y27785000D01*
X30792500Y27790000D01*
X30792500Y27940000D01*
X30792500Y27945000D01*
X30793500Y27950000D01*
X30793500Y27956000D01*
X30794500Y27961000D01*
X30795500Y27966000D01*
X30797500Y27971000D01*
X30799500Y27976000D01*
X30801500Y27981000D01*
X30803500Y27985000D01*
X30805500Y27990000D01*
X30808500Y27994000D01*
X30811500Y27999000D01*
X30814500Y28003000D01*
X30818500Y28007000D01*
X30821500Y28011000D01*
X30825500Y28014000D01*
X30829500Y28018000D01*
X30833500Y28021000D01*
X30838500Y28024000D01*
X30842500Y28027000D01*
X30847500Y28029000D01*
X30851500Y28031000D01*
X30856500Y28033000D01*
X30861500Y28035000D01*
X30866500Y28037000D01*
X30871500Y28038000D01*
X30876500Y28039000D01*
X30882500Y28039000D01*
X30887500Y28040000D01*
X30892500Y28040000D01*
X31392500Y28040000D01*
X31397500Y28040000D01*
X31402500Y28039000D01*
G37*
X31402500Y27239000D02*
X31408500Y27239000D01*
X31413500Y27238000D01*
X31418500Y27237000D01*
X31423500Y27235000D01*
X31428500Y27233000D01*
X31433500Y27231000D01*
X31437500Y27229000D01*
X31442500Y27227000D01*
X31446500Y27224000D01*
X31451500Y27221000D01*
X31455500Y27218000D01*
X31459500Y27214000D01*
X31463500Y27211000D01*
X31466500Y27207000D01*
X31470500Y27203000D01*
X31473500Y27199000D01*
X31476500Y27194000D01*
X31479500Y27190000D01*
X31481500Y27185000D01*
X31483500Y27181000D01*
X31485500Y27176000D01*
X31487500Y27171000D01*
X31489500Y27166000D01*
X31490500Y27161000D01*
X31491500Y27156000D01*
X31491500Y27150000D01*
X31492500Y27145000D01*
X31492500Y27140000D01*
X31492500Y26990000D01*
X31492500Y26985000D01*
X31491500Y26980000D01*
X31491500Y26974000D01*
X31490500Y26969000D01*
X31489500Y26964000D01*
X31487500Y26959000D01*
X31485500Y26954000D01*
X31483500Y26949000D01*
X31481500Y26945000D01*
X31479500Y26940000D01*
X31476500Y26936000D01*
X31473500Y26931000D01*
X31470500Y26927000D01*
X31466500Y26923000D01*
X31463500Y26919000D01*
X31459500Y26916000D01*
X31455500Y26912000D01*
X31451500Y26909000D01*
X31446500Y26906000D01*
X31442500Y26903000D01*
X31437500Y26901000D01*
X31433500Y26899000D01*
X31428500Y26897000D01*
X31423500Y26895000D01*
X31418500Y26893000D01*
X31413500Y26892000D01*
X31408500Y26891000D01*
X31402500Y26891000D01*
X31397500Y26890000D01*
X31392500Y26890000D01*
X30817500Y26890000D01*
X30812500Y26890000D01*
X30807500Y26891000D01*
X30801500Y26891000D01*
X30796500Y26892000D01*
X30791500Y26893000D01*
X30786500Y26895000D01*
X30781500Y26897000D01*
X30776500Y26899000D01*
X30772500Y26901000D01*
X30767500Y26903000D01*
X30763500Y26906000D01*
X30758500Y26909000D01*
X30754500Y26912000D01*
X30750500Y26916000D01*
X30746500Y26919000D01*
X30743500Y26923000D01*
X30739500Y26927000D01*
X30736500Y26931000D01*
X30733500Y26936000D01*
X30730500Y26940000D01*
X30728500Y26945000D01*
X30726500Y26949000D01*
X30724500Y26954000D01*
X30722500Y26959000D01*
X30720500Y26964000D01*
X30719500Y26969000D01*
X30718500Y26974000D01*
X30718500Y26980000D01*
X30717500Y26985000D01*
X30717500Y26990000D01*
X30717500Y27140000D01*
X30717500Y27145000D01*
X30718500Y27150000D01*
X30718500Y27156000D01*
X30719500Y27161000D01*
X30720500Y27166000D01*
X30722500Y27171000D01*
X30724500Y27176000D01*
X30726500Y27181000D01*
X30728500Y27185000D01*
X30730500Y27190000D01*
X30733500Y27194000D01*
X30736500Y27199000D01*
X30739500Y27203000D01*
X30743500Y27207000D01*
X30746500Y27211000D01*
X30750500Y27214000D01*
X30754500Y27218000D01*
X30758500Y27221000D01*
X30763500Y27224000D01*
X30767500Y27227000D01*
X30772500Y27229000D01*
X30776500Y27231000D01*
X30781500Y27233000D01*
X30786500Y27235000D01*
X30791500Y27237000D01*
X30796500Y27238000D01*
X30801500Y27239000D01*
X30807500Y27239000D01*
X30812500Y27240000D01*
X30817500Y27240000D01*
X31392500Y27240000D01*
X31397500Y27240000D01*
X31402500Y27239000D01*
G36*
X31402500Y27239000D02*
G01*
X31408500Y27239000D01*
X31413500Y27238000D01*
X31418500Y27237000D01*
X31423500Y27235000D01*
X31428500Y27233000D01*
X31433500Y27231000D01*
X31437500Y27229000D01*
X31442500Y27227000D01*
X31446500Y27224000D01*
X31451500Y27221000D01*
X31455500Y27218000D01*
X31459500Y27214000D01*
X31463500Y27211000D01*
X31466500Y27207000D01*
X31470500Y27203000D01*
X31473500Y27199000D01*
X31476500Y27194000D01*
X31479500Y27190000D01*
X31481500Y27185000D01*
X31483500Y27181000D01*
X31485500Y27176000D01*
X31487500Y27171000D01*
X31489500Y27166000D01*
X31490500Y27161000D01*
X31491500Y27156000D01*
X31491500Y27150000D01*
X31492500Y27145000D01*
X31492500Y27140000D01*
X31492500Y26990000D01*
X31492500Y26985000D01*
X31491500Y26980000D01*
X31491500Y26974000D01*
X31490500Y26969000D01*
X31489500Y26964000D01*
X31487500Y26959000D01*
X31485500Y26954000D01*
X31483500Y26949000D01*
X31481500Y26945000D01*
X31479500Y26940000D01*
X31476500Y26936000D01*
X31473500Y26931000D01*
X31470500Y26927000D01*
X31466500Y26923000D01*
X31463500Y26919000D01*
X31459500Y26916000D01*
X31455500Y26912000D01*
X31451500Y26909000D01*
X31446500Y26906000D01*
X31442500Y26903000D01*
X31437500Y26901000D01*
X31433500Y26899000D01*
X31428500Y26897000D01*
X31423500Y26895000D01*
X31418500Y26893000D01*
X31413500Y26892000D01*
X31408500Y26891000D01*
X31402500Y26891000D01*
X31397500Y26890000D01*
X31392500Y26890000D01*
X30817500Y26890000D01*
X30812500Y26890000D01*
X30807500Y26891000D01*
X30801500Y26891000D01*
X30796500Y26892000D01*
X30791500Y26893000D01*
X30786500Y26895000D01*
X30781500Y26897000D01*
X30776500Y26899000D01*
X30772500Y26901000D01*
X30767500Y26903000D01*
X30763500Y26906000D01*
X30758500Y26909000D01*
X30754500Y26912000D01*
X30750500Y26916000D01*
X30746500Y26919000D01*
X30743500Y26923000D01*
X30739500Y26927000D01*
X30736500Y26931000D01*
X30733500Y26936000D01*
X30730500Y26940000D01*
X30728500Y26945000D01*
X30726500Y26949000D01*
X30724500Y26954000D01*
X30722500Y26959000D01*
X30720500Y26964000D01*
X30719500Y26969000D01*
X30718500Y26974000D01*
X30718500Y26980000D01*
X30717500Y26985000D01*
X30717500Y26990000D01*
X30717500Y27140000D01*
X30717500Y27145000D01*
X30718500Y27150000D01*
X30718500Y27156000D01*
X30719500Y27161000D01*
X30720500Y27166000D01*
X30722500Y27171000D01*
X30724500Y27176000D01*
X30726500Y27181000D01*
X30728500Y27185000D01*
X30730500Y27190000D01*
X30733500Y27194000D01*
X30736500Y27199000D01*
X30739500Y27203000D01*
X30743500Y27207000D01*
X30746500Y27211000D01*
X30750500Y27214000D01*
X30754500Y27218000D01*
X30758500Y27221000D01*
X30763500Y27224000D01*
X30767500Y27227000D01*
X30772500Y27229000D01*
X30776500Y27231000D01*
X30781500Y27233000D01*
X30786500Y27235000D01*
X30791500Y27237000D01*
X30796500Y27238000D01*
X30801500Y27239000D01*
X30807500Y27239000D01*
X30812500Y27240000D01*
X30817500Y27240000D01*
X31392500Y27240000D01*
X31397500Y27240000D01*
X31402500Y27239000D01*
G37*
X30160500Y28977000D02*
X30165500Y28977000D01*
X30170500Y28976000D01*
X30175500Y28975000D01*
X30180500Y28974000D01*
X30185500Y28973000D01*
X30190500Y28971000D01*
X30195500Y28969000D01*
X30200500Y28967000D01*
X30204500Y28964000D01*
X30209500Y28961000D01*
X30213500Y28958000D01*
X30217500Y28955000D01*
X30221500Y28952000D01*
X30225500Y28948000D01*
X30229500Y28944000D01*
X30232500Y28940000D01*
X30235500Y28936000D01*
X30238500Y28932000D01*
X30241500Y28928000D01*
X30244500Y28923000D01*
X30246500Y28918000D01*
X30248500Y28913000D01*
X30250500Y28908000D01*
X30251500Y28903000D01*
X30252500Y28898000D01*
X30253500Y28893000D01*
X30254500Y28888000D01*
X30254500Y28883000D01*
X30254500Y28877000D01*
X30255000Y28877500D01*
X30254500Y28602000D01*
X30254500Y28597000D01*
X30254500Y28592000D01*
X30253500Y28587000D01*
X30252500Y28582000D01*
X30251500Y28577000D01*
X30250500Y28572000D01*
X30248500Y28567000D01*
X30246500Y28562000D01*
X30244500Y28557000D01*
X30241500Y28553000D01*
X30238500Y28548000D01*
X30235500Y28544000D01*
X30232500Y28540000D01*
X30229500Y28536000D01*
X30225500Y28532000D01*
X30221500Y28528000D01*
X30217500Y28525000D01*
X30213500Y28522000D01*
X30209500Y28519000D01*
X30204500Y28516000D01*
X30200500Y28513000D01*
X30195500Y28511000D01*
X30190500Y28509000D01*
X30185500Y28507000D01*
X30180500Y28506000D01*
X30175500Y28505000D01*
X30170500Y28504000D01*
X30165500Y28503000D01*
X30160500Y28503000D01*
X30154500Y28503000D01*
X28830500Y28503000D01*
X28824500Y28503000D01*
X28819500Y28503000D01*
X28814500Y28504000D01*
X28809500Y28505000D01*
X28804500Y28506000D01*
X28799500Y28507000D01*
X28794500Y28509000D01*
X28789500Y28511000D01*
X28784500Y28513000D01*
X28780500Y28516000D01*
X28775500Y28519000D01*
X28771500Y28522000D01*
X28767500Y28525000D01*
X28763500Y28528000D01*
X28759500Y28532000D01*
X28755500Y28536000D01*
X28752500Y28540000D01*
X28749500Y28544000D01*
X28746500Y28548000D01*
X28743500Y28553000D01*
X28740500Y28557000D01*
X28738500Y28562000D01*
X28736500Y28567000D01*
X28734500Y28572000D01*
X28733500Y28577000D01*
X28732500Y28582000D01*
X28731500Y28587000D01*
X28730500Y28592000D01*
X28730500Y28597000D01*
X28730500Y28602000D01*
X28730500Y28877000D01*
X28730500Y28883000D01*
X28730500Y28888000D01*
X28731500Y28893000D01*
X28732500Y28898000D01*
X28733500Y28903000D01*
X28734500Y28908000D01*
X28736500Y28913000D01*
X28738500Y28918000D01*
X28740500Y28923000D01*
X28743500Y28928000D01*
X28746500Y28932000D01*
X28749500Y28936000D01*
X28752500Y28940000D01*
X28755500Y28944000D01*
X28759500Y28948000D01*
X28763500Y28952000D01*
X28767500Y28955000D01*
X28771500Y28958000D01*
X28775500Y28961000D01*
X28780500Y28964000D01*
X28784500Y28967000D01*
X28789500Y28969000D01*
X28794500Y28971000D01*
X28799500Y28973000D01*
X28804500Y28974000D01*
X28809500Y28975000D01*
X28814500Y28976000D01*
X28819500Y28977000D01*
X28824500Y28977000D01*
X28830500Y28978000D01*
X30154500Y28978000D01*
X30160500Y28977000D01*
G36*
X30160500Y28977000D02*
G01*
X30165500Y28977000D01*
X30170500Y28976000D01*
X30175500Y28975000D01*
X30180500Y28974000D01*
X30185500Y28973000D01*
X30190500Y28971000D01*
X30195500Y28969000D01*
X30200500Y28967000D01*
X30204500Y28964000D01*
X30209500Y28961000D01*
X30213500Y28958000D01*
X30217500Y28955000D01*
X30221500Y28952000D01*
X30225500Y28948000D01*
X30229500Y28944000D01*
X30232500Y28940000D01*
X30235500Y28936000D01*
X30238500Y28932000D01*
X30241500Y28928000D01*
X30244500Y28923000D01*
X30246500Y28918000D01*
X30248500Y28913000D01*
X30250500Y28908000D01*
X30251500Y28903000D01*
X30252500Y28898000D01*
X30253500Y28893000D01*
X30254500Y28888000D01*
X30254500Y28883000D01*
X30254500Y28877000D01*
X30255000Y28877500D01*
X30254500Y28602000D01*
X30254500Y28597000D01*
X30254500Y28592000D01*
X30253500Y28587000D01*
X30252500Y28582000D01*
X30251500Y28577000D01*
X30250500Y28572000D01*
X30248500Y28567000D01*
X30246500Y28562000D01*
X30244500Y28557000D01*
X30241500Y28553000D01*
X30238500Y28548000D01*
X30235500Y28544000D01*
X30232500Y28540000D01*
X30229500Y28536000D01*
X30225500Y28532000D01*
X30221500Y28528000D01*
X30217500Y28525000D01*
X30213500Y28522000D01*
X30209500Y28519000D01*
X30204500Y28516000D01*
X30200500Y28513000D01*
X30195500Y28511000D01*
X30190500Y28509000D01*
X30185500Y28507000D01*
X30180500Y28506000D01*
X30175500Y28505000D01*
X30170500Y28504000D01*
X30165500Y28503000D01*
X30160500Y28503000D01*
X30154500Y28503000D01*
X28830500Y28503000D01*
X28824500Y28503000D01*
X28819500Y28503000D01*
X28814500Y28504000D01*
X28809500Y28505000D01*
X28804500Y28506000D01*
X28799500Y28507000D01*
X28794500Y28509000D01*
X28789500Y28511000D01*
X28784500Y28513000D01*
X28780500Y28516000D01*
X28775500Y28519000D01*
X28771500Y28522000D01*
X28767500Y28525000D01*
X28763500Y28528000D01*
X28759500Y28532000D01*
X28755500Y28536000D01*
X28752500Y28540000D01*
X28749500Y28544000D01*
X28746500Y28548000D01*
X28743500Y28553000D01*
X28740500Y28557000D01*
X28738500Y28562000D01*
X28736500Y28567000D01*
X28734500Y28572000D01*
X28733500Y28577000D01*
X28732500Y28582000D01*
X28731500Y28587000D01*
X28730500Y28592000D01*
X28730500Y28597000D01*
X28730500Y28602000D01*
X28730500Y28877000D01*
X28730500Y28883000D01*
X28730500Y28888000D01*
X28731500Y28893000D01*
X28732500Y28898000D01*
X28733500Y28903000D01*
X28734500Y28908000D01*
X28736500Y28913000D01*
X28738500Y28918000D01*
X28740500Y28923000D01*
X28743500Y28928000D01*
X28746500Y28932000D01*
X28749500Y28936000D01*
X28752500Y28940000D01*
X28755500Y28944000D01*
X28759500Y28948000D01*
X28763500Y28952000D01*
X28767500Y28955000D01*
X28771500Y28958000D01*
X28775500Y28961000D01*
X28780500Y28964000D01*
X28784500Y28967000D01*
X28789500Y28969000D01*
X28794500Y28971000D01*
X28799500Y28973000D01*
X28804500Y28974000D01*
X28809500Y28975000D01*
X28814500Y28976000D01*
X28819500Y28977000D01*
X28824500Y28977000D01*
X28830500Y28978000D01*
X30154500Y28978000D01*
X30160500Y28977000D01*
G37*
X30170500Y28351000D02*
X30175500Y28350000D01*
X30180500Y28349000D01*
X30185500Y28348000D01*
X30190500Y28346000D01*
X30195500Y28344000D01*
X30200500Y28342000D01*
X30204500Y28339000D01*
X30209500Y28336000D01*
X30213500Y28333000D01*
X30217500Y28330000D01*
X30221500Y28327000D01*
X30225500Y28323000D01*
X30229500Y28319000D01*
X30232500Y28315000D01*
X30235500Y28311000D01*
X30238500Y28307000D01*
X30241500Y28303000D01*
X30244500Y28298000D01*
X30246500Y28293000D01*
X30248500Y28288000D01*
X30250500Y28283000D01*
X30251500Y28278000D01*
X30252500Y28273000D01*
X30253500Y28268000D01*
X30254500Y28263000D01*
X30254500Y28258000D01*
X30254500Y28253000D01*
X30255000Y28252500D01*
X30254500Y27977000D01*
X30254500Y27972000D01*
X30254500Y27967000D01*
X30253500Y27962000D01*
X30252500Y27957000D01*
X30251500Y27952000D01*
X30250500Y27947000D01*
X30248500Y27942000D01*
X30246500Y27937000D01*
X30244500Y27932000D01*
X30241500Y27927000D01*
X30238500Y27923000D01*
X30235500Y27919000D01*
X30232500Y27915000D01*
X30229500Y27911000D01*
X30225500Y27907000D01*
X30221500Y27903000D01*
X30217500Y27900000D01*
X30213500Y27897000D01*
X30209500Y27894000D01*
X30204500Y27891000D01*
X30200500Y27888000D01*
X30195500Y27886000D01*
X30190500Y27884000D01*
X30185500Y27882000D01*
X30180500Y27881000D01*
X30175500Y27880000D01*
X30170500Y27879000D01*
X30165500Y27878000D01*
X30160500Y27878000D01*
X30154500Y27878000D01*
X28830500Y27878000D01*
X28824500Y27878000D01*
X28819500Y27878000D01*
X28814500Y27879000D01*
X28809500Y27880000D01*
X28804500Y27881000D01*
X28799500Y27882000D01*
X28794500Y27884000D01*
X28789500Y27886000D01*
X28784500Y27888000D01*
X28780500Y27891000D01*
X28775500Y27894000D01*
X28771500Y27897000D01*
X28767500Y27900000D01*
X28763500Y27903000D01*
X28759500Y27907000D01*
X28755500Y27911000D01*
X28752500Y27915000D01*
X28749500Y27919000D01*
X28746500Y27923000D01*
X28743500Y27927000D01*
X28740500Y27932000D01*
X28738500Y27937000D01*
X28736500Y27942000D01*
X28734500Y27947000D01*
X28733500Y27952000D01*
X28732500Y27957000D01*
X28731500Y27962000D01*
X28730500Y27967000D01*
X28730500Y27972000D01*
X28730500Y27977000D01*
X28730500Y28253000D01*
X28730500Y28258000D01*
X28730500Y28263000D01*
X28731500Y28268000D01*
X28732500Y28273000D01*
X28733500Y28278000D01*
X28734500Y28283000D01*
X28736500Y28288000D01*
X28738500Y28293000D01*
X28740500Y28298000D01*
X28743500Y28303000D01*
X28746500Y28307000D01*
X28749500Y28311000D01*
X28752500Y28315000D01*
X28755500Y28319000D01*
X28759500Y28323000D01*
X28763500Y28327000D01*
X28767500Y28330000D01*
X28771500Y28333000D01*
X28775500Y28336000D01*
X28780500Y28339000D01*
X28784500Y28342000D01*
X28789500Y28344000D01*
X28794500Y28346000D01*
X28799500Y28348000D01*
X28804500Y28349000D01*
X28809500Y28350000D01*
X28814500Y28351000D01*
X28819500Y28352000D01*
X28824500Y28352000D01*
X28830500Y28352000D01*
X30154500Y28352000D01*
X30160500Y28352000D01*
X30165500Y28352000D01*
X30170500Y28351000D01*
G36*
X30170500Y28351000D02*
G01*
X30175500Y28350000D01*
X30180500Y28349000D01*
X30185500Y28348000D01*
X30190500Y28346000D01*
X30195500Y28344000D01*
X30200500Y28342000D01*
X30204500Y28339000D01*
X30209500Y28336000D01*
X30213500Y28333000D01*
X30217500Y28330000D01*
X30221500Y28327000D01*
X30225500Y28323000D01*
X30229500Y28319000D01*
X30232500Y28315000D01*
X30235500Y28311000D01*
X30238500Y28307000D01*
X30241500Y28303000D01*
X30244500Y28298000D01*
X30246500Y28293000D01*
X30248500Y28288000D01*
X30250500Y28283000D01*
X30251500Y28278000D01*
X30252500Y28273000D01*
X30253500Y28268000D01*
X30254500Y28263000D01*
X30254500Y28258000D01*
X30254500Y28253000D01*
X30255000Y28252500D01*
X30254500Y27977000D01*
X30254500Y27972000D01*
X30254500Y27967000D01*
X30253500Y27962000D01*
X30252500Y27957000D01*
X30251500Y27952000D01*
X30250500Y27947000D01*
X30248500Y27942000D01*
X30246500Y27937000D01*
X30244500Y27932000D01*
X30241500Y27927000D01*
X30238500Y27923000D01*
X30235500Y27919000D01*
X30232500Y27915000D01*
X30229500Y27911000D01*
X30225500Y27907000D01*
X30221500Y27903000D01*
X30217500Y27900000D01*
X30213500Y27897000D01*
X30209500Y27894000D01*
X30204500Y27891000D01*
X30200500Y27888000D01*
X30195500Y27886000D01*
X30190500Y27884000D01*
X30185500Y27882000D01*
X30180500Y27881000D01*
X30175500Y27880000D01*
X30170500Y27879000D01*
X30165500Y27878000D01*
X30160500Y27878000D01*
X30154500Y27878000D01*
X28830500Y27878000D01*
X28824500Y27878000D01*
X28819500Y27878000D01*
X28814500Y27879000D01*
X28809500Y27880000D01*
X28804500Y27881000D01*
X28799500Y27882000D01*
X28794500Y27884000D01*
X28789500Y27886000D01*
X28784500Y27888000D01*
X28780500Y27891000D01*
X28775500Y27894000D01*
X28771500Y27897000D01*
X28767500Y27900000D01*
X28763500Y27903000D01*
X28759500Y27907000D01*
X28755500Y27911000D01*
X28752500Y27915000D01*
X28749500Y27919000D01*
X28746500Y27923000D01*
X28743500Y27927000D01*
X28740500Y27932000D01*
X28738500Y27937000D01*
X28736500Y27942000D01*
X28734500Y27947000D01*
X28733500Y27952000D01*
X28732500Y27957000D01*
X28731500Y27962000D01*
X28730500Y27967000D01*
X28730500Y27972000D01*
X28730500Y27977000D01*
X28730500Y28253000D01*
X28730500Y28258000D01*
X28730500Y28263000D01*
X28731500Y28268000D01*
X28732500Y28273000D01*
X28733500Y28278000D01*
X28734500Y28283000D01*
X28736500Y28288000D01*
X28738500Y28293000D01*
X28740500Y28298000D01*
X28743500Y28303000D01*
X28746500Y28307000D01*
X28749500Y28311000D01*
X28752500Y28315000D01*
X28755500Y28319000D01*
X28759500Y28323000D01*
X28763500Y28327000D01*
X28767500Y28330000D01*
X28771500Y28333000D01*
X28775500Y28336000D01*
X28780500Y28339000D01*
X28784500Y28342000D01*
X28789500Y28344000D01*
X28794500Y28346000D01*
X28799500Y28348000D01*
X28804500Y28349000D01*
X28809500Y28350000D01*
X28814500Y28351000D01*
X28819500Y28352000D01*
X28824500Y28352000D01*
X28830500Y28352000D01*
X30154500Y28352000D01*
X30160500Y28352000D01*
X30165500Y28352000D01*
X30170500Y28351000D01*
G37*
X30170500Y27726000D02*
X30175500Y27725000D01*
X30180500Y27724000D01*
X30185500Y27723000D01*
X30190500Y27721000D01*
X30195500Y27719000D01*
X30200500Y27717000D01*
X30204500Y27714000D01*
X30209500Y27711000D01*
X30213500Y27708000D01*
X30217500Y27705000D01*
X30221500Y27702000D01*
X30225500Y27698000D01*
X30229500Y27694000D01*
X30232500Y27690000D01*
X30235500Y27686000D01*
X30238500Y27682000D01*
X30241500Y27677000D01*
X30244500Y27673000D01*
X30246500Y27668000D01*
X30248500Y27663000D01*
X30250500Y27658000D01*
X30251500Y27653000D01*
X30252500Y27648000D01*
X30253500Y27643000D01*
X30254500Y27638000D01*
X30254500Y27633000D01*
X30254500Y27628000D01*
X30255000Y27627500D01*
X30254500Y27353000D01*
X30254500Y27347000D01*
X30254500Y27342000D01*
X30253500Y27337000D01*
X30252500Y27332000D01*
X30251500Y27327000D01*
X30250500Y27322000D01*
X30248500Y27317000D01*
X30246500Y27312000D01*
X30244500Y27307000D01*
X30241500Y27302000D01*
X30238500Y27298000D01*
X30235500Y27294000D01*
X30232500Y27290000D01*
X30229500Y27286000D01*
X30225500Y27282000D01*
X30221500Y27278000D01*
X30217500Y27275000D01*
X30213500Y27272000D01*
X30209500Y27269000D01*
X30204500Y27266000D01*
X30200500Y27263000D01*
X30195500Y27261000D01*
X30190500Y27259000D01*
X30185500Y27257000D01*
X30180500Y27256000D01*
X30175500Y27255000D01*
X30170500Y27254000D01*
X30165500Y27253000D01*
X30160500Y27253000D01*
X30154500Y27252000D01*
X28830500Y27252000D01*
X28824500Y27253000D01*
X28819500Y27253000D01*
X28814500Y27254000D01*
X28809500Y27255000D01*
X28804500Y27256000D01*
X28799500Y27257000D01*
X28794500Y27259000D01*
X28789500Y27261000D01*
X28784500Y27263000D01*
X28780500Y27266000D01*
X28775500Y27269000D01*
X28771500Y27272000D01*
X28767500Y27275000D01*
X28763500Y27278000D01*
X28759500Y27282000D01*
X28755500Y27286000D01*
X28752500Y27290000D01*
X28749500Y27294000D01*
X28746500Y27298000D01*
X28743500Y27302000D01*
X28740500Y27307000D01*
X28738500Y27312000D01*
X28736500Y27317000D01*
X28734500Y27322000D01*
X28733500Y27327000D01*
X28732500Y27332000D01*
X28731500Y27337000D01*
X28730500Y27342000D01*
X28730500Y27347000D01*
X28730500Y27353000D01*
X28730500Y27628000D01*
X28730500Y27633000D01*
X28730500Y27638000D01*
X28731500Y27643000D01*
X28732500Y27648000D01*
X28733500Y27653000D01*
X28734500Y27658000D01*
X28736500Y27663000D01*
X28738500Y27668000D01*
X28740500Y27673000D01*
X28743500Y27677000D01*
X28746500Y27682000D01*
X28749500Y27686000D01*
X28752500Y27690000D01*
X28755500Y27694000D01*
X28759500Y27698000D01*
X28763500Y27702000D01*
X28767500Y27705000D01*
X28771500Y27708000D01*
X28775500Y27711000D01*
X28780500Y27714000D01*
X28784500Y27717000D01*
X28789500Y27719000D01*
X28794500Y27721000D01*
X28799500Y27723000D01*
X28804500Y27724000D01*
X28809500Y27725000D01*
X28814500Y27726000D01*
X28819500Y27727000D01*
X28824500Y27727000D01*
X28830500Y27727000D01*
X30154500Y27727000D01*
X30160500Y27727000D01*
X30165500Y27727000D01*
X30170500Y27726000D01*
G36*
X30170500Y27726000D02*
G01*
X30175500Y27725000D01*
X30180500Y27724000D01*
X30185500Y27723000D01*
X30190500Y27721000D01*
X30195500Y27719000D01*
X30200500Y27717000D01*
X30204500Y27714000D01*
X30209500Y27711000D01*
X30213500Y27708000D01*
X30217500Y27705000D01*
X30221500Y27702000D01*
X30225500Y27698000D01*
X30229500Y27694000D01*
X30232500Y27690000D01*
X30235500Y27686000D01*
X30238500Y27682000D01*
X30241500Y27677000D01*
X30244500Y27673000D01*
X30246500Y27668000D01*
X30248500Y27663000D01*
X30250500Y27658000D01*
X30251500Y27653000D01*
X30252500Y27648000D01*
X30253500Y27643000D01*
X30254500Y27638000D01*
X30254500Y27633000D01*
X30254500Y27628000D01*
X30255000Y27627500D01*
X30254500Y27353000D01*
X30254500Y27347000D01*
X30254500Y27342000D01*
X30253500Y27337000D01*
X30252500Y27332000D01*
X30251500Y27327000D01*
X30250500Y27322000D01*
X30248500Y27317000D01*
X30246500Y27312000D01*
X30244500Y27307000D01*
X30241500Y27302000D01*
X30238500Y27298000D01*
X30235500Y27294000D01*
X30232500Y27290000D01*
X30229500Y27286000D01*
X30225500Y27282000D01*
X30221500Y27278000D01*
X30217500Y27275000D01*
X30213500Y27272000D01*
X30209500Y27269000D01*
X30204500Y27266000D01*
X30200500Y27263000D01*
X30195500Y27261000D01*
X30190500Y27259000D01*
X30185500Y27257000D01*
X30180500Y27256000D01*
X30175500Y27255000D01*
X30170500Y27254000D01*
X30165500Y27253000D01*
X30160500Y27253000D01*
X30154500Y27252000D01*
X28830500Y27252000D01*
X28824500Y27253000D01*
X28819500Y27253000D01*
X28814500Y27254000D01*
X28809500Y27255000D01*
X28804500Y27256000D01*
X28799500Y27257000D01*
X28794500Y27259000D01*
X28789500Y27261000D01*
X28784500Y27263000D01*
X28780500Y27266000D01*
X28775500Y27269000D01*
X28771500Y27272000D01*
X28767500Y27275000D01*
X28763500Y27278000D01*
X28759500Y27282000D01*
X28755500Y27286000D01*
X28752500Y27290000D01*
X28749500Y27294000D01*
X28746500Y27298000D01*
X28743500Y27302000D01*
X28740500Y27307000D01*
X28738500Y27312000D01*
X28736500Y27317000D01*
X28734500Y27322000D01*
X28733500Y27327000D01*
X28732500Y27332000D01*
X28731500Y27337000D01*
X28730500Y27342000D01*
X28730500Y27347000D01*
X28730500Y27353000D01*
X28730500Y27628000D01*
X28730500Y27633000D01*
X28730500Y27638000D01*
X28731500Y27643000D01*
X28732500Y27648000D01*
X28733500Y27653000D01*
X28734500Y27658000D01*
X28736500Y27663000D01*
X28738500Y27668000D01*
X28740500Y27673000D01*
X28743500Y27677000D01*
X28746500Y27682000D01*
X28749500Y27686000D01*
X28752500Y27690000D01*
X28755500Y27694000D01*
X28759500Y27698000D01*
X28763500Y27702000D01*
X28767500Y27705000D01*
X28771500Y27708000D01*
X28775500Y27711000D01*
X28780500Y27714000D01*
X28784500Y27717000D01*
X28789500Y27719000D01*
X28794500Y27721000D01*
X28799500Y27723000D01*
X28804500Y27724000D01*
X28809500Y27725000D01*
X28814500Y27726000D01*
X28819500Y27727000D01*
X28824500Y27727000D01*
X28830500Y27727000D01*
X30154500Y27727000D01*
X30160500Y27727000D01*
X30165500Y27727000D01*
X30170500Y27726000D01*
G37*
X28077500Y30364000D02*
X28083500Y30364000D01*
X28088500Y30363000D01*
X28093500Y30362000D01*
X28098500Y30360000D01*
X28103500Y30358000D01*
X28108500Y30356000D01*
X28112500Y30354000D01*
X28117500Y30352000D01*
X28121500Y30349000D01*
X28126500Y30346000D01*
X28130500Y30343000D01*
X28134500Y30339000D01*
X28138500Y30336000D01*
X28141500Y30332000D01*
X28145500Y30328000D01*
X28148500Y30324000D01*
X28151500Y30319000D01*
X28154500Y30315000D01*
X28156500Y30310000D01*
X28158500Y30306000D01*
X28160500Y30301000D01*
X28162500Y30296000D01*
X28164500Y30291000D01*
X28165500Y30286000D01*
X28166500Y30281000D01*
X28166500Y30275000D01*
X28167500Y30270000D01*
X28167500Y30265000D01*
X28167500Y29665000D01*
X28167500Y29660000D01*
X28166500Y29655000D01*
X28166500Y29649000D01*
X28165500Y29644000D01*
X28164500Y29639000D01*
X28162500Y29634000D01*
X28160500Y29629000D01*
X28158500Y29624000D01*
X28156500Y29620000D01*
X28154500Y29615000D01*
X28151500Y29611000D01*
X28148500Y29606000D01*
X28145500Y29602000D01*
X28141500Y29598000D01*
X28138500Y29594000D01*
X28134500Y29591000D01*
X28130500Y29587000D01*
X28126500Y29584000D01*
X28121500Y29581000D01*
X28117500Y29578000D01*
X28112500Y29576000D01*
X28108500Y29574000D01*
X28103500Y29572000D01*
X28098500Y29570000D01*
X28093500Y29568000D01*
X28088500Y29567000D01*
X28083500Y29566000D01*
X28077500Y29566000D01*
X28072500Y29565000D01*
X28067500Y29565000D01*
X27592500Y29565000D01*
X27587500Y29565000D01*
X27582500Y29566000D01*
X27576500Y29566000D01*
X27571500Y29567000D01*
X27566500Y29568000D01*
X27561500Y29570000D01*
X27556500Y29572000D01*
X27551500Y29574000D01*
X27547500Y29576000D01*
X27542500Y29578000D01*
X27538500Y29581000D01*
X27533500Y29584000D01*
X27529500Y29587000D01*
X27525500Y29591000D01*
X27521500Y29594000D01*
X27518500Y29598000D01*
X27514500Y29602000D01*
X27511500Y29606000D01*
X27508500Y29611000D01*
X27505500Y29615000D01*
X27503500Y29620000D01*
X27501500Y29624000D01*
X27499500Y29629000D01*
X27497500Y29634000D01*
X27495500Y29639000D01*
X27494500Y29644000D01*
X27493500Y29649000D01*
X27493500Y29655000D01*
X27492500Y29660000D01*
X27492500Y29665000D01*
X27492500Y29915000D01*
X27492500Y29920000D01*
X27493500Y29925000D01*
X27493500Y29931000D01*
X27494500Y29936000D01*
X27495500Y29941000D01*
X27497500Y29946000D01*
X27499500Y29951000D01*
X27501500Y29956000D01*
X27503500Y29960000D01*
X27505500Y29965000D01*
X27508500Y29969000D01*
X27511500Y29974000D01*
X27514500Y29978000D01*
X27518500Y29982000D01*
X27521500Y29986000D01*
X27525500Y29989000D01*
X27529500Y29993000D01*
X27533500Y29996000D01*
X27538500Y29999000D01*
X27542500Y30002000D01*
X27547500Y30004000D01*
X27551500Y30006000D01*
X27556500Y30008000D01*
X27561500Y30010000D01*
X27566500Y30012000D01*
X27571500Y30013000D01*
X27576500Y30014000D01*
X27582500Y30014000D01*
X27587500Y30015000D01*
X27592500Y30015000D01*
X27842500Y30015000D01*
X27842500Y30265000D01*
X27842500Y30270000D01*
X27843500Y30275000D01*
X27843500Y30281000D01*
X27844500Y30286000D01*
X27845500Y30291000D01*
X27847500Y30296000D01*
X27849500Y30301000D01*
X27851500Y30306000D01*
X27853500Y30310000D01*
X27855500Y30315000D01*
X27858500Y30319000D01*
X27861500Y30324000D01*
X27864500Y30328000D01*
X27868500Y30332000D01*
X27871500Y30336000D01*
X27875500Y30339000D01*
X27879500Y30343000D01*
X27883500Y30346000D01*
X27888500Y30349000D01*
X27892500Y30352000D01*
X27897500Y30354000D01*
X27901500Y30356000D01*
X27906500Y30358000D01*
X27911500Y30360000D01*
X27916500Y30362000D01*
X27921500Y30363000D01*
X27926500Y30364000D01*
X27932500Y30364000D01*
X27937500Y30365000D01*
X27942500Y30365000D01*
X28067500Y30365000D01*
X28072500Y30365000D01*
X28077500Y30364000D01*
G36*
X28077500Y30364000D02*
G01*
X28083500Y30364000D01*
X28088500Y30363000D01*
X28093500Y30362000D01*
X28098500Y30360000D01*
X28103500Y30358000D01*
X28108500Y30356000D01*
X28112500Y30354000D01*
X28117500Y30352000D01*
X28121500Y30349000D01*
X28126500Y30346000D01*
X28130500Y30343000D01*
X28134500Y30339000D01*
X28138500Y30336000D01*
X28141500Y30332000D01*
X28145500Y30328000D01*
X28148500Y30324000D01*
X28151500Y30319000D01*
X28154500Y30315000D01*
X28156500Y30310000D01*
X28158500Y30306000D01*
X28160500Y30301000D01*
X28162500Y30296000D01*
X28164500Y30291000D01*
X28165500Y30286000D01*
X28166500Y30281000D01*
X28166500Y30275000D01*
X28167500Y30270000D01*
X28167500Y30265000D01*
X28167500Y29665000D01*
X28167500Y29660000D01*
X28166500Y29655000D01*
X28166500Y29649000D01*
X28165500Y29644000D01*
X28164500Y29639000D01*
X28162500Y29634000D01*
X28160500Y29629000D01*
X28158500Y29624000D01*
X28156500Y29620000D01*
X28154500Y29615000D01*
X28151500Y29611000D01*
X28148500Y29606000D01*
X28145500Y29602000D01*
X28141500Y29598000D01*
X28138500Y29594000D01*
X28134500Y29591000D01*
X28130500Y29587000D01*
X28126500Y29584000D01*
X28121500Y29581000D01*
X28117500Y29578000D01*
X28112500Y29576000D01*
X28108500Y29574000D01*
X28103500Y29572000D01*
X28098500Y29570000D01*
X28093500Y29568000D01*
X28088500Y29567000D01*
X28083500Y29566000D01*
X28077500Y29566000D01*
X28072500Y29565000D01*
X28067500Y29565000D01*
X27592500Y29565000D01*
X27587500Y29565000D01*
X27582500Y29566000D01*
X27576500Y29566000D01*
X27571500Y29567000D01*
X27566500Y29568000D01*
X27561500Y29570000D01*
X27556500Y29572000D01*
X27551500Y29574000D01*
X27547500Y29576000D01*
X27542500Y29578000D01*
X27538500Y29581000D01*
X27533500Y29584000D01*
X27529500Y29587000D01*
X27525500Y29591000D01*
X27521500Y29594000D01*
X27518500Y29598000D01*
X27514500Y29602000D01*
X27511500Y29606000D01*
X27508500Y29611000D01*
X27505500Y29615000D01*
X27503500Y29620000D01*
X27501500Y29624000D01*
X27499500Y29629000D01*
X27497500Y29634000D01*
X27495500Y29639000D01*
X27494500Y29644000D01*
X27493500Y29649000D01*
X27493500Y29655000D01*
X27492500Y29660000D01*
X27492500Y29665000D01*
X27492500Y29915000D01*
X27492500Y29920000D01*
X27493500Y29925000D01*
X27493500Y29931000D01*
X27494500Y29936000D01*
X27495500Y29941000D01*
X27497500Y29946000D01*
X27499500Y29951000D01*
X27501500Y29956000D01*
X27503500Y29960000D01*
X27505500Y29965000D01*
X27508500Y29969000D01*
X27511500Y29974000D01*
X27514500Y29978000D01*
X27518500Y29982000D01*
X27521500Y29986000D01*
X27525500Y29989000D01*
X27529500Y29993000D01*
X27533500Y29996000D01*
X27538500Y29999000D01*
X27542500Y30002000D01*
X27547500Y30004000D01*
X27551500Y30006000D01*
X27556500Y30008000D01*
X27561500Y30010000D01*
X27566500Y30012000D01*
X27571500Y30013000D01*
X27576500Y30014000D01*
X27582500Y30014000D01*
X27587500Y30015000D01*
X27592500Y30015000D01*
X27842500Y30015000D01*
X27842500Y30265000D01*
X27842500Y30270000D01*
X27843500Y30275000D01*
X27843500Y30281000D01*
X27844500Y30286000D01*
X27845500Y30291000D01*
X27847500Y30296000D01*
X27849500Y30301000D01*
X27851500Y30306000D01*
X27853500Y30310000D01*
X27855500Y30315000D01*
X27858500Y30319000D01*
X27861500Y30324000D01*
X27864500Y30328000D01*
X27868500Y30332000D01*
X27871500Y30336000D01*
X27875500Y30339000D01*
X27879500Y30343000D01*
X27883500Y30346000D01*
X27888500Y30349000D01*
X27892500Y30352000D01*
X27897500Y30354000D01*
X27901500Y30356000D01*
X27906500Y30358000D01*
X27911500Y30360000D01*
X27916500Y30362000D01*
X27921500Y30363000D01*
X27926500Y30364000D01*
X27932500Y30364000D01*
X27937500Y30365000D01*
X27942500Y30365000D01*
X28067500Y30365000D01*
X28072500Y30365000D01*
X28077500Y30364000D01*
G37*
X28077500Y26664000D02*
X28083500Y26664000D01*
X28088500Y26663000D01*
X28093500Y26662000D01*
X28098500Y26660000D01*
X28103500Y26658000D01*
X28108500Y26656000D01*
X28112500Y26654000D01*
X28117500Y26652000D01*
X28121500Y26649000D01*
X28126500Y26646000D01*
X28130500Y26643000D01*
X28134500Y26639000D01*
X28138500Y26636000D01*
X28141500Y26632000D01*
X28145500Y26628000D01*
X28148500Y26624000D01*
X28151500Y26619000D01*
X28154500Y26615000D01*
X28156500Y26610000D01*
X28158500Y26606000D01*
X28160500Y26601000D01*
X28162500Y26596000D01*
X28164500Y26591000D01*
X28165500Y26586000D01*
X28166500Y26581000D01*
X28166500Y26575000D01*
X28167500Y26570000D01*
X28167500Y26565000D01*
X28167500Y25965000D01*
X28167500Y25960000D01*
X28166500Y25955000D01*
X28166500Y25949000D01*
X28165500Y25944000D01*
X28164500Y25939000D01*
X28162500Y25934000D01*
X28160500Y25929000D01*
X28158500Y25924000D01*
X28156500Y25920000D01*
X28154500Y25915000D01*
X28151500Y25911000D01*
X28148500Y25906000D01*
X28145500Y25902000D01*
X28141500Y25898000D01*
X28138500Y25894000D01*
X28134500Y25891000D01*
X28130500Y25887000D01*
X28126500Y25884000D01*
X28121500Y25881000D01*
X28117500Y25878000D01*
X28112500Y25876000D01*
X28108500Y25874000D01*
X28103500Y25872000D01*
X28098500Y25870000D01*
X28093500Y25868000D01*
X28088500Y25867000D01*
X28083500Y25866000D01*
X28077500Y25866000D01*
X28072500Y25865000D01*
X28067500Y25865000D01*
X27942500Y25865000D01*
X27937500Y25865000D01*
X27932500Y25866000D01*
X27926500Y25866000D01*
X27921500Y25867000D01*
X27916500Y25868000D01*
X27911500Y25870000D01*
X27906500Y25872000D01*
X27901500Y25874000D01*
X27897500Y25876000D01*
X27892500Y25878000D01*
X27888500Y25881000D01*
X27883500Y25884000D01*
X27879500Y25887000D01*
X27875500Y25891000D01*
X27871500Y25894000D01*
X27868500Y25898000D01*
X27864500Y25902000D01*
X27861500Y25906000D01*
X27858500Y25911000D01*
X27855500Y25915000D01*
X27853500Y25920000D01*
X27851500Y25924000D01*
X27849500Y25929000D01*
X27847500Y25934000D01*
X27845500Y25939000D01*
X27844500Y25944000D01*
X27843500Y25949000D01*
X27843500Y25955000D01*
X27842500Y25960000D01*
X27842500Y25965000D01*
X27842500Y26215000D01*
X27592500Y26215000D01*
X27587500Y26215000D01*
X27582500Y26216000D01*
X27576500Y26216000D01*
X27571500Y26217000D01*
X27566500Y26218000D01*
X27561500Y26220000D01*
X27556500Y26222000D01*
X27551500Y26224000D01*
X27547500Y26226000D01*
X27542500Y26228000D01*
X27538500Y26231000D01*
X27533500Y26234000D01*
X27529500Y26237000D01*
X27525500Y26241000D01*
X27521500Y26244000D01*
X27518500Y26248000D01*
X27514500Y26252000D01*
X27511500Y26256000D01*
X27508500Y26261000D01*
X27505500Y26265000D01*
X27503500Y26270000D01*
X27501500Y26274000D01*
X27499500Y26279000D01*
X27497500Y26284000D01*
X27495500Y26289000D01*
X27494500Y26294000D01*
X27493500Y26299000D01*
X27493500Y26305000D01*
X27492500Y26310000D01*
X27492500Y26315000D01*
X27492500Y26565000D01*
X27492500Y26570000D01*
X27493500Y26575000D01*
X27493500Y26581000D01*
X27494500Y26586000D01*
X27495500Y26591000D01*
X27497500Y26596000D01*
X27499500Y26601000D01*
X27501500Y26606000D01*
X27503500Y26610000D01*
X27505500Y26615000D01*
X27508500Y26619000D01*
X27511500Y26624000D01*
X27514500Y26628000D01*
X27518500Y26632000D01*
X27521500Y26636000D01*
X27525500Y26639000D01*
X27529500Y26643000D01*
X27533500Y26646000D01*
X27538500Y26649000D01*
X27542500Y26652000D01*
X27547500Y26654000D01*
X27551500Y26656000D01*
X27556500Y26658000D01*
X27561500Y26660000D01*
X27566500Y26662000D01*
X27571500Y26663000D01*
X27576500Y26664000D01*
X27582500Y26664000D01*
X27587500Y26665000D01*
X27592500Y26665000D01*
X28067500Y26665000D01*
X28072500Y26665000D01*
X28077500Y26664000D01*
G36*
X28077500Y26664000D02*
G01*
X28083500Y26664000D01*
X28088500Y26663000D01*
X28093500Y26662000D01*
X28098500Y26660000D01*
X28103500Y26658000D01*
X28108500Y26656000D01*
X28112500Y26654000D01*
X28117500Y26652000D01*
X28121500Y26649000D01*
X28126500Y26646000D01*
X28130500Y26643000D01*
X28134500Y26639000D01*
X28138500Y26636000D01*
X28141500Y26632000D01*
X28145500Y26628000D01*
X28148500Y26624000D01*
X28151500Y26619000D01*
X28154500Y26615000D01*
X28156500Y26610000D01*
X28158500Y26606000D01*
X28160500Y26601000D01*
X28162500Y26596000D01*
X28164500Y26591000D01*
X28165500Y26586000D01*
X28166500Y26581000D01*
X28166500Y26575000D01*
X28167500Y26570000D01*
X28167500Y26565000D01*
X28167500Y25965000D01*
X28167500Y25960000D01*
X28166500Y25955000D01*
X28166500Y25949000D01*
X28165500Y25944000D01*
X28164500Y25939000D01*
X28162500Y25934000D01*
X28160500Y25929000D01*
X28158500Y25924000D01*
X28156500Y25920000D01*
X28154500Y25915000D01*
X28151500Y25911000D01*
X28148500Y25906000D01*
X28145500Y25902000D01*
X28141500Y25898000D01*
X28138500Y25894000D01*
X28134500Y25891000D01*
X28130500Y25887000D01*
X28126500Y25884000D01*
X28121500Y25881000D01*
X28117500Y25878000D01*
X28112500Y25876000D01*
X28108500Y25874000D01*
X28103500Y25872000D01*
X28098500Y25870000D01*
X28093500Y25868000D01*
X28088500Y25867000D01*
X28083500Y25866000D01*
X28077500Y25866000D01*
X28072500Y25865000D01*
X28067500Y25865000D01*
X27942500Y25865000D01*
X27937500Y25865000D01*
X27932500Y25866000D01*
X27926500Y25866000D01*
X27921500Y25867000D01*
X27916500Y25868000D01*
X27911500Y25870000D01*
X27906500Y25872000D01*
X27901500Y25874000D01*
X27897500Y25876000D01*
X27892500Y25878000D01*
X27888500Y25881000D01*
X27883500Y25884000D01*
X27879500Y25887000D01*
X27875500Y25891000D01*
X27871500Y25894000D01*
X27868500Y25898000D01*
X27864500Y25902000D01*
X27861500Y25906000D01*
X27858500Y25911000D01*
X27855500Y25915000D01*
X27853500Y25920000D01*
X27851500Y25924000D01*
X27849500Y25929000D01*
X27847500Y25934000D01*
X27845500Y25939000D01*
X27844500Y25944000D01*
X27843500Y25949000D01*
X27843500Y25955000D01*
X27842500Y25960000D01*
X27842500Y25965000D01*
X27842500Y26215000D01*
X27592500Y26215000D01*
X27587500Y26215000D01*
X27582500Y26216000D01*
X27576500Y26216000D01*
X27571500Y26217000D01*
X27566500Y26218000D01*
X27561500Y26220000D01*
X27556500Y26222000D01*
X27551500Y26224000D01*
X27547500Y26226000D01*
X27542500Y26228000D01*
X27538500Y26231000D01*
X27533500Y26234000D01*
X27529500Y26237000D01*
X27525500Y26241000D01*
X27521500Y26244000D01*
X27518500Y26248000D01*
X27514500Y26252000D01*
X27511500Y26256000D01*
X27508500Y26261000D01*
X27505500Y26265000D01*
X27503500Y26270000D01*
X27501500Y26274000D01*
X27499500Y26279000D01*
X27497500Y26284000D01*
X27495500Y26289000D01*
X27494500Y26294000D01*
X27493500Y26299000D01*
X27493500Y26305000D01*
X27492500Y26310000D01*
X27492500Y26315000D01*
X27492500Y26565000D01*
X27492500Y26570000D01*
X27493500Y26575000D01*
X27493500Y26581000D01*
X27494500Y26586000D01*
X27495500Y26591000D01*
X27497500Y26596000D01*
X27499500Y26601000D01*
X27501500Y26606000D01*
X27503500Y26610000D01*
X27505500Y26615000D01*
X27508500Y26619000D01*
X27511500Y26624000D01*
X27514500Y26628000D01*
X27518500Y26632000D01*
X27521500Y26636000D01*
X27525500Y26639000D01*
X27529500Y26643000D01*
X27533500Y26646000D01*
X27538500Y26649000D01*
X27542500Y26652000D01*
X27547500Y26654000D01*
X27551500Y26656000D01*
X27556500Y26658000D01*
X27561500Y26660000D01*
X27566500Y26662000D01*
X27571500Y26663000D01*
X27576500Y26664000D01*
X27582500Y26664000D01*
X27587500Y26665000D01*
X27592500Y26665000D01*
X28067500Y26665000D01*
X28072500Y26665000D01*
X28077500Y26664000D01*
G37*
X31052500Y30364000D02*
X31058500Y30364000D01*
X31063500Y30363000D01*
X31068500Y30362000D01*
X31073500Y30360000D01*
X31078500Y30358000D01*
X31083500Y30356000D01*
X31087500Y30354000D01*
X31092500Y30352000D01*
X31096500Y30349000D01*
X31101500Y30346000D01*
X31105500Y30343000D01*
X31109500Y30339000D01*
X31113500Y30336000D01*
X31116500Y30332000D01*
X31120500Y30328000D01*
X31123500Y30324000D01*
X31126500Y30319000D01*
X31129500Y30315000D01*
X31131500Y30310000D01*
X31133500Y30306000D01*
X31135500Y30301000D01*
X31137500Y30296000D01*
X31139500Y30291000D01*
X31140500Y30286000D01*
X31141500Y30281000D01*
X31141500Y30275000D01*
X31142500Y30270000D01*
X31142500Y30265000D01*
X31142500Y29990000D01*
X31392500Y29990000D01*
X31398500Y29989000D01*
X31404500Y29987000D01*
X31411500Y29985000D01*
X31417500Y29982000D01*
X31423500Y29980000D01*
X31429500Y29976000D01*
X31435500Y29973000D01*
X31440500Y29969000D01*
X31445500Y29965000D01*
X31451500Y29961000D01*
X31456500Y29957000D01*
X31460500Y29952000D01*
X31465500Y29947000D01*
X31469500Y29942000D01*
X31473500Y29936000D01*
X31476500Y29931000D01*
X31480500Y29925000D01*
X31483500Y29919000D01*
X31485500Y29913000D01*
X31488500Y29907000D01*
X31490500Y29900000D01*
X31491500Y29894000D01*
X31493500Y29887000D01*
X31494500Y29881000D01*
X31494500Y29874000D01*
X31494500Y29867000D01*
X31494500Y29861000D01*
X31494500Y29854000D01*
X31493500Y29847000D01*
X31492500Y29840000D01*
X31492500Y29590000D01*
X31492500Y29585000D01*
X31491500Y29580000D01*
X31491500Y29574000D01*
X31490500Y29569000D01*
X31489500Y29564000D01*
X31487500Y29559000D01*
X31485500Y29554000D01*
X31483500Y29549000D01*
X31481500Y29545000D01*
X31479500Y29540000D01*
X31476500Y29536000D01*
X31473500Y29531000D01*
X31470500Y29527000D01*
X31466500Y29523000D01*
X31463500Y29519000D01*
X31459500Y29516000D01*
X31455500Y29512000D01*
X31451500Y29509000D01*
X31446500Y29506000D01*
X31442500Y29503000D01*
X31437500Y29501000D01*
X31433500Y29499000D01*
X31428500Y29497000D01*
X31423500Y29495000D01*
X31418500Y29493000D01*
X31413500Y29492000D01*
X31408500Y29491000D01*
X31402500Y29491000D01*
X31397500Y29490000D01*
X31392500Y29490000D01*
X30917500Y29490000D01*
X30912500Y29490000D01*
X30907500Y29491000D01*
X30901500Y29491000D01*
X30896500Y29492000D01*
X30891500Y29493000D01*
X30886500Y29495000D01*
X30881500Y29497000D01*
X30876500Y29499000D01*
X30872500Y29501000D01*
X30867500Y29503000D01*
X30863500Y29506000D01*
X30858500Y29509000D01*
X30854500Y29512000D01*
X30850500Y29516000D01*
X30846500Y29519000D01*
X30843500Y29523000D01*
X30839500Y29527000D01*
X30836500Y29531000D01*
X30833500Y29536000D01*
X30830500Y29540000D01*
X30828500Y29545000D01*
X30826500Y29549000D01*
X30824500Y29554000D01*
X30822500Y29559000D01*
X30820500Y29564000D01*
X30819500Y29569000D01*
X30818500Y29574000D01*
X30818500Y29580000D01*
X30817500Y29585000D01*
X30817500Y29590000D01*
X30817500Y30265000D01*
X30817500Y30270000D01*
X30818500Y30275000D01*
X30818500Y30281000D01*
X30819500Y30286000D01*
X30820500Y30291000D01*
X30822500Y30296000D01*
X30824500Y30301000D01*
X30826500Y30306000D01*
X30828500Y30310000D01*
X30830500Y30315000D01*
X30833500Y30319000D01*
X30836500Y30324000D01*
X30839500Y30328000D01*
X30843500Y30332000D01*
X30846500Y30336000D01*
X30850500Y30339000D01*
X30854500Y30343000D01*
X30858500Y30346000D01*
X30863500Y30349000D01*
X30867500Y30352000D01*
X30872500Y30354000D01*
X30876500Y30356000D01*
X30881500Y30358000D01*
X30886500Y30360000D01*
X30891500Y30362000D01*
X30896500Y30363000D01*
X30901500Y30364000D01*
X30907500Y30364000D01*
X30912500Y30365000D01*
X30917500Y30365000D01*
X31042500Y30365000D01*
X31047500Y30365000D01*
X31052500Y30364000D01*
G36*
X31052500Y30364000D02*
G01*
X31058500Y30364000D01*
X31063500Y30363000D01*
X31068500Y30362000D01*
X31073500Y30360000D01*
X31078500Y30358000D01*
X31083500Y30356000D01*
X31087500Y30354000D01*
X31092500Y30352000D01*
X31096500Y30349000D01*
X31101500Y30346000D01*
X31105500Y30343000D01*
X31109500Y30339000D01*
X31113500Y30336000D01*
X31116500Y30332000D01*
X31120500Y30328000D01*
X31123500Y30324000D01*
X31126500Y30319000D01*
X31129500Y30315000D01*
X31131500Y30310000D01*
X31133500Y30306000D01*
X31135500Y30301000D01*
X31137500Y30296000D01*
X31139500Y30291000D01*
X31140500Y30286000D01*
X31141500Y30281000D01*
X31141500Y30275000D01*
X31142500Y30270000D01*
X31142500Y30265000D01*
X31142500Y29990000D01*
X31392500Y29990000D01*
X31398500Y29989000D01*
X31404500Y29987000D01*
X31411500Y29985000D01*
X31417500Y29982000D01*
X31423500Y29980000D01*
X31429500Y29976000D01*
X31435500Y29973000D01*
X31440500Y29969000D01*
X31445500Y29965000D01*
X31451500Y29961000D01*
X31456500Y29957000D01*
X31460500Y29952000D01*
X31465500Y29947000D01*
X31469500Y29942000D01*
X31473500Y29936000D01*
X31476500Y29931000D01*
X31480500Y29925000D01*
X31483500Y29919000D01*
X31485500Y29913000D01*
X31488500Y29907000D01*
X31490500Y29900000D01*
X31491500Y29894000D01*
X31493500Y29887000D01*
X31494500Y29881000D01*
X31494500Y29874000D01*
X31494500Y29867000D01*
X31494500Y29861000D01*
X31494500Y29854000D01*
X31493500Y29847000D01*
X31492500Y29840000D01*
X31492500Y29590000D01*
X31492500Y29585000D01*
X31491500Y29580000D01*
X31491500Y29574000D01*
X31490500Y29569000D01*
X31489500Y29564000D01*
X31487500Y29559000D01*
X31485500Y29554000D01*
X31483500Y29549000D01*
X31481500Y29545000D01*
X31479500Y29540000D01*
X31476500Y29536000D01*
X31473500Y29531000D01*
X31470500Y29527000D01*
X31466500Y29523000D01*
X31463500Y29519000D01*
X31459500Y29516000D01*
X31455500Y29512000D01*
X31451500Y29509000D01*
X31446500Y29506000D01*
X31442500Y29503000D01*
X31437500Y29501000D01*
X31433500Y29499000D01*
X31428500Y29497000D01*
X31423500Y29495000D01*
X31418500Y29493000D01*
X31413500Y29492000D01*
X31408500Y29491000D01*
X31402500Y29491000D01*
X31397500Y29490000D01*
X31392500Y29490000D01*
X30917500Y29490000D01*
X30912500Y29490000D01*
X30907500Y29491000D01*
X30901500Y29491000D01*
X30896500Y29492000D01*
X30891500Y29493000D01*
X30886500Y29495000D01*
X30881500Y29497000D01*
X30876500Y29499000D01*
X30872500Y29501000D01*
X30867500Y29503000D01*
X30863500Y29506000D01*
X30858500Y29509000D01*
X30854500Y29512000D01*
X30850500Y29516000D01*
X30846500Y29519000D01*
X30843500Y29523000D01*
X30839500Y29527000D01*
X30836500Y29531000D01*
X30833500Y29536000D01*
X30830500Y29540000D01*
X30828500Y29545000D01*
X30826500Y29549000D01*
X30824500Y29554000D01*
X30822500Y29559000D01*
X30820500Y29564000D01*
X30819500Y29569000D01*
X30818500Y29574000D01*
X30818500Y29580000D01*
X30817500Y29585000D01*
X30817500Y29590000D01*
X30817500Y30265000D01*
X30817500Y30270000D01*
X30818500Y30275000D01*
X30818500Y30281000D01*
X30819500Y30286000D01*
X30820500Y30291000D01*
X30822500Y30296000D01*
X30824500Y30301000D01*
X30826500Y30306000D01*
X30828500Y30310000D01*
X30830500Y30315000D01*
X30833500Y30319000D01*
X30836500Y30324000D01*
X30839500Y30328000D01*
X30843500Y30332000D01*
X30846500Y30336000D01*
X30850500Y30339000D01*
X30854500Y30343000D01*
X30858500Y30346000D01*
X30863500Y30349000D01*
X30867500Y30352000D01*
X30872500Y30354000D01*
X30876500Y30356000D01*
X30881500Y30358000D01*
X30886500Y30360000D01*
X30891500Y30362000D01*
X30896500Y30363000D01*
X30901500Y30364000D01*
X30907500Y30364000D01*
X30912500Y30365000D01*
X30917500Y30365000D01*
X31042500Y30365000D01*
X31047500Y30365000D01*
X31052500Y30364000D01*
G37*
X31402500Y26739000D02*
X31408500Y26739000D01*
X31413500Y26738000D01*
X31418500Y26737000D01*
X31423500Y26735000D01*
X31428500Y26733000D01*
X31433500Y26731000D01*
X31437500Y26729000D01*
X31442500Y26727000D01*
X31446500Y26724000D01*
X31451500Y26721000D01*
X31455500Y26718000D01*
X31459500Y26714000D01*
X31463500Y26711000D01*
X31466500Y26707000D01*
X31470500Y26703000D01*
X31473500Y26699000D01*
X31476500Y26694000D01*
X31479500Y26690000D01*
X31481500Y26685000D01*
X31483500Y26681000D01*
X31485500Y26676000D01*
X31487500Y26671000D01*
X31489500Y26666000D01*
X31490500Y26661000D01*
X31491500Y26656000D01*
X31491500Y26650000D01*
X31492500Y26645000D01*
X31492500Y26640000D01*
X31492500Y26390000D01*
X31493500Y26383000D01*
X31494500Y26376000D01*
X31494500Y26369000D01*
X31494500Y26363000D01*
X31494500Y26356000D01*
X31494500Y26349000D01*
X31493500Y26343000D01*
X31491500Y26336000D01*
X31490500Y26330000D01*
X31488500Y26323000D01*
X31485500Y26317000D01*
X31483500Y26311000D01*
X31480500Y26305000D01*
X31476500Y26299000D01*
X31473500Y26294000D01*
X31469500Y26288000D01*
X31465500Y26283000D01*
X31460500Y26278000D01*
X31456500Y26273000D01*
X31451500Y26269000D01*
X31445500Y26265000D01*
X31440500Y26261000D01*
X31435500Y26257000D01*
X31429500Y26254000D01*
X31423500Y26250000D01*
X31417500Y26248000D01*
X31411500Y26245000D01*
X31404500Y26243000D01*
X31398500Y26241000D01*
X31392500Y26240000D01*
X31142500Y26240000D01*
X31142500Y25965000D01*
X31142500Y25960000D01*
X31141500Y25955000D01*
X31141500Y25949000D01*
X31140500Y25944000D01*
X31139500Y25939000D01*
X31137500Y25934000D01*
X31135500Y25929000D01*
X31133500Y25924000D01*
X31131500Y25920000D01*
X31129500Y25915000D01*
X31126500Y25911000D01*
X31123500Y25906000D01*
X31120500Y25902000D01*
X31116500Y25898000D01*
X31113500Y25894000D01*
X31109500Y25891000D01*
X31105500Y25887000D01*
X31101500Y25884000D01*
X31096500Y25881000D01*
X31092500Y25878000D01*
X31087500Y25876000D01*
X31083500Y25874000D01*
X31078500Y25872000D01*
X31073500Y25870000D01*
X31068500Y25868000D01*
X31063500Y25867000D01*
X31058500Y25866000D01*
X31052500Y25866000D01*
X31047500Y25865000D01*
X31042500Y25865000D01*
X30917500Y25865000D01*
X30912500Y25865000D01*
X30907500Y25866000D01*
X30901500Y25866000D01*
X30896500Y25867000D01*
X30891500Y25868000D01*
X30886500Y25870000D01*
X30881500Y25872000D01*
X30876500Y25874000D01*
X30872500Y25876000D01*
X30867500Y25878000D01*
X30863500Y25881000D01*
X30858500Y25884000D01*
X30854500Y25887000D01*
X30850500Y25891000D01*
X30846500Y25894000D01*
X30843500Y25898000D01*
X30839500Y25902000D01*
X30836500Y25906000D01*
X30833500Y25911000D01*
X30830500Y25915000D01*
X30828500Y25920000D01*
X30826500Y25924000D01*
X30824500Y25929000D01*
X30822500Y25934000D01*
X30820500Y25939000D01*
X30819500Y25944000D01*
X30818500Y25949000D01*
X30818500Y25955000D01*
X30817500Y25960000D01*
X30817500Y25965000D01*
X30817500Y26640000D01*
X30817500Y26645000D01*
X30818500Y26650000D01*
X30818500Y26656000D01*
X30819500Y26661000D01*
X30820500Y26666000D01*
X30822500Y26671000D01*
X30824500Y26676000D01*
X30826500Y26681000D01*
X30828500Y26685000D01*
X30830500Y26690000D01*
X30833500Y26694000D01*
X30836500Y26699000D01*
X30839500Y26703000D01*
X30843500Y26707000D01*
X30846500Y26711000D01*
X30850500Y26714000D01*
X30854500Y26718000D01*
X30858500Y26721000D01*
X30863500Y26724000D01*
X30867500Y26727000D01*
X30872500Y26729000D01*
X30876500Y26731000D01*
X30881500Y26733000D01*
X30886500Y26735000D01*
X30891500Y26737000D01*
X30896500Y26738000D01*
X30901500Y26739000D01*
X30907500Y26739000D01*
X30912500Y26740000D01*
X30917500Y26740000D01*
X31392500Y26740000D01*
X31397500Y26740000D01*
X31402500Y26739000D01*
G36*
X31402500Y26739000D02*
G01*
X31408500Y26739000D01*
X31413500Y26738000D01*
X31418500Y26737000D01*
X31423500Y26735000D01*
X31428500Y26733000D01*
X31433500Y26731000D01*
X31437500Y26729000D01*
X31442500Y26727000D01*
X31446500Y26724000D01*
X31451500Y26721000D01*
X31455500Y26718000D01*
X31459500Y26714000D01*
X31463500Y26711000D01*
X31466500Y26707000D01*
X31470500Y26703000D01*
X31473500Y26699000D01*
X31476500Y26694000D01*
X31479500Y26690000D01*
X31481500Y26685000D01*
X31483500Y26681000D01*
X31485500Y26676000D01*
X31487500Y26671000D01*
X31489500Y26666000D01*
X31490500Y26661000D01*
X31491500Y26656000D01*
X31491500Y26650000D01*
X31492500Y26645000D01*
X31492500Y26640000D01*
X31492500Y26390000D01*
X31493500Y26383000D01*
X31494500Y26376000D01*
X31494500Y26369000D01*
X31494500Y26363000D01*
X31494500Y26356000D01*
X31494500Y26349000D01*
X31493500Y26343000D01*
X31491500Y26336000D01*
X31490500Y26330000D01*
X31488500Y26323000D01*
X31485500Y26317000D01*
X31483500Y26311000D01*
X31480500Y26305000D01*
X31476500Y26299000D01*
X31473500Y26294000D01*
X31469500Y26288000D01*
X31465500Y26283000D01*
X31460500Y26278000D01*
X31456500Y26273000D01*
X31451500Y26269000D01*
X31445500Y26265000D01*
X31440500Y26261000D01*
X31435500Y26257000D01*
X31429500Y26254000D01*
X31423500Y26250000D01*
X31417500Y26248000D01*
X31411500Y26245000D01*
X31404500Y26243000D01*
X31398500Y26241000D01*
X31392500Y26240000D01*
X31142500Y26240000D01*
X31142500Y25965000D01*
X31142500Y25960000D01*
X31141500Y25955000D01*
X31141500Y25949000D01*
X31140500Y25944000D01*
X31139500Y25939000D01*
X31137500Y25934000D01*
X31135500Y25929000D01*
X31133500Y25924000D01*
X31131500Y25920000D01*
X31129500Y25915000D01*
X31126500Y25911000D01*
X31123500Y25906000D01*
X31120500Y25902000D01*
X31116500Y25898000D01*
X31113500Y25894000D01*
X31109500Y25891000D01*
X31105500Y25887000D01*
X31101500Y25884000D01*
X31096500Y25881000D01*
X31092500Y25878000D01*
X31087500Y25876000D01*
X31083500Y25874000D01*
X31078500Y25872000D01*
X31073500Y25870000D01*
X31068500Y25868000D01*
X31063500Y25867000D01*
X31058500Y25866000D01*
X31052500Y25866000D01*
X31047500Y25865000D01*
X31042500Y25865000D01*
X30917500Y25865000D01*
X30912500Y25865000D01*
X30907500Y25866000D01*
X30901500Y25866000D01*
X30896500Y25867000D01*
X30891500Y25868000D01*
X30886500Y25870000D01*
X30881500Y25872000D01*
X30876500Y25874000D01*
X30872500Y25876000D01*
X30867500Y25878000D01*
X30863500Y25881000D01*
X30858500Y25884000D01*
X30854500Y25887000D01*
X30850500Y25891000D01*
X30846500Y25894000D01*
X30843500Y25898000D01*
X30839500Y25902000D01*
X30836500Y25906000D01*
X30833500Y25911000D01*
X30830500Y25915000D01*
X30828500Y25920000D01*
X30826500Y25924000D01*
X30824500Y25929000D01*
X30822500Y25934000D01*
X30820500Y25939000D01*
X30819500Y25944000D01*
X30818500Y25949000D01*
X30818500Y25955000D01*
X30817500Y25960000D01*
X30817500Y25965000D01*
X30817500Y26640000D01*
X30817500Y26645000D01*
X30818500Y26650000D01*
X30818500Y26656000D01*
X30819500Y26661000D01*
X30820500Y26666000D01*
X30822500Y26671000D01*
X30824500Y26676000D01*
X30826500Y26681000D01*
X30828500Y26685000D01*
X30830500Y26690000D01*
X30833500Y26694000D01*
X30836500Y26699000D01*
X30839500Y26703000D01*
X30843500Y26707000D01*
X30846500Y26711000D01*
X30850500Y26714000D01*
X30854500Y26718000D01*
X30858500Y26721000D01*
X30863500Y26724000D01*
X30867500Y26727000D01*
X30872500Y26729000D01*
X30876500Y26731000D01*
X30881500Y26733000D01*
X30886500Y26735000D01*
X30891500Y26737000D01*
X30896500Y26738000D01*
X30901500Y26739000D01*
X30907500Y26739000D01*
X30912500Y26740000D01*
X30917500Y26740000D01*
X31392500Y26740000D01*
X31397500Y26740000D01*
X31402500Y26739000D01*
G37*
%TD*%
D12*
%TO.C,D2*%
X44900000Y33682500D03*
X44900000Y34652500D03*
%TD*%
D13*
%TO.C,R17*%
X25585000Y20600000D03*
X24565000Y20600000D03*
%TD*%
%TO.C,R51*%
X27550000Y19575000D03*
X26530000Y19575000D03*
%TD*%
%TO.C,R50*%
X25575000Y19575000D03*
X24555000Y19575000D03*
%TD*%
%TO.C,R48*%
X27550000Y20600000D03*
X26530000Y20600000D03*
%TD*%
D14*
%TO.C,R44*%
X37955000Y21390000D03*
X36305000Y21390000D03*
%TD*%
D15*
%TO.C,R8*%
X46460000Y21360000D03*
X44810000Y21360000D03*
%TD*%
D16*
%TO.C,C32*%
X28615000Y14750000D03*
X29575000Y14750000D03*
%TD*%
D17*
%TO.C,JP1*%
X12325000Y10225000D03*
X11025000Y10225000D03*
X9725000Y10225000D03*
%TD*%
D18*
%TO.C,IC7*%
X8775000Y15825000D03*
X8775000Y15175000D03*
X8775000Y14525000D03*
X7000000Y14525000D03*
X7000000Y15175000D03*
X7000000Y15825000D03*
%TD*%
D19*
%TO.C,IC6*%
X27300000Y15525000D03*
X27300000Y16025000D03*
X27300000Y16525000D03*
X27300000Y17025000D03*
X27300000Y17525000D03*
X24350000Y17525000D03*
X24350000Y17025000D03*
X24350000Y16525000D03*
X24350000Y16025000D03*
X24350000Y15525000D03*
D20*
X26075000Y14975000D03*
X26075000Y18075000D03*
D21*
X25825000Y16525000D03*
D20*
X25575000Y14975000D03*
X25575000Y18075000D03*
%TD*%
D22*
%TO.C,D4*%
X1125000Y15752500D03*
X1125000Y14782500D03*
%TD*%
D23*
%TO.C,C30*%
X10250000Y15345000D03*
X10250000Y16305000D03*
%TD*%
D24*
%TO.C,C29*%
X24200000Y13075000D03*
X27150000Y13075000D03*
%TD*%
D23*
%TO.C,C28*%
X23100000Y17170000D03*
X23100000Y18130000D03*
%TD*%
D16*
%TO.C,C27*%
X28620000Y17350000D03*
X29580000Y17350000D03*
%TD*%
%TO.C,C26*%
X28620000Y15775000D03*
X29580000Y15775000D03*
%TD*%
D25*
%TO.C,H3*%
X51500000Y31375000D03*
X50333274Y31858274D03*
X52666726Y31858274D03*
X49850000Y33025000D03*
D26*
X51500000Y33025000D03*
D25*
X53150000Y33025000D03*
X50333274Y34191726D03*
X52666726Y34191726D03*
X51500000Y34675000D03*
%TD*%
D22*
%TO.C,D3*%
X40625000Y33675000D03*
X40625000Y34645000D03*
%TD*%
D27*
%TO.C,T4*%
X13150000Y29875000D03*
X13800000Y29875000D03*
X14450000Y29875000D03*
X15100000Y29875000D03*
D28*
X14125000Y31830000D03*
%TD*%
D29*
%TO.C,L1*%
X46410000Y27520000D03*
X36410000Y27520000D03*
%TD*%
D30*
%TO.C,C5*%
X45527500Y16610000D03*
X40452500Y16610000D03*
%TD*%
D25*
%TO.C,H1*%
X2500000Y31375000D03*
X1333274Y31858274D03*
X3666726Y31858274D03*
X850000Y33025000D03*
D26*
X2500000Y33025000D03*
D25*
X4150000Y33025000D03*
X1333274Y34191726D03*
X3666726Y34191726D03*
X2500000Y34675000D03*
%TD*%
D31*
%TO.C,IC2*%
X14512500Y17850000D03*
X14512500Y17450000D03*
X14512500Y17050000D03*
X14512500Y16650000D03*
X14512500Y16250000D03*
X14512500Y15850000D03*
X14512500Y15450000D03*
D32*
X15250000Y14712500D03*
X15650000Y14712500D03*
X16050000Y14712500D03*
X16450000Y14712500D03*
X16850000Y14712500D03*
X17250000Y14712500D03*
X17650000Y14712500D03*
D31*
X18387500Y15450000D03*
X18387500Y15850000D03*
X18387500Y16250000D03*
X18387500Y16650000D03*
X18387500Y17050000D03*
X18387500Y17450000D03*
X18387500Y17850000D03*
D32*
X17650000Y18587500D03*
X17250000Y18587500D03*
X16850000Y18587500D03*
X16450000Y18587500D03*
X16050000Y18587500D03*
X15650000Y18587500D03*
X15250000Y18587500D03*
D33*
X16450000Y16650000D03*
%TD*%
D34*
%TO.C,R12*%
X14500000Y20025000D03*
X13480000Y20025000D03*
%TD*%
D35*
%TO.C,L3*%
X11075000Y13825000D03*
X12900000Y13825000D03*
%TD*%
D36*
%TO.C,C2*%
X49340000Y19425000D03*
X49340000Y16475000D03*
%TD*%
D37*
%TO.C,R20*%
X15970000Y22795000D03*
X15970000Y21775000D03*
%TD*%
D16*
%TO.C,C41*%
X10370000Y34675000D03*
X11330000Y34675000D03*
%TD*%
D38*
%TO.C,J1*%
X5580000Y22525000D03*
D39*
X5580000Y20505000D03*
D40*
X5580000Y19275000D03*
D41*
X5580000Y21525000D03*
D42*
X5580000Y23545000D03*
D43*
X5580000Y24775000D03*
D44*
X5500000Y26345000D03*
X1700000Y26345000D03*
X5500000Y17705000D03*
X1700000Y17705000D03*
%TD*%
D25*
%TO.C,H2*%
X2500000Y9375000D03*
X1333274Y9858274D03*
X3666726Y9858274D03*
X850000Y11025000D03*
D26*
X2500000Y11025000D03*
D25*
X4150000Y11025000D03*
X1333274Y12191726D03*
X3666726Y12191726D03*
X2500000Y12675000D03*
%TD*%
D34*
%TO.C,R14*%
X20510000Y19950000D03*
X19490000Y19950000D03*
%TD*%
D36*
%TO.C,C3*%
X51840000Y19425000D03*
X51840000Y16475000D03*
%TD*%
D45*
%TO.C,C40*%
X43390000Y21370000D03*
X42430000Y21370000D03*
%TD*%
D34*
%TO.C,R41*%
X45820000Y9225000D03*
X44800000Y9225000D03*
%TD*%
%TO.C,R39*%
X45830000Y10275000D03*
X44810000Y10275000D03*
%TD*%
D46*
%TO.C,C14*%
X22670000Y28475000D03*
X22670000Y30375000D03*
%TD*%
D13*
%TO.C,R49*%
X10740000Y12175000D03*
X11760000Y12175000D03*
%TD*%
D37*
%TO.C,R40*%
X29610000Y33620000D03*
X29610000Y32600000D03*
%TD*%
D23*
%TO.C,C7*%
X27535000Y32640000D03*
X27535000Y33600000D03*
%TD*%
D47*
%TO.C,J2*%
X14750000Y3525000D03*
X15750000Y3525000D03*
X16750000Y3525000D03*
X17750000Y3525000D03*
X18750000Y3525000D03*
X19750000Y3525000D03*
X20750000Y3525000D03*
X21750000Y3525000D03*
X22750000Y3525000D03*
X23750000Y3525000D03*
X24750000Y3525000D03*
X27750000Y3525000D03*
X28750000Y3525000D03*
X29750000Y3525000D03*
X30750000Y3525000D03*
X31750000Y3525000D03*
D48*
X32750000Y4075000D03*
D47*
X33750000Y3525000D03*
%TD*%
D45*
%TO.C,C18*%
X9880000Y29825000D03*
X8920000Y29825000D03*
%TD*%
D13*
%TO.C,R31*%
X18140000Y34525000D03*
X19160000Y34525000D03*
%TD*%
D37*
%TO.C,R36*%
X28560000Y33620000D03*
X28560000Y32600000D03*
%TD*%
D49*
%TO.C,R28*%
X8910000Y27815000D03*
X8910000Y28835000D03*
%TD*%
D45*
%TO.C,C24*%
X38267500Y9650000D03*
X37307500Y9650000D03*
%TD*%
D37*
%TO.C,R4*%
X30642500Y23150000D03*
X30642500Y22130000D03*
%TD*%
D13*
%TO.C,R19*%
X15615000Y34525000D03*
X16635000Y34525000D03*
%TD*%
D49*
%TO.C,R1*%
X26485000Y32635000D03*
X26485000Y33655000D03*
%TD*%
D50*
%TO.C,C23*%
X5975000Y28705000D03*
X3025000Y28705000D03*
%TD*%
D51*
%TO.C,C10*%
X25270000Y23300000D03*
X25270000Y22340000D03*
%TD*%
D13*
%TO.C,R16*%
X12290000Y15425000D03*
X13310000Y15425000D03*
%TD*%
D51*
%TO.C,C21*%
X14950000Y13005000D03*
X14950000Y12045000D03*
%TD*%
D49*
%TO.C,R23*%
X19100000Y21765000D03*
X19100000Y22785000D03*
%TD*%
D52*
%TO.C,IC4*%
X38575000Y10800000D03*
X38575000Y11450000D03*
X38575000Y12100000D03*
X36800000Y12100000D03*
X36800000Y11450000D03*
X36800000Y10800000D03*
%TD*%
D51*
%TO.C,C9*%
X30617500Y21170000D03*
X30617500Y20210000D03*
%TD*%
D24*
%TO.C,C4*%
X34045000Y33350000D03*
X31095000Y33350000D03*
%TD*%
D49*
%TO.C,R25*%
X21210000Y21775000D03*
X21210000Y22795000D03*
%TD*%
D46*
%TO.C,C13*%
X24745000Y28475000D03*
X24745000Y30375000D03*
%TD*%
D49*
%TO.C,R29*%
X9960000Y27815000D03*
X9960000Y28835000D03*
%TD*%
D51*
%TO.C,C1*%
X32705000Y30145000D03*
X32705000Y29185000D03*
%TD*%
D34*
%TO.C,R30*%
X21175000Y34525000D03*
X20155000Y34525000D03*
%TD*%
D53*
%TO.C,C39*%
X8250000Y20105000D03*
X8250000Y18205000D03*
%TD*%
D51*
%TO.C,C8*%
X31667500Y23145000D03*
X31667500Y22185000D03*
%TD*%
D16*
%TO.C,C12*%
X39360000Y21400000D03*
X40320000Y21400000D03*
%TD*%
D12*
%TO.C,D1*%
X42675000Y34645000D03*
X42675000Y33675000D03*
%TD*%
D27*
%TO.C,T5*%
X16575000Y24725000D03*
X17225000Y24725000D03*
X17875000Y24725000D03*
X18525000Y24725000D03*
D28*
X17550000Y26680000D03*
%TD*%
D37*
%TO.C,R2*%
X27542500Y23160000D03*
X27542500Y22140000D03*
%TD*%
D45*
%TO.C,C25*%
X42887500Y9650000D03*
X41927500Y9650000D03*
%TD*%
D51*
%TO.C,C22*%
X16580000Y13135000D03*
X16580000Y12175000D03*
%TD*%
D53*
%TO.C,C16*%
X24780000Y26820000D03*
X24780000Y24920000D03*
%TD*%
D37*
%TO.C,R5*%
X28567500Y23150000D03*
X28567500Y22130000D03*
%TD*%
D51*
%TO.C,C11*%
X32510000Y27025000D03*
X32510000Y26065000D03*
%TD*%
D53*
%TO.C,C6*%
X33305000Y22840000D03*
X33305000Y20940000D03*
%TD*%
D37*
%TO.C,R22*%
X18060000Y22795000D03*
X18060000Y21775000D03*
%TD*%
D34*
%TO.C,R38*%
X45830000Y11325000D03*
X44810000Y11325000D03*
%TD*%
D54*
%TO.C,IC3*%
X10362500Y31400000D03*
X10362500Y32050000D03*
X10362500Y32700000D03*
X10362500Y33350000D03*
X8087500Y33350000D03*
X8087500Y32700000D03*
X8087500Y32050000D03*
X8087500Y31400000D03*
%TD*%
D49*
%TO.C,R21*%
X17010000Y21775000D03*
X17010000Y22795000D03*
%TD*%
D27*
%TO.C,T3*%
X17070000Y29875000D03*
X17720000Y29875000D03*
X18370000Y29875000D03*
X19020000Y29875000D03*
D28*
X18045000Y31830000D03*
%TD*%
D55*
%TO.C,R27*%
X13250000Y28037500D03*
X13250000Y22112500D03*
%TD*%
D34*
%TO.C,R6*%
X37110000Y34620000D03*
X36090000Y34620000D03*
%TD*%
%TO.C,R13*%
X12550000Y20025000D03*
X11530000Y20025000D03*
%TD*%
D37*
%TO.C,R3*%
X29617500Y23150000D03*
X29617500Y22130000D03*
%TD*%
D12*
%TO.C,D5*%
X1100000Y28390000D03*
X1100000Y29360000D03*
%TD*%
D13*
%TO.C,R18*%
X13265000Y34500000D03*
X14285000Y34500000D03*
%TD*%
D34*
%TO.C,R7*%
X37110000Y33500000D03*
X36090000Y33500000D03*
%TD*%
D37*
%TO.C,R24*%
X20160000Y22795000D03*
X20160000Y21775000D03*
%TD*%
D52*
%TO.C,IC5*%
X43275000Y10800000D03*
X43275000Y11450000D03*
X43275000Y12100000D03*
X41500000Y12100000D03*
X41500000Y11450000D03*
X41500000Y10800000D03*
%TD*%
D53*
%TO.C,C15*%
X22680000Y26820000D03*
X22680000Y24920000D03*
%TD*%
D34*
%TO.C,R15*%
X20520000Y18725000D03*
X19500000Y18725000D03*
%TD*%
D25*
%TO.C,H4*%
X51500000Y9375000D03*
X50333274Y9858274D03*
X52666726Y9858274D03*
X49850000Y11025000D03*
D26*
X51500000Y11025000D03*
D25*
X53150000Y11025000D03*
X50333274Y12191726D03*
X52666726Y12191726D03*
X51500000Y12675000D03*
%TD*%
D46*
%TO.C,C17*%
X8250000Y24005000D03*
X8250000Y25905000D03*
%TD*%
D49*
%TO.C,R43*%
X23075000Y15190000D03*
X23075000Y16210000D03*
%TD*%
D37*
%TO.C,R45*%
X20025000Y12110000D03*
X20025000Y11090000D03*
%TD*%
D49*
%TO.C,R46*%
X5500000Y14650000D03*
X5500000Y15670000D03*
%TD*%
D34*
%TO.C,R37*%
X22110000Y13475000D03*
X21090000Y13475000D03*
%TD*%
D49*
%TO.C,R42*%
X22075000Y17140000D03*
X22075000Y18160000D03*
%TD*%
D13*
%TO.C,R10*%
X23260000Y22320000D03*
X24280000Y22320000D03*
%TD*%
D37*
%TO.C,R47*%
X21050000Y12110000D03*
X21050000Y11090000D03*
%TD*%
D13*
%TO.C,R11*%
X23260000Y23330000D03*
X24280000Y23330000D03*
%TD*%
M02*
