0
SECTION
2
HEADER
9
$INSUNITS
70
4
9
$ACADVER
1
AC1014
9
$HANDSEED
5
FFFF
0
ENDSEC
0
SECTION
2
TABLES
0
TABLE
2
VPORT
5
8
100
AcDbSymbolTable
0
ENDTAB
0
TABLE
2
LTYPE
5
5
100
AcDbSymbolTable
0
LTYPE
5
14
100
AcDbSymbolTableRecord
100
AcDbLinetypeTableRecord
2
BYBLOCK
70
0
0
LTYPE
5
15
100
AcDbSymbolTableRecord
100
AcDbLinetypeTableRecord
2
BYLAYER
70
0
0
LTYPE
5
16
100
AcDbSymbolTableRecord
100
AcDbLinetypeTableRecord
2
DASHED
70
0
3
Dashed __ __ __ __ __ __ __ __ __ __ __ __ __ _
72
65
73
2
40
0.75
49
0.5
74
0
49
-0.25
74
0
0
ENDTAB
0
TABLE
2
LAYER
5
2
100
AcDbSymbolTable
70
2
0
LAYER
5
50
100
AcDbSymbolTableRecord
100
AcDbLayerTableRecord
2
0
70
0
62
7
6
CONTINUOUS
0
ENDTAB
0
TABLE
2
STYLE
5
3
100
AcDbSymbolTable
70
1
0
STYLE
5
11
100
AcDbSymbolTableRecord
100
AcDbTextStyleTableRecord
2
STANDARD
70
0
0
ENDTAB
0
TABLE
2
VIEW
5
6
100
AcDbSymbolTable
70
0
0
ENDTAB
0
TABLE
2
UCS
5
7
100
AcDbSymbolTable
70
0
0
ENDTAB
0
TABLE
2
APPID
5
9
100
AcDbSymbolTable
70
2
0
APPID
5
12
100
AcDbSymbolTableRecord
100
AcDbRegAppTableRecord
2
ACAD
70
0
0
ENDTAB
0
TABLE
2
DIMSTYLE
5
A
100
AcDbSymbolTable
70
1
0
ENDTAB
0
TABLE
2
BLOCK_RECORD
5
1
100
AcDbSymbolTable
70
1
0
BLOCK_RECORD
5
1F
100
AcDbSymbolTableRecord
100
AcDbBlockTableRecord
2
*MODEL_SPACE
0
BLOCK_RECORD
5
1B
100
AcDbSymbolTableRecord
100
AcDbBlockTableRecord
2
*PAPER_SPACE
0
ENDTAB
0
ENDSEC
0
SECTION
2
BLOCKS
0
BLOCK
5
20
100
AcDbEntity
100
AcDbBlockBegin
2
*MODEL_SPACE
0
ENDBLK
5
21
100
AcDbEntity
100
AcDbBlockEnd
0
BLOCK
5
1C
100
AcDbEntity
100
AcDbBlockBegin
2
*PAPER_SPACE
0
ENDBLK
5
1D
100
AcDbEntity
100
AcDbBlockEnd
0
ENDSEC
0
SECTION
2
ENTITIES
0
LWPOLYLINE
5
100
100
AcDbEntity
8
0
100
AcDbPolyline
90
4
70
1
43
0.0
10
-6.4500000000000002
20
-37.149999999999999
10
6.4500000000000002
20
-37.149999999999999
10
6.449999999808
20
-0.15166852264520081
10
-6.449999999936999
20
-0.1516685226452
0
LWPOLYLINE
5
101
100
AcDbEntity
8
0
100
AcDbPolyline
90
4
70
1
43
0.0
10
-2.7999999999999998
20
-5.9000000000000004
10
2.7999999999999998
20
-5.9000000000000004
10
2.7999999999999998
20
-8.1999999999999993
10
-2.7999999999999998
20
-8.1999999999999993
0
LINE
5
102
100
AcDbEntity
8
0
100
AcDbLine
10
2.3999999999999999
20
-51.70000000000001
30
0
11
2.3999999999999999
21
-44.700000000000003
31
0
0
LINE
5
103
100
AcDbEntity
8
0
100
AcDbLine
10
2.3999999999999999
20
-44.100000000000001
30
0
11
2.3999999999999999
21
-44.700000000000003
31
0
0
LINE
5
104
100
AcDbEntity
8
0
100
AcDbLine
10
2.3999999999999999
20
-44.100000000000001
30
0
11
2.3999999999999999
21
-43.100000000000009
31
0
0
LINE
5
105
100
AcDbEntity
8
0
100
AcDbLine
10
1.6000000000000003
20
-44.100000000000001
30
0
11
1.6000000000000003
21
-43.100000000000009
31
0
0
LINE
5
106
100
AcDbEntity
8
0
100
AcDbLine
10
1.6000000000000003
20
-44.699999999999996
30
0
11
1.6000000000000003
21
-44.100000000000001
31
0
0
LINE
5
107
100
AcDbEntity
8
0
100
AcDbLine
10
1.6000000000000003
20
-51.70000000000001
30
0
11
1.6000000000000003
21
-44.699999999999996
31
0
0
LINE
5
108
100
AcDbEntity
8
0
100
AcDbLine
10
3.6000000000008709
20
-43.100000000000009
30
0
11
2.3999999999999999
21
-43.100000000000009
31
0
0
LINE
5
109
100
AcDbEntity
8
0
100
AcDbLine
10
1.6000000000000003
20
-43.100000000000009
30
0
11
0.39999999999895453
21
-43.100000000000009
31
0
0
SPLINE
5
110
100
AcDbEntity
8
0
100
AcDbSpline
70
0
71
3
72
21
73
17
74
0
42
0.000000001
43
0.0000000001
44
0.0000000001
40
-0.69948459272590591
40
-0.69948459272590591
40
-0.69948459272590591
40
-0.69948459272590591
40
-0.58533261253078095
40
-0.58533261253078095
40
-0.47118063233565588
40
-0.47118063233565588
40
-0.40317527764840855
40
-0.40317527764840855
40
-0.33516992296116127
40
-0.33516992296116127
40
-0.16758496148058064
40
-0.16758496148058064
40
-0.029777120348750297
40
-0.029777120348750297
40
-0.029777120348750297
40
-0.015482585316326883
40
-0.015482585316326883
40
-0.015482585316326883
40
-0.015482585316326883
10
3.5999999999999992
20
-43.100000000000009
30
2.2204460492503131e-15
10
3.5999999999999992
20
-42.719493399349588
30
2.2204460492503131e-15
10
3.6664331157679775
20
-42.311793394479153
30
2.2204460492503131e-15
10
3.9335148699781515
20
-41.555973038922801
30
0
10
4.1339532994459809
20
-41.208171161148627
30
0
10
4.4858921399085734
20
-40.763053625079493
30
2.2204460492503131e-15
10
4.6410429396721486
20
-40.600378492893881
30
0
10
4.9593538313976673
20
-40.322913239974305
30
0
10
5.1218288252593345
20
-40.207720481327272
30
0
10
5.6193841487624141
20
-39.901485139768134
30
2.2204460492503131e-15
10
5.948480805922463
20
-39.786973519837318
30
0
10
6.3495704380299287
20
-39.676243953955193
30
0
10
6.4576157287212288
20
-39.659299493495276
30
-2.2204460492503131e-15
10
6.4899389471594908
20
-39.653577868019198
30
-2.2204460492503131e-15
10
6.493291770732748
20
-39.652984375115324
30
-2.2204460492503131e-15
10
6.4966454585846716
20
-39.652395775177609
30
0
10
6.4999999999999991
20
-39.651812070086677
30
0
0
SPLINE
5
111
100
AcDbEntity
8
0
100
AcDbSpline
70
0
71
3
72
21
73
17
74
0
42
0.000000001
43
0.0000000001
44
0.0000000001
40
-0.68405132420921377
40
-0.68405132420921377
40
-0.68405132420921377
40
-0.68405132420921377
40
-0.6697377095042979
40
-0.6697377095042979
40
-0.6697377095042979
40
-0.56324197343003979
40
-0.56324197343003979
40
-0.4269691170070371
40
-0.4269691170070371
40
-0.3586954753570053
40
-0.3586954753570053
40
-0.29042183370697305
40
-0.29042183370697305
40
-0.14521091685348653
40
-0.14521091685348653
40
0
40
0
40
0
40
0
10
-2.5
20
-39.65181207008667
30
0
10
-2.4966132643102594
20
-39.652401377124207
30
0
10
-2.4932273986644851
20
-39.65299567341004
30
0
10
-2.4898424140877622
20
-39.653594957009012
30
0
10
-2.4646575511771842
20
-39.658053729255272
30
0
10
-2.3934802104062323
20
-39.669894855035508
30
0
10
-2.1240292797690623
20
-39.735225981119612
30
0
10
-1.895004915624388
20
-39.801700915470811
30
0
10
-1.5074363965597304
20
-39.980060882063043
30
0
10
-1.3545838044460963
20
-40.060399509358817
30
0
10
-1.037718459710228
20
-40.265808023039675
30
0
10
-0.87429154734045533
20
-40.391563749393534
30
-2.2204460492503131e-15
10
-0.41781682044472995
20
-40.812173652473653
30
0
10
-0.11669597006470253
20
-41.203855646525469
30
0
10
0.29237540814824148
20
-42.106384553237362
30
0
10
0.3999999999999998
20
-42.615963610488379
30
2.2204460492503131e-15
10
0.3999999999999998
20
-43.100000000000009
30
2.2204460492503131e-15
0
LINE
5
112
100
AcDbEntity
8
0
100
AcDbLine
10
-5.0999999999999996
20
-38.650000000000006
30
-2.2204460492503131e-15
11
-2.5
21
-38.650000000000006
31
-2.2204460492503131e-15
0
LINE
5
113
100
AcDbEntity
8
0
100
AcDbLine
10
8.6500000000000004
20
-38.650000000000006
30
2.2204460492503131e-15
11
6.5
21
-38.650000000000006
31
2.2204460492503131e-15
0
LINE
5
114
100
AcDbEntity
8
0
100
AcDbLine
10
-8.5699224390839372
20
-38.650000000000006
30
2.2204460492503131e-15
11
-8.6500000000000004
21
-38.650000000000006
31
2.2204460492503131e-15
0
ARC
5
115
100
AcDbEntity
8
0
100
AcDbCircle
10
8.6500000000000004
20
-37.149999999999999
30
2.2204460492503131e-15
40
1.5000000000000036
210
0
220
0
230
1
100
AcDbArc
50
-90
51
0
0
ARC
5
116
100
AcDbEntity
8
0
100
AcDbCircle
10
-8.6500000000000004
20
-37.149999999999999
30
2.2204460492503131e-15
40
1.5000000000000002
210
0
220
0
230
1
100
AcDbArc
50
180
51
270
0
LINE
5
117
100
AcDbEntity
8
0
100
AcDbLine
10
-10.150000000000002
20
-0.1516685226452
30
0
11
-10.150000000000002
21
-37.149999999999999
31
2.2204460492503131e-15
0
LINE
5
118
100
AcDbEntity
8
0
100
AcDbLine
10
-10.150000000000002
20
-0.1516685226452
30
0
11
-9.3500000000000014
21
-0.1516685226452
31
2.2204460492503131e-15
0
LINE
5
119
100
AcDbEntity
8
0
100
AcDbLine
10
9.3500000000000014
20
-0.1516685226452
30
2.2204460492503131e-15
11
10.150000000000002
21
-0.1516685226452
31
2.2204460492503131e-15
0
LINE
5
120
100
AcDbEntity
8
0
100
AcDbLine
10
10.150000000000002
20
-37.149999999999999
30
2.2204460492503131e-15
11
10.150000000000002
21
-0.1516685226452
31
2.2204460492503131e-15
0
LINE
5
121
100
AcDbEntity
8
0
100
AcDbLine
10
-9.3500000000000014
20
0
30
0
11
-9.3500000000000014
21
-0.1516685226452
31
2.2204460492503131e-15
0
LINE
5
122
100
AcDbEntity
8
0
100
AcDbLine
10
9.3500000000000014
20
-0.1516685226452
30
2.2204460492503131e-15
11
9.3500000000000014
21
0
31
0
0
LINE
5
123
100
AcDbEntity
8
0
100
AcDbLine
10
-9.499999999791001
20
0
30
-2.2204460492503131e-15
11
-9.3500000000000014
21
0
31
0
0
LINE
5
124
100
AcDbEntity
8
0
100
AcDbLine
10
9.3500000000000014
20
0
30
0
11
9.5000000000000018
21
0
31
-2.2204460492503131e-15
0
LINE
5
125
100
AcDbEntity
8
0
100
AcDbLine
10
12.000000000000002
20
0
30
-2.2204460492503131e-15
11
9.5000000000000018
21
0
31
-2.2204460492503131e-15
0
LINE
5
126
100
AcDbEntity
8
0
100
AcDbLine
10
-9.499999999791001
20
0
30
-2.2204460492503131e-15
11
-12.000000000000002
21
0
31
-2.2204460492503131e-15
0
LINE
5
127
100
AcDbEntity
8
0
100
AcDbLine
10
-11.700000000000001
20
3.2000000000000006
30
-2.2204460492503131e-15
11
-11.100000000000001
21
3.2000000000000006
31
-2.2204460492503131e-15
0
LINE
5
128
100
AcDbEntity
8
0
100
AcDbLine
10
11.100000000000001
20
3.2000000000000006
30
-2.2204460492503131e-15
11
11.700000000000001
21
3.2000000000000006
31
-2.2204460492503131e-15
0
LINE
5
129
100
AcDbEntity
8
0
100
AcDbLine
10
11.100000000000001
20
3.2000000000000006
30
-2.2204460492503131e-15
11
11.100000000000001
21
5.2000000000000002
31
2.2204460492503131e-15
0
LINE
5
130
100
AcDbEntity
8
0
100
AcDbLine
10
7.5999999999999996
20
5.7000000000000011
30
0
11
10.600000000000001
21
5.7000000000000011
31
0
0
ARC
5
131
100
AcDbEntity
8
0
100
AcDbCircle
10
10.600000000000001
20
5.2000000000000002
30
0
40
0.50000000000000044
210
-4.4408920985006222e-15
220
0
230
1
100
AcDbArc
50
0
51
90
0
LINE
5
132
100
AcDbEntity
8
0
100
AcDbLine
10
7.5999999999999996
20
5.7000000000000011
30
0
11
-7.5999999999999996
21
5.7000000000000011
31
2.2204460492503131e-15
0
LINE
5
133
100
AcDbEntity
8
0
100
AcDbLine
10
-10.600000000000001
20
5.7000000000000011
30
0
11
-7.5999999999999996
21
5.7000000000000011
31
2.2204460492503131e-15
0
LINE
5
134
100
AcDbEntity
8
0
100
AcDbLine
10
-11.100000000000001
20
5.2000000000000002
30
2.2204460492503131e-15
11
-11.100000000000001
21
3.2000000000000006
31
-2.2204460492503131e-15
0
ARC
5
135
100
AcDbEntity
8
0
100
AcDbCircle
10
-10.600000000000001
20
5.2000000000000002
30
0
40
0.50000000000000044
210
0
220
-0
230
1
100
AcDbArc
50
90
51
180
0
ARC
5
136
100
AcDbEntity
8
0
100
AcDbCircle
10
11.699999999999999
20
2.8999999999999999
30
-2.2204460492503131e-15
40
0.30000000000000027
210
0
220
0
230
1
100
AcDbArc
50
0
51
89.999999999999673
0
LINE
5
137
100
AcDbEntity
8
0
100
AcDbLine
10
12.000000000000002
20
0
30
-2.2204460492503131e-15
11
12
21
2.8999999999999999
31
-2.2204460492503131e-15
0
LINE
5
138
100
AcDbEntity
8
0
100
AcDbLine
10
-12.000000000000002
20
2.8999999999999999
30
0
11
-12.000000000000002
21
0
31
-2.2204460492503131e-15
0
ARC
5
139
100
AcDbEntity
8
0
100
AcDbCircle
10
-11.699999999999999
20
2.8999999999999999
30
-2.2204460492503131e-15
40
0.30000000000000082
210
0
220
0
230
1
100
AcDbArc
50
90.000000000000341
51
180
0
SPLINE
5
140
100
AcDbEntity
8
0
100
AcDbSpline
70
0
71
3
72
9
73
5
74
0
42
0.000000001
43
0.0000000001
44
0.0000000001
40
3.8514536852857988e-08
40
3.8514536852857988e-08
40
3.8514536852857988e-08
40
3.8514536852857988e-08
40
0.0024315454951899999
40
0.0054836619459941154
40
0.0054836619459941154
40
0.0054836619459941154
40
0.0054836619459941154
10
-6.7589275822604407
20
-39.022969770181575
30
0
10
-6.7626992981202285
20
-39.021600676874343
30
0
10
-6.7712489009331449
20
-39.01855765694048
30
0
10
-6.779881506664883
20
-39.015617394413226
30
0
10
-6.7847110117874063
20
-39.014012385367948
30
0
0
SPLINE
5
141
100
AcDbEntity
8
0
100
AcDbSpline
70
0
71
3
72
18
73
14
74
0
42
0.000000001
43
0.0000000001
44
0.0000000001
40
0.0099114629291973799
40
0.0099114629291973799
40
0.0099114629291973799
40
0.0099114629291973799
40
0.01486411365295
40
0.02103770799169
40
0.027310857797289999
40
0.033517491624699997
40
0.0392801080409
40
0.044479671125730001
40
0.04918729235864
40
0.053482496040710002
40
0.057473108286309998
40
0.061277135682619999
40
0.064362915562501247
40
0.064362915562501247
40
0.064362915562501247
40
0.064362915562501247
10
-6.8058829382146246
20
-39.007224939009014
30
0
10
-6.8138329618685898
20
-39.004767513638051
30
0
10
-6.8318336000489763
20
-38.999428592246559
30
0
10
-6.8604909800089997
20
-38.991680697009997
30
0
10
-6.8918231995870007
20
-38.984038002269997
30
0
10
-6.923068704348001
20
-38.977144411909997
30
0
10
-6.9530247880200005
20
-38.971108524930003
30
0
10
-6.9808289294220005
20
-38.965913287420001
30
0
10
-7.0064125698940005
20
-38.961408369620003
30
0
10
-7.0301392583959998
20
-38.957412400599999
30
0
10
-7.0524943062550003
20
-38.953764196800002
30
0
10
-7.0728449104723818
20
-38.950509072477509
30
0
10
-7.0858732482092766
20
-38.948444184820616
30
0
10
-7.0917297339773322
20
-38.947516352809934
30
0
0
SPLINE
5
142
100
AcDbEntity
8
0
100
AcDbSpline
70
0
71
3
72
22
73
18
74
0
42
0.000000001
43
0.0000000001
44
0.0000000001
40
0.067961301629792428
40
0.067961301629792428
40
0.067961301629792428
40
0.067961301629792428
40
0.068750984197089998
40
0.072498937893949997
40
0.076242003123109997
40
0.079961535749769996
40
0.083781982626400006
40
0.087949777651840005
40
0.092714569645729994
40
0.098072893461910005
40
0.10355485830940001
40
0.1092190284832
40
0.1152664144437
40
0.1218980744894
40
0.1293150031867
40
0.13771811505369999
40
0.14246472388672615
40
0.14246472388672615
40
0.14246472388672615
40
0.14246472388672615
10
-7.1122787690776876
20
-38.944259570718039
30
0
10
-7.1137837588841402
20
-38.944020882324914
30
0
10
-7.1224303619300935
20
-38.942649280799273
30
0
10
-7.1381711865190001
20
-38.940149131379997
30
0
10
-7.1594573710950007
20
-38.936763730149998
30
0
10
-7.1808394013349996
20
-38.933359479010001
30
0
10
-7.2029861980870002
20
-38.92983108856
30
0
10
-7.2270612580950013
20
-38.925994224429999
30
0
10
-7.2539767645179998
20
-38.921705141300002
30
0
10
-7.2832868263549999
20
-38.917037893429999
30
0
10
-7.3141910796520007
20
-38.912124216919999
30
0
10
-7.3462790877530004
20
-38.907034099939999
30
0
10
-7.380387350885
20
-38.90164104166
30
0
10
-7.4175975777790004
20
-38.895783653039999
30
0
10
-7.4589618706440008
20
-38.889311844849999
30
0
10
-7.4966224008613676
20
-38.883467966882947
30
0
10
-7.5205653491073088
20
-38.879783342418698
30
0
10
-7.5291895246398477
20
-38.878460392082303
30
0
0
SPLINE
5
143
100
AcDbEntity
8
0
100
AcDbSpline
70
0
71
3
72
9
73
5
74
0
42
0.000000001
43
0.0000000001
44
0.0000000001
40
0.15165009517247913
40
0.15165009517247913
40
0.15165009517247913
40
0.15165009517247913
40
0.15828849121569999
40
0.16356384130865062
40
0.16356384130865062
40
0.16356384130865062
40
0.16356384130865062
10
-7.579043359091937
20
-38.870862376686304
30
0
10
-7.5909995545279507
20
-38.869052804613162
30
0
10
-7.6123826173902014
20
-38.865834005560068
30
0
10
-7.6336123479275573
20
-38.862674489327276
30
0
10
-7.6429899888290702
20
-38.861284990235617
30
0
0
LINE
5
144
100
AcDbEntity
8
0
100
AcDbLine
10
-7.7093719551581046
20
-38.85153702265584
30
0
11
-7.7763527448790404
21
-38.841759821256296
31
0
0
SPLINE
5
145
100
AcDbEntity
8
0
100
AcDbSpline
70
0
71
3
72
12
73
8
74
0
42
0.000000001
43
0.0000000001
44
0.0000000001
40
0.20091107454318433
40
0.20091107454318433
40
0.20091107454318433
40
0.20091107454318433
40
0.2080121202654
40
0.21896830877039999
40
0.22897604474620001
40
0.2380327161072
40
0.24552817199917351
40
0.24552817199917351
40
0.24552817199917351
40
0.24552817199917351
10
-7.8393562186118224
20
-38.832421352593748
30
0
10
-7.851578376939953
20
-38.830584740514801
30
0
10
-7.8825190841405188
20
-38.82588983582486
30
0
10
-7.929982821967001
20
-38.818452763060009
30
0
10
-7.9798225428210001
20
-38.810257447200001
30
0
10
-8.0230844725405621
20
-38.802769922609464
30
0
10
-8.0494832189294332
20
-38.797972152863736
30
0
10
-8.0612973021870467
20
-38.795774455145924
30
0
0
SPLINE
5
146
100
AcDbEntity
8
0
100
AcDbSpline
70
0
71
3
72
9
73
5
74
0
42
0.000000001
43
0.0000000001
44
0.0000000001
40
0.24908840472632546
40
0.24908840472632546
40
0.24908840472632546
40
0.24908840472632546
40
0.2536486274209
40
0.2559939924552585
40
0.2559939924552585
40
0.2559939924552585
40
0.2559939924552585
10
-8.0780339704381117
20
-38.792626212411143
30
0
10
-8.0851367307225903
20
-38.791275145043656
30
0
10
-8.0958062801573742
20
-38.789216245706271
30
0
10
-8.1063301127646454
20
-38.787140112506776
30
0
10
-8.1098870037166932
20
-38.786433084676567
30
0
0
SPLINE
5
147
100
AcDbEntity
8
0
100
AcDbSpline
70
0
71
3
72
9
73
5
74
0
42
0.000000001
43
0.0000000001
44
0.0000000001
40
0.26255091425896088
40
0.26255091425896088
40
0.26255091425896088
40
0.26255091425896088
40
0.26626155775490001
40
0.26827823137097145
40
0.26827823137097145
40
0.26827823137097145
40
0.26827823137097145
10
-8.1392971237289853
20
-38.780461210442255
30
0
10
-8.1447591069982437
20
-38.779328215661309
30
0
10
-8.1531032821822063
20
-38.777576627587102
30
0
10
-8.1612749176039205
20
-38.775830702706578
30
0
10
-8.1641301897074214
20
-38.775217108264641
30
0
0
SPLINE
5
148
100
AcDbEntity
8
0
100
AcDbSpline
70
0
71
3
72
66
73
62
74
0
42
0.000000001
43
0.0000000001
44
0.0000000001
40
0.27310271746982762
40
0.27310271746982762
40
0.27310271746982762
40
0.27310271746982762
40
0.27639275792779999
40
0.28072417098949998
40
0.28469225609229998
40
0.2883970477401
40
0.29193967658960002
40
0.29542217071650001
40
0.29891630476280001
40
0.30241937125059998
40
0.30592282660780001
40
0.30942778733479998
40
0.31298277817659997
40
0.31669004332970002
40
0.32065348014840001
40
0.32497359529530001
40
0.32974838604860002
40
0.33507475541420001
40
0.34104739386999999
40
0.34775610648819999
40
0.3551899458135
40
0.36310624426810001
40
0.37122872088289999
40
0.37927987199980001
40
0.3869817491743
40
0.39405633801579998
40
0.40029759900829998
40
0.4058797114123
40
0.41110022955769998
40
0.41625356953949999
40
0.42148915687819999
40
0.4267443862045
40
0.43197522700320001
40
0.43718723402760001
40
0.44256237627099998
40
0.44842012334140002
40
0.45508313034469999
40
0.4627381269525
40
0.47125630944109997
40
0.48046447074170001
40
0.49019121439759999
40
0.50030762941880003
40
0.51109516892530005
40
0.52306910774990001
40
0.53674341953619997
40
0.55231918374650002
40
0.56947063754100002
40
0.58785968924580001
40
0.60735651759050002
40
0.62783445192099996
40
0.64878636247429999
40
0.66968210802520001
40
0.69049934096550003
40
0.71151979573869994
40
0.73352908368449998
40
0.75740778817160004
40
0.78402506275600004
40
0.81408719388679995
40
0.84817991418930005
40
0.88664500574430005
40
0.90543426879697342
40
0.90543426879697342
40
0.90543426879697342
40
0.90543426879697342
10
-8.1842335727725768
20
-38.770839928330069
30
0
10
-8.1887128563233542
20
-38.769852380296406
30
0
10
-8.198942629015221
20
-38.767578608420486
30
0
10
-8.2139556456129998
20
-38.764184742060003
30
0
10
-8.2288492349709994
20
-38.760764241780009
30
0
10
-8.2421583828670002
20
-38.757668473499997
30
0
10
-8.2543099671649998
20
-38.754812133740003
30
0
10
-8.2656339785400021
20
-38.752126587879999
30
0
10
-8.2763111317300009
20
-38.749574937749998
30
0
10
-8.2863225370220004
20
-38.747166534990001
30
0
10
-8.2958013716379995
20
-38.74487331875001
30
0
10
-8.3048662831500017
20
-38.742669426719999
30
0
10
-8.3136207435549991
20
-38.740531876209999
30
0
10
-8.3222433271400007
20
-38.738418568740002
30
0
10
-8.3308949444849993
20
-38.736290980900002
30
0
10
-8.3396775062550006
20
-38.734124655240002
30
0
10
-8.3486266391720001
20
-38.731911320819997
30
0
10
-8.3577112060969991
20
-38.729659281860002
30
0
10
-8.3668324636159994
20
-38.727393807719999
30
0
10
-8.3757861007069998
20
-38.725166657050003
30
0
10
-8.3842220883430016
20
-38.7230660954
30
0
10
-8.3917663044689998
20
-38.721186461290003
30
0
10
-8.3981563472580021
20
-38.71959399432
30
0
10
-8.4033169302970006
20
-38.718307899979997
30
0
10
-8.4073146679280004
20
-38.717311707649998
30
0
10
-8.4103074652570005
20
-38.716566044929998
30
0
10
-8.4125258126879991
20
-38.716013418389998
30
0
10
-8.4142052841390012
20
-38.715595087979999
30
0
10
-8.4155450601070001
20
-38.715261407500002
30
0
10
-8.4166735190090023
20
-38.714980384999997
30
0
10
-8.4176567025109996
20
-38.714735563330002
30
0
10
-8.4185307516590022
20
-38.714517935819998
30
0
10
-8.4193245683509996
20
-38.714320301080001
30
0
10
-8.420083591889
20
-38.714131343379997
30
0
10
-8.4208357019280005
20
-38.713944121520001
30
0
10
-8.4216119415299993
20
-38.713750908980003
30
0
10
-8.4224370594220019
20
-38.71354554869
30
0
10
-8.4233101119049998
20
-38.713328279919999
30
0
10
-8.4242101050020004
20
-38.71310433112
30
0
10
-8.4251083931949999
20
-38.712880832190002
30
0
10
-8.4259845355770011
20
-38.712662868700001
30
0
10
-8.4268388242930001
20
-38.712450366669998
30
0
10
-8.4276927813770008
20
-38.712237972099999
30
0
10
-8.4285837756090007
20
-38.712016393070002
30
0
10
-8.4295513640149995
20
-38.711775798710008
30
0
10
-8.4306333613690008
20
-38.711506797790001
30
0
10
-8.431881581074002
20
-38.711196527929999
30
0
10
-8.4333706066489995
20
-38.710826482309997
30
0
10
-8.4352267366459994
20
-38.710365334840006
30
0
10
-8.4375119566939993
20
-38.709797795859998
30
0
10
-8.4401248647589995
20
-38.70914918727
30
0
10
-8.4429623017670004
20
-38.70844524484
30
0
10
-8.4459386560429994
20
-38.70770731604
30
0
10
-8.4490343671490002
20
-38.70694034521
30
0
10
-8.4522723801200002
20
-38.706138756100003
30
0
10
-8.4556812476819996
20
-38.705295623280008
30
0
10
-8.4592241888939999
20
-38.704420208080002
30
0
10
-8.4627353691370004
20
-38.703553595229998
30
0
10
-8.4658405573700009
20
-38.702788050190001
30
0
10
-8.4674469653882198
20
-38.702392397028042
30
0
10
-8.4676679679063902
20
-38.702337965610489
30
0
10
-8.4677165170796957
20
-38.702326008279201
30
0
0
LINE
5
149
100
AcDbEntity
8
0
100
AcDbLine
10
-5.0999999999999996
20
-49.299999999999997
30
0
11
-5.0999999999999996
21
-42.299999999999997
31
0
0
LINE
5
150
100
AcDbEntity
8
0
100
AcDbLine
10
-5.0999999999999996
20
-41.70000000000001
30
0
11
-5.0999999999999996
21
-42.299999999999997
31
0
0
LINE
5
151
100
AcDbEntity
8
0
100
AcDbLine
10
-5.0999999999999996
20
-38.650000000000006
30
-2.2204460492503131e-15
11
-5.0999999999999996
21
-41.70000000000001
31
0
0
LINE
5
152
100
AcDbEntity
8
0
100
AcDbLine
10
-5.9000000000000004
20
-41.035788825620003
30
0
11
-5.8999999999999408
21
-41.70000000000001
31
0
0
ARC
5
153
100
AcDbEntity
8
0
100
AcDbCircle
10
-6.1099080628199998
20
-40.899999999999999
30
0
40
0.25000000000000022
210
0
220
0
230
1
100
AcDbArc
50
180
51
327.10130661652596
0
LINE
5
154
100
AcDbEntity
8
0
100
AcDbLine
10
-5.9000000000000004
20
-42.300000000000004
30
0
11
-5.8999999999999408
21
-41.70000000000001
31
0
0
LINE
5
155
100
AcDbEntity
8
0
100
AcDbLine
10
-5.9000000000000004
20
-49.299999999999997
30
0
11
-5.9000000000000004
21
-42.300000000000004
31
0
0
LINE
5
156
100
AcDbEntity
8
0
100
AcDbLine
10
-5.3000000000000007
20
-50.300000000000004
30
0
11
-5.0999999999999996
21
-49.299999999999997
31
0
0
LINE
5
157
100
AcDbEntity
8
0
100
AcDbLine
10
-5.7000000000000011
20
-50.300000000000004
30
0
11
-5.3000000000000007
21
-50.300000000000004
31
0
0
LINE
5
158
100
AcDbEntity
8
0
100
AcDbLine
10
-5.7000000000000011
20
-50.300000000000004
30
0
11
-5.9000000000000004
21
-49.299999999999997
31
0
0
LINE
5
159
100
AcDbEntity
8
0
100
AcDbLine
10
-6.3599080716919998
20
-40.800000498558155
30
0
11
-6.3599080628199998
21
-40.899999999889999
31
0
0
SPLINE
5
160
100
AcDbEntity
8
0
100
AcDbSpline
70
0
71
3
72
26
73
22
74
0
42
0.000000001
43
0.0000000001
44
0.0000000001
40
0
40
0
40
0
40
0
40
0.08560891216008
40
0.08560891216008
40
0.08560891216008
40
0.28491145236240001
40
0.28491145236240001
40
0.28491145236240001
40
0.40409110083740002
40
0.40409110083740002
40
0.40409110083740002
40
0.52969033302400004
40
0.52969033302400004
40
0.52969033302400004
40
0.68031978762379997
40
0.68031978762379997
40
0.68031978762379997
40
0.84691652536439999
40
0.84691652536439999
40
0.84691652536439999
40
1
40
1
40
1
40
1
10
-6.3599080600485056
20
-40.800000498465259
30
0
10
-6.3602121439547643
20
-40.745310269239056
30
0
10
-6.3607039006288986
20
-40.690265141887345
30
0
10
-6.3624827111730085
20
-40.635321328832831
30
0
10
-6.3666238858595499
20
-40.507408927730367
30
0
10
-6.3777407081284956
20
-40.380045634030061
30
0
10
-6.3835845963381335
20
-40.252472840832603
30
0
10
-6.3870791455889595
20
-40.176186403977297
30
0
10
-6.388688175978289
20
-40.09982505340507
30
0
10
-6.3926282614092509
20
-40.023366659040171
30
0
10
-6.3967805786145018
20
-39.942789851260237
30
0
10
-6.4035218376826553
20
-39.862105263636877
30
0
10
-6.407701036526813
20
-39.782202257154232
30
0
10
-6.4127130929828962
20
-39.686375665877918
30
0
10
-6.4140401704656123
20
-39.591673211795467
30
0
10
-6.4227738116451185
20
-39.492804974888756
30
0
10
-6.4324332513142597
20
-39.38345633667862
30
0
10
-6.4511526026554229
20
-39.269011962263065
30
0
10
-6.513210462353193
20
-39.185320362482393
30
0
10
-6.5702345849129937
20
-39.108417290633611
30
0
10
-6.6638519280820372
20
-39.057480659235523
30
0
10
-6.7589274670498174
20
-39.022970011609445
30
0
0
LINE
5
161
100
AcDbEntity
8
0
100
AcDbLine
10
2.2000000000000002
20
-52.700000000000003
30
-2.2204460492503131e-15
11
2.3999999999999999
21
-51.70000000000001
31
0
0
LINE
5
162
100
AcDbEntity
8
0
100
AcDbLine
10
1.8000000000000003
20
-52.700000000000003
30
-2.2204460492503131e-15
11
2.2000000000000002
21
-52.700000000000003
31
-2.2204460492503131e-15
0
LINE
5
163
100
AcDbEntity
8
0
100
AcDbLine
10
1.8000000000000003
20
-52.700000000000003
30
-2.2204460492503131e-15
11
1.6000000000000003
21
-51.70000000000001
31
0
0
LINE
5
164
100
AcDbEntity
8
0
100
AcDbLine
10
6.4999999999999991
20
-39.651812070086677
30
-2.5130866637583336e-31
11
6.5
21
-38.650000000000006
31
2.2204460492503131e-15
0
LINE
5
165
100
AcDbEntity
8
0
100
AcDbLine
10
-2.5
20
-39.65181207008667
30
0
11
-2.5
21
-38.650000000000006
31
-2.2204460492503131e-15
0
SPLINE
5
166
100
AcDbEntity
8
0
100
AcDbSpline
70
0
71
3
72
38
73
34
74
0
42
0.000000001
43
0.0000000001
44
0.0000000001
40
0
40
0
40
0
40
0
40
0.0081367174368617776
40
0.0081367174368617776
40
0.010102802005602329
40
0.010102802005602329
40
0.010839593507305321
40
0.010839593507305321
40
0.011392160889380845
40
0.011392160889380845
40
0.011495761449422496
40
0.011495761449422496
40
0.011520850920270128
40
0.011520850920270128
40
0.011533401886782153
40
0.011533401886782153
40
0.011553820343914976
40
0.011553820343914976
40
0.011578943935541989
40
0.011578943935541989
40
0.011679303165101834
40
0.011679303165101834
40
0.012080716059756285
40
0.012080716059756285
40
0.013284954243966867
40
0.013284954243966867
40
0.016897670060647001
40
0.016897670060647001
40
0.022316746748179891
40
0.022316746748179891
40
0.03857410734250688
40
0.03857410734250688
40
0.066335997542675662
40
0.066335997542675662
40
0.066335997542675662
40
0.066335997542675662
10
-8.5699224390839372
20
-38.649999999999991
30
0
10
-8.5492637178052693
20
-38.667573882707856
30
0
10
-8.5254008371879522
20
-38.681924269631764
30
0
10
-8.4941017526262339
20
-38.694351688183879
30
0
10
-8.4879107560488833
20
-38.696532148192986
30
0
10
-8.479301707987867
20
-38.699188639790727
30
0
10
-8.4769439933652908
20
-38.699878276355932
30
0
10
-8.4728016405100366
20
-38.701023937156684
30
0
10
-8.4710208584496307
20
-38.701495330311786
30
0
10
-8.4689004031134694
20
-38.702031634517539
30
0
10
-8.4685654213958905
20
-38.702115619743665
30
0
10
-8.4681491402849449
20
-38.702219071788718
30
0
10
-8.4680679514365114
20
-38.702239205152964
30
0
10
-8.4679462480507048
20
-38.702269320630151
30
0
10
-8.4679055612650753
20
-38.702279377670436
30
0
10
-8.4677998003576871
20
-38.702305491989186
30
0
10
-8.4677439543505422
20
-38.702319249294021
30
0
10
-8.4677308972062342
20
-38.70232246608505
30
0
10
-8.4677306741956748
20
-38.702322520909604
30
0
10
-8.467724294643709
20
-38.702324092349613
30
0
10
-8.4677252655369131
20
-38.70232385315812
30
0
10
-8.4677228849148829
20
-38.70232443951619
30
0
10
-8.4677231854815496
20
-38.702324365480514
30
0
10
-8.4677213533830802
20
-38.702324816723255
30
0
10
-8.4677193108447781
20
-38.702325319794291
30
0
10
-8.4677062740590188
20
-38.702328530712656
30
0
10
-8.4676865503361611
20
-38.702333388595164
30
0
10
-8.467611151985496
20
-38.702351958938735
30
0
10
-8.4675425037140322
20
-38.702368866760509
30
0
10
-8.4671696194760635
20
-38.702460706897824
30
0
10
-8.4666804319445959
20
-38.702581176212469
30
0
10
-8.4646823232842099
20
-38.703073549898676
30
0
10
-8.4626869150118758
20
-38.703565360797086
30
0
10
-8.459803775657539
20
-38.704277237017607
30
0
0
SPLINE
5
167
100
AcDbEntity
8
0
100
AcDbSpline
70
0
71
3
72
8
73
4
74
0
42
0.000000001
43
0.0000000001
44
0.0000000001
40
0
40
0
40
0
40
0
40
0.0022816387964692143
40
0.0022816387964692143
40
0.0022816387964692143
40
0.0022816387964692143
10
-6.8058829408500854
20
-39.007224947531476
30
0
10
-6.7987952670865504
20
-39.009415805946645
30
0
10
-6.7917367029338216
20
-39.011677475109948
30
0
10
-6.7847109981640141
20
-39.014012344365788
30
0
0
LINE
5
168
100
AcDbEntity
8
0
100
AcDbLine
10
-7.1122787690776876
20
-38.944259570718039
30
0
11
-7.0917297339773322
21
-38.947516352809934
31
0
0
LINE
5
169
100
AcDbEntity
8
0
100
AcDbLine
10
-7.579043359091937
20
-38.870862376686304
30
0
11
-7.5291895246398468
21
-38.878460392082303
31
0
0
SPLINE
5
170
100
AcDbEntity
8
0
100
AcDbSpline
70
0
71
3
72
8
73
4
74
0
42
0.000000001
43
0.0000000001
44
0.0000000001
40
0
40
0
40
0
40
0
40
0.0069570141174352725
40
0.0069570141174352725
40
0.0069570141174352725
40
0.0069570141174352725
10
-7.7093719551590603
20
-38.851537022654242
30
0
10
-7.6873402449790937
20
-38.854750674710921
30
0
10
-7.6652051697431265
20
-38.857993333620868
30
0
10
-7.6429899888299921
20
-38.861284990234481
30
0
0
SPLINE
5
171
100
AcDbEntity
8
0
100
AcDbSpline
70
0
71
3
72
8
73
4
74
0
42
0.000000001
43
0.0000000001
44
0.0000000001
40
0
40
0
40
0
40
0
40
0.0067489764333827883
40
0.0067489764333827883
40
0.0067489764333827883
40
0.0067489764333827883
10
-7.8393562186131813
20
-38.832421352593343
30
0
10
-7.8185055701722472
20
-38.835554559653545
30
0
10
-7.7974911516955334
20
-38.838660109193874
30
0
10
-7.7763527448798548
20
-38.841759821252928
30
0
0
LINE
5
172
100
AcDbEntity
8
0
100
AcDbLine
10
-8.0780339704381117
20
-38.792626212411143
30
0
11
-8.0612973021870467
21
-38.795774455145924
31
0
0
SPLINE
5
173
100
AcDbEntity
8
0
100
AcDbSpline
70
0
71
3
72
8
73
4
74
0
42
0.000000001
43
0.0000000001
44
0.0000000001
40
0
40
0
40
0
40
0
40
0.0036032252388586662
40
0.0036032252388586662
40
0.0036032252388586662
40
0.0036032252388586662
10
-8.139297123730536
20
-38.780461210439718
30
0
10
-8.1296166330510449
20
-38.782469262253734
30
0
10
-8.1198022870670012
20
-38.784462155184222
30
0
10
-8.1098870037186597
20
-38.786433084676432
30
0
0
LINE
5
174
100
AcDbEntity
8
0
100
AcDbLine
10
-8.1842335727725768
20
-38.770839928330069
30
0
11
-8.1641301897074232
21
-38.775217108264641
31
0
0
SPLINE
5
175
100
AcDbEntity
8
0
100
AcDbSpline
70
0
71
3
72
8
73
4
74
0
42
0.000000001
43
0.0000000001
44
0.0000000001
40
0.00051057646093254929
40
0.00051057646093254929
40
0.00051057646093254929
40
0.00051057646093254929
40
0.038762079324706426
40
0.038762079324706426
40
0.038762079324706426
40
0.038762079324706426
10
-8.1098869325015137
20
-38.786432726399688
30
0
10
-8.0046341926707214
20
-38.807342735046745
30
0
10
-7.8871638082021436
20
-38.825544296887188
30
0
10
-7.7671509452944782
20
-38.843107632711778
30
0
0
ENDSEC
0
SECTION
2
OBJECTS
0
DICTIONARY
5
C
100
AcDbDictionary
3
ACAD_GROUP
350
D
3
ACAD_MLINESTYLE
350
17
0
DICTIONARY
5
D
100
AcDbDictionary
0
DICTIONARY
5
1A
330
C
100
AcDbDictionary
0
DICTIONARY
5
17
100
AcDbDictionary
0
ENDSEC
0
EOF
