0
SECTION
2
HEADER
9
$INSUNITS
70
4
9
$ACADVER
1
AC1014
9
$HANDSEED
5
FFFF
0
ENDSEC
0
SECTION
2
TABLES
0
TABLE
2
VPORT
5
8
100
AcDbSymbolTable
0
ENDTAB
0
TABLE
2
LTYPE
5
5
100
AcDbSymbolTable
0
LTYPE
5
14
100
AcDbSymbolTableRecord
100
AcDbLinetypeTableRecord
2
BYBLOCK
70
0
0
LTYPE
5
15
100
AcDbSymbolTableRecord
100
AcDbLinetypeTableRecord
2
BYLAYER
70
0
0
LTYPE
5
16
100
AcDbSymbolTableRecord
100
AcDbLinetypeTableRecord
2
DASHED
70
0
3
Dashed __ __ __ __ __ __ __ __ __ __ __ __ __ _
72
65
73
2
40
0.75
49
0.5
74
0
49
-0.25
74
0
0
ENDTAB
0
TABLE
2
LAYER
5
2
100
AcDbSymbolTable
70
2
0
LAYER
5
50
100
AcDbSymbolTableRecord
100
AcDbLayerTableRecord
2
0
70
0
62
7
6
CONTINUOUS
0
ENDTAB
0
TABLE
2
STYLE
5
3
100
AcDbSymbolTable
70
1
0
STYLE
5
11
100
AcDbSymbolTableRecord
100
AcDbTextStyleTableRecord
2
STANDARD
70
0
0
ENDTAB
0
TABLE
2
VIEW
5
6
100
AcDbSymbolTable
70
0
0
ENDTAB
0
TABLE
2
UCS
5
7
100
AcDbSymbolTable
70
0
0
ENDTAB
0
TABLE
2
APPID
5
9
100
AcDbSymbolTable
70
2
0
APPID
5
12
100
AcDbSymbolTableRecord
100
AcDbRegAppTableRecord
2
ACAD
70
0
0
ENDTAB
0
TABLE
2
DIMSTYLE
5
A
100
AcDbSymbolTable
70
1
0
ENDTAB
0
TABLE
2
BLOCK_RECORD
5
1
100
AcDbSymbolTable
70
1
0
BLOCK_RECORD
5
1F
100
AcDbSymbolTableRecord
100
AcDbBlockTableRecord
2
*MODEL_SPACE
0
BLOCK_RECORD
5
1B
100
AcDbSymbolTableRecord
100
AcDbBlockTableRecord
2
*PAPER_SPACE
0
ENDTAB
0
ENDSEC
0
SECTION
2
BLOCKS
0
BLOCK
5
20
100
AcDbEntity
100
AcDbBlockBegin
2
*MODEL_SPACE
0
ENDBLK
5
21
100
AcDbEntity
100
AcDbBlockEnd
0
BLOCK
5
1C
100
AcDbEntity
100
AcDbBlockBegin
2
*PAPER_SPACE
0
ENDBLK
5
1D
100
AcDbEntity
100
AcDbBlockEnd
0
ENDSEC
0
SECTION
2
ENTITIES
0
LWPOLYLINE
5
100
100
AcDbEntity
8
0
100
AcDbPolyline
90
4
70
1
43
0.0
10
-2.5750000000000002
20
0
10
-2.5750000000000002
20
1.4683999999999999
10
-51.5
20
1.4683999999999999
10
-51.5
20
0
0
LINE
5
101
100
AcDbEntity
8
0
100
AcDbLine
10
-46.290000000000006
20
1.7033999999999998
30
0
11
-46.290000000000006
21
2.4034
31
0
0
LINE
5
102
100
AcDbEntity
8
0
100
AcDbLine
10
-42.090000000000003
20
1.7033999999999998
30
0
11
-43.890000000000001
21
1.7033999999999998
31
0
0
LINE
5
103
100
AcDbEntity
8
0
100
AcDbLine
10
-39.690000000000005
20
1.7033999999999998
30
0
11
-39.690000000000005
21
2.7033999999999998
31
0
0
LINE
5
104
100
AcDbEntity
8
0
100
AcDbLine
10
-46.077770876399967
20
2.4034
30
0
11
-46.290000000000006
21
2.4034
31
0
0
LINE
5
105
100
AcDbEntity
8
0
100
AcDbLine
10
-46.290000000000006
20
1.7033999999999998
30
0
11
-46.890000000000001
21
1.7033999999999998
31
0
0
LINE
5
106
100
AcDbEntity
8
0
100
AcDbLine
10
-39.840000000000003
20
2.7034000000000002
30
0
11
-39.690000000000005
21
2.7033999999999998
31
0
0
LINE
5
107
100
AcDbEntity
8
0
100
AcDbLine
10
-39.090000000000003
20
1.7033999999999998
30
0
11
-39.690000000000005
21
1.7033999999999998
31
0
0
LINE
5
108
100
AcDbEntity
8
0
100
AcDbLine
10
-43.890000000000001
20
1.5534000000000001
30
0
11
-44.215000000000003
21
1.5534000000000001
31
0
0
LINE
5
109
100
AcDbEntity
8
0
100
AcDbLine
10
-44.215000000000003
20
1.5534000000000001
30
0
11
-46.890000000000001
21
1.5534000000000001
31
0
0
LINE
5
110
100
AcDbEntity
8
0
100
AcDbLine
10
-46.890000000000001
20
1.5534000000000001
30
0
11
-46.890000000000001
21
1.7033999999999998
31
0
0
LINE
5
111
100
AcDbEntity
8
0
100
AcDbLine
10
-39.090000000000003
20
1.5534000000000001
30
0
11
-39.090000000000003
21
1.7033999999999998
31
0
0
LINE
5
112
100
AcDbEntity
8
0
100
AcDbLine
10
-39.090000000000003
20
1.5534000000000001
30
0
11
-41.765000000000001
21
1.5534000000000001
31
0
0
LINE
5
113
100
AcDbEntity
8
0
100
AcDbLine
10
-41.765000000000001
20
1.5534000000000001
30
0
11
-42.090000000000003
21
1.5534000000000001
31
0
0
LINE
5
114
100
AcDbEntity
8
0
100
AcDbLine
10
-45.719999999999999
20
9.253400000000001
30
0
11
-40.260000000000005
21
9.253400000000001
31
0
0
LINE
5
115
100
AcDbEntity
8
0
100
AcDbLine
10
-39.840000000000003
20
2.7034000000000002
30
0
11
-39.840000000000003
21
3.456668122105
31
0
0
LINE
5
116
100
AcDbEntity
8
0
100
AcDbLine
10
-46.140000000000008
20
2.6234000000000002
30
0
11
-46.140000000000008
21
3.456668122105
31
0
0
ARC
5
117
100
AcDbEntity
8
0
100
AcDbCircle
10
-45.719999999999999
20
2.6234000000000002
30
0
40
0.42000000000000703
210
0
220
0
230
1
100
AcDbArc
50
180
51
211.58813550520105
0
SPLINE
5
118
100
AcDbEntity
8
0
100
AcDbSpline
70
0
71
3
72
16
73
12
74
0
42
0.000000001
43
0.0000000001
44
0.0000000001
40
0
40
0
40
0
40
0
40
0.00098513418498452263
40
0.00098513418498452263
40
0.0019894936655221068
40
0.0019894936655221068
40
0.0029931750546671942
40
0.0029931750546671942
40
0.0039968805860564841
40
0.0039968805860564841
40
0.0046431563608947176
40
0.0046431563608947176
40
0.0046431563608947176
40
0.0046431563608947176
10
-46.11136363636399
20
3.488037686762
30
0
10
-46.11463381948694
20
3.4877391612514055
30
0
10
-46.11789541206128
20
3.4869131125552677
30
0
10
-46.123990404754444
20
3.4842997264769866
30
0
10
-46.126889987451079
20
3.4824608839031521
30
0
10
-46.131898824335423
20
3.478020828960728
30
0
10
-46.134070961547174
20
3.4753648864213043
30
0
10
-46.137427783959382
20
3.4695765272745209
30
0
10
-46.138654225386162
20
3.4663720543069849
30
0
10
-46.139776677608026
20
3.4609878723287055
30
0
10
-46.140000000000001
20
3.4588223746877942
30
0
10
-46.140000000000001
20
3.456668122105
30
0
0
SPLINE
5
119
100
AcDbEntity
8
0
100
AcDbSpline
70
0
71
3
72
16
73
12
74
0
42
0.000000001
43
0.0000000001
44
0.0000000001
40
0
40
0
40
0
40
0
40
0.00098513797734626411
40
0.00098513797734626411
40
0.0019895014366238745
40
0.0019895014366238745
40
0.0029931844006136745
40
0.0029931844006136745
40
0.0039968876170139653
40
0.0039968876170139653
40
0.0046431468536858745
40
0.0046431468536858745
40
0.0046431468536858745
40
0.0046431468536858745
10
-39.840013619932201
20
3.4566681221050004
30
0
10
-39.840013619932179
20
3.4599519153628218
30
0
10
-39.840539741382685
20
3.4632751104946773
30
0
10
-39.842588223583803
20
3.4695824702405762
30
0
10
-39.84415586017677
20
3.4726372261374046
30
0
10
-39.848122195974234
20
3.4780289756666565
30
0
10
-39.850569680612409
20
3.4804335694505455
30
0
10
-39.856028911345582
20
3.4843026940420421
30
0
10
-39.859108617574741
20
3.4858153622936006
30
0
10
-39.864368408657086
20
3.4874226024950121
30
0
10
-39.866504582482385
20
3.4878418497899224
30
0
10
-39.868649859750704
20
3.488037686762
30
0
0
ARC
5
120
100
AcDbEntity
8
0
100
AcDbCircle
10
-46.140000000000008
20
3.8017333333330008
30
0
40
0.31499999999982875
210
-0
220
0
230
1
100
AcDbArc
50
-84.784091429606207
51
84.784091429607727
0
ARC
5
121
100
AcDbEntity
8
0
100
AcDbCircle
10
-39.840000000000003
20
3.8017333333329995
30
0
40
0.315
210
0
220
0
230
1
100
AcDbArc
50
95.218353222624529
51
264.78164677738499
0
SPLINE
5
122
100
AcDbEntity
8
0
100
AcDbSpline
70
0
71
3
72
16
73
12
74
0
42
0.000000001
43
0.0000000001
44
0.0000000001
40
0
40
0
40
0
40
0
40
0.00098513418502900376
40
0.00098513418502900376
40
0.0019894936656143364
40
0.0019894936656143364
40
0.0029931750548182513
40
0.0029931750548182513
40
0.0039968805862556789
40
0.0039968805862556789
40
0.0046431563609493336
40
0.0046431563609493336
40
0.0046431563609493336
40
0.0046431563609493336
10
-46.140000000000001
20
4.1467985445620004
30
0
10
-46.140000000000001
20
4.1435147639452365
30
0
10
-46.139473880225879
20
4.1401915816520605
30
0
10
-46.137425405913255
20
4.1338842465794228
30
0
10
-46.135857776053982
20
4.1308295029811175
30
0
10
-46.13189145531868
20
4.1254377653525633
30
0
10
-46.129443977537278
20
4.1230331732145196
30
0
10
-46.123984752527853
20
4.1191640362796909
30
0
10
-46.120905043331518
20
4.1176513575827398
30
0
10
-46.11564519730976
20
4.1160440821273614
30
0
10
-46.113508968607434
20
4.1156248210479163
30
0
10
-46.11136363636399
20
4.1154289799040003
30
0
0
SPLINE
5
123
100
AcDbEntity
8
0
100
AcDbSpline
70
0
71
3
72
16
73
12
74
0
42
0.000000001
43
0.0000000001
44
0.0000000001
40
0
40
0
40
0
40
0
40
0.0009851264433041317
40
0.0009851264433041317
40
0.0019894780507987578
40
0.0019894780507987578
40
0.0029931545420563317
40
0.0029931545420563317
40
0.0039968592164847626
40
0.0039968592164847626
40
0.0046431470271855596
40
0.0046431470271855596
40
0.0046431470271855596
40
0.0046431470271855596
10
-39.868649859750974
20
4.1154289799040003
30
0
10
-39.86537970244364
20
4.1157275043487749
30
0
10
-39.862118135947924
20
4.1165535482630231
30
0
10
-39.856023192043864
20
4.1191669160501796
30
0
10
-39.853123632833331
20
4.1210057444503976
30
0
10
-39.848114825179273
20
4.1254457681928285
30
0
10
-39.845942696559213
20
4.128101695243914
30
0
10
-39.84258587290654
20
4.1338900314961311
30
0
10
-39.841359425632632
20
4.1370944984556504
30
0
10
-39.840236949724982
20
4.1424787135602035
30
0
10
-39.840013619932073
20
4.1446442518592974
30
0
10
-39.840013619932087
20
4.1467985445616335
30
0
0
LINE
5
124
100
AcDbEntity
8
0
100
AcDbLine
10
-39.840000000000003
20
4.1467985445620004
30
0
11
-39.840000000000003
21
8.833400000000001
31
0
0
LINE
5
125
100
AcDbEntity
8
0
100
AcDbLine
10
-46.140000000000001
20
4.1467985445620004
30
0
11
-46.140000000000008
21
8.833400000000001
31
0
0
LINE
5
126
100
AcDbEntity
8
0
100
AcDbLine
10
-43.890000000000001
20
1.7033999999999998
30
0
11
-43.890000000000001
21
1.5534000000000001
31
0
0
LINE
5
127
100
AcDbEntity
8
0
100
AcDbLine
10
-42.090000000000003
20
1.7033999999999998
30
0
11
-42.090000000000003
21
1.5534000000000001
31
0
0
ARC
5
128
100
AcDbEntity
8
0
100
AcDbCircle
10
-45.719999999999999
20
8.833400000000001
30
0
40
0.41999999999999926
210
0
220
-0
230
1
100
AcDbArc
50
90
51
180
0
ARC
5
129
100
AcDbEntity
8
0
100
AcDbCircle
10
-40.260000000000005
20
8.833400000000001
30
0
40
0.42000000000000259
210
0
220
0
230
1
100
AcDbArc
50
0
51
90
0
LWPOLYLINE
5
130
100
AcDbEntity
8
0
100
AcDbPolyline
90
8
70
1
43
0.0
10
-51.040000000000006
20
1.5934000000000001
10
-51.040000000000006
20
3.1134000000000004
42
0.41421356237309503
10
-51.080000000000013
20
3.1534000000000004
10
-52.600000000000009
20
3.1534000000000004
42
0.41421356237304624
10
-52.639999999999993
20
3.1134000000000004
10
-52.640000000000001
20
1.5934000000000001
42
0.41421356237309503
10
-52.600000000000009
20
1.5534000000000001
10
-51.080000000000013
20
1.5534000000000001
42
0.4142135623731113
0
LWPOLYLINE
5
131
100
AcDbEntity
8
0
100
AcDbPolyline
90
8
70
1
43
0.0
10
-48.540000000000006
20
1.5934000000000001
10
-48.540000000000006
20
3.1134000000000004
42
0.41421356237309503
10
-48.580000000000013
20
3.1534000000000004
10
-50.100000000000009
20
3.1534000000000004
42
0.41421356237304624
10
-50.139999999999993
20
3.1134000000000004
10
-50.140000000000001
20
1.5934000000000001
42
0.41421356237309503
10
-50.100000000000009
20
1.5534000000000001
10
-48.580000000000013
20
1.5534000000000001
42
0.4142135623731113
0
LWPOLYLINE
5
132
100
AcDbEntity
8
0
100
AcDbPolyline
90
12
70
1
43
0.0
10
-49.579999999999998
20
2.6534000000000004
10
-52.880000000000003
20
2.6534000000000004
10
-52.880000000000003
20
1.6034000000000002
10
-52.375
20
1.6033999999999997
10
-52.034999999999997
20
1.6033999999999997
10
-51.725000000000001
20
1.6033999999999997
10
-51.385000000000005
20
1.6034000000000002
10
-51.075000000000003
20
1.6034000000000002
10
-50.734999999999999
20
1.6034000000000002
10
-50.425000000000004
20
1.6034000000000002
10
-50.085000000000008
20
1.6034000000000002
10
-49.579999999999998
20
1.6034000000000002
0
LWPOLYLINE
5
133
100
AcDbEntity
8
0
100
AcDbPolyline
90
30
70
1
43
0.0
10
-54
20
0
10
-54
20
1.4683999999999999
10
-51.5
20
1.4683999999999999
10
-34.900000000000006
20
1.4683999999999999
10
-34.399999999999999
20
1.4683999999999999
10
-33.899999999999999
20
1.4683999999999999
10
-27.699999999999999
20
1.4683999999999999
10
-27.199999999999804
20
1.4683999999999999
10
-26.25
20
1.4683999999999999
10
-25.300000000000004
20
1.4683999999999999
10
-24.800000000000004
20
1.4683999999999999
10
-14.6
20
1.4683999999999999
10
-14.100000000000001
20
1.4683999999999999
10
-13.600000000000001
20
1.4683999999999999
10
-2.5750000000000002
20
1.4683999999999999
10
-0.074999999999998956
20
1.4683999999999999
10
-0.074999999999998956
20
0
10
-2.5750000000000006
20
0
10
-13.600000000000001
20
0
10
-14.100000000000001
20
0
10
-14.6
20
0
10
-24.800000000000004
20
0
10
-25.300000000000203
20
0
10
-26.25
20
0
10
-27.200000000000003
20
0
10
-27.699999999999999
20
0
10
-33.899999999999999
20
0
10
-34.399999999999999
20
0
10
-34.900000000000006
20
0
10
-51.5
20
0
0
LWPOLYLINE
5
134
100
AcDbEntity
8
0
100
AcDbPolyline
90
34
70
1
43
0.0
10
-32.223851542557
20
-0.18500000000000016
10
-32.273175771277998
20
-0.18500000000000016
10
-33.591824228722004
20
-0.18500000000000019
10
-33.641148457443002
20
-0.18500000000000019
10
-33.732500000000002
20
-0.8350000000000003
10
-33.782499999999999
20
-0.83499999999983576
42
-0.363970234265238
10
-33.880980775300998
20
-0.75236481776700004
10
-33.956828854029993
20
-0.29158795558299916
42
0.36397023426589881
10
-34.203030792283002
20
-0.085000000000000145
10
-34.332500000000003
20
-0.085000000000000145
10
-34.332500000000003
20
-0.23500000000000015
10
-34.203030792283002
20
-0.23500000000016064
42
-0.3639702342652511
10
-34.104550016982003
20
-0.31763518223300014
10
-34.028701938253
20
-0.77841204441700118
42
0.36397023426589337
10
-33.782499999999999
20
-0.98500000000000032
10
-33.732500000000002
20
-0.98500000000000032
10
-33.707500000000003
20
-0.98500000000000032
10
-33.616148457443003
20
-1.6350000000000007
10
-33.579324228722001
20
-1.6350000000000007
10
-32.285675771278001
20
-1.6350000000000007
10
-32.248851542556999
20
-1.6350000000000007
10
-32.157499999999999
20
-0.98500000000000032
10
-32.1325
20
-0.98500000000000032
10
-32.082500000000003
20
-0.9850000000000001
42
0.36397023426589031
10
-31.836298061747254
20
-0.77841204441695844
10
-31.760449983018159
20
-0.31763518223297138
42
-0.36397023426524328
10
-31.661969207717
20
-0.23500000000000015
10
-31.532499999999999
20
-0.23500000000000015
10
-31.532499999999999
20
-0.085000000000000145
10
-31.661969207717
20
-0.085000000000000075
42
0.36397023426589326
10
-31.908171145969746
20
-0.29158795558304174
10
-31.984019224698841
20
-0.75236481776702935
42
-0.36397023426523573
10
-32.082500000000003
20
-0.83500000000000019
10
-32.1325
20
-0.8350000000000003
0
LWPOLYLINE
5
135
100
AcDbEntity
8
0
100
AcDbPolyline
90
18
70
1
43
0.0
10
-23.949999999999999
20
-0.14500000000000018
10
-23.949999999999999
20
-0.62500000000000022
42
0.41421356237309503
10
-23.890000000000001
20
-0.68500000000000016
10
-23.410000000000004
20
-0.68500000000000028
42
0.41421356237311335
10
-23.350000000000005
20
-0.62500000000000022
10
-23.350000000000001
20
-0.68500000000000016
10
-18.25
20
-0.68500000000000016
10
-18.25
20
-0.62500000000000022
42
0.41421356237308421
10
-18.190000000000001
20
-0.68500000000000016
10
-17.710000000000001
20
-0.68500000000000028
42
0.41421356237309098
10
-17.650000000000002
20
-0.62500000000000022
10
-17.650000000000002
20
-0.14500000000000018
42
0.41421356237309503
10
-17.710000000000001
20
-0.0850000000000002
10
-18.190000000000001
20
-0.0850000000000002
42
0.41421356237306445
10
-18.25
20
-0.14500000000000018
10
-23.350000000000005
20
-0.14500000000000018
42
0.41421356237309503
10
-23.410000000000004
20
-0.0850000000000002
10
-23.890000000000001
20
-0.0850000000000002
42
0.4142135623731138
0
LWPOLYLINE
5
136
100
AcDbEntity
8
0
100
AcDbPolyline
90
8
70
1
43
0.0
10
-15.510000000000002
20
-0.11500000000000007
10
-15.510000000000003
20
-0.8550000000000002
42
-0.41421356237311402
10
-15.540000000000003
20
-0.88500000000000023
10
-16.280000000000001
20
-0.88499999999999912
42
-0.41421356237309503
10
-16.309999999999999
20
-0.8550000000000002
10
-16.309999999999999
20
-0.11499999999999996
42
-0.4142135623731138
10
-16.280000000000001
20
-0.084999999999999964
10
-15.540000000000003
20
-0.08499999999999891
42
-0.4142135623730952
0
LWPOLYLINE
5
137
100
AcDbEntity
8
0
100
AcDbPolyline
90
8
70
1
43
0.0
10
-13.920000000000002
20
-0.11500000000000007
10
-13.920000000000003
20
-0.8550000000000002
42
-0.41421356237314655
10
-13.950000000000003
20
-0.88500000000000023
10
-14.690000000000001
20
-0.88499999999999912
42
-0.41421356237309503
10
-14.719999999999999
20
-0.8550000000000002
10
-14.719999999999999
20
-0.11499999999999996
42
-0.41421356237314633
10
-14.690000000000001
20
-0.084999999999999964
10
-13.950000000000003
20
-0.08499999999999891
42
-0.4142135623730952
0
LWPOLYLINE
5
138
100
AcDbEntity
8
0
100
AcDbPolyline
90
18
70
1
43
0.0
10
-6.1000000000000014
20
-0.14000000000000012
10
-6.1000000000000014
20
-0.58000000000000007
42
0.41421356237309503
10
-6.0449999999999999
20
-0.63500000000000012
10
-5.7549999999999999
20
-0.63500000000000012
42
0.41421356237310136
10
-5.700000000000002
20
-0.58000000000000007
10
-5.6999999999999993
20
-0.63500000000000012
10
-3.3000000000000003
20
-0.63500000000000012
10
-3.3000000000000003
20
-0.58000000000000007
42
0.41421356237309503
10
-3.2450000000000001
20
-0.63500000000000012
10
-2.9550000000000001
20
-0.63500000000000012
42
0.41421356237309914
10
-2.8999999999999999
20
-0.58000000000000007
10
-2.8999999999999999
20
-0.1400000000000001
42
0.41421356237309503
10
-2.9550000000000001
20
-0.085000000000000103
10
-3.2450000000000001
20
-0.085000000000000103
42
0.41421356237309309
10
-3.3000000000000007
20
-0.1400000000000001
10
-5.7000000000000011
20
-0.1400000000000001
42
0.41421356237310097
10
-5.7550000000000008
20
-0.085000000000000103
10
-6.0449999999999999
20
-0.085000000000000103
42
0.41421356237309931
0
LWPOLYLINE
5
139
100
AcDbEntity
8
0
100
AcDbPolyline
90
18
70
1
43
0.0
10
-6.8500000000000005
20
-0.12000000000000004
10
-6.8500000000000005
20
-0.40000000000000008
42
0.41421356237308515
10
-6.8150000000000013
20
-0.43499999999999994
10
-6.6849999999999996
20
-0.43500000000000005
42
0.41421356237309503
10
-6.6500000000000004
20
-0.40000000000000002
10
-6.6500000000000004
20
-0.43499999999999994
10
-6.0499999999999998
20
-0.43499999999999994
10
-6.0499999999999998
20
-0.40000000000000002
42
0.41421356237310436
10
-6.0149999999999988
20
-0.43499999999999994
10
-5.8849999999999998
20
-0.43500000000000005
42
0.41421356237309914
10
-5.8499999999999996
20
-0.40000000000000008
10
-5.8500000000000005
20
-0.12000000000000004
42
0.41421356237309503
10
-5.8849999999999998
20
-0.085000000000000048
10
-6.0149999999999988
20
-0.085000000000000048
42
0.41421356237310358
10
-6.0499999999999998
20
-0.12000000000000004
10
-6.6500000000000004
20
-0.12000000000000004
42
0.41421356237310436
10
-6.6850000000000005
20
-0.085000000000000048
10
-6.8150000000000013
20
-0.085000000000000048
42
0.41421356237308971
0
LWPOLYLINE
5
140
100
AcDbEntity
8
0
100
AcDbPolyline
90
18
70
1
43
0.0
10
-8.7899999999999991
20
-0.12000000000000004
10
-8.7899999999999991
20
-0.40000000000000008
42
0.41421356237308515
10
-8.7550000000000008
20
-0.43499999999999994
10
-8.625
20
-0.43500000000000005
42
0.41421356237309503
10
-8.5899999999999999
20
-0.40000000000000002
10
-8.5899999999999999
20
-0.43499999999999994
10
-7.9899999999999993
20
-0.43499999999999994
10
-7.9899999999999993
20
-0.40000000000000002
42
0.41421356237310436
10
-7.9549999999999983
20
-0.43499999999999994
10
-7.8249999999999993
20
-0.43500000000000005
42
0.41421356237309914
10
-7.7899999999999991
20
-0.40000000000000008
10
-7.79
20
-0.12000000000000004
42
0.41421356237309503
10
-7.8249999999999993
20
-0.085000000000000048
10
-7.9549999999999983
20
-0.085000000000000048
42
0.41421356237310358
10
-7.9899999999999993
20
-0.12000000000000004
10
-8.5899999999999999
20
-0.12000000000000004
42
0.41421356237310436
10
-8.625
20
-0.085000000000000048
10
-8.7550000000000008
20
-0.085000000000000048
42
0.41421356237308971
0
LWPOLYLINE
5
141
100
AcDbEntity
8
0
100
AcDbPolyline
90
8
70
1
43
0.0
10
-10.5
20
-0.12000000000000004
10
-10.5
20
-0.085000000000000048
10
-10.000000000000002
20
-0.084999999999999964
10
-10.000000000000002
20
-0.11999999999999997
10
-10.000000000000002
20
-0.40000000000000002
10
-10.000000000000002
20
-0.43500000000000005
10
-10.5
20
-0.43500000000000005
10
-10.5
20
-0.40000000000000008
0
LWPOLYLINE
5
142
100
AcDbEntity
8
0
100
AcDbPolyline
90
59
70
1
43
0.0
10
-4.3600000000000003
20
1.6533999999999995
10
-4.2999999999999998
20
1.6533999999999995
10
-4.1500000000000004
20
1.6534
10
-2.0999999999999992
20
1.6534000000000046
10
-2.1000000000000023
20
1.553400000000005
10
-2.0999999999999996
20
0.41892506059600021
42
0.041310645148084857
10
-2.0727878476642121
20
0.090127085985964722
10
-2.027853367089814
20
-0.17947979746096909
42
0.36662936470182989
10
-1.8305745823229993
20
-0.34660000000000035
10
-1.5694254176769995
20
-0.34660000000000013
42
0.36662936470182955
10
-1.3721466329095575
20
-0.17947979746107359
10
-1.3272121523356037
20
0.09012708598593544
42
0.04131064514808571
10
-1.3000000000000012
20
0.41892506059600015
10
-1.3000000000000023
20
1.5534000000000037
10
-1.2999999999999994
20
1.6534000000000031
10
-0.49999999999999989
20
1.6534000000000022
10
-0.49999999999999994
20
1.6034000000000006
10
-0.44999999999999973
20
1.5534000000000021
10
-0.099999999999999881
20
1.5534000000000014
10
0.25000000000000017
20
1.5534000000000008
10
0.30000000000000021
20
1.6033999999999995
10
0.30000000000000027
20
1.6534000000000009
10
0.90000000000000024
20
1.6534000000000002
10
0.90000000000000069
20
1.9534000000000002
10
0.9000000000000008
20
2.9034000000000004
10
0.9000000000000008
20
3.5633999999999997
10
0.8999999999999998
20
4.5133999999999999
10
0.90000000000000024
20
4.8133999999999997
10
-4.7000000000000002
20
4.8134000000000086
10
-4.8250000000000002
20
4.8133999999999997
10
-4.875
20
4.8133999999999988
10
-5
20
4.8133999999999997
10
-5.5
20
4.8133999999999988
10
-5.6199220984567058
20
4.8133999999999997
10
-5.7800779015436463
20
4.8133999999999997
10
-5.8999999999999995
20
4.8134000000000015
10
-5.8999999999999986
20
4.5133999999999999
10
-5.8999999999999995
20
3.5633999999999997
10
-5.8999999999999995
20
3.2034000000000002
10
-5.9000000000000021
20
1.5534000000000106
10
-5.8999999999999986
20
0.41892506059600021
42
0.041310645148084857
10
-5.8727878476642124
20
0.090127085985964722
10
-5.8278533670898147
20
-0.17947979746096909
42
0.36662936470182711
10
-5.6305745823229998
20
-0.34660000000000035
10
-5.3694254176769993
20
-0.34660000000000013
42
0.36662936470182955
10
-5.1721466329095573
20
-0.17947979746107359
10
-5.1272121523356038
20
0.090127085985935509
42
0.041310645148089083
10
-5.1000000000000023
20
0.41892506059599988
10
-5.1000000000000023
20
1.5534000000000092
10
-5.100000000000005
20
3.0534000000000008
42
-0.41421356237309614
10
-4.9499999999999993
20
3.2034000000000047
10
-4.8999999999999995
20
3.2034000000000007
42
-0.41421356237309503
10
-4.7499999999999991
20
3.0534000000000008
10
-4.7499999999999991
20
2.9034000000000004
10
-4.75
20
2.3630194077710005
10
-4.7499999999999991
20
2.1508873734149949
10
-4.75
20
1.8008873734152115
10
-4.75
20
1.6534000000000002
10
-4.4500000000000011
20
1.6534000000000002
0
LWPOLYLINE
5
143
100
AcDbEntity
8
0
100
AcDbPolyline
90
7
70
1
43
0.0
10
-0.95000000000000084
20
1.9534000000000029
10
-1.2999999999999994
20
1.9534000000000031
10
-1.3000000000000007
20
3.0034000000000001
42
-0.41421356237309503
10
-1.1499999999999995
20
3.1534000000000013
10
-1.0999999999999996
20
3.1533999999999995
42
-0.41421356237309398
10
-0.94999999999999973
20
3.0034000000000005
10
-0.94999999999999984
20
2.9034000000000004
0
LWPOLYLINE
5
144
100
AcDbEntity
8
0
100
AcDbPolyline
90
7
70
1
43
0.0
10
-2.0999999999999992
20
1.9534000000000047
10
-2.4499999999999993
20
1.9534000000000049
10
-2.4499999999999997
20
2.9034000000000004
10
-2.4500000000000024
20
3.0034000000000001
42
-0.41421356237309614
10
-2.2999999999999994
20
3.1534000000000035
10
-2.2499999999999996
20
3.1534000000000004
42
-0.41421356237309503
10
-2.0999999999999996
20
3.0034000000000005
0
LWPOLYLINE
5
145
100
AcDbEntity
8
0
100
AcDbPolyline
90
16
70
1
43
0.0
10
-6.1000000000000014
20
3.1134000000000004
10
-6.1000000000000014
20
3.1534000000000004
10
-5.7000000000000011
20
3.1534000000000004
10
-5.6999999999999993
20
3.1134000000000004
10
-3.2999999999999998
20
3.1134000000000004
10
-3.3000000000000003
20
3.1534000000000004
10
-2.8999999999999999
20
3.1534000000000004
10
-2.8999999999999999
20
3.1134000000000004
10
-2.8999999999999999
20
1.5934000000000001
10
-2.8999999999999999
20
1.5534000000000001
10
-3.3000000000000003
20
1.5534000000000001
10
-3.2999999999999998
20
1.5934000000000001
10
-5.6999999999999993
20
1.5934000000000001
10
-5.7000000000000011
20
1.5534000000000001
10
-6.1000000000000014
20
1.5534000000000001
10
-6.1000000000000014
20
1.5934000000000001
0
LWPOLYLINE
5
146
100
AcDbEntity
8
0
100
AcDbPolyline
90
34
70
1
43
0.0
10
-9.8966215517580007
20
1.6534000000000002
10
-8.5533784482420003
20
1.6534000000000002
10
-8.4917568964839987
20
1.6534000000000002
10
-8.4249999999999989
20
2.1284000000000001
10
-8.375
20
2.1283999999998358
42
-0.363970234265238
10
-8.2765192246989994
20
2.045764817767
10
-8.2315283675940041
20
1.7599879555829989
42
0.36397023426589331
10
-7.9853264293409998
20
1.5534000000000001
10
-7.8249999999999993
20
1.5534000000000001
10
-7.8249999999999993
20
1.7033999999999998
10
-7.9853264293409998
20
1.7034000000001648
42
-0.36397023426523717
10
-8.0838072046419995
20
1.7860351822330001
10
-8.1287980617469948
20
2.0718120444170012
42
0.36397023426589359
10
-8.375
20
2.2784
10
-8.4250000000000007
20
2.2784
10
-8.4499999999999993
20
2.2784
10
-8.516756896483999
20
2.7534000000000001
10
-8.5658784482419996
20
2.7534000000000001
10
-9.8841215517579997
20
2.7534000000000001
10
-9.9332431035160003
20
2.7533999999999996
10
-10
20
2.2784
10
-10.024999999999999
20
2.2784
10
-10.075000000000001
20
2.2784
42
0.36397023426588659
10
-10.321201938252642
20
2.0718120444169434
10
-10.366192795357838
20
1.7860351822329714
42
-0.36397023426523484
10
-10.464673570659
20
1.7033999999999998
10
-10.625
20
1.7034000000000002
10
-10.625
20
1.5534000000000001
10
-10.464673570659
20
1.5533999999999999
42
0.36397023426588498
10
-10.218471632406359
20
1.7599879555830564
10
-10.173480775301162
20
2.0457648177670289
42
-0.36397023426524422
10
-10.074999999999999
20
2.1284000000000001
10
-10.024999999999999
20
2.1284000000000001
10
-9.9582431035160006
20
1.6534000000000002
0
LWPOLYLINE
5
147
100
AcDbEntity
8
0
100
AcDbPolyline
90
8
70
1
43
0.0
10
-8.875
20
1.5934000000000001
10
-8.875
20
2.7634000000000003
42
-0.41421356237308288
10
-8.8350000000000009
20
2.8034000000000003
10
-7.6650000000000009
20
2.8034000000000003
42
-0.41421356237309503
10
-7.6250000000000009
20
2.7634000000000003
10
-7.6250000000000018
20
1.5934000000000001
42
-0.41421356237308288
10
-7.6650000000000009
20
1.5534000000000001
10
-8.8350000000000009
20
1.5534000000000001
42
-0.41421356237309503
0
LWPOLYLINE
5
148
100
AcDbEntity
8
0
100
AcDbPolyline
90
34
70
1
43
0.0
10
-8.4388834855540011
20
1.6534000000000002
10
-8.3881917427769999
20
1.6534000000000002
10
-7.3868082572229996
20
1.6534000000000002
10
-7.336116514446001
20
1.6534000000000002
10
-7.2625000000000011
20
2.0709
10
-7.2476265947510008
20
2.0708999999997184
42
-0.36397023426614405
10
-7.144221780685001
20
1.9841330586550001
10
-7.1133980933133003
20
1.7765149920299472
42
0.36397023426622432
10
-6.847500000000001
20
1.5534000000000001
10
-6.8375000000000004
20
1.5534000000000001
10
-6.8375000000000004
20
1.7183999999999999
10
-6.847500000000001
20
1.718400000000283
42
-0.36397023426614972
10
-6.9509048140659999
20
1.805166941345
10
-6.9817285014377015
20
2.0127850079700531
42
0.36397023426622194
10
-7.2476265947510008
20
2.2359
10
-7.2625000000000011
20
2.2359
10
-7.3125000000000009
20
2.2359
10
-7.3861165144460008
20
2.6534000000000004
10
-7.4118082572230009
20
2.6534000000000004
10
-8.3631917427770013
20
2.6534000000000004
10
-8.3888834855540004
20
2.6534000000000004
10
-8.4625000000000021
20
2.2359
10
-8.5125000000000011
20
2.2359
10
-8.5273734052489996
20
2.2359
42
0.36397023426624087
10
-8.7932714985626461
20
2.0127850079700957
10
-8.8240951859337233
20
1.8051669413449514
42
-0.36397023426614727
10
-8.9275000000000002
20
1.7183999999999999
10
-8.9375
20
1.7183999999999999
10
-8.9375
20
1.5534000000000001
10
-8.9275000000000002
20
1.5534000000000001
42
0.36397023426624181
10
-8.6616019066863554
20
1.7765149920299046
10
-8.6307782193152782
20
1.984133058655049
42
-0.36397023426614433
10
-8.5273734052489996
20
2.0709
10
-8.5125000000000011
20
2.0709
0
LWPOLYLINE
5
149
100
AcDbEntity
8
0
100
AcDbPolyline
90
8
70
1
43
0.0
10
-15.643750000000001
20
1.5534000000000001
10
-14.09375
20
1.5534000000000001
10
-13.893750000000001
20
1.5534000000000001
10
-13.253750000000002
20
1.5534000000000001
10
-13.053750000000001
20
1.5534000000000001
10
-12.34375
20
1.5534000000000001
10
-12.34375
20
2.3534000000000002
10
-15.643750000000001
20
2.3534000000000002
0
LWPOLYLINE
5
150
100
AcDbEntity
8
0
100
AcDbPolyline
90
32
70
1
43
0.0
10
-17.550000000000001
20
1.5534000000000001
10
-17.75
20
1.5534000000000001
10
-17.77
20
1.5534000000000001
10
-17.770000000000003
20
1.5734000000000001
10
-18.050000000000001
20
1.5734000000000001
10
-18.050000000000001
20
1.5534000000000001
10
-18.149999999999999
20
1.5534000000000001
10
-18.449999999999999
20
1.5534000000000001
10
-18.449999999999999
20
1.7534000000000001
10
-18.440000000000001
20
1.7534000000000001
10
-18.439999999999998
20
2.3234000000000004
10
-14.459999999999999
20
2.3234000000000004
10
-14.459999999999999
20
1.7534000000000001
10
-14.450000000000001
20
1.7534000000000001
10
-14.450000000000001
20
1.5534000000000001
10
-14.75
20
1.5534000000000001
10
-14.850000000000001
20
1.5534000000000001
10
-14.850000000000001
20
1.5734000000000001
10
-15.129999999999999
20
1.5734000000000001
10
-15.129999999999999
20
1.5534000000000001
10
-15.150000000000002
20
1.5534000000000001
10
-15.35
20
1.5534000000000001
10
-15.549999999999999
20
1.5534000000000001
10
-15.75
20
1.5534000000000001
10
-15.949999999999999
20
1.5534000000000001
10
-16.149999999999999
20
1.5534000000000001
10
-16.350000000000001
20
1.5534000000000001
10
-16.550000000000001
20
1.5534000000000001
10
-16.75
20
1.5534000000000001
10
-16.949999999999999
20
1.5534000000000001
10
-17.150000000000002
20
1.5534000000000001
10
-17.350000000000001
20
1.5534000000000001
0
LWPOLYLINE
5
151
100
AcDbEntity
8
0
100
AcDbPolyline
90
8
70
1
43
0.0
10
-18.706249999999997
20
1.5534000000000001
10
-17.156249999999996
20
1.5534000000000001
10
-17.156249999999996
20
2.3534000000000002
10
-20.456249999999997
20
2.3534000000000002
10
-20.456249999999997
20
1.5534000000000001
10
-19.74625
20
1.5534000000000001
10
-19.546250000000001
20
1.5534000000000001
10
-18.90625
20
1.5534000000000001
0
LWPOLYLINE
5
152
100
AcDbEntity
8
0
100
AcDbPolyline
90
8
70
1
43
0.0
10
-23.295000000000002
20
1.5934000000000001
10
-23.294999999999998
20
2.7634000000000003
42
-0.41421356237311541
10
-23.255000000000003
20
2.8034000000000003
10
-22.085000000000004
20
2.8034000000000003
42
-0.41421356237309503
10
-22.045000000000002
20
2.7634000000000003
10
-22.045000000000009
20
1.5934000000000001
42
-0.41421356237311335
10
-22.085000000000004
20
1.5534000000000001
10
-23.255000000000003
20
1.5534000000000001
42
-0.41421356237309503
0
LWPOLYLINE
5
153
100
AcDbEntity
8
0
100
AcDbPolyline
90
8
70
1
43
0.0
10
-25.370000000000005
20
1.5934000000000001
10
-25.370000000000005
20
2.7634000000000003
42
-0.41421356237309914
10
-25.330000000000005
20
2.8034000000000003
10
-24.160000000000004
20
2.8034000000000003
42
-0.41421356237309503
10
-24.120000000000005
20
2.7634000000000003
10
-24.120000000000005
20
1.5934000000000001
42
-0.41421356237309709
10
-24.160000000000004
20
1.5534000000000001
10
-25.330000000000005
20
1.5534000000000001
42
-0.41421356237309503
0
LWPOLYLINE
5
154
100
AcDbEntity
8
0
100
AcDbPolyline
90
16
70
1
43
0.0
10
-24.075000000000003
20
1.5934000000000001
10
-24.075000000000003
20
3.1134000000000004
10
-24.075000000000003
20
3.1534000000000004
10
-24.475000000000001
20
3.1534000000000004
10
-24.475000000000001
20
3.1134000000000004
10
-26.875
20
3.1134000000000004
10
-26.875000000000004
20
3.1534000000000004
10
-27.275000000000006
20
3.1534000000000004
10
-27.275000000000006
20
3.1134000000000004
10
-27.275000000000006
20
1.5934000000000001
10
-27.275000000000006
20
1.5534000000000001
10
-26.875000000000004
20
1.5534000000000001
10
-26.875
20
1.5934000000000001
10
-24.475000000000001
20
1.5934000000000001
10
-24.475000000000001
20
1.5534000000000001
10
-24.075000000000003
20
1.5534000000000001
0
LWPOLYLINE
5
155
100
AcDbEntity
8
0
100
AcDbPolyline
90
23
70
1
43
0.0
10
-26.615000000000002
20
1.5534000000000001
10
-26.625
20
1.5534000000000001
10
-26.625
20
1.5734000000000001
10
-26.924999999999997
20
1.5734000000000001
10
-26.924999999999997
20
1.5534000000000001
10
-27.044999999999998
20
1.5534000000000001
10
-27.324999999999999
20
1.5534000000000001
10
-27.324999999999999
20
1.7534000000000001
10
-27.315000000000001
20
1.7534000000000001
10
-27.315000000000001
20
2.4733999999999998
10
-24.335000000000001
20
2.4733999999999998
10
-24.335000000000001
20
1.7534000000000001
10
-24.325000000000003
20
1.7534000000000001
10
-24.325000000000003
20
1.5534000000000001
10
-24.605
20
1.5534000000000001
10
-24.725000000000001
20
1.5534000000000001
10
-24.725000000000001
20
1.5734000000000001
10
-25.024999999999999
20
1.5734000000000001
10
-25.024999999999999
20
1.5534000000000001
10
-25.455000000000002
20
1.5534000000000001
10
-25.695
20
1.5534000000000001
10
-25.954999999999998
20
1.5534000000000001
10
-26.195
20
1.5534000000000001
0
LWPOLYLINE
5
156
100
AcDbEntity
8
0
100
AcDbPolyline
90
18
70
1
43
0.0
10
-27.742500000000003
20
2.5533999999999999
10
-31.2425
20
2.5533999999999999
10
-31.242500000000003
20
1.6034000000000004
10
-31.092499999999998
20
1.6033999999999997
10
-30.867500000000003
20
1.6033999999999997
10
-30.6175
20
1.6034000000000002
10
-30.3675
20
1.6034000000000002
10
-30.1175
20
1.6034000000000002
10
-29.867500000000003
20
1.6034000000000002
10
-29.617500000000003
20
1.6034000000000002
10
-29.3675
20
1.6034000000000002
10
-29.1175
20
1.6034000000000002
10
-28.8675
20
1.6034000000000002
10
-28.617500000000003
20
1.6034000000000002
10
-28.367500000000003
20
1.6034000000000002
10
-28.1175
20
1.6034000000000004
10
-27.892499999999998
20
1.6034000000000002
10
-27.742500000000003
20
1.6034000000000004
0
LWPOLYLINE
5
157
100
AcDbEntity
8
0
100
AcDbPolyline
90
16
70
1
43
0.0
10
-30.969999999999999
20
1.5934000000000001
10
-30.969999999999999
20
3.1134000000000004
10
-30.969999999999999
20
3.1534000000000004
10
-31.370000000000001
20
3.1534000000000004
10
-31.370000000000001
20
3.1134000000000004
10
-33.769999999999996
20
3.1134000000000004
10
-33.770000000000003
20
3.1534000000000004
10
-34.170000000000002
20
3.1534000000000004
10
-34.170000000000002
20
3.1134000000000004
10
-34.170000000000002
20
1.5934000000000001
10
-34.170000000000002
20
1.5534000000000001
10
-33.770000000000003
20
1.5534000000000001
10
-33.769999999999996
20
1.5934000000000001
10
-31.370000000000001
20
1.5934000000000001
10
-31.370000000000001
20
1.5534000000000001
10
-30.969999999999999
20
1.5534000000000001
0
LWPOLYLINE
5
158
100
AcDbEntity
8
0
100
AcDbPolyline
90
8
70
1
43
0.0
10
-45.410000000000004
20
1.7533999999999996
10
-46.409999999999997
20
1.7533999999999996
10
-46.409999999999997
20
5.5533999999999999
10
-45.410000000000004
20
5.5533999999999999
10
-37.410000000000004
20
5.5533999999999999
10
-36.409999999999997
20
5.5533999999999999
10
-36.409999999999997
20
1.7533999999999996
10
-37.410000000000004
20
1.7533999999999994
0
LWPOLYLINE
5
159
100
AcDbEntity
8
0
100
AcDbPolyline
90
9
70
1
43
0.0
10
-36.310000000000002
20
3.6534
10
-36.409999999999997
20
3.6534
10
-36.409999999999997
20
2.1533999999999995
42
-0.41421356237309503
10
-36.509999999999998
20
2.0533999999999999
10
-38.209999999999994
20
2.0533999999999999
10
-38.209999999999994
20
1.5533999999999983
10
-36.509999999999998
20
1.5533999999999999
42
0.41421356237309503
10
-35.909999999999997
20
2.1533999999999995
10
-35.910000000000004
20
3.2533999999999996
42
0.41421356237309587
0
LWPOLYLINE
5
160
100
AcDbEntity
8
0
100
AcDbPolyline
90
9
70
1
43
0.0
10
-46.409999999999997
20
3.6534
10
-46.509999999999998
20
3.6534
42
0.41421356237309465
10
-46.909999999999997
20
3.2533999999999996
10
-46.909999999999997
20
2.1533999999999995
42
0.41421356237309503
10
-46.310000000000002
20
1.5533999999999999
10
-44.609999999999999
20
1.5533999999999999
10
-44.609999999999999
20
2.0533999999999999
10
-46.310000000000002
20
2.0534000000000017
42
-0.41421356237309503
10
-46.409999999999997
20
2.1533999999999995
0
LWPOLYLINE
5
161
100
AcDbEntity
8
0
100
AcDbPolyline
90
8
70
1
43
0.0
10
-11.650000000000002
20
1.6134000000000002
10
-11.650000000000002
20
1.5534000000000001
10
-14.850000000000003
20
1.5534000000000001
10
-14.850000000000003
20
1.6134000000000002
10
-14.850000000000003
20
2.0934000000000004
10
-14.850000000000003
20
2.1534000000000004
10
-11.650000000000002
20
2.1534000000000004
10
-11.650000000000002
20
2.0934000000000004
0
LWPOLYLINE
5
162
100
AcDbEntity
8
0
100
AcDbPolyline
90
16
70
1
43
0.0
10
-10.35
20
1.5734000000000001
10
-10.35
20
2.0334000000000003
10
-10.35
20
2.0534000000000003
10
-10.549999999999999
20
2.0534000000000003
10
-10.549999999999999
20
2.0334000000000003
10
-11.15
20
2.0334000000000003
10
-11.15
20
2.0534000000000003
10
-11.35
20
2.0534000000000003
10
-11.35
20
2.0334000000000003
10
-11.35
20
1.5734000000000001
10
-11.35
20
1.5534000000000001
10
-11.15
20
1.5534000000000001
10
-11.15
20
1.5734000000000001
10
-10.549999999999999
20
1.5734000000000001
10
-10.549999999999999
20
1.5534000000000001
10
-10.35
20
1.5534000000000001
0
LWPOLYLINE
5
163
100
AcDbEntity
8
0
100
AcDbPolyline
90
4
70
1
43
0.0
10
-14.400000000000002
20
1.4683999999999999
10
-14.400000000000002
20
1.5084
10
-15.1
20
1.5084
10
-15.1
20
1.4683999999999999
0
LWPOLYLINE
5
164
100
AcDbEntity
8
0
100
AcDbPolyline
90
4
70
1
43
0.0
10
-15.4
20
1.4683999999999999
10
-15.4
20
1.5084
10
-16.100000000000001
20
1.5084
10
-16.100000000000001
20
1.4683999999999999
0
LWPOLYLINE
5
165
100
AcDbEntity
8
0
100
AcDbPolyline
90
4
70
1
43
0.0
10
-16.399999999999999
20
1.4683999999999999
10
-16.399999999999999
20
1.5084
10
-17.100000000000001
20
1.5084
10
-17.100000000000001
20
1.4683999999999999
0
LWPOLYLINE
5
166
100
AcDbEntity
8
0
100
AcDbPolyline
90
4
70
1
43
0.0
10
-17.399999999999999
20
1.4683999999999999
10
-17.399999999999999
20
1.5084
10
-18.100000000000001
20
1.5084
10
-18.100000000000001
20
1.4683999999999999
0
LWPOLYLINE
5
167
100
AcDbEntity
8
0
100
AcDbPolyline
90
4
70
1
43
0.0
10
-18.399999999999999
20
1.4683999999999999
10
-18.399999999999999
20
1.5084
10
-19.100000000000001
20
1.5084
10
-19.100000000000001
20
1.4683999999999999
0
LWPOLYLINE
5
168
100
AcDbEntity
8
0
100
AcDbPolyline
90
4
70
1
43
0.0
10
-19.399999999999999
20
1.4683999999999999
10
-19.399999999999999
20
1.5084
10
-20.100000000000001
20
1.5084
10
-20.100000000000001
20
1.4683999999999999
0
LWPOLYLINE
5
169
100
AcDbEntity
8
0
100
AcDbPolyline
90
4
70
1
43
0.0
10
-20.399999999999999
20
1.4683999999999999
10
-20.399999999999999
20
1.5084
10
-21.100000000000001
20
1.5084
10
-21.100000000000001
20
1.4683999999999999
0
LWPOLYLINE
5
170
100
AcDbEntity
8
0
100
AcDbPolyline
90
4
70
1
43
0.0
10
-21.400000000000002
20
1.4683999999999999
10
-21.400000000000002
20
1.5084
10
-22.100000000000005
20
1.5084
10
-22.100000000000005
20
1.4683999999999999
0
LWPOLYLINE
5
171
100
AcDbEntity
8
0
100
AcDbPolyline
90
4
70
1
43
0.0
10
-23.399999999999999
20
1.4683999999999999
10
-23.399999999999999
20
1.5084
10
-24.100000000000001
20
1.5084
10
-24.100000000000001
20
1.4683999999999999
0
LWPOLYLINE
5
172
100
AcDbEntity
8
0
100
AcDbPolyline
90
4
70
1
43
0.0
10
-22.399999999999999
20
1.4683999999999999
10
-22.399999999999999
20
1.5084
10
-23.100000000000001
20
1.5084
10
-23.100000000000001
20
1.4683999999999999
0
LWPOLYLINE
5
173
100
AcDbEntity
8
0
100
AcDbPolyline
90
4
70
1
43
0.0
10
-24.399999999999999
20
1.4683999999999999
10
-24.399999999999999
20
1.5084
10
-25.100000000000001
20
1.5084
10
-25.100000000000001
20
1.4683999999999999
0
LWPOLYLINE
5
174
100
AcDbEntity
8
0
100
AcDbPolyline
90
4
70
1
43
0.0
10
-27.400000000000002
20
1.4683999999999999
10
-27.400000000000002
20
1.5084
10
-28.100000000000005
20
1.5084
10
-28.100000000000005
20
1.4683999999999999
0
LWPOLYLINE
5
175
100
AcDbEntity
8
0
100
AcDbPolyline
90
4
70
1
43
0.0
10
-28.399999999999999
20
1.4683999999999999
10
-28.399999999999999
20
1.5084
10
-29.100000000000001
20
1.5084
10
-29.100000000000001
20
1.4683999999999999
0
LWPOLYLINE
5
176
100
AcDbEntity
8
0
100
AcDbPolyline
90
4
70
1
43
0.0
10
-29.399999999999999
20
1.4683999999999999
10
-29.399999999999999
20
1.5084
10
-30.100000000000001
20
1.5084
10
-30.100000000000001
20
1.4683999999999999
0
LWPOLYLINE
5
177
100
AcDbEntity
8
0
100
AcDbPolyline
90
4
70
1
43
0.0
10
-30.399999999999999
20
1.4683999999999999
10
-30.399999999999999
20
1.5084
10
-31.100000000000001
20
1.5084
10
-31.100000000000001
20
1.4683999999999999
0
LWPOLYLINE
5
178
100
AcDbEntity
8
0
100
AcDbPolyline
90
4
70
1
43
0.0
10
-31.400000000000002
20
1.4683999999999999
10
-31.400000000000002
20
1.5084
10
-32.100000000000001
20
1.5084
10
-32.100000000000001
20
1.4683999999999999
0
LWPOLYLINE
5
179
100
AcDbEntity
8
0
100
AcDbPolyline
90
4
70
1
43
0.0
10
-32.400000000000006
20
1.4683999999999999
10
-32.400000000000006
20
1.5084
10
-33.100000000000009
20
1.5084
10
-33.100000000000009
20
1.4683999999999999
0
LWPOLYLINE
5
180
100
AcDbEntity
8
0
100
AcDbPolyline
90
4
70
1
43
0.0
10
-33.399999999999999
20
1.4683999999999999
10
-33.399999999999999
20
1.5084
10
-34.100000000000001
20
1.5084
10
-34.100000000000001
20
1.4683999999999999
0
LINE
5
181
100
AcDbEntity
8
0
100
AcDbLine
10
-14.100000000000001
20
1.4683999999999999
30
0
11
-14.100000000000001
21
0
31
0
0
LINE
5
182
100
AcDbEntity
8
0
100
AcDbLine
10
-25.300000000000004
20
1.4683999999999999
30
0
11
-25.300000000000203
21
0
31
0
0
LINE
5
183
100
AcDbEntity
8
0
100
AcDbLine
10
-27.199999999999804
20
1.4683999999999999
30
0
11
-27.200000000000003
21
0
31
0
0
LINE
5
184
100
AcDbEntity
8
0
100
AcDbLine
10
-34.399999999999999
20
1.4683999999999999
30
0
11
-34.399999999999999
21
0
31
0
0
ENDSEC
0
SECTION
2
OBJECTS
0
DICTIONARY
5
C
100
AcDbDictionary
3
ACAD_GROUP
350
D
3
ACAD_MLINESTYLE
350
17
0
DICTIONARY
5
D
100
AcDbDictionary
0
DICTIONARY
5
1A
330
C
100
AcDbDictionary
0
DICTIONARY
5
17
100
AcDbDictionary
0
ENDSEC
0
EOF
