%TF.GenerationSoftware,KiCad,Pcbnew,9.0.7*%
%TF.CreationDate,2026-02-08T22:25:42+01:00*%
%TF.ProjectId,BladeCore-M54,426c6164-6543-46f7-9265-2d4d35342e6b,rev?*%
%TF.SameCoordinates,Original*%
%TF.FileFunction,Copper,L5,Inr*%
%TF.FilePolarity,Positive*%
%FSLAX46Y46*%
G04 Gerber Fmt 4.6, Leading zero omitted, Abs format (unit mm)*
G04 Created by KiCad (PCBNEW 9.0.7) date 2026-02-08 22:25:42*
%MOMM*%
%LPD*%
G01*
G04 APERTURE LIST*
%TA.AperFunction,ComponentPad*%
%ADD10C,0.600000*%
%TD*%
%TA.AperFunction,ComponentPad*%
%ADD11C,5.500000*%
%TD*%
%TA.AperFunction,HeatsinkPad*%
%ADD12C,0.425000*%
%TD*%
%TA.AperFunction,ViaPad*%
%ADD13C,0.400000*%
%TD*%
G04 APERTURE END LIST*
D10*
%TO.N,GND*%
%TO.C,IC7*%
X6640000Y68770000D03*
X8360000Y68770000D03*
X7500000Y69250000D03*
X6640000Y69730000D03*
X8360000Y69730000D03*
%TD*%
D11*
%TO.N,N/C*%
%TO.C,J1*%
X15471447Y80915000D03*
%TD*%
D12*
%TO.N,GND*%
%TO.C,IC1*%
X16279212Y50745788D03*
X16279212Y51595788D03*
X16279212Y52445788D03*
X15429212Y50745788D03*
X15429212Y51595788D03*
X15429212Y52445788D03*
X14579212Y50745788D03*
X14579212Y51595788D03*
X14579212Y52445788D03*
%TD*%
D13*
%TO.N,GND*%
X10000000Y19750000D03*
X5500000Y18250000D03*
X5750000Y14250000D03*
X5950000Y12525000D03*
X28750000Y7250000D03*
X26750000Y7250000D03*
X26750000Y7250000D03*
X28750000Y5250000D03*
X26750000Y5250000D03*
X17750000Y14250000D03*
X15750000Y12250000D03*
X21750000Y19250000D03*
X18750000Y19250000D03*
X16750000Y23250000D03*
X14750000Y23250000D03*
X12750000Y23250000D03*
X16750000Y25250000D03*
X14750000Y25250000D03*
X12750000Y25250000D03*
X13100000Y30900000D03*
X15200000Y33850000D03*
X14600000Y41700000D03*
X12250000Y43150000D03*
X11800000Y40550000D03*
X12950000Y37850000D03*
X4500000Y52300000D03*
X4450000Y54350000D03*
X4400000Y57550000D03*
X18200000Y78500000D03*
X9600000Y78700000D03*
X6300000Y79850000D03*
X28000000Y72300000D03*
X27100000Y66550000D03*
X22500000Y70500000D03*
X22500000Y67600000D03*
X16950000Y67600000D03*
X15450000Y67600000D03*
X7500000Y63050000D03*
X10450000Y62150000D03*
X9900000Y58250000D03*
%TO.N,Net-(IC1B-GPIO44{slash}ADC4)*%
X6194212Y46920788D03*
%TO.N,Net-(IC1B-GPIO45{slash}ADC5)*%
X6224600Y45882388D03*
%TO.N,Net-(IC1B-GPIO46{slash}ADC6)*%
X6212000Y44920788D03*
%TO.N,Net-(IC1B-GPIO47{slash}ADC7)*%
X6212000Y43995788D03*
%TO.N,Net-(IC1B-GPIO43{slash}ADC3)*%
X6194212Y47920788D03*
%TO.N,Net-(IC1B-GPIO42{slash}ADC2)*%
X6194212Y48920788D03*
%TO.N,Net-(IC1B-GPIO41{slash}ADC1)*%
X6209212Y49895788D03*
%TO.N,Net-(IC1B-GPIO40{slash}ADC0)*%
X6179212Y50870788D03*
%TO.N,+3.3VP*%
X18900000Y18250000D03*
%TO.N,GND*%
X19508697Y35847756D03*
X18508697Y35847756D03*
X18500000Y34750000D03*
X19500000Y34750000D03*
X19508697Y33678588D03*
X18508697Y33678588D03*
X18500000Y32500000D03*
X19500000Y32500000D03*
X20500000Y32500000D03*
X20508697Y33678588D03*
X20500000Y34750000D03*
X20508697Y35847756D03*
X13350000Y72300000D03*
X13350000Y70400000D03*
X21350000Y58750000D03*
X17900000Y42450000D03*
X23950000Y31500000D03*
X19600000Y28300000D03*
X18350000Y28300000D03*
X8850000Y28350000D03*
X7450000Y28950000D03*
X10600000Y28350000D03*
%TO.N,QSPI_SS*%
X23500000Y20450000D03*
X27950000Y14450000D03*
%TO.N,GND*%
X27950000Y8250000D03*
X27950000Y10650000D03*
X6750000Y78650000D03*
X8250000Y64875000D03*
X22750000Y23750000D03*
X19160000Y4790000D03*
X18125000Y67800000D03*
X9450000Y7350000D03*
X14861979Y10763021D03*
X11582300Y11325305D03*
X27025000Y70750000D03*
X18000000Y16500000D03*
X16100000Y31225000D03*
X14925000Y4675000D03*
X12750000Y20750000D03*
X17625000Y75425000D03*
X13075000Y55400000D03*
X9150000Y20650000D03*
X27000000Y69450000D03*
X13225000Y64350000D03*
X4050000Y10250000D03*
X7675000Y21250000D03*
X4800000Y64850000D03*
X24475000Y68825000D03*
X22170000Y4790000D03*
X2550000Y5375000D03*
X18075000Y66575000D03*
X10884212Y45170788D03*
X15230000Y70420000D03*
X12850000Y11325000D03*
X16925000Y4800000D03*
X27025000Y70125000D03*
X4884800Y43075000D03*
X22175000Y36850000D03*
X1850000Y6150000D03*
X22730000Y24750000D03*
X7750000Y24000000D03*
X16925000Y61175000D03*
X8850000Y5775000D03*
X8750000Y38150000D03*
X6012500Y73937500D03*
X18375000Y48675000D03*
X17500000Y23750000D03*
X17250000Y16000000D03*
X2800000Y75600000D03*
X12400000Y52725000D03*
X18775000Y68425000D03*
X13575000Y10775000D03*
X4050000Y9200000D03*
X9675000Y39075000D03*
X24150000Y73025000D03*
X11750000Y20850000D03*
X22750000Y25750000D03*
X8850000Y35000000D03*
X16550000Y15070000D03*
X12401527Y50476527D03*
X24475000Y70125000D03*
X1825000Y7150000D03*
X18700000Y69475000D03*
X9250000Y72700000D03*
X24475000Y69475000D03*
X25650000Y68100000D03*
X11425000Y49400000D03*
X24475000Y70750000D03*
X17500000Y22250000D03*
X16050000Y54050000D03*
X17300000Y54625000D03*
X8600000Y6425000D03*
X6325000Y5675000D03*
X6650000Y77275000D03*
X24675000Y4800000D03*
X12300000Y48375000D03*
X10175000Y5075000D03*
X7125000Y23250000D03*
X17850000Y51425000D03*
X8975000Y65550000D03*
X9425000Y74025000D03*
X9846800Y15202936D03*
X9900000Y31200000D03*
X22730000Y22500000D03*
X22730000Y21500000D03*
X13526527Y49351527D03*
X16800000Y70410000D03*
X14850000Y49328200D03*
X10400000Y75400000D03*
X14825000Y54050000D03*
X27000000Y68825000D03*
X16250000Y20750000D03*
X17850000Y53400000D03*
X15940000Y14450000D03*
X12300000Y36350000D03*
X5825000Y64850000D03*
X17500000Y21250000D03*
X18350000Y74925000D03*
X15175000Y30725000D03*
X21075000Y69475000D03*
X7150000Y22275000D03*
X17312573Y49340627D03*
X9225000Y71150000D03*
X4100000Y65600000D03*
X18775000Y67150000D03*
X9925000Y71975000D03*
X14725000Y65175000D03*
%TO.N,+5V*%
X4750000Y68250000D03*
X9225000Y67775000D03*
X3750000Y68250000D03*
X3750000Y67250000D03*
X4075000Y66525000D03*
X4750000Y67250000D03*
X2750000Y68250000D03*
X2750000Y67250000D03*
X3250000Y23750000D03*
%TO.N,+3.3V*%
X8750000Y21450000D03*
X4250000Y74750000D03*
X3250000Y73750000D03*
X8750000Y24050000D03*
X16490000Y68620000D03*
X11429212Y47820788D03*
X2250000Y74750000D03*
X16950000Y31050000D03*
X19479212Y53395788D03*
X11454212Y55395788D03*
X19375000Y72450000D03*
X4250000Y73750000D03*
X3250000Y74750000D03*
X18029212Y55620788D03*
X4250000Y71750000D03*
X4125000Y43100000D03*
X8000000Y25525000D03*
X16480000Y72170000D03*
X23300000Y79850000D03*
X8075000Y42900000D03*
X11404212Y51995788D03*
X19429212Y49395788D03*
X12629212Y47595788D03*
X4230331Y63330331D03*
X2250000Y72750000D03*
X5247224Y73735855D03*
X16950000Y30250000D03*
X14804212Y47570788D03*
X3250000Y71750000D03*
X20475000Y67800000D03*
X2600000Y62075000D03*
X5250000Y71750000D03*
X17629212Y47595788D03*
X2250000Y71750000D03*
X22425000Y28925000D03*
X5375000Y75675000D03*
X7225000Y64850000D03*
X16950000Y29450000D03*
X16029212Y55620788D03*
X2250000Y73750000D03*
X5250000Y74750000D03*
%TO.N,/Block Diagram/Microcontroller Peripherals/VREF_IN*%
X7900000Y37175000D03*
X18360000Y72175000D03*
%TO.N,+1V1*%
X13429212Y47595788D03*
X14804212Y55595788D03*
X19529212Y51395788D03*
X11404212Y51195788D03*
%TO.N,/Block Diagram/Ethernet Interface/RDN_R_N*%
X13720000Y15000000D03*
%TO.N,/Block Diagram/Ethernet Interface/RDN_R_P*%
X14720000Y15000000D03*
%TO.N,+3.3VP*%
X21000000Y21500000D03*
X20980000Y24750000D03*
X15250000Y20750000D03*
X20950000Y30250000D03*
X21000000Y22500000D03*
X13750000Y20750000D03*
X20950000Y31050000D03*
X20950000Y29450000D03*
X18000000Y17500000D03*
%TO.N,VBUS*%
X5250000Y5750000D03*
X4025000Y79500000D03*
X4250000Y5750000D03*
X3225000Y11850000D03*
X4250000Y6750000D03*
X5250000Y6750000D03*
%TO.N,/Block Diagram/Microcontroller/ADC_VUSB*%
X1800000Y10200000D03*
X4325000Y44900000D03*
%TO.N,/Block Diagram/Microcontroller Peripherals/I2C0_SCL*%
X5550000Y57700000D03*
X12275000Y69625000D03*
%TO.N,/Block Diagram/Microcontroller Peripherals/I2C0_SDA*%
X5525000Y58500000D03*
X12025000Y70600000D03*
%TO.N,HEARTBEAT*%
X14050000Y65675000D03*
X5525000Y54750000D03*
%TO.N,/Block Diagram/Microcontroller Peripherals/SWCLK*%
X17750000Y76275000D03*
X25458349Y76808253D03*
%TO.N,/Block Diagram/Microcontroller Peripherals/SWDIO*%
X18900000Y76675000D03*
X25575000Y77425000D03*
%TO.N,/Block Diagram/Ethernet Interface/ETH_INT*%
X2025000Y55500000D03*
X4225000Y55575000D03*
%TO.N,/Block Diagram/Ethernet Interface/ETH_RST*%
X1925000Y56550000D03*
X4600000Y56550000D03*
%TO.N,/Block Diagram/Microcontroller/ADC1*%
X4375000Y49900000D03*
X8700000Y17125000D03*
%TO.N,/Block Diagram/Microcontroller/ADC2*%
X4325000Y48925000D03*
X8100000Y17350000D03*
%TO.N,/Block Diagram/Microcontroller/ADC3*%
X7550000Y17600000D03*
X4325000Y47950000D03*
%TO.N,/Block Diagram/Microcontroller/ADC4*%
X4300000Y46925000D03*
X10100000Y6625000D03*
%TO.N,/Block Diagram/Microcontroller/ADC5*%
X10000000Y5825000D03*
X4325000Y45900000D03*
%TO.N,/Block Diagram/Microcontroller Peripherals/ADC_VREF*%
X4325000Y43925000D03*
X7180000Y35700000D03*
%TO.N,/Block Diagram/Microcontroller/GPIO18*%
X20850000Y8175000D03*
X25290000Y57700000D03*
%TO.N,/Block Diagram/Microcontroller/GPIO19*%
X25280000Y58480000D03*
X21375000Y8850000D03*
%TO.N,/Block Diagram/Microcontroller/GPIO22*%
X23125000Y9175000D03*
X25280000Y61480000D03*
%TO.N,/Block Diagram/Microcontroller/GPIO23*%
X23700000Y9350000D03*
X25270000Y62270000D03*
%TO.N,/Block Diagram/Microcontroller/GPIO20*%
X21950000Y8397545D03*
X25270000Y59880000D03*
%TO.N,/Block Diagram/Microcontroller/GPIO21*%
X22500000Y8900000D03*
X25260000Y60670000D03*
%TO.N,/Block Diagram/Microcontroller/GPIO27*%
X26110000Y7425000D03*
X19720000Y65480000D03*
%TO.N,/Block Diagram/Microcontroller/GPIO25*%
X21304212Y65470788D03*
X24870000Y7050000D03*
%TO.N,/Block Diagram/Microcontroller/GPIO24*%
X22130000Y65480000D03*
X24275000Y9600000D03*
%TO.N,/Block Diagram/Microcontroller/GPIO26*%
X25460000Y7250000D03*
X20510000Y65460000D03*
%TO.N,/Block Diagram/Microcontroller/ADC0*%
X4425000Y50875000D03*
X9325000Y16850000D03*
%TO.N,/Block Diagram/Ethernet Interface/TDN_R_P*%
X12710000Y15000000D03*
%TO.N,/Block Diagram/Ethernet Interface/TDN_R_N*%
X11700000Y15000000D03*
%TO.N,USB_RP_D+*%
X7775000Y9050000D03*
X14175000Y42825000D03*
%TO.N,USB_RP_D-*%
X13475000Y42825000D03*
X7075000Y9050000D03*
%TO.N,/Block Diagram/Ethernet Interface/SPI1_MOSI*%
X2425000Y59900000D03*
X5500000Y59875000D03*
%TO.N,/Block Diagram/Ethernet Interface/SPI1_SCLK*%
X3575000Y60525000D03*
X5475000Y60675000D03*
%TO.N,/Block Diagram/TD_P*%
X12555000Y10750000D03*
%TO.N,/Block Diagram/RCT*%
X10325000Y15700000D03*
X15350000Y16950000D03*
%TO.N,/Block Diagram/TD_N*%
X11855000Y10750000D03*
%TO.N,/Block Diagram/RD_P*%
X14565000Y11325000D03*
%TO.N,/Block Diagram/RD_N*%
X13865000Y11325000D03*
%TO.N,/Block Diagram/TCT*%
X18900000Y15675000D03*
X19196800Y6050000D03*
%TO.N,/Block Diagram/LINK_LED*%
X22700000Y26800000D03*
%TO.N,/Block Diagram/ACT_LED*%
X22725000Y27825000D03*
%TO.N,Net-(JP1-C)*%
X10775000Y65875000D03*
X10775000Y66400000D03*
X10775000Y65325000D03*
%TD*%
%TA.AperFunction,Conductor*%
%TO.N,GND*%
G36*
X12414413Y80698946D02*
G01*
X12416319Y80699442D01*
X12447806Y80689141D01*
X12479564Y80679815D01*
X12480852Y80678329D01*
X12482724Y80677716D01*
X12503644Y80652026D01*
X12525319Y80627011D01*
X12525992Y80624581D01*
X12526842Y80623537D01*
X12535745Y80589384D01*
X12554890Y80419470D01*
X12554892Y80419454D01*
X12628712Y80096024D01*
X12628716Y80096012D01*
X12738285Y79782884D01*
X12882224Y79483991D01*
X12917845Y79427301D01*
X13058729Y79203085D01*
X13265574Y78943711D01*
X13500158Y78709127D01*
X13759532Y78502282D01*
X14040435Y78325779D01*
X14339334Y78181837D01*
X14574508Y78099546D01*
X14652458Y78072270D01*
X14652470Y78072266D01*
X14975904Y77998445D01*
X15305567Y77961301D01*
X15305568Y77961300D01*
X15305571Y77961300D01*
X15637326Y77961300D01*
X15637326Y77961301D01*
X15966990Y77998445D01*
X16290424Y78072266D01*
X16603560Y78181837D01*
X16902459Y78325779D01*
X17183362Y78502282D01*
X17442736Y78709127D01*
X17677320Y78943711D01*
X17690549Y78960299D01*
X20312050Y78960299D01*
X20312050Y78749702D01*
X20344995Y78541695D01*
X20344995Y78541692D01*
X20410071Y78341409D01*
X20505683Y78153761D01*
X20629469Y77983384D01*
X20778384Y77834469D01*
X20948761Y77710683D01*
X21064712Y77651603D01*
X21136408Y77615072D01*
X21336692Y77549996D01*
X21336693Y77549996D01*
X21336696Y77549995D01*
X21544701Y77517050D01*
X21544702Y77517050D01*
X21755298Y77517050D01*
X21755299Y77517050D01*
X21963304Y77549995D01*
X21963307Y77549996D01*
X21963308Y77549996D01*
X22163591Y77615072D01*
X22163591Y77615073D01*
X22163594Y77615073D01*
X22351239Y77710683D01*
X22521616Y77834469D01*
X22670531Y77983384D01*
X22794317Y78153761D01*
X22889927Y78341406D01*
X22955005Y78541696D01*
X22987950Y78749701D01*
X22987950Y78918611D01*
X23544200Y78918611D01*
X23544200Y78791390D01*
X23569015Y78666635D01*
X23569018Y78666625D01*
X23617697Y78549102D01*
X23617702Y78549093D01*
X23688373Y78443327D01*
X23688376Y78443323D01*
X23778322Y78353377D01*
X23778326Y78353374D01*
X23884092Y78282703D01*
X23884098Y78282700D01*
X23884099Y78282699D01*
X24001627Y78234017D01*
X24126389Y78209201D01*
X24126393Y78209200D01*
X24126394Y78209200D01*
X24253607Y78209200D01*
X24253608Y78209201D01*
X24378373Y78234017D01*
X24495901Y78282699D01*
X24601674Y78353374D01*
X24691626Y78443326D01*
X24762301Y78549099D01*
X24810983Y78666627D01*
X24835800Y78791394D01*
X24835800Y78918606D01*
X24810983Y79043373D01*
X24762301Y79160901D01*
X24762300Y79160902D01*
X24762297Y79160908D01*
X24691626Y79266674D01*
X24691623Y79266678D01*
X24601677Y79356624D01*
X24601673Y79356627D01*
X24495907Y79427298D01*
X24495898Y79427303D01*
X24400081Y79466992D01*
X24378373Y79475983D01*
X24378369Y79475984D01*
X24378365Y79475985D01*
X24253610Y79500800D01*
X24253606Y79500800D01*
X24126394Y79500800D01*
X24126389Y79500800D01*
X24001634Y79475985D01*
X24001624Y79475982D01*
X23884101Y79427303D01*
X23884092Y79427298D01*
X23778326Y79356627D01*
X23778322Y79356624D01*
X23688376Y79266678D01*
X23688373Y79266674D01*
X23617702Y79160908D01*
X23617697Y79160899D01*
X23569018Y79043376D01*
X23569015Y79043366D01*
X23544200Y78918611D01*
X22987950Y78918611D01*
X22987950Y78960299D01*
X22955005Y79168304D01*
X22955004Y79168308D01*
X22955004Y79168309D01*
X22888959Y79371573D01*
X22886964Y79441414D01*
X22923044Y79501247D01*
X22985745Y79532075D01*
X23055159Y79524110D01*
X23068889Y79517279D01*
X23144177Y79473811D01*
X23246852Y79446300D01*
X23246854Y79446300D01*
X23353146Y79446300D01*
X23353148Y79446300D01*
X23455823Y79473811D01*
X23547878Y79526959D01*
X23623041Y79602122D01*
X23676189Y79694177D01*
X23703700Y79796852D01*
X23703700Y79903148D01*
X23676189Y80005823D01*
X23623041Y80097878D01*
X23547878Y80173041D01*
X23455823Y80226189D01*
X23353148Y80253700D01*
X23246852Y80253700D01*
X23144177Y80226189D01*
X23144175Y80226188D01*
X23144174Y80226188D01*
X23052125Y80173043D01*
X23052119Y80173039D01*
X22976961Y80097881D01*
X22976957Y80097875D01*
X22923812Y80005826D01*
X22923812Y80005825D01*
X22896300Y79903148D01*
X22896300Y79797504D01*
X22876615Y79730465D01*
X22823811Y79684710D01*
X22754653Y79674766D01*
X22691097Y79703791D01*
X22671985Y79724615D01*
X22670531Y79726616D01*
X22521616Y79875531D01*
X22351239Y79999317D01*
X22338464Y80005826D01*
X22163591Y80094929D01*
X21963307Y80160005D01*
X21807300Y80184714D01*
X21755299Y80192950D01*
X21544701Y80192950D01*
X21475366Y80181969D01*
X21336694Y80160005D01*
X21336691Y80160005D01*
X21136408Y80094929D01*
X20948760Y79999317D01*
X20778381Y79875529D01*
X20629471Y79726619D01*
X20505683Y79556240D01*
X20410071Y79368592D01*
X20344995Y79168309D01*
X20344995Y79168306D01*
X20312050Y78960299D01*
X17690549Y78960299D01*
X17884165Y79203085D01*
X18060668Y79483988D01*
X18204610Y79782887D01*
X18314181Y80096023D01*
X18388002Y80419457D01*
X18403674Y80558543D01*
X18407149Y80589384D01*
X18434216Y80653798D01*
X18491811Y80693353D01*
X18530369Y80699500D01*
X29410118Y80699500D01*
X29440243Y80699500D01*
X29459640Y80697973D01*
X29475080Y80695528D01*
X29523154Y80687914D01*
X29560046Y80675927D01*
X29608544Y80651217D01*
X29639929Y80628414D01*
X29678413Y80589930D01*
X29701217Y80558543D01*
X29725925Y80510050D01*
X29737913Y80473155D01*
X29747973Y80409642D01*
X29749500Y80390243D01*
X29749500Y4859758D01*
X29747973Y4840361D01*
X29747973Y4840359D01*
X29737913Y4776846D01*
X29725925Y4739951D01*
X29701217Y4691458D01*
X29678413Y4660071D01*
X29639929Y4621587D01*
X29608542Y4598783D01*
X29560049Y4574075D01*
X29523154Y4562087D01*
X29485734Y4556160D01*
X29459639Y4552027D01*
X29440243Y4550500D01*
X25831005Y4550500D01*
X25695677Y4523582D01*
X25695667Y4523579D01*
X25568195Y4470779D01*
X25568182Y4470772D01*
X25453458Y4394115D01*
X25453454Y4394112D01*
X25355888Y4296546D01*
X25355885Y4296542D01*
X25279228Y4181818D01*
X25279221Y4181805D01*
X25226421Y4054333D01*
X25226418Y4054323D01*
X25199500Y3918996D01*
X25199500Y3874000D01*
X25179815Y3806961D01*
X25127011Y3761206D01*
X25075500Y3750000D01*
X9983441Y3750000D01*
X9916402Y3769685D01*
X9895760Y3786319D01*
X9810292Y3871787D01*
X9810288Y3871790D01*
X9679185Y3959391D01*
X9679172Y3959398D01*
X9533501Y4019736D01*
X9533489Y4019739D01*
X9378845Y4050500D01*
X9378842Y4050500D01*
X9339882Y4050500D01*
X9300000Y4050500D01*
X9221158Y4050500D01*
X9221155Y4050500D01*
X9066510Y4019739D01*
X9066498Y4019736D01*
X8920827Y3959398D01*
X8920814Y3959391D01*
X8789711Y3871790D01*
X8789707Y3871787D01*
X8704240Y3786319D01*
X8642917Y3752834D01*
X8616559Y3750000D01*
X5774500Y3750000D01*
X5707461Y3769685D01*
X5661706Y3822489D01*
X5650500Y3874000D01*
X5650500Y3918996D01*
X5623581Y4054323D01*
X5623580Y4054324D01*
X5623580Y4054328D01*
X5584159Y4149500D01*
X5570778Y4181805D01*
X5570771Y4181818D01*
X5494114Y4296542D01*
X5494111Y4296546D01*
X5396545Y4394112D01*
X5396541Y4394115D01*
X5281817Y4470772D01*
X5281804Y4470779D01*
X5154332Y4523579D01*
X5154322Y4523582D01*
X5018995Y4550500D01*
X5018993Y4550500D01*
X4989882Y4550500D01*
X1409757Y4550500D01*
X1390360Y4552027D01*
X1349549Y4558491D01*
X1326845Y4562087D01*
X1289950Y4574075D01*
X1241457Y4598783D01*
X1210070Y4621587D01*
X1171586Y4660071D01*
X1148782Y4691458D01*
X1124073Y4739954D01*
X1112086Y4776848D01*
X1111427Y4781007D01*
X1102027Y4840361D01*
X1100500Y4859758D01*
X1100500Y6803148D01*
X3846300Y6803148D01*
X3846300Y6696852D01*
X3873811Y6594177D01*
X3926959Y6502122D01*
X4002122Y6426959D01*
X4094177Y6373811D01*
X4109243Y6369775D01*
X4168903Y6333410D01*
X4199432Y6270563D01*
X4191137Y6201188D01*
X4146652Y6147310D01*
X4109244Y6130227D01*
X4094177Y6126189D01*
X4094175Y6126188D01*
X4094174Y6126188D01*
X4002125Y6073043D01*
X4002119Y6073039D01*
X3926961Y5997881D01*
X3926957Y5997875D01*
X3873812Y5905826D01*
X3873812Y5905825D01*
X3873811Y5905823D01*
X3846300Y5803148D01*
X3846300Y5696852D01*
X3873811Y5594177D01*
X3926959Y5502122D01*
X4002122Y5426959D01*
X4094177Y5373811D01*
X4196852Y5346300D01*
X4196854Y5346300D01*
X4303146Y5346300D01*
X4303148Y5346300D01*
X4405823Y5373811D01*
X4497878Y5426959D01*
X4573041Y5502122D01*
X4626189Y5594177D01*
X4630225Y5609244D01*
X4666589Y5668903D01*
X4729435Y5699433D01*
X4798811Y5691139D01*
X4852690Y5646654D01*
X4869773Y5609245D01*
X4873811Y5594177D01*
X4926959Y5502122D01*
X5002122Y5426959D01*
X5094177Y5373811D01*
X5196852Y5346300D01*
X5196854Y5346300D01*
X5303146Y5346300D01*
X5303148Y5346300D01*
X5405823Y5373811D01*
X5497878Y5426959D01*
X5573041Y5502122D01*
X5626189Y5594177D01*
X5653700Y5696852D01*
X5653700Y5803148D01*
X5633604Y5878148D01*
X9596300Y5878148D01*
X9596300Y5771852D01*
X9623811Y5669177D01*
X9676959Y5577122D01*
X9752122Y5501959D01*
X9844177Y5448811D01*
X9946852Y5421300D01*
X9946854Y5421300D01*
X10053146Y5421300D01*
X10053148Y5421300D01*
X10155823Y5448811D01*
X10247878Y5501959D01*
X10323041Y5577122D01*
X10376189Y5669177D01*
X10403700Y5771852D01*
X10403700Y5878148D01*
X10376189Y5980823D01*
X10323041Y6072878D01*
X10295653Y6100266D01*
X10293417Y6103148D01*
X18793100Y6103148D01*
X18793100Y5996852D01*
X18820611Y5894177D01*
X18820612Y5894176D01*
X18820612Y5894175D01*
X18838327Y5863492D01*
X18873759Y5802122D01*
X18948922Y5726959D01*
X19040977Y5673811D01*
X19143652Y5646300D01*
X19143654Y5646300D01*
X19249946Y5646300D01*
X19249948Y5646300D01*
X19352623Y5673811D01*
X19444678Y5726959D01*
X19519841Y5802122D01*
X19572989Y5894177D01*
X19600500Y5996852D01*
X19600500Y6103148D01*
X19572989Y6205823D01*
X19519841Y6297878D01*
X19444678Y6373041D01*
X19352623Y6426189D01*
X19249948Y6453700D01*
X19143652Y6453700D01*
X19040977Y6426189D01*
X19040975Y6426188D01*
X19040974Y6426188D01*
X18948925Y6373043D01*
X18948919Y6373039D01*
X18873761Y6297881D01*
X18873757Y6297875D01*
X18820612Y6205826D01*
X18820612Y6205825D01*
X18820611Y6205823D01*
X18793100Y6103148D01*
X10293417Y6103148D01*
X10290877Y6106422D01*
X10280839Y6131979D01*
X10267683Y6156074D01*
X10268252Y6164032D01*
X10265336Y6171456D01*
X10270708Y6198379D01*
X10272667Y6225766D01*
X10277448Y6232153D01*
X10279009Y6239975D01*
X10298085Y6259721D01*
X10314539Y6281699D01*
X10326835Y6289811D01*
X10347878Y6301959D01*
X10423041Y6377122D01*
X10476189Y6469177D01*
X10503700Y6571852D01*
X10503700Y6678148D01*
X10476189Y6780823D01*
X10423041Y6872878D01*
X10347878Y6948041D01*
X10255823Y7001189D01*
X10153148Y7028700D01*
X10046852Y7028700D01*
X9944177Y7001189D01*
X9944175Y7001188D01*
X9944174Y7001188D01*
X9852125Y6948043D01*
X9852119Y6948039D01*
X9776961Y6872881D01*
X9776957Y6872875D01*
X9723812Y6780826D01*
X9723812Y6780825D01*
X9723811Y6780823D01*
X9696300Y6678148D01*
X9696300Y6571852D01*
X9723811Y6469177D01*
X9776959Y6377122D01*
X9776961Y6377120D01*
X9798831Y6355250D01*
X9832316Y6293927D01*
X9827332Y6224235D01*
X9785460Y6168302D01*
X9773151Y6160183D01*
X9752128Y6148046D01*
X9752119Y6148039D01*
X9676961Y6072881D01*
X9676957Y6072875D01*
X9623812Y5980826D01*
X9623812Y5980825D01*
X9623811Y5980823D01*
X9596300Y5878148D01*
X5633604Y5878148D01*
X5626189Y5905823D01*
X5573041Y5997878D01*
X5497878Y6073041D01*
X5405823Y6126189D01*
X5390756Y6130226D01*
X5331097Y6166589D01*
X5300567Y6229435D01*
X5308861Y6298811D01*
X5353346Y6352690D01*
X5390755Y6369774D01*
X5405823Y6373811D01*
X5497878Y6426959D01*
X5573041Y6502122D01*
X5626189Y6594177D01*
X5653700Y6696852D01*
X5653700Y6803148D01*
X5626189Y6905823D01*
X5573041Y6997878D01*
X5497878Y7073041D01*
X5445731Y7103148D01*
X24466300Y7103148D01*
X24466300Y6996852D01*
X24493811Y6894177D01*
X24546959Y6802122D01*
X24622122Y6726959D01*
X24714177Y6673811D01*
X24816852Y6646300D01*
X24816854Y6646300D01*
X24923146Y6646300D01*
X24923148Y6646300D01*
X25025823Y6673811D01*
X25117878Y6726959D01*
X25193041Y6802122D01*
X25196197Y6807590D01*
X25246758Y6855807D01*
X25315364Y6869035D01*
X25335666Y6865374D01*
X25406852Y6846300D01*
X25406855Y6846300D01*
X25513146Y6846300D01*
X25513148Y6846300D01*
X25615823Y6873811D01*
X25707878Y6926959D01*
X25783041Y7002122D01*
X25784042Y7003857D01*
X25785267Y7005025D01*
X25787989Y7008571D01*
X25788541Y7008147D01*
X25834608Y7052071D01*
X25903215Y7065295D01*
X25946474Y7051466D01*
X25946664Y7051923D01*
X25952143Y7049654D01*
X25953429Y7049243D01*
X25953919Y7048960D01*
X25954173Y7048813D01*
X25954177Y7048811D01*
X26056852Y7021300D01*
X26056854Y7021300D01*
X26163146Y7021300D01*
X26163148Y7021300D01*
X26265823Y7048811D01*
X26357878Y7101959D01*
X26433041Y7177122D01*
X26486189Y7269177D01*
X26513700Y7371852D01*
X26513700Y7478148D01*
X26486189Y7580823D01*
X26433041Y7672878D01*
X26357878Y7748041D01*
X26269942Y7798811D01*
X26265825Y7801188D01*
X26265824Y7801189D01*
X26265823Y7801189D01*
X26163148Y7828700D01*
X26056852Y7828700D01*
X25954177Y7801189D01*
X25954175Y7801188D01*
X25954174Y7801188D01*
X25862125Y7748043D01*
X25862119Y7748039D01*
X25786961Y7672881D01*
X25786952Y7672869D01*
X25785949Y7671131D01*
X25784720Y7669960D01*
X25782011Y7666429D01*
X25781459Y7666852D01*
X25735376Y7622922D01*
X25666767Y7609708D01*
X25623524Y7623534D01*
X25623336Y7623077D01*
X25617864Y7625343D01*
X25616573Y7625756D01*
X25615825Y7626188D01*
X25615824Y7626189D01*
X25615823Y7626189D01*
X25513148Y7653700D01*
X25406852Y7653700D01*
X25304177Y7626189D01*
X25304175Y7626188D01*
X25304174Y7626188D01*
X25212125Y7573043D01*
X25212119Y7573039D01*
X25136961Y7497881D01*
X25136954Y7497872D01*
X25133796Y7492401D01*
X25083227Y7444188D01*
X25014619Y7430968D01*
X24994321Y7434631D01*
X24923152Y7453700D01*
X24923148Y7453700D01*
X24816852Y7453700D01*
X24714177Y7426189D01*
X24714175Y7426188D01*
X24714174Y7426188D01*
X24622125Y7373043D01*
X24622119Y7373039D01*
X24546961Y7297881D01*
X24546957Y7297875D01*
X24493812Y7205826D01*
X24493812Y7205825D01*
X24493811Y7205823D01*
X24466300Y7103148D01*
X5445731Y7103148D01*
X5436508Y7108473D01*
X5405825Y7126188D01*
X5405824Y7126189D01*
X5405823Y7126189D01*
X5303148Y7153700D01*
X5196852Y7153700D01*
X5094177Y7126189D01*
X5094175Y7126188D01*
X5094174Y7126188D01*
X5002125Y7073043D01*
X5002119Y7073039D01*
X4926961Y6997881D01*
X4926957Y6997875D01*
X4873812Y6905826D01*
X4873812Y6905825D01*
X4873811Y6905823D01*
X4869774Y6890757D01*
X4833410Y6831097D01*
X4770563Y6800568D01*
X4701188Y6808863D01*
X4647310Y6853348D01*
X4630226Y6890756D01*
X4626189Y6905823D01*
X4573041Y6997878D01*
X4497878Y7073041D01*
X4436508Y7108473D01*
X4405825Y7126188D01*
X4405824Y7126189D01*
X4405823Y7126189D01*
X4303148Y7153700D01*
X4196852Y7153700D01*
X4094177Y7126189D01*
X4094175Y7126188D01*
X4094174Y7126188D01*
X4002125Y7073043D01*
X4002119Y7073039D01*
X3926961Y6997881D01*
X3926957Y6997875D01*
X3873812Y6905826D01*
X3873812Y6905825D01*
X3873811Y6905823D01*
X3846300Y6803148D01*
X1100500Y6803148D01*
X1100500Y8228148D01*
X20446300Y8228148D01*
X20446300Y8121852D01*
X20473811Y8019177D01*
X20526959Y7927122D01*
X20602122Y7851959D01*
X20694177Y7798811D01*
X20796852Y7771300D01*
X20796854Y7771300D01*
X20903146Y7771300D01*
X20903148Y7771300D01*
X21005823Y7798811D01*
X21097878Y7851959D01*
X21173041Y7927122D01*
X21226189Y8019177D01*
X21253700Y8121852D01*
X21253700Y8228148D01*
X21237071Y8290210D01*
X21237666Y8315202D01*
X21234108Y8339947D01*
X21238483Y8349528D01*
X21238734Y8360056D01*
X21252746Y8380761D01*
X21263133Y8403503D01*
X21271992Y8409197D01*
X21277896Y8417919D01*
X21300879Y8427761D01*
X21321911Y8441277D01*
X21337766Y8443557D01*
X21342125Y8445423D01*
X21356846Y8446300D01*
X21424139Y8446300D01*
X21491178Y8426615D01*
X21536933Y8373811D01*
X21543205Y8351982D01*
X21544197Y8352247D01*
X21546300Y8344399D01*
X21546300Y8344397D01*
X21573811Y8241722D01*
X21626959Y8149667D01*
X21702122Y8074504D01*
X21794177Y8021356D01*
X21896852Y7993845D01*
X21896854Y7993845D01*
X22003146Y7993845D01*
X22003148Y7993845D01*
X22105823Y8021356D01*
X22197878Y8074504D01*
X22273041Y8149667D01*
X22326189Y8241722D01*
X22353700Y8344397D01*
X22353700Y8372300D01*
X22373385Y8439339D01*
X22426189Y8485094D01*
X22477700Y8496300D01*
X22553146Y8496300D01*
X22553148Y8496300D01*
X22655823Y8523811D01*
X22747878Y8576959D01*
X22823041Y8652122D01*
X22868390Y8730670D01*
X22918957Y8778885D01*
X22987564Y8792108D01*
X23007864Y8788446D01*
X23071852Y8771300D01*
X23071854Y8771300D01*
X23178146Y8771300D01*
X23178148Y8771300D01*
X23280823Y8798811D01*
X23372878Y8851959D01*
X23448041Y8927122D01*
X23448041Y8927123D01*
X23453788Y8932869D01*
X23456124Y8930533D01*
X23500071Y8962661D01*
X23569815Y8966858D01*
X23574150Y8965780D01*
X23646852Y8946300D01*
X23646854Y8946300D01*
X23753146Y8946300D01*
X23753148Y8946300D01*
X23855823Y8973811D01*
X23947878Y9026959D01*
X24023041Y9102122D01*
X24049192Y9147417D01*
X24099757Y9195631D01*
X24168364Y9208855D01*
X24188666Y9205192D01*
X24221852Y9196300D01*
X24221854Y9196300D01*
X24328146Y9196300D01*
X24328148Y9196300D01*
X24430823Y9223811D01*
X24522878Y9276959D01*
X24598041Y9352122D01*
X24651189Y9444177D01*
X24678700Y9546852D01*
X24678700Y9653148D01*
X24651189Y9755823D01*
X24598041Y9847878D01*
X24522878Y9923041D01*
X24430823Y9976189D01*
X24328148Y10003700D01*
X24221852Y10003700D01*
X24119177Y9976189D01*
X24119175Y9976188D01*
X24119174Y9976188D01*
X24027125Y9923043D01*
X24027119Y9923039D01*
X23951961Y9847881D01*
X23951957Y9847875D01*
X23925807Y9802583D01*
X23875239Y9754369D01*
X23806632Y9741147D01*
X23786330Y9744810D01*
X23753152Y9753700D01*
X23753148Y9753700D01*
X23646852Y9753700D01*
X23544177Y9726189D01*
X23544175Y9726188D01*
X23544174Y9726188D01*
X23452125Y9673043D01*
X23452119Y9673039D01*
X23371212Y9592131D01*
X23368893Y9594450D01*
X23324767Y9562282D01*
X23255018Y9558182D01*
X23250818Y9559229D01*
X23178149Y9578700D01*
X23178148Y9578700D01*
X23071852Y9578700D01*
X22969177Y9551189D01*
X22969175Y9551188D01*
X22969174Y9551188D01*
X22877125Y9498043D01*
X22877119Y9498039D01*
X22801961Y9422881D01*
X22801954Y9422872D01*
X22756608Y9344331D01*
X22706041Y9296116D01*
X22637433Y9282894D01*
X22617130Y9286557D01*
X22553149Y9303700D01*
X22553148Y9303700D01*
X22446852Y9303700D01*
X22344177Y9276189D01*
X22344175Y9276188D01*
X22344174Y9276188D01*
X22252125Y9223043D01*
X22252119Y9223039D01*
X22176961Y9147881D01*
X22176957Y9147875D01*
X22123812Y9055826D01*
X22123812Y9055825D01*
X22123811Y9055823D01*
X22099683Y8965772D01*
X22096300Y8953148D01*
X22096300Y8925245D01*
X22093749Y8916560D01*
X22095038Y8907598D01*
X22084059Y8883558D01*
X22076615Y8858206D01*
X22069774Y8852279D01*
X22066013Y8844042D01*
X22043778Y8829753D01*
X22023811Y8812451D01*
X22013296Y8810164D01*
X22007235Y8806268D01*
X21972300Y8801245D01*
X21900861Y8801245D01*
X21833822Y8820930D01*
X21788067Y8873734D01*
X21781794Y8895564D01*
X21780803Y8895298D01*
X21778700Y8903148D01*
X21751189Y9005823D01*
X21698041Y9097878D01*
X21622878Y9173041D01*
X21536279Y9223039D01*
X21530825Y9226188D01*
X21530824Y9226189D01*
X21530823Y9226189D01*
X21428148Y9253700D01*
X21321852Y9253700D01*
X21219177Y9226189D01*
X21219175Y9226188D01*
X21219174Y9226188D01*
X21127125Y9173043D01*
X21127119Y9173039D01*
X21051961Y9097881D01*
X21051957Y9097875D01*
X20998812Y9005826D01*
X20998812Y9005825D01*
X20998811Y9005823D01*
X20971300Y8903148D01*
X20971300Y8796852D01*
X20987928Y8734791D01*
X20986266Y8664944D01*
X20947104Y8607081D01*
X20882875Y8579577D01*
X20868154Y8578700D01*
X20796852Y8578700D01*
X20694177Y8551189D01*
X20694175Y8551188D01*
X20694174Y8551188D01*
X20602125Y8498043D01*
X20602119Y8498039D01*
X20526961Y8422881D01*
X20526957Y8422875D01*
X20473812Y8330826D01*
X20473812Y8330825D01*
X20473811Y8330823D01*
X20446300Y8228148D01*
X1100500Y8228148D01*
X1100500Y9103148D01*
X6671300Y9103148D01*
X6671300Y8996852D01*
X6698811Y8894177D01*
X6751959Y8802122D01*
X6827122Y8726959D01*
X6919177Y8673811D01*
X7021852Y8646300D01*
X7021854Y8646300D01*
X7128146Y8646300D01*
X7128148Y8646300D01*
X7230823Y8673811D01*
X7322878Y8726959D01*
X7337319Y8741400D01*
X7398642Y8774885D01*
X7468334Y8769901D01*
X7512681Y8741400D01*
X7527122Y8726959D01*
X7619177Y8673811D01*
X7721852Y8646300D01*
X7721854Y8646300D01*
X7828146Y8646300D01*
X7828148Y8646300D01*
X7930823Y8673811D01*
X8022878Y8726959D01*
X8098041Y8802122D01*
X8151189Y8894177D01*
X8178700Y8996852D01*
X8178700Y9103148D01*
X8151189Y9205823D01*
X8098041Y9297878D01*
X8022878Y9373041D01*
X7930823Y9426189D01*
X7828148Y9453700D01*
X7721852Y9453700D01*
X7619177Y9426189D01*
X7619175Y9426188D01*
X7619174Y9426188D01*
X7527125Y9373043D01*
X7527119Y9373039D01*
X7512681Y9358600D01*
X7451358Y9325115D01*
X7381666Y9330099D01*
X7337319Y9358600D01*
X7322880Y9373039D01*
X7322878Y9373041D01*
X7230823Y9426189D01*
X7128148Y9453700D01*
X7021852Y9453700D01*
X6919177Y9426189D01*
X6919175Y9426188D01*
X6919174Y9426188D01*
X6827125Y9373043D01*
X6827119Y9373039D01*
X6751961Y9297881D01*
X6751957Y9297875D01*
X6698812Y9205826D01*
X6698812Y9205825D01*
X6698811Y9205823D01*
X6671300Y9103148D01*
X1100500Y9103148D01*
X1100500Y10253148D01*
X1396300Y10253148D01*
X1396300Y10146852D01*
X1423811Y10044177D01*
X1476959Y9952122D01*
X1552122Y9876959D01*
X1644177Y9823811D01*
X1746852Y9796300D01*
X1746854Y9796300D01*
X1853146Y9796300D01*
X1853148Y9796300D01*
X1955823Y9823811D01*
X2047878Y9876959D01*
X2123041Y9952122D01*
X2176189Y10044177D01*
X2203700Y10146852D01*
X2203700Y10253148D01*
X2176189Y10355823D01*
X2123041Y10447878D01*
X2047878Y10523041D01*
X1955823Y10576189D01*
X1853148Y10603700D01*
X1746852Y10603700D01*
X1644177Y10576189D01*
X1644175Y10576188D01*
X1644174Y10576188D01*
X1552125Y10523043D01*
X1552119Y10523039D01*
X1476961Y10447881D01*
X1476957Y10447875D01*
X1423812Y10355826D01*
X1423812Y10355825D01*
X1423811Y10355823D01*
X1396300Y10253148D01*
X1100500Y10253148D01*
X1100500Y10803148D01*
X11451300Y10803148D01*
X11451300Y10696852D01*
X11478811Y10594177D01*
X11531959Y10502122D01*
X11607122Y10426959D01*
X11699177Y10373811D01*
X11801852Y10346300D01*
X11801854Y10346300D01*
X11908146Y10346300D01*
X11908148Y10346300D01*
X12010823Y10373811D01*
X12102878Y10426959D01*
X12117319Y10441400D01*
X12178642Y10474885D01*
X12248334Y10469901D01*
X12292681Y10441400D01*
X12307122Y10426959D01*
X12399177Y10373811D01*
X12501852Y10346300D01*
X12501854Y10346300D01*
X12608146Y10346300D01*
X12608148Y10346300D01*
X12710823Y10373811D01*
X12802878Y10426959D01*
X12878041Y10502122D01*
X12931189Y10594177D01*
X12958700Y10696852D01*
X12958700Y10803148D01*
X12931189Y10905823D01*
X12878041Y10997878D01*
X12802878Y11073041D01*
X12741508Y11108473D01*
X12710825Y11126188D01*
X12710824Y11126189D01*
X12710823Y11126189D01*
X12608148Y11153700D01*
X12501852Y11153700D01*
X12399177Y11126189D01*
X12399175Y11126188D01*
X12399174Y11126188D01*
X12307125Y11073043D01*
X12307119Y11073039D01*
X12292681Y11058600D01*
X12231358Y11025115D01*
X12161666Y11030099D01*
X12117319Y11058600D01*
X12102880Y11073039D01*
X12102878Y11073041D01*
X12041508Y11108473D01*
X12010825Y11126188D01*
X12010824Y11126189D01*
X12010823Y11126189D01*
X11908148Y11153700D01*
X11801852Y11153700D01*
X11699177Y11126189D01*
X11699175Y11126188D01*
X11699174Y11126188D01*
X11607125Y11073043D01*
X11607119Y11073039D01*
X11531961Y10997881D01*
X11531957Y10997875D01*
X11478812Y10905826D01*
X11478812Y10905825D01*
X11478811Y10905823D01*
X11451300Y10803148D01*
X1100500Y10803148D01*
X1100500Y11378148D01*
X13461300Y11378148D01*
X13461300Y11271852D01*
X13488811Y11169177D01*
X13541959Y11077122D01*
X13617122Y11001959D01*
X13709177Y10948811D01*
X13811852Y10921300D01*
X13811854Y10921300D01*
X13918146Y10921300D01*
X13918148Y10921300D01*
X14020823Y10948811D01*
X14112878Y11001959D01*
X14127319Y11016400D01*
X14188642Y11049885D01*
X14258334Y11044901D01*
X14302681Y11016400D01*
X14317122Y11001959D01*
X14409177Y10948811D01*
X14511852Y10921300D01*
X14511854Y10921300D01*
X14618146Y10921300D01*
X14618148Y10921300D01*
X14720823Y10948811D01*
X14812878Y11001959D01*
X14888041Y11077122D01*
X14941189Y11169177D01*
X14968700Y11271852D01*
X14968700Y11378148D01*
X14941189Y11480823D01*
X14888041Y11572878D01*
X14812878Y11648041D01*
X14720823Y11701189D01*
X14618148Y11728700D01*
X14511852Y11728700D01*
X14409177Y11701189D01*
X14409175Y11701188D01*
X14409174Y11701188D01*
X14317125Y11648043D01*
X14317119Y11648039D01*
X14302681Y11633600D01*
X14241358Y11600115D01*
X14171666Y11605099D01*
X14127319Y11633600D01*
X14112880Y11648039D01*
X14112878Y11648041D01*
X14020823Y11701189D01*
X13918148Y11728700D01*
X13811852Y11728700D01*
X13709177Y11701189D01*
X13709175Y11701188D01*
X13709174Y11701188D01*
X13617125Y11648043D01*
X13617119Y11648039D01*
X13541961Y11572881D01*
X13541957Y11572875D01*
X13488812Y11480826D01*
X13488812Y11480825D01*
X13488811Y11480823D01*
X13461300Y11378148D01*
X1100500Y11378148D01*
X1100500Y11903148D01*
X2821300Y11903148D01*
X2821300Y11796852D01*
X2848811Y11694177D01*
X2901959Y11602122D01*
X2977122Y11526959D01*
X3069177Y11473811D01*
X3171852Y11446300D01*
X3171854Y11446300D01*
X3278146Y11446300D01*
X3278148Y11446300D01*
X3380823Y11473811D01*
X3472878Y11526959D01*
X3548041Y11602122D01*
X3601189Y11694177D01*
X3628700Y11796852D01*
X3628700Y11903148D01*
X3601189Y12005823D01*
X3548041Y12097878D01*
X3472878Y12173041D01*
X3380823Y12226189D01*
X3278148Y12253700D01*
X3171852Y12253700D01*
X3069177Y12226189D01*
X3069175Y12226188D01*
X3069174Y12226188D01*
X2977125Y12173043D01*
X2977119Y12173039D01*
X2901961Y12097881D01*
X2901957Y12097875D01*
X2848812Y12005826D01*
X2848812Y12005825D01*
X2848811Y12005823D01*
X2821300Y11903148D01*
X1100500Y11903148D01*
X1100500Y14503148D01*
X27546300Y14503148D01*
X27546300Y14396852D01*
X27573811Y14294177D01*
X27626959Y14202122D01*
X27702122Y14126959D01*
X27794177Y14073811D01*
X27896852Y14046300D01*
X27896854Y14046300D01*
X28003146Y14046300D01*
X28003148Y14046300D01*
X28105823Y14073811D01*
X28197878Y14126959D01*
X28273041Y14202122D01*
X28326189Y14294177D01*
X28353700Y14396852D01*
X28353700Y14503148D01*
X28326189Y14605823D01*
X28273041Y14697878D01*
X28197878Y14773041D01*
X28105823Y14826189D01*
X28003148Y14853700D01*
X27896852Y14853700D01*
X27794177Y14826189D01*
X27794175Y14826188D01*
X27794174Y14826188D01*
X27702125Y14773043D01*
X27702119Y14773039D01*
X27626961Y14697881D01*
X27626957Y14697875D01*
X27573812Y14605826D01*
X27573812Y14605825D01*
X27573811Y14605823D01*
X27546300Y14503148D01*
X1100500Y14503148D01*
X1100500Y15053148D01*
X11296300Y15053148D01*
X11296300Y14946852D01*
X11323811Y14844177D01*
X11376959Y14752122D01*
X11452122Y14676959D01*
X11544177Y14623811D01*
X11646852Y14596300D01*
X11646854Y14596300D01*
X11753146Y14596300D01*
X11753148Y14596300D01*
X11855823Y14623811D01*
X11947878Y14676959D01*
X12023041Y14752122D01*
X12076189Y14844177D01*
X12085226Y14877905D01*
X12121590Y14937563D01*
X12184436Y14968093D01*
X12253812Y14959799D01*
X12307690Y14915314D01*
X12324773Y14877907D01*
X12333811Y14844177D01*
X12386959Y14752122D01*
X12462122Y14676959D01*
X12554177Y14623811D01*
X12656852Y14596300D01*
X12656854Y14596300D01*
X12763146Y14596300D01*
X12763148Y14596300D01*
X12865823Y14623811D01*
X12957878Y14676959D01*
X13033041Y14752122D01*
X13086189Y14844177D01*
X13095226Y14877905D01*
X13131590Y14937563D01*
X13194436Y14968093D01*
X13263812Y14959799D01*
X13317690Y14915314D01*
X13334773Y14877907D01*
X13343811Y14844177D01*
X13396959Y14752122D01*
X13472122Y14676959D01*
X13564177Y14623811D01*
X13666852Y14596300D01*
X13666854Y14596300D01*
X13773146Y14596300D01*
X13773148Y14596300D01*
X13875823Y14623811D01*
X13967878Y14676959D01*
X14043041Y14752122D01*
X14096189Y14844177D01*
X14100225Y14859244D01*
X14136589Y14918903D01*
X14199435Y14949433D01*
X14268811Y14941139D01*
X14322690Y14896654D01*
X14339773Y14859245D01*
X14343811Y14844177D01*
X14396959Y14752122D01*
X14472122Y14676959D01*
X14564177Y14623811D01*
X14666852Y14596300D01*
X14666854Y14596300D01*
X14773146Y14596300D01*
X14773148Y14596300D01*
X14875823Y14623811D01*
X14967878Y14676959D01*
X15043041Y14752122D01*
X15096189Y14844177D01*
X15123700Y14946852D01*
X15123700Y15053148D01*
X15096189Y15155823D01*
X15043041Y15247878D01*
X14967878Y15323041D01*
X14875823Y15376189D01*
X14773148Y15403700D01*
X14666852Y15403700D01*
X14564177Y15376189D01*
X14564175Y15376188D01*
X14564174Y15376188D01*
X14472125Y15323043D01*
X14472119Y15323039D01*
X14396961Y15247881D01*
X14396957Y15247875D01*
X14343812Y15155826D01*
X14343812Y15155825D01*
X14343811Y15155823D01*
X14339774Y15140757D01*
X14303410Y15081097D01*
X14240563Y15050568D01*
X14171188Y15058863D01*
X14117310Y15103348D01*
X14100226Y15140756D01*
X14096189Y15155823D01*
X14043041Y15247878D01*
X13967878Y15323041D01*
X13875823Y15376189D01*
X13773148Y15403700D01*
X13666852Y15403700D01*
X13564177Y15376189D01*
X13564175Y15376188D01*
X13564174Y15376188D01*
X13472125Y15323043D01*
X13472119Y15323039D01*
X13396961Y15247881D01*
X13396957Y15247875D01*
X13343812Y15155826D01*
X13343812Y15155825D01*
X13343811Y15155823D01*
X13334773Y15122096D01*
X13298410Y15062437D01*
X13235563Y15031908D01*
X13166187Y15040203D01*
X13112309Y15084688D01*
X13095226Y15122094D01*
X13086189Y15155823D01*
X13033041Y15247878D01*
X12957878Y15323041D01*
X12865823Y15376189D01*
X12763148Y15403700D01*
X12656852Y15403700D01*
X12554177Y15376189D01*
X12554175Y15376188D01*
X12554174Y15376188D01*
X12462125Y15323043D01*
X12462119Y15323039D01*
X12386961Y15247881D01*
X12386957Y15247875D01*
X12333812Y15155826D01*
X12333812Y15155825D01*
X12333811Y15155823D01*
X12324773Y15122096D01*
X12288410Y15062437D01*
X12225563Y15031908D01*
X12156187Y15040203D01*
X12102309Y15084688D01*
X12085226Y15122094D01*
X12076189Y15155823D01*
X12023041Y15247878D01*
X11947878Y15323041D01*
X11855823Y15376189D01*
X11753148Y15403700D01*
X11646852Y15403700D01*
X11544177Y15376189D01*
X11544175Y15376188D01*
X11544174Y15376188D01*
X11452125Y15323043D01*
X11452119Y15323039D01*
X11376961Y15247881D01*
X11376957Y15247875D01*
X11323812Y15155826D01*
X11323812Y15155825D01*
X11323811Y15155823D01*
X11296300Y15053148D01*
X1100500Y15053148D01*
X1100500Y15753148D01*
X9921300Y15753148D01*
X9921300Y15646852D01*
X9948811Y15544177D01*
X10001959Y15452122D01*
X10077122Y15376959D01*
X10169177Y15323811D01*
X10271852Y15296300D01*
X10271854Y15296300D01*
X10378146Y15296300D01*
X10378148Y15296300D01*
X10480823Y15323811D01*
X10572878Y15376959D01*
X10648041Y15452122D01*
X10701189Y15544177D01*
X10728700Y15646852D01*
X10728700Y15728148D01*
X18496300Y15728148D01*
X18496300Y15621852D01*
X18523811Y15519177D01*
X18576959Y15427122D01*
X18652122Y15351959D01*
X18744177Y15298811D01*
X18846852Y15271300D01*
X18846854Y15271300D01*
X18953146Y15271300D01*
X18953148Y15271300D01*
X19055823Y15298811D01*
X19147878Y15351959D01*
X19223041Y15427122D01*
X19276189Y15519177D01*
X19303700Y15621852D01*
X19303700Y15728148D01*
X19276189Y15830823D01*
X19223041Y15922878D01*
X19147878Y15998041D01*
X19055823Y16051189D01*
X18953148Y16078700D01*
X18846852Y16078700D01*
X18744177Y16051189D01*
X18744175Y16051188D01*
X18744174Y16051188D01*
X18652125Y15998043D01*
X18652119Y15998039D01*
X18576961Y15922881D01*
X18576957Y15922875D01*
X18523812Y15830826D01*
X18523812Y15830825D01*
X18523811Y15830823D01*
X18496300Y15728148D01*
X10728700Y15728148D01*
X10728700Y15753148D01*
X10701189Y15855823D01*
X10648041Y15947878D01*
X10572878Y16023041D01*
X10480823Y16076189D01*
X10378148Y16103700D01*
X10271852Y16103700D01*
X10169177Y16076189D01*
X10169175Y16076188D01*
X10169174Y16076188D01*
X10077125Y16023043D01*
X10077119Y16023039D01*
X10001961Y15947881D01*
X10001957Y15947875D01*
X9948812Y15855826D01*
X9948812Y15855825D01*
X9948811Y15855823D01*
X9921300Y15753148D01*
X1100500Y15753148D01*
X1100500Y17653148D01*
X7146300Y17653148D01*
X7146300Y17546852D01*
X7173811Y17444177D01*
X7226959Y17352122D01*
X7302122Y17276959D01*
X7394177Y17223811D01*
X7496852Y17196300D01*
X7496854Y17196300D01*
X7603146Y17196300D01*
X7603148Y17196300D01*
X7614676Y17199389D01*
X7684524Y17197728D01*
X7742387Y17158566D01*
X7754156Y17141616D01*
X7776954Y17102129D01*
X7776957Y17102125D01*
X7776959Y17102122D01*
X7852122Y17026959D01*
X7944177Y16973811D01*
X8046852Y16946300D01*
X8046854Y16946300D01*
X8153145Y16946300D01*
X8153148Y16946300D01*
X8220482Y16964342D01*
X8290328Y16962679D01*
X8348191Y16923517D01*
X8359958Y16906568D01*
X8376959Y16877122D01*
X8452122Y16801959D01*
X8544177Y16748811D01*
X8646852Y16721300D01*
X8646854Y16721300D01*
X8753146Y16721300D01*
X8753148Y16721300D01*
X8817131Y16738444D01*
X8886978Y16736781D01*
X8944841Y16697619D01*
X8956609Y16680670D01*
X9001959Y16602122D01*
X9077122Y16526959D01*
X9169177Y16473811D01*
X9271852Y16446300D01*
X9271854Y16446300D01*
X9378146Y16446300D01*
X9378148Y16446300D01*
X9480823Y16473811D01*
X9572878Y16526959D01*
X9648041Y16602122D01*
X9701189Y16694177D01*
X9728700Y16796852D01*
X9728700Y16903148D01*
X9701906Y17003148D01*
X14946300Y17003148D01*
X14946300Y16896852D01*
X14973811Y16794177D01*
X15026959Y16702122D01*
X15102122Y16626959D01*
X15194177Y16573811D01*
X15296852Y16546300D01*
X15296854Y16546300D01*
X15403146Y16546300D01*
X15403148Y16546300D01*
X15505823Y16573811D01*
X15597878Y16626959D01*
X15673041Y16702122D01*
X15726189Y16794177D01*
X15753700Y16896852D01*
X15753700Y17003148D01*
X15726189Y17105823D01*
X15673041Y17197878D01*
X15597878Y17273041D01*
X15505823Y17326189D01*
X15403148Y17353700D01*
X15296852Y17353700D01*
X15194177Y17326189D01*
X15194175Y17326188D01*
X15194174Y17326188D01*
X15102125Y17273043D01*
X15102119Y17273039D01*
X15026961Y17197881D01*
X15026957Y17197875D01*
X14973812Y17105826D01*
X14973812Y17105825D01*
X14973811Y17105823D01*
X14946300Y17003148D01*
X9701906Y17003148D01*
X9701189Y17005823D01*
X9648041Y17097878D01*
X9572878Y17173041D01*
X9484942Y17223811D01*
X9480825Y17226188D01*
X9480824Y17226189D01*
X9480823Y17226189D01*
X9378148Y17253700D01*
X9271852Y17253700D01*
X9271847Y17253700D01*
X9207867Y17236557D01*
X9138017Y17238221D01*
X9080156Y17277384D01*
X9068392Y17294328D01*
X9023041Y17372878D01*
X8947878Y17448041D01*
X8937749Y17453889D01*
X8937748Y17453890D01*
X8855825Y17501188D01*
X8855824Y17501189D01*
X8855823Y17501189D01*
X8753148Y17528700D01*
X8646852Y17528700D01*
X8616239Y17520498D01*
X8579518Y17510659D01*
X8509668Y17512324D01*
X8451806Y17551488D01*
X8450653Y17553148D01*
X17596300Y17553148D01*
X17596300Y17446852D01*
X17623811Y17344177D01*
X17676959Y17252122D01*
X17752122Y17176959D01*
X17844177Y17123811D01*
X17946852Y17096300D01*
X17946854Y17096300D01*
X18053146Y17096300D01*
X18053148Y17096300D01*
X18155823Y17123811D01*
X18247878Y17176959D01*
X18323041Y17252122D01*
X18376189Y17344177D01*
X18403700Y17446852D01*
X18403700Y17553148D01*
X18376189Y17655823D01*
X18323041Y17747878D01*
X18247878Y17823041D01*
X18159942Y17873811D01*
X18155825Y17876188D01*
X18155824Y17876189D01*
X18155823Y17876189D01*
X18053148Y17903700D01*
X17946852Y17903700D01*
X17844177Y17876189D01*
X17844175Y17876188D01*
X17844174Y17876188D01*
X17752125Y17823043D01*
X17752119Y17823039D01*
X17676961Y17747881D01*
X17676957Y17747875D01*
X17623812Y17655826D01*
X17623812Y17655825D01*
X17623811Y17655823D01*
X17596300Y17553148D01*
X8450653Y17553148D01*
X8440040Y17568435D01*
X8438569Y17570982D01*
X8423041Y17597878D01*
X8347878Y17673041D01*
X8255823Y17726189D01*
X8153148Y17753700D01*
X8046852Y17753700D01*
X8046849Y17753700D01*
X8035318Y17750610D01*
X7965468Y17752275D01*
X7907607Y17791440D01*
X7895842Y17808385D01*
X7873041Y17847878D01*
X7797878Y17923041D01*
X7705823Y17976189D01*
X7603148Y18003700D01*
X7496852Y18003700D01*
X7394177Y17976189D01*
X7394175Y17976188D01*
X7394174Y17976188D01*
X7302125Y17923043D01*
X7302119Y17923039D01*
X7226961Y17847881D01*
X7226957Y17847875D01*
X7173812Y17755826D01*
X7173812Y17755825D01*
X7173811Y17755823D01*
X7146300Y17653148D01*
X1100500Y17653148D01*
X1100500Y18303148D01*
X18496300Y18303148D01*
X18496300Y18196852D01*
X18523811Y18094177D01*
X18576959Y18002122D01*
X18652122Y17926959D01*
X18744177Y17873811D01*
X18846852Y17846300D01*
X18846854Y17846300D01*
X18953146Y17846300D01*
X18953148Y17846300D01*
X19055823Y17873811D01*
X19147878Y17926959D01*
X19223041Y18002122D01*
X19276189Y18094177D01*
X19303700Y18196852D01*
X19303700Y18303148D01*
X19276189Y18405823D01*
X19223041Y18497878D01*
X19147878Y18573041D01*
X19055823Y18626189D01*
X18953148Y18653700D01*
X18846852Y18653700D01*
X18744177Y18626189D01*
X18744175Y18626188D01*
X18744174Y18626188D01*
X18652125Y18573043D01*
X18652119Y18573039D01*
X18576961Y18497881D01*
X18576957Y18497875D01*
X18523812Y18405826D01*
X18523812Y18405825D01*
X18523811Y18405823D01*
X18496300Y18303148D01*
X1100500Y18303148D01*
X1100500Y20803148D01*
X13346300Y20803148D01*
X13346300Y20696852D01*
X13373811Y20594177D01*
X13426959Y20502122D01*
X13502122Y20426959D01*
X13594177Y20373811D01*
X13696852Y20346300D01*
X13696854Y20346300D01*
X13803146Y20346300D01*
X13803148Y20346300D01*
X13905823Y20373811D01*
X13997878Y20426959D01*
X14073041Y20502122D01*
X14126189Y20594177D01*
X14153700Y20696852D01*
X14153700Y20803148D01*
X14846300Y20803148D01*
X14846300Y20696852D01*
X14873811Y20594177D01*
X14926959Y20502122D01*
X15002122Y20426959D01*
X15094177Y20373811D01*
X15196852Y20346300D01*
X15196854Y20346300D01*
X15303146Y20346300D01*
X15303148Y20346300D01*
X15405823Y20373811D01*
X15497878Y20426959D01*
X15573041Y20502122D01*
X15573633Y20503148D01*
X23096300Y20503148D01*
X23096300Y20396852D01*
X23123811Y20294177D01*
X23176959Y20202122D01*
X23252122Y20126959D01*
X23344177Y20073811D01*
X23446852Y20046300D01*
X23446854Y20046300D01*
X23553146Y20046300D01*
X23553148Y20046300D01*
X23655823Y20073811D01*
X23747878Y20126959D01*
X23823041Y20202122D01*
X23876189Y20294177D01*
X23903700Y20396852D01*
X23903700Y20503148D01*
X23876189Y20605823D01*
X23823041Y20697878D01*
X23747878Y20773041D01*
X23655823Y20826189D01*
X23553148Y20853700D01*
X23446852Y20853700D01*
X23344177Y20826189D01*
X23344175Y20826188D01*
X23344174Y20826188D01*
X23252125Y20773043D01*
X23252119Y20773039D01*
X23176961Y20697881D01*
X23176957Y20697875D01*
X23123812Y20605826D01*
X23123812Y20605825D01*
X23123811Y20605823D01*
X23096300Y20503148D01*
X15573633Y20503148D01*
X15626189Y20594177D01*
X15653700Y20696852D01*
X15653700Y20803148D01*
X15626189Y20905823D01*
X15573041Y20997878D01*
X15497878Y21073041D01*
X15409942Y21123811D01*
X15405825Y21126188D01*
X15405824Y21126189D01*
X15405823Y21126189D01*
X15303148Y21153700D01*
X15196852Y21153700D01*
X15094177Y21126189D01*
X15094175Y21126188D01*
X15094174Y21126188D01*
X15002125Y21073043D01*
X15002119Y21073039D01*
X14926961Y20997881D01*
X14926957Y20997875D01*
X14873812Y20905826D01*
X14873812Y20905825D01*
X14873811Y20905823D01*
X14846300Y20803148D01*
X14153700Y20803148D01*
X14126189Y20905823D01*
X14073041Y20997878D01*
X13997878Y21073041D01*
X13909942Y21123811D01*
X13905825Y21126188D01*
X13905824Y21126189D01*
X13905823Y21126189D01*
X13803148Y21153700D01*
X13696852Y21153700D01*
X13594177Y21126189D01*
X13594175Y21126188D01*
X13594174Y21126188D01*
X13502125Y21073043D01*
X13502119Y21073039D01*
X13426961Y20997881D01*
X13426957Y20997875D01*
X13373812Y20905826D01*
X13373812Y20905825D01*
X13373811Y20905823D01*
X13346300Y20803148D01*
X1100500Y20803148D01*
X1100500Y21503148D01*
X8346300Y21503148D01*
X8346300Y21396852D01*
X8373811Y21294177D01*
X8426959Y21202122D01*
X8502122Y21126959D01*
X8594177Y21073811D01*
X8696852Y21046300D01*
X8696854Y21046300D01*
X8803146Y21046300D01*
X8803148Y21046300D01*
X8905823Y21073811D01*
X8997878Y21126959D01*
X9073041Y21202122D01*
X9126189Y21294177D01*
X9153700Y21396852D01*
X9153700Y21503148D01*
X9126189Y21605823D01*
X9073041Y21697878D01*
X8997878Y21773041D01*
X8911279Y21823039D01*
X8905825Y21826188D01*
X8905824Y21826189D01*
X8905823Y21826189D01*
X8803148Y21853700D01*
X8696852Y21853700D01*
X8594177Y21826189D01*
X8594175Y21826188D01*
X8594174Y21826188D01*
X8502125Y21773043D01*
X8502119Y21773039D01*
X8426961Y21697881D01*
X8426957Y21697875D01*
X8373812Y21605826D01*
X8373812Y21605825D01*
X8373811Y21605823D01*
X8346300Y21503148D01*
X1100500Y21503148D01*
X1100500Y22553148D01*
X20596300Y22553148D01*
X20596300Y22446852D01*
X20623811Y22344177D01*
X20676959Y22252122D01*
X20752122Y22176959D01*
X20844177Y22123811D01*
X20859243Y22119775D01*
X20918903Y22083410D01*
X20949432Y22020563D01*
X20941137Y21951188D01*
X20896652Y21897310D01*
X20859244Y21880227D01*
X20844177Y21876189D01*
X20844175Y21876188D01*
X20844174Y21876188D01*
X20752125Y21823043D01*
X20752119Y21823039D01*
X20676961Y21747881D01*
X20676957Y21747875D01*
X20623812Y21655826D01*
X20623812Y21655825D01*
X20623811Y21655823D01*
X20596300Y21553148D01*
X20596300Y21446852D01*
X20623811Y21344177D01*
X20676959Y21252122D01*
X20752122Y21176959D01*
X20844177Y21123811D01*
X20946852Y21096300D01*
X20946854Y21096300D01*
X21053146Y21096300D01*
X21053148Y21096300D01*
X21155823Y21123811D01*
X21247878Y21176959D01*
X21323041Y21252122D01*
X21376189Y21344177D01*
X21403700Y21446852D01*
X21403700Y21553148D01*
X21376189Y21655823D01*
X21323041Y21747878D01*
X21247878Y21823041D01*
X21155823Y21876189D01*
X21140756Y21880226D01*
X21081097Y21916589D01*
X21050567Y21979435D01*
X21058861Y22048811D01*
X21103346Y22102690D01*
X21140755Y22119774D01*
X21155823Y22123811D01*
X21247878Y22176959D01*
X21323041Y22252122D01*
X21376189Y22344177D01*
X21403700Y22446852D01*
X21403700Y22553148D01*
X21376189Y22655823D01*
X21323041Y22747878D01*
X21247878Y22823041D01*
X21155823Y22876189D01*
X21053148Y22903700D01*
X20946852Y22903700D01*
X20844177Y22876189D01*
X20844175Y22876188D01*
X20844174Y22876188D01*
X20752125Y22823043D01*
X20752119Y22823039D01*
X20676961Y22747881D01*
X20676957Y22747875D01*
X20623812Y22655826D01*
X20623812Y22655825D01*
X20623811Y22655823D01*
X20596300Y22553148D01*
X1100500Y22553148D01*
X1100500Y23803148D01*
X2846300Y23803148D01*
X2846300Y23696852D01*
X2873811Y23594177D01*
X2926959Y23502122D01*
X3002122Y23426959D01*
X3094177Y23373811D01*
X3196852Y23346300D01*
X3196854Y23346300D01*
X3303146Y23346300D01*
X3303148Y23346300D01*
X3405823Y23373811D01*
X3497878Y23426959D01*
X3573041Y23502122D01*
X3626189Y23594177D01*
X3653700Y23696852D01*
X3653700Y23803148D01*
X3626189Y23905823D01*
X3573041Y23997878D01*
X3497878Y24073041D01*
X3445731Y24103148D01*
X8346300Y24103148D01*
X8346300Y23996852D01*
X8373811Y23894177D01*
X8426959Y23802122D01*
X8502122Y23726959D01*
X8594177Y23673811D01*
X8696852Y23646300D01*
X8696854Y23646300D01*
X8803146Y23646300D01*
X8803148Y23646300D01*
X8905823Y23673811D01*
X8997878Y23726959D01*
X9073041Y23802122D01*
X9126189Y23894177D01*
X9153700Y23996852D01*
X9153700Y24103148D01*
X9126189Y24205823D01*
X9073041Y24297878D01*
X8997878Y24373041D01*
X8905823Y24426189D01*
X8803148Y24453700D01*
X8696852Y24453700D01*
X8594177Y24426189D01*
X8594175Y24426188D01*
X8594174Y24426188D01*
X8502125Y24373043D01*
X8502119Y24373039D01*
X8426961Y24297881D01*
X8426957Y24297875D01*
X8373812Y24205826D01*
X8373812Y24205825D01*
X8373811Y24205823D01*
X8346300Y24103148D01*
X3445731Y24103148D01*
X3405823Y24126189D01*
X3303148Y24153700D01*
X3196852Y24153700D01*
X3094177Y24126189D01*
X3094175Y24126188D01*
X3094174Y24126188D01*
X3002125Y24073043D01*
X3002119Y24073039D01*
X2926961Y23997881D01*
X2926957Y23997875D01*
X2873812Y23905826D01*
X2873812Y23905825D01*
X2873811Y23905823D01*
X2846300Y23803148D01*
X1100500Y23803148D01*
X1100500Y24803148D01*
X20576300Y24803148D01*
X20576300Y24696852D01*
X20603811Y24594177D01*
X20656959Y24502122D01*
X20732122Y24426959D01*
X20824177Y24373811D01*
X20926852Y24346300D01*
X20926854Y24346300D01*
X21033146Y24346300D01*
X21033148Y24346300D01*
X21135823Y24373811D01*
X21227878Y24426959D01*
X21303041Y24502122D01*
X21356189Y24594177D01*
X21383700Y24696852D01*
X21383700Y24803148D01*
X21356189Y24905823D01*
X21303041Y24997878D01*
X21227878Y25073041D01*
X21135823Y25126189D01*
X21033148Y25153700D01*
X20926852Y25153700D01*
X20824177Y25126189D01*
X20824175Y25126188D01*
X20824174Y25126188D01*
X20732125Y25073043D01*
X20732119Y25073039D01*
X20656961Y24997881D01*
X20656957Y24997875D01*
X20603812Y24905826D01*
X20603812Y24905825D01*
X20603811Y24905823D01*
X20576300Y24803148D01*
X1100500Y24803148D01*
X1100500Y25578148D01*
X7596300Y25578148D01*
X7596300Y25471852D01*
X7623811Y25369177D01*
X7676959Y25277122D01*
X7752122Y25201959D01*
X7844177Y25148811D01*
X7946852Y25121300D01*
X7946854Y25121300D01*
X8053146Y25121300D01*
X8053148Y25121300D01*
X8155823Y25148811D01*
X8247878Y25201959D01*
X8323041Y25277122D01*
X8376189Y25369177D01*
X8403700Y25471852D01*
X8403700Y25578148D01*
X8376189Y25680823D01*
X8323041Y25772878D01*
X8247878Y25848041D01*
X8155823Y25901189D01*
X8053148Y25928700D01*
X7946852Y25928700D01*
X7844177Y25901189D01*
X7844175Y25901188D01*
X7844174Y25901188D01*
X7752125Y25848043D01*
X7752119Y25848039D01*
X7676961Y25772881D01*
X7676957Y25772875D01*
X7623812Y25680826D01*
X7623812Y25680825D01*
X7623811Y25680823D01*
X7596300Y25578148D01*
X1100500Y25578148D01*
X1100500Y26853148D01*
X22296300Y26853148D01*
X22296300Y26746852D01*
X22323811Y26644177D01*
X22376959Y26552122D01*
X22452122Y26476959D01*
X22544177Y26423811D01*
X22646852Y26396300D01*
X22646854Y26396300D01*
X22753146Y26396300D01*
X22753148Y26396300D01*
X22855823Y26423811D01*
X22947878Y26476959D01*
X23023041Y26552122D01*
X23076189Y26644177D01*
X23103700Y26746852D01*
X23103700Y26853148D01*
X23076189Y26955823D01*
X23023041Y27047878D01*
X22947878Y27123041D01*
X22855823Y27176189D01*
X22806605Y27189377D01*
X22746945Y27225741D01*
X22716416Y27288588D01*
X22724711Y27357964D01*
X22769196Y27411841D01*
X22806603Y27428925D01*
X22880823Y27448811D01*
X22972878Y27501959D01*
X23048041Y27577122D01*
X23101189Y27669177D01*
X23128700Y27771852D01*
X23128700Y27878148D01*
X23101189Y27980823D01*
X23048041Y28072878D01*
X22972878Y28148041D01*
X22880823Y28201189D01*
X22778148Y28228700D01*
X22671852Y28228700D01*
X22569177Y28201189D01*
X22569175Y28201188D01*
X22569174Y28201188D01*
X22477125Y28148043D01*
X22477119Y28148039D01*
X22401961Y28072881D01*
X22401957Y28072875D01*
X22348812Y27980826D01*
X22348812Y27980825D01*
X22348811Y27980823D01*
X22321300Y27878148D01*
X22321300Y27771852D01*
X22348811Y27669177D01*
X22401959Y27577122D01*
X22477122Y27501959D01*
X22569177Y27448811D01*
X22618394Y27435624D01*
X22678053Y27399261D01*
X22708583Y27336414D01*
X22700289Y27267039D01*
X22655804Y27213160D01*
X22618393Y27196075D01*
X22544177Y27176189D01*
X22544176Y27176189D01*
X22544174Y27176188D01*
X22452125Y27123043D01*
X22452119Y27123039D01*
X22376961Y27047881D01*
X22376957Y27047875D01*
X22323812Y26955826D01*
X22323812Y26955825D01*
X22323811Y26955823D01*
X22296300Y26853148D01*
X1100500Y26853148D01*
X1100500Y28978148D01*
X22021300Y28978148D01*
X22021300Y28871852D01*
X22048811Y28769177D01*
X22101959Y28677122D01*
X22177122Y28601959D01*
X22269177Y28548811D01*
X22371852Y28521300D01*
X22371854Y28521300D01*
X22478146Y28521300D01*
X22478148Y28521300D01*
X22580823Y28548811D01*
X22672878Y28601959D01*
X22748041Y28677122D01*
X22801189Y28769177D01*
X22828700Y28871852D01*
X22828700Y28978148D01*
X22801189Y29080823D01*
X22748041Y29172878D01*
X22672878Y29248041D01*
X22580823Y29301189D01*
X22478148Y29328700D01*
X22371852Y29328700D01*
X22269177Y29301189D01*
X22269175Y29301188D01*
X22269174Y29301188D01*
X22177125Y29248043D01*
X22177119Y29248039D01*
X22101961Y29172881D01*
X22101957Y29172875D01*
X22048812Y29080826D01*
X22048812Y29080825D01*
X22048811Y29080823D01*
X22021300Y28978148D01*
X1100500Y28978148D01*
X1100500Y31103148D01*
X16546300Y31103148D01*
X16546300Y30996852D01*
X16573811Y30894177D01*
X16626959Y30802122D01*
X16626961Y30802120D01*
X16691400Y30737681D01*
X16724885Y30676358D01*
X16719901Y30606666D01*
X16691400Y30562319D01*
X16626961Y30497881D01*
X16626957Y30497875D01*
X16573812Y30405826D01*
X16573812Y30405825D01*
X16573811Y30405823D01*
X16546300Y30303148D01*
X16546300Y30196852D01*
X16573811Y30094177D01*
X16626959Y30002122D01*
X16626961Y30002120D01*
X16691400Y29937681D01*
X16724885Y29876358D01*
X16719901Y29806666D01*
X16691400Y29762319D01*
X16626961Y29697881D01*
X16626957Y29697875D01*
X16573812Y29605826D01*
X16573812Y29605825D01*
X16573811Y29605823D01*
X16546300Y29503148D01*
X16546300Y29396852D01*
X16573811Y29294177D01*
X16626959Y29202122D01*
X16702122Y29126959D01*
X16794177Y29073811D01*
X16896852Y29046300D01*
X16896854Y29046300D01*
X17003146Y29046300D01*
X17003148Y29046300D01*
X17105823Y29073811D01*
X17197878Y29126959D01*
X17273041Y29202122D01*
X17326189Y29294177D01*
X17353700Y29396852D01*
X17353700Y29503148D01*
X17326189Y29605823D01*
X17273041Y29697878D01*
X17208600Y29762319D01*
X17175115Y29823642D01*
X17180099Y29893334D01*
X17208600Y29937681D01*
X17273041Y30002122D01*
X17326189Y30094177D01*
X17353700Y30196852D01*
X17353700Y30303148D01*
X17326189Y30405823D01*
X17273041Y30497878D01*
X17208600Y30562319D01*
X17175115Y30623642D01*
X17180099Y30693334D01*
X17208600Y30737681D01*
X17273041Y30802122D01*
X17326189Y30894177D01*
X17353700Y30996852D01*
X17353700Y31103148D01*
X20546300Y31103148D01*
X20546300Y30996852D01*
X20573811Y30894177D01*
X20626959Y30802122D01*
X20626961Y30802120D01*
X20691400Y30737681D01*
X20724885Y30676358D01*
X20719901Y30606666D01*
X20691400Y30562319D01*
X20626961Y30497881D01*
X20626957Y30497875D01*
X20573812Y30405826D01*
X20573812Y30405825D01*
X20573811Y30405823D01*
X20546300Y30303148D01*
X20546300Y30196852D01*
X20573811Y30094177D01*
X20626959Y30002122D01*
X20626961Y30002120D01*
X20691400Y29937681D01*
X20724885Y29876358D01*
X20719901Y29806666D01*
X20691400Y29762319D01*
X20626961Y29697881D01*
X20626957Y29697875D01*
X20573812Y29605826D01*
X20573812Y29605825D01*
X20573811Y29605823D01*
X20546300Y29503148D01*
X20546300Y29396852D01*
X20573811Y29294177D01*
X20626959Y29202122D01*
X20702122Y29126959D01*
X20794177Y29073811D01*
X20896852Y29046300D01*
X20896854Y29046300D01*
X21003146Y29046300D01*
X21003148Y29046300D01*
X21105823Y29073811D01*
X21197878Y29126959D01*
X21273041Y29202122D01*
X21326189Y29294177D01*
X21353700Y29396852D01*
X21353700Y29503148D01*
X21326189Y29605823D01*
X21273041Y29697878D01*
X21208600Y29762319D01*
X21175115Y29823642D01*
X21180099Y29893334D01*
X21208600Y29937681D01*
X21273041Y30002122D01*
X21326189Y30094177D01*
X21353700Y30196852D01*
X21353700Y30303148D01*
X21326189Y30405823D01*
X21273041Y30497878D01*
X21208600Y30562319D01*
X21175115Y30623642D01*
X21180099Y30693334D01*
X21208600Y30737681D01*
X21273041Y30802122D01*
X21326189Y30894177D01*
X21353700Y30996852D01*
X21353700Y31103148D01*
X21326189Y31205823D01*
X21273041Y31297878D01*
X21197878Y31373041D01*
X21105823Y31426189D01*
X21003148Y31453700D01*
X20896852Y31453700D01*
X20794177Y31426189D01*
X20794175Y31426188D01*
X20794174Y31426188D01*
X20702125Y31373043D01*
X20702119Y31373039D01*
X20626961Y31297881D01*
X20626957Y31297875D01*
X20573812Y31205826D01*
X20573812Y31205825D01*
X20573811Y31205823D01*
X20546300Y31103148D01*
X17353700Y31103148D01*
X17326189Y31205823D01*
X17273041Y31297878D01*
X17197878Y31373041D01*
X17105823Y31426189D01*
X17003148Y31453700D01*
X16896852Y31453700D01*
X16794177Y31426189D01*
X16794175Y31426188D01*
X16794174Y31426188D01*
X16702125Y31373043D01*
X16702119Y31373039D01*
X16626961Y31297881D01*
X16626957Y31297875D01*
X16573812Y31205826D01*
X16573812Y31205825D01*
X16573811Y31205823D01*
X16546300Y31103148D01*
X1100500Y31103148D01*
X1100500Y35753148D01*
X6776300Y35753148D01*
X6776300Y35646852D01*
X6803811Y35544177D01*
X6856959Y35452122D01*
X6932122Y35376959D01*
X7024177Y35323811D01*
X7126852Y35296300D01*
X7126854Y35296300D01*
X7233146Y35296300D01*
X7233148Y35296300D01*
X7335823Y35323811D01*
X7427878Y35376959D01*
X7503041Y35452122D01*
X7556189Y35544177D01*
X7583700Y35646852D01*
X7583700Y35753148D01*
X7556189Y35855823D01*
X7503041Y35947878D01*
X7427878Y36023041D01*
X7335823Y36076189D01*
X7233148Y36103700D01*
X7126852Y36103700D01*
X7024177Y36076189D01*
X7024175Y36076188D01*
X7024174Y36076188D01*
X6932125Y36023043D01*
X6932119Y36023039D01*
X6856961Y35947881D01*
X6856957Y35947875D01*
X6803812Y35855826D01*
X6803812Y35855825D01*
X6803811Y35855823D01*
X6776300Y35753148D01*
X1100500Y35753148D01*
X1100500Y37228148D01*
X7496300Y37228148D01*
X7496300Y37121852D01*
X7523811Y37019177D01*
X7576959Y36927122D01*
X7652122Y36851959D01*
X7744177Y36798811D01*
X7846852Y36771300D01*
X7846854Y36771300D01*
X7953146Y36771300D01*
X7953148Y36771300D01*
X8055823Y36798811D01*
X8147878Y36851959D01*
X8223041Y36927122D01*
X8276189Y37019177D01*
X8303700Y37121852D01*
X8303700Y37228148D01*
X8276189Y37330823D01*
X8223041Y37422878D01*
X8147878Y37498041D01*
X8055823Y37551189D01*
X7953148Y37578700D01*
X7846852Y37578700D01*
X7744177Y37551189D01*
X7744175Y37551188D01*
X7744174Y37551188D01*
X7652125Y37498043D01*
X7652119Y37498039D01*
X7576961Y37422881D01*
X7576957Y37422875D01*
X7523812Y37330826D01*
X7523812Y37330825D01*
X7523811Y37330823D01*
X7496300Y37228148D01*
X1100500Y37228148D01*
X1100500Y43153148D01*
X3721300Y43153148D01*
X3721300Y43046852D01*
X3748811Y42944177D01*
X3801959Y42852122D01*
X3877122Y42776959D01*
X3969177Y42723811D01*
X4071852Y42696300D01*
X4071854Y42696300D01*
X4178146Y42696300D01*
X4178148Y42696300D01*
X4280823Y42723811D01*
X4372878Y42776959D01*
X4448041Y42852122D01*
X4501189Y42944177D01*
X4503593Y42953148D01*
X7671300Y42953148D01*
X7671300Y42846852D01*
X7698811Y42744177D01*
X7751959Y42652122D01*
X7827122Y42576959D01*
X7919177Y42523811D01*
X8021852Y42496300D01*
X8021854Y42496300D01*
X8128146Y42496300D01*
X8128148Y42496300D01*
X8230823Y42523811D01*
X8322878Y42576959D01*
X8398041Y42652122D01*
X8451189Y42744177D01*
X8478700Y42846852D01*
X8478700Y42878148D01*
X13071300Y42878148D01*
X13071300Y42771852D01*
X13098811Y42669177D01*
X13151959Y42577122D01*
X13227122Y42501959D01*
X13319177Y42448811D01*
X13421852Y42421300D01*
X13421854Y42421300D01*
X13528146Y42421300D01*
X13528148Y42421300D01*
X13630823Y42448811D01*
X13722878Y42501959D01*
X13737319Y42516400D01*
X13798642Y42549885D01*
X13868334Y42544901D01*
X13912681Y42516400D01*
X13927122Y42501959D01*
X14019177Y42448811D01*
X14121852Y42421300D01*
X14121854Y42421300D01*
X14228146Y42421300D01*
X14228148Y42421300D01*
X14330823Y42448811D01*
X14422878Y42501959D01*
X14498041Y42577122D01*
X14551189Y42669177D01*
X14578700Y42771852D01*
X14578700Y42878148D01*
X14551189Y42980823D01*
X14498041Y43072878D01*
X14422878Y43148041D01*
X14330823Y43201189D01*
X14228148Y43228700D01*
X14121852Y43228700D01*
X14019177Y43201189D01*
X14019175Y43201188D01*
X14019174Y43201188D01*
X13927125Y43148043D01*
X13927119Y43148039D01*
X13912681Y43133600D01*
X13851358Y43100115D01*
X13781666Y43105099D01*
X13737319Y43133600D01*
X13722880Y43148039D01*
X13722878Y43148041D01*
X13630823Y43201189D01*
X13528148Y43228700D01*
X13421852Y43228700D01*
X13319177Y43201189D01*
X13319175Y43201188D01*
X13319174Y43201188D01*
X13227125Y43148043D01*
X13227119Y43148039D01*
X13151961Y43072881D01*
X13151957Y43072875D01*
X13098812Y42980826D01*
X13098812Y42980825D01*
X13098811Y42980823D01*
X13071300Y42878148D01*
X8478700Y42878148D01*
X8478700Y42953148D01*
X8451189Y43055823D01*
X8398041Y43147878D01*
X8322878Y43223041D01*
X8230823Y43276189D01*
X8128148Y43303700D01*
X8021852Y43303700D01*
X7919177Y43276189D01*
X7919175Y43276188D01*
X7919174Y43276188D01*
X7827125Y43223043D01*
X7827119Y43223039D01*
X7751961Y43147881D01*
X7751957Y43147875D01*
X7698812Y43055826D01*
X7698812Y43055825D01*
X7698811Y43055823D01*
X7671300Y42953148D01*
X4503593Y42953148D01*
X4528700Y43046852D01*
X4528700Y43153148D01*
X4501189Y43255823D01*
X4448041Y43347878D01*
X4446785Y43349134D01*
X4446065Y43350452D01*
X4443094Y43354324D01*
X4443697Y43354788D01*
X4413300Y43410457D01*
X4418284Y43480149D01*
X4460156Y43536082D01*
X4474179Y43544063D01*
X4473784Y43544747D01*
X4480823Y43548811D01*
X4572878Y43601959D01*
X4648041Y43677122D01*
X4701189Y43769177D01*
X4728700Y43871852D01*
X4728700Y43978148D01*
X4701189Y44080823D01*
X4648041Y44172878D01*
X4572878Y44248041D01*
X4480823Y44301189D01*
X4480822Y44301190D01*
X4474026Y44305113D01*
X4425810Y44355680D01*
X4412587Y44424287D01*
X4438555Y44489152D01*
X4474026Y44519887D01*
X4480821Y44523811D01*
X4480823Y44523811D01*
X4572878Y44576959D01*
X4648041Y44652122D01*
X4701189Y44744177D01*
X4728700Y44846852D01*
X4728700Y44953148D01*
X4723130Y44973936D01*
X5808300Y44973936D01*
X5808300Y44867640D01*
X5835811Y44764965D01*
X5835812Y44764964D01*
X5835812Y44764963D01*
X5847814Y44744175D01*
X5888959Y44672910D01*
X5964122Y44597747D01*
X6000123Y44576962D01*
X6019672Y44565675D01*
X6067888Y44515108D01*
X6081110Y44446501D01*
X6055142Y44381636D01*
X6019672Y44350901D01*
X5964125Y44318831D01*
X5964119Y44318827D01*
X5888961Y44243669D01*
X5888957Y44243663D01*
X5835812Y44151614D01*
X5835812Y44151613D01*
X5835811Y44151611D01*
X5808300Y44048936D01*
X5808300Y43942640D01*
X5835811Y43839965D01*
X5888959Y43747910D01*
X5964122Y43672747D01*
X6056177Y43619599D01*
X6158852Y43592088D01*
X6158854Y43592088D01*
X6265146Y43592088D01*
X6265148Y43592088D01*
X6367823Y43619599D01*
X6459878Y43672747D01*
X6535041Y43747910D01*
X6588189Y43839965D01*
X6615700Y43942640D01*
X6615700Y44048936D01*
X6588189Y44151611D01*
X6535041Y44243666D01*
X6459878Y44318829D01*
X6404326Y44350902D01*
X6356112Y44401467D01*
X6342888Y44470074D01*
X6368856Y44534939D01*
X6404325Y44565674D01*
X6459878Y44597747D01*
X6535041Y44672910D01*
X6588189Y44764965D01*
X6615700Y44867640D01*
X6615700Y44973936D01*
X6588189Y45076611D01*
X6535041Y45168666D01*
X6459878Y45243829D01*
X6378931Y45290564D01*
X6330715Y45341131D01*
X6317493Y45409738D01*
X6343461Y45474603D01*
X6378931Y45505338D01*
X6380421Y45506199D01*
X6380423Y45506199D01*
X6472478Y45559347D01*
X6547641Y45634510D01*
X6600789Y45726565D01*
X6628300Y45829240D01*
X6628300Y45935536D01*
X6600789Y46038211D01*
X6547641Y46130266D01*
X6472478Y46205429D01*
X6380425Y46258576D01*
X6380426Y46258576D01*
X6380423Y46258577D01*
X6350538Y46266585D01*
X6296731Y46281002D01*
X6296729Y46281002D01*
X6277748Y46286088D01*
X6171452Y46286088D01*
X6068777Y46258577D01*
X6068776Y46258577D01*
X6068774Y46258576D01*
X5976725Y46205431D01*
X5976719Y46205427D01*
X5901561Y46130269D01*
X5901557Y46130263D01*
X5848412Y46038214D01*
X5848412Y46038213D01*
X5848411Y46038211D01*
X5820900Y45935536D01*
X5820900Y45829240D01*
X5848411Y45726565D01*
X5901559Y45634510D01*
X5976722Y45559347D01*
X6045263Y45519775D01*
X6057668Y45512613D01*
X6105884Y45462046D01*
X6119107Y45393439D01*
X6093139Y45328574D01*
X6057669Y45297839D01*
X5964122Y45243829D01*
X5964119Y45243827D01*
X5888961Y45168669D01*
X5888957Y45168663D01*
X5835812Y45076614D01*
X5835812Y45076613D01*
X5835811Y45076611D01*
X5808300Y44973936D01*
X4723130Y44973936D01*
X4701189Y45055823D01*
X4648041Y45147878D01*
X4572878Y45223041D01*
X4480823Y45276189D01*
X4465756Y45280226D01*
X4406097Y45316589D01*
X4375567Y45379435D01*
X4383861Y45448811D01*
X4428346Y45502690D01*
X4465755Y45519774D01*
X4480823Y45523811D01*
X4572878Y45576959D01*
X4648041Y45652122D01*
X4701189Y45744177D01*
X4728700Y45846852D01*
X4728700Y45953148D01*
X4701189Y46055823D01*
X4648041Y46147878D01*
X4572878Y46223041D01*
X4480825Y46276188D01*
X4480826Y46276188D01*
X4480823Y46276189D01*
X4406604Y46296076D01*
X4346945Y46332440D01*
X4316416Y46395287D01*
X4324711Y46464663D01*
X4369196Y46518541D01*
X4406603Y46535624D01*
X4455823Y46548811D01*
X4547878Y46601959D01*
X4623041Y46677122D01*
X4676189Y46769177D01*
X4703700Y46871852D01*
X4703700Y46978148D01*
X4676189Y47080823D01*
X4623041Y47172878D01*
X4547878Y47248041D01*
X4463120Y47296976D01*
X4455825Y47301188D01*
X4455824Y47301189D01*
X4455823Y47301189D01*
X4406605Y47314377D01*
X4346945Y47350741D01*
X4316416Y47413588D01*
X4324711Y47482964D01*
X4369196Y47536841D01*
X4406603Y47553925D01*
X4480823Y47573811D01*
X4572878Y47626959D01*
X4648041Y47702122D01*
X4701189Y47794177D01*
X4728700Y47896852D01*
X4728700Y48003148D01*
X4701189Y48105823D01*
X4648041Y48197878D01*
X4572878Y48273041D01*
X4480823Y48326189D01*
X4480822Y48326190D01*
X4474026Y48330113D01*
X4425810Y48380680D01*
X4412587Y48449287D01*
X4438555Y48514152D01*
X4474026Y48544887D01*
X4480821Y48548811D01*
X4480823Y48548811D01*
X4572878Y48601959D01*
X4648041Y48677122D01*
X4701189Y48769177D01*
X4728700Y48871852D01*
X4728700Y48978148D01*
X4701189Y49080823D01*
X4648041Y49172878D01*
X4572878Y49248041D01*
X4492560Y49294413D01*
X4444346Y49344979D01*
X4431124Y49413587D01*
X4457092Y49478451D01*
X4514006Y49518979D01*
X4522446Y49521567D01*
X4530823Y49523811D01*
X4622878Y49576959D01*
X4698041Y49652122D01*
X4751189Y49744177D01*
X4778700Y49846852D01*
X4778700Y49953148D01*
X4751189Y50055823D01*
X4698041Y50147878D01*
X4622878Y50223041D01*
X4542560Y50269413D01*
X4494346Y50319979D01*
X4481124Y50388587D01*
X4507092Y50453451D01*
X4564006Y50493979D01*
X4572446Y50496567D01*
X4580823Y50498811D01*
X4672878Y50551959D01*
X4748041Y50627122D01*
X4801189Y50719177D01*
X4828700Y50821852D01*
X4828700Y50923936D01*
X5775512Y50923936D01*
X5775512Y50817640D01*
X5803023Y50714965D01*
X5856171Y50622910D01*
X5931334Y50547747D01*
X6023389Y50494599D01*
X6023394Y50494598D01*
X6030894Y50491491D01*
X6029808Y50488871D01*
X6077731Y50459670D01*
X6108269Y50396828D01*
X6099984Y50327451D01*
X6055507Y50273567D01*
X6047990Y50268860D01*
X5961334Y50218829D01*
X5961331Y50218827D01*
X5886173Y50143669D01*
X5886169Y50143663D01*
X5833024Y50051614D01*
X5833024Y50051613D01*
X5833023Y50051611D01*
X5805512Y49948936D01*
X5805512Y49842640D01*
X5833023Y49739965D01*
X5886171Y49647910D01*
X5961334Y49572747D01*
X5997943Y49551611D01*
X6053879Y49519316D01*
X6102095Y49468749D01*
X6115318Y49400142D01*
X6089349Y49335277D01*
X6045048Y49301699D01*
X6045428Y49301041D01*
X6040191Y49298018D01*
X6039337Y49297370D01*
X6038390Y49296978D01*
X5946337Y49243831D01*
X5946331Y49243827D01*
X5871173Y49168669D01*
X5871169Y49168663D01*
X5818024Y49076614D01*
X5818024Y49076613D01*
X5818023Y49076611D01*
X5790512Y48973936D01*
X5790512Y48867640D01*
X5818023Y48764965D01*
X5871171Y48672910D01*
X5946334Y48597747D01*
X6038389Y48544599D01*
X6053455Y48540563D01*
X6113115Y48504198D01*
X6143644Y48441351D01*
X6135349Y48371976D01*
X6090864Y48318098D01*
X6053456Y48301015D01*
X6038389Y48296977D01*
X6038387Y48296976D01*
X6038386Y48296976D01*
X5946337Y48243831D01*
X5946331Y48243827D01*
X5871173Y48168669D01*
X5871169Y48168663D01*
X5818024Y48076614D01*
X5818024Y48076613D01*
X5818023Y48076611D01*
X5790512Y47973936D01*
X5790512Y47867640D01*
X5818023Y47764965D01*
X5871171Y47672910D01*
X5946334Y47597747D01*
X6038389Y47544599D01*
X6053455Y47540563D01*
X6113115Y47504198D01*
X6143644Y47441351D01*
X6135349Y47371976D01*
X6090864Y47318098D01*
X6053456Y47301015D01*
X6038389Y47296977D01*
X6038387Y47296976D01*
X6038386Y47296976D01*
X5946337Y47243831D01*
X5946331Y47243827D01*
X5871173Y47168669D01*
X5871169Y47168663D01*
X5818024Y47076614D01*
X5818024Y47076613D01*
X5818023Y47076611D01*
X5790512Y46973936D01*
X5790512Y46867640D01*
X5818023Y46764965D01*
X5871171Y46672910D01*
X5946334Y46597747D01*
X6038389Y46544599D01*
X6141064Y46517088D01*
X6247360Y46517088D01*
X6350035Y46544599D01*
X6442090Y46597747D01*
X6517253Y46672910D01*
X6570401Y46764965D01*
X6597912Y46867640D01*
X6597912Y46973936D01*
X6570401Y47076611D01*
X6517253Y47168666D01*
X6442090Y47243829D01*
X6350035Y47296977D01*
X6334968Y47301014D01*
X6275309Y47337377D01*
X6244779Y47400223D01*
X6253073Y47469599D01*
X6297558Y47523478D01*
X6334967Y47540562D01*
X6350035Y47544599D01*
X6442090Y47597747D01*
X6517253Y47672910D01*
X6570401Y47764965D01*
X6597912Y47867640D01*
X6597912Y47873936D01*
X11025512Y47873936D01*
X11025512Y47767640D01*
X11053023Y47664965D01*
X11053024Y47664964D01*
X11053024Y47664963D01*
X11070739Y47634280D01*
X11106171Y47572910D01*
X11181334Y47497747D01*
X11273389Y47444599D01*
X11376064Y47417088D01*
X11376066Y47417088D01*
X11482358Y47417088D01*
X11482360Y47417088D01*
X11585035Y47444599D01*
X11677090Y47497747D01*
X11752253Y47572910D01*
X11796147Y47648936D01*
X12225512Y47648936D01*
X12225512Y47542640D01*
X12253023Y47439965D01*
X12306171Y47347910D01*
X12381334Y47272747D01*
X12473389Y47219599D01*
X12576064Y47192088D01*
X12576066Y47192088D01*
X12682358Y47192088D01*
X12682360Y47192088D01*
X12785035Y47219599D01*
X12877090Y47272747D01*
X12941531Y47337188D01*
X13002854Y47370673D01*
X13072546Y47365689D01*
X13116893Y47337188D01*
X13181334Y47272747D01*
X13273389Y47219599D01*
X13376064Y47192088D01*
X13376066Y47192088D01*
X13482358Y47192088D01*
X13482360Y47192088D01*
X13585035Y47219599D01*
X13677090Y47272747D01*
X13752253Y47347910D01*
X13805401Y47439965D01*
X13832912Y47542640D01*
X13832912Y47623936D01*
X14400512Y47623936D01*
X14400512Y47517640D01*
X14428023Y47414965D01*
X14481171Y47322910D01*
X14556334Y47247747D01*
X14648389Y47194599D01*
X14751064Y47167088D01*
X14751066Y47167088D01*
X14857358Y47167088D01*
X14857360Y47167088D01*
X14960035Y47194599D01*
X15052090Y47247747D01*
X15127253Y47322910D01*
X15180401Y47414965D01*
X15207912Y47517640D01*
X15207912Y47623936D01*
X15201213Y47648936D01*
X17225512Y47648936D01*
X17225512Y47542640D01*
X17253023Y47439965D01*
X17306171Y47347910D01*
X17381334Y47272747D01*
X17473389Y47219599D01*
X17576064Y47192088D01*
X17576066Y47192088D01*
X17682358Y47192088D01*
X17682360Y47192088D01*
X17785035Y47219599D01*
X17877090Y47272747D01*
X17952253Y47347910D01*
X18005401Y47439965D01*
X18032912Y47542640D01*
X18032912Y47648936D01*
X18005401Y47751611D01*
X17952253Y47843666D01*
X17877090Y47918829D01*
X17785035Y47971977D01*
X17682360Y47999488D01*
X17576064Y47999488D01*
X17473389Y47971977D01*
X17473387Y47971976D01*
X17473386Y47971976D01*
X17381337Y47918831D01*
X17381331Y47918827D01*
X17306173Y47843669D01*
X17306169Y47843663D01*
X17253024Y47751614D01*
X17253024Y47751613D01*
X17253023Y47751611D01*
X17225512Y47648936D01*
X15201213Y47648936D01*
X15180401Y47726611D01*
X15127253Y47818666D01*
X15052090Y47893829D01*
X14960035Y47946977D01*
X14857360Y47974488D01*
X14751064Y47974488D01*
X14648389Y47946977D01*
X14648387Y47946976D01*
X14648386Y47946976D01*
X14556337Y47893831D01*
X14556331Y47893827D01*
X14481173Y47818669D01*
X14481169Y47818663D01*
X14428024Y47726614D01*
X14428024Y47726613D01*
X14428023Y47726611D01*
X14400512Y47623936D01*
X13832912Y47623936D01*
X13832912Y47648936D01*
X13805401Y47751611D01*
X13752253Y47843666D01*
X13677090Y47918829D01*
X13585035Y47971977D01*
X13482360Y47999488D01*
X13376064Y47999488D01*
X13273389Y47971977D01*
X13273387Y47971976D01*
X13273386Y47971976D01*
X13181337Y47918831D01*
X13181331Y47918827D01*
X13116893Y47854388D01*
X13055570Y47820903D01*
X12985878Y47825887D01*
X12941531Y47854388D01*
X12877092Y47918827D01*
X12877090Y47918829D01*
X12785035Y47971977D01*
X12682360Y47999488D01*
X12576064Y47999488D01*
X12473389Y47971977D01*
X12473387Y47971976D01*
X12473386Y47971976D01*
X12381337Y47918831D01*
X12381331Y47918827D01*
X12306173Y47843669D01*
X12306169Y47843663D01*
X12253024Y47751614D01*
X12253024Y47751613D01*
X12253023Y47751611D01*
X12225512Y47648936D01*
X11796147Y47648936D01*
X11805401Y47664965D01*
X11832912Y47767640D01*
X11832912Y47873936D01*
X11805401Y47976611D01*
X11752253Y48068666D01*
X11677090Y48143829D01*
X11585035Y48196977D01*
X11482360Y48224488D01*
X11376064Y48224488D01*
X11273389Y48196977D01*
X11273387Y48196976D01*
X11273386Y48196976D01*
X11181337Y48143831D01*
X11181331Y48143827D01*
X11106173Y48068669D01*
X11106169Y48068663D01*
X11053024Y47976614D01*
X11053024Y47976613D01*
X11053023Y47976611D01*
X11025512Y47873936D01*
X6597912Y47873936D01*
X6597912Y47973936D01*
X6570401Y48076611D01*
X6517253Y48168666D01*
X6442090Y48243829D01*
X6350035Y48296977D01*
X6334968Y48301014D01*
X6275309Y48337377D01*
X6244779Y48400223D01*
X6253073Y48469599D01*
X6297558Y48523478D01*
X6334967Y48540562D01*
X6350035Y48544599D01*
X6442090Y48597747D01*
X6517253Y48672910D01*
X6570401Y48764965D01*
X6597912Y48867640D01*
X6597912Y48973936D01*
X6570401Y49076611D01*
X6517253Y49168666D01*
X6442090Y49243829D01*
X6442087Y49243831D01*
X6442086Y49243832D01*
X6349544Y49297261D01*
X6344868Y49302165D01*
X6338493Y49304451D01*
X6321068Y49327126D01*
X6301328Y49347828D01*
X6300045Y49354481D01*
X6295919Y49359851D01*
X6293518Y49388350D01*
X6288106Y49416435D01*
X6290623Y49422724D01*
X6290055Y49429474D01*
X6300365Y49448936D01*
X19025512Y49448936D01*
X19025512Y49342640D01*
X19053023Y49239965D01*
X19106171Y49147910D01*
X19181334Y49072747D01*
X19273389Y49019599D01*
X19376064Y48992088D01*
X19376066Y48992088D01*
X19482358Y48992088D01*
X19482360Y48992088D01*
X19585035Y49019599D01*
X19677090Y49072747D01*
X19752253Y49147910D01*
X19805401Y49239965D01*
X19832912Y49342640D01*
X19832912Y49448936D01*
X19805401Y49551611D01*
X19752253Y49643666D01*
X19677090Y49718829D01*
X19585035Y49771977D01*
X19482360Y49799488D01*
X19376064Y49799488D01*
X19273389Y49771977D01*
X19273387Y49771976D01*
X19273386Y49771976D01*
X19181337Y49718831D01*
X19181331Y49718827D01*
X19106173Y49643669D01*
X19106169Y49643663D01*
X19053024Y49551614D01*
X19053024Y49551613D01*
X19053023Y49551611D01*
X19025512Y49448936D01*
X6300365Y49448936D01*
X6303444Y49454749D01*
X6314074Y49481300D01*
X6320366Y49486692D01*
X6322763Y49491215D01*
X6336529Y49500540D01*
X6350748Y49512721D01*
X6361100Y49518545D01*
X6365035Y49519599D01*
X6457090Y49572747D01*
X6532253Y49647910D01*
X6585401Y49739965D01*
X6612912Y49842640D01*
X6612912Y49948936D01*
X6585401Y50051611D01*
X6532253Y50143666D01*
X6457090Y50218829D01*
X6365035Y50271977D01*
X6365033Y50271978D01*
X6357530Y50275085D01*
X6358613Y50277701D01*
X6310670Y50306931D01*
X6280148Y50369782D01*
X6288452Y50439157D01*
X6332944Y50493029D01*
X6340408Y50497702D01*
X6427090Y50547747D01*
X6502253Y50622910D01*
X6555401Y50714965D01*
X6582912Y50817640D01*
X6582912Y50923936D01*
X6555401Y51026611D01*
X6502253Y51118666D01*
X6427090Y51193829D01*
X6335035Y51246977D01*
X6232360Y51274488D01*
X6126064Y51274488D01*
X6023389Y51246977D01*
X6023387Y51246976D01*
X6023386Y51246976D01*
X5931337Y51193831D01*
X5931331Y51193827D01*
X5856173Y51118669D01*
X5856169Y51118663D01*
X5803024Y51026614D01*
X5803024Y51026613D01*
X5803023Y51026611D01*
X5775512Y50923936D01*
X4828700Y50923936D01*
X4828700Y50928148D01*
X4801189Y51030823D01*
X4748041Y51122878D01*
X4672878Y51198041D01*
X4588120Y51246976D01*
X4580825Y51251188D01*
X4580824Y51251189D01*
X4580823Y51251189D01*
X4478148Y51278700D01*
X4371852Y51278700D01*
X4269177Y51251189D01*
X4269175Y51251188D01*
X4269174Y51251188D01*
X4177125Y51198043D01*
X4177119Y51198039D01*
X4101961Y51122881D01*
X4101957Y51122875D01*
X4048812Y51030826D01*
X4048812Y51030825D01*
X4048811Y51030823D01*
X4021300Y50928148D01*
X4021300Y50821852D01*
X4048811Y50719177D01*
X4101959Y50627122D01*
X4177122Y50551959D01*
X4248226Y50510908D01*
X4257437Y50505589D01*
X4305653Y50455022D01*
X4318876Y50386415D01*
X4292907Y50321550D01*
X4235993Y50281022D01*
X4227533Y50278428D01*
X4219177Y50276190D01*
X4219174Y50276188D01*
X4127125Y50223043D01*
X4127119Y50223039D01*
X4051961Y50147881D01*
X4051957Y50147875D01*
X3998812Y50055826D01*
X3998812Y50055825D01*
X3998811Y50055823D01*
X3971300Y49953148D01*
X3971300Y49846852D01*
X3998811Y49744177D01*
X3998812Y49744176D01*
X3998812Y49744175D01*
X4013446Y49718829D01*
X4051959Y49652122D01*
X4127122Y49576959D01*
X4171021Y49551614D01*
X4207437Y49530589D01*
X4255653Y49480022D01*
X4268876Y49411415D01*
X4242907Y49346550D01*
X4185993Y49306022D01*
X4177533Y49303428D01*
X4169177Y49301190D01*
X4169174Y49301188D01*
X4077125Y49248043D01*
X4077119Y49248039D01*
X4001961Y49172881D01*
X4001957Y49172875D01*
X3948812Y49080826D01*
X3948812Y49080825D01*
X3948811Y49080823D01*
X3921300Y48978148D01*
X3921300Y48871852D01*
X3948811Y48769177D01*
X4001959Y48677122D01*
X4077122Y48601959D01*
X4145515Y48562473D01*
X4175973Y48544887D01*
X4224189Y48494320D01*
X4237411Y48425713D01*
X4211443Y48360848D01*
X4175973Y48330113D01*
X4077125Y48273043D01*
X4077119Y48273039D01*
X4001961Y48197881D01*
X4001957Y48197875D01*
X3948812Y48105826D01*
X3948812Y48105825D01*
X3948811Y48105823D01*
X3921300Y48003148D01*
X3921300Y47896852D01*
X3948811Y47794177D01*
X4001959Y47702122D01*
X4077122Y47626959D01*
X4169177Y47573811D01*
X4218394Y47560624D01*
X4278053Y47524261D01*
X4308583Y47461414D01*
X4300289Y47392039D01*
X4255804Y47338160D01*
X4218393Y47321075D01*
X4144177Y47301189D01*
X4144176Y47301189D01*
X4144174Y47301188D01*
X4052125Y47248043D01*
X4052119Y47248039D01*
X3976961Y47172881D01*
X3976957Y47172875D01*
X3923812Y47080826D01*
X3923812Y47080825D01*
X3923811Y47080823D01*
X3896300Y46978148D01*
X3896300Y46871852D01*
X3923811Y46769177D01*
X3976959Y46677122D01*
X4052122Y46601959D01*
X4144177Y46548811D01*
X4218394Y46528925D01*
X4278053Y46492561D01*
X4308583Y46429715D01*
X4300289Y46360339D01*
X4255804Y46306461D01*
X4218395Y46289377D01*
X4169177Y46276189D01*
X4169176Y46276189D01*
X4169174Y46276188D01*
X4077125Y46223043D01*
X4077119Y46223039D01*
X4001961Y46147881D01*
X4001957Y46147875D01*
X3948812Y46055826D01*
X3948812Y46055825D01*
X3948811Y46055823D01*
X3921300Y45953148D01*
X3921300Y45846852D01*
X3948811Y45744177D01*
X4001959Y45652122D01*
X4077122Y45576959D01*
X4169177Y45523811D01*
X4184243Y45519775D01*
X4243903Y45483410D01*
X4274432Y45420563D01*
X4266137Y45351188D01*
X4221652Y45297310D01*
X4184244Y45280227D01*
X4169177Y45276189D01*
X4169175Y45276188D01*
X4169174Y45276188D01*
X4077125Y45223043D01*
X4077119Y45223039D01*
X4001961Y45147881D01*
X4001957Y45147875D01*
X3948812Y45055826D01*
X3948812Y45055825D01*
X3948811Y45055823D01*
X3921300Y44953148D01*
X3921300Y44846852D01*
X3948811Y44744177D01*
X4001959Y44652122D01*
X4077122Y44576959D01*
X4133171Y44544599D01*
X4175973Y44519887D01*
X4224189Y44469320D01*
X4237411Y44400713D01*
X4211443Y44335848D01*
X4175973Y44305113D01*
X4077125Y44248043D01*
X4077119Y44248039D01*
X4001961Y44172881D01*
X4001957Y44172875D01*
X3948812Y44080826D01*
X3948812Y44080825D01*
X3948811Y44080823D01*
X3921300Y43978148D01*
X3921300Y43871852D01*
X3948811Y43769177D01*
X3948812Y43769176D01*
X3948812Y43769175D01*
X3961091Y43747908D01*
X4001959Y43677122D01*
X4001961Y43677120D01*
X4003214Y43675867D01*
X4003932Y43674551D01*
X4006906Y43670676D01*
X4006301Y43670213D01*
X4036699Y43614544D01*
X4031715Y43544852D01*
X3989843Y43488919D01*
X3975823Y43480933D01*
X3976216Y43480253D01*
X3877125Y43423043D01*
X3877119Y43423039D01*
X3801961Y43347881D01*
X3801957Y43347875D01*
X3748812Y43255826D01*
X3748812Y43255825D01*
X3748811Y43255823D01*
X3721300Y43153148D01*
X1100500Y43153148D01*
X1100500Y52048936D01*
X11000512Y52048936D01*
X11000512Y51942640D01*
X11028023Y51839965D01*
X11081171Y51747910D01*
X11081173Y51747908D01*
X11145612Y51683469D01*
X11179097Y51622146D01*
X11174113Y51552454D01*
X11145612Y51508107D01*
X11081173Y51443669D01*
X11081169Y51443663D01*
X11028024Y51351614D01*
X11028024Y51351613D01*
X11028023Y51351611D01*
X11000512Y51248936D01*
X11000512Y51142640D01*
X11028023Y51039965D01*
X11081171Y50947910D01*
X11156334Y50872747D01*
X11248389Y50819599D01*
X11351064Y50792088D01*
X11351066Y50792088D01*
X11457358Y50792088D01*
X11457360Y50792088D01*
X11560035Y50819599D01*
X11652090Y50872747D01*
X11727253Y50947910D01*
X11780401Y51039965D01*
X11807912Y51142640D01*
X11807912Y51248936D01*
X11780401Y51351611D01*
X11727253Y51443666D01*
X11721983Y51448936D01*
X19125512Y51448936D01*
X19125512Y51342640D01*
X19153023Y51239965D01*
X19206171Y51147910D01*
X19281334Y51072747D01*
X19373389Y51019599D01*
X19476064Y50992088D01*
X19476066Y50992088D01*
X19582358Y50992088D01*
X19582360Y50992088D01*
X19685035Y51019599D01*
X19777090Y51072747D01*
X19852253Y51147910D01*
X19905401Y51239965D01*
X19932912Y51342640D01*
X19932912Y51448936D01*
X19905401Y51551611D01*
X19852253Y51643666D01*
X19777090Y51718829D01*
X19685035Y51771977D01*
X19582360Y51799488D01*
X19476064Y51799488D01*
X19373389Y51771977D01*
X19373387Y51771976D01*
X19373386Y51771976D01*
X19281337Y51718831D01*
X19281331Y51718827D01*
X19206173Y51643669D01*
X19206169Y51643663D01*
X19153024Y51551614D01*
X19153024Y51551613D01*
X19153023Y51551611D01*
X19125512Y51448936D01*
X11721983Y51448936D01*
X11658191Y51512728D01*
X11654083Y51517807D01*
X11643064Y51544272D01*
X11629327Y51569430D01*
X11629805Y51576119D01*
X11627228Y51582309D01*
X11632266Y51610529D01*
X11634311Y51639122D01*
X11638548Y51645715D01*
X11639508Y51651091D01*
X11647630Y51659848D01*
X11662812Y51683469D01*
X11727253Y51747910D01*
X11780401Y51839965D01*
X11807912Y51942640D01*
X11807912Y52048936D01*
X11780401Y52151611D01*
X11727253Y52243666D01*
X11652090Y52318829D01*
X11560035Y52371977D01*
X11457360Y52399488D01*
X11351064Y52399488D01*
X11248389Y52371977D01*
X11248387Y52371976D01*
X11248386Y52371976D01*
X11156337Y52318831D01*
X11156331Y52318827D01*
X11081173Y52243669D01*
X11081169Y52243663D01*
X11028024Y52151614D01*
X11028024Y52151613D01*
X11028023Y52151611D01*
X11000512Y52048936D01*
X1100500Y52048936D01*
X1100500Y53448936D01*
X19075512Y53448936D01*
X19075512Y53342640D01*
X19103023Y53239965D01*
X19156171Y53147910D01*
X19231334Y53072747D01*
X19323389Y53019599D01*
X19426064Y52992088D01*
X19426066Y52992088D01*
X19532358Y52992088D01*
X19532360Y52992088D01*
X19635035Y53019599D01*
X19727090Y53072747D01*
X19802253Y53147910D01*
X19855401Y53239965D01*
X19882912Y53342640D01*
X19882912Y53448936D01*
X19855401Y53551611D01*
X19802253Y53643666D01*
X19727090Y53718829D01*
X19635035Y53771977D01*
X19532360Y53799488D01*
X19426064Y53799488D01*
X19323389Y53771977D01*
X19323387Y53771976D01*
X19323386Y53771976D01*
X19231337Y53718831D01*
X19231331Y53718827D01*
X19156173Y53643669D01*
X19156169Y53643663D01*
X19103024Y53551614D01*
X19103024Y53551613D01*
X19103023Y53551611D01*
X19075512Y53448936D01*
X1100500Y53448936D01*
X1100500Y54803148D01*
X5121300Y54803148D01*
X5121300Y54696852D01*
X5148811Y54594177D01*
X5201959Y54502122D01*
X5277122Y54426959D01*
X5369177Y54373811D01*
X5471852Y54346300D01*
X5471854Y54346300D01*
X5578146Y54346300D01*
X5578148Y54346300D01*
X5680823Y54373811D01*
X5772878Y54426959D01*
X5848041Y54502122D01*
X5901189Y54594177D01*
X5928700Y54696852D01*
X5928700Y54803148D01*
X5901189Y54905823D01*
X5848041Y54997878D01*
X5772878Y55073041D01*
X5684942Y55123811D01*
X5680825Y55126188D01*
X5680824Y55126189D01*
X5680823Y55126189D01*
X5578148Y55153700D01*
X5471852Y55153700D01*
X5369177Y55126189D01*
X5369175Y55126188D01*
X5369174Y55126188D01*
X5277125Y55073043D01*
X5277119Y55073039D01*
X5201961Y54997881D01*
X5201957Y54997875D01*
X5148812Y54905826D01*
X5148812Y54905825D01*
X5148811Y54905823D01*
X5121300Y54803148D01*
X1100500Y54803148D01*
X1100500Y55553148D01*
X1621300Y55553148D01*
X1621300Y55446852D01*
X1648811Y55344177D01*
X1701959Y55252122D01*
X1777122Y55176959D01*
X1869177Y55123811D01*
X1971852Y55096300D01*
X1971854Y55096300D01*
X2078146Y55096300D01*
X2078148Y55096300D01*
X2180823Y55123811D01*
X2272878Y55176959D01*
X2348041Y55252122D01*
X2401189Y55344177D01*
X2428700Y55446852D01*
X2428700Y55553148D01*
X2408604Y55628148D01*
X3821300Y55628148D01*
X3821300Y55521852D01*
X3848811Y55419177D01*
X3901959Y55327122D01*
X3977122Y55251959D01*
X4069177Y55198811D01*
X4171852Y55171300D01*
X4171854Y55171300D01*
X4278146Y55171300D01*
X4278148Y55171300D01*
X4380823Y55198811D01*
X4472878Y55251959D01*
X4548041Y55327122D01*
X4601189Y55419177D01*
X4609163Y55448936D01*
X11050512Y55448936D01*
X11050512Y55342640D01*
X11078023Y55239965D01*
X11131171Y55147910D01*
X11206334Y55072747D01*
X11298389Y55019599D01*
X11401064Y54992088D01*
X11401066Y54992088D01*
X11507358Y54992088D01*
X11507360Y54992088D01*
X11610035Y55019599D01*
X11702090Y55072747D01*
X11777253Y55147910D01*
X11830401Y55239965D01*
X11857912Y55342640D01*
X11857912Y55448936D01*
X11830401Y55551611D01*
X11777253Y55643666D01*
X11771983Y55648936D01*
X14400512Y55648936D01*
X14400512Y55542640D01*
X14428023Y55439965D01*
X14428024Y55439964D01*
X14428024Y55439963D01*
X14440026Y55419175D01*
X14481171Y55347910D01*
X14556334Y55272747D01*
X14648389Y55219599D01*
X14751064Y55192088D01*
X14751066Y55192088D01*
X14857358Y55192088D01*
X14857360Y55192088D01*
X14960035Y55219599D01*
X15052090Y55272747D01*
X15127253Y55347910D01*
X15180401Y55439965D01*
X15207912Y55542640D01*
X15207912Y55648936D01*
X15201213Y55673936D01*
X15625512Y55673936D01*
X15625512Y55567640D01*
X15653023Y55464965D01*
X15653024Y55464964D01*
X15653024Y55464963D01*
X15667457Y55439965D01*
X15706171Y55372910D01*
X15781334Y55297747D01*
X15873389Y55244599D01*
X15976064Y55217088D01*
X15976066Y55217088D01*
X16082358Y55217088D01*
X16082360Y55217088D01*
X16185035Y55244599D01*
X16277090Y55297747D01*
X16352253Y55372910D01*
X16405401Y55464965D01*
X16432912Y55567640D01*
X16432912Y55673936D01*
X17625512Y55673936D01*
X17625512Y55567640D01*
X17653023Y55464965D01*
X17653024Y55464964D01*
X17653024Y55464963D01*
X17667457Y55439965D01*
X17706171Y55372910D01*
X17781334Y55297747D01*
X17873389Y55244599D01*
X17976064Y55217088D01*
X17976066Y55217088D01*
X18082358Y55217088D01*
X18082360Y55217088D01*
X18185035Y55244599D01*
X18277090Y55297747D01*
X18352253Y55372910D01*
X18405401Y55464965D01*
X18432912Y55567640D01*
X18432912Y55673936D01*
X18405401Y55776611D01*
X18352253Y55868666D01*
X18277090Y55943829D01*
X18185035Y55996977D01*
X18082360Y56024488D01*
X17976064Y56024488D01*
X17873389Y55996977D01*
X17873387Y55996976D01*
X17873386Y55996976D01*
X17781337Y55943831D01*
X17781331Y55943827D01*
X17706173Y55868669D01*
X17706169Y55868663D01*
X17653024Y55776614D01*
X17653024Y55776613D01*
X17653023Y55776611D01*
X17625512Y55673936D01*
X16432912Y55673936D01*
X16405401Y55776611D01*
X16352253Y55868666D01*
X16277090Y55943829D01*
X16185035Y55996977D01*
X16082360Y56024488D01*
X15976064Y56024488D01*
X15873389Y55996977D01*
X15873387Y55996976D01*
X15873386Y55996976D01*
X15781337Y55943831D01*
X15781331Y55943827D01*
X15706173Y55868669D01*
X15706169Y55868663D01*
X15653024Y55776614D01*
X15653024Y55776613D01*
X15653023Y55776611D01*
X15625512Y55673936D01*
X15201213Y55673936D01*
X15180401Y55751611D01*
X15127253Y55843666D01*
X15052090Y55918829D01*
X14960035Y55971977D01*
X14857360Y55999488D01*
X14751064Y55999488D01*
X14648389Y55971977D01*
X14648387Y55971976D01*
X14648386Y55971976D01*
X14556337Y55918831D01*
X14556331Y55918827D01*
X14481173Y55843669D01*
X14481169Y55843663D01*
X14428024Y55751614D01*
X14428024Y55751613D01*
X14428023Y55751611D01*
X14400512Y55648936D01*
X11771983Y55648936D01*
X11702090Y55718829D01*
X11610035Y55771977D01*
X11507360Y55799488D01*
X11401064Y55799488D01*
X11298389Y55771977D01*
X11298387Y55771976D01*
X11298386Y55771976D01*
X11206337Y55718831D01*
X11206331Y55718827D01*
X11131173Y55643669D01*
X11131169Y55643663D01*
X11078024Y55551614D01*
X11078024Y55551613D01*
X11078023Y55551611D01*
X11050512Y55448936D01*
X4609163Y55448936D01*
X4628700Y55521852D01*
X4628700Y55628148D01*
X4601189Y55730823D01*
X4548041Y55822878D01*
X4472878Y55898041D01*
X4380823Y55951189D01*
X4302313Y55972226D01*
X4302311Y55972226D01*
X4278149Y55978700D01*
X4278148Y55978700D01*
X4171852Y55978700D01*
X4069177Y55951189D01*
X4069175Y55951188D01*
X4069174Y55951188D01*
X3977125Y55898043D01*
X3977119Y55898039D01*
X3901961Y55822881D01*
X3901957Y55822875D01*
X3848812Y55730826D01*
X3848812Y55730825D01*
X3848811Y55730823D01*
X3821300Y55628148D01*
X2408604Y55628148D01*
X2401189Y55655823D01*
X2348041Y55747878D01*
X2272878Y55823041D01*
X2211508Y55858473D01*
X2180825Y55876188D01*
X2180824Y55876189D01*
X2180823Y55876189D01*
X2078148Y55903700D01*
X1971852Y55903700D01*
X1955830Y55899408D01*
X1955828Y55899407D01*
X1910409Y55887237D01*
X1869177Y55876189D01*
X1869175Y55876188D01*
X1869174Y55876188D01*
X1777125Y55823043D01*
X1777119Y55823039D01*
X1701961Y55747881D01*
X1701957Y55747875D01*
X1648812Y55655826D01*
X1648812Y55655825D01*
X1648811Y55655823D01*
X1621300Y55553148D01*
X1100500Y55553148D01*
X1100500Y56603148D01*
X1521300Y56603148D01*
X1521300Y56496852D01*
X1548811Y56394177D01*
X1601959Y56302122D01*
X1677122Y56226959D01*
X1769177Y56173811D01*
X1871852Y56146300D01*
X1871854Y56146300D01*
X1931157Y56146300D01*
X1978148Y56146300D01*
X2080823Y56173811D01*
X2172878Y56226959D01*
X2248041Y56302122D01*
X2301189Y56394177D01*
X2328700Y56496852D01*
X2328700Y56603148D01*
X4196300Y56603148D01*
X4196300Y56496852D01*
X4223811Y56394177D01*
X4276959Y56302122D01*
X4352122Y56226959D01*
X4444177Y56173811D01*
X4546852Y56146300D01*
X4546855Y56146300D01*
X4653146Y56146300D01*
X4653148Y56146300D01*
X4755823Y56173811D01*
X4847878Y56226959D01*
X4923041Y56302122D01*
X4976189Y56394177D01*
X5003700Y56496852D01*
X5003700Y56603148D01*
X4976189Y56705823D01*
X4923041Y56797878D01*
X4847878Y56873041D01*
X4755823Y56926189D01*
X4653148Y56953700D01*
X4546852Y56953700D01*
X4444177Y56926189D01*
X4444175Y56926188D01*
X4444174Y56926188D01*
X4352125Y56873043D01*
X4352119Y56873039D01*
X4276961Y56797881D01*
X4276957Y56797875D01*
X4223812Y56705826D01*
X4223812Y56705825D01*
X4223811Y56705823D01*
X4196300Y56603148D01*
X2328700Y56603148D01*
X2301189Y56705823D01*
X2248041Y56797878D01*
X2172878Y56873041D01*
X2080823Y56926189D01*
X1978148Y56953700D01*
X1871852Y56953700D01*
X1769177Y56926189D01*
X1769175Y56926188D01*
X1769174Y56926188D01*
X1677125Y56873043D01*
X1677119Y56873039D01*
X1601961Y56797881D01*
X1601957Y56797875D01*
X1548812Y56705826D01*
X1548812Y56705825D01*
X1548811Y56705823D01*
X1521300Y56603148D01*
X1100500Y56603148D01*
X1100500Y58553148D01*
X5121300Y58553148D01*
X5121300Y58446852D01*
X5148811Y58344177D01*
X5201959Y58252122D01*
X5201961Y58252120D01*
X5278900Y58175181D01*
X5312385Y58113858D01*
X5307401Y58044166D01*
X5278900Y57999819D01*
X5226961Y57947881D01*
X5226957Y57947875D01*
X5173812Y57855826D01*
X5173812Y57855825D01*
X5173811Y57855823D01*
X5146300Y57753148D01*
X5146300Y57646852D01*
X5173811Y57544177D01*
X5226959Y57452122D01*
X5302122Y57376959D01*
X5394177Y57323811D01*
X5496852Y57296300D01*
X5496854Y57296300D01*
X5603146Y57296300D01*
X5603148Y57296300D01*
X5705823Y57323811D01*
X5797878Y57376959D01*
X5873041Y57452122D01*
X5926189Y57544177D01*
X5953700Y57646852D01*
X5953700Y57753148D01*
X5926189Y57855823D01*
X5873041Y57947878D01*
X5797878Y58023041D01*
X5796100Y58024819D01*
X5762615Y58086142D01*
X5767599Y58155834D01*
X5796100Y58200181D01*
X5848041Y58252122D01*
X5901189Y58344177D01*
X5928700Y58446852D01*
X5928700Y58533148D01*
X24876300Y58533148D01*
X24876300Y58426852D01*
X24903811Y58324177D01*
X24956959Y58232122D01*
X24956961Y58232120D01*
X25016400Y58172681D01*
X25049885Y58111358D01*
X25044901Y58041666D01*
X25016400Y57997319D01*
X24966961Y57947881D01*
X24966957Y57947875D01*
X24913812Y57855826D01*
X24913812Y57855825D01*
X24913811Y57855823D01*
X24886300Y57753148D01*
X24886300Y57646852D01*
X24913811Y57544177D01*
X24966959Y57452122D01*
X25042122Y57376959D01*
X25134177Y57323811D01*
X25236852Y57296300D01*
X25236854Y57296300D01*
X25343146Y57296300D01*
X25343148Y57296300D01*
X25445823Y57323811D01*
X25537878Y57376959D01*
X25613041Y57452122D01*
X25666189Y57544177D01*
X25693700Y57646852D01*
X25693700Y57753148D01*
X25666189Y57855823D01*
X25613041Y57947878D01*
X25553600Y58007319D01*
X25520115Y58068642D01*
X25525099Y58138334D01*
X25553600Y58182681D01*
X25571100Y58200181D01*
X25603041Y58232122D01*
X25656189Y58324177D01*
X25683700Y58426852D01*
X25683700Y58533148D01*
X25656189Y58635823D01*
X25603041Y58727878D01*
X25527878Y58803041D01*
X25435823Y58856189D01*
X25333148Y58883700D01*
X25226852Y58883700D01*
X25124177Y58856189D01*
X25124175Y58856188D01*
X25124174Y58856188D01*
X25032125Y58803043D01*
X25032119Y58803039D01*
X24956961Y58727881D01*
X24956957Y58727875D01*
X24903812Y58635826D01*
X24903812Y58635825D01*
X24903811Y58635823D01*
X24876300Y58533148D01*
X5928700Y58533148D01*
X5928700Y58553148D01*
X5901189Y58655823D01*
X5848041Y58747878D01*
X5772878Y58823041D01*
X5680823Y58876189D01*
X5578148Y58903700D01*
X5471852Y58903700D01*
X5369177Y58876189D01*
X5369175Y58876188D01*
X5369174Y58876188D01*
X5277125Y58823043D01*
X5277119Y58823039D01*
X5201961Y58747881D01*
X5201957Y58747875D01*
X5148812Y58655826D01*
X5148812Y58655825D01*
X5148811Y58655823D01*
X5121300Y58553148D01*
X1100500Y58553148D01*
X1100500Y59953148D01*
X2021300Y59953148D01*
X2021300Y59846852D01*
X2048811Y59744177D01*
X2101959Y59652122D01*
X2177122Y59576959D01*
X2269177Y59523811D01*
X2371852Y59496300D01*
X2371854Y59496300D01*
X2478146Y59496300D01*
X2478148Y59496300D01*
X2580823Y59523811D01*
X2672878Y59576959D01*
X2748041Y59652122D01*
X2801189Y59744177D01*
X2828700Y59846852D01*
X2828700Y59953148D01*
X2801189Y60055823D01*
X2748041Y60147878D01*
X2672878Y60223041D01*
X2580823Y60276189D01*
X2478148Y60303700D01*
X2371852Y60303700D01*
X2269177Y60276189D01*
X2269175Y60276188D01*
X2269174Y60276188D01*
X2177125Y60223043D01*
X2177119Y60223039D01*
X2101961Y60147881D01*
X2101957Y60147875D01*
X2048812Y60055826D01*
X2048812Y60055825D01*
X2048811Y60055823D01*
X2021300Y59953148D01*
X1100500Y59953148D01*
X1100500Y60578148D01*
X3171300Y60578148D01*
X3171300Y60471852D01*
X3198811Y60369177D01*
X3251959Y60277122D01*
X3327122Y60201959D01*
X3419177Y60148811D01*
X3521852Y60121300D01*
X3521854Y60121300D01*
X3628146Y60121300D01*
X3628148Y60121300D01*
X3730823Y60148811D01*
X3822878Y60201959D01*
X3898041Y60277122D01*
X3951189Y60369177D01*
X3978700Y60471852D01*
X3978700Y60578148D01*
X3951189Y60680823D01*
X3923866Y60728148D01*
X5071300Y60728148D01*
X5071300Y60621852D01*
X5098811Y60519177D01*
X5151959Y60427122D01*
X5151961Y60427120D01*
X5228900Y60350181D01*
X5262385Y60288858D01*
X5257401Y60219166D01*
X5228900Y60174819D01*
X5176961Y60122881D01*
X5176957Y60122875D01*
X5123812Y60030826D01*
X5123812Y60030825D01*
X5123811Y60030823D01*
X5096300Y59928148D01*
X5096300Y59821852D01*
X5123811Y59719177D01*
X5176959Y59627122D01*
X5252122Y59551959D01*
X5344177Y59498811D01*
X5446852Y59471300D01*
X5446854Y59471300D01*
X5553146Y59471300D01*
X5553148Y59471300D01*
X5655823Y59498811D01*
X5747878Y59551959D01*
X5823041Y59627122D01*
X5876189Y59719177D01*
X5903700Y59821852D01*
X5903700Y59928148D01*
X5876189Y60030823D01*
X5823041Y60122878D01*
X5747878Y60198041D01*
X5746100Y60199819D01*
X5712615Y60261142D01*
X5717599Y60330834D01*
X5746100Y60375181D01*
X5798041Y60427122D01*
X5851189Y60519177D01*
X5878700Y60621852D01*
X5878700Y60723148D01*
X24856300Y60723148D01*
X24856300Y60616852D01*
X24883811Y60514177D01*
X24936959Y60422122D01*
X24936961Y60422120D01*
X25001400Y60357681D01*
X25034885Y60296358D01*
X25029901Y60226666D01*
X25001400Y60182319D01*
X24946961Y60127881D01*
X24946957Y60127875D01*
X24893812Y60035826D01*
X24893812Y60035825D01*
X24893811Y60035823D01*
X24866300Y59933148D01*
X24866300Y59826852D01*
X24893811Y59724177D01*
X24946959Y59632122D01*
X25022122Y59556959D01*
X25114177Y59503811D01*
X25216852Y59476300D01*
X25216854Y59476300D01*
X25323146Y59476300D01*
X25323148Y59476300D01*
X25425823Y59503811D01*
X25517878Y59556959D01*
X25593041Y59632122D01*
X25646189Y59724177D01*
X25673700Y59826852D01*
X25673700Y59933148D01*
X25646189Y60035823D01*
X25593041Y60127878D01*
X25528600Y60192319D01*
X25495115Y60253642D01*
X25500099Y60323334D01*
X25528600Y60367681D01*
X25536100Y60375181D01*
X25583041Y60422122D01*
X25636189Y60514177D01*
X25663700Y60616852D01*
X25663700Y60723148D01*
X25636189Y60825823D01*
X25583041Y60917878D01*
X25523600Y60977319D01*
X25490115Y61038642D01*
X25495099Y61108334D01*
X25523600Y61152681D01*
X25543600Y61172681D01*
X25603041Y61232122D01*
X25656189Y61324177D01*
X25683700Y61426852D01*
X25683700Y61533148D01*
X25656189Y61635823D01*
X25603041Y61727878D01*
X25538600Y61792319D01*
X25505115Y61853642D01*
X25510099Y61923334D01*
X25538600Y61967681D01*
X25593041Y62022122D01*
X25646189Y62114177D01*
X25673700Y62216852D01*
X25673700Y62323148D01*
X25646189Y62425823D01*
X25593041Y62517878D01*
X25517878Y62593041D01*
X25425823Y62646189D01*
X25323148Y62673700D01*
X25216852Y62673700D01*
X25114177Y62646189D01*
X25114175Y62646188D01*
X25114174Y62646188D01*
X25022125Y62593043D01*
X25022119Y62593039D01*
X24946961Y62517881D01*
X24946957Y62517875D01*
X24893812Y62425826D01*
X24893812Y62425825D01*
X24893811Y62425823D01*
X24866300Y62323148D01*
X24866300Y62216852D01*
X24893811Y62114177D01*
X24946959Y62022122D01*
X24946961Y62022120D01*
X25011400Y61957681D01*
X25044885Y61896358D01*
X25039901Y61826666D01*
X25011400Y61782319D01*
X24956961Y61727881D01*
X24956957Y61727875D01*
X24903812Y61635826D01*
X24903812Y61635825D01*
X24903811Y61635823D01*
X24876300Y61533148D01*
X24876300Y61426852D01*
X24903811Y61324177D01*
X24956959Y61232122D01*
X24956961Y61232120D01*
X25016400Y61172681D01*
X25049885Y61111358D01*
X25044901Y61041666D01*
X25016400Y60997319D01*
X24936961Y60917881D01*
X24936957Y60917875D01*
X24883812Y60825826D01*
X24883812Y60825825D01*
X24883811Y60825823D01*
X24856300Y60723148D01*
X5878700Y60723148D01*
X5878700Y60728148D01*
X5851189Y60830823D01*
X5798041Y60922878D01*
X5722878Y60998041D01*
X5630823Y61051189D01*
X5528148Y61078700D01*
X5421852Y61078700D01*
X5319177Y61051189D01*
X5319175Y61051188D01*
X5319174Y61051188D01*
X5227125Y60998043D01*
X5227119Y60998039D01*
X5151961Y60922881D01*
X5151957Y60922875D01*
X5098812Y60830826D01*
X5098812Y60830825D01*
X5098811Y60830823D01*
X5071300Y60728148D01*
X3923866Y60728148D01*
X3898041Y60772878D01*
X3822878Y60848041D01*
X3730823Y60901189D01*
X3628148Y60928700D01*
X3521852Y60928700D01*
X3419177Y60901189D01*
X3419175Y60901188D01*
X3419174Y60901188D01*
X3327125Y60848043D01*
X3327119Y60848039D01*
X3251961Y60772881D01*
X3251957Y60772875D01*
X3198812Y60680826D01*
X3198812Y60680825D01*
X3198811Y60680823D01*
X3171300Y60578148D01*
X1100500Y60578148D01*
X1100500Y62128148D01*
X2196300Y62128148D01*
X2196300Y62021852D01*
X2223811Y61919177D01*
X2276959Y61827122D01*
X2352122Y61751959D01*
X2444177Y61698811D01*
X2546852Y61671300D01*
X2546854Y61671300D01*
X2653146Y61671300D01*
X2653148Y61671300D01*
X2755823Y61698811D01*
X2847878Y61751959D01*
X2923041Y61827122D01*
X2976189Y61919177D01*
X3003700Y62021852D01*
X3003700Y62128148D01*
X2976189Y62230823D01*
X2923041Y62322878D01*
X2847878Y62398041D01*
X2755823Y62451189D01*
X2653148Y62478700D01*
X2546852Y62478700D01*
X2444177Y62451189D01*
X2444175Y62451188D01*
X2444174Y62451188D01*
X2352125Y62398043D01*
X2352119Y62398039D01*
X2276961Y62322881D01*
X2276957Y62322875D01*
X2223812Y62230826D01*
X2223812Y62230825D01*
X2223811Y62230823D01*
X2196300Y62128148D01*
X1100500Y62128148D01*
X1100500Y63383479D01*
X3826631Y63383479D01*
X3826631Y63277183D01*
X3854142Y63174508D01*
X3907290Y63082453D01*
X3982453Y63007290D01*
X4074508Y62954142D01*
X4177183Y62926631D01*
X4177185Y62926631D01*
X4283477Y62926631D01*
X4283479Y62926631D01*
X4386154Y62954142D01*
X4478209Y63007290D01*
X4553372Y63082453D01*
X4606520Y63174508D01*
X4634031Y63277183D01*
X4634031Y63383479D01*
X4606520Y63486154D01*
X4553372Y63578209D01*
X4478209Y63653372D01*
X4386154Y63706520D01*
X4283479Y63734031D01*
X4177183Y63734031D01*
X4074508Y63706520D01*
X4074506Y63706519D01*
X4074505Y63706519D01*
X3982456Y63653374D01*
X3982450Y63653370D01*
X3907292Y63578212D01*
X3907288Y63578206D01*
X3854143Y63486157D01*
X3854143Y63486156D01*
X3854142Y63486154D01*
X3826631Y63383479D01*
X1100500Y63383479D01*
X1100500Y64903148D01*
X6821300Y64903148D01*
X6821300Y64796852D01*
X6848811Y64694177D01*
X6901959Y64602122D01*
X6977122Y64526959D01*
X7069177Y64473811D01*
X7171852Y64446300D01*
X7171854Y64446300D01*
X7278146Y64446300D01*
X7278148Y64446300D01*
X7380823Y64473811D01*
X7472878Y64526959D01*
X7548041Y64602122D01*
X7601189Y64694177D01*
X7628700Y64796852D01*
X7628700Y64903148D01*
X7601189Y65005823D01*
X7548041Y65097878D01*
X7472878Y65173041D01*
X7405188Y65212122D01*
X7380825Y65226188D01*
X7380824Y65226189D01*
X7380823Y65226189D01*
X7278148Y65253700D01*
X7171852Y65253700D01*
X7069177Y65226189D01*
X7069175Y65226188D01*
X7069174Y65226188D01*
X6977125Y65173043D01*
X6977119Y65173039D01*
X6901961Y65097881D01*
X6901957Y65097875D01*
X6848812Y65005826D01*
X6848812Y65005825D01*
X6848811Y65005823D01*
X6821300Y64903148D01*
X1100500Y64903148D01*
X1100500Y68303148D01*
X2346300Y68303148D01*
X2346300Y68196852D01*
X2373811Y68094177D01*
X2426959Y68002122D01*
X2502122Y67926959D01*
X2594177Y67873811D01*
X2609243Y67869775D01*
X2668903Y67833410D01*
X2699432Y67770563D01*
X2691137Y67701188D01*
X2646652Y67647310D01*
X2609244Y67630227D01*
X2594177Y67626189D01*
X2594175Y67626188D01*
X2594174Y67626188D01*
X2502125Y67573043D01*
X2502119Y67573039D01*
X2426961Y67497881D01*
X2426957Y67497875D01*
X2373812Y67405826D01*
X2373812Y67405825D01*
X2373811Y67405823D01*
X2346300Y67303148D01*
X2346300Y67196852D01*
X2373811Y67094177D01*
X2426959Y67002122D01*
X2502122Y66926959D01*
X2594177Y66873811D01*
X2696852Y66846300D01*
X2696854Y66846300D01*
X2803146Y66846300D01*
X2803148Y66846300D01*
X2905823Y66873811D01*
X2997878Y66926959D01*
X3073041Y67002122D01*
X3126189Y67094177D01*
X3130225Y67109244D01*
X3166589Y67168903D01*
X3229435Y67199433D01*
X3298811Y67191139D01*
X3352690Y67146654D01*
X3369773Y67109245D01*
X3373811Y67094177D01*
X3426959Y67002122D01*
X3502122Y66926959D01*
X3546757Y66901189D01*
X3594173Y66873813D01*
X3594177Y66873811D01*
X3625194Y66865500D01*
X3684852Y66829139D01*
X3715383Y66766293D01*
X3707090Y66696917D01*
X3700490Y66683732D01*
X3698813Y66680828D01*
X3698811Y66680825D01*
X3698811Y66680823D01*
X3671300Y66578148D01*
X3671300Y66471852D01*
X3698811Y66369177D01*
X3751959Y66277122D01*
X3827122Y66201959D01*
X3919177Y66148811D01*
X4021852Y66121300D01*
X4021854Y66121300D01*
X4128146Y66121300D01*
X4128148Y66121300D01*
X4230823Y66148811D01*
X4322878Y66201959D01*
X4398041Y66277122D01*
X4451189Y66369177D01*
X4473688Y66453148D01*
X10371300Y66453148D01*
X10371300Y66346852D01*
X10398811Y66244177D01*
X10398812Y66244176D01*
X10398812Y66244175D01*
X10424605Y66199500D01*
X10441078Y66131599D01*
X10424605Y66075500D01*
X10398812Y66030826D01*
X10398812Y66030825D01*
X10398811Y66030823D01*
X10371300Y65928148D01*
X10371300Y65821852D01*
X10398811Y65719177D01*
X10398812Y65719176D01*
X10398812Y65719175D01*
X10431822Y65662000D01*
X10448295Y65594100D01*
X10431822Y65538000D01*
X10398812Y65480826D01*
X10398812Y65480825D01*
X10398811Y65480823D01*
X10371300Y65378148D01*
X10371300Y65271852D01*
X10398811Y65169177D01*
X10451959Y65077122D01*
X10527122Y65001959D01*
X10619177Y64948811D01*
X10721852Y64921300D01*
X10721854Y64921300D01*
X10828146Y64921300D01*
X10828148Y64921300D01*
X10930823Y64948811D01*
X11022878Y65001959D01*
X11098041Y65077122D01*
X11151189Y65169177D01*
X11178700Y65271852D01*
X11178700Y65378148D01*
X11151189Y65480823D01*
X11118175Y65538004D01*
X11117079Y65542525D01*
X11113952Y65545974D01*
X11108919Y65576160D01*
X11101704Y65605899D01*
X11103013Y65611576D01*
X11102461Y65614892D01*
X11106736Y65627708D01*
X11111643Y65648971D01*
X11114520Y65655667D01*
X11151189Y65719177D01*
X11153593Y65728148D01*
X13646300Y65728148D01*
X13646300Y65621852D01*
X13673811Y65519177D01*
X13726959Y65427122D01*
X13802122Y65351959D01*
X13894177Y65298811D01*
X13996852Y65271300D01*
X13996854Y65271300D01*
X14103146Y65271300D01*
X14103148Y65271300D01*
X14205823Y65298811D01*
X14297878Y65351959D01*
X14373041Y65427122D01*
X14426189Y65519177D01*
X14429932Y65533148D01*
X19316300Y65533148D01*
X19316300Y65426852D01*
X19343811Y65324177D01*
X19343812Y65324176D01*
X19343812Y65324175D01*
X19355358Y65304177D01*
X19396959Y65232122D01*
X19472122Y65156959D01*
X19564177Y65103811D01*
X19666852Y65076300D01*
X19666854Y65076300D01*
X19773146Y65076300D01*
X19773148Y65076300D01*
X19875823Y65103811D01*
X19967878Y65156959D01*
X20017319Y65206400D01*
X20078642Y65239885D01*
X20148334Y65234901D01*
X20192681Y65206400D01*
X20262122Y65136959D01*
X20354177Y65083811D01*
X20456852Y65056300D01*
X20456854Y65056300D01*
X20563146Y65056300D01*
X20563148Y65056300D01*
X20665823Y65083811D01*
X20757878Y65136959D01*
X20824819Y65203900D01*
X20886142Y65237385D01*
X20955834Y65232401D01*
X21000181Y65203900D01*
X21056334Y65147747D01*
X21148389Y65094599D01*
X21251064Y65067088D01*
X21251066Y65067088D01*
X21357358Y65067088D01*
X21357360Y65067088D01*
X21460035Y65094599D01*
X21552090Y65147747D01*
X21627253Y65222910D01*
X21627253Y65222911D01*
X21633000Y65228657D01*
X21635241Y65226416D01*
X21679598Y65258822D01*
X21749343Y65262994D01*
X21809257Y65229824D01*
X21882122Y65156959D01*
X21974177Y65103811D01*
X22076852Y65076300D01*
X22076854Y65076300D01*
X22183146Y65076300D01*
X22183148Y65076300D01*
X22285823Y65103811D01*
X22377878Y65156959D01*
X22453041Y65232122D01*
X22506189Y65324177D01*
X22533700Y65426852D01*
X22533700Y65533148D01*
X22506189Y65635823D01*
X22453041Y65727878D01*
X22377878Y65803041D01*
X22316508Y65838473D01*
X22285825Y65856188D01*
X22285824Y65856189D01*
X22285823Y65856189D01*
X22183148Y65883700D01*
X22076852Y65883700D01*
X21974177Y65856189D01*
X21974175Y65856188D01*
X21974174Y65856188D01*
X21882125Y65803043D01*
X21882119Y65803039D01*
X21801212Y65722131D01*
X21798983Y65724360D01*
X21754501Y65691927D01*
X21684752Y65687821D01*
X21624954Y65720965D01*
X21552092Y65793827D01*
X21552090Y65793829D01*
X21460035Y65846977D01*
X21357360Y65874488D01*
X21251064Y65874488D01*
X21148389Y65846977D01*
X21148387Y65846976D01*
X21148386Y65846976D01*
X21056337Y65793831D01*
X21056331Y65793827D01*
X20989393Y65726888D01*
X20928070Y65693403D01*
X20858378Y65698387D01*
X20814031Y65726888D01*
X20757880Y65783039D01*
X20757878Y65783041D01*
X20665823Y65836189D01*
X20563148Y65863700D01*
X20456852Y65863700D01*
X20354177Y65836189D01*
X20354175Y65836188D01*
X20354174Y65836188D01*
X20262125Y65783043D01*
X20262119Y65783039D01*
X20212681Y65733600D01*
X20151358Y65700115D01*
X20081666Y65705099D01*
X20037319Y65733600D01*
X19967880Y65803039D01*
X19967878Y65803041D01*
X19906508Y65838473D01*
X19875825Y65856188D01*
X19875824Y65856189D01*
X19875823Y65856189D01*
X19773148Y65883700D01*
X19666852Y65883700D01*
X19564177Y65856189D01*
X19564175Y65856188D01*
X19564174Y65856188D01*
X19472125Y65803043D01*
X19472119Y65803039D01*
X19396961Y65727881D01*
X19396957Y65727875D01*
X19343812Y65635826D01*
X19343812Y65635825D01*
X19343811Y65635823D01*
X19316300Y65533148D01*
X14429932Y65533148D01*
X14453700Y65621852D01*
X14453700Y65728148D01*
X14426189Y65830823D01*
X14373041Y65922878D01*
X14297878Y65998041D01*
X14205823Y66051189D01*
X14103148Y66078700D01*
X13996852Y66078700D01*
X13894177Y66051189D01*
X13894175Y66051188D01*
X13894174Y66051188D01*
X13802125Y65998043D01*
X13802119Y65998039D01*
X13726961Y65922881D01*
X13726957Y65922875D01*
X13673812Y65830826D01*
X13673812Y65830825D01*
X13673811Y65830823D01*
X13646300Y65728148D01*
X11153593Y65728148D01*
X11178700Y65821852D01*
X11178700Y65928148D01*
X11151189Y66030823D01*
X11125394Y66075500D01*
X11108921Y66143399D01*
X11125395Y66199501D01*
X11126816Y66201962D01*
X11151189Y66244177D01*
X11178700Y66346852D01*
X11178700Y66453148D01*
X11151189Y66555823D01*
X11098041Y66647878D01*
X11022878Y66723041D01*
X10961508Y66758473D01*
X10930825Y66776188D01*
X10930824Y66776189D01*
X10930823Y66776189D01*
X10828148Y66803700D01*
X10721852Y66803700D01*
X10619177Y66776189D01*
X10619175Y66776188D01*
X10619174Y66776188D01*
X10527125Y66723043D01*
X10527119Y66723039D01*
X10451961Y66647881D01*
X10451957Y66647875D01*
X10398812Y66555826D01*
X10398812Y66555825D01*
X10398811Y66555823D01*
X10371300Y66453148D01*
X4473688Y66453148D01*
X4478700Y66471852D01*
X4478700Y66578148D01*
X4451189Y66680823D01*
X4442448Y66695962D01*
X4425975Y66763860D01*
X4448826Y66829887D01*
X4503747Y66873079D01*
X4573300Y66879722D01*
X4586301Y66875821D01*
X4586327Y66875915D01*
X4594174Y66873813D01*
X4594177Y66873811D01*
X4696852Y66846300D01*
X4696854Y66846300D01*
X4803146Y66846300D01*
X4803148Y66846300D01*
X4905823Y66873811D01*
X4997878Y66926959D01*
X5073041Y67002122D01*
X5126189Y67094177D01*
X5153700Y67196852D01*
X5153700Y67303148D01*
X5126189Y67405823D01*
X5073041Y67497878D01*
X4997878Y67573041D01*
X4905823Y67626189D01*
X4890756Y67630226D01*
X4831097Y67666589D01*
X4800567Y67729435D01*
X4808861Y67798811D01*
X4833083Y67828148D01*
X8821300Y67828148D01*
X8821300Y67721852D01*
X8848811Y67619177D01*
X8901959Y67527122D01*
X8977122Y67451959D01*
X9069177Y67398811D01*
X9171852Y67371300D01*
X9171854Y67371300D01*
X9278146Y67371300D01*
X9278148Y67371300D01*
X9380823Y67398811D01*
X9472878Y67451959D01*
X9548041Y67527122D01*
X9601189Y67619177D01*
X9628700Y67721852D01*
X9628700Y67828148D01*
X9622001Y67853148D01*
X20071300Y67853148D01*
X20071300Y67746852D01*
X20098811Y67644177D01*
X20151959Y67552122D01*
X20227122Y67476959D01*
X20319177Y67423811D01*
X20421852Y67396300D01*
X20421854Y67396300D01*
X20528146Y67396300D01*
X20528148Y67396300D01*
X20630823Y67423811D01*
X20722878Y67476959D01*
X20798041Y67552122D01*
X20851189Y67644177D01*
X20878700Y67746852D01*
X20878700Y67853148D01*
X20851189Y67955823D01*
X20798041Y68047878D01*
X20722878Y68123041D01*
X20630823Y68176189D01*
X20528148Y68203700D01*
X20421852Y68203700D01*
X20319177Y68176189D01*
X20319175Y68176188D01*
X20319174Y68176188D01*
X20227125Y68123043D01*
X20227119Y68123039D01*
X20151961Y68047881D01*
X20151957Y68047875D01*
X20098812Y67955826D01*
X20098812Y67955825D01*
X20098811Y67955823D01*
X20071300Y67853148D01*
X9622001Y67853148D01*
X9601189Y67930823D01*
X9548041Y68022878D01*
X9472878Y68098041D01*
X9380823Y68151189D01*
X9278148Y68178700D01*
X9171852Y68178700D01*
X9069177Y68151189D01*
X9069175Y68151188D01*
X9069174Y68151188D01*
X8977125Y68098043D01*
X8977119Y68098039D01*
X8901961Y68022881D01*
X8901957Y68022875D01*
X8848812Y67930826D01*
X8848812Y67930825D01*
X8848811Y67930823D01*
X8821300Y67828148D01*
X4833083Y67828148D01*
X4853346Y67852690D01*
X4863914Y67859099D01*
X4876705Y67866010D01*
X4905823Y67873811D01*
X4997878Y67926959D01*
X5073041Y68002122D01*
X5126189Y68094177D01*
X5153700Y68196852D01*
X5153700Y68303148D01*
X5126189Y68405823D01*
X5073041Y68497878D01*
X4997878Y68573041D01*
X4996408Y68573890D01*
X4905825Y68626188D01*
X4905824Y68626189D01*
X4905823Y68626189D01*
X4803148Y68653700D01*
X4696852Y68653700D01*
X4594177Y68626189D01*
X4594175Y68626188D01*
X4594174Y68626188D01*
X4502125Y68573043D01*
X4502119Y68573039D01*
X4426961Y68497881D01*
X4426957Y68497875D01*
X4373812Y68405826D01*
X4373812Y68405825D01*
X4373811Y68405823D01*
X4369774Y68390757D01*
X4333410Y68331097D01*
X4270563Y68300568D01*
X4201188Y68308863D01*
X4147310Y68353348D01*
X4130226Y68390756D01*
X4126189Y68405823D01*
X4073041Y68497878D01*
X3997878Y68573041D01*
X3905823Y68626189D01*
X3803148Y68653700D01*
X3696852Y68653700D01*
X3594177Y68626189D01*
X3594175Y68626188D01*
X3594174Y68626188D01*
X3502125Y68573043D01*
X3502119Y68573039D01*
X3426961Y68497881D01*
X3426957Y68497875D01*
X3373812Y68405826D01*
X3373812Y68405825D01*
X3373811Y68405823D01*
X3369774Y68390757D01*
X3333410Y68331097D01*
X3270563Y68300568D01*
X3201188Y68308863D01*
X3147310Y68353348D01*
X3130226Y68390756D01*
X3126189Y68405823D01*
X3073041Y68497878D01*
X2997878Y68573041D01*
X2905823Y68626189D01*
X2803148Y68653700D01*
X2696852Y68653700D01*
X2594177Y68626189D01*
X2594175Y68626188D01*
X2594174Y68626188D01*
X2502125Y68573043D01*
X2502119Y68573039D01*
X2426961Y68497881D01*
X2426957Y68497875D01*
X2373812Y68405826D01*
X2373812Y68405825D01*
X2373811Y68405823D01*
X2346300Y68303148D01*
X1100500Y68303148D01*
X1100500Y68673148D01*
X16086300Y68673148D01*
X16086300Y68566852D01*
X16113811Y68464177D01*
X16166959Y68372122D01*
X16242122Y68296959D01*
X16334177Y68243811D01*
X16436852Y68216300D01*
X16436854Y68216300D01*
X16543146Y68216300D01*
X16543148Y68216300D01*
X16645823Y68243811D01*
X16737878Y68296959D01*
X16813041Y68372122D01*
X16866189Y68464177D01*
X16893700Y68566852D01*
X16893700Y68673148D01*
X16866189Y68775823D01*
X16813041Y68867878D01*
X16737878Y68943041D01*
X16645823Y68996189D01*
X16543148Y69023700D01*
X16436852Y69023700D01*
X16334177Y68996189D01*
X16334175Y68996188D01*
X16334174Y68996188D01*
X16242125Y68943043D01*
X16242119Y68943039D01*
X16166961Y68867881D01*
X16166957Y68867875D01*
X16113812Y68775826D01*
X16113812Y68775825D01*
X16113811Y68775823D01*
X16086300Y68673148D01*
X1100500Y68673148D01*
X1100500Y70653148D01*
X11621300Y70653148D01*
X11621300Y70546852D01*
X11648811Y70444177D01*
X11701959Y70352122D01*
X11777122Y70276959D01*
X11869177Y70223811D01*
X11971852Y70196300D01*
X11971854Y70196300D01*
X11994345Y70196300D01*
X12061384Y70176615D01*
X12107139Y70123811D01*
X12117083Y70054653D01*
X12088058Y69991097D01*
X12056345Y69964913D01*
X12027125Y69948043D01*
X12027119Y69948039D01*
X11951961Y69872881D01*
X11951957Y69872875D01*
X11898812Y69780826D01*
X11898812Y69780825D01*
X11898811Y69780823D01*
X11871300Y69678148D01*
X11871300Y69571852D01*
X11898811Y69469177D01*
X11951959Y69377122D01*
X12027122Y69301959D01*
X12119177Y69248811D01*
X12221852Y69221300D01*
X12221854Y69221300D01*
X12328146Y69221300D01*
X12328148Y69221300D01*
X12430823Y69248811D01*
X12522878Y69301959D01*
X12598041Y69377122D01*
X12651189Y69469177D01*
X12678700Y69571852D01*
X12678700Y69678148D01*
X12651189Y69780823D01*
X12598041Y69872878D01*
X12522878Y69948041D01*
X12430823Y70001189D01*
X12328148Y70028700D01*
X12305655Y70028700D01*
X12238616Y70048385D01*
X12192861Y70101189D01*
X12182917Y70170347D01*
X12211942Y70233903D01*
X12243655Y70260087D01*
X12245464Y70261132D01*
X12272878Y70276959D01*
X12348041Y70352122D01*
X12401189Y70444177D01*
X12428700Y70546852D01*
X12428700Y70653148D01*
X12401189Y70755823D01*
X12348041Y70847878D01*
X12272878Y70923041D01*
X12180823Y70976189D01*
X12078148Y71003700D01*
X11971852Y71003700D01*
X11869177Y70976189D01*
X11869175Y70976188D01*
X11869174Y70976188D01*
X11777125Y70923043D01*
X11777119Y70923039D01*
X11701961Y70847881D01*
X11701957Y70847875D01*
X11648812Y70755826D01*
X11648812Y70755825D01*
X11648811Y70755823D01*
X11621300Y70653148D01*
X1100500Y70653148D01*
X1100500Y74803148D01*
X1846300Y74803148D01*
X1846300Y74696852D01*
X1873811Y74594177D01*
X1926959Y74502122D01*
X2002122Y74426959D01*
X2094177Y74373811D01*
X2109243Y74369775D01*
X2168903Y74333410D01*
X2199432Y74270563D01*
X2191137Y74201188D01*
X2146652Y74147310D01*
X2109244Y74130227D01*
X2094177Y74126189D01*
X2094175Y74126188D01*
X2094174Y74126188D01*
X2002125Y74073043D01*
X2002119Y74073039D01*
X1926961Y73997881D01*
X1926957Y73997875D01*
X1873812Y73905826D01*
X1873812Y73905825D01*
X1873811Y73905823D01*
X1846300Y73803148D01*
X1846300Y73696852D01*
X1873811Y73594177D01*
X1926959Y73502122D01*
X2002122Y73426959D01*
X2094177Y73373811D01*
X2109243Y73369775D01*
X2168903Y73333410D01*
X2199432Y73270563D01*
X2191137Y73201188D01*
X2146652Y73147310D01*
X2109244Y73130227D01*
X2094177Y73126189D01*
X2094175Y73126188D01*
X2094174Y73126188D01*
X2002125Y73073043D01*
X2002119Y73073039D01*
X1926961Y72997881D01*
X1926957Y72997875D01*
X1873812Y72905826D01*
X1873812Y72905825D01*
X1873811Y72905823D01*
X1846300Y72803148D01*
X1846300Y72696852D01*
X1873811Y72594177D01*
X1926959Y72502122D01*
X2002122Y72426959D01*
X2094177Y72373811D01*
X2109243Y72369775D01*
X2168903Y72333410D01*
X2199432Y72270563D01*
X2191137Y72201188D01*
X2146652Y72147310D01*
X2109244Y72130227D01*
X2094177Y72126189D01*
X2094175Y72126188D01*
X2094174Y72126188D01*
X2002125Y72073043D01*
X2002119Y72073039D01*
X1926961Y71997881D01*
X1926957Y71997875D01*
X1873812Y71905826D01*
X1873812Y71905825D01*
X1873811Y71905823D01*
X1846300Y71803148D01*
X1846300Y71696852D01*
X1873811Y71594177D01*
X1926959Y71502122D01*
X2002122Y71426959D01*
X2094177Y71373811D01*
X2196852Y71346300D01*
X2196854Y71346300D01*
X2303146Y71346300D01*
X2303148Y71346300D01*
X2405823Y71373811D01*
X2497878Y71426959D01*
X2573041Y71502122D01*
X2626189Y71594177D01*
X2630225Y71609244D01*
X2666589Y71668903D01*
X2729435Y71699433D01*
X2798811Y71691139D01*
X2852690Y71646654D01*
X2869773Y71609245D01*
X2873811Y71594177D01*
X2926959Y71502122D01*
X3002122Y71426959D01*
X3094177Y71373811D01*
X3196852Y71346300D01*
X3196854Y71346300D01*
X3303146Y71346300D01*
X3303148Y71346300D01*
X3405823Y71373811D01*
X3497878Y71426959D01*
X3573041Y71502122D01*
X3626189Y71594177D01*
X3630225Y71609244D01*
X3666589Y71668903D01*
X3729435Y71699433D01*
X3798811Y71691139D01*
X3852690Y71646654D01*
X3869773Y71609245D01*
X3873811Y71594177D01*
X3926959Y71502122D01*
X4002122Y71426959D01*
X4094177Y71373811D01*
X4196852Y71346300D01*
X4196854Y71346300D01*
X4303146Y71346300D01*
X4303148Y71346300D01*
X4405823Y71373811D01*
X4497878Y71426959D01*
X4573041Y71502122D01*
X4626189Y71594177D01*
X4630225Y71609244D01*
X4666589Y71668903D01*
X4729435Y71699433D01*
X4798811Y71691139D01*
X4852690Y71646654D01*
X4869773Y71609245D01*
X4873811Y71594177D01*
X4926959Y71502122D01*
X5002122Y71426959D01*
X5094177Y71373811D01*
X5196852Y71346300D01*
X5196854Y71346300D01*
X5303146Y71346300D01*
X5303148Y71346300D01*
X5405823Y71373811D01*
X5497878Y71426959D01*
X5573041Y71502122D01*
X5626189Y71594177D01*
X5653700Y71696852D01*
X5653700Y71803148D01*
X5626189Y71905823D01*
X5573041Y71997878D01*
X5497878Y72073041D01*
X5408145Y72124849D01*
X5405824Y72126189D01*
X5326996Y72147310D01*
X5303148Y72153700D01*
X5196852Y72153700D01*
X5094177Y72126189D01*
X5094175Y72126188D01*
X5094174Y72126188D01*
X5002125Y72073043D01*
X5002119Y72073039D01*
X4926961Y71997881D01*
X4926957Y71997875D01*
X4873812Y71905826D01*
X4873812Y71905825D01*
X4873811Y71905823D01*
X4869774Y71890757D01*
X4833410Y71831097D01*
X4770563Y71800568D01*
X4701188Y71808863D01*
X4647310Y71853348D01*
X4630226Y71890756D01*
X4626189Y71905823D01*
X4573041Y71997878D01*
X4497878Y72073041D01*
X4421995Y72116852D01*
X4405825Y72126188D01*
X4405824Y72126189D01*
X4405823Y72126189D01*
X4303148Y72153700D01*
X4196852Y72153700D01*
X4094177Y72126189D01*
X4094175Y72126188D01*
X4094174Y72126188D01*
X4002125Y72073043D01*
X4002119Y72073039D01*
X3926961Y71997881D01*
X3926957Y71997875D01*
X3873812Y71905826D01*
X3873812Y71905825D01*
X3873811Y71905823D01*
X3869774Y71890757D01*
X3833410Y71831097D01*
X3770563Y71800568D01*
X3701188Y71808863D01*
X3647310Y71853348D01*
X3630226Y71890756D01*
X3626189Y71905823D01*
X3573041Y71997878D01*
X3497878Y72073041D01*
X3421995Y72116852D01*
X3405825Y72126188D01*
X3405824Y72126189D01*
X3405823Y72126189D01*
X3303148Y72153700D01*
X3196852Y72153700D01*
X3094177Y72126189D01*
X3094175Y72126188D01*
X3094174Y72126188D01*
X3002125Y72073043D01*
X3002119Y72073039D01*
X2926961Y71997881D01*
X2926957Y71997875D01*
X2873812Y71905826D01*
X2873812Y71905825D01*
X2873811Y71905823D01*
X2869774Y71890757D01*
X2833410Y71831097D01*
X2770563Y71800568D01*
X2701188Y71808863D01*
X2647310Y71853348D01*
X2630226Y71890756D01*
X2626189Y71905823D01*
X2573041Y71997878D01*
X2497878Y72073041D01*
X2421995Y72116852D01*
X2405825Y72126188D01*
X2405823Y72126189D01*
X2402938Y72126962D01*
X2390756Y72130226D01*
X2331097Y72166589D01*
X2303621Y72223148D01*
X16076300Y72223148D01*
X16076300Y72116852D01*
X16103811Y72014177D01*
X16103812Y72014176D01*
X16103812Y72014175D01*
X16113221Y71997878D01*
X16156959Y71922122D01*
X16232122Y71846959D01*
X16324177Y71793811D01*
X16426852Y71766300D01*
X16426854Y71766300D01*
X16533146Y71766300D01*
X16533148Y71766300D01*
X16635823Y71793811D01*
X16727878Y71846959D01*
X16803041Y71922122D01*
X16856189Y72014177D01*
X16883700Y72116852D01*
X16883700Y72223148D01*
X16882360Y72228148D01*
X17956300Y72228148D01*
X17956300Y72121852D01*
X17983811Y72019177D01*
X18036959Y71927122D01*
X18112122Y71851959D01*
X18204177Y71798811D01*
X18306852Y71771300D01*
X18306854Y71771300D01*
X18413146Y71771300D01*
X18413148Y71771300D01*
X18515823Y71798811D01*
X18607878Y71851959D01*
X18683041Y71927122D01*
X18736189Y72019177D01*
X18763700Y72121852D01*
X18763700Y72228148D01*
X18736189Y72330823D01*
X18683041Y72422878D01*
X18607878Y72498041D01*
X18599032Y72503148D01*
X18971300Y72503148D01*
X18971300Y72396852D01*
X18998811Y72294177D01*
X19002782Y72287298D01*
X19002783Y72287297D01*
X19020314Y72256933D01*
X19051959Y72202122D01*
X19127122Y72126959D01*
X19219177Y72073811D01*
X19321852Y72046300D01*
X19321854Y72046300D01*
X19428146Y72046300D01*
X19428148Y72046300D01*
X19530823Y72073811D01*
X19622878Y72126959D01*
X19698041Y72202122D01*
X19751189Y72294177D01*
X19778700Y72396852D01*
X19778700Y72503148D01*
X19751189Y72605823D01*
X19698041Y72697878D01*
X19622878Y72773041D01*
X19530823Y72826189D01*
X19428148Y72853700D01*
X19321852Y72853700D01*
X19219177Y72826189D01*
X19219175Y72826188D01*
X19219174Y72826188D01*
X19127125Y72773043D01*
X19127119Y72773039D01*
X19051961Y72697881D01*
X19051957Y72697875D01*
X18998812Y72605826D01*
X18998812Y72605825D01*
X18998811Y72605823D01*
X18971300Y72503148D01*
X18599032Y72503148D01*
X18515823Y72551189D01*
X18413148Y72578700D01*
X18306852Y72578700D01*
X18204177Y72551189D01*
X18204175Y72551188D01*
X18204174Y72551188D01*
X18112125Y72498043D01*
X18112119Y72498039D01*
X18036961Y72422881D01*
X18036957Y72422875D01*
X17983812Y72330826D01*
X17983812Y72330825D01*
X17983811Y72330823D01*
X17956300Y72228148D01*
X16882360Y72228148D01*
X16856189Y72325823D01*
X16803041Y72417878D01*
X16727878Y72493041D01*
X16635823Y72546189D01*
X16533148Y72573700D01*
X16426852Y72573700D01*
X16324177Y72546189D01*
X16324175Y72546188D01*
X16324174Y72546188D01*
X16232125Y72493043D01*
X16232119Y72493039D01*
X16156961Y72417881D01*
X16156957Y72417875D01*
X16103812Y72325826D01*
X16103812Y72325825D01*
X16103811Y72325823D01*
X16076300Y72223148D01*
X2303621Y72223148D01*
X2300567Y72229435D01*
X2308861Y72298811D01*
X2353346Y72352690D01*
X2390755Y72369774D01*
X2405823Y72373811D01*
X2497878Y72426959D01*
X2573041Y72502122D01*
X2626189Y72594177D01*
X2653700Y72696852D01*
X2653700Y72803148D01*
X2626189Y72905823D01*
X2573041Y72997878D01*
X2497878Y73073041D01*
X2405823Y73126189D01*
X2390756Y73130226D01*
X2331097Y73166589D01*
X2300567Y73229435D01*
X2308861Y73298811D01*
X2353346Y73352690D01*
X2390755Y73369774D01*
X2405823Y73373811D01*
X2497878Y73426959D01*
X2573041Y73502122D01*
X2626189Y73594177D01*
X2630225Y73609244D01*
X2666589Y73668903D01*
X2729435Y73699433D01*
X2798811Y73691139D01*
X2852690Y73646654D01*
X2869773Y73609245D01*
X2873811Y73594177D01*
X2926959Y73502122D01*
X3002122Y73426959D01*
X3094177Y73373811D01*
X3196852Y73346300D01*
X3196854Y73346300D01*
X3303146Y73346300D01*
X3303148Y73346300D01*
X3405823Y73373811D01*
X3497878Y73426959D01*
X3573041Y73502122D01*
X3626189Y73594177D01*
X3630225Y73609244D01*
X3666589Y73668903D01*
X3729435Y73699433D01*
X3798811Y73691139D01*
X3852690Y73646654D01*
X3869773Y73609245D01*
X3873811Y73594177D01*
X3926959Y73502122D01*
X4002122Y73426959D01*
X4094177Y73373811D01*
X4196852Y73346300D01*
X4196854Y73346300D01*
X4303146Y73346300D01*
X4303148Y73346300D01*
X4405823Y73373811D01*
X4497878Y73426959D01*
X4573041Y73502122D01*
X4626189Y73594177D01*
X4626941Y73596985D01*
X4628221Y73599086D01*
X4629297Y73601682D01*
X4629701Y73601515D01*
X4663297Y73656643D01*
X4726141Y73687178D01*
X4795517Y73678890D01*
X4849400Y73634410D01*
X4866490Y73596994D01*
X4871035Y73580032D01*
X4924183Y73487977D01*
X4999346Y73412814D01*
X5091401Y73359666D01*
X5194076Y73332155D01*
X5194078Y73332155D01*
X5300370Y73332155D01*
X5300372Y73332155D01*
X5403047Y73359666D01*
X5495102Y73412814D01*
X5570265Y73487977D01*
X5623413Y73580032D01*
X5650924Y73682707D01*
X5650924Y73789003D01*
X5637632Y73838611D01*
X22528200Y73838611D01*
X22528200Y73711390D01*
X22553015Y73586635D01*
X22553018Y73586625D01*
X22601697Y73469102D01*
X22601702Y73469093D01*
X22672373Y73363327D01*
X22672376Y73363323D01*
X22762322Y73273377D01*
X22762326Y73273374D01*
X22868092Y73202703D01*
X22868098Y73202700D01*
X22868099Y73202699D01*
X22985627Y73154017D01*
X23105241Y73130225D01*
X23110389Y73129201D01*
X23110393Y73129200D01*
X23110394Y73129200D01*
X23237607Y73129200D01*
X23237608Y73129201D01*
X23362373Y73154017D01*
X23479901Y73202699D01*
X23585674Y73273374D01*
X23675626Y73363326D01*
X23746301Y73469099D01*
X23794983Y73586627D01*
X23819800Y73711394D01*
X23819800Y73838606D01*
X23819799Y73838611D01*
X24560200Y73838611D01*
X24560200Y73711390D01*
X24585015Y73586635D01*
X24585018Y73586625D01*
X24633697Y73469102D01*
X24633702Y73469093D01*
X24704373Y73363327D01*
X24704376Y73363323D01*
X24794322Y73273377D01*
X24794326Y73273374D01*
X24900092Y73202703D01*
X24900098Y73202700D01*
X24900099Y73202699D01*
X25017627Y73154017D01*
X25137241Y73130225D01*
X25142389Y73129201D01*
X25142393Y73129200D01*
X25142394Y73129200D01*
X25269607Y73129200D01*
X25269608Y73129201D01*
X25394373Y73154017D01*
X25511901Y73202699D01*
X25617674Y73273374D01*
X25707626Y73363326D01*
X25778301Y73469099D01*
X25826983Y73586627D01*
X25851800Y73711394D01*
X25851800Y73838606D01*
X25826983Y73963373D01*
X25778301Y74080901D01*
X25778300Y74080902D01*
X25778297Y74080908D01*
X25707626Y74186674D01*
X25707623Y74186678D01*
X25617677Y74276624D01*
X25617673Y74276627D01*
X25511907Y74347298D01*
X25511898Y74347303D01*
X25394375Y74395982D01*
X25394376Y74395982D01*
X25394373Y74395983D01*
X25394369Y74395984D01*
X25394365Y74395985D01*
X25269610Y74420800D01*
X25269606Y74420800D01*
X25142394Y74420800D01*
X25142389Y74420800D01*
X25017634Y74395985D01*
X25017624Y74395982D01*
X24900101Y74347303D01*
X24900092Y74347298D01*
X24794326Y74276627D01*
X24794322Y74276624D01*
X24704376Y74186678D01*
X24704373Y74186674D01*
X24633702Y74080908D01*
X24633697Y74080899D01*
X24585018Y73963376D01*
X24585015Y73963366D01*
X24560200Y73838611D01*
X23819799Y73838611D01*
X23794983Y73963373D01*
X23746301Y74080901D01*
X23746300Y74080902D01*
X23746297Y74080908D01*
X23675626Y74186674D01*
X23675623Y74186678D01*
X23585677Y74276624D01*
X23585673Y74276627D01*
X23479907Y74347298D01*
X23479898Y74347303D01*
X23362375Y74395982D01*
X23362376Y74395982D01*
X23362373Y74395983D01*
X23362369Y74395984D01*
X23362365Y74395985D01*
X23237610Y74420800D01*
X23237606Y74420800D01*
X23110394Y74420800D01*
X23110389Y74420800D01*
X22985634Y74395985D01*
X22985624Y74395982D01*
X22868101Y74347303D01*
X22868092Y74347298D01*
X22762326Y74276627D01*
X22762322Y74276624D01*
X22672376Y74186678D01*
X22672373Y74186674D01*
X22601702Y74080908D01*
X22601697Y74080899D01*
X22553018Y73963376D01*
X22553015Y73963366D01*
X22528200Y73838611D01*
X5637632Y73838611D01*
X5623413Y73891678D01*
X5570265Y73983733D01*
X5495102Y74058896D01*
X5403049Y74112043D01*
X5403050Y74112043D01*
X5403047Y74112044D01*
X5362971Y74122782D01*
X5303313Y74159146D01*
X5272784Y74221993D01*
X5281079Y74291369D01*
X5325564Y74345247D01*
X5362970Y74362330D01*
X5405823Y74373811D01*
X5497878Y74426959D01*
X5573041Y74502122D01*
X5626189Y74594177D01*
X5653700Y74696852D01*
X5653700Y74803148D01*
X5626189Y74905823D01*
X5573041Y74997878D01*
X5497878Y75073041D01*
X5497875Y75073043D01*
X5491429Y75077989D01*
X5492723Y75079677D01*
X5452273Y75122097D01*
X5439047Y75190704D01*
X5465012Y75255570D01*
X5521925Y75296100D01*
X5530373Y75298691D01*
X5530823Y75298811D01*
X5622878Y75351959D01*
X5698041Y75427122D01*
X5751189Y75519177D01*
X5778700Y75621852D01*
X5778700Y75728148D01*
X5763387Y75785299D01*
X20312050Y75785299D01*
X20312050Y75574702D01*
X20344995Y75366695D01*
X20344995Y75366692D01*
X20410071Y75166409D01*
X20455124Y75077989D01*
X20505683Y74978761D01*
X20629469Y74808384D01*
X20778384Y74659469D01*
X20948761Y74535683D01*
X21136406Y74440073D01*
X21136408Y74440072D01*
X21336692Y74374996D01*
X21336693Y74374996D01*
X21336696Y74374995D01*
X21544701Y74342050D01*
X21544702Y74342050D01*
X21755298Y74342050D01*
X21755299Y74342050D01*
X21963304Y74374995D01*
X21963307Y74374996D01*
X21963308Y74374996D01*
X22163591Y74440072D01*
X22163591Y74440073D01*
X22163594Y74440073D01*
X22351239Y74535683D01*
X22521616Y74659469D01*
X22670531Y74808384D01*
X22794317Y74978761D01*
X22889927Y75166406D01*
X22932067Y75296100D01*
X22955004Y75366692D01*
X22955004Y75366693D01*
X22955005Y75366696D01*
X22987950Y75574701D01*
X22987950Y75785299D01*
X22955005Y75993304D01*
X22955004Y75993308D01*
X22955004Y75993309D01*
X22889928Y76193592D01*
X22836315Y76298813D01*
X22794317Y76381239D01*
X22670531Y76551616D01*
X22521616Y76700531D01*
X22351239Y76824317D01*
X22278458Y76861401D01*
X25054649Y76861401D01*
X25054649Y76755105D01*
X25082160Y76652430D01*
X25135308Y76560375D01*
X25210471Y76485212D01*
X25302526Y76432064D01*
X25405201Y76404553D01*
X25405202Y76404553D01*
X25411514Y76403722D01*
X25475411Y76375455D01*
X25513882Y76317131D01*
X25514713Y76247266D01*
X25505814Y76224488D01*
X25490071Y76193592D01*
X25424995Y75993309D01*
X25424995Y75993306D01*
X25392050Y75785299D01*
X25392050Y75574702D01*
X25424995Y75366695D01*
X25424995Y75366692D01*
X25490071Y75166409D01*
X25535124Y75077989D01*
X25585683Y74978761D01*
X25709469Y74808384D01*
X25858384Y74659469D01*
X26028761Y74535683D01*
X26216406Y74440073D01*
X26216408Y74440072D01*
X26416692Y74374996D01*
X26416693Y74374996D01*
X26416696Y74374995D01*
X26624701Y74342050D01*
X26624702Y74342050D01*
X26835298Y74342050D01*
X26835299Y74342050D01*
X27043304Y74374995D01*
X27043307Y74374996D01*
X27043308Y74374996D01*
X27243591Y74440072D01*
X27243591Y74440073D01*
X27243594Y74440073D01*
X27431239Y74535683D01*
X27601616Y74659469D01*
X27750531Y74808384D01*
X27874317Y74978761D01*
X27969927Y75166406D01*
X28012067Y75296100D01*
X28035004Y75366692D01*
X28035004Y75366693D01*
X28035005Y75366696D01*
X28067950Y75574701D01*
X28067950Y75785299D01*
X28035005Y75993304D01*
X28035004Y75993308D01*
X28035004Y75993309D01*
X27969928Y76193592D01*
X27916315Y76298813D01*
X27874317Y76381239D01*
X27750531Y76551616D01*
X27601616Y76700531D01*
X27431239Y76824317D01*
X27243591Y76919929D01*
X27043307Y76985005D01*
X26887300Y77009714D01*
X26835299Y77017950D01*
X26624701Y77017950D01*
X26555366Y77006969D01*
X26416694Y76985005D01*
X26416691Y76985005D01*
X26216408Y76919929D01*
X26027255Y76823550D01*
X26010040Y76820318D01*
X25994478Y76812286D01*
X25976417Y76814003D01*
X25958586Y76810654D01*
X25942357Y76817241D01*
X25924922Y76818898D01*
X25910656Y76830107D01*
X25893845Y76836930D01*
X25883628Y76851344D01*
X25869982Y76862066D01*
X25857978Y76887531D01*
X25853797Y76893430D01*
X25852342Y76897627D01*
X25834538Y76964076D01*
X25821467Y76986715D01*
X25817599Y76997877D01*
X25816466Y77021446D01*
X25810902Y77044380D01*
X25814820Y77055701D01*
X25814245Y77067666D01*
X25826035Y77088108D01*
X25833753Y77110407D01*
X25847076Y77126158D01*
X25898041Y77177122D01*
X25951189Y77269177D01*
X25978700Y77371852D01*
X25978700Y77478148D01*
X25970708Y77507976D01*
X25972371Y77577822D01*
X26011533Y77635685D01*
X26075762Y77663189D01*
X26144664Y77651603D01*
X26146779Y77650550D01*
X26216406Y77615073D01*
X26416692Y77549996D01*
X26416693Y77549996D01*
X26416696Y77549995D01*
X26624701Y77517050D01*
X26624702Y77517050D01*
X26835298Y77517050D01*
X26835299Y77517050D01*
X27043304Y77549995D01*
X27043307Y77549996D01*
X27043308Y77549996D01*
X27243591Y77615072D01*
X27243591Y77615073D01*
X27243594Y77615073D01*
X27431239Y77710683D01*
X27601616Y77834469D01*
X27750531Y77983384D01*
X27874317Y78153761D01*
X27969927Y78341406D01*
X28035005Y78541696D01*
X28067950Y78749701D01*
X28067950Y78960299D01*
X28035005Y79168304D01*
X28035004Y79168308D01*
X28035004Y79168309D01*
X27969928Y79368592D01*
X27930333Y79446301D01*
X27874317Y79556239D01*
X27750531Y79726616D01*
X27601616Y79875531D01*
X27431239Y79999317D01*
X27418464Y80005826D01*
X27243591Y80094929D01*
X27043307Y80160005D01*
X26887300Y80184714D01*
X26835299Y80192950D01*
X26624701Y80192950D01*
X26555366Y80181969D01*
X26416694Y80160005D01*
X26416691Y80160005D01*
X26216408Y80094929D01*
X26028760Y79999317D01*
X25858381Y79875529D01*
X25709471Y79726619D01*
X25585683Y79556240D01*
X25490071Y79368592D01*
X25424995Y79168309D01*
X25424995Y79168306D01*
X25392050Y78960299D01*
X25392050Y78749702D01*
X25424995Y78541695D01*
X25424995Y78541692D01*
X25490071Y78341409D01*
X25585683Y78153761D01*
X25678808Y78025585D01*
X25702288Y77959779D01*
X25686463Y77891725D01*
X25636357Y77843030D01*
X25578490Y77828700D01*
X25521852Y77828700D01*
X25419177Y77801189D01*
X25419175Y77801188D01*
X25419174Y77801188D01*
X25327125Y77748043D01*
X25327119Y77748039D01*
X25251961Y77672881D01*
X25251957Y77672875D01*
X25198812Y77580826D01*
X25198812Y77580825D01*
X25198811Y77580823D01*
X25171300Y77478148D01*
X25171300Y77371852D01*
X25198811Y77269177D01*
X25198812Y77269176D01*
X25198812Y77269175D01*
X25205973Y77256772D01*
X25222446Y77188872D01*
X25199593Y77122845D01*
X25186268Y77107092D01*
X25135311Y77056135D01*
X25135306Y77056128D01*
X25082161Y76964079D01*
X25082161Y76964078D01*
X25082160Y76964076D01*
X25054649Y76861401D01*
X22278458Y76861401D01*
X22163591Y76919929D01*
X21963307Y76985005D01*
X21807300Y77009714D01*
X21755299Y77017950D01*
X21544701Y77017950D01*
X21475366Y77006969D01*
X21336694Y76985005D01*
X21336691Y76985005D01*
X21136408Y76919929D01*
X20948760Y76824317D01*
X20778381Y76700529D01*
X20629471Y76551619D01*
X20505683Y76381240D01*
X20410071Y76193592D01*
X20344995Y75993309D01*
X20344995Y75993306D01*
X20312050Y75785299D01*
X5763387Y75785299D01*
X5751189Y75830823D01*
X5698041Y75922878D01*
X5622878Y75998041D01*
X5530823Y76051189D01*
X5428148Y76078700D01*
X5321852Y76078700D01*
X5219177Y76051189D01*
X5219175Y76051188D01*
X5219174Y76051188D01*
X5127125Y75998043D01*
X5127119Y75998039D01*
X5051961Y75922881D01*
X5051957Y75922875D01*
X4998812Y75830826D01*
X4998812Y75830825D01*
X4998811Y75830823D01*
X4971300Y75728148D01*
X4971300Y75621852D01*
X4998811Y75519177D01*
X5051959Y75427122D01*
X5127122Y75351959D01*
X5127124Y75351958D01*
X5133571Y75347011D01*
X5132274Y75345322D01*
X5172722Y75302911D01*
X5185953Y75234306D01*
X5159992Y75169438D01*
X5103083Y75128903D01*
X5094615Y75126307D01*
X5094183Y75126192D01*
X5094174Y75126188D01*
X5002125Y75073043D01*
X5002119Y75073039D01*
X4926961Y74997881D01*
X4926957Y74997875D01*
X4873812Y74905826D01*
X4873812Y74905825D01*
X4873811Y74905823D01*
X4869774Y74890757D01*
X4833410Y74831097D01*
X4770563Y74800568D01*
X4701188Y74808863D01*
X4647310Y74853348D01*
X4630226Y74890756D01*
X4626189Y74905823D01*
X4573041Y74997878D01*
X4497878Y75073041D01*
X4405823Y75126189D01*
X4303148Y75153700D01*
X4196852Y75153700D01*
X4094177Y75126189D01*
X4094175Y75126188D01*
X4094174Y75126188D01*
X4002125Y75073043D01*
X4002119Y75073039D01*
X3926961Y74997881D01*
X3926957Y74997875D01*
X3873812Y74905826D01*
X3873812Y74905825D01*
X3873811Y74905823D01*
X3869774Y74890757D01*
X3833410Y74831097D01*
X3770563Y74800568D01*
X3701188Y74808863D01*
X3647310Y74853348D01*
X3630226Y74890756D01*
X3626189Y74905823D01*
X3573041Y74997878D01*
X3497878Y75073041D01*
X3405823Y75126189D01*
X3303148Y75153700D01*
X3196852Y75153700D01*
X3094177Y75126189D01*
X3094175Y75126188D01*
X3094174Y75126188D01*
X3002125Y75073043D01*
X3002119Y75073039D01*
X2926961Y74997881D01*
X2926957Y74997875D01*
X2873812Y74905826D01*
X2873812Y74905825D01*
X2873811Y74905823D01*
X2869774Y74890757D01*
X2833410Y74831097D01*
X2770563Y74800568D01*
X2701188Y74808863D01*
X2647310Y74853348D01*
X2630226Y74890756D01*
X2626189Y74905823D01*
X2573041Y74997878D01*
X2497878Y75073041D01*
X2405823Y75126189D01*
X2303148Y75153700D01*
X2196852Y75153700D01*
X2094177Y75126189D01*
X2094175Y75126188D01*
X2094174Y75126188D01*
X2002125Y75073043D01*
X2002119Y75073039D01*
X1926961Y74997881D01*
X1926957Y74997875D01*
X1873812Y74905826D01*
X1873812Y74905825D01*
X1873811Y74905823D01*
X1846300Y74803148D01*
X1100500Y74803148D01*
X1100500Y76328148D01*
X17346300Y76328148D01*
X17346300Y76221852D01*
X17373811Y76119177D01*
X17426959Y76027122D01*
X17502122Y75951959D01*
X17594177Y75898811D01*
X17696852Y75871300D01*
X17696854Y75871300D01*
X17803146Y75871300D01*
X17803148Y75871300D01*
X17905823Y75898811D01*
X17997878Y75951959D01*
X18073041Y76027122D01*
X18126189Y76119177D01*
X18153700Y76221852D01*
X18153700Y76328148D01*
X18126189Y76430823D01*
X18073041Y76522878D01*
X17997878Y76598041D01*
X17905823Y76651189D01*
X17803148Y76678700D01*
X17696852Y76678700D01*
X17594177Y76651189D01*
X17594175Y76651188D01*
X17594174Y76651188D01*
X17502125Y76598043D01*
X17502119Y76598039D01*
X17426961Y76522881D01*
X17426957Y76522875D01*
X17373812Y76430826D01*
X17373812Y76430825D01*
X17373811Y76430823D01*
X17346300Y76328148D01*
X1100500Y76328148D01*
X1100500Y76728148D01*
X18496300Y76728148D01*
X18496300Y76621852D01*
X18523811Y76519177D01*
X18576959Y76427122D01*
X18652122Y76351959D01*
X18744177Y76298811D01*
X18846852Y76271300D01*
X18846854Y76271300D01*
X18953146Y76271300D01*
X18953148Y76271300D01*
X19055823Y76298811D01*
X19147878Y76351959D01*
X19223041Y76427122D01*
X19276189Y76519177D01*
X19303700Y76621852D01*
X19303700Y76728148D01*
X19276189Y76830823D01*
X19223041Y76922878D01*
X19147878Y76998041D01*
X19055823Y77051189D01*
X18953148Y77078700D01*
X18846852Y77078700D01*
X18744177Y77051189D01*
X18744175Y77051188D01*
X18744174Y77051188D01*
X18652125Y76998043D01*
X18652119Y76998039D01*
X18576961Y76922881D01*
X18576957Y76922875D01*
X18523812Y76830826D01*
X18523812Y76830825D01*
X18523811Y76830823D01*
X18496300Y76728148D01*
X1100500Y76728148D01*
X1100500Y79553148D01*
X3621300Y79553148D01*
X3621300Y79446852D01*
X3648811Y79344177D01*
X3701959Y79252122D01*
X3777122Y79176959D01*
X3869177Y79123811D01*
X3971852Y79096300D01*
X3971854Y79096300D01*
X4078146Y79096300D01*
X4078148Y79096300D01*
X4180823Y79123811D01*
X4272878Y79176959D01*
X4348041Y79252122D01*
X4401189Y79344177D01*
X4428700Y79446852D01*
X4428700Y79553148D01*
X4401189Y79655823D01*
X4348041Y79747878D01*
X4272878Y79823041D01*
X4180823Y79876189D01*
X4078148Y79903700D01*
X3971852Y79903700D01*
X3869177Y79876189D01*
X3869175Y79876188D01*
X3869174Y79876188D01*
X3777125Y79823043D01*
X3777119Y79823039D01*
X3701961Y79747881D01*
X3701957Y79747875D01*
X3648812Y79655826D01*
X3648812Y79655825D01*
X3648811Y79655823D01*
X3621300Y79553148D01*
X1100500Y79553148D01*
X1100500Y80390243D01*
X1102027Y80409640D01*
X1106817Y80439882D01*
X1112087Y80473155D01*
X1124072Y80510045D01*
X1148785Y80558548D01*
X1171583Y80589927D01*
X1210073Y80628417D01*
X1241452Y80651215D01*
X1289955Y80675928D01*
X1326843Y80687913D01*
X1378320Y80696067D01*
X1390360Y80697973D01*
X1409757Y80699500D01*
X1439882Y80699500D01*
X12412525Y80699500D01*
X12414413Y80698946D01*
G37*
%TD.AperFunction*%
%TD*%
M02*
